<?xml version="1.0" encoding="utf-8" standalone="no"?>
<!DOCTYPE svg PUBLIC "-//W3C//DTD SVG 1.1//EN"
  "http://www.w3.org/Graphics/SVG/1.1/DTD/svg11.dtd">
<svg xmlns:xlink="http://www.w3.org/1999/xlink" width="399.624687pt" height="297.190125pt" viewBox="0 0 399.624687 297.190125" xmlns="http://www.w3.org/2000/svg" version="1.1">
 <metadata>
  <rdf:RDF xmlns:dc="http://purl.org/dc/elements/1.1/" xmlns:cc="http://creativecommons.org/ns#" xmlns:rdf="http://www.w3.org/1999/02/22-rdf-syntax-ns#">
   <cc:Work>
    <dc:type rdf:resource="http://purl.org/dc/dcmitype/StillImage"/>
    <dc:date>2023-11-12T10:41:19.831484</dc:date>
    <dc:format>image/svg+xml</dc:format>
    <dc:creator>
     <cc:Agent>
      <dc:title>Matplotlib v3.8.0, https://matplotlib.org/</dc:title>
     </cc:Agent>
    </dc:creator>
   </cc:Work>
  </rdf:RDF>
 </metadata>
 <defs>
  <style type="text/css">*{stroke-linejoin: round; stroke-linecap: butt}</style>
 </defs>
 <g id="figure_1">
  <g id="patch_1">
   <path d="M 0 297.190125 
L 399.624687 297.190125 
L 399.624687 0 
L 0 0 
z
" style="fill: #ffffff"/>
  </g>
  <g id="axes_1">
   <g id="patch_2">
    <path d="M 35.304688 273.312 
L 392.424688 273.312 
L 392.424688 7.2 
L 35.304688 7.2 
z
" style="fill: #ffffff"/>
   </g>
   <g id="PathCollection_1">
    <defs>
     <path id="mdf52f91841" d="M 0 1.5 
C 0.397805 1.5 0.77937 1.341951 1.06066 1.06066 
C 1.341951 0.77937 1.5 0.397805 1.5 0 
C 1.5 -0.397805 1.341951 -0.77937 1.06066 -1.06066 
C 0.77937 -1.341951 0.397805 -1.5 0 -1.5 
C -0.397805 -1.5 -0.77937 -1.341951 -1.06066 -1.06066 
C -1.341951 -0.77937 -1.5 -0.397805 -1.5 0 
C -1.5 0.397805 -1.341951 0.77937 -1.06066 1.06066 
C -0.77937 1.341951 -0.397805 1.5 0 1.5 
z
" style="stroke: #ff8c00"/>
    </defs>
    <g clip-path="url(#p9e6ae5cdaa)">
     <use xlink:href="#mdf52f91841" x="170.5398" y="109.192657" style="fill: #ff8c00; stroke: #ff8c00"/>
     <use xlink:href="#mdf52f91841" x="198.841871" y="130.569878" style="fill: #ff8c00; stroke: #ff8c00"/>
     <use xlink:href="#mdf52f91841" x="103.797558" y="161.671668" style="fill: #ff8c00; stroke: #ff8c00"/>
     <use xlink:href="#mdf52f91841" x="125.729049" y="169.667957" style="fill: #ff8c00; stroke: #ff8c00"/>
     <use xlink:href="#mdf52f91841" x="147.859802" y="19.296" style="fill: #ff8c00; stroke: #ff8c00"/>
     <use xlink:href="#mdf52f91841" x="97.509503" y="175.381405" style="fill: #ff8c00; stroke: #ff8c00"/>
     <use xlink:href="#mdf52f91841" x="102.737359" y="128.599581" style="fill: #ff8c00; stroke: #ff8c00"/>
     <use xlink:href="#mdf52f91841" x="94.733914" y="58.435831" style="fill: #ff8c00; stroke: #ff8c00"/>
     <use xlink:href="#mdf52f91841" x="347.067669" y="41.166786" style="fill: #ff8c00; stroke: #ff8c00"/>
     <use xlink:href="#mdf52f91841" x="89.663976" y="98.500225" style="fill: #ff8c00; stroke: #ff8c00"/>
     <use xlink:href="#mdf52f91841" x="239.772145" y="157.991831" style="fill: #ff8c00; stroke: #ff8c00"/>
     <use xlink:href="#mdf52f91841" x="151.089509" y="105.922391" style="fill: #ff8c00; stroke: #ff8c00"/>
     <use xlink:href="#mdf52f91841" x="101.46416" y="149.014822" style="fill: #ff8c00; stroke: #ff8c00"/>
     <use xlink:href="#mdf52f91841" x="145.169" y="96.485759" style="fill: #ff8c00; stroke: #ff8c00"/>
     <use xlink:href="#mdf52f91841" x="275.980494" y="87.815983" style="fill: #ff8c00; stroke: #ff8c00"/>
    </g>
   </g>
   <g id="PathCollection_2">
    <defs>
     <path id="mae5a8ea971" d="M 0 1.5 
C 0.397805 1.5 0.77937 1.341951 1.06066 1.06066 
C 1.341951 0.77937 1.5 0.397805 1.5 0 
C 1.5 -0.397805 1.341951 -0.77937 1.06066 -1.06066 
C 0.77937 -1.341951 0.397805 -1.5 0 -1.5 
C -0.397805 -1.5 -0.77937 -1.341951 -1.06066 -1.06066 
C -1.341951 -0.77937 -1.5 -0.397805 -1.5 0 
C -1.5 0.397805 -1.341951 0.77937 -1.06066 1.06066 
C -0.77937 1.341951 -0.397805 1.5 0 1.5 
z
" style="stroke: #006400"/>
    </defs>
    <g clip-path="url(#p9e6ae5cdaa)">
     <use xlink:href="#mae5a8ea971" x="84.655085" y="123.426005" style="fill: #006400; stroke: #006400"/>
     <use xlink:href="#mae5a8ea971" x="108.576846" y="232.389799" style="fill: #006400; stroke: #006400"/>
     <use xlink:href="#mae5a8ea971" x="120.636407" y="249.9587" style="fill: #006400; stroke: #006400"/>
     <use xlink:href="#mae5a8ea971" x="86.831935" y="225.028288" style="fill: #006400; stroke: #006400"/>
     <use xlink:href="#mae5a8ea971" x="112.224129" y="227.407155" style="fill: #006400; stroke: #006400"/>
     <use xlink:href="#mae5a8ea971" x="123.510498" y="202.599637" style="fill: #006400; stroke: #006400"/>
     <use xlink:href="#mae5a8ea971" x="113.485781" y="230.693222" style="fill: #006400; stroke: #006400"/>
     <use xlink:href="#mae5a8ea971" x="214.571532" y="189.907527" style="fill: #006400; stroke: #006400"/>
     <use xlink:href="#mae5a8ea971" x="372.436738" y="250.412755" style="fill: #006400; stroke: #006400"/>
     <use xlink:href="#mae5a8ea971" x="61.830214" y="225.850646" style="fill: #006400; stroke: #006400"/>
     <use xlink:href="#mae5a8ea971" x="189.158257" y="225.460613" style="fill: #006400; stroke: #006400"/>
     <use xlink:href="#mae5a8ea971" x="60.353586" y="192.486251" style="fill: #006400; stroke: #006400"/>
     <use xlink:href="#mae5a8ea971" x="301.068897" y="227.369187" style="fill: #006400; stroke: #006400"/>
     <use xlink:href="#mae5a8ea971" x="82.231592" y="251.010793" style="fill: #006400; stroke: #006400"/>
    </g>
   </g>
   <g id="PathCollection_3">
    <defs>
     <path id="mec513533d8" d="M 0 1.5 
C 0.397805 1.5 0.77937 1.341951 1.06066 1.06066 
C 1.341951 0.77937 1.5 0.397805 1.5 0 
C 1.5 -0.397805 1.341951 -0.77937 1.06066 -1.06066 
C 0.77937 -1.341951 0.397805 -1.5 0 -1.5 
C -0.397805 -1.5 -0.77937 -1.341951 -1.06066 -1.06066 
C -1.341951 -0.77937 -1.5 -0.397805 -1.5 0 
C -1.5 0.397805 -1.341951 0.77937 -1.06066 1.06066 
C -0.77937 1.341951 -0.397805 1.5 0 1.5 
z
" style="stroke: #2f4f4f"/>
    </defs>
    <g clip-path="url(#p9e6ae5cdaa)">
     <use xlink:href="#mec513533d8" x="124.416719" y="186.086555" style="fill: #2f4f4f; stroke: #2f4f4f"/>
     <use xlink:href="#mec513533d8" x="154.927664" y="239.165265" style="fill: #2f4f4f; stroke: #2f4f4f"/>
     <use xlink:href="#mec513533d8" x="135.745325" y="178.103046" style="fill: #2f4f4f; stroke: #2f4f4f"/>
     <use xlink:href="#mec513533d8" x="92.135452" y="250.42396" style="fill: #2f4f4f; stroke: #2f4f4f"/>
     <use xlink:href="#mec513533d8" x="59.641925" y="206.498805" style="fill: #2f4f4f; stroke: #2f4f4f"/>
     <use xlink:href="#mec513533d8" x="106.43442" y="223.112618" style="fill: #2f4f4f; stroke: #2f4f4f"/>
     <use xlink:href="#mec513533d8" x="171.2988" y="242.536649" style="fill: #2f4f4f; stroke: #2f4f4f"/>
     <use xlink:href="#mec513533d8" x="86.975141" y="213.975555" style="fill: #2f4f4f; stroke: #2f4f4f"/>
     <use xlink:href="#mec513533d8" x="102.196642" y="207.823054" style="fill: #2f4f4f; stroke: #2f4f4f"/>
     <use xlink:href="#mec513533d8" x="84.657637" y="147.16293" style="fill: #2f4f4f; stroke: #2f4f4f"/>
     <use xlink:href="#mec513533d8" x="78.002149" y="197.298603" style="fill: #2f4f4f; stroke: #2f4f4f"/>
     <use xlink:href="#mec513533d8" x="127.979442" y="210.457217" style="fill: #2f4f4f; stroke: #2f4f4f"/>
     <use xlink:href="#mec513533d8" x="151.295831" y="154.243642" style="fill: #2f4f4f; stroke: #2f4f4f"/>
     <use xlink:href="#mec513533d8" x="76.378278" y="199.255249" style="fill: #2f4f4f; stroke: #2f4f4f"/>
     <use xlink:href="#mec513533d8" x="104.078012" y="213.986186" style="fill: #2f4f4f; stroke: #2f4f4f"/>
     <use xlink:href="#mec513533d8" x="141.753157" y="219.656527" style="fill: #2f4f4f; stroke: #2f4f4f"/>
     <use xlink:href="#mec513533d8" x="108.799296" y="222.878832" style="fill: #2f4f4f; stroke: #2f4f4f"/>
     <use xlink:href="#mec513533d8" x="98.888659" y="193.021879" style="fill: #2f4f4f; stroke: #2f4f4f"/>
    </g>
   </g>
   <g id="PathCollection_4">
    <defs>
     <path id="m5985d00d48" d="M 0 1.5 
C 0.397805 1.5 0.77937 1.341951 1.06066 1.06066 
C 1.341951 0.77937 1.5 0.397805 1.5 0 
C 1.5 -0.397805 1.341951 -0.77937 1.06066 -1.06066 
C 0.77937 -1.341951 0.397805 -1.5 0 -1.5 
C -0.397805 -1.5 -0.77937 -1.341951 -1.06066 -1.06066 
C -1.341951 -0.77937 -1.5 -0.397805 -1.5 0 
C -1.5 0.397805 -1.341951 0.77937 -1.06066 1.06066 
C -0.77937 1.341951 -0.397805 1.5 0 1.5 
z
" style="stroke: #00bfff"/>
    </defs>
    <g clip-path="url(#p9e6ae5cdaa)">
     <use xlink:href="#m5985d00d48" x="160.508668" y="177.067498" style="fill: #00bfff; stroke: #00bfff"/>
     <use xlink:href="#m5985d00d48" x="89.492007" y="230.4895" style="fill: #00bfff; stroke: #00bfff"/>
     <use xlink:href="#m5985d00d48" x="156.461129" y="218.062378" style="fill: #00bfff; stroke: #00bfff"/>
     <use xlink:href="#m5985d00d48" x="148.80847" y="207.13869" style="fill: #00bfff; stroke: #00bfff"/>
     <use xlink:href="#m5985d00d48" x="118.163094" y="226.552283" style="fill: #00bfff; stroke: #00bfff"/>
     <use xlink:href="#m5985d00d48" x="91.358132" y="207.163891" style="fill: #00bfff; stroke: #00bfff"/>
     <use xlink:href="#m5985d00d48" x="163.806936" y="230.328363" style="fill: #00bfff; stroke: #00bfff"/>
     <use xlink:href="#m5985d00d48" x="131.046542" y="204.916109" style="fill: #00bfff; stroke: #00bfff"/>
     <use xlink:href="#m5985d00d48" x="122.160237" y="226.190095" style="fill: #00bfff; stroke: #00bfff"/>
     <use xlink:href="#m5985d00d48" x="97.316003" y="209.12604" style="fill: #00bfff; stroke: #00bfff"/>
     <use xlink:href="#m5985d00d48" x="74.01139" y="216.264858" style="fill: #00bfff; stroke: #00bfff"/>
     <use xlink:href="#m5985d00d48" x="75.85782" y="200.212861" style="fill: #00bfff; stroke: #00bfff"/>
     <use xlink:href="#m5985d00d48" x="113.957898" y="231.814861" style="fill: #00bfff; stroke: #00bfff"/>
    </g>
   </g>
   <g id="PathCollection_5">
    <defs>
     <path id="m6b59108de3" d="M 0 1.5 
C 0.397805 1.5 0.77937 1.341951 1.06066 1.06066 
C 1.341951 0.77937 1.5 0.397805 1.5 0 
C 1.5 -0.397805 1.341951 -0.77937 1.06066 -1.06066 
C 0.77937 -1.341951 0.397805 -1.5 0 -1.5 
C -0.397805 -1.5 -0.77937 -1.341951 -1.06066 -1.06066 
C -1.341951 -0.77937 -1.5 -0.397805 -1.5 0 
C -1.5 0.397805 -1.341951 0.77937 -1.06066 1.06066 
C -0.77937 1.341951 -0.397805 1.5 0 1.5 
z
" style="stroke: #ffff00"/>
    </defs>
    <g clip-path="url(#p9e6ae5cdaa)">
     <use xlink:href="#m6b59108de3" x="196.423364" y="247.489946" style="fill: #ffff00; stroke: #ffff00"/>
     <use xlink:href="#m6b59108de3" x="69.473603" y="229.21767" style="fill: #ffff00; stroke: #ffff00"/>
     <use xlink:href="#m6b59108de3" x="114.325421" y="247.674351" style="fill: #ffff00; stroke: #ffff00"/>
     <use xlink:href="#m6b59108de3" x="99.667077" y="235.585371" style="fill: #ffff00; stroke: #ffff00"/>
     <use xlink:href="#m6b59108de3" x="106.850327" y="226.095727" style="fill: #ffff00; stroke: #ffff00"/>
     <use xlink:href="#m6b59108de3" x="86.068787" y="223.549039" style="fill: #ffff00; stroke: #ffff00"/>
     <use xlink:href="#m6b59108de3" x="151.022925" y="183.422777" style="fill: #ffff00; stroke: #ffff00"/>
     <use xlink:href="#m6b59108de3" x="109.556644" y="196.519304" style="fill: #ffff00; stroke: #ffff00"/>
     <use xlink:href="#m6b59108de3" x="116.411486" y="247.483114" style="fill: #ffff00; stroke: #ffff00"/>
     <use xlink:href="#m6b59108de3" x="135.035956" y="200.434617" style="fill: #ffff00; stroke: #ffff00"/>
     <use xlink:href="#m6b59108de3" x="127.478821" y="217.378233" style="fill: #ffff00; stroke: #ffff00"/>
     <use xlink:href="#m6b59108de3" x="79.552426" y="194.61783" style="fill: #ffff00; stroke: #ffff00"/>
     <use xlink:href="#m6b59108de3" x="137.651235" y="233.863108" style="fill: #ffff00; stroke: #ffff00"/>
     <use xlink:href="#m6b59108de3" x="96.732388" y="215.046489" style="fill: #ffff00; stroke: #ffff00"/>
     <use xlink:href="#m6b59108de3" x="75.706412" y="218.149636" style="fill: #ffff00; stroke: #ffff00"/>
     <use xlink:href="#m6b59108de3" x="80.646831" y="224.519611" style="fill: #ffff00; stroke: #ffff00"/>
    </g>
   </g>
   <g id="PathCollection_6">
    <defs>
     <path id="mfef37f6341" d="M 0 1.5 
C 0.397805 1.5 0.77937 1.341951 1.06066 1.06066 
C 1.341951 0.77937 1.5 0.397805 1.5 0 
C 1.5 -0.397805 1.341951 -0.77937 1.06066 -1.06066 
C 0.77937 -1.341951 0.397805 -1.5 0 -1.5 
C -0.397805 -1.5 -0.77937 -1.341951 -1.06066 -1.06066 
C -1.341951 -0.77937 -1.5 -0.397805 -1.5 0 
C -1.5 0.397805 -1.341951 0.77937 -1.06066 1.06066 
C -0.77937 1.341951 -0.397805 1.5 0 1.5 
z
" style="stroke: #00ffff"/>
    </defs>
    <g clip-path="url(#p9e6ae5cdaa)">
     <use xlink:href="#mfef37f6341" x="68.184947" y="202.502068" style="fill: #00ffff; stroke: #00ffff"/>
     <use xlink:href="#mfef37f6341" x="114.542416" y="237.496468" style="fill: #00ffff; stroke: #00ffff"/>
     <use xlink:href="#mfef37f6341" x="206.389872" y="163.060048" style="fill: #00ffff; stroke: #00ffff"/>
     <use xlink:href="#mfef37f6341" x="141.087307" y="248.782639" style="fill: #00ffff; stroke: #00ffff"/>
     <use xlink:href="#mfef37f6341" x="96.573598" y="152.842666" style="fill: #00ffff; stroke: #00ffff"/>
     <use xlink:href="#mfef37f6341" x="98.451597" y="234.777064" style="fill: #00ffff; stroke: #00ffff"/>
     <use xlink:href="#mfef37f6341" x="118.330153" y="163.943658" style="fill: #00ffff; stroke: #00ffff"/>
     <use xlink:href="#mfef37f6341" x="85.283059" y="226.745841" style="fill: #00ffff; stroke: #00ffff"/>
     <use xlink:href="#mfef37f6341" x="111.429812" y="200.648031" style="fill: #00ffff; stroke: #00ffff"/>
     <use xlink:href="#mfef37f6341" x="107.90007" y="234.205474" style="fill: #00ffff; stroke: #00ffff"/>
     <use xlink:href="#mfef37f6341" x="95.462232" y="190.741359" style="fill: #00ffff; stroke: #00ffff"/>
     <use xlink:href="#mfef37f6341" x="69.77266" y="213.921893" style="fill: #00ffff; stroke: #00ffff"/>
     <use xlink:href="#mfef37f6341" x="78.315779" y="180.513595" style="fill: #00ffff; stroke: #00ffff"/>
     <use xlink:href="#mfef37f6341" x="117.517936" y="213.928583" style="fill: #00ffff; stroke: #00ffff"/>
     <use xlink:href="#mfef37f6341" x="77.316087" y="146.789743" style="fill: #00ffff; stroke: #00ffff"/>
     <use xlink:href="#mfef37f6341" x="128.906561" y="204.429027" style="fill: #00ffff; stroke: #00ffff"/>
     <use xlink:href="#mfef37f6341" x="113.646293" y="194.054686" style="fill: #00ffff; stroke: #00ffff"/>
    </g>
   </g>
   <g id="PathCollection_7">
    <defs>
     <path id="m8062a78853" d="M 0 1.5 
C 0.397805 1.5 0.77937 1.341951 1.06066 1.06066 
C 1.341951 0.77937 1.5 0.397805 1.5 0 
C 1.5 -0.397805 1.341951 -0.77937 1.06066 -1.06066 
C 0.77937 -1.341951 0.397805 -1.5 0 -1.5 
C -0.397805 -1.5 -0.77937 -1.341951 -1.06066 -1.06066 
C -1.341951 -0.77937 -1.5 -0.397805 -1.5 0 
C -1.5 0.397805 -1.341951 0.77937 -1.06066 1.06066 
C -0.77937 1.341951 -0.397805 1.5 0 1.5 
z
" style="stroke: #0000ff"/>
    </defs>
    <g clip-path="url(#p9e6ae5cdaa)">
     <use xlink:href="#m8062a78853" x="70.273824" y="210.673923" style="fill: #0000ff; stroke: #0000ff"/>
     <use xlink:href="#m8062a78853" x="161.762656" y="181.234897" style="fill: #0000ff; stroke: #0000ff"/>
     <use xlink:href="#m8062a78853" x="117.324018" y="190.646075" style="fill: #0000ff; stroke: #0000ff"/>
     <use xlink:href="#m8062a78853" x="101.878709" y="202.240334" style="fill: #0000ff; stroke: #0000ff"/>
     <use xlink:href="#m8062a78853" x="168.260468" y="209.148473" style="fill: #0000ff; stroke: #0000ff"/>
     <use xlink:href="#m8062a78853" x="110.61009" y="195.038064" style="fill: #0000ff; stroke: #0000ff"/>
     <use xlink:href="#m8062a78853" x="118.699155" y="170.40723" style="fill: #0000ff; stroke: #0000ff"/>
     <use xlink:href="#m8062a78853" x="51.537415" y="182.32348" style="fill: #0000ff; stroke: #0000ff"/>
     <use xlink:href="#m8062a78853" x="128.890274" y="202.772381" style="fill: #0000ff; stroke: #0000ff"/>
     <use xlink:href="#m8062a78853" x="84.271601" y="186.33914" style="fill: #0000ff; stroke: #0000ff"/>
    </g>
   </g>
   <g id="PathCollection_8">
    <defs>
     <path id="m98070e7f98" d="M 0 1.5 
C 0.397805 1.5 0.77937 1.341951 1.06066 1.06066 
C 1.341951 0.77937 1.5 0.397805 1.5 0 
C 1.5 -0.397805 1.341951 -0.77937 1.06066 -1.06066 
C 0.77937 -1.341951 0.397805 -1.5 0 -1.5 
C -0.397805 -1.5 -0.77937 -1.341951 -1.06066 -1.06066 
C -1.341951 -0.77937 -1.5 -0.397805 -1.5 0 
C -1.5 0.397805 -1.341951 0.77937 -1.06066 1.06066 
C -0.77937 1.341951 -0.397805 1.5 0 1.5 
z
" style="stroke: #dc143c"/>
    </defs>
    <g clip-path="url(#p9e6ae5cdaa)">
     <use xlink:href="#m98070e7f98" x="187.956148" y="158.496231" style="fill: #dc143c; stroke: #dc143c"/>
     <use xlink:href="#m98070e7f98" x="167.009736" y="171.978663" style="fill: #dc143c; stroke: #dc143c"/>
     <use xlink:href="#m98070e7f98" x="266.909146" y="205.985117" style="fill: #dc143c; stroke: #dc143c"/>
     <use xlink:href="#m98070e7f98" x="254.739281" y="110.380182" style="fill: #dc143c; stroke: #dc143c"/>
     <use xlink:href="#m98070e7f98" x="374.627402" y="201.888152" style="fill: #dc143c; stroke: #dc143c"/>
     <use xlink:href="#m98070e7f98" x="275.172963" y="214.10566" style="fill: #dc143c; stroke: #dc143c"/>
     <use xlink:href="#m98070e7f98" x="111.455919" y="146.289304" style="fill: #dc143c; stroke: #dc143c"/>
     <use xlink:href="#m98070e7f98" x="229.033422" y="232.565207" style="fill: #dc143c; stroke: #dc143c"/>
     <use xlink:href="#m98070e7f98" x="240.400319" y="84.948488" style="fill: #dc143c; stroke: #dc143c"/>
     <use xlink:href="#m98070e7f98" x="182.971474" y="158.231981" style="fill: #dc143c; stroke: #dc143c"/>
     <use xlink:href="#m98070e7f98" x="211.46365" y="104.293947" style="fill: #dc143c; stroke: #dc143c"/>
    </g>
   </g>
   <g id="PathCollection_9">
    <defs>
     <path id="md9e4a2a020" d="M 0 1.5 
C 0.397805 1.5 0.77937 1.341951 1.06066 1.06066 
C 1.341951 0.77937 1.5 0.397805 1.5 0 
C 1.5 -0.397805 1.341951 -0.77937 1.06066 -1.06066 
C 0.77937 -1.341951 0.397805 -1.5 0 -1.5 
C -0.397805 -1.5 -0.77937 -1.341951 -1.06066 -1.06066 
C -1.341951 -0.77937 -1.5 -0.397805 -1.5 0 
C -1.5 0.397805 -1.341951 0.77937 -1.06066 1.06066 
C -0.77937 1.341951 -0.397805 1.5 0 1.5 
z
" style="stroke: #ffe4c4"/>
    </defs>
    <g clip-path="url(#p9e6ae5cdaa)">
     <use xlink:href="#md9e4a2a020" x="183.666946" y="93.235225" style="fill: #ffe4c4; stroke: #ffe4c4"/>
     <use xlink:href="#md9e4a2a020" x="342.40777" y="120.373295" style="fill: #ffe4c4; stroke: #ffe4c4"/>
     <use xlink:href="#md9e4a2a020" x="145.874005" y="172.980704" style="fill: #ffe4c4; stroke: #ffe4c4"/>
     <use xlink:href="#md9e4a2a020" x="146.199861" y="86.510456" style="fill: #ffe4c4; stroke: #ffe4c4"/>
     <use xlink:href="#md9e4a2a020" x="179.370986" y="124.756123" style="fill: #ffe4c4; stroke: #ffe4c4"/>
     <use xlink:href="#md9e4a2a020" x="265.784615" y="121.42801" style="fill: #ffe4c4; stroke: #ffe4c4"/>
     <use xlink:href="#md9e4a2a020" x="198.046968" y="144.583878" style="fill: #ffe4c4; stroke: #ffe4c4"/>
     <use xlink:href="#md9e4a2a020" x="128.043371" y="176.694916" style="fill: #ffe4c4; stroke: #ffe4c4"/>
     <use xlink:href="#md9e4a2a020" x="352.819038" y="135.02865" style="fill: #ffe4c4; stroke: #ffe4c4"/>
     <use xlink:href="#md9e4a2a020" x="136.196217" y="143.480713" style="fill: #ffe4c4; stroke: #ffe4c4"/>
     <use xlink:href="#md9e4a2a020" x="265.123266" y="158.583917" style="fill: #ffe4c4; stroke: #ffe4c4"/>
     <use xlink:href="#md9e4a2a020" x="116.223272" y="186.114746" style="fill: #ffe4c4; stroke: #ffe4c4"/>
     <use xlink:href="#md9e4a2a020" x="150.151343" y="193.103985" style="fill: #ffe4c4; stroke: #ffe4c4"/>
     <use xlink:href="#md9e4a2a020" x="314.000595" y="130.049169" style="fill: #ffe4c4; stroke: #ffe4c4"/>
    </g>
   </g>
   <g id="PathCollection_10">
    <defs>
     <path id="m8642dc719e" d="M -2.99994 2.99994 
L 3.00006 2.99994 
L 3.00006 -3.00006 
L -2.99994 -3.00006 
z
" style="stroke: #000000"/>
    </defs>
    <g clip-path="url(#p9e6ae5cdaa)">
     <use xlink:href="#m8642dc719e" x="250.220674" y="182.237028" style="stroke: #000000"/>
     <use xlink:href="#m8642dc719e" x="318.090154" y="180.094609" style="stroke: #000000"/>
     <use xlink:href="#m8642dc719e" x="91.885549" y="117.55695" style="stroke: #000000"/>
     <use xlink:href="#m8642dc719e" x="376.19196" y="246.90365" style="stroke: #000000"/>
     <use xlink:href="#m8642dc719e" x="367.047624" y="234.537553" style="stroke: #000000"/>
     <use xlink:href="#m8642dc719e" x="253.536513" y="215.599345" style="stroke: #000000"/>
     <use xlink:href="#m8642dc719e" x="186.621947" y="197.095279" style="stroke: #000000"/>
     <use xlink:href="#m8642dc719e" x="135.833328" y="261.114659" style="stroke: #000000"/>
     <use xlink:href="#m8642dc719e" x="352.713953" y="234.435767" style="stroke: #000000"/>
     <use xlink:href="#m8642dc719e" x="328.43638" y="239.959589" style="stroke: #000000"/>
     <use xlink:href="#m8642dc719e" x="257.485399" y="201.244249" style="stroke: #000000"/>
     <use xlink:href="#m8642dc719e" x="264.753657" y="244.981789" style="stroke: #000000"/>
     <use xlink:href="#m8642dc719e" x="289.810273" y="217.435264" style="stroke: #000000"/>
     <use xlink:href="#m8642dc719e" x="355.949378" y="226.833777" style="stroke: #000000"/>
     <use xlink:href="#m8642dc719e" x="298.427937" y="227.754964" style="stroke: #000000"/>
     <use xlink:href="#m8642dc719e" x="357.133083" y="162.158897" style="stroke: #000000"/>
     <use xlink:href="#m8642dc719e" x="165.830145" y="239.888239" style="stroke: #000000"/>
     <use xlink:href="#m8642dc719e" x="284.008616" y="203.859717" style="stroke: #000000"/>
     <use xlink:href="#m8642dc719e" x="222.425406" y="218.800137" style="stroke: #000000"/>
     <use xlink:href="#m8642dc719e" x="223.911466" y="182.943562" style="stroke: #000000"/>
     <use xlink:href="#m8642dc719e" x="225.244372" y="221.068906" style="stroke: #000000"/>
     <use xlink:href="#m8642dc719e" x="216.999156" y="253.531294" style="stroke: #000000"/>
     <use xlink:href="#m8642dc719e" x="300.256092" y="217.55613" style="stroke: #000000"/>
     <use xlink:href="#m8642dc719e" x="283.583477" y="162.874858" style="stroke: #000000"/>
     <use xlink:href="#m8642dc719e" x="341.40235" y="159.306097" style="stroke: #000000"/>
     <use xlink:href="#m8642dc719e" x="254.643762" y="231.067546" style="stroke: #000000"/>
     <use xlink:href="#m8642dc719e" x="124.937311" y="81.464859" style="stroke: #000000"/>
     <use xlink:href="#m8642dc719e" x="277.983224" y="220.238159" style="stroke: #000000"/>
     <use xlink:href="#m8642dc719e" x="333.498019" y="173.077193" style="stroke: #000000"/>
     <use xlink:href="#m8642dc719e" x="106.185305" y="175.044153" style="stroke: #000000"/>
     <use xlink:href="#m8642dc719e" x="262.126809" y="212.390085" style="stroke: #000000"/>
     <use xlink:href="#m8642dc719e" x="358.217438" y="224.420903" style="stroke: #000000"/>
     <use xlink:href="#m8642dc719e" x="295.772102" y="187.488286" style="stroke: #000000"/>
     <use xlink:href="#m8642dc719e" x="350.413052" y="196.084043" style="stroke: #000000"/>
     <use xlink:href="#m8642dc719e" x="250.382865" y="236.661281" style="stroke: #000000"/>
     <use xlink:href="#m8642dc719e" x="110.475364" y="160.878687" style="stroke: #000000"/>
     <use xlink:href="#m8642dc719e" x="354.455342" y="225.864195" style="stroke: #000000"/>
     <use xlink:href="#m8642dc719e" x="224.54915" y="261.216" style="stroke: #000000"/>
     <use xlink:href="#m8642dc719e" x="203.698168" y="199.598637" style="stroke: #000000"/>
     <use xlink:href="#m8642dc719e" x="261.805754" y="242.029531" style="stroke: #000000"/>
     <use xlink:href="#m8642dc719e" x="138.308063" y="143.40501" style="stroke: #000000"/>
     <use xlink:href="#m8642dc719e" x="118.504249" y="203.702419" style="stroke: #000000"/>
     <use xlink:href="#m8642dc719e" x="228.84208" y="169.271432" style="stroke: #000000"/>
     <use xlink:href="#m8642dc719e" x="130.976845" y="167.13586" style="stroke: #000000"/>
     <use xlink:href="#m8642dc719e" x="102.067669" y="194.426605" style="stroke: #000000"/>
     <use xlink:href="#m8642dc719e" x="343.033235" y="171.446864" style="stroke: #000000"/>
     <use xlink:href="#m8642dc719e" x="259.226647" y="183.83634" style="stroke: #000000"/>
     <use xlink:href="#m8642dc719e" x="290.886347" y="223.872744" style="stroke: #000000"/>
     <use xlink:href="#m8642dc719e" x="139.178332" y="225.728776" style="stroke: #000000"/>
     <use xlink:href="#m8642dc719e" x="130.704665" y="211.121635" style="stroke: #000000"/>
     <use xlink:href="#m8642dc719e" x="245.889286" y="197.189634" style="stroke: #000000"/>
     <use xlink:href="#m8642dc719e" x="253.254246" y="200.916893" style="stroke: #000000"/>
     <use xlink:href="#m8642dc719e" x="158.084863" y="191.210995" style="stroke: #000000"/>
     <use xlink:href="#m8642dc719e" x="166.869091" y="190.76077" style="stroke: #000000"/>
     <use xlink:href="#m8642dc719e" x="330.546049" y="195.239771" style="stroke: #000000"/>
     <use xlink:href="#m8642dc719e" x="319.087366" y="193.370823" style="stroke: #000000"/>
     <use xlink:href="#m8642dc719e" x="152.931686" y="222.428952" style="stroke: #000000"/>
     <use xlink:href="#m8642dc719e" x="189.428276" y="157.732686" style="stroke: #000000"/>
     <use xlink:href="#m8642dc719e" x="96.134444" y="86.89431" style="stroke: #000000"/>
     <use xlink:href="#m8642dc719e" x="308.108765" y="240.966896" style="stroke: #000000"/>
     <use xlink:href="#m8642dc719e" x="319.481603" y="250.627869" style="stroke: #000000"/>
     <use xlink:href="#m8642dc719e" x="320.477155" y="156.237084" style="stroke: #000000"/>
     <use xlink:href="#m8642dc719e" x="170.640049" y="196.438146" style="stroke: #000000"/>
     <use xlink:href="#m8642dc719e" x="153.936146" y="90.501787" style="stroke: #000000"/>
    </g>
   </g>
   <g id="PathCollection_11">
    <defs>
     <path id="mb64c8dff2d" d="M -3 -0 
L 3 3 
L 3 -3 
z
" style="stroke: #ff8c00"/>
    </defs>
    <g clip-path="url(#p9e6ae5cdaa)">
     <use xlink:href="#mb64c8dff2d" x="145.780871" y="236.643833" style="fill: #ff8c00; stroke: #ff8c00"/>
     <use xlink:href="#mb64c8dff2d" x="138.804638" y="238.14113" style="fill: #ff8c00; stroke: #ff8c00"/>
     <use xlink:href="#mb64c8dff2d" x="140.132074" y="225.122167" style="fill: #ff8c00; stroke: #ff8c00"/>
     <use xlink:href="#mb64c8dff2d" x="137.416053" y="214.668442" style="fill: #ff8c00; stroke: #ff8c00"/>
     <use xlink:href="#mb64c8dff2d" x="131.469777" y="218.122912" style="fill: #ff8c00; stroke: #ff8c00"/>
     <use xlink:href="#mb64c8dff2d" x="198.674353" y="231.886137" style="fill: #ff8c00; stroke: #ff8c00"/>
     <use xlink:href="#mb64c8dff2d" x="219.896411" y="213.811508" style="fill: #ff8c00; stroke: #ff8c00"/>
     <use xlink:href="#mb64c8dff2d" x="189.273068" y="218.482064" style="fill: #ff8c00; stroke: #ff8c00"/>
     <use xlink:href="#mb64c8dff2d" x="144.697944" y="240.458138" style="fill: #ff8c00; stroke: #ff8c00"/>
     <use xlink:href="#mb64c8dff2d" x="199.223802" y="225.103019" style="fill: #ff8c00; stroke: #ff8c00"/>
     <use xlink:href="#mb64c8dff2d" x="196.028741" y="215.517073" style="fill: #ff8c00; stroke: #ff8c00"/>
     <use xlink:href="#mb64c8dff2d" x="147.091686" y="233.443843" style="fill: #ff8c00; stroke: #ff8c00"/>
     <use xlink:href="#mb64c8dff2d" x="184.110537" y="208.37416" style="fill: #ff8c00; stroke: #ff8c00"/>
     <use xlink:href="#mb64c8dff2d" x="181.579106" y="237.158228" style="fill: #ff8c00; stroke: #ff8c00"/>
     <use xlink:href="#mb64c8dff2d" x="169.613749" y="202.827062" style="fill: #ff8c00; stroke: #ff8c00"/>
     <use xlink:href="#mb64c8dff2d" x="186.804137" y="219.390833" style="fill: #ff8c00; stroke: #ff8c00"/>
     <use xlink:href="#mb64c8dff2d" x="188.984181" y="231.84995" style="fill: #ff8c00; stroke: #ff8c00"/>
     <use xlink:href="#mb64c8dff2d" x="150.912308" y="215.208776" style="fill: #ff8c00; stroke: #ff8c00"/>
     <use xlink:href="#mb64c8dff2d" x="179.270059" y="199.130497" style="fill: #ff8c00; stroke: #ff8c00"/>
     <use xlink:href="#mb64c8dff2d" x="253.488947" y="239.613276" style="fill: #ff8c00; stroke: #ff8c00"/>
     <use xlink:href="#mb64c8dff2d" x="155.727346" y="198.045986" style="fill: #ff8c00; stroke: #ff8c00"/>
     <use xlink:href="#mb64c8dff2d" x="195.822725" y="226.599765" style="fill: #ff8c00; stroke: #ff8c00"/>
     <use xlink:href="#mb64c8dff2d" x="144.817631" y="208.119384" style="fill: #ff8c00; stroke: #ff8c00"/>
     <use xlink:href="#mb64c8dff2d" x="141.002034" y="224.789813" style="fill: #ff8c00; stroke: #ff8c00"/>
     <use xlink:href="#mb64c8dff2d" x="214.537378" y="228.619065" style="fill: #ff8c00; stroke: #ff8c00"/>
     <use xlink:href="#mb64c8dff2d" x="193.694501" y="213.702127" style="fill: #ff8c00; stroke: #ff8c00"/>
     <use xlink:href="#mb64c8dff2d" x="124.756544" y="223.472518" style="fill: #ff8c00; stroke: #ff8c00"/>
     <use xlink:href="#mb64c8dff2d" x="173.619369" y="196.922253" style="fill: #ff8c00; stroke: #ff8c00"/>
     <use xlink:href="#mb64c8dff2d" x="150.014226" y="221.467827" style="fill: #ff8c00; stroke: #ff8c00"/>
     <use xlink:href="#mb64c8dff2d" x="159.461407" y="209.821376" style="fill: #ff8c00; stroke: #ff8c00"/>
     <use xlink:href="#mb64c8dff2d" x="170.466619" y="218.30215" style="fill: #ff8c00; stroke: #ff8c00"/>
     <use xlink:href="#mb64c8dff2d" x="185.703456" y="219.724862" style="fill: #ff8c00; stroke: #ff8c00"/>
     <use xlink:href="#mb64c8dff2d" x="179.123441" y="221.17131" style="fill: #ff8c00; stroke: #ff8c00"/>
     <use xlink:href="#mb64c8dff2d" x="216.788426" y="219.485747" style="fill: #ff8c00; stroke: #ff8c00"/>
     <use xlink:href="#mb64c8dff2d" x="102.121472" y="175.294235" style="fill: #ff8c00; stroke: #ff8c00"/>
     <use xlink:href="#mb64c8dff2d" x="148.739119" y="212.637591" style="fill: #ff8c00; stroke: #ff8c00"/>
     <use xlink:href="#mb64c8dff2d" x="123.320211" y="213.600789" style="fill: #ff8c00; stroke: #ff8c00"/>
     <use xlink:href="#mb64c8dff2d" x="174.391427" y="233.685512" style="fill: #ff8c00; stroke: #ff8c00"/>
     <use xlink:href="#mb64c8dff2d" x="224.49271" y="221.738953" style="fill: #ff8c00; stroke: #ff8c00"/>
     <use xlink:href="#mb64c8dff2d" x="216.780167" y="221.297802" style="fill: #ff8c00; stroke: #ff8c00"/>
     <use xlink:href="#mb64c8dff2d" x="200.44207" y="226.607076" style="fill: #ff8c00; stroke: #ff8c00"/>
     <use xlink:href="#mb64c8dff2d" x="126.09229" y="202.747105" style="fill: #ff8c00; stroke: #ff8c00"/>
     <use xlink:href="#mb64c8dff2d" x="195.33802" y="218.36689" style="fill: #ff8c00; stroke: #ff8c00"/>
     <use xlink:href="#mb64c8dff2d" x="187.750238" y="208.898144" style="fill: #ff8c00; stroke: #ff8c00"/>
     <use xlink:href="#mb64c8dff2d" x="103.629444" y="213.797988" style="fill: #ff8c00; stroke: #ff8c00"/>
     <use xlink:href="#mb64c8dff2d" x="237.942997" y="234.901088" style="fill: #ff8c00; stroke: #ff8c00"/>
     <use xlink:href="#mb64c8dff2d" x="217.807151" y="234.626296" style="fill: #ff8c00; stroke: #ff8c00"/>
     <use xlink:href="#mb64c8dff2d" x="213.457709" y="231.625602" style="fill: #ff8c00; stroke: #ff8c00"/>
     <use xlink:href="#mb64c8dff2d" x="253.475854" y="230.779088" style="fill: #ff8c00; stroke: #ff8c00"/>
     <use xlink:href="#mb64c8dff2d" x="187.645911" y="218.052542" style="fill: #ff8c00; stroke: #ff8c00"/>
     <use xlink:href="#mb64c8dff2d" x="159.900502" y="225.016125" style="fill: #ff8c00; stroke: #ff8c00"/>
     <use xlink:href="#mb64c8dff2d" x="137.865945" y="201.208476" style="fill: #ff8c00; stroke: #ff8c00"/>
     <use xlink:href="#mb64c8dff2d" x="151.504604" y="233.228673" style="fill: #ff8c00; stroke: #ff8c00"/>
     <use xlink:href="#mb64c8dff2d" x="115.377686" y="204.495422" style="fill: #ff8c00; stroke: #ff8c00"/>
     <use xlink:href="#mb64c8dff2d" x="199.870343" y="217.475565" style="fill: #ff8c00; stroke: #ff8c00"/>
     <use xlink:href="#mb64c8dff2d" x="165.808444" y="217.611384" style="fill: #ff8c00; stroke: #ff8c00"/>
     <use xlink:href="#mb64c8dff2d" x="215.583144" y="213.437308" style="fill: #ff8c00; stroke: #ff8c00"/>
     <use xlink:href="#mb64c8dff2d" x="170.921523" y="225.3319" style="fill: #ff8c00; stroke: #ff8c00"/>
     <use xlink:href="#mb64c8dff2d" x="176.660351" y="226.844435" style="fill: #ff8c00; stroke: #ff8c00"/>
     <use xlink:href="#mb64c8dff2d" x="191.25724" y="202.742117" style="fill: #ff8c00; stroke: #ff8c00"/>
     <use xlink:href="#mb64c8dff2d" x="171.271869" y="222.677164" style="fill: #ff8c00; stroke: #ff8c00"/>
     <use xlink:href="#mb64c8dff2d" x="149.644922" y="221.430918" style="fill: #ff8c00; stroke: #ff8c00"/>
     <use xlink:href="#mb64c8dff2d" x="134.228566" y="219.394832" style="fill: #ff8c00; stroke: #ff8c00"/>
     <use xlink:href="#mb64c8dff2d" x="141.053428" y="241.732905" style="fill: #ff8c00; stroke: #ff8c00"/>
    </g>
   </g>
   <g id="matplotlib.axis_1">
    <g id="xtick_1">
     <g id="line2d_1">
      <defs>
       <path id="m7617f6693c" d="M 0 0 
L 0 3.5 
" style="stroke: #000000; stroke-width: 0.8"/>
      </defs>
      <g>
       <use xlink:href="#m7617f6693c" x="47.837741" y="273.312" style="stroke: #000000; stroke-width: 0.8"/>
      </g>
     </g>
     <g id="text_1">
      <!-- −40 -->
      <g transform="translate(37.285397 287.910437) scale(0.1 -0.1)">
       <defs>
        <path id="DejaVuSans-2212" d="M 678 2272 
L 4684 2272 
L 4684 1741 
L 678 1741 
L 678 2272 
z
" transform="scale(0.015625)"/>
        <path id="DejaVuSans-34" d="M 2419 4116 
L 825 1625 
L 2419 1625 
L 2419 4116 
z
M 2253 4666 
L 3047 4666 
L 3047 1625 
L 3713 1625 
L 3713 1100 
L 3047 1100 
L 3047 0 
L 2419 0 
L 2419 1100 
L 313 1100 
L 313 1709 
L 2253 4666 
z
" transform="scale(0.015625)"/>
        <path id="DejaVuSans-30" d="M 2034 4250 
Q 1547 4250 1301 3770 
Q 1056 3291 1056 2328 
Q 1056 1369 1301 889 
Q 1547 409 2034 409 
Q 2525 409 2770 889 
Q 3016 1369 3016 2328 
Q 3016 3291 2770 3770 
Q 2525 4250 2034 4250 
z
M 2034 4750 
Q 2819 4750 3233 4129 
Q 3647 3509 3647 2328 
Q 3647 1150 3233 529 
Q 2819 -91 2034 -91 
Q 1250 -91 836 529 
Q 422 1150 422 2328 
Q 422 3509 836 4129 
Q 1250 4750 2034 4750 
z
" transform="scale(0.015625)"/>
       </defs>
       <use xlink:href="#DejaVuSans-2212"/>
       <use xlink:href="#DejaVuSans-34" x="83.789062"/>
       <use xlink:href="#DejaVuSans-30" x="147.412109"/>
      </g>
     </g>
    </g>
    <g id="xtick_2">
     <g id="line2d_2">
      <g>
       <use xlink:href="#m7617f6693c" x="111.398649" y="273.312" style="stroke: #000000; stroke-width: 0.8"/>
      </g>
     </g>
     <g id="text_2">
      <!-- −20 -->
      <g transform="translate(100.846305 287.910437) scale(0.1 -0.1)">
       <defs>
        <path id="DejaVuSans-32" d="M 1228 531 
L 3431 531 
L 3431 0 
L 469 0 
L 469 531 
Q 828 903 1448 1529 
Q 2069 2156 2228 2338 
Q 2531 2678 2651 2914 
Q 2772 3150 2772 3378 
Q 2772 3750 2511 3984 
Q 2250 4219 1831 4219 
Q 1534 4219 1204 4116 
Q 875 4013 500 3803 
L 500 4441 
Q 881 4594 1212 4672 
Q 1544 4750 1819 4750 
Q 2544 4750 2975 4387 
Q 3406 4025 3406 3419 
Q 3406 3131 3298 2873 
Q 3191 2616 2906 2266 
Q 2828 2175 2409 1742 
Q 1991 1309 1228 531 
z
" transform="scale(0.015625)"/>
       </defs>
       <use xlink:href="#DejaVuSans-2212"/>
       <use xlink:href="#DejaVuSans-32" x="83.789062"/>
       <use xlink:href="#DejaVuSans-30" x="147.412109"/>
      </g>
     </g>
    </g>
    <g id="xtick_3">
     <g id="line2d_3">
      <g>
       <use xlink:href="#m7617f6693c" x="174.959557" y="273.312" style="stroke: #000000; stroke-width: 0.8"/>
      </g>
     </g>
     <g id="text_3">
      <!-- 0 -->
      <g transform="translate(171.778307 287.910437) scale(0.1 -0.1)">
       <use xlink:href="#DejaVuSans-30"/>
      </g>
     </g>
    </g>
    <g id="xtick_4">
     <g id="line2d_4">
      <g>
       <use xlink:href="#m7617f6693c" x="238.520465" y="273.312" style="stroke: #000000; stroke-width: 0.8"/>
      </g>
     </g>
     <g id="text_4">
      <!-- 20 -->
      <g transform="translate(232.157965 287.910437) scale(0.1 -0.1)">
       <use xlink:href="#DejaVuSans-32"/>
       <use xlink:href="#DejaVuSans-30" x="63.623047"/>
      </g>
     </g>
    </g>
    <g id="xtick_5">
     <g id="line2d_5">
      <g>
       <use xlink:href="#m7617f6693c" x="302.081373" y="273.312" style="stroke: #000000; stroke-width: 0.8"/>
      </g>
     </g>
     <g id="text_5">
      <!-- 40 -->
      <g transform="translate(295.718873 287.910437) scale(0.1 -0.1)">
       <use xlink:href="#DejaVuSans-34"/>
       <use xlink:href="#DejaVuSans-30" x="63.623047"/>
      </g>
     </g>
    </g>
    <g id="xtick_6">
     <g id="line2d_6">
      <g>
       <use xlink:href="#m7617f6693c" x="365.642281" y="273.312" style="stroke: #000000; stroke-width: 0.8"/>
      </g>
     </g>
     <g id="text_6">
      <!-- 60 -->
      <g transform="translate(359.279781 287.910437) scale(0.1 -0.1)">
       <defs>
        <path id="DejaVuSans-36" d="M 2113 2584 
Q 1688 2584 1439 2293 
Q 1191 2003 1191 1497 
Q 1191 994 1439 701 
Q 1688 409 2113 409 
Q 2538 409 2786 701 
Q 3034 994 3034 1497 
Q 3034 2003 2786 2293 
Q 2538 2584 2113 2584 
z
M 3366 4563 
L 3366 3988 
Q 3128 4100 2886 4159 
Q 2644 4219 2406 4219 
Q 1781 4219 1451 3797 
Q 1122 3375 1075 2522 
Q 1259 2794 1537 2939 
Q 1816 3084 2150 3084 
Q 2853 3084 3261 2657 
Q 3669 2231 3669 1497 
Q 3669 778 3244 343 
Q 2819 -91 2113 -91 
Q 1303 -91 875 529 
Q 447 1150 447 2328 
Q 447 3434 972 4092 
Q 1497 4750 2381 4750 
Q 2619 4750 2861 4703 
Q 3103 4656 3366 4563 
z
" transform="scale(0.015625)"/>
       </defs>
       <use xlink:href="#DejaVuSans-36"/>
       <use xlink:href="#DejaVuSans-30" x="63.623047"/>
      </g>
     </g>
    </g>
   </g>
   <g id="matplotlib.axis_2">
    <g id="ytick_1">
     <g id="line2d_7">
      <defs>
       <path id="m04e330bf42" d="M 0 0 
L -3.5 0 
" style="stroke: #000000; stroke-width: 0.8"/>
      </defs>
      <g>
       <use xlink:href="#m04e330bf42" x="35.304688" y="246.617015" style="stroke: #000000; stroke-width: 0.8"/>
      </g>
     </g>
     <g id="text_7">
      <!-- −10 -->
      <g transform="translate(7.2 250.416234) scale(0.1 -0.1)">
       <defs>
        <path id="DejaVuSans-31" d="M 794 531 
L 1825 531 
L 1825 4091 
L 703 3866 
L 703 4441 
L 1819 4666 
L 2450 4666 
L 2450 531 
L 3481 531 
L 3481 0 
L 794 0 
L 794 531 
z
" transform="scale(0.015625)"/>
       </defs>
       <use xlink:href="#DejaVuSans-2212"/>
       <use xlink:href="#DejaVuSans-31" x="83.789062"/>
       <use xlink:href="#DejaVuSans-30" x="147.412109"/>
      </g>
     </g>
    </g>
    <g id="ytick_2">
     <g id="line2d_8">
      <g>
       <use xlink:href="#m04e330bf42" x="35.304688" y="198.048083" style="stroke: #000000; stroke-width: 0.8"/>
      </g>
     </g>
     <g id="text_8">
      <!-- 0 -->
      <g transform="translate(21.942187 201.847302) scale(0.1 -0.1)">
       <use xlink:href="#DejaVuSans-30"/>
      </g>
     </g>
    </g>
    <g id="ytick_3">
     <g id="line2d_9">
      <g>
       <use xlink:href="#m04e330bf42" x="35.304688" y="149.479151" style="stroke: #000000; stroke-width: 0.8"/>
      </g>
     </g>
     <g id="text_9">
      <!-- 10 -->
      <g transform="translate(15.579687 153.278369) scale(0.1 -0.1)">
       <use xlink:href="#DejaVuSans-31"/>
       <use xlink:href="#DejaVuSans-30" x="63.623047"/>
      </g>
     </g>
    </g>
    <g id="ytick_4">
     <g id="line2d_10">
      <g>
       <use xlink:href="#m04e330bf42" x="35.304688" y="100.910219" style="stroke: #000000; stroke-width: 0.8"/>
      </g>
     </g>
     <g id="text_10">
      <!-- 20 -->
      <g transform="translate(15.579687 104.709437) scale(0.1 -0.1)">
       <use xlink:href="#DejaVuSans-32"/>
       <use xlink:href="#DejaVuSans-30" x="63.623047"/>
      </g>
     </g>
    </g>
    <g id="ytick_5">
     <g id="line2d_11">
      <g>
       <use xlink:href="#m04e330bf42" x="35.304688" y="52.341287" style="stroke: #000000; stroke-width: 0.8"/>
      </g>
     </g>
     <g id="text_11">
      <!-- 30 -->
      <g transform="translate(15.579687 56.140505) scale(0.1 -0.1)">
       <defs>
        <path id="DejaVuSans-33" d="M 2597 2516 
Q 3050 2419 3304 2112 
Q 3559 1806 3559 1356 
Q 3559 666 3084 287 
Q 2609 -91 1734 -91 
Q 1441 -91 1130 -33 
Q 819 25 488 141 
L 488 750 
Q 750 597 1062 519 
Q 1375 441 1716 441 
Q 2309 441 2620 675 
Q 2931 909 2931 1356 
Q 2931 1769 2642 2001 
Q 2353 2234 1838 2234 
L 1294 2234 
L 1294 2753 
L 1863 2753 
Q 2328 2753 2575 2939 
Q 2822 3125 2822 3475 
Q 2822 3834 2567 4026 
Q 2313 4219 1838 4219 
Q 1578 4219 1281 4162 
Q 984 4106 628 3988 
L 628 4550 
Q 988 4650 1302 4700 
Q 1616 4750 1894 4750 
Q 2613 4750 3031 4423 
Q 3450 4097 3450 3541 
Q 3450 3153 3228 2886 
Q 3006 2619 2597 2516 
z
" transform="scale(0.015625)"/>
       </defs>
       <use xlink:href="#DejaVuSans-33"/>
       <use xlink:href="#DejaVuSans-30" x="63.623047"/>
      </g>
     </g>
    </g>
   </g>
   <g id="patch_3">
    <path d="M 35.304688 273.312 
L 35.304688 7.2 
" style="fill: none; stroke: #000000; stroke-width: 0.8; stroke-linejoin: miter; stroke-linecap: square"/>
   </g>
   <g id="patch_4">
    <path d="M 392.424688 273.312 
L 392.424688 7.2 
" style="fill: none; stroke: #000000; stroke-width: 0.8; stroke-linejoin: miter; stroke-linecap: square"/>
   </g>
   <g id="patch_5">
    <path d="M 35.304688 273.312 
L 392.424688 273.312 
" style="fill: none; stroke: #000000; stroke-width: 0.8; stroke-linejoin: miter; stroke-linecap: square"/>
   </g>
   <g id="patch_6">
    <path d="M 35.304688 7.2 
L 392.424688 7.2 
" style="fill: none; stroke: #000000; stroke-width: 0.8; stroke-linejoin: miter; stroke-linecap: square"/>
   </g>
  </g>
 </g>
 <defs>
  <clipPath id="p9e6ae5cdaa">
   <rect x="35.304688" y="7.2" width="357.12" height="266.112"/>
  </clipPath>
 </defs>
</svg>
