<?xml version="1.0" encoding="utf-8" standalone="no"?>
<!DOCTYPE svg PUBLIC "-//W3C//DTD SVG 1.1//EN"
  "http://www.w3.org/Graphics/SVG/1.1/DTD/svg11.dtd">
<svg xmlns:xlink="http://www.w3.org/1999/xlink" width="399.624687pt" height="297.190125pt" viewBox="0 0 399.624687 297.190125" xmlns="http://www.w3.org/2000/svg" version="1.1">
 <metadata>
  <rdf:RDF xmlns:dc="http://purl.org/dc/elements/1.1/" xmlns:cc="http://creativecommons.org/ns#" xmlns:rdf="http://www.w3.org/1999/02/22-rdf-syntax-ns#">
   <cc:Work>
    <dc:type rdf:resource="http://purl.org/dc/dcmitype/StillImage"/>
    <dc:date>2023-11-12T10:37:20.038083</dc:date>
    <dc:format>image/svg+xml</dc:format>
    <dc:creator>
     <cc:Agent>
      <dc:title>Matplotlib v3.8.0, https://matplotlib.org/</dc:title>
     </cc:Agent>
    </dc:creator>
   </cc:Work>
  </rdf:RDF>
 </metadata>
 <defs>
  <style type="text/css">*{stroke-linejoin: round; stroke-linecap: butt}</style>
 </defs>
 <g id="figure_1">
  <g id="patch_1">
   <path d="M 0 297.190125 
L 399.624687 297.190125 
L 399.624687 0 
L 0 0 
z
" style="fill: #ffffff"/>
  </g>
  <g id="axes_1">
   <g id="patch_2">
    <path d="M 35.304688 273.312 
L 392.424688 273.312 
L 392.424688 7.2 
L 35.304688 7.2 
z
" style="fill: #ffffff"/>
   </g>
   <g id="PathCollection_1">
    <defs>
     <path id="mca26f5b327" d="M 0 1.5 
C 0.397805 1.5 0.77937 1.341951 1.06066 1.06066 
C 1.341951 0.77937 1.5 0.397805 1.5 0 
C 1.5 -0.397805 1.341951 -0.77937 1.06066 -1.06066 
C 0.77937 -1.341951 0.397805 -1.5 0 -1.5 
C -0.397805 -1.5 -0.77937 -1.341951 -1.06066 -1.06066 
C -1.341951 -0.77937 -1.5 -0.397805 -1.5 0 
C -1.5 0.397805 -1.341951 0.77937 -1.06066 1.06066 
C -0.77937 1.341951 -0.397805 1.5 0 1.5 
z
" style="stroke: #ff8c00"/>
    </defs>
    <g clip-path="url(#pda416667be)">
     <use xlink:href="#mca26f5b327" x="183.987307" y="116.492418" style="fill: #ff8c00; stroke: #ff8c00"/>
     <use xlink:href="#mca26f5b327" x="170.779278" y="124.271568" style="fill: #ff8c00; stroke: #ff8c00"/>
     <use xlink:href="#mca26f5b327" x="138.31374" y="155.39751" style="fill: #ff8c00; stroke: #ff8c00"/>
     <use xlink:href="#mca26f5b327" x="104.106276" y="137.386664" style="fill: #ff8c00; stroke: #ff8c00"/>
     <use xlink:href="#mca26f5b327" x="140.911602" y="25.497734" style="fill: #ff8c00; stroke: #ff8c00"/>
     <use xlink:href="#mca26f5b327" x="96.866264" y="164.466757" style="fill: #ff8c00; stroke: #ff8c00"/>
     <use xlink:href="#mca26f5b327" x="130.066163" y="127.46341" style="fill: #ff8c00; stroke: #ff8c00"/>
     <use xlink:href="#mca26f5b327" x="130.249658" y="68.824405" style="fill: #ff8c00; stroke: #ff8c00"/>
     <use xlink:href="#mca26f5b327" x="315.112484" y="19.296" style="fill: #ff8c00; stroke: #ff8c00"/>
     <use xlink:href="#mca26f5b327" x="132.441239" y="101.429023" style="fill: #ff8c00; stroke: #ff8c00"/>
     <use xlink:href="#mca26f5b327" x="224.251935" y="143.319573" style="fill: #ff8c00; stroke: #ff8c00"/>
     <use xlink:href="#mca26f5b327" x="165.522408" y="116.730622" style="fill: #ff8c00; stroke: #ff8c00"/>
     <use xlink:href="#mca26f5b327" x="105.883779" y="144.887395" style="fill: #ff8c00; stroke: #ff8c00"/>
     <use xlink:href="#mca26f5b327" x="142.347891" y="92.080666" style="fill: #ff8c00; stroke: #ff8c00"/>
     <use xlink:href="#mca26f5b327" x="232.944828" y="88.454175" style="fill: #ff8c00; stroke: #ff8c00"/>
    </g>
   </g>
   <g id="PathCollection_2">
    <defs>
     <path id="m148ea48f20" d="M 0 1.5 
C 0.397805 1.5 0.77937 1.341951 1.06066 1.06066 
C 1.341951 0.77937 1.5 0.397805 1.5 0 
C 1.5 -0.397805 1.341951 -0.77937 1.06066 -1.06066 
C 0.77937 -1.341951 0.397805 -1.5 0 -1.5 
C -0.397805 -1.5 -0.77937 -1.341951 -1.06066 -1.06066 
C -1.341951 -0.77937 -1.5 -0.397805 -1.5 0 
C -1.5 0.397805 -1.341951 0.77937 -1.06066 1.06066 
C -0.77937 1.341951 -0.397805 1.5 0 1.5 
z
" style="stroke: #006400"/>
    </defs>
    <g clip-path="url(#pda416667be)">
     <use xlink:href="#m148ea48f20" x="55.734859" y="159.946646" style="fill: #006400; stroke: #006400"/>
     <use xlink:href="#m148ea48f20" x="149.951745" y="203.730024" style="fill: #006400; stroke: #006400"/>
     <use xlink:href="#m148ea48f20" x="121.385355" y="218.478053" style="fill: #006400; stroke: #006400"/>
     <use xlink:href="#m148ea48f20" x="111.001795" y="193.486255" style="fill: #006400; stroke: #006400"/>
     <use xlink:href="#m148ea48f20" x="100.011979" y="210.737709" style="fill: #006400; stroke: #006400"/>
     <use xlink:href="#m148ea48f20" x="140.146433" y="181.206464" style="fill: #006400; stroke: #006400"/>
     <use xlink:href="#m148ea48f20" x="106.827291" y="212.09446" style="fill: #006400; stroke: #006400"/>
     <use xlink:href="#m148ea48f20" x="159.19591" y="184.501793" style="fill: #006400; stroke: #006400"/>
     <use xlink:href="#m148ea48f20" x="336.71816" y="226.452412" style="fill: #006400; stroke: #006400"/>
     <use xlink:href="#m148ea48f20" x="97.058994" y="200.541088" style="fill: #006400; stroke: #006400"/>
     <use xlink:href="#m148ea48f20" x="176.448423" y="199.126636" style="fill: #006400; stroke: #006400"/>
     <use xlink:href="#m148ea48f20" x="68.082266" y="168.034461" style="fill: #006400; stroke: #006400"/>
     <use xlink:href="#m148ea48f20" x="275.96928" y="213.209961" style="fill: #006400; stroke: #006400"/>
     <use xlink:href="#m148ea48f20" x="98.040049" y="226.072618" style="fill: #006400; stroke: #006400"/>
    </g>
   </g>
   <g id="PathCollection_3">
    <defs>
     <path id="m20b9fbc52b" d="M 0 1.5 
C 0.397805 1.5 0.77937 1.341951 1.06066 1.06066 
C 1.341951 0.77937 1.5 0.397805 1.5 0 
C 1.5 -0.397805 1.341951 -0.77937 1.06066 -1.06066 
C 0.77937 -1.341951 0.397805 -1.5 0 -1.5 
C -0.397805 -1.5 -0.77937 -1.341951 -1.06066 -1.06066 
C -1.341951 -0.77937 -1.5 -0.397805 -1.5 0 
C -1.5 0.397805 -1.341951 0.77937 -1.06066 1.06066 
C -0.77937 1.341951 -0.397805 1.5 0 1.5 
z
" style="stroke: #2f4f4f"/>
    </defs>
    <g clip-path="url(#pda416667be)">
     <use xlink:href="#m20b9fbc52b" x="141.293683" y="172.806688" style="fill: #2f4f4f; stroke: #2f4f4f"/>
     <use xlink:href="#m20b9fbc52b" x="104.490566" y="219.357694" style="fill: #2f4f4f; stroke: #2f4f4f"/>
     <use xlink:href="#m20b9fbc52b" x="98.808553" y="168.841978" style="fill: #2f4f4f; stroke: #2f4f4f"/>
     <use xlink:href="#m20b9fbc52b" x="100.314609" y="220.310661" style="fill: #2f4f4f; stroke: #2f4f4f"/>
     <use xlink:href="#m20b9fbc52b" x="63.155876" y="179.273894" style="fill: #2f4f4f; stroke: #2f4f4f"/>
     <use xlink:href="#m20b9fbc52b" x="60.560845" y="201.483489" style="fill: #2f4f4f; stroke: #2f4f4f"/>
     <use xlink:href="#m20b9fbc52b" x="147.948515" y="214.501195" style="fill: #2f4f4f; stroke: #2f4f4f"/>
     <use xlink:href="#m20b9fbc52b" x="102.626274" y="185.51828" style="fill: #2f4f4f; stroke: #2f4f4f"/>
     <use xlink:href="#m20b9fbc52b" x="88.785619" y="196.888256" style="fill: #2f4f4f; stroke: #2f4f4f"/>
     <use xlink:href="#m20b9fbc52b" x="57.305215" y="156.548499" style="fill: #2f4f4f; stroke: #2f4f4f"/>
     <use xlink:href="#m20b9fbc52b" x="51.537415" y="184.784381" style="fill: #2f4f4f; stroke: #2f4f4f"/>
     <use xlink:href="#m20b9fbc52b" x="86.881569" y="202.632453" style="fill: #2f4f4f; stroke: #2f4f4f"/>
     <use xlink:href="#m20b9fbc52b" x="144.745697" y="155.077323" style="fill: #2f4f4f; stroke: #2f4f4f"/>
     <use xlink:href="#m20b9fbc52b" x="59.617185" y="183.124874" style="fill: #2f4f4f; stroke: #2f4f4f"/>
     <use xlink:href="#m20b9fbc52b" x="98.142128" y="192.785491" style="fill: #2f4f4f; stroke: #2f4f4f"/>
     <use xlink:href="#m20b9fbc52b" x="139.219013" y="210.200808" style="fill: #2f4f4f; stroke: #2f4f4f"/>
     <use xlink:href="#m20b9fbc52b" x="84.422514" y="199.620676" style="fill: #2f4f4f; stroke: #2f4f4f"/>
     <use xlink:href="#m20b9fbc52b" x="106.762917" y="170.65858" style="fill: #2f4f4f; stroke: #2f4f4f"/>
    </g>
   </g>
   <g id="PathCollection_4">
    <defs>
     <path id="m3e75242506" d="M 0 1.5 
C 0.397805 1.5 0.77937 1.341951 1.06066 1.06066 
C 1.341951 0.77937 1.5 0.397805 1.5 0 
C 1.5 -0.397805 1.341951 -0.77937 1.06066 -1.06066 
C 0.77937 -1.341951 0.397805 -1.5 0 -1.5 
C -0.397805 -1.5 -0.77937 -1.341951 -1.06066 -1.06066 
C -1.341951 -0.77937 -1.5 -0.397805 -1.5 0 
C -1.5 0.397805 -1.341951 0.77937 -1.06066 1.06066 
C -0.77937 1.341951 -0.397805 1.5 0 1.5 
z
" style="stroke: #00bfff"/>
    </defs>
    <g clip-path="url(#pda416667be)">
     <use xlink:href="#m3e75242506" x="149.412452" y="141.005531" style="fill: #00bfff; stroke: #00bfff"/>
     <use xlink:href="#m3e75242506" x="98.418497" y="196.548423" style="fill: #00bfff; stroke: #00bfff"/>
     <use xlink:href="#m3e75242506" x="125.139328" y="204.702048" style="fill: #00bfff; stroke: #00bfff"/>
     <use xlink:href="#m3e75242506" x="113.913895" y="195.516146" style="fill: #00bfff; stroke: #00bfff"/>
     <use xlink:href="#m3e75242506" x="85.093793" y="195.540448" style="fill: #00bfff; stroke: #00bfff"/>
     <use xlink:href="#m3e75242506" x="125.211304" y="185.448692" style="fill: #00bfff; stroke: #00bfff"/>
     <use xlink:href="#m3e75242506" x="139.74517" y="213.462278" style="fill: #00bfff; stroke: #00bfff"/>
     <use xlink:href="#m3e75242506" x="143.827034" y="183.840762" style="fill: #00bfff; stroke: #00bfff"/>
     <use xlink:href="#m3e75242506" x="147.664273" y="203.380394" style="fill: #00bfff; stroke: #00bfff"/>
     <use xlink:href="#m3e75242506" x="90.248574" y="194.09584" style="fill: #00bfff; stroke: #00bfff"/>
     <use xlink:href="#m3e75242506" x="100.181346" y="186.99884" style="fill: #00bfff; stroke: #00bfff"/>
     <use xlink:href="#m3e75242506" x="79.828409" y="165.878137" style="fill: #00bfff; stroke: #00bfff"/>
     <use xlink:href="#m3e75242506" x="111.278764" y="202.843473" style="fill: #00bfff; stroke: #00bfff"/>
    </g>
   </g>
   <g id="PathCollection_5">
    <defs>
     <path id="mbad6a63604" d="M 0 1.5 
C 0.397805 1.5 0.77937 1.341951 1.06066 1.06066 
C 1.341951 0.77937 1.5 0.397805 1.5 0 
C 1.5 -0.397805 1.341951 -0.77937 1.06066 -1.06066 
C 0.77937 -1.341951 0.397805 -1.5 0 -1.5 
C -0.397805 -1.5 -0.77937 -1.341951 -1.06066 -1.06066 
C -1.341951 -0.77937 -1.5 -0.397805 -1.5 0 
C -1.5 0.397805 -1.341951 0.77937 -1.06066 1.06066 
C -0.77937 1.341951 -0.397805 1.5 0 1.5 
z
" style="stroke: #ffff00"/>
    </defs>
    <g clip-path="url(#pda416667be)">
     <use xlink:href="#mbad6a63604" x="141.165657" y="236.75728" style="fill: #ffff00; stroke: #ffff00"/>
     <use xlink:href="#mbad6a63604" x="61.040514" y="210.658726" style="fill: #ffff00; stroke: #ffff00"/>
     <use xlink:href="#mbad6a63604" x="95.14722" y="217.588871" style="fill: #ffff00; stroke: #ffff00"/>
     <use xlink:href="#mbad6a63604" x="88.196422" y="216.154723" style="fill: #ffff00; stroke: #ffff00"/>
     <use xlink:href="#mbad6a63604" x="106.29006" y="204.032795" style="fill: #ffff00; stroke: #ffff00"/>
     <use xlink:href="#mbad6a63604" x="88.887914" y="204.193989" style="fill: #ffff00; stroke: #ffff00"/>
     <use xlink:href="#mbad6a63604" x="143.126821" y="167.039154" style="fill: #ffff00; stroke: #ffff00"/>
     <use xlink:href="#mbad6a63604" x="111.596033" y="188.8401" style="fill: #ffff00; stroke: #ffff00"/>
     <use xlink:href="#mbad6a63604" x="80.414805" y="223.956036" style="fill: #ffff00; stroke: #ffff00"/>
     <use xlink:href="#mbad6a63604" x="113.797165" y="178.387393" style="fill: #ffff00; stroke: #ffff00"/>
     <use xlink:href="#mbad6a63604" x="167.818493" y="198.648953" style="fill: #ffff00; stroke: #ffff00"/>
     <use xlink:href="#mbad6a63604" x="52.562609" y="175.949242" style="fill: #ffff00; stroke: #ffff00"/>
     <use xlink:href="#mbad6a63604" x="83.052811" y="210.899464" style="fill: #ffff00; stroke: #ffff00"/>
     <use xlink:href="#mbad6a63604" x="84.720933" y="193.577148" style="fill: #ffff00; stroke: #ffff00"/>
     <use xlink:href="#mbad6a63604" x="52.924061" y="199.455863" style="fill: #ffff00; stroke: #ffff00"/>
     <use xlink:href="#mbad6a63604" x="72.5584" y="199.839212" style="fill: #ffff00; stroke: #ffff00"/>
    </g>
   </g>
   <g id="PathCollection_6">
    <defs>
     <path id="m98f6890776" d="M 0 1.5 
C 0.397805 1.5 0.77937 1.341951 1.06066 1.06066 
C 1.341951 0.77937 1.5 0.397805 1.5 0 
C 1.5 -0.397805 1.341951 -0.77937 1.06066 -1.06066 
C 0.77937 -1.341951 0.397805 -1.5 0 -1.5 
C -0.397805 -1.5 -0.77937 -1.341951 -1.06066 -1.06066 
C -1.341951 -0.77937 -1.5 -0.397805 -1.5 0 
C -1.5 0.397805 -1.341951 0.77937 -1.06066 1.06066 
C -0.77937 1.341951 -0.397805 1.5 0 1.5 
z
" style="stroke: #00ffff"/>
    </defs>
    <g clip-path="url(#pda416667be)">
     <use xlink:href="#m98f6890776" x="83.922529" y="194.912567" style="fill: #00ffff; stroke: #00ffff"/>
     <use xlink:href="#m98f6890776" x="130.588904" y="205.775277" style="fill: #00ffff; stroke: #00ffff"/>
     <use xlink:href="#m98f6890776" x="147.345953" y="147.071035" style="fill: #00ffff; stroke: #00ffff"/>
     <use xlink:href="#m98f6890776" x="160.753434" y="218.778315" style="fill: #00ffff; stroke: #00ffff"/>
     <use xlink:href="#m98f6890776" x="149.904237" y="169.965336" style="fill: #00ffff; stroke: #00ffff"/>
     <use xlink:href="#m98f6890776" x="118.89336" y="211.371901" style="fill: #00ffff; stroke: #00ffff"/>
     <use xlink:href="#m98f6890776" x="179.825927" y="148.110141" style="fill: #00ffff; stroke: #00ffff"/>
     <use xlink:href="#m98f6890776" x="77.776524" y="209.062644" style="fill: #00ffff; stroke: #00ffff"/>
     <use xlink:href="#m98f6890776" x="173.21849" y="182.709302" style="fill: #00ffff; stroke: #00ffff"/>
     <use xlink:href="#m98f6890776" x="127.34165" y="203.76338" style="fill: #00ffff; stroke: #00ffff"/>
     <use xlink:href="#m98f6890776" x="130.52606" y="174.516982" style="fill: #00ffff; stroke: #00ffff"/>
     <use xlink:href="#m98f6890776" x="80.542716" y="185.005304" style="fill: #00ffff; stroke: #00ffff"/>
     <use xlink:href="#m98f6890776" x="105.607966" y="160.553503" style="fill: #00ffff; stroke: #00ffff"/>
     <use xlink:href="#m98f6890776" x="136.566816" y="193.646748" style="fill: #00ffff; stroke: #00ffff"/>
     <use xlink:href="#m98f6890776" x="108.966795" y="136.611534" style="fill: #00ffff; stroke: #00ffff"/>
     <use xlink:href="#m98f6890776" x="167.629284" y="184.236324" style="fill: #00ffff; stroke: #00ffff"/>
     <use xlink:href="#m98f6890776" x="118.74544" y="168.328012" style="fill: #00ffff; stroke: #00ffff"/>
    </g>
   </g>
   <g id="PathCollection_7">
    <defs>
     <path id="m2b9d79b91f" d="M 0 1.5 
C 0.397805 1.5 0.77937 1.341951 1.06066 1.06066 
C 1.341951 0.77937 1.5 0.397805 1.5 0 
C 1.5 -0.397805 1.341951 -0.77937 1.06066 -1.06066 
C 0.77937 -1.341951 0.397805 -1.5 0 -1.5 
C -0.397805 -1.5 -0.77937 -1.341951 -1.06066 -1.06066 
C -1.341951 -0.77937 -1.5 -0.397805 -1.5 0 
C -1.5 0.397805 -1.341951 0.77937 -1.06066 1.06066 
C -0.77937 1.341951 -0.397805 1.5 0 1.5 
z
" style="stroke: #0000ff"/>
    </defs>
    <g clip-path="url(#pda416667be)">
     <use xlink:href="#m2b9d79b91f" x="60.080695" y="203.706384" style="fill: #0000ff; stroke: #0000ff"/>
     <use xlink:href="#m2b9d79b91f" x="109.538152" y="176.693217" style="fill: #0000ff; stroke: #0000ff"/>
     <use xlink:href="#m2b9d79b91f" x="116.932781" y="168.891032" style="fill: #0000ff; stroke: #0000ff"/>
     <use xlink:href="#m2b9d79b91f" x="77.017663" y="178.05735" style="fill: #0000ff; stroke: #0000ff"/>
     <use xlink:href="#m2b9d79b91f" x="119.604557" y="189.539488" style="fill: #0000ff; stroke: #0000ff"/>
     <use xlink:href="#m2b9d79b91f" x="123.829864" y="176.745544" style="fill: #0000ff; stroke: #0000ff"/>
     <use xlink:href="#m2b9d79b91f" x="112.494242" y="169.646882" style="fill: #0000ff; stroke: #0000ff"/>
     <use xlink:href="#m2b9d79b91f" x="67.43564" y="170.157479" style="fill: #0000ff; stroke: #0000ff"/>
     <use xlink:href="#m2b9d79b91f" x="108.85654" y="179.039032" style="fill: #0000ff; stroke: #0000ff"/>
     <use xlink:href="#m2b9d79b91f" x="99.560588" y="166.129226" style="fill: #0000ff; stroke: #0000ff"/>
    </g>
   </g>
   <g id="PathCollection_8">
    <defs>
     <path id="m469a535554" d="M 0 1.5 
C 0.397805 1.5 0.77937 1.341951 1.06066 1.06066 
C 1.341951 0.77937 1.5 0.397805 1.5 0 
C 1.5 -0.397805 1.341951 -0.77937 1.06066 -1.06066 
C 0.77937 -1.341951 0.397805 -1.5 0 -1.5 
C -0.397805 -1.5 -0.77937 -1.341951 -1.06066 -1.06066 
C -1.341951 -0.77937 -1.5 -0.397805 -1.5 0 
C -1.5 0.397805 -1.341951 0.77937 -1.06066 1.06066 
C -0.77937 1.341951 -0.397805 1.5 0 1.5 
z
" style="stroke: #dc143c"/>
    </defs>
    <g clip-path="url(#pda416667be)">
     <use xlink:href="#m469a535554" x="160.525508" y="157.417031" style="fill: #dc143c; stroke: #dc143c"/>
     <use xlink:href="#m469a535554" x="136.957417" y="149.032971" style="fill: #dc143c; stroke: #dc143c"/>
     <use xlink:href="#m469a535554" x="218.994192" y="194.193964" style="fill: #dc143c; stroke: #dc143c"/>
     <use xlink:href="#m469a535554" x="238.085403" y="137.628453" style="fill: #dc143c; stroke: #dc143c"/>
     <use xlink:href="#m469a535554" x="351.316157" y="191.277746" style="fill: #dc143c; stroke: #dc143c"/>
     <use xlink:href="#m469a535554" x="250.276037" y="188.4104" style="fill: #dc143c; stroke: #dc143c"/>
     <use xlink:href="#m469a535554" x="146.339455" y="134.705544" style="fill: #dc143c; stroke: #dc143c"/>
     <use xlink:href="#m469a535554" x="179.980244" y="203.410633" style="fill: #dc143c; stroke: #dc143c"/>
     <use xlink:href="#m469a535554" x="225.370581" y="97.92692" style="fill: #dc143c; stroke: #dc143c"/>
     <use xlink:href="#m469a535554" x="185.962607" y="147.577745" style="fill: #dc143c; stroke: #dc143c"/>
     <use xlink:href="#m469a535554" x="242.181747" y="94.260204" style="fill: #dc143c; stroke: #dc143c"/>
    </g>
   </g>
   <g id="PathCollection_9">
    <defs>
     <path id="m5c7073940b" d="M 0 1.5 
C 0.397805 1.5 0.77937 1.341951 1.06066 1.06066 
C 1.341951 0.77937 1.5 0.397805 1.5 0 
C 1.5 -0.397805 1.341951 -0.77937 1.06066 -1.06066 
C 0.77937 -1.341951 0.397805 -1.5 0 -1.5 
C -0.397805 -1.5 -0.77937 -1.341951 -1.06066 -1.06066 
C -1.341951 -0.77937 -1.5 -0.397805 -1.5 0 
C -1.5 0.397805 -1.341951 0.77937 -1.06066 1.06066 
C -0.77937 1.341951 -0.397805 1.5 0 1.5 
z
" style="stroke: #ffe4c4"/>
    </defs>
    <g clip-path="url(#pda416667be)">
     <use xlink:href="#m5c7073940b" x="153.989701" y="86.355969" style="fill: #ffe4c4; stroke: #ffe4c4"/>
     <use xlink:href="#m5c7073940b" x="323.445467" y="133.522897" style="fill: #ffe4c4; stroke: #ffe4c4"/>
     <use xlink:href="#m5c7073940b" x="98.846444" y="152.601535" style="fill: #ffe4c4; stroke: #ffe4c4"/>
     <use xlink:href="#m5c7073940b" x="132.58167" y="45.94719" style="fill: #ffe4c4; stroke: #ffe4c4"/>
     <use xlink:href="#m5c7073940b" x="128.147178" y="97.509381" style="fill: #ffe4c4; stroke: #ffe4c4"/>
     <use xlink:href="#m5c7073940b" x="222.053245" y="115.474768" style="fill: #ffe4c4; stroke: #ffe4c4"/>
     <use xlink:href="#m5c7073940b" x="178.034745" y="150.627892" style="fill: #ffe4c4; stroke: #ffe4c4"/>
     <use xlink:href="#m5c7073940b" x="106.602837" y="159.215371" style="fill: #ffe4c4; stroke: #ffe4c4"/>
     <use xlink:href="#m5c7073940b" x="310.469333" y="139.899373" style="fill: #ffe4c4; stroke: #ffe4c4"/>
     <use xlink:href="#m5c7073940b" x="134.364005" y="127.668643" style="fill: #ffe4c4; stroke: #ffe4c4"/>
     <use xlink:href="#m5c7073940b" x="187.83634" y="160.511953" style="fill: #ffe4c4; stroke: #ffe4c4"/>
     <use xlink:href="#m5c7073940b" x="120.392734" y="170.639767" style="fill: #ffe4c4; stroke: #ffe4c4"/>
     <use xlink:href="#m5c7073940b" x="125.959688" y="174.639812" style="fill: #ffe4c4; stroke: #ffe4c4"/>
     <use xlink:href="#m5c7073940b" x="271.240304" y="140.152628" style="fill: #ffe4c4; stroke: #ffe4c4"/>
    </g>
   </g>
   <g id="PathCollection_10">
    <defs>
     <path id="me0c8d36a5d" d="M -2.99994 2.99994 
L 3.00006 2.99994 
L 3.00006 -3.00006 
L -2.99994 -3.00006 
z
" style="stroke: #000000"/>
    </defs>
    <g clip-path="url(#pda416667be)">
     <use xlink:href="#me0c8d36a5d" x="259.670385" y="226.528226" style="stroke: #000000"/>
     <use xlink:href="#me0c8d36a5d" x="246.950184" y="172.953085" style="stroke: #000000"/>
     <use xlink:href="#me0c8d36a5d" x="343.533124" y="222.120444" style="stroke: #000000"/>
     <use xlink:href="#me0c8d36a5d" x="179.271602" y="184.505227" style="stroke: #000000"/>
     <use xlink:href="#me0c8d36a5d" x="187.104843" y="154.25042" style="stroke: #000000"/>
     <use xlink:href="#me0c8d36a5d" x="354.686482" y="180.192649" style="stroke: #000000"/>
     <use xlink:href="#me0c8d36a5d" x="281.428661" y="166.375428" style="stroke: #000000"/>
     <use xlink:href="#me0c8d36a5d" x="304.376192" y="88.483267" style="stroke: #000000"/>
     <use xlink:href="#me0c8d36a5d" x="263.30324" y="192.23674" style="stroke: #000000"/>
     <use xlink:href="#me0c8d36a5d" x="160.252853" y="225.401036" style="stroke: #000000"/>
     <use xlink:href="#me0c8d36a5d" x="289.772651" y="221.321221" style="stroke: #000000"/>
     <use xlink:href="#me0c8d36a5d" x="342.739315" y="217.196295" style="stroke: #000000"/>
     <use xlink:href="#me0c8d36a5d" x="258.030718" y="224.722333" style="stroke: #000000"/>
     <use xlink:href="#me0c8d36a5d" x="251.050145" y="150.512422" style="stroke: #000000"/>
     <use xlink:href="#me0c8d36a5d" x="376.19196" y="169.936164" style="stroke: #000000"/>
     <use xlink:href="#me0c8d36a5d" x="132.057354" y="172.750642" style="stroke: #000000"/>
     <use xlink:href="#me0c8d36a5d" x="126.559644" y="159.525967" style="stroke: #000000"/>
     <use xlink:href="#me0c8d36a5d" x="202.232744" y="173.469351" style="stroke: #000000"/>
     <use xlink:href="#me0c8d36a5d" x="101.246054" y="192.083226" style="stroke: #000000"/>
     <use xlink:href="#me0c8d36a5d" x="191.453845" y="206.211011" style="stroke: #000000"/>
     <use xlink:href="#me0c8d36a5d" x="112.42671" y="210.033942" style="stroke: #000000"/>
     <use xlink:href="#me0c8d36a5d" x="319.266108" y="182.632233" style="stroke: #000000"/>
     <use xlink:href="#me0c8d36a5d" x="198.517636" y="131.426192" style="stroke: #000000"/>
     <use xlink:href="#me0c8d36a5d" x="306.157416" y="169.613674" style="stroke: #000000"/>
     <use xlink:href="#me0c8d36a5d" x="260.151113" y="191.884416" style="stroke: #000000"/>
     <use xlink:href="#me0c8d36a5d" x="310.514814" y="181.890494" style="stroke: #000000"/>
     <use xlink:href="#me0c8d36a5d" x="298.519787" y="237.276121" style="stroke: #000000"/>
     <use xlink:href="#me0c8d36a5d" x="187.946746" y="189.797194" style="stroke: #000000"/>
     <use xlink:href="#me0c8d36a5d" x="147.061932" y="196.478227" style="stroke: #000000"/>
     <use xlink:href="#me0c8d36a5d" x="325.986182" y="220.758113" style="stroke: #000000"/>
     <use xlink:href="#me0c8d36a5d" x="291.846528" y="184.339268" style="stroke: #000000"/>
     <use xlink:href="#me0c8d36a5d" x="230.992822" y="261.216" style="stroke: #000000"/>
     <use xlink:href="#me0c8d36a5d" x="192.140427" y="177.194314" style="stroke: #000000"/>
     <use xlink:href="#me0c8d36a5d" x="261.521905" y="201.990173" style="stroke: #000000"/>
     <use xlink:href="#me0c8d36a5d" x="359.036542" y="193.822648" style="stroke: #000000"/>
     <use xlink:href="#me0c8d36a5d" x="206.619105" y="192.739819" style="stroke: #000000"/>
     <use xlink:href="#me0c8d36a5d" x="196.685743" y="214.646748" style="stroke: #000000"/>
     <use xlink:href="#me0c8d36a5d" x="194.222442" y="193.674792" style="stroke: #000000"/>
     <use xlink:href="#me0c8d36a5d" x="253.682718" y="192.080557" style="stroke: #000000"/>
     <use xlink:href="#me0c8d36a5d" x="135.244451" y="256.170646" style="stroke: #000000"/>
     <use xlink:href="#me0c8d36a5d" x="185.879905" y="217.836523" style="stroke: #000000"/>
     <use xlink:href="#me0c8d36a5d" x="283.778462" y="206.249279" style="stroke: #000000"/>
     <use xlink:href="#me0c8d36a5d" x="258.030718" y="224.722333" style="stroke: #000000"/>
     <use xlink:href="#me0c8d36a5d" x="334.029143" y="228.414755" style="stroke: #000000"/>
     <use xlink:href="#me0c8d36a5d" x="304.109667" y="168.374972" style="stroke: #000000"/>
     <use xlink:href="#me0c8d36a5d" x="158.516122" y="219.78049" style="stroke: #000000"/>
     <use xlink:href="#me0c8d36a5d" x="200.040643" y="194.445943" style="stroke: #000000"/>
     <use xlink:href="#me0c8d36a5d" x="143.189594" y="209.307767" style="stroke: #000000"/>
     <use xlink:href="#me0c8d36a5d" x="206.267221" y="184.699169" style="stroke: #000000"/>
     <use xlink:href="#me0c8d36a5d" x="245.474481" y="182.163019" style="stroke: #000000"/>
     <use xlink:href="#me0c8d36a5d" x="105.091459" y="184.345674" style="stroke: #000000"/>
     <use xlink:href="#me0c8d36a5d" x="136.283798" y="105.227493" style="stroke: #000000"/>
     <use xlink:href="#me0c8d36a5d" x="215.527658" y="180.817186" style="stroke: #000000"/>
     <use xlink:href="#me0c8d36a5d" x="290.381172" y="189.065505" style="stroke: #000000"/>
     <use xlink:href="#me0c8d36a5d" x="137.906099" y="221.062871" style="stroke: #000000"/>
     <use xlink:href="#me0c8d36a5d" x="168.046779" y="196.859496" style="stroke: #000000"/>
     <use xlink:href="#me0c8d36a5d" x="225.740153" y="226.598596" style="stroke: #000000"/>
     <use xlink:href="#me0c8d36a5d" x="188.379" y="165.072057" style="stroke: #000000"/>
     <use xlink:href="#me0c8d36a5d" x="226.798954" y="225.296007" style="stroke: #000000"/>
     <use xlink:href="#me0c8d36a5d" x="294.21271" y="156.901975" style="stroke: #000000"/>
     <use xlink:href="#me0c8d36a5d" x="183.427179" y="181.936541" style="stroke: #000000"/>
     <use xlink:href="#me0c8d36a5d" x="157.653061" y="149.969622" style="stroke: #000000"/>
     <use xlink:href="#me0c8d36a5d" x="157.251188" y="206.691624" style="stroke: #000000"/>
     <use xlink:href="#me0c8d36a5d" x="148.160391" y="234.128603" style="stroke: #000000"/>
    </g>
   </g>
   <g id="PathCollection_11">
    <defs>
     <path id="mf9f0820e21" d="M -3 -0 
L 3 3 
L 3 -3 
z
" style="stroke: #ff8c00"/>
    </defs>
    <g clip-path="url(#pda416667be)">
     <use xlink:href="#mf9f0820e21" x="282.570359" y="208.725826" style="fill: #ff8c00; stroke: #ff8c00"/>
     <use xlink:href="#mf9f0820e21" x="211.563006" y="206.594788" style="fill: #ff8c00; stroke: #ff8c00"/>
     <use xlink:href="#mf9f0820e21" x="224.821509" y="209.116274" style="fill: #ff8c00; stroke: #ff8c00"/>
     <use xlink:href="#mf9f0820e21" x="115.279873" y="178.213615" style="fill: #ff8c00; stroke: #ff8c00"/>
     <use xlink:href="#mf9f0820e21" x="131.183419" y="187.534077" style="fill: #ff8c00; stroke: #ff8c00"/>
     <use xlink:href="#mf9f0820e21" x="203.107354" y="189.821532" style="fill: #ff8c00; stroke: #ff8c00"/>
     <use xlink:href="#mf9f0820e21" x="198.783768" y="190.998431" style="fill: #ff8c00; stroke: #ff8c00"/>
     <use xlink:href="#mf9f0820e21" x="240.240413" y="193.159039" style="fill: #ff8c00; stroke: #ff8c00"/>
     <use xlink:href="#mf9f0820e21" x="263.229889" y="205.87846" style="fill: #ff8c00; stroke: #ff8c00"/>
     <use xlink:href="#mf9f0820e21" x="208.619916" y="212.010755" style="fill: #ff8c00; stroke: #ff8c00"/>
     <use xlink:href="#mf9f0820e21" x="172.199958" y="190.684405" style="fill: #ff8c00; stroke: #ff8c00"/>
     <use xlink:href="#mf9f0820e21" x="129.858283" y="198.280191" style="fill: #ff8c00; stroke: #ff8c00"/>
     <use xlink:href="#mf9f0820e21" x="212.756393" y="203.43041" style="fill: #ff8c00; stroke: #ff8c00"/>
     <use xlink:href="#mf9f0820e21" x="182.70625" y="189.560815" style="fill: #ff8c00; stroke: #ff8c00"/>
     <use xlink:href="#mf9f0820e21" x="191.476911" y="187.670774" style="fill: #ff8c00; stroke: #ff8c00"/>
     <use xlink:href="#mf9f0820e21" x="233.140983" y="197.141471" style="fill: #ff8c00; stroke: #ff8c00"/>
     <use xlink:href="#mf9f0820e21" x="225.510229" y="203.805086" style="fill: #ff8c00; stroke: #ff8c00"/>
     <use xlink:href="#mf9f0820e21" x="197.354986" y="185.125169" style="fill: #ff8c00; stroke: #ff8c00"/>
     <use xlink:href="#mf9f0820e21" x="157.357899" y="191.785002" style="fill: #ff8c00; stroke: #ff8c00"/>
     <use xlink:href="#mf9f0820e21" x="198.415615" y="198.639186" style="fill: #ff8c00; stroke: #ff8c00"/>
     <use xlink:href="#mf9f0820e21" x="195.507781" y="179.259294" style="fill: #ff8c00; stroke: #ff8c00"/>
     <use xlink:href="#mf9f0820e21" x="271.007911" y="175.445468" style="fill: #ff8c00; stroke: #ff8c00"/>
     <use xlink:href="#mf9f0820e21" x="203.542308" y="193.469666" style="fill: #ff8c00; stroke: #ff8c00"/>
     <use xlink:href="#mf9f0820e21" x="233.22123" y="198.702146" style="fill: #ff8c00; stroke: #ff8c00"/>
     <use xlink:href="#mf9f0820e21" x="191.803499" y="196.801799" style="fill: #ff8c00; stroke: #ff8c00"/>
     <use xlink:href="#mf9f0820e21" x="277.313581" y="161.362122" style="fill: #ff8c00; stroke: #ff8c00"/>
     <use xlink:href="#mf9f0820e21" x="241.844317" y="186.551564" style="fill: #ff8c00; stroke: #ff8c00"/>
     <use xlink:href="#mf9f0820e21" x="110.544815" y="203.337064" style="fill: #ff8c00; stroke: #ff8c00"/>
     <use xlink:href="#mf9f0820e21" x="254.150638" y="190.932502" style="fill: #ff8c00; stroke: #ff8c00"/>
     <use xlink:href="#mf9f0820e21" x="277.745211" y="187.99186" style="fill: #ff8c00; stroke: #ff8c00"/>
     <use xlink:href="#mf9f0820e21" x="179.993651" y="181.493305" style="fill: #ff8c00; stroke: #ff8c00"/>
     <use xlink:href="#mf9f0820e21" x="192.493702" y="199.567324" style="fill: #ff8c00; stroke: #ff8c00"/>
     <use xlink:href="#mf9f0820e21" x="212.904787" y="204.215937" style="fill: #ff8c00; stroke: #ff8c00"/>
     <use xlink:href="#mf9f0820e21" x="161.837626" y="190.124576" style="fill: #ff8c00; stroke: #ff8c00"/>
     <use xlink:href="#mf9f0820e21" x="169.134935" y="204.275504" style="fill: #ff8c00; stroke: #ff8c00"/>
     <use xlink:href="#mf9f0820e21" x="159.107482" y="202.872957" style="fill: #ff8c00; stroke: #ff8c00"/>
     <use xlink:href="#mf9f0820e21" x="84.004781" y="186.582542" style="fill: #ff8c00; stroke: #ff8c00"/>
     <use xlink:href="#mf9f0820e21" x="202.011938" y="197.316975" style="fill: #ff8c00; stroke: #ff8c00"/>
     <use xlink:href="#mf9f0820e21" x="208.573009" y="196.854008" style="fill: #ff8c00; stroke: #ff8c00"/>
     <use xlink:href="#mf9f0820e21" x="286.053163" y="170.632078" style="fill: #ff8c00; stroke: #ff8c00"/>
     <use xlink:href="#mf9f0820e21" x="166.64526" y="177.667315" style="fill: #ff8c00; stroke: #ff8c00"/>
     <use xlink:href="#mf9f0820e21" x="167.004362" y="204.332339" style="fill: #ff8c00; stroke: #ff8c00"/>
     <use xlink:href="#mf9f0820e21" x="186.560691" y="195.701773" style="fill: #ff8c00; stroke: #ff8c00"/>
     <use xlink:href="#mf9f0820e21" x="259.805167" y="154.559085" style="fill: #ff8c00; stroke: #ff8c00"/>
     <use xlink:href="#mf9f0820e21" x="218.457035" y="197.708473" style="fill: #ff8c00; stroke: #ff8c00"/>
     <use xlink:href="#mf9f0820e21" x="136.612267" y="195.198345" style="fill: #ff8c00; stroke: #ff8c00"/>
     <use xlink:href="#mf9f0820e21" x="189.756401" y="199.174358" style="fill: #ff8c00; stroke: #ff8c00"/>
     <use xlink:href="#mf9f0820e21" x="229.59028" y="160.616743" style="fill: #ff8c00; stroke: #ff8c00"/>
     <use xlink:href="#mf9f0820e21" x="225.043198" y="208.059552" style="fill: #ff8c00; stroke: #ff8c00"/>
     <use xlink:href="#mf9f0820e21" x="261.922242" y="185.044935" style="fill: #ff8c00; stroke: #ff8c00"/>
     <use xlink:href="#mf9f0820e21" x="214.952684" y="190.312122" style="fill: #ff8c00; stroke: #ff8c00"/>
     <use xlink:href="#mf9f0820e21" x="248.299007" y="208.85721" style="fill: #ff8c00; stroke: #ff8c00"/>
     <use xlink:href="#mf9f0820e21" x="234.781702" y="194.911195" style="fill: #ff8c00; stroke: #ff8c00"/>
     <use xlink:href="#mf9f0820e21" x="118.419099" y="207.854764" style="fill: #ff8c00; stroke: #ff8c00"/>
     <use xlink:href="#mf9f0820e21" x="180.079895" y="195.608453" style="fill: #ff8c00; stroke: #ff8c00"/>
     <use xlink:href="#mf9f0820e21" x="215.261918" y="149.932418" style="fill: #ff8c00; stroke: #ff8c00"/>
     <use xlink:href="#mf9f0820e21" x="241.728124" y="197.877621" style="fill: #ff8c00; stroke: #ff8c00"/>
     <use xlink:href="#mf9f0820e21" x="288.803753" y="194.62547" style="fill: #ff8c00; stroke: #ff8c00"/>
     <use xlink:href="#mf9f0820e21" x="210.930348" y="200.25522" style="fill: #ff8c00; stroke: #ff8c00"/>
     <use xlink:href="#mf9f0820e21" x="225.336896" y="181.046237" style="fill: #ff8c00; stroke: #ff8c00"/>
     <use xlink:href="#mf9f0820e21" x="216.536278" y="213.509263" style="fill: #ff8c00; stroke: #ff8c00"/>
     <use xlink:href="#mf9f0820e21" x="189.794239" y="202.8303" style="fill: #ff8c00; stroke: #ff8c00"/>
     <use xlink:href="#mf9f0820e21" x="217.450335" y="188.254331" style="fill: #ff8c00; stroke: #ff8c00"/>
     <use xlink:href="#mf9f0820e21" x="230.515418" y="195.785822" style="fill: #ff8c00; stroke: #ff8c00"/>
    </g>
   </g>
   <g id="matplotlib.axis_1">
    <g id="xtick_1">
     <g id="line2d_1">
      <defs>
       <path id="m477961eea7" d="M 0 0 
L 0 3.5 
" style="stroke: #000000; stroke-width: 0.8"/>
      </defs>
      <g>
       <use xlink:href="#m477961eea7" x="98.003144" y="273.312" style="stroke: #000000; stroke-width: 0.8"/>
      </g>
     </g>
     <g id="text_1">
      <!-- −10 -->
      <g transform="translate(87.4508 287.910437) scale(0.1 -0.1)">
       <defs>
        <path id="DejaVuSans-2212" d="M 678 2272 
L 4684 2272 
L 4684 1741 
L 678 1741 
L 678 2272 
z
" transform="scale(0.015625)"/>
        <path id="DejaVuSans-31" d="M 794 531 
L 1825 531 
L 1825 4091 
L 703 3866 
L 703 4441 
L 1819 4666 
L 2450 4666 
L 2450 531 
L 3481 531 
L 3481 0 
L 794 0 
L 794 531 
z
" transform="scale(0.015625)"/>
        <path id="DejaVuSans-30" d="M 2034 4250 
Q 1547 4250 1301 3770 
Q 1056 3291 1056 2328 
Q 1056 1369 1301 889 
Q 1547 409 2034 409 
Q 2525 409 2770 889 
Q 3016 1369 3016 2328 
Q 3016 3291 2770 3770 
Q 2525 4250 2034 4250 
z
M 2034 4750 
Q 2819 4750 3233 4129 
Q 3647 3509 3647 2328 
Q 3647 1150 3233 529 
Q 2819 -91 2034 -91 
Q 1250 -91 836 529 
Q 422 1150 422 2328 
Q 422 3509 836 4129 
Q 1250 4750 2034 4750 
z
" transform="scale(0.015625)"/>
       </defs>
       <use xlink:href="#DejaVuSans-2212"/>
       <use xlink:href="#DejaVuSans-31" x="83.789062"/>
       <use xlink:href="#DejaVuSans-30" x="147.412109"/>
      </g>
     </g>
    </g>
    <g id="xtick_2">
     <g id="line2d_2">
      <g>
       <use xlink:href="#m477961eea7" x="175.724956" y="273.312" style="stroke: #000000; stroke-width: 0.8"/>
      </g>
     </g>
     <g id="text_2">
      <!-- 0 -->
      <g transform="translate(172.543706 287.910437) scale(0.1 -0.1)">
       <use xlink:href="#DejaVuSans-30"/>
      </g>
     </g>
    </g>
    <g id="xtick_3">
     <g id="line2d_3">
      <g>
       <use xlink:href="#m477961eea7" x="253.446768" y="273.312" style="stroke: #000000; stroke-width: 0.8"/>
      </g>
     </g>
     <g id="text_3">
      <!-- 10 -->
      <g transform="translate(247.084268 287.910437) scale(0.1 -0.1)">
       <use xlink:href="#DejaVuSans-31"/>
       <use xlink:href="#DejaVuSans-30" x="63.623047"/>
      </g>
     </g>
    </g>
    <g id="xtick_4">
     <g id="line2d_4">
      <g>
       <use xlink:href="#m477961eea7" x="331.16858" y="273.312" style="stroke: #000000; stroke-width: 0.8"/>
      </g>
     </g>
     <g id="text_4">
      <!-- 20 -->
      <g transform="translate(324.80608 287.910437) scale(0.1 -0.1)">
       <defs>
        <path id="DejaVuSans-32" d="M 1228 531 
L 3431 531 
L 3431 0 
L 469 0 
L 469 531 
Q 828 903 1448 1529 
Q 2069 2156 2228 2338 
Q 2531 2678 2651 2914 
Q 2772 3150 2772 3378 
Q 2772 3750 2511 3984 
Q 2250 4219 1831 4219 
Q 1534 4219 1204 4116 
Q 875 4013 500 3803 
L 500 4441 
Q 881 4594 1212 4672 
Q 1544 4750 1819 4750 
Q 2544 4750 2975 4387 
Q 3406 4025 3406 3419 
Q 3406 3131 3298 2873 
Q 3191 2616 2906 2266 
Q 2828 2175 2409 1742 
Q 1991 1309 1228 531 
z
" transform="scale(0.015625)"/>
       </defs>
       <use xlink:href="#DejaVuSans-32"/>
       <use xlink:href="#DejaVuSans-30" x="63.623047"/>
      </g>
     </g>
    </g>
   </g>
   <g id="matplotlib.axis_2">
    <g id="ytick_1">
     <g id="line2d_5">
      <defs>
       <path id="ma3c4ab043e" d="M 0 0 
L -3.5 0 
" style="stroke: #000000; stroke-width: 0.8"/>
      </defs>
      <g>
       <use xlink:href="#ma3c4ab043e" x="35.304688" y="271.219267" style="stroke: #000000; stroke-width: 0.8"/>
      </g>
     </g>
     <g id="text_5">
      <!-- −15 -->
      <g transform="translate(7.2 275.018486) scale(0.1 -0.1)">
       <defs>
        <path id="DejaVuSans-35" d="M 691 4666 
L 3169 4666 
L 3169 4134 
L 1269 4134 
L 1269 2991 
Q 1406 3038 1543 3061 
Q 1681 3084 1819 3084 
Q 2600 3084 3056 2656 
Q 3513 2228 3513 1497 
Q 3513 744 3044 326 
Q 2575 -91 1722 -91 
Q 1428 -91 1123 -41 
Q 819 9 494 109 
L 494 744 
Q 775 591 1075 516 
Q 1375 441 1709 441 
Q 2250 441 2565 725 
Q 2881 1009 2881 1497 
Q 2881 1984 2565 2268 
Q 2250 2553 1709 2553 
Q 1456 2553 1204 2497 
Q 953 2441 691 2322 
L 691 4666 
z
" transform="scale(0.015625)"/>
       </defs>
       <use xlink:href="#DejaVuSans-2212"/>
       <use xlink:href="#DejaVuSans-31" x="83.789062"/>
       <use xlink:href="#DejaVuSans-35" x="147.412109"/>
      </g>
     </g>
    </g>
    <g id="ytick_2">
     <g id="line2d_6">
      <g>
       <use xlink:href="#ma3c4ab043e" x="35.304688" y="241.532898" style="stroke: #000000; stroke-width: 0.8"/>
      </g>
     </g>
     <g id="text_6">
      <!-- −10 -->
      <g transform="translate(7.2 245.332116) scale(0.1 -0.1)">
       <use xlink:href="#DejaVuSans-2212"/>
       <use xlink:href="#DejaVuSans-31" x="83.789062"/>
       <use xlink:href="#DejaVuSans-30" x="147.412109"/>
      </g>
     </g>
    </g>
    <g id="ytick_3">
     <g id="line2d_7">
      <g>
       <use xlink:href="#ma3c4ab043e" x="35.304688" y="211.846528" style="stroke: #000000; stroke-width: 0.8"/>
      </g>
     </g>
     <g id="text_7">
      <!-- −5 -->
      <g transform="translate(13.5625 215.645747) scale(0.1 -0.1)">
       <use xlink:href="#DejaVuSans-2212"/>
       <use xlink:href="#DejaVuSans-35" x="83.789062"/>
      </g>
     </g>
    </g>
    <g id="ytick_4">
     <g id="line2d_8">
      <g>
       <use xlink:href="#ma3c4ab043e" x="35.304688" y="182.160159" style="stroke: #000000; stroke-width: 0.8"/>
      </g>
     </g>
     <g id="text_8">
      <!-- 0 -->
      <g transform="translate(21.942187 185.959377) scale(0.1 -0.1)">
       <use xlink:href="#DejaVuSans-30"/>
      </g>
     </g>
    </g>
    <g id="ytick_5">
     <g id="line2d_9">
      <g>
       <use xlink:href="#ma3c4ab043e" x="35.304688" y="152.473789" style="stroke: #000000; stroke-width: 0.8"/>
      </g>
     </g>
     <g id="text_9">
      <!-- 5 -->
      <g transform="translate(21.942187 156.273008) scale(0.1 -0.1)">
       <use xlink:href="#DejaVuSans-35"/>
      </g>
     </g>
    </g>
    <g id="ytick_6">
     <g id="line2d_10">
      <g>
       <use xlink:href="#ma3c4ab043e" x="35.304688" y="122.78742" style="stroke: #000000; stroke-width: 0.8"/>
      </g>
     </g>
     <g id="text_10">
      <!-- 10 -->
      <g transform="translate(15.579687 126.586638) scale(0.1 -0.1)">
       <use xlink:href="#DejaVuSans-31"/>
       <use xlink:href="#DejaVuSans-30" x="63.623047"/>
      </g>
     </g>
    </g>
    <g id="ytick_7">
     <g id="line2d_11">
      <g>
       <use xlink:href="#ma3c4ab043e" x="35.304688" y="93.10105" style="stroke: #000000; stroke-width: 0.8"/>
      </g>
     </g>
     <g id="text_11">
      <!-- 15 -->
      <g transform="translate(15.579687 96.900269) scale(0.1 -0.1)">
       <use xlink:href="#DejaVuSans-31"/>
       <use xlink:href="#DejaVuSans-35" x="63.623047"/>
      </g>
     </g>
    </g>
    <g id="ytick_8">
     <g id="line2d_12">
      <g>
       <use xlink:href="#ma3c4ab043e" x="35.304688" y="63.414681" style="stroke: #000000; stroke-width: 0.8"/>
      </g>
     </g>
     <g id="text_12">
      <!-- 20 -->
      <g transform="translate(15.579687 67.213899) scale(0.1 -0.1)">
       <use xlink:href="#DejaVuSans-32"/>
       <use xlink:href="#DejaVuSans-30" x="63.623047"/>
      </g>
     </g>
    </g>
    <g id="ytick_9">
     <g id="line2d_13">
      <g>
       <use xlink:href="#ma3c4ab043e" x="35.304688" y="33.728311" style="stroke: #000000; stroke-width: 0.8"/>
      </g>
     </g>
     <g id="text_13">
      <!-- 25 -->
      <g transform="translate(15.579687 37.52753) scale(0.1 -0.1)">
       <use xlink:href="#DejaVuSans-32"/>
       <use xlink:href="#DejaVuSans-35" x="63.623047"/>
      </g>
     </g>
    </g>
   </g>
   <g id="patch_3">
    <path d="M 35.304688 273.312 
L 35.304688 7.2 
" style="fill: none; stroke: #000000; stroke-width: 0.8; stroke-linejoin: miter; stroke-linecap: square"/>
   </g>
   <g id="patch_4">
    <path d="M 392.424688 273.312 
L 392.424688 7.2 
" style="fill: none; stroke: #000000; stroke-width: 0.8; stroke-linejoin: miter; stroke-linecap: square"/>
   </g>
   <g id="patch_5">
    <path d="M 35.304688 273.312 
L 392.424688 273.312 
" style="fill: none; stroke: #000000; stroke-width: 0.8; stroke-linejoin: miter; stroke-linecap: square"/>
   </g>
   <g id="patch_6">
    <path d="M 35.304688 7.2 
L 392.424688 7.2 
" style="fill: none; stroke: #000000; stroke-width: 0.8; stroke-linejoin: miter; stroke-linecap: square"/>
   </g>
  </g>
 </g>
 <defs>
  <clipPath id="pda416667be">
   <rect x="35.304688" y="7.2" width="357.12" height="266.112"/>
  </clipPath>
 </defs>
</svg>
