<?xml version="1.0" encoding="utf-8" standalone="no"?>
<!DOCTYPE svg PUBLIC "-//W3C//DTD SVG 1.1//EN"
  "http://www.w3.org/Graphics/SVG/1.1/DTD/svg11.dtd">
<svg xmlns:xlink="http://www.w3.org/1999/xlink" width="399.624687pt" height="297.190125pt" viewBox="0 0 399.624687 297.190125" xmlns="http://www.w3.org/2000/svg" version="1.1">
 <metadata>
  <rdf:RDF xmlns:dc="http://purl.org/dc/elements/1.1/" xmlns:cc="http://creativecommons.org/ns#" xmlns:rdf="http://www.w3.org/1999/02/22-rdf-syntax-ns#">
   <cc:Work>
    <dc:type rdf:resource="http://purl.org/dc/dcmitype/StillImage"/>
    <dc:date>2023-11-13T07:12:37.709110</dc:date>
    <dc:format>image/svg+xml</dc:format>
    <dc:creator>
     <cc:Agent>
      <dc:title>Matplotlib v3.8.0, https://matplotlib.org/</dc:title>
     </cc:Agent>
    </dc:creator>
   </cc:Work>
  </rdf:RDF>
 </metadata>
 <defs>
  <style type="text/css">*{stroke-linejoin: round; stroke-linecap: butt}</style>
 </defs>
 <g id="figure_1">
  <g id="patch_1">
   <path d="M 0 297.190125 
L 399.624687 297.190125 
L 399.624687 0 
L 0 0 
z
" style="fill: #ffffff"/>
  </g>
  <g id="axes_1">
   <g id="patch_2">
    <path d="M 35.304688 273.312 
L 392.424688 273.312 
L 392.424688 7.2 
L 35.304688 7.2 
z
" style="fill: #ffffff"/>
   </g>
   <g id="PathCollection_1">
    <defs>
     <path id="m8079228796" d="M 0 1.5 
C 0.397805 1.5 0.77937 1.341951 1.06066 1.06066 
C 1.341951 0.77937 1.5 0.397805 1.5 0 
C 1.5 -0.397805 1.341951 -0.77937 1.06066 -1.06066 
C 0.77937 -1.341951 0.397805 -1.5 0 -1.5 
C -0.397805 -1.5 -0.77937 -1.341951 -1.06066 -1.06066 
C -1.341951 -0.77937 -1.5 -0.397805 -1.5 0 
C -1.5 0.397805 -1.341951 0.77937 -1.06066 1.06066 
C -0.77937 1.341951 -0.397805 1.5 0 1.5 
z
" style="stroke: #ff8c00"/>
    </defs>
    <g clip-path="url(#p35edc8a211)">
     <use xlink:href="#m8079228796" x="293.408202" y="140.200334" style="fill: #ff8c00; stroke: #ff8c00"/>
     <use xlink:href="#m8079228796" x="204.065885" y="118.748536" style="fill: #ff8c00; stroke: #ff8c00"/>
     <use xlink:href="#m8079228796" x="229.360476" y="188.009643" style="fill: #ff8c00; stroke: #ff8c00"/>
     <use xlink:href="#m8079228796" x="249.258123" y="154.163488" style="fill: #ff8c00; stroke: #ff8c00"/>
     <use xlink:href="#m8079228796" x="270.429033" y="180.358627" style="fill: #ff8c00; stroke: #ff8c00"/>
     <use xlink:href="#m8079228796" x="255.415913" y="197.941285" style="fill: #ff8c00; stroke: #ff8c00"/>
     <use xlink:href="#m8079228796" x="277.171848" y="201.609502" style="fill: #ff8c00; stroke: #ff8c00"/>
     <use xlink:href="#m8079228796" x="269.171792" y="213.481119" style="fill: #ff8c00; stroke: #ff8c00"/>
     <use xlink:href="#m8079228796" x="265.416244" y="208.481587" style="fill: #ff8c00; stroke: #ff8c00"/>
     <use xlink:href="#m8079228796" x="313.478162" y="149.73349" style="fill: #ff8c00; stroke: #ff8c00"/>
     <use xlink:href="#m8079228796" x="238.528606" y="199.922784" style="fill: #ff8c00; stroke: #ff8c00"/>
    </g>
   </g>
   <g id="PathCollection_2">
    <defs>
     <path id="m30f1ce0777" d="M 0 1.5 
C 0.397805 1.5 0.77937 1.341951 1.06066 1.06066 
C 1.341951 0.77937 1.5 0.397805 1.5 0 
C 1.5 -0.397805 1.341951 -0.77937 1.06066 -1.06066 
C 0.77937 -1.341951 0.397805 -1.5 0 -1.5 
C -0.397805 -1.5 -0.77937 -1.341951 -1.06066 -1.06066 
C -1.341951 -0.77937 -1.5 -0.397805 -1.5 0 
C -1.5 0.397805 -1.341951 0.77937 -1.06066 1.06066 
C -0.77937 1.341951 -0.397805 1.5 0 1.5 
z
" style="stroke: #006400"/>
    </defs>
    <g clip-path="url(#p35edc8a211)">
     <use xlink:href="#m30f1ce0777" x="349.635227" y="100.904144" style="fill: #006400; stroke: #006400"/>
     <use xlink:href="#m30f1ce0777" x="260.512797" y="109.29418" style="fill: #006400; stroke: #006400"/>
     <use xlink:href="#m30f1ce0777" x="344.566664" y="104.353352" style="fill: #006400; stroke: #006400"/>
     <use xlink:href="#m30f1ce0777" x="283.803067" y="147.664118" style="fill: #006400; stroke: #006400"/>
     <use xlink:href="#m30f1ce0777" x="297.895156" y="59.487702" style="fill: #006400; stroke: #006400"/>
     <use xlink:href="#m30f1ce0777" x="248.172104" y="204.04472" style="fill: #006400; stroke: #006400"/>
     <use xlink:href="#m30f1ce0777" x="317.888777" y="91.311265" style="fill: #006400; stroke: #006400"/>
     <use xlink:href="#m30f1ce0777" x="376.19196" y="21.497509" style="fill: #006400; stroke: #006400"/>
     <use xlink:href="#m30f1ce0777" x="373.757973" y="43.813094" style="fill: #006400; stroke: #006400"/>
     <use xlink:href="#m30f1ce0777" x="344.656183" y="53.147747" style="fill: #006400; stroke: #006400"/>
     <use xlink:href="#m30f1ce0777" x="323.462123" y="93.727999" style="fill: #006400; stroke: #006400"/>
     <use xlink:href="#m30f1ce0777" x="313.376595" y="103.136411" style="fill: #006400; stroke: #006400"/>
     <use xlink:href="#m30f1ce0777" x="207.970693" y="163.38881" style="fill: #006400; stroke: #006400"/>
     <use xlink:href="#m30f1ce0777" x="259.347292" y="140.925119" style="fill: #006400; stroke: #006400"/>
     <use xlink:href="#m30f1ce0777" x="260.241565" y="152.334444" style="fill: #006400; stroke: #006400"/>
    </g>
   </g>
   <g id="PathCollection_3">
    <defs>
     <path id="mbe6ee1620c" d="M 0 1.5 
C 0.397805 1.5 0.77937 1.341951 1.06066 1.06066 
C 1.341951 0.77937 1.5 0.397805 1.5 0 
C 1.5 -0.397805 1.341951 -0.77937 1.06066 -1.06066 
C 0.77937 -1.341951 0.397805 -1.5 0 -1.5 
C -0.397805 -1.5 -0.77937 -1.341951 -1.06066 -1.06066 
C -1.341951 -0.77937 -1.5 -0.397805 -1.5 0 
C -1.5 0.397805 -1.341951 0.77937 -1.06066 1.06066 
C -0.77937 1.341951 -0.397805 1.5 0 1.5 
z
" style="stroke: #2f4f4f"/>
    </defs>
    <g clip-path="url(#p35edc8a211)">
     <use xlink:href="#mbe6ee1620c" x="188.36451" y="248.511681" style="fill: #2f4f4f; stroke: #2f4f4f"/>
     <use xlink:href="#mbe6ee1620c" x="236.967471" y="190.168671" style="fill: #2f4f4f; stroke: #2f4f4f"/>
     <use xlink:href="#mbe6ee1620c" x="214.667073" y="241.549847" style="fill: #2f4f4f; stroke: #2f4f4f"/>
     <use xlink:href="#mbe6ee1620c" x="177.515495" y="207.564751" style="fill: #2f4f4f; stroke: #2f4f4f"/>
     <use xlink:href="#mbe6ee1620c" x="204.482032" y="232.094314" style="fill: #2f4f4f; stroke: #2f4f4f"/>
     <use xlink:href="#mbe6ee1620c" x="218.3796" y="198.207294" style="fill: #2f4f4f; stroke: #2f4f4f"/>
     <use xlink:href="#mbe6ee1620c" x="250.1265" y="201.306867" style="fill: #2f4f4f; stroke: #2f4f4f"/>
     <use xlink:href="#mbe6ee1620c" x="170.660425" y="192.157503" style="fill: #2f4f4f; stroke: #2f4f4f"/>
     <use xlink:href="#mbe6ee1620c" x="182.830805" y="99.376233" style="fill: #2f4f4f; stroke: #2f4f4f"/>
     <use xlink:href="#mbe6ee1620c" x="210.680836" y="225.971359" style="fill: #2f4f4f; stroke: #2f4f4f"/>
     <use xlink:href="#mbe6ee1620c" x="165.366759" y="172.615905" style="fill: #2f4f4f; stroke: #2f4f4f"/>
     <use xlink:href="#mbe6ee1620c" x="272.942096" y="168.120025" style="fill: #2f4f4f; stroke: #2f4f4f"/>
    </g>
   </g>
   <g id="PathCollection_4">
    <defs>
     <path id="m0be0c12773" d="M 0 1.5 
C 0.397805 1.5 0.77937 1.341951 1.06066 1.06066 
C 1.341951 0.77937 1.5 0.397805 1.5 0 
C 1.5 -0.397805 1.341951 -0.77937 1.06066 -1.06066 
C 0.77937 -1.341951 0.397805 -1.5 0 -1.5 
C -0.397805 -1.5 -0.77937 -1.341951 -1.06066 -1.06066 
C -1.341951 -0.77937 -1.5 -0.397805 -1.5 0 
C -1.5 0.397805 -1.341951 0.77937 -1.06066 1.06066 
C -0.77937 1.341951 -0.397805 1.5 0 1.5 
z
" style="stroke: #00bfff"/>
    </defs>
    <g clip-path="url(#p35edc8a211)">
     <use xlink:href="#m0be0c12773" x="202.914147" y="171.864191" style="fill: #00bfff; stroke: #00bfff"/>
     <use xlink:href="#m0be0c12773" x="85.985129" y="104.214547" style="fill: #00bfff; stroke: #00bfff"/>
     <use xlink:href="#m0be0c12773" x="178.966935" y="161.363934" style="fill: #00bfff; stroke: #00bfff"/>
     <use xlink:href="#m0be0c12773" x="173.273329" y="170.180274" style="fill: #00bfff; stroke: #00bfff"/>
     <use xlink:href="#m0be0c12773" x="199.687587" y="204.547285" style="fill: #00bfff; stroke: #00bfff"/>
     <use xlink:href="#m0be0c12773" x="173.261881" y="183.88985" style="fill: #00bfff; stroke: #00bfff"/>
     <use xlink:href="#m0be0c12773" x="177.438611" y="178.313779" style="fill: #00bfff; stroke: #00bfff"/>
     <use xlink:href="#m0be0c12773" x="177.638607" y="215.367271" style="fill: #00bfff; stroke: #00bfff"/>
     <use xlink:href="#m0be0c12773" x="179.648164" y="233.268737" style="fill: #00bfff; stroke: #00bfff"/>
     <use xlink:href="#m0be0c12773" x="219.735641" y="203.44441" style="fill: #00bfff; stroke: #00bfff"/>
     <use xlink:href="#m0be0c12773" x="153.733682" y="184.796913" style="fill: #00bfff; stroke: #00bfff"/>
     <use xlink:href="#m0be0c12773" x="150.233964" y="160.156614" style="fill: #00bfff; stroke: #00bfff"/>
     <use xlink:href="#m0be0c12773" x="208.861508" y="139.972495" style="fill: #00bfff; stroke: #00bfff"/>
     <use xlink:href="#m0be0c12773" x="198.605886" y="133.295732" style="fill: #00bfff; stroke: #00bfff"/>
     <use xlink:href="#m0be0c12773" x="190.629954" y="167.964167" style="fill: #00bfff; stroke: #00bfff"/>
     <use xlink:href="#m0be0c12773" x="150.536313" y="169.979786" style="fill: #00bfff; stroke: #00bfff"/>
     <use xlink:href="#m0be0c12773" x="173.754214" y="189.802454" style="fill: #00bfff; stroke: #00bfff"/>
     <use xlink:href="#m0be0c12773" x="183.135305" y="231.758509" style="fill: #00bfff; stroke: #00bfff"/>
     <use xlink:href="#m0be0c12773" x="166.941455" y="188.957431" style="fill: #00bfff; stroke: #00bfff"/>
     <use xlink:href="#m0be0c12773" x="207.202199" y="207.949423" style="fill: #00bfff; stroke: #00bfff"/>
    </g>
   </g>
   <g id="PathCollection_5">
    <defs>
     <path id="me0a58de522" d="M 0 1.5 
C 0.397805 1.5 0.77937 1.341951 1.06066 1.06066 
C 1.341951 0.77937 1.5 0.397805 1.5 0 
C 1.5 -0.397805 1.341951 -0.77937 1.06066 -1.06066 
C 0.77937 -1.341951 0.397805 -1.5 0 -1.5 
C -0.397805 -1.5 -0.77937 -1.341951 -1.06066 -1.06066 
C -1.341951 -0.77937 -1.5 -0.397805 -1.5 0 
C -1.5 0.397805 -1.341951 0.77937 -1.06066 1.06066 
C -0.77937 1.341951 -0.397805 1.5 0 1.5 
z
" style="stroke: #ffff00"/>
    </defs>
    <g clip-path="url(#p35edc8a211)">
     <use xlink:href="#me0a58de522" x="205.307612" y="188.325733" style="fill: #ffff00; stroke: #ffff00"/>
     <use xlink:href="#me0a58de522" x="210.557819" y="244.40732" style="fill: #ffff00; stroke: #ffff00"/>
     <use xlink:href="#me0a58de522" x="227.572818" y="169.402904" style="fill: #ffff00; stroke: #ffff00"/>
     <use xlink:href="#me0a58de522" x="236.870822" y="247.612338" style="fill: #ffff00; stroke: #ffff00"/>
     <use xlink:href="#me0a58de522" x="201.082892" y="261.216" style="fill: #ffff00; stroke: #ffff00"/>
     <use xlink:href="#me0a58de522" x="236.905111" y="234.105828" style="fill: #ffff00; stroke: #ffff00"/>
     <use xlink:href="#me0a58de522" x="204.237578" y="249.68604" style="fill: #ffff00; stroke: #ffff00"/>
     <use xlink:href="#me0a58de522" x="177.908432" y="232.469213" style="fill: #ffff00; stroke: #ffff00"/>
     <use xlink:href="#me0a58de522" x="171.721068" y="189.077407" style="fill: #ffff00; stroke: #ffff00"/>
     <use xlink:href="#me0a58de522" x="202.496128" y="179.896093" style="fill: #ffff00; stroke: #ffff00"/>
     <use xlink:href="#me0a58de522" x="206.150622" y="244.66046" style="fill: #ffff00; stroke: #ffff00"/>
     <use xlink:href="#me0a58de522" x="175.073857" y="213.885876" style="fill: #ffff00; stroke: #ffff00"/>
     <use xlink:href="#me0a58de522" x="206.339745" y="231.04333" style="fill: #ffff00; stroke: #ffff00"/>
     <use xlink:href="#me0a58de522" x="183.260183" y="217.214017" style="fill: #ffff00; stroke: #ffff00"/>
     <use xlink:href="#me0a58de522" x="235.16519" y="209.60279" style="fill: #ffff00; stroke: #ffff00"/>
     <use xlink:href="#me0a58de522" x="225.868995" y="210.743988" style="fill: #ffff00; stroke: #ffff00"/>
     <use xlink:href="#me0a58de522" x="200.493666" y="199.276916" style="fill: #ffff00; stroke: #ffff00"/>
    </g>
   </g>
   <g id="PathCollection_6">
    <defs>
     <path id="ma431bb6415" d="M 0 1.5 
C 0.397805 1.5 0.77937 1.341951 1.06066 1.06066 
C 1.341951 0.77937 1.5 0.397805 1.5 0 
C 1.5 -0.397805 1.341951 -0.77937 1.06066 -1.06066 
C 0.77937 -1.341951 0.397805 -1.5 0 -1.5 
C -0.397805 -1.5 -0.77937 -1.341951 -1.06066 -1.06066 
C -1.341951 -0.77937 -1.5 -0.397805 -1.5 0 
C -1.5 0.397805 -1.341951 0.77937 -1.06066 1.06066 
C -0.77937 1.341951 -0.397805 1.5 0 1.5 
z
" style="stroke: #00ffff"/>
    </defs>
    <g clip-path="url(#p35edc8a211)">
     <use xlink:href="#ma431bb6415" x="200.288665" y="250.413538" style="fill: #00ffff; stroke: #00ffff"/>
     <use xlink:href="#ma431bb6415" x="210.989268" y="215.482409" style="fill: #00ffff; stroke: #00ffff"/>
     <use xlink:href="#ma431bb6415" x="184.00079" y="208.14152" style="fill: #00ffff; stroke: #00ffff"/>
     <use xlink:href="#ma431bb6415" x="213.968487" y="248.342652" style="fill: #00ffff; stroke: #00ffff"/>
     <use xlink:href="#ma431bb6415" x="180.642112" y="244.364648" style="fill: #00ffff; stroke: #00ffff"/>
     <use xlink:href="#ma431bb6415" x="190.699403" y="231.191691" style="fill: #00ffff; stroke: #00ffff"/>
     <use xlink:href="#ma431bb6415" x="204.61965" y="235.050176" style="fill: #00ffff; stroke: #00ffff"/>
     <use xlink:href="#ma431bb6415" x="189.799154" y="234.850625" style="fill: #00ffff; stroke: #00ffff"/>
     <use xlink:href="#ma431bb6415" x="201.279898" y="230.574411" style="fill: #00ffff; stroke: #00ffff"/>
    </g>
   </g>
   <g id="PathCollection_7">
    <defs>
     <path id="m036d607361" d="M 0 1.5 
C 0.397805 1.5 0.77937 1.341951 1.06066 1.06066 
C 1.341951 0.77937 1.5 0.397805 1.5 0 
C 1.5 -0.397805 1.341951 -0.77937 1.06066 -1.06066 
C 0.77937 -1.341951 0.397805 -1.5 0 -1.5 
C -0.397805 -1.5 -0.77937 -1.341951 -1.06066 -1.06066 
C -1.341951 -0.77937 -1.5 -0.397805 -1.5 0 
C -1.5 0.397805 -1.341951 0.77937 -1.06066 1.06066 
C -0.77937 1.341951 -0.397805 1.5 0 1.5 
z
" style="stroke: #0000ff"/>
    </defs>
    <g clip-path="url(#p35edc8a211)">
     <use xlink:href="#m036d607361" x="207.656793" y="162.14651" style="fill: #0000ff; stroke: #0000ff"/>
     <use xlink:href="#m036d607361" x="159.778227" y="173.272535" style="fill: #0000ff; stroke: #0000ff"/>
     <use xlink:href="#m036d607361" x="191.271152" y="194.886708" style="fill: #0000ff; stroke: #0000ff"/>
     <use xlink:href="#m036d607361" x="158.15978" y="189.209273" style="fill: #0000ff; stroke: #0000ff"/>
     <use xlink:href="#m036d607361" x="192.428256" y="201.512723" style="fill: #0000ff; stroke: #0000ff"/>
     <use xlink:href="#m036d607361" x="164.605684" y="198.798746" style="fill: #0000ff; stroke: #0000ff"/>
     <use xlink:href="#m036d607361" x="159.323617" y="186.492568" style="fill: #0000ff; stroke: #0000ff"/>
     <use xlink:href="#m036d607361" x="174.152683" y="233.613211" style="fill: #0000ff; stroke: #0000ff"/>
     <use xlink:href="#m036d607361" x="206.191329" y="215.880266" style="fill: #0000ff; stroke: #0000ff"/>
     <use xlink:href="#m036d607361" x="180.191526" y="248.858735" style="fill: #0000ff; stroke: #0000ff"/>
     <use xlink:href="#m036d607361" x="153.66216" y="186.456713" style="fill: #0000ff; stroke: #0000ff"/>
     <use xlink:href="#m036d607361" x="247.092837" y="235.428146" style="fill: #0000ff; stroke: #0000ff"/>
     <use xlink:href="#m036d607361" x="203.987763" y="200.825653" style="fill: #0000ff; stroke: #0000ff"/>
     <use xlink:href="#m036d607361" x="184.372783" y="215.533706" style="fill: #0000ff; stroke: #0000ff"/>
     <use xlink:href="#m036d607361" x="232.398067" y="161.856158" style="fill: #0000ff; stroke: #0000ff"/>
     <use xlink:href="#m036d607361" x="223.429711" y="136.698079" style="fill: #0000ff; stroke: #0000ff"/>
    </g>
   </g>
   <g id="PathCollection_8">
    <defs>
     <path id="m12c83ed992" d="M 0 1.5 
C 0.397805 1.5 0.77937 1.341951 1.06066 1.06066 
C 1.341951 0.77937 1.5 0.397805 1.5 0 
C 1.5 -0.397805 1.341951 -0.77937 1.06066 -1.06066 
C 0.77937 -1.341951 0.397805 -1.5 0 -1.5 
C -0.397805 -1.5 -0.77937 -1.341951 -1.06066 -1.06066 
C -1.341951 -0.77937 -1.5 -0.397805 -1.5 0 
C -1.5 0.397805 -1.341951 0.77937 -1.06066 1.06066 
C -0.77937 1.341951 -0.397805 1.5 0 1.5 
z
" style="stroke: #dc143c"/>
    </defs>
    <g clip-path="url(#p35edc8a211)">
     <use xlink:href="#m12c83ed992" x="262.416271" y="224.613898" style="fill: #dc143c; stroke: #dc143c"/>
     <use xlink:href="#m12c83ed992" x="279.677473" y="193.622973" style="fill: #dc143c; stroke: #dc143c"/>
     <use xlink:href="#m12c83ed992" x="197.283225" y="203.395902" style="fill: #dc143c; stroke: #dc143c"/>
     <use xlink:href="#m12c83ed992" x="301.082971" y="206.352174" style="fill: #dc143c; stroke: #dc143c"/>
     <use xlink:href="#m12c83ed992" x="258.115006" y="206.440948" style="fill: #dc143c; stroke: #dc143c"/>
     <use xlink:href="#m12c83ed992" x="262.544163" y="185.61081" style="fill: #dc143c; stroke: #dc143c"/>
     <use xlink:href="#m12c83ed992" x="312.314334" y="192.112541" style="fill: #dc143c; stroke: #dc143c"/>
     <use xlink:href="#m12c83ed992" x="266.835841" y="219.845383" style="fill: #dc143c; stroke: #dc143c"/>
     <use xlink:href="#m12c83ed992" x="257.567967" y="192.018531" style="fill: #dc143c; stroke: #dc143c"/>
     <use xlink:href="#m12c83ed992" x="276.034078" y="205.173063" style="fill: #dc143c; stroke: #dc143c"/>
     <use xlink:href="#m12c83ed992" x="280.206156" y="193.286614" style="fill: #dc143c; stroke: #dc143c"/>
     <use xlink:href="#m12c83ed992" x="251.01528" y="182.734865" style="fill: #dc143c; stroke: #dc143c"/>
     <use xlink:href="#m12c83ed992" x="289.877205" y="156.73303" style="fill: #dc143c; stroke: #dc143c"/>
     <use xlink:href="#m12c83ed992" x="265.418443" y="209.2268" style="fill: #dc143c; stroke: #dc143c"/>
     <use xlink:href="#m12c83ed992" x="263.385132" y="207.021656" style="fill: #dc143c; stroke: #dc143c"/>
     <use xlink:href="#m12c83ed992" x="283.964575" y="214.708729" style="fill: #dc143c; stroke: #dc143c"/>
     <use xlink:href="#m12c83ed992" x="271.394133" y="198.445864" style="fill: #dc143c; stroke: #dc143c"/>
    </g>
   </g>
   <g id="PathCollection_9">
    <defs>
     <path id="mc5ebad93cb" d="M 0 1.5 
C 0.397805 1.5 0.77937 1.341951 1.06066 1.06066 
C 1.341951 0.77937 1.5 0.397805 1.5 0 
C 1.5 -0.397805 1.341951 -0.77937 1.06066 -1.06066 
C 0.77937 -1.341951 0.397805 -1.5 0 -1.5 
C -0.397805 -1.5 -0.77937 -1.341951 -1.06066 -1.06066 
C -1.341951 -0.77937 -1.5 -0.397805 -1.5 0 
C -1.5 0.397805 -1.341951 0.77937 -1.06066 1.06066 
C -0.77937 1.341951 -0.397805 1.5 0 1.5 
z
" style="stroke: #ffe4c4"/>
    </defs>
    <g clip-path="url(#p35edc8a211)">
     <use xlink:href="#mc5ebad93cb" x="345.332161" y="95.716826" style="fill: #ffe4c4; stroke: #ffe4c4"/>
     <use xlink:href="#mc5ebad93cb" x="212.176451" y="120.494884" style="fill: #ffe4c4; stroke: #ffe4c4"/>
     <use xlink:href="#mc5ebad93cb" x="275.028956" y="53.189733" style="fill: #ffe4c4; stroke: #ffe4c4"/>
     <use xlink:href="#mc5ebad93cb" x="236.883745" y="154.843827" style="fill: #ffe4c4; stroke: #ffe4c4"/>
     <use xlink:href="#mc5ebad93cb" x="267.345794" y="129.619641" style="fill: #ffe4c4; stroke: #ffe4c4"/>
     <use xlink:href="#mc5ebad93cb" x="333.756509" y="136.638667" style="fill: #ffe4c4; stroke: #ffe4c4"/>
     <use xlink:href="#mc5ebad93cb" x="241.145642" y="136.674186" style="fill: #ffe4c4; stroke: #ffe4c4"/>
     <use xlink:href="#mc5ebad93cb" x="280.743365" y="175.058324" style="fill: #ffe4c4; stroke: #ffe4c4"/>
     <use xlink:href="#mc5ebad93cb" x="247.721842" y="153.316669" style="fill: #ffe4c4; stroke: #ffe4c4"/>
     <use xlink:href="#mc5ebad93cb" x="206.295834" y="111.58097" style="fill: #ffe4c4; stroke: #ffe4c4"/>
     <use xlink:href="#mc5ebad93cb" x="343.675782" y="77.320615" style="fill: #ffe4c4; stroke: #ffe4c4"/>
    </g>
   </g>
   <g id="PathCollection_10">
    <defs>
     <path id="me52838904a" d="M -2.99994 2.99994 
L 3.00006 2.99994 
L 3.00006 -3.00006 
L -2.99994 -3.00006 
z
" style="stroke: #000000"/>
    </defs>
    <g clip-path="url(#p35edc8a211)">
     <use xlink:href="#me52838904a" x="147.293996" y="218.234359" style="stroke: #000000"/>
     <use xlink:href="#me52838904a" x="141.585135" y="138.45141" style="stroke: #000000"/>
     <use xlink:href="#me52838904a" x="171.75356" y="201.788985" style="stroke: #000000"/>
     <use xlink:href="#me52838904a" x="190.979243" y="176.831355" style="stroke: #000000"/>
     <use xlink:href="#me52838904a" x="124.131944" y="125.96348" style="stroke: #000000"/>
     <use xlink:href="#me52838904a" x="166.300487" y="167.277823" style="stroke: #000000"/>
     <use xlink:href="#me52838904a" x="134.698654" y="198.595929" style="stroke: #000000"/>
     <use xlink:href="#me52838904a" x="115.844757" y="139.986888" style="stroke: #000000"/>
     <use xlink:href="#me52838904a" x="143.832581" y="193.308824" style="stroke: #000000"/>
     <use xlink:href="#me52838904a" x="107.534466" y="144.7773" style="stroke: #000000"/>
     <use xlink:href="#me52838904a" x="204.298003" y="225.264145" style="stroke: #000000"/>
     <use xlink:href="#me52838904a" x="194.77892" y="196.361465" style="stroke: #000000"/>
     <use xlink:href="#me52838904a" x="191.674469" y="227.368868" style="stroke: #000000"/>
     <use xlink:href="#me52838904a" x="101.08635" y="129.418711" style="stroke: #000000"/>
     <use xlink:href="#me52838904a" x="159.47343" y="148.860487" style="stroke: #000000"/>
     <use xlink:href="#me52838904a" x="164.704319" y="160.190143" style="stroke: #000000"/>
     <use xlink:href="#me52838904a" x="171.167959" y="209.092726" style="stroke: #000000"/>
     <use xlink:href="#me52838904a" x="120.27118" y="163.927869" style="stroke: #000000"/>
     <use xlink:href="#me52838904a" x="112.458767" y="151.244166" style="stroke: #000000"/>
     <use xlink:href="#me52838904a" x="104.479695" y="147.406266" style="stroke: #000000"/>
     <use xlink:href="#me52838904a" x="172.485982" y="158.952055" style="stroke: #000000"/>
     <use xlink:href="#me52838904a" x="129.643151" y="197.309651" style="stroke: #000000"/>
     <use xlink:href="#me52838904a" x="146.295759" y="172.59356" style="stroke: #000000"/>
     <use xlink:href="#me52838904a" x="209.010242" y="224.15679" style="stroke: #000000"/>
     <use xlink:href="#me52838904a" x="123.265291" y="86.038483" style="stroke: #000000"/>
     <use xlink:href="#me52838904a" x="168.002464" y="170.124008" style="stroke: #000000"/>
     <use xlink:href="#me52838904a" x="120.563215" y="168.255909" style="stroke: #000000"/>
     <use xlink:href="#me52838904a" x="204.041837" y="154.942733" style="stroke: #000000"/>
     <use xlink:href="#me52838904a" x="99.839944" y="162.747149" style="stroke: #000000"/>
     <use xlink:href="#me52838904a" x="92.225051" y="169.014151" style="stroke: #000000"/>
     <use xlink:href="#me52838904a" x="142.73257" y="101.07322" style="stroke: #000000"/>
     <use xlink:href="#me52838904a" x="137.582506" y="167.437278" style="stroke: #000000"/>
     <use xlink:href="#me52838904a" x="155.069495" y="162.023157" style="stroke: #000000"/>
     <use xlink:href="#me52838904a" x="146.510967" y="191.954854" style="stroke: #000000"/>
     <use xlink:href="#me52838904a" x="197.256127" y="192.794547" style="stroke: #000000"/>
     <use xlink:href="#me52838904a" x="189.559045" y="236.847813" style="stroke: #000000"/>
     <use xlink:href="#me52838904a" x="99.963024" y="156.783289" style="stroke: #000000"/>
     <use xlink:href="#me52838904a" x="167.424602" y="158.30219" style="stroke: #000000"/>
     <use xlink:href="#me52838904a" x="152.466361" y="209.705942" style="stroke: #000000"/>
     <use xlink:href="#me52838904a" x="114.317284" y="149.211161" style="stroke: #000000"/>
     <use xlink:href="#me52838904a" x="186.714498" y="229.060608" style="stroke: #000000"/>
     <use xlink:href="#me52838904a" x="207.242494" y="173.96402" style="stroke: #000000"/>
     <use xlink:href="#me52838904a" x="112.038472" y="91.638846" style="stroke: #000000"/>
     <use xlink:href="#me52838904a" x="178.220389" y="175.581494" style="stroke: #000000"/>
     <use xlink:href="#me52838904a" x="118.367074" y="152.995298" style="stroke: #000000"/>
     <use xlink:href="#me52838904a" x="106.393055" y="164.38858" style="stroke: #000000"/>
     <use xlink:href="#me52838904a" x="177.809058" y="208.341876" style="stroke: #000000"/>
     <use xlink:href="#me52838904a" x="131.592012" y="142.446213" style="stroke: #000000"/>
     <use xlink:href="#me52838904a" x="163.037062" y="224.366175" style="stroke: #000000"/>
     <use xlink:href="#me52838904a" x="152.328994" y="153.353561" style="stroke: #000000"/>
     <use xlink:href="#me52838904a" x="152.827808" y="188.285296" style="stroke: #000000"/>
     <use xlink:href="#me52838904a" x="193.539333" y="192.832336" style="stroke: #000000"/>
     <use xlink:href="#me52838904a" x="156.305778" y="169.313243" style="stroke: #000000"/>
     <use xlink:href="#me52838904a" x="153.957481" y="207.966879" style="stroke: #000000"/>
     <use xlink:href="#me52838904a" x="171.00782" y="207.606016" style="stroke: #000000"/>
     <use xlink:href="#me52838904a" x="200.430894" y="209.381118" style="stroke: #000000"/>
     <use xlink:href="#me52838904a" x="180.300689" y="136.118361" style="stroke: #000000"/>
     <use xlink:href="#me52838904a" x="186.744355" y="134.311407" style="stroke: #000000"/>
     <use xlink:href="#me52838904a" x="144.649985" y="159.384577" style="stroke: #000000"/>
     <use xlink:href="#me52838904a" x="156.985351" y="207.185911" style="stroke: #000000"/>
     <use xlink:href="#me52838904a" x="122.802153" y="176.752277" style="stroke: #000000"/>
     <use xlink:href="#me52838904a" x="177.008147" y="221.767009" style="stroke: #000000"/>
     <use xlink:href="#me52838904a" x="158.195996" y="194.44504" style="stroke: #000000"/>
     <use xlink:href="#me52838904a" x="195.943272" y="172.846654" style="stroke: #000000"/>
    </g>
   </g>
   <g id="PathCollection_11">
    <defs>
     <path id="m3fcde82ec3" d="M -3 -0 
L 3 3 
L 3 -3 
z
" style="stroke: #ff8c00"/>
    </defs>
    <g clip-path="url(#p35edc8a211)">
     <use xlink:href="#m3fcde82ec3" x="201.195437" y="217.843447" style="fill: #ff8c00; stroke: #ff8c00"/>
     <use xlink:href="#m3fcde82ec3" x="105.146307" y="128.143305" style="fill: #ff8c00; stroke: #ff8c00"/>
     <use xlink:href="#m3fcde82ec3" x="210.006366" y="228.192884" style="fill: #ff8c00; stroke: #ff8c00"/>
     <use xlink:href="#m3fcde82ec3" x="121.552903" y="180.876201" style="fill: #ff8c00; stroke: #ff8c00"/>
     <use xlink:href="#m3fcde82ec3" x="150.910849" y="171.656459" style="fill: #ff8c00; stroke: #ff8c00"/>
     <use xlink:href="#m3fcde82ec3" x="165.908862" y="197.171624" style="fill: #ff8c00; stroke: #ff8c00"/>
     <use xlink:href="#m3fcde82ec3" x="178.444154" y="229.06109" style="fill: #ff8c00; stroke: #ff8c00"/>
     <use xlink:href="#m3fcde82ec3" x="199.441862" y="224.140094" style="fill: #ff8c00; stroke: #ff8c00"/>
     <use xlink:href="#m3fcde82ec3" x="101.580035" y="113.021574" style="fill: #ff8c00; stroke: #ff8c00"/>
     <use xlink:href="#m3fcde82ec3" x="157.154573" y="225.140748" style="fill: #ff8c00; stroke: #ff8c00"/>
     <use xlink:href="#m3fcde82ec3" x="119.148112" y="119.882181" style="fill: #ff8c00; stroke: #ff8c00"/>
     <use xlink:href="#m3fcde82ec3" x="181.992963" y="197.785654" style="fill: #ff8c00; stroke: #ff8c00"/>
     <use xlink:href="#m3fcde82ec3" x="188.348645" y="218.375792" style="fill: #ff8c00; stroke: #ff8c00"/>
     <use xlink:href="#m3fcde82ec3" x="184.731431" y="203.953749" style="fill: #ff8c00; stroke: #ff8c00"/>
     <use xlink:href="#m3fcde82ec3" x="195.252916" y="215.559675" style="fill: #ff8c00; stroke: #ff8c00"/>
     <use xlink:href="#m3fcde82ec3" x="175.543291" y="204.541803" style="fill: #ff8c00; stroke: #ff8c00"/>
     <use xlink:href="#m3fcde82ec3" x="105.092597" y="152.053076" style="fill: #ff8c00; stroke: #ff8c00"/>
     <use xlink:href="#m3fcde82ec3" x="203.485495" y="208.035253" style="fill: #ff8c00; stroke: #ff8c00"/>
     <use xlink:href="#m3fcde82ec3" x="156.916093" y="208.067229" style="fill: #ff8c00; stroke: #ff8c00"/>
     <use xlink:href="#m3fcde82ec3" x="105.342445" y="150.462392" style="fill: #ff8c00; stroke: #ff8c00"/>
     <use xlink:href="#m3fcde82ec3" x="167.329918" y="200.836064" style="fill: #ff8c00; stroke: #ff8c00"/>
     <use xlink:href="#m3fcde82ec3" x="178.059097" y="211.172859" style="fill: #ff8c00; stroke: #ff8c00"/>
     <use xlink:href="#m3fcde82ec3" x="184.116755" y="230.94137" style="fill: #ff8c00; stroke: #ff8c00"/>
     <use xlink:href="#m3fcde82ec3" x="119.541548" y="146.52282" style="fill: #ff8c00; stroke: #ff8c00"/>
     <use xlink:href="#m3fcde82ec3" x="159.032672" y="203.448727" style="fill: #ff8c00; stroke: #ff8c00"/>
     <use xlink:href="#m3fcde82ec3" x="202.253813" y="206.705713" style="fill: #ff8c00; stroke: #ff8c00"/>
     <use xlink:href="#m3fcde82ec3" x="166.886528" y="215.035578" style="fill: #ff8c00; stroke: #ff8c00"/>
     <use xlink:href="#m3fcde82ec3" x="180.859642" y="213.277282" style="fill: #ff8c00; stroke: #ff8c00"/>
     <use xlink:href="#m3fcde82ec3" x="60.490335" y="76.313745" style="fill: #ff8c00; stroke: #ff8c00"/>
     <use xlink:href="#m3fcde82ec3" x="190.971435" y="205.17986" style="fill: #ff8c00; stroke: #ff8c00"/>
     <use xlink:href="#m3fcde82ec3" x="92.858573" y="162.530511" style="fill: #ff8c00; stroke: #ff8c00"/>
     <use xlink:href="#m3fcde82ec3" x="207.28581" y="240.755079" style="fill: #ff8c00; stroke: #ff8c00"/>
     <use xlink:href="#m3fcde82ec3" x="199.60336" y="236.793862" style="fill: #ff8c00; stroke: #ff8c00"/>
     <use xlink:href="#m3fcde82ec3" x="206.424804" y="221.655276" style="fill: #ff8c00; stroke: #ff8c00"/>
     <use xlink:href="#m3fcde82ec3" x="104.270625" y="36.109594" style="fill: #ff8c00; stroke: #ff8c00"/>
     <use xlink:href="#m3fcde82ec3" x="203.752603" y="234.259192" style="fill: #ff8c00; stroke: #ff8c00"/>
     <use xlink:href="#m3fcde82ec3" x="108.670171" y="126.572078" style="fill: #ff8c00; stroke: #ff8c00"/>
     <use xlink:href="#m3fcde82ec3" x="116.039493" y="164.662804" style="fill: #ff8c00; stroke: #ff8c00"/>
     <use xlink:href="#m3fcde82ec3" x="198.56939" y="231.139442" style="fill: #ff8c00; stroke: #ff8c00"/>
     <use xlink:href="#m3fcde82ec3" x="163.711832" y="181.605597" style="fill: #ff8c00; stroke: #ff8c00"/>
     <use xlink:href="#m3fcde82ec3" x="135.21994" y="173.373165" style="fill: #ff8c00; stroke: #ff8c00"/>
     <use xlink:href="#m3fcde82ec3" x="144.474753" y="214.144818" style="fill: #ff8c00; stroke: #ff8c00"/>
     <use xlink:href="#m3fcde82ec3" x="174.767955" y="226.494959" style="fill: #ff8c00; stroke: #ff8c00"/>
     <use xlink:href="#m3fcde82ec3" x="199.172773" y="240.525965" style="fill: #ff8c00; stroke: #ff8c00"/>
     <use xlink:href="#m3fcde82ec3" x="74.502407" y="62.712531" style="fill: #ff8c00; stroke: #ff8c00"/>
     <use xlink:href="#m3fcde82ec3" x="157.551781" y="182.580389" style="fill: #ff8c00; stroke: #ff8c00"/>
     <use xlink:href="#m3fcde82ec3" x="193.481463" y="252.24401" style="fill: #ff8c00; stroke: #ff8c00"/>
     <use xlink:href="#m3fcde82ec3" x="53.354158" y="19.296" style="fill: #ff8c00; stroke: #ff8c00"/>
     <use xlink:href="#m3fcde82ec3" x="186.394413" y="211.073614" style="fill: #ff8c00; stroke: #ff8c00"/>
     <use xlink:href="#m3fcde82ec3" x="147.996708" y="211.190684" style="fill: #ff8c00; stroke: #ff8c00"/>
     <use xlink:href="#m3fcde82ec3" x="189.796705" y="205.164642" style="fill: #ff8c00; stroke: #ff8c00"/>
     <use xlink:href="#m3fcde82ec3" x="153.274544" y="183.604265" style="fill: #ff8c00; stroke: #ff8c00"/>
     <use xlink:href="#m3fcde82ec3" x="176.10673" y="239.925313" style="fill: #ff8c00; stroke: #ff8c00"/>
     <use xlink:href="#m3fcde82ec3" x="162.311368" y="209.90922" style="fill: #ff8c00; stroke: #ff8c00"/>
     <use xlink:href="#m3fcde82ec3" x="152.97337" y="167.733426" style="fill: #ff8c00; stroke: #ff8c00"/>
     <use xlink:href="#m3fcde82ec3" x="151.169282" y="150.841307" style="fill: #ff8c00; stroke: #ff8c00"/>
     <use xlink:href="#m3fcde82ec3" x="156.64385" y="200.998267" style="fill: #ff8c00; stroke: #ff8c00"/>
     <use xlink:href="#m3fcde82ec3" x="51.537415" y="95.550642" style="fill: #ff8c00; stroke: #ff8c00"/>
     <use xlink:href="#m3fcde82ec3" x="226.765179" y="200.420206" style="fill: #ff8c00; stroke: #ff8c00"/>
     <use xlink:href="#m3fcde82ec3" x="83.930236" y="77.730221" style="fill: #ff8c00; stroke: #ff8c00"/>
     <use xlink:href="#m3fcde82ec3" x="213.191047" y="201.336363" style="fill: #ff8c00; stroke: #ff8c00"/>
     <use xlink:href="#m3fcde82ec3" x="150.029116" y="177.758267" style="fill: #ff8c00; stroke: #ff8c00"/>
     <use xlink:href="#m3fcde82ec3" x="95.891001" y="140.670273" style="fill: #ff8c00; stroke: #ff8c00"/>
     <use xlink:href="#m3fcde82ec3" x="185.976563" y="221.745905" style="fill: #ff8c00; stroke: #ff8c00"/>
    </g>
   </g>
   <g id="matplotlib.axis_1">
    <g id="xtick_1">
     <g id="line2d_1">
      <defs>
       <path id="m2cb43fa6ab" d="M 0 0 
L 0 3.5 
" style="stroke: #000000; stroke-width: 0.8"/>
      </defs>
      <g>
       <use xlink:href="#m2cb43fa6ab" x="47.284629" y="273.312" style="stroke: #000000; stroke-width: 0.8"/>
      </g>
     </g>
     <g id="text_1">
      <!-- −30 -->
      <g transform="translate(36.732285 287.910437) scale(0.1 -0.1)">
       <defs>
        <path id="DejaVuSans-2212" d="M 678 2272 
L 4684 2272 
L 4684 1741 
L 678 1741 
L 678 2272 
z
" transform="scale(0.015625)"/>
        <path id="DejaVuSans-33" d="M 2597 2516 
Q 3050 2419 3304 2112 
Q 3559 1806 3559 1356 
Q 3559 666 3084 287 
Q 2609 -91 1734 -91 
Q 1441 -91 1130 -33 
Q 819 25 488 141 
L 488 750 
Q 750 597 1062 519 
Q 1375 441 1716 441 
Q 2309 441 2620 675 
Q 2931 909 2931 1356 
Q 2931 1769 2642 2001 
Q 2353 2234 1838 2234 
L 1294 2234 
L 1294 2753 
L 1863 2753 
Q 2328 2753 2575 2939 
Q 2822 3125 2822 3475 
Q 2822 3834 2567 4026 
Q 2313 4219 1838 4219 
Q 1578 4219 1281 4162 
Q 984 4106 628 3988 
L 628 4550 
Q 988 4650 1302 4700 
Q 1616 4750 1894 4750 
Q 2613 4750 3031 4423 
Q 3450 4097 3450 3541 
Q 3450 3153 3228 2886 
Q 3006 2619 2597 2516 
z
" transform="scale(0.015625)"/>
        <path id="DejaVuSans-30" d="M 2034 4250 
Q 1547 4250 1301 3770 
Q 1056 3291 1056 2328 
Q 1056 1369 1301 889 
Q 1547 409 2034 409 
Q 2525 409 2770 889 
Q 3016 1369 3016 2328 
Q 3016 3291 2770 3770 
Q 2525 4250 2034 4250 
z
M 2034 4750 
Q 2819 4750 3233 4129 
Q 3647 3509 3647 2328 
Q 3647 1150 3233 529 
Q 2819 -91 2034 -91 
Q 1250 -91 836 529 
Q 422 1150 422 2328 
Q 422 3509 836 4129 
Q 1250 4750 2034 4750 
z
" transform="scale(0.015625)"/>
       </defs>
       <use xlink:href="#DejaVuSans-2212"/>
       <use xlink:href="#DejaVuSans-33" x="83.789062"/>
       <use xlink:href="#DejaVuSans-30" x="147.412109"/>
      </g>
     </g>
    </g>
    <g id="xtick_2">
     <g id="line2d_2">
      <g>
       <use xlink:href="#m2cb43fa6ab" x="95.610423" y="273.312" style="stroke: #000000; stroke-width: 0.8"/>
      </g>
     </g>
     <g id="text_2">
      <!-- −20 -->
      <g transform="translate(85.058079 287.910437) scale(0.1 -0.1)">
       <defs>
        <path id="DejaVuSans-32" d="M 1228 531 
L 3431 531 
L 3431 0 
L 469 0 
L 469 531 
Q 828 903 1448 1529 
Q 2069 2156 2228 2338 
Q 2531 2678 2651 2914 
Q 2772 3150 2772 3378 
Q 2772 3750 2511 3984 
Q 2250 4219 1831 4219 
Q 1534 4219 1204 4116 
Q 875 4013 500 3803 
L 500 4441 
Q 881 4594 1212 4672 
Q 1544 4750 1819 4750 
Q 2544 4750 2975 4387 
Q 3406 4025 3406 3419 
Q 3406 3131 3298 2873 
Q 3191 2616 2906 2266 
Q 2828 2175 2409 1742 
Q 1991 1309 1228 531 
z
" transform="scale(0.015625)"/>
       </defs>
       <use xlink:href="#DejaVuSans-2212"/>
       <use xlink:href="#DejaVuSans-32" x="83.789062"/>
       <use xlink:href="#DejaVuSans-30" x="147.412109"/>
      </g>
     </g>
    </g>
    <g id="xtick_3">
     <g id="line2d_3">
      <g>
       <use xlink:href="#m2cb43fa6ab" x="143.936217" y="273.312" style="stroke: #000000; stroke-width: 0.8"/>
      </g>
     </g>
     <g id="text_3">
      <!-- −10 -->
      <g transform="translate(133.383873 287.910437) scale(0.1 -0.1)">
       <defs>
        <path id="DejaVuSans-31" d="M 794 531 
L 1825 531 
L 1825 4091 
L 703 3866 
L 703 4441 
L 1819 4666 
L 2450 4666 
L 2450 531 
L 3481 531 
L 3481 0 
L 794 0 
L 794 531 
z
" transform="scale(0.015625)"/>
       </defs>
       <use xlink:href="#DejaVuSans-2212"/>
       <use xlink:href="#DejaVuSans-31" x="83.789062"/>
       <use xlink:href="#DejaVuSans-30" x="147.412109"/>
      </g>
     </g>
    </g>
    <g id="xtick_4">
     <g id="line2d_4">
      <g>
       <use xlink:href="#m2cb43fa6ab" x="192.26201" y="273.312" style="stroke: #000000; stroke-width: 0.8"/>
      </g>
     </g>
     <g id="text_4">
      <!-- 0 -->
      <g transform="translate(189.08076 287.910437) scale(0.1 -0.1)">
       <use xlink:href="#DejaVuSans-30"/>
      </g>
     </g>
    </g>
    <g id="xtick_5">
     <g id="line2d_5">
      <g>
       <use xlink:href="#m2cb43fa6ab" x="240.587804" y="273.312" style="stroke: #000000; stroke-width: 0.8"/>
      </g>
     </g>
     <g id="text_5">
      <!-- 10 -->
      <g transform="translate(234.225304 287.910437) scale(0.1 -0.1)">
       <use xlink:href="#DejaVuSans-31"/>
       <use xlink:href="#DejaVuSans-30" x="63.623047"/>
      </g>
     </g>
    </g>
    <g id="xtick_6">
     <g id="line2d_6">
      <g>
       <use xlink:href="#m2cb43fa6ab" x="288.913598" y="273.312" style="stroke: #000000; stroke-width: 0.8"/>
      </g>
     </g>
     <g id="text_6">
      <!-- 20 -->
      <g transform="translate(282.551098 287.910437) scale(0.1 -0.1)">
       <use xlink:href="#DejaVuSans-32"/>
       <use xlink:href="#DejaVuSans-30" x="63.623047"/>
      </g>
     </g>
    </g>
    <g id="xtick_7">
     <g id="line2d_7">
      <g>
       <use xlink:href="#m2cb43fa6ab" x="337.239391" y="273.312" style="stroke: #000000; stroke-width: 0.8"/>
      </g>
     </g>
     <g id="text_7">
      <!-- 30 -->
      <g transform="translate(330.876891 287.910437) scale(0.1 -0.1)">
       <use xlink:href="#DejaVuSans-33"/>
       <use xlink:href="#DejaVuSans-30" x="63.623047"/>
      </g>
     </g>
    </g>
    <g id="xtick_8">
     <g id="line2d_8">
      <g>
       <use xlink:href="#m2cb43fa6ab" x="385.565185" y="273.312" style="stroke: #000000; stroke-width: 0.8"/>
      </g>
     </g>
     <g id="text_8">
      <!-- 40 -->
      <g transform="translate(379.202685 287.910437) scale(0.1 -0.1)">
       <defs>
        <path id="DejaVuSans-34" d="M 2419 4116 
L 825 1625 
L 2419 1625 
L 2419 4116 
z
M 2253 4666 
L 3047 4666 
L 3047 1625 
L 3713 1625 
L 3713 1100 
L 3047 1100 
L 3047 0 
L 2419 0 
L 2419 1100 
L 313 1100 
L 313 1709 
L 2253 4666 
z
" transform="scale(0.015625)"/>
       </defs>
       <use xlink:href="#DejaVuSans-34"/>
       <use xlink:href="#DejaVuSans-30" x="63.623047"/>
      </g>
     </g>
    </g>
   </g>
   <g id="matplotlib.axis_2">
    <g id="ytick_1">
     <g id="line2d_9">
      <defs>
       <path id="mbe3a5b2898" d="M 0 0 
L -3.5 0 
" style="stroke: #000000; stroke-width: 0.8"/>
      </defs>
      <g>
       <use xlink:href="#mbe3a5b2898" x="35.304688" y="269.830881" style="stroke: #000000; stroke-width: 0.8"/>
      </g>
     </g>
     <g id="text_9">
      <!-- −20 -->
      <g transform="translate(7.2 273.630099) scale(0.1 -0.1)">
       <use xlink:href="#DejaVuSans-2212"/>
       <use xlink:href="#DejaVuSans-32" x="83.789062"/>
       <use xlink:href="#DejaVuSans-30" x="147.412109"/>
      </g>
     </g>
    </g>
    <g id="ytick_2">
     <g id="line2d_10">
      <g>
       <use xlink:href="#mbe3a5b2898" x="35.304688" y="225.099377" style="stroke: #000000; stroke-width: 0.8"/>
      </g>
     </g>
     <g id="text_10">
      <!-- −10 -->
      <g transform="translate(7.2 228.898596) scale(0.1 -0.1)">
       <use xlink:href="#DejaVuSans-2212"/>
       <use xlink:href="#DejaVuSans-31" x="83.789062"/>
       <use xlink:href="#DejaVuSans-30" x="147.412109"/>
      </g>
     </g>
    </g>
    <g id="ytick_3">
     <g id="line2d_11">
      <g>
       <use xlink:href="#mbe3a5b2898" x="35.304688" y="180.367874" style="stroke: #000000; stroke-width: 0.8"/>
      </g>
     </g>
     <g id="text_11">
      <!-- 0 -->
      <g transform="translate(21.942187 184.167093) scale(0.1 -0.1)">
       <use xlink:href="#DejaVuSans-30"/>
      </g>
     </g>
    </g>
    <g id="ytick_4">
     <g id="line2d_12">
      <g>
       <use xlink:href="#mbe3a5b2898" x="35.304688" y="135.63637" style="stroke: #000000; stroke-width: 0.8"/>
      </g>
     </g>
     <g id="text_12">
      <!-- 10 -->
      <g transform="translate(15.579687 139.435589) scale(0.1 -0.1)">
       <use xlink:href="#DejaVuSans-31"/>
       <use xlink:href="#DejaVuSans-30" x="63.623047"/>
      </g>
     </g>
    </g>
    <g id="ytick_5">
     <g id="line2d_13">
      <g>
       <use xlink:href="#mbe3a5b2898" x="35.304688" y="90.904867" style="stroke: #000000; stroke-width: 0.8"/>
      </g>
     </g>
     <g id="text_13">
      <!-- 20 -->
      <g transform="translate(15.579687 94.704086) scale(0.1 -0.1)">
       <use xlink:href="#DejaVuSans-32"/>
       <use xlink:href="#DejaVuSans-30" x="63.623047"/>
      </g>
     </g>
    </g>
    <g id="ytick_6">
     <g id="line2d_14">
      <g>
       <use xlink:href="#mbe3a5b2898" x="35.304688" y="46.173364" style="stroke: #000000; stroke-width: 0.8"/>
      </g>
     </g>
     <g id="text_14">
      <!-- 30 -->
      <g transform="translate(15.579687 49.972582) scale(0.1 -0.1)">
       <use xlink:href="#DejaVuSans-33"/>
       <use xlink:href="#DejaVuSans-30" x="63.623047"/>
      </g>
     </g>
    </g>
   </g>
   <g id="patch_3">
    <path d="M 35.304688 273.312 
L 35.304688 7.2 
" style="fill: none; stroke: #000000; stroke-width: 0.8; stroke-linejoin: miter; stroke-linecap: square"/>
   </g>
   <g id="patch_4">
    <path d="M 392.424688 273.312 
L 392.424688 7.2 
" style="fill: none; stroke: #000000; stroke-width: 0.8; stroke-linejoin: miter; stroke-linecap: square"/>
   </g>
   <g id="patch_5">
    <path d="M 35.304688 273.312 
L 392.424688 273.312 
" style="fill: none; stroke: #000000; stroke-width: 0.8; stroke-linejoin: miter; stroke-linecap: square"/>
   </g>
   <g id="patch_6">
    <path d="M 35.304688 7.2 
L 392.424688 7.2 
" style="fill: none; stroke: #000000; stroke-width: 0.8; stroke-linejoin: miter; stroke-linecap: square"/>
   </g>
  </g>
 </g>
 <defs>
  <clipPath id="p35edc8a211">
   <rect x="35.304688" y="7.2" width="357.12" height="266.112"/>
  </clipPath>
 </defs>
</svg>
