<?xml version="1.0" encoding="utf-8" standalone="no"?>
<!DOCTYPE svg PUBLIC "-//W3C//DTD SVG 1.1//EN"
  "http://www.w3.org/Graphics/SVG/1.1/DTD/svg11.dtd">
<svg xmlns:xlink="http://www.w3.org/1999/xlink" width="399.624687pt" height="297.190125pt" viewBox="0 0 399.624687 297.190125" xmlns="http://www.w3.org/2000/svg" version="1.1">
 <metadata>
  <rdf:RDF xmlns:dc="http://purl.org/dc/elements/1.1/" xmlns:cc="http://creativecommons.org/ns#" xmlns:rdf="http://www.w3.org/1999/02/22-rdf-syntax-ns#">
   <cc:Work>
    <dc:type rdf:resource="http://purl.org/dc/dcmitype/StillImage"/>
    <dc:date>2023-11-13T07:08:40.595169</dc:date>
    <dc:format>image/svg+xml</dc:format>
    <dc:creator>
     <cc:Agent>
      <dc:title>Matplotlib v3.8.0, https://matplotlib.org/</dc:title>
     </cc:Agent>
    </dc:creator>
   </cc:Work>
  </rdf:RDF>
 </metadata>
 <defs>
  <style type="text/css">*{stroke-linejoin: round; stroke-linecap: butt}</style>
 </defs>
 <g id="figure_1">
  <g id="patch_1">
   <path d="M 0 297.190125 
L 399.624687 297.190125 
L 399.624687 0 
L 0 0 
z
" style="fill: #ffffff"/>
  </g>
  <g id="axes_1">
   <g id="patch_2">
    <path d="M 35.304688 273.312 
L 392.424688 273.312 
L 392.424688 7.2 
L 35.304688 7.2 
z
" style="fill: #ffffff"/>
   </g>
   <g id="PathCollection_1">
    <defs>
     <path id="m699ca8accd" d="M 0 1.5 
C 0.397805 1.5 0.77937 1.341951 1.06066 1.06066 
C 1.341951 0.77937 1.5 0.397805 1.5 0 
C 1.5 -0.397805 1.341951 -0.77937 1.06066 -1.06066 
C 0.77937 -1.341951 0.397805 -1.5 0 -1.5 
C -0.397805 -1.5 -0.77937 -1.341951 -1.06066 -1.06066 
C -1.341951 -0.77937 -1.5 -0.397805 -1.5 0 
C -1.5 0.397805 -1.341951 0.77937 -1.06066 1.06066 
C -0.77937 1.341951 -0.397805 1.5 0 1.5 
z
" style="stroke: #ff8c00"/>
    </defs>
    <g clip-path="url(#pe1f478d22f)">
     <use xlink:href="#m699ca8accd" x="268.405983" y="167.010947" style="fill: #ff8c00; stroke: #ff8c00"/>
     <use xlink:href="#m699ca8accd" x="205.336133" y="141.465396" style="fill: #ff8c00; stroke: #ff8c00"/>
     <use xlink:href="#m699ca8accd" x="193.484565" y="190.794665" style="fill: #ff8c00; stroke: #ff8c00"/>
     <use xlink:href="#m699ca8accd" x="226.08233" y="185.53728" style="fill: #ff8c00; stroke: #ff8c00"/>
     <use xlink:href="#m699ca8accd" x="222.914712" y="191.335649" style="fill: #ff8c00; stroke: #ff8c00"/>
     <use xlink:href="#m699ca8accd" x="230.62562" y="200.08855" style="fill: #ff8c00; stroke: #ff8c00"/>
     <use xlink:href="#m699ca8accd" x="228.737507" y="211.530847" style="fill: #ff8c00; stroke: #ff8c00"/>
     <use xlink:href="#m699ca8accd" x="228.077991" y="203.653929" style="fill: #ff8c00; stroke: #ff8c00"/>
     <use xlink:href="#m699ca8accd" x="226.720439" y="201.636361" style="fill: #ff8c00; stroke: #ff8c00"/>
     <use xlink:href="#m699ca8accd" x="314.923243" y="141.408927" style="fill: #ff8c00; stroke: #ff8c00"/>
     <use xlink:href="#m699ca8accd" x="213.039708" y="188.124393" style="fill: #ff8c00; stroke: #ff8c00"/>
    </g>
   </g>
   <g id="PathCollection_2">
    <defs>
     <path id="m35148c2867" d="M 0 1.5 
C 0.397805 1.5 0.77937 1.341951 1.06066 1.06066 
C 1.341951 0.77937 1.5 0.397805 1.5 0 
C 1.5 -0.397805 1.341951 -0.77937 1.06066 -1.06066 
C 0.77937 -1.341951 0.397805 -1.5 0 -1.5 
C -0.397805 -1.5 -0.77937 -1.341951 -1.06066 -1.06066 
C -1.341951 -0.77937 -1.5 -0.397805 -1.5 0 
C -1.5 0.397805 -1.341951 0.77937 -1.06066 1.06066 
C -0.77937 1.341951 -0.397805 1.5 0 1.5 
z
" style="stroke: #006400"/>
    </defs>
    <g clip-path="url(#pe1f478d22f)">
     <use xlink:href="#m35148c2867" x="301.056065" y="104.842173" style="fill: #006400; stroke: #006400"/>
     <use xlink:href="#m35148c2867" x="249.697208" y="121.396462" style="fill: #006400; stroke: #006400"/>
     <use xlink:href="#m35148c2867" x="320.847612" y="116.571229" style="fill: #006400; stroke: #006400"/>
     <use xlink:href="#m35148c2867" x="270.615656" y="157.996276" style="fill: #006400; stroke: #006400"/>
     <use xlink:href="#m35148c2867" x="273.169304" y="63.009733" style="fill: #006400; stroke: #006400"/>
     <use xlink:href="#m35148c2867" x="224.95677" y="174.452733" style="fill: #006400; stroke: #006400"/>
     <use xlink:href="#m35148c2867" x="280.893274" y="111.825434" style="fill: #006400; stroke: #006400"/>
     <use xlink:href="#m35148c2867" x="376.19196" y="49.705812" style="fill: #006400; stroke: #006400"/>
     <use xlink:href="#m35148c2867" x="329.395242" y="72.000562" style="fill: #006400; stroke: #006400"/>
     <use xlink:href="#m35148c2867" x="330.470083" y="19.296" style="fill: #006400; stroke: #006400"/>
     <use xlink:href="#m35148c2867" x="297.46252" y="104.86462" style="fill: #006400; stroke: #006400"/>
     <use xlink:href="#m35148c2867" x="277.858546" y="121.194542" style="fill: #006400; stroke: #006400"/>
     <use xlink:href="#m35148c2867" x="207.689118" y="157.748978" style="fill: #006400; stroke: #006400"/>
     <use xlink:href="#m35148c2867" x="233.167723" y="151.951147" style="fill: #006400; stroke: #006400"/>
     <use xlink:href="#m35148c2867" x="236.637808" y="139.765865" style="fill: #006400; stroke: #006400"/>
    </g>
   </g>
   <g id="PathCollection_3">
    <defs>
     <path id="m300aab140b" d="M 0 1.5 
C 0.397805 1.5 0.77937 1.341951 1.06066 1.06066 
C 1.341951 0.77937 1.5 0.397805 1.5 0 
C 1.5 -0.397805 1.341951 -0.77937 1.06066 -1.06066 
C 0.77937 -1.341951 0.397805 -1.5 0 -1.5 
C -0.397805 -1.5 -0.77937 -1.341951 -1.06066 -1.06066 
C -1.341951 -0.77937 -1.5 -0.397805 -1.5 0 
C -1.5 0.397805 -1.341951 0.77937 -1.06066 1.06066 
C -0.77937 1.341951 -0.397805 1.5 0 1.5 
z
" style="stroke: #2f4f4f"/>
    </defs>
    <g clip-path="url(#pe1f478d22f)">
     <use xlink:href="#m300aab140b" x="158.859832" y="243.79046" style="fill: #2f4f4f; stroke: #2f4f4f"/>
     <use xlink:href="#m300aab140b" x="213.646584" y="227.231477" style="fill: #2f4f4f; stroke: #2f4f4f"/>
     <use xlink:href="#m300aab140b" x="167.580985" y="231.925521" style="fill: #2f4f4f; stroke: #2f4f4f"/>
     <use xlink:href="#m300aab140b" x="157.504416" y="209.994577" style="fill: #2f4f4f; stroke: #2f4f4f"/>
     <use xlink:href="#m300aab140b" x="175.925778" y="239.453034" style="fill: #2f4f4f; stroke: #2f4f4f"/>
     <use xlink:href="#m300aab140b" x="188.820196" y="209.212802" style="fill: #2f4f4f; stroke: #2f4f4f"/>
     <use xlink:href="#m300aab140b" x="208.821859" y="199.052979" style="fill: #2f4f4f; stroke: #2f4f4f"/>
     <use xlink:href="#m300aab140b" x="147.895593" y="197.0019" style="fill: #2f4f4f; stroke: #2f4f4f"/>
     <use xlink:href="#m300aab140b" x="149.734528" y="96.519163" style="fill: #2f4f4f; stroke: #2f4f4f"/>
     <use xlink:href="#m300aab140b" x="185.62969" y="223.023543" style="fill: #2f4f4f; stroke: #2f4f4f"/>
     <use xlink:href="#m300aab140b" x="152.968625" y="190.231022" style="fill: #2f4f4f; stroke: #2f4f4f"/>
     <use xlink:href="#m300aab140b" x="236.686279" y="158.611601" style="fill: #2f4f4f; stroke: #2f4f4f"/>
    </g>
   </g>
   <g id="PathCollection_4">
    <defs>
     <path id="md717b6162d" d="M 0 1.5 
C 0.397805 1.5 0.77937 1.341951 1.06066 1.06066 
C 1.341951 0.77937 1.5 0.397805 1.5 0 
C 1.5 -0.397805 1.341951 -0.77937 1.06066 -1.06066 
C 0.77937 -1.341951 0.397805 -1.5 0 -1.5 
C -0.397805 -1.5 -0.77937 -1.341951 -1.06066 -1.06066 
C -1.341951 -0.77937 -1.5 -0.397805 -1.5 0 
C -1.5 0.397805 -1.341951 0.77937 -1.06066 1.06066 
C -0.77937 1.341951 -0.397805 1.5 0 1.5 
z
" style="stroke: #00bfff"/>
    </defs>
    <g clip-path="url(#pe1f478d22f)">
     <use xlink:href="#md717b6162d" x="177.364798" y="189.141753" style="fill: #00bfff; stroke: #00bfff"/>
     <use xlink:href="#md717b6162d" x="123.719642" y="125.346555" style="fill: #00bfff; stroke: #00bfff"/>
     <use xlink:href="#md717b6162d" x="162.510073" y="185.127503" style="fill: #00bfff; stroke: #00bfff"/>
     <use xlink:href="#md717b6162d" x="151.34507" y="162.650822" style="fill: #00bfff; stroke: #00bfff"/>
     <use xlink:href="#md717b6162d" x="168.630332" y="197.186215" style="fill: #00bfff; stroke: #00bfff"/>
     <use xlink:href="#md717b6162d" x="139.349969" y="153.519888" style="fill: #00bfff; stroke: #00bfff"/>
     <use xlink:href="#md717b6162d" x="151.573334" y="159.612125" style="fill: #00bfff; stroke: #00bfff"/>
     <use xlink:href="#md717b6162d" x="152.06505" y="202.448899" style="fill: #00bfff; stroke: #00bfff"/>
     <use xlink:href="#md717b6162d" x="161.083299" y="233.207081" style="fill: #00bfff; stroke: #00bfff"/>
     <use xlink:href="#md717b6162d" x="174.054385" y="216.629046" style="fill: #00bfff; stroke: #00bfff"/>
     <use xlink:href="#md717b6162d" x="130.101736" y="195.446572" style="fill: #00bfff; stroke: #00bfff"/>
     <use xlink:href="#md717b6162d" x="129.457794" y="164.936176" style="fill: #00bfff; stroke: #00bfff"/>
     <use xlink:href="#md717b6162d" x="185.936619" y="170.328368" style="fill: #00bfff; stroke: #00bfff"/>
     <use xlink:href="#md717b6162d" x="184.552833" y="143.704716" style="fill: #00bfff; stroke: #00bfff"/>
     <use xlink:href="#md717b6162d" x="171.789547" y="148.513838" style="fill: #00bfff; stroke: #00bfff"/>
     <use xlink:href="#md717b6162d" x="139.266042" y="156.613357" style="fill: #00bfff; stroke: #00bfff"/>
     <use xlink:href="#md717b6162d" x="144.409061" y="184.216235" style="fill: #00bfff; stroke: #00bfff"/>
     <use xlink:href="#md717b6162d" x="153.525375" y="217.853898" style="fill: #00bfff; stroke: #00bfff"/>
     <use xlink:href="#md717b6162d" x="148.745605" y="198.451669" style="fill: #00bfff; stroke: #00bfff"/>
     <use xlink:href="#md717b6162d" x="173.754978" y="202.573346" style="fill: #00bfff; stroke: #00bfff"/>
    </g>
   </g>
   <g id="PathCollection_5">
    <defs>
     <path id="m6b6735122b" d="M 0 1.5 
C 0.397805 1.5 0.77937 1.341951 1.06066 1.06066 
C 1.341951 0.77937 1.5 0.397805 1.5 0 
C 1.5 -0.397805 1.341951 -0.77937 1.06066 -1.06066 
C 0.77937 -1.341951 0.397805 -1.5 0 -1.5 
C -0.397805 -1.5 -0.77937 -1.341951 -1.06066 -1.06066 
C -1.341951 -0.77937 -1.5 -0.397805 -1.5 0 
C -1.5 0.397805 -1.341951 0.77937 -1.06066 1.06066 
C -0.77937 1.341951 -0.397805 1.5 0 1.5 
z
" style="stroke: #ffff00"/>
    </defs>
    <g clip-path="url(#pe1f478d22f)">
     <use xlink:href="#m6b6735122b" x="175.76567" y="195.132247" style="fill: #ffff00; stroke: #ffff00"/>
     <use xlink:href="#m6b6735122b" x="182.329803" y="246.704864" style="fill: #ffff00; stroke: #ffff00"/>
     <use xlink:href="#m6b6735122b" x="198.703081" y="183.228836" style="fill: #ffff00; stroke: #ffff00"/>
     <use xlink:href="#m6b6735122b" x="197.375363" y="245.33107" style="fill: #ffff00; stroke: #ffff00"/>
     <use xlink:href="#m6b6735122b" x="158.240573" y="249.973294" style="fill: #ffff00; stroke: #ffff00"/>
     <use xlink:href="#m6b6735122b" x="204.585249" y="224.323301" style="fill: #ffff00; stroke: #ffff00"/>
     <use xlink:href="#m6b6735122b" x="173.157035" y="244.861011" style="fill: #ffff00; stroke: #ffff00"/>
     <use xlink:href="#m6b6735122b" x="157.259508" y="229.033799" style="fill: #ffff00; stroke: #ffff00"/>
     <use xlink:href="#m6b6735122b" x="167.059671" y="194.30516" style="fill: #ffff00; stroke: #ffff00"/>
     <use xlink:href="#m6b6735122b" x="172.429691" y="182.723483" style="fill: #ffff00; stroke: #ffff00"/>
     <use xlink:href="#m6b6735122b" x="174.969197" y="247.034929" style="fill: #ffff00; stroke: #ffff00"/>
     <use xlink:href="#m6b6735122b" x="157.991044" y="214.863336" style="fill: #ffff00; stroke: #ffff00"/>
     <use xlink:href="#m6b6735122b" x="173.114485" y="225.205716" style="fill: #ffff00; stroke: #ffff00"/>
     <use xlink:href="#m6b6735122b" x="147.424592" y="201.816467" style="fill: #ffff00; stroke: #ffff00"/>
     <use xlink:href="#m6b6735122b" x="200.254755" y="215.341585" style="fill: #ffff00; stroke: #ffff00"/>
     <use xlink:href="#m6b6735122b" x="181.775547" y="219.401932" style="fill: #ffff00; stroke: #ffff00"/>
     <use xlink:href="#m6b6735122b" x="200.92362" y="221.00229" style="fill: #ffff00; stroke: #ffff00"/>
    </g>
   </g>
   <g id="PathCollection_6">
    <defs>
     <path id="me52c4862bd" d="M 0 1.5 
C 0.397805 1.5 0.77937 1.341951 1.06066 1.06066 
C 1.341951 0.77937 1.5 0.397805 1.5 0 
C 1.5 -0.397805 1.341951 -0.77937 1.06066 -1.06066 
C 0.77937 -1.341951 0.397805 -1.5 0 -1.5 
C -0.397805 -1.5 -0.77937 -1.341951 -1.06066 -1.06066 
C -1.341951 -0.77937 -1.5 -0.397805 -1.5 0 
C -1.5 0.397805 -1.341951 0.77937 -1.06066 1.06066 
C -0.77937 1.341951 -0.397805 1.5 0 1.5 
z
" style="stroke: #00ffff"/>
    </defs>
    <g clip-path="url(#pe1f478d22f)">
     <use xlink:href="#me52c4862bd" x="172.315558" y="242.072457" style="fill: #00ffff; stroke: #00ffff"/>
     <use xlink:href="#me52c4862bd" x="192.828353" y="211.285539" style="fill: #00ffff; stroke: #00ffff"/>
     <use xlink:href="#me52c4862bd" x="151.320486" y="199.408408" style="fill: #00ffff; stroke: #00ffff"/>
     <use xlink:href="#me52c4862bd" x="176.711585" y="244.302238" style="fill: #00ffff; stroke: #00ffff"/>
     <use xlink:href="#me52c4862bd" x="154.696068" y="235.695378" style="fill: #00ffff; stroke: #00ffff"/>
     <use xlink:href="#me52c4862bd" x="166.609272" y="234.553488" style="fill: #00ffff; stroke: #00ffff"/>
     <use xlink:href="#me52c4862bd" x="176.602706" y="243.403814" style="fill: #00ffff; stroke: #00ffff"/>
     <use xlink:href="#me52c4862bd" x="156.145752" y="238.984673" style="fill: #00ffff; stroke: #00ffff"/>
     <use xlink:href="#me52c4862bd" x="171.645094" y="227.060031" style="fill: #00ffff; stroke: #00ffff"/>
    </g>
   </g>
   <g id="PathCollection_7">
    <defs>
     <path id="m329a659831" d="M 0 1.5 
C 0.397805 1.5 0.77937 1.341951 1.06066 1.06066 
C 1.341951 0.77937 1.5 0.397805 1.5 0 
C 1.5 -0.397805 1.341951 -0.77937 1.06066 -1.06066 
C 0.77937 -1.341951 0.397805 -1.5 0 -1.5 
C -0.397805 -1.5 -0.77937 -1.341951 -1.06066 -1.06066 
C -1.341951 -0.77937 -1.5 -0.397805 -1.5 0 
C -1.5 0.397805 -1.341951 0.77937 -1.06066 1.06066 
C -0.77937 1.341951 -0.397805 1.5 0 1.5 
z
" style="stroke: #0000ff"/>
    </defs>
    <g clip-path="url(#pe1f478d22f)">
     <use xlink:href="#m329a659831" x="196.671653" y="164.150566" style="fill: #0000ff; stroke: #0000ff"/>
     <use xlink:href="#m329a659831" x="149.688665" y="155.228855" style="fill: #0000ff; stroke: #0000ff"/>
     <use xlink:href="#m329a659831" x="180.207712" y="229.777357" style="fill: #0000ff; stroke: #0000ff"/>
     <use xlink:href="#m329a659831" x="171.582214" y="229.36247" style="fill: #0000ff; stroke: #0000ff"/>
     <use xlink:href="#m329a659831" x="178.977012" y="261.216" style="fill: #0000ff; stroke: #0000ff"/>
     <use xlink:href="#m329a659831" x="163.163815" y="235.071684" style="fill: #0000ff; stroke: #0000ff"/>
     <use xlink:href="#m329a659831" x="158.291722" y="189.766668" style="fill: #0000ff; stroke: #0000ff"/>
     <use xlink:href="#m329a659831" x="156.722626" y="226.539886" style="fill: #0000ff; stroke: #0000ff"/>
     <use xlink:href="#m329a659831" x="166.477676" y="214.057878" style="fill: #0000ff; stroke: #0000ff"/>
     <use xlink:href="#m329a659831" x="162.743114" y="244.311353" style="fill: #0000ff; stroke: #0000ff"/>
     <use xlink:href="#m329a659831" x="141.689674" y="204.690139" style="fill: #0000ff; stroke: #0000ff"/>
     <use xlink:href="#m329a659831" x="202.447146" y="229.743751" style="fill: #0000ff; stroke: #0000ff"/>
     <use xlink:href="#m329a659831" x="181.416364" y="221.895837" style="fill: #0000ff; stroke: #0000ff"/>
     <use xlink:href="#m329a659831" x="175.730651" y="223.83858" style="fill: #0000ff; stroke: #0000ff"/>
     <use xlink:href="#m329a659831" x="193.386607" y="182.655061" style="fill: #0000ff; stroke: #0000ff"/>
     <use xlink:href="#m329a659831" x="205.813444" y="137.839172" style="fill: #0000ff; stroke: #0000ff"/>
    </g>
   </g>
   <g id="PathCollection_8">
    <defs>
     <path id="m5083b94909" d="M 0 1.5 
C 0.397805 1.5 0.77937 1.341951 1.06066 1.06066 
C 1.341951 0.77937 1.5 0.397805 1.5 0 
C 1.5 -0.397805 1.341951 -0.77937 1.06066 -1.06066 
C 0.77937 -1.341951 0.397805 -1.5 0 -1.5 
C -0.397805 -1.5 -0.77937 -1.341951 -1.06066 -1.06066 
C -1.341951 -0.77937 -1.5 -0.397805 -1.5 0 
C -1.5 0.397805 -1.341951 0.77937 -1.06066 1.06066 
C -0.77937 1.341951 -0.397805 1.5 0 1.5 
z
" style="stroke: #dc143c"/>
    </defs>
    <g clip-path="url(#pe1f478d22f)">
     <use xlink:href="#m5083b94909" x="217.886306" y="215.723262" style="fill: #dc143c; stroke: #dc143c"/>
     <use xlink:href="#m5083b94909" x="229.45188" y="188.320106" style="fill: #dc143c; stroke: #dc143c"/>
     <use xlink:href="#m5083b94909" x="170.206555" y="196.216549" style="fill: #dc143c; stroke: #dc143c"/>
     <use xlink:href="#m5083b94909" x="248.349798" y="201.630693" style="fill: #dc143c; stroke: #dc143c"/>
     <use xlink:href="#m5083b94909" x="206.216295" y="211.164922" style="fill: #dc143c; stroke: #dc143c"/>
     <use xlink:href="#m5083b94909" x="209.94336" y="178.785035" style="fill: #dc143c; stroke: #dc143c"/>
     <use xlink:href="#m5083b94909" x="276.895377" y="170.925228" style="fill: #dc143c; stroke: #dc143c"/>
     <use xlink:href="#m5083b94909" x="223.602801" y="202.316317" style="fill: #dc143c; stroke: #dc143c"/>
     <use xlink:href="#m5083b94909" x="216.777102" y="185.541059" style="fill: #dc143c; stroke: #dc143c"/>
     <use xlink:href="#m5083b94909" x="232.606954" y="200.056611" style="fill: #dc143c; stroke: #dc143c"/>
     <use xlink:href="#m5083b94909" x="237.413322" y="206.212483" style="fill: #dc143c; stroke: #dc143c"/>
     <use xlink:href="#m5083b94909" x="222.165569" y="172.079284" style="fill: #dc143c; stroke: #dc143c"/>
     <use xlink:href="#m5083b94909" x="236.93923" y="165.058929" style="fill: #dc143c; stroke: #dc143c"/>
     <use xlink:href="#m5083b94909" x="256.151261" y="182.861014" style="fill: #dc143c; stroke: #dc143c"/>
     <use xlink:href="#m5083b94909" x="216.740522" y="203.152415" style="fill: #dc143c; stroke: #dc143c"/>
     <use xlink:href="#m5083b94909" x="252.284658" y="206.031952" style="fill: #dc143c; stroke: #dc143c"/>
     <use xlink:href="#m5083b94909" x="229.732241" y="196.530385" style="fill: #dc143c; stroke: #dc143c"/>
    </g>
   </g>
   <g id="PathCollection_9">
    <defs>
     <path id="m53424b40c4" d="M 0 1.5 
C 0.397805 1.5 0.77937 1.341951 1.06066 1.06066 
C 1.341951 0.77937 1.5 0.397805 1.5 0 
C 1.5 -0.397805 1.341951 -0.77937 1.06066 -1.06066 
C 0.77937 -1.341951 0.397805 -1.5 0 -1.5 
C -0.397805 -1.5 -0.77937 -1.341951 -1.06066 -1.06066 
C -1.341951 -0.77937 -1.5 -0.397805 -1.5 0 
C -1.5 0.397805 -1.341951 0.77937 -1.06066 1.06066 
C -0.77937 1.341951 -0.397805 1.5 0 1.5 
z
" style="stroke: #ffe4c4"/>
    </defs>
    <g clip-path="url(#pe1f478d22f)">
     <use xlink:href="#m53424b40c4" x="309.23872" y="140.807159" style="fill: #ffe4c4; stroke: #ffe4c4"/>
     <use xlink:href="#m53424b40c4" x="219.750662" y="111.138542" style="fill: #ffe4c4; stroke: #ffe4c4"/>
     <use xlink:href="#m53424b40c4" x="251.295332" y="93.556265" style="fill: #ffe4c4; stroke: #ffe4c4"/>
     <use xlink:href="#m53424b40c4" x="204.252543" y="173.38245" style="fill: #ffe4c4; stroke: #ffe4c4"/>
     <use xlink:href="#m53424b40c4" x="227.382844" y="141.33663" style="fill: #ffe4c4; stroke: #ffe4c4"/>
     <use xlink:href="#m53424b40c4" x="286.355829" y="143.764263" style="fill: #ffe4c4; stroke: #ffe4c4"/>
     <use xlink:href="#m53424b40c4" x="221.347338" y="136.420685" style="fill: #ffe4c4; stroke: #ffe4c4"/>
     <use xlink:href="#m53424b40c4" x="245.719907" y="178.493722" style="fill: #ffe4c4; stroke: #ffe4c4"/>
     <use xlink:href="#m53424b40c4" x="210.658316" y="163.240772" style="fill: #ffe4c4; stroke: #ffe4c4"/>
     <use xlink:href="#m53424b40c4" x="187.433412" y="132.446038" style="fill: #ffe4c4; stroke: #ffe4c4"/>
     <use xlink:href="#m53424b40c4" x="317.126574" y="104.397505" style="fill: #ffe4c4; stroke: #ffe4c4"/>
    </g>
   </g>
   <g id="PathCollection_10">
    <defs>
     <path id="m2ca1be30df" d="M -2.99994 2.99994 
L 3.00006 2.99994 
L 3.00006 -3.00006 
L -2.99994 -3.00006 
z
" style="stroke: #000000"/>
    </defs>
    <g clip-path="url(#pe1f478d22f)">
     <use xlink:href="#m2ca1be30df" x="150.997003" y="201.543495" style="stroke: #000000"/>
     <use xlink:href="#m2ca1be30df" x="151.320726" y="212.971406" style="stroke: #000000"/>
     <use xlink:href="#m2ca1be30df" x="147.985213" y="191.215977" style="stroke: #000000"/>
     <use xlink:href="#m2ca1be30df" x="174.027528" y="195.017713" style="stroke: #000000"/>
     <use xlink:href="#m2ca1be30df" x="108.904514" y="120.270203" style="stroke: #000000"/>
     <use xlink:href="#m2ca1be30df" x="243.380831" y="81.631214" style="stroke: #000000"/>
     <use xlink:href="#m2ca1be30df" x="162.866376" y="178.356539" style="stroke: #000000"/>
     <use xlink:href="#m2ca1be30df" x="162.652721" y="156.785225" style="stroke: #000000"/>
     <use xlink:href="#m2ca1be30df" x="172.466412" y="200.541544" style="stroke: #000000"/>
     <use xlink:href="#m2ca1be30df" x="158.991944" y="207.539814" style="stroke: #000000"/>
     <use xlink:href="#m2ca1be30df" x="106.846172" y="104.091732" style="stroke: #000000"/>
     <use xlink:href="#m2ca1be30df" x="148.555035" y="171.884371" style="stroke: #000000"/>
     <use xlink:href="#m2ca1be30df" x="61.735186" y="108.173947" style="stroke: #000000"/>
     <use xlink:href="#m2ca1be30df" x="136.025414" y="199.191803" style="stroke: #000000"/>
     <use xlink:href="#m2ca1be30df" x="155.077937" y="176.23954" style="stroke: #000000"/>
     <use xlink:href="#m2ca1be30df" x="109.9025" y="132.661337" style="stroke: #000000"/>
     <use xlink:href="#m2ca1be30df" x="89.127508" y="120.285914" style="stroke: #000000"/>
     <use xlink:href="#m2ca1be30df" x="96.215786" y="160.112717" style="stroke: #000000"/>
     <use xlink:href="#m2ca1be30df" x="102.177648" y="136.067296" style="stroke: #000000"/>
     <use xlink:href="#m2ca1be30df" x="113.713002" y="171.285973" style="stroke: #000000"/>
     <use xlink:href="#m2ca1be30df" x="151.42202" y="193.522388" style="stroke: #000000"/>
     <use xlink:href="#m2ca1be30df" x="139.154233" y="222.292087" style="stroke: #000000"/>
     <use xlink:href="#m2ca1be30df" x="163.540802" y="112.578431" style="stroke: #000000"/>
     <use xlink:href="#m2ca1be30df" x="129.913183" y="82.532315" style="stroke: #000000"/>
     <use xlink:href="#m2ca1be30df" x="80.776428" y="102.345237" style="stroke: #000000"/>
     <use xlink:href="#m2ca1be30df" x="154.783466" y="181.287644" style="stroke: #000000"/>
     <use xlink:href="#m2ca1be30df" x="159.099306" y="170.05945" style="stroke: #000000"/>
     <use xlink:href="#m2ca1be30df" x="125.915202" y="172.573153" style="stroke: #000000"/>
     <use xlink:href="#m2ca1be30df" x="136.21993" y="168.036392" style="stroke: #000000"/>
     <use xlink:href="#m2ca1be30df" x="132.577748" y="202.107436" style="stroke: #000000"/>
     <use xlink:href="#m2ca1be30df" x="128.441831" y="126.633322" style="stroke: #000000"/>
     <use xlink:href="#m2ca1be30df" x="51.537415" y="85.276782" style="stroke: #000000"/>
     <use xlink:href="#m2ca1be30df" x="136.863808" y="139.422372" style="stroke: #000000"/>
     <use xlink:href="#m2ca1be30df" x="164.019734" y="242.087198" style="stroke: #000000"/>
     <use xlink:href="#m2ca1be30df" x="159.498084" y="188.338783" style="stroke: #000000"/>
     <use xlink:href="#m2ca1be30df" x="199.807291" y="231.57829" style="stroke: #000000"/>
     <use xlink:href="#m2ca1be30df" x="125.579183" y="207.477625" style="stroke: #000000"/>
     <use xlink:href="#m2ca1be30df" x="137.221803" y="167.80564" style="stroke: #000000"/>
     <use xlink:href="#m2ca1be30df" x="215.791108" y="185.321977" style="stroke: #000000"/>
     <use xlink:href="#m2ca1be30df" x="68.199769" y="111.221887" style="stroke: #000000"/>
     <use xlink:href="#m2ca1be30df" x="147.692655" y="202.087411" style="stroke: #000000"/>
     <use xlink:href="#m2ca1be30df" x="137.512908" y="198.960556" style="stroke: #000000"/>
     <use xlink:href="#m2ca1be30df" x="141.08918" y="194.265739" style="stroke: #000000"/>
     <use xlink:href="#m2ca1be30df" x="126.245602" y="138.687007" style="stroke: #000000"/>
     <use xlink:href="#m2ca1be30df" x="121.467916" y="146.913912" style="stroke: #000000"/>
     <use xlink:href="#m2ca1be30df" x="191.277597" y="172.410441" style="stroke: #000000"/>
     <use xlink:href="#m2ca1be30df" x="158.798182" y="207.228184" style="stroke: #000000"/>
     <use xlink:href="#m2ca1be30df" x="139.027971" y="169.666596" style="stroke: #000000"/>
     <use xlink:href="#m2ca1be30df" x="137.444687" y="179.038883" style="stroke: #000000"/>
     <use xlink:href="#m2ca1be30df" x="140.394889" y="215.275768" style="stroke: #000000"/>
     <use xlink:href="#m2ca1be30df" x="79.339252" y="118.325781" style="stroke: #000000"/>
     <use xlink:href="#m2ca1be30df" x="176.483243" y="178.334334" style="stroke: #000000"/>
     <use xlink:href="#m2ca1be30df" x="165.169088" y="207.425297" style="stroke: #000000"/>
     <use xlink:href="#m2ca1be30df" x="124.2069" y="163.792389" style="stroke: #000000"/>
     <use xlink:href="#m2ca1be30df" x="64.11545" y="78.460907" style="stroke: #000000"/>
     <use xlink:href="#m2ca1be30df" x="166.933334" y="209.352728" style="stroke: #000000"/>
     <use xlink:href="#m2ca1be30df" x="120.627407" y="182.969394" style="stroke: #000000"/>
     <use xlink:href="#m2ca1be30df" x="124.789254" y="135.395044" style="stroke: #000000"/>
     <use xlink:href="#m2ca1be30df" x="63.861709" y="75.439039" style="stroke: #000000"/>
     <use xlink:href="#m2ca1be30df" x="95.316077" y="150.39478" style="stroke: #000000"/>
     <use xlink:href="#m2ca1be30df" x="138.503405" y="210.962128" style="stroke: #000000"/>
     <use xlink:href="#m2ca1be30df" x="126.172154" y="192.80942" style="stroke: #000000"/>
     <use xlink:href="#m2ca1be30df" x="112.400231" y="113.178431" style="stroke: #000000"/>
     <use xlink:href="#m2ca1be30df" x="108.764157" y="124.048746" style="stroke: #000000"/>
    </g>
   </g>
   <g id="PathCollection_11">
    <defs>
     <path id="mbc20d569b9" d="M -3 -0 
L 3 3 
L 3 -3 
z
" style="stroke: #ff8c00"/>
    </defs>
    <g clip-path="url(#pe1f478d22f)">
     <use xlink:href="#mbc20d569b9" x="148.909344" y="196.084331" style="fill: #ff8c00; stroke: #ff8c00"/>
     <use xlink:href="#mbc20d569b9" x="142.454223" y="215.301557" style="fill: #ff8c00; stroke: #ff8c00"/>
     <use xlink:href="#mbc20d569b9" x="115.413297" y="152.261722" style="fill: #ff8c00; stroke: #ff8c00"/>
     <use xlink:href="#mbc20d569b9" x="117.59563" y="139.479775" style="fill: #ff8c00; stroke: #ff8c00"/>
     <use xlink:href="#mbc20d569b9" x="143.213014" y="178.47109" style="fill: #ff8c00; stroke: #ff8c00"/>
     <use xlink:href="#mbc20d569b9" x="125.957281" y="216.531651" style="fill: #ff8c00; stroke: #ff8c00"/>
     <use xlink:href="#mbc20d569b9" x="155.028164" y="215.779807" style="fill: #ff8c00; stroke: #ff8c00"/>
     <use xlink:href="#mbc20d569b9" x="156.806228" y="216.17892" style="fill: #ff8c00; stroke: #ff8c00"/>
     <use xlink:href="#mbc20d569b9" x="92.203444" y="98.23783" style="fill: #ff8c00; stroke: #ff8c00"/>
     <use xlink:href="#mbc20d569b9" x="116.621864" y="173.349093" style="fill: #ff8c00; stroke: #ff8c00"/>
     <use xlink:href="#mbc20d569b9" x="157.048542" y="239.385646" style="fill: #ff8c00; stroke: #ff8c00"/>
     <use xlink:href="#mbc20d569b9" x="136.297025" y="172.797098" style="fill: #ff8c00; stroke: #ff8c00"/>
     <use xlink:href="#mbc20d569b9" x="152.818138" y="240.739099" style="fill: #ff8c00; stroke: #ff8c00"/>
     <use xlink:href="#mbc20d569b9" x="151.447263" y="206.677455" style="fill: #ff8c00; stroke: #ff8c00"/>
     <use xlink:href="#mbc20d569b9" x="184.856095" y="195.667471" style="fill: #ff8c00; stroke: #ff8c00"/>
     <use xlink:href="#mbc20d569b9" x="79.39596" y="88.030615" style="fill: #ff8c00; stroke: #ff8c00"/>
     <use xlink:href="#mbc20d569b9" x="130.123996" y="148.328983" style="fill: #ff8c00; stroke: #ff8c00"/>
     <use xlink:href="#mbc20d569b9" x="114.73107" y="107.40524" style="fill: #ff8c00; stroke: #ff8c00"/>
     <use xlink:href="#mbc20d569b9" x="119.826052" y="166.524881" style="fill: #ff8c00; stroke: #ff8c00"/>
     <use xlink:href="#mbc20d569b9" x="131.631482" y="178.406102" style="fill: #ff8c00; stroke: #ff8c00"/>
     <use xlink:href="#mbc20d569b9" x="107.326034" y="122.18892" style="fill: #ff8c00; stroke: #ff8c00"/>
     <use xlink:href="#mbc20d569b9" x="95.315624" y="96.510372" style="fill: #ff8c00; stroke: #ff8c00"/>
     <use xlink:href="#mbc20d569b9" x="173.631057" y="230.846729" style="fill: #ff8c00; stroke: #ff8c00"/>
     <use xlink:href="#mbc20d569b9" x="154.854362" y="217.557772" style="fill: #ff8c00; stroke: #ff8c00"/>
     <use xlink:href="#mbc20d569b9" x="154.852863" y="202.153705" style="fill: #ff8c00; stroke: #ff8c00"/>
     <use xlink:href="#mbc20d569b9" x="167.855126" y="223.495844" style="fill: #ff8c00; stroke: #ff8c00"/>
     <use xlink:href="#mbc20d569b9" x="150.512564" y="212.366068" style="fill: #ff8c00; stroke: #ff8c00"/>
     <use xlink:href="#mbc20d569b9" x="163.735199" y="241.101422" style="fill: #ff8c00; stroke: #ff8c00"/>
     <use xlink:href="#mbc20d569b9" x="134.696669" y="192.825491" style="fill: #ff8c00; stroke: #ff8c00"/>
     <use xlink:href="#mbc20d569b9" x="132.534058" y="189.831346" style="fill: #ff8c00; stroke: #ff8c00"/>
     <use xlink:href="#mbc20d569b9" x="159.00029" y="233.925613" style="fill: #ff8c00; stroke: #ff8c00"/>
     <use xlink:href="#mbc20d569b9" x="150.947459" y="230.626701" style="fill: #ff8c00; stroke: #ff8c00"/>
     <use xlink:href="#mbc20d569b9" x="166.108916" y="213.135621" style="fill: #ff8c00; stroke: #ff8c00"/>
     <use xlink:href="#mbc20d569b9" x="115.011075" y="137.011929" style="fill: #ff8c00; stroke: #ff8c00"/>
     <use xlink:href="#mbc20d569b9" x="109.77696" y="99.820716" style="fill: #ff8c00; stroke: #ff8c00"/>
     <use xlink:href="#mbc20d569b9" x="131.534714" y="172.036857" style="fill: #ff8c00; stroke: #ff8c00"/>
     <use xlink:href="#mbc20d569b9" x="132.474125" y="217.170542" style="fill: #ff8c00; stroke: #ff8c00"/>
     <use xlink:href="#mbc20d569b9" x="102.249977" y="99.256877" style="fill: #ff8c00; stroke: #ff8c00"/>
     <use xlink:href="#mbc20d569b9" x="155.32659" y="241.075837" style="fill: #ff8c00; stroke: #ff8c00"/>
     <use xlink:href="#mbc20d569b9" x="171.823112" y="238.502906" style="fill: #ff8c00; stroke: #ff8c00"/>
     <use xlink:href="#mbc20d569b9" x="137.805836" y="209.259194" style="fill: #ff8c00; stroke: #ff8c00"/>
     <use xlink:href="#mbc20d569b9" x="108.866008" y="149.141898" style="fill: #ff8c00; stroke: #ff8c00"/>
     <use xlink:href="#mbc20d569b9" x="153.968812" y="182.6673" style="fill: #ff8c00; stroke: #ff8c00"/>
     <use xlink:href="#mbc20d569b9" x="133.351071" y="158.06845" style="fill: #ff8c00; stroke: #ff8c00"/>
     <use xlink:href="#mbc20d569b9" x="107.439969" y="137.594868" style="fill: #ff8c00; stroke: #ff8c00"/>
     <use xlink:href="#mbc20d569b9" x="101.544774" y="76.327149" style="fill: #ff8c00; stroke: #ff8c00"/>
     <use xlink:href="#mbc20d569b9" x="141.606474" y="183.241338" style="fill: #ff8c00; stroke: #ff8c00"/>
     <use xlink:href="#mbc20d569b9" x="111.87968" y="153.859222" style="fill: #ff8c00; stroke: #ff8c00"/>
     <use xlink:href="#mbc20d569b9" x="147.706238" y="237.971682" style="fill: #ff8c00; stroke: #ff8c00"/>
     <use xlink:href="#mbc20d569b9" x="146.940869" y="214.969052" style="fill: #ff8c00; stroke: #ff8c00"/>
     <use xlink:href="#mbc20d569b9" x="167.392457" y="205.25194" style="fill: #ff8c00; stroke: #ff8c00"/>
     <use xlink:href="#mbc20d569b9" x="126.506185" y="130.490269" style="fill: #ff8c00; stroke: #ff8c00"/>
     <use xlink:href="#mbc20d569b9" x="149.279076" y="200.807976" style="fill: #ff8c00; stroke: #ff8c00"/>
     <use xlink:href="#mbc20d569b9" x="173.205702" y="226.347962" style="fill: #ff8c00; stroke: #ff8c00"/>
     <use xlink:href="#mbc20d569b9" x="132.658862" y="177.658335" style="fill: #ff8c00; stroke: #ff8c00"/>
     <use xlink:href="#mbc20d569b9" x="123.095305" y="124.736549" style="fill: #ff8c00; stroke: #ff8c00"/>
     <use xlink:href="#mbc20d569b9" x="69.457872" y="94.659583" style="fill: #ff8c00; stroke: #ff8c00"/>
     <use xlink:href="#mbc20d569b9" x="155.782188" y="198.341482" style="fill: #ff8c00; stroke: #ff8c00"/>
     <use xlink:href="#mbc20d569b9" x="143.231434" y="163.262441" style="fill: #ff8c00; stroke: #ff8c00"/>
     <use xlink:href="#mbc20d569b9" x="152.819095" y="213.205561" style="fill: #ff8c00; stroke: #ff8c00"/>
     <use xlink:href="#mbc20d569b9" x="110.096042" y="134.667849" style="fill: #ff8c00; stroke: #ff8c00"/>
     <use xlink:href="#mbc20d569b9" x="137.224145" y="148.869833" style="fill: #ff8c00; stroke: #ff8c00"/>
     <use xlink:href="#mbc20d569b9" x="120.579002" y="160.778544" style="fill: #ff8c00; stroke: #ff8c00"/>
     <use xlink:href="#mbc20d569b9" x="116.400162" y="158.831102" style="fill: #ff8c00; stroke: #ff8c00"/>
    </g>
   </g>
   <g id="matplotlib.axis_1">
    <g id="xtick_1">
     <g id="line2d_1">
      <defs>
       <path id="m41ff93db50" d="M 0 0 
L 0 3.5 
" style="stroke: #000000; stroke-width: 0.8"/>
      </defs>
      <g>
       <use xlink:href="#m41ff93db50" x="61.934564" y="273.312" style="stroke: #000000; stroke-width: 0.8"/>
      </g>
     </g>
     <g id="text_1">
      <!-- −20 -->
      <g transform="translate(51.38222 287.910437) scale(0.1 -0.1)">
       <defs>
        <path id="DejaVuSans-2212" d="M 678 2272 
L 4684 2272 
L 4684 1741 
L 678 1741 
L 678 2272 
z
" transform="scale(0.015625)"/>
        <path id="DejaVuSans-32" d="M 1228 531 
L 3431 531 
L 3431 0 
L 469 0 
L 469 531 
Q 828 903 1448 1529 
Q 2069 2156 2228 2338 
Q 2531 2678 2651 2914 
Q 2772 3150 2772 3378 
Q 2772 3750 2511 3984 
Q 2250 4219 1831 4219 
Q 1534 4219 1204 4116 
Q 875 4013 500 3803 
L 500 4441 
Q 881 4594 1212 4672 
Q 1544 4750 1819 4750 
Q 2544 4750 2975 4387 
Q 3406 4025 3406 3419 
Q 3406 3131 3298 2873 
Q 3191 2616 2906 2266 
Q 2828 2175 2409 1742 
Q 1991 1309 1228 531 
z
" transform="scale(0.015625)"/>
        <path id="DejaVuSans-30" d="M 2034 4250 
Q 1547 4250 1301 3770 
Q 1056 3291 1056 2328 
Q 1056 1369 1301 889 
Q 1547 409 2034 409 
Q 2525 409 2770 889 
Q 3016 1369 3016 2328 
Q 3016 3291 2770 3770 
Q 2525 4250 2034 4250 
z
M 2034 4750 
Q 2819 4750 3233 4129 
Q 3647 3509 3647 2328 
Q 3647 1150 3233 529 
Q 2819 -91 2034 -91 
Q 1250 -91 836 529 
Q 422 1150 422 2328 
Q 422 3509 836 4129 
Q 1250 4750 2034 4750 
z
" transform="scale(0.015625)"/>
       </defs>
       <use xlink:href="#DejaVuSans-2212"/>
       <use xlink:href="#DejaVuSans-32" x="83.789062"/>
       <use xlink:href="#DejaVuSans-30" x="147.412109"/>
      </g>
     </g>
    </g>
    <g id="xtick_2">
     <g id="line2d_2">
      <g>
       <use xlink:href="#m41ff93db50" x="115.378771" y="273.312" style="stroke: #000000; stroke-width: 0.8"/>
      </g>
     </g>
     <g id="text_2">
      <!-- −10 -->
      <g transform="translate(104.826427 287.910437) scale(0.1 -0.1)">
       <defs>
        <path id="DejaVuSans-31" d="M 794 531 
L 1825 531 
L 1825 4091 
L 703 3866 
L 703 4441 
L 1819 4666 
L 2450 4666 
L 2450 531 
L 3481 531 
L 3481 0 
L 794 0 
L 794 531 
z
" transform="scale(0.015625)"/>
       </defs>
       <use xlink:href="#DejaVuSans-2212"/>
       <use xlink:href="#DejaVuSans-31" x="83.789062"/>
       <use xlink:href="#DejaVuSans-30" x="147.412109"/>
      </g>
     </g>
    </g>
    <g id="xtick_3">
     <g id="line2d_3">
      <g>
       <use xlink:href="#m41ff93db50" x="168.822978" y="273.312" style="stroke: #000000; stroke-width: 0.8"/>
      </g>
     </g>
     <g id="text_3">
      <!-- 0 -->
      <g transform="translate(165.641728 287.910437) scale(0.1 -0.1)">
       <use xlink:href="#DejaVuSans-30"/>
      </g>
     </g>
    </g>
    <g id="xtick_4">
     <g id="line2d_4">
      <g>
       <use xlink:href="#m41ff93db50" x="222.267185" y="273.312" style="stroke: #000000; stroke-width: 0.8"/>
      </g>
     </g>
     <g id="text_4">
      <!-- 10 -->
      <g transform="translate(215.904685 287.910437) scale(0.1 -0.1)">
       <use xlink:href="#DejaVuSans-31"/>
       <use xlink:href="#DejaVuSans-30" x="63.623047"/>
      </g>
     </g>
    </g>
    <g id="xtick_5">
     <g id="line2d_5">
      <g>
       <use xlink:href="#m41ff93db50" x="275.711392" y="273.312" style="stroke: #000000; stroke-width: 0.8"/>
      </g>
     </g>
     <g id="text_5">
      <!-- 20 -->
      <g transform="translate(269.348892 287.910437) scale(0.1 -0.1)">
       <use xlink:href="#DejaVuSans-32"/>
       <use xlink:href="#DejaVuSans-30" x="63.623047"/>
      </g>
     </g>
    </g>
    <g id="xtick_6">
     <g id="line2d_6">
      <g>
       <use xlink:href="#m41ff93db50" x="329.155598" y="273.312" style="stroke: #000000; stroke-width: 0.8"/>
      </g>
     </g>
     <g id="text_6">
      <!-- 30 -->
      <g transform="translate(322.793098 287.910437) scale(0.1 -0.1)">
       <defs>
        <path id="DejaVuSans-33" d="M 2597 2516 
Q 3050 2419 3304 2112 
Q 3559 1806 3559 1356 
Q 3559 666 3084 287 
Q 2609 -91 1734 -91 
Q 1441 -91 1130 -33 
Q 819 25 488 141 
L 488 750 
Q 750 597 1062 519 
Q 1375 441 1716 441 
Q 2309 441 2620 675 
Q 2931 909 2931 1356 
Q 2931 1769 2642 2001 
Q 2353 2234 1838 2234 
L 1294 2234 
L 1294 2753 
L 1863 2753 
Q 2328 2753 2575 2939 
Q 2822 3125 2822 3475 
Q 2822 3834 2567 4026 
Q 2313 4219 1838 4219 
Q 1578 4219 1281 4162 
Q 984 4106 628 3988 
L 628 4550 
Q 988 4650 1302 4700 
Q 1616 4750 1894 4750 
Q 2613 4750 3031 4423 
Q 3450 4097 3450 3541 
Q 3450 3153 3228 2886 
Q 3006 2619 2597 2516 
z
" transform="scale(0.015625)"/>
       </defs>
       <use xlink:href="#DejaVuSans-33"/>
       <use xlink:href="#DejaVuSans-30" x="63.623047"/>
      </g>
     </g>
    </g>
    <g id="xtick_7">
     <g id="line2d_7">
      <g>
       <use xlink:href="#m41ff93db50" x="382.599805" y="273.312" style="stroke: #000000; stroke-width: 0.8"/>
      </g>
     </g>
     <g id="text_7">
      <!-- 40 -->
      <g transform="translate(376.237305 287.910437) scale(0.1 -0.1)">
       <defs>
        <path id="DejaVuSans-34" d="M 2419 4116 
L 825 1625 
L 2419 1625 
L 2419 4116 
z
M 2253 4666 
L 3047 4666 
L 3047 1625 
L 3713 1625 
L 3713 1100 
L 3047 1100 
L 3047 0 
L 2419 0 
L 2419 1100 
L 313 1100 
L 313 1709 
L 2253 4666 
z
" transform="scale(0.015625)"/>
       </defs>
       <use xlink:href="#DejaVuSans-34"/>
       <use xlink:href="#DejaVuSans-30" x="63.623047"/>
      </g>
     </g>
    </g>
   </g>
   <g id="matplotlib.axis_2">
    <g id="ytick_1">
     <g id="line2d_8">
      <defs>
       <path id="mb63715c13d" d="M 0 0 
L -3.5 0 
" style="stroke: #000000; stroke-width: 0.8"/>
      </defs>
      <g>
       <use xlink:href="#mb63715c13d" x="35.304688" y="232.951194" style="stroke: #000000; stroke-width: 0.8"/>
      </g>
     </g>
     <g id="text_8">
      <!-- −10 -->
      <g transform="translate(7.2 236.750413) scale(0.1 -0.1)">
       <use xlink:href="#DejaVuSans-2212"/>
       <use xlink:href="#DejaVuSans-31" x="83.789062"/>
       <use xlink:href="#DejaVuSans-30" x="147.412109"/>
      </g>
     </g>
    </g>
    <g id="ytick_2">
     <g id="line2d_9">
      <g>
       <use xlink:href="#mb63715c13d" x="35.304688" y="178.02121" style="stroke: #000000; stroke-width: 0.8"/>
      </g>
     </g>
     <g id="text_9">
      <!-- 0 -->
      <g transform="translate(21.942187 181.820429) scale(0.1 -0.1)">
       <use xlink:href="#DejaVuSans-30"/>
      </g>
     </g>
    </g>
    <g id="ytick_3">
     <g id="line2d_10">
      <g>
       <use xlink:href="#mb63715c13d" x="35.304688" y="123.091226" style="stroke: #000000; stroke-width: 0.8"/>
      </g>
     </g>
     <g id="text_10">
      <!-- 10 -->
      <g transform="translate(15.579687 126.890445) scale(0.1 -0.1)">
       <use xlink:href="#DejaVuSans-31"/>
       <use xlink:href="#DejaVuSans-30" x="63.623047"/>
      </g>
     </g>
    </g>
    <g id="ytick_4">
     <g id="line2d_11">
      <g>
       <use xlink:href="#mb63715c13d" x="35.304688" y="68.161242" style="stroke: #000000; stroke-width: 0.8"/>
      </g>
     </g>
     <g id="text_11">
      <!-- 20 -->
      <g transform="translate(15.579687 71.960461) scale(0.1 -0.1)">
       <use xlink:href="#DejaVuSans-32"/>
       <use xlink:href="#DejaVuSans-30" x="63.623047"/>
      </g>
     </g>
    </g>
    <g id="ytick_5">
     <g id="line2d_12">
      <g>
       <use xlink:href="#mb63715c13d" x="35.304688" y="13.231258" style="stroke: #000000; stroke-width: 0.8"/>
      </g>
     </g>
     <g id="text_12">
      <!-- 30 -->
      <g transform="translate(15.579687 17.030477) scale(0.1 -0.1)">
       <use xlink:href="#DejaVuSans-33"/>
       <use xlink:href="#DejaVuSans-30" x="63.623047"/>
      </g>
     </g>
    </g>
   </g>
   <g id="patch_3">
    <path d="M 35.304688 273.312 
L 35.304688 7.2 
" style="fill: none; stroke: #000000; stroke-width: 0.8; stroke-linejoin: miter; stroke-linecap: square"/>
   </g>
   <g id="patch_4">
    <path d="M 392.424688 273.312 
L 392.424688 7.2 
" style="fill: none; stroke: #000000; stroke-width: 0.8; stroke-linejoin: miter; stroke-linecap: square"/>
   </g>
   <g id="patch_5">
    <path d="M 35.304687 273.312 
L 392.424688 273.312 
" style="fill: none; stroke: #000000; stroke-width: 0.8; stroke-linejoin: miter; stroke-linecap: square"/>
   </g>
   <g id="patch_6">
    <path d="M 35.304687 7.2 
L 392.424688 7.2 
" style="fill: none; stroke: #000000; stroke-width: 0.8; stroke-linejoin: miter; stroke-linecap: square"/>
   </g>
  </g>
 </g>
 <defs>
  <clipPath id="pe1f478d22f">
   <rect x="35.304688" y="7.2" width="357.12" height="266.112"/>
  </clipPath>
 </defs>
</svg>
