<?xml version="1.0" encoding="utf-8" standalone="no"?>
<!DOCTYPE svg PUBLIC "-//W3C//DTD SVG 1.1//EN"
  "http://www.w3.org/Graphics/SVG/1.1/DTD/svg11.dtd">
<svg xmlns:xlink="http://www.w3.org/1999/xlink" width="399.624687pt" height="297.190125pt" viewBox="0 0 399.624687 297.190125" xmlns="http://www.w3.org/2000/svg" version="1.1">
 <metadata>
  <rdf:RDF xmlns:dc="http://purl.org/dc/elements/1.1/" xmlns:cc="http://creativecommons.org/ns#" xmlns:rdf="http://www.w3.org/1999/02/22-rdf-syntax-ns#">
   <cc:Work>
    <dc:type rdf:resource="http://purl.org/dc/dcmitype/StillImage"/>
    <dc:date>2023-11-13T00:17:58.463455</dc:date>
    <dc:format>image/svg+xml</dc:format>
    <dc:creator>
     <cc:Agent>
      <dc:title>Matplotlib v3.8.0, https://matplotlib.org/</dc:title>
     </cc:Agent>
    </dc:creator>
   </cc:Work>
  </rdf:RDF>
 </metadata>
 <defs>
  <style type="text/css">*{stroke-linejoin: round; stroke-linecap: butt}</style>
 </defs>
 <g id="figure_1">
  <g id="patch_1">
   <path d="M 0 297.190125 
L 399.624687 297.190125 
L 399.624687 0 
L 0 0 
z
" style="fill: #ffffff"/>
  </g>
  <g id="axes_1">
   <g id="patch_2">
    <path d="M 35.304688 273.312 
L 392.424688 273.312 
L 392.424688 7.2 
L 35.304688 7.2 
z
" style="fill: #ffffff"/>
   </g>
   <g id="PathCollection_1">
    <defs>
     <path id="m961eebb22a" d="M 0 1.5 
C 0.397805 1.5 0.77937 1.341951 1.06066 1.06066 
C 1.341951 0.77937 1.5 0.397805 1.5 0 
C 1.5 -0.397805 1.341951 -0.77937 1.06066 -1.06066 
C 0.77937 -1.341951 0.397805 -1.5 0 -1.5 
C -0.397805 -1.5 -0.77937 -1.341951 -1.06066 -1.06066 
C -1.341951 -0.77937 -1.5 -0.397805 -1.5 0 
C -1.5 0.397805 -1.341951 0.77937 -1.06066 1.06066 
C -0.77937 1.341951 -0.397805 1.5 0 1.5 
z
" style="stroke: #ff8c00"/>
    </defs>
    <g clip-path="url(#pc4288b0941)">
     <use xlink:href="#m961eebb22a" x="160.450336" y="234.196264" style="fill: #ff8c00; stroke: #ff8c00"/>
     <use xlink:href="#m961eebb22a" x="145.012974" y="210.319713" style="fill: #ff8c00; stroke: #ff8c00"/>
     <use xlink:href="#m961eebb22a" x="181.13155" y="208.454563" style="fill: #ff8c00; stroke: #ff8c00"/>
     <use xlink:href="#m961eebb22a" x="183.223282" y="193.538111" style="fill: #ff8c00; stroke: #ff8c00"/>
     <use xlink:href="#m961eebb22a" x="137.904349" y="223.987452" style="fill: #ff8c00; stroke: #ff8c00"/>
     <use xlink:href="#m961eebb22a" x="162.505827" y="255.943695" style="fill: #ff8c00; stroke: #ff8c00"/>
     <use xlink:href="#m961eebb22a" x="102.619836" y="251.292018" style="fill: #ff8c00; stroke: #ff8c00"/>
     <use xlink:href="#m961eebb22a" x="149.456075" y="237.183253" style="fill: #ff8c00; stroke: #ff8c00"/>
     <use xlink:href="#m961eebb22a" x="174.634473" y="215.20395" style="fill: #ff8c00; stroke: #ff8c00"/>
     <use xlink:href="#m961eebb22a" x="135.677224" y="232.401408" style="fill: #ff8c00; stroke: #ff8c00"/>
     <use xlink:href="#m961eebb22a" x="188.177786" y="171.260612" style="fill: #ff8c00; stroke: #ff8c00"/>
     <use xlink:href="#m961eebb22a" x="116.742982" y="221.00951" style="fill: #ff8c00; stroke: #ff8c00"/>
     <use xlink:href="#m961eebb22a" x="138.627718" y="235.40638" style="fill: #ff8c00; stroke: #ff8c00"/>
     <use xlink:href="#m961eebb22a" x="151.565061" y="213.697252" style="fill: #ff8c00; stroke: #ff8c00"/>
    </g>
   </g>
   <g id="PathCollection_2">
    <defs>
     <path id="m41c84e1c3c" d="M 0 1.5 
C 0.397805 1.5 0.77937 1.341951 1.06066 1.06066 
C 1.341951 0.77937 1.5 0.397805 1.5 0 
C 1.5 -0.397805 1.341951 -0.77937 1.06066 -1.06066 
C 0.77937 -1.341951 0.397805 -1.5 0 -1.5 
C -0.397805 -1.5 -0.77937 -1.341951 -1.06066 -1.06066 
C -1.341951 -0.77937 -1.5 -0.397805 -1.5 0 
C -1.5 0.397805 -1.341951 0.77937 -1.06066 1.06066 
C -0.77937 1.341951 -0.397805 1.5 0 1.5 
z
" style="stroke: #006400"/>
    </defs>
    <g clip-path="url(#pc4288b0941)">
     <use xlink:href="#m41c84e1c3c" x="190.829348" y="92.592296" style="fill: #006400; stroke: #006400"/>
     <use xlink:href="#m41c84e1c3c" x="209.7246" y="122.208708" style="fill: #006400; stroke: #006400"/>
     <use xlink:href="#m41c84e1c3c" x="347.311571" y="86.056636" style="fill: #006400; stroke: #006400"/>
     <use xlink:href="#m41c84e1c3c" x="242.950475" y="181.890148" style="fill: #006400; stroke: #006400"/>
     <use xlink:href="#m41c84e1c3c" x="230.981039" y="116.586454" style="fill: #006400; stroke: #006400"/>
     <use xlink:href="#m41c84e1c3c" x="169.9292" y="19.296" style="fill: #006400; stroke: #006400"/>
     <use xlink:href="#m41c84e1c3c" x="305.185976" y="135.855389" style="fill: #006400; stroke: #006400"/>
     <use xlink:href="#m41c84e1c3c" x="183.821785" y="94.065254" style="fill: #006400; stroke: #006400"/>
     <use xlink:href="#m41c84e1c3c" x="190.628199" y="128.791396" style="fill: #006400; stroke: #006400"/>
     <use xlink:href="#m41c84e1c3c" x="180.628312" y="160.552579" style="fill: #006400; stroke: #006400"/>
     <use xlink:href="#m41c84e1c3c" x="191.652813" y="164.384247" style="fill: #006400; stroke: #006400"/>
     <use xlink:href="#m41c84e1c3c" x="242.731482" y="101.532385" style="fill: #006400; stroke: #006400"/>
     <use xlink:href="#m41c84e1c3c" x="271.088473" y="123.053758" style="fill: #006400; stroke: #006400"/>
     <use xlink:href="#m41c84e1c3c" x="178.186875" y="220.876112" style="fill: #006400; stroke: #006400"/>
     <use xlink:href="#m41c84e1c3c" x="190.961552" y="155.518337" style="fill: #006400; stroke: #006400"/>
     <use xlink:href="#m41c84e1c3c" x="322.202254" y="140.049855" style="fill: #006400; stroke: #006400"/>
     <use xlink:href="#m41c84e1c3c" x="376.19196" y="66.91396" style="fill: #006400; stroke: #006400"/>
    </g>
   </g>
   <g id="PathCollection_3">
    <defs>
     <path id="m9b7ade0286" d="M 0 1.5 
C 0.397805 1.5 0.77937 1.341951 1.06066 1.06066 
C 1.341951 0.77937 1.5 0.397805 1.5 0 
C 1.5 -0.397805 1.341951 -0.77937 1.06066 -1.06066 
C 0.77937 -1.341951 0.397805 -1.5 0 -1.5 
C -0.397805 -1.5 -0.77937 -1.341951 -1.06066 -1.06066 
C -1.341951 -0.77937 -1.5 -0.397805 -1.5 0 
C -1.5 0.397805 -1.341951 0.77937 -1.06066 1.06066 
C -0.77937 1.341951 -0.397805 1.5 0 1.5 
z
" style="stroke: #2f4f4f"/>
    </defs>
    <g clip-path="url(#pc4288b0941)">
     <use xlink:href="#m9b7ade0286" x="66.585225" y="168.630157" style="fill: #2f4f4f; stroke: #2f4f4f"/>
     <use xlink:href="#m9b7ade0286" x="95.858389" y="229.42597" style="fill: #2f4f4f; stroke: #2f4f4f"/>
     <use xlink:href="#m9b7ade0286" x="75.622149" y="195.734232" style="fill: #2f4f4f; stroke: #2f4f4f"/>
     <use xlink:href="#m9b7ade0286" x="105.255501" y="124.025547" style="fill: #2f4f4f; stroke: #2f4f4f"/>
     <use xlink:href="#m9b7ade0286" x="93.591132" y="222.270379" style="fill: #2f4f4f; stroke: #2f4f4f"/>
     <use xlink:href="#m9b7ade0286" x="69.506417" y="183.795865" style="fill: #2f4f4f; stroke: #2f4f4f"/>
     <use xlink:href="#m9b7ade0286" x="81.685346" y="189.800004" style="fill: #2f4f4f; stroke: #2f4f4f"/>
     <use xlink:href="#m9b7ade0286" x="102.1483" y="244.59142" style="fill: #2f4f4f; stroke: #2f4f4f"/>
     <use xlink:href="#m9b7ade0286" x="99.236984" y="195.388879" style="fill: #2f4f4f; stroke: #2f4f4f"/>
     <use xlink:href="#m9b7ade0286" x="82.657706" y="189.957586" style="fill: #2f4f4f; stroke: #2f4f4f"/>
     <use xlink:href="#m9b7ade0286" x="144.611385" y="194.264613" style="fill: #2f4f4f; stroke: #2f4f4f"/>
     <use xlink:href="#m9b7ade0286" x="166.465776" y="104.989629" style="fill: #2f4f4f; stroke: #2f4f4f"/>
     <use xlink:href="#m9b7ade0286" x="82.277366" y="208.822354" style="fill: #2f4f4f; stroke: #2f4f4f"/>
     <use xlink:href="#m9b7ade0286" x="96.582256" y="182.313105" style="fill: #2f4f4f; stroke: #2f4f4f"/>
     <use xlink:href="#m9b7ade0286" x="83.813867" y="133.383952" style="fill: #2f4f4f; stroke: #2f4f4f"/>
     <use xlink:href="#m9b7ade0286" x="81.764455" y="123.52058" style="fill: #2f4f4f; stroke: #2f4f4f"/>
    </g>
   </g>
   <g id="PathCollection_4">
    <defs>
     <path id="m2667f2e5bd" d="M 0 1.5 
C 0.397805 1.5 0.77937 1.341951 1.06066 1.06066 
C 1.341951 0.77937 1.5 0.397805 1.5 0 
C 1.5 -0.397805 1.341951 -0.77937 1.06066 -1.06066 
C 0.77937 -1.341951 0.397805 -1.5 0 -1.5 
C -0.397805 -1.5 -0.77937 -1.341951 -1.06066 -1.06066 
C -1.341951 -0.77937 -1.5 -0.397805 -1.5 0 
C -1.5 0.397805 -1.341951 0.77937 -1.06066 1.06066 
C -0.77937 1.341951 -0.397805 1.5 0 1.5 
z
" style="stroke: #00bfff"/>
    </defs>
    <g clip-path="url(#pc4288b0941)">
     <use xlink:href="#m2667f2e5bd" x="92.482491" y="207.055024" style="fill: #00bfff; stroke: #00bfff"/>
     <use xlink:href="#m2667f2e5bd" x="71.573279" y="121.478428" style="fill: #00bfff; stroke: #00bfff"/>
     <use xlink:href="#m2667f2e5bd" x="99.585191" y="229.74888" style="fill: #00bfff; stroke: #00bfff"/>
     <use xlink:href="#m2667f2e5bd" x="78.274769" y="157.799511" style="fill: #00bfff; stroke: #00bfff"/>
     <use xlink:href="#m2667f2e5bd" x="83.945886" y="163.511817" style="fill: #00bfff; stroke: #00bfff"/>
     <use xlink:href="#m2667f2e5bd" x="91.375549" y="173.083196" style="fill: #00bfff; stroke: #00bfff"/>
     <use xlink:href="#m2667f2e5bd" x="86.263566" y="161.458549" style="fill: #00bfff; stroke: #00bfff"/>
     <use xlink:href="#m2667f2e5bd" x="68.989939" y="194.141403" style="fill: #00bfff; stroke: #00bfff"/>
     <use xlink:href="#m2667f2e5bd" x="64.009936" y="152.219018" style="fill: #00bfff; stroke: #00bfff"/>
     <use xlink:href="#m2667f2e5bd" x="100.907878" y="242.15385" style="fill: #00bfff; stroke: #00bfff"/>
     <use xlink:href="#m2667f2e5bd" x="106.852269" y="152.073719" style="fill: #00bfff; stroke: #00bfff"/>
     <use xlink:href="#m2667f2e5bd" x="64.020711" y="150.807191" style="fill: #00bfff; stroke: #00bfff"/>
    </g>
   </g>
   <g id="PathCollection_5">
    <defs>
     <path id="m503bac8b8d" d="M 0 1.5 
C 0.397805 1.5 0.77937 1.341951 1.06066 1.06066 
C 1.341951 0.77937 1.5 0.397805 1.5 0 
C 1.5 -0.397805 1.341951 -0.77937 1.06066 -1.06066 
C 0.77937 -1.341951 0.397805 -1.5 0 -1.5 
C -0.397805 -1.5 -0.77937 -1.341951 -1.06066 -1.06066 
C -1.341951 -0.77937 -1.5 -0.397805 -1.5 0 
C -1.5 0.397805 -1.341951 0.77937 -1.06066 1.06066 
C -0.77937 1.341951 -0.397805 1.5 0 1.5 
z
" style="stroke: #ffff00"/>
    </defs>
    <g clip-path="url(#pc4288b0941)">
     <use xlink:href="#m503bac8b8d" x="84.214053" y="113.358407" style="fill: #ffff00; stroke: #ffff00"/>
     <use xlink:href="#m503bac8b8d" x="104.199965" y="140.527696" style="fill: #ffff00; stroke: #ffff00"/>
     <use xlink:href="#m503bac8b8d" x="61.522524" y="154.495566" style="fill: #ffff00; stroke: #ffff00"/>
     <use xlink:href="#m503bac8b8d" x="58.454426" y="139.696996" style="fill: #ffff00; stroke: #ffff00"/>
     <use xlink:href="#m503bac8b8d" x="84.674887" y="148.78917" style="fill: #ffff00; stroke: #ffff00"/>
     <use xlink:href="#m503bac8b8d" x="116.41821" y="138.865009" style="fill: #ffff00; stroke: #ffff00"/>
     <use xlink:href="#m503bac8b8d" x="92.202291" y="175.539017" style="fill: #ffff00; stroke: #ffff00"/>
     <use xlink:href="#m503bac8b8d" x="76.606996" y="160.121286" style="fill: #ffff00; stroke: #ffff00"/>
     <use xlink:href="#m503bac8b8d" x="54.045867" y="108.503701" style="fill: #ffff00; stroke: #ffff00"/>
     <use xlink:href="#m503bac8b8d" x="105.590067" y="212.695337" style="fill: #ffff00; stroke: #ffff00"/>
     <use xlink:href="#m503bac8b8d" x="60.327448" y="78.053768" style="fill: #ffff00; stroke: #ffff00"/>
     <use xlink:href="#m503bac8b8d" x="62.851917" y="91.273845" style="fill: #ffff00; stroke: #ffff00"/>
    </g>
   </g>
   <g id="PathCollection_6">
    <defs>
     <path id="m7a3c0f9ff8" d="M 0 1.5 
C 0.397805 1.5 0.77937 1.341951 1.06066 1.06066 
C 1.341951 0.77937 1.5 0.397805 1.5 0 
C 1.5 -0.397805 1.341951 -0.77937 1.06066 -1.06066 
C 0.77937 -1.341951 0.397805 -1.5 0 -1.5 
C -0.397805 -1.5 -0.77937 -1.341951 -1.06066 -1.06066 
C -1.341951 -0.77937 -1.5 -0.397805 -1.5 0 
C -1.5 0.397805 -1.341951 0.77937 -1.06066 1.06066 
C -0.77937 1.341951 -0.397805 1.5 0 1.5 
z
" style="stroke: #00ffff"/>
    </defs>
    <g clip-path="url(#pc4288b0941)">
     <use xlink:href="#m7a3c0f9ff8" x="119.708706" y="69.480618" style="fill: #00ffff; stroke: #00ffff"/>
     <use xlink:href="#m7a3c0f9ff8" x="96.116934" y="118.039666" style="fill: #00ffff; stroke: #00ffff"/>
     <use xlink:href="#m7a3c0f9ff8" x="74.061568" y="162.466402" style="fill: #00ffff; stroke: #00ffff"/>
     <use xlink:href="#m7a3c0f9ff8" x="176.857377" y="195.08737" style="fill: #00ffff; stroke: #00ffff"/>
     <use xlink:href="#m7a3c0f9ff8" x="88.948433" y="118.342464" style="fill: #00ffff; stroke: #00ffff"/>
     <use xlink:href="#m7a3c0f9ff8" x="75.228445" y="152.711867" style="fill: #00ffff; stroke: #00ffff"/>
     <use xlink:href="#m7a3c0f9ff8" x="81.381116" y="99.495295" style="fill: #00ffff; stroke: #00ffff"/>
     <use xlink:href="#m7a3c0f9ff8" x="87.958767" y="108.844993" style="fill: #00ffff; stroke: #00ffff"/>
     <use xlink:href="#m7a3c0f9ff8" x="87.522002" y="150.93445" style="fill: #00ffff; stroke: #00ffff"/>
     <use xlink:href="#m7a3c0f9ff8" x="81.972543" y="125.759479" style="fill: #00ffff; stroke: #00ffff"/>
     <use xlink:href="#m7a3c0f9ff8" x="89.876532" y="131.359875" style="fill: #00ffff; stroke: #00ffff"/>
     <use xlink:href="#m7a3c0f9ff8" x="114.041892" y="142.978637" style="fill: #00ffff; stroke: #00ffff"/>
    </g>
   </g>
   <g id="PathCollection_7">
    <defs>
     <path id="me1ac3247a5" d="M 0 1.5 
C 0.397805 1.5 0.77937 1.341951 1.06066 1.06066 
C 1.341951 0.77937 1.5 0.397805 1.5 0 
C 1.5 -0.397805 1.341951 -0.77937 1.06066 -1.06066 
C 0.77937 -1.341951 0.397805 -1.5 0 -1.5 
C -0.397805 -1.5 -0.77937 -1.341951 -1.06066 -1.06066 
C -1.341951 -0.77937 -1.5 -0.397805 -1.5 0 
C -1.5 0.397805 -1.341951 0.77937 -1.06066 1.06066 
C -0.77937 1.341951 -0.397805 1.5 0 1.5 
z
" style="stroke: #0000ff"/>
    </defs>
    <g clip-path="url(#pc4288b0941)">
     <use xlink:href="#me1ac3247a5" x="85.237013" y="145.728424" style="fill: #0000ff; stroke: #0000ff"/>
     <use xlink:href="#me1ac3247a5" x="117.798046" y="172.250569" style="fill: #0000ff; stroke: #0000ff"/>
     <use xlink:href="#me1ac3247a5" x="105.946826" y="128.587383" style="fill: #0000ff; stroke: #0000ff"/>
     <use xlink:href="#me1ac3247a5" x="128.712077" y="131.147211" style="fill: #0000ff; stroke: #0000ff"/>
     <use xlink:href="#me1ac3247a5" x="127.230873" y="144.02834" style="fill: #0000ff; stroke: #0000ff"/>
     <use xlink:href="#me1ac3247a5" x="77.303696" y="164.579739" style="fill: #0000ff; stroke: #0000ff"/>
     <use xlink:href="#me1ac3247a5" x="118.914026" y="155.900831" style="fill: #0000ff; stroke: #0000ff"/>
     <use xlink:href="#me1ac3247a5" x="117.136512" y="138.380576" style="fill: #0000ff; stroke: #0000ff"/>
     <use xlink:href="#me1ac3247a5" x="143.75521" y="248.074614" style="fill: #0000ff; stroke: #0000ff"/>
     <use xlink:href="#me1ac3247a5" x="88.891221" y="170.624632" style="fill: #0000ff; stroke: #0000ff"/>
     <use xlink:href="#me1ac3247a5" x="100.102442" y="102.977341" style="fill: #0000ff; stroke: #0000ff"/>
     <use xlink:href="#me1ac3247a5" x="116.318446" y="122.29701" style="fill: #0000ff; stroke: #0000ff"/>
     <use xlink:href="#me1ac3247a5" x="100.967014" y="191.797411" style="fill: #0000ff; stroke: #0000ff"/>
     <use xlink:href="#me1ac3247a5" x="68.246813" y="216.996582" style="fill: #0000ff; stroke: #0000ff"/>
     <use xlink:href="#me1ac3247a5" x="91.439617" y="180.617278" style="fill: #0000ff; stroke: #0000ff"/>
     <use xlink:href="#me1ac3247a5" x="100.249248" y="163.563926" style="fill: #0000ff; stroke: #0000ff"/>
     <use xlink:href="#me1ac3247a5" x="97.313954" y="134.922092" style="fill: #0000ff; stroke: #0000ff"/>
    </g>
   </g>
   <g id="PathCollection_8">
    <defs>
     <path id="md8a2b1337f" d="M 0 1.5 
C 0.397805 1.5 0.77937 1.341951 1.06066 1.06066 
C 1.341951 0.77937 1.5 0.397805 1.5 0 
C 1.5 -0.397805 1.341951 -0.77937 1.06066 -1.06066 
C 0.77937 -1.341951 0.397805 -1.5 0 -1.5 
C -0.397805 -1.5 -0.77937 -1.341951 -1.06066 -1.06066 
C -1.341951 -0.77937 -1.5 -0.397805 -1.5 0 
C -1.5 0.397805 -1.341951 0.77937 -1.06066 1.06066 
C -0.77937 1.341951 -0.397805 1.5 0 1.5 
z
" style="stroke: #dc143c"/>
    </defs>
    <g clip-path="url(#pc4288b0941)">
     <use xlink:href="#md8a2b1337f" x="99.701358" y="209.445206" style="fill: #dc143c; stroke: #dc143c"/>
     <use xlink:href="#md8a2b1337f" x="135.597395" y="257.336664" style="fill: #dc143c; stroke: #dc143c"/>
     <use xlink:href="#md8a2b1337f" x="131.710195" y="257.535744" style="fill: #dc143c; stroke: #dc143c"/>
     <use xlink:href="#md8a2b1337f" x="160.152361" y="186.73873" style="fill: #dc143c; stroke: #dc143c"/>
     <use xlink:href="#md8a2b1337f" x="125.679137" y="208.681022" style="fill: #dc143c; stroke: #dc143c"/>
     <use xlink:href="#md8a2b1337f" x="145.512925" y="226.817711" style="fill: #dc143c; stroke: #dc143c"/>
     <use xlink:href="#md8a2b1337f" x="140.380541" y="226.248589" style="fill: #dc143c; stroke: #dc143c"/>
     <use xlink:href="#md8a2b1337f" x="173.11153" y="189.788792" style="fill: #dc143c; stroke: #dc143c"/>
     <use xlink:href="#md8a2b1337f" x="166.255881" y="247.762914" style="fill: #dc143c; stroke: #dc143c"/>
     <use xlink:href="#md8a2b1337f" x="132.419206" y="212.242259" style="fill: #dc143c; stroke: #dc143c"/>
     <use xlink:href="#md8a2b1337f" x="104.893218" y="160.254927" style="fill: #dc143c; stroke: #dc143c"/>
     <use xlink:href="#md8a2b1337f" x="136.479901" y="225.822793" style="fill: #dc143c; stroke: #dc143c"/>
     <use xlink:href="#md8a2b1337f" x="133.147694" y="213.599378" style="fill: #dc143c; stroke: #dc143c"/>
     <use xlink:href="#md8a2b1337f" x="174.794897" y="219.470071" style="fill: #dc143c; stroke: #dc143c"/>
    </g>
   </g>
   <g id="PathCollection_9">
    <defs>
     <path id="m7fccd4c00c" d="M 0 1.5 
C 0.397805 1.5 0.77937 1.341951 1.06066 1.06066 
C 1.341951 0.77937 1.5 0.397805 1.5 0 
C 1.5 -0.397805 1.341951 -0.77937 1.06066 -1.06066 
C 0.77937 -1.341951 0.397805 -1.5 0 -1.5 
C -0.397805 -1.5 -0.77937 -1.341951 -1.06066 -1.06066 
C -1.341951 -0.77937 -1.5 -0.397805 -1.5 0 
C -1.5 0.397805 -1.341951 0.77937 -1.06066 1.06066 
C -0.77937 1.341951 -0.397805 1.5 0 1.5 
z
" style="stroke: #ffe4c4"/>
    </defs>
    <g clip-path="url(#pc4288b0941)">
     <use xlink:href="#m7fccd4c00c" x="174.73887" y="162.178642" style="fill: #ffe4c4; stroke: #ffe4c4"/>
     <use xlink:href="#m7fccd4c00c" x="188.244835" y="168.977478" style="fill: #ffe4c4; stroke: #ffe4c4"/>
     <use xlink:href="#m7fccd4c00c" x="170.364679" y="198.137378" style="fill: #ffe4c4; stroke: #ffe4c4"/>
     <use xlink:href="#m7fccd4c00c" x="241.242505" y="149.273717" style="fill: #ffe4c4; stroke: #ffe4c4"/>
     <use xlink:href="#m7fccd4c00c" x="109.10868" y="135.5509" style="fill: #ffe4c4; stroke: #ffe4c4"/>
     <use xlink:href="#m7fccd4c00c" x="142.727796" y="81.974665" style="fill: #ffe4c4; stroke: #ffe4c4"/>
     <use xlink:href="#m7fccd4c00c" x="189.347348" y="175.373797" style="fill: #ffe4c4; stroke: #ffe4c4"/>
     <use xlink:href="#m7fccd4c00c" x="147.759216" y="202.202999" style="fill: #ffe4c4; stroke: #ffe4c4"/>
     <use xlink:href="#m7fccd4c00c" x="269.15508" y="158.83031" style="fill: #ffe4c4; stroke: #ffe4c4"/>
     <use xlink:href="#m7fccd4c00c" x="179.524001" y="134.922069" style="fill: #ffe4c4; stroke: #ffe4c4"/>
     <use xlink:href="#m7fccd4c00c" x="170.633344" y="190.766431" style="fill: #ffe4c4; stroke: #ffe4c4"/>
     <use xlink:href="#m7fccd4c00c" x="250.527732" y="137.07236" style="fill: #ffe4c4; stroke: #ffe4c4"/>
     <use xlink:href="#m7fccd4c00c" x="187.895125" y="155.756729" style="fill: #ffe4c4; stroke: #ffe4c4"/>
     <use xlink:href="#m7fccd4c00c" x="192.580826" y="127.343502" style="fill: #ffe4c4; stroke: #ffe4c4"/>
    </g>
   </g>
   <g id="PathCollection_10">
    <defs>
     <path id="mf672dd24b4" d="M -2.99994 2.99994 
L 3.00006 2.99994 
L 3.00006 -3.00006 
L -2.99994 -3.00006 
z
" style="stroke: #000000"/>
    </defs>
    <g clip-path="url(#pc4288b0941)">
     <use xlink:href="#mf672dd24b4" x="131.54707" y="129.964805" style="stroke: #000000"/>
     <use xlink:href="#mf672dd24b4" x="74.970278" y="119.93036" style="stroke: #000000"/>
     <use xlink:href="#mf672dd24b4" x="71.299581" y="155.535654" style="stroke: #000000"/>
     <use xlink:href="#mf672dd24b4" x="56.757841" y="148.495344" style="stroke: #000000"/>
     <use xlink:href="#mf672dd24b4" x="78.477828" y="141.156204" style="stroke: #000000"/>
     <use xlink:href="#mf672dd24b4" x="113.046809" y="166.738251" style="stroke: #000000"/>
     <use xlink:href="#mf672dd24b4" x="74.606671" y="133.621149" style="stroke: #000000"/>
     <use xlink:href="#mf672dd24b4" x="58.404835" y="126.79157" style="stroke: #000000"/>
     <use xlink:href="#mf672dd24b4" x="109.133161" y="211.800664" style="stroke: #000000"/>
     <use xlink:href="#mf672dd24b4" x="75.740948" y="141.926706" style="stroke: #000000"/>
     <use xlink:href="#mf672dd24b4" x="102.418703" y="137.55434" style="stroke: #000000"/>
     <use xlink:href="#mf672dd24b4" x="79.667058" y="101.167933" style="stroke: #000000"/>
     <use xlink:href="#mf672dd24b4" x="84.881023" y="116.552359" style="stroke: #000000"/>
     <use xlink:href="#mf672dd24b4" x="86.746501" y="154.226177" style="stroke: #000000"/>
     <use xlink:href="#mf672dd24b4" x="108.74035" y="113.092331" style="stroke: #000000"/>
     <use xlink:href="#mf672dd24b4" x="62.879888" y="153.96712" style="stroke: #000000"/>
     <use xlink:href="#mf672dd24b4" x="77.515847" y="125.798656" style="stroke: #000000"/>
     <use xlink:href="#mf672dd24b4" x="118.726351" y="112.647181" style="stroke: #000000"/>
     <use xlink:href="#mf672dd24b4" x="76.034101" y="146.725884" style="stroke: #000000"/>
     <use xlink:href="#mf672dd24b4" x="73.780083" y="135.384266" style="stroke: #000000"/>
     <use xlink:href="#mf672dd24b4" x="118.838967" y="168.424396" style="stroke: #000000"/>
     <use xlink:href="#mf672dd24b4" x="102.237441" y="193.62649" style="stroke: #000000"/>
     <use xlink:href="#mf672dd24b4" x="92.503887" y="193.115762" style="stroke: #000000"/>
     <use xlink:href="#mf672dd24b4" x="62.388222" y="75.37585" style="stroke: #000000"/>
     <use xlink:href="#mf672dd24b4" x="95.474117" y="205.439534" style="stroke: #000000"/>
     <use xlink:href="#mf672dd24b4" x="51.537415" y="104.283788" style="stroke: #000000"/>
     <use xlink:href="#mf672dd24b4" x="78.417805" y="110.798813" style="stroke: #000000"/>
     <use xlink:href="#mf672dd24b4" x="91.26063" y="189.471773" style="stroke: #000000"/>
     <use xlink:href="#mf672dd24b4" x="107.004961" y="150.153708" style="stroke: #000000"/>
     <use xlink:href="#mf672dd24b4" x="88.276565" y="98.422795" style="stroke: #000000"/>
     <use xlink:href="#mf672dd24b4" x="79.373834" y="121.731349" style="stroke: #000000"/>
     <use xlink:href="#mf672dd24b4" x="61.763895" y="191.729377" style="stroke: #000000"/>
     <use xlink:href="#mf672dd24b4" x="143.388955" y="238.928849" style="stroke: #000000"/>
     <use xlink:href="#mf672dd24b4" x="68.461142" y="129.427594" style="stroke: #000000"/>
     <use xlink:href="#mf672dd24b4" x="129.72754" y="205.031223" style="stroke: #000000"/>
     <use xlink:href="#mf672dd24b4" x="186.287369" y="158.240481" style="stroke: #000000"/>
     <use xlink:href="#mf672dd24b4" x="79.835702" y="158.394383" style="stroke: #000000"/>
     <use xlink:href="#mf672dd24b4" x="80.880998" y="177.524101" style="stroke: #000000"/>
     <use xlink:href="#mf672dd24b4" x="92.511455" y="150.815327" style="stroke: #000000"/>
     <use xlink:href="#mf672dd24b4" x="76.039474" y="149.406771" style="stroke: #000000"/>
     <use xlink:href="#mf672dd24b4" x="78.228174" y="172.12584" style="stroke: #000000"/>
     <use xlink:href="#mf672dd24b4" x="112.0809" y="133.491963" style="stroke: #000000"/>
     <use xlink:href="#mf672dd24b4" x="106.503177" y="186.954771" style="stroke: #000000"/>
     <use xlink:href="#mf672dd24b4" x="104.120651" y="166.565435" style="stroke: #000000"/>
     <use xlink:href="#mf672dd24b4" x="66.760973" y="96.183407" style="stroke: #000000"/>
     <use xlink:href="#mf672dd24b4" x="111.660793" y="170.392027" style="stroke: #000000"/>
     <use xlink:href="#mf672dd24b4" x="88.053896" y="162.276495" style="stroke: #000000"/>
     <use xlink:href="#mf672dd24b4" x="98.43176" y="137.623123" style="stroke: #000000"/>
     <use xlink:href="#mf672dd24b4" x="120.816778" y="215.563939" style="stroke: #000000"/>
     <use xlink:href="#mf672dd24b4" x="91.373163" y="139.416955" style="stroke: #000000"/>
     <use xlink:href="#mf672dd24b4" x="83.153157" y="103.508567" style="stroke: #000000"/>
     <use xlink:href="#mf672dd24b4" x="82.088741" y="123.488505" style="stroke: #000000"/>
     <use xlink:href="#mf672dd24b4" x="120.742494" y="183.514095" style="stroke: #000000"/>
     <use xlink:href="#mf672dd24b4" x="66.895222" y="212.366843" style="stroke: #000000"/>
     <use xlink:href="#mf672dd24b4" x="76.552233" y="112.77356" style="stroke: #000000"/>
     <use xlink:href="#mf672dd24b4" x="88.133018" y="261.216" style="stroke: #000000"/>
     <use xlink:href="#mf672dd24b4" x="88.878557" y="162.53051" style="stroke: #000000"/>
     <use xlink:href="#mf672dd24b4" x="87.535996" y="160.028457" style="stroke: #000000"/>
     <use xlink:href="#mf672dd24b4" x="86.624088" y="90.421042" style="stroke: #000000"/>
     <use xlink:href="#mf672dd24b4" x="64.304273" y="76.669339" style="stroke: #000000"/>
     <use xlink:href="#mf672dd24b4" x="76.293752" y="151.38341" style="stroke: #000000"/>
     <use xlink:href="#mf672dd24b4" x="106.586735" y="195.489522" style="stroke: #000000"/>
     <use xlink:href="#mf672dd24b4" x="99.327245" y="240.149935" style="stroke: #000000"/>
     <use xlink:href="#mf672dd24b4" x="98.019568" y="148.005314" style="stroke: #000000"/>
    </g>
   </g>
   <g id="PathCollection_11">
    <defs>
     <path id="m979adebd21" d="M -3 -0 
L 3 3 
L 3 -3 
z
" style="stroke: #ff8c00"/>
    </defs>
    <g clip-path="url(#pc4288b0941)">
     <use xlink:href="#m979adebd21" x="80.109619" y="169.0201" style="fill: #ff8c00; stroke: #ff8c00"/>
     <use xlink:href="#m979adebd21" x="85.16784" y="167.900144" style="fill: #ff8c00; stroke: #ff8c00"/>
     <use xlink:href="#m979adebd21" x="65.596806" y="140.6274" style="fill: #ff8c00; stroke: #ff8c00"/>
     <use xlink:href="#m979adebd21" x="76.616399" y="181.147611" style="fill: #ff8c00; stroke: #ff8c00"/>
     <use xlink:href="#m979adebd21" x="122.159664" y="211.903745" style="fill: #ff8c00; stroke: #ff8c00"/>
     <use xlink:href="#m979adebd21" x="64.790669" y="175.419123" style="fill: #ff8c00; stroke: #ff8c00"/>
     <use xlink:href="#m979adebd21" x="81.405626" y="122.436919" style="fill: #ff8c00; stroke: #ff8c00"/>
     <use xlink:href="#m979adebd21" x="82.192792" y="151.327872" style="fill: #ff8c00; stroke: #ff8c00"/>
     <use xlink:href="#m979adebd21" x="82.76985" y="174.008731" style="fill: #ff8c00; stroke: #ff8c00"/>
     <use xlink:href="#m979adebd21" x="106.007295" y="100.466692" style="fill: #ff8c00; stroke: #ff8c00"/>
     <use xlink:href="#m979adebd21" x="83.927719" y="188.060301" style="fill: #ff8c00; stroke: #ff8c00"/>
     <use xlink:href="#m979adebd21" x="91.698763" y="187.279018" style="fill: #ff8c00; stroke: #ff8c00"/>
     <use xlink:href="#m979adebd21" x="76.459264" y="113.315223" style="fill: #ff8c00; stroke: #ff8c00"/>
     <use xlink:href="#m979adebd21" x="96.218584" y="154.672433" style="fill: #ff8c00; stroke: #ff8c00"/>
     <use xlink:href="#m979adebd21" x="71.43888" y="177.988788" style="fill: #ff8c00; stroke: #ff8c00"/>
     <use xlink:href="#m979adebd21" x="59.742416" y="161.380948" style="fill: #ff8c00; stroke: #ff8c00"/>
     <use xlink:href="#m979adebd21" x="68.323588" y="187.444646" style="fill: #ff8c00; stroke: #ff8c00"/>
     <use xlink:href="#m979adebd21" x="66.665224" y="181.071155" style="fill: #ff8c00; stroke: #ff8c00"/>
     <use xlink:href="#m979adebd21" x="111.828191" y="212.716806" style="fill: #ff8c00; stroke: #ff8c00"/>
     <use xlink:href="#m979adebd21" x="94.668548" y="174.734111" style="fill: #ff8c00; stroke: #ff8c00"/>
     <use xlink:href="#m979adebd21" x="79.840721" y="137.867269" style="fill: #ff8c00; stroke: #ff8c00"/>
     <use xlink:href="#m979adebd21" x="86.924264" y="156.513116" style="fill: #ff8c00; stroke: #ff8c00"/>
     <use xlink:href="#m979adebd21" x="101.13485" y="85.14369" style="fill: #ff8c00; stroke: #ff8c00"/>
     <use xlink:href="#m979adebd21" x="67.854924" y="137.27775" style="fill: #ff8c00; stroke: #ff8c00"/>
     <use xlink:href="#m979adebd21" x="92.107026" y="181.069003" style="fill: #ff8c00; stroke: #ff8c00"/>
     <use xlink:href="#m979adebd21" x="84.616699" y="146.228465" style="fill: #ff8c00; stroke: #ff8c00"/>
     <use xlink:href="#m979adebd21" x="169.004258" y="152.931174" style="fill: #ff8c00; stroke: #ff8c00"/>
     <use xlink:href="#m979adebd21" x="55.828095" y="129.443813" style="fill: #ff8c00; stroke: #ff8c00"/>
     <use xlink:href="#m979adebd21" x="79.927179" y="191.048197" style="fill: #ff8c00; stroke: #ff8c00"/>
     <use xlink:href="#m979adebd21" x="60.874568" y="194.97705" style="fill: #ff8c00; stroke: #ff8c00"/>
     <use xlink:href="#m979adebd21" x="79.142447" y="180.402748" style="fill: #ff8c00; stroke: #ff8c00"/>
     <use xlink:href="#m979adebd21" x="61.12536" y="134.655475" style="fill: #ff8c00; stroke: #ff8c00"/>
     <use xlink:href="#m979adebd21" x="98.326426" y="180.112622" style="fill: #ff8c00; stroke: #ff8c00"/>
     <use xlink:href="#m979adebd21" x="96.562831" y="134.624615" style="fill: #ff8c00; stroke: #ff8c00"/>
     <use xlink:href="#m979adebd21" x="78.11779" y="170.745236" style="fill: #ff8c00; stroke: #ff8c00"/>
     <use xlink:href="#m979adebd21" x="60.874568" y="194.97705" style="fill: #ff8c00; stroke: #ff8c00"/>
     <use xlink:href="#m979adebd21" x="83.585678" y="139.346079" style="fill: #ff8c00; stroke: #ff8c00"/>
     <use xlink:href="#m979adebd21" x="123.605718" y="135.812892" style="fill: #ff8c00; stroke: #ff8c00"/>
     <use xlink:href="#m979adebd21" x="62.871528" y="171.738016" style="fill: #ff8c00; stroke: #ff8c00"/>
     <use xlink:href="#m979adebd21" x="75.205583" y="174.718811" style="fill: #ff8c00; stroke: #ff8c00"/>
     <use xlink:href="#m979adebd21" x="80.850103" y="135.628005" style="fill: #ff8c00; stroke: #ff8c00"/>
     <use xlink:href="#m979adebd21" x="72.989768" y="188.246066" style="fill: #ff8c00; stroke: #ff8c00"/>
     <use xlink:href="#m979adebd21" x="109.358008" y="170.801226" style="fill: #ff8c00; stroke: #ff8c00"/>
     <use xlink:href="#m979adebd21" x="104.625838" y="190.509003" style="fill: #ff8c00; stroke: #ff8c00"/>
     <use xlink:href="#m979adebd21" x="70.17265" y="182.964624" style="fill: #ff8c00; stroke: #ff8c00"/>
     <use xlink:href="#m979adebd21" x="82.843356" y="185.194385" style="fill: #ff8c00; stroke: #ff8c00"/>
     <use xlink:href="#m979adebd21" x="83.061176" y="173.079712" style="fill: #ff8c00; stroke: #ff8c00"/>
     <use xlink:href="#m979adebd21" x="73.606057" y="143.790235" style="fill: #ff8c00; stroke: #ff8c00"/>
     <use xlink:href="#m979adebd21" x="77.834764" y="191.760912" style="fill: #ff8c00; stroke: #ff8c00"/>
     <use xlink:href="#m979adebd21" x="66.241775" y="186.060546" style="fill: #ff8c00; stroke: #ff8c00"/>
     <use xlink:href="#m979adebd21" x="102.492173" y="190.155462" style="fill: #ff8c00; stroke: #ff8c00"/>
     <use xlink:href="#m979adebd21" x="81.325763" y="170.55969" style="fill: #ff8c00; stroke: #ff8c00"/>
     <use xlink:href="#m979adebd21" x="74.646522" y="156.05322" style="fill: #ff8c00; stroke: #ff8c00"/>
     <use xlink:href="#m979adebd21" x="92.143898" y="156.122048" style="fill: #ff8c00; stroke: #ff8c00"/>
     <use xlink:href="#m979adebd21" x="101.249402" y="185.801562" style="fill: #ff8c00; stroke: #ff8c00"/>
     <use xlink:href="#m979adebd21" x="83.866806" y="148.969803" style="fill: #ff8c00; stroke: #ff8c00"/>
     <use xlink:href="#m979adebd21" x="121.955661" y="201.62846" style="fill: #ff8c00; stroke: #ff8c00"/>
     <use xlink:href="#m979adebd21" x="67.902827" y="168.216088" style="fill: #ff8c00; stroke: #ff8c00"/>
     <use xlink:href="#m979adebd21" x="70.836284" y="142.304116" style="fill: #ff8c00; stroke: #ff8c00"/>
     <use xlink:href="#m979adebd21" x="86.459521" y="148.899788" style="fill: #ff8c00; stroke: #ff8c00"/>
     <use xlink:href="#m979adebd21" x="90.842724" y="179.7202" style="fill: #ff8c00; stroke: #ff8c00"/>
     <use xlink:href="#m979adebd21" x="65.596806" y="140.6274" style="fill: #ff8c00; stroke: #ff8c00"/>
     <use xlink:href="#m979adebd21" x="65.052112" y="159.700036" style="fill: #ff8c00; stroke: #ff8c00"/>
     <use xlink:href="#m979adebd21" x="86.613095" y="127.409907" style="fill: #ff8c00; stroke: #ff8c00"/>
    </g>
   </g>
   <g id="matplotlib.axis_1">
    <g id="xtick_1">
     <g id="line2d_1">
      <defs>
       <path id="m7948a637db" d="M 0 0 
L 0 3.5 
" style="stroke: #000000; stroke-width: 0.8"/>
      </defs>
      <g>
       <use xlink:href="#m7948a637db" x="50.385691" y="273.312" style="stroke: #000000; stroke-width: 0.8"/>
      </g>
     </g>
     <g id="text_1">
      <!-- −10 -->
      <g transform="translate(39.833347 287.910437) scale(0.1 -0.1)">
       <defs>
        <path id="DejaVuSans-2212" d="M 678 2272 
L 4684 2272 
L 4684 1741 
L 678 1741 
L 678 2272 
z
" transform="scale(0.015625)"/>
        <path id="DejaVuSans-31" d="M 794 531 
L 1825 531 
L 1825 4091 
L 703 3866 
L 703 4441 
L 1819 4666 
L 2450 4666 
L 2450 531 
L 3481 531 
L 3481 0 
L 794 0 
L 794 531 
z
" transform="scale(0.015625)"/>
        <path id="DejaVuSans-30" d="M 2034 4250 
Q 1547 4250 1301 3770 
Q 1056 3291 1056 2328 
Q 1056 1369 1301 889 
Q 1547 409 2034 409 
Q 2525 409 2770 889 
Q 3016 1369 3016 2328 
Q 3016 3291 2770 3770 
Q 2525 4250 2034 4250 
z
M 2034 4750 
Q 2819 4750 3233 4129 
Q 3647 3509 3647 2328 
Q 3647 1150 3233 529 
Q 2819 -91 2034 -91 
Q 1250 -91 836 529 
Q 422 1150 422 2328 
Q 422 3509 836 4129 
Q 1250 4750 2034 4750 
z
" transform="scale(0.015625)"/>
       </defs>
       <use xlink:href="#DejaVuSans-2212"/>
       <use xlink:href="#DejaVuSans-31" x="83.789062"/>
       <use xlink:href="#DejaVuSans-30" x="147.412109"/>
      </g>
     </g>
    </g>
    <g id="xtick_2">
     <g id="line2d_2">
      <g>
       <use xlink:href="#m7948a637db" x="110.802134" y="273.312" style="stroke: #000000; stroke-width: 0.8"/>
      </g>
     </g>
     <g id="text_2">
      <!-- 0 -->
      <g transform="translate(107.620884 287.910437) scale(0.1 -0.1)">
       <use xlink:href="#DejaVuSans-30"/>
      </g>
     </g>
    </g>
    <g id="xtick_3">
     <g id="line2d_3">
      <g>
       <use xlink:href="#m7948a637db" x="171.218578" y="273.312" style="stroke: #000000; stroke-width: 0.8"/>
      </g>
     </g>
     <g id="text_3">
      <!-- 10 -->
      <g transform="translate(164.856078 287.910437) scale(0.1 -0.1)">
       <use xlink:href="#DejaVuSans-31"/>
       <use xlink:href="#DejaVuSans-30" x="63.623047"/>
      </g>
     </g>
    </g>
    <g id="xtick_4">
     <g id="line2d_4">
      <g>
       <use xlink:href="#m7948a637db" x="231.635022" y="273.312" style="stroke: #000000; stroke-width: 0.8"/>
      </g>
     </g>
     <g id="text_4">
      <!-- 20 -->
      <g transform="translate(225.272522 287.910437) scale(0.1 -0.1)">
       <defs>
        <path id="DejaVuSans-32" d="M 1228 531 
L 3431 531 
L 3431 0 
L 469 0 
L 469 531 
Q 828 903 1448 1529 
Q 2069 2156 2228 2338 
Q 2531 2678 2651 2914 
Q 2772 3150 2772 3378 
Q 2772 3750 2511 3984 
Q 2250 4219 1831 4219 
Q 1534 4219 1204 4116 
Q 875 4013 500 3803 
L 500 4441 
Q 881 4594 1212 4672 
Q 1544 4750 1819 4750 
Q 2544 4750 2975 4387 
Q 3406 4025 3406 3419 
Q 3406 3131 3298 2873 
Q 3191 2616 2906 2266 
Q 2828 2175 2409 1742 
Q 1991 1309 1228 531 
z
" transform="scale(0.015625)"/>
       </defs>
       <use xlink:href="#DejaVuSans-32"/>
       <use xlink:href="#DejaVuSans-30" x="63.623047"/>
      </g>
     </g>
    </g>
    <g id="xtick_5">
     <g id="line2d_5">
      <g>
       <use xlink:href="#m7948a637db" x="292.051465" y="273.312" style="stroke: #000000; stroke-width: 0.8"/>
      </g>
     </g>
     <g id="text_5">
      <!-- 30 -->
      <g transform="translate(285.688965 287.910437) scale(0.1 -0.1)">
       <defs>
        <path id="DejaVuSans-33" d="M 2597 2516 
Q 3050 2419 3304 2112 
Q 3559 1806 3559 1356 
Q 3559 666 3084 287 
Q 2609 -91 1734 -91 
Q 1441 -91 1130 -33 
Q 819 25 488 141 
L 488 750 
Q 750 597 1062 519 
Q 1375 441 1716 441 
Q 2309 441 2620 675 
Q 2931 909 2931 1356 
Q 2931 1769 2642 2001 
Q 2353 2234 1838 2234 
L 1294 2234 
L 1294 2753 
L 1863 2753 
Q 2328 2753 2575 2939 
Q 2822 3125 2822 3475 
Q 2822 3834 2567 4026 
Q 2313 4219 1838 4219 
Q 1578 4219 1281 4162 
Q 984 4106 628 3988 
L 628 4550 
Q 988 4650 1302 4700 
Q 1616 4750 1894 4750 
Q 2613 4750 3031 4423 
Q 3450 4097 3450 3541 
Q 3450 3153 3228 2886 
Q 3006 2619 2597 2516 
z
" transform="scale(0.015625)"/>
       </defs>
       <use xlink:href="#DejaVuSans-33"/>
       <use xlink:href="#DejaVuSans-30" x="63.623047"/>
      </g>
     </g>
    </g>
    <g id="xtick_6">
     <g id="line2d_6">
      <g>
       <use xlink:href="#m7948a637db" x="352.467909" y="273.312" style="stroke: #000000; stroke-width: 0.8"/>
      </g>
     </g>
     <g id="text_6">
      <!-- 40 -->
      <g transform="translate(346.105409 287.910437) scale(0.1 -0.1)">
       <defs>
        <path id="DejaVuSans-34" d="M 2419 4116 
L 825 1625 
L 2419 1625 
L 2419 4116 
z
M 2253 4666 
L 3047 4666 
L 3047 1625 
L 3713 1625 
L 3713 1100 
L 3047 1100 
L 3047 0 
L 2419 0 
L 2419 1100 
L 313 1100 
L 313 1709 
L 2253 4666 
z
" transform="scale(0.015625)"/>
       </defs>
       <use xlink:href="#DejaVuSans-34"/>
       <use xlink:href="#DejaVuSans-30" x="63.623047"/>
      </g>
     </g>
    </g>
   </g>
   <g id="matplotlib.axis_2">
    <g id="ytick_1">
     <g id="line2d_7">
      <defs>
       <path id="m335a94901b" d="M 0 0 
L -3.5 0 
" style="stroke: #000000; stroke-width: 0.8"/>
      </defs>
      <g>
       <use xlink:href="#m335a94901b" x="35.304688" y="252.45391" style="stroke: #000000; stroke-width: 0.8"/>
      </g>
     </g>
     <g id="text_7">
      <!-- −15 -->
      <g transform="translate(7.2 256.253129) scale(0.1 -0.1)">
       <defs>
        <path id="DejaVuSans-35" d="M 691 4666 
L 3169 4666 
L 3169 4134 
L 1269 4134 
L 1269 2991 
Q 1406 3038 1543 3061 
Q 1681 3084 1819 3084 
Q 2600 3084 3056 2656 
Q 3513 2228 3513 1497 
Q 3513 744 3044 326 
Q 2575 -91 1722 -91 
Q 1428 -91 1123 -41 
Q 819 9 494 109 
L 494 744 
Q 775 591 1075 516 
Q 1375 441 1709 441 
Q 2250 441 2565 725 
Q 2881 1009 2881 1497 
Q 2881 1984 2565 2268 
Q 2250 2553 1709 2553 
Q 1456 2553 1204 2497 
Q 953 2441 691 2322 
L 691 4666 
z
" transform="scale(0.015625)"/>
       </defs>
       <use xlink:href="#DejaVuSans-2212"/>
       <use xlink:href="#DejaVuSans-31" x="83.789062"/>
       <use xlink:href="#DejaVuSans-35" x="147.412109"/>
      </g>
     </g>
    </g>
    <g id="ytick_2">
     <g id="line2d_8">
      <g>
       <use xlink:href="#m335a94901b" x="35.304688" y="222.486041" style="stroke: #000000; stroke-width: 0.8"/>
      </g>
     </g>
     <g id="text_8">
      <!-- −10 -->
      <g transform="translate(7.2 226.285259) scale(0.1 -0.1)">
       <use xlink:href="#DejaVuSans-2212"/>
       <use xlink:href="#DejaVuSans-31" x="83.789062"/>
       <use xlink:href="#DejaVuSans-30" x="147.412109"/>
      </g>
     </g>
    </g>
    <g id="ytick_3">
     <g id="line2d_9">
      <g>
       <use xlink:href="#m335a94901b" x="35.304688" y="192.518171" style="stroke: #000000; stroke-width: 0.8"/>
      </g>
     </g>
     <g id="text_9">
      <!-- −5 -->
      <g transform="translate(13.5625 196.31739) scale(0.1 -0.1)">
       <use xlink:href="#DejaVuSans-2212"/>
       <use xlink:href="#DejaVuSans-35" x="83.789062"/>
      </g>
     </g>
    </g>
    <g id="ytick_4">
     <g id="line2d_10">
      <g>
       <use xlink:href="#m335a94901b" x="35.304688" y="162.550302" style="stroke: #000000; stroke-width: 0.8"/>
      </g>
     </g>
     <g id="text_10">
      <!-- 0 -->
      <g transform="translate(21.942187 166.34952) scale(0.1 -0.1)">
       <use xlink:href="#DejaVuSans-30"/>
      </g>
     </g>
    </g>
    <g id="ytick_5">
     <g id="line2d_11">
      <g>
       <use xlink:href="#m335a94901b" x="35.304688" y="132.582432" style="stroke: #000000; stroke-width: 0.8"/>
      </g>
     </g>
     <g id="text_11">
      <!-- 5 -->
      <g transform="translate(21.942187 136.381651) scale(0.1 -0.1)">
       <use xlink:href="#DejaVuSans-35"/>
      </g>
     </g>
    </g>
    <g id="ytick_6">
     <g id="line2d_12">
      <g>
       <use xlink:href="#m335a94901b" x="35.304688" y="102.614563" style="stroke: #000000; stroke-width: 0.8"/>
      </g>
     </g>
     <g id="text_12">
      <!-- 10 -->
      <g transform="translate(15.579687 106.413782) scale(0.1 -0.1)">
       <use xlink:href="#DejaVuSans-31"/>
       <use xlink:href="#DejaVuSans-30" x="63.623047"/>
      </g>
     </g>
    </g>
    <g id="ytick_7">
     <g id="line2d_13">
      <g>
       <use xlink:href="#m335a94901b" x="35.304688" y="72.646693" style="stroke: #000000; stroke-width: 0.8"/>
      </g>
     </g>
     <g id="text_13">
      <!-- 15 -->
      <g transform="translate(15.579687 76.445912) scale(0.1 -0.1)">
       <use xlink:href="#DejaVuSans-31"/>
       <use xlink:href="#DejaVuSans-35" x="63.623047"/>
      </g>
     </g>
    </g>
    <g id="ytick_8">
     <g id="line2d_14">
      <g>
       <use xlink:href="#m335a94901b" x="35.304688" y="42.678824" style="stroke: #000000; stroke-width: 0.8"/>
      </g>
     </g>
     <g id="text_14">
      <!-- 20 -->
      <g transform="translate(15.579687 46.478043) scale(0.1 -0.1)">
       <use xlink:href="#DejaVuSans-32"/>
       <use xlink:href="#DejaVuSans-30" x="63.623047"/>
      </g>
     </g>
    </g>
    <g id="ytick_9">
     <g id="line2d_15">
      <g>
       <use xlink:href="#m335a94901b" x="35.304688" y="12.710954" style="stroke: #000000; stroke-width: 0.8"/>
      </g>
     </g>
     <g id="text_15">
      <!-- 25 -->
      <g transform="translate(15.579687 16.510173) scale(0.1 -0.1)">
       <use xlink:href="#DejaVuSans-32"/>
       <use xlink:href="#DejaVuSans-35" x="63.623047"/>
      </g>
     </g>
    </g>
   </g>
   <g id="patch_3">
    <path d="M 35.304688 273.312 
L 35.304688 7.2 
" style="fill: none; stroke: #000000; stroke-width: 0.8; stroke-linejoin: miter; stroke-linecap: square"/>
   </g>
   <g id="patch_4">
    <path d="M 392.424688 273.312 
L 392.424688 7.2 
" style="fill: none; stroke: #000000; stroke-width: 0.8; stroke-linejoin: miter; stroke-linecap: square"/>
   </g>
   <g id="patch_5">
    <path d="M 35.304687 273.312 
L 392.424688 273.312 
" style="fill: none; stroke: #000000; stroke-width: 0.8; stroke-linejoin: miter; stroke-linecap: square"/>
   </g>
   <g id="patch_6">
    <path d="M 35.304687 7.2 
L 392.424688 7.2 
" style="fill: none; stroke: #000000; stroke-width: 0.8; stroke-linejoin: miter; stroke-linecap: square"/>
   </g>
  </g>
 </g>
 <defs>
  <clipPath id="pc4288b0941">
   <rect x="35.304688" y="7.2" width="357.12" height="266.112"/>
  </clipPath>
 </defs>
</svg>
