<?xml version="1.0" encoding="utf-8" standalone="no"?>
<!DOCTYPE svg PUBLIC "-//W3C//DTD SVG 1.1//EN"
  "http://www.w3.org/Graphics/SVG/1.1/DTD/svg11.dtd">
<svg xmlns:xlink="http://www.w3.org/1999/xlink" width="399.624687pt" height="297.190125pt" viewBox="0 0 399.624687 297.190125" xmlns="http://www.w3.org/2000/svg" version="1.1">
 <metadata>
  <rdf:RDF xmlns:dc="http://purl.org/dc/elements/1.1/" xmlns:cc="http://creativecommons.org/ns#" xmlns:rdf="http://www.w3.org/1999/02/22-rdf-syntax-ns#">
   <cc:Work>
    <dc:type rdf:resource="http://purl.org/dc/dcmitype/StillImage"/>
    <dc:date>2023-11-11T06:32:09.664067</dc:date>
    <dc:format>image/svg+xml</dc:format>
    <dc:creator>
     <cc:Agent>
      <dc:title>Matplotlib v3.8.0, https://matplotlib.org/</dc:title>
     </cc:Agent>
    </dc:creator>
   </cc:Work>
  </rdf:RDF>
 </metadata>
 <defs>
  <style type="text/css">*{stroke-linejoin: round; stroke-linecap: butt}</style>
 </defs>
 <g id="figure_1">
  <g id="patch_1">
   <path d="M 0 297.190125 
L 399.624687 297.190125 
L 399.624687 0 
L 0 0 
z
" style="fill: #ffffff"/>
  </g>
  <g id="axes_1">
   <g id="patch_2">
    <path d="M 35.304688 273.312 
L 392.424688 273.312 
L 392.424688 7.2 
L 35.304688 7.2 
z
" style="fill: #ffffff"/>
   </g>
   <g id="PathCollection_1">
    <defs>
     <path id="m3ed3c43d5a" d="M 0 1.5 
C 0.397805 1.5 0.77937 1.341951 1.06066 1.06066 
C 1.341951 0.77937 1.5 0.397805 1.5 0 
C 1.5 -0.397805 1.341951 -0.77937 1.06066 -1.06066 
C 0.77937 -1.341951 0.397805 -1.5 0 -1.5 
C -0.397805 -1.5 -0.77937 -1.341951 -1.06066 -1.06066 
C -1.341951 -0.77937 -1.5 -0.397805 -1.5 0 
C -1.5 0.397805 -1.341951 0.77937 -1.06066 1.06066 
C -0.77937 1.341951 -0.397805 1.5 0 1.5 
z
" style="stroke: #ff8c00"/>
    </defs>
    <g clip-path="url(#p61d65386d5)">
     <use xlink:href="#m3ed3c43d5a" x="117.717027" y="207.793448" style="fill: #ff8c00; stroke: #ff8c00"/>
     <use xlink:href="#m3ed3c43d5a" x="97.281587" y="87.32941" style="fill: #ff8c00; stroke: #ff8c00"/>
     <use xlink:href="#m3ed3c43d5a" x="65.236553" y="188.172221" style="fill: #ff8c00; stroke: #ff8c00"/>
     <use xlink:href="#m3ed3c43d5a" x="191.739996" y="201.381171" style="fill: #ff8c00; stroke: #ff8c00"/>
     <use xlink:href="#m3ed3c43d5a" x="131.142766" y="210.364035" style="fill: #ff8c00; stroke: #ff8c00"/>
     <use xlink:href="#m3ed3c43d5a" x="69.661613" y="147.576873" style="fill: #ff8c00; stroke: #ff8c00"/>
     <use xlink:href="#m3ed3c43d5a" x="91.733178" y="123.182377" style="fill: #ff8c00; stroke: #ff8c00"/>
     <use xlink:href="#m3ed3c43d5a" x="90.078282" y="133.185373" style="fill: #ff8c00; stroke: #ff8c00"/>
     <use xlink:href="#m3ed3c43d5a" x="136.264502" y="130.211482" style="fill: #ff8c00; stroke: #ff8c00"/>
     <use xlink:href="#m3ed3c43d5a" x="126.895753" y="156.25154" style="fill: #ff8c00; stroke: #ff8c00"/>
     <use xlink:href="#m3ed3c43d5a" x="108.015962" y="113.118791" style="fill: #ff8c00; stroke: #ff8c00"/>
     <use xlink:href="#m3ed3c43d5a" x="114.352673" y="155.983323" style="fill: #ff8c00; stroke: #ff8c00"/>
     <use xlink:href="#m3ed3c43d5a" x="88.519899" y="153.162286" style="fill: #ff8c00; stroke: #ff8c00"/>
    </g>
   </g>
   <g id="PathCollection_2">
    <defs>
     <path id="m2264737517" d="M 0 1.5 
C 0.397805 1.5 0.77937 1.341951 1.06066 1.06066 
C 1.341951 0.77937 1.5 0.397805 1.5 0 
C 1.5 -0.397805 1.341951 -0.77937 1.06066 -1.06066 
C 0.77937 -1.341951 0.397805 -1.5 0 -1.5 
C -0.397805 -1.5 -0.77937 -1.341951 -1.06066 -1.06066 
C -1.341951 -0.77937 -1.5 -0.397805 -1.5 0 
C -1.5 0.397805 -1.341951 0.77937 -1.06066 1.06066 
C -0.77937 1.341951 -0.397805 1.5 0 1.5 
z
" style="stroke: #006400"/>
    </defs>
    <g clip-path="url(#p61d65386d5)">
     <use xlink:href="#m2264737517" x="193.992571" y="206.417988" style="fill: #006400; stroke: #006400"/>
     <use xlink:href="#m2264737517" x="244.250096" y="123.66128" style="fill: #006400; stroke: #006400"/>
     <use xlink:href="#m2264737517" x="137.156118" y="229.160418" style="fill: #006400; stroke: #006400"/>
     <use xlink:href="#m2264737517" x="255.721159" y="174.686217" style="fill: #006400; stroke: #006400"/>
     <use xlink:href="#m2264737517" x="91.158826" y="139.691316" style="fill: #006400; stroke: #006400"/>
     <use xlink:href="#m2264737517" x="252.746206" y="187.045178" style="fill: #006400; stroke: #006400"/>
     <use xlink:href="#m2264737517" x="207.765017" y="156.329746" style="fill: #006400; stroke: #006400"/>
     <use xlink:href="#m2264737517" x="165.75337" y="19.296" style="fill: #006400; stroke: #006400"/>
     <use xlink:href="#m2264737517" x="247.884476" y="187.819417" style="fill: #006400; stroke: #006400"/>
     <use xlink:href="#m2264737517" x="274.286583" y="103.671186" style="fill: #006400; stroke: #006400"/>
     <use xlink:href="#m2264737517" x="270.533347" y="225.641165" style="fill: #006400; stroke: #006400"/>
     <use xlink:href="#m2264737517" x="235.112665" y="194.662496" style="fill: #006400; stroke: #006400"/>
     <use xlink:href="#m2264737517" x="319.484512" y="164.93358" style="fill: #006400; stroke: #006400"/>
     <use xlink:href="#m2264737517" x="321.087386" y="191.519067" style="fill: #006400; stroke: #006400"/>
     <use xlink:href="#m2264737517" x="376.19196" y="129.557512" style="fill: #006400; stroke: #006400"/>
     <use xlink:href="#m2264737517" x="216.484172" y="186.249375" style="fill: #006400; stroke: #006400"/>
    </g>
   </g>
   <g id="PathCollection_3">
    <defs>
     <path id="m728337650a" d="M 0 1.5 
C 0.397805 1.5 0.77937 1.341951 1.06066 1.06066 
C 1.341951 0.77937 1.5 0.397805 1.5 0 
C 1.5 -0.397805 1.341951 -0.77937 1.06066 -1.06066 
C 0.77937 -1.341951 0.397805 -1.5 0 -1.5 
C -0.397805 -1.5 -0.77937 -1.341951 -1.06066 -1.06066 
C -1.341951 -0.77937 -1.5 -0.397805 -1.5 0 
C -1.5 0.397805 -1.341951 0.77937 -1.06066 1.06066 
C -0.77937 1.341951 -0.397805 1.5 0 1.5 
z
" style="stroke: #2f4f4f"/>
    </defs>
    <g clip-path="url(#p61d65386d5)">
     <use xlink:href="#m728337650a" x="77.11803" y="193.984356" style="fill: #2f4f4f; stroke: #2f4f4f"/>
     <use xlink:href="#m728337650a" x="79.339581" y="175.470397" style="fill: #2f4f4f; stroke: #2f4f4f"/>
     <use xlink:href="#m728337650a" x="99.164581" y="161.299824" style="fill: #2f4f4f; stroke: #2f4f4f"/>
     <use xlink:href="#m728337650a" x="113.469239" y="198.867658" style="fill: #2f4f4f; stroke: #2f4f4f"/>
     <use xlink:href="#m728337650a" x="93.115314" y="151.698368" style="fill: #2f4f4f; stroke: #2f4f4f"/>
     <use xlink:href="#m728337650a" x="116.707923" y="240.88719" style="fill: #2f4f4f; stroke: #2f4f4f"/>
     <use xlink:href="#m728337650a" x="108.256519" y="143.785658" style="fill: #2f4f4f; stroke: #2f4f4f"/>
     <use xlink:href="#m728337650a" x="68.571221" y="173.44254" style="fill: #2f4f4f; stroke: #2f4f4f"/>
     <use xlink:href="#m728337650a" x="89.553372" y="207.114831" style="fill: #2f4f4f; stroke: #2f4f4f"/>
     <use xlink:href="#m728337650a" x="63.87867" y="86.836033" style="fill: #2f4f4f; stroke: #2f4f4f"/>
    </g>
   </g>
   <g id="PathCollection_4">
    <defs>
     <path id="mc285c81b8e" d="M 0 1.5 
C 0.397805 1.5 0.77937 1.341951 1.06066 1.06066 
C 1.341951 0.77937 1.5 0.397805 1.5 0 
C 1.5 -0.397805 1.341951 -0.77937 1.06066 -1.06066 
C 0.77937 -1.341951 0.397805 -1.5 0 -1.5 
C -0.397805 -1.5 -0.77937 -1.341951 -1.06066 -1.06066 
C -1.341951 -0.77937 -1.5 -0.397805 -1.5 0 
C -1.5 0.397805 -1.341951 0.77937 -1.06066 1.06066 
C -0.77937 1.341951 -0.397805 1.5 0 1.5 
z
" style="stroke: #00bfff"/>
    </defs>
    <g clip-path="url(#p61d65386d5)">
     <use xlink:href="#mc285c81b8e" x="123.325723" y="120.348362" style="fill: #00bfff; stroke: #00bfff"/>
     <use xlink:href="#mc285c81b8e" x="121.465306" y="73.396743" style="fill: #00bfff; stroke: #00bfff"/>
     <use xlink:href="#mc285c81b8e" x="88.609676" y="203.173542" style="fill: #00bfff; stroke: #00bfff"/>
     <use xlink:href="#mc285c81b8e" x="71.315126" y="168.880859" style="fill: #00bfff; stroke: #00bfff"/>
     <use xlink:href="#mc285c81b8e" x="90.522654" y="114.585139" style="fill: #00bfff; stroke: #00bfff"/>
     <use xlink:href="#mc285c81b8e" x="168.472127" y="129.919432" style="fill: #00bfff; stroke: #00bfff"/>
     <use xlink:href="#mc285c81b8e" x="155.604866" y="165.716713" style="fill: #00bfff; stroke: #00bfff"/>
     <use xlink:href="#mc285c81b8e" x="94.35608" y="198.607187" style="fill: #00bfff; stroke: #00bfff"/>
     <use xlink:href="#mc285c81b8e" x="95.493092" y="191.019763" style="fill: #00bfff; stroke: #00bfff"/>
     <use xlink:href="#mc285c81b8e" x="54.073157" y="180.896752" style="fill: #00bfff; stroke: #00bfff"/>
     <use xlink:href="#mc285c81b8e" x="66.532494" y="135.895215" style="fill: #00bfff; stroke: #00bfff"/>
     <use xlink:href="#mc285c81b8e" x="135.130536" y="70.479559" style="fill: #00bfff; stroke: #00bfff"/>
     <use xlink:href="#mc285c81b8e" x="89.477472" y="141.04628" style="fill: #00bfff; stroke: #00bfff"/>
     <use xlink:href="#mc285c81b8e" x="127.340187" y="215.303517" style="fill: #00bfff; stroke: #00bfff"/>
     <use xlink:href="#mc285c81b8e" x="101.919195" y="145.719521" style="fill: #00bfff; stroke: #00bfff"/>
     <use xlink:href="#mc285c81b8e" x="78.343768" y="168.983561" style="fill: #00bfff; stroke: #00bfff"/>
     <use xlink:href="#mc285c81b8e" x="73.702954" y="201.128728" style="fill: #00bfff; stroke: #00bfff"/>
    </g>
   </g>
   <g id="PathCollection_5">
    <defs>
     <path id="mdb69ed59ec" d="M 0 1.5 
C 0.397805 1.5 0.77937 1.341951 1.06066 1.06066 
C 1.341951 0.77937 1.5 0.397805 1.5 0 
C 1.5 -0.397805 1.341951 -0.77937 1.06066 -1.06066 
C 0.77937 -1.341951 0.397805 -1.5 0 -1.5 
C -0.397805 -1.5 -0.77937 -1.341951 -1.06066 -1.06066 
C -1.341951 -0.77937 -1.5 -0.397805 -1.5 0 
C -1.5 0.397805 -1.341951 0.77937 -1.06066 1.06066 
C -0.77937 1.341951 -0.397805 1.5 0 1.5 
z
" style="stroke: #ffff00"/>
    </defs>
    <g clip-path="url(#p61d65386d5)">
     <use xlink:href="#mdb69ed59ec" x="94.241587" y="219.066189" style="fill: #ffff00; stroke: #ffff00"/>
     <use xlink:href="#mdb69ed59ec" x="77.369351" y="216.957731" style="fill: #ffff00; stroke: #ffff00"/>
     <use xlink:href="#mdb69ed59ec" x="96.273765" y="90.824633" style="fill: #ffff00; stroke: #ffff00"/>
     <use xlink:href="#mdb69ed59ec" x="70.903504" y="148.20145" style="fill: #ffff00; stroke: #ffff00"/>
     <use xlink:href="#mdb69ed59ec" x="166.709883" y="123.381908" style="fill: #ffff00; stroke: #ffff00"/>
     <use xlink:href="#mdb69ed59ec" x="87.03502" y="182.027655" style="fill: #ffff00; stroke: #ffff00"/>
     <use xlink:href="#mdb69ed59ec" x="63.660109" y="191.448932" style="fill: #ffff00; stroke: #ffff00"/>
     <use xlink:href="#mdb69ed59ec" x="142.386722" y="175.125037" style="fill: #ffff00; stroke: #ffff00"/>
     <use xlink:href="#mdb69ed59ec" x="155.442389" y="160.963356" style="fill: #ffff00; stroke: #ffff00"/>
     <use xlink:href="#mdb69ed59ec" x="179.463663" y="165.401086" style="fill: #ffff00; stroke: #ffff00"/>
     <use xlink:href="#mdb69ed59ec" x="98.258555" y="199.942009" style="fill: #ffff00; stroke: #ffff00"/>
     <use xlink:href="#mdb69ed59ec" x="126.030332" y="183.783482" style="fill: #ffff00; stroke: #ffff00"/>
     <use xlink:href="#mdb69ed59ec" x="129.328553" y="172.126232" style="fill: #ffff00; stroke: #ffff00"/>
    </g>
   </g>
   <g id="PathCollection_6">
    <defs>
     <path id="mbf8c582acc" d="M 0 1.5 
C 0.397805 1.5 0.77937 1.341951 1.06066 1.06066 
C 1.341951 0.77937 1.5 0.397805 1.5 0 
C 1.5 -0.397805 1.341951 -0.77937 1.06066 -1.06066 
C 0.77937 -1.341951 0.397805 -1.5 0 -1.5 
C -0.397805 -1.5 -0.77937 -1.341951 -1.06066 -1.06066 
C -1.341951 -0.77937 -1.5 -0.397805 -1.5 0 
C -1.5 0.397805 -1.341951 0.77937 -1.06066 1.06066 
C -0.77937 1.341951 -0.397805 1.5 0 1.5 
z
" style="stroke: #00ffff"/>
    </defs>
    <g clip-path="url(#p61d65386d5)">
     <use xlink:href="#mbf8c582acc" x="106.238797" y="213.15405" style="fill: #00ffff; stroke: #00ffff"/>
     <use xlink:href="#mbf8c582acc" x="104.227265" y="95.109335" style="fill: #00ffff; stroke: #00ffff"/>
     <use xlink:href="#mbf8c582acc" x="77.914423" y="207.614034" style="fill: #00ffff; stroke: #00ffff"/>
     <use xlink:href="#mbf8c582acc" x="63.820358" y="133.722995" style="fill: #00ffff; stroke: #00ffff"/>
     <use xlink:href="#mbf8c582acc" x="74.131877" y="55.536729" style="fill: #00ffff; stroke: #00ffff"/>
     <use xlink:href="#mbf8c582acc" x="79.623559" y="148.691158" style="fill: #00ffff; stroke: #00ffff"/>
     <use xlink:href="#mbf8c582acc" x="154.90426" y="70.794845" style="fill: #00ffff; stroke: #00ffff"/>
     <use xlink:href="#mbf8c582acc" x="100.59935" y="232.047809" style="fill: #00ffff; stroke: #00ffff"/>
     <use xlink:href="#mbf8c582acc" x="98.550901" y="184.645413" style="fill: #00ffff; stroke: #00ffff"/>
     <use xlink:href="#mbf8c582acc" x="76.962189" y="148.651902" style="fill: #00ffff; stroke: #00ffff"/>
     <use xlink:href="#mbf8c582acc" x="124.179683" y="98.223338" style="fill: #00ffff; stroke: #00ffff"/>
     <use xlink:href="#mbf8c582acc" x="112.736523" y="191.134981" style="fill: #00ffff; stroke: #00ffff"/>
    </g>
   </g>
   <g id="PathCollection_7">
    <defs>
     <path id="mc0ca01f40d" d="M 0 1.5 
C 0.397805 1.5 0.77937 1.341951 1.06066 1.06066 
C 1.341951 0.77937 1.5 0.397805 1.5 0 
C 1.5 -0.397805 1.341951 -0.77937 1.06066 -1.06066 
C 0.77937 -1.341951 0.397805 -1.5 0 -1.5 
C -0.397805 -1.5 -0.77937 -1.341951 -1.06066 -1.06066 
C -1.341951 -0.77937 -1.5 -0.397805 -1.5 0 
C -1.5 0.397805 -1.341951 0.77937 -1.06066 1.06066 
C -0.77937 1.341951 -0.397805 1.5 0 1.5 
z
" style="stroke: #0000ff"/>
    </defs>
    <g clip-path="url(#p61d65386d5)">
     <use xlink:href="#mc0ca01f40d" x="152.941094" y="158.350488" style="fill: #0000ff; stroke: #0000ff"/>
     <use xlink:href="#mc0ca01f40d" x="130.754166" y="165.281586" style="fill: #0000ff; stroke: #0000ff"/>
     <use xlink:href="#mc0ca01f40d" x="147.789229" y="199.692477" style="fill: #0000ff; stroke: #0000ff"/>
     <use xlink:href="#mc0ca01f40d" x="174.887247" y="188.858889" style="fill: #0000ff; stroke: #0000ff"/>
     <use xlink:href="#mc0ca01f40d" x="152.276408" y="219.362678" style="fill: #0000ff; stroke: #0000ff"/>
     <use xlink:href="#mc0ca01f40d" x="95.055936" y="152.305941" style="fill: #0000ff; stroke: #0000ff"/>
     <use xlink:href="#mc0ca01f40d" x="175.243281" y="261.216" style="fill: #0000ff; stroke: #0000ff"/>
     <use xlink:href="#mc0ca01f40d" x="92.774049" y="106.036304" style="fill: #0000ff; stroke: #0000ff"/>
     <use xlink:href="#mc0ca01f40d" x="146.662084" y="210.583077" style="fill: #0000ff; stroke: #0000ff"/>
     <use xlink:href="#mc0ca01f40d" x="105.446821" y="145.746046" style="fill: #0000ff; stroke: #0000ff"/>
     <use xlink:href="#mc0ca01f40d" x="198.287358" y="169.122929" style="fill: #0000ff; stroke: #0000ff"/>
     <use xlink:href="#mc0ca01f40d" x="135.546606" y="155.498534" style="fill: #0000ff; stroke: #0000ff"/>
     <use xlink:href="#mc0ca01f40d" x="121.456168" y="164.323351" style="fill: #0000ff; stroke: #0000ff"/>
     <use xlink:href="#mc0ca01f40d" x="164.143701" y="128.621998" style="fill: #0000ff; stroke: #0000ff"/>
     <use xlink:href="#mc0ca01f40d" x="124.202887" y="188.208966" style="fill: #0000ff; stroke: #0000ff"/>
     <use xlink:href="#mc0ca01f40d" x="108.938749" y="135.949403" style="fill: #0000ff; stroke: #0000ff"/>
     <use xlink:href="#mc0ca01f40d" x="139.063391" y="196.216115" style="fill: #0000ff; stroke: #0000ff"/>
    </g>
   </g>
   <g id="PathCollection_8">
    <defs>
     <path id="ma5ff0563cc" d="M 0 1.5 
C 0.397805 1.5 0.77937 1.341951 1.06066 1.06066 
C 1.341951 0.77937 1.5 0.397805 1.5 0 
C 1.5 -0.397805 1.341951 -0.77937 1.06066 -1.06066 
C 0.77937 -1.341951 0.397805 -1.5 0 -1.5 
C -0.397805 -1.5 -0.77937 -1.341951 -1.06066 -1.06066 
C -1.341951 -0.77937 -1.5 -0.397805 -1.5 0 
C -1.5 0.397805 -1.341951 0.77937 -1.06066 1.06066 
C -0.77937 1.341951 -0.397805 1.5 0 1.5 
z
" style="stroke: #dc143c"/>
    </defs>
    <g clip-path="url(#p61d65386d5)">
     <use xlink:href="#ma5ff0563cc" x="134.68292" y="231.375507" style="fill: #dc143c; stroke: #dc143c"/>
     <use xlink:href="#ma5ff0563cc" x="84.875727" y="187.150377" style="fill: #dc143c; stroke: #dc143c"/>
     <use xlink:href="#ma5ff0563cc" x="59.990173" y="202.469909" style="fill: #dc143c; stroke: #dc143c"/>
     <use xlink:href="#ma5ff0563cc" x="55.459369" y="177.944837" style="fill: #dc143c; stroke: #dc143c"/>
     <use xlink:href="#ma5ff0563cc" x="93.6551" y="147.409766" style="fill: #dc143c; stroke: #dc143c"/>
     <use xlink:href="#ma5ff0563cc" x="82.047158" y="172.071197" style="fill: #dc143c; stroke: #dc143c"/>
     <use xlink:href="#ma5ff0563cc" x="78.348203" y="175.418471" style="fill: #dc143c; stroke: #dc143c"/>
     <use xlink:href="#ma5ff0563cc" x="118.832932" y="102.822452" style="fill: #dc143c; stroke: #dc143c"/>
     <use xlink:href="#ma5ff0563cc" x="71.729613" y="181.096276" style="fill: #dc143c; stroke: #dc143c"/>
     <use xlink:href="#ma5ff0563cc" x="80.062273" y="197.352077" style="fill: #dc143c; stroke: #dc143c"/>
     <use xlink:href="#ma5ff0563cc" x="115.507999" y="167.843869" style="fill: #dc143c; stroke: #dc143c"/>
     <use xlink:href="#ma5ff0563cc" x="98.705159" y="160.422132" style="fill: #dc143c; stroke: #dc143c"/>
     <use xlink:href="#ma5ff0563cc" x="94.28632" y="202.230322" style="fill: #dc143c; stroke: #dc143c"/>
     <use xlink:href="#ma5ff0563cc" x="94.16402" y="125.872365" style="fill: #dc143c; stroke: #dc143c"/>
     <use xlink:href="#ma5ff0563cc" x="115.637253" y="151.576875" style="fill: #dc143c; stroke: #dc143c"/>
    </g>
   </g>
   <g id="PathCollection_9">
    <defs>
     <path id="mf803fb7c71" d="M 0 1.5 
C 0.397805 1.5 0.77937 1.341951 1.06066 1.06066 
C 1.341951 0.77937 1.5 0.397805 1.5 0 
C 1.5 -0.397805 1.341951 -0.77937 1.06066 -1.06066 
C 0.77937 -1.341951 0.397805 -1.5 0 -1.5 
C -0.397805 -1.5 -0.77937 -1.341951 -1.06066 -1.06066 
C -1.341951 -0.77937 -1.5 -0.397805 -1.5 0 
C -1.5 0.397805 -1.341951 0.77937 -1.06066 1.06066 
C -0.77937 1.341951 -0.397805 1.5 0 1.5 
z
" style="stroke: #ffe4c4"/>
    </defs>
    <g clip-path="url(#p61d65386d5)">
     <use xlink:href="#mf803fb7c71" x="174.296301" y="37.162577" style="fill: #ffe4c4; stroke: #ffe4c4"/>
     <use xlink:href="#mf803fb7c71" x="300.272454" y="140.588078" style="fill: #ffe4c4; stroke: #ffe4c4"/>
     <use xlink:href="#mf803fb7c71" x="223.671267" y="139.695718" style="fill: #ffe4c4; stroke: #ffe4c4"/>
     <use xlink:href="#mf803fb7c71" x="263.541262" y="176.626349" style="fill: #ffe4c4; stroke: #ffe4c4"/>
     <use xlink:href="#mf803fb7c71" x="168.139026" y="231.085662" style="fill: #ffe4c4; stroke: #ffe4c4"/>
     <use xlink:href="#mf803fb7c71" x="207.094536" y="229.863919" style="fill: #ffe4c4; stroke: #ffe4c4"/>
     <use xlink:href="#mf803fb7c71" x="216.639564" y="55.650355" style="fill: #ffe4c4; stroke: #ffe4c4"/>
     <use xlink:href="#mf803fb7c71" x="175.798527" y="235.859343" style="fill: #ffe4c4; stroke: #ffe4c4"/>
     <use xlink:href="#mf803fb7c71" x="122.903241" y="194.168178" style="fill: #ffe4c4; stroke: #ffe4c4"/>
     <use xlink:href="#mf803fb7c71" x="240.875417" y="170.655578" style="fill: #ffe4c4; stroke: #ffe4c4"/>
     <use xlink:href="#mf803fb7c71" x="177.904963" y="151.388351" style="fill: #ffe4c4; stroke: #ffe4c4"/>
     <use xlink:href="#mf803fb7c71" x="298.556917" y="178.208198" style="fill: #ffe4c4; stroke: #ffe4c4"/>
     <use xlink:href="#mf803fb7c71" x="163.661752" y="164.766783" style="fill: #ffe4c4; stroke: #ffe4c4"/>
     <use xlink:href="#mf803fb7c71" x="196.580868" y="181.025683" style="fill: #ffe4c4; stroke: #ffe4c4"/>
     <use xlink:href="#mf803fb7c71" x="148.845246" y="182.758887" style="fill: #ffe4c4; stroke: #ffe4c4"/>
    </g>
   </g>
   <g id="PathCollection_10">
    <defs>
     <path id="m61080beae9" d="M -2.99994 2.99994 
L 3.00006 2.99994 
L 3.00006 -3.00006 
L -2.99994 -3.00006 
z
" style="stroke: #000000"/>
    </defs>
    <g clip-path="url(#p61d65386d5)">
     <use xlink:href="#m61080beae9" x="90.294178" y="205.795795" style="stroke: #000000"/>
     <use xlink:href="#m61080beae9" x="116.909027" y="171.551209" style="stroke: #000000"/>
     <use xlink:href="#m61080beae9" x="91.486048" y="186.481329" style="stroke: #000000"/>
     <use xlink:href="#m61080beae9" x="66.269215" y="86.456374" style="stroke: #000000"/>
     <use xlink:href="#m61080beae9" x="58.256616" y="93.132506" style="stroke: #000000"/>
     <use xlink:href="#m61080beae9" x="86.866106" y="72.811365" style="stroke: #000000"/>
     <use xlink:href="#m61080beae9" x="111.280427" y="173.43645" style="stroke: #000000"/>
     <use xlink:href="#m61080beae9" x="94.920291" y="152.863079" style="stroke: #000000"/>
     <use xlink:href="#m61080beae9" x="93.928072" y="200.16184" style="stroke: #000000"/>
     <use xlink:href="#m61080beae9" x="82.748922" y="176.254928" style="stroke: #000000"/>
     <use xlink:href="#m61080beae9" x="118.479159" y="146.163884" style="stroke: #000000"/>
     <use xlink:href="#m61080beae9" x="77.064756" y="192.903151" style="stroke: #000000"/>
     <use xlink:href="#m61080beae9" x="67.352405" y="177.640179" style="stroke: #000000"/>
     <use xlink:href="#m61080beae9" x="70.944312" y="178.28283" style="stroke: #000000"/>
     <use xlink:href="#m61080beae9" x="99.023602" y="157.7204" style="stroke: #000000"/>
     <use xlink:href="#m61080beae9" x="100.139857" y="176.614334" style="stroke: #000000"/>
     <use xlink:href="#m61080beae9" x="98.438252" y="131.016366" style="stroke: #000000"/>
     <use xlink:href="#m61080beae9" x="109.786183" y="155.921041" style="stroke: #000000"/>
     <use xlink:href="#m61080beae9" x="92.01454" y="184.07756" style="stroke: #000000"/>
     <use xlink:href="#m61080beae9" x="80.847033" y="186.662947" style="stroke: #000000"/>
     <use xlink:href="#m61080beae9" x="160.337517" y="234.785602" style="stroke: #000000"/>
     <use xlink:href="#m61080beae9" x="93.524435" y="128.041266" style="stroke: #000000"/>
     <use xlink:href="#m61080beae9" x="103.598319" y="151.651892" style="stroke: #000000"/>
     <use xlink:href="#m61080beae9" x="84.622113" y="158.093466" style="stroke: #000000"/>
     <use xlink:href="#m61080beae9" x="80.679618" y="196.041943" style="stroke: #000000"/>
     <use xlink:href="#m61080beae9" x="57.002794" y="194.339086" style="stroke: #000000"/>
     <use xlink:href="#m61080beae9" x="84.202016" y="167.577976" style="stroke: #000000"/>
     <use xlink:href="#m61080beae9" x="60.136968" y="156.395562" style="stroke: #000000"/>
     <use xlink:href="#m61080beae9" x="62.767707" y="190.137507" style="stroke: #000000"/>
     <use xlink:href="#m61080beae9" x="66.232441" y="182.69544" style="stroke: #000000"/>
     <use xlink:href="#m61080beae9" x="64.768632" y="184.162303" style="stroke: #000000"/>
     <use xlink:href="#m61080beae9" x="72.714534" y="175.51189" style="stroke: #000000"/>
     <use xlink:href="#m61080beae9" x="133.486328" y="174.92664" style="stroke: #000000"/>
     <use xlink:href="#m61080beae9" x="104.323766" y="191.134239" style="stroke: #000000"/>
     <use xlink:href="#m61080beae9" x="79.684751" y="171.111082" style="stroke: #000000"/>
     <use xlink:href="#m61080beae9" x="89.514058" y="141.447768" style="stroke: #000000"/>
     <use xlink:href="#m61080beae9" x="103.57175" y="110.150384" style="stroke: #000000"/>
     <use xlink:href="#m61080beae9" x="179.139652" y="182.702199" style="stroke: #000000"/>
     <use xlink:href="#m61080beae9" x="101.552028" y="209.774305" style="stroke: #000000"/>
     <use xlink:href="#m61080beae9" x="71.364252" y="145.358255" style="stroke: #000000"/>
     <use xlink:href="#m61080beae9" x="148.475378" y="169.447582" style="stroke: #000000"/>
     <use xlink:href="#m61080beae9" x="60.434123" y="183.716912" style="stroke: #000000"/>
     <use xlink:href="#m61080beae9" x="121.148351" y="135.450248" style="stroke: #000000"/>
     <use xlink:href="#m61080beae9" x="130.07137" y="173.759393" style="stroke: #000000"/>
     <use xlink:href="#m61080beae9" x="106.774772" y="192.315274" style="stroke: #000000"/>
     <use xlink:href="#m61080beae9" x="115.583164" y="152.217618" style="stroke: #000000"/>
     <use xlink:href="#m61080beae9" x="61.921334" y="150.758585" style="stroke: #000000"/>
     <use xlink:href="#m61080beae9" x="122.389154" y="141.230249" style="stroke: #000000"/>
     <use xlink:href="#m61080beae9" x="101.114749" y="159.293569" style="stroke: #000000"/>
     <use xlink:href="#m61080beae9" x="125.518154" y="123.404436" style="stroke: #000000"/>
     <use xlink:href="#m61080beae9" x="91.074898" y="188.397254" style="stroke: #000000"/>
     <use xlink:href="#m61080beae9" x="106.036614" y="185.60649" style="stroke: #000000"/>
     <use xlink:href="#m61080beae9" x="57.155947" y="139.691613" style="stroke: #000000"/>
     <use xlink:href="#m61080beae9" x="100.177472" y="213.27512" style="stroke: #000000"/>
     <use xlink:href="#m61080beae9" x="118.191828" y="209.780456" style="stroke: #000000"/>
     <use xlink:href="#m61080beae9" x="71.845263" y="211.31529" style="stroke: #000000"/>
     <use xlink:href="#m61080beae9" x="80.43693" y="151.538338" style="stroke: #000000"/>
     <use xlink:href="#m61080beae9" x="89.59776" y="105.652017" style="stroke: #000000"/>
     <use xlink:href="#m61080beae9" x="64.097814" y="205.959371" style="stroke: #000000"/>
     <use xlink:href="#m61080beae9" x="56.418447" y="154.955332" style="stroke: #000000"/>
     <use xlink:href="#m61080beae9" x="120.840319" y="232.97627" style="stroke: #000000"/>
     <use xlink:href="#m61080beae9" x="120.826992" y="222.655209" style="stroke: #000000"/>
     <use xlink:href="#m61080beae9" x="51.537415" y="171.200448" style="stroke: #000000"/>
     <use xlink:href="#m61080beae9" x="54.394001" y="182.091096" style="stroke: #000000"/>
    </g>
   </g>
   <g id="PathCollection_11">
    <defs>
     <path id="mc7d1ea03b6" d="M -3 -0 
L 3 3 
L 3 -3 
z
" style="stroke: #ff8c00"/>
    </defs>
    <g clip-path="url(#p61d65386d5)">
     <use xlink:href="#mc7d1ea03b6" x="85.55988" y="136.62783" style="fill: #ff8c00; stroke: #ff8c00"/>
     <use xlink:href="#mc7d1ea03b6" x="109.315328" y="183.701966" style="fill: #ff8c00; stroke: #ff8c00"/>
     <use xlink:href="#mc7d1ea03b6" x="112.889829" y="175.453394" style="fill: #ff8c00; stroke: #ff8c00"/>
     <use xlink:href="#mc7d1ea03b6" x="86.194251" y="172.003735" style="fill: #ff8c00; stroke: #ff8c00"/>
     <use xlink:href="#mc7d1ea03b6" x="86.611869" y="165.694084" style="fill: #ff8c00; stroke: #ff8c00"/>
     <use xlink:href="#mc7d1ea03b6" x="94.391959" y="179.73258" style="fill: #ff8c00; stroke: #ff8c00"/>
     <use xlink:href="#mc7d1ea03b6" x="77.400163" y="148.43877" style="fill: #ff8c00; stroke: #ff8c00"/>
     <use xlink:href="#mc7d1ea03b6" x="85.049555" y="178.353732" style="fill: #ff8c00; stroke: #ff8c00"/>
     <use xlink:href="#mc7d1ea03b6" x="65.012492" y="172.500722" style="fill: #ff8c00; stroke: #ff8c00"/>
     <use xlink:href="#mc7d1ea03b6" x="95.812599" y="210.111305" style="fill: #ff8c00; stroke: #ff8c00"/>
     <use xlink:href="#mc7d1ea03b6" x="80.072266" y="168.892818" style="fill: #ff8c00; stroke: #ff8c00"/>
     <use xlink:href="#mc7d1ea03b6" x="79.800605" y="172.285062" style="fill: #ff8c00; stroke: #ff8c00"/>
     <use xlink:href="#mc7d1ea03b6" x="102.639201" y="180.966782" style="fill: #ff8c00; stroke: #ff8c00"/>
     <use xlink:href="#mc7d1ea03b6" x="94.274172" y="153.260668" style="fill: #ff8c00; stroke: #ff8c00"/>
     <use xlink:href="#mc7d1ea03b6" x="56.086473" y="181.962849" style="fill: #ff8c00; stroke: #ff8c00"/>
     <use xlink:href="#mc7d1ea03b6" x="72.24567" y="184.500647" style="fill: #ff8c00; stroke: #ff8c00"/>
     <use xlink:href="#mc7d1ea03b6" x="88.828621" y="158.949411" style="fill: #ff8c00; stroke: #ff8c00"/>
     <use xlink:href="#mc7d1ea03b6" x="75.650711" y="143.363151" style="fill: #ff8c00; stroke: #ff8c00"/>
     <use xlink:href="#mc7d1ea03b6" x="77.999374" y="173.367918" style="fill: #ff8c00; stroke: #ff8c00"/>
     <use xlink:href="#mc7d1ea03b6" x="121.808486" y="169.687218" style="fill: #ff8c00; stroke: #ff8c00"/>
     <use xlink:href="#mc7d1ea03b6" x="103.236518" y="143.810974" style="fill: #ff8c00; stroke: #ff8c00"/>
     <use xlink:href="#mc7d1ea03b6" x="79.072652" y="184.584865" style="fill: #ff8c00; stroke: #ff8c00"/>
     <use xlink:href="#mc7d1ea03b6" x="89.684346" y="181.616692" style="fill: #ff8c00; stroke: #ff8c00"/>
     <use xlink:href="#mc7d1ea03b6" x="114.580263" y="199.299703" style="fill: #ff8c00; stroke: #ff8c00"/>
     <use xlink:href="#mc7d1ea03b6" x="83.759592" y="129.01719" style="fill: #ff8c00; stroke: #ff8c00"/>
     <use xlink:href="#mc7d1ea03b6" x="75.951023" y="166.011564" style="fill: #ff8c00; stroke: #ff8c00"/>
     <use xlink:href="#mc7d1ea03b6" x="62.543124" y="130.514091" style="fill: #ff8c00; stroke: #ff8c00"/>
     <use xlink:href="#mc7d1ea03b6" x="85.093738" y="137.087035" style="fill: #ff8c00; stroke: #ff8c00"/>
     <use xlink:href="#mc7d1ea03b6" x="64.53118" y="139.376223" style="fill: #ff8c00; stroke: #ff8c00"/>
     <use xlink:href="#mc7d1ea03b6" x="83.009428" y="174.051507" style="fill: #ff8c00; stroke: #ff8c00"/>
     <use xlink:href="#mc7d1ea03b6" x="114.719799" y="142.725512" style="fill: #ff8c00; stroke: #ff8c00"/>
     <use xlink:href="#mc7d1ea03b6" x="78.540701" y="163.45644" style="fill: #ff8c00; stroke: #ff8c00"/>
     <use xlink:href="#mc7d1ea03b6" x="109.418192" y="196.011167" style="fill: #ff8c00; stroke: #ff8c00"/>
     <use xlink:href="#mc7d1ea03b6" x="91.194539" y="165.874518" style="fill: #ff8c00; stroke: #ff8c00"/>
     <use xlink:href="#mc7d1ea03b6" x="64.817542" y="133.45826" style="fill: #ff8c00; stroke: #ff8c00"/>
     <use xlink:href="#mc7d1ea03b6" x="77.293635" y="170.639427" style="fill: #ff8c00; stroke: #ff8c00"/>
     <use xlink:href="#mc7d1ea03b6" x="97.079394" y="149.347678" style="fill: #ff8c00; stroke: #ff8c00"/>
     <use xlink:href="#mc7d1ea03b6" x="101.02898" y="216.350786" style="fill: #ff8c00; stroke: #ff8c00"/>
     <use xlink:href="#mc7d1ea03b6" x="115.302095" y="182.400917" style="fill: #ff8c00; stroke: #ff8c00"/>
     <use xlink:href="#mc7d1ea03b6" x="95.534265" y="172.714163" style="fill: #ff8c00; stroke: #ff8c00"/>
     <use xlink:href="#mc7d1ea03b6" x="58.976205" y="180.530536" style="fill: #ff8c00; stroke: #ff8c00"/>
     <use xlink:href="#mc7d1ea03b6" x="80.259136" y="191.866289" style="fill: #ff8c00; stroke: #ff8c00"/>
     <use xlink:href="#mc7d1ea03b6" x="97.837554" y="195.914974" style="fill: #ff8c00; stroke: #ff8c00"/>
     <use xlink:href="#mc7d1ea03b6" x="75.847952" y="178.338627" style="fill: #ff8c00; stroke: #ff8c00"/>
     <use xlink:href="#mc7d1ea03b6" x="101.50149" y="171.682987" style="fill: #ff8c00; stroke: #ff8c00"/>
     <use xlink:href="#mc7d1ea03b6" x="86.304587" y="178.046354" style="fill: #ff8c00; stroke: #ff8c00"/>
     <use xlink:href="#mc7d1ea03b6" x="79.294953" y="191.908732" style="fill: #ff8c00; stroke: #ff8c00"/>
     <use xlink:href="#mc7d1ea03b6" x="86.115556" y="158.061635" style="fill: #ff8c00; stroke: #ff8c00"/>
     <use xlink:href="#mc7d1ea03b6" x="77.965933" y="176.560555" style="fill: #ff8c00; stroke: #ff8c00"/>
     <use xlink:href="#mc7d1ea03b6" x="87.593769" y="175.079122" style="fill: #ff8c00; stroke: #ff8c00"/>
     <use xlink:href="#mc7d1ea03b6" x="115.66314" y="184.874284" style="fill: #ff8c00; stroke: #ff8c00"/>
     <use xlink:href="#mc7d1ea03b6" x="114.225158" y="226.909398" style="fill: #ff8c00; stroke: #ff8c00"/>
     <use xlink:href="#mc7d1ea03b6" x="75.490335" y="186.109003" style="fill: #ff8c00; stroke: #ff8c00"/>
     <use xlink:href="#mc7d1ea03b6" x="75.15096" y="184.769487" style="fill: #ff8c00; stroke: #ff8c00"/>
     <use xlink:href="#mc7d1ea03b6" x="79.156466" y="166.040194" style="fill: #ff8c00; stroke: #ff8c00"/>
     <use xlink:href="#mc7d1ea03b6" x="124.345552" y="208.114757" style="fill: #ff8c00; stroke: #ff8c00"/>
     <use xlink:href="#mc7d1ea03b6" x="73.476419" y="201.016184" style="fill: #ff8c00; stroke: #ff8c00"/>
     <use xlink:href="#mc7d1ea03b6" x="89.904578" y="149.66124" style="fill: #ff8c00; stroke: #ff8c00"/>
     <use xlink:href="#mc7d1ea03b6" x="70.88582" y="165.263329" style="fill: #ff8c00; stroke: #ff8c00"/>
     <use xlink:href="#mc7d1ea03b6" x="99.264361" y="178.401214" style="fill: #ff8c00; stroke: #ff8c00"/>
     <use xlink:href="#mc7d1ea03b6" x="94.997238" y="158.79231" style="fill: #ff8c00; stroke: #ff8c00"/>
     <use xlink:href="#mc7d1ea03b6" x="93.760955" y="162.46009" style="fill: #ff8c00; stroke: #ff8c00"/>
     <use xlink:href="#mc7d1ea03b6" x="65.636854" y="155.196849" style="fill: #ff8c00; stroke: #ff8c00"/>
     <use xlink:href="#mc7d1ea03b6" x="93.47198" y="169.781463" style="fill: #ff8c00; stroke: #ff8c00"/>
    </g>
   </g>
   <g id="matplotlib.axis_1">
    <g id="xtick_1">
     <g id="line2d_1">
      <defs>
       <path id="m880226f9d5" d="M 0 0 
L 0 3.5 
" style="stroke: #000000; stroke-width: 0.8"/>
      </defs>
      <g>
       <use xlink:href="#m880226f9d5" x="38.732858" y="273.312" style="stroke: #000000; stroke-width: 0.8"/>
      </g>
     </g>
     <g id="text_1">
      <!-- −10 -->
      <g transform="translate(28.180514 287.910437) scale(0.1 -0.1)">
       <defs>
        <path id="DejaVuSans-2212" d="M 678 2272 
L 4684 2272 
L 4684 1741 
L 678 1741 
L 678 2272 
z
" transform="scale(0.015625)"/>
        <path id="DejaVuSans-31" d="M 794 531 
L 1825 531 
L 1825 4091 
L 703 3866 
L 703 4441 
L 1819 4666 
L 2450 4666 
L 2450 531 
L 3481 531 
L 3481 0 
L 794 0 
L 794 531 
z
" transform="scale(0.015625)"/>
        <path id="DejaVuSans-30" d="M 2034 4250 
Q 1547 4250 1301 3770 
Q 1056 3291 1056 2328 
Q 1056 1369 1301 889 
Q 1547 409 2034 409 
Q 2525 409 2770 889 
Q 3016 1369 3016 2328 
Q 3016 3291 2770 3770 
Q 2525 4250 2034 4250 
z
M 2034 4750 
Q 2819 4750 3233 4129 
Q 3647 3509 3647 2328 
Q 3647 1150 3233 529 
Q 2819 -91 2034 -91 
Q 1250 -91 836 529 
Q 422 1150 422 2328 
Q 422 3509 836 4129 
Q 1250 4750 2034 4750 
z
" transform="scale(0.015625)"/>
       </defs>
       <use xlink:href="#DejaVuSans-2212"/>
       <use xlink:href="#DejaVuSans-31" x="83.789062"/>
       <use xlink:href="#DejaVuSans-30" x="147.412109"/>
      </g>
     </g>
    </g>
    <g id="xtick_2">
     <g id="line2d_2">
      <g>
       <use xlink:href="#m880226f9d5" x="113.02278" y="273.312" style="stroke: #000000; stroke-width: 0.8"/>
      </g>
     </g>
     <g id="text_2">
      <!-- 0 -->
      <g transform="translate(109.84153 287.910437) scale(0.1 -0.1)">
       <use xlink:href="#DejaVuSans-30"/>
      </g>
     </g>
    </g>
    <g id="xtick_3">
     <g id="line2d_3">
      <g>
       <use xlink:href="#m880226f9d5" x="187.312702" y="273.312" style="stroke: #000000; stroke-width: 0.8"/>
      </g>
     </g>
     <g id="text_3">
      <!-- 10 -->
      <g transform="translate(180.950202 287.910437) scale(0.1 -0.1)">
       <use xlink:href="#DejaVuSans-31"/>
       <use xlink:href="#DejaVuSans-30" x="63.623047"/>
      </g>
     </g>
    </g>
    <g id="xtick_4">
     <g id="line2d_4">
      <g>
       <use xlink:href="#m880226f9d5" x="261.602624" y="273.312" style="stroke: #000000; stroke-width: 0.8"/>
      </g>
     </g>
     <g id="text_4">
      <!-- 20 -->
      <g transform="translate(255.240124 287.910437) scale(0.1 -0.1)">
       <defs>
        <path id="DejaVuSans-32" d="M 1228 531 
L 3431 531 
L 3431 0 
L 469 0 
L 469 531 
Q 828 903 1448 1529 
Q 2069 2156 2228 2338 
Q 2531 2678 2651 2914 
Q 2772 3150 2772 3378 
Q 2772 3750 2511 3984 
Q 2250 4219 1831 4219 
Q 1534 4219 1204 4116 
Q 875 4013 500 3803 
L 500 4441 
Q 881 4594 1212 4672 
Q 1544 4750 1819 4750 
Q 2544 4750 2975 4387 
Q 3406 4025 3406 3419 
Q 3406 3131 3298 2873 
Q 3191 2616 2906 2266 
Q 2828 2175 2409 1742 
Q 1991 1309 1228 531 
z
" transform="scale(0.015625)"/>
       </defs>
       <use xlink:href="#DejaVuSans-32"/>
       <use xlink:href="#DejaVuSans-30" x="63.623047"/>
      </g>
     </g>
    </g>
    <g id="xtick_5">
     <g id="line2d_5">
      <g>
       <use xlink:href="#m880226f9d5" x="335.892546" y="273.312" style="stroke: #000000; stroke-width: 0.8"/>
      </g>
     </g>
     <g id="text_5">
      <!-- 30 -->
      <g transform="translate(329.530046 287.910437) scale(0.1 -0.1)">
       <defs>
        <path id="DejaVuSans-33" d="M 2597 2516 
Q 3050 2419 3304 2112 
Q 3559 1806 3559 1356 
Q 3559 666 3084 287 
Q 2609 -91 1734 -91 
Q 1441 -91 1130 -33 
Q 819 25 488 141 
L 488 750 
Q 750 597 1062 519 
Q 1375 441 1716 441 
Q 2309 441 2620 675 
Q 2931 909 2931 1356 
Q 2931 1769 2642 2001 
Q 2353 2234 1838 2234 
L 1294 2234 
L 1294 2753 
L 1863 2753 
Q 2328 2753 2575 2939 
Q 2822 3125 2822 3475 
Q 2822 3834 2567 4026 
Q 2313 4219 1838 4219 
Q 1578 4219 1281 4162 
Q 984 4106 628 3988 
L 628 4550 
Q 988 4650 1302 4700 
Q 1616 4750 1894 4750 
Q 2613 4750 3031 4423 
Q 3450 4097 3450 3541 
Q 3450 3153 3228 2886 
Q 3006 2619 2597 2516 
z
" transform="scale(0.015625)"/>
       </defs>
       <use xlink:href="#DejaVuSans-33"/>
       <use xlink:href="#DejaVuSans-30" x="63.623047"/>
      </g>
     </g>
    </g>
   </g>
   <g id="matplotlib.axis_2">
    <g id="ytick_1">
     <g id="line2d_6">
      <defs>
       <path id="m76affe41d7" d="M 0 0 
L -3.5 0 
" style="stroke: #000000; stroke-width: 0.8"/>
      </defs>
      <g>
       <use xlink:href="#m76affe41d7" x="35.304688" y="257.684478" style="stroke: #000000; stroke-width: 0.8"/>
      </g>
     </g>
     <g id="text_6">
      <!-- −15 -->
      <g transform="translate(7.2 261.483697) scale(0.1 -0.1)">
       <defs>
        <path id="DejaVuSans-35" d="M 691 4666 
L 3169 4666 
L 3169 4134 
L 1269 4134 
L 1269 2991 
Q 1406 3038 1543 3061 
Q 1681 3084 1819 3084 
Q 2600 3084 3056 2656 
Q 3513 2228 3513 1497 
Q 3513 744 3044 326 
Q 2575 -91 1722 -91 
Q 1428 -91 1123 -41 
Q 819 9 494 109 
L 494 744 
Q 775 591 1075 516 
Q 1375 441 1709 441 
Q 2250 441 2565 725 
Q 2881 1009 2881 1497 
Q 2881 1984 2565 2268 
Q 2250 2553 1709 2553 
Q 1456 2553 1204 2497 
Q 953 2441 691 2322 
L 691 4666 
z
" transform="scale(0.015625)"/>
       </defs>
       <use xlink:href="#DejaVuSans-2212"/>
       <use xlink:href="#DejaVuSans-31" x="83.789062"/>
       <use xlink:href="#DejaVuSans-35" x="147.412109"/>
      </g>
     </g>
    </g>
    <g id="ytick_2">
     <g id="line2d_7">
      <g>
       <use xlink:href="#m76affe41d7" x="35.304688" y="227.499693" style="stroke: #000000; stroke-width: 0.8"/>
      </g>
     </g>
     <g id="text_7">
      <!-- −10 -->
      <g transform="translate(7.2 231.298912) scale(0.1 -0.1)">
       <use xlink:href="#DejaVuSans-2212"/>
       <use xlink:href="#DejaVuSans-31" x="83.789062"/>
       <use xlink:href="#DejaVuSans-30" x="147.412109"/>
      </g>
     </g>
    </g>
    <g id="ytick_3">
     <g id="line2d_8">
      <g>
       <use xlink:href="#m76affe41d7" x="35.304688" y="197.314908" style="stroke: #000000; stroke-width: 0.8"/>
      </g>
     </g>
     <g id="text_8">
      <!-- −5 -->
      <g transform="translate(13.5625 201.114127) scale(0.1 -0.1)">
       <use xlink:href="#DejaVuSans-2212"/>
       <use xlink:href="#DejaVuSans-35" x="83.789062"/>
      </g>
     </g>
    </g>
    <g id="ytick_4">
     <g id="line2d_9">
      <g>
       <use xlink:href="#m76affe41d7" x="35.304688" y="167.130124" style="stroke: #000000; stroke-width: 0.8"/>
      </g>
     </g>
     <g id="text_9">
      <!-- 0 -->
      <g transform="translate(21.942187 170.929342) scale(0.1 -0.1)">
       <use xlink:href="#DejaVuSans-30"/>
      </g>
     </g>
    </g>
    <g id="ytick_5">
     <g id="line2d_10">
      <g>
       <use xlink:href="#m76affe41d7" x="35.304688" y="136.945339" style="stroke: #000000; stroke-width: 0.8"/>
      </g>
     </g>
     <g id="text_10">
      <!-- 5 -->
      <g transform="translate(21.942187 140.744558) scale(0.1 -0.1)">
       <use xlink:href="#DejaVuSans-35"/>
      </g>
     </g>
    </g>
    <g id="ytick_6">
     <g id="line2d_11">
      <g>
       <use xlink:href="#m76affe41d7" x="35.304688" y="106.760554" style="stroke: #000000; stroke-width: 0.8"/>
      </g>
     </g>
     <g id="text_11">
      <!-- 10 -->
      <g transform="translate(15.579687 110.559773) scale(0.1 -0.1)">
       <use xlink:href="#DejaVuSans-31"/>
       <use xlink:href="#DejaVuSans-30" x="63.623047"/>
      </g>
     </g>
    </g>
    <g id="ytick_7">
     <g id="line2d_12">
      <g>
       <use xlink:href="#m76affe41d7" x="35.304688" y="76.57577" style="stroke: #000000; stroke-width: 0.8"/>
      </g>
     </g>
     <g id="text_12">
      <!-- 15 -->
      <g transform="translate(15.579687 80.374988) scale(0.1 -0.1)">
       <use xlink:href="#DejaVuSans-31"/>
       <use xlink:href="#DejaVuSans-35" x="63.623047"/>
      </g>
     </g>
    </g>
    <g id="ytick_8">
     <g id="line2d_13">
      <g>
       <use xlink:href="#m76affe41d7" x="35.304688" y="46.390985" style="stroke: #000000; stroke-width: 0.8"/>
      </g>
     </g>
     <g id="text_13">
      <!-- 20 -->
      <g transform="translate(15.579687 50.190204) scale(0.1 -0.1)">
       <use xlink:href="#DejaVuSans-32"/>
       <use xlink:href="#DejaVuSans-30" x="63.623047"/>
      </g>
     </g>
    </g>
    <g id="ytick_9">
     <g id="line2d_14">
      <g>
       <use xlink:href="#m76affe41d7" x="35.304688" y="16.2062" style="stroke: #000000; stroke-width: 0.8"/>
      </g>
     </g>
     <g id="text_14">
      <!-- 25 -->
      <g transform="translate(15.579687 20.005419) scale(0.1 -0.1)">
       <use xlink:href="#DejaVuSans-32"/>
       <use xlink:href="#DejaVuSans-35" x="63.623047"/>
      </g>
     </g>
    </g>
   </g>
   <g id="patch_3">
    <path d="M 35.304688 273.312 
L 35.304688 7.2 
" style="fill: none; stroke: #000000; stroke-width: 0.8; stroke-linejoin: miter; stroke-linecap: square"/>
   </g>
   <g id="patch_4">
    <path d="M 392.424688 273.312 
L 392.424688 7.2 
" style="fill: none; stroke: #000000; stroke-width: 0.8; stroke-linejoin: miter; stroke-linecap: square"/>
   </g>
   <g id="patch_5">
    <path d="M 35.304688 273.312 
L 392.424688 273.312 
" style="fill: none; stroke: #000000; stroke-width: 0.8; stroke-linejoin: miter; stroke-linecap: square"/>
   </g>
   <g id="patch_6">
    <path d="M 35.304688 7.2 
L 392.424688 7.2 
" style="fill: none; stroke: #000000; stroke-width: 0.8; stroke-linejoin: miter; stroke-linecap: square"/>
   </g>
  </g>
 </g>
 <defs>
  <clipPath id="p61d65386d5">
   <rect x="35.304688" y="7.2" width="357.12" height="266.112"/>
  </clipPath>
 </defs>
</svg>
