<?xml version="1.0" encoding="utf-8" standalone="no"?>
<!DOCTYPE svg PUBLIC "-//W3C//DTD SVG 1.1//EN"
  "http://www.w3.org/Graphics/SVG/1.1/DTD/svg11.dtd">
<svg xmlns:xlink="http://www.w3.org/1999/xlink" width="399.624687pt" height="297.190125pt" viewBox="0 0 399.624687 297.190125" xmlns="http://www.w3.org/2000/svg" version="1.1">
 <metadata>
  <rdf:RDF xmlns:dc="http://purl.org/dc/elements/1.1/" xmlns:cc="http://creativecommons.org/ns#" xmlns:rdf="http://www.w3.org/1999/02/22-rdf-syntax-ns#">
   <cc:Work>
    <dc:type rdf:resource="http://purl.org/dc/dcmitype/StillImage"/>
    <dc:date>2023-11-11T08:01:01.232296</dc:date>
    <dc:format>image/svg+xml</dc:format>
    <dc:creator>
     <cc:Agent>
      <dc:title>Matplotlib v3.8.0, https://matplotlib.org/</dc:title>
     </cc:Agent>
    </dc:creator>
   </cc:Work>
  </rdf:RDF>
 </metadata>
 <defs>
  <style type="text/css">*{stroke-linejoin: round; stroke-linecap: butt}</style>
 </defs>
 <g id="figure_1">
  <g id="patch_1">
   <path d="M 0 297.190125 
L 399.624687 297.190125 
L 399.624687 0 
L 0 0 
z
" style="fill: #ffffff"/>
  </g>
  <g id="axes_1">
   <g id="patch_2">
    <path d="M 35.304688 273.312 
L 392.424688 273.312 
L 392.424688 7.2 
L 35.304688 7.2 
z
" style="fill: #ffffff"/>
   </g>
   <g id="PathCollection_1">
    <defs>
     <path id="m870571a089" d="M 0 1.5 
C 0.397805 1.5 0.77937 1.341951 1.06066 1.06066 
C 1.341951 0.77937 1.5 0.397805 1.5 0 
C 1.5 -0.397805 1.341951 -0.77937 1.06066 -1.06066 
C 0.77937 -1.341951 0.397805 -1.5 0 -1.5 
C -0.397805 -1.5 -0.77937 -1.341951 -1.06066 -1.06066 
C -1.341951 -0.77937 -1.5 -0.397805 -1.5 0 
C -1.5 0.397805 -1.341951 0.77937 -1.06066 1.06066 
C -0.77937 1.341951 -0.397805 1.5 0 1.5 
z
" style="stroke: #ff8c00"/>
    </defs>
    <g clip-path="url(#pee9cfc2d87)">
     <use xlink:href="#m870571a089" x="164.716736" y="256.387816" style="fill: #ff8c00; stroke: #ff8c00"/>
     <use xlink:href="#m870571a089" x="139.777982" y="239.859735" style="fill: #ff8c00; stroke: #ff8c00"/>
     <use xlink:href="#m870571a089" x="154.037964" y="229.722212" style="fill: #ff8c00; stroke: #ff8c00"/>
     <use xlink:href="#m870571a089" x="199.980838" y="209.95088" style="fill: #ff8c00; stroke: #ff8c00"/>
     <use xlink:href="#m870571a089" x="157.338171" y="195.917477" style="fill: #ff8c00; stroke: #ff8c00"/>
     <use xlink:href="#m870571a089" x="174.150121" y="155.406354" style="fill: #ff8c00; stroke: #ff8c00"/>
     <use xlink:href="#m870571a089" x="206.419508" y="226.093171" style="fill: #ff8c00; stroke: #ff8c00"/>
     <use xlink:href="#m870571a089" x="120.147243" y="186.337053" style="fill: #ff8c00; stroke: #ff8c00"/>
     <use xlink:href="#m870571a089" x="159.2141" y="202.33475" style="fill: #ff8c00; stroke: #ff8c00"/>
     <use xlink:href="#m870571a089" x="163.931774" y="207.188428" style="fill: #ff8c00; stroke: #ff8c00"/>
     <use xlink:href="#m870571a089" x="195.396955" y="261.216" style="fill: #ff8c00; stroke: #ff8c00"/>
    </g>
   </g>
   <g id="PathCollection_2">
    <defs>
     <path id="mffa7aa89d8" d="M 0 1.5 
C 0.397805 1.5 0.77937 1.341951 1.06066 1.06066 
C 1.341951 0.77937 1.5 0.397805 1.5 0 
C 1.5 -0.397805 1.341951 -0.77937 1.06066 -1.06066 
C 0.77937 -1.341951 0.397805 -1.5 0 -1.5 
C -0.397805 -1.5 -0.77937 -1.341951 -1.06066 -1.06066 
C -1.341951 -0.77937 -1.5 -0.397805 -1.5 0 
C -1.5 0.397805 -1.341951 0.77937 -1.06066 1.06066 
C -0.77937 1.341951 -0.397805 1.5 0 1.5 
z
" style="stroke: #006400"/>
    </defs>
    <g clip-path="url(#pee9cfc2d87)">
     <use xlink:href="#mffa7aa89d8" x="99.693471" y="52.273943" style="fill: #006400; stroke: #006400"/>
     <use xlink:href="#mffa7aa89d8" x="144.320867" y="181.296323" style="fill: #006400; stroke: #006400"/>
     <use xlink:href="#mffa7aa89d8" x="176.823043" y="90.666326" style="fill: #006400; stroke: #006400"/>
     <use xlink:href="#mffa7aa89d8" x="67.722452" y="107.245862" style="fill: #006400; stroke: #006400"/>
     <use xlink:href="#mffa7aa89d8" x="67.282096" y="59.068567" style="fill: #006400; stroke: #006400"/>
     <use xlink:href="#mffa7aa89d8" x="146.821237" y="159.773293" style="fill: #006400; stroke: #006400"/>
     <use xlink:href="#mffa7aa89d8" x="143.895298" y="119.545867" style="fill: #006400; stroke: #006400"/>
     <use xlink:href="#mffa7aa89d8" x="90.570131" y="134.388772" style="fill: #006400; stroke: #006400"/>
     <use xlink:href="#mffa7aa89d8" x="75.752876" y="111.227761" style="fill: #006400; stroke: #006400"/>
     <use xlink:href="#mffa7aa89d8" x="63.203071" y="51.821246" style="fill: #006400; stroke: #006400"/>
    </g>
   </g>
   <g id="PathCollection_3">
    <defs>
     <path id="mfeae5bf5fe" d="M 0 1.5 
C 0.397805 1.5 0.77937 1.341951 1.06066 1.06066 
C 1.341951 0.77937 1.5 0.397805 1.5 0 
C 1.5 -0.397805 1.341951 -0.77937 1.06066 -1.06066 
C 0.77937 -1.341951 0.397805 -1.5 0 -1.5 
C -0.397805 -1.5 -0.77937 -1.341951 -1.06066 -1.06066 
C -1.341951 -0.77937 -1.5 -0.397805 -1.5 0 
C -1.5 0.397805 -1.341951 0.77937 -1.06066 1.06066 
C -0.77937 1.341951 -0.397805 1.5 0 1.5 
z
" style="stroke: #2f4f4f"/>
    </defs>
    <g clip-path="url(#pee9cfc2d87)">
     <use xlink:href="#mfeae5bf5fe" x="219.42465" y="112.016875" style="fill: #2f4f4f; stroke: #2f4f4f"/>
     <use xlink:href="#mfeae5bf5fe" x="188.438945" y="195.616794" style="fill: #2f4f4f; stroke: #2f4f4f"/>
     <use xlink:href="#mfeae5bf5fe" x="226.403411" y="182.033859" style="fill: #2f4f4f; stroke: #2f4f4f"/>
     <use xlink:href="#mfeae5bf5fe" x="207.639806" y="207.735386" style="fill: #2f4f4f; stroke: #2f4f4f"/>
     <use xlink:href="#mfeae5bf5fe" x="230.000414" y="213.100623" style="fill: #2f4f4f; stroke: #2f4f4f"/>
     <use xlink:href="#mfeae5bf5fe" x="254.692529" y="217.854359" style="fill: #2f4f4f; stroke: #2f4f4f"/>
     <use xlink:href="#mfeae5bf5fe" x="210.849341" y="134.66999" style="fill: #2f4f4f; stroke: #2f4f4f"/>
     <use xlink:href="#mfeae5bf5fe" x="208.080742" y="115.395325" style="fill: #2f4f4f; stroke: #2f4f4f"/>
     <use xlink:href="#mfeae5bf5fe" x="161.799095" y="170.372787" style="fill: #2f4f4f; stroke: #2f4f4f"/>
     <use xlink:href="#mfeae5bf5fe" x="176.085527" y="166.811125" style="fill: #2f4f4f; stroke: #2f4f4f"/>
     <use xlink:href="#mfeae5bf5fe" x="128.489411" y="198.711204" style="fill: #2f4f4f; stroke: #2f4f4f"/>
     <use xlink:href="#mfeae5bf5fe" x="207.711749" y="111.787196" style="fill: #2f4f4f; stroke: #2f4f4f"/>
     <use xlink:href="#mfeae5bf5fe" x="290.933576" y="191.36582" style="fill: #2f4f4f; stroke: #2f4f4f"/>
     <use xlink:href="#mfeae5bf5fe" x="124.416496" y="207.691597" style="fill: #2f4f4f; stroke: #2f4f4f"/>
     <use xlink:href="#mfeae5bf5fe" x="186.416111" y="217.533255" style="fill: #2f4f4f; stroke: #2f4f4f"/>
     <use xlink:href="#mfeae5bf5fe" x="232.561129" y="145.465202" style="fill: #2f4f4f; stroke: #2f4f4f"/>
     <use xlink:href="#mfeae5bf5fe" x="210.267564" y="167.828849" style="fill: #2f4f4f; stroke: #2f4f4f"/>
    </g>
   </g>
   <g id="PathCollection_4">
    <defs>
     <path id="m7ba22893d3" d="M 0 1.5 
C 0.397805 1.5 0.77937 1.341951 1.06066 1.06066 
C 1.341951 0.77937 1.5 0.397805 1.5 0 
C 1.5 -0.397805 1.341951 -0.77937 1.06066 -1.06066 
C 0.77937 -1.341951 0.397805 -1.5 0 -1.5 
C -0.397805 -1.5 -0.77937 -1.341951 -1.06066 -1.06066 
C -1.341951 -0.77937 -1.5 -0.397805 -1.5 0 
C -1.5 0.397805 -1.341951 0.77937 -1.06066 1.06066 
C -0.77937 1.341951 -0.397805 1.5 0 1.5 
z
" style="stroke: #00bfff"/>
    </defs>
    <g clip-path="url(#pee9cfc2d87)">
     <use xlink:href="#m7ba22893d3" x="187.736235" y="172.105541" style="fill: #00bfff; stroke: #00bfff"/>
     <use xlink:href="#m7ba22893d3" x="196.990499" y="135.432341" style="fill: #00bfff; stroke: #00bfff"/>
     <use xlink:href="#m7ba22893d3" x="194.785132" y="72.491496" style="fill: #00bfff; stroke: #00bfff"/>
     <use xlink:href="#m7ba22893d3" x="175.739975" y="148.259276" style="fill: #00bfff; stroke: #00bfff"/>
     <use xlink:href="#m7ba22893d3" x="155.790283" y="139.473709" style="fill: #00bfff; stroke: #00bfff"/>
     <use xlink:href="#m7ba22893d3" x="160.34279" y="130.965165" style="fill: #00bfff; stroke: #00bfff"/>
     <use xlink:href="#m7ba22893d3" x="133.500071" y="137.90038" style="fill: #00bfff; stroke: #00bfff"/>
     <use xlink:href="#m7ba22893d3" x="187.357001" y="119.234208" style="fill: #00bfff; stroke: #00bfff"/>
     <use xlink:href="#m7ba22893d3" x="179.753508" y="150.133273" style="fill: #00bfff; stroke: #00bfff"/>
     <use xlink:href="#m7ba22893d3" x="172.367785" y="144.635012" style="fill: #00bfff; stroke: #00bfff"/>
     <use xlink:href="#m7ba22893d3" x="166.940019" y="159.929939" style="fill: #00bfff; stroke: #00bfff"/>
     <use xlink:href="#m7ba22893d3" x="191.728967" y="135.498917" style="fill: #00bfff; stroke: #00bfff"/>
     <use xlink:href="#m7ba22893d3" x="172.982216" y="151.8792" style="fill: #00bfff; stroke: #00bfff"/>
     <use xlink:href="#m7ba22893d3" x="196.587456" y="133.099516" style="fill: #00bfff; stroke: #00bfff"/>
     <use xlink:href="#m7ba22893d3" x="130.132646" y="169.653447" style="fill: #00bfff; stroke: #00bfff"/>
     <use xlink:href="#m7ba22893d3" x="128.632378" y="115.72669" style="fill: #00bfff; stroke: #00bfff"/>
    </g>
   </g>
   <g id="PathCollection_5">
    <defs>
     <path id="mc449387a08" d="M 0 1.5 
C 0.397805 1.5 0.77937 1.341951 1.06066 1.06066 
C 1.341951 0.77937 1.5 0.397805 1.5 0 
C 1.5 -0.397805 1.341951 -0.77937 1.06066 -1.06066 
C 0.77937 -1.341951 0.397805 -1.5 0 -1.5 
C -0.397805 -1.5 -0.77937 -1.341951 -1.06066 -1.06066 
C -1.341951 -0.77937 -1.5 -0.397805 -1.5 0 
C -1.5 0.397805 -1.341951 0.77937 -1.06066 1.06066 
C -0.77937 1.341951 -0.397805 1.5 0 1.5 
z
" style="stroke: #ffff00"/>
    </defs>
    <g clip-path="url(#pee9cfc2d87)">
     <use xlink:href="#mc449387a08" x="176.194243" y="167.604468" style="fill: #ffff00; stroke: #ffff00"/>
     <use xlink:href="#mc449387a08" x="173.061255" y="131.969911" style="fill: #ffff00; stroke: #ffff00"/>
     <use xlink:href="#mc449387a08" x="160.276973" y="138.026999" style="fill: #ffff00; stroke: #ffff00"/>
     <use xlink:href="#mc449387a08" x="154.640556" y="136.94838" style="fill: #ffff00; stroke: #ffff00"/>
     <use xlink:href="#mc449387a08" x="178.73113" y="98.601038" style="fill: #ffff00; stroke: #ffff00"/>
     <use xlink:href="#mc449387a08" x="164.91903" y="198.756831" style="fill: #ffff00; stroke: #ffff00"/>
     <use xlink:href="#mc449387a08" x="196.535312" y="121.492895" style="fill: #ffff00; stroke: #ffff00"/>
     <use xlink:href="#mc449387a08" x="211.754527" y="153.433778" style="fill: #ffff00; stroke: #ffff00"/>
    </g>
   </g>
   <g id="PathCollection_6">
    <defs>
     <path id="mb7a3869ba7" d="M 0 1.5 
C 0.397805 1.5 0.77937 1.341951 1.06066 1.06066 
C 1.341951 0.77937 1.5 0.397805 1.5 0 
C 1.5 -0.397805 1.341951 -0.77937 1.06066 -1.06066 
C 0.77937 -1.341951 0.397805 -1.5 0 -1.5 
C -0.397805 -1.5 -0.77937 -1.341951 -1.06066 -1.06066 
C -1.341951 -0.77937 -1.5 -0.397805 -1.5 0 
C -1.5 0.397805 -1.341951 0.77937 -1.06066 1.06066 
C -0.77937 1.341951 -0.397805 1.5 0 1.5 
z
" style="stroke: #00ffff"/>
    </defs>
    <g clip-path="url(#pee9cfc2d87)">
     <use xlink:href="#mb7a3869ba7" x="172.889284" y="80.412309" style="fill: #00ffff; stroke: #00ffff"/>
     <use xlink:href="#mb7a3869ba7" x="178.264151" y="125.083696" style="fill: #00ffff; stroke: #00ffff"/>
     <use xlink:href="#mb7a3869ba7" x="155.659372" y="151.006665" style="fill: #00ffff; stroke: #00ffff"/>
     <use xlink:href="#mb7a3869ba7" x="199.994994" y="96.01521" style="fill: #00ffff; stroke: #00ffff"/>
     <use xlink:href="#mb7a3869ba7" x="197.895683" y="101.970639" style="fill: #00ffff; stroke: #00ffff"/>
     <use xlink:href="#mb7a3869ba7" x="232.864496" y="137.216565" style="fill: #00ffff; stroke: #00ffff"/>
     <use xlink:href="#mb7a3869ba7" x="230.260368" y="140.903287" style="fill: #00ffff; stroke: #00ffff"/>
     <use xlink:href="#mb7a3869ba7" x="194.78185" y="145.459773" style="fill: #00ffff; stroke: #00ffff"/>
     <use xlink:href="#mb7a3869ba7" x="218.258315" y="105.313218" style="fill: #00ffff; stroke: #00ffff"/>
     <use xlink:href="#mb7a3869ba7" x="183.51363" y="148.548329" style="fill: #00ffff; stroke: #00ffff"/>
     <use xlink:href="#mb7a3869ba7" x="216.187166" y="128.889686" style="fill: #00ffff; stroke: #00ffff"/>
     <use xlink:href="#mb7a3869ba7" x="227.885643" y="114.986264" style="fill: #00ffff; stroke: #00ffff"/>
     <use xlink:href="#mb7a3869ba7" x="187.542446" y="113.117015" style="fill: #00ffff; stroke: #00ffff"/>
     <use xlink:href="#mb7a3869ba7" x="196.308551" y="89.871153" style="fill: #00ffff; stroke: #00ffff"/>
     <use xlink:href="#mb7a3869ba7" x="226.393453" y="113.697279" style="fill: #00ffff; stroke: #00ffff"/>
     <use xlink:href="#mb7a3869ba7" x="166.678017" y="127.214643" style="fill: #00ffff; stroke: #00ffff"/>
     <use xlink:href="#mb7a3869ba7" x="165.210146" y="133.76521" style="fill: #00ffff; stroke: #00ffff"/>
     <use xlink:href="#mb7a3869ba7" x="191.959617" y="118.727966" style="fill: #00ffff; stroke: #00ffff"/>
     <use xlink:href="#mb7a3869ba7" x="177.415861" y="173.194339" style="fill: #00ffff; stroke: #00ffff"/>
     <use xlink:href="#mb7a3869ba7" x="242.74399" y="103.387295" style="fill: #00ffff; stroke: #00ffff"/>
     <use xlink:href="#mb7a3869ba7" x="129.459442" y="112.673518" style="fill: #00ffff; stroke: #00ffff"/>
     <use xlink:href="#mb7a3869ba7" x="155.794164" y="112.302925" style="fill: #00ffff; stroke: #00ffff"/>
    </g>
   </g>
   <g id="PathCollection_7">
    <defs>
     <path id="m3a8607058a" d="M 0 1.5 
C 0.397805 1.5 0.77937 1.341951 1.06066 1.06066 
C 1.341951 0.77937 1.5 0.397805 1.5 0 
C 1.5 -0.397805 1.341951 -0.77937 1.06066 -1.06066 
C 0.77937 -1.341951 0.397805 -1.5 0 -1.5 
C -0.397805 -1.5 -0.77937 -1.341951 -1.06066 -1.06066 
C -1.341951 -0.77937 -1.5 -0.397805 -1.5 0 
C -1.5 0.397805 -1.341951 0.77937 -1.06066 1.06066 
C -0.77937 1.341951 -0.397805 1.5 0 1.5 
z
" style="stroke: #0000ff"/>
    </defs>
    <g clip-path="url(#pee9cfc2d87)">
     <use xlink:href="#m3a8607058a" x="337.252798" y="139.282546" style="fill: #0000ff; stroke: #0000ff"/>
     <use xlink:href="#m3a8607058a" x="320.355265" y="124.184059" style="fill: #0000ff; stroke: #0000ff"/>
     <use xlink:href="#m3a8607058a" x="343.603355" y="105.816034" style="fill: #0000ff; stroke: #0000ff"/>
     <use xlink:href="#m3a8607058a" x="287.423966" y="131.871557" style="fill: #0000ff; stroke: #0000ff"/>
     <use xlink:href="#m3a8607058a" x="167.068034" y="143.66803" style="fill: #0000ff; stroke: #0000ff"/>
     <use xlink:href="#m3a8607058a" x="221.149556" y="119.017433" style="fill: #0000ff; stroke: #0000ff"/>
     <use xlink:href="#m3a8607058a" x="301.584749" y="107.135704" style="fill: #0000ff; stroke: #0000ff"/>
     <use xlink:href="#m3a8607058a" x="172.499674" y="137.668461" style="fill: #0000ff; stroke: #0000ff"/>
     <use xlink:href="#m3a8607058a" x="299.591266" y="132.782386" style="fill: #0000ff; stroke: #0000ff"/>
     <use xlink:href="#m3a8607058a" x="309.831044" y="128.234359" style="fill: #0000ff; stroke: #0000ff"/>
     <use xlink:href="#m3a8607058a" x="145.730711" y="136.48825" style="fill: #0000ff; stroke: #0000ff"/>
    </g>
   </g>
   <g id="PathCollection_8">
    <defs>
     <path id="m53c0d15a35" d="M 0 1.5 
C 0.397805 1.5 0.77937 1.341951 1.06066 1.06066 
C 1.341951 0.77937 1.5 0.397805 1.5 0 
C 1.5 -0.397805 1.341951 -0.77937 1.06066 -1.06066 
C 0.77937 -1.341951 0.397805 -1.5 0 -1.5 
C -0.397805 -1.5 -0.77937 -1.341951 -1.06066 -1.06066 
C -1.341951 -0.77937 -1.5 -0.397805 -1.5 0 
C -1.5 0.397805 -1.341951 0.77937 -1.06066 1.06066 
C -0.77937 1.341951 -0.397805 1.5 0 1.5 
z
" style="stroke: #dc143c"/>
    </defs>
    <g clip-path="url(#pee9cfc2d87)">
     <use xlink:href="#m53c0d15a35" x="127.046776" y="181.506227" style="fill: #dc143c; stroke: #dc143c"/>
     <use xlink:href="#m53c0d15a35" x="139.6795" y="193.298985" style="fill: #dc143c; stroke: #dc143c"/>
     <use xlink:href="#m53c0d15a35" x="117.212703" y="191.962414" style="fill: #dc143c; stroke: #dc143c"/>
     <use xlink:href="#m53c0d15a35" x="129.045355" y="220.273873" style="fill: #dc143c; stroke: #dc143c"/>
     <use xlink:href="#m53c0d15a35" x="100.084737" y="203.975691" style="fill: #dc143c; stroke: #dc143c"/>
     <use xlink:href="#m53c0d15a35" x="137.513358" y="175.105819" style="fill: #dc143c; stroke: #dc143c"/>
     <use xlink:href="#m53c0d15a35" x="145.831789" y="222.317655" style="fill: #dc143c; stroke: #dc143c"/>
     <use xlink:href="#m53c0d15a35" x="126.863444" y="153.511079" style="fill: #dc143c; stroke: #dc143c"/>
     <use xlink:href="#m53c0d15a35" x="117.274288" y="170.424086" style="fill: #dc143c; stroke: #dc143c"/>
     <use xlink:href="#m53c0d15a35" x="100.958166" y="155.280146" style="fill: #dc143c; stroke: #dc143c"/>
     <use xlink:href="#m53c0d15a35" x="171.275486" y="187.5036" style="fill: #dc143c; stroke: #dc143c"/>
     <use xlink:href="#m53c0d15a35" x="111.383188" y="178.028573" style="fill: #dc143c; stroke: #dc143c"/>
     <use xlink:href="#m53c0d15a35" x="102.198826" y="176.876826" style="fill: #dc143c; stroke: #dc143c"/>
     <use xlink:href="#m53c0d15a35" x="125.745681" y="196.033562" style="fill: #dc143c; stroke: #dc143c"/>
     <use xlink:href="#m53c0d15a35" x="121.177109" y="160.278697" style="fill: #dc143c; stroke: #dc143c"/>
     <use xlink:href="#m53c0d15a35" x="171.61294" y="151.366433" style="fill: #dc143c; stroke: #dc143c"/>
    </g>
   </g>
   <g id="PathCollection_9">
    <defs>
     <path id="m3b3b82cb94" d="M 0 1.5 
C 0.397805 1.5 0.77937 1.341951 1.06066 1.06066 
C 1.341951 0.77937 1.5 0.397805 1.5 0 
C 1.5 -0.397805 1.341951 -0.77937 1.06066 -1.06066 
C 0.77937 -1.341951 0.397805 -1.5 0 -1.5 
C -0.397805 -1.5 -0.77937 -1.341951 -1.06066 -1.06066 
C -1.341951 -0.77937 -1.5 -0.397805 -1.5 0 
C -1.5 0.397805 -1.341951 0.77937 -1.06066 1.06066 
C -0.77937 1.341951 -0.397805 1.5 0 1.5 
z
" style="stroke: #ffe4c4"/>
    </defs>
    <g clip-path="url(#pee9cfc2d87)">
     <use xlink:href="#m3b3b82cb94" x="131.689312" y="79.647585" style="fill: #ffe4c4; stroke: #ffe4c4"/>
     <use xlink:href="#m3b3b82cb94" x="125.400572" y="97.093823" style="fill: #ffe4c4; stroke: #ffe4c4"/>
     <use xlink:href="#m3b3b82cb94" x="122.409" y="92.584853" style="fill: #ffe4c4; stroke: #ffe4c4"/>
     <use xlink:href="#m3b3b82cb94" x="103.444375" y="23.037232" style="fill: #ffe4c4; stroke: #ffe4c4"/>
     <use xlink:href="#m3b3b82cb94" x="167.763144" y="63.895127" style="fill: #ffe4c4; stroke: #ffe4c4"/>
     <use xlink:href="#m3b3b82cb94" x="112.782158" y="106.108836" style="fill: #ffe4c4; stroke: #ffe4c4"/>
     <use xlink:href="#m3b3b82cb94" x="144.970565" y="88.354741" style="fill: #ffe4c4; stroke: #ffe4c4"/>
     <use xlink:href="#m3b3b82cb94" x="130.812842" y="120.27661" style="fill: #ffe4c4; stroke: #ffe4c4"/>
     <use xlink:href="#m3b3b82cb94" x="102.862544" y="126.628891" style="fill: #ffe4c4; stroke: #ffe4c4"/>
     <use xlink:href="#m3b3b82cb94" x="121.313263" y="147.419757" style="fill: #ffe4c4; stroke: #ffe4c4"/>
     <use xlink:href="#m3b3b82cb94" x="151.683783" y="111.238431" style="fill: #ffe4c4; stroke: #ffe4c4"/>
     <use xlink:href="#m3b3b82cb94" x="114.519554" y="131.464622" style="fill: #ffe4c4; stroke: #ffe4c4"/>
     <use xlink:href="#m3b3b82cb94" x="125.127753" y="122.826608" style="fill: #ffe4c4; stroke: #ffe4c4"/>
     <use xlink:href="#m3b3b82cb94" x="112.304853" y="125.763584" style="fill: #ffe4c4; stroke: #ffe4c4"/>
     <use xlink:href="#m3b3b82cb94" x="52.91638" y="19.296" style="fill: #ffe4c4; stroke: #ffe4c4"/>
     <use xlink:href="#m3b3b82cb94" x="51.537415" y="48.28257" style="fill: #ffe4c4; stroke: #ffe4c4"/>
     <use xlink:href="#m3b3b82cb94" x="174.654224" y="87.97628" style="fill: #ffe4c4; stroke: #ffe4c4"/>
    </g>
   </g>
   <g id="PathCollection_10">
    <defs>
     <path id="m890ba8433a" d="M -2.99994 2.99994 
L 3.00006 2.99994 
L 3.00006 -3.00006 
L -2.99994 -3.00006 
z
" style="stroke: #000000"/>
    </defs>
    <g clip-path="url(#pee9cfc2d87)">
     <use xlink:href="#m890ba8433a" x="242.553332" y="130.281655" style="stroke: #000000"/>
     <use xlink:href="#m890ba8433a" x="213.959872" y="145.246041" style="stroke: #000000"/>
     <use xlink:href="#m890ba8433a" x="253.375652" y="178.014903" style="stroke: #000000"/>
     <use xlink:href="#m890ba8433a" x="288.44758" y="119.288528" style="stroke: #000000"/>
     <use xlink:href="#m890ba8433a" x="249.889611" y="173.534809" style="stroke: #000000"/>
     <use xlink:href="#m890ba8433a" x="340.235679" y="155.261382" style="stroke: #000000"/>
     <use xlink:href="#m890ba8433a" x="220.474601" y="180.616063" style="stroke: #000000"/>
     <use xlink:href="#m890ba8433a" x="236.694836" y="150.778287" style="stroke: #000000"/>
     <use xlink:href="#m890ba8433a" x="234.262346" y="126.103635" style="stroke: #000000"/>
     <use xlink:href="#m890ba8433a" x="175.522913" y="209.379185" style="stroke: #000000"/>
     <use xlink:href="#m890ba8433a" x="319.977016" y="138.6325" style="stroke: #000000"/>
     <use xlink:href="#m890ba8433a" x="266.482071" y="139.008293" style="stroke: #000000"/>
     <use xlink:href="#m890ba8433a" x="228.544117" y="170.655823" style="stroke: #000000"/>
     <use xlink:href="#m890ba8433a" x="222.534974" y="134.301566" style="stroke: #000000"/>
     <use xlink:href="#m890ba8433a" x="221.868686" y="138.937926" style="stroke: #000000"/>
     <use xlink:href="#m890ba8433a" x="270.714336" y="120.985053" style="stroke: #000000"/>
     <use xlink:href="#m890ba8433a" x="282.085968" y="115.515572" style="stroke: #000000"/>
     <use xlink:href="#m890ba8433a" x="201.445869" y="151.412646" style="stroke: #000000"/>
     <use xlink:href="#m890ba8433a" x="229.917811" y="142.010884" style="stroke: #000000"/>
     <use xlink:href="#m890ba8433a" x="232.952479" y="129.422515" style="stroke: #000000"/>
     <use xlink:href="#m890ba8433a" x="222.147802" y="178.275908" style="stroke: #000000"/>
     <use xlink:href="#m890ba8433a" x="207.026416" y="138.322363" style="stroke: #000000"/>
     <use xlink:href="#m890ba8433a" x="201.526551" y="125.789093" style="stroke: #000000"/>
     <use xlink:href="#m890ba8433a" x="284.904617" y="94.391526" style="stroke: #000000"/>
     <use xlink:href="#m890ba8433a" x="190.79081" y="176.471469" style="stroke: #000000"/>
     <use xlink:href="#m890ba8433a" x="148.287823" y="214.606131" style="stroke: #000000"/>
     <use xlink:href="#m890ba8433a" x="196.654259" y="140.828235" style="stroke: #000000"/>
     <use xlink:href="#m890ba8433a" x="234.005063" y="181.941255" style="stroke: #000000"/>
     <use xlink:href="#m890ba8433a" x="225.008941" y="142.92559" style="stroke: #000000"/>
     <use xlink:href="#m890ba8433a" x="243.560506" y="191.755955" style="stroke: #000000"/>
     <use xlink:href="#m890ba8433a" x="313.536663" y="139.242788" style="stroke: #000000"/>
     <use xlink:href="#m890ba8433a" x="249.159673" y="142.292095" style="stroke: #000000"/>
     <use xlink:href="#m890ba8433a" x="252.778811" y="112.664594" style="stroke: #000000"/>
     <use xlink:href="#m890ba8433a" x="283.993839" y="134.547836" style="stroke: #000000"/>
     <use xlink:href="#m890ba8433a" x="185.584097" y="187.643372" style="stroke: #000000"/>
     <use xlink:href="#m890ba8433a" x="247.94893" y="130.61254" style="stroke: #000000"/>
     <use xlink:href="#m890ba8433a" x="268.024066" y="189.875779" style="stroke: #000000"/>
     <use xlink:href="#m890ba8433a" x="212.566337" y="128.906277" style="stroke: #000000"/>
     <use xlink:href="#m890ba8433a" x="323.843333" y="139.101756" style="stroke: #000000"/>
     <use xlink:href="#m890ba8433a" x="246.5262" y="157.826291" style="stroke: #000000"/>
     <use xlink:href="#m890ba8433a" x="248.1857" y="162.852633" style="stroke: #000000"/>
     <use xlink:href="#m890ba8433a" x="243.122707" y="148.455867" style="stroke: #000000"/>
     <use xlink:href="#m890ba8433a" x="166.986716" y="135.413771" style="stroke: #000000"/>
     <use xlink:href="#m890ba8433a" x="282.828653" y="156.401442" style="stroke: #000000"/>
     <use xlink:href="#m890ba8433a" x="223.955457" y="235.082018" style="stroke: #000000"/>
     <use xlink:href="#m890ba8433a" x="171.235127" y="211.512126" style="stroke: #000000"/>
     <use xlink:href="#m890ba8433a" x="332.310459" y="127.839178" style="stroke: #000000"/>
     <use xlink:href="#m890ba8433a" x="254.058006" y="150.992682" style="stroke: #000000"/>
     <use xlink:href="#m890ba8433a" x="248.41527" y="136.948704" style="stroke: #000000"/>
     <use xlink:href="#m890ba8433a" x="256.884801" y="146.359432" style="stroke: #000000"/>
     <use xlink:href="#m890ba8433a" x="180.925074" y="219.077813" style="stroke: #000000"/>
     <use xlink:href="#m890ba8433a" x="225.541888" y="121.661261" style="stroke: #000000"/>
     <use xlink:href="#m890ba8433a" x="225.692748" y="136.170617" style="stroke: #000000"/>
     <use xlink:href="#m890ba8433a" x="310.398165" y="115.274946" style="stroke: #000000"/>
     <use xlink:href="#m890ba8433a" x="209.313003" y="114.852294" style="stroke: #000000"/>
     <use xlink:href="#m890ba8433a" x="207.559431" y="186.103443" style="stroke: #000000"/>
     <use xlink:href="#m890ba8433a" x="222.147802" y="178.275908" style="stroke: #000000"/>
     <use xlink:href="#m890ba8433a" x="368.768235" y="175.483561" style="stroke: #000000"/>
     <use xlink:href="#m890ba8433a" x="228.03799" y="151.329273" style="stroke: #000000"/>
     <use xlink:href="#m890ba8433a" x="312.034012" y="107.359922" style="stroke: #000000"/>
     <use xlink:href="#m890ba8433a" x="341.518687" y="127.07586" style="stroke: #000000"/>
     <use xlink:href="#m890ba8433a" x="194.760679" y="146.474404" style="stroke: #000000"/>
     <use xlink:href="#m890ba8433a" x="356.24417" y="112.445676" style="stroke: #000000"/>
     <use xlink:href="#m890ba8433a" x="160.810954" y="189.526144" style="stroke: #000000"/>
    </g>
   </g>
   <g id="PathCollection_11">
    <defs>
     <path id="m97681ece18" d="M -3 -0 
L 3 3 
L 3 -3 
z
" style="stroke: #ff8c00"/>
    </defs>
    <g clip-path="url(#pee9cfc2d87)">
     <use xlink:href="#m97681ece18" x="249.305979" y="119.640616" style="fill: #ff8c00; stroke: #ff8c00"/>
     <use xlink:href="#m97681ece18" x="218.886331" y="146.641386" style="fill: #ff8c00; stroke: #ff8c00"/>
     <use xlink:href="#m97681ece18" x="347.565242" y="150.524693" style="fill: #ff8c00; stroke: #ff8c00"/>
     <use xlink:href="#m97681ece18" x="226.443369" y="132.53054" style="fill: #ff8c00; stroke: #ff8c00"/>
     <use xlink:href="#m97681ece18" x="215.295335" y="133.821257" style="fill: #ff8c00; stroke: #ff8c00"/>
     <use xlink:href="#m97681ece18" x="151.643947" y="139.142608" style="fill: #ff8c00; stroke: #ff8c00"/>
     <use xlink:href="#m97681ece18" x="262.642601" y="113.713031" style="fill: #ff8c00; stroke: #ff8c00"/>
     <use xlink:href="#m97681ece18" x="215.288185" y="113.734173" style="fill: #ff8c00; stroke: #ff8c00"/>
     <use xlink:href="#m97681ece18" x="247.893706" y="113.58179" style="fill: #ff8c00; stroke: #ff8c00"/>
     <use xlink:href="#m97681ece18" x="251.867772" y="166.128415" style="fill: #ff8c00; stroke: #ff8c00"/>
     <use xlink:href="#m97681ece18" x="234.320068" y="116.567282" style="fill: #ff8c00; stroke: #ff8c00"/>
     <use xlink:href="#m97681ece18" x="376.19196" y="102.720501" style="fill: #ff8c00; stroke: #ff8c00"/>
     <use xlink:href="#m97681ece18" x="141.873964" y="138.517718" style="fill: #ff8c00; stroke: #ff8c00"/>
     <use xlink:href="#m97681ece18" x="304.833649" y="170.690694" style="fill: #ff8c00; stroke: #ff8c00"/>
     <use xlink:href="#m97681ece18" x="199.083956" y="141.84294" style="fill: #ff8c00; stroke: #ff8c00"/>
     <use xlink:href="#m97681ece18" x="331.560586" y="130.122995" style="fill: #ff8c00; stroke: #ff8c00"/>
     <use xlink:href="#m97681ece18" x="324.11736" y="141.811725" style="fill: #ff8c00; stroke: #ff8c00"/>
     <use xlink:href="#m97681ece18" x="155.818709" y="150.750896" style="fill: #ff8c00; stroke: #ff8c00"/>
     <use xlink:href="#m97681ece18" x="245.219796" y="140.433173" style="fill: #ff8c00; stroke: #ff8c00"/>
     <use xlink:href="#m97681ece18" x="248.62153" y="131.106965" style="fill: #ff8c00; stroke: #ff8c00"/>
     <use xlink:href="#m97681ece18" x="267.991967" y="86.644273" style="fill: #ff8c00; stroke: #ff8c00"/>
     <use xlink:href="#m97681ece18" x="287.690501" y="150.56453" style="fill: #ff8c00; stroke: #ff8c00"/>
     <use xlink:href="#m97681ece18" x="207.306891" y="157.65847" style="fill: #ff8c00; stroke: #ff8c00"/>
     <use xlink:href="#m97681ece18" x="343.63953" y="177.565696" style="fill: #ff8c00; stroke: #ff8c00"/>
     <use xlink:href="#m97681ece18" x="273.015973" y="111.133139" style="fill: #ff8c00; stroke: #ff8c00"/>
     <use xlink:href="#m97681ece18" x="239.897952" y="122.339296" style="fill: #ff8c00; stroke: #ff8c00"/>
     <use xlink:href="#m97681ece18" x="304.163616" y="117.507601" style="fill: #ff8c00; stroke: #ff8c00"/>
     <use xlink:href="#m97681ece18" x="228.408669" y="148.600826" style="fill: #ff8c00; stroke: #ff8c00"/>
     <use xlink:href="#m97681ece18" x="216.999072" y="171.986995" style="fill: #ff8c00; stroke: #ff8c00"/>
     <use xlink:href="#m97681ece18" x="259.763937" y="157.529851" style="fill: #ff8c00; stroke: #ff8c00"/>
     <use xlink:href="#m97681ece18" x="206.547587" y="93.704126" style="fill: #ff8c00; stroke: #ff8c00"/>
     <use xlink:href="#m97681ece18" x="251.344183" y="113.299218" style="fill: #ff8c00; stroke: #ff8c00"/>
     <use xlink:href="#m97681ece18" x="270.358934" y="89.927335" style="fill: #ff8c00; stroke: #ff8c00"/>
     <use xlink:href="#m97681ece18" x="288.983318" y="128.214462" style="fill: #ff8c00; stroke: #ff8c00"/>
     <use xlink:href="#m97681ece18" x="209.896834" y="172.464775" style="fill: #ff8c00; stroke: #ff8c00"/>
     <use xlink:href="#m97681ece18" x="294.066746" y="121.443139" style="fill: #ff8c00; stroke: #ff8c00"/>
     <use xlink:href="#m97681ece18" x="220.244907" y="184.976005" style="fill: #ff8c00; stroke: #ff8c00"/>
     <use xlink:href="#m97681ece18" x="337.309895" y="118.349858" style="fill: #ff8c00; stroke: #ff8c00"/>
     <use xlink:href="#m97681ece18" x="216.496143" y="169.552805" style="fill: #ff8c00; stroke: #ff8c00"/>
     <use xlink:href="#m97681ece18" x="258.491225" y="120.817414" style="fill: #ff8c00; stroke: #ff8c00"/>
     <use xlink:href="#m97681ece18" x="271.066187" y="174.781816" style="fill: #ff8c00; stroke: #ff8c00"/>
     <use xlink:href="#m97681ece18" x="339.941182" y="114.653735" style="fill: #ff8c00; stroke: #ff8c00"/>
     <use xlink:href="#m97681ece18" x="217.347757" y="155.655809" style="fill: #ff8c00; stroke: #ff8c00"/>
     <use xlink:href="#m97681ece18" x="337.326038" y="89.398726" style="fill: #ff8c00; stroke: #ff8c00"/>
     <use xlink:href="#m97681ece18" x="292.855467" y="141.156299" style="fill: #ff8c00; stroke: #ff8c00"/>
     <use xlink:href="#m97681ece18" x="248.396986" y="172.654576" style="fill: #ff8c00; stroke: #ff8c00"/>
     <use xlink:href="#m97681ece18" x="268.214689" y="117.774376" style="fill: #ff8c00; stroke: #ff8c00"/>
     <use xlink:href="#m97681ece18" x="245.198755" y="114.829491" style="fill: #ff8c00; stroke: #ff8c00"/>
     <use xlink:href="#m97681ece18" x="305.479976" y="126.335447" style="fill: #ff8c00; stroke: #ff8c00"/>
     <use xlink:href="#m97681ece18" x="363.259671" y="212.121541" style="fill: #ff8c00; stroke: #ff8c00"/>
     <use xlink:href="#m97681ece18" x="273.664206" y="104.964605" style="fill: #ff8c00; stroke: #ff8c00"/>
     <use xlink:href="#m97681ece18" x="275.872372" y="205.987813" style="fill: #ff8c00; stroke: #ff8c00"/>
     <use xlink:href="#m97681ece18" x="155.062928" y="199.439107" style="fill: #ff8c00; stroke: #ff8c00"/>
     <use xlink:href="#m97681ece18" x="271.064327" y="138.68007" style="fill: #ff8c00; stroke: #ff8c00"/>
     <use xlink:href="#m97681ece18" x="287.513762" y="123.58239" style="fill: #ff8c00; stroke: #ff8c00"/>
     <use xlink:href="#m97681ece18" x="188.156655" y="125.735025" style="fill: #ff8c00; stroke: #ff8c00"/>
     <use xlink:href="#m97681ece18" x="209.786879" y="109.587061" style="fill: #ff8c00; stroke: #ff8c00"/>
     <use xlink:href="#m97681ece18" x="372.18996" y="218.526571" style="fill: #ff8c00; stroke: #ff8c00"/>
     <use xlink:href="#m97681ece18" x="276.13238" y="137.061482" style="fill: #ff8c00; stroke: #ff8c00"/>
     <use xlink:href="#m97681ece18" x="242.182461" y="148.171749" style="fill: #ff8c00; stroke: #ff8c00"/>
     <use xlink:href="#m97681ece18" x="215.023393" y="163.662919" style="fill: #ff8c00; stroke: #ff8c00"/>
     <use xlink:href="#m97681ece18" x="260.949115" y="150.869874" style="fill: #ff8c00; stroke: #ff8c00"/>
     <use xlink:href="#m97681ece18" x="356.840485" y="165.499498" style="fill: #ff8c00; stroke: #ff8c00"/>
     <use xlink:href="#m97681ece18" x="284.217285" y="184.646342" style="fill: #ff8c00; stroke: #ff8c00"/>
    </g>
   </g>
   <g id="matplotlib.axis_1">
    <g id="xtick_1">
     <g id="line2d_1">
      <defs>
       <path id="m4e7488a1af" d="M 0 0 
L 0 3.5 
" style="stroke: #000000; stroke-width: 0.8"/>
      </defs>
      <g>
       <use xlink:href="#m4e7488a1af" x="75.900427" y="273.312" style="stroke: #000000; stroke-width: 0.8"/>
      </g>
     </g>
     <g id="text_1">
      <!-- −20 -->
      <g transform="translate(65.348083 287.910437) scale(0.1 -0.1)">
       <defs>
        <path id="DejaVuSans-2212" d="M 678 2272 
L 4684 2272 
L 4684 1741 
L 678 1741 
L 678 2272 
z
" transform="scale(0.015625)"/>
        <path id="DejaVuSans-32" d="M 1228 531 
L 3431 531 
L 3431 0 
L 469 0 
L 469 531 
Q 828 903 1448 1529 
Q 2069 2156 2228 2338 
Q 2531 2678 2651 2914 
Q 2772 3150 2772 3378 
Q 2772 3750 2511 3984 
Q 2250 4219 1831 4219 
Q 1534 4219 1204 4116 
Q 875 4013 500 3803 
L 500 4441 
Q 881 4594 1212 4672 
Q 1544 4750 1819 4750 
Q 2544 4750 2975 4387 
Q 3406 4025 3406 3419 
Q 3406 3131 3298 2873 
Q 3191 2616 2906 2266 
Q 2828 2175 2409 1742 
Q 1991 1309 1228 531 
z
" transform="scale(0.015625)"/>
        <path id="DejaVuSans-30" d="M 2034 4250 
Q 1547 4250 1301 3770 
Q 1056 3291 1056 2328 
Q 1056 1369 1301 889 
Q 1547 409 2034 409 
Q 2525 409 2770 889 
Q 3016 1369 3016 2328 
Q 3016 3291 2770 3770 
Q 2525 4250 2034 4250 
z
M 2034 4750 
Q 2819 4750 3233 4129 
Q 3647 3509 3647 2328 
Q 3647 1150 3233 529 
Q 2819 -91 2034 -91 
Q 1250 -91 836 529 
Q 422 1150 422 2328 
Q 422 3509 836 4129 
Q 1250 4750 2034 4750 
z
" transform="scale(0.015625)"/>
       </defs>
       <use xlink:href="#DejaVuSans-2212"/>
       <use xlink:href="#DejaVuSans-32" x="83.789062"/>
       <use xlink:href="#DejaVuSans-30" x="147.412109"/>
      </g>
     </g>
    </g>
    <g id="xtick_2">
     <g id="line2d_2">
      <g>
       <use xlink:href="#m4e7488a1af" x="143.611185" y="273.312" style="stroke: #000000; stroke-width: 0.8"/>
      </g>
     </g>
     <g id="text_2">
      <!-- −10 -->
      <g transform="translate(133.058842 287.910437) scale(0.1 -0.1)">
       <defs>
        <path id="DejaVuSans-31" d="M 794 531 
L 1825 531 
L 1825 4091 
L 703 3866 
L 703 4441 
L 1819 4666 
L 2450 4666 
L 2450 531 
L 3481 531 
L 3481 0 
L 794 0 
L 794 531 
z
" transform="scale(0.015625)"/>
       </defs>
       <use xlink:href="#DejaVuSans-2212"/>
       <use xlink:href="#DejaVuSans-31" x="83.789062"/>
       <use xlink:href="#DejaVuSans-30" x="147.412109"/>
      </g>
     </g>
    </g>
    <g id="xtick_3">
     <g id="line2d_3">
      <g>
       <use xlink:href="#m4e7488a1af" x="211.321944" y="273.312" style="stroke: #000000; stroke-width: 0.8"/>
      </g>
     </g>
     <g id="text_3">
      <!-- 0 -->
      <g transform="translate(208.140694 287.910437) scale(0.1 -0.1)">
       <use xlink:href="#DejaVuSans-30"/>
      </g>
     </g>
    </g>
    <g id="xtick_4">
     <g id="line2d_4">
      <g>
       <use xlink:href="#m4e7488a1af" x="279.032702" y="273.312" style="stroke: #000000; stroke-width: 0.8"/>
      </g>
     </g>
     <g id="text_4">
      <!-- 10 -->
      <g transform="translate(272.670202 287.910437) scale(0.1 -0.1)">
       <use xlink:href="#DejaVuSans-31"/>
       <use xlink:href="#DejaVuSans-30" x="63.623047"/>
      </g>
     </g>
    </g>
    <g id="xtick_5">
     <g id="line2d_5">
      <g>
       <use xlink:href="#m4e7488a1af" x="346.74346" y="273.312" style="stroke: #000000; stroke-width: 0.8"/>
      </g>
     </g>
     <g id="text_5">
      <!-- 20 -->
      <g transform="translate(340.38096 287.910437) scale(0.1 -0.1)">
       <use xlink:href="#DejaVuSans-32"/>
       <use xlink:href="#DejaVuSans-30" x="63.623047"/>
      </g>
     </g>
    </g>
   </g>
   <g id="matplotlib.axis_2">
    <g id="ytick_1">
     <g id="line2d_6">
      <defs>
       <path id="m2a34afd086" d="M 0 0 
L -3.5 0 
" style="stroke: #000000; stroke-width: 0.8"/>
      </defs>
      <g>
       <use xlink:href="#m2a34afd086" x="35.304688" y="240.889083" style="stroke: #000000; stroke-width: 0.8"/>
      </g>
     </g>
     <g id="text_6">
      <!-- −20 -->
      <g transform="translate(7.2 244.688301) scale(0.1 -0.1)">
       <use xlink:href="#DejaVuSans-2212"/>
       <use xlink:href="#DejaVuSans-32" x="83.789062"/>
       <use xlink:href="#DejaVuSans-30" x="147.412109"/>
      </g>
     </g>
    </g>
    <g id="ytick_2">
     <g id="line2d_7">
      <g>
       <use xlink:href="#m2a34afd086" x="35.304688" y="192.790178" style="stroke: #000000; stroke-width: 0.8"/>
      </g>
     </g>
     <g id="text_7">
      <!-- −10 -->
      <g transform="translate(7.2 196.589397) scale(0.1 -0.1)">
       <use xlink:href="#DejaVuSans-2212"/>
       <use xlink:href="#DejaVuSans-31" x="83.789062"/>
       <use xlink:href="#DejaVuSans-30" x="147.412109"/>
      </g>
     </g>
    </g>
    <g id="ytick_3">
     <g id="line2d_8">
      <g>
       <use xlink:href="#m2a34afd086" x="35.304688" y="144.691274" style="stroke: #000000; stroke-width: 0.8"/>
      </g>
     </g>
     <g id="text_8">
      <!-- 0 -->
      <g transform="translate(21.942187 148.490492) scale(0.1 -0.1)">
       <use xlink:href="#DejaVuSans-30"/>
      </g>
     </g>
    </g>
    <g id="ytick_4">
     <g id="line2d_9">
      <g>
       <use xlink:href="#m2a34afd086" x="35.304688" y="96.592369" style="stroke: #000000; stroke-width: 0.8"/>
      </g>
     </g>
     <g id="text_9">
      <!-- 10 -->
      <g transform="translate(15.579687 100.391588) scale(0.1 -0.1)">
       <use xlink:href="#DejaVuSans-31"/>
       <use xlink:href="#DejaVuSans-30" x="63.623047"/>
      </g>
     </g>
    </g>
    <g id="ytick_5">
     <g id="line2d_10">
      <g>
       <use xlink:href="#m2a34afd086" x="35.304688" y="48.493465" style="stroke: #000000; stroke-width: 0.8"/>
      </g>
     </g>
     <g id="text_10">
      <!-- 20 -->
      <g transform="translate(15.579687 52.292683) scale(0.1 -0.1)">
       <use xlink:href="#DejaVuSans-32"/>
       <use xlink:href="#DejaVuSans-30" x="63.623047"/>
      </g>
     </g>
    </g>
   </g>
   <g id="patch_3">
    <path d="M 35.304688 273.312 
L 35.304688 7.2 
" style="fill: none; stroke: #000000; stroke-width: 0.8; stroke-linejoin: miter; stroke-linecap: square"/>
   </g>
   <g id="patch_4">
    <path d="M 392.424688 273.312 
L 392.424688 7.2 
" style="fill: none; stroke: #000000; stroke-width: 0.8; stroke-linejoin: miter; stroke-linecap: square"/>
   </g>
   <g id="patch_5">
    <path d="M 35.304688 273.312 
L 392.424688 273.312 
" style="fill: none; stroke: #000000; stroke-width: 0.8; stroke-linejoin: miter; stroke-linecap: square"/>
   </g>
   <g id="patch_6">
    <path d="M 35.304688 7.2 
L 392.424688 7.2 
" style="fill: none; stroke: #000000; stroke-width: 0.8; stroke-linejoin: miter; stroke-linecap: square"/>
   </g>
  </g>
 </g>
 <defs>
  <clipPath id="pee9cfc2d87">
   <rect x="35.304688" y="7.2" width="357.12" height="266.112"/>
  </clipPath>
 </defs>
</svg>
