<?xml version="1.0" encoding="utf-8" standalone="no"?>
<!DOCTYPE svg PUBLIC "-//W3C//DTD SVG 1.1//EN"
  "http://www.w3.org/Graphics/SVG/1.1/DTD/svg11.dtd">
<svg xmlns:xlink="http://www.w3.org/1999/xlink" width="399.624687pt" height="297.190125pt" viewBox="0 0 399.624687 297.190125" xmlns="http://www.w3.org/2000/svg" version="1.1">
 <metadata>
  <rdf:RDF xmlns:dc="http://purl.org/dc/elements/1.1/" xmlns:cc="http://creativecommons.org/ns#" xmlns:rdf="http://www.w3.org/1999/02/22-rdf-syntax-ns#">
   <cc:Work>
    <dc:type rdf:resource="http://purl.org/dc/dcmitype/StillImage"/>
    <dc:date>2023-11-11T01:44:10.919707</dc:date>
    <dc:format>image/svg+xml</dc:format>
    <dc:creator>
     <cc:Agent>
      <dc:title>Matplotlib v3.8.0, https://matplotlib.org/</dc:title>
     </cc:Agent>
    </dc:creator>
   </cc:Work>
  </rdf:RDF>
 </metadata>
 <defs>
  <style type="text/css">*{stroke-linejoin: round; stroke-linecap: butt}</style>
 </defs>
 <g id="figure_1">
  <g id="patch_1">
   <path d="M 0 297.190125 
L 399.624687 297.190125 
L 399.624687 0 
L 0 0 
z
" style="fill: #ffffff"/>
  </g>
  <g id="axes_1">
   <g id="patch_2">
    <path d="M 35.304688 273.312 
L 392.424688 273.312 
L 392.424688 7.2 
L 35.304688 7.2 
z
" style="fill: #ffffff"/>
   </g>
   <g id="PathCollection_1">
    <defs>
     <path id="m322c073884" d="M 0 1.5 
C 0.397805 1.5 0.77937 1.341951 1.06066 1.06066 
C 1.341951 0.77937 1.5 0.397805 1.5 0 
C 1.5 -0.397805 1.341951 -0.77937 1.06066 -1.06066 
C 0.77937 -1.341951 0.397805 -1.5 0 -1.5 
C -0.397805 -1.5 -0.77937 -1.341951 -1.06066 -1.06066 
C -1.341951 -0.77937 -1.5 -0.397805 -1.5 0 
C -1.5 0.397805 -1.341951 0.77937 -1.06066 1.06066 
C -0.77937 1.341951 -0.397805 1.5 0 1.5 
z
" style="stroke: #ff8c00"/>
    </defs>
    <g clip-path="url(#p2293241553)">
     <use xlink:href="#m322c073884" x="169.164235" y="165.310441" style="fill: #ff8c00; stroke: #ff8c00"/>
     <use xlink:href="#m322c073884" x="239.619099" y="194.52618" style="fill: #ff8c00; stroke: #ff8c00"/>
     <use xlink:href="#m322c073884" x="125.614202" y="165.503334" style="fill: #ff8c00; stroke: #ff8c00"/>
     <use xlink:href="#m322c073884" x="198.296801" y="169.498392" style="fill: #ff8c00; stroke: #ff8c00"/>
     <use xlink:href="#m322c073884" x="196.393969" y="135.179718" style="fill: #ff8c00; stroke: #ff8c00"/>
     <use xlink:href="#m322c073884" x="177.622402" y="159.973255" style="fill: #ff8c00; stroke: #ff8c00"/>
     <use xlink:href="#m322c073884" x="169.578285" y="222.688582" style="fill: #ff8c00; stroke: #ff8c00"/>
     <use xlink:href="#m322c073884" x="173.036325" y="168.764648" style="fill: #ff8c00; stroke: #ff8c00"/>
     <use xlink:href="#m322c073884" x="126.894277" y="100.157158" style="fill: #ff8c00; stroke: #ff8c00"/>
    </g>
   </g>
   <g id="PathCollection_2">
    <defs>
     <path id="mc973d42cc2" d="M 0 1.5 
C 0.397805 1.5 0.77937 1.341951 1.06066 1.06066 
C 1.341951 0.77937 1.5 0.397805 1.5 0 
C 1.5 -0.397805 1.341951 -0.77937 1.06066 -1.06066 
C 0.77937 -1.341951 0.397805 -1.5 0 -1.5 
C -0.397805 -1.5 -0.77937 -1.341951 -1.06066 -1.06066 
C -1.341951 -0.77937 -1.5 -0.397805 -1.5 0 
C -1.5 0.397805 -1.341951 0.77937 -1.06066 1.06066 
C -0.77937 1.341951 -0.397805 1.5 0 1.5 
z
" style="stroke: #006400"/>
    </defs>
    <g clip-path="url(#p2293241553)">
     <use xlink:href="#mc973d42cc2" x="137.115164" y="138.263429" style="fill: #006400; stroke: #006400"/>
     <use xlink:href="#mc973d42cc2" x="155.885598" y="149.509717" style="fill: #006400; stroke: #006400"/>
     <use xlink:href="#mc973d42cc2" x="72.480138" y="39.31387" style="fill: #006400; stroke: #006400"/>
     <use xlink:href="#mc973d42cc2" x="230.560238" y="118.206369" style="fill: #006400; stroke: #006400"/>
     <use xlink:href="#mc973d42cc2" x="81.174337" y="91.765451" style="fill: #006400; stroke: #006400"/>
     <use xlink:href="#mc973d42cc2" x="159.579734" y="32.270906" style="fill: #006400; stroke: #006400"/>
     <use xlink:href="#mc973d42cc2" x="193.007401" y="26.064641" style="fill: #006400; stroke: #006400"/>
     <use xlink:href="#mc973d42cc2" x="191.159349" y="113.91466" style="fill: #006400; stroke: #006400"/>
     <use xlink:href="#mc973d42cc2" x="103.003172" y="167.300334" style="fill: #006400; stroke: #006400"/>
     <use xlink:href="#mc973d42cc2" x="182.872211" y="118.298817" style="fill: #006400; stroke: #006400"/>
     <use xlink:href="#mc973d42cc2" x="138.31765" y="83.252707" style="fill: #006400; stroke: #006400"/>
     <use xlink:href="#mc973d42cc2" x="183.16018" y="34.0436" style="fill: #006400; stroke: #006400"/>
     <use xlink:href="#mc973d42cc2" x="126.63963" y="130.152532" style="fill: #006400; stroke: #006400"/>
     <use xlink:href="#mc973d42cc2" x="153.26186" y="160.362008" style="fill: #006400; stroke: #006400"/>
     <use xlink:href="#mc973d42cc2" x="159.001546" y="136.442432" style="fill: #006400; stroke: #006400"/>
     <use xlink:href="#mc973d42cc2" x="181.465396" y="83.446759" style="fill: #006400; stroke: #006400"/>
    </g>
   </g>
   <g id="PathCollection_3">
    <defs>
     <path id="m4dcab164c7" d="M 0 1.5 
C 0.397805 1.5 0.77937 1.341951 1.06066 1.06066 
C 1.341951 0.77937 1.5 0.397805 1.5 0 
C 1.5 -0.397805 1.341951 -0.77937 1.06066 -1.06066 
C 0.77937 -1.341951 0.397805 -1.5 0 -1.5 
C -0.397805 -1.5 -0.77937 -1.341951 -1.06066 -1.06066 
C -1.341951 -0.77937 -1.5 -0.397805 -1.5 0 
C -1.5 0.397805 -1.341951 0.77937 -1.06066 1.06066 
C -0.77937 1.341951 -0.397805 1.5 0 1.5 
z
" style="stroke: #2f4f4f"/>
    </defs>
    <g clip-path="url(#p2293241553)">
     <use xlink:href="#m4dcab164c7" x="109.693423" y="172.399559" style="fill: #2f4f4f; stroke: #2f4f4f"/>
     <use xlink:href="#m4dcab164c7" x="137.401" y="204.868509" style="fill: #2f4f4f; stroke: #2f4f4f"/>
     <use xlink:href="#m4dcab164c7" x="108.298822" y="230.587018" style="fill: #2f4f4f; stroke: #2f4f4f"/>
     <use xlink:href="#m4dcab164c7" x="106.267298" y="171.763097" style="fill: #2f4f4f; stroke: #2f4f4f"/>
     <use xlink:href="#m4dcab164c7" x="120.898251" y="218.135945" style="fill: #2f4f4f; stroke: #2f4f4f"/>
     <use xlink:href="#m4dcab164c7" x="183.167888" y="193.24903" style="fill: #2f4f4f; stroke: #2f4f4f"/>
     <use xlink:href="#m4dcab164c7" x="128.001513" y="207.299487" style="fill: #2f4f4f; stroke: #2f4f4f"/>
     <use xlink:href="#m4dcab164c7" x="118.100374" y="195.955504" style="fill: #2f4f4f; stroke: #2f4f4f"/>
     <use xlink:href="#m4dcab164c7" x="161.692922" y="188.452083" style="fill: #2f4f4f; stroke: #2f4f4f"/>
     <use xlink:href="#m4dcab164c7" x="166.464106" y="182.790672" style="fill: #2f4f4f; stroke: #2f4f4f"/>
     <use xlink:href="#m4dcab164c7" x="143.755248" y="228.363249" style="fill: #2f4f4f; stroke: #2f4f4f"/>
     <use xlink:href="#m4dcab164c7" x="96.85165" y="181.172456" style="fill: #2f4f4f; stroke: #2f4f4f"/>
     <use xlink:href="#m4dcab164c7" x="140.765962" y="138.063134" style="fill: #2f4f4f; stroke: #2f4f4f"/>
     <use xlink:href="#m4dcab164c7" x="214.738252" y="224.734747" style="fill: #2f4f4f; stroke: #2f4f4f"/>
     <use xlink:href="#m4dcab164c7" x="103.305429" y="207.498329" style="fill: #2f4f4f; stroke: #2f4f4f"/>
     <use xlink:href="#m4dcab164c7" x="124.135136" y="208.688618" style="fill: #2f4f4f; stroke: #2f4f4f"/>
     <use xlink:href="#m4dcab164c7" x="112.805364" y="150.413363" style="fill: #2f4f4f; stroke: #2f4f4f"/>
     <use xlink:href="#m4dcab164c7" x="138.010819" y="212.118427" style="fill: #2f4f4f; stroke: #2f4f4f"/>
     <use xlink:href="#m4dcab164c7" x="116.187164" y="199.976528" style="fill: #2f4f4f; stroke: #2f4f4f"/>
     <use xlink:href="#m4dcab164c7" x="118.605763" y="224.699835" style="fill: #2f4f4f; stroke: #2f4f4f"/>
     <use xlink:href="#m4dcab164c7" x="154.595512" y="144.610642" style="fill: #2f4f4f; stroke: #2f4f4f"/>
     <use xlink:href="#m4dcab164c7" x="114.949706" y="166.960779" style="fill: #2f4f4f; stroke: #2f4f4f"/>
     <use xlink:href="#m4dcab164c7" x="106.277858" y="206.908074" style="fill: #2f4f4f; stroke: #2f4f4f"/>
    </g>
   </g>
   <g id="PathCollection_4">
    <defs>
     <path id="m6734a9e291" d="M 0 1.5 
C 0.397805 1.5 0.77937 1.341951 1.06066 1.06066 
C 1.341951 0.77937 1.5 0.397805 1.5 0 
C 1.5 -0.397805 1.341951 -0.77937 1.06066 -1.06066 
C 0.77937 -1.341951 0.397805 -1.5 0 -1.5 
C -0.397805 -1.5 -0.77937 -1.341951 -1.06066 -1.06066 
C -1.341951 -0.77937 -1.5 -0.397805 -1.5 0 
C -1.5 0.397805 -1.341951 0.77937 -1.06066 1.06066 
C -0.77937 1.341951 -0.397805 1.5 0 1.5 
z
" style="stroke: #00bfff"/>
    </defs>
    <g clip-path="url(#p2293241553)">
     <use xlink:href="#m6734a9e291" x="92.90048" y="159.001367" style="fill: #00bfff; stroke: #00bfff"/>
     <use xlink:href="#m6734a9e291" x="51.537415" y="175.436368" style="fill: #00bfff; stroke: #00bfff"/>
     <use xlink:href="#m6734a9e291" x="110.231549" y="213.213722" style="fill: #00bfff; stroke: #00bfff"/>
     <use xlink:href="#m6734a9e291" x="63.878078" y="167.82898" style="fill: #00bfff; stroke: #00bfff"/>
     <use xlink:href="#m6734a9e291" x="109.456519" y="194.71429" style="fill: #00bfff; stroke: #00bfff"/>
     <use xlink:href="#m6734a9e291" x="88.249311" y="204.733938" style="fill: #00bfff; stroke: #00bfff"/>
     <use xlink:href="#m6734a9e291" x="67.227749" y="201.777864" style="fill: #00bfff; stroke: #00bfff"/>
     <use xlink:href="#m6734a9e291" x="71.188782" y="193.968625" style="fill: #00bfff; stroke: #00bfff"/>
     <use xlink:href="#m6734a9e291" x="81.439065" y="193.071561" style="fill: #00bfff; stroke: #00bfff"/>
     <use xlink:href="#m6734a9e291" x="106.077223" y="163.034102" style="fill: #00bfff; stroke: #00bfff"/>
     <use xlink:href="#m6734a9e291" x="132.96262" y="195.55093" style="fill: #00bfff; stroke: #00bfff"/>
     <use xlink:href="#m6734a9e291" x="104.967495" y="130.837736" style="fill: #00bfff; stroke: #00bfff"/>
     <use xlink:href="#m6734a9e291" x="73.32987" y="192.84694" style="fill: #00bfff; stroke: #00bfff"/>
    </g>
   </g>
   <g id="PathCollection_5">
    <defs>
     <path id="mc47c3d553f" d="M 0 1.5 
C 0.397805 1.5 0.77937 1.341951 1.06066 1.06066 
C 1.341951 0.77937 1.5 0.397805 1.5 0 
C 1.5 -0.397805 1.341951 -0.77937 1.06066 -1.06066 
C 0.77937 -1.341951 0.397805 -1.5 0 -1.5 
C -0.397805 -1.5 -0.77937 -1.341951 -1.06066 -1.06066 
C -1.341951 -0.77937 -1.5 -0.397805 -1.5 0 
C -1.5 0.397805 -1.341951 0.77937 -1.06066 1.06066 
C -0.77937 1.341951 -0.397805 1.5 0 1.5 
z
" style="stroke: #ffff00"/>
    </defs>
    <g clip-path="url(#p2293241553)">
     <use xlink:href="#mc47c3d553f" x="158.55952" y="112.821523" style="fill: #ffff00; stroke: #ffff00"/>
     <use xlink:href="#mc47c3d553f" x="187.847622" y="204.962078" style="fill: #ffff00; stroke: #ffff00"/>
     <use xlink:href="#mc47c3d553f" x="134.93183" y="252.148591" style="fill: #ffff00; stroke: #ffff00"/>
     <use xlink:href="#mc47c3d553f" x="122.242035" y="174.122379" style="fill: #ffff00; stroke: #ffff00"/>
     <use xlink:href="#mc47c3d553f" x="159.800466" y="245.528411" style="fill: #ffff00; stroke: #ffff00"/>
     <use xlink:href="#mc47c3d553f" x="148.110585" y="189.335832" style="fill: #ffff00; stroke: #ffff00"/>
     <use xlink:href="#mc47c3d553f" x="120.927276" y="220.2272" style="fill: #ffff00; stroke: #ffff00"/>
     <use xlink:href="#mc47c3d553f" x="98.340398" y="221.836184" style="fill: #ffff00; stroke: #ffff00"/>
     <use xlink:href="#mc47c3d553f" x="124.130667" y="222.831111" style="fill: #ffff00; stroke: #ffff00"/>
     <use xlink:href="#mc47c3d553f" x="105.747674" y="243.694386" style="fill: #ffff00; stroke: #ffff00"/>
     <use xlink:href="#mc47c3d553f" x="151.212396" y="196.195963" style="fill: #ffff00; stroke: #ffff00"/>
     <use xlink:href="#mc47c3d553f" x="123.431315" y="203.903294" style="fill: #ffff00; stroke: #ffff00"/>
     <use xlink:href="#mc47c3d553f" x="122.986862" y="186.642436" style="fill: #ffff00; stroke: #ffff00"/>
     <use xlink:href="#mc47c3d553f" x="150.943048" y="199.604276" style="fill: #ffff00; stroke: #ffff00"/>
     <use xlink:href="#mc47c3d553f" x="177.293645" y="230.861743" style="fill: #ffff00; stroke: #ffff00"/>
    </g>
   </g>
   <g id="PathCollection_6">
    <defs>
     <path id="mc994e82a61" d="M 0 1.5 
C 0.397805 1.5 0.77937 1.341951 1.06066 1.06066 
C 1.341951 0.77937 1.5 0.397805 1.5 0 
C 1.5 -0.397805 1.341951 -0.77937 1.06066 -1.06066 
C 0.77937 -1.341951 0.397805 -1.5 0 -1.5 
C -0.397805 -1.5 -0.77937 -1.341951 -1.06066 -1.06066 
C -1.341951 -0.77937 -1.5 -0.397805 -1.5 0 
C -1.5 0.397805 -1.341951 0.77937 -1.06066 1.06066 
C -0.77937 1.341951 -0.397805 1.5 0 1.5 
z
" style="stroke: #00ffff"/>
    </defs>
    <g clip-path="url(#p2293241553)">
     <use xlink:href="#mc994e82a61" x="101.739275" y="164.249485" style="fill: #00ffff; stroke: #00ffff"/>
     <use xlink:href="#mc994e82a61" x="83.91475" y="182.284009" style="fill: #00ffff; stroke: #00ffff"/>
     <use xlink:href="#mc994e82a61" x="102.388272" y="152.880318" style="fill: #00ffff; stroke: #00ffff"/>
     <use xlink:href="#mc994e82a61" x="76.598978" y="117.275511" style="fill: #00ffff; stroke: #00ffff"/>
     <use xlink:href="#mc994e82a61" x="146.305941" y="180.533272" style="fill: #00ffff; stroke: #00ffff"/>
     <use xlink:href="#mc994e82a61" x="149.446328" y="175.5919" style="fill: #00ffff; stroke: #00ffff"/>
     <use xlink:href="#mc994e82a61" x="76.433594" y="185.360821" style="fill: #00ffff; stroke: #00ffff"/>
     <use xlink:href="#mc994e82a61" x="68.540435" y="173.047671" style="fill: #00ffff; stroke: #00ffff"/>
     <use xlink:href="#mc994e82a61" x="73.45469" y="169.248334" style="fill: #00ffff; stroke: #00ffff"/>
     <use xlink:href="#mc994e82a61" x="105.524919" y="216.50021" style="fill: #00ffff; stroke: #00ffff"/>
     <use xlink:href="#mc994e82a61" x="73.795633" y="173.670572" style="fill: #00ffff; stroke: #00ffff"/>
     <use xlink:href="#mc994e82a61" x="76.212167" y="175.359953" style="fill: #00ffff; stroke: #00ffff"/>
     <use xlink:href="#mc994e82a61" x="80.916288" y="129.317754" style="fill: #00ffff; stroke: #00ffff"/>
     <use xlink:href="#mc994e82a61" x="130.518362" y="210.078366" style="fill: #00ffff; stroke: #00ffff"/>
     <use xlink:href="#mc994e82a61" x="129.593676" y="229.34372" style="fill: #00ffff; stroke: #00ffff"/>
     <use xlink:href="#mc994e82a61" x="102.123463" y="208.033137" style="fill: #00ffff; stroke: #00ffff"/>
    </g>
   </g>
   <g id="PathCollection_7">
    <defs>
     <path id="mee45e47dda" d="M 0 1.5 
C 0.397805 1.5 0.77937 1.341951 1.06066 1.06066 
C 1.341951 0.77937 1.5 0.397805 1.5 0 
C 1.5 -0.397805 1.341951 -0.77937 1.06066 -1.06066 
C 0.77937 -1.341951 0.397805 -1.5 0 -1.5 
C -0.397805 -1.5 -0.77937 -1.341951 -1.06066 -1.06066 
C -1.341951 -0.77937 -1.5 -0.397805 -1.5 0 
C -1.5 0.397805 -1.341951 0.77937 -1.06066 1.06066 
C -0.77937 1.341951 -0.397805 1.5 0 1.5 
z
" style="stroke: #0000ff"/>
    </defs>
    <g clip-path="url(#p2293241553)">
     <use xlink:href="#mee45e47dda" x="66.906881" y="199.379252" style="fill: #0000ff; stroke: #0000ff"/>
     <use xlink:href="#mee45e47dda" x="65.41772" y="201.135544" style="fill: #0000ff; stroke: #0000ff"/>
     <use xlink:href="#mee45e47dda" x="85.92906" y="141.798142" style="fill: #0000ff; stroke: #0000ff"/>
     <use xlink:href="#mee45e47dda" x="101.826509" y="142.715004" style="fill: #0000ff; stroke: #0000ff"/>
     <use xlink:href="#mee45e47dda" x="126.329608" y="216.858576" style="fill: #0000ff; stroke: #0000ff"/>
     <use xlink:href="#mee45e47dda" x="121.370696" y="188.011613" style="fill: #0000ff; stroke: #0000ff"/>
     <use xlink:href="#mee45e47dda" x="82.783614" y="200.122937" style="fill: #0000ff; stroke: #0000ff"/>
     <use xlink:href="#mee45e47dda" x="82.221697" y="134.66288" style="fill: #0000ff; stroke: #0000ff"/>
     <use xlink:href="#mee45e47dda" x="74.70646" y="192.711882" style="fill: #0000ff; stroke: #0000ff"/>
     <use xlink:href="#mee45e47dda" x="106.94428" y="168.136449" style="fill: #0000ff; stroke: #0000ff"/>
     <use xlink:href="#mee45e47dda" x="108.829978" y="161.052731" style="fill: #0000ff; stroke: #0000ff"/>
     <use xlink:href="#mee45e47dda" x="104.371003" y="83.405429" style="fill: #0000ff; stroke: #0000ff"/>
    </g>
   </g>
   <g id="PathCollection_8">
    <defs>
     <path id="m391173ba41" d="M 0 1.5 
C 0.397805 1.5 0.77937 1.341951 1.06066 1.06066 
C 1.341951 0.77937 1.5 0.397805 1.5 0 
C 1.5 -0.397805 1.341951 -0.77937 1.06066 -1.06066 
C 0.77937 -1.341951 0.397805 -1.5 0 -1.5 
C -0.397805 -1.5 -0.77937 -1.341951 -1.06066 -1.06066 
C -1.341951 -0.77937 -1.5 -0.397805 -1.5 0 
C -1.5 0.397805 -1.341951 0.77937 -1.06066 1.06066 
C -0.77937 1.341951 -0.397805 1.5 0 1.5 
z
" style="stroke: #dc143c"/>
    </defs>
    <g clip-path="url(#p2293241553)">
     <use xlink:href="#m391173ba41" x="145.915204" y="162.716314" style="fill: #dc143c; stroke: #dc143c"/>
     <use xlink:href="#m391173ba41" x="179.047506" y="188.684511" style="fill: #dc143c; stroke: #dc143c"/>
     <use xlink:href="#m391173ba41" x="145.12824" y="178.174817" style="fill: #dc143c; stroke: #dc143c"/>
     <use xlink:href="#m391173ba41" x="76.601917" y="134.222193" style="fill: #dc143c; stroke: #dc143c"/>
     <use xlink:href="#m391173ba41" x="63.183076" y="145.301763" style="fill: #dc143c; stroke: #dc143c"/>
     <use xlink:href="#m391173ba41" x="144.843102" y="190.737443" style="fill: #dc143c; stroke: #dc143c"/>
     <use xlink:href="#m391173ba41" x="122.609253" y="174.454965" style="fill: #dc143c; stroke: #dc143c"/>
     <use xlink:href="#m391173ba41" x="110.346978" y="200.549814" style="fill: #dc143c; stroke: #dc143c"/>
     <use xlink:href="#m391173ba41" x="151.664343" y="191.94144" style="fill: #dc143c; stroke: #dc143c"/>
     <use xlink:href="#m391173ba41" x="158.21535" y="195.283776" style="fill: #dc143c; stroke: #dc143c"/>
     <use xlink:href="#m391173ba41" x="102.338811" y="141.492521" style="fill: #dc143c; stroke: #dc143c"/>
     <use xlink:href="#m391173ba41" x="112.11371" y="153.79213" style="fill: #dc143c; stroke: #dc143c"/>
     <use xlink:href="#m391173ba41" x="211.107125" y="199.913989" style="fill: #dc143c; stroke: #dc143c"/>
     <use xlink:href="#m391173ba41" x="104.584233" y="175.244037" style="fill: #dc143c; stroke: #dc143c"/>
    </g>
   </g>
   <g id="PathCollection_9">
    <defs>
     <path id="mb9c962e1c0" d="M 0 1.5 
C 0.397805 1.5 0.77937 1.341951 1.06066 1.06066 
C 1.341951 0.77937 1.5 0.397805 1.5 0 
C 1.5 -0.397805 1.341951 -0.77937 1.06066 -1.06066 
C 0.77937 -1.341951 0.397805 -1.5 0 -1.5 
C -0.397805 -1.5 -0.77937 -1.341951 -1.06066 -1.06066 
C -1.341951 -0.77937 -1.5 -0.397805 -1.5 0 
C -1.5 0.397805 -1.341951 0.77937 -1.06066 1.06066 
C -0.77937 1.341951 -0.397805 1.5 0 1.5 
z
" style="stroke: #ffe4c4"/>
    </defs>
    <g clip-path="url(#p2293241553)">
     <use xlink:href="#mb9c962e1c0" x="144.265175" y="151.745813" style="fill: #ffe4c4; stroke: #ffe4c4"/>
     <use xlink:href="#mb9c962e1c0" x="140.701115" y="90.732095" style="fill: #ffe4c4; stroke: #ffe4c4"/>
     <use xlink:href="#mb9c962e1c0" x="110.844887" y="127.583373" style="fill: #ffe4c4; stroke: #ffe4c4"/>
     <use xlink:href="#mb9c962e1c0" x="111.64451" y="142.072122" style="fill: #ffe4c4; stroke: #ffe4c4"/>
     <use xlink:href="#mb9c962e1c0" x="127.206649" y="102.819418" style="fill: #ffe4c4; stroke: #ffe4c4"/>
     <use xlink:href="#mb9c962e1c0" x="103.099003" y="108.649627" style="fill: #ffe4c4; stroke: #ffe4c4"/>
     <use xlink:href="#mb9c962e1c0" x="127.22154" y="109.398324" style="fill: #ffe4c4; stroke: #ffe4c4"/>
     <use xlink:href="#mb9c962e1c0" x="88.684931" y="165.790114" style="fill: #ffe4c4; stroke: #ffe4c4"/>
     <use xlink:href="#mb9c962e1c0" x="116.363793" y="149.308572" style="fill: #ffe4c4; stroke: #ffe4c4"/>
     <use xlink:href="#mb9c962e1c0" x="149.117332" y="116.146083" style="fill: #ffe4c4; stroke: #ffe4c4"/>
    </g>
   </g>
   <g id="PathCollection_10">
    <defs>
     <path id="m3ab21c25f6" d="M -2.99994 2.99994 
L 3.00006 2.99994 
L 3.00006 -3.00006 
L -2.99994 -3.00006 
z
" style="stroke: #000000"/>
    </defs>
    <g clip-path="url(#p2293241553)">
     <use xlink:href="#m3ab21c25f6" x="246.448336" y="92.98771" style="stroke: #000000"/>
     <use xlink:href="#m3ab21c25f6" x="115.144128" y="179.660447" style="stroke: #000000"/>
     <use xlink:href="#m3ab21c25f6" x="217.322785" y="254.038815" style="stroke: #000000"/>
     <use xlink:href="#m3ab21c25f6" x="214.250321" y="104.387326" style="stroke: #000000"/>
     <use xlink:href="#m3ab21c25f6" x="187.867797" y="151.97819" style="stroke: #000000"/>
     <use xlink:href="#m3ab21c25f6" x="313.57297" y="261.216" style="stroke: #000000"/>
     <use xlink:href="#m3ab21c25f6" x="230.209928" y="145.59317" style="stroke: #000000"/>
     <use xlink:href="#m3ab21c25f6" x="203.582656" y="196.792266" style="stroke: #000000"/>
     <use xlink:href="#m3ab21c25f6" x="198.747657" y="180.55941" style="stroke: #000000"/>
     <use xlink:href="#m3ab21c25f6" x="194.719097" y="195.850409" style="stroke: #000000"/>
     <use xlink:href="#m3ab21c25f6" x="110.402223" y="128.960949" style="stroke: #000000"/>
     <use xlink:href="#m3ab21c25f6" x="111.308549" y="183.543423" style="stroke: #000000"/>
     <use xlink:href="#m3ab21c25f6" x="143.460534" y="178.968597" style="stroke: #000000"/>
     <use xlink:href="#m3ab21c25f6" x="255.521696" y="217.593832" style="stroke: #000000"/>
     <use xlink:href="#m3ab21c25f6" x="220.701801" y="161.155966" style="stroke: #000000"/>
     <use xlink:href="#m3ab21c25f6" x="144.588345" y="183.347285" style="stroke: #000000"/>
     <use xlink:href="#m3ab21c25f6" x="148.450359" y="247.050743" style="stroke: #000000"/>
     <use xlink:href="#m3ab21c25f6" x="124.597841" y="185.498592" style="stroke: #000000"/>
     <use xlink:href="#m3ab21c25f6" x="176.916102" y="155.589173" style="stroke: #000000"/>
     <use xlink:href="#m3ab21c25f6" x="149.651232" y="125.094939" style="stroke: #000000"/>
     <use xlink:href="#m3ab21c25f6" x="273.147752" y="63.230235" style="stroke: #000000"/>
     <use xlink:href="#m3ab21c25f6" x="227.042948" y="225.847543" style="stroke: #000000"/>
     <use xlink:href="#m3ab21c25f6" x="324.783533" y="242.545672" style="stroke: #000000"/>
     <use xlink:href="#m3ab21c25f6" x="234.714689" y="156.78311" style="stroke: #000000"/>
     <use xlink:href="#m3ab21c25f6" x="144.372479" y="170.44818" style="stroke: #000000"/>
     <use xlink:href="#m3ab21c25f6" x="199.014611" y="170.827847" style="stroke: #000000"/>
     <use xlink:href="#m3ab21c25f6" x="266.958365" y="176.668154" style="stroke: #000000"/>
     <use xlink:href="#m3ab21c25f6" x="235.981322" y="196.847176" style="stroke: #000000"/>
     <use xlink:href="#m3ab21c25f6" x="164.089311" y="172.189248" style="stroke: #000000"/>
     <use xlink:href="#m3ab21c25f6" x="102.90688" y="195.268158" style="stroke: #000000"/>
     <use xlink:href="#m3ab21c25f6" x="254.731625" y="258.832037" style="stroke: #000000"/>
     <use xlink:href="#m3ab21c25f6" x="127.591116" y="197.557046" style="stroke: #000000"/>
     <use xlink:href="#m3ab21c25f6" x="107.23388" y="154.138194" style="stroke: #000000"/>
     <use xlink:href="#m3ab21c25f6" x="177.431431" y="187.671823" style="stroke: #000000"/>
     <use xlink:href="#m3ab21c25f6" x="295.463617" y="164.880157" style="stroke: #000000"/>
     <use xlink:href="#m3ab21c25f6" x="111.749043" y="178.036183" style="stroke: #000000"/>
     <use xlink:href="#m3ab21c25f6" x="240.855764" y="61.554706" style="stroke: #000000"/>
     <use xlink:href="#m3ab21c25f6" x="196.008802" y="240.601114" style="stroke: #000000"/>
     <use xlink:href="#m3ab21c25f6" x="294.870436" y="203.807337" style="stroke: #000000"/>
     <use xlink:href="#m3ab21c25f6" x="220.275348" y="240.127732" style="stroke: #000000"/>
     <use xlink:href="#m3ab21c25f6" x="223.312441" y="232.246124" style="stroke: #000000"/>
     <use xlink:href="#m3ab21c25f6" x="71.380435" y="183.755231" style="stroke: #000000"/>
     <use xlink:href="#m3ab21c25f6" x="92.230748" y="165.27904" style="stroke: #000000"/>
     <use xlink:href="#m3ab21c25f6" x="309.946453" y="239.888852" style="stroke: #000000"/>
     <use xlink:href="#m3ab21c25f6" x="252.182954" y="231.371283" style="stroke: #000000"/>
     <use xlink:href="#m3ab21c25f6" x="129.23957" y="162.283379" style="stroke: #000000"/>
     <use xlink:href="#m3ab21c25f6" x="218.908331" y="209.264801" style="stroke: #000000"/>
     <use xlink:href="#m3ab21c25f6" x="129.959762" y="191.278005" style="stroke: #000000"/>
     <use xlink:href="#m3ab21c25f6" x="164.461371" y="144.997928" style="stroke: #000000"/>
     <use xlink:href="#m3ab21c25f6" x="242.364645" y="58.49854" style="stroke: #000000"/>
     <use xlink:href="#m3ab21c25f6" x="174.06486" y="154.765509" style="stroke: #000000"/>
     <use xlink:href="#m3ab21c25f6" x="376.19196" y="212.893138" style="stroke: #000000"/>
     <use xlink:href="#m3ab21c25f6" x="137.602861" y="214.076013" style="stroke: #000000"/>
     <use xlink:href="#m3ab21c25f6" x="123.802235" y="219.522935" style="stroke: #000000"/>
     <use xlink:href="#m3ab21c25f6" x="254.12189" y="212.421848" style="stroke: #000000"/>
     <use xlink:href="#m3ab21c25f6" x="286.455115" y="157.842728" style="stroke: #000000"/>
     <use xlink:href="#m3ab21c25f6" x="259.406684" y="157.380408" style="stroke: #000000"/>
     <use xlink:href="#m3ab21c25f6" x="222.348145" y="85.147038" style="stroke: #000000"/>
     <use xlink:href="#m3ab21c25f6" x="156.583482" y="194.172034" style="stroke: #000000"/>
     <use xlink:href="#m3ab21c25f6" x="290.48078" y="19.296" style="stroke: #000000"/>
     <use xlink:href="#m3ab21c25f6" x="312.893479" y="231.973048" style="stroke: #000000"/>
     <use xlink:href="#m3ab21c25f6" x="241.819954" y="142.639132" style="stroke: #000000"/>
     <use xlink:href="#m3ab21c25f6" x="260.532858" y="54.401636" style="stroke: #000000"/>
     <use xlink:href="#m3ab21c25f6" x="265.392697" y="246.61962" style="stroke: #000000"/>
    </g>
   </g>
   <g id="PathCollection_11">
    <defs>
     <path id="m998cfb12d0" d="M -3 -0 
L 3 3 
L 3 -3 
z
" style="stroke: #ff8c00"/>
    </defs>
    <g clip-path="url(#p2293241553)">
     <use xlink:href="#m998cfb12d0" x="223.587405" y="201.949972" style="fill: #ff8c00; stroke: #ff8c00"/>
     <use xlink:href="#m998cfb12d0" x="100.677863" y="159.672121" style="fill: #ff8c00; stroke: #ff8c00"/>
     <use xlink:href="#m998cfb12d0" x="213.609917" y="174.18669" style="fill: #ff8c00; stroke: #ff8c00"/>
     <use xlink:href="#m998cfb12d0" x="173.317658" y="132.01398" style="fill: #ff8c00; stroke: #ff8c00"/>
     <use xlink:href="#m998cfb12d0" x="155.361096" y="172.475648" style="fill: #ff8c00; stroke: #ff8c00"/>
     <use xlink:href="#m998cfb12d0" x="134.311057" y="191.877243" style="fill: #ff8c00; stroke: #ff8c00"/>
     <use xlink:href="#m998cfb12d0" x="127.921978" y="158.062511" style="fill: #ff8c00; stroke: #ff8c00"/>
     <use xlink:href="#m998cfb12d0" x="152.55956" y="214.162661" style="fill: #ff8c00; stroke: #ff8c00"/>
     <use xlink:href="#m998cfb12d0" x="250.418655" y="148.112774" style="fill: #ff8c00; stroke: #ff8c00"/>
     <use xlink:href="#m998cfb12d0" x="154.459669" y="238.482088" style="fill: #ff8c00; stroke: #ff8c00"/>
     <use xlink:href="#m998cfb12d0" x="303.499955" y="191.906506" style="fill: #ff8c00; stroke: #ff8c00"/>
     <use xlink:href="#m998cfb12d0" x="122.74817" y="217.817449" style="fill: #ff8c00; stroke: #ff8c00"/>
     <use xlink:href="#m998cfb12d0" x="180.984339" y="151.689615" style="fill: #ff8c00; stroke: #ff8c00"/>
     <use xlink:href="#m998cfb12d0" x="178.629689" y="198.918043" style="fill: #ff8c00; stroke: #ff8c00"/>
     <use xlink:href="#m998cfb12d0" x="132.006406" y="195.410153" style="fill: #ff8c00; stroke: #ff8c00"/>
     <use xlink:href="#m998cfb12d0" x="140.103876" y="204.333949" style="fill: #ff8c00; stroke: #ff8c00"/>
     <use xlink:href="#m998cfb12d0" x="179.646918" y="199.077849" style="fill: #ff8c00; stroke: #ff8c00"/>
     <use xlink:href="#m998cfb12d0" x="187.002698" y="169.828142" style="fill: #ff8c00; stroke: #ff8c00"/>
     <use xlink:href="#m998cfb12d0" x="195.261578" y="133.484188" style="fill: #ff8c00; stroke: #ff8c00"/>
     <use xlink:href="#m998cfb12d0" x="181.350139" y="142.823089" style="fill: #ff8c00; stroke: #ff8c00"/>
     <use xlink:href="#m998cfb12d0" x="139.062317" y="207.239217" style="fill: #ff8c00; stroke: #ff8c00"/>
     <use xlink:href="#m998cfb12d0" x="200.382668" y="187.123564" style="fill: #ff8c00; stroke: #ff8c00"/>
     <use xlink:href="#m998cfb12d0" x="144.55172" y="193.133874" style="fill: #ff8c00; stroke: #ff8c00"/>
     <use xlink:href="#m998cfb12d0" x="133.343663" y="187.832306" style="fill: #ff8c00; stroke: #ff8c00"/>
     <use xlink:href="#m998cfb12d0" x="133.439153" y="210.12925" style="fill: #ff8c00; stroke: #ff8c00"/>
     <use xlink:href="#m998cfb12d0" x="162.312995" y="151.807768" style="fill: #ff8c00; stroke: #ff8c00"/>
     <use xlink:href="#m998cfb12d0" x="126.251457" y="219.728988" style="fill: #ff8c00; stroke: #ff8c00"/>
     <use xlink:href="#m998cfb12d0" x="192.425436" y="211.940037" style="fill: #ff8c00; stroke: #ff8c00"/>
     <use xlink:href="#m998cfb12d0" x="161.115847" y="99.933481" style="fill: #ff8c00; stroke: #ff8c00"/>
     <use xlink:href="#m998cfb12d0" x="118.021341" y="149.232906" style="fill: #ff8c00; stroke: #ff8c00"/>
     <use xlink:href="#m998cfb12d0" x="126.251457" y="219.728988" style="fill: #ff8c00; stroke: #ff8c00"/>
     <use xlink:href="#m998cfb12d0" x="138.751319" y="206.890943" style="fill: #ff8c00; stroke: #ff8c00"/>
     <use xlink:href="#m998cfb12d0" x="143.208746" y="219.768991" style="fill: #ff8c00; stroke: #ff8c00"/>
     <use xlink:href="#m998cfb12d0" x="153.082539" y="245.234813" style="fill: #ff8c00; stroke: #ff8c00"/>
     <use xlink:href="#m998cfb12d0" x="188.514912" y="189.919932" style="fill: #ff8c00; stroke: #ff8c00"/>
     <use xlink:href="#m998cfb12d0" x="163.919929" y="169.870068" style="fill: #ff8c00; stroke: #ff8c00"/>
     <use xlink:href="#m998cfb12d0" x="202.495265" y="207.462779" style="fill: #ff8c00; stroke: #ff8c00"/>
     <use xlink:href="#m998cfb12d0" x="171.93974" y="200.474421" style="fill: #ff8c00; stroke: #ff8c00"/>
     <use xlink:href="#m998cfb12d0" x="220.507873" y="78.120695" style="fill: #ff8c00; stroke: #ff8c00"/>
     <use xlink:href="#m998cfb12d0" x="159.712819" y="126.37412" style="fill: #ff8c00; stroke: #ff8c00"/>
     <use xlink:href="#m998cfb12d0" x="135.634309" y="168.422626" style="fill: #ff8c00; stroke: #ff8c00"/>
     <use xlink:href="#m998cfb12d0" x="194.802117" y="123.185314" style="fill: #ff8c00; stroke: #ff8c00"/>
     <use xlink:href="#m998cfb12d0" x="118.326294" y="191.509551" style="fill: #ff8c00; stroke: #ff8c00"/>
     <use xlink:href="#m998cfb12d0" x="112.622693" y="188.391204" style="fill: #ff8c00; stroke: #ff8c00"/>
     <use xlink:href="#m998cfb12d0" x="213.66734" y="183.05291" style="fill: #ff8c00; stroke: #ff8c00"/>
     <use xlink:href="#m998cfb12d0" x="179.625522" y="198.061721" style="fill: #ff8c00; stroke: #ff8c00"/>
     <use xlink:href="#m998cfb12d0" x="203.845918" y="160.893109" style="fill: #ff8c00; stroke: #ff8c00"/>
     <use xlink:href="#m998cfb12d0" x="130.964029" y="235.432332" style="fill: #ff8c00; stroke: #ff8c00"/>
     <use xlink:href="#m998cfb12d0" x="214.491455" y="153.890369" style="fill: #ff8c00; stroke: #ff8c00"/>
     <use xlink:href="#m998cfb12d0" x="225.725105" y="202.748575" style="fill: #ff8c00; stroke: #ff8c00"/>
     <use xlink:href="#m998cfb12d0" x="185.294411" y="163.864136" style="fill: #ff8c00; stroke: #ff8c00"/>
     <use xlink:href="#m998cfb12d0" x="170.962944" y="167.627323" style="fill: #ff8c00; stroke: #ff8c00"/>
     <use xlink:href="#m998cfb12d0" x="107.498284" y="163.279807" style="fill: #ff8c00; stroke: #ff8c00"/>
     <use xlink:href="#m998cfb12d0" x="158.880685" y="172.33122" style="fill: #ff8c00; stroke: #ff8c00"/>
     <use xlink:href="#m998cfb12d0" x="105.712168" y="182.797973" style="fill: #ff8c00; stroke: #ff8c00"/>
     <use xlink:href="#m998cfb12d0" x="246.06618" y="179.660429" style="fill: #ff8c00; stroke: #ff8c00"/>
     <use xlink:href="#m998cfb12d0" x="171.93974" y="200.474421" style="fill: #ff8c00; stroke: #ff8c00"/>
     <use xlink:href="#m998cfb12d0" x="269.110973" y="156.230706" style="fill: #ff8c00; stroke: #ff8c00"/>
     <use xlink:href="#m998cfb12d0" x="129.928116" y="209.068731" style="fill: #ff8c00; stroke: #ff8c00"/>
     <use xlink:href="#m998cfb12d0" x="154.138333" y="166.084521" style="fill: #ff8c00; stroke: #ff8c00"/>
     <use xlink:href="#m998cfb12d0" x="244.757023" y="171.389018" style="fill: #ff8c00; stroke: #ff8c00"/>
     <use xlink:href="#m998cfb12d0" x="186.71207" y="145.360482" style="fill: #ff8c00; stroke: #ff8c00"/>
     <use xlink:href="#m998cfb12d0" x="166.982805" y="202.154695" style="fill: #ff8c00; stroke: #ff8c00"/>
     <use xlink:href="#m998cfb12d0" x="194.87021" y="179.052234" style="fill: #ff8c00; stroke: #ff8c00"/>
    </g>
   </g>
   <g id="matplotlib.axis_1">
    <g id="xtick_1">
     <g id="line2d_1">
      <defs>
       <path id="m857a52153c" d="M 0 0 
L 0 3.5 
" style="stroke: #000000; stroke-width: 0.8"/>
      </defs>
      <g>
       <use xlink:href="#m857a52153c" x="71.496965" y="273.312" style="stroke: #000000; stroke-width: 0.8"/>
      </g>
     </g>
     <g id="text_1">
      <!-- −10 -->
      <g transform="translate(60.944621 287.910437) scale(0.1 -0.1)">
       <defs>
        <path id="DejaVuSans-2212" d="M 678 2272 
L 4684 2272 
L 4684 1741 
L 678 1741 
L 678 2272 
z
" transform="scale(0.015625)"/>
        <path id="DejaVuSans-31" d="M 794 531 
L 1825 531 
L 1825 4091 
L 703 3866 
L 703 4441 
L 1819 4666 
L 2450 4666 
L 2450 531 
L 3481 531 
L 3481 0 
L 794 0 
L 794 531 
z
" transform="scale(0.015625)"/>
        <path id="DejaVuSans-30" d="M 2034 4250 
Q 1547 4250 1301 3770 
Q 1056 3291 1056 2328 
Q 1056 1369 1301 889 
Q 1547 409 2034 409 
Q 2525 409 2770 889 
Q 3016 1369 3016 2328 
Q 3016 3291 2770 3770 
Q 2525 4250 2034 4250 
z
M 2034 4750 
Q 2819 4750 3233 4129 
Q 3647 3509 3647 2328 
Q 3647 1150 3233 529 
Q 2819 -91 2034 -91 
Q 1250 -91 836 529 
Q 422 1150 422 2328 
Q 422 3509 836 4129 
Q 1250 4750 2034 4750 
z
" transform="scale(0.015625)"/>
       </defs>
       <use xlink:href="#DejaVuSans-2212"/>
       <use xlink:href="#DejaVuSans-31" x="83.789062"/>
       <use xlink:href="#DejaVuSans-30" x="147.412109"/>
      </g>
     </g>
    </g>
    <g id="xtick_2">
     <g id="line2d_2">
      <g>
       <use xlink:href="#m857a52153c" x="113.938904" y="273.312" style="stroke: #000000; stroke-width: 0.8"/>
      </g>
     </g>
     <g id="text_2">
      <!-- −5 -->
      <g transform="translate(106.567811 287.910437) scale(0.1 -0.1)">
       <defs>
        <path id="DejaVuSans-35" d="M 691 4666 
L 3169 4666 
L 3169 4134 
L 1269 4134 
L 1269 2991 
Q 1406 3038 1543 3061 
Q 1681 3084 1819 3084 
Q 2600 3084 3056 2656 
Q 3513 2228 3513 1497 
Q 3513 744 3044 326 
Q 2575 -91 1722 -91 
Q 1428 -91 1123 -41 
Q 819 9 494 109 
L 494 744 
Q 775 591 1075 516 
Q 1375 441 1709 441 
Q 2250 441 2565 725 
Q 2881 1009 2881 1497 
Q 2881 1984 2565 2268 
Q 2250 2553 1709 2553 
Q 1456 2553 1204 2497 
Q 953 2441 691 2322 
L 691 4666 
z
" transform="scale(0.015625)"/>
       </defs>
       <use xlink:href="#DejaVuSans-2212"/>
       <use xlink:href="#DejaVuSans-35" x="83.789062"/>
      </g>
     </g>
    </g>
    <g id="xtick_3">
     <g id="line2d_3">
      <g>
       <use xlink:href="#m857a52153c" x="156.380844" y="273.312" style="stroke: #000000; stroke-width: 0.8"/>
      </g>
     </g>
     <g id="text_3">
      <!-- 0 -->
      <g transform="translate(153.199594 287.910437) scale(0.1 -0.1)">
       <use xlink:href="#DejaVuSans-30"/>
      </g>
     </g>
    </g>
    <g id="xtick_4">
     <g id="line2d_4">
      <g>
       <use xlink:href="#m857a52153c" x="198.822784" y="273.312" style="stroke: #000000; stroke-width: 0.8"/>
      </g>
     </g>
     <g id="text_4">
      <!-- 5 -->
      <g transform="translate(195.641534 287.910437) scale(0.1 -0.1)">
       <use xlink:href="#DejaVuSans-35"/>
      </g>
     </g>
    </g>
    <g id="xtick_5">
     <g id="line2d_5">
      <g>
       <use xlink:href="#m857a52153c" x="241.264723" y="273.312" style="stroke: #000000; stroke-width: 0.8"/>
      </g>
     </g>
     <g id="text_5">
      <!-- 10 -->
      <g transform="translate(234.902223 287.910437) scale(0.1 -0.1)">
       <use xlink:href="#DejaVuSans-31"/>
       <use xlink:href="#DejaVuSans-30" x="63.623047"/>
      </g>
     </g>
    </g>
    <g id="xtick_6">
     <g id="line2d_6">
      <g>
       <use xlink:href="#m857a52153c" x="283.706663" y="273.312" style="stroke: #000000; stroke-width: 0.8"/>
      </g>
     </g>
     <g id="text_6">
      <!-- 15 -->
      <g transform="translate(277.344163 287.910437) scale(0.1 -0.1)">
       <use xlink:href="#DejaVuSans-31"/>
       <use xlink:href="#DejaVuSans-35" x="63.623047"/>
      </g>
     </g>
    </g>
    <g id="xtick_7">
     <g id="line2d_7">
      <g>
       <use xlink:href="#m857a52153c" x="326.148603" y="273.312" style="stroke: #000000; stroke-width: 0.8"/>
      </g>
     </g>
     <g id="text_7">
      <!-- 20 -->
      <g transform="translate(319.786103 287.910437) scale(0.1 -0.1)">
       <defs>
        <path id="DejaVuSans-32" d="M 1228 531 
L 3431 531 
L 3431 0 
L 469 0 
L 469 531 
Q 828 903 1448 1529 
Q 2069 2156 2228 2338 
Q 2531 2678 2651 2914 
Q 2772 3150 2772 3378 
Q 2772 3750 2511 3984 
Q 2250 4219 1831 4219 
Q 1534 4219 1204 4116 
Q 875 4013 500 3803 
L 500 4441 
Q 881 4594 1212 4672 
Q 1544 4750 1819 4750 
Q 2544 4750 2975 4387 
Q 3406 4025 3406 3419 
Q 3406 3131 3298 2873 
Q 3191 2616 2906 2266 
Q 2828 2175 2409 1742 
Q 1991 1309 1228 531 
z
" transform="scale(0.015625)"/>
       </defs>
       <use xlink:href="#DejaVuSans-32"/>
       <use xlink:href="#DejaVuSans-30" x="63.623047"/>
      </g>
     </g>
    </g>
    <g id="xtick_8">
     <g id="line2d_8">
      <g>
       <use xlink:href="#m857a52153c" x="368.590543" y="273.312" style="stroke: #000000; stroke-width: 0.8"/>
      </g>
     </g>
     <g id="text_8">
      <!-- 25 -->
      <g transform="translate(362.228043 287.910437) scale(0.1 -0.1)">
       <use xlink:href="#DejaVuSans-32"/>
       <use xlink:href="#DejaVuSans-35" x="63.623047"/>
      </g>
     </g>
    </g>
   </g>
   <g id="matplotlib.axis_2">
    <g id="ytick_1">
     <g id="line2d_9">
      <defs>
       <path id="mf29deca44e" d="M 0 0 
L -3.5 0 
" style="stroke: #000000; stroke-width: 0.8"/>
      </defs>
      <g>
       <use xlink:href="#mf29deca44e" x="35.304688" y="246.968991" style="stroke: #000000; stroke-width: 0.8"/>
      </g>
     </g>
     <g id="text_9">
      <!-- −10 -->
      <g transform="translate(7.2 250.76821) scale(0.1 -0.1)">
       <use xlink:href="#DejaVuSans-2212"/>
       <use xlink:href="#DejaVuSans-31" x="83.789062"/>
       <use xlink:href="#DejaVuSans-30" x="147.412109"/>
      </g>
     </g>
    </g>
    <g id="ytick_2">
     <g id="line2d_10">
      <g>
       <use xlink:href="#mf29deca44e" x="35.304688" y="210.353852" style="stroke: #000000; stroke-width: 0.8"/>
      </g>
     </g>
     <g id="text_10">
      <!-- −5 -->
      <g transform="translate(13.5625 214.153071) scale(0.1 -0.1)">
       <use xlink:href="#DejaVuSans-2212"/>
       <use xlink:href="#DejaVuSans-35" x="83.789062"/>
      </g>
     </g>
    </g>
    <g id="ytick_3">
     <g id="line2d_11">
      <g>
       <use xlink:href="#mf29deca44e" x="35.304688" y="173.738713" style="stroke: #000000; stroke-width: 0.8"/>
      </g>
     </g>
     <g id="text_11">
      <!-- 0 -->
      <g transform="translate(21.942187 177.537932) scale(0.1 -0.1)">
       <use xlink:href="#DejaVuSans-30"/>
      </g>
     </g>
    </g>
    <g id="ytick_4">
     <g id="line2d_12">
      <g>
       <use xlink:href="#mf29deca44e" x="35.304688" y="137.123574" style="stroke: #000000; stroke-width: 0.8"/>
      </g>
     </g>
     <g id="text_12">
      <!-- 5 -->
      <g transform="translate(21.942187 140.922793) scale(0.1 -0.1)">
       <use xlink:href="#DejaVuSans-35"/>
      </g>
     </g>
    </g>
    <g id="ytick_5">
     <g id="line2d_13">
      <g>
       <use xlink:href="#mf29deca44e" x="35.304688" y="100.508435" style="stroke: #000000; stroke-width: 0.8"/>
      </g>
     </g>
     <g id="text_13">
      <!-- 10 -->
      <g transform="translate(15.579687 104.307654) scale(0.1 -0.1)">
       <use xlink:href="#DejaVuSans-31"/>
       <use xlink:href="#DejaVuSans-30" x="63.623047"/>
      </g>
     </g>
    </g>
    <g id="ytick_6">
     <g id="line2d_14">
      <g>
       <use xlink:href="#mf29deca44e" x="35.304688" y="63.893296" style="stroke: #000000; stroke-width: 0.8"/>
      </g>
     </g>
     <g id="text_14">
      <!-- 15 -->
      <g transform="translate(15.579687 67.692515) scale(0.1 -0.1)">
       <use xlink:href="#DejaVuSans-31"/>
       <use xlink:href="#DejaVuSans-35" x="63.623047"/>
      </g>
     </g>
    </g>
    <g id="ytick_7">
     <g id="line2d_15">
      <g>
       <use xlink:href="#mf29deca44e" x="35.304688" y="27.278157" style="stroke: #000000; stroke-width: 0.8"/>
      </g>
     </g>
     <g id="text_15">
      <!-- 20 -->
      <g transform="translate(15.579687 31.077376) scale(0.1 -0.1)">
       <use xlink:href="#DejaVuSans-32"/>
       <use xlink:href="#DejaVuSans-30" x="63.623047"/>
      </g>
     </g>
    </g>
   </g>
   <g id="patch_3">
    <path d="M 35.304688 273.312 
L 35.304688 7.2 
" style="fill: none; stroke: #000000; stroke-width: 0.8; stroke-linejoin: miter; stroke-linecap: square"/>
   </g>
   <g id="patch_4">
    <path d="M 392.424688 273.312 
L 392.424688 7.2 
" style="fill: none; stroke: #000000; stroke-width: 0.8; stroke-linejoin: miter; stroke-linecap: square"/>
   </g>
   <g id="patch_5">
    <path d="M 35.304688 273.312 
L 392.424688 273.312 
" style="fill: none; stroke: #000000; stroke-width: 0.8; stroke-linejoin: miter; stroke-linecap: square"/>
   </g>
   <g id="patch_6">
    <path d="M 35.304688 7.2 
L 392.424688 7.2 
" style="fill: none; stroke: #000000; stroke-width: 0.8; stroke-linejoin: miter; stroke-linecap: square"/>
   </g>
  </g>
 </g>
 <defs>
  <clipPath id="p2293241553">
   <rect x="35.304688" y="7.2" width="357.12" height="266.112"/>
  </clipPath>
 </defs>
</svg>
