<?xml version="1.0" encoding="utf-8" standalone="no"?>
<!DOCTYPE svg PUBLIC "-//W3C//DTD SVG 1.1//EN"
  "http://www.w3.org/Graphics/SVG/1.1/DTD/svg11.dtd">
<svg xmlns:xlink="http://www.w3.org/1999/xlink" width="399.624687pt" height="297.190125pt" viewBox="0 0 399.624687 297.190125" xmlns="http://www.w3.org/2000/svg" version="1.1">
 <metadata>
  <rdf:RDF xmlns:dc="http://purl.org/dc/elements/1.1/" xmlns:cc="http://creativecommons.org/ns#" xmlns:rdf="http://www.w3.org/1999/02/22-rdf-syntax-ns#">
   <cc:Work>
    <dc:type rdf:resource="http://purl.org/dc/dcmitype/StillImage"/>
    <dc:date>2023-11-13T17:08:11.684381</dc:date>
    <dc:format>image/svg+xml</dc:format>
    <dc:creator>
     <cc:Agent>
      <dc:title>Matplotlib v3.8.0, https://matplotlib.org/</dc:title>
     </cc:Agent>
    </dc:creator>
   </cc:Work>
  </rdf:RDF>
 </metadata>
 <defs>
  <style type="text/css">*{stroke-linejoin: round; stroke-linecap: butt}</style>
 </defs>
 <g id="figure_1">
  <g id="patch_1">
   <path d="M 0 297.190125 
L 399.624687 297.190125 
L 399.624687 0 
L 0 0 
z
" style="fill: #ffffff"/>
  </g>
  <g id="axes_1">
   <g id="patch_2">
    <path d="M 35.304688 273.312 
L 392.424688 273.312 
L 392.424688 7.2 
L 35.304688 7.2 
z
" style="fill: #ffffff"/>
   </g>
   <g id="PathCollection_1">
    <defs>
     <path id="m49e6d10f1c" d="M 0 1.5 
C 0.397805 1.5 0.77937 1.341951 1.06066 1.06066 
C 1.341951 0.77937 1.5 0.397805 1.5 0 
C 1.5 -0.397805 1.341951 -0.77937 1.06066 -1.06066 
C 0.77937 -1.341951 0.397805 -1.5 0 -1.5 
C -0.397805 -1.5 -0.77937 -1.341951 -1.06066 -1.06066 
C -1.341951 -0.77937 -1.5 -0.397805 -1.5 0 
C -1.5 0.397805 -1.341951 0.77937 -1.06066 1.06066 
C -0.77937 1.341951 -0.397805 1.5 0 1.5 
z
" style="stroke: #ff8c00"/>
    </defs>
    <g clip-path="url(#p7808668479)">
     <use xlink:href="#m49e6d10f1c" x="294.887166" y="215.128704" style="fill: #ff8c00; stroke: #ff8c00"/>
     <use xlink:href="#m49e6d10f1c" x="230.50875" y="137.956108" style="fill: #ff8c00; stroke: #ff8c00"/>
     <use xlink:href="#m49e6d10f1c" x="255.325424" y="203.037374" style="fill: #ff8c00; stroke: #ff8c00"/>
     <use xlink:href="#m49e6d10f1c" x="316.463912" y="181.591046" style="fill: #ff8c00; stroke: #ff8c00"/>
     <use xlink:href="#m49e6d10f1c" x="292.552179" y="154.008071" style="fill: #ff8c00; stroke: #ff8c00"/>
     <use xlink:href="#m49e6d10f1c" x="228.427765" y="123.21199" style="fill: #ff8c00; stroke: #ff8c00"/>
     <use xlink:href="#m49e6d10f1c" x="272.080803" y="216.413259" style="fill: #ff8c00; stroke: #ff8c00"/>
     <use xlink:href="#m49e6d10f1c" x="298.432102" y="234.838081" style="fill: #ff8c00; stroke: #ff8c00"/>
     <use xlink:href="#m49e6d10f1c" x="322.451739" y="187.575921" style="fill: #ff8c00; stroke: #ff8c00"/>
     <use xlink:href="#m49e6d10f1c" x="279.0757" y="204.684142" style="fill: #ff8c00; stroke: #ff8c00"/>
     <use xlink:href="#m49e6d10f1c" x="226.210023" y="182.751656" style="fill: #ff8c00; stroke: #ff8c00"/>
     <use xlink:href="#m49e6d10f1c" x="308.783289" y="173.141054" style="fill: #ff8c00; stroke: #ff8c00"/>
     <use xlink:href="#m49e6d10f1c" x="336.283664" y="202.140227" style="fill: #ff8c00; stroke: #ff8c00"/>
     <use xlink:href="#m49e6d10f1c" x="273.987172" y="192.616057" style="fill: #ff8c00; stroke: #ff8c00"/>
     <use xlink:href="#m49e6d10f1c" x="269.02945" y="181.10244" style="fill: #ff8c00; stroke: #ff8c00"/>
     <use xlink:href="#m49e6d10f1c" x="290.647831" y="167.784309" style="fill: #ff8c00; stroke: #ff8c00"/>
     <use xlink:href="#m49e6d10f1c" x="285.17602" y="190.15628" style="fill: #ff8c00; stroke: #ff8c00"/>
     <use xlink:href="#m49e6d10f1c" x="264.012051" y="188.804817" style="fill: #ff8c00; stroke: #ff8c00"/>
     <use xlink:href="#m49e6d10f1c" x="307.58495" y="180.337052" style="fill: #ff8c00; stroke: #ff8c00"/>
     <use xlink:href="#m49e6d10f1c" x="272.67531" y="210.486363" style="fill: #ff8c00; stroke: #ff8c00"/>
    </g>
   </g>
   <g id="PathCollection_2">
    <defs>
     <path id="m3997cff2d2" d="M 0 1.5 
C 0.397805 1.5 0.77937 1.341951 1.06066 1.06066 
C 1.341951 0.77937 1.5 0.397805 1.5 0 
C 1.5 -0.397805 1.341951 -0.77937 1.06066 -1.06066 
C 0.77937 -1.341951 0.397805 -1.5 0 -1.5 
C -0.397805 -1.5 -0.77937 -1.341951 -1.06066 -1.06066 
C -1.341951 -0.77937 -1.5 -0.397805 -1.5 0 
C -1.5 0.397805 -1.341951 0.77937 -1.06066 1.06066 
C -0.77937 1.341951 -0.397805 1.5 0 1.5 
z
" style="stroke: #006400"/>
    </defs>
    <g clip-path="url(#p7808668479)">
     <use xlink:href="#m3997cff2d2" x="270.592171" y="154.443303" style="fill: #006400; stroke: #006400"/>
     <use xlink:href="#m3997cff2d2" x="310.487294" y="256.515106" style="fill: #006400; stroke: #006400"/>
     <use xlink:href="#m3997cff2d2" x="254.511186" y="203.77681" style="fill: #006400; stroke: #006400"/>
     <use xlink:href="#m3997cff2d2" x="274.275008" y="221.158641" style="fill: #006400; stroke: #006400"/>
     <use xlink:href="#m3997cff2d2" x="240.243315" y="213.971432" style="fill: #006400; stroke: #006400"/>
     <use xlink:href="#m3997cff2d2" x="284.591232" y="228.563095" style="fill: #006400; stroke: #006400"/>
     <use xlink:href="#m3997cff2d2" x="357.586838" y="226.648273" style="fill: #006400; stroke: #006400"/>
     <use xlink:href="#m3997cff2d2" x="226.893563" y="167.349115" style="fill: #006400; stroke: #006400"/>
     <use xlink:href="#m3997cff2d2" x="321.40735" y="198.037637" style="fill: #006400; stroke: #006400"/>
     <use xlink:href="#m3997cff2d2" x="264.901124" y="208.83672" style="fill: #006400; stroke: #006400"/>
     <use xlink:href="#m3997cff2d2" x="288.529895" y="198.879051" style="fill: #006400; stroke: #006400"/>
     <use xlink:href="#m3997cff2d2" x="329.410692" y="261.216" style="fill: #006400; stroke: #006400"/>
    </g>
   </g>
   <g id="PathCollection_3">
    <defs>
     <path id="m7f2afd79c4" d="M 0 1.5 
C 0.397805 1.5 0.77937 1.341951 1.06066 1.06066 
C 1.341951 0.77937 1.5 0.397805 1.5 0 
C 1.5 -0.397805 1.341951 -0.77937 1.06066 -1.06066 
C 0.77937 -1.341951 0.397805 -1.5 0 -1.5 
C -0.397805 -1.5 -0.77937 -1.341951 -1.06066 -1.06066 
C -1.341951 -0.77937 -1.5 -0.397805 -1.5 0 
C -1.5 0.397805 -1.341951 0.77937 -1.06066 1.06066 
C -0.77937 1.341951 -0.397805 1.5 0 1.5 
z
" style="stroke: #2f4f4f"/>
    </defs>
    <g clip-path="url(#p7808668479)">
     <use xlink:href="#m7f2afd79c4" x="133.778895" y="161.70647" style="fill: #2f4f4f; stroke: #2f4f4f"/>
     <use xlink:href="#m7f2afd79c4" x="235.137267" y="138.183721" style="fill: #2f4f4f; stroke: #2f4f4f"/>
     <use xlink:href="#m7f2afd79c4" x="329.529126" y="142.834824" style="fill: #2f4f4f; stroke: #2f4f4f"/>
     <use xlink:href="#m7f2afd79c4" x="246.889723" y="188.570405" style="fill: #2f4f4f; stroke: #2f4f4f"/>
     <use xlink:href="#m7f2afd79c4" x="173.82946" y="162.887264" style="fill: #2f4f4f; stroke: #2f4f4f"/>
     <use xlink:href="#m7f2afd79c4" x="275.012676" y="147.89845" style="fill: #2f4f4f; stroke: #2f4f4f"/>
     <use xlink:href="#m7f2afd79c4" x="220.661979" y="151.203401" style="fill: #2f4f4f; stroke: #2f4f4f"/>
     <use xlink:href="#m7f2afd79c4" x="233.587884" y="144.670205" style="fill: #2f4f4f; stroke: #2f4f4f"/>
     <use xlink:href="#m7f2afd79c4" x="239.001815" y="157.301904" style="fill: #2f4f4f; stroke: #2f4f4f"/>
     <use xlink:href="#m7f2afd79c4" x="185.921371" y="166.488151" style="fill: #2f4f4f; stroke: #2f4f4f"/>
     <use xlink:href="#m7f2afd79c4" x="216.09317" y="145.106011" style="fill: #2f4f4f; stroke: #2f4f4f"/>
     <use xlink:href="#m7f2afd79c4" x="215.400992" y="170.835848" style="fill: #2f4f4f; stroke: #2f4f4f"/>
     <use xlink:href="#m7f2afd79c4" x="178.940348" y="169.115274" style="fill: #2f4f4f; stroke: #2f4f4f"/>
     <use xlink:href="#m7f2afd79c4" x="205.849963" y="173.547087" style="fill: #2f4f4f; stroke: #2f4f4f"/>
     <use xlink:href="#m7f2afd79c4" x="235.187833" y="132.657638" style="fill: #2f4f4f; stroke: #2f4f4f"/>
     <use xlink:href="#m7f2afd79c4" x="234.2945" y="133.29084" style="fill: #2f4f4f; stroke: #2f4f4f"/>
     <use xlink:href="#m7f2afd79c4" x="307.426121" y="170.88149" style="fill: #2f4f4f; stroke: #2f4f4f"/>
     <use xlink:href="#m7f2afd79c4" x="240.744044" y="135.355668" style="fill: #2f4f4f; stroke: #2f4f4f"/>
     <use xlink:href="#m7f2afd79c4" x="254.409097" y="203.386251" style="fill: #2f4f4f; stroke: #2f4f4f"/>
     <use xlink:href="#m7f2afd79c4" x="219.875704" y="133.423688" style="fill: #2f4f4f; stroke: #2f4f4f"/>
     <use xlink:href="#m7f2afd79c4" x="193.66692" y="178.213983" style="fill: #2f4f4f; stroke: #2f4f4f"/>
    </g>
   </g>
   <g id="PathCollection_4">
    <defs>
     <path id="m7274b076e0" d="M 0 1.5 
C 0.397805 1.5 0.77937 1.341951 1.06066 1.06066 
C 1.341951 0.77937 1.5 0.397805 1.5 0 
C 1.5 -0.397805 1.341951 -0.77937 1.06066 -1.06066 
C 0.77937 -1.341951 0.397805 -1.5 0 -1.5 
C -0.397805 -1.5 -0.77937 -1.341951 -1.06066 -1.06066 
C -1.341951 -0.77937 -1.5 -0.397805 -1.5 0 
C -1.5 0.397805 -1.341951 0.77937 -1.06066 1.06066 
C -0.77937 1.341951 -0.397805 1.5 0 1.5 
z
" style="stroke: #00bfff"/>
    </defs>
    <g clip-path="url(#p7808668479)">
     <use xlink:href="#m7274b076e0" x="236.587987" y="160.169294" style="fill: #00bfff; stroke: #00bfff"/>
     <use xlink:href="#m7274b076e0" x="240.312183" y="136.462119" style="fill: #00bfff; stroke: #00bfff"/>
     <use xlink:href="#m7274b076e0" x="234.078457" y="145.264489" style="fill: #00bfff; stroke: #00bfff"/>
     <use xlink:href="#m7274b076e0" x="239.403196" y="161.733236" style="fill: #00bfff; stroke: #00bfff"/>
     <use xlink:href="#m7274b076e0" x="247.283234" y="187.252384" style="fill: #00bfff; stroke: #00bfff"/>
     <use xlink:href="#m7274b076e0" x="245.480548" y="184.236023" style="fill: #00bfff; stroke: #00bfff"/>
     <use xlink:href="#m7274b076e0" x="203.970727" y="148.910399" style="fill: #00bfff; stroke: #00bfff"/>
     <use xlink:href="#m7274b076e0" x="237.043346" y="152.851409" style="fill: #00bfff; stroke: #00bfff"/>
     <use xlink:href="#m7274b076e0" x="257.918569" y="194.305432" style="fill: #00bfff; stroke: #00bfff"/>
     <use xlink:href="#m7274b076e0" x="261.503807" y="196.241249" style="fill: #00bfff; stroke: #00bfff"/>
    </g>
   </g>
   <g id="PathCollection_5">
    <defs>
     <path id="m9763d1981a" d="M 0 1.5 
C 0.397805 1.5 0.77937 1.341951 1.06066 1.06066 
C 1.341951 0.77937 1.5 0.397805 1.5 0 
C 1.5 -0.397805 1.341951 -0.77937 1.06066 -1.06066 
C 0.77937 -1.341951 0.397805 -1.5 0 -1.5 
C -0.397805 -1.5 -0.77937 -1.341951 -1.06066 -1.06066 
C -1.341951 -0.77937 -1.5 -0.397805 -1.5 0 
C -1.5 0.397805 -1.341951 0.77937 -1.06066 1.06066 
C -0.77937 1.341951 -0.397805 1.5 0 1.5 
z
" style="stroke: #ffff00"/>
    </defs>
    <g clip-path="url(#p7808668479)">
     <use xlink:href="#m9763d1981a" x="165.128483" y="184.75996" style="fill: #ffff00; stroke: #ffff00"/>
     <use xlink:href="#m9763d1981a" x="136.314231" y="166.787625" style="fill: #ffff00; stroke: #ffff00"/>
     <use xlink:href="#m9763d1981a" x="327.212065" y="146.85729" style="fill: #ffff00; stroke: #ffff00"/>
     <use xlink:href="#m9763d1981a" x="216.319748" y="143.058788" style="fill: #ffff00; stroke: #ffff00"/>
     <use xlink:href="#m9763d1981a" x="297.588134" y="173.550705" style="fill: #ffff00; stroke: #ffff00"/>
     <use xlink:href="#m9763d1981a" x="214.474063" y="144.3181" style="fill: #ffff00; stroke: #ffff00"/>
     <use xlink:href="#m9763d1981a" x="261.940388" y="115.817683" style="fill: #ffff00; stroke: #ffff00"/>
     <use xlink:href="#m9763d1981a" x="263.048245" y="84.264863" style="fill: #ffff00; stroke: #ffff00"/>
     <use xlink:href="#m9763d1981a" x="173.943696" y="126.212841" style="fill: #ffff00; stroke: #ffff00"/>
     <use xlink:href="#m9763d1981a" x="184.080791" y="144.922419" style="fill: #ffff00; stroke: #ffff00"/>
     <use xlink:href="#m9763d1981a" x="173.577473" y="112.896231" style="fill: #ffff00; stroke: #ffff00"/>
     <use xlink:href="#m9763d1981a" x="200.704528" y="173.238525" style="fill: #ffff00; stroke: #ffff00"/>
     <use xlink:href="#m9763d1981a" x="222.565528" y="167.214251" style="fill: #ffff00; stroke: #ffff00"/>
     <use xlink:href="#m9763d1981a" x="248.35095" y="119.507915" style="fill: #ffff00; stroke: #ffff00"/>
    </g>
   </g>
   <g id="PathCollection_6">
    <defs>
     <path id="m4645257dba" d="M 0 1.5 
C 0.397805 1.5 0.77937 1.341951 1.06066 1.06066 
C 1.341951 0.77937 1.5 0.397805 1.5 0 
C 1.5 -0.397805 1.341951 -0.77937 1.06066 -1.06066 
C 0.77937 -1.341951 0.397805 -1.5 0 -1.5 
C -0.397805 -1.5 -0.77937 -1.341951 -1.06066 -1.06066 
C -1.341951 -0.77937 -1.5 -0.397805 -1.5 0 
C -1.5 0.397805 -1.341951 0.77937 -1.06066 1.06066 
C -0.77937 1.341951 -0.397805 1.5 0 1.5 
z
" style="stroke: #00ffff"/>
    </defs>
    <g clip-path="url(#p7808668479)">
     <use xlink:href="#m4645257dba" x="285.155227" y="160.752242" style="fill: #00ffff; stroke: #00ffff"/>
     <use xlink:href="#m4645257dba" x="189.127033" y="149.951253" style="fill: #00ffff; stroke: #00ffff"/>
     <use xlink:href="#m4645257dba" x="261.211829" y="163.178284" style="fill: #00ffff; stroke: #00ffff"/>
     <use xlink:href="#m4645257dba" x="245.563088" y="98.709417" style="fill: #00ffff; stroke: #00ffff"/>
     <use xlink:href="#m4645257dba" x="185.355785" y="127.141462" style="fill: #00ffff; stroke: #00ffff"/>
     <use xlink:href="#m4645257dba" x="184.585443" y="135.672606" style="fill: #00ffff; stroke: #00ffff"/>
     <use xlink:href="#m4645257dba" x="269.012477" y="135.999631" style="fill: #00ffff; stroke: #00ffff"/>
     <use xlink:href="#m4645257dba" x="208.492034" y="149.294896" style="fill: #00ffff; stroke: #00ffff"/>
     <use xlink:href="#m4645257dba" x="267.27877" y="152.791351" style="fill: #00ffff; stroke: #00ffff"/>
     <use xlink:href="#m4645257dba" x="297.284272" y="134.377818" style="fill: #00ffff; stroke: #00ffff"/>
     <use xlink:href="#m4645257dba" x="211.855341" y="136.460467" style="fill: #00ffff; stroke: #00ffff"/>
     <use xlink:href="#m4645257dba" x="282.4705" y="155.568098" style="fill: #00ffff; stroke: #00ffff"/>
     <use xlink:href="#m4645257dba" x="261.215721" y="113.940499" style="fill: #00ffff; stroke: #00ffff"/>
     <use xlink:href="#m4645257dba" x="255.386934" y="146.62123" style="fill: #00ffff; stroke: #00ffff"/>
     <use xlink:href="#m4645257dba" x="203.583853" y="140.170234" style="fill: #00ffff; stroke: #00ffff"/>
     <use xlink:href="#m4645257dba" x="251.054549" y="127.387894" style="fill: #00ffff; stroke: #00ffff"/>
     <use xlink:href="#m4645257dba" x="207.699732" y="129.570466" style="fill: #00ffff; stroke: #00ffff"/>
     <use xlink:href="#m4645257dba" x="234.213956" y="146.940381" style="fill: #00ffff; stroke: #00ffff"/>
    </g>
   </g>
   <g id="PathCollection_7">
    <defs>
     <path id="m11c9cd5ede" d="M 0 1.5 
C 0.397805 1.5 0.77937 1.341951 1.06066 1.06066 
C 1.341951 0.77937 1.5 0.397805 1.5 0 
C 1.5 -0.397805 1.341951 -0.77937 1.06066 -1.06066 
C 0.77937 -1.341951 0.397805 -1.5 0 -1.5 
C -0.397805 -1.5 -0.77937 -1.341951 -1.06066 -1.06066 
C -1.341951 -0.77937 -1.5 -0.397805 -1.5 0 
C -1.5 0.397805 -1.341951 0.77937 -1.06066 1.06066 
C -0.77937 1.341951 -0.397805 1.5 0 1.5 
z
" style="stroke: #0000ff"/>
    </defs>
    <g clip-path="url(#p7808668479)">
     <use xlink:href="#m11c9cd5ede" x="314.981164" y="102.602554" style="fill: #0000ff; stroke: #0000ff"/>
     <use xlink:href="#m11c9cd5ede" x="353.698727" y="114.606481" style="fill: #0000ff; stroke: #0000ff"/>
     <use xlink:href="#m11c9cd5ede" x="376.19196" y="19.296" style="fill: #0000ff; stroke: #0000ff"/>
     <use xlink:href="#m11c9cd5ede" x="324.233081" y="40.850167" style="fill: #0000ff; stroke: #0000ff"/>
     <use xlink:href="#m11c9cd5ede" x="248.409859" y="122.640891" style="fill: #0000ff; stroke: #0000ff"/>
     <use xlink:href="#m11c9cd5ede" x="301.713027" y="83.786084" style="fill: #0000ff; stroke: #0000ff"/>
     <use xlink:href="#m11c9cd5ede" x="270.791059" y="134.722234" style="fill: #0000ff; stroke: #0000ff"/>
     <use xlink:href="#m11c9cd5ede" x="297.060219" y="51.063309" style="fill: #0000ff; stroke: #0000ff"/>
     <use xlink:href="#m11c9cd5ede" x="315.348493" y="101.928398" style="fill: #0000ff; stroke: #0000ff"/>
     <use xlink:href="#m11c9cd5ede" x="329.784801" y="26.793407" style="fill: #0000ff; stroke: #0000ff"/>
     <use xlink:href="#m11c9cd5ede" x="248.575558" y="110.993794" style="fill: #0000ff; stroke: #0000ff"/>
    </g>
   </g>
   <g id="PathCollection_8">
    <defs>
     <path id="m9d6a7bed9f" d="M 0 1.5 
C 0.397805 1.5 0.77937 1.341951 1.06066 1.06066 
C 1.341951 0.77937 1.5 0.397805 1.5 0 
C 1.5 -0.397805 1.341951 -0.77937 1.06066 -1.06066 
C 0.77937 -1.341951 0.397805 -1.5 0 -1.5 
C -0.397805 -1.5 -0.77937 -1.341951 -1.06066 -1.06066 
C -1.341951 -0.77937 -1.5 -0.397805 -1.5 0 
C -1.5 0.397805 -1.341951 0.77937 -1.06066 1.06066 
C -0.77937 1.341951 -0.397805 1.5 0 1.5 
z
" style="stroke: #dc143c"/>
    </defs>
    <g clip-path="url(#p7808668479)">
     <use xlink:href="#m9d6a7bed9f" x="207.330997" y="189.830667" style="fill: #dc143c; stroke: #dc143c"/>
     <use xlink:href="#m9d6a7bed9f" x="281.070314" y="204.169797" style="fill: #dc143c; stroke: #dc143c"/>
     <use xlink:href="#m9d6a7bed9f" x="272.059251" y="241.283778" style="fill: #dc143c; stroke: #dc143c"/>
     <use xlink:href="#m9d6a7bed9f" x="188.898454" y="206.798921" style="fill: #dc143c; stroke: #dc143c"/>
     <use xlink:href="#m9d6a7bed9f" x="264.247156" y="240.764232" style="fill: #dc143c; stroke: #dc143c"/>
     <use xlink:href="#m9d6a7bed9f" x="316.238217" y="248.559427" style="fill: #dc143c; stroke: #dc143c"/>
     <use xlink:href="#m9d6a7bed9f" x="267.901717" y="214.437882" style="fill: #dc143c; stroke: #dc143c"/>
     <use xlink:href="#m9d6a7bed9f" x="226.386946" y="231.486698" style="fill: #dc143c; stroke: #dc143c"/>
     <use xlink:href="#m9d6a7bed9f" x="250.995224" y="210.546366" style="fill: #dc143c; stroke: #dc143c"/>
     <use xlink:href="#m9d6a7bed9f" x="287.924651" y="248.314101" style="fill: #dc143c; stroke: #dc143c"/>
     <use xlink:href="#m9d6a7bed9f" x="299.022523" y="159.024971" style="fill: #dc143c; stroke: #dc143c"/>
     <use xlink:href="#m9d6a7bed9f" x="274.535922" y="219.293628" style="fill: #dc143c; stroke: #dc143c"/>
     <use xlink:href="#m9d6a7bed9f" x="202.980955" y="202.078702" style="fill: #dc143c; stroke: #dc143c"/>
     <use xlink:href="#m9d6a7bed9f" x="280.575886" y="212.811604" style="fill: #dc143c; stroke: #dc143c"/>
    </g>
   </g>
   <g id="PathCollection_9">
    <defs>
     <path id="m589372a78c" d="M 0 1.5 
C 0.397805 1.5 0.77937 1.341951 1.06066 1.06066 
C 1.341951 0.77937 1.5 0.397805 1.5 0 
C 1.5 -0.397805 1.341951 -0.77937 1.06066 -1.06066 
C 0.77937 -1.341951 0.397805 -1.5 0 -1.5 
C -0.397805 -1.5 -0.77937 -1.341951 -1.06066 -1.06066 
C -1.341951 -0.77937 -1.5 -0.397805 -1.5 0 
C -1.5 0.397805 -1.341951 0.77937 -1.06066 1.06066 
C -0.77937 1.341951 -0.397805 1.5 0 1.5 
z
" style="stroke: #ffe4c4"/>
    </defs>
    <g clip-path="url(#p7808668479)">
     <use xlink:href="#m589372a78c" x="327.433466" y="188.332156" style="fill: #ffe4c4; stroke: #ffe4c4"/>
     <use xlink:href="#m589372a78c" x="270.084612" y="166.492971" style="fill: #ffe4c4; stroke: #ffe4c4"/>
     <use xlink:href="#m589372a78c" x="282.037174" y="118.285171" style="fill: #ffe4c4; stroke: #ffe4c4"/>
     <use xlink:href="#m589372a78c" x="313.444016" y="181.719552" style="fill: #ffe4c4; stroke: #ffe4c4"/>
     <use xlink:href="#m589372a78c" x="262.936469" y="210.12417" style="fill: #ffe4c4; stroke: #ffe4c4"/>
     <use xlink:href="#m589372a78c" x="372.478304" y="190.128922" style="fill: #ffe4c4; stroke: #ffe4c4"/>
     <use xlink:href="#m589372a78c" x="323.831004" y="213.54774" style="fill: #ffe4c4; stroke: #ffe4c4"/>
     <use xlink:href="#m589372a78c" x="272.821001" y="177.40667" style="fill: #ffe4c4; stroke: #ffe4c4"/>
    </g>
   </g>
   <g id="PathCollection_10">
    <defs>
     <path id="m6b85011736" d="M -2.99994 2.99994 
L 3.00006 2.99994 
L 3.00006 -3.00006 
L -2.99994 -3.00006 
z
" style="stroke: #000000"/>
    </defs>
    <g clip-path="url(#p7808668479)">
     <use xlink:href="#m6b85011736" x="80.697794" y="169.693185" style="stroke: #000000"/>
     <use xlink:href="#m6b85011736" x="133.687948" y="165.548901" style="stroke: #000000"/>
     <use xlink:href="#m6b85011736" x="143.253366" y="158.293713" style="stroke: #000000"/>
     <use xlink:href="#m6b85011736" x="173.988876" y="138.015485" style="stroke: #000000"/>
     <use xlink:href="#m6b85011736" x="128.602308" y="144.158446" style="stroke: #000000"/>
     <use xlink:href="#m6b85011736" x="108.942747" y="158.977404" style="stroke: #000000"/>
     <use xlink:href="#m6b85011736" x="187.678895" y="157.858973" style="stroke: #000000"/>
     <use xlink:href="#m6b85011736" x="95.607108" y="194.963153" style="stroke: #000000"/>
     <use xlink:href="#m6b85011736" x="143.493241" y="133.375438" style="stroke: #000000"/>
     <use xlink:href="#m6b85011736" x="144.994262" y="155.92711" style="stroke: #000000"/>
     <use xlink:href="#m6b85011736" x="168.054744" y="158.738987" style="stroke: #000000"/>
     <use xlink:href="#m6b85011736" x="51.537415" y="186.065344" style="stroke: #000000"/>
     <use xlink:href="#m6b85011736" x="170.263629" y="170.225769" style="stroke: #000000"/>
     <use xlink:href="#m6b85011736" x="72.870605" y="140.872637" style="stroke: #000000"/>
     <use xlink:href="#m6b85011736" x="81.784873" y="171.136683" style="stroke: #000000"/>
     <use xlink:href="#m6b85011736" x="158.266911" y="169.337376" style="stroke: #000000"/>
     <use xlink:href="#m6b85011736" x="145.633808" y="162.305895" style="stroke: #000000"/>
     <use xlink:href="#m6b85011736" x="113.005592" y="161.54003" style="stroke: #000000"/>
     <use xlink:href="#m6b85011736" x="148.752008" y="148.972309" style="stroke: #000000"/>
     <use xlink:href="#m6b85011736" x="78.853058" y="161.306274" style="stroke: #000000"/>
     <use xlink:href="#m6b85011736" x="74.227264" y="148.47531" style="stroke: #000000"/>
     <use xlink:href="#m6b85011736" x="196.680408" y="180.508858" style="stroke: #000000"/>
     <use xlink:href="#m6b85011736" x="102.590185" y="164.027589" style="stroke: #000000"/>
     <use xlink:href="#m6b85011736" x="77.693732" y="178.555936" style="stroke: #000000"/>
     <use xlink:href="#m6b85011736" x="154.195863" y="183.39717" style="stroke: #000000"/>
     <use xlink:href="#m6b85011736" x="111.684871" y="158.82969" style="stroke: #000000"/>
     <use xlink:href="#m6b85011736" x="193.48026" y="159.878171" style="stroke: #000000"/>
     <use xlink:href="#m6b85011736" x="165.955988" y="189.569153" style="stroke: #000000"/>
     <use xlink:href="#m6b85011736" x="153.18807" y="180.517637" style="stroke: #000000"/>
     <use xlink:href="#m6b85011736" x="160.402712" y="145.792732" style="stroke: #000000"/>
     <use xlink:href="#m6b85011736" x="103.393672" y="171.889427" style="stroke: #000000"/>
     <use xlink:href="#m6b85011736" x="181.831023" y="162.006728" style="stroke: #000000"/>
     <use xlink:href="#m6b85011736" x="149.435835" y="169.666199" style="stroke: #000000"/>
     <use xlink:href="#m6b85011736" x="64.720934" y="178.831285" style="stroke: #000000"/>
     <use xlink:href="#m6b85011736" x="118.869789" y="161.14484" style="stroke: #000000"/>
     <use xlink:href="#m6b85011736" x="141.63256" y="126.184976" style="stroke: #000000"/>
     <use xlink:href="#m6b85011736" x="150.295102" y="151.964792" style="stroke: #000000"/>
     <use xlink:href="#m6b85011736" x="154.788241" y="191.003528" style="stroke: #000000"/>
     <use xlink:href="#m6b85011736" x="193.066732" y="162.699307" style="stroke: #000000"/>
     <use xlink:href="#m6b85011736" x="115.299101" y="132.1997" style="stroke: #000000"/>
     <use xlink:href="#m6b85011736" x="77.458756" y="191.117731" style="stroke: #000000"/>
     <use xlink:href="#m6b85011736" x="298.944448" y="208.357086" style="stroke: #000000"/>
     <use xlink:href="#m6b85011736" x="112.523105" y="152.89282" style="stroke: #000000"/>
     <use xlink:href="#m6b85011736" x="171.774199" y="163.147818" style="stroke: #000000"/>
     <use xlink:href="#m6b85011736" x="137.077365" y="167.148446" style="stroke: #000000"/>
     <use xlink:href="#m6b85011736" x="140.511157" y="167.671499" style="stroke: #000000"/>
     <use xlink:href="#m6b85011736" x="63.921612" y="154.244348" style="stroke: #000000"/>
     <use xlink:href="#m6b85011736" x="165.949114" y="166.840772" style="stroke: #000000"/>
     <use xlink:href="#m6b85011736" x="196.486002" y="117.575151" style="stroke: #000000"/>
     <use xlink:href="#m6b85011736" x="108.675712" y="168.293462" style="stroke: #000000"/>
     <use xlink:href="#m6b85011736" x="219.219222" y="146.03102" style="stroke: #000000"/>
     <use xlink:href="#m6b85011736" x="157.575401" y="153.38925" style="stroke: #000000"/>
     <use xlink:href="#m6b85011736" x="101.653679" y="164.62098" style="stroke: #000000"/>
     <use xlink:href="#m6b85011736" x="117.210122" y="163.013675" style="stroke: #000000"/>
     <use xlink:href="#m6b85011736" x="57.117117" y="169.38926" style="stroke: #000000"/>
     <use xlink:href="#m6b85011736" x="73.340916" y="140.730101" style="stroke: #000000"/>
     <use xlink:href="#m6b85011736" x="226.82834" y="160.323687" style="stroke: #000000"/>
     <use xlink:href="#m6b85011736" x="335.26254" y="165.962066" style="stroke: #000000"/>
     <use xlink:href="#m6b85011736" x="110.95986" y="200.606022" style="stroke: #000000"/>
     <use xlink:href="#m6b85011736" x="128.855425" y="184.002086" style="stroke: #000000"/>
     <use xlink:href="#m6b85011736" x="85.219453" y="158.986602" style="stroke: #000000"/>
     <use xlink:href="#m6b85011736" x="135.435953" y="188.07146" style="stroke: #000000"/>
     <use xlink:href="#m6b85011736" x="126.213846" y="169.31253" style="stroke: #000000"/>
     <use xlink:href="#m6b85011736" x="135.43457" y="168.571558" style="stroke: #000000"/>
    </g>
   </g>
   <g id="PathCollection_11">
    <defs>
     <path id="m59fbad05f6" d="M -3 -0 
L 3 3 
L 3 -3 
z
" style="stroke: #ff8c00"/>
    </defs>
    <g clip-path="url(#p7808668479)">
     <use xlink:href="#m59fbad05f6" x="225.711636" y="152.877991" style="fill: #ff8c00; stroke: #ff8c00"/>
     <use xlink:href="#m59fbad05f6" x="138.017434" y="173.383355" style="fill: #ff8c00; stroke: #ff8c00"/>
     <use xlink:href="#m59fbad05f6" x="205.988506" y="158.255203" style="fill: #ff8c00; stroke: #ff8c00"/>
     <use xlink:href="#m59fbad05f6" x="133.88523" y="173.826237" style="fill: #ff8c00; stroke: #ff8c00"/>
     <use xlink:href="#m59fbad05f6" x="110.002526" y="173.556924" style="fill: #ff8c00; stroke: #ff8c00"/>
     <use xlink:href="#m59fbad05f6" x="202.329699" y="163.866305" style="fill: #ff8c00; stroke: #ff8c00"/>
     <use xlink:href="#m59fbad05f6" x="131.245328" y="140.440779" style="fill: #ff8c00; stroke: #ff8c00"/>
     <use xlink:href="#m59fbad05f6" x="104.168109" y="170.168984" style="fill: #ff8c00; stroke: #ff8c00"/>
     <use xlink:href="#m59fbad05f6" x="85.171711" y="167.477612" style="fill: #ff8c00; stroke: #ff8c00"/>
     <use xlink:href="#m59fbad05f6" x="167.655295" y="161.688214" style="fill: #ff8c00; stroke: #ff8c00"/>
     <use xlink:href="#m59fbad05f6" x="150.574429" y="183.816381" style="fill: #ff8c00; stroke: #ff8c00"/>
     <use xlink:href="#m59fbad05f6" x="133.881904" y="187.611955" style="fill: #ff8c00; stroke: #ff8c00"/>
     <use xlink:href="#m59fbad05f6" x="138.100188" y="178.615645" style="fill: #ff8c00; stroke: #ff8c00"/>
     <use xlink:href="#m59fbad05f6" x="131.329266" y="153.044158" style="fill: #ff8c00; stroke: #ff8c00"/>
     <use xlink:href="#m59fbad05f6" x="124.407749" y="178.339667" style="fill: #ff8c00; stroke: #ff8c00"/>
     <use xlink:href="#m59fbad05f6" x="115.005353" y="151.749538" style="fill: #ff8c00; stroke: #ff8c00"/>
     <use xlink:href="#m59fbad05f6" x="168.596266" y="152.315949" style="fill: #ff8c00; stroke: #ff8c00"/>
     <use xlink:href="#m59fbad05f6" x="189.465035" y="153.219257" style="fill: #ff8c00; stroke: #ff8c00"/>
     <use xlink:href="#m59fbad05f6" x="106.098661" y="179.96713" style="fill: #ff8c00; stroke: #ff8c00"/>
     <use xlink:href="#m59fbad05f6" x="186.656821" y="131.801119" style="fill: #ff8c00; stroke: #ff8c00"/>
     <use xlink:href="#m59fbad05f6" x="146.957332" y="179.956641" style="fill: #ff8c00; stroke: #ff8c00"/>
     <use xlink:href="#m59fbad05f6" x="142.130128" y="159.945166" style="fill: #ff8c00; stroke: #ff8c00"/>
     <use xlink:href="#m59fbad05f6" x="101.489259" y="163.153209" style="fill: #ff8c00; stroke: #ff8c00"/>
     <use xlink:href="#m59fbad05f6" x="95.502714" y="156.968777" style="fill: #ff8c00; stroke: #ff8c00"/>
     <use xlink:href="#m59fbad05f6" x="79.669395" y="157.339858" style="fill: #ff8c00; stroke: #ff8c00"/>
     <use xlink:href="#m59fbad05f6" x="134.459267" y="173.881391" style="fill: #ff8c00; stroke: #ff8c00"/>
     <use xlink:href="#m59fbad05f6" x="126.315895" y="156.225773" style="fill: #ff8c00; stroke: #ff8c00"/>
     <use xlink:href="#m59fbad05f6" x="221.622414" y="158.951759" style="fill: #ff8c00; stroke: #ff8c00"/>
     <use xlink:href="#m59fbad05f6" x="141.228749" y="177.945451" style="fill: #ff8c00; stroke: #ff8c00"/>
     <use xlink:href="#m59fbad05f6" x="157.853592" y="184.836797" style="fill: #ff8c00; stroke: #ff8c00"/>
     <use xlink:href="#m59fbad05f6" x="147.472743" y="161.544724" style="fill: #ff8c00; stroke: #ff8c00"/>
     <use xlink:href="#m59fbad05f6" x="129.645494" y="180.281256" style="fill: #ff8c00; stroke: #ff8c00"/>
     <use xlink:href="#m59fbad05f6" x="155.037638" y="174.924972" style="fill: #ff8c00; stroke: #ff8c00"/>
     <use xlink:href="#m59fbad05f6" x="98.942992" y="165.590673" style="fill: #ff8c00; stroke: #ff8c00"/>
     <use xlink:href="#m59fbad05f6" x="122.836118" y="167.598998" style="fill: #ff8c00; stroke: #ff8c00"/>
     <use xlink:href="#m59fbad05f6" x="173.950516" y="159.829013" style="fill: #ff8c00; stroke: #ff8c00"/>
     <use xlink:href="#m59fbad05f6" x="84.139018" y="180.556908" style="fill: #ff8c00; stroke: #ff8c00"/>
     <use xlink:href="#m59fbad05f6" x="113.148202" y="183.491592" style="fill: #ff8c00; stroke: #ff8c00"/>
     <use xlink:href="#m59fbad05f6" x="117.633507" y="173.620174" style="fill: #ff8c00; stroke: #ff8c00"/>
     <use xlink:href="#m59fbad05f6" x="152.472083" y="170.717077" style="fill: #ff8c00; stroke: #ff8c00"/>
     <use xlink:href="#m59fbad05f6" x="150.549351" y="188.661747" style="fill: #ff8c00; stroke: #ff8c00"/>
     <use xlink:href="#m59fbad05f6" x="159.14076" y="185.787482" style="fill: #ff8c00; stroke: #ff8c00"/>
     <use xlink:href="#m59fbad05f6" x="103.972539" y="171.97592" style="fill: #ff8c00; stroke: #ff8c00"/>
     <use xlink:href="#m59fbad05f6" x="147.942612" y="188.636664" style="fill: #ff8c00; stroke: #ff8c00"/>
     <use xlink:href="#m59fbad05f6" x="148.300756" y="192.121858" style="fill: #ff8c00; stroke: #ff8c00"/>
     <use xlink:href="#m59fbad05f6" x="150.09578" y="180.221402" style="fill: #ff8c00; stroke: #ff8c00"/>
     <use xlink:href="#m59fbad05f6" x="146.759526" y="192.834568" style="fill: #ff8c00; stroke: #ff8c00"/>
     <use xlink:href="#m59fbad05f6" x="95.287506" y="159.43208" style="fill: #ff8c00; stroke: #ff8c00"/>
     <use xlink:href="#m59fbad05f6" x="128.631774" y="164.350977" style="fill: #ff8c00; stroke: #ff8c00"/>
     <use xlink:href="#m59fbad05f6" x="113.99447" y="157.681683" style="fill: #ff8c00; stroke: #ff8c00"/>
     <use xlink:href="#m59fbad05f6" x="144.320172" y="184.705728" style="fill: #ff8c00; stroke: #ff8c00"/>
     <use xlink:href="#m59fbad05f6" x="187.630999" y="163.031131" style="fill: #ff8c00; stroke: #ff8c00"/>
     <use xlink:href="#m59fbad05f6" x="157.096257" y="186.535409" style="fill: #ff8c00; stroke: #ff8c00"/>
     <use xlink:href="#m59fbad05f6" x="155.994166" y="179.276946" style="fill: #ff8c00; stroke: #ff8c00"/>
     <use xlink:href="#m59fbad05f6" x="134.009219" y="176.400258" style="fill: #ff8c00; stroke: #ff8c00"/>
     <use xlink:href="#m59fbad05f6" x="121.881385" y="147.966206" style="fill: #ff8c00; stroke: #ff8c00"/>
     <use xlink:href="#m59fbad05f6" x="100.747692" y="173.114169" style="fill: #ff8c00; stroke: #ff8c00"/>
     <use xlink:href="#m59fbad05f6" x="126.497195" y="160.178757" style="fill: #ff8c00; stroke: #ff8c00"/>
     <use xlink:href="#m59fbad05f6" x="125.734018" y="188.120531" style="fill: #ff8c00; stroke: #ff8c00"/>
     <use xlink:href="#m59fbad05f6" x="109.407338" y="174.917486" style="fill: #ff8c00; stroke: #ff8c00"/>
     <use xlink:href="#m59fbad05f6" x="201.653114" y="178.714055" style="fill: #ff8c00; stroke: #ff8c00"/>
     <use xlink:href="#m59fbad05f6" x="147.781238" y="166.738831" style="fill: #ff8c00; stroke: #ff8c00"/>
     <use xlink:href="#m59fbad05f6" x="106.291234" y="175.731326" style="fill: #ff8c00; stroke: #ff8c00"/>
     <use xlink:href="#m59fbad05f6" x="163.036808" y="169.882754" style="fill: #ff8c00; stroke: #ff8c00"/>
    </g>
   </g>
   <g id="matplotlib.axis_1">
    <g id="xtick_1">
     <g id="line2d_1">
      <defs>
       <path id="m56bac9c0ad" d="M 0 0 
L 0 3.5 
" style="stroke: #000000; stroke-width: 0.8"/>
      </defs>
      <g>
       <use xlink:href="#m56bac9c0ad" x="47.865659" y="273.312" style="stroke: #000000; stroke-width: 0.8"/>
      </g>
     </g>
     <g id="text_1">
      <!-- −20 -->
      <g transform="translate(37.313315 287.910437) scale(0.1 -0.1)">
       <defs>
        <path id="DejaVuSans-2212" d="M 678 2272 
L 4684 2272 
L 4684 1741 
L 678 1741 
L 678 2272 
z
" transform="scale(0.015625)"/>
        <path id="DejaVuSans-32" d="M 1228 531 
L 3431 531 
L 3431 0 
L 469 0 
L 469 531 
Q 828 903 1448 1529 
Q 2069 2156 2228 2338 
Q 2531 2678 2651 2914 
Q 2772 3150 2772 3378 
Q 2772 3750 2511 3984 
Q 2250 4219 1831 4219 
Q 1534 4219 1204 4116 
Q 875 4013 500 3803 
L 500 4441 
Q 881 4594 1212 4672 
Q 1544 4750 1819 4750 
Q 2544 4750 2975 4387 
Q 3406 4025 3406 3419 
Q 3406 3131 3298 2873 
Q 3191 2616 2906 2266 
Q 2828 2175 2409 1742 
Q 1991 1309 1228 531 
z
" transform="scale(0.015625)"/>
        <path id="DejaVuSans-30" d="M 2034 4250 
Q 1547 4250 1301 3770 
Q 1056 3291 1056 2328 
Q 1056 1369 1301 889 
Q 1547 409 2034 409 
Q 2525 409 2770 889 
Q 3016 1369 3016 2328 
Q 3016 3291 2770 3770 
Q 2525 4250 2034 4250 
z
M 2034 4750 
Q 2819 4750 3233 4129 
Q 3647 3509 3647 2328 
Q 3647 1150 3233 529 
Q 2819 -91 2034 -91 
Q 1250 -91 836 529 
Q 422 1150 422 2328 
Q 422 3509 836 4129 
Q 1250 4750 2034 4750 
z
" transform="scale(0.015625)"/>
       </defs>
       <use xlink:href="#DejaVuSans-2212"/>
       <use xlink:href="#DejaVuSans-32" x="83.789062"/>
       <use xlink:href="#DejaVuSans-30" x="147.412109"/>
      </g>
     </g>
    </g>
    <g id="xtick_2">
     <g id="line2d_2">
      <g>
       <use xlink:href="#m56bac9c0ad" x="123.021238" y="273.312" style="stroke: #000000; stroke-width: 0.8"/>
      </g>
     </g>
     <g id="text_2">
      <!-- −10 -->
      <g transform="translate(112.468894 287.910437) scale(0.1 -0.1)">
       <defs>
        <path id="DejaVuSans-31" d="M 794 531 
L 1825 531 
L 1825 4091 
L 703 3866 
L 703 4441 
L 1819 4666 
L 2450 4666 
L 2450 531 
L 3481 531 
L 3481 0 
L 794 0 
L 794 531 
z
" transform="scale(0.015625)"/>
       </defs>
       <use xlink:href="#DejaVuSans-2212"/>
       <use xlink:href="#DejaVuSans-31" x="83.789062"/>
       <use xlink:href="#DejaVuSans-30" x="147.412109"/>
      </g>
     </g>
    </g>
    <g id="xtick_3">
     <g id="line2d_3">
      <g>
       <use xlink:href="#m56bac9c0ad" x="198.176816" y="273.312" style="stroke: #000000; stroke-width: 0.8"/>
      </g>
     </g>
     <g id="text_3">
      <!-- 0 -->
      <g transform="translate(194.995566 287.910437) scale(0.1 -0.1)">
       <use xlink:href="#DejaVuSans-30"/>
      </g>
     </g>
    </g>
    <g id="xtick_4">
     <g id="line2d_4">
      <g>
       <use xlink:href="#m56bac9c0ad" x="273.332395" y="273.312" style="stroke: #000000; stroke-width: 0.8"/>
      </g>
     </g>
     <g id="text_4">
      <!-- 10 -->
      <g transform="translate(266.969895 287.910437) scale(0.1 -0.1)">
       <use xlink:href="#DejaVuSans-31"/>
       <use xlink:href="#DejaVuSans-30" x="63.623047"/>
      </g>
     </g>
    </g>
    <g id="xtick_5">
     <g id="line2d_5">
      <g>
       <use xlink:href="#m56bac9c0ad" x="348.487974" y="273.312" style="stroke: #000000; stroke-width: 0.8"/>
      </g>
     </g>
     <g id="text_5">
      <!-- 20 -->
      <g transform="translate(342.125474 287.910437) scale(0.1 -0.1)">
       <use xlink:href="#DejaVuSans-32"/>
       <use xlink:href="#DejaVuSans-30" x="63.623047"/>
      </g>
     </g>
    </g>
   </g>
   <g id="matplotlib.axis_2">
    <g id="ytick_1">
     <g id="line2d_6">
      <defs>
       <path id="m2a96bde73d" d="M 0 0 
L -3.5 0 
" style="stroke: #000000; stroke-width: 0.8"/>
      </defs>
      <g>
       <use xlink:href="#m2a96bde73d" x="35.304688" y="255.241907" style="stroke: #000000; stroke-width: 0.8"/>
      </g>
     </g>
     <g id="text_6">
      <!-- −20 -->
      <g transform="translate(7.2 259.041126) scale(0.1 -0.1)">
       <use xlink:href="#DejaVuSans-2212"/>
       <use xlink:href="#DejaVuSans-32" x="83.789062"/>
       <use xlink:href="#DejaVuSans-30" x="147.412109"/>
      </g>
     </g>
    </g>
    <g id="ytick_2">
     <g id="line2d_7">
      <g>
       <use xlink:href="#m2a96bde73d" x="35.304688" y="210.648211" style="stroke: #000000; stroke-width: 0.8"/>
      </g>
     </g>
     <g id="text_7">
      <!-- −10 -->
      <g transform="translate(7.2 214.44743) scale(0.1 -0.1)">
       <use xlink:href="#DejaVuSans-2212"/>
       <use xlink:href="#DejaVuSans-31" x="83.789062"/>
       <use xlink:href="#DejaVuSans-30" x="147.412109"/>
      </g>
     </g>
    </g>
    <g id="ytick_3">
     <g id="line2d_8">
      <g>
       <use xlink:href="#m2a96bde73d" x="35.304688" y="166.054516" style="stroke: #000000; stroke-width: 0.8"/>
      </g>
     </g>
     <g id="text_8">
      <!-- 0 -->
      <g transform="translate(21.942187 169.853734) scale(0.1 -0.1)">
       <use xlink:href="#DejaVuSans-30"/>
      </g>
     </g>
    </g>
    <g id="ytick_4">
     <g id="line2d_9">
      <g>
       <use xlink:href="#m2a96bde73d" x="35.304688" y="121.46082" style="stroke: #000000; stroke-width: 0.8"/>
      </g>
     </g>
     <g id="text_9">
      <!-- 10 -->
      <g transform="translate(15.579687 125.260039) scale(0.1 -0.1)">
       <use xlink:href="#DejaVuSans-31"/>
       <use xlink:href="#DejaVuSans-30" x="63.623047"/>
      </g>
     </g>
    </g>
    <g id="ytick_5">
     <g id="line2d_10">
      <g>
       <use xlink:href="#m2a96bde73d" x="35.304688" y="76.867124" style="stroke: #000000; stroke-width: 0.8"/>
      </g>
     </g>
     <g id="text_10">
      <!-- 20 -->
      <g transform="translate(15.579687 80.666343) scale(0.1 -0.1)">
       <use xlink:href="#DejaVuSans-32"/>
       <use xlink:href="#DejaVuSans-30" x="63.623047"/>
      </g>
     </g>
    </g>
    <g id="ytick_6">
     <g id="line2d_11">
      <g>
       <use xlink:href="#m2a96bde73d" x="35.304688" y="32.273428" style="stroke: #000000; stroke-width: 0.8"/>
      </g>
     </g>
     <g id="text_11">
      <!-- 30 -->
      <g transform="translate(15.579687 36.072647) scale(0.1 -0.1)">
       <defs>
        <path id="DejaVuSans-33" d="M 2597 2516 
Q 3050 2419 3304 2112 
Q 3559 1806 3559 1356 
Q 3559 666 3084 287 
Q 2609 -91 1734 -91 
Q 1441 -91 1130 -33 
Q 819 25 488 141 
L 488 750 
Q 750 597 1062 519 
Q 1375 441 1716 441 
Q 2309 441 2620 675 
Q 2931 909 2931 1356 
Q 2931 1769 2642 2001 
Q 2353 2234 1838 2234 
L 1294 2234 
L 1294 2753 
L 1863 2753 
Q 2328 2753 2575 2939 
Q 2822 3125 2822 3475 
Q 2822 3834 2567 4026 
Q 2313 4219 1838 4219 
Q 1578 4219 1281 4162 
Q 984 4106 628 3988 
L 628 4550 
Q 988 4650 1302 4700 
Q 1616 4750 1894 4750 
Q 2613 4750 3031 4423 
Q 3450 4097 3450 3541 
Q 3450 3153 3228 2886 
Q 3006 2619 2597 2516 
z
" transform="scale(0.015625)"/>
       </defs>
       <use xlink:href="#DejaVuSans-33"/>
       <use xlink:href="#DejaVuSans-30" x="63.623047"/>
      </g>
     </g>
    </g>
   </g>
   <g id="patch_3">
    <path d="M 35.304688 273.312 
L 35.304688 7.2 
" style="fill: none; stroke: #000000; stroke-width: 0.8; stroke-linejoin: miter; stroke-linecap: square"/>
   </g>
   <g id="patch_4">
    <path d="M 392.424688 273.312 
L 392.424688 7.2 
" style="fill: none; stroke: #000000; stroke-width: 0.8; stroke-linejoin: miter; stroke-linecap: square"/>
   </g>
   <g id="patch_5">
    <path d="M 35.304688 273.312 
L 392.424688 273.312 
" style="fill: none; stroke: #000000; stroke-width: 0.8; stroke-linejoin: miter; stroke-linecap: square"/>
   </g>
   <g id="patch_6">
    <path d="M 35.304688 7.2 
L 392.424688 7.2 
" style="fill: none; stroke: #000000; stroke-width: 0.8; stroke-linejoin: miter; stroke-linecap: square"/>
   </g>
  </g>
 </g>
 <defs>
  <clipPath id="p7808668479">
   <rect x="35.304688" y="7.2" width="357.12" height="266.112"/>
  </clipPath>
 </defs>
</svg>
