<?xml version="1.0" encoding="utf-8" standalone="no"?>
<!DOCTYPE svg PUBLIC "-//W3C//DTD SVG 1.1//EN"
  "http://www.w3.org/Graphics/SVG/1.1/DTD/svg11.dtd">
<svg xmlns:xlink="http://www.w3.org/1999/xlink" width="399.624687pt" height="297.190125pt" viewBox="0 0 399.624687 297.190125" xmlns="http://www.w3.org/2000/svg" version="1.1">
 <metadata>
  <rdf:RDF xmlns:dc="http://purl.org/dc/elements/1.1/" xmlns:cc="http://creativecommons.org/ns#" xmlns:rdf="http://www.w3.org/1999/02/22-rdf-syntax-ns#">
   <cc:Work>
    <dc:type rdf:resource="http://purl.org/dc/dcmitype/StillImage"/>
    <dc:date>2023-11-11T06:49:04.012658</dc:date>
    <dc:format>image/svg+xml</dc:format>
    <dc:creator>
     <cc:Agent>
      <dc:title>Matplotlib v3.8.0, https://matplotlib.org/</dc:title>
     </cc:Agent>
    </dc:creator>
   </cc:Work>
  </rdf:RDF>
 </metadata>
 <defs>
  <style type="text/css">*{stroke-linejoin: round; stroke-linecap: butt}</style>
 </defs>
 <g id="figure_1">
  <g id="patch_1">
   <path d="M 0 297.190125 
L 399.624687 297.190125 
L 399.624687 0 
L 0 0 
z
" style="fill: #ffffff"/>
  </g>
  <g id="axes_1">
   <g id="patch_2">
    <path d="M 35.304688 273.312 
L 392.424688 273.312 
L 392.424688 7.2 
L 35.304688 7.2 
z
" style="fill: #ffffff"/>
   </g>
   <g id="PathCollection_1">
    <defs>
     <path id="m054a5994a8" d="M 0 1.5 
C 0.397805 1.5 0.77937 1.341951 1.06066 1.06066 
C 1.341951 0.77937 1.5 0.397805 1.5 0 
C 1.5 -0.397805 1.341951 -0.77937 1.06066 -1.06066 
C 0.77937 -1.341951 0.397805 -1.5 0 -1.5 
C -0.397805 -1.5 -0.77937 -1.341951 -1.06066 -1.06066 
C -1.341951 -0.77937 -1.5 -0.397805 -1.5 0 
C -1.5 0.397805 -1.341951 0.77937 -1.06066 1.06066 
C -0.77937 1.341951 -0.397805 1.5 0 1.5 
z
" style="stroke: #ff8c00"/>
    </defs>
    <g clip-path="url(#p835219c231)">
     <use xlink:href="#m054a5994a8" x="308.680443" y="213.427275" style="fill: #ff8c00; stroke: #ff8c00"/>
     <use xlink:href="#m054a5994a8" x="302.515541" y="178.812239" style="fill: #ff8c00; stroke: #ff8c00"/>
     <use xlink:href="#m054a5994a8" x="270.900202" y="196.437721" style="fill: #ff8c00; stroke: #ff8c00"/>
     <use xlink:href="#m054a5994a8" x="211.20767" y="140.477117" style="fill: #ff8c00; stroke: #ff8c00"/>
     <use xlink:href="#m054a5994a8" x="272.798114" y="135.983318" style="fill: #ff8c00; stroke: #ff8c00"/>
     <use xlink:href="#m054a5994a8" x="308.959971" y="184.58546" style="fill: #ff8c00; stroke: #ff8c00"/>
     <use xlink:href="#m054a5994a8" x="302.833588" y="146.590449" style="fill: #ff8c00; stroke: #ff8c00"/>
     <use xlink:href="#m054a5994a8" x="376.19196" y="190.956328" style="fill: #ff8c00; stroke: #ff8c00"/>
     <use xlink:href="#m054a5994a8" x="198.37433" y="190.062417" style="fill: #ff8c00; stroke: #ff8c00"/>
     <use xlink:href="#m054a5994a8" x="285.90575" y="138.624763" style="fill: #ff8c00; stroke: #ff8c00"/>
    </g>
   </g>
   <g id="PathCollection_2">
    <defs>
     <path id="mf715d8141a" d="M 0 1.5 
C 0.397805 1.5 0.77937 1.341951 1.06066 1.06066 
C 1.341951 0.77937 1.5 0.397805 1.5 0 
C 1.5 -0.397805 1.341951 -0.77937 1.06066 -1.06066 
C 0.77937 -1.341951 0.397805 -1.5 0 -1.5 
C -0.397805 -1.5 -0.77937 -1.341951 -1.06066 -1.06066 
C -1.341951 -0.77937 -1.5 -0.397805 -1.5 0 
C -1.5 0.397805 -1.341951 0.77937 -1.06066 1.06066 
C -0.77937 1.341951 -0.397805 1.5 0 1.5 
z
" style="stroke: #006400"/>
    </defs>
    <g clip-path="url(#p835219c231)">
     <use xlink:href="#mf715d8141a" x="103.531503" y="124.391444" style="fill: #006400; stroke: #006400"/>
     <use xlink:href="#mf715d8141a" x="240.139343" y="192.473352" style="fill: #006400; stroke: #006400"/>
     <use xlink:href="#mf715d8141a" x="123.354852" y="230.999347" style="fill: #006400; stroke: #006400"/>
     <use xlink:href="#mf715d8141a" x="200.378266" y="163.772889" style="fill: #006400; stroke: #006400"/>
     <use xlink:href="#mf715d8141a" x="164.319599" y="167.372373" style="fill: #006400; stroke: #006400"/>
     <use xlink:href="#mf715d8141a" x="134.690573" y="217.727505" style="fill: #006400; stroke: #006400"/>
     <use xlink:href="#mf715d8141a" x="169.844602" y="256.805862" style="fill: #006400; stroke: #006400"/>
     <use xlink:href="#mf715d8141a" x="109.692197" y="173.825558" style="fill: #006400; stroke: #006400"/>
     <use xlink:href="#mf715d8141a" x="146.945952" y="172.812885" style="fill: #006400; stroke: #006400"/>
     <use xlink:href="#mf715d8141a" x="187.617664" y="168.697346" style="fill: #006400; stroke: #006400"/>
     <use xlink:href="#mf715d8141a" x="197.325171" y="210.139359" style="fill: #006400; stroke: #006400"/>
     <use xlink:href="#mf715d8141a" x="157.979553" y="139.384205" style="fill: #006400; stroke: #006400"/>
     <use xlink:href="#mf715d8141a" x="244.044342" y="209.45414" style="fill: #006400; stroke: #006400"/>
     <use xlink:href="#mf715d8141a" x="163.429435" y="220.775308" style="fill: #006400; stroke: #006400"/>
     <use xlink:href="#mf715d8141a" x="173.194009" y="247.451649" style="fill: #006400; stroke: #006400"/>
     <use xlink:href="#mf715d8141a" x="207.171289" y="214.662023" style="fill: #006400; stroke: #006400"/>
     <use xlink:href="#mf715d8141a" x="223.959737" y="237.359835" style="fill: #006400; stroke: #006400"/>
    </g>
   </g>
   <g id="PathCollection_3">
    <defs>
     <path id="m627c5043fb" d="M 0 1.5 
C 0.397805 1.5 0.77937 1.341951 1.06066 1.06066 
C 1.341951 0.77937 1.5 0.397805 1.5 0 
C 1.5 -0.397805 1.341951 -0.77937 1.06066 -1.06066 
C 0.77937 -1.341951 0.397805 -1.5 0 -1.5 
C -0.397805 -1.5 -0.77937 -1.341951 -1.06066 -1.06066 
C -1.341951 -0.77937 -1.5 -0.397805 -1.5 0 
C -1.5 0.397805 -1.341951 0.77937 -1.06066 1.06066 
C -0.77937 1.341951 -0.397805 1.5 0 1.5 
z
" style="stroke: #2f4f4f"/>
    </defs>
    <g clip-path="url(#p835219c231)">
     <use xlink:href="#m627c5043fb" x="216.995669" y="182.547149" style="fill: #2f4f4f; stroke: #2f4f4f"/>
     <use xlink:href="#m627c5043fb" x="238.195665" y="188.767995" style="fill: #2f4f4f; stroke: #2f4f4f"/>
     <use xlink:href="#m627c5043fb" x="259.544032" y="151.018254" style="fill: #2f4f4f; stroke: #2f4f4f"/>
     <use xlink:href="#m627c5043fb" x="177.030973" y="170.727583" style="fill: #2f4f4f; stroke: #2f4f4f"/>
     <use xlink:href="#m627c5043fb" x="202.939557" y="199.207883" style="fill: #2f4f4f; stroke: #2f4f4f"/>
     <use xlink:href="#m627c5043fb" x="168.112217" y="190.102994" style="fill: #2f4f4f; stroke: #2f4f4f"/>
     <use xlink:href="#m627c5043fb" x="216.459081" y="173.908641" style="fill: #2f4f4f; stroke: #2f4f4f"/>
     <use xlink:href="#m627c5043fb" x="156.942948" y="187.328562" style="fill: #2f4f4f; stroke: #2f4f4f"/>
     <use xlink:href="#m627c5043fb" x="174.472082" y="132.322307" style="fill: #2f4f4f; stroke: #2f4f4f"/>
     <use xlink:href="#m627c5043fb" x="187.724096" y="148.162094" style="fill: #2f4f4f; stroke: #2f4f4f"/>
     <use xlink:href="#m627c5043fb" x="203.150077" y="179.529107" style="fill: #2f4f4f; stroke: #2f4f4f"/>
     <use xlink:href="#m627c5043fb" x="139.911259" y="169.002441" style="fill: #2f4f4f; stroke: #2f4f4f"/>
     <use xlink:href="#m627c5043fb" x="194.337036" y="191.729217" style="fill: #2f4f4f; stroke: #2f4f4f"/>
     <use xlink:href="#m627c5043fb" x="223.102448" y="124.926789" style="fill: #2f4f4f; stroke: #2f4f4f"/>
     <use xlink:href="#m627c5043fb" x="211.619256" y="179.662856" style="fill: #2f4f4f; stroke: #2f4f4f"/>
     <use xlink:href="#m627c5043fb" x="187.069219" y="164.751771" style="fill: #2f4f4f; stroke: #2f4f4f"/>
    </g>
   </g>
   <g id="PathCollection_4">
    <defs>
     <path id="mdb2bb104d2" d="M 0 1.5 
C 0.397805 1.5 0.77937 1.341951 1.06066 1.06066 
C 1.341951 0.77937 1.5 0.397805 1.5 0 
C 1.5 -0.397805 1.341951 -0.77937 1.06066 -1.06066 
C 0.77937 -1.341951 0.397805 -1.5 0 -1.5 
C -0.397805 -1.5 -0.77937 -1.341951 -1.06066 -1.06066 
C -1.341951 -0.77937 -1.5 -0.397805 -1.5 0 
C -1.5 0.397805 -1.341951 0.77937 -1.06066 1.06066 
C -0.77937 1.341951 -0.397805 1.5 0 1.5 
z
" style="stroke: #00bfff"/>
    </defs>
    <g clip-path="url(#p835219c231)">
     <use xlink:href="#mdb2bb104d2" x="175.239901" y="127.93354" style="fill: #00bfff; stroke: #00bfff"/>
     <use xlink:href="#mdb2bb104d2" x="127.350192" y="152.580379" style="fill: #00bfff; stroke: #00bfff"/>
     <use xlink:href="#mdb2bb104d2" x="161.199393" y="191.423431" style="fill: #00bfff; stroke: #00bfff"/>
     <use xlink:href="#mdb2bb104d2" x="149.830173" y="161.55216" style="fill: #00bfff; stroke: #00bfff"/>
     <use xlink:href="#mdb2bb104d2" x="209.779398" y="177.23976" style="fill: #00bfff; stroke: #00bfff"/>
     <use xlink:href="#mdb2bb104d2" x="127.337571" y="136.288338" style="fill: #00bfff; stroke: #00bfff"/>
     <use xlink:href="#mdb2bb104d2" x="187.864775" y="166.008889" style="fill: #00bfff; stroke: #00bfff"/>
     <use xlink:href="#mdb2bb104d2" x="208.564314" y="220.693692" style="fill: #00bfff; stroke: #00bfff"/>
     <use xlink:href="#mdb2bb104d2" x="196.317736" y="208.860364" style="fill: #00bfff; stroke: #00bfff"/>
     <use xlink:href="#mdb2bb104d2" x="71.293463" y="122.646807" style="fill: #00bfff; stroke: #00bfff"/>
     <use xlink:href="#mdb2bb104d2" x="161.647854" y="192.133581" style="fill: #00bfff; stroke: #00bfff"/>
     <use xlink:href="#mdb2bb104d2" x="165.331095" y="158.088605" style="fill: #00bfff; stroke: #00bfff"/>
     <use xlink:href="#mdb2bb104d2" x="205.944398" y="157.262821" style="fill: #00bfff; stroke: #00bfff"/>
     <use xlink:href="#mdb2bb104d2" x="222.300437" y="182.226873" style="fill: #00bfff; stroke: #00bfff"/>
     <use xlink:href="#mdb2bb104d2" x="162.09612" y="164.305055" style="fill: #00bfff; stroke: #00bfff"/>
     <use xlink:href="#mdb2bb104d2" x="109.3418" y="194.778644" style="fill: #00bfff; stroke: #00bfff"/>
     <use xlink:href="#mdb2bb104d2" x="254.204702" y="189.542948" style="fill: #00bfff; stroke: #00bfff"/>
     <use xlink:href="#mdb2bb104d2" x="104.12324" y="116.292191" style="fill: #00bfff; stroke: #00bfff"/>
     <use xlink:href="#mdb2bb104d2" x="161.726919" y="180.563438" style="fill: #00bfff; stroke: #00bfff"/>
    </g>
   </g>
   <g id="PathCollection_5">
    <defs>
     <path id="mbc4bab9c18" d="M 0 1.5 
C 0.397805 1.5 0.77937 1.341951 1.06066 1.06066 
C 1.341951 0.77937 1.5 0.397805 1.5 0 
C 1.5 -0.397805 1.341951 -0.77937 1.06066 -1.06066 
C 0.77937 -1.341951 0.397805 -1.5 0 -1.5 
C -0.397805 -1.5 -0.77937 -1.341951 -1.06066 -1.06066 
C -1.341951 -0.77937 -1.5 -0.397805 -1.5 0 
C -1.5 0.397805 -1.341951 0.77937 -1.06066 1.06066 
C -0.77937 1.341951 -0.397805 1.5 0 1.5 
z
" style="stroke: #ffff00"/>
    </defs>
    <g clip-path="url(#p835219c231)">
     <use xlink:href="#mbc4bab9c18" x="195.154494" y="129.77075" style="fill: #ffff00; stroke: #ffff00"/>
     <use xlink:href="#mbc4bab9c18" x="247.674307" y="156.604754" style="fill: #ffff00; stroke: #ffff00"/>
     <use xlink:href="#mbc4bab9c18" x="185.400086" y="204.843133" style="fill: #ffff00; stroke: #ffff00"/>
     <use xlink:href="#mbc4bab9c18" x="172.047729" y="201.579842" style="fill: #ffff00; stroke: #ffff00"/>
     <use xlink:href="#mbc4bab9c18" x="152.980471" y="93.773319" style="fill: #ffff00; stroke: #ffff00"/>
     <use xlink:href="#mbc4bab9c18" x="198.74366" y="131.95848" style="fill: #ffff00; stroke: #ffff00"/>
     <use xlink:href="#mbc4bab9c18" x="204.835898" y="185.920022" style="fill: #ffff00; stroke: #ffff00"/>
     <use xlink:href="#mbc4bab9c18" x="211.480924" y="111.773413" style="fill: #ffff00; stroke: #ffff00"/>
     <use xlink:href="#mbc4bab9c18" x="112.648721" y="106.661368" style="fill: #ffff00; stroke: #ffff00"/>
     <use xlink:href="#mbc4bab9c18" x="171.109072" y="137.175297" style="fill: #ffff00; stroke: #ffff00"/>
     <use xlink:href="#mbc4bab9c18" x="238.704257" y="204.297186" style="fill: #ffff00; stroke: #ffff00"/>
     <use xlink:href="#mbc4bab9c18" x="210.549917" y="190.039407" style="fill: #ffff00; stroke: #ffff00"/>
     <use xlink:href="#mbc4bab9c18" x="145.948235" y="85.828333" style="fill: #ffff00; stroke: #ffff00"/>
     <use xlink:href="#mbc4bab9c18" x="256.346304" y="167.342701" style="fill: #ffff00; stroke: #ffff00"/>
     <use xlink:href="#mbc4bab9c18" x="157.293315" y="152.873541" style="fill: #ffff00; stroke: #ffff00"/>
     <use xlink:href="#mbc4bab9c18" x="219.438946" y="175.243329" style="fill: #ffff00; stroke: #ffff00"/>
     <use xlink:href="#mbc4bab9c18" x="208.440072" y="166.106154" style="fill: #ffff00; stroke: #ffff00"/>
     <use xlink:href="#mbc4bab9c18" x="145.645376" y="131.788954" style="fill: #ffff00; stroke: #ffff00"/>
    </g>
   </g>
   <g id="PathCollection_6">
    <defs>
     <path id="m3bddf8d97f" d="M 0 1.5 
C 0.397805 1.5 0.77937 1.341951 1.06066 1.06066 
C 1.341951 0.77937 1.5 0.397805 1.5 0 
C 1.5 -0.397805 1.341951 -0.77937 1.06066 -1.06066 
C 0.77937 -1.341951 0.397805 -1.5 0 -1.5 
C -0.397805 -1.5 -0.77937 -1.341951 -1.06066 -1.06066 
C -1.341951 -0.77937 -1.5 -0.397805 -1.5 0 
C -1.5 0.397805 -1.341951 0.77937 -1.06066 1.06066 
C -0.77937 1.341951 -0.397805 1.5 0 1.5 
z
" style="stroke: #00ffff"/>
    </defs>
    <g clip-path="url(#p835219c231)">
     <use xlink:href="#m3bddf8d97f" x="220.290068" y="252.453109" style="fill: #00ffff; stroke: #00ffff"/>
     <use xlink:href="#m3bddf8d97f" x="189.627385" y="203.274237" style="fill: #00ffff; stroke: #00ffff"/>
     <use xlink:href="#m3bddf8d97f" x="250.738688" y="200.392751" style="fill: #00ffff; stroke: #00ffff"/>
     <use xlink:href="#m3bddf8d97f" x="204.983478" y="172.458846" style="fill: #00ffff; stroke: #00ffff"/>
     <use xlink:href="#m3bddf8d97f" x="181.872929" y="191.002876" style="fill: #00ffff; stroke: #00ffff"/>
     <use xlink:href="#m3bddf8d97f" x="171.652246" y="168.736604" style="fill: #00ffff; stroke: #00ffff"/>
     <use xlink:href="#m3bddf8d97f" x="268.279871" y="195.155407" style="fill: #00ffff; stroke: #00ffff"/>
     <use xlink:href="#m3bddf8d97f" x="150.804321" y="193.480577" style="fill: #00ffff; stroke: #00ffff"/>
     <use xlink:href="#m3bddf8d97f" x="225.184502" y="162.415223" style="fill: #00ffff; stroke: #00ffff"/>
    </g>
   </g>
   <g id="PathCollection_7">
    <defs>
     <path id="m383a5ce136" d="M 0 1.5 
C 0.397805 1.5 0.77937 1.341951 1.06066 1.06066 
C 1.341951 0.77937 1.5 0.397805 1.5 0 
C 1.5 -0.397805 1.341951 -0.77937 1.06066 -1.06066 
C 0.77937 -1.341951 0.397805 -1.5 0 -1.5 
C -0.397805 -1.5 -0.77937 -1.341951 -1.06066 -1.06066 
C -1.341951 -0.77937 -1.5 -0.397805 -1.5 0 
C -1.5 0.397805 -1.341951 0.77937 -1.06066 1.06066 
C -0.77937 1.341951 -0.397805 1.5 0 1.5 
z
" style="stroke: #0000ff"/>
    </defs>
    <g clip-path="url(#p835219c231)">
     <use xlink:href="#m383a5ce136" x="124.469905" y="84.036847" style="fill: #0000ff; stroke: #0000ff"/>
     <use xlink:href="#m383a5ce136" x="167.621492" y="108.221741" style="fill: #0000ff; stroke: #0000ff"/>
     <use xlink:href="#m383a5ce136" x="221.35299" y="118.382022" style="fill: #0000ff; stroke: #0000ff"/>
     <use xlink:href="#m383a5ce136" x="185.557331" y="115.052558" style="fill: #0000ff; stroke: #0000ff"/>
     <use xlink:href="#m383a5ce136" x="150.259932" y="19.296" style="fill: #0000ff; stroke: #0000ff"/>
     <use xlink:href="#m383a5ce136" x="213.94993" y="113.723533" style="fill: #0000ff; stroke: #0000ff"/>
     <use xlink:href="#m383a5ce136" x="120.445389" y="74.479979" style="fill: #0000ff; stroke: #0000ff"/>
     <use xlink:href="#m383a5ce136" x="135.818172" y="83.010422" style="fill: #0000ff; stroke: #0000ff"/>
     <use xlink:href="#m383a5ce136" x="178.578594" y="84.700005" style="fill: #0000ff; stroke: #0000ff"/>
     <use xlink:href="#m383a5ce136" x="209.786733" y="148.546064" style="fill: #0000ff; stroke: #0000ff"/>
     <use xlink:href="#m383a5ce136" x="171.695511" y="140.176495" style="fill: #0000ff; stroke: #0000ff"/>
     <use xlink:href="#m383a5ce136" x="179.580374" y="102.467109" style="fill: #0000ff; stroke: #0000ff"/>
     <use xlink:href="#m383a5ce136" x="165.269013" y="114.555654" style="fill: #0000ff; stroke: #0000ff"/>
    </g>
   </g>
   <g id="PathCollection_8">
    <defs>
     <path id="m7b2a0391ce" d="M 0 1.5 
C 0.397805 1.5 0.77937 1.341951 1.06066 1.06066 
C 1.341951 0.77937 1.5 0.397805 1.5 0 
C 1.5 -0.397805 1.341951 -0.77937 1.06066 -1.06066 
C 0.77937 -1.341951 0.397805 -1.5 0 -1.5 
C -0.397805 -1.5 -0.77937 -1.341951 -1.06066 -1.06066 
C -1.341951 -0.77937 -1.5 -0.397805 -1.5 0 
C -1.5 0.397805 -1.341951 0.77937 -1.06066 1.06066 
C -0.77937 1.341951 -0.397805 1.5 0 1.5 
z
" style="stroke: #dc143c"/>
    </defs>
    <g clip-path="url(#p835219c231)">
     <use xlink:href="#m7b2a0391ce" x="159.91114" y="97.309904" style="fill: #dc143c; stroke: #dc143c"/>
     <use xlink:href="#m7b2a0391ce" x="161.738284" y="219.708156" style="fill: #dc143c; stroke: #dc143c"/>
     <use xlink:href="#m7b2a0391ce" x="179.340468" y="172.206168" style="fill: #dc143c; stroke: #dc143c"/>
     <use xlink:href="#m7b2a0391ce" x="135.208801" y="200.620906" style="fill: #dc143c; stroke: #dc143c"/>
     <use xlink:href="#m7b2a0391ce" x="185.839494" y="146.412882" style="fill: #dc143c; stroke: #dc143c"/>
     <use xlink:href="#m7b2a0391ce" x="116.8714" y="187.715595" style="fill: #dc143c; stroke: #dc143c"/>
     <use xlink:href="#m7b2a0391ce" x="171.387849" y="209.897758" style="fill: #dc143c; stroke: #dc143c"/>
     <use xlink:href="#m7b2a0391ce" x="122.495852" y="195.505891" style="fill: #dc143c; stroke: #dc143c"/>
     <use xlink:href="#m7b2a0391ce" x="175.20855" y="176.606265" style="fill: #dc143c; stroke: #dc143c"/>
    </g>
   </g>
   <g id="PathCollection_9">
    <defs>
     <path id="m2504fcfded" d="M 0 1.5 
C 0.397805 1.5 0.77937 1.341951 1.06066 1.06066 
C 1.341951 0.77937 1.5 0.397805 1.5 0 
C 1.5 -0.397805 1.341951 -0.77937 1.06066 -1.06066 
C 0.77937 -1.341951 0.397805 -1.5 0 -1.5 
C -0.397805 -1.5 -0.77937 -1.341951 -1.06066 -1.06066 
C -1.341951 -0.77937 -1.5 -0.397805 -1.5 0 
C -1.5 0.397805 -1.341951 0.77937 -1.06066 1.06066 
C -0.77937 1.341951 -0.397805 1.5 0 1.5 
z
" style="stroke: #ffe4c4"/>
    </defs>
    <g clip-path="url(#p835219c231)">
     <use xlink:href="#m2504fcfded" x="263.912495" y="147.601901" style="fill: #ffe4c4; stroke: #ffe4c4"/>
     <use xlink:href="#m2504fcfded" x="274.127425" y="141.146648" style="fill: #ffe4c4; stroke: #ffe4c4"/>
     <use xlink:href="#m2504fcfded" x="243.047946" y="115.505752" style="fill: #ffe4c4; stroke: #ffe4c4"/>
     <use xlink:href="#m2504fcfded" x="229.35032" y="78.643141" style="fill: #ffe4c4; stroke: #ffe4c4"/>
     <use xlink:href="#m2504fcfded" x="238.67695" y="148.954873" style="fill: #ffe4c4; stroke: #ffe4c4"/>
     <use xlink:href="#m2504fcfded" x="272.643114" y="174.705548" style="fill: #ffe4c4; stroke: #ffe4c4"/>
     <use xlink:href="#m2504fcfded" x="226.790359" y="100.119406" style="fill: #ffe4c4; stroke: #ffe4c4"/>
     <use xlink:href="#m2504fcfded" x="225.508143" y="88.237747" style="fill: #ffe4c4; stroke: #ffe4c4"/>
     <use xlink:href="#m2504fcfded" x="231.332105" y="148.890512" style="fill: #ffe4c4; stroke: #ffe4c4"/>
     <use xlink:href="#m2504fcfded" x="284.774988" y="104.994766" style="fill: #ffe4c4; stroke: #ffe4c4"/>
     <use xlink:href="#m2504fcfded" x="290.505369" y="83.53259" style="fill: #ffe4c4; stroke: #ffe4c4"/>
     <use xlink:href="#m2504fcfded" x="219.288235" y="143.742911" style="fill: #ffe4c4; stroke: #ffe4c4"/>
     <use xlink:href="#m2504fcfded" x="266.154137" y="148.827327" style="fill: #ffe4c4; stroke: #ffe4c4"/>
     <use xlink:href="#m2504fcfded" x="204.802849" y="169.923321" style="fill: #ffe4c4; stroke: #ffe4c4"/>
     <use xlink:href="#m2504fcfded" x="179.137781" y="194.69683" style="fill: #ffe4c4; stroke: #ffe4c4"/>
     <use xlink:href="#m2504fcfded" x="265.291338" y="172.544207" style="fill: #ffe4c4; stroke: #ffe4c4"/>
     <use xlink:href="#m2504fcfded" x="236.386076" y="120.082074" style="fill: #ffe4c4; stroke: #ffe4c4"/>
    </g>
   </g>
   <g id="PathCollection_10">
    <defs>
     <path id="m11c4903785" d="M -2.99994 2.99994 
L 3.00006 2.99994 
L 3.00006 -3.00006 
L -2.99994 -3.00006 
z
" style="stroke: #000000"/>
    </defs>
    <g clip-path="url(#p835219c231)">
     <use xlink:href="#m11c4903785" x="119.571227" y="199.731804" style="stroke: #000000"/>
     <use xlink:href="#m11c4903785" x="122.403726" y="148.619977" style="stroke: #000000"/>
     <use xlink:href="#m11c4903785" x="134.976654" y="223.826667" style="stroke: #000000"/>
     <use xlink:href="#m11c4903785" x="152.420534" y="204.390798" style="stroke: #000000"/>
     <use xlink:href="#m11c4903785" x="152.517757" y="125.765948" style="stroke: #000000"/>
     <use xlink:href="#m11c4903785" x="173.393346" y="175.197994" style="stroke: #000000"/>
     <use xlink:href="#m11c4903785" x="187.561525" y="209.902588" style="stroke: #000000"/>
     <use xlink:href="#m11c4903785" x="102.688219" y="176.070895" style="stroke: #000000"/>
     <use xlink:href="#m11c4903785" x="151.749962" y="218.697347" style="stroke: #000000"/>
     <use xlink:href="#m11c4903785" x="173.393346" y="175.197994" style="stroke: #000000"/>
     <use xlink:href="#m11c4903785" x="140.161571" y="205.220041" style="stroke: #000000"/>
     <use xlink:href="#m11c4903785" x="146.826184" y="190.319952" style="stroke: #000000"/>
     <use xlink:href="#m11c4903785" x="179.870064" y="192.748495" style="stroke: #000000"/>
     <use xlink:href="#m11c4903785" x="204.387111" y="172.105876" style="stroke: #000000"/>
     <use xlink:href="#m11c4903785" x="85.811295" y="73.858541" style="stroke: #000000"/>
     <use xlink:href="#m11c4903785" x="152.89407" y="202.366765" style="stroke: #000000"/>
     <use xlink:href="#m11c4903785" x="120.440418" y="193.428077" style="stroke: #000000"/>
     <use xlink:href="#m11c4903785" x="158.647815" y="126.632222" style="stroke: #000000"/>
     <use xlink:href="#m11c4903785" x="231.575431" y="197.023813" style="stroke: #000000"/>
     <use xlink:href="#m11c4903785" x="115.823233" y="196.463733" style="stroke: #000000"/>
     <use xlink:href="#m11c4903785" x="101.784317" y="222.539107" style="stroke: #000000"/>
     <use xlink:href="#m11c4903785" x="173.784859" y="140.204393" style="stroke: #000000"/>
     <use xlink:href="#m11c4903785" x="140.382225" y="124.768829" style="stroke: #000000"/>
     <use xlink:href="#m11c4903785" x="116.293456" y="199.856475" style="stroke: #000000"/>
     <use xlink:href="#m11c4903785" x="73.878241" y="172.404805" style="stroke: #000000"/>
     <use xlink:href="#m11c4903785" x="105.391131" y="200.953983" style="stroke: #000000"/>
     <use xlink:href="#m11c4903785" x="157.394681" y="180.922612" style="stroke: #000000"/>
     <use xlink:href="#m11c4903785" x="156.410986" y="155.873067" style="stroke: #000000"/>
     <use xlink:href="#m11c4903785" x="127.633461" y="203.662778" style="stroke: #000000"/>
     <use xlink:href="#m11c4903785" x="147.073789" y="159.242876" style="stroke: #000000"/>
     <use xlink:href="#m11c4903785" x="134.071889" y="143.27103" style="stroke: #000000"/>
     <use xlink:href="#m11c4903785" x="98.579408" y="210.711557" style="stroke: #000000"/>
     <use xlink:href="#m11c4903785" x="173.672565" y="170.188854" style="stroke: #000000"/>
     <use xlink:href="#m11c4903785" x="198.879276" y="162.664992" style="stroke: #000000"/>
     <use xlink:href="#m11c4903785" x="93.413523" y="208.860523" style="stroke: #000000"/>
     <use xlink:href="#m11c4903785" x="74.893933" y="154.944783" style="stroke: #000000"/>
     <use xlink:href="#m11c4903785" x="112.234224" y="141.660955" style="stroke: #000000"/>
     <use xlink:href="#m11c4903785" x="108.586245" y="176.294047" style="stroke: #000000"/>
     <use xlink:href="#m11c4903785" x="106.787838" y="155.088055" style="stroke: #000000"/>
     <use xlink:href="#m11c4903785" x="69.25611" y="165.10724" style="stroke: #000000"/>
     <use xlink:href="#m11c4903785" x="95.651788" y="103.955836" style="stroke: #000000"/>
     <use xlink:href="#m11c4903785" x="187.704822" y="148.348821" style="stroke: #000000"/>
     <use xlink:href="#m11c4903785" x="209.272635" y="191.332733" style="stroke: #000000"/>
     <use xlink:href="#m11c4903785" x="214.010259" y="201.582644" style="stroke: #000000"/>
     <use xlink:href="#m11c4903785" x="145.559165" y="171.566616" style="stroke: #000000"/>
     <use xlink:href="#m11c4903785" x="182.491223" y="166.423164" style="stroke: #000000"/>
     <use xlink:href="#m11c4903785" x="115.522415" y="212.145926" style="stroke: #000000"/>
     <use xlink:href="#m11c4903785" x="228.412341" y="131.71233" style="stroke: #000000"/>
     <use xlink:href="#m11c4903785" x="159.967027" y="216.121002" style="stroke: #000000"/>
     <use xlink:href="#m11c4903785" x="125.680811" y="178.044578" style="stroke: #000000"/>
     <use xlink:href="#m11c4903785" x="137.435913" y="130.266127" style="stroke: #000000"/>
     <use xlink:href="#m11c4903785" x="117.129011" y="208.374454" style="stroke: #000000"/>
     <use xlink:href="#m11c4903785" x="126.599168" y="147.391372" style="stroke: #000000"/>
     <use xlink:href="#m11c4903785" x="105.59357" y="153.620225" style="stroke: #000000"/>
     <use xlink:href="#m11c4903785" x="144.335308" y="152.169025" style="stroke: #000000"/>
     <use xlink:href="#m11c4903785" x="123.644699" y="163.415824" style="stroke: #000000"/>
     <use xlink:href="#m11c4903785" x="187.634289" y="234.86136" style="stroke: #000000"/>
     <use xlink:href="#m11c4903785" x="170.071081" y="132.503619" style="stroke: #000000"/>
     <use xlink:href="#m11c4903785" x="176.979113" y="203.344951" style="stroke: #000000"/>
     <use xlink:href="#m11c4903785" x="139.218456" y="181.486873" style="stroke: #000000"/>
     <use xlink:href="#m11c4903785" x="104.311112" y="199.088908" style="stroke: #000000"/>
     <use xlink:href="#m11c4903785" x="144.328597" y="216.925725" style="stroke: #000000"/>
     <use xlink:href="#m11c4903785" x="139.275779" y="261.216" style="stroke: #000000"/>
     <use xlink:href="#m11c4903785" x="98.80447" y="182.410917" style="stroke: #000000"/>
    </g>
   </g>
   <g id="PathCollection_11">
    <defs>
     <path id="mbc35d6e9b6" d="M -3 -0 
L 3 3 
L 3 -3 
z
" style="stroke: #ff8c00"/>
    </defs>
    <g clip-path="url(#p835219c231)">
     <use xlink:href="#mbc35d6e9b6" x="89.262632" y="220.332606" style="fill: #ff8c00; stroke: #ff8c00"/>
     <use xlink:href="#mbc35d6e9b6" x="98.453426" y="210.874179" style="fill: #ff8c00; stroke: #ff8c00"/>
     <use xlink:href="#mbc35d6e9b6" x="140.924219" y="201.801214" style="fill: #ff8c00; stroke: #ff8c00"/>
     <use xlink:href="#mbc35d6e9b6" x="163.603073" y="196.628444" style="fill: #ff8c00; stroke: #ff8c00"/>
     <use xlink:href="#mbc35d6e9b6" x="158.451202" y="169.289851" style="fill: #ff8c00; stroke: #ff8c00"/>
     <use xlink:href="#mbc35d6e9b6" x="109.001836" y="181.519913" style="fill: #ff8c00; stroke: #ff8c00"/>
     <use xlink:href="#mbc35d6e9b6" x="122.631908" y="205.434572" style="fill: #ff8c00; stroke: #ff8c00"/>
     <use xlink:href="#mbc35d6e9b6" x="152.84998" y="231.438968" style="fill: #ff8c00; stroke: #ff8c00"/>
     <use xlink:href="#mbc35d6e9b6" x="123.063741" y="153.637459" style="fill: #ff8c00; stroke: #ff8c00"/>
     <use xlink:href="#mbc35d6e9b6" x="204.280406" y="137.586841" style="fill: #ff8c00; stroke: #ff8c00"/>
     <use xlink:href="#mbc35d6e9b6" x="207.005936" y="178.788413" style="fill: #ff8c00; stroke: #ff8c00"/>
     <use xlink:href="#mbc35d6e9b6" x="129.566724" y="202.929431" style="fill: #ff8c00; stroke: #ff8c00"/>
     <use xlink:href="#mbc35d6e9b6" x="133.684471" y="168.001648" style="fill: #ff8c00; stroke: #ff8c00"/>
     <use xlink:href="#mbc35d6e9b6" x="189.232147" y="202.471355" style="fill: #ff8c00; stroke: #ff8c00"/>
     <use xlink:href="#mbc35d6e9b6" x="204.090541" y="217.910818" style="fill: #ff8c00; stroke: #ff8c00"/>
     <use xlink:href="#mbc35d6e9b6" x="93.037096" y="113.283219" style="fill: #ff8c00; stroke: #ff8c00"/>
     <use xlink:href="#mbc35d6e9b6" x="208.160052" y="168.935869" style="fill: #ff8c00; stroke: #ff8c00"/>
     <use xlink:href="#mbc35d6e9b6" x="119.888151" y="224.158984" style="fill: #ff8c00; stroke: #ff8c00"/>
     <use xlink:href="#mbc35d6e9b6" x="126.50634" y="104.114718" style="fill: #ff8c00; stroke: #ff8c00"/>
     <use xlink:href="#mbc35d6e9b6" x="148.746454" y="205.150109" style="fill: #ff8c00; stroke: #ff8c00"/>
     <use xlink:href="#mbc35d6e9b6" x="144.609504" y="203.563234" style="fill: #ff8c00; stroke: #ff8c00"/>
     <use xlink:href="#mbc35d6e9b6" x="104.101088" y="192.665495" style="fill: #ff8c00; stroke: #ff8c00"/>
     <use xlink:href="#mbc35d6e9b6" x="187.718085" y="171.136185" style="fill: #ff8c00; stroke: #ff8c00"/>
     <use xlink:href="#mbc35d6e9b6" x="162.602732" y="191.2399" style="fill: #ff8c00; stroke: #ff8c00"/>
     <use xlink:href="#mbc35d6e9b6" x="163.871667" y="161.570134" style="fill: #ff8c00; stroke: #ff8c00"/>
     <use xlink:href="#mbc35d6e9b6" x="204.090541" y="217.910818" style="fill: #ff8c00; stroke: #ff8c00"/>
     <use xlink:href="#mbc35d6e9b6" x="171.596984" y="138.852193" style="fill: #ff8c00; stroke: #ff8c00"/>
     <use xlink:href="#mbc35d6e9b6" x="220.610945" y="207.542559" style="fill: #ff8c00; stroke: #ff8c00"/>
     <use xlink:href="#mbc35d6e9b6" x="92.838578" y="100.46183" style="fill: #ff8c00; stroke: #ff8c00"/>
     <use xlink:href="#mbc35d6e9b6" x="141.135016" y="175.31531" style="fill: #ff8c00; stroke: #ff8c00"/>
     <use xlink:href="#mbc35d6e9b6" x="192.242954" y="184.073103" style="fill: #ff8c00; stroke: #ff8c00"/>
     <use xlink:href="#mbc35d6e9b6" x="135.514289" y="220.658521" style="fill: #ff8c00; stroke: #ff8c00"/>
     <use xlink:href="#mbc35d6e9b6" x="51.537415" y="147.154104" style="fill: #ff8c00; stroke: #ff8c00"/>
     <use xlink:href="#mbc35d6e9b6" x="150.172832" y="184.022908" style="fill: #ff8c00; stroke: #ff8c00"/>
     <use xlink:href="#mbc35d6e9b6" x="214.591886" y="238.706943" style="fill: #ff8c00; stroke: #ff8c00"/>
     <use xlink:href="#mbc35d6e9b6" x="230.900705" y="202.668388" style="fill: #ff8c00; stroke: #ff8c00"/>
     <use xlink:href="#mbc35d6e9b6" x="138.952057" y="170.794735" style="fill: #ff8c00; stroke: #ff8c00"/>
     <use xlink:href="#mbc35d6e9b6" x="215.398549" y="213.580025" style="fill: #ff8c00; stroke: #ff8c00"/>
     <use xlink:href="#mbc35d6e9b6" x="94.57544" y="185.332303" style="fill: #ff8c00; stroke: #ff8c00"/>
     <use xlink:href="#mbc35d6e9b6" x="132.225705" y="196.889907" style="fill: #ff8c00; stroke: #ff8c00"/>
     <use xlink:href="#mbc35d6e9b6" x="147.06013" y="223.247975" style="fill: #ff8c00; stroke: #ff8c00"/>
     <use xlink:href="#mbc35d6e9b6" x="171.596984" y="138.852193" style="fill: #ff8c00; stroke: #ff8c00"/>
     <use xlink:href="#mbc35d6e9b6" x="150.690392" y="194.009879" style="fill: #ff8c00; stroke: #ff8c00"/>
     <use xlink:href="#mbc35d6e9b6" x="84.539791" y="162.294097" style="fill: #ff8c00; stroke: #ff8c00"/>
     <use xlink:href="#mbc35d6e9b6" x="150.725957" y="139.14329" style="fill: #ff8c00; stroke: #ff8c00"/>
     <use xlink:href="#mbc35d6e9b6" x="165.404329" y="172.104375" style="fill: #ff8c00; stroke: #ff8c00"/>
     <use xlink:href="#mbc35d6e9b6" x="97.67516" y="162.221" style="fill: #ff8c00; stroke: #ff8c00"/>
     <use xlink:href="#mbc35d6e9b6" x="145.803487" y="124.998435" style="fill: #ff8c00; stroke: #ff8c00"/>
     <use xlink:href="#mbc35d6e9b6" x="113.504843" y="184.22563" style="fill: #ff8c00; stroke: #ff8c00"/>
     <use xlink:href="#mbc35d6e9b6" x="150.075177" y="158.194626" style="fill: #ff8c00; stroke: #ff8c00"/>
     <use xlink:href="#mbc35d6e9b6" x="171.538494" y="228.74089" style="fill: #ff8c00; stroke: #ff8c00"/>
     <use xlink:href="#mbc35d6e9b6" x="133.310636" y="197.396733" style="fill: #ff8c00; stroke: #ff8c00"/>
     <use xlink:href="#mbc35d6e9b6" x="123.816899" y="256.020173" style="fill: #ff8c00; stroke: #ff8c00"/>
     <use xlink:href="#mbc35d6e9b6" x="66.69565" y="187.496445" style="fill: #ff8c00; stroke: #ff8c00"/>
     <use xlink:href="#mbc35d6e9b6" x="62.853297" y="114.758539" style="fill: #ff8c00; stroke: #ff8c00"/>
     <use xlink:href="#mbc35d6e9b6" x="166.844946" y="169.529207" style="fill: #ff8c00; stroke: #ff8c00"/>
     <use xlink:href="#mbc35d6e9b6" x="177.418919" y="171.268743" style="fill: #ff8c00; stroke: #ff8c00"/>
     <use xlink:href="#mbc35d6e9b6" x="152.076563" y="142.761411" style="fill: #ff8c00; stroke: #ff8c00"/>
     <use xlink:href="#mbc35d6e9b6" x="221.491972" y="182.622288" style="fill: #ff8c00; stroke: #ff8c00"/>
     <use xlink:href="#mbc35d6e9b6" x="216.156905" y="168.095951" style="fill: #ff8c00; stroke: #ff8c00"/>
     <use xlink:href="#mbc35d6e9b6" x="145.679906" y="214.087739" style="fill: #ff8c00; stroke: #ff8c00"/>
     <use xlink:href="#mbc35d6e9b6" x="123.567824" y="138.213934" style="fill: #ff8c00; stroke: #ff8c00"/>
     <use xlink:href="#mbc35d6e9b6" x="187.050584" y="176.979804" style="fill: #ff8c00; stroke: #ff8c00"/>
     <use xlink:href="#mbc35d6e9b6" x="65.962049" y="136.187633" style="fill: #ff8c00; stroke: #ff8c00"/>
    </g>
   </g>
   <g id="matplotlib.axis_1">
    <g id="xtick_1">
     <g id="line2d_1">
      <defs>
       <path id="m1da29979ad" d="M 0 0 
L 0 3.5 
" style="stroke: #000000; stroke-width: 0.8"/>
      </defs>
      <g>
       <use xlink:href="#m1da29979ad" x="93.74099" y="273.312" style="stroke: #000000; stroke-width: 0.8"/>
      </g>
     </g>
     <g id="text_1">
      <!-- −10 -->
      <g transform="translate(83.188646 287.910437) scale(0.1 -0.1)">
       <defs>
        <path id="DejaVuSans-2212" d="M 678 2272 
L 4684 2272 
L 4684 1741 
L 678 1741 
L 678 2272 
z
" transform="scale(0.015625)"/>
        <path id="DejaVuSans-31" d="M 794 531 
L 1825 531 
L 1825 4091 
L 703 3866 
L 703 4441 
L 1819 4666 
L 2450 4666 
L 2450 531 
L 3481 531 
L 3481 0 
L 794 0 
L 794 531 
z
" transform="scale(0.015625)"/>
        <path id="DejaVuSans-30" d="M 2034 4250 
Q 1547 4250 1301 3770 
Q 1056 3291 1056 2328 
Q 1056 1369 1301 889 
Q 1547 409 2034 409 
Q 2525 409 2770 889 
Q 3016 1369 3016 2328 
Q 3016 3291 2770 3770 
Q 2525 4250 2034 4250 
z
M 2034 4750 
Q 2819 4750 3233 4129 
Q 3647 3509 3647 2328 
Q 3647 1150 3233 529 
Q 2819 -91 2034 -91 
Q 1250 -91 836 529 
Q 422 1150 422 2328 
Q 422 3509 836 4129 
Q 1250 4750 2034 4750 
z
" transform="scale(0.015625)"/>
       </defs>
       <use xlink:href="#DejaVuSans-2212"/>
       <use xlink:href="#DejaVuSans-31" x="83.789062"/>
       <use xlink:href="#DejaVuSans-30" x="147.412109"/>
      </g>
     </g>
    </g>
    <g id="xtick_2">
     <g id="line2d_2">
      <g>
       <use xlink:href="#m1da29979ad" x="170.732403" y="273.312" style="stroke: #000000; stroke-width: 0.8"/>
      </g>
     </g>
     <g id="text_2">
      <!-- 0 -->
      <g transform="translate(167.551153 287.910437) scale(0.1 -0.1)">
       <use xlink:href="#DejaVuSans-30"/>
      </g>
     </g>
    </g>
    <g id="xtick_3">
     <g id="line2d_3">
      <g>
       <use xlink:href="#m1da29979ad" x="247.723817" y="273.312" style="stroke: #000000; stroke-width: 0.8"/>
      </g>
     </g>
     <g id="text_3">
      <!-- 10 -->
      <g transform="translate(241.361317 287.910437) scale(0.1 -0.1)">
       <use xlink:href="#DejaVuSans-31"/>
       <use xlink:href="#DejaVuSans-30" x="63.623047"/>
      </g>
     </g>
    </g>
    <g id="xtick_4">
     <g id="line2d_4">
      <g>
       <use xlink:href="#m1da29979ad" x="324.71523" y="273.312" style="stroke: #000000; stroke-width: 0.8"/>
      </g>
     </g>
     <g id="text_4">
      <!-- 20 -->
      <g transform="translate(318.35273 287.910437) scale(0.1 -0.1)">
       <defs>
        <path id="DejaVuSans-32" d="M 1228 531 
L 3431 531 
L 3431 0 
L 469 0 
L 469 531 
Q 828 903 1448 1529 
Q 2069 2156 2228 2338 
Q 2531 2678 2651 2914 
Q 2772 3150 2772 3378 
Q 2772 3750 2511 3984 
Q 2250 4219 1831 4219 
Q 1534 4219 1204 4116 
Q 875 4013 500 3803 
L 500 4441 
Q 881 4594 1212 4672 
Q 1544 4750 1819 4750 
Q 2544 4750 2975 4387 
Q 3406 4025 3406 3419 
Q 3406 3131 3298 2873 
Q 3191 2616 2906 2266 
Q 2828 2175 2409 1742 
Q 1991 1309 1228 531 
z
" transform="scale(0.015625)"/>
       </defs>
       <use xlink:href="#DejaVuSans-32"/>
       <use xlink:href="#DejaVuSans-30" x="63.623047"/>
      </g>
     </g>
    </g>
   </g>
   <g id="matplotlib.axis_2">
    <g id="ytick_1">
     <g id="line2d_5">
      <defs>
       <path id="m05260ba6c5" d="M 0 0 
L -3.5 0 
" style="stroke: #000000; stroke-width: 0.8"/>
      </defs>
      <g>
       <use xlink:href="#m05260ba6c5" x="35.304688" y="270.172286" style="stroke: #000000; stroke-width: 0.8"/>
      </g>
     </g>
     <g id="text_5">
      <!-- −15 -->
      <g transform="translate(7.2 273.971505) scale(0.1 -0.1)">
       <defs>
        <path id="DejaVuSans-35" d="M 691 4666 
L 3169 4666 
L 3169 4134 
L 1269 4134 
L 1269 2991 
Q 1406 3038 1543 3061 
Q 1681 3084 1819 3084 
Q 2600 3084 3056 2656 
Q 3513 2228 3513 1497 
Q 3513 744 3044 326 
Q 2575 -91 1722 -91 
Q 1428 -91 1123 -41 
Q 819 9 494 109 
L 494 744 
Q 775 591 1075 516 
Q 1375 441 1709 441 
Q 2250 441 2565 725 
Q 2881 1009 2881 1497 
Q 2881 1984 2565 2268 
Q 2250 2553 1709 2553 
Q 1456 2553 1204 2497 
Q 953 2441 691 2322 
L 691 4666 
z
" transform="scale(0.015625)"/>
       </defs>
       <use xlink:href="#DejaVuSans-2212"/>
       <use xlink:href="#DejaVuSans-31" x="83.789062"/>
       <use xlink:href="#DejaVuSans-35" x="147.412109"/>
      </g>
     </g>
    </g>
    <g id="ytick_2">
     <g id="line2d_6">
      <g>
       <use xlink:href="#m05260ba6c5" x="35.304688" y="236.824347" style="stroke: #000000; stroke-width: 0.8"/>
      </g>
     </g>
     <g id="text_6">
      <!-- −10 -->
      <g transform="translate(7.2 240.623566) scale(0.1 -0.1)">
       <use xlink:href="#DejaVuSans-2212"/>
       <use xlink:href="#DejaVuSans-31" x="83.789062"/>
       <use xlink:href="#DejaVuSans-30" x="147.412109"/>
      </g>
     </g>
    </g>
    <g id="ytick_3">
     <g id="line2d_7">
      <g>
       <use xlink:href="#m05260ba6c5" x="35.304688" y="203.476409" style="stroke: #000000; stroke-width: 0.8"/>
      </g>
     </g>
     <g id="text_7">
      <!-- −5 -->
      <g transform="translate(13.5625 207.275627) scale(0.1 -0.1)">
       <use xlink:href="#DejaVuSans-2212"/>
       <use xlink:href="#DejaVuSans-35" x="83.789062"/>
      </g>
     </g>
    </g>
    <g id="ytick_4">
     <g id="line2d_8">
      <g>
       <use xlink:href="#m05260ba6c5" x="35.304688" y="170.12847" style="stroke: #000000; stroke-width: 0.8"/>
      </g>
     </g>
     <g id="text_8">
      <!-- 0 -->
      <g transform="translate(21.942187 173.927689) scale(0.1 -0.1)">
       <use xlink:href="#DejaVuSans-30"/>
      </g>
     </g>
    </g>
    <g id="ytick_5">
     <g id="line2d_9">
      <g>
       <use xlink:href="#m05260ba6c5" x="35.304688" y="136.780532" style="stroke: #000000; stroke-width: 0.8"/>
      </g>
     </g>
     <g id="text_9">
      <!-- 5 -->
      <g transform="translate(21.942187 140.57975) scale(0.1 -0.1)">
       <use xlink:href="#DejaVuSans-35"/>
      </g>
     </g>
    </g>
    <g id="ytick_6">
     <g id="line2d_10">
      <g>
       <use xlink:href="#m05260ba6c5" x="35.304688" y="103.432593" style="stroke: #000000; stroke-width: 0.8"/>
      </g>
     </g>
     <g id="text_10">
      <!-- 10 -->
      <g transform="translate(15.579687 107.231812) scale(0.1 -0.1)">
       <use xlink:href="#DejaVuSans-31"/>
       <use xlink:href="#DejaVuSans-30" x="63.623047"/>
      </g>
     </g>
    </g>
    <g id="ytick_7">
     <g id="line2d_11">
      <g>
       <use xlink:href="#m05260ba6c5" x="35.304688" y="70.084654" style="stroke: #000000; stroke-width: 0.8"/>
      </g>
     </g>
     <g id="text_11">
      <!-- 15 -->
      <g transform="translate(15.579687 73.883873) scale(0.1 -0.1)">
       <use xlink:href="#DejaVuSans-31"/>
       <use xlink:href="#DejaVuSans-35" x="63.623047"/>
      </g>
     </g>
    </g>
    <g id="ytick_8">
     <g id="line2d_12">
      <g>
       <use xlink:href="#m05260ba6c5" x="35.304688" y="36.736716" style="stroke: #000000; stroke-width: 0.8"/>
      </g>
     </g>
     <g id="text_12">
      <!-- 20 -->
      <g transform="translate(15.579687 40.535935) scale(0.1 -0.1)">
       <use xlink:href="#DejaVuSans-32"/>
       <use xlink:href="#DejaVuSans-30" x="63.623047"/>
      </g>
     </g>
    </g>
   </g>
   <g id="patch_3">
    <path d="M 35.304688 273.312 
L 35.304688 7.2 
" style="fill: none; stroke: #000000; stroke-width: 0.8; stroke-linejoin: miter; stroke-linecap: square"/>
   </g>
   <g id="patch_4">
    <path d="M 392.424688 273.312 
L 392.424688 7.2 
" style="fill: none; stroke: #000000; stroke-width: 0.8; stroke-linejoin: miter; stroke-linecap: square"/>
   </g>
   <g id="patch_5">
    <path d="M 35.304688 273.312 
L 392.424688 273.312 
" style="fill: none; stroke: #000000; stroke-width: 0.8; stroke-linejoin: miter; stroke-linecap: square"/>
   </g>
   <g id="patch_6">
    <path d="M 35.304688 7.2 
L 392.424688 7.2 
" style="fill: none; stroke: #000000; stroke-width: 0.8; stroke-linejoin: miter; stroke-linecap: square"/>
   </g>
  </g>
 </g>
 <defs>
  <clipPath id="p835219c231">
   <rect x="35.304688" y="7.2" width="357.12" height="266.112"/>
  </clipPath>
 </defs>
</svg>
