<?xml version="1.0" encoding="utf-8" standalone="no"?>
<!DOCTYPE svg PUBLIC "-//W3C//DTD SVG 1.1//EN"
  "http://www.w3.org/Graphics/SVG/1.1/DTD/svg11.dtd">
<svg xmlns:xlink="http://www.w3.org/1999/xlink" width="399.624687pt" height="297.190125pt" viewBox="0 0 399.624687 297.190125" xmlns="http://www.w3.org/2000/svg" version="1.1">
 <metadata>
  <rdf:RDF xmlns:dc="http://purl.org/dc/elements/1.1/" xmlns:cc="http://creativecommons.org/ns#" xmlns:rdf="http://www.w3.org/1999/02/22-rdf-syntax-ns#">
   <cc:Work>
    <dc:type rdf:resource="http://purl.org/dc/dcmitype/StillImage"/>
    <dc:date>2023-11-11T10:33:35.099922</dc:date>
    <dc:format>image/svg+xml</dc:format>
    <dc:creator>
     <cc:Agent>
      <dc:title>Matplotlib v3.8.0, https://matplotlib.org/</dc:title>
     </cc:Agent>
    </dc:creator>
   </cc:Work>
  </rdf:RDF>
 </metadata>
 <defs>
  <style type="text/css">*{stroke-linejoin: round; stroke-linecap: butt}</style>
 </defs>
 <g id="figure_1">
  <g id="patch_1">
   <path d="M 0 297.190125 
L 399.624687 297.190125 
L 399.624687 0 
L 0 0 
z
" style="fill: #ffffff"/>
  </g>
  <g id="axes_1">
   <g id="patch_2">
    <path d="M 35.304688 273.312 
L 392.424688 273.312 
L 392.424688 7.2 
L 35.304688 7.2 
z
" style="fill: #ffffff"/>
   </g>
   <g id="PathCollection_1">
    <defs>
     <path id="maf3c0f63a2" d="M 0 1.5 
C 0.397805 1.5 0.77937 1.341951 1.06066 1.06066 
C 1.341951 0.77937 1.5 0.397805 1.5 0 
C 1.5 -0.397805 1.341951 -0.77937 1.06066 -1.06066 
C 0.77937 -1.341951 0.397805 -1.5 0 -1.5 
C -0.397805 -1.5 -0.77937 -1.341951 -1.06066 -1.06066 
C -1.341951 -0.77937 -1.5 -0.397805 -1.5 0 
C -1.5 0.397805 -1.341951 0.77937 -1.06066 1.06066 
C -0.77937 1.341951 -0.397805 1.5 0 1.5 
z
" style="stroke: #ff8c00"/>
    </defs>
    <g clip-path="url(#p5c5b344e47)">
     <use xlink:href="#maf3c0f63a2" x="284.562754" y="204.347951" style="fill: #ff8c00; stroke: #ff8c00"/>
     <use xlink:href="#maf3c0f63a2" x="222.897526" y="159.176681" style="fill: #ff8c00; stroke: #ff8c00"/>
     <use xlink:href="#maf3c0f63a2" x="363.055206" y="194.13271" style="fill: #ff8c00; stroke: #ff8c00"/>
     <use xlink:href="#maf3c0f63a2" x="339.192645" y="202.656713" style="fill: #ff8c00; stroke: #ff8c00"/>
     <use xlink:href="#maf3c0f63a2" x="316.024393" y="167.641661" style="fill: #ff8c00; stroke: #ff8c00"/>
     <use xlink:href="#maf3c0f63a2" x="296.628429" y="169.97017" style="fill: #ff8c00; stroke: #ff8c00"/>
     <use xlink:href="#maf3c0f63a2" x="361.736861" y="231.052803" style="fill: #ff8c00; stroke: #ff8c00"/>
     <use xlink:href="#maf3c0f63a2" x="261.324682" y="189.128525" style="fill: #ff8c00; stroke: #ff8c00"/>
     <use xlink:href="#maf3c0f63a2" x="288.788655" y="210.635385" style="fill: #ff8c00; stroke: #ff8c00"/>
     <use xlink:href="#maf3c0f63a2" x="316.741023" y="172.054444" style="fill: #ff8c00; stroke: #ff8c00"/>
     <use xlink:href="#maf3c0f63a2" x="309.715317" y="147.801351" style="fill: #ff8c00; stroke: #ff8c00"/>
     <use xlink:href="#maf3c0f63a2" x="304.831985" y="202.67965" style="fill: #ff8c00; stroke: #ff8c00"/>
     <use xlink:href="#maf3c0f63a2" x="299.636318" y="120.408778" style="fill: #ff8c00; stroke: #ff8c00"/>
     <use xlink:href="#maf3c0f63a2" x="337.260571" y="170.29888" style="fill: #ff8c00; stroke: #ff8c00"/>
     <use xlink:href="#maf3c0f63a2" x="240.856039" y="138.287898" style="fill: #ff8c00; stroke: #ff8c00"/>
    </g>
   </g>
   <g id="PathCollection_2">
    <defs>
     <path id="m90c3d3d502" d="M 0 1.5 
C 0.397805 1.5 0.77937 1.341951 1.06066 1.06066 
C 1.341951 0.77937 1.5 0.397805 1.5 0 
C 1.5 -0.397805 1.341951 -0.77937 1.06066 -1.06066 
C 0.77937 -1.341951 0.397805 -1.5 0 -1.5 
C -0.397805 -1.5 -0.77937 -1.341951 -1.06066 -1.06066 
C -1.341951 -0.77937 -1.5 -0.397805 -1.5 0 
C -1.5 0.397805 -1.341951 0.77937 -1.06066 1.06066 
C -0.77937 1.341951 -0.397805 1.5 0 1.5 
z
" style="stroke: #006400"/>
    </defs>
    <g clip-path="url(#p5c5b344e47)">
     <use xlink:href="#m90c3d3d502" x="275.965657" y="220.662119" style="fill: #006400; stroke: #006400"/>
     <use xlink:href="#m90c3d3d502" x="195.887936" y="216.118732" style="fill: #006400; stroke: #006400"/>
     <use xlink:href="#m90c3d3d502" x="197.918387" y="223.773997" style="fill: #006400; stroke: #006400"/>
     <use xlink:href="#m90c3d3d502" x="318.22487" y="261.216" style="fill: #006400; stroke: #006400"/>
     <use xlink:href="#m90c3d3d502" x="191.466356" y="174.578597" style="fill: #006400; stroke: #006400"/>
     <use xlink:href="#m90c3d3d502" x="157.370211" y="207.588978" style="fill: #006400; stroke: #006400"/>
     <use xlink:href="#m90c3d3d502" x="278.153512" y="232.945453" style="fill: #006400; stroke: #006400"/>
     <use xlink:href="#m90c3d3d502" x="227.841426" y="186.702941" style="fill: #006400; stroke: #006400"/>
     <use xlink:href="#m90c3d3d502" x="229.896046" y="171.602838" style="fill: #006400; stroke: #006400"/>
     <use xlink:href="#m90c3d3d502" x="243.786363" y="249.365389" style="fill: #006400; stroke: #006400"/>
     <use xlink:href="#m90c3d3d502" x="229.070893" y="175.527059" style="fill: #006400; stroke: #006400"/>
     <use xlink:href="#m90c3d3d502" x="123.122434" y="176.500154" style="fill: #006400; stroke: #006400"/>
     <use xlink:href="#m90c3d3d502" x="184.292361" y="207.468523" style="fill: #006400; stroke: #006400"/>
     <use xlink:href="#m90c3d3d502" x="169.354506" y="216.434389" style="fill: #006400; stroke: #006400"/>
     <use xlink:href="#m90c3d3d502" x="241.611508" y="238.59825" style="fill: #006400; stroke: #006400"/>
    </g>
   </g>
   <g id="PathCollection_3">
    <defs>
     <path id="mdeed518af8" d="M 0 1.5 
C 0.397805 1.5 0.77937 1.341951 1.06066 1.06066 
C 1.341951 0.77937 1.5 0.397805 1.5 0 
C 1.5 -0.397805 1.341951 -0.77937 1.06066 -1.06066 
C 0.77937 -1.341951 0.397805 -1.5 0 -1.5 
C -0.397805 -1.5 -0.77937 -1.341951 -1.06066 -1.06066 
C -1.341951 -0.77937 -1.5 -0.397805 -1.5 0 
C -1.5 0.397805 -1.341951 0.77937 -1.06066 1.06066 
C -0.77937 1.341951 -0.397805 1.5 0 1.5 
z
" style="stroke: #2f4f4f"/>
    </defs>
    <g clip-path="url(#p5c5b344e47)">
     <use xlink:href="#mdeed518af8" x="323.360624" y="128.028665" style="fill: #2f4f4f; stroke: #2f4f4f"/>
     <use xlink:href="#mdeed518af8" x="167.800447" y="132.306672" style="fill: #2f4f4f; stroke: #2f4f4f"/>
     <use xlink:href="#mdeed518af8" x="262.347078" y="140.489055" style="fill: #2f4f4f; stroke: #2f4f4f"/>
     <use xlink:href="#mdeed518af8" x="203.592743" y="172.524759" style="fill: #2f4f4f; stroke: #2f4f4f"/>
     <use xlink:href="#mdeed518af8" x="328.400914" y="127.025244" style="fill: #2f4f4f; stroke: #2f4f4f"/>
     <use xlink:href="#mdeed518af8" x="318.959083" y="19.296" style="fill: #2f4f4f; stroke: #2f4f4f"/>
     <use xlink:href="#mdeed518af8" x="315.766339" y="172.915207" style="fill: #2f4f4f; stroke: #2f4f4f"/>
     <use xlink:href="#mdeed518af8" x="326.544069" y="169.574449" style="fill: #2f4f4f; stroke: #2f4f4f"/>
     <use xlink:href="#mdeed518af8" x="165.855163" y="159.025057" style="fill: #2f4f4f; stroke: #2f4f4f"/>
     <use xlink:href="#mdeed518af8" x="312.474345" y="135.581556" style="fill: #2f4f4f; stroke: #2f4f4f"/>
     <use xlink:href="#mdeed518af8" x="284.760882" y="149.132492" style="fill: #2f4f4f; stroke: #2f4f4f"/>
     <use xlink:href="#mdeed518af8" x="245.190544" y="151.870469" style="fill: #2f4f4f; stroke: #2f4f4f"/>
     <use xlink:href="#mdeed518af8" x="321.210251" y="132.57969" style="fill: #2f4f4f; stroke: #2f4f4f"/>
     <use xlink:href="#mdeed518af8" x="186.173653" y="80.739323" style="fill: #2f4f4f; stroke: #2f4f4f"/>
     <use xlink:href="#mdeed518af8" x="135.849317" y="162.015181" style="fill: #2f4f4f; stroke: #2f4f4f"/>
     <use xlink:href="#mdeed518af8" x="279.052232" y="181.949625" style="fill: #2f4f4f; stroke: #2f4f4f"/>
     <use xlink:href="#mdeed518af8" x="276.320064" y="159.484785" style="fill: #2f4f4f; stroke: #2f4f4f"/>
     <use xlink:href="#mdeed518af8" x="234.216502" y="173.141812" style="fill: #2f4f4f; stroke: #2f4f4f"/>
     <use xlink:href="#mdeed518af8" x="235.07518" y="117.817308" style="fill: #2f4f4f; stroke: #2f4f4f"/>
    </g>
   </g>
   <g id="PathCollection_4">
    <defs>
     <path id="mf47f8b4015" d="M 0 1.5 
C 0.397805 1.5 0.77937 1.341951 1.06066 1.06066 
C 1.341951 0.77937 1.5 0.397805 1.5 0 
C 1.5 -0.397805 1.341951 -0.77937 1.06066 -1.06066 
C 0.77937 -1.341951 0.397805 -1.5 0 -1.5 
C -0.397805 -1.5 -0.77937 -1.341951 -1.06066 -1.06066 
C -1.341951 -0.77937 -1.5 -0.397805 -1.5 0 
C -1.5 0.397805 -1.341951 0.77937 -1.06066 1.06066 
C -0.77937 1.341951 -0.397805 1.5 0 1.5 
z
" style="stroke: #00bfff"/>
    </defs>
    <g clip-path="url(#p5c5b344e47)">
     <use xlink:href="#mf47f8b4015" x="241.259316" y="146.351937" style="fill: #00bfff; stroke: #00bfff"/>
     <use xlink:href="#mf47f8b4015" x="271.686175" y="109.320181" style="fill: #00bfff; stroke: #00bfff"/>
     <use xlink:href="#mf47f8b4015" x="147.218292" y="181.010205" style="fill: #00bfff; stroke: #00bfff"/>
     <use xlink:href="#mf47f8b4015" x="157.441697" y="116.380609" style="fill: #00bfff; stroke: #00bfff"/>
     <use xlink:href="#mf47f8b4015" x="192.66601" y="144.542313" style="fill: #00bfff; stroke: #00bfff"/>
     <use xlink:href="#mf47f8b4015" x="200.801171" y="161.819172" style="fill: #00bfff; stroke: #00bfff"/>
     <use xlink:href="#mf47f8b4015" x="143.092704" y="114.895788" style="fill: #00bfff; stroke: #00bfff"/>
     <use xlink:href="#mf47f8b4015" x="269.54105" y="134.163289" style="fill: #00bfff; stroke: #00bfff"/>
     <use xlink:href="#mf47f8b4015" x="158.155129" y="136.55052" style="fill: #00bfff; stroke: #00bfff"/>
     <use xlink:href="#mf47f8b4015" x="198.56209" y="133.758226" style="fill: #00bfff; stroke: #00bfff"/>
     <use xlink:href="#mf47f8b4015" x="174.067239" y="158.002158" style="fill: #00bfff; stroke: #00bfff"/>
     <use xlink:href="#mf47f8b4015" x="234.234106" y="168.978362" style="fill: #00bfff; stroke: #00bfff"/>
     <use xlink:href="#mf47f8b4015" x="212.589046" y="186.890322" style="fill: #00bfff; stroke: #00bfff"/>
     <use xlink:href="#mf47f8b4015" x="170.080748" y="168.130743" style="fill: #00bfff; stroke: #00bfff"/>
    </g>
   </g>
   <g id="PathCollection_5">
    <defs>
     <path id="m559ab58ed3" d="M 0 1.5 
C 0.397805 1.5 0.77937 1.341951 1.06066 1.06066 
C 1.341951 0.77937 1.5 0.397805 1.5 0 
C 1.5 -0.397805 1.341951 -0.77937 1.06066 -1.06066 
C 0.77937 -1.341951 0.397805 -1.5 0 -1.5 
C -0.397805 -1.5 -0.77937 -1.341951 -1.06066 -1.06066 
C -1.341951 -0.77937 -1.5 -0.397805 -1.5 0 
C -1.5 0.397805 -1.341951 0.77937 -1.06066 1.06066 
C -0.77937 1.341951 -0.397805 1.5 0 1.5 
z
" style="stroke: #ffff00"/>
    </defs>
    <g clip-path="url(#p5c5b344e47)">
     <use xlink:href="#m559ab58ed3" x="204.597459" y="97.78023" style="fill: #ffff00; stroke: #ffff00"/>
     <use xlink:href="#m559ab58ed3" x="210.582561" y="195.019542" style="fill: #ffff00; stroke: #ffff00"/>
     <use xlink:href="#m559ab58ed3" x="245.602314" y="162.560219" style="fill: #ffff00; stroke: #ffff00"/>
     <use xlink:href="#m559ab58ed3" x="157.029234" y="141.446889" style="fill: #ffff00; stroke: #ffff00"/>
     <use xlink:href="#m559ab58ed3" x="181.018563" y="164.123682" style="fill: #ffff00; stroke: #ffff00"/>
     <use xlink:href="#m559ab58ed3" x="214.414564" y="177.04215" style="fill: #ffff00; stroke: #ffff00"/>
     <use xlink:href="#m559ab58ed3" x="171.148825" y="141.221533" style="fill: #ffff00; stroke: #ffff00"/>
     <use xlink:href="#m559ab58ed3" x="222.409447" y="164.808763" style="fill: #ffff00; stroke: #ffff00"/>
     <use xlink:href="#m559ab58ed3" x="261.813546" y="162.776471" style="fill: #ffff00; stroke: #ffff00"/>
     <use xlink:href="#m559ab58ed3" x="242.861708" y="158.793735" style="fill: #ffff00; stroke: #ffff00"/>
     <use xlink:href="#m559ab58ed3" x="184.936348" y="144.669697" style="fill: #ffff00; stroke: #ffff00"/>
     <use xlink:href="#m559ab58ed3" x="219.212165" y="173.2025" style="fill: #ffff00; stroke: #ffff00"/>
    </g>
   </g>
   <g id="PathCollection_6">
    <defs>
     <path id="m9175abcd2f" d="M 0 1.5 
C 0.397805 1.5 0.77937 1.341951 1.06066 1.06066 
C 1.341951 0.77937 1.5 0.397805 1.5 0 
C 1.5 -0.397805 1.341951 -0.77937 1.06066 -1.06066 
C 0.77937 -1.341951 0.397805 -1.5 0 -1.5 
C -0.397805 -1.5 -0.77937 -1.341951 -1.06066 -1.06066 
C -1.341951 -0.77937 -1.5 -0.397805 -1.5 0 
C -1.5 0.397805 -1.341951 0.77937 -1.06066 1.06066 
C -0.77937 1.341951 -0.397805 1.5 0 1.5 
z
" style="stroke: #00ffff"/>
    </defs>
    <g clip-path="url(#p5c5b344e47)">
     <use xlink:href="#m9175abcd2f" x="220.963925" y="148.518795" style="fill: #00ffff; stroke: #00ffff"/>
     <use xlink:href="#m9175abcd2f" x="225.78665" y="96.825534" style="fill: #00ffff; stroke: #00ffff"/>
     <use xlink:href="#m9175abcd2f" x="244.863687" y="105.281699" style="fill: #00ffff; stroke: #00ffff"/>
     <use xlink:href="#m9175abcd2f" x="201.730517" y="157.048322" style="fill: #00ffff; stroke: #00ffff"/>
     <use xlink:href="#m9175abcd2f" x="155.120977" y="154.84402" style="fill: #00ffff; stroke: #00ffff"/>
     <use xlink:href="#m9175abcd2f" x="243.616299" y="107.855308" style="fill: #00ffff; stroke: #00ffff"/>
     <use xlink:href="#m9175abcd2f" x="200.413038" y="130.453538" style="fill: #00ffff; stroke: #00ffff"/>
     <use xlink:href="#m9175abcd2f" x="150.1887" y="136.703262" style="fill: #00ffff; stroke: #00ffff"/>
     <use xlink:href="#m9175abcd2f" x="241.22147" y="93.060265" style="fill: #00ffff; stroke: #00ffff"/>
     <use xlink:href="#m9175abcd2f" x="206.803927" y="142.238798" style="fill: #00ffff; stroke: #00ffff"/>
    </g>
   </g>
   <g id="PathCollection_7">
    <defs>
     <path id="med3d939b3e" d="M 0 1.5 
C 0.397805 1.5 0.77937 1.341951 1.06066 1.06066 
C 1.341951 0.77937 1.5 0.397805 1.5 0 
C 1.5 -0.397805 1.341951 -0.77937 1.06066 -1.06066 
C 0.77937 -1.341951 0.397805 -1.5 0 -1.5 
C -0.397805 -1.5 -0.77937 -1.341951 -1.06066 -1.06066 
C -1.341951 -0.77937 -1.5 -0.397805 -1.5 0 
C -1.5 0.397805 -1.341951 0.77937 -1.06066 1.06066 
C -0.77937 1.341951 -0.397805 1.5 0 1.5 
z
" style="stroke: #0000ff"/>
    </defs>
    <g clip-path="url(#p5c5b344e47)">
     <use xlink:href="#med3d939b3e" x="140.380634" y="184.220105" style="fill: #0000ff; stroke: #0000ff"/>
     <use xlink:href="#med3d939b3e" x="172.182885" y="203.012638" style="fill: #0000ff; stroke: #0000ff"/>
     <use xlink:href="#med3d939b3e" x="233.813509" y="211.925264" style="fill: #0000ff; stroke: #0000ff"/>
     <use xlink:href="#med3d939b3e" x="182.383401" y="178.066305" style="fill: #0000ff; stroke: #0000ff"/>
     <use xlink:href="#med3d939b3e" x="251.335729" y="189.136773" style="fill: #0000ff; stroke: #0000ff"/>
     <use xlink:href="#med3d939b3e" x="152.536913" y="172.944879" style="fill: #0000ff; stroke: #0000ff"/>
     <use xlink:href="#med3d939b3e" x="138.929896" y="188.462485" style="fill: #0000ff; stroke: #0000ff"/>
     <use xlink:href="#med3d939b3e" x="168.587317" y="198.458763" style="fill: #0000ff; stroke: #0000ff"/>
     <use xlink:href="#med3d939b3e" x="275.959444" y="186.502956" style="fill: #0000ff; stroke: #0000ff"/>
     <use xlink:href="#med3d939b3e" x="211.032438" y="186.789114" style="fill: #0000ff; stroke: #0000ff"/>
     <use xlink:href="#med3d939b3e" x="175.449646" y="187.84566" style="fill: #0000ff; stroke: #0000ff"/>
     <use xlink:href="#med3d939b3e" x="284.886446" y="157.177606" style="fill: #0000ff; stroke: #0000ff"/>
     <use xlink:href="#med3d939b3e" x="175.53811" y="167.537024" style="fill: #0000ff; stroke: #0000ff"/>
     <use xlink:href="#med3d939b3e" x="134.576787" y="201.299816" style="fill: #0000ff; stroke: #0000ff"/>
     <use xlink:href="#med3d939b3e" x="139.742445" y="190.740614" style="fill: #0000ff; stroke: #0000ff"/>
     <use xlink:href="#med3d939b3e" x="128.279409" y="168.876717" style="fill: #0000ff; stroke: #0000ff"/>
     <use xlink:href="#med3d939b3e" x="206.636599" y="143.204296" style="fill: #0000ff; stroke: #0000ff"/>
     <use xlink:href="#med3d939b3e" x="147.186974" y="204.055911" style="fill: #0000ff; stroke: #0000ff"/>
     <use xlink:href="#med3d939b3e" x="184.504683" y="185.663016" style="fill: #0000ff; stroke: #0000ff"/>
     <use xlink:href="#med3d939b3e" x="138.148259" y="215.371742" style="fill: #0000ff; stroke: #0000ff"/>
     <use xlink:href="#med3d939b3e" x="204.211346" y="170.670726" style="fill: #0000ff; stroke: #0000ff"/>
     <use xlink:href="#med3d939b3e" x="165.385803" y="208.877905" style="fill: #0000ff; stroke: #0000ff"/>
     <use xlink:href="#med3d939b3e" x="91.917065" y="216.030785" style="fill: #0000ff; stroke: #0000ff"/>
    </g>
   </g>
   <g id="PathCollection_8">
    <defs>
     <path id="mfeb9cc6fac" d="M 0 1.5 
C 0.397805 1.5 0.77937 1.341951 1.06066 1.06066 
C 1.341951 0.77937 1.5 0.397805 1.5 0 
C 1.5 -0.397805 1.341951 -0.77937 1.06066 -1.06066 
C 0.77937 -1.341951 0.397805 -1.5 0 -1.5 
C -0.397805 -1.5 -0.77937 -1.341951 -1.06066 -1.06066 
C -1.341951 -0.77937 -1.5 -0.397805 -1.5 0 
C -1.5 0.397805 -1.341951 0.77937 -1.06066 1.06066 
C -0.77937 1.341951 -0.397805 1.5 0 1.5 
z
" style="stroke: #dc143c"/>
    </defs>
    <g clip-path="url(#p5c5b344e47)">
     <use xlink:href="#mfeb9cc6fac" x="66.21385" y="124.362025" style="fill: #dc143c; stroke: #dc143c"/>
     <use xlink:href="#mfeb9cc6fac" x="128.055211" y="112.678957" style="fill: #dc143c; stroke: #dc143c"/>
     <use xlink:href="#mfeb9cc6fac" x="92.732209" y="78.992067" style="fill: #dc143c; stroke: #dc143c"/>
     <use xlink:href="#mfeb9cc6fac" x="115.551875" y="88.020858" style="fill: #dc143c; stroke: #dc143c"/>
     <use xlink:href="#mfeb9cc6fac" x="107.594464" y="90.509866" style="fill: #dc143c; stroke: #dc143c"/>
     <use xlink:href="#mfeb9cc6fac" x="125.557148" y="70.489624" style="fill: #dc143c; stroke: #dc143c"/>
     <use xlink:href="#mfeb9cc6fac" x="129.318778" y="188.468677" style="fill: #dc143c; stroke: #dc143c"/>
     <use xlink:href="#mfeb9cc6fac" x="61.727172" y="73.805396" style="fill: #dc143c; stroke: #dc143c"/>
     <use xlink:href="#mfeb9cc6fac" x="194.689313" y="131.006297" style="fill: #dc143c; stroke: #dc143c"/>
     <use xlink:href="#mfeb9cc6fac" x="103.291809" y="55.934507" style="fill: #dc143c; stroke: #dc143c"/>
     <use xlink:href="#mfeb9cc6fac" x="222.567128" y="179.090576" style="fill: #dc143c; stroke: #dc143c"/>
    </g>
   </g>
   <g id="PathCollection_9">
    <defs>
     <path id="mc260111fde" d="M 0 1.5 
C 0.397805 1.5 0.77937 1.341951 1.06066 1.06066 
C 1.341951 0.77937 1.5 0.397805 1.5 0 
C 1.5 -0.397805 1.341951 -0.77937 1.06066 -1.06066 
C 0.77937 -1.341951 0.397805 -1.5 0 -1.5 
C -0.397805 -1.5 -0.77937 -1.341951 -1.06066 -1.06066 
C -1.341951 -0.77937 -1.5 -0.397805 -1.5 0 
C -1.5 0.397805 -1.341951 0.77937 -1.06066 1.06066 
C -0.77937 1.341951 -0.397805 1.5 0 1.5 
z
" style="stroke: #ffe4c4"/>
    </defs>
    <g clip-path="url(#p5c5b344e47)">
     <use xlink:href="#mc260111fde" x="324.101512" y="183.560422" style="fill: #ffe4c4; stroke: #ffe4c4"/>
     <use xlink:href="#mc260111fde" x="312.970668" y="203.170852" style="fill: #ffe4c4; stroke: #ffe4c4"/>
     <use xlink:href="#mc260111fde" x="376.19196" y="222.285038" style="fill: #ffe4c4; stroke: #ffe4c4"/>
     <use xlink:href="#mc260111fde" x="274.800122" y="230.71555" style="fill: #ffe4c4; stroke: #ffe4c4"/>
     <use xlink:href="#mc260111fde" x="350.489403" y="203.281134" style="fill: #ffe4c4; stroke: #ffe4c4"/>
     <use xlink:href="#mc260111fde" x="305.024599" y="127.083176" style="fill: #ffe4c4; stroke: #ffe4c4"/>
     <use xlink:href="#mc260111fde" x="279.705346" y="150.909717" style="fill: #ffe4c4; stroke: #ffe4c4"/>
     <use xlink:href="#mc260111fde" x="336.415963" y="188.212098" style="fill: #ffe4c4; stroke: #ffe4c4"/>
     <use xlink:href="#mc260111fde" x="348.074916" y="183.999721" style="fill: #ffe4c4; stroke: #ffe4c4"/>
    </g>
   </g>
   <g id="PathCollection_10">
    <defs>
     <path id="m7b318bd2ac" d="M -2.99994 2.99994 
L 3.00006 2.99994 
L 3.00006 -3.00006 
L -2.99994 -3.00006 
z
" style="stroke: #000000"/>
    </defs>
    <g clip-path="url(#p5c5b344e47)">
     <use xlink:href="#m7b318bd2ac" x="100.240028" y="177.141639" style="stroke: #000000"/>
     <use xlink:href="#m7b318bd2ac" x="124.07524" y="210.77224" style="stroke: #000000"/>
     <use xlink:href="#m7b318bd2ac" x="201.337938" y="157.468013" style="stroke: #000000"/>
     <use xlink:href="#m7b318bd2ac" x="107.660955" y="186.001634" style="stroke: #000000"/>
     <use xlink:href="#m7b318bd2ac" x="295.705541" y="199.800559" style="stroke: #000000"/>
     <use xlink:href="#m7b318bd2ac" x="156.03607" y="202.894421" style="stroke: #000000"/>
     <use xlink:href="#m7b318bd2ac" x="173.812271" y="202.178657" style="stroke: #000000"/>
     <use xlink:href="#m7b318bd2ac" x="120.638028" y="217.469807" style="stroke: #000000"/>
     <use xlink:href="#m7b318bd2ac" x="163.845146" y="199.264083" style="stroke: #000000"/>
     <use xlink:href="#m7b318bd2ac" x="142.444579" y="170.507877" style="stroke: #000000"/>
     <use xlink:href="#m7b318bd2ac" x="153.548446" y="204.893083" style="stroke: #000000"/>
     <use xlink:href="#m7b318bd2ac" x="137.611705" y="182.681989" style="stroke: #000000"/>
     <use xlink:href="#m7b318bd2ac" x="153.48924" y="168.486763" style="stroke: #000000"/>
     <use xlink:href="#m7b318bd2ac" x="154.285661" y="174.530111" style="stroke: #000000"/>
     <use xlink:href="#m7b318bd2ac" x="98.253765" y="117.027966" style="stroke: #000000"/>
     <use xlink:href="#m7b318bd2ac" x="167.465515" y="176.374699" style="stroke: #000000"/>
     <use xlink:href="#m7b318bd2ac" x="184.260449" y="132.284221" style="stroke: #000000"/>
     <use xlink:href="#m7b318bd2ac" x="199.690011" y="157.844083" style="stroke: #000000"/>
     <use xlink:href="#m7b318bd2ac" x="113.293766" y="193.948448" style="stroke: #000000"/>
     <use xlink:href="#m7b318bd2ac" x="99.2445" y="198.184293" style="stroke: #000000"/>
     <use xlink:href="#m7b318bd2ac" x="180.791119" y="194.166016" style="stroke: #000000"/>
     <use xlink:href="#m7b318bd2ac" x="142.711467" y="152.513959" style="stroke: #000000"/>
     <use xlink:href="#m7b318bd2ac" x="235.486723" y="203.977624" style="stroke: #000000"/>
     <use xlink:href="#m7b318bd2ac" x="199.794765" y="184.702066" style="stroke: #000000"/>
     <use xlink:href="#m7b318bd2ac" x="231.032755" y="195.361324" style="stroke: #000000"/>
     <use xlink:href="#m7b318bd2ac" x="156.261713" y="199.478821" style="stroke: #000000"/>
     <use xlink:href="#m7b318bd2ac" x="134.898967" y="208.91424" style="stroke: #000000"/>
     <use xlink:href="#m7b318bd2ac" x="92.530968" y="182.689508" style="stroke: #000000"/>
     <use xlink:href="#m7b318bd2ac" x="177.183921" y="193.218545" style="stroke: #000000"/>
     <use xlink:href="#m7b318bd2ac" x="138.402473" y="200.848084" style="stroke: #000000"/>
     <use xlink:href="#m7b318bd2ac" x="152.41793" y="178.287458" style="stroke: #000000"/>
     <use xlink:href="#m7b318bd2ac" x="184.970334" y="183.277309" style="stroke: #000000"/>
     <use xlink:href="#m7b318bd2ac" x="165.588467" y="195.575834" style="stroke: #000000"/>
     <use xlink:href="#m7b318bd2ac" x="229.496657" y="202.098054" style="stroke: #000000"/>
     <use xlink:href="#m7b318bd2ac" x="136.5357" y="175.659329" style="stroke: #000000"/>
     <use xlink:href="#m7b318bd2ac" x="152.289119" y="202.251598" style="stroke: #000000"/>
     <use xlink:href="#m7b318bd2ac" x="141.04427" y="201.587189" style="stroke: #000000"/>
     <use xlink:href="#m7b318bd2ac" x="188.472887" y="160.977804" style="stroke: #000000"/>
     <use xlink:href="#m7b318bd2ac" x="172.474384" y="197.633168" style="stroke: #000000"/>
     <use xlink:href="#m7b318bd2ac" x="150.588904" y="203.169722" style="stroke: #000000"/>
     <use xlink:href="#m7b318bd2ac" x="197.563849" y="166.825087" style="stroke: #000000"/>
     <use xlink:href="#m7b318bd2ac" x="51.537415" y="174.480781" style="stroke: #000000"/>
     <use xlink:href="#m7b318bd2ac" x="135.128419" y="170.260857" style="stroke: #000000"/>
     <use xlink:href="#m7b318bd2ac" x="63.971119" y="181.61304" style="stroke: #000000"/>
     <use xlink:href="#m7b318bd2ac" x="148.089879" y="203.163338" style="stroke: #000000"/>
     <use xlink:href="#m7b318bd2ac" x="107.206661" y="218.042819" style="stroke: #000000"/>
     <use xlink:href="#m7b318bd2ac" x="213.761349" y="164.457039" style="stroke: #000000"/>
     <use xlink:href="#m7b318bd2ac" x="147.322096" y="170.378887" style="stroke: #000000"/>
     <use xlink:href="#m7b318bd2ac" x="128.854256" y="190.158057" style="stroke: #000000"/>
     <use xlink:href="#m7b318bd2ac" x="164.816465" y="186.814171" style="stroke: #000000"/>
     <use xlink:href="#m7b318bd2ac" x="272.644249" y="209.138877" style="stroke: #000000"/>
     <use xlink:href="#m7b318bd2ac" x="284.195934" y="179.447628" style="stroke: #000000"/>
     <use xlink:href="#m7b318bd2ac" x="202.159609" y="148.448" style="stroke: #000000"/>
     <use xlink:href="#m7b318bd2ac" x="81.088279" y="210.618507" style="stroke: #000000"/>
     <use xlink:href="#m7b318bd2ac" x="266.145994" y="189.847001" style="stroke: #000000"/>
     <use xlink:href="#m7b318bd2ac" x="160.623554" y="189.703057" style="stroke: #000000"/>
     <use xlink:href="#m7b318bd2ac" x="125.165721" y="166.447739" style="stroke: #000000"/>
     <use xlink:href="#m7b318bd2ac" x="221.182912" y="210.559257" style="stroke: #000000"/>
     <use xlink:href="#m7b318bd2ac" x="142.890354" y="182.558365" style="stroke: #000000"/>
     <use xlink:href="#m7b318bd2ac" x="54.967049" y="188.867909" style="stroke: #000000"/>
     <use xlink:href="#m7b318bd2ac" x="246.521725" y="199.639863" style="stroke: #000000"/>
     <use xlink:href="#m7b318bd2ac" x="174.275543" y="194.96347" style="stroke: #000000"/>
     <use xlink:href="#m7b318bd2ac" x="219.339106" y="182.720443" style="stroke: #000000"/>
     <use xlink:href="#m7b318bd2ac" x="171.73237" y="181.924884" style="stroke: #000000"/>
    </g>
   </g>
   <g id="PathCollection_11">
    <defs>
     <path id="m980342f4a3" d="M -3 -0 
L 3 3 
L 3 -3 
z
" style="stroke: #ff8c00"/>
    </defs>
    <g clip-path="url(#p5c5b344e47)">
     <use xlink:href="#m980342f4a3" x="176.20728" y="156.305897" style="fill: #ff8c00; stroke: #ff8c00"/>
     <use xlink:href="#m980342f4a3" x="166.575631" y="183.499382" style="fill: #ff8c00; stroke: #ff8c00"/>
     <use xlink:href="#m980342f4a3" x="178.378733" y="168.602075" style="fill: #ff8c00; stroke: #ff8c00"/>
     <use xlink:href="#m980342f4a3" x="147.06303" y="200.825202" style="fill: #ff8c00; stroke: #ff8c00"/>
     <use xlink:href="#m980342f4a3" x="192.490452" y="198.289885" style="fill: #ff8c00; stroke: #ff8c00"/>
     <use xlink:href="#m980342f4a3" x="117.111097" y="203.811095" style="fill: #ff8c00; stroke: #ff8c00"/>
     <use xlink:href="#m980342f4a3" x="150.647845" y="159.576016" style="fill: #ff8c00; stroke: #ff8c00"/>
     <use xlink:href="#m980342f4a3" x="157.927619" y="158.460773" style="fill: #ff8c00; stroke: #ff8c00"/>
     <use xlink:href="#m980342f4a3" x="214.334003" y="180.39943" style="fill: #ff8c00; stroke: #ff8c00"/>
     <use xlink:href="#m980342f4a3" x="137.506634" y="200.947717" style="fill: #ff8c00; stroke: #ff8c00"/>
     <use xlink:href="#m980342f4a3" x="154.940544" y="215.751335" style="fill: #ff8c00; stroke: #ff8c00"/>
     <use xlink:href="#m980342f4a3" x="207.144956" y="195.838798" style="fill: #ff8c00; stroke: #ff8c00"/>
     <use xlink:href="#m980342f4a3" x="185.419239" y="198.693186" style="fill: #ff8c00; stroke: #ff8c00"/>
     <use xlink:href="#m980342f4a3" x="233.955221" y="186.729543" style="fill: #ff8c00; stroke: #ff8c00"/>
     <use xlink:href="#m980342f4a3" x="324.621749" y="157.694517" style="fill: #ff8c00; stroke: #ff8c00"/>
     <use xlink:href="#m980342f4a3" x="219.25636" y="206.285951" style="fill: #ff8c00; stroke: #ff8c00"/>
     <use xlink:href="#m980342f4a3" x="101.672855" y="212.148827" style="fill: #ff8c00; stroke: #ff8c00"/>
     <use xlink:href="#m980342f4a3" x="189.647448" y="215.391133" style="fill: #ff8c00; stroke: #ff8c00"/>
     <use xlink:href="#m980342f4a3" x="151.220177" y="184.30222" style="fill: #ff8c00; stroke: #ff8c00"/>
     <use xlink:href="#m980342f4a3" x="228.456482" y="138.400768" style="fill: #ff8c00; stroke: #ff8c00"/>
     <use xlink:href="#m980342f4a3" x="174.698711" y="196.56789" style="fill: #ff8c00; stroke: #ff8c00"/>
     <use xlink:href="#m980342f4a3" x="141.020814" y="182.767104" style="fill: #ff8c00; stroke: #ff8c00"/>
     <use xlink:href="#m980342f4a3" x="194.926942" y="212.349063" style="fill: #ff8c00; stroke: #ff8c00"/>
     <use xlink:href="#m980342f4a3" x="210.717863" y="150.82138" style="fill: #ff8c00; stroke: #ff8c00"/>
     <use xlink:href="#m980342f4a3" x="140.750784" y="243.463376" style="fill: #ff8c00; stroke: #ff8c00"/>
     <use xlink:href="#m980342f4a3" x="144.989422" y="143.108644" style="fill: #ff8c00; stroke: #ff8c00"/>
     <use xlink:href="#m980342f4a3" x="138.292973" y="186.729228" style="fill: #ff8c00; stroke: #ff8c00"/>
     <use xlink:href="#m980342f4a3" x="94.658175" y="153.875242" style="fill: #ff8c00; stroke: #ff8c00"/>
     <use xlink:href="#m980342f4a3" x="265.98942" y="160.728912" style="fill: #ff8c00; stroke: #ff8c00"/>
     <use xlink:href="#m980342f4a3" x="213.011775" y="161.785435" style="fill: #ff8c00; stroke: #ff8c00"/>
     <use xlink:href="#m980342f4a3" x="249.532672" y="204.190036" style="fill: #ff8c00; stroke: #ff8c00"/>
     <use xlink:href="#m980342f4a3" x="147.823065" y="193.085299" style="fill: #ff8c00; stroke: #ff8c00"/>
     <use xlink:href="#m980342f4a3" x="159.744662" y="165.872931" style="fill: #ff8c00; stroke: #ff8c00"/>
     <use xlink:href="#m980342f4a3" x="231.337104" y="217.625162" style="fill: #ff8c00; stroke: #ff8c00"/>
     <use xlink:href="#m980342f4a3" x="127.525115" y="212.835003" style="fill: #ff8c00; stroke: #ff8c00"/>
     <use xlink:href="#m980342f4a3" x="184.276658" y="182.048079" style="fill: #ff8c00; stroke: #ff8c00"/>
     <use xlink:href="#m980342f4a3" x="199.690181" y="193.500244" style="fill: #ff8c00; stroke: #ff8c00"/>
     <use xlink:href="#m980342f4a3" x="235.828165" y="195.346051" style="fill: #ff8c00; stroke: #ff8c00"/>
     <use xlink:href="#m980342f4a3" x="151.527136" y="181.328976" style="fill: #ff8c00; stroke: #ff8c00"/>
     <use xlink:href="#m980342f4a3" x="271.413553" y="159.906493" style="fill: #ff8c00; stroke: #ff8c00"/>
     <use xlink:href="#m980342f4a3" x="206.631517" y="193.501623" style="fill: #ff8c00; stroke: #ff8c00"/>
     <use xlink:href="#m980342f4a3" x="128.566423" y="194.941348" style="fill: #ff8c00; stroke: #ff8c00"/>
     <use xlink:href="#m980342f4a3" x="232.269665" y="175.082406" style="fill: #ff8c00; stroke: #ff8c00"/>
     <use xlink:href="#m980342f4a3" x="199.231401" y="190.872555" style="fill: #ff8c00; stroke: #ff8c00"/>
     <use xlink:href="#m980342f4a3" x="175.929586" y="203.898408" style="fill: #ff8c00; stroke: #ff8c00"/>
     <use xlink:href="#m980342f4a3" x="135.979044" y="197.986943" style="fill: #ff8c00; stroke: #ff8c00"/>
     <use xlink:href="#m980342f4a3" x="148.753414" y="176.602838" style="fill: #ff8c00; stroke: #ff8c00"/>
     <use xlink:href="#m980342f4a3" x="191.629116" y="231.450991" style="fill: #ff8c00; stroke: #ff8c00"/>
     <use xlink:href="#m980342f4a3" x="133.037092" y="165.712982" style="fill: #ff8c00; stroke: #ff8c00"/>
     <use xlink:href="#m980342f4a3" x="201.348536" y="201.576961" style="fill: #ff8c00; stroke: #ff8c00"/>
     <use xlink:href="#m980342f4a3" x="325.939716" y="117.062696" style="fill: #ff8c00; stroke: #ff8c00"/>
     <use xlink:href="#m980342f4a3" x="170.162739" y="201.705771" style="fill: #ff8c00; stroke: #ff8c00"/>
     <use xlink:href="#m980342f4a3" x="224.895318" y="196.502371" style="fill: #ff8c00; stroke: #ff8c00"/>
     <use xlink:href="#m980342f4a3" x="258.171281" y="189.582621" style="fill: #ff8c00; stroke: #ff8c00"/>
     <use xlink:href="#m980342f4a3" x="197.311361" y="150.241082" style="fill: #ff8c00; stroke: #ff8c00"/>
     <use xlink:href="#m980342f4a3" x="203.633872" y="132.177144" style="fill: #ff8c00; stroke: #ff8c00"/>
     <use xlink:href="#m980342f4a3" x="215.499248" y="213.846639" style="fill: #ff8c00; stroke: #ff8c00"/>
     <use xlink:href="#m980342f4a3" x="175.190787" y="182.283742" style="fill: #ff8c00; stroke: #ff8c00"/>
     <use xlink:href="#m980342f4a3" x="200.18686" y="169.805265" style="fill: #ff8c00; stroke: #ff8c00"/>
     <use xlink:href="#m980342f4a3" x="212.689881" y="192.772232" style="fill: #ff8c00; stroke: #ff8c00"/>
     <use xlink:href="#m980342f4a3" x="180.397774" y="190.643026" style="fill: #ff8c00; stroke: #ff8c00"/>
     <use xlink:href="#m980342f4a3" x="178.858924" y="208.144739" style="fill: #ff8c00; stroke: #ff8c00"/>
     <use xlink:href="#m980342f4a3" x="174.189262" y="169.104088" style="fill: #ff8c00; stroke: #ff8c00"/>
     <use xlink:href="#m980342f4a3" x="223.746099" y="159.80749" style="fill: #ff8c00; stroke: #ff8c00"/>
    </g>
   </g>
   <g id="matplotlib.axis_1">
    <g id="xtick_1">
     <g id="line2d_1">
      <defs>
       <path id="m4a7e89af0f" d="M 0 0 
L 0 3.5 
" style="stroke: #000000; stroke-width: 0.8"/>
      </defs>
      <g>
       <use xlink:href="#m4a7e89af0f" x="51.955598" y="273.312" style="stroke: #000000; stroke-width: 0.8"/>
      </g>
     </g>
     <g id="text_1">
      <!-- −20 -->
      <g transform="translate(41.403254 287.910437) scale(0.1 -0.1)">
       <defs>
        <path id="DejaVuSans-2212" d="M 678 2272 
L 4684 2272 
L 4684 1741 
L 678 1741 
L 678 2272 
z
" transform="scale(0.015625)"/>
        <path id="DejaVuSans-32" d="M 1228 531 
L 3431 531 
L 3431 0 
L 469 0 
L 469 531 
Q 828 903 1448 1529 
Q 2069 2156 2228 2338 
Q 2531 2678 2651 2914 
Q 2772 3150 2772 3378 
Q 2772 3750 2511 3984 
Q 2250 4219 1831 4219 
Q 1534 4219 1204 4116 
Q 875 4013 500 3803 
L 500 4441 
Q 881 4594 1212 4672 
Q 1544 4750 1819 4750 
Q 2544 4750 2975 4387 
Q 3406 4025 3406 3419 
Q 3406 3131 3298 2873 
Q 3191 2616 2906 2266 
Q 2828 2175 2409 1742 
Q 1991 1309 1228 531 
z
" transform="scale(0.015625)"/>
        <path id="DejaVuSans-30" d="M 2034 4250 
Q 1547 4250 1301 3770 
Q 1056 3291 1056 2328 
Q 1056 1369 1301 889 
Q 1547 409 2034 409 
Q 2525 409 2770 889 
Q 3016 1369 3016 2328 
Q 3016 3291 2770 3770 
Q 2525 4250 2034 4250 
z
M 2034 4750 
Q 2819 4750 3233 4129 
Q 3647 3509 3647 2328 
Q 3647 1150 3233 529 
Q 2819 -91 2034 -91 
Q 1250 -91 836 529 
Q 422 1150 422 2328 
Q 422 3509 836 4129 
Q 1250 4750 2034 4750 
z
" transform="scale(0.015625)"/>
       </defs>
       <use xlink:href="#DejaVuSans-2212"/>
       <use xlink:href="#DejaVuSans-32" x="83.789062"/>
       <use xlink:href="#DejaVuSans-30" x="147.412109"/>
      </g>
     </g>
    </g>
    <g id="xtick_2">
     <g id="line2d_2">
      <g>
       <use xlink:href="#m4a7e89af0f" x="125.322029" y="273.312" style="stroke: #000000; stroke-width: 0.8"/>
      </g>
     </g>
     <g id="text_2">
      <!-- −10 -->
      <g transform="translate(114.769685 287.910437) scale(0.1 -0.1)">
       <defs>
        <path id="DejaVuSans-31" d="M 794 531 
L 1825 531 
L 1825 4091 
L 703 3866 
L 703 4441 
L 1819 4666 
L 2450 4666 
L 2450 531 
L 3481 531 
L 3481 0 
L 794 0 
L 794 531 
z
" transform="scale(0.015625)"/>
       </defs>
       <use xlink:href="#DejaVuSans-2212"/>
       <use xlink:href="#DejaVuSans-31" x="83.789062"/>
       <use xlink:href="#DejaVuSans-30" x="147.412109"/>
      </g>
     </g>
    </g>
    <g id="xtick_3">
     <g id="line2d_3">
      <g>
       <use xlink:href="#m4a7e89af0f" x="198.68846" y="273.312" style="stroke: #000000; stroke-width: 0.8"/>
      </g>
     </g>
     <g id="text_3">
      <!-- 0 -->
      <g transform="translate(195.50721 287.910437) scale(0.1 -0.1)">
       <use xlink:href="#DejaVuSans-30"/>
      </g>
     </g>
    </g>
    <g id="xtick_4">
     <g id="line2d_4">
      <g>
       <use xlink:href="#m4a7e89af0f" x="272.054891" y="273.312" style="stroke: #000000; stroke-width: 0.8"/>
      </g>
     </g>
     <g id="text_4">
      <!-- 10 -->
      <g transform="translate(265.692391 287.910437) scale(0.1 -0.1)">
       <use xlink:href="#DejaVuSans-31"/>
       <use xlink:href="#DejaVuSans-30" x="63.623047"/>
      </g>
     </g>
    </g>
    <g id="xtick_5">
     <g id="line2d_5">
      <g>
       <use xlink:href="#m4a7e89af0f" x="345.421322" y="273.312" style="stroke: #000000; stroke-width: 0.8"/>
      </g>
     </g>
     <g id="text_5">
      <!-- 20 -->
      <g transform="translate(339.058822 287.910437) scale(0.1 -0.1)">
       <use xlink:href="#DejaVuSans-32"/>
       <use xlink:href="#DejaVuSans-30" x="63.623047"/>
      </g>
     </g>
    </g>
   </g>
   <g id="matplotlib.axis_2">
    <g id="ytick_1">
     <g id="line2d_6">
      <defs>
       <path id="m48d4e27c1d" d="M 0 0 
L -3.5 0 
" style="stroke: #000000; stroke-width: 0.8"/>
      </defs>
      <g>
       <use xlink:href="#m48d4e27c1d" x="35.304688" y="261.410895" style="stroke: #000000; stroke-width: 0.8"/>
      </g>
     </g>
     <g id="text_6">
      <!-- −20 -->
      <g transform="translate(7.2 265.210114) scale(0.1 -0.1)">
       <use xlink:href="#DejaVuSans-2212"/>
       <use xlink:href="#DejaVuSans-32" x="83.789062"/>
       <use xlink:href="#DejaVuSans-30" x="147.412109"/>
      </g>
     </g>
    </g>
    <g id="ytick_2">
     <g id="line2d_7">
      <g>
       <use xlink:href="#m48d4e27c1d" x="35.304688" y="217.927685" style="stroke: #000000; stroke-width: 0.8"/>
      </g>
     </g>
     <g id="text_7">
      <!-- −10 -->
      <g transform="translate(7.2 221.726904) scale(0.1 -0.1)">
       <use xlink:href="#DejaVuSans-2212"/>
       <use xlink:href="#DejaVuSans-31" x="83.789062"/>
       <use xlink:href="#DejaVuSans-30" x="147.412109"/>
      </g>
     </g>
    </g>
    <g id="ytick_3">
     <g id="line2d_8">
      <g>
       <use xlink:href="#m48d4e27c1d" x="35.304688" y="174.444476" style="stroke: #000000; stroke-width: 0.8"/>
      </g>
     </g>
     <g id="text_8">
      <!-- 0 -->
      <g transform="translate(21.942187 178.243694) scale(0.1 -0.1)">
       <use xlink:href="#DejaVuSans-30"/>
      </g>
     </g>
    </g>
    <g id="ytick_4">
     <g id="line2d_9">
      <g>
       <use xlink:href="#m48d4e27c1d" x="35.304688" y="130.961266" style="stroke: #000000; stroke-width: 0.8"/>
      </g>
     </g>
     <g id="text_9">
      <!-- 10 -->
      <g transform="translate(15.579687 134.760484) scale(0.1 -0.1)">
       <use xlink:href="#DejaVuSans-31"/>
       <use xlink:href="#DejaVuSans-30" x="63.623047"/>
      </g>
     </g>
    </g>
    <g id="ytick_5">
     <g id="line2d_10">
      <g>
       <use xlink:href="#m48d4e27c1d" x="35.304688" y="87.478056" style="stroke: #000000; stroke-width: 0.8"/>
      </g>
     </g>
     <g id="text_10">
      <!-- 20 -->
      <g transform="translate(15.579687 91.277275) scale(0.1 -0.1)">
       <use xlink:href="#DejaVuSans-32"/>
       <use xlink:href="#DejaVuSans-30" x="63.623047"/>
      </g>
     </g>
    </g>
    <g id="ytick_6">
     <g id="line2d_11">
      <g>
       <use xlink:href="#m48d4e27c1d" x="35.304688" y="43.994846" style="stroke: #000000; stroke-width: 0.8"/>
      </g>
     </g>
     <g id="text_11">
      <!-- 30 -->
      <g transform="translate(15.579687 47.794065) scale(0.1 -0.1)">
       <defs>
        <path id="DejaVuSans-33" d="M 2597 2516 
Q 3050 2419 3304 2112 
Q 3559 1806 3559 1356 
Q 3559 666 3084 287 
Q 2609 -91 1734 -91 
Q 1441 -91 1130 -33 
Q 819 25 488 141 
L 488 750 
Q 750 597 1062 519 
Q 1375 441 1716 441 
Q 2309 441 2620 675 
Q 2931 909 2931 1356 
Q 2931 1769 2642 2001 
Q 2353 2234 1838 2234 
L 1294 2234 
L 1294 2753 
L 1863 2753 
Q 2328 2753 2575 2939 
Q 2822 3125 2822 3475 
Q 2822 3834 2567 4026 
Q 2313 4219 1838 4219 
Q 1578 4219 1281 4162 
Q 984 4106 628 3988 
L 628 4550 
Q 988 4650 1302 4700 
Q 1616 4750 1894 4750 
Q 2613 4750 3031 4423 
Q 3450 4097 3450 3541 
Q 3450 3153 3228 2886 
Q 3006 2619 2597 2516 
z
" transform="scale(0.015625)"/>
       </defs>
       <use xlink:href="#DejaVuSans-33"/>
       <use xlink:href="#DejaVuSans-30" x="63.623047"/>
      </g>
     </g>
    </g>
   </g>
   <g id="patch_3">
    <path d="M 35.304688 273.312 
L 35.304688 7.2 
" style="fill: none; stroke: #000000; stroke-width: 0.8; stroke-linejoin: miter; stroke-linecap: square"/>
   </g>
   <g id="patch_4">
    <path d="M 392.424688 273.312 
L 392.424688 7.2 
" style="fill: none; stroke: #000000; stroke-width: 0.8; stroke-linejoin: miter; stroke-linecap: square"/>
   </g>
   <g id="patch_5">
    <path d="M 35.304688 273.312 
L 392.424688 273.312 
" style="fill: none; stroke: #000000; stroke-width: 0.8; stroke-linejoin: miter; stroke-linecap: square"/>
   </g>
   <g id="patch_6">
    <path d="M 35.304688 7.2 
L 392.424688 7.2 
" style="fill: none; stroke: #000000; stroke-width: 0.8; stroke-linejoin: miter; stroke-linecap: square"/>
   </g>
  </g>
 </g>
 <defs>
  <clipPath id="p5c5b344e47">
   <rect x="35.304688" y="7.2" width="357.12" height="266.112"/>
  </clipPath>
 </defs>
</svg>
