<?xml version="1.0" encoding="utf-8" standalone="no"?>
<!DOCTYPE svg PUBLIC "-//W3C//DTD SVG 1.1//EN"
  "http://www.w3.org/Graphics/SVG/1.1/DTD/svg11.dtd">
<svg xmlns:xlink="http://www.w3.org/1999/xlink" width="399.624687pt" height="297.190125pt" viewBox="0 0 399.624687 297.190125" xmlns="http://www.w3.org/2000/svg" version="1.1">
 <metadata>
  <rdf:RDF xmlns:dc="http://purl.org/dc/elements/1.1/" xmlns:cc="http://creativecommons.org/ns#" xmlns:rdf="http://www.w3.org/1999/02/22-rdf-syntax-ns#">
   <cc:Work>
    <dc:type rdf:resource="http://purl.org/dc/dcmitype/StillImage"/>
    <dc:date>2023-11-11T13:06:25.782830</dc:date>
    <dc:format>image/svg+xml</dc:format>
    <dc:creator>
     <cc:Agent>
      <dc:title>Matplotlib v3.8.0, https://matplotlib.org/</dc:title>
     </cc:Agent>
    </dc:creator>
   </cc:Work>
  </rdf:RDF>
 </metadata>
 <defs>
  <style type="text/css">*{stroke-linejoin: round; stroke-linecap: butt}</style>
 </defs>
 <g id="figure_1">
  <g id="patch_1">
   <path d="M 0 297.190125 
L 399.624687 297.190125 
L 399.624687 0 
L 0 0 
z
" style="fill: #ffffff"/>
  </g>
  <g id="axes_1">
   <g id="patch_2">
    <path d="M 35.304688 273.312 
L 392.424688 273.312 
L 392.424688 7.2 
L 35.304688 7.2 
z
" style="fill: #ffffff"/>
   </g>
   <g id="PathCollection_1">
    <defs>
     <path id="m120116a898" d="M 0 1.5 
C 0.397805 1.5 0.77937 1.341951 1.06066 1.06066 
C 1.341951 0.77937 1.5 0.397805 1.5 0 
C 1.5 -0.397805 1.341951 -0.77937 1.06066 -1.06066 
C 0.77937 -1.341951 0.397805 -1.5 0 -1.5 
C -0.397805 -1.5 -0.77937 -1.341951 -1.06066 -1.06066 
C -1.341951 -0.77937 -1.5 -0.397805 -1.5 0 
C -1.5 0.397805 -1.341951 0.77937 -1.06066 1.06066 
C -0.77937 1.341951 -0.397805 1.5 0 1.5 
z
" style="stroke: #ff8c00"/>
    </defs>
    <g clip-path="url(#pde86b0c56a)">
     <use xlink:href="#m120116a898" x="135.460699" y="86.98352" style="fill: #ff8c00; stroke: #ff8c00"/>
     <use xlink:href="#m120116a898" x="136.193756" y="134.239489" style="fill: #ff8c00; stroke: #ff8c00"/>
     <use xlink:href="#m120116a898" x="150.542212" y="94.975213" style="fill: #ff8c00; stroke: #ff8c00"/>
     <use xlink:href="#m120116a898" x="209.285645" y="185.885763" style="fill: #ff8c00; stroke: #ff8c00"/>
     <use xlink:href="#m120116a898" x="187.095235" y="148.512475" style="fill: #ff8c00; stroke: #ff8c00"/>
     <use xlink:href="#m120116a898" x="121.575626" y="97.77924" style="fill: #ff8c00; stroke: #ff8c00"/>
     <use xlink:href="#m120116a898" x="110.584801" y="137.529545" style="fill: #ff8c00; stroke: #ff8c00"/>
     <use xlink:href="#m120116a898" x="165.79086" y="74.874447" style="fill: #ff8c00; stroke: #ff8c00"/>
     <use xlink:href="#m120116a898" x="157.886746" y="160.757622" style="fill: #ff8c00; stroke: #ff8c00"/>
     <use xlink:href="#m120116a898" x="134.924125" y="121.994547" style="fill: #ff8c00; stroke: #ff8c00"/>
     <use xlink:href="#m120116a898" x="187.458462" y="126.564545" style="fill: #ff8c00; stroke: #ff8c00"/>
     <use xlink:href="#m120116a898" x="161.085215" y="161.915136" style="fill: #ff8c00; stroke: #ff8c00"/>
     <use xlink:href="#m120116a898" x="171.593299" y="162.561899" style="fill: #ff8c00; stroke: #ff8c00"/>
     <use xlink:href="#m120116a898" x="148.477419" y="162.337334" style="fill: #ff8c00; stroke: #ff8c00"/>
     <use xlink:href="#m120116a898" x="230.677481" y="141.041203" style="fill: #ff8c00; stroke: #ff8c00"/>
     <use xlink:href="#m120116a898" x="143.892487" y="146.433638" style="fill: #ff8c00; stroke: #ff8c00"/>
    </g>
   </g>
   <g id="PathCollection_2">
    <defs>
     <path id="m217fcc1767" d="M 0 1.5 
C 0.397805 1.5 0.77937 1.341951 1.06066 1.06066 
C 1.341951 0.77937 1.5 0.397805 1.5 0 
C 1.5 -0.397805 1.341951 -0.77937 1.06066 -1.06066 
C 0.77937 -1.341951 0.397805 -1.5 0 -1.5 
C -0.397805 -1.5 -0.77937 -1.341951 -1.06066 -1.06066 
C -1.341951 -0.77937 -1.5 -0.397805 -1.5 0 
C -1.5 0.397805 -1.341951 0.77937 -1.06066 1.06066 
C -0.77937 1.341951 -0.397805 1.5 0 1.5 
z
" style="stroke: #006400"/>
    </defs>
    <g clip-path="url(#pde86b0c56a)">
     <use xlink:href="#m217fcc1767" x="225.033205" y="125.830511" style="fill: #006400; stroke: #006400"/>
     <use xlink:href="#m217fcc1767" x="167.889346" y="114.309291" style="fill: #006400; stroke: #006400"/>
     <use xlink:href="#m217fcc1767" x="376.19196" y="106.579235" style="fill: #006400; stroke: #006400"/>
     <use xlink:href="#m217fcc1767" x="356.048303" y="165.520687" style="fill: #006400; stroke: #006400"/>
     <use xlink:href="#m217fcc1767" x="195.204512" y="108.002185" style="fill: #006400; stroke: #006400"/>
     <use xlink:href="#m217fcc1767" x="199.381139" y="182.38651" style="fill: #006400; stroke: #006400"/>
     <use xlink:href="#m217fcc1767" x="242.490043" y="127.699986" style="fill: #006400; stroke: #006400"/>
     <use xlink:href="#m217fcc1767" x="213.589664" y="19.296" style="fill: #006400; stroke: #006400"/>
     <use xlink:href="#m217fcc1767" x="168.712747" y="130.944919" style="fill: #006400; stroke: #006400"/>
     <use xlink:href="#m217fcc1767" x="230.019562" y="54.856567" style="fill: #006400; stroke: #006400"/>
     <use xlink:href="#m217fcc1767" x="174.053041" y="150.219863" style="fill: #006400; stroke: #006400"/>
     <use xlink:href="#m217fcc1767" x="179.277894" y="86.768147" style="fill: #006400; stroke: #006400"/>
     <use xlink:href="#m217fcc1767" x="201.429424" y="174.813552" style="fill: #006400; stroke: #006400"/>
     <use xlink:href="#m217fcc1767" x="251.134608" y="143.286822" style="fill: #006400; stroke: #006400"/>
    </g>
   </g>
   <g id="PathCollection_3">
    <defs>
     <path id="mdc8b94d1c4" d="M 0 1.5 
C 0.397805 1.5 0.77937 1.341951 1.06066 1.06066 
C 1.341951 0.77937 1.5 0.397805 1.5 0 
C 1.5 -0.397805 1.341951 -0.77937 1.06066 -1.06066 
C 0.77937 -1.341951 0.397805 -1.5 0 -1.5 
C -0.397805 -1.5 -0.77937 -1.341951 -1.06066 -1.06066 
C -1.341951 -0.77937 -1.5 -0.397805 -1.5 0 
C -1.5 0.397805 -1.341951 0.77937 -1.06066 1.06066 
C -0.77937 1.341951 -0.397805 1.5 0 1.5 
z
" style="stroke: #2f4f4f"/>
    </defs>
    <g clip-path="url(#pde86b0c56a)">
     <use xlink:href="#mdc8b94d1c4" x="123.425711" y="129.238851" style="fill: #2f4f4f; stroke: #2f4f4f"/>
     <use xlink:href="#mdc8b94d1c4" x="143.935735" y="134.622127" style="fill: #2f4f4f; stroke: #2f4f4f"/>
     <use xlink:href="#mdc8b94d1c4" x="127.201687" y="161.345104" style="fill: #2f4f4f; stroke: #2f4f4f"/>
     <use xlink:href="#mdc8b94d1c4" x="163.591777" y="183.17926" style="fill: #2f4f4f; stroke: #2f4f4f"/>
     <use xlink:href="#mdc8b94d1c4" x="163.239849" y="198.366366" style="fill: #2f4f4f; stroke: #2f4f4f"/>
     <use xlink:href="#mdc8b94d1c4" x="131.202954" y="153.883438" style="fill: #2f4f4f; stroke: #2f4f4f"/>
     <use xlink:href="#mdc8b94d1c4" x="113.450224" y="109.848322" style="fill: #2f4f4f; stroke: #2f4f4f"/>
     <use xlink:href="#mdc8b94d1c4" x="193.922137" y="147.74597" style="fill: #2f4f4f; stroke: #2f4f4f"/>
     <use xlink:href="#mdc8b94d1c4" x="134.465125" y="151.605471" style="fill: #2f4f4f; stroke: #2f4f4f"/>
     <use xlink:href="#mdc8b94d1c4" x="150.206811" y="141.442766" style="fill: #2f4f4f; stroke: #2f4f4f"/>
     <use xlink:href="#mdc8b94d1c4" x="51.537415" y="124.256823" style="fill: #2f4f4f; stroke: #2f4f4f"/>
     <use xlink:href="#mdc8b94d1c4" x="171.921467" y="103.307396" style="fill: #2f4f4f; stroke: #2f4f4f"/>
    </g>
   </g>
   <g id="PathCollection_4">
    <defs>
     <path id="m65e93dfb0e" d="M 0 1.5 
C 0.397805 1.5 0.77937 1.341951 1.06066 1.06066 
C 1.341951 0.77937 1.5 0.397805 1.5 0 
C 1.5 -0.397805 1.341951 -0.77937 1.06066 -1.06066 
C 0.77937 -1.341951 0.397805 -1.5 0 -1.5 
C -0.397805 -1.5 -0.77937 -1.341951 -1.06066 -1.06066 
C -1.341951 -0.77937 -1.5 -0.397805 -1.5 0 
C -1.5 0.397805 -1.341951 0.77937 -1.06066 1.06066 
C -0.77937 1.341951 -0.397805 1.5 0 1.5 
z
" style="stroke: #00bfff"/>
    </defs>
    <g clip-path="url(#pde86b0c56a)">
     <use xlink:href="#m65e93dfb0e" x="97.642504" y="102.498269" style="fill: #00bfff; stroke: #00bfff"/>
     <use xlink:href="#m65e93dfb0e" x="126.696923" y="157.568319" style="fill: #00bfff; stroke: #00bfff"/>
     <use xlink:href="#m65e93dfb0e" x="143.089374" y="148.143384" style="fill: #00bfff; stroke: #00bfff"/>
     <use xlink:href="#m65e93dfb0e" x="168.223661" y="159.489259" style="fill: #00bfff; stroke: #00bfff"/>
     <use xlink:href="#m65e93dfb0e" x="206.480976" y="159.658407" style="fill: #00bfff; stroke: #00bfff"/>
     <use xlink:href="#m65e93dfb0e" x="112.050748" y="145.019967" style="fill: #00bfff; stroke: #00bfff"/>
     <use xlink:href="#m65e93dfb0e" x="126.626335" y="141.282154" style="fill: #00bfff; stroke: #00bfff"/>
     <use xlink:href="#m65e93dfb0e" x="178.702898" y="191.788367" style="fill: #00bfff; stroke: #00bfff"/>
     <use xlink:href="#m65e93dfb0e" x="151.828723" y="182.515564" style="fill: #00bfff; stroke: #00bfff"/>
     <use xlink:href="#m65e93dfb0e" x="194.347143" y="197.592917" style="fill: #00bfff; stroke: #00bfff"/>
     <use xlink:href="#m65e93dfb0e" x="180.766223" y="107.159976" style="fill: #00bfff; stroke: #00bfff"/>
     <use xlink:href="#m65e93dfb0e" x="136.144308" y="179.950983" style="fill: #00bfff; stroke: #00bfff"/>
     <use xlink:href="#m65e93dfb0e" x="139.245157" y="133.309368" style="fill: #00bfff; stroke: #00bfff"/>
    </g>
   </g>
   <g id="PathCollection_5">
    <defs>
     <path id="m2e0779d5c0" d="M 0 1.5 
C 0.397805 1.5 0.77937 1.341951 1.06066 1.06066 
C 1.341951 0.77937 1.5 0.397805 1.5 0 
C 1.5 -0.397805 1.341951 -0.77937 1.06066 -1.06066 
C 0.77937 -1.341951 0.397805 -1.5 0 -1.5 
C -0.397805 -1.5 -0.77937 -1.341951 -1.06066 -1.06066 
C -1.341951 -0.77937 -1.5 -0.397805 -1.5 0 
C -1.5 0.397805 -1.341951 0.77937 -1.06066 1.06066 
C -0.77937 1.341951 -0.397805 1.5 0 1.5 
z
" style="stroke: #ffff00"/>
    </defs>
    <g clip-path="url(#pde86b0c56a)">
     <use xlink:href="#m2e0779d5c0" x="153.983146" y="140.400545" style="fill: #ffff00; stroke: #ffff00"/>
     <use xlink:href="#m2e0779d5c0" x="94.660729" y="129.963677" style="fill: #ffff00; stroke: #ffff00"/>
     <use xlink:href="#m2e0779d5c0" x="124.050775" y="147.515524" style="fill: #ffff00; stroke: #ffff00"/>
     <use xlink:href="#m2e0779d5c0" x="147.436743" y="115.537058" style="fill: #ffff00; stroke: #ffff00"/>
     <use xlink:href="#m2e0779d5c0" x="133.88048" y="122.538254" style="fill: #ffff00; stroke: #ffff00"/>
     <use xlink:href="#m2e0779d5c0" x="152.399015" y="162.12729" style="fill: #ffff00; stroke: #ffff00"/>
     <use xlink:href="#m2e0779d5c0" x="111.313015" y="140.840278" style="fill: #ffff00; stroke: #ffff00"/>
     <use xlink:href="#m2e0779d5c0" x="149.936699" y="67.183103" style="fill: #ffff00; stroke: #ffff00"/>
     <use xlink:href="#m2e0779d5c0" x="113.21365" y="111.688136" style="fill: #ffff00; stroke: #ffff00"/>
     <use xlink:href="#m2e0779d5c0" x="149.156203" y="151.524563" style="fill: #ffff00; stroke: #ffff00"/>
     <use xlink:href="#m2e0779d5c0" x="348.984707" y="21.003094" style="fill: #ffff00; stroke: #ffff00"/>
     <use xlink:href="#m2e0779d5c0" x="94.398767" y="136.776544" style="fill: #ffff00; stroke: #ffff00"/>
     <use xlink:href="#m2e0779d5c0" x="158.187106" y="77.849796" style="fill: #ffff00; stroke: #ffff00"/>
    </g>
   </g>
   <g id="PathCollection_6">
    <defs>
     <path id="m2ba3fa8350" d="M 0 1.5 
C 0.397805 1.5 0.77937 1.341951 1.06066 1.06066 
C 1.341951 0.77937 1.5 0.397805 1.5 0 
C 1.5 -0.397805 1.341951 -0.77937 1.06066 -1.06066 
C 0.77937 -1.341951 0.397805 -1.5 0 -1.5 
C -0.397805 -1.5 -0.77937 -1.341951 -1.06066 -1.06066 
C -1.341951 -0.77937 -1.5 -0.397805 -1.5 0 
C -1.5 0.397805 -1.341951 0.77937 -1.06066 1.06066 
C -0.77937 1.341951 -0.397805 1.5 0 1.5 
z
" style="stroke: #00ffff"/>
    </defs>
    <g clip-path="url(#pde86b0c56a)">
     <use xlink:href="#m2ba3fa8350" x="184.232347" y="164.012975" style="fill: #00ffff; stroke: #00ffff"/>
     <use xlink:href="#m2ba3fa8350" x="133.302549" y="137.266514" style="fill: #00ffff; stroke: #00ffff"/>
     <use xlink:href="#m2ba3fa8350" x="188.5947" y="246.017423" style="fill: #00ffff; stroke: #00ffff"/>
     <use xlink:href="#m2ba3fa8350" x="79.476897" y="162.512566" style="fill: #00ffff; stroke: #00ffff"/>
     <use xlink:href="#m2ba3fa8350" x="157.076164" y="129.112943" style="fill: #00ffff; stroke: #00ffff"/>
     <use xlink:href="#m2ba3fa8350" x="169.169664" y="172.270197" style="fill: #00ffff; stroke: #00ffff"/>
     <use xlink:href="#m2ba3fa8350" x="174.787869" y="217.541747" style="fill: #00ffff; stroke: #00ffff"/>
     <use xlink:href="#m2ba3fa8350" x="117.060081" y="161.51642" style="fill: #00ffff; stroke: #00ffff"/>
     <use xlink:href="#m2ba3fa8350" x="126.234127" y="136.835817" style="fill: #00ffff; stroke: #00ffff"/>
     <use xlink:href="#m2ba3fa8350" x="175.687582" y="190.103287" style="fill: #00ffff; stroke: #00ffff"/>
     <use xlink:href="#m2ba3fa8350" x="115.967009" y="129.551979" style="fill: #00ffff; stroke: #00ffff"/>
     <use xlink:href="#m2ba3fa8350" x="103.055904" y="172.703639" style="fill: #00ffff; stroke: #00ffff"/>
     <use xlink:href="#m2ba3fa8350" x="123.247679" y="120.906913" style="fill: #00ffff; stroke: #00ffff"/>
     <use xlink:href="#m2ba3fa8350" x="150.526188" y="159.341955" style="fill: #00ffff; stroke: #00ffff"/>
     <use xlink:href="#m2ba3fa8350" x="131.673893" y="169.749397" style="fill: #00ffff; stroke: #00ffff"/>
    </g>
   </g>
   <g id="PathCollection_7">
    <defs>
     <path id="me60825bfb5" d="M 0 1.5 
C 0.397805 1.5 0.77937 1.341951 1.06066 1.06066 
C 1.341951 0.77937 1.5 0.397805 1.5 0 
C 1.5 -0.397805 1.341951 -0.77937 1.06066 -1.06066 
C 0.77937 -1.341951 0.397805 -1.5 0 -1.5 
C -0.397805 -1.5 -0.77937 -1.341951 -1.06066 -1.06066 
C -1.341951 -0.77937 -1.5 -0.397805 -1.5 0 
C -1.5 0.397805 -1.341951 0.77937 -1.06066 1.06066 
C -0.77937 1.341951 -0.397805 1.5 0 1.5 
z
" style="stroke: #0000ff"/>
    </defs>
    <g clip-path="url(#pde86b0c56a)">
     <use xlink:href="#me60825bfb5" x="145.491835" y="163.172354" style="fill: #0000ff; stroke: #0000ff"/>
     <use xlink:href="#me60825bfb5" x="107.003682" y="128.928961" style="fill: #0000ff; stroke: #0000ff"/>
     <use xlink:href="#me60825bfb5" x="121.200516" y="155.310378" style="fill: #0000ff; stroke: #0000ff"/>
     <use xlink:href="#me60825bfb5" x="157.000757" y="146.824504" style="fill: #0000ff; stroke: #0000ff"/>
     <use xlink:href="#me60825bfb5" x="134.279183" y="137.613804" style="fill: #0000ff; stroke: #0000ff"/>
     <use xlink:href="#me60825bfb5" x="200.912024" y="171.69328" style="fill: #0000ff; stroke: #0000ff"/>
     <use xlink:href="#me60825bfb5" x="164.423245" y="117.098306" style="fill: #0000ff; stroke: #0000ff"/>
     <use xlink:href="#me60825bfb5" x="157.170385" y="111.074396" style="fill: #0000ff; stroke: #0000ff"/>
     <use xlink:href="#me60825bfb5" x="147.128937" y="136.456006" style="fill: #0000ff; stroke: #0000ff"/>
     <use xlink:href="#me60825bfb5" x="150.719878" y="174.820413" style="fill: #0000ff; stroke: #0000ff"/>
     <use xlink:href="#me60825bfb5" x="170.435808" y="168.40046" style="fill: #0000ff; stroke: #0000ff"/>
     <use xlink:href="#me60825bfb5" x="175.62445" y="196.416117" style="fill: #0000ff; stroke: #0000ff"/>
     <use xlink:href="#me60825bfb5" x="111.694074" y="106.223858" style="fill: #0000ff; stroke: #0000ff"/>
     <use xlink:href="#me60825bfb5" x="159.960437" y="149.077561" style="fill: #0000ff; stroke: #0000ff"/>
     <use xlink:href="#me60825bfb5" x="146.76495" y="125.230362" style="fill: #0000ff; stroke: #0000ff"/>
     <use xlink:href="#me60825bfb5" x="111.820517" y="136.801959" style="fill: #0000ff; stroke: #0000ff"/>
     <use xlink:href="#me60825bfb5" x="102.950641" y="133.606694" style="fill: #0000ff; stroke: #0000ff"/>
     <use xlink:href="#me60825bfb5" x="115.59773" y="128.449361" style="fill: #0000ff; stroke: #0000ff"/>
     <use xlink:href="#me60825bfb5" x="181.17154" y="161.326099" style="fill: #0000ff; stroke: #0000ff"/>
     <use xlink:href="#me60825bfb5" x="140.87501" y="146.88239" style="fill: #0000ff; stroke: #0000ff"/>
     <use xlink:href="#me60825bfb5" x="119.557667" y="172.69108" style="fill: #0000ff; stroke: #0000ff"/>
    </g>
   </g>
   <g id="PathCollection_8">
    <defs>
     <path id="m4f9c76c7d5" d="M 0 1.5 
C 0.397805 1.5 0.77937 1.341951 1.06066 1.06066 
C 1.341951 0.77937 1.5 0.397805 1.5 0 
C 1.5 -0.397805 1.341951 -0.77937 1.06066 -1.06066 
C 0.77937 -1.341951 0.397805 -1.5 0 -1.5 
C -0.397805 -1.5 -0.77937 -1.341951 -1.06066 -1.06066 
C -1.341951 -0.77937 -1.5 -0.397805 -1.5 0 
C -1.5 0.397805 -1.341951 0.77937 -1.06066 1.06066 
C -0.77937 1.341951 -0.397805 1.5 0 1.5 
z
" style="stroke: #dc143c"/>
    </defs>
    <g clip-path="url(#pde86b0c56a)">
     <use xlink:href="#m4f9c76c7d5" x="148.228637" y="100.350039" style="fill: #dc143c; stroke: #dc143c"/>
     <use xlink:href="#m4f9c76c7d5" x="93.378098" y="87.880515" style="fill: #dc143c; stroke: #dc143c"/>
     <use xlink:href="#m4f9c76c7d5" x="125.342301" y="193.447759" style="fill: #dc143c; stroke: #dc143c"/>
     <use xlink:href="#m4f9c76c7d5" x="228.405961" y="140.070378" style="fill: #dc143c; stroke: #dc143c"/>
     <use xlink:href="#m4f9c76c7d5" x="107.685593" y="116.881725" style="fill: #dc143c; stroke: #dc143c"/>
     <use xlink:href="#m4f9c76c7d5" x="156.92403" y="134.370497" style="fill: #dc143c; stroke: #dc143c"/>
     <use xlink:href="#m4f9c76c7d5" x="95.720362" y="149.014641" style="fill: #dc143c; stroke: #dc143c"/>
     <use xlink:href="#m4f9c76c7d5" x="150.246473" y="63.562496" style="fill: #dc143c; stroke: #dc143c"/>
     <use xlink:href="#m4f9c76c7d5" x="118.106897" y="89.870597" style="fill: #dc143c; stroke: #dc143c"/>
     <use xlink:href="#m4f9c76c7d5" x="106.540681" y="48.877375" style="fill: #dc143c; stroke: #dc143c"/>
     <use xlink:href="#m4f9c76c7d5" x="114.761527" y="147.691824" style="fill: #dc143c; stroke: #dc143c"/>
     <use xlink:href="#m4f9c76c7d5" x="114.453808" y="138.512809" style="fill: #dc143c; stroke: #dc143c"/>
     <use xlink:href="#m4f9c76c7d5" x="197.761916" y="150.473963" style="fill: #dc143c; stroke: #dc143c"/>
    </g>
   </g>
   <g id="PathCollection_9">
    <defs>
     <path id="m252da8f44f" d="M 0 1.5 
C 0.397805 1.5 0.77937 1.341951 1.06066 1.06066 
C 1.341951 0.77937 1.5 0.397805 1.5 0 
C 1.5 -0.397805 1.341951 -0.77937 1.06066 -1.06066 
C 0.77937 -1.341951 0.397805 -1.5 0 -1.5 
C -0.397805 -1.5 -0.77937 -1.341951 -1.06066 -1.06066 
C -1.341951 -0.77937 -1.5 -0.397805 -1.5 0 
C -1.5 0.397805 -1.341951 0.77937 -1.06066 1.06066 
C -0.77937 1.341951 -0.397805 1.5 0 1.5 
z
" style="stroke: #ffe4c4"/>
    </defs>
    <g clip-path="url(#pde86b0c56a)">
     <use xlink:href="#m252da8f44f" x="251.508242" y="245.451094" style="fill: #ffe4c4; stroke: #ffe4c4"/>
     <use xlink:href="#m252da8f44f" x="180.717579" y="192.93833" style="fill: #ffe4c4; stroke: #ffe4c4"/>
     <use xlink:href="#m252da8f44f" x="217.643406" y="146.156289" style="fill: #ffe4c4; stroke: #ffe4c4"/>
     <use xlink:href="#m252da8f44f" x="213.521787" y="131.82876" style="fill: #ffe4c4; stroke: #ffe4c4"/>
     <use xlink:href="#m252da8f44f" x="214.626761" y="161.264565" style="fill: #ffe4c4; stroke: #ffe4c4"/>
     <use xlink:href="#m252da8f44f" x="185.539971" y="214.547007" style="fill: #ffe4c4; stroke: #ffe4c4"/>
     <use xlink:href="#m252da8f44f" x="146.010238" y="238.899856" style="fill: #ffe4c4; stroke: #ffe4c4"/>
     <use xlink:href="#m252da8f44f" x="193.719226" y="106.768992" style="fill: #ffe4c4; stroke: #ffe4c4"/>
     <use xlink:href="#m252da8f44f" x="210.335092" y="147.109206" style="fill: #ffe4c4; stroke: #ffe4c4"/>
     <use xlink:href="#m252da8f44f" x="240.089663" y="95.477291" style="fill: #ffe4c4; stroke: #ffe4c4"/>
     <use xlink:href="#m252da8f44f" x="245.56205" y="150.325992" style="fill: #ffe4c4; stroke: #ffe4c4"/>
    </g>
   </g>
   <g id="PathCollection_10">
    <defs>
     <path id="m84a39da16a" d="M -2.99994 2.99994 
L 3.00006 2.99994 
L 3.00006 -3.00006 
L -2.99994 -3.00006 
z
" style="stroke: #000000"/>
    </defs>
    <g clip-path="url(#pde86b0c56a)">
     <use xlink:href="#m84a39da16a" x="247.762806" y="177.32063" style="stroke: #000000"/>
     <use xlink:href="#m84a39da16a" x="183.923089" y="217.956146" style="stroke: #000000"/>
     <use xlink:href="#m84a39da16a" x="242.556489" y="129.802648" style="stroke: #000000"/>
     <use xlink:href="#m84a39da16a" x="245.731339" y="131.362768" style="stroke: #000000"/>
     <use xlink:href="#m84a39da16a" x="144.172352" y="159.467506" style="stroke: #000000"/>
     <use xlink:href="#m84a39da16a" x="177.712012" y="156.307427" style="stroke: #000000"/>
     <use xlink:href="#m84a39da16a" x="135.720596" y="189.455108" style="stroke: #000000"/>
     <use xlink:href="#m84a39da16a" x="143.468173" y="148.596148" style="stroke: #000000"/>
     <use xlink:href="#m84a39da16a" x="193.920185" y="141.290836" style="stroke: #000000"/>
     <use xlink:href="#m84a39da16a" x="265.098918" y="91.748335" style="stroke: #000000"/>
     <use xlink:href="#m84a39da16a" x="227.300194" y="161.650053" style="stroke: #000000"/>
     <use xlink:href="#m84a39da16a" x="325.204222" y="147.608458" style="stroke: #000000"/>
     <use xlink:href="#m84a39da16a" x="124.926886" y="143.168133" style="stroke: #000000"/>
     <use xlink:href="#m84a39da16a" x="245.505961" y="81.620993" style="stroke: #000000"/>
     <use xlink:href="#m84a39da16a" x="209.506961" y="198.206963" style="stroke: #000000"/>
     <use xlink:href="#m84a39da16a" x="161.0894" y="157.226603" style="stroke: #000000"/>
     <use xlink:href="#m84a39da16a" x="274.690042" y="126.824741" style="stroke: #000000"/>
     <use xlink:href="#m84a39da16a" x="203.896473" y="176.685595" style="stroke: #000000"/>
     <use xlink:href="#m84a39da16a" x="218.044023" y="163.751434" style="stroke: #000000"/>
     <use xlink:href="#m84a39da16a" x="314.553232" y="95.62841" style="stroke: #000000"/>
     <use xlink:href="#m84a39da16a" x="245.477256" y="209.989721" style="stroke: #000000"/>
     <use xlink:href="#m84a39da16a" x="138.171474" y="180.140621" style="stroke: #000000"/>
     <use xlink:href="#m84a39da16a" x="202.849189" y="178.351129" style="stroke: #000000"/>
     <use xlink:href="#m84a39da16a" x="195.983707" y="148.465862" style="stroke: #000000"/>
     <use xlink:href="#m84a39da16a" x="279.216728" y="165.756626" style="stroke: #000000"/>
     <use xlink:href="#m84a39da16a" x="156.106318" y="165.903507" style="stroke: #000000"/>
     <use xlink:href="#m84a39da16a" x="286.445199" y="109.830374" style="stroke: #000000"/>
     <use xlink:href="#m84a39da16a" x="147.840791" y="126.993048" style="stroke: #000000"/>
     <use xlink:href="#m84a39da16a" x="323.299085" y="197.88504" style="stroke: #000000"/>
     <use xlink:href="#m84a39da16a" x="191.779457" y="138.231262" style="stroke: #000000"/>
     <use xlink:href="#m84a39da16a" x="257.16574" y="111.808659" style="stroke: #000000"/>
     <use xlink:href="#m84a39da16a" x="253.105845" y="166.868432" style="stroke: #000000"/>
     <use xlink:href="#m84a39da16a" x="195.012418" y="261.216" style="stroke: #000000"/>
     <use xlink:href="#m84a39da16a" x="198.449363" y="145.944448" style="stroke: #000000"/>
     <use xlink:href="#m84a39da16a" x="233.005469" y="200.784517" style="stroke: #000000"/>
     <use xlink:href="#m84a39da16a" x="279.387613" y="104.790719" style="stroke: #000000"/>
     <use xlink:href="#m84a39da16a" x="175.939677" y="183.454007" style="stroke: #000000"/>
     <use xlink:href="#m84a39da16a" x="181.28394" y="207.81084" style="stroke: #000000"/>
     <use xlink:href="#m84a39da16a" x="280.025568" y="104.937153" style="stroke: #000000"/>
     <use xlink:href="#m84a39da16a" x="230.335495" y="180.737719" style="stroke: #000000"/>
     <use xlink:href="#m84a39da16a" x="204.040336" y="158.959697" style="stroke: #000000"/>
     <use xlink:href="#m84a39da16a" x="307.057814" y="69.714203" style="stroke: #000000"/>
     <use xlink:href="#m84a39da16a" x="121.980458" y="133.086445" style="stroke: #000000"/>
     <use xlink:href="#m84a39da16a" x="173.701661" y="177.370457" style="stroke: #000000"/>
     <use xlink:href="#m84a39da16a" x="249.096161" y="128.720979" style="stroke: #000000"/>
     <use xlink:href="#m84a39da16a" x="331.017329" y="194.521541" style="stroke: #000000"/>
     <use xlink:href="#m84a39da16a" x="217.496061" y="172.165586" style="stroke: #000000"/>
     <use xlink:href="#m84a39da16a" x="118.800728" y="115.117071" style="stroke: #000000"/>
     <use xlink:href="#m84a39da16a" x="173.946432" y="186.675404" style="stroke: #000000"/>
     <use xlink:href="#m84a39da16a" x="288.784006" y="128.931499" style="stroke: #000000"/>
     <use xlink:href="#m84a39da16a" x="227.332773" y="108.24174" style="stroke: #000000"/>
     <use xlink:href="#m84a39da16a" x="344.780838" y="123.8733" style="stroke: #000000"/>
     <use xlink:href="#m84a39da16a" x="115.835978" y="150.872668" style="stroke: #000000"/>
     <use xlink:href="#m84a39da16a" x="191.779457" y="138.231262" style="stroke: #000000"/>
     <use xlink:href="#m84a39da16a" x="281.018795" y="119.244204" style="stroke: #000000"/>
     <use xlink:href="#m84a39da16a" x="209.485791" y="133.198778" style="stroke: #000000"/>
     <use xlink:href="#m84a39da16a" x="271.720885" y="151.217104" style="stroke: #000000"/>
     <use xlink:href="#m84a39da16a" x="221.26756" y="198.11441" style="stroke: #000000"/>
     <use xlink:href="#m84a39da16a" x="211.16287" y="192.937447" style="stroke: #000000"/>
     <use xlink:href="#m84a39da16a" x="219.124089" y="119.261884" style="stroke: #000000"/>
     <use xlink:href="#m84a39da16a" x="127.856334" y="166.831434" style="stroke: #000000"/>
     <use xlink:href="#m84a39da16a" x="218.700243" y="196.360139" style="stroke: #000000"/>
     <use xlink:href="#m84a39da16a" x="282.400008" y="120.23681" style="stroke: #000000"/>
     <use xlink:href="#m84a39da16a" x="183.423467" y="147.415269" style="stroke: #000000"/>
    </g>
   </g>
   <g id="PathCollection_11">
    <defs>
     <path id="m5c8256b2a0" d="M -3 -0 
L 3 3 
L 3 -3 
z
" style="stroke: #ff8c00"/>
    </defs>
    <g clip-path="url(#pde86b0c56a)">
     <use xlink:href="#m5c8256b2a0" x="213.174131" y="146.467569" style="fill: #ff8c00; stroke: #ff8c00"/>
     <use xlink:href="#m5c8256b2a0" x="153.312128" y="117.526076" style="fill: #ff8c00; stroke: #ff8c00"/>
     <use xlink:href="#m5c8256b2a0" x="228.983961" y="149.282109" style="fill: #ff8c00; stroke: #ff8c00"/>
     <use xlink:href="#m5c8256b2a0" x="187.502818" y="147.369735" style="fill: #ff8c00; stroke: #ff8c00"/>
     <use xlink:href="#m5c8256b2a0" x="333.264567" y="181.766285" style="fill: #ff8c00; stroke: #ff8c00"/>
     <use xlink:href="#m5c8256b2a0" x="264.586416" y="129.083512" style="fill: #ff8c00; stroke: #ff8c00"/>
     <use xlink:href="#m5c8256b2a0" x="183.845274" y="170.41394" style="fill: #ff8c00; stroke: #ff8c00"/>
     <use xlink:href="#m5c8256b2a0" x="216.955285" y="103.412217" style="fill: #ff8c00; stroke: #ff8c00"/>
     <use xlink:href="#m5c8256b2a0" x="263.880326" y="232.826876" style="fill: #ff8c00; stroke: #ff8c00"/>
     <use xlink:href="#m5c8256b2a0" x="232.482553" y="187.630443" style="fill: #ff8c00; stroke: #ff8c00"/>
     <use xlink:href="#m5c8256b2a0" x="236.776615" y="149.466593" style="fill: #ff8c00; stroke: #ff8c00"/>
     <use xlink:href="#m5c8256b2a0" x="243.636245" y="241.296817" style="fill: #ff8c00; stroke: #ff8c00"/>
     <use xlink:href="#m5c8256b2a0" x="278.505294" y="102.550989" style="fill: #ff8c00; stroke: #ff8c00"/>
     <use xlink:href="#m5c8256b2a0" x="149.59234" y="73.150879" style="fill: #ff8c00; stroke: #ff8c00"/>
     <use xlink:href="#m5c8256b2a0" x="169.244215" y="139.254386" style="fill: #ff8c00; stroke: #ff8c00"/>
     <use xlink:href="#m5c8256b2a0" x="314.50683" y="144.914341" style="fill: #ff8c00; stroke: #ff8c00"/>
     <use xlink:href="#m5c8256b2a0" x="186.211127" y="146.91665" style="fill: #ff8c00; stroke: #ff8c00"/>
     <use xlink:href="#m5c8256b2a0" x="181.715022" y="130.744611" style="fill: #ff8c00; stroke: #ff8c00"/>
     <use xlink:href="#m5c8256b2a0" x="196.866269" y="156.529645" style="fill: #ff8c00; stroke: #ff8c00"/>
     <use xlink:href="#m5c8256b2a0" x="159.758878" y="161.845526" style="fill: #ff8c00; stroke: #ff8c00"/>
     <use xlink:href="#m5c8256b2a0" x="164.352104" y="147.7332" style="fill: #ff8c00; stroke: #ff8c00"/>
     <use xlink:href="#m5c8256b2a0" x="170.824368" y="38.908295" style="fill: #ff8c00; stroke: #ff8c00"/>
     <use xlink:href="#m5c8256b2a0" x="154.643538" y="148.95412" style="fill: #ff8c00; stroke: #ff8c00"/>
     <use xlink:href="#m5c8256b2a0" x="148.757443" y="164.551397" style="fill: #ff8c00; stroke: #ff8c00"/>
     <use xlink:href="#m5c8256b2a0" x="225.411532" y="144.651418" style="fill: #ff8c00; stroke: #ff8c00"/>
     <use xlink:href="#m5c8256b2a0" x="208.518696" y="176.771903" style="fill: #ff8c00; stroke: #ff8c00"/>
     <use xlink:href="#m5c8256b2a0" x="271.669849" y="93.37172" style="fill: #ff8c00; stroke: #ff8c00"/>
     <use xlink:href="#m5c8256b2a0" x="259.950657" y="183.913284" style="fill: #ff8c00; stroke: #ff8c00"/>
     <use xlink:href="#m5c8256b2a0" x="235.759259" y="157.383664" style="fill: #ff8c00; stroke: #ff8c00"/>
     <use xlink:href="#m5c8256b2a0" x="232.482553" y="187.630443" style="fill: #ff8c00; stroke: #ff8c00"/>
     <use xlink:href="#m5c8256b2a0" x="225.875238" y="127.429538" style="fill: #ff8c00; stroke: #ff8c00"/>
     <use xlink:href="#m5c8256b2a0" x="211.093689" y="115.603093" style="fill: #ff8c00; stroke: #ff8c00"/>
     <use xlink:href="#m5c8256b2a0" x="190.93749" y="155.863404" style="fill: #ff8c00; stroke: #ff8c00"/>
     <use xlink:href="#m5c8256b2a0" x="205.643028" y="116.768691" style="fill: #ff8c00; stroke: #ff8c00"/>
     <use xlink:href="#m5c8256b2a0" x="145.033993" y="178.187213" style="fill: #ff8c00; stroke: #ff8c00"/>
     <use xlink:href="#m5c8256b2a0" x="221.294032" y="130.699303" style="fill: #ff8c00; stroke: #ff8c00"/>
     <use xlink:href="#m5c8256b2a0" x="232.226534" y="140.590573" style="fill: #ff8c00; stroke: #ff8c00"/>
     <use xlink:href="#m5c8256b2a0" x="171.085736" y="213.422512" style="fill: #ff8c00; stroke: #ff8c00"/>
     <use xlink:href="#m5c8256b2a0" x="177.694898" y="163.507311" style="fill: #ff8c00; stroke: #ff8c00"/>
     <use xlink:href="#m5c8256b2a0" x="149.880661" y="184.908463" style="fill: #ff8c00; stroke: #ff8c00"/>
     <use xlink:href="#m5c8256b2a0" x="206.907941" y="175.213416" style="fill: #ff8c00; stroke: #ff8c00"/>
     <use xlink:href="#m5c8256b2a0" x="164.011155" y="133.17307" style="fill: #ff8c00; stroke: #ff8c00"/>
     <use xlink:href="#m5c8256b2a0" x="149.382412" y="80.043039" style="fill: #ff8c00; stroke: #ff8c00"/>
     <use xlink:href="#m5c8256b2a0" x="277.058206" y="117.639304" style="fill: #ff8c00; stroke: #ff8c00"/>
     <use xlink:href="#m5c8256b2a0" x="218.479785" y="114.844387" style="fill: #ff8c00; stroke: #ff8c00"/>
     <use xlink:href="#m5c8256b2a0" x="332.179679" y="135.221446" style="fill: #ff8c00; stroke: #ff8c00"/>
     <use xlink:href="#m5c8256b2a0" x="229.803983" y="188.539188" style="fill: #ff8c00; stroke: #ff8c00"/>
     <use xlink:href="#m5c8256b2a0" x="207.001137" y="120.270347" style="fill: #ff8c00; stroke: #ff8c00"/>
     <use xlink:href="#m5c8256b2a0" x="225.200261" y="87.301182" style="fill: #ff8c00; stroke: #ff8c00"/>
     <use xlink:href="#m5c8256b2a0" x="173.741059" y="164.729384" style="fill: #ff8c00; stroke: #ff8c00"/>
     <use xlink:href="#m5c8256b2a0" x="179.377441" y="237.889325" style="fill: #ff8c00; stroke: #ff8c00"/>
     <use xlink:href="#m5c8256b2a0" x="208.035004" y="185.729778" style="fill: #ff8c00; stroke: #ff8c00"/>
     <use xlink:href="#m5c8256b2a0" x="213.344195" y="165.80455" style="fill: #ff8c00; stroke: #ff8c00"/>
     <use xlink:href="#m5c8256b2a0" x="179.072998" y="183.117919" style="fill: #ff8c00; stroke: #ff8c00"/>
     <use xlink:href="#m5c8256b2a0" x="209.368335" y="190.912265" style="fill: #ff8c00; stroke: #ff8c00"/>
     <use xlink:href="#m5c8256b2a0" x="108.749574" y="163.861811" style="fill: #ff8c00; stroke: #ff8c00"/>
     <use xlink:href="#m5c8256b2a0" x="146.555647" y="83.800529" style="fill: #ff8c00; stroke: #ff8c00"/>
     <use xlink:href="#m5c8256b2a0" x="192.572818" y="103.989629" style="fill: #ff8c00; stroke: #ff8c00"/>
     <use xlink:href="#m5c8256b2a0" x="263.955062" y="97.973281" style="fill: #ff8c00; stroke: #ff8c00"/>
     <use xlink:href="#m5c8256b2a0" x="193.78868" y="52.285886" style="fill: #ff8c00; stroke: #ff8c00"/>
     <use xlink:href="#m5c8256b2a0" x="169.021099" y="91.186816" style="fill: #ff8c00; stroke: #ff8c00"/>
     <use xlink:href="#m5c8256b2a0" x="277.510072" y="105.826765" style="fill: #ff8c00; stroke: #ff8c00"/>
     <use xlink:href="#m5c8256b2a0" x="211.355906" y="112.197738" style="fill: #ff8c00; stroke: #ff8c00"/>
     <use xlink:href="#m5c8256b2a0" x="166.525742" y="143.715935" style="fill: #ff8c00; stroke: #ff8c00"/>
    </g>
   </g>
   <g id="matplotlib.axis_1">
    <g id="xtick_1">
     <g id="line2d_1">
      <defs>
       <path id="m0290ecd938" d="M 0 0 
L 0 3.5 
" style="stroke: #000000; stroke-width: 0.8"/>
      </defs>
      <g>
       <use xlink:href="#m0290ecd938" x="47.42522" y="273.312" style="stroke: #000000; stroke-width: 0.8"/>
      </g>
     </g>
     <g id="text_1">
      <!-- −40 -->
      <g transform="translate(36.872876 287.910437) scale(0.1 -0.1)">
       <defs>
        <path id="DejaVuSans-2212" d="M 678 2272 
L 4684 2272 
L 4684 1741 
L 678 1741 
L 678 2272 
z
" transform="scale(0.015625)"/>
        <path id="DejaVuSans-34" d="M 2419 4116 
L 825 1625 
L 2419 1625 
L 2419 4116 
z
M 2253 4666 
L 3047 4666 
L 3047 1625 
L 3713 1625 
L 3713 1100 
L 3047 1100 
L 3047 0 
L 2419 0 
L 2419 1100 
L 313 1100 
L 313 1709 
L 2253 4666 
z
" transform="scale(0.015625)"/>
        <path id="DejaVuSans-30" d="M 2034 4250 
Q 1547 4250 1301 3770 
Q 1056 3291 1056 2328 
Q 1056 1369 1301 889 
Q 1547 409 2034 409 
Q 2525 409 2770 889 
Q 3016 1369 3016 2328 
Q 3016 3291 2770 3770 
Q 2525 4250 2034 4250 
z
M 2034 4750 
Q 2819 4750 3233 4129 
Q 3647 3509 3647 2328 
Q 3647 1150 3233 529 
Q 2819 -91 2034 -91 
Q 1250 -91 836 529 
Q 422 1150 422 2328 
Q 422 3509 836 4129 
Q 1250 4750 2034 4750 
z
" transform="scale(0.015625)"/>
       </defs>
       <use xlink:href="#DejaVuSans-2212"/>
       <use xlink:href="#DejaVuSans-34" x="83.789062"/>
       <use xlink:href="#DejaVuSans-30" x="147.412109"/>
      </g>
     </g>
    </g>
    <g id="xtick_2">
     <g id="line2d_2">
      <g>
       <use xlink:href="#m0290ecd938" x="117.133787" y="273.312" style="stroke: #000000; stroke-width: 0.8"/>
      </g>
     </g>
     <g id="text_2">
      <!-- −20 -->
      <g transform="translate(106.581443 287.910437) scale(0.1 -0.1)">
       <defs>
        <path id="DejaVuSans-32" d="M 1228 531 
L 3431 531 
L 3431 0 
L 469 0 
L 469 531 
Q 828 903 1448 1529 
Q 2069 2156 2228 2338 
Q 2531 2678 2651 2914 
Q 2772 3150 2772 3378 
Q 2772 3750 2511 3984 
Q 2250 4219 1831 4219 
Q 1534 4219 1204 4116 
Q 875 4013 500 3803 
L 500 4441 
Q 881 4594 1212 4672 
Q 1544 4750 1819 4750 
Q 2544 4750 2975 4387 
Q 3406 4025 3406 3419 
Q 3406 3131 3298 2873 
Q 3191 2616 2906 2266 
Q 2828 2175 2409 1742 
Q 1991 1309 1228 531 
z
" transform="scale(0.015625)"/>
       </defs>
       <use xlink:href="#DejaVuSans-2212"/>
       <use xlink:href="#DejaVuSans-32" x="83.789062"/>
       <use xlink:href="#DejaVuSans-30" x="147.412109"/>
      </g>
     </g>
    </g>
    <g id="xtick_3">
     <g id="line2d_3">
      <g>
       <use xlink:href="#m0290ecd938" x="186.842353" y="273.312" style="stroke: #000000; stroke-width: 0.8"/>
      </g>
     </g>
     <g id="text_3">
      <!-- 0 -->
      <g transform="translate(183.661103 287.910437) scale(0.1 -0.1)">
       <use xlink:href="#DejaVuSans-30"/>
      </g>
     </g>
    </g>
    <g id="xtick_4">
     <g id="line2d_4">
      <g>
       <use xlink:href="#m0290ecd938" x="256.55092" y="273.312" style="stroke: #000000; stroke-width: 0.8"/>
      </g>
     </g>
     <g id="text_4">
      <!-- 20 -->
      <g transform="translate(250.18842 287.910437) scale(0.1 -0.1)">
       <use xlink:href="#DejaVuSans-32"/>
       <use xlink:href="#DejaVuSans-30" x="63.623047"/>
      </g>
     </g>
    </g>
    <g id="xtick_5">
     <g id="line2d_5">
      <g>
       <use xlink:href="#m0290ecd938" x="326.259487" y="273.312" style="stroke: #000000; stroke-width: 0.8"/>
      </g>
     </g>
     <g id="text_5">
      <!-- 40 -->
      <g transform="translate(319.896987 287.910437) scale(0.1 -0.1)">
       <use xlink:href="#DejaVuSans-34"/>
       <use xlink:href="#DejaVuSans-30" x="63.623047"/>
      </g>
     </g>
    </g>
   </g>
   <g id="matplotlib.axis_2">
    <g id="ytick_1">
     <g id="line2d_6">
      <defs>
       <path id="maff9f66f41" d="M 0 0 
L -3.5 0 
" style="stroke: #000000; stroke-width: 0.8"/>
      </defs>
      <g>
       <use xlink:href="#maff9f66f41" x="35.304688" y="268.133436" style="stroke: #000000; stroke-width: 0.8"/>
      </g>
     </g>
     <g id="text_6">
      <!-- −30 -->
      <g transform="translate(7.2 271.932655) scale(0.1 -0.1)">
       <defs>
        <path id="DejaVuSans-33" d="M 2597 2516 
Q 3050 2419 3304 2112 
Q 3559 1806 3559 1356 
Q 3559 666 3084 287 
Q 2609 -91 1734 -91 
Q 1441 -91 1130 -33 
Q 819 25 488 141 
L 488 750 
Q 750 597 1062 519 
Q 1375 441 1716 441 
Q 2309 441 2620 675 
Q 2931 909 2931 1356 
Q 2931 1769 2642 2001 
Q 2353 2234 1838 2234 
L 1294 2234 
L 1294 2753 
L 1863 2753 
Q 2328 2753 2575 2939 
Q 2822 3125 2822 3475 
Q 2822 3834 2567 4026 
Q 2313 4219 1838 4219 
Q 1578 4219 1281 4162 
Q 984 4106 628 3988 
L 628 4550 
Q 988 4650 1302 4700 
Q 1616 4750 1894 4750 
Q 2613 4750 3031 4423 
Q 3450 4097 3450 3541 
Q 3450 3153 3228 2886 
Q 3006 2619 2597 2516 
z
" transform="scale(0.015625)"/>
       </defs>
       <use xlink:href="#DejaVuSans-2212"/>
       <use xlink:href="#DejaVuSans-33" x="83.789062"/>
       <use xlink:href="#DejaVuSans-30" x="147.412109"/>
      </g>
     </g>
    </g>
    <g id="ytick_2">
     <g id="line2d_7">
      <g>
       <use xlink:href="#maff9f66f41" x="35.304688" y="227.023106" style="stroke: #000000; stroke-width: 0.8"/>
      </g>
     </g>
     <g id="text_7">
      <!-- −20 -->
      <g transform="translate(7.2 230.822325) scale(0.1 -0.1)">
       <use xlink:href="#DejaVuSans-2212"/>
       <use xlink:href="#DejaVuSans-32" x="83.789062"/>
       <use xlink:href="#DejaVuSans-30" x="147.412109"/>
      </g>
     </g>
    </g>
    <g id="ytick_3">
     <g id="line2d_8">
      <g>
       <use xlink:href="#maff9f66f41" x="35.304688" y="185.912776" style="stroke: #000000; stroke-width: 0.8"/>
      </g>
     </g>
     <g id="text_8">
      <!-- −10 -->
      <g transform="translate(7.2 189.711994) scale(0.1 -0.1)">
       <defs>
        <path id="DejaVuSans-31" d="M 794 531 
L 1825 531 
L 1825 4091 
L 703 3866 
L 703 4441 
L 1819 4666 
L 2450 4666 
L 2450 531 
L 3481 531 
L 3481 0 
L 794 0 
L 794 531 
z
" transform="scale(0.015625)"/>
       </defs>
       <use xlink:href="#DejaVuSans-2212"/>
       <use xlink:href="#DejaVuSans-31" x="83.789062"/>
       <use xlink:href="#DejaVuSans-30" x="147.412109"/>
      </g>
     </g>
    </g>
    <g id="ytick_4">
     <g id="line2d_9">
      <g>
       <use xlink:href="#maff9f66f41" x="35.304688" y="144.802446" style="stroke: #000000; stroke-width: 0.8"/>
      </g>
     </g>
     <g id="text_9">
      <!-- 0 -->
      <g transform="translate(21.942187 148.601664) scale(0.1 -0.1)">
       <use xlink:href="#DejaVuSans-30"/>
      </g>
     </g>
    </g>
    <g id="ytick_5">
     <g id="line2d_10">
      <g>
       <use xlink:href="#maff9f66f41" x="35.304688" y="103.692115" style="stroke: #000000; stroke-width: 0.8"/>
      </g>
     </g>
     <g id="text_10">
      <!-- 10 -->
      <g transform="translate(15.579687 107.491334) scale(0.1 -0.1)">
       <use xlink:href="#DejaVuSans-31"/>
       <use xlink:href="#DejaVuSans-30" x="63.623047"/>
      </g>
     </g>
    </g>
    <g id="ytick_6">
     <g id="line2d_11">
      <g>
       <use xlink:href="#maff9f66f41" x="35.304688" y="62.581785" style="stroke: #000000; stroke-width: 0.8"/>
      </g>
     </g>
     <g id="text_11">
      <!-- 20 -->
      <g transform="translate(15.579687 66.381004) scale(0.1 -0.1)">
       <use xlink:href="#DejaVuSans-32"/>
       <use xlink:href="#DejaVuSans-30" x="63.623047"/>
      </g>
     </g>
    </g>
    <g id="ytick_7">
     <g id="line2d_12">
      <g>
       <use xlink:href="#maff9f66f41" x="35.304688" y="21.471455" style="stroke: #000000; stroke-width: 0.8"/>
      </g>
     </g>
     <g id="text_12">
      <!-- 30 -->
      <g transform="translate(15.579687 25.270674) scale(0.1 -0.1)">
       <use xlink:href="#DejaVuSans-33"/>
       <use xlink:href="#DejaVuSans-30" x="63.623047"/>
      </g>
     </g>
    </g>
   </g>
   <g id="patch_3">
    <path d="M 35.304688 273.312 
L 35.304688 7.2 
" style="fill: none; stroke: #000000; stroke-width: 0.8; stroke-linejoin: miter; stroke-linecap: square"/>
   </g>
   <g id="patch_4">
    <path d="M 392.424688 273.312 
L 392.424688 7.2 
" style="fill: none; stroke: #000000; stroke-width: 0.8; stroke-linejoin: miter; stroke-linecap: square"/>
   </g>
   <g id="patch_5">
    <path d="M 35.304688 273.312 
L 392.424688 273.312 
" style="fill: none; stroke: #000000; stroke-width: 0.8; stroke-linejoin: miter; stroke-linecap: square"/>
   </g>
   <g id="patch_6">
    <path d="M 35.304688 7.2 
L 392.424688 7.2 
" style="fill: none; stroke: #000000; stroke-width: 0.8; stroke-linejoin: miter; stroke-linecap: square"/>
   </g>
  </g>
 </g>
 <defs>
  <clipPath id="pde86b0c56a">
   <rect x="35.304688" y="7.2" width="357.12" height="266.112"/>
  </clipPath>
 </defs>
</svg>
