<?xml version="1.0" encoding="utf-8" standalone="no"?>
<!DOCTYPE svg PUBLIC "-//W3C//DTD SVG 1.1//EN"
  "http://www.w3.org/Graphics/SVG/1.1/DTD/svg11.dtd">
<svg xmlns:xlink="http://www.w3.org/1999/xlink" width="399.624687pt" height="297.190125pt" viewBox="0 0 399.624687 297.190125" xmlns="http://www.w3.org/2000/svg" version="1.1">
 <metadata>
  <rdf:RDF xmlns:dc="http://purl.org/dc/elements/1.1/" xmlns:cc="http://creativecommons.org/ns#" xmlns:rdf="http://www.w3.org/1999/02/22-rdf-syntax-ns#">
   <cc:Work>
    <dc:type rdf:resource="http://purl.org/dc/dcmitype/StillImage"/>
    <dc:date>2023-11-12T06:21:38.992153</dc:date>
    <dc:format>image/svg+xml</dc:format>
    <dc:creator>
     <cc:Agent>
      <dc:title>Matplotlib v3.8.0, https://matplotlib.org/</dc:title>
     </cc:Agent>
    </dc:creator>
   </cc:Work>
  </rdf:RDF>
 </metadata>
 <defs>
  <style type="text/css">*{stroke-linejoin: round; stroke-linecap: butt}</style>
 </defs>
 <g id="figure_1">
  <g id="patch_1">
   <path d="M 0 297.190125 
L 399.624687 297.190125 
L 399.624687 0 
L 0 0 
z
" style="fill: #ffffff"/>
  </g>
  <g id="axes_1">
   <g id="patch_2">
    <path d="M 35.304688 273.312 
L 392.424688 273.312 
L 392.424688 7.2 
L 35.304688 7.2 
z
" style="fill: #ffffff"/>
   </g>
   <g id="PathCollection_1">
    <defs>
     <path id="m833a31267d" d="M 0 1.5 
C 0.397805 1.5 0.77937 1.341951 1.06066 1.06066 
C 1.341951 0.77937 1.5 0.397805 1.5 0 
C 1.5 -0.397805 1.341951 -0.77937 1.06066 -1.06066 
C 0.77937 -1.341951 0.397805 -1.5 0 -1.5 
C -0.397805 -1.5 -0.77937 -1.341951 -1.06066 -1.06066 
C -1.341951 -0.77937 -1.5 -0.397805 -1.5 0 
C -1.5 0.397805 -1.341951 0.77937 -1.06066 1.06066 
C -0.77937 1.341951 -0.397805 1.5 0 1.5 
z
" style="stroke: #ff8c00"/>
    </defs>
    <g clip-path="url(#p9ac1fcffe7)">
     <use xlink:href="#m833a31267d" x="291.052703" y="213.310975" style="fill: #ff8c00; stroke: #ff8c00"/>
     <use xlink:href="#m833a31267d" x="176.869103" y="149.240345" style="fill: #ff8c00; stroke: #ff8c00"/>
     <use xlink:href="#m833a31267d" x="266.333708" y="207.496531" style="fill: #ff8c00; stroke: #ff8c00"/>
     <use xlink:href="#m833a31267d" x="193.623981" y="217.616203" style="fill: #ff8c00; stroke: #ff8c00"/>
     <use xlink:href="#m833a31267d" x="222.038896" y="148.180051" style="fill: #ff8c00; stroke: #ff8c00"/>
     <use xlink:href="#m833a31267d" x="227.889747" y="155.315916" style="fill: #ff8c00; stroke: #ff8c00"/>
     <use xlink:href="#m833a31267d" x="232.165583" y="192.806143" style="fill: #ff8c00; stroke: #ff8c00"/>
     <use xlink:href="#m833a31267d" x="178.261909" y="163.873134" style="fill: #ff8c00; stroke: #ff8c00"/>
     <use xlink:href="#m833a31267d" x="311.604822" y="245.529874" style="fill: #ff8c00; stroke: #ff8c00"/>
     <use xlink:href="#m833a31267d" x="202.508366" y="231.820546" style="fill: #ff8c00; stroke: #ff8c00"/>
     <use xlink:href="#m833a31267d" x="223.315107" y="235.887401" style="fill: #ff8c00; stroke: #ff8c00"/>
     <use xlink:href="#m833a31267d" x="302.314029" y="173.550512" style="fill: #ff8c00; stroke: #ff8c00"/>
     <use xlink:href="#m833a31267d" x="263.090974" y="230.785343" style="fill: #ff8c00; stroke: #ff8c00"/>
    </g>
   </g>
   <g id="PathCollection_2">
    <defs>
     <path id="mc002c96aca" d="M 0 1.5 
C 0.397805 1.5 0.77937 1.341951 1.06066 1.06066 
C 1.341951 0.77937 1.5 0.397805 1.5 0 
C 1.5 -0.397805 1.341951 -0.77937 1.06066 -1.06066 
C 0.77937 -1.341951 0.397805 -1.5 0 -1.5 
C -0.397805 -1.5 -0.77937 -1.341951 -1.06066 -1.06066 
C -1.341951 -0.77937 -1.5 -0.397805 -1.5 0 
C -1.5 0.397805 -1.341951 0.77937 -1.06066 1.06066 
C -0.77937 1.341951 -0.397805 1.5 0 1.5 
z
" style="stroke: #006400"/>
    </defs>
    <g clip-path="url(#p9ac1fcffe7)">
     <use xlink:href="#mc002c96aca" x="286.65044" y="126.475064" style="fill: #006400; stroke: #006400"/>
     <use xlink:href="#mc002c96aca" x="227.994659" y="136.367545" style="fill: #006400; stroke: #006400"/>
     <use xlink:href="#mc002c96aca" x="240.476144" y="129.662193" style="fill: #006400; stroke: #006400"/>
     <use xlink:href="#mc002c96aca" x="376.19196" y="19.296" style="fill: #006400; stroke: #006400"/>
     <use xlink:href="#mc002c96aca" x="282.847755" y="55.095535" style="fill: #006400; stroke: #006400"/>
     <use xlink:href="#mc002c96aca" x="209.45196" y="127.309536" style="fill: #006400; stroke: #006400"/>
     <use xlink:href="#mc002c96aca" x="319.153887" y="88.704668" style="fill: #006400; stroke: #006400"/>
     <use xlink:href="#mc002c96aca" x="351.154608" y="61.602638" style="fill: #006400; stroke: #006400"/>
     <use xlink:href="#mc002c96aca" x="260.352801" y="123.541025" style="fill: #006400; stroke: #006400"/>
    </g>
   </g>
   <g id="PathCollection_3">
    <defs>
     <path id="mf4035736be" d="M 0 1.5 
C 0.397805 1.5 0.77937 1.341951 1.06066 1.06066 
C 1.341951 0.77937 1.5 0.397805 1.5 0 
C 1.5 -0.397805 1.341951 -0.77937 1.06066 -1.06066 
C 0.77937 -1.341951 0.397805 -1.5 0 -1.5 
C -0.397805 -1.5 -0.77937 -1.341951 -1.06066 -1.06066 
C -1.341951 -0.77937 -1.5 -0.397805 -1.5 0 
C -1.5 0.397805 -1.341951 0.77937 -1.06066 1.06066 
C -0.77937 1.341951 -0.397805 1.5 0 1.5 
z
" style="stroke: #2f4f4f"/>
    </defs>
    <g clip-path="url(#p9ac1fcffe7)">
     <use xlink:href="#mf4035736be" x="162.067008" y="192.575225" style="fill: #2f4f4f; stroke: #2f4f4f"/>
     <use xlink:href="#mf4035736be" x="194.696195" y="209.430856" style="fill: #2f4f4f; stroke: #2f4f4f"/>
     <use xlink:href="#mf4035736be" x="159.804697" y="222.193013" style="fill: #2f4f4f; stroke: #2f4f4f"/>
     <use xlink:href="#mf4035736be" x="227.433208" y="206.381323" style="fill: #2f4f4f; stroke: #2f4f4f"/>
     <use xlink:href="#mf4035736be" x="232.586792" y="210.547535" style="fill: #2f4f4f; stroke: #2f4f4f"/>
     <use xlink:href="#mf4035736be" x="70.962085" y="121.285429" style="fill: #2f4f4f; stroke: #2f4f4f"/>
     <use xlink:href="#mf4035736be" x="137.132882" y="177.563152" style="fill: #2f4f4f; stroke: #2f4f4f"/>
     <use xlink:href="#mf4035736be" x="152.841668" y="176.781845" style="fill: #2f4f4f; stroke: #2f4f4f"/>
     <use xlink:href="#mf4035736be" x="140.618529" y="215.782301" style="fill: #2f4f4f; stroke: #2f4f4f"/>
     <use xlink:href="#mf4035736be" x="201.470645" y="185.143396" style="fill: #2f4f4f; stroke: #2f4f4f"/>
    </g>
   </g>
   <g id="PathCollection_4">
    <defs>
     <path id="m28c031abc2" d="M 0 1.5 
C 0.397805 1.5 0.77937 1.341951 1.06066 1.06066 
C 1.341951 0.77937 1.5 0.397805 1.5 0 
C 1.5 -0.397805 1.341951 -0.77937 1.06066 -1.06066 
C 0.77937 -1.341951 0.397805 -1.5 0 -1.5 
C -0.397805 -1.5 -0.77937 -1.341951 -1.06066 -1.06066 
C -1.341951 -0.77937 -1.5 -0.397805 -1.5 0 
C -1.5 0.397805 -1.341951 0.77937 -1.06066 1.06066 
C -0.77937 1.341951 -0.397805 1.5 0 1.5 
z
" style="stroke: #00bfff"/>
    </defs>
    <g clip-path="url(#p9ac1fcffe7)">
     <use xlink:href="#m28c031abc2" x="175.744745" y="204.929851" style="fill: #00bfff; stroke: #00bfff"/>
     <use xlink:href="#m28c031abc2" x="145.178968" y="212.426961" style="fill: #00bfff; stroke: #00bfff"/>
     <use xlink:href="#m28c031abc2" x="164.666978" y="223.338798" style="fill: #00bfff; stroke: #00bfff"/>
     <use xlink:href="#m28c031abc2" x="116.407529" y="190.464624" style="fill: #00bfff; stroke: #00bfff"/>
     <use xlink:href="#m28c031abc2" x="178.018748" y="211.790986" style="fill: #00bfff; stroke: #00bfff"/>
     <use xlink:href="#m28c031abc2" x="161.730756" y="141.404083" style="fill: #00bfff; stroke: #00bfff"/>
     <use xlink:href="#m28c031abc2" x="241.105136" y="163.608656" style="fill: #00bfff; stroke: #00bfff"/>
     <use xlink:href="#m28c031abc2" x="106.099214" y="188.139426" style="fill: #00bfff; stroke: #00bfff"/>
     <use xlink:href="#m28c031abc2" x="182.786207" y="136.08041" style="fill: #00bfff; stroke: #00bfff"/>
     <use xlink:href="#m28c031abc2" x="174.183362" y="178.947651" style="fill: #00bfff; stroke: #00bfff"/>
     <use xlink:href="#m28c031abc2" x="171.816366" y="166.183431" style="fill: #00bfff; stroke: #00bfff"/>
     <use xlink:href="#m28c031abc2" x="257.995471" y="166.40525" style="fill: #00bfff; stroke: #00bfff"/>
     <use xlink:href="#m28c031abc2" x="139.688422" y="168.19577" style="fill: #00bfff; stroke: #00bfff"/>
     <use xlink:href="#m28c031abc2" x="229.245528" y="202.244046" style="fill: #00bfff; stroke: #00bfff"/>
     <use xlink:href="#m28c031abc2" x="134.078654" y="218.114605" style="fill: #00bfff; stroke: #00bfff"/>
     <use xlink:href="#m28c031abc2" x="219.702193" y="227.014832" style="fill: #00bfff; stroke: #00bfff"/>
     <use xlink:href="#m28c031abc2" x="198.344439" y="171.206882" style="fill: #00bfff; stroke: #00bfff"/>
    </g>
   </g>
   <g id="PathCollection_5">
    <defs>
     <path id="m2f0dfe98e7" d="M 0 1.5 
C 0.397805 1.5 0.77937 1.341951 1.06066 1.06066 
C 1.341951 0.77937 1.5 0.397805 1.5 0 
C 1.5 -0.397805 1.341951 -0.77937 1.06066 -1.06066 
C 0.77937 -1.341951 0.397805 -1.5 0 -1.5 
C -0.397805 -1.5 -0.77937 -1.341951 -1.06066 -1.06066 
C -1.341951 -0.77937 -1.5 -0.397805 -1.5 0 
C -1.5 0.397805 -1.341951 0.77937 -1.06066 1.06066 
C -0.77937 1.341951 -0.397805 1.5 0 1.5 
z
" style="stroke: #ffff00"/>
    </defs>
    <g clip-path="url(#p9ac1fcffe7)">
     <use xlink:href="#m2f0dfe98e7" x="157.865446" y="198.991895" style="fill: #ffff00; stroke: #ffff00"/>
     <use xlink:href="#m2f0dfe98e7" x="151.492694" y="214.224266" style="fill: #ffff00; stroke: #ffff00"/>
     <use xlink:href="#m2f0dfe98e7" x="133.044778" y="191.873581" style="fill: #ffff00; stroke: #ffff00"/>
     <use xlink:href="#m2f0dfe98e7" x="109.872473" y="173.067781" style="fill: #ffff00; stroke: #ffff00"/>
     <use xlink:href="#m2f0dfe98e7" x="138.111572" y="183.511666" style="fill: #ffff00; stroke: #ffff00"/>
     <use xlink:href="#m2f0dfe98e7" x="156.002251" y="188.715995" style="fill: #ffff00; stroke: #ffff00"/>
     <use xlink:href="#m2f0dfe98e7" x="133.262873" y="173.3015" style="fill: #ffff00; stroke: #ffff00"/>
     <use xlink:href="#m2f0dfe98e7" x="223.491052" y="171.986337" style="fill: #ffff00; stroke: #ffff00"/>
     <use xlink:href="#m2f0dfe98e7" x="207.886864" y="213.523785" style="fill: #ffff00; stroke: #ffff00"/>
     <use xlink:href="#m2f0dfe98e7" x="147.191926" y="235.027117" style="fill: #ffff00; stroke: #ffff00"/>
     <use xlink:href="#m2f0dfe98e7" x="126.549025" y="178.274312" style="fill: #ffff00; stroke: #ffff00"/>
     <use xlink:href="#m2f0dfe98e7" x="113.324994" y="173.851203" style="fill: #ffff00; stroke: #ffff00"/>
     <use xlink:href="#m2f0dfe98e7" x="127.03799" y="194.122134" style="fill: #ffff00; stroke: #ffff00"/>
     <use xlink:href="#m2f0dfe98e7" x="168.005149" y="167.62868" style="fill: #ffff00; stroke: #ffff00"/>
     <use xlink:href="#m2f0dfe98e7" x="168.337103" y="205.787006" style="fill: #ffff00; stroke: #ffff00"/>
    </g>
   </g>
   <g id="PathCollection_6">
    <defs>
     <path id="m6a87ec9402" d="M 0 1.5 
C 0.397805 1.5 0.77937 1.341951 1.06066 1.06066 
C 1.341951 0.77937 1.5 0.397805 1.5 0 
C 1.5 -0.397805 1.341951 -0.77937 1.06066 -1.06066 
C 0.77937 -1.341951 0.397805 -1.5 0 -1.5 
C -0.397805 -1.5 -0.77937 -1.341951 -1.06066 -1.06066 
C -1.341951 -0.77937 -1.5 -0.397805 -1.5 0 
C -1.5 0.397805 -1.341951 0.77937 -1.06066 1.06066 
C -0.77937 1.341951 -0.397805 1.5 0 1.5 
z
" style="stroke: #00ffff"/>
    </defs>
    <g clip-path="url(#p9ac1fcffe7)">
     <use xlink:href="#m6a87ec9402" x="94.260393" y="187.450924" style="fill: #00ffff; stroke: #00ffff"/>
     <use xlink:href="#m6a87ec9402" x="167.161879" y="204.921205" style="fill: #00ffff; stroke: #00ffff"/>
     <use xlink:href="#m6a87ec9402" x="221.653533" y="194.439555" style="fill: #00ffff; stroke: #00ffff"/>
     <use xlink:href="#m6a87ec9402" x="157.64161" y="192.714446" style="fill: #00ffff; stroke: #00ffff"/>
     <use xlink:href="#m6a87ec9402" x="171.032371" y="202.05715" style="fill: #00ffff; stroke: #00ffff"/>
     <use xlink:href="#m6a87ec9402" x="145.126658" y="227.179411" style="fill: #00ffff; stroke: #00ffff"/>
     <use xlink:href="#m6a87ec9402" x="192.413401" y="216.967735" style="fill: #00ffff; stroke: #00ffff"/>
     <use xlink:href="#m6a87ec9402" x="208.811833" y="204.396094" style="fill: #00ffff; stroke: #00ffff"/>
     <use xlink:href="#m6a87ec9402" x="146.714847" y="203.958597" style="fill: #00ffff; stroke: #00ffff"/>
     <use xlink:href="#m6a87ec9402" x="178.372477" y="261.216" style="fill: #00ffff; stroke: #00ffff"/>
     <use xlink:href="#m6a87ec9402" x="232.066731" y="220.213261" style="fill: #00ffff; stroke: #00ffff"/>
     <use xlink:href="#m6a87ec9402" x="143.660051" y="200.742412" style="fill: #00ffff; stroke: #00ffff"/>
     <use xlink:href="#m6a87ec9402" x="210.834662" y="203.651037" style="fill: #00ffff; stroke: #00ffff"/>
     <use xlink:href="#m6a87ec9402" x="153.859565" y="190.379497" style="fill: #00ffff; stroke: #00ffff"/>
     <use xlink:href="#m6a87ec9402" x="156.030312" y="188.898539" style="fill: #00ffff; stroke: #00ffff"/>
    </g>
   </g>
   <g id="PathCollection_7">
    <defs>
     <path id="me9e584aa3a" d="M 0 1.5 
C 0.397805 1.5 0.77937 1.341951 1.06066 1.06066 
C 1.341951 0.77937 1.5 0.397805 1.5 0 
C 1.5 -0.397805 1.341951 -0.77937 1.06066 -1.06066 
C 0.77937 -1.341951 0.397805 -1.5 0 -1.5 
C -0.397805 -1.5 -0.77937 -1.341951 -1.06066 -1.06066 
C -1.341951 -0.77937 -1.5 -0.397805 -1.5 0 
C -1.5 0.397805 -1.341951 0.77937 -1.06066 1.06066 
C -0.77937 1.341951 -0.397805 1.5 0 1.5 
z
" style="stroke: #0000ff"/>
    </defs>
    <g clip-path="url(#p9ac1fcffe7)">
     <use xlink:href="#me9e584aa3a" x="208.971975" y="170.587067" style="fill: #0000ff; stroke: #0000ff"/>
     <use xlink:href="#me9e584aa3a" x="176.383279" y="184.471542" style="fill: #0000ff; stroke: #0000ff"/>
     <use xlink:href="#me9e584aa3a" x="187.718027" y="185.046229" style="fill: #0000ff; stroke: #0000ff"/>
     <use xlink:href="#me9e584aa3a" x="213.006844" y="169.4717" style="fill: #0000ff; stroke: #0000ff"/>
     <use xlink:href="#me9e584aa3a" x="204.111796" y="153.013403" style="fill: #0000ff; stroke: #0000ff"/>
     <use xlink:href="#me9e584aa3a" x="176.732337" y="191.315957" style="fill: #0000ff; stroke: #0000ff"/>
     <use xlink:href="#me9e584aa3a" x="193.8571" y="146.145499" style="fill: #0000ff; stroke: #0000ff"/>
     <use xlink:href="#me9e584aa3a" x="167.173254" y="174.91502" style="fill: #0000ff; stroke: #0000ff"/>
     <use xlink:href="#me9e584aa3a" x="152.79754" y="190.759915" style="fill: #0000ff; stroke: #0000ff"/>
     <use xlink:href="#me9e584aa3a" x="125.020903" y="212.749862" style="fill: #0000ff; stroke: #0000ff"/>
     <use xlink:href="#me9e584aa3a" x="227.486559" y="207.206816" style="fill: #0000ff; stroke: #0000ff"/>
     <use xlink:href="#me9e584aa3a" x="177.623835" y="182.250466" style="fill: #0000ff; stroke: #0000ff"/>
     <use xlink:href="#me9e584aa3a" x="145.614545" y="167.690979" style="fill: #0000ff; stroke: #0000ff"/>
     <use xlink:href="#me9e584aa3a" x="178.410929" y="179.178102" style="fill: #0000ff; stroke: #0000ff"/>
     <use xlink:href="#me9e584aa3a" x="178.530434" y="182.447083" style="fill: #0000ff; stroke: #0000ff"/>
     <use xlink:href="#me9e584aa3a" x="199.182484" y="172.92751" style="fill: #0000ff; stroke: #0000ff"/>
     <use xlink:href="#me9e584aa3a" x="281.132172" y="128.986473" style="fill: #0000ff; stroke: #0000ff"/>
    </g>
   </g>
   <g id="PathCollection_8">
    <defs>
     <path id="m206a372e71" d="M 0 1.5 
C 0.397805 1.5 0.77937 1.341951 1.06066 1.06066 
C 1.341951 0.77937 1.5 0.397805 1.5 0 
C 1.5 -0.397805 1.341951 -0.77937 1.06066 -1.06066 
C 0.77937 -1.341951 0.397805 -1.5 0 -1.5 
C -0.397805 -1.5 -0.77937 -1.341951 -1.06066 -1.06066 
C -1.341951 -0.77937 -1.5 -0.397805 -1.5 0 
C -1.5 0.397805 -1.341951 0.77937 -1.06066 1.06066 
C -0.77937 1.341951 -0.397805 1.5 0 1.5 
z
" style="stroke: #dc143c"/>
    </defs>
    <g clip-path="url(#p9ac1fcffe7)">
     <use xlink:href="#m206a372e71" x="248.522253" y="170.5836" style="fill: #dc143c; stroke: #dc143c"/>
     <use xlink:href="#m206a372e71" x="254.641235" y="138.32914" style="fill: #dc143c; stroke: #dc143c"/>
     <use xlink:href="#m206a372e71" x="254.937306" y="219.335076" style="fill: #dc143c; stroke: #dc143c"/>
     <use xlink:href="#m206a372e71" x="358.036799" y="152.849506" style="fill: #dc143c; stroke: #dc143c"/>
     <use xlink:href="#m206a372e71" x="245.434627" y="212.072529" style="fill: #dc143c; stroke: #dc143c"/>
     <use xlink:href="#m206a372e71" x="290.450378" y="202.307439" style="fill: #dc143c; stroke: #dc143c"/>
     <use xlink:href="#m206a372e71" x="255.125295" y="190.845755" style="fill: #dc143c; stroke: #dc143c"/>
     <use xlink:href="#m206a372e71" x="205.688666" y="209.258871" style="fill: #dc143c; stroke: #dc143c"/>
     <use xlink:href="#m206a372e71" x="271.008446" y="201.224931" style="fill: #dc143c; stroke: #dc143c"/>
     <use xlink:href="#m206a372e71" x="267.476387" y="207.919921" style="fill: #dc143c; stroke: #dc143c"/>
     <use xlink:href="#m206a372e71" x="293.264965" y="160.494441" style="fill: #dc143c; stroke: #dc143c"/>
     <use xlink:href="#m206a372e71" x="310.108307" y="212.413907" style="fill: #dc143c; stroke: #dc143c"/>
     <use xlink:href="#m206a372e71" x="241.868505" y="194.731363" style="fill: #dc143c; stroke: #dc143c"/>
     <use xlink:href="#m206a372e71" x="243.371876" y="124.803825" style="fill: #dc143c; stroke: #dc143c"/>
     <use xlink:href="#m206a372e71" x="220.658551" y="116.193789" style="fill: #dc143c; stroke: #dc143c"/>
     <use xlink:href="#m206a372e71" x="273.975371" y="169.075545" style="fill: #dc143c; stroke: #dc143c"/>
     <use xlink:href="#m206a372e71" x="225.82077" y="167.038115" style="fill: #dc143c; stroke: #dc143c"/>
     <use xlink:href="#m206a372e71" x="261.351065" y="175.319683" style="fill: #dc143c; stroke: #dc143c"/>
     <use xlink:href="#m206a372e71" x="249.944536" y="226.886455" style="fill: #dc143c; stroke: #dc143c"/>
     <use xlink:href="#m206a372e71" x="257.61439" y="182.477462" style="fill: #dc143c; stroke: #dc143c"/>
    </g>
   </g>
   <g id="PathCollection_9">
    <defs>
     <path id="m39bd1ed33a" d="M 0 1.5 
C 0.397805 1.5 0.77937 1.341951 1.06066 1.06066 
C 1.341951 0.77937 1.5 0.397805 1.5 0 
C 1.5 -0.397805 1.341951 -0.77937 1.06066 -1.06066 
C 0.77937 -1.341951 0.397805 -1.5 0 -1.5 
C -0.397805 -1.5 -0.77937 -1.341951 -1.06066 -1.06066 
C -1.341951 -0.77937 -1.5 -0.397805 -1.5 0 
C -1.5 0.397805 -1.341951 0.77937 -1.06066 1.06066 
C -0.77937 1.341951 -0.397805 1.5 0 1.5 
z
" style="stroke: #ffe4c4"/>
    </defs>
    <g clip-path="url(#p9ac1fcffe7)">
     <use xlink:href="#m39bd1ed33a" x="185.482885" y="145.917127" style="fill: #ffe4c4; stroke: #ffe4c4"/>
     <use xlink:href="#m39bd1ed33a" x="263.023901" y="82.691008" style="fill: #ffe4c4; stroke: #ffe4c4"/>
     <use xlink:href="#m39bd1ed33a" x="375.499038" y="46.112543" style="fill: #ffe4c4; stroke: #ffe4c4"/>
     <use xlink:href="#m39bd1ed33a" x="218.976492" y="120.739516" style="fill: #ffe4c4; stroke: #ffe4c4"/>
     <use xlink:href="#m39bd1ed33a" x="264.850178" y="141.506552" style="fill: #ffe4c4; stroke: #ffe4c4"/>
     <use xlink:href="#m39bd1ed33a" x="202.564979" y="86.233615" style="fill: #ffe4c4; stroke: #ffe4c4"/>
     <use xlink:href="#m39bd1ed33a" x="267.228087" y="93.873342" style="fill: #ffe4c4; stroke: #ffe4c4"/>
     <use xlink:href="#m39bd1ed33a" x="259.007767" y="128.640796" style="fill: #ffe4c4; stroke: #ffe4c4"/>
     <use xlink:href="#m39bd1ed33a" x="234.462879" y="137.427853" style="fill: #ffe4c4; stroke: #ffe4c4"/>
     <use xlink:href="#m39bd1ed33a" x="279.905657" y="97.179741" style="fill: #ffe4c4; stroke: #ffe4c4"/>
     <use xlink:href="#m39bd1ed33a" x="232.659873" y="135.007296" style="fill: #ffe4c4; stroke: #ffe4c4"/>
     <use xlink:href="#m39bd1ed33a" x="211.431991" y="132.200518" style="fill: #ffe4c4; stroke: #ffe4c4"/>
    </g>
   </g>
   <g id="PathCollection_10">
    <defs>
     <path id="ma15dec601b" d="M -2.99994 2.99994 
L 3.00006 2.99994 
L 3.00006 -3.00006 
L -2.99994 -3.00006 
z
" style="stroke: #000000"/>
    </defs>
    <g clip-path="url(#p9ac1fcffe7)">
     <use xlink:href="#ma15dec601b" x="120.022208" y="151.965444" style="stroke: #000000"/>
     <use xlink:href="#ma15dec601b" x="75.504708" y="119.818039" style="stroke: #000000"/>
     <use xlink:href="#ma15dec601b" x="51.537415" y="140.497693" style="stroke: #000000"/>
     <use xlink:href="#ma15dec601b" x="109.290006" y="194.35694" style="stroke: #000000"/>
     <use xlink:href="#ma15dec601b" x="91.999272" y="145.087945" style="stroke: #000000"/>
     <use xlink:href="#ma15dec601b" x="118.511908" y="164.440239" style="stroke: #000000"/>
     <use xlink:href="#ma15dec601b" x="157.397257" y="219.712609" style="stroke: #000000"/>
     <use xlink:href="#ma15dec601b" x="104.678142" y="175.191131" style="stroke: #000000"/>
     <use xlink:href="#ma15dec601b" x="109.564144" y="166.803932" style="stroke: #000000"/>
     <use xlink:href="#ma15dec601b" x="122.459298" y="114.165496" style="stroke: #000000"/>
     <use xlink:href="#ma15dec601b" x="77.535474" y="177.478554" style="stroke: #000000"/>
     <use xlink:href="#ma15dec601b" x="109.525504" y="162.991192" style="stroke: #000000"/>
     <use xlink:href="#ma15dec601b" x="159.64025" y="149.55932" style="stroke: #000000"/>
     <use xlink:href="#ma15dec601b" x="248.472411" y="156.011382" style="stroke: #000000"/>
     <use xlink:href="#ma15dec601b" x="69.503492" y="124.086982" style="stroke: #000000"/>
     <use xlink:href="#ma15dec601b" x="111.553968" y="120.852338" style="stroke: #000000"/>
     <use xlink:href="#ma15dec601b" x="156.024683" y="174.464893" style="stroke: #000000"/>
     <use xlink:href="#ma15dec601b" x="128.048722" y="183.474019" style="stroke: #000000"/>
     <use xlink:href="#ma15dec601b" x="150.082423" y="179.917984" style="stroke: #000000"/>
     <use xlink:href="#ma15dec601b" x="164.266106" y="190.714362" style="stroke: #000000"/>
     <use xlink:href="#ma15dec601b" x="103.968493" y="105.194559" style="stroke: #000000"/>
     <use xlink:href="#ma15dec601b" x="99.977217" y="134.449843" style="stroke: #000000"/>
     <use xlink:href="#ma15dec601b" x="127.239856" y="151.850752" style="stroke: #000000"/>
     <use xlink:href="#ma15dec601b" x="214.993788" y="153.130422" style="stroke: #000000"/>
     <use xlink:href="#ma15dec601b" x="147.186678" y="152.680682" style="stroke: #000000"/>
     <use xlink:href="#ma15dec601b" x="52.257997" y="134.473579" style="stroke: #000000"/>
     <use xlink:href="#ma15dec601b" x="136.353472" y="178.723676" style="stroke: #000000"/>
     <use xlink:href="#ma15dec601b" x="154.816062" y="126.308526" style="stroke: #000000"/>
     <use xlink:href="#ma15dec601b" x="116.750077" y="125.533557" style="stroke: #000000"/>
     <use xlink:href="#ma15dec601b" x="183.881382" y="184.297211" style="stroke: #000000"/>
     <use xlink:href="#ma15dec601b" x="164.266106" y="190.714362" style="stroke: #000000"/>
     <use xlink:href="#ma15dec601b" x="97.416247" y="152.459621" style="stroke: #000000"/>
     <use xlink:href="#ma15dec601b" x="100.566149" y="139.936091" style="stroke: #000000"/>
     <use xlink:href="#ma15dec601b" x="183.970791" y="102.731147" style="stroke: #000000"/>
     <use xlink:href="#ma15dec601b" x="115.819315" y="193.361156" style="stroke: #000000"/>
     <use xlink:href="#ma15dec601b" x="84.066823" y="148.552355" style="stroke: #000000"/>
     <use xlink:href="#ma15dec601b" x="139.496697" y="177.349994" style="stroke: #000000"/>
     <use xlink:href="#ma15dec601b" x="94.463001" y="174.797316" style="stroke: #000000"/>
     <use xlink:href="#ma15dec601b" x="146.988372" y="140.863986" style="stroke: #000000"/>
     <use xlink:href="#ma15dec601b" x="115.43802" y="197.201446" style="stroke: #000000"/>
     <use xlink:href="#ma15dec601b" x="68.528935" y="136.273361" style="stroke: #000000"/>
     <use xlink:href="#ma15dec601b" x="68.464521" y="143.146136" style="stroke: #000000"/>
     <use xlink:href="#ma15dec601b" x="174.818671" y="97.354921" style="stroke: #000000"/>
     <use xlink:href="#ma15dec601b" x="172.661698" y="171.306981" style="stroke: #000000"/>
     <use xlink:href="#ma15dec601b" x="117.162838" y="192.10133" style="stroke: #000000"/>
     <use xlink:href="#ma15dec601b" x="67.022429" y="161.872645" style="stroke: #000000"/>
     <use xlink:href="#ma15dec601b" x="151.88069" y="227.949539" style="stroke: #000000"/>
     <use xlink:href="#ma15dec601b" x="168.900351" y="208.589082" style="stroke: #000000"/>
     <use xlink:href="#ma15dec601b" x="88.445911" y="147.828007" style="stroke: #000000"/>
     <use xlink:href="#ma15dec601b" x="183.890981" y="226.220701" style="stroke: #000000"/>
     <use xlink:href="#ma15dec601b" x="132.418516" y="180.281681" style="stroke: #000000"/>
     <use xlink:href="#ma15dec601b" x="96.825799" y="106.691379" style="stroke: #000000"/>
     <use xlink:href="#ma15dec601b" x="124.404558" y="173.860835" style="stroke: #000000"/>
     <use xlink:href="#ma15dec601b" x="171.216362" y="127.84617" style="stroke: #000000"/>
     <use xlink:href="#ma15dec601b" x="62.341976" y="131.170037" style="stroke: #000000"/>
     <use xlink:href="#ma15dec601b" x="137.386897" y="154.939296" style="stroke: #000000"/>
     <use xlink:href="#ma15dec601b" x="76.202496" y="140.002225" style="stroke: #000000"/>
     <use xlink:href="#ma15dec601b" x="187.129316" y="159.104384" style="stroke: #000000"/>
     <use xlink:href="#ma15dec601b" x="110.529089" y="163.37877" style="stroke: #000000"/>
     <use xlink:href="#ma15dec601b" x="125.522059" y="135.527342" style="stroke: #000000"/>
     <use xlink:href="#ma15dec601b" x="52.03765" y="124.142527" style="stroke: #000000"/>
     <use xlink:href="#ma15dec601b" x="148.496871" y="191.186696" style="stroke: #000000"/>
     <use xlink:href="#ma15dec601b" x="142.824371" y="204.27014" style="stroke: #000000"/>
     <use xlink:href="#ma15dec601b" x="121.131463" y="176.505265" style="stroke: #000000"/>
    </g>
   </g>
   <g id="PathCollection_11">
    <defs>
     <path id="m54d0b815ac" d="M -3 -0 
L 3 3 
L 3 -3 
z
" style="stroke: #ff8c00"/>
    </defs>
    <g clip-path="url(#p9ac1fcffe7)">
     <use xlink:href="#m54d0b815ac" x="107.657341" y="176.88838" style="fill: #ff8c00; stroke: #ff8c00"/>
     <use xlink:href="#m54d0b815ac" x="100.618186" y="180.727983" style="fill: #ff8c00; stroke: #ff8c00"/>
     <use xlink:href="#m54d0b815ac" x="77.605286" y="177.929011" style="fill: #ff8c00; stroke: #ff8c00"/>
     <use xlink:href="#m54d0b815ac" x="94.222217" y="175.298622" style="fill: #ff8c00; stroke: #ff8c00"/>
     <use xlink:href="#m54d0b815ac" x="89.549281" y="158.044039" style="fill: #ff8c00; stroke: #ff8c00"/>
     <use xlink:href="#m54d0b815ac" x="96.331787" y="164.793205" style="fill: #ff8c00; stroke: #ff8c00"/>
     <use xlink:href="#m54d0b815ac" x="116.131331" y="159.516621" style="fill: #ff8c00; stroke: #ff8c00"/>
     <use xlink:href="#m54d0b815ac" x="97.41656" y="160.726404" style="fill: #ff8c00; stroke: #ff8c00"/>
     <use xlink:href="#m54d0b815ac" x="153.089743" y="171.501282" style="fill: #ff8c00; stroke: #ff8c00"/>
     <use xlink:href="#m54d0b815ac" x="136.693252" y="148.356653" style="fill: #ff8c00; stroke: #ff8c00"/>
     <use xlink:href="#m54d0b815ac" x="165.361021" y="98.315294" style="fill: #ff8c00; stroke: #ff8c00"/>
     <use xlink:href="#m54d0b815ac" x="171.957748" y="203.645865" style="fill: #ff8c00; stroke: #ff8c00"/>
     <use xlink:href="#m54d0b815ac" x="150.283099" y="150.117614" style="fill: #ff8c00; stroke: #ff8c00"/>
     <use xlink:href="#m54d0b815ac" x="63.406344" y="132.695831" style="fill: #ff8c00; stroke: #ff8c00"/>
     <use xlink:href="#m54d0b815ac" x="166.439033" y="145.598225" style="fill: #ff8c00; stroke: #ff8c00"/>
     <use xlink:href="#m54d0b815ac" x="150.010143" y="152.429352" style="fill: #ff8c00; stroke: #ff8c00"/>
     <use xlink:href="#m54d0b815ac" x="119.793794" y="117.892897" style="fill: #ff8c00; stroke: #ff8c00"/>
     <use xlink:href="#m54d0b815ac" x="182.929951" y="152.222551" style="fill: #ff8c00; stroke: #ff8c00"/>
     <use xlink:href="#m54d0b815ac" x="85.25883" y="174.823853" style="fill: #ff8c00; stroke: #ff8c00"/>
     <use xlink:href="#m54d0b815ac" x="98.426471" y="158.381441" style="fill: #ff8c00; stroke: #ff8c00"/>
     <use xlink:href="#m54d0b815ac" x="106.359189" y="117.661107" style="fill: #ff8c00; stroke: #ff8c00"/>
     <use xlink:href="#m54d0b815ac" x="66.661911" y="150.409589" style="fill: #ff8c00; stroke: #ff8c00"/>
     <use xlink:href="#m54d0b815ac" x="76.807448" y="160.2418" style="fill: #ff8c00; stroke: #ff8c00"/>
     <use xlink:href="#m54d0b815ac" x="92.781982" y="159.694063" style="fill: #ff8c00; stroke: #ff8c00"/>
     <use xlink:href="#m54d0b815ac" x="86.70674" y="140.294134" style="fill: #ff8c00; stroke: #ff8c00"/>
     <use xlink:href="#m54d0b815ac" x="104.311482" y="143.657269" style="fill: #ff8c00; stroke: #ff8c00"/>
     <use xlink:href="#m54d0b815ac" x="69.697306" y="153.473682" style="fill: #ff8c00; stroke: #ff8c00"/>
     <use xlink:href="#m54d0b815ac" x="120.08036" y="124.796181" style="fill: #ff8c00; stroke: #ff8c00"/>
     <use xlink:href="#m54d0b815ac" x="102.301074" y="124.144638" style="fill: #ff8c00; stroke: #ff8c00"/>
     <use xlink:href="#m54d0b815ac" x="111.979932" y="122.078118" style="fill: #ff8c00; stroke: #ff8c00"/>
     <use xlink:href="#m54d0b815ac" x="92.071996" y="165.623776" style="fill: #ff8c00; stroke: #ff8c00"/>
     <use xlink:href="#m54d0b815ac" x="80.991634" y="190.791182" style="fill: #ff8c00; stroke: #ff8c00"/>
     <use xlink:href="#m54d0b815ac" x="137.696456" y="160.625364" style="fill: #ff8c00; stroke: #ff8c00"/>
     <use xlink:href="#m54d0b815ac" x="76.196678" y="153.539314" style="fill: #ff8c00; stroke: #ff8c00"/>
     <use xlink:href="#m54d0b815ac" x="99.3855" y="161.39937" style="fill: #ff8c00; stroke: #ff8c00"/>
     <use xlink:href="#m54d0b815ac" x="85.118914" y="154.06739" style="fill: #ff8c00; stroke: #ff8c00"/>
     <use xlink:href="#m54d0b815ac" x="85.593069" y="104.739402" style="fill: #ff8c00; stroke: #ff8c00"/>
     <use xlink:href="#m54d0b815ac" x="97.583049" y="167.542435" style="fill: #ff8c00; stroke: #ff8c00"/>
     <use xlink:href="#m54d0b815ac" x="126.658119" y="180.695824" style="fill: #ff8c00; stroke: #ff8c00"/>
     <use xlink:href="#m54d0b815ac" x="88.453181" y="161.502281" style="fill: #ff8c00; stroke: #ff8c00"/>
     <use xlink:href="#m54d0b815ac" x="92.99067" y="173.480371" style="fill: #ff8c00; stroke: #ff8c00"/>
     <use xlink:href="#m54d0b815ac" x="99.800431" y="176.251209" style="fill: #ff8c00; stroke: #ff8c00"/>
     <use xlink:href="#m54d0b815ac" x="131.565594" y="167.724135" style="fill: #ff8c00; stroke: #ff8c00"/>
     <use xlink:href="#m54d0b815ac" x="196.53321" y="151.971199" style="fill: #ff8c00; stroke: #ff8c00"/>
     <use xlink:href="#m54d0b815ac" x="87.690122" y="140.530347" style="fill: #ff8c00; stroke: #ff8c00"/>
     <use xlink:href="#m54d0b815ac" x="111.950479" y="135.944702" style="fill: #ff8c00; stroke: #ff8c00"/>
     <use xlink:href="#m54d0b815ac" x="99.418869" y="152.550622" style="fill: #ff8c00; stroke: #ff8c00"/>
     <use xlink:href="#m54d0b815ac" x="122.66651" y="147.606611" style="fill: #ff8c00; stroke: #ff8c00"/>
     <use xlink:href="#m54d0b815ac" x="139.75883" y="174.639204" style="fill: #ff8c00; stroke: #ff8c00"/>
     <use xlink:href="#m54d0b815ac" x="147.218902" y="164.244803" style="fill: #ff8c00; stroke: #ff8c00"/>
     <use xlink:href="#m54d0b815ac" x="165.154205" y="128.729241" style="fill: #ff8c00; stroke: #ff8c00"/>
     <use xlink:href="#m54d0b815ac" x="108.715039" y="165.278684" style="fill: #ff8c00; stroke: #ff8c00"/>
     <use xlink:href="#m54d0b815ac" x="145.500925" y="156.587251" style="fill: #ff8c00; stroke: #ff8c00"/>
     <use xlink:href="#m54d0b815ac" x="105.140214" y="172.720426" style="fill: #ff8c00; stroke: #ff8c00"/>
     <use xlink:href="#m54d0b815ac" x="113.948478" y="156.178873" style="fill: #ff8c00; stroke: #ff8c00"/>
     <use xlink:href="#m54d0b815ac" x="74.526906" y="121.84779" style="fill: #ff8c00; stroke: #ff8c00"/>
     <use xlink:href="#m54d0b815ac" x="189.590914" y="128.502464" style="fill: #ff8c00; stroke: #ff8c00"/>
     <use xlink:href="#m54d0b815ac" x="83.691512" y="172.445718" style="fill: #ff8c00; stroke: #ff8c00"/>
     <use xlink:href="#m54d0b815ac" x="59.854389" y="140.202189" style="fill: #ff8c00; stroke: #ff8c00"/>
     <use xlink:href="#m54d0b815ac" x="79.38976" y="172.037039" style="fill: #ff8c00; stroke: #ff8c00"/>
     <use xlink:href="#m54d0b815ac" x="157.839169" y="138.802991" style="fill: #ff8c00; stroke: #ff8c00"/>
     <use xlink:href="#m54d0b815ac" x="83.338852" y="169.581409" style="fill: #ff8c00; stroke: #ff8c00"/>
     <use xlink:href="#m54d0b815ac" x="97.048738" y="174.544123" style="fill: #ff8c00; stroke: #ff8c00"/>
     <use xlink:href="#m54d0b815ac" x="91.889348" y="151.244708" style="fill: #ff8c00; stroke: #ff8c00"/>
    </g>
   </g>
   <g id="matplotlib.axis_1">
    <g id="xtick_1">
     <g id="line2d_1">
      <defs>
       <path id="m31025ef887" d="M 0 0 
L 0 3.5 
" style="stroke: #000000; stroke-width: 0.8"/>
      </defs>
      <g>
       <use xlink:href="#m31025ef887" x="37.911004" y="273.312" style="stroke: #000000; stroke-width: 0.8"/>
      </g>
     </g>
     <g id="text_1">
      <!-- −15 -->
      <g transform="translate(27.35866 287.910437) scale(0.1 -0.1)">
       <defs>
        <path id="DejaVuSans-2212" d="M 678 2272 
L 4684 2272 
L 4684 1741 
L 678 1741 
L 678 2272 
z
" transform="scale(0.015625)"/>
        <path id="DejaVuSans-31" d="M 794 531 
L 1825 531 
L 1825 4091 
L 703 3866 
L 703 4441 
L 1819 4666 
L 2450 4666 
L 2450 531 
L 3481 531 
L 3481 0 
L 794 0 
L 794 531 
z
" transform="scale(0.015625)"/>
        <path id="DejaVuSans-35" d="M 691 4666 
L 3169 4666 
L 3169 4134 
L 1269 4134 
L 1269 2991 
Q 1406 3038 1543 3061 
Q 1681 3084 1819 3084 
Q 2600 3084 3056 2656 
Q 3513 2228 3513 1497 
Q 3513 744 3044 326 
Q 2575 -91 1722 -91 
Q 1428 -91 1123 -41 
Q 819 9 494 109 
L 494 744 
Q 775 591 1075 516 
Q 1375 441 1709 441 
Q 2250 441 2565 725 
Q 2881 1009 2881 1497 
Q 2881 1984 2565 2268 
Q 2250 2553 1709 2553 
Q 1456 2553 1204 2497 
Q 953 2441 691 2322 
L 691 4666 
z
" transform="scale(0.015625)"/>
       </defs>
       <use xlink:href="#DejaVuSans-2212"/>
       <use xlink:href="#DejaVuSans-31" x="83.789062"/>
       <use xlink:href="#DejaVuSans-35" x="147.412109"/>
      </g>
     </g>
    </g>
    <g id="xtick_2">
     <g id="line2d_2">
      <g>
       <use xlink:href="#m31025ef887" x="79.522223" y="273.312" style="stroke: #000000; stroke-width: 0.8"/>
      </g>
     </g>
     <g id="text_2">
      <!-- −10 -->
      <g transform="translate(68.96988 287.910437) scale(0.1 -0.1)">
       <defs>
        <path id="DejaVuSans-30" d="M 2034 4250 
Q 1547 4250 1301 3770 
Q 1056 3291 1056 2328 
Q 1056 1369 1301 889 
Q 1547 409 2034 409 
Q 2525 409 2770 889 
Q 3016 1369 3016 2328 
Q 3016 3291 2770 3770 
Q 2525 4250 2034 4250 
z
M 2034 4750 
Q 2819 4750 3233 4129 
Q 3647 3509 3647 2328 
Q 3647 1150 3233 529 
Q 2819 -91 2034 -91 
Q 1250 -91 836 529 
Q 422 1150 422 2328 
Q 422 3509 836 4129 
Q 1250 4750 2034 4750 
z
" transform="scale(0.015625)"/>
       </defs>
       <use xlink:href="#DejaVuSans-2212"/>
       <use xlink:href="#DejaVuSans-31" x="83.789062"/>
       <use xlink:href="#DejaVuSans-30" x="147.412109"/>
      </g>
     </g>
    </g>
    <g id="xtick_3">
     <g id="line2d_3">
      <g>
       <use xlink:href="#m31025ef887" x="121.133443" y="273.312" style="stroke: #000000; stroke-width: 0.8"/>
      </g>
     </g>
     <g id="text_3">
      <!-- −5 -->
      <g transform="translate(113.762349 287.910437) scale(0.1 -0.1)">
       <use xlink:href="#DejaVuSans-2212"/>
       <use xlink:href="#DejaVuSans-35" x="83.789062"/>
      </g>
     </g>
    </g>
    <g id="xtick_4">
     <g id="line2d_4">
      <g>
       <use xlink:href="#m31025ef887" x="162.744662" y="273.312" style="stroke: #000000; stroke-width: 0.8"/>
      </g>
     </g>
     <g id="text_4">
      <!-- 0 -->
      <g transform="translate(159.563412 287.910437) scale(0.1 -0.1)">
       <use xlink:href="#DejaVuSans-30"/>
      </g>
     </g>
    </g>
    <g id="xtick_5">
     <g id="line2d_5">
      <g>
       <use xlink:href="#m31025ef887" x="204.355882" y="273.312" style="stroke: #000000; stroke-width: 0.8"/>
      </g>
     </g>
     <g id="text_5">
      <!-- 5 -->
      <g transform="translate(201.174632 287.910437) scale(0.1 -0.1)">
       <use xlink:href="#DejaVuSans-35"/>
      </g>
     </g>
    </g>
    <g id="xtick_6">
     <g id="line2d_6">
      <g>
       <use xlink:href="#m31025ef887" x="245.967101" y="273.312" style="stroke: #000000; stroke-width: 0.8"/>
      </g>
     </g>
     <g id="text_6">
      <!-- 10 -->
      <g transform="translate(239.604601 287.910437) scale(0.1 -0.1)">
       <use xlink:href="#DejaVuSans-31"/>
       <use xlink:href="#DejaVuSans-30" x="63.623047"/>
      </g>
     </g>
    </g>
    <g id="xtick_7">
     <g id="line2d_7">
      <g>
       <use xlink:href="#m31025ef887" x="287.57832" y="273.312" style="stroke: #000000; stroke-width: 0.8"/>
      </g>
     </g>
     <g id="text_7">
      <!-- 15 -->
      <g transform="translate(281.21582 287.910437) scale(0.1 -0.1)">
       <use xlink:href="#DejaVuSans-31"/>
       <use xlink:href="#DejaVuSans-35" x="63.623047"/>
      </g>
     </g>
    </g>
    <g id="xtick_8">
     <g id="line2d_8">
      <g>
       <use xlink:href="#m31025ef887" x="329.18954" y="273.312" style="stroke: #000000; stroke-width: 0.8"/>
      </g>
     </g>
     <g id="text_8">
      <!-- 20 -->
      <g transform="translate(322.82704 287.910437) scale(0.1 -0.1)">
       <defs>
        <path id="DejaVuSans-32" d="M 1228 531 
L 3431 531 
L 3431 0 
L 469 0 
L 469 531 
Q 828 903 1448 1529 
Q 2069 2156 2228 2338 
Q 2531 2678 2651 2914 
Q 2772 3150 2772 3378 
Q 2772 3750 2511 3984 
Q 2250 4219 1831 4219 
Q 1534 4219 1204 4116 
Q 875 4013 500 3803 
L 500 4441 
Q 881 4594 1212 4672 
Q 1544 4750 1819 4750 
Q 2544 4750 2975 4387 
Q 3406 4025 3406 3419 
Q 3406 3131 3298 2873 
Q 3191 2616 2906 2266 
Q 2828 2175 2409 1742 
Q 1991 1309 1228 531 
z
" transform="scale(0.015625)"/>
       </defs>
       <use xlink:href="#DejaVuSans-32"/>
       <use xlink:href="#DejaVuSans-30" x="63.623047"/>
      </g>
     </g>
    </g>
    <g id="xtick_9">
     <g id="line2d_9">
      <g>
       <use xlink:href="#m31025ef887" x="370.800759" y="273.312" style="stroke: #000000; stroke-width: 0.8"/>
      </g>
     </g>
     <g id="text_9">
      <!-- 25 -->
      <g transform="translate(364.438259 287.910437) scale(0.1 -0.1)">
       <use xlink:href="#DejaVuSans-32"/>
       <use xlink:href="#DejaVuSans-35" x="63.623047"/>
      </g>
     </g>
    </g>
   </g>
   <g id="matplotlib.axis_2">
    <g id="ytick_1">
     <g id="line2d_10">
      <defs>
       <path id="m15b4c03d86" d="M 0 0 
L -3.5 0 
" style="stroke: #000000; stroke-width: 0.8"/>
      </defs>
      <g>
       <use xlink:href="#m15b4c03d86" x="35.304688" y="222.100143" style="stroke: #000000; stroke-width: 0.8"/>
      </g>
     </g>
     <g id="text_10">
      <!-- −10 -->
      <g transform="translate(7.2 225.899362) scale(0.1 -0.1)">
       <use xlink:href="#DejaVuSans-2212"/>
       <use xlink:href="#DejaVuSans-31" x="83.789062"/>
       <use xlink:href="#DejaVuSans-30" x="147.412109"/>
      </g>
     </g>
    </g>
    <g id="ytick_2">
     <g id="line2d_11">
      <g>
       <use xlink:href="#m15b4c03d86" x="35.304688" y="166.069738" style="stroke: #000000; stroke-width: 0.8"/>
      </g>
     </g>
     <g id="text_11">
      <!-- 0 -->
      <g transform="translate(21.942187 169.868957) scale(0.1 -0.1)">
       <use xlink:href="#DejaVuSans-30"/>
      </g>
     </g>
    </g>
    <g id="ytick_3">
     <g id="line2d_12">
      <g>
       <use xlink:href="#m15b4c03d86" x="35.304688" y="110.039334" style="stroke: #000000; stroke-width: 0.8"/>
      </g>
     </g>
     <g id="text_12">
      <!-- 10 -->
      <g transform="translate(15.579687 113.838552) scale(0.1 -0.1)">
       <use xlink:href="#DejaVuSans-31"/>
       <use xlink:href="#DejaVuSans-30" x="63.623047"/>
      </g>
     </g>
    </g>
    <g id="ytick_4">
     <g id="line2d_13">
      <g>
       <use xlink:href="#m15b4c03d86" x="35.304688" y="54.008929" style="stroke: #000000; stroke-width: 0.8"/>
      </g>
     </g>
     <g id="text_13">
      <!-- 20 -->
      <g transform="translate(15.579687 57.808148) scale(0.1 -0.1)">
       <use xlink:href="#DejaVuSans-32"/>
       <use xlink:href="#DejaVuSans-30" x="63.623047"/>
      </g>
     </g>
    </g>
   </g>
   <g id="patch_3">
    <path d="M 35.304688 273.312 
L 35.304688 7.2 
" style="fill: none; stroke: #000000; stroke-width: 0.8; stroke-linejoin: miter; stroke-linecap: square"/>
   </g>
   <g id="patch_4">
    <path d="M 392.424688 273.312 
L 392.424688 7.2 
" style="fill: none; stroke: #000000; stroke-width: 0.8; stroke-linejoin: miter; stroke-linecap: square"/>
   </g>
   <g id="patch_5">
    <path d="M 35.304687 273.312 
L 392.424688 273.312 
" style="fill: none; stroke: #000000; stroke-width: 0.8; stroke-linejoin: miter; stroke-linecap: square"/>
   </g>
   <g id="patch_6">
    <path d="M 35.304687 7.2 
L 392.424688 7.2 
" style="fill: none; stroke: #000000; stroke-width: 0.8; stroke-linejoin: miter; stroke-linecap: square"/>
   </g>
  </g>
 </g>
 <defs>
  <clipPath id="p9ac1fcffe7">
   <rect x="35.304688" y="7.2" width="357.12" height="266.112"/>
  </clipPath>
 </defs>
</svg>
