<?xml version="1.0" encoding="utf-8" standalone="no"?>
<!DOCTYPE svg PUBLIC "-//W3C//DTD SVG 1.1//EN"
  "http://www.w3.org/Graphics/SVG/1.1/DTD/svg11.dtd">
<svg xmlns:xlink="http://www.w3.org/1999/xlink" width="399.624687pt" height="297.190125pt" viewBox="0 0 399.624687 297.190125" xmlns="http://www.w3.org/2000/svg" version="1.1">
 <metadata>
  <rdf:RDF xmlns:dc="http://purl.org/dc/elements/1.1/" xmlns:cc="http://creativecommons.org/ns#" xmlns:rdf="http://www.w3.org/1999/02/22-rdf-syntax-ns#">
   <cc:Work>
    <dc:type rdf:resource="http://purl.org/dc/dcmitype/StillImage"/>
    <dc:date>2023-11-13T06:51:42.687815</dc:date>
    <dc:format>image/svg+xml</dc:format>
    <dc:creator>
     <cc:Agent>
      <dc:title>Matplotlib v3.8.0, https://matplotlib.org/</dc:title>
     </cc:Agent>
    </dc:creator>
   </cc:Work>
  </rdf:RDF>
 </metadata>
 <defs>
  <style type="text/css">*{stroke-linejoin: round; stroke-linecap: butt}</style>
 </defs>
 <g id="figure_1">
  <g id="patch_1">
   <path d="M 0 297.190125 
L 399.624687 297.190125 
L 399.624687 0 
L 0 0 
z
" style="fill: #ffffff"/>
  </g>
  <g id="axes_1">
   <g id="patch_2">
    <path d="M 35.304688 273.312 
L 392.424688 273.312 
L 392.424688 7.2 
L 35.304688 7.2 
z
" style="fill: #ffffff"/>
   </g>
   <g id="PathCollection_1">
    <defs>
     <path id="m1b1446b54c" d="M 0 1.5 
C 0.397805 1.5 0.77937 1.341951 1.06066 1.06066 
C 1.341951 0.77937 1.5 0.397805 1.5 0 
C 1.5 -0.397805 1.341951 -0.77937 1.06066 -1.06066 
C 0.77937 -1.341951 0.397805 -1.5 0 -1.5 
C -0.397805 -1.5 -0.77937 -1.341951 -1.06066 -1.06066 
C -1.341951 -0.77937 -1.5 -0.397805 -1.5 0 
C -1.5 0.397805 -1.341951 0.77937 -1.06066 1.06066 
C -0.77937 1.341951 -0.397805 1.5 0 1.5 
z
" style="stroke: #ff8c00"/>
    </defs>
    <g clip-path="url(#pceeffe1c8f)">
     <use xlink:href="#m1b1446b54c" x="179.936329" y="171.749934" style="fill: #ff8c00; stroke: #ff8c00"/>
     <use xlink:href="#m1b1446b54c" x="210.708904" y="196.950601" style="fill: #ff8c00; stroke: #ff8c00"/>
     <use xlink:href="#m1b1446b54c" x="224.752709" y="247.642669" style="fill: #ff8c00; stroke: #ff8c00"/>
     <use xlink:href="#m1b1446b54c" x="189.087569" y="174.749429" style="fill: #ff8c00; stroke: #ff8c00"/>
     <use xlink:href="#m1b1446b54c" x="229.89329" y="212.208218" style="fill: #ff8c00; stroke: #ff8c00"/>
     <use xlink:href="#m1b1446b54c" x="207.429987" y="216.898543" style="fill: #ff8c00; stroke: #ff8c00"/>
     <use xlink:href="#m1b1446b54c" x="231.63113" y="218.44371" style="fill: #ff8c00; stroke: #ff8c00"/>
     <use xlink:href="#m1b1446b54c" x="190.172239" y="168.459802" style="fill: #ff8c00; stroke: #ff8c00"/>
     <use xlink:href="#m1b1446b54c" x="237.457577" y="213.104283" style="fill: #ff8c00; stroke: #ff8c00"/>
     <use xlink:href="#m1b1446b54c" x="210.013637" y="189.272592" style="fill: #ff8c00; stroke: #ff8c00"/>
     <use xlink:href="#m1b1446b54c" x="218.480926" y="195.850947" style="fill: #ff8c00; stroke: #ff8c00"/>
     <use xlink:href="#m1b1446b54c" x="191.316221" y="178.296605" style="fill: #ff8c00; stroke: #ff8c00"/>
     <use xlink:href="#m1b1446b54c" x="218.242029" y="162.48365" style="fill: #ff8c00; stroke: #ff8c00"/>
     <use xlink:href="#m1b1446b54c" x="233.922765" y="196.972985" style="fill: #ff8c00; stroke: #ff8c00"/>
     <use xlink:href="#m1b1446b54c" x="181.932966" y="222.707422" style="fill: #ff8c00; stroke: #ff8c00"/>
     <use xlink:href="#m1b1446b54c" x="191.517022" y="191.614532" style="fill: #ff8c00; stroke: #ff8c00"/>
     <use xlink:href="#m1b1446b54c" x="207.026452" y="190.349228" style="fill: #ff8c00; stroke: #ff8c00"/>
    </g>
   </g>
   <g id="PathCollection_2">
    <defs>
     <path id="m22f8dce460" d="M 0 1.5 
C 0.397805 1.5 0.77937 1.341951 1.06066 1.06066 
C 1.341951 0.77937 1.5 0.397805 1.5 0 
C 1.5 -0.397805 1.341951 -0.77937 1.06066 -1.06066 
C 0.77937 -1.341951 0.397805 -1.5 0 -1.5 
C -0.397805 -1.5 -0.77937 -1.341951 -1.06066 -1.06066 
C -1.341951 -0.77937 -1.5 -0.397805 -1.5 0 
C -1.5 0.397805 -1.341951 0.77937 -1.06066 1.06066 
C -0.77937 1.341951 -0.397805 1.5 0 1.5 
z
" style="stroke: #006400"/>
    </defs>
    <g clip-path="url(#pceeffe1c8f)">
     <use xlink:href="#m22f8dce460" x="225.199292" y="136.961391" style="fill: #006400; stroke: #006400"/>
     <use xlink:href="#m22f8dce460" x="162.316648" y="81.563237" style="fill: #006400; stroke: #006400"/>
     <use xlink:href="#m22f8dce460" x="165.37139" y="161.588389" style="fill: #006400; stroke: #006400"/>
     <use xlink:href="#m22f8dce460" x="205.366927" y="171.807268" style="fill: #006400; stroke: #006400"/>
     <use xlink:href="#m22f8dce460" x="223.699165" y="132.97396" style="fill: #006400; stroke: #006400"/>
     <use xlink:href="#m22f8dce460" x="376.19196" y="19.296" style="fill: #006400; stroke: #006400"/>
     <use xlink:href="#m22f8dce460" x="175.12021" y="96.892563" style="fill: #006400; stroke: #006400"/>
     <use xlink:href="#m22f8dce460" x="189.057003" y="137.743786" style="fill: #006400; stroke: #006400"/>
     <use xlink:href="#m22f8dce460" x="206.594014" y="178.459464" style="fill: #006400; stroke: #006400"/>
     <use xlink:href="#m22f8dce460" x="215.871766" y="91.285006" style="fill: #006400; stroke: #006400"/>
    </g>
   </g>
   <g id="PathCollection_3">
    <defs>
     <path id="md75980526d" d="M 0 1.5 
C 0.397805 1.5 0.77937 1.341951 1.06066 1.06066 
C 1.341951 0.77937 1.5 0.397805 1.5 0 
C 1.5 -0.397805 1.341951 -0.77937 1.06066 -1.06066 
C 0.77937 -1.341951 0.397805 -1.5 0 -1.5 
C -0.397805 -1.5 -0.77937 -1.341951 -1.06066 -1.06066 
C -1.341951 -0.77937 -1.5 -0.397805 -1.5 0 
C -1.5 0.397805 -1.341951 0.77937 -1.06066 1.06066 
C -0.77937 1.341951 -0.397805 1.5 0 1.5 
z
" style="stroke: #2f4f4f"/>
    </defs>
    <g clip-path="url(#pceeffe1c8f)">
     <use xlink:href="#md75980526d" x="186.211494" y="198.439611" style="fill: #2f4f4f; stroke: #2f4f4f"/>
     <use xlink:href="#md75980526d" x="162.508407" y="244.452959" style="fill: #2f4f4f; stroke: #2f4f4f"/>
     <use xlink:href="#md75980526d" x="111.884778" y="243.881275" style="fill: #2f4f4f; stroke: #2f4f4f"/>
     <use xlink:href="#md75980526d" x="152.631229" y="240.784932" style="fill: #2f4f4f; stroke: #2f4f4f"/>
     <use xlink:href="#md75980526d" x="236.020245" y="211.593891" style="fill: #2f4f4f; stroke: #2f4f4f"/>
     <use xlink:href="#md75980526d" x="184.307794" y="191.009837" style="fill: #2f4f4f; stroke: #2f4f4f"/>
     <use xlink:href="#md75980526d" x="153.342023" y="223.442504" style="fill: #2f4f4f; stroke: #2f4f4f"/>
     <use xlink:href="#md75980526d" x="181.195927" y="230.320747" style="fill: #2f4f4f; stroke: #2f4f4f"/>
     <use xlink:href="#md75980526d" x="70.69661" y="194.120069" style="fill: #2f4f4f; stroke: #2f4f4f"/>
     <use xlink:href="#md75980526d" x="156.627346" y="231.470435" style="fill: #2f4f4f; stroke: #2f4f4f"/>
     <use xlink:href="#md75980526d" x="206.277558" y="196.782372" style="fill: #2f4f4f; stroke: #2f4f4f"/>
     <use xlink:href="#md75980526d" x="242.263426" y="241.003551" style="fill: #2f4f4f; stroke: #2f4f4f"/>
     <use xlink:href="#md75980526d" x="135.04909" y="203.539451" style="fill: #2f4f4f; stroke: #2f4f4f"/>
     <use xlink:href="#md75980526d" x="172.087827" y="237.609952" style="fill: #2f4f4f; stroke: #2f4f4f"/>
     <use xlink:href="#md75980526d" x="192.710554" y="210.73962" style="fill: #2f4f4f; stroke: #2f4f4f"/>
    </g>
   </g>
   <g id="PathCollection_4">
    <defs>
     <path id="m5706331725" d="M 0 1.5 
C 0.397805 1.5 0.77937 1.341951 1.06066 1.06066 
C 1.341951 0.77937 1.5 0.397805 1.5 0 
C 1.5 -0.397805 1.341951 -0.77937 1.06066 -1.06066 
C 0.77937 -1.341951 0.397805 -1.5 0 -1.5 
C -0.397805 -1.5 -0.77937 -1.341951 -1.06066 -1.06066 
C -1.341951 -0.77937 -1.5 -0.397805 -1.5 0 
C -1.5 0.397805 -1.341951 0.77937 -1.06066 1.06066 
C -0.77937 1.341951 -0.397805 1.5 0 1.5 
z
" style="stroke: #00bfff"/>
    </defs>
    <g clip-path="url(#pceeffe1c8f)">
     <use xlink:href="#m5706331725" x="178.026183" y="220.468614" style="fill: #00bfff; stroke: #00bfff"/>
     <use xlink:href="#m5706331725" x="140.169043" y="228.318881" style="fill: #00bfff; stroke: #00bfff"/>
     <use xlink:href="#m5706331725" x="173.309507" y="248.53022" style="fill: #00bfff; stroke: #00bfff"/>
     <use xlink:href="#m5706331725" x="133.130737" y="228.878472" style="fill: #00bfff; stroke: #00bfff"/>
     <use xlink:href="#m5706331725" x="190.857571" y="171.488997" style="fill: #00bfff; stroke: #00bfff"/>
     <use xlink:href="#m5706331725" x="145.539113" y="181.526486" style="fill: #00bfff; stroke: #00bfff"/>
    </g>
   </g>
   <g id="PathCollection_5">
    <defs>
     <path id="m43c4c0161f" d="M 0 1.5 
C 0.397805 1.5 0.77937 1.341951 1.06066 1.06066 
C 1.341951 0.77937 1.5 0.397805 1.5 0 
C 1.5 -0.397805 1.341951 -0.77937 1.06066 -1.06066 
C 0.77937 -1.341951 0.397805 -1.5 0 -1.5 
C -0.397805 -1.5 -0.77937 -1.341951 -1.06066 -1.06066 
C -1.341951 -0.77937 -1.5 -0.397805 -1.5 0 
C -1.5 0.397805 -1.341951 0.77937 -1.06066 1.06066 
C -0.77937 1.341951 -0.397805 1.5 0 1.5 
z
" style="stroke: #ffff00"/>
    </defs>
    <g clip-path="url(#pceeffe1c8f)">
     <use xlink:href="#m43c4c0161f" x="200.947516" y="249.872428" style="fill: #ffff00; stroke: #ffff00"/>
     <use xlink:href="#m43c4c0161f" x="185.718463" y="261.216" style="fill: #ffff00; stroke: #ffff00"/>
     <use xlink:href="#m43c4c0161f" x="180.573961" y="214.74255" style="fill: #ffff00; stroke: #ffff00"/>
     <use xlink:href="#m43c4c0161f" x="125.462827" y="242.743056" style="fill: #ffff00; stroke: #ffff00"/>
     <use xlink:href="#m43c4c0161f" x="131.503413" y="191.566097" style="fill: #ffff00; stroke: #ffff00"/>
     <use xlink:href="#m43c4c0161f" x="87.698574" y="210.718587" style="fill: #ffff00; stroke: #ffff00"/>
     <use xlink:href="#m43c4c0161f" x="183.718073" y="191.869448" style="fill: #ffff00; stroke: #ffff00"/>
     <use xlink:href="#m43c4c0161f" x="131.275003" y="240.28085" style="fill: #ffff00; stroke: #ffff00"/>
     <use xlink:href="#m43c4c0161f" x="117.012993" y="208.144288" style="fill: #ffff00; stroke: #ffff00"/>
     <use xlink:href="#m43c4c0161f" x="111.878119" y="221.629297" style="fill: #ffff00; stroke: #ffff00"/>
     <use xlink:href="#m43c4c0161f" x="191.963068" y="219.096773" style="fill: #ffff00; stroke: #ffff00"/>
     <use xlink:href="#m43c4c0161f" x="169.658503" y="247.187691" style="fill: #ffff00; stroke: #ffff00"/>
     <use xlink:href="#m43c4c0161f" x="206.124438" y="221.604484" style="fill: #ffff00; stroke: #ffff00"/>
     <use xlink:href="#m43c4c0161f" x="152.547282" y="235.137843" style="fill: #ffff00; stroke: #ffff00"/>
     <use xlink:href="#m43c4c0161f" x="198.209876" y="177.702459" style="fill: #ffff00; stroke: #ffff00"/>
     <use xlink:href="#m43c4c0161f" x="147.34214" y="224.752284" style="fill: #ffff00; stroke: #ffff00"/>
     <use xlink:href="#m43c4c0161f" x="158.794459" y="248.005462" style="fill: #ffff00; stroke: #ffff00"/>
     <use xlink:href="#m43c4c0161f" x="195.708708" y="240.399159" style="fill: #ffff00; stroke: #ffff00"/>
     <use xlink:href="#m43c4c0161f" x="142.429933" y="222.781776" style="fill: #ffff00; stroke: #ffff00"/>
    </g>
   </g>
   <g id="PathCollection_6">
    <defs>
     <path id="m63ae1228e9" d="M 0 1.5 
C 0.397805 1.5 0.77937 1.341951 1.06066 1.06066 
C 1.341951 0.77937 1.5 0.397805 1.5 0 
C 1.5 -0.397805 1.341951 -0.77937 1.06066 -1.06066 
C 0.77937 -1.341951 0.397805 -1.5 0 -1.5 
C -0.397805 -1.5 -0.77937 -1.341951 -1.06066 -1.06066 
C -1.341951 -0.77937 -1.5 -0.397805 -1.5 0 
C -1.5 0.397805 -1.341951 0.77937 -1.06066 1.06066 
C -0.77937 1.341951 -0.397805 1.5 0 1.5 
z
" style="stroke: #00ffff"/>
    </defs>
    <g clip-path="url(#pceeffe1c8f)">
     <use xlink:href="#m63ae1228e9" x="139.809209" y="215.537058" style="fill: #00ffff; stroke: #00ffff"/>
     <use xlink:href="#m63ae1228e9" x="164.621503" y="228.953363" style="fill: #00ffff; stroke: #00ffff"/>
     <use xlink:href="#m63ae1228e9" x="149.677555" y="177.18295" style="fill: #00ffff; stroke: #00ffff"/>
     <use xlink:href="#m63ae1228e9" x="160.079795" y="206.074831" style="fill: #00ffff; stroke: #00ffff"/>
     <use xlink:href="#m63ae1228e9" x="179.766266" y="253.113951" style="fill: #00ffff; stroke: #00ffff"/>
     <use xlink:href="#m63ae1228e9" x="111.104335" y="200.489174" style="fill: #00ffff; stroke: #00ffff"/>
     <use xlink:href="#m63ae1228e9" x="182.923338" y="210.88684" style="fill: #00ffff; stroke: #00ffff"/>
     <use xlink:href="#m63ae1228e9" x="167.166302" y="186.700986" style="fill: #00ffff; stroke: #00ffff"/>
     <use xlink:href="#m63ae1228e9" x="164.844388" y="260.590367" style="fill: #00ffff; stroke: #00ffff"/>
     <use xlink:href="#m63ae1228e9" x="192.159954" y="227.050763" style="fill: #00ffff; stroke: #00ffff"/>
     <use xlink:href="#m63ae1228e9" x="133.071263" y="238.436559" style="fill: #00ffff; stroke: #00ffff"/>
     <use xlink:href="#m63ae1228e9" x="137.305755" y="178.450027" style="fill: #00ffff; stroke: #00ffff"/>
     <use xlink:href="#m63ae1228e9" x="168.205748" y="213.76267" style="fill: #00ffff; stroke: #00ffff"/>
     <use xlink:href="#m63ae1228e9" x="136.939901" y="218.808445" style="fill: #00ffff; stroke: #00ffff"/>
     <use xlink:href="#m63ae1228e9" x="158.092207" y="218.440689" style="fill: #00ffff; stroke: #00ffff"/>
     <use xlink:href="#m63ae1228e9" x="147.436324" y="223.105155" style="fill: #00ffff; stroke: #00ffff"/>
    </g>
   </g>
   <g id="PathCollection_7">
    <defs>
     <path id="m3c1910e32e" d="M 0 1.5 
C 0.397805 1.5 0.77937 1.341951 1.06066 1.06066 
C 1.341951 0.77937 1.5 0.397805 1.5 0 
C 1.5 -0.397805 1.341951 -0.77937 1.06066 -1.06066 
C 0.77937 -1.341951 0.397805 -1.5 0 -1.5 
C -0.397805 -1.5 -0.77937 -1.341951 -1.06066 -1.06066 
C -1.341951 -0.77937 -1.5 -0.397805 -1.5 0 
C -1.5 0.397805 -1.341951 0.77937 -1.06066 1.06066 
C -0.77937 1.341951 -0.397805 1.5 0 1.5 
z
" style="stroke: #0000ff"/>
    </defs>
    <g clip-path="url(#pceeffe1c8f)">
     <use xlink:href="#m3c1910e32e" x="180.671413" y="189.239266" style="fill: #0000ff; stroke: #0000ff"/>
     <use xlink:href="#m3c1910e32e" x="209.417426" y="243.090022" style="fill: #0000ff; stroke: #0000ff"/>
     <use xlink:href="#m3c1910e32e" x="248.134841" y="239.290727" style="fill: #0000ff; stroke: #0000ff"/>
     <use xlink:href="#m3c1910e32e" x="184.481554" y="221.365225" style="fill: #0000ff; stroke: #0000ff"/>
     <use xlink:href="#m3c1910e32e" x="248.103802" y="212.340519" style="fill: #0000ff; stroke: #0000ff"/>
     <use xlink:href="#m3c1910e32e" x="222.983751" y="211.107292" style="fill: #0000ff; stroke: #0000ff"/>
     <use xlink:href="#m3c1910e32e" x="185.87142" y="224.512005" style="fill: #0000ff; stroke: #0000ff"/>
     <use xlink:href="#m3c1910e32e" x="209.218491" y="210.912801" style="fill: #0000ff; stroke: #0000ff"/>
     <use xlink:href="#m3c1910e32e" x="274.162123" y="224.925211" style="fill: #0000ff; stroke: #0000ff"/>
     <use xlink:href="#m3c1910e32e" x="172.775426" y="211.569027" style="fill: #0000ff; stroke: #0000ff"/>
     <use xlink:href="#m3c1910e32e" x="209.659814" y="176.653351" style="fill: #0000ff; stroke: #0000ff"/>
     <use xlink:href="#m3c1910e32e" x="197.693262" y="221.578522" style="fill: #0000ff; stroke: #0000ff"/>
     <use xlink:href="#m3c1910e32e" x="184.373716" y="209.381007" style="fill: #0000ff; stroke: #0000ff"/>
     <use xlink:href="#m3c1910e32e" x="151.754555" y="239.052475" style="fill: #0000ff; stroke: #0000ff"/>
     <use xlink:href="#m3c1910e32e" x="171.455732" y="241.386989" style="fill: #0000ff; stroke: #0000ff"/>
     <use xlink:href="#m3c1910e32e" x="213.910586" y="229.734406" style="fill: #0000ff; stroke: #0000ff"/>
     <use xlink:href="#m3c1910e32e" x="201.825359" y="261.074004" style="fill: #0000ff; stroke: #0000ff"/>
    </g>
   </g>
   <g id="PathCollection_8">
    <defs>
     <path id="mcc1d29a550" d="M 0 1.5 
C 0.397805 1.5 0.77937 1.341951 1.06066 1.06066 
C 1.341951 0.77937 1.5 0.397805 1.5 0 
C 1.5 -0.397805 1.341951 -0.77937 1.06066 -1.06066 
C 0.77937 -1.341951 0.397805 -1.5 0 -1.5 
C -0.397805 -1.5 -0.77937 -1.341951 -1.06066 -1.06066 
C -1.341951 -0.77937 -1.5 -0.397805 -1.5 0 
C -1.5 0.397805 -1.341951 0.77937 -1.06066 1.06066 
C -0.77937 1.341951 -0.397805 1.5 0 1.5 
z
" style="stroke: #dc143c"/>
    </defs>
    <g clip-path="url(#pceeffe1c8f)">
     <use xlink:href="#mcc1d29a550" x="188.226835" y="189.955407" style="fill: #dc143c; stroke: #dc143c"/>
     <use xlink:href="#mcc1d29a550" x="175.29092" y="219.020671" style="fill: #dc143c; stroke: #dc143c"/>
     <use xlink:href="#mcc1d29a550" x="197.48711" y="159.766978" style="fill: #dc143c; stroke: #dc143c"/>
     <use xlink:href="#mcc1d29a550" x="183.452424" y="176.83869" style="fill: #dc143c; stroke: #dc143c"/>
     <use xlink:href="#mcc1d29a550" x="159.040477" y="178.524759" style="fill: #dc143c; stroke: #dc143c"/>
     <use xlink:href="#mcc1d29a550" x="209.598424" y="195.562207" style="fill: #dc143c; stroke: #dc143c"/>
     <use xlink:href="#mcc1d29a550" x="130.168676" y="173.065484" style="fill: #dc143c; stroke: #dc143c"/>
     <use xlink:href="#mcc1d29a550" x="212.655314" y="212.713278" style="fill: #dc143c; stroke: #dc143c"/>
     <use xlink:href="#mcc1d29a550" x="193.59126" y="213.544231" style="fill: #dc143c; stroke: #dc143c"/>
     <use xlink:href="#mcc1d29a550" x="189.600473" y="205.828673" style="fill: #dc143c; stroke: #dc143c"/>
     <use xlink:href="#mcc1d29a550" x="209.351777" y="190.582853" style="fill: #dc143c; stroke: #dc143c"/>
     <use xlink:href="#mcc1d29a550" x="203.146262" y="170.228555" style="fill: #dc143c; stroke: #dc143c"/>
     <use xlink:href="#mcc1d29a550" x="226.022501" y="192.347368" style="fill: #dc143c; stroke: #dc143c"/>
     <use xlink:href="#mcc1d29a550" x="199.529901" y="203.61539" style="fill: #dc143c; stroke: #dc143c"/>
     <use xlink:href="#mcc1d29a550" x="186.011349" y="172.545369" style="fill: #dc143c; stroke: #dc143c"/>
     <use xlink:href="#mcc1d29a550" x="184.663679" y="207.129895" style="fill: #dc143c; stroke: #dc143c"/>
     <use xlink:href="#mcc1d29a550" x="206.98573" y="215.651382" style="fill: #dc143c; stroke: #dc143c"/>
     <use xlink:href="#mcc1d29a550" x="177.995936" y="214.300907" style="fill: #dc143c; stroke: #dc143c"/>
    </g>
   </g>
   <g id="PathCollection_9">
    <defs>
     <path id="mb844d9c9c6" d="M 0 1.5 
C 0.397805 1.5 0.77937 1.341951 1.06066 1.06066 
C 1.341951 0.77937 1.5 0.397805 1.5 0 
C 1.5 -0.397805 1.341951 -0.77937 1.06066 -1.06066 
C 0.77937 -1.341951 0.397805 -1.5 0 -1.5 
C -0.397805 -1.5 -0.77937 -1.341951 -1.06066 -1.06066 
C -1.341951 -0.77937 -1.5 -0.397805 -1.5 0 
C -1.5 0.397805 -1.341951 0.77937 -1.06066 1.06066 
C -0.77937 1.341951 -0.397805 1.5 0 1.5 
z
" style="stroke: #ffe4c4"/>
    </defs>
    <g clip-path="url(#pceeffe1c8f)">
     <use xlink:href="#mb844d9c9c6" x="186.111826" y="127.076927" style="fill: #ffe4c4; stroke: #ffe4c4"/>
     <use xlink:href="#mb844d9c9c6" x="186.592271" y="129.413876" style="fill: #ffe4c4; stroke: #ffe4c4"/>
     <use xlink:href="#mb844d9c9c6" x="219.736468" y="132.300768" style="fill: #ffe4c4; stroke: #ffe4c4"/>
     <use xlink:href="#mb844d9c9c6" x="239.236372" y="124.748287" style="fill: #ffe4c4; stroke: #ffe4c4"/>
     <use xlink:href="#mb844d9c9c6" x="201.046137" y="173.616372" style="fill: #ffe4c4; stroke: #ffe4c4"/>
     <use xlink:href="#mb844d9c9c6" x="165.668106" y="161.159953" style="fill: #ffe4c4; stroke: #ffe4c4"/>
     <use xlink:href="#mb844d9c9c6" x="205.058749" y="112.615519" style="fill: #ffe4c4; stroke: #ffe4c4"/>
     <use xlink:href="#mb844d9c9c6" x="189.783806" y="109.758271" style="fill: #ffe4c4; stroke: #ffe4c4"/>
     <use xlink:href="#mb844d9c9c6" x="234.9501" y="51.762969" style="fill: #ffe4c4; stroke: #ffe4c4"/>
     <use xlink:href="#mb844d9c9c6" x="216.790491" y="145.814325" style="fill: #ffe4c4; stroke: #ffe4c4"/>
    </g>
   </g>
   <g id="PathCollection_10">
    <defs>
     <path id="m971679e7de" d="M -2.99994 2.99994 
L 3.00006 2.99994 
L 3.00006 -3.00006 
L -2.99994 -3.00006 
z
" style="stroke: #000000"/>
    </defs>
    <g clip-path="url(#pceeffe1c8f)">
     <use xlink:href="#m971679e7de" x="115.912638" y="170.330224" style="stroke: #000000"/>
     <use xlink:href="#m971679e7de" x="82.082293" y="128.8221" style="stroke: #000000"/>
     <use xlink:href="#m971679e7de" x="78.616069" y="195.868979" style="stroke: #000000"/>
     <use xlink:href="#m971679e7de" x="84.780457" y="125.349221" style="stroke: #000000"/>
     <use xlink:href="#m971679e7de" x="106.972542" y="191.744079" style="stroke: #000000"/>
     <use xlink:href="#m971679e7de" x="131.167444" y="183.061045" style="stroke: #000000"/>
     <use xlink:href="#m971679e7de" x="115.907413" y="133.186779" style="stroke: #000000"/>
     <use xlink:href="#m971679e7de" x="100.68827" y="231.689302" style="stroke: #000000"/>
     <use xlink:href="#m971679e7de" x="144.13914" y="122.163028" style="stroke: #000000"/>
     <use xlink:href="#m971679e7de" x="97.318667" y="171.483816" style="stroke: #000000"/>
     <use xlink:href="#m971679e7de" x="150.423005" y="203.803286" style="stroke: #000000"/>
     <use xlink:href="#m971679e7de" x="124.845751" y="160.401212" style="stroke: #000000"/>
     <use xlink:href="#m971679e7de" x="135.405536" y="177.665754" style="stroke: #000000"/>
     <use xlink:href="#m971679e7de" x="81.157751" y="185.490983" style="stroke: #000000"/>
     <use xlink:href="#m971679e7de" x="94.067917" y="190.334505" style="stroke: #000000"/>
     <use xlink:href="#m971679e7de" x="132.217551" y="106.639322" style="stroke: #000000"/>
     <use xlink:href="#m971679e7de" x="132.380096" y="198.50455" style="stroke: #000000"/>
     <use xlink:href="#m971679e7de" x="83.096349" y="111.872378" style="stroke: #000000"/>
     <use xlink:href="#m971679e7de" x="87.013297" y="180.160131" style="stroke: #000000"/>
     <use xlink:href="#m971679e7de" x="88.586916" y="215.809368" style="stroke: #000000"/>
     <use xlink:href="#m971679e7de" x="70.9139" y="162.370672" style="stroke: #000000"/>
     <use xlink:href="#m971679e7de" x="99.668283" y="203.390285" style="stroke: #000000"/>
     <use xlink:href="#m971679e7de" x="71.505373" y="173.835355" style="stroke: #000000"/>
     <use xlink:href="#m971679e7de" x="110.072857" y="173.137166" style="stroke: #000000"/>
     <use xlink:href="#m971679e7de" x="116.343769" y="153.614695" style="stroke: #000000"/>
     <use xlink:href="#m971679e7de" x="167.988004" y="202.88022" style="stroke: #000000"/>
     <use xlink:href="#m971679e7de" x="148.852697" y="208.083679" style="stroke: #000000"/>
     <use xlink:href="#m971679e7de" x="89.923167" y="157.472983" style="stroke: #000000"/>
     <use xlink:href="#m971679e7de" x="98.052779" y="143.393678" style="stroke: #000000"/>
     <use xlink:href="#m971679e7de" x="180.542754" y="167.255953" style="stroke: #000000"/>
     <use xlink:href="#m971679e7de" x="140.879465" y="212.325417" style="stroke: #000000"/>
     <use xlink:href="#m971679e7de" x="87.267946" y="176.712933" style="stroke: #000000"/>
     <use xlink:href="#m971679e7de" x="83.319119" y="198.270548" style="stroke: #000000"/>
     <use xlink:href="#m971679e7de" x="96.308287" y="194.610359" style="stroke: #000000"/>
     <use xlink:href="#m971679e7de" x="74.301545" y="186.808359" style="stroke: #000000"/>
     <use xlink:href="#m971679e7de" x="95.111373" y="149.827736" style="stroke: #000000"/>
     <use xlink:href="#m971679e7de" x="104.648828" y="165.17348" style="stroke: #000000"/>
     <use xlink:href="#m971679e7de" x="150.633351" y="235.911914" style="stroke: #000000"/>
     <use xlink:href="#m971679e7de" x="73.238961" y="205.199905" style="stroke: #000000"/>
     <use xlink:href="#m971679e7de" x="116.317051" y="134.678248" style="stroke: #000000"/>
     <use xlink:href="#m971679e7de" x="122.011509" y="201.624214" style="stroke: #000000"/>
     <use xlink:href="#m971679e7de" x="74.543227" y="124.54017" style="stroke: #000000"/>
     <use xlink:href="#m971679e7de" x="123.721067" y="181.704073" style="stroke: #000000"/>
     <use xlink:href="#m971679e7de" x="51.537415" y="178.002579" style="stroke: #000000"/>
     <use xlink:href="#m971679e7de" x="90.408778" y="185.65874" style="stroke: #000000"/>
     <use xlink:href="#m971679e7de" x="102.301323" y="208.523732" style="stroke: #000000"/>
     <use xlink:href="#m971679e7de" x="138.819088" y="125.734888" style="stroke: #000000"/>
     <use xlink:href="#m971679e7de" x="134.233537" y="170.812224" style="stroke: #000000"/>
     <use xlink:href="#m971679e7de" x="81.068685" y="135.307914" style="stroke: #000000"/>
     <use xlink:href="#m971679e7de" x="138.752802" y="224.879756" style="stroke: #000000"/>
     <use xlink:href="#m971679e7de" x="138.355444" y="153.499763" style="stroke: #000000"/>
     <use xlink:href="#m971679e7de" x="86.527674" y="173.029836" style="stroke: #000000"/>
     <use xlink:href="#m971679e7de" x="113.659366" y="181.523583" style="stroke: #000000"/>
     <use xlink:href="#m971679e7de" x="102.925701" y="149.4025" style="stroke: #000000"/>
     <use xlink:href="#m971679e7de" x="131.284088" y="193.537241" style="stroke: #000000"/>
     <use xlink:href="#m971679e7de" x="114.025717" y="192.365379" style="stroke: #000000"/>
     <use xlink:href="#m971679e7de" x="146.254247" y="175.378006" style="stroke: #000000"/>
     <use xlink:href="#m971679e7de" x="76.944007" y="162.386108" style="stroke: #000000"/>
     <use xlink:href="#m971679e7de" x="89.183808" y="191.653179" style="stroke: #000000"/>
     <use xlink:href="#m971679e7de" x="65.622943" y="220.259047" style="stroke: #000000"/>
     <use xlink:href="#m971679e7de" x="130.568162" y="215.121923" style="stroke: #000000"/>
     <use xlink:href="#m971679e7de" x="102.561056" y="177.509342" style="stroke: #000000"/>
     <use xlink:href="#m971679e7de" x="87.791592" y="178.533956" style="stroke: #000000"/>
     <use xlink:href="#m971679e7de" x="98.509103" y="104.451307" style="stroke: #000000"/>
    </g>
   </g>
   <g id="PathCollection_11">
    <defs>
     <path id="mac2f5ebc7d" d="M -3 -0 
L 3 3 
L 3 -3 
z
" style="stroke: #ff8c00"/>
    </defs>
    <g clip-path="url(#pceeffe1c8f)">
     <use xlink:href="#mac2f5ebc7d" x="150.911153" y="212.985478" style="fill: #ff8c00; stroke: #ff8c00"/>
     <use xlink:href="#mac2f5ebc7d" x="97.973151" y="159.055807" style="fill: #ff8c00; stroke: #ff8c00"/>
     <use xlink:href="#mac2f5ebc7d" x="69.852071" y="191.145127" style="fill: #ff8c00; stroke: #ff8c00"/>
     <use xlink:href="#mac2f5ebc7d" x="91.733928" y="196.140019" style="fill: #ff8c00; stroke: #ff8c00"/>
     <use xlink:href="#mac2f5ebc7d" x="77.884111" y="201.926381" style="fill: #ff8c00; stroke: #ff8c00"/>
     <use xlink:href="#mac2f5ebc7d" x="76.181195" y="202.32854" style="fill: #ff8c00; stroke: #ff8c00"/>
     <use xlink:href="#mac2f5ebc7d" x="74.709173" y="183.804947" style="fill: #ff8c00; stroke: #ff8c00"/>
     <use xlink:href="#mac2f5ebc7d" x="131.715829" y="174.749395" style="fill: #ff8c00; stroke: #ff8c00"/>
     <use xlink:href="#mac2f5ebc7d" x="101.761124" y="208.088328" style="fill: #ff8c00; stroke: #ff8c00"/>
     <use xlink:href="#mac2f5ebc7d" x="90.431066" y="189.398826" style="fill: #ff8c00; stroke: #ff8c00"/>
     <use xlink:href="#mac2f5ebc7d" x="121.20146" y="216.363046" style="fill: #ff8c00; stroke: #ff8c00"/>
     <use xlink:href="#mac2f5ebc7d" x="85.430191" y="209.323709" style="fill: #ff8c00; stroke: #ff8c00"/>
     <use xlink:href="#mac2f5ebc7d" x="110.427014" y="215.692429" style="fill: #ff8c00; stroke: #ff8c00"/>
     <use xlink:href="#mac2f5ebc7d" x="106.26945" y="218.90197" style="fill: #ff8c00; stroke: #ff8c00"/>
     <use xlink:href="#mac2f5ebc7d" x="112.194515" y="223.771034" style="fill: #ff8c00; stroke: #ff8c00"/>
     <use xlink:href="#mac2f5ebc7d" x="71.32494" y="177.21362" style="fill: #ff8c00; stroke: #ff8c00"/>
     <use xlink:href="#mac2f5ebc7d" x="63.545511" y="220.160717" style="fill: #ff8c00; stroke: #ff8c00"/>
     <use xlink:href="#mac2f5ebc7d" x="129.242175" y="186.424587" style="fill: #ff8c00; stroke: #ff8c00"/>
     <use xlink:href="#mac2f5ebc7d" x="81.175344" y="212.871517" style="fill: #ff8c00; stroke: #ff8c00"/>
     <use xlink:href="#mac2f5ebc7d" x="125.28578" y="192.525289" style="fill: #ff8c00; stroke: #ff8c00"/>
     <use xlink:href="#mac2f5ebc7d" x="122.750036" y="221.521308" style="fill: #ff8c00; stroke: #ff8c00"/>
     <use xlink:href="#mac2f5ebc7d" x="70.926204" y="174.631555" style="fill: #ff8c00; stroke: #ff8c00"/>
     <use xlink:href="#mac2f5ebc7d" x="117.116618" y="177.895562" style="fill: #ff8c00; stroke: #ff8c00"/>
     <use xlink:href="#mac2f5ebc7d" x="148.644244" y="206.180019" style="fill: #ff8c00; stroke: #ff8c00"/>
     <use xlink:href="#mac2f5ebc7d" x="102.463552" y="192.933636" style="fill: #ff8c00; stroke: #ff8c00"/>
     <use xlink:href="#mac2f5ebc7d" x="125.118565" y="149.482827" style="fill: #ff8c00; stroke: #ff8c00"/>
     <use xlink:href="#mac2f5ebc7d" x="105.661433" y="218.168132" style="fill: #ff8c00; stroke: #ff8c00"/>
     <use xlink:href="#mac2f5ebc7d" x="129.621314" y="221.620313" style="fill: #ff8c00; stroke: #ff8c00"/>
     <use xlink:href="#mac2f5ebc7d" x="130.612176" y="195.40819" style="fill: #ff8c00; stroke: #ff8c00"/>
     <use xlink:href="#mac2f5ebc7d" x="91.096479" y="201.957795" style="fill: #ff8c00; stroke: #ff8c00"/>
     <use xlink:href="#mac2f5ebc7d" x="99.361034" y="178.635445" style="fill: #ff8c00; stroke: #ff8c00"/>
     <use xlink:href="#mac2f5ebc7d" x="124.242493" y="182.001101" style="fill: #ff8c00; stroke: #ff8c00"/>
     <use xlink:href="#mac2f5ebc7d" x="105.203473" y="169.424103" style="fill: #ff8c00; stroke: #ff8c00"/>
     <use xlink:href="#mac2f5ebc7d" x="131.772949" y="220.405659" style="fill: #ff8c00; stroke: #ff8c00"/>
     <use xlink:href="#mac2f5ebc7d" x="105.470549" y="189.577323" style="fill: #ff8c00; stroke: #ff8c00"/>
     <use xlink:href="#mac2f5ebc7d" x="66.120502" y="224.295197" style="fill: #ff8c00; stroke: #ff8c00"/>
     <use xlink:href="#mac2f5ebc7d" x="103.588002" y="219.335897" style="fill: #ff8c00; stroke: #ff8c00"/>
     <use xlink:href="#mac2f5ebc7d" x="104.242762" y="209.355179" style="fill: #ff8c00; stroke: #ff8c00"/>
     <use xlink:href="#mac2f5ebc7d" x="86.921298" y="170.11388" style="fill: #ff8c00; stroke: #ff8c00"/>
     <use xlink:href="#mac2f5ebc7d" x="147.871917" y="200.793173" style="fill: #ff8c00; stroke: #ff8c00"/>
     <use xlink:href="#mac2f5ebc7d" x="100.851156" y="208.700251" style="fill: #ff8c00; stroke: #ff8c00"/>
     <use xlink:href="#mac2f5ebc7d" x="72.394857" y="185.833531" style="fill: #ff8c00; stroke: #ff8c00"/>
     <use xlink:href="#mac2f5ebc7d" x="145.388867" y="187.368419" style="fill: #ff8c00; stroke: #ff8c00"/>
     <use xlink:href="#mac2f5ebc7d" x="93.980643" y="186.943549" style="fill: #ff8c00; stroke: #ff8c00"/>
     <use xlink:href="#mac2f5ebc7d" x="120.663921" y="207.037229" style="fill: #ff8c00; stroke: #ff8c00"/>
     <use xlink:href="#mac2f5ebc7d" x="127.890566" y="198.055424" style="fill: #ff8c00; stroke: #ff8c00"/>
     <use xlink:href="#mac2f5ebc7d" x="135.095694" y="196.717204" style="fill: #ff8c00; stroke: #ff8c00"/>
     <use xlink:href="#mac2f5ebc7d" x="90.218722" y="169.499352" style="fill: #ff8c00; stroke: #ff8c00"/>
     <use xlink:href="#mac2f5ebc7d" x="95.153406" y="192.90919" style="fill: #ff8c00; stroke: #ff8c00"/>
     <use xlink:href="#mac2f5ebc7d" x="121.125078" y="217.541033" style="fill: #ff8c00; stroke: #ff8c00"/>
     <use xlink:href="#mac2f5ebc7d" x="93.35308" y="218.251762" style="fill: #ff8c00; stroke: #ff8c00"/>
     <use xlink:href="#mac2f5ebc7d" x="96.832049" y="176.299248" style="fill: #ff8c00; stroke: #ff8c00"/>
     <use xlink:href="#mac2f5ebc7d" x="93.403406" y="200.489869" style="fill: #ff8c00; stroke: #ff8c00"/>
     <use xlink:href="#mac2f5ebc7d" x="110.923877" y="182.154014" style="fill: #ff8c00; stroke: #ff8c00"/>
     <use xlink:href="#mac2f5ebc7d" x="96.506366" y="187.541673" style="fill: #ff8c00; stroke: #ff8c00"/>
     <use xlink:href="#mac2f5ebc7d" x="86.092222" y="183.505261" style="fill: #ff8c00; stroke: #ff8c00"/>
     <use xlink:href="#mac2f5ebc7d" x="125.053341" y="172.587723" style="fill: #ff8c00; stroke: #ff8c00"/>
     <use xlink:href="#mac2f5ebc7d" x="79.867672" y="181.033092" style="fill: #ff8c00; stroke: #ff8c00"/>
     <use xlink:href="#mac2f5ebc7d" x="100.367226" y="193.98096" style="fill: #ff8c00; stroke: #ff8c00"/>
     <use xlink:href="#mac2f5ebc7d" x="82.53562" y="185.089768" style="fill: #ff8c00; stroke: #ff8c00"/>
     <use xlink:href="#mac2f5ebc7d" x="94.622985" y="196.308083" style="fill: #ff8c00; stroke: #ff8c00"/>
     <use xlink:href="#mac2f5ebc7d" x="93.022037" y="213.15233" style="fill: #ff8c00; stroke: #ff8c00"/>
     <use xlink:href="#mac2f5ebc7d" x="139.43552" y="232.594068" style="fill: #ff8c00; stroke: #ff8c00"/>
     <use xlink:href="#mac2f5ebc7d" x="144.522843" y="225.021396" style="fill: #ff8c00; stroke: #ff8c00"/>
    </g>
   </g>
   <g id="matplotlib.axis_1">
    <g id="xtick_1">
     <g id="line2d_1">
      <defs>
       <path id="m669bb7a5f5" d="M 0 0 
L 0 3.5 
" style="stroke: #000000; stroke-width: 0.8"/>
      </defs>
      <g>
       <use xlink:href="#m669bb7a5f5" x="81.242656" y="273.312" style="stroke: #000000; stroke-width: 0.8"/>
      </g>
     </g>
     <g id="text_1">
      <!-- −10 -->
      <g transform="translate(70.690313 287.910437) scale(0.1 -0.1)">
       <defs>
        <path id="DejaVuSans-2212" d="M 678 2272 
L 4684 2272 
L 4684 1741 
L 678 1741 
L 678 2272 
z
" transform="scale(0.015625)"/>
        <path id="DejaVuSans-31" d="M 794 531 
L 1825 531 
L 1825 4091 
L 703 3866 
L 703 4441 
L 1819 4666 
L 2450 4666 
L 2450 531 
L 3481 531 
L 3481 0 
L 794 0 
L 794 531 
z
" transform="scale(0.015625)"/>
        <path id="DejaVuSans-30" d="M 2034 4250 
Q 1547 4250 1301 3770 
Q 1056 3291 1056 2328 
Q 1056 1369 1301 889 
Q 1547 409 2034 409 
Q 2525 409 2770 889 
Q 3016 1369 3016 2328 
Q 3016 3291 2770 3770 
Q 2525 4250 2034 4250 
z
M 2034 4750 
Q 2819 4750 3233 4129 
Q 3647 3509 3647 2328 
Q 3647 1150 3233 529 
Q 2819 -91 2034 -91 
Q 1250 -91 836 529 
Q 422 1150 422 2328 
Q 422 3509 836 4129 
Q 1250 4750 2034 4750 
z
" transform="scale(0.015625)"/>
       </defs>
       <use xlink:href="#DejaVuSans-2212"/>
       <use xlink:href="#DejaVuSans-31" x="83.789062"/>
       <use xlink:href="#DejaVuSans-30" x="147.412109"/>
      </g>
     </g>
    </g>
    <g id="xtick_2">
     <g id="line2d_2">
      <g>
       <use xlink:href="#m669bb7a5f5" x="145.589262" y="273.312" style="stroke: #000000; stroke-width: 0.8"/>
      </g>
     </g>
     <g id="text_2">
      <!-- 0 -->
      <g transform="translate(142.408012 287.910437) scale(0.1 -0.1)">
       <use xlink:href="#DejaVuSans-30"/>
      </g>
     </g>
    </g>
    <g id="xtick_3">
     <g id="line2d_3">
      <g>
       <use xlink:href="#m669bb7a5f5" x="209.935868" y="273.312" style="stroke: #000000; stroke-width: 0.8"/>
      </g>
     </g>
     <g id="text_3">
      <!-- 10 -->
      <g transform="translate(203.573368 287.910437) scale(0.1 -0.1)">
       <use xlink:href="#DejaVuSans-31"/>
       <use xlink:href="#DejaVuSans-30" x="63.623047"/>
      </g>
     </g>
    </g>
    <g id="xtick_4">
     <g id="line2d_4">
      <g>
       <use xlink:href="#m669bb7a5f5" x="274.282474" y="273.312" style="stroke: #000000; stroke-width: 0.8"/>
      </g>
     </g>
     <g id="text_4">
      <!-- 20 -->
      <g transform="translate(267.919974 287.910437) scale(0.1 -0.1)">
       <defs>
        <path id="DejaVuSans-32" d="M 1228 531 
L 3431 531 
L 3431 0 
L 469 0 
L 469 531 
Q 828 903 1448 1529 
Q 2069 2156 2228 2338 
Q 2531 2678 2651 2914 
Q 2772 3150 2772 3378 
Q 2772 3750 2511 3984 
Q 2250 4219 1831 4219 
Q 1534 4219 1204 4116 
Q 875 4013 500 3803 
L 500 4441 
Q 881 4594 1212 4672 
Q 1544 4750 1819 4750 
Q 2544 4750 2975 4387 
Q 3406 4025 3406 3419 
Q 3406 3131 3298 2873 
Q 3191 2616 2906 2266 
Q 2828 2175 2409 1742 
Q 1991 1309 1228 531 
z
" transform="scale(0.015625)"/>
       </defs>
       <use xlink:href="#DejaVuSans-32"/>
       <use xlink:href="#DejaVuSans-30" x="63.623047"/>
      </g>
     </g>
    </g>
    <g id="xtick_5">
     <g id="line2d_5">
      <g>
       <use xlink:href="#m669bb7a5f5" x="338.629079" y="273.312" style="stroke: #000000; stroke-width: 0.8"/>
      </g>
     </g>
     <g id="text_5">
      <!-- 30 -->
      <g transform="translate(332.266579 287.910437) scale(0.1 -0.1)">
       <defs>
        <path id="DejaVuSans-33" d="M 2597 2516 
Q 3050 2419 3304 2112 
Q 3559 1806 3559 1356 
Q 3559 666 3084 287 
Q 2609 -91 1734 -91 
Q 1441 -91 1130 -33 
Q 819 25 488 141 
L 488 750 
Q 750 597 1062 519 
Q 1375 441 1716 441 
Q 2309 441 2620 675 
Q 2931 909 2931 1356 
Q 2931 1769 2642 2001 
Q 2353 2234 1838 2234 
L 1294 2234 
L 1294 2753 
L 1863 2753 
Q 2328 2753 2575 2939 
Q 2822 3125 2822 3475 
Q 2822 3834 2567 4026 
Q 2313 4219 1838 4219 
Q 1578 4219 1281 4162 
Q 984 4106 628 3988 
L 628 4550 
Q 988 4650 1302 4700 
Q 1616 4750 1894 4750 
Q 2613 4750 3031 4423 
Q 3450 4097 3450 3541 
Q 3450 3153 3228 2886 
Q 3006 2619 2597 2516 
z
" transform="scale(0.015625)"/>
       </defs>
       <use xlink:href="#DejaVuSans-33"/>
       <use xlink:href="#DejaVuSans-30" x="63.623047"/>
      </g>
     </g>
    </g>
   </g>
   <g id="matplotlib.axis_2">
    <g id="ytick_1">
     <g id="line2d_6">
      <defs>
       <path id="m75d9e111df" d="M 0 0 
L -3.5 0 
" style="stroke: #000000; stroke-width: 0.8"/>
      </defs>
      <g>
       <use xlink:href="#m75d9e111df" x="35.304688" y="247.462362" style="stroke: #000000; stroke-width: 0.8"/>
      </g>
     </g>
     <g id="text_6">
      <!-- −10 -->
      <g transform="translate(7.2 251.26158) scale(0.1 -0.1)">
       <use xlink:href="#DejaVuSans-2212"/>
       <use xlink:href="#DejaVuSans-31" x="83.789062"/>
       <use xlink:href="#DejaVuSans-30" x="147.412109"/>
      </g>
     </g>
    </g>
    <g id="ytick_2">
     <g id="line2d_7">
      <g>
       <use xlink:href="#m75d9e111df" x="35.304688" y="192.181488" style="stroke: #000000; stroke-width: 0.8"/>
      </g>
     </g>
     <g id="text_7">
      <!-- 0 -->
      <g transform="translate(21.942187 195.980707) scale(0.1 -0.1)">
       <use xlink:href="#DejaVuSans-30"/>
      </g>
     </g>
    </g>
    <g id="ytick_3">
     <g id="line2d_8">
      <g>
       <use xlink:href="#m75d9e111df" x="35.304688" y="136.900615" style="stroke: #000000; stroke-width: 0.8"/>
      </g>
     </g>
     <g id="text_8">
      <!-- 10 -->
      <g transform="translate(15.579687 140.699834) scale(0.1 -0.1)">
       <use xlink:href="#DejaVuSans-31"/>
       <use xlink:href="#DejaVuSans-30" x="63.623047"/>
      </g>
     </g>
    </g>
    <g id="ytick_4">
     <g id="line2d_9">
      <g>
       <use xlink:href="#m75d9e111df" x="35.304688" y="81.619742" style="stroke: #000000; stroke-width: 0.8"/>
      </g>
     </g>
     <g id="text_9">
      <!-- 20 -->
      <g transform="translate(15.579687 85.418961) scale(0.1 -0.1)">
       <use xlink:href="#DejaVuSans-32"/>
       <use xlink:href="#DejaVuSans-30" x="63.623047"/>
      </g>
     </g>
    </g>
    <g id="ytick_5">
     <g id="line2d_10">
      <g>
       <use xlink:href="#m75d9e111df" x="35.304688" y="26.338869" style="stroke: #000000; stroke-width: 0.8"/>
      </g>
     </g>
     <g id="text_10">
      <!-- 30 -->
      <g transform="translate(15.579687 30.138087) scale(0.1 -0.1)">
       <use xlink:href="#DejaVuSans-33"/>
       <use xlink:href="#DejaVuSans-30" x="63.623047"/>
      </g>
     </g>
    </g>
   </g>
   <g id="patch_3">
    <path d="M 35.304688 273.312 
L 35.304688 7.2 
" style="fill: none; stroke: #000000; stroke-width: 0.8; stroke-linejoin: miter; stroke-linecap: square"/>
   </g>
   <g id="patch_4">
    <path d="M 392.424688 273.312 
L 392.424688 7.2 
" style="fill: none; stroke: #000000; stroke-width: 0.8; stroke-linejoin: miter; stroke-linecap: square"/>
   </g>
   <g id="patch_5">
    <path d="M 35.304688 273.312 
L 392.424688 273.312 
" style="fill: none; stroke: #000000; stroke-width: 0.8; stroke-linejoin: miter; stroke-linecap: square"/>
   </g>
   <g id="patch_6">
    <path d="M 35.304688 7.2 
L 392.424688 7.2 
" style="fill: none; stroke: #000000; stroke-width: 0.8; stroke-linejoin: miter; stroke-linecap: square"/>
   </g>
  </g>
 </g>
 <defs>
  <clipPath id="pceeffe1c8f">
   <rect x="35.304688" y="7.2" width="357.12" height="266.112"/>
  </clipPath>
 </defs>
</svg>
