<?xml version="1.0" encoding="utf-8" standalone="no"?>
<!DOCTYPE svg PUBLIC "-//W3C//DTD SVG 1.1//EN"
  "http://www.w3.org/Graphics/SVG/1.1/DTD/svg11.dtd">
<svg xmlns:xlink="http://www.w3.org/1999/xlink" width="399.624687pt" height="297.190125pt" viewBox="0 0 399.624687 297.190125" xmlns="http://www.w3.org/2000/svg" version="1.1">
 <metadata>
  <rdf:RDF xmlns:dc="http://purl.org/dc/elements/1.1/" xmlns:cc="http://creativecommons.org/ns#" xmlns:rdf="http://www.w3.org/1999/02/22-rdf-syntax-ns#">
   <cc:Work>
    <dc:type rdf:resource="http://purl.org/dc/dcmitype/StillImage"/>
    <dc:date>2023-11-12T09:16:11.213858</dc:date>
    <dc:format>image/svg+xml</dc:format>
    <dc:creator>
     <cc:Agent>
      <dc:title>Matplotlib v3.8.0, https://matplotlib.org/</dc:title>
     </cc:Agent>
    </dc:creator>
   </cc:Work>
  </rdf:RDF>
 </metadata>
 <defs>
  <style type="text/css">*{stroke-linejoin: round; stroke-linecap: butt}</style>
 </defs>
 <g id="figure_1">
  <g id="patch_1">
   <path d="M 0 297.190125 
L 399.624687 297.190125 
L 399.624687 0 
L 0 0 
z
" style="fill: #ffffff"/>
  </g>
  <g id="axes_1">
   <g id="patch_2">
    <path d="M 35.304688 273.312 
L 392.424688 273.312 
L 392.424688 7.2 
L 35.304688 7.2 
z
" style="fill: #ffffff"/>
   </g>
   <g id="PathCollection_1">
    <defs>
     <path id="m3267c8d927" d="M 0 1.5 
C 0.397805 1.5 0.77937 1.341951 1.06066 1.06066 
C 1.341951 0.77937 1.5 0.397805 1.5 0 
C 1.5 -0.397805 1.341951 -0.77937 1.06066 -1.06066 
C 0.77937 -1.341951 0.397805 -1.5 0 -1.5 
C -0.397805 -1.5 -0.77937 -1.341951 -1.06066 -1.06066 
C -1.341951 -0.77937 -1.5 -0.397805 -1.5 0 
C -1.5 0.397805 -1.341951 0.77937 -1.06066 1.06066 
C -0.77937 1.341951 -0.397805 1.5 0 1.5 
z
" style="stroke: #ff8c00"/>
    </defs>
    <g clip-path="url(#pc1e4b21553)">
     <use xlink:href="#m3267c8d927" x="127.44108" y="121.196921" style="fill: #ff8c00; stroke: #ff8c00"/>
     <use xlink:href="#m3267c8d927" x="101.867628" y="63.042297" style="fill: #ff8c00; stroke: #ff8c00"/>
     <use xlink:href="#m3267c8d927" x="120.14815" y="118.375477" style="fill: #ff8c00; stroke: #ff8c00"/>
     <use xlink:href="#m3267c8d927" x="133.750635" y="172.584245" style="fill: #ff8c00; stroke: #ff8c00"/>
     <use xlink:href="#m3267c8d927" x="137.409589" y="105.11621" style="fill: #ff8c00; stroke: #ff8c00"/>
     <use xlink:href="#m3267c8d927" x="124.232116" y="30.53143" style="fill: #ff8c00; stroke: #ff8c00"/>
     <use xlink:href="#m3267c8d927" x="147.188167" y="162.32101" style="fill: #ff8c00; stroke: #ff8c00"/>
     <use xlink:href="#m3267c8d927" x="110.821813" y="19.296" style="fill: #ff8c00; stroke: #ff8c00"/>
     <use xlink:href="#m3267c8d927" x="94.724703" y="78.289115" style="fill: #ff8c00; stroke: #ff8c00"/>
     <use xlink:href="#m3267c8d927" x="127.970403" y="113.418025" style="fill: #ff8c00; stroke: #ff8c00"/>
     <use xlink:href="#m3267c8d927" x="97.645069" y="23.637351" style="fill: #ff8c00; stroke: #ff8c00"/>
     <use xlink:href="#m3267c8d927" x="114.439502" y="79.487075" style="fill: #ff8c00; stroke: #ff8c00"/>
     <use xlink:href="#m3267c8d927" x="106.98859" y="52.461879" style="fill: #ff8c00; stroke: #ff8c00"/>
     <use xlink:href="#m3267c8d927" x="138.917485" y="35.953493" style="fill: #ff8c00; stroke: #ff8c00"/>
    </g>
   </g>
   <g id="PathCollection_2">
    <defs>
     <path id="m35b7289f5f" d="M 0 1.5 
C 0.397805 1.5 0.77937 1.341951 1.06066 1.06066 
C 1.341951 0.77937 1.5 0.397805 1.5 0 
C 1.5 -0.397805 1.341951 -0.77937 1.06066 -1.06066 
C 0.77937 -1.341951 0.397805 -1.5 0 -1.5 
C -0.397805 -1.5 -0.77937 -1.341951 -1.06066 -1.06066 
C -1.341951 -0.77937 -1.5 -0.397805 -1.5 0 
C -1.5 0.397805 -1.341951 0.77937 -1.06066 1.06066 
C -0.77937 1.341951 -0.397805 1.5 0 1.5 
z
" style="stroke: #006400"/>
    </defs>
    <g clip-path="url(#pc1e4b21553)">
     <use xlink:href="#m35b7289f5f" x="292.281179" y="184.347686" style="fill: #006400; stroke: #006400"/>
     <use xlink:href="#m35b7289f5f" x="229.085495" y="155.11695" style="fill: #006400; stroke: #006400"/>
     <use xlink:href="#m35b7289f5f" x="277.727235" y="166.414278" style="fill: #006400; stroke: #006400"/>
     <use xlink:href="#m35b7289f5f" x="231.785547" y="201.452326" style="fill: #006400; stroke: #006400"/>
     <use xlink:href="#m35b7289f5f" x="158.616936" y="183.267969" style="fill: #006400; stroke: #006400"/>
     <use xlink:href="#m35b7289f5f" x="283.205173" y="130.801735" style="fill: #006400; stroke: #006400"/>
     <use xlink:href="#m35b7289f5f" x="235.999327" y="143.575055" style="fill: #006400; stroke: #006400"/>
     <use xlink:href="#m35b7289f5f" x="201.666311" y="144.433379" style="fill: #006400; stroke: #006400"/>
     <use xlink:href="#m35b7289f5f" x="201.768519" y="142.426568" style="fill: #006400; stroke: #006400"/>
     <use xlink:href="#m35b7289f5f" x="241.547644" y="126.423103" style="fill: #006400; stroke: #006400"/>
     <use xlink:href="#m35b7289f5f" x="376.19196" y="161.690152" style="fill: #006400; stroke: #006400"/>
     <use xlink:href="#m35b7289f5f" x="128.257707" y="189.063784" style="fill: #006400; stroke: #006400"/>
     <use xlink:href="#m35b7289f5f" x="213.514891" y="67.312811" style="fill: #006400; stroke: #006400"/>
     <use xlink:href="#m35b7289f5f" x="215.182077" y="169.767354" style="fill: #006400; stroke: #006400"/>
     <use xlink:href="#m35b7289f5f" x="258.040207" y="148.025872" style="fill: #006400; stroke: #006400"/>
     <use xlink:href="#m35b7289f5f" x="358.479584" y="138.929547" style="fill: #006400; stroke: #006400"/>
     <use xlink:href="#m35b7289f5f" x="241.903238" y="149.07746" style="fill: #006400; stroke: #006400"/>
     <use xlink:href="#m35b7289f5f" x="317.026297" y="192.538653" style="fill: #006400; stroke: #006400"/>
     <use xlink:href="#m35b7289f5f" x="278.916281" y="130.066594" style="fill: #006400; stroke: #006400"/>
     <use xlink:href="#m35b7289f5f" x="372.294612" y="174.136655" style="fill: #006400; stroke: #006400"/>
     <use xlink:href="#m35b7289f5f" x="326.103658" y="195.277987" style="fill: #006400; stroke: #006400"/>
     <use xlink:href="#m35b7289f5f" x="230.596145" y="83.872949" style="fill: #006400; stroke: #006400"/>
     <use xlink:href="#m35b7289f5f" x="175.651156" y="97.813163" style="fill: #006400; stroke: #006400"/>
    </g>
   </g>
   <g id="PathCollection_3">
    <defs>
     <path id="mc473f5fa1a" d="M 0 1.5 
C 0.397805 1.5 0.77937 1.341951 1.06066 1.06066 
C 1.341951 0.77937 1.5 0.397805 1.5 0 
C 1.5 -0.397805 1.341951 -0.77937 1.06066 -1.06066 
C 0.77937 -1.341951 0.397805 -1.5 0 -1.5 
C -0.397805 -1.5 -0.77937 -1.341951 -1.06066 -1.06066 
C -1.341951 -0.77937 -1.5 -0.397805 -1.5 0 
C -1.5 0.397805 -1.341951 0.77937 -1.06066 1.06066 
C -0.77937 1.341951 -0.397805 1.5 0 1.5 
z
" style="stroke: #2f4f4f"/>
    </defs>
    <g clip-path="url(#pc1e4b21553)">
     <use xlink:href="#mc473f5fa1a" x="115.90413" y="52.602494" style="fill: #2f4f4f; stroke: #2f4f4f"/>
     <use xlink:href="#mc473f5fa1a" x="119.61606" y="160.822127" style="fill: #2f4f4f; stroke: #2f4f4f"/>
     <use xlink:href="#mc473f5fa1a" x="71.608144" y="140.413049" style="fill: #2f4f4f; stroke: #2f4f4f"/>
     <use xlink:href="#mc473f5fa1a" x="71.351278" y="91.800313" style="fill: #2f4f4f; stroke: #2f4f4f"/>
     <use xlink:href="#mc473f5fa1a" x="74.413747" y="85.053473" style="fill: #2f4f4f; stroke: #2f4f4f"/>
     <use xlink:href="#mc473f5fa1a" x="71.230834" y="87.718271" style="fill: #2f4f4f; stroke: #2f4f4f"/>
     <use xlink:href="#mc473f5fa1a" x="79.62707" y="99.695949" style="fill: #2f4f4f; stroke: #2f4f4f"/>
     <use xlink:href="#mc473f5fa1a" x="83.967316" y="131.00502" style="fill: #2f4f4f; stroke: #2f4f4f"/>
     <use xlink:href="#mc473f5fa1a" x="70.469942" y="78.098859" style="fill: #2f4f4f; stroke: #2f4f4f"/>
     <use xlink:href="#mc473f5fa1a" x="76.855695" y="76.103965" style="fill: #2f4f4f; stroke: #2f4f4f"/>
     <use xlink:href="#mc473f5fa1a" x="100.698511" y="168.589239" style="fill: #2f4f4f; stroke: #2f4f4f"/>
     <use xlink:href="#mc473f5fa1a" x="108.136953" y="144.639868" style="fill: #2f4f4f; stroke: #2f4f4f"/>
     <use xlink:href="#mc473f5fa1a" x="60.314145" y="91.230886" style="fill: #2f4f4f; stroke: #2f4f4f"/>
     <use xlink:href="#mc473f5fa1a" x="86.429113" y="138.052133" style="fill: #2f4f4f; stroke: #2f4f4f"/>
     <use xlink:href="#mc473f5fa1a" x="114.066007" y="142.829072" style="fill: #2f4f4f; stroke: #2f4f4f"/>
    </g>
   </g>
   <g id="PathCollection_4">
    <defs>
     <path id="m8c64aeec6f" d="M 0 1.5 
C 0.397805 1.5 0.77937 1.341951 1.06066 1.06066 
C 1.341951 0.77937 1.5 0.397805 1.5 0 
C 1.5 -0.397805 1.341951 -0.77937 1.06066 -1.06066 
C 0.77937 -1.341951 0.397805 -1.5 0 -1.5 
C -0.397805 -1.5 -0.77937 -1.341951 -1.06066 -1.06066 
C -1.341951 -0.77937 -1.5 -0.397805 -1.5 0 
C -1.5 0.397805 -1.341951 0.77937 -1.06066 1.06066 
C -0.77937 1.341951 -0.397805 1.5 0 1.5 
z
" style="stroke: #00bfff"/>
    </defs>
    <g clip-path="url(#pc1e4b21553)">
     <use xlink:href="#m8c64aeec6f" x="76.828698" y="185.692474" style="fill: #00bfff; stroke: #00bfff"/>
     <use xlink:href="#m8c64aeec6f" x="109.253027" y="121.943823" style="fill: #00bfff; stroke: #00bfff"/>
     <use xlink:href="#m8c64aeec6f" x="92.421722" y="208.941214" style="fill: #00bfff; stroke: #00bfff"/>
     <use xlink:href="#m8c64aeec6f" x="65.007827" y="143.584288" style="fill: #00bfff; stroke: #00bfff"/>
     <use xlink:href="#m8c64aeec6f" x="94.647683" y="137.82898" style="fill: #00bfff; stroke: #00bfff"/>
     <use xlink:href="#m8c64aeec6f" x="79.9683" y="131.219705" style="fill: #00bfff; stroke: #00bfff"/>
     <use xlink:href="#m8c64aeec6f" x="74.783688" y="109.087008" style="fill: #00bfff; stroke: #00bfff"/>
     <use xlink:href="#m8c64aeec6f" x="88.558275" y="115.957489" style="fill: #00bfff; stroke: #00bfff"/>
     <use xlink:href="#m8c64aeec6f" x="69.66935" y="136.682525" style="fill: #00bfff; stroke: #00bfff"/>
     <use xlink:href="#m8c64aeec6f" x="104.434395" y="149.594629" style="fill: #00bfff; stroke: #00bfff"/>
     <use xlink:href="#m8c64aeec6f" x="89.295169" y="157.812605" style="fill: #00bfff; stroke: #00bfff"/>
     <use xlink:href="#m8c64aeec6f" x="84.259243" y="158.15065" style="fill: #00bfff; stroke: #00bfff"/>
     <use xlink:href="#m8c64aeec6f" x="76.85273" y="142.203218" style="fill: #00bfff; stroke: #00bfff"/>
     <use xlink:href="#m8c64aeec6f" x="95.745979" y="176.544671" style="fill: #00bfff; stroke: #00bfff"/>
     <use xlink:href="#m8c64aeec6f" x="101.408928" y="159.61858" style="fill: #00bfff; stroke: #00bfff"/>
     <use xlink:href="#m8c64aeec6f" x="86.591312" y="215.388976" style="fill: #00bfff; stroke: #00bfff"/>
     <use xlink:href="#m8c64aeec6f" x="112.824429" y="157.32926" style="fill: #00bfff; stroke: #00bfff"/>
     <use xlink:href="#m8c64aeec6f" x="88.573974" y="99.968673" style="fill: #00bfff; stroke: #00bfff"/>
     <use xlink:href="#m8c64aeec6f" x="110.587293" y="159.683116" style="fill: #00bfff; stroke: #00bfff"/>
     <use xlink:href="#m8c64aeec6f" x="102.996541" y="137.874074" style="fill: #00bfff; stroke: #00bfff"/>
     <use xlink:href="#m8c64aeec6f" x="85.169066" y="140.561665" style="fill: #00bfff; stroke: #00bfff"/>
    </g>
   </g>
   <g id="PathCollection_5">
    <defs>
     <path id="m299d6013e9" d="M 0 1.5 
C 0.397805 1.5 0.77937 1.341951 1.06066 1.06066 
C 1.341951 0.77937 1.5 0.397805 1.5 0 
C 1.5 -0.397805 1.341951 -0.77937 1.06066 -1.06066 
C 0.77937 -1.341951 0.397805 -1.5 0 -1.5 
C -0.397805 -1.5 -0.77937 -1.341951 -1.06066 -1.06066 
C -1.341951 -0.77937 -1.5 -0.397805 -1.5 0 
C -1.5 0.397805 -1.341951 0.77937 -1.06066 1.06066 
C -0.77937 1.341951 -0.397805 1.5 0 1.5 
z
" style="stroke: #ffff00"/>
    </defs>
    <g clip-path="url(#pc1e4b21553)">
     <use xlink:href="#m299d6013e9" x="69.948577" y="152.23676" style="fill: #ffff00; stroke: #ffff00"/>
     <use xlink:href="#m299d6013e9" x="123.195096" y="171.509039" style="fill: #ffff00; stroke: #ffff00"/>
     <use xlink:href="#m299d6013e9" x="64.724575" y="94.089956" style="fill: #ffff00; stroke: #ffff00"/>
     <use xlink:href="#m299d6013e9" x="104.738077" y="121.134435" style="fill: #ffff00; stroke: #ffff00"/>
     <use xlink:href="#m299d6013e9" x="99.563213" y="134.425396" style="fill: #ffff00; stroke: #ffff00"/>
     <use xlink:href="#m299d6013e9" x="108.245795" y="159.087426" style="fill: #ffff00; stroke: #ffff00"/>
     <use xlink:href="#m299d6013e9" x="136.031657" y="164.497192" style="fill: #ffff00; stroke: #ffff00"/>
     <use xlink:href="#m299d6013e9" x="93.787592" y="116.903755" style="fill: #ffff00; stroke: #ffff00"/>
     <use xlink:href="#m299d6013e9" x="115.718277" y="133.390418" style="fill: #ffff00; stroke: #ffff00"/>
     <use xlink:href="#m299d6013e9" x="79.204548" y="131.688068" style="fill: #ffff00; stroke: #ffff00"/>
     <use xlink:href="#m299d6013e9" x="98.635999" y="122.116222" style="fill: #ffff00; stroke: #ffff00"/>
     <use xlink:href="#m299d6013e9" x="87.49538" y="123.972349" style="fill: #ffff00; stroke: #ffff00"/>
    </g>
   </g>
   <g id="PathCollection_6">
    <defs>
     <path id="maf730f4279" d="M 0 1.5 
C 0.397805 1.5 0.77937 1.341951 1.06066 1.06066 
C 1.341951 0.77937 1.5 0.397805 1.5 0 
C 1.5 -0.397805 1.341951 -0.77937 1.06066 -1.06066 
C 0.77937 -1.341951 0.397805 -1.5 0 -1.5 
C -0.397805 -1.5 -0.77937 -1.341951 -1.06066 -1.06066 
C -1.341951 -0.77937 -1.5 -0.397805 -1.5 0 
C -1.5 0.397805 -1.341951 0.77937 -1.06066 1.06066 
C -0.77937 1.341951 -0.397805 1.5 0 1.5 
z
" style="stroke: #00ffff"/>
    </defs>
    <g clip-path="url(#pc1e4b21553)">
     <use xlink:href="#maf730f4279" x="121.946771" y="80.933594" style="fill: #00ffff; stroke: #00ffff"/>
     <use xlink:href="#maf730f4279" x="96.181879" y="116.346435" style="fill: #00ffff; stroke: #00ffff"/>
     <use xlink:href="#maf730f4279" x="99.087092" y="166.78268" style="fill: #00ffff; stroke: #00ffff"/>
     <use xlink:href="#maf730f4279" x="111.048428" y="130.10063" style="fill: #00ffff; stroke: #00ffff"/>
     <use xlink:href="#maf730f4279" x="107.292043" y="126.240599" style="fill: #00ffff; stroke: #00ffff"/>
     <use xlink:href="#maf730f4279" x="100.454024" y="72.186204" style="fill: #00ffff; stroke: #00ffff"/>
     <use xlink:href="#maf730f4279" x="80.647935" y="100.006692" style="fill: #00ffff; stroke: #00ffff"/>
     <use xlink:href="#maf730f4279" x="94.054828" y="146.412767" style="fill: #00ffff; stroke: #00ffff"/>
     <use xlink:href="#maf730f4279" x="119.596332" y="121.110533" style="fill: #00ffff; stroke: #00ffff"/>
     <use xlink:href="#maf730f4279" x="78.572517" y="141.163385" style="fill: #00ffff; stroke: #00ffff"/>
     <use xlink:href="#maf730f4279" x="135.053053" y="130.243104" style="fill: #00ffff; stroke: #00ffff"/>
     <use xlink:href="#maf730f4279" x="106.669313" y="174.425515" style="fill: #00ffff; stroke: #00ffff"/>
     <use xlink:href="#maf730f4279" x="99.061947" y="134.23616" style="fill: #00ffff; stroke: #00ffff"/>
     <use xlink:href="#maf730f4279" x="104.721381" y="129.341288" style="fill: #00ffff; stroke: #00ffff"/>
     <use xlink:href="#maf730f4279" x="86.174223" y="150.465042" style="fill: #00ffff; stroke: #00ffff"/>
     <use xlink:href="#maf730f4279" x="86.777062" y="97.720931" style="fill: #00ffff; stroke: #00ffff"/>
     <use xlink:href="#maf730f4279" x="80.54221" y="132.201163" style="fill: #00ffff; stroke: #00ffff"/>
    </g>
   </g>
   <g id="PathCollection_7">
    <defs>
     <path id="mf274305b68" d="M 0 1.5 
C 0.397805 1.5 0.77937 1.341951 1.06066 1.06066 
C 1.341951 0.77937 1.5 0.397805 1.5 0 
C 1.5 -0.397805 1.341951 -0.77937 1.06066 -1.06066 
C 0.77937 -1.341951 0.397805 -1.5 0 -1.5 
C -0.397805 -1.5 -0.77937 -1.341951 -1.06066 -1.06066 
C -1.341951 -0.77937 -1.5 -0.397805 -1.5 0 
C -1.5 0.397805 -1.341951 0.77937 -1.06066 1.06066 
C -0.77937 1.341951 -0.397805 1.5 0 1.5 
z
" style="stroke: #0000ff"/>
    </defs>
    <g clip-path="url(#pc1e4b21553)">
     <use xlink:href="#mf274305b68" x="105.270909" y="97.995509" style="fill: #0000ff; stroke: #0000ff"/>
     <use xlink:href="#mf274305b68" x="107.711099" y="150.238154" style="fill: #0000ff; stroke: #0000ff"/>
     <use xlink:href="#mf274305b68" x="95.539489" y="149.380548" style="fill: #0000ff; stroke: #0000ff"/>
     <use xlink:href="#mf274305b68" x="116.947703" y="175.361451" style="fill: #0000ff; stroke: #0000ff"/>
     <use xlink:href="#mf274305b68" x="106.302929" y="160.128086" style="fill: #0000ff; stroke: #0000ff"/>
     <use xlink:href="#mf274305b68" x="90.716781" y="160.44315" style="fill: #0000ff; stroke: #0000ff"/>
     <use xlink:href="#mf274305b68" x="86.924301" y="139.383375" style="fill: #0000ff; stroke: #0000ff"/>
     <use xlink:href="#mf274305b68" x="115.441985" y="128.909701" style="fill: #0000ff; stroke: #0000ff"/>
     <use xlink:href="#mf274305b68" x="115.444529" y="123.623788" style="fill: #0000ff; stroke: #0000ff"/>
     <use xlink:href="#mf274305b68" x="137.055826" y="160.7136" style="fill: #0000ff; stroke: #0000ff"/>
     <use xlink:href="#mf274305b68" x="96.808515" y="145.291549" style="fill: #0000ff; stroke: #0000ff"/>
    </g>
   </g>
   <g id="PathCollection_8">
    <defs>
     <path id="m270466b00e" d="M 0 1.5 
C 0.397805 1.5 0.77937 1.341951 1.06066 1.06066 
C 1.341951 0.77937 1.5 0.397805 1.5 0 
C 1.5 -0.397805 1.341951 -0.77937 1.06066 -1.06066 
C 0.77937 -1.341951 0.397805 -1.5 0 -1.5 
C -0.397805 -1.5 -0.77937 -1.341951 -1.06066 -1.06066 
C -1.341951 -0.77937 -1.5 -0.397805 -1.5 0 
C -1.5 0.397805 -1.341951 0.77937 -1.06066 1.06066 
C -0.77937 1.341951 -0.397805 1.5 0 1.5 
z
" style="stroke: #dc143c"/>
    </defs>
    <g clip-path="url(#pc1e4b21553)">
     <use xlink:href="#m270466b00e" x="117.86949" y="49.0722" style="fill: #dc143c; stroke: #dc143c"/>
     <use xlink:href="#m270466b00e" x="108.965325" y="39.561006" style="fill: #dc143c; stroke: #dc143c"/>
     <use xlink:href="#m270466b00e" x="105.13011" y="81.222678" style="fill: #dc143c; stroke: #dc143c"/>
     <use xlink:href="#m270466b00e" x="138.213131" y="116.433062" style="fill: #dc143c; stroke: #dc143c"/>
     <use xlink:href="#m270466b00e" x="126.879208" y="40.397921" style="fill: #dc143c; stroke: #dc143c"/>
    </g>
   </g>
   <g id="PathCollection_9">
    <defs>
     <path id="me83d0b1a60" d="M 0 1.5 
C 0.397805 1.5 0.77937 1.341951 1.06066 1.06066 
C 1.341951 0.77937 1.5 0.397805 1.5 0 
C 1.5 -0.397805 1.341951 -0.77937 1.06066 -1.06066 
C 0.77937 -1.341951 0.397805 -1.5 0 -1.5 
C -0.397805 -1.5 -0.77937 -1.341951 -1.06066 -1.06066 
C -1.341951 -0.77937 -1.5 -0.397805 -1.5 0 
C -1.5 0.397805 -1.341951 0.77937 -1.06066 1.06066 
C -0.77937 1.341951 -0.397805 1.5 0 1.5 
z
" style="stroke: #ffe4c4"/>
    </defs>
    <g clip-path="url(#pc1e4b21553)">
     <use xlink:href="#me83d0b1a60" x="300.681359" y="164.60216" style="fill: #ffe4c4; stroke: #ffe4c4"/>
     <use xlink:href="#me83d0b1a60" x="201.534618" y="131.234136" style="fill: #ffe4c4; stroke: #ffe4c4"/>
     <use xlink:href="#me83d0b1a60" x="220.943893" y="130.404832" style="fill: #ffe4c4; stroke: #ffe4c4"/>
     <use xlink:href="#me83d0b1a60" x="264.793255" y="177.444194" style="fill: #ffe4c4; stroke: #ffe4c4"/>
     <use xlink:href="#me83d0b1a60" x="172.292369" y="73.43654" style="fill: #ffe4c4; stroke: #ffe4c4"/>
     <use xlink:href="#me83d0b1a60" x="180.681611" y="147.089388" style="fill: #ffe4c4; stroke: #ffe4c4"/>
     <use xlink:href="#me83d0b1a60" x="298.136157" y="143.214152" style="fill: #ffe4c4; stroke: #ffe4c4"/>
     <use xlink:href="#me83d0b1a60" x="148.207712" y="177.575963" style="fill: #ffe4c4; stroke: #ffe4c4"/>
     <use xlink:href="#me83d0b1a60" x="235.373561" y="107.880864" style="fill: #ffe4c4; stroke: #ffe4c4"/>
     <use xlink:href="#me83d0b1a60" x="125.566054" y="119.86963" style="fill: #ffe4c4; stroke: #ffe4c4"/>
    </g>
   </g>
   <g id="PathCollection_10">
    <defs>
     <path id="mb226867e21" d="M -2.99994 2.99994 
L 3.00006 2.99994 
L 3.00006 -3.00006 
L -2.99994 -3.00006 
z
" style="stroke: #000000"/>
    </defs>
    <g clip-path="url(#pc1e4b21553)">
     <use xlink:href="#mb226867e21" x="89.194676" y="207.713149" style="stroke: #000000"/>
     <use xlink:href="#mb226867e21" x="92.311145" y="191.393951" style="stroke: #000000"/>
     <use xlink:href="#mb226867e21" x="87.171445" y="177.391995" style="stroke: #000000"/>
     <use xlink:href="#mb226867e21" x="124.937343" y="205.240665" style="stroke: #000000"/>
     <use xlink:href="#mb226867e21" x="122.373986" y="153.09322" style="stroke: #000000"/>
     <use xlink:href="#mb226867e21" x="72.828414" y="225.852819" style="stroke: #000000"/>
     <use xlink:href="#mb226867e21" x="91.654711" y="167.462131" style="stroke: #000000"/>
     <use xlink:href="#mb226867e21" x="98.21885" y="206.93194" style="stroke: #000000"/>
     <use xlink:href="#mb226867e21" x="116.78457" y="220.65967" style="stroke: #000000"/>
     <use xlink:href="#mb226867e21" x="81.427207" y="165.498267" style="stroke: #000000"/>
     <use xlink:href="#mb226867e21" x="87.497482" y="185.349143" style="stroke: #000000"/>
     <use xlink:href="#mb226867e21" x="118.007441" y="145.50386" style="stroke: #000000"/>
     <use xlink:href="#mb226867e21" x="146.260569" y="139.969324" style="stroke: #000000"/>
     <use xlink:href="#mb226867e21" x="102.532673" y="187.042007" style="stroke: #000000"/>
     <use xlink:href="#mb226867e21" x="93.530131" y="217.241684" style="stroke: #000000"/>
     <use xlink:href="#mb226867e21" x="98.16917" y="183.065124" style="stroke: #000000"/>
     <use xlink:href="#mb226867e21" x="81.064433" y="157.968434" style="stroke: #000000"/>
     <use xlink:href="#mb226867e21" x="97.344715" y="129.111651" style="stroke: #000000"/>
     <use xlink:href="#mb226867e21" x="83.955449" y="179.323622" style="stroke: #000000"/>
     <use xlink:href="#mb226867e21" x="82.210417" y="167.236602" style="stroke: #000000"/>
     <use xlink:href="#mb226867e21" x="77.620889" y="151.730026" style="stroke: #000000"/>
     <use xlink:href="#mb226867e21" x="53.778461" y="139.069809" style="stroke: #000000"/>
     <use xlink:href="#mb226867e21" x="131.741168" y="190.912949" style="stroke: #000000"/>
     <use xlink:href="#mb226867e21" x="76.249818" y="124.880112" style="stroke: #000000"/>
     <use xlink:href="#mb226867e21" x="51.537415" y="199.918311" style="stroke: #000000"/>
     <use xlink:href="#mb226867e21" x="79.061895" y="183.243943" style="stroke: #000000"/>
     <use xlink:href="#mb226867e21" x="60.034052" y="144.731709" style="stroke: #000000"/>
     <use xlink:href="#mb226867e21" x="98.394439" y="173.512214" style="stroke: #000000"/>
     <use xlink:href="#mb226867e21" x="67.826103" y="160.446827" style="stroke: #000000"/>
     <use xlink:href="#mb226867e21" x="89.640016" y="167.459439" style="stroke: #000000"/>
     <use xlink:href="#mb226867e21" x="94.717798" y="153.598679" style="stroke: #000000"/>
     <use xlink:href="#mb226867e21" x="110.381551" y="211.41998" style="stroke: #000000"/>
     <use xlink:href="#mb226867e21" x="72.149283" y="145.894923" style="stroke: #000000"/>
     <use xlink:href="#mb226867e21" x="80.887405" y="181.248816" style="stroke: #000000"/>
     <use xlink:href="#mb226867e21" x="68.930489" y="187.920936" style="stroke: #000000"/>
     <use xlink:href="#mb226867e21" x="92.081177" y="192.054021" style="stroke: #000000"/>
     <use xlink:href="#mb226867e21" x="84.957329" y="155.007975" style="stroke: #000000"/>
     <use xlink:href="#mb226867e21" x="101.038604" y="244.470556" style="stroke: #000000"/>
     <use xlink:href="#mb226867e21" x="77.973887" y="148.795367" style="stroke: #000000"/>
     <use xlink:href="#mb226867e21" x="61.541717" y="116.87933" style="stroke: #000000"/>
     <use xlink:href="#mb226867e21" x="89.808046" y="211.010956" style="stroke: #000000"/>
     <use xlink:href="#mb226867e21" x="102.567234" y="191.092677" style="stroke: #000000"/>
     <use xlink:href="#mb226867e21" x="79.763142" y="226.721506" style="stroke: #000000"/>
     <use xlink:href="#mb226867e21" x="89.379155" y="170.232852" style="stroke: #000000"/>
     <use xlink:href="#mb226867e21" x="112.33853" y="180.438" style="stroke: #000000"/>
     <use xlink:href="#mb226867e21" x="73.0033" y="172.29597" style="stroke: #000000"/>
     <use xlink:href="#mb226867e21" x="117.023262" y="149.254979" style="stroke: #000000"/>
     <use xlink:href="#mb226867e21" x="105.9543" y="132.190411" style="stroke: #000000"/>
     <use xlink:href="#mb226867e21" x="74.643106" y="146.155722" style="stroke: #000000"/>
     <use xlink:href="#mb226867e21" x="86.297125" y="168.74743" style="stroke: #000000"/>
     <use xlink:href="#mb226867e21" x="95.137322" y="165.644186" style="stroke: #000000"/>
     <use xlink:href="#mb226867e21" x="86.441297" y="102.696385" style="stroke: #000000"/>
     <use xlink:href="#mb226867e21" x="90.910839" y="246.069624" style="stroke: #000000"/>
     <use xlink:href="#mb226867e21" x="101.667774" y="166.924653" style="stroke: #000000"/>
     <use xlink:href="#mb226867e21" x="54.37009" y="150.28897" style="stroke: #000000"/>
     <use xlink:href="#mb226867e21" x="67.350646" y="157.724639" style="stroke: #000000"/>
     <use xlink:href="#mb226867e21" x="94.917724" y="147.925508" style="stroke: #000000"/>
     <use xlink:href="#mb226867e21" x="70.813207" y="150.635456" style="stroke: #000000"/>
     <use xlink:href="#mb226867e21" x="67.513494" y="147.313049" style="stroke: #000000"/>
     <use xlink:href="#mb226867e21" x="85.281122" y="145.477691" style="stroke: #000000"/>
     <use xlink:href="#mb226867e21" x="90.272281" y="186.244283" style="stroke: #000000"/>
     <use xlink:href="#mb226867e21" x="71.359482" y="179.693901" style="stroke: #000000"/>
     <use xlink:href="#mb226867e21" x="138.318462" y="143.885312" style="stroke: #000000"/>
     <use xlink:href="#mb226867e21" x="133.266342" y="174.628581" style="stroke: #000000"/>
    </g>
   </g>
   <g id="PathCollection_11">
    <defs>
     <path id="m7660d8ae9e" d="M -3 -0 
L 3 3 
L 3 -3 
z
" style="stroke: #ff8c00"/>
    </defs>
    <g clip-path="url(#pc1e4b21553)">
     <use xlink:href="#m7660d8ae9e" x="92.717468" y="171.587191" style="fill: #ff8c00; stroke: #ff8c00"/>
     <use xlink:href="#m7660d8ae9e" x="67.489458" y="147.742572" style="fill: #ff8c00; stroke: #ff8c00"/>
     <use xlink:href="#m7660d8ae9e" x="89.099443" y="150.382355" style="fill: #ff8c00; stroke: #ff8c00"/>
     <use xlink:href="#m7660d8ae9e" x="67.810751" y="140.380824" style="fill: #ff8c00; stroke: #ff8c00"/>
     <use xlink:href="#m7660d8ae9e" x="103.430625" y="155.577497" style="fill: #ff8c00; stroke: #ff8c00"/>
     <use xlink:href="#m7660d8ae9e" x="93.980811" y="217.641438" style="fill: #ff8c00; stroke: #ff8c00"/>
     <use xlink:href="#m7660d8ae9e" x="109.378539" y="165.573334" style="fill: #ff8c00; stroke: #ff8c00"/>
     <use xlink:href="#m7660d8ae9e" x="64.586853" y="137.460738" style="fill: #ff8c00; stroke: #ff8c00"/>
     <use xlink:href="#m7660d8ae9e" x="119.569768" y="178.059948" style="fill: #ff8c00; stroke: #ff8c00"/>
     <use xlink:href="#m7660d8ae9e" x="99.890231" y="147.626757" style="fill: #ff8c00; stroke: #ff8c00"/>
     <use xlink:href="#m7660d8ae9e" x="63.221283" y="165.187201" style="fill: #ff8c00; stroke: #ff8c00"/>
     <use xlink:href="#m7660d8ae9e" x="65.094189" y="118.695624" style="fill: #ff8c00; stroke: #ff8c00"/>
     <use xlink:href="#m7660d8ae9e" x="77.53837" y="261.216" style="fill: #ff8c00; stroke: #ff8c00"/>
     <use xlink:href="#m7660d8ae9e" x="80.059485" y="146.300147" style="fill: #ff8c00; stroke: #ff8c00"/>
     <use xlink:href="#m7660d8ae9e" x="106.645057" y="199.876498" style="fill: #ff8c00; stroke: #ff8c00"/>
     <use xlink:href="#m7660d8ae9e" x="106.644764" y="213.879621" style="fill: #ff8c00; stroke: #ff8c00"/>
     <use xlink:href="#m7660d8ae9e" x="105.357061" y="170.189612" style="fill: #ff8c00; stroke: #ff8c00"/>
     <use xlink:href="#m7660d8ae9e" x="87.027207" y="176.412312" style="fill: #ff8c00; stroke: #ff8c00"/>
     <use xlink:href="#m7660d8ae9e" x="66.423104" y="145.033171" style="fill: #ff8c00; stroke: #ff8c00"/>
     <use xlink:href="#m7660d8ae9e" x="89.705151" y="161.029323" style="fill: #ff8c00; stroke: #ff8c00"/>
     <use xlink:href="#m7660d8ae9e" x="71.648086" y="137.962059" style="fill: #ff8c00; stroke: #ff8c00"/>
     <use xlink:href="#m7660d8ae9e" x="115.142045" y="163.977095" style="fill: #ff8c00; stroke: #ff8c00"/>
     <use xlink:href="#m7660d8ae9e" x="66.014263" y="168.746951" style="fill: #ff8c00; stroke: #ff8c00"/>
     <use xlink:href="#m7660d8ae9e" x="83.89476" y="111.615096" style="fill: #ff8c00; stroke: #ff8c00"/>
     <use xlink:href="#m7660d8ae9e" x="106.19838" y="148.675887" style="fill: #ff8c00; stroke: #ff8c00"/>
     <use xlink:href="#m7660d8ae9e" x="90.434608" y="193.08705" style="fill: #ff8c00; stroke: #ff8c00"/>
     <use xlink:href="#m7660d8ae9e" x="86.294483" y="137.915074" style="fill: #ff8c00; stroke: #ff8c00"/>
     <use xlink:href="#m7660d8ae9e" x="68.455243" y="135.213265" style="fill: #ff8c00; stroke: #ff8c00"/>
     <use xlink:href="#m7660d8ae9e" x="66.215245" y="131.069003" style="fill: #ff8c00; stroke: #ff8c00"/>
     <use xlink:href="#m7660d8ae9e" x="104.14211" y="130.242509" style="fill: #ff8c00; stroke: #ff8c00"/>
     <use xlink:href="#m7660d8ae9e" x="78.686876" y="184.248416" style="fill: #ff8c00; stroke: #ff8c00"/>
     <use xlink:href="#m7660d8ae9e" x="116.316891" y="166.048811" style="fill: #ff8c00; stroke: #ff8c00"/>
     <use xlink:href="#m7660d8ae9e" x="58.950571" y="184.0032" style="fill: #ff8c00; stroke: #ff8c00"/>
     <use xlink:href="#m7660d8ae9e" x="175.366169" y="231.567268" style="fill: #ff8c00; stroke: #ff8c00"/>
     <use xlink:href="#m7660d8ae9e" x="85.716482" y="153.417081" style="fill: #ff8c00; stroke: #ff8c00"/>
     <use xlink:href="#m7660d8ae9e" x="67.604833" y="140.004313" style="fill: #ff8c00; stroke: #ff8c00"/>
     <use xlink:href="#m7660d8ae9e" x="105.935807" y="139.835175" style="fill: #ff8c00; stroke: #ff8c00"/>
     <use xlink:href="#m7660d8ae9e" x="64.720464" y="186.378772" style="fill: #ff8c00; stroke: #ff8c00"/>
     <use xlink:href="#m7660d8ae9e" x="57.860336" y="182.069286" style="fill: #ff8c00; stroke: #ff8c00"/>
     <use xlink:href="#m7660d8ae9e" x="96.873782" y="165.52351" style="fill: #ff8c00; stroke: #ff8c00"/>
     <use xlink:href="#m7660d8ae9e" x="98.727698" y="100.147728" style="fill: #ff8c00; stroke: #ff8c00"/>
     <use xlink:href="#m7660d8ae9e" x="62.884528" y="156.698304" style="fill: #ff8c00; stroke: #ff8c00"/>
     <use xlink:href="#m7660d8ae9e" x="88.649" y="163.59337" style="fill: #ff8c00; stroke: #ff8c00"/>
     <use xlink:href="#m7660d8ae9e" x="109.848363" y="202.056442" style="fill: #ff8c00; stroke: #ff8c00"/>
     <use xlink:href="#m7660d8ae9e" x="68.577486" y="158.189719" style="fill: #ff8c00; stroke: #ff8c00"/>
     <use xlink:href="#m7660d8ae9e" x="93.406418" y="193.433746" style="fill: #ff8c00; stroke: #ff8c00"/>
     <use xlink:href="#m7660d8ae9e" x="103.067892" y="154.765914" style="fill: #ff8c00; stroke: #ff8c00"/>
     <use xlink:href="#m7660d8ae9e" x="80.946265" y="159.049421" style="fill: #ff8c00; stroke: #ff8c00"/>
     <use xlink:href="#m7660d8ae9e" x="70.542358" y="137.432765" style="fill: #ff8c00; stroke: #ff8c00"/>
     <use xlink:href="#m7660d8ae9e" x="89.991777" y="173.211656" style="fill: #ff8c00; stroke: #ff8c00"/>
     <use xlink:href="#m7660d8ae9e" x="65.004723" y="157.383233" style="fill: #ff8c00; stroke: #ff8c00"/>
     <use xlink:href="#m7660d8ae9e" x="109.200532" y="162.138479" style="fill: #ff8c00; stroke: #ff8c00"/>
     <use xlink:href="#m7660d8ae9e" x="96.0925" y="55.519472" style="fill: #ff8c00; stroke: #ff8c00"/>
     <use xlink:href="#m7660d8ae9e" x="74.104719" y="132.032316" style="fill: #ff8c00; stroke: #ff8c00"/>
     <use xlink:href="#m7660d8ae9e" x="72.555688" y="132.619997" style="fill: #ff8c00; stroke: #ff8c00"/>
     <use xlink:href="#m7660d8ae9e" x="70.390873" y="159.178482" style="fill: #ff8c00; stroke: #ff8c00"/>
     <use xlink:href="#m7660d8ae9e" x="64.071348" y="147.061002" style="fill: #ff8c00; stroke: #ff8c00"/>
     <use xlink:href="#m7660d8ae9e" x="87.088599" y="149.694835" style="fill: #ff8c00; stroke: #ff8c00"/>
     <use xlink:href="#m7660d8ae9e" x="104.082981" y="145.435491" style="fill: #ff8c00; stroke: #ff8c00"/>
     <use xlink:href="#m7660d8ae9e" x="95.733431" y="190.121116" style="fill: #ff8c00; stroke: #ff8c00"/>
     <use xlink:href="#m7660d8ae9e" x="80.61321" y="210.866465" style="fill: #ff8c00; stroke: #ff8c00"/>
     <use xlink:href="#m7660d8ae9e" x="99.870692" y="188.748551" style="fill: #ff8c00; stroke: #ff8c00"/>
     <use xlink:href="#m7660d8ae9e" x="85.556082" y="169.357414" style="fill: #ff8c00; stroke: #ff8c00"/>
     <use xlink:href="#m7660d8ae9e" x="83.231183" y="141.937489" style="fill: #ff8c00; stroke: #ff8c00"/>
    </g>
   </g>
   <g id="matplotlib.axis_1">
    <g id="xtick_1">
     <g id="line2d_1">
      <defs>
       <path id="mf45165d013" d="M 0 0 
L 0 3.5 
" style="stroke: #000000; stroke-width: 0.8"/>
      </defs>
      <g>
       <use xlink:href="#mf45165d013" x="64.825456" y="273.312" style="stroke: #000000; stroke-width: 0.8"/>
      </g>
     </g>
     <g id="text_1">
      <!-- −10 -->
      <g transform="translate(54.273112 287.910437) scale(0.1 -0.1)">
       <defs>
        <path id="DejaVuSans-2212" d="M 678 2272 
L 4684 2272 
L 4684 1741 
L 678 1741 
L 678 2272 
z
" transform="scale(0.015625)"/>
        <path id="DejaVuSans-31" d="M 794 531 
L 1825 531 
L 1825 4091 
L 703 3866 
L 703 4441 
L 1819 4666 
L 2450 4666 
L 2450 531 
L 3481 531 
L 3481 0 
L 794 0 
L 794 531 
z
" transform="scale(0.015625)"/>
        <path id="DejaVuSans-30" d="M 2034 4250 
Q 1547 4250 1301 3770 
Q 1056 3291 1056 2328 
Q 1056 1369 1301 889 
Q 1547 409 2034 409 
Q 2525 409 2770 889 
Q 3016 1369 3016 2328 
Q 3016 3291 2770 3770 
Q 2525 4250 2034 4250 
z
M 2034 4750 
Q 2819 4750 3233 4129 
Q 3647 3509 3647 2328 
Q 3647 1150 3233 529 
Q 2819 -91 2034 -91 
Q 1250 -91 836 529 
Q 422 1150 422 2328 
Q 422 3509 836 4129 
Q 1250 4750 2034 4750 
z
" transform="scale(0.015625)"/>
       </defs>
       <use xlink:href="#DejaVuSans-2212"/>
       <use xlink:href="#DejaVuSans-31" x="83.789062"/>
       <use xlink:href="#DejaVuSans-30" x="147.412109"/>
      </g>
     </g>
    </g>
    <g id="xtick_2">
     <g id="line2d_2">
      <g>
       <use xlink:href="#mf45165d013" x="112.833391" y="273.312" style="stroke: #000000; stroke-width: 0.8"/>
      </g>
     </g>
     <g id="text_2">
      <!-- 0 -->
      <g transform="translate(109.652141 287.910437) scale(0.1 -0.1)">
       <use xlink:href="#DejaVuSans-30"/>
      </g>
     </g>
    </g>
    <g id="xtick_3">
     <g id="line2d_3">
      <g>
       <use xlink:href="#mf45165d013" x="160.841326" y="273.312" style="stroke: #000000; stroke-width: 0.8"/>
      </g>
     </g>
     <g id="text_3">
      <!-- 10 -->
      <g transform="translate(154.478826 287.910437) scale(0.1 -0.1)">
       <use xlink:href="#DejaVuSans-31"/>
       <use xlink:href="#DejaVuSans-30" x="63.623047"/>
      </g>
     </g>
    </g>
    <g id="xtick_4">
     <g id="line2d_4">
      <g>
       <use xlink:href="#mf45165d013" x="208.849261" y="273.312" style="stroke: #000000; stroke-width: 0.8"/>
      </g>
     </g>
     <g id="text_4">
      <!-- 20 -->
      <g transform="translate(202.486761 287.910437) scale(0.1 -0.1)">
       <defs>
        <path id="DejaVuSans-32" d="M 1228 531 
L 3431 531 
L 3431 0 
L 469 0 
L 469 531 
Q 828 903 1448 1529 
Q 2069 2156 2228 2338 
Q 2531 2678 2651 2914 
Q 2772 3150 2772 3378 
Q 2772 3750 2511 3984 
Q 2250 4219 1831 4219 
Q 1534 4219 1204 4116 
Q 875 4013 500 3803 
L 500 4441 
Q 881 4594 1212 4672 
Q 1544 4750 1819 4750 
Q 2544 4750 2975 4387 
Q 3406 4025 3406 3419 
Q 3406 3131 3298 2873 
Q 3191 2616 2906 2266 
Q 2828 2175 2409 1742 
Q 1991 1309 1228 531 
z
" transform="scale(0.015625)"/>
       </defs>
       <use xlink:href="#DejaVuSans-32"/>
       <use xlink:href="#DejaVuSans-30" x="63.623047"/>
      </g>
     </g>
    </g>
    <g id="xtick_5">
     <g id="line2d_5">
      <g>
       <use xlink:href="#mf45165d013" x="256.857196" y="273.312" style="stroke: #000000; stroke-width: 0.8"/>
      </g>
     </g>
     <g id="text_5">
      <!-- 30 -->
      <g transform="translate(250.494696 287.910437) scale(0.1 -0.1)">
       <defs>
        <path id="DejaVuSans-33" d="M 2597 2516 
Q 3050 2419 3304 2112 
Q 3559 1806 3559 1356 
Q 3559 666 3084 287 
Q 2609 -91 1734 -91 
Q 1441 -91 1130 -33 
Q 819 25 488 141 
L 488 750 
Q 750 597 1062 519 
Q 1375 441 1716 441 
Q 2309 441 2620 675 
Q 2931 909 2931 1356 
Q 2931 1769 2642 2001 
Q 2353 2234 1838 2234 
L 1294 2234 
L 1294 2753 
L 1863 2753 
Q 2328 2753 2575 2939 
Q 2822 3125 2822 3475 
Q 2822 3834 2567 4026 
Q 2313 4219 1838 4219 
Q 1578 4219 1281 4162 
Q 984 4106 628 3988 
L 628 4550 
Q 988 4650 1302 4700 
Q 1616 4750 1894 4750 
Q 2613 4750 3031 4423 
Q 3450 4097 3450 3541 
Q 3450 3153 3228 2886 
Q 3006 2619 2597 2516 
z
" transform="scale(0.015625)"/>
       </defs>
       <use xlink:href="#DejaVuSans-33"/>
       <use xlink:href="#DejaVuSans-30" x="63.623047"/>
      </g>
     </g>
    </g>
    <g id="xtick_6">
     <g id="line2d_6">
      <g>
       <use xlink:href="#mf45165d013" x="304.865132" y="273.312" style="stroke: #000000; stroke-width: 0.8"/>
      </g>
     </g>
     <g id="text_6">
      <!-- 40 -->
      <g transform="translate(298.502632 287.910437) scale(0.1 -0.1)">
       <defs>
        <path id="DejaVuSans-34" d="M 2419 4116 
L 825 1625 
L 2419 1625 
L 2419 4116 
z
M 2253 4666 
L 3047 4666 
L 3047 1625 
L 3713 1625 
L 3713 1100 
L 3047 1100 
L 3047 0 
L 2419 0 
L 2419 1100 
L 313 1100 
L 313 1709 
L 2253 4666 
z
" transform="scale(0.015625)"/>
       </defs>
       <use xlink:href="#DejaVuSans-34"/>
       <use xlink:href="#DejaVuSans-30" x="63.623047"/>
      </g>
     </g>
    </g>
    <g id="xtick_7">
     <g id="line2d_7">
      <g>
       <use xlink:href="#mf45165d013" x="352.873067" y="273.312" style="stroke: #000000; stroke-width: 0.8"/>
      </g>
     </g>
     <g id="text_7">
      <!-- 50 -->
      <g transform="translate(346.510567 287.910437) scale(0.1 -0.1)">
       <defs>
        <path id="DejaVuSans-35" d="M 691 4666 
L 3169 4666 
L 3169 4134 
L 1269 4134 
L 1269 2991 
Q 1406 3038 1543 3061 
Q 1681 3084 1819 3084 
Q 2600 3084 3056 2656 
Q 3513 2228 3513 1497 
Q 3513 744 3044 326 
Q 2575 -91 1722 -91 
Q 1428 -91 1123 -41 
Q 819 9 494 109 
L 494 744 
Q 775 591 1075 516 
Q 1375 441 1709 441 
Q 2250 441 2565 725 
Q 2881 1009 2881 1497 
Q 2881 1984 2565 2268 
Q 2250 2553 1709 2553 
Q 1456 2553 1204 2497 
Q 953 2441 691 2322 
L 691 4666 
z
" transform="scale(0.015625)"/>
       </defs>
       <use xlink:href="#DejaVuSans-35"/>
       <use xlink:href="#DejaVuSans-30" x="63.623047"/>
      </g>
     </g>
    </g>
   </g>
   <g id="matplotlib.axis_2">
    <g id="ytick_1">
     <g id="line2d_8">
      <defs>
       <path id="m640ce60f8a" d="M 0 0 
L -3.5 0 
" style="stroke: #000000; stroke-width: 0.8"/>
      </defs>
      <g>
       <use xlink:href="#m640ce60f8a" x="35.304688" y="238.914148" style="stroke: #000000; stroke-width: 0.8"/>
      </g>
     </g>
     <g id="text_8">
      <!-- −20 -->
      <g transform="translate(7.2 242.713366) scale(0.1 -0.1)">
       <use xlink:href="#DejaVuSans-2212"/>
       <use xlink:href="#DejaVuSans-32" x="83.789062"/>
       <use xlink:href="#DejaVuSans-30" x="147.412109"/>
      </g>
     </g>
    </g>
    <g id="ytick_2">
     <g id="line2d_9">
      <g>
       <use xlink:href="#m640ce60f8a" x="35.304688" y="193.389509" style="stroke: #000000; stroke-width: 0.8"/>
      </g>
     </g>
     <g id="text_9">
      <!-- −10 -->
      <g transform="translate(7.2 197.188728) scale(0.1 -0.1)">
       <use xlink:href="#DejaVuSans-2212"/>
       <use xlink:href="#DejaVuSans-31" x="83.789062"/>
       <use xlink:href="#DejaVuSans-30" x="147.412109"/>
      </g>
     </g>
    </g>
    <g id="ytick_3">
     <g id="line2d_10">
      <g>
       <use xlink:href="#m640ce60f8a" x="35.304688" y="147.864871" style="stroke: #000000; stroke-width: 0.8"/>
      </g>
     </g>
     <g id="text_10">
      <!-- 0 -->
      <g transform="translate(21.942187 151.66409) scale(0.1 -0.1)">
       <use xlink:href="#DejaVuSans-30"/>
      </g>
     </g>
    </g>
    <g id="ytick_4">
     <g id="line2d_11">
      <g>
       <use xlink:href="#m640ce60f8a" x="35.304688" y="102.340233" style="stroke: #000000; stroke-width: 0.8"/>
      </g>
     </g>
     <g id="text_11">
      <!-- 10 -->
      <g transform="translate(15.579687 106.139452) scale(0.1 -0.1)">
       <use xlink:href="#DejaVuSans-31"/>
       <use xlink:href="#DejaVuSans-30" x="63.623047"/>
      </g>
     </g>
    </g>
    <g id="ytick_5">
     <g id="line2d_12">
      <g>
       <use xlink:href="#m640ce60f8a" x="35.304688" y="56.815595" style="stroke: #000000; stroke-width: 0.8"/>
      </g>
     </g>
     <g id="text_12">
      <!-- 20 -->
      <g transform="translate(15.579687 60.614813) scale(0.1 -0.1)">
       <use xlink:href="#DejaVuSans-32"/>
       <use xlink:href="#DejaVuSans-30" x="63.623047"/>
      </g>
     </g>
    </g>
    <g id="ytick_6">
     <g id="line2d_13">
      <g>
       <use xlink:href="#m640ce60f8a" x="35.304688" y="11.290956" style="stroke: #000000; stroke-width: 0.8"/>
      </g>
     </g>
     <g id="text_13">
      <!-- 30 -->
      <g transform="translate(15.579687 15.090175) scale(0.1 -0.1)">
       <use xlink:href="#DejaVuSans-33"/>
       <use xlink:href="#DejaVuSans-30" x="63.623047"/>
      </g>
     </g>
    </g>
   </g>
   <g id="patch_3">
    <path d="M 35.304688 273.312 
L 35.304688 7.2 
" style="fill: none; stroke: #000000; stroke-width: 0.8; stroke-linejoin: miter; stroke-linecap: square"/>
   </g>
   <g id="patch_4">
    <path d="M 392.424688 273.312 
L 392.424688 7.2 
" style="fill: none; stroke: #000000; stroke-width: 0.8; stroke-linejoin: miter; stroke-linecap: square"/>
   </g>
   <g id="patch_5">
    <path d="M 35.304688 273.312 
L 392.424688 273.312 
" style="fill: none; stroke: #000000; stroke-width: 0.8; stroke-linejoin: miter; stroke-linecap: square"/>
   </g>
   <g id="patch_6">
    <path d="M 35.304688 7.2 
L 392.424688 7.2 
" style="fill: none; stroke: #000000; stroke-width: 0.8; stroke-linejoin: miter; stroke-linecap: square"/>
   </g>
  </g>
 </g>
 <defs>
  <clipPath id="pc1e4b21553">
   <rect x="35.304688" y="7.2" width="357.12" height="266.112"/>
  </clipPath>
 </defs>
</svg>
