<?xml version="1.0" encoding="utf-8" standalone="no"?>
<!DOCTYPE svg PUBLIC "-//W3C//DTD SVG 1.1//EN"
  "http://www.w3.org/Graphics/SVG/1.1/DTD/svg11.dtd">
<svg xmlns:xlink="http://www.w3.org/1999/xlink" width="399.624687pt" height="297.190125pt" viewBox="0 0 399.624687 297.190125" xmlns="http://www.w3.org/2000/svg" version="1.1">
 <metadata>
  <rdf:RDF xmlns:dc="http://purl.org/dc/elements/1.1/" xmlns:cc="http://creativecommons.org/ns#" xmlns:rdf="http://www.w3.org/1999/02/22-rdf-syntax-ns#">
   <cc:Work>
    <dc:type rdf:resource="http://purl.org/dc/dcmitype/StillImage"/>
    <dc:date>2023-11-12T09:12:13.221407</dc:date>
    <dc:format>image/svg+xml</dc:format>
    <dc:creator>
     <cc:Agent>
      <dc:title>Matplotlib v3.8.0, https://matplotlib.org/</dc:title>
     </cc:Agent>
    </dc:creator>
   </cc:Work>
  </rdf:RDF>
 </metadata>
 <defs>
  <style type="text/css">*{stroke-linejoin: round; stroke-linecap: butt}</style>
 </defs>
 <g id="figure_1">
  <g id="patch_1">
   <path d="M 0 297.190125 
L 399.624687 297.190125 
L 399.624687 0 
L 0 0 
z
" style="fill: #ffffff"/>
  </g>
  <g id="axes_1">
   <g id="patch_2">
    <path d="M 35.304688 273.312 
L 392.424688 273.312 
L 392.424688 7.2 
L 35.304688 7.2 
z
" style="fill: #ffffff"/>
   </g>
   <g id="PathCollection_1">
    <defs>
     <path id="m89dd72ad5c" d="M 0 1.5 
C 0.397805 1.5 0.77937 1.341951 1.06066 1.06066 
C 1.341951 0.77937 1.5 0.397805 1.5 0 
C 1.5 -0.397805 1.341951 -0.77937 1.06066 -1.06066 
C 0.77937 -1.341951 0.397805 -1.5 0 -1.5 
C -0.397805 -1.5 -0.77937 -1.341951 -1.06066 -1.06066 
C -1.341951 -0.77937 -1.5 -0.397805 -1.5 0 
C -1.5 0.397805 -1.341951 0.77937 -1.06066 1.06066 
C -0.77937 1.341951 -0.397805 1.5 0 1.5 
z
" style="stroke: #ff8c00"/>
    </defs>
    <g clip-path="url(#p9b8852f8b5)">
     <use xlink:href="#m89dd72ad5c" x="120.475154" y="237.765318" style="fill: #ff8c00; stroke: #ff8c00"/>
     <use xlink:href="#m89dd72ad5c" x="94.764259" y="209.621941" style="fill: #ff8c00; stroke: #ff8c00"/>
     <use xlink:href="#m89dd72ad5c" x="131.526761" y="168.113026" style="fill: #ff8c00; stroke: #ff8c00"/>
     <use xlink:href="#m89dd72ad5c" x="131.409577" y="241.456914" style="fill: #ff8c00; stroke: #ff8c00"/>
     <use xlink:href="#m89dd72ad5c" x="112.898111" y="191.043309" style="fill: #ff8c00; stroke: #ff8c00"/>
     <use xlink:href="#m89dd72ad5c" x="120.963993" y="230.896939" style="fill: #ff8c00; stroke: #ff8c00"/>
     <use xlink:href="#m89dd72ad5c" x="127.297151" y="234.54157" style="fill: #ff8c00; stroke: #ff8c00"/>
     <use xlink:href="#m89dd72ad5c" x="111.60903" y="213.878091" style="fill: #ff8c00; stroke: #ff8c00"/>
     <use xlink:href="#m89dd72ad5c" x="112.088759" y="213.67839" style="fill: #ff8c00; stroke: #ff8c00"/>
     <use xlink:href="#m89dd72ad5c" x="115.984126" y="217.463314" style="fill: #ff8c00; stroke: #ff8c00"/>
     <use xlink:href="#m89dd72ad5c" x="89.469567" y="195.178321" style="fill: #ff8c00; stroke: #ff8c00"/>
     <use xlink:href="#m89dd72ad5c" x="104.842788" y="233.135276" style="fill: #ff8c00; stroke: #ff8c00"/>
     <use xlink:href="#m89dd72ad5c" x="110.108745" y="217.381029" style="fill: #ff8c00; stroke: #ff8c00"/>
     <use xlink:href="#m89dd72ad5c" x="139.797109" y="217.18035" style="fill: #ff8c00; stroke: #ff8c00"/>
    </g>
   </g>
   <g id="PathCollection_2">
    <defs>
     <path id="m2f27e6eb15" d="M 0 1.5 
C 0.397805 1.5 0.77937 1.341951 1.06066 1.06066 
C 1.341951 0.77937 1.5 0.397805 1.5 0 
C 1.5 -0.397805 1.341951 -0.77937 1.06066 -1.06066 
C 0.77937 -1.341951 0.397805 -1.5 0 -1.5 
C -0.397805 -1.5 -0.77937 -1.341951 -1.06066 -1.06066 
C -1.341951 -0.77937 -1.5 -0.397805 -1.5 0 
C -1.5 0.397805 -1.341951 0.77937 -1.06066 1.06066 
C -0.77937 1.341951 -0.397805 1.5 0 1.5 
z
" style="stroke: #006400"/>
    </defs>
    <g clip-path="url(#p9b8852f8b5)">
     <use xlink:href="#m2f27e6eb15" x="284.761139" y="197.278004" style="fill: #006400; stroke: #006400"/>
     <use xlink:href="#m2f27e6eb15" x="245.194112" y="227.120984" style="fill: #006400; stroke: #006400"/>
     <use xlink:href="#m2f27e6eb15" x="272.747656" y="232.028327" style="fill: #006400; stroke: #006400"/>
     <use xlink:href="#m2f27e6eb15" x="237.134884" y="127.369705" style="fill: #006400; stroke: #006400"/>
     <use xlink:href="#m2f27e6eb15" x="161.415606" y="158.868143" style="fill: #006400; stroke: #006400"/>
     <use xlink:href="#m2f27e6eb15" x="274.433295" y="260.137528" style="fill: #006400; stroke: #006400"/>
     <use xlink:href="#m2f27e6eb15" x="243.174562" y="138.383297" style="fill: #006400; stroke: #006400"/>
     <use xlink:href="#m2f27e6eb15" x="179.116086" y="198.290785" style="fill: #006400; stroke: #006400"/>
     <use xlink:href="#m2f27e6eb15" x="232.243257" y="180.135396" style="fill: #006400; stroke: #006400"/>
     <use xlink:href="#m2f27e6eb15" x="234.863512" y="169.086806" style="fill: #006400; stroke: #006400"/>
     <use xlink:href="#m2f27e6eb15" x="376.19196" y="149.267222" style="fill: #006400; stroke: #006400"/>
     <use xlink:href="#m2f27e6eb15" x="129.804318" y="191.445372" style="fill: #006400; stroke: #006400"/>
     <use xlink:href="#m2f27e6eb15" x="267.314872" y="174.052623" style="fill: #006400; stroke: #006400"/>
     <use xlink:href="#m2f27e6eb15" x="208.848866" y="174.778307" style="fill: #006400; stroke: #006400"/>
     <use xlink:href="#m2f27e6eb15" x="257.240641" y="215.982232" style="fill: #006400; stroke: #006400"/>
     <use xlink:href="#m2f27e6eb15" x="326.840968" y="255.235897" style="fill: #006400; stroke: #006400"/>
     <use xlink:href="#m2f27e6eb15" x="231.191072" y="155.475794" style="fill: #006400; stroke: #006400"/>
     <use xlink:href="#m2f27e6eb15" x="310.467187" y="213.276543" style="fill: #006400; stroke: #006400"/>
     <use xlink:href="#m2f27e6eb15" x="260.962399" y="234.737938" style="fill: #006400; stroke: #006400"/>
     <use xlink:href="#m2f27e6eb15" x="317.563977" y="220.470994" style="fill: #006400; stroke: #006400"/>
     <use xlink:href="#m2f27e6eb15" x="348.848764" y="192.364751" style="fill: #006400; stroke: #006400"/>
     <use xlink:href="#m2f27e6eb15" x="268.936358" y="177.796672" style="fill: #006400; stroke: #006400"/>
     <use xlink:href="#m2f27e6eb15" x="183.996018" y="224.473059" style="fill: #006400; stroke: #006400"/>
    </g>
   </g>
   <g id="PathCollection_3">
    <defs>
     <path id="mddd491a2a0" d="M 0 1.5 
C 0.397805 1.5 0.77937 1.341951 1.06066 1.06066 
C 1.341951 0.77937 1.5 0.397805 1.5 0 
C 1.5 -0.397805 1.341951 -0.77937 1.06066 -1.06066 
C 0.77937 -1.341951 0.397805 -1.5 0 -1.5 
C -0.397805 -1.5 -0.77937 -1.341951 -1.06066 -1.06066 
C -1.341951 -0.77937 -1.5 -0.397805 -1.5 0 
C -1.5 0.397805 -1.341951 0.77937 -1.06066 1.06066 
C -0.77937 1.341951 -0.397805 1.5 0 1.5 
z
" style="stroke: #2f4f4f"/>
    </defs>
    <g clip-path="url(#p9b8852f8b5)">
     <use xlink:href="#mddd491a2a0" x="123.654433" y="173.537366" style="fill: #2f4f4f; stroke: #2f4f4f"/>
     <use xlink:href="#mddd491a2a0" x="131.01655" y="194.956438" style="fill: #2f4f4f; stroke: #2f4f4f"/>
     <use xlink:href="#mddd491a2a0" x="67.669711" y="251.647051" style="fill: #2f4f4f; stroke: #2f4f4f"/>
     <use xlink:href="#mddd491a2a0" x="68.926292" y="214.046728" style="fill: #2f4f4f; stroke: #2f4f4f"/>
     <use xlink:href="#mddd491a2a0" x="62.596021" y="230.925315" style="fill: #2f4f4f; stroke: #2f4f4f"/>
     <use xlink:href="#mddd491a2a0" x="54.90426" y="246.431726" style="fill: #2f4f4f; stroke: #2f4f4f"/>
     <use xlink:href="#mddd491a2a0" x="94.892011" y="212.634715" style="fill: #2f4f4f; stroke: #2f4f4f"/>
     <use xlink:href="#mddd491a2a0" x="79.80998" y="194.742191" style="fill: #2f4f4f; stroke: #2f4f4f"/>
     <use xlink:href="#mddd491a2a0" x="61.934309" y="261.216" style="fill: #2f4f4f; stroke: #2f4f4f"/>
     <use xlink:href="#mddd491a2a0" x="79.374602" y="235.754124" style="fill: #2f4f4f; stroke: #2f4f4f"/>
     <use xlink:href="#mddd491a2a0" x="92.417835" y="206.617464" style="fill: #2f4f4f; stroke: #2f4f4f"/>
     <use xlink:href="#mddd491a2a0" x="109.427291" y="196.841397" style="fill: #2f4f4f; stroke: #2f4f4f"/>
     <use xlink:href="#mddd491a2a0" x="64.882762" y="204.478671" style="fill: #2f4f4f; stroke: #2f4f4f"/>
     <use xlink:href="#mddd491a2a0" x="87.379576" y="195.632079" style="fill: #2f4f4f; stroke: #2f4f4f"/>
     <use xlink:href="#mddd491a2a0" x="124.730239" y="165.235581" style="fill: #2f4f4f; stroke: #2f4f4f"/>
    </g>
   </g>
   <g id="PathCollection_4">
    <defs>
     <path id="m421b779d25" d="M 0 1.5 
C 0.397805 1.5 0.77937 1.341951 1.06066 1.06066 
C 1.341951 0.77937 1.5 0.397805 1.5 0 
C 1.5 -0.397805 1.341951 -0.77937 1.06066 -1.06066 
C 0.77937 -1.341951 0.397805 -1.5 0 -1.5 
C -0.397805 -1.5 -0.77937 -1.341951 -1.06066 -1.06066 
C -1.341951 -0.77937 -1.5 -0.397805 -1.5 0 
C -1.5 0.397805 -1.341951 0.77937 -1.06066 1.06066 
C -0.77937 1.341951 -0.397805 1.5 0 1.5 
z
" style="stroke: #00bfff"/>
    </defs>
    <g clip-path="url(#p9b8852f8b5)">
     <use xlink:href="#m421b779d25" x="87.085392" y="173.778031" style="fill: #00bfff; stroke: #00bfff"/>
     <use xlink:href="#m421b779d25" x="111.64678" y="195.768154" style="fill: #00bfff; stroke: #00bfff"/>
     <use xlink:href="#m421b779d25" x="102.295547" y="174.447341" style="fill: #00bfff; stroke: #00bfff"/>
     <use xlink:href="#m421b779d25" x="83.620704" y="165.28336" style="fill: #00bfff; stroke: #00bfff"/>
     <use xlink:href="#m421b779d25" x="93.175914" y="183.947662" style="fill: #00bfff; stroke: #00bfff"/>
     <use xlink:href="#m421b779d25" x="84.961874" y="199.557465" style="fill: #00bfff; stroke: #00bfff"/>
     <use xlink:href="#m421b779d25" x="82.065655" y="184.072741" style="fill: #00bfff; stroke: #00bfff"/>
     <use xlink:href="#m421b779d25" x="104.493342" y="175.469084" style="fill: #00bfff; stroke: #00bfff"/>
     <use xlink:href="#m421b779d25" x="65.494445" y="187.78598" style="fill: #00bfff; stroke: #00bfff"/>
     <use xlink:href="#m421b779d25" x="87.10029" y="168.31869" style="fill: #00bfff; stroke: #00bfff"/>
     <use xlink:href="#m421b779d25" x="110.847149" y="192.595831" style="fill: #00bfff; stroke: #00bfff"/>
     <use xlink:href="#m421b779d25" x="90.934029" y="200.291815" style="fill: #00bfff; stroke: #00bfff"/>
     <use xlink:href="#m421b779d25" x="78.770385" y="193.13026" style="fill: #00bfff; stroke: #00bfff"/>
     <use xlink:href="#m421b779d25" x="102.974809" y="179.524525" style="fill: #00bfff; stroke: #00bfff"/>
     <use xlink:href="#m421b779d25" x="102.483484" y="171.065479" style="fill: #00bfff; stroke: #00bfff"/>
     <use xlink:href="#m421b779d25" x="119.186446" y="140.565219" style="fill: #00bfff; stroke: #00bfff"/>
     <use xlink:href="#m421b779d25" x="117.278568" y="223.948723" style="fill: #00bfff; stroke: #00bfff"/>
     <use xlink:href="#m421b779d25" x="79.953884" y="217.669194" style="fill: #00bfff; stroke: #00bfff"/>
     <use xlink:href="#m421b779d25" x="110.267781" y="184.172634" style="fill: #00bfff; stroke: #00bfff"/>
     <use xlink:href="#m421b779d25" x="102.450724" y="177.905053" style="fill: #00bfff; stroke: #00bfff"/>
     <use xlink:href="#m421b779d25" x="94.019998" y="176.29878" style="fill: #00bfff; stroke: #00bfff"/>
    </g>
   </g>
   <g id="PathCollection_5">
    <defs>
     <path id="m5da6dd4a2b" d="M 0 1.5 
C 0.397805 1.5 0.77937 1.341951 1.06066 1.06066 
C 1.341951 0.77937 1.5 0.397805 1.5 0 
C 1.5 -0.397805 1.341951 -0.77937 1.06066 -1.06066 
C 0.77937 -1.341951 0.397805 -1.5 0 -1.5 
C -0.397805 -1.5 -0.77937 -1.341951 -1.06066 -1.06066 
C -1.341951 -0.77937 -1.5 -0.397805 -1.5 0 
C -1.5 0.397805 -1.341951 0.77937 -1.06066 1.06066 
C -0.77937 1.341951 -0.397805 1.5 0 1.5 
z
" style="stroke: #ffff00"/>
    </defs>
    <g clip-path="url(#p9b8852f8b5)">
     <use xlink:href="#m5da6dd4a2b" x="84.428358" y="106.91841" style="fill: #ffff00; stroke: #ffff00"/>
     <use xlink:href="#m5da6dd4a2b" x="121.481623" y="149.937281" style="fill: #ffff00; stroke: #ffff00"/>
     <use xlink:href="#m5da6dd4a2b" x="63.761544" y="225.808145" style="fill: #ffff00; stroke: #ffff00"/>
     <use xlink:href="#m5da6dd4a2b" x="124.198756" y="204.795127" style="fill: #ffff00; stroke: #ffff00"/>
     <use xlink:href="#m5da6dd4a2b" x="97.053246" y="234.631216" style="fill: #ffff00; stroke: #ffff00"/>
     <use xlink:href="#m5da6dd4a2b" x="103.354894" y="189.060369" style="fill: #ffff00; stroke: #ffff00"/>
     <use xlink:href="#m5da6dd4a2b" x="141.959211" y="185.498374" style="fill: #ffff00; stroke: #ffff00"/>
     <use xlink:href="#m5da6dd4a2b" x="104.431639" y="164.23829" style="fill: #ffff00; stroke: #ffff00"/>
     <use xlink:href="#m5da6dd4a2b" x="120.788188" y="154.289047" style="fill: #ffff00; stroke: #ffff00"/>
     <use xlink:href="#m5da6dd4a2b" x="85.424274" y="199.837293" style="fill: #ffff00; stroke: #ffff00"/>
     <use xlink:href="#m5da6dd4a2b" x="90.890978" y="213.656196" style="fill: #ffff00; stroke: #ffff00"/>
     <use xlink:href="#m5da6dd4a2b" x="82.363706" y="190.236362" style="fill: #ffff00; stroke: #ffff00"/>
    </g>
   </g>
   <g id="PathCollection_6">
    <defs>
     <path id="m6156120a51" d="M 0 1.5 
C 0.397805 1.5 0.77937 1.341951 1.06066 1.06066 
C 1.341951 0.77937 1.5 0.397805 1.5 0 
C 1.5 -0.397805 1.341951 -0.77937 1.06066 -1.06066 
C 0.77937 -1.341951 0.397805 -1.5 0 -1.5 
C -0.397805 -1.5 -0.77937 -1.341951 -1.06066 -1.06066 
C -1.341951 -0.77937 -1.5 -0.397805 -1.5 0 
C -1.5 0.397805 -1.341951 0.77937 -1.06066 1.06066 
C -0.77937 1.341951 -0.397805 1.5 0 1.5 
z
" style="stroke: #00ffff"/>
    </defs>
    <g clip-path="url(#p9b8852f8b5)">
     <use xlink:href="#m6156120a51" x="108.956333" y="191.677677" style="fill: #00ffff; stroke: #00ffff"/>
     <use xlink:href="#m6156120a51" x="90.152987" y="196.935959" style="fill: #00ffff; stroke: #00ffff"/>
     <use xlink:href="#m6156120a51" x="105.91583" y="182.34156" style="fill: #00ffff; stroke: #00ffff"/>
     <use xlink:href="#m6156120a51" x="107.175063" y="210.54099" style="fill: #00ffff; stroke: #00ffff"/>
     <use xlink:href="#m6156120a51" x="112.969591" y="173.762328" style="fill: #00ffff; stroke: #00ffff"/>
     <use xlink:href="#m6156120a51" x="78.593598" y="196.941442" style="fill: #00ffff; stroke: #00ffff"/>
     <use xlink:href="#m6156120a51" x="82.157127" y="220.930743" style="fill: #00ffff; stroke: #00ffff"/>
     <use xlink:href="#m6156120a51" x="102.651813" y="193.340138" style="fill: #00ffff; stroke: #00ffff"/>
     <use xlink:href="#m6156120a51" x="112.503084" y="188.063248" style="fill: #00ffff; stroke: #00ffff"/>
     <use xlink:href="#m6156120a51" x="95.213937" y="187.747308" style="fill: #00ffff; stroke: #00ffff"/>
     <use xlink:href="#m6156120a51" x="117.565475" y="221.640823" style="fill: #00ffff; stroke: #00ffff"/>
     <use xlink:href="#m6156120a51" x="102.451206" y="194.74704" style="fill: #00ffff; stroke: #00ffff"/>
     <use xlink:href="#m6156120a51" x="84.547305" y="203.255808" style="fill: #00ffff; stroke: #00ffff"/>
     <use xlink:href="#m6156120a51" x="99.406461" y="185.828657" style="fill: #00ffff; stroke: #00ffff"/>
     <use xlink:href="#m6156120a51" x="82.392573" y="219.963245" style="fill: #00ffff; stroke: #00ffff"/>
     <use xlink:href="#m6156120a51" x="79.738772" y="223.90382" style="fill: #00ffff; stroke: #00ffff"/>
     <use xlink:href="#m6156120a51" x="84.743696" y="210.884669" style="fill: #00ffff; stroke: #00ffff"/>
    </g>
   </g>
   <g id="PathCollection_7">
    <defs>
     <path id="m4a4844cd1f" d="M 0 1.5 
C 0.397805 1.5 0.77937 1.341951 1.06066 1.06066 
C 1.341951 0.77937 1.5 0.397805 1.5 0 
C 1.5 -0.397805 1.341951 -0.77937 1.06066 -1.06066 
C 0.77937 -1.341951 0.397805 -1.5 0 -1.5 
C -0.397805 -1.5 -0.77937 -1.341951 -1.06066 -1.06066 
C -1.341951 -0.77937 -1.5 -0.397805 -1.5 0 
C -1.5 0.397805 -1.341951 0.77937 -1.06066 1.06066 
C -0.77937 1.341951 -0.397805 1.5 0 1.5 
z
" style="stroke: #0000ff"/>
    </defs>
    <g clip-path="url(#p9b8852f8b5)">
     <use xlink:href="#m4a4844cd1f" x="109.548942" y="191.541157" style="fill: #0000ff; stroke: #0000ff"/>
     <use xlink:href="#m4a4844cd1f" x="113.785801" y="191.39085" style="fill: #0000ff; stroke: #0000ff"/>
     <use xlink:href="#m4a4844cd1f" x="99.110135" y="188.009574" style="fill: #0000ff; stroke: #0000ff"/>
     <use xlink:href="#m4a4844cd1f" x="109.692623" y="201.374804" style="fill: #0000ff; stroke: #0000ff"/>
     <use xlink:href="#m4a4844cd1f" x="88.866751" y="192.516342" style="fill: #0000ff; stroke: #0000ff"/>
     <use xlink:href="#m4a4844cd1f" x="98.486673" y="138.474384" style="fill: #0000ff; stroke: #0000ff"/>
     <use xlink:href="#m4a4844cd1f" x="86.735208" y="164.579584" style="fill: #0000ff; stroke: #0000ff"/>
     <use xlink:href="#m4a4844cd1f" x="119.493869" y="30.820323" style="fill: #0000ff; stroke: #0000ff"/>
     <use xlink:href="#m4a4844cd1f" x="123.667931" y="157.405233" style="fill: #0000ff; stroke: #0000ff"/>
     <use xlink:href="#m4a4844cd1f" x="161.982033" y="19.296" style="fill: #0000ff; stroke: #0000ff"/>
     <use xlink:href="#m4a4844cd1f" x="133.126475" y="77.483337" style="fill: #0000ff; stroke: #0000ff"/>
    </g>
   </g>
   <g id="PathCollection_8">
    <defs>
     <path id="mb46f14254b" d="M 0 1.5 
C 0.397805 1.5 0.77937 1.341951 1.06066 1.06066 
C 1.341951 0.77937 1.5 0.397805 1.5 0 
C 1.5 -0.397805 1.341951 -0.77937 1.06066 -1.06066 
C 0.77937 -1.341951 0.397805 -1.5 0 -1.5 
C -0.397805 -1.5 -0.77937 -1.341951 -1.06066 -1.06066 
C -1.341951 -0.77937 -1.5 -0.397805 -1.5 0 
C -1.5 0.397805 -1.341951 0.77937 -1.06066 1.06066 
C -0.77937 1.341951 -0.397805 1.5 0 1.5 
z
" style="stroke: #dc143c"/>
    </defs>
    <g clip-path="url(#p9b8852f8b5)">
     <use xlink:href="#mb46f14254b" x="131.448607" y="198.298281" style="fill: #dc143c; stroke: #dc143c"/>
     <use xlink:href="#mb46f14254b" x="106.401025" y="214.456103" style="fill: #dc143c; stroke: #dc143c"/>
     <use xlink:href="#mb46f14254b" x="121.462274" y="192.255997" style="fill: #dc143c; stroke: #dc143c"/>
     <use xlink:href="#mb46f14254b" x="162.556576" y="155.524577" style="fill: #dc143c; stroke: #dc143c"/>
     <use xlink:href="#mb46f14254b" x="142.710742" y="215.045913" style="fill: #dc143c; stroke: #dc143c"/>
    </g>
   </g>
   <g id="PathCollection_9">
    <defs>
     <path id="ma73b54324b" d="M 0 1.5 
C 0.397805 1.5 0.77937 1.341951 1.06066 1.06066 
C 1.341951 0.77937 1.5 0.397805 1.5 0 
C 1.5 -0.397805 1.341951 -0.77937 1.06066 -1.06066 
C 0.77937 -1.341951 0.397805 -1.5 0 -1.5 
C -0.397805 -1.5 -0.77937 -1.341951 -1.06066 -1.06066 
C -1.341951 -0.77937 -1.5 -0.397805 -1.5 0 
C -1.5 0.397805 -1.341951 0.77937 -1.06066 1.06066 
C -0.77937 1.341951 -0.397805 1.5 0 1.5 
z
" style="stroke: #ffe4c4"/>
    </defs>
    <g clip-path="url(#p9b8852f8b5)">
     <use xlink:href="#ma73b54324b" x="263.73188" y="154.801863" style="fill: #ffe4c4; stroke: #ffe4c4"/>
     <use xlink:href="#ma73b54324b" x="215.270275" y="212.6735" style="fill: #ffe4c4; stroke: #ffe4c4"/>
     <use xlink:href="#ma73b54324b" x="238.423011" y="171.910013" style="fill: #ffe4c4; stroke: #ffe4c4"/>
     <use xlink:href="#ma73b54324b" x="243.936298" y="177.390589" style="fill: #ffe4c4; stroke: #ffe4c4"/>
     <use xlink:href="#ma73b54324b" x="156.560158" y="139.686641" style="fill: #ffe4c4; stroke: #ffe4c4"/>
     <use xlink:href="#ma73b54324b" x="205.17572" y="97.320841" style="fill: #ffe4c4; stroke: #ffe4c4"/>
     <use xlink:href="#ma73b54324b" x="253.876907" y="192.913218" style="fill: #ffe4c4; stroke: #ffe4c4"/>
     <use xlink:href="#ma73b54324b" x="166.461588" y="165.282481" style="fill: #ffe4c4; stroke: #ffe4c4"/>
     <use xlink:href="#ma73b54324b" x="198.17145" y="205.963548" style="fill: #ffe4c4; stroke: #ffe4c4"/>
     <use xlink:href="#ma73b54324b" x="125.926118" y="155.01835" style="fill: #ffe4c4; stroke: #ffe4c4"/>
    </g>
   </g>
   <g id="PathCollection_10">
    <defs>
     <path id="m6e1354af42" d="M -2.99994 2.99994 
L 3.00006 2.99994 
L 3.00006 -3.00006 
L -2.99994 -3.00006 
z
" style="stroke: #000000"/>
    </defs>
    <g clip-path="url(#p9b8852f8b5)">
     <use xlink:href="#m6e1354af42" x="87.820973" y="162.602084" style="stroke: #000000"/>
     <use xlink:href="#m6e1354af42" x="90.723545" y="159.113405" style="stroke: #000000"/>
     <use xlink:href="#m6e1354af42" x="119.849353" y="149.355012" style="stroke: #000000"/>
     <use xlink:href="#m6e1354af42" x="70.817132" y="170.229236" style="stroke: #000000"/>
     <use xlink:href="#m6e1354af42" x="116.760325" y="184.093615" style="stroke: #000000"/>
     <use xlink:href="#m6e1354af42" x="68.256606" y="181.560797" style="stroke: #000000"/>
     <use xlink:href="#m6e1354af42" x="88.210097" y="166.550327" style="stroke: #000000"/>
     <use xlink:href="#m6e1354af42" x="86.022037" y="162.482289" style="stroke: #000000"/>
     <use xlink:href="#m6e1354af42" x="84.727841" y="184.515203" style="stroke: #000000"/>
     <use xlink:href="#m6e1354af42" x="99.220506" y="159.40998" style="stroke: #000000"/>
     <use xlink:href="#m6e1354af42" x="89.290466" y="171.518809" style="stroke: #000000"/>
     <use xlink:href="#m6e1354af42" x="125.618926" y="166.33043" style="stroke: #000000"/>
     <use xlink:href="#m6e1354af42" x="136.149233" y="180.607304" style="stroke: #000000"/>
     <use xlink:href="#m6e1354af42" x="90.07544" y="122.946847" style="stroke: #000000"/>
     <use xlink:href="#m6e1354af42" x="88.060372" y="164.129251" style="stroke: #000000"/>
     <use xlink:href="#m6e1354af42" x="133.294807" y="122.590632" style="stroke: #000000"/>
     <use xlink:href="#m6e1354af42" x="118.657065" y="191.491063" style="stroke: #000000"/>
     <use xlink:href="#m6e1354af42" x="88.69938" y="133.713043" style="stroke: #000000"/>
     <use xlink:href="#m6e1354af42" x="85.382764" y="145.039854" style="stroke: #000000"/>
     <use xlink:href="#m6e1354af42" x="81.873269" y="191.745607" style="stroke: #000000"/>
     <use xlink:href="#m6e1354af42" x="71.644591" y="219.143562" style="stroke: #000000"/>
     <use xlink:href="#m6e1354af42" x="86.762338" y="212.618429" style="stroke: #000000"/>
     <use xlink:href="#m6e1354af42" x="106.726854" y="159.179965" style="stroke: #000000"/>
     <use xlink:href="#m6e1354af42" x="73.499117" y="177.03428" style="stroke: #000000"/>
     <use xlink:href="#m6e1354af42" x="92.333111" y="200.798281" style="stroke: #000000"/>
     <use xlink:href="#m6e1354af42" x="79.794404" y="191.275801" style="stroke: #000000"/>
     <use xlink:href="#m6e1354af42" x="100.724569" y="178.449832" style="stroke: #000000"/>
     <use xlink:href="#m6e1354af42" x="79.989001" y="174.643761" style="stroke: #000000"/>
     <use xlink:href="#m6e1354af42" x="96.900833" y="168.358213" style="stroke: #000000"/>
     <use xlink:href="#m6e1354af42" x="87.703502" y="194.369726" style="stroke: #000000"/>
     <use xlink:href="#m6e1354af42" x="112.442473" y="127.863866" style="stroke: #000000"/>
     <use xlink:href="#m6e1354af42" x="86.18913" y="225.047225" style="stroke: #000000"/>
     <use xlink:href="#m6e1354af42" x="71.515203" y="152.237542" style="stroke: #000000"/>
     <use xlink:href="#m6e1354af42" x="105.474132" y="155.265998" style="stroke: #000000"/>
     <use xlink:href="#m6e1354af42" x="51.537415" y="166.714797" style="stroke: #000000"/>
     <use xlink:href="#m6e1354af42" x="56.627499" y="197.706656" style="stroke: #000000"/>
     <use xlink:href="#m6e1354af42" x="96.919989" y="161.089616" style="stroke: #000000"/>
     <use xlink:href="#m6e1354af42" x="74.111934" y="165.222751" style="stroke: #000000"/>
     <use xlink:href="#m6e1354af42" x="63.204667" y="202.740443" style="stroke: #000000"/>
     <use xlink:href="#m6e1354af42" x="78.202571" y="183.960006" style="stroke: #000000"/>
     <use xlink:href="#m6e1354af42" x="72.833785" y="177.376401" style="stroke: #000000"/>
     <use xlink:href="#m6e1354af42" x="90.226848" y="137.736083" style="stroke: #000000"/>
     <use xlink:href="#m6e1354af42" x="75.350663" y="168.751131" style="stroke: #000000"/>
     <use xlink:href="#m6e1354af42" x="71.4846" y="205.107102" style="stroke: #000000"/>
     <use xlink:href="#m6e1354af42" x="78.627876" y="167.621114" style="stroke: #000000"/>
     <use xlink:href="#m6e1354af42" x="76.496235" y="153.55411" style="stroke: #000000"/>
     <use xlink:href="#m6e1354af42" x="95.654281" y="171.607354" style="stroke: #000000"/>
     <use xlink:href="#m6e1354af42" x="78.793781" y="240.131366" style="stroke: #000000"/>
     <use xlink:href="#m6e1354af42" x="76.149645" y="180.056561" style="stroke: #000000"/>
     <use xlink:href="#m6e1354af42" x="133.240951" y="211.634971" style="stroke: #000000"/>
     <use xlink:href="#m6e1354af42" x="122.345707" y="140.341163" style="stroke: #000000"/>
     <use xlink:href="#m6e1354af42" x="68.898887" y="200.874162" style="stroke: #000000"/>
     <use xlink:href="#m6e1354af42" x="100.841765" y="153.007163" style="stroke: #000000"/>
     <use xlink:href="#m6e1354af42" x="117.834092" y="169.125679" style="stroke: #000000"/>
     <use xlink:href="#m6e1354af42" x="88.516869" y="134.223074" style="stroke: #000000"/>
     <use xlink:href="#m6e1354af42" x="89.820787" y="231.43978" style="stroke: #000000"/>
     <use xlink:href="#m6e1354af42" x="95.120007" y="169.494592" style="stroke: #000000"/>
     <use xlink:href="#m6e1354af42" x="76.274813" y="150.94377" style="stroke: #000000"/>
     <use xlink:href="#m6e1354af42" x="100.593389" y="183.573714" style="stroke: #000000"/>
     <use xlink:href="#m6e1354af42" x="126.912157" y="125.322735" style="stroke: #000000"/>
     <use xlink:href="#m6e1354af42" x="77.696332" y="211.275466" style="stroke: #000000"/>
     <use xlink:href="#m6e1354af42" x="89.134563" y="143.191628" style="stroke: #000000"/>
     <use xlink:href="#m6e1354af42" x="90.434932" y="181.628399" style="stroke: #000000"/>
     <use xlink:href="#m6e1354af42" x="93.246644" y="171.548276" style="stroke: #000000"/>
    </g>
   </g>
   <g id="PathCollection_11">
    <defs>
     <path id="m95e57d2c42" d="M -3 -0 
L 3 3 
L 3 -3 
z
" style="stroke: #ff8c00"/>
    </defs>
    <g clip-path="url(#p9b8852f8b5)">
     <use xlink:href="#m95e57d2c42" x="65.478846" y="197.945709" style="fill: #ff8c00; stroke: #ff8c00"/>
     <use xlink:href="#m95e57d2c42" x="98.503581" y="184.63403" style="fill: #ff8c00; stroke: #ff8c00"/>
     <use xlink:href="#m95e57d2c42" x="79.160089" y="171.361502" style="fill: #ff8c00; stroke: #ff8c00"/>
     <use xlink:href="#m95e57d2c42" x="81.389771" y="170.743218" style="fill: #ff8c00; stroke: #ff8c00"/>
     <use xlink:href="#m95e57d2c42" x="97.323329" y="201.331493" style="fill: #ff8c00; stroke: #ff8c00"/>
     <use xlink:href="#m95e57d2c42" x="119.160095" y="179.587213" style="fill: #ff8c00; stroke: #ff8c00"/>
     <use xlink:href="#m95e57d2c42" x="106.148609" y="195.21035" style="fill: #ff8c00; stroke: #ff8c00"/>
     <use xlink:href="#m95e57d2c42" x="59.215884" y="217.888408" style="fill: #ff8c00; stroke: #ff8c00"/>
     <use xlink:href="#m95e57d2c42" x="88.007865" y="210.677332" style="fill: #ff8c00; stroke: #ff8c00"/>
     <use xlink:href="#m95e57d2c42" x="109.61654" y="184.242141" style="fill: #ff8c00; stroke: #ff8c00"/>
     <use xlink:href="#m95e57d2c42" x="91.466124" y="181.676492" style="fill: #ff8c00; stroke: #ff8c00"/>
     <use xlink:href="#m95e57d2c42" x="112.327659" y="167.268544" style="fill: #ff8c00; stroke: #ff8c00"/>
     <use xlink:href="#m95e57d2c42" x="57.990503" y="223.289067" style="fill: #ff8c00; stroke: #ff8c00"/>
     <use xlink:href="#m95e57d2c42" x="84.425473" y="213.805291" style="fill: #ff8c00; stroke: #ff8c00"/>
     <use xlink:href="#m95e57d2c42" x="74.025973" y="153.309977" style="fill: #ff8c00; stroke: #ff8c00"/>
     <use xlink:href="#m95e57d2c42" x="102.26783" y="157.965357" style="fill: #ff8c00; stroke: #ff8c00"/>
     <use xlink:href="#m95e57d2c42" x="127.064628" y="154.098357" style="fill: #ff8c00; stroke: #ff8c00"/>
     <use xlink:href="#m95e57d2c42" x="94.0801" y="143.710204" style="fill: #ff8c00; stroke: #ff8c00"/>
     <use xlink:href="#m95e57d2c42" x="95.020229" y="141.484514" style="fill: #ff8c00; stroke: #ff8c00"/>
     <use xlink:href="#m95e57d2c42" x="94.648244" y="141.548494" style="fill: #ff8c00; stroke: #ff8c00"/>
     <use xlink:href="#m95e57d2c42" x="77.258712" y="183.521825" style="fill: #ff8c00; stroke: #ff8c00"/>
     <use xlink:href="#m95e57d2c42" x="77.637966" y="169.68707" style="fill: #ff8c00; stroke: #ff8c00"/>
     <use xlink:href="#m95e57d2c42" x="112.377068" y="166.31507" style="fill: #ff8c00; stroke: #ff8c00"/>
     <use xlink:href="#m95e57d2c42" x="86.792927" y="179.688348" style="fill: #ff8c00; stroke: #ff8c00"/>
     <use xlink:href="#m95e57d2c42" x="57.872193" y="182.9901" style="fill: #ff8c00; stroke: #ff8c00"/>
     <use xlink:href="#m95e57d2c42" x="108.075593" y="155.136427" style="fill: #ff8c00; stroke: #ff8c00"/>
     <use xlink:href="#m95e57d2c42" x="57.990503" y="223.289067" style="fill: #ff8c00; stroke: #ff8c00"/>
     <use xlink:href="#m95e57d2c42" x="94.022748" y="204.305884" style="fill: #ff8c00; stroke: #ff8c00"/>
     <use xlink:href="#m95e57d2c42" x="94.683455" y="198.471792" style="fill: #ff8c00; stroke: #ff8c00"/>
     <use xlink:href="#m95e57d2c42" x="112.42704" y="197.235209" style="fill: #ff8c00; stroke: #ff8c00"/>
     <use xlink:href="#m95e57d2c42" x="115.204337" y="174.4142" style="fill: #ff8c00; stroke: #ff8c00"/>
     <use xlink:href="#m95e57d2c42" x="121.254053" y="197.019244" style="fill: #ff8c00; stroke: #ff8c00"/>
     <use xlink:href="#m95e57d2c42" x="80.560489" y="142.225905" style="fill: #ff8c00; stroke: #ff8c00"/>
     <use xlink:href="#m95e57d2c42" x="110.303098" y="188.993663" style="fill: #ff8c00; stroke: #ff8c00"/>
     <use xlink:href="#m95e57d2c42" x="104.877397" y="154.22166" style="fill: #ff8c00; stroke: #ff8c00"/>
     <use xlink:href="#m95e57d2c42" x="93.830847" y="184.726119" style="fill: #ff8c00; stroke: #ff8c00"/>
     <use xlink:href="#m95e57d2c42" x="74.473609" y="144.553946" style="fill: #ff8c00; stroke: #ff8c00"/>
     <use xlink:href="#m95e57d2c42" x="80.966013" y="185.764084" style="fill: #ff8c00; stroke: #ff8c00"/>
     <use xlink:href="#m95e57d2c42" x="72.519529" y="201.25639" style="fill: #ff8c00; stroke: #ff8c00"/>
     <use xlink:href="#m95e57d2c42" x="79.602012" y="174.654544" style="fill: #ff8c00; stroke: #ff8c00"/>
     <use xlink:href="#m95e57d2c42" x="91.033281" y="201.295381" style="fill: #ff8c00; stroke: #ff8c00"/>
     <use xlink:href="#m95e57d2c42" x="121.254053" y="197.019244" style="fill: #ff8c00; stroke: #ff8c00"/>
     <use xlink:href="#m95e57d2c42" x="99.832433" y="197.959486" style="fill: #ff8c00; stroke: #ff8c00"/>
     <use xlink:href="#m95e57d2c42" x="81.980165" y="184.711326" style="fill: #ff8c00; stroke: #ff8c00"/>
     <use xlink:href="#m95e57d2c42" x="109.923401" y="160.947587" style="fill: #ff8c00; stroke: #ff8c00"/>
     <use xlink:href="#m95e57d2c42" x="82.857122" y="150.43418" style="fill: #ff8c00; stroke: #ff8c00"/>
     <use xlink:href="#m95e57d2c42" x="73.321428" y="202.997975" style="fill: #ff8c00; stroke: #ff8c00"/>
     <use xlink:href="#m95e57d2c42" x="91.138061" y="167.107644" style="fill: #ff8c00; stroke: #ff8c00"/>
     <use xlink:href="#m95e57d2c42" x="68.605268" y="214.09309" style="fill: #ff8c00; stroke: #ff8c00"/>
     <use xlink:href="#m95e57d2c42" x="61.317562" y="220.974582" style="fill: #ff8c00; stroke: #ff8c00"/>
     <use xlink:href="#m95e57d2c42" x="83.498487" y="178.873889" style="fill: #ff8c00; stroke: #ff8c00"/>
     <use xlink:href="#m95e57d2c42" x="100.367275" y="143.039697" style="fill: #ff8c00; stroke: #ff8c00"/>
     <use xlink:href="#m95e57d2c42" x="60.193405" y="178.50328" style="fill: #ff8c00; stroke: #ff8c00"/>
     <use xlink:href="#m95e57d2c42" x="103.651696" y="181.037323" style="fill: #ff8c00; stroke: #ff8c00"/>
     <use xlink:href="#m95e57d2c42" x="89.612375" y="159.831061" style="fill: #ff8c00; stroke: #ff8c00"/>
     <use xlink:href="#m95e57d2c42" x="100.240623" y="186.920775" style="fill: #ff8c00; stroke: #ff8c00"/>
     <use xlink:href="#m95e57d2c42" x="79.909872" y="161.126" style="fill: #ff8c00; stroke: #ff8c00"/>
     <use xlink:href="#m95e57d2c42" x="81.410408" y="98.458397" style="fill: #ff8c00; stroke: #ff8c00"/>
     <use xlink:href="#m95e57d2c42" x="100.7172" y="178.188596" style="fill: #ff8c00; stroke: #ff8c00"/>
     <use xlink:href="#m95e57d2c42" x="69.842872" y="194.156883" style="fill: #ff8c00; stroke: #ff8c00"/>
     <use xlink:href="#m95e57d2c42" x="101.368176" y="217.160968" style="fill: #ff8c00; stroke: #ff8c00"/>
     <use xlink:href="#m95e57d2c42" x="78.089607" y="183.595168" style="fill: #ff8c00; stroke: #ff8c00"/>
     <use xlink:href="#m95e57d2c42" x="89.591488" y="152.37572" style="fill: #ff8c00; stroke: #ff8c00"/>
     <use xlink:href="#m95e57d2c42" x="90.688492" y="206.021151" style="fill: #ff8c00; stroke: #ff8c00"/>
    </g>
   </g>
   <g id="matplotlib.axis_1">
    <g id="xtick_1">
     <g id="line2d_1">
      <defs>
       <path id="m46fbfb3ea2" d="M 0 0 
L 0 3.5 
" style="stroke: #000000; stroke-width: 0.8"/>
      </defs>
      <g>
       <use xlink:href="#m46fbfb3ea2" x="53.876751" y="273.312" style="stroke: #000000; stroke-width: 0.8"/>
      </g>
     </g>
     <g id="text_1">
      <!-- −10 -->
      <g transform="translate(43.324407 287.910437) scale(0.1 -0.1)">
       <defs>
        <path id="DejaVuSans-2212" d="M 678 2272 
L 4684 2272 
L 4684 1741 
L 678 1741 
L 678 2272 
z
" transform="scale(0.015625)"/>
        <path id="DejaVuSans-31" d="M 794 531 
L 1825 531 
L 1825 4091 
L 703 3866 
L 703 4441 
L 1819 4666 
L 2450 4666 
L 2450 531 
L 3481 531 
L 3481 0 
L 794 0 
L 794 531 
z
" transform="scale(0.015625)"/>
        <path id="DejaVuSans-30" d="M 2034 4250 
Q 1547 4250 1301 3770 
Q 1056 3291 1056 2328 
Q 1056 1369 1301 889 
Q 1547 409 2034 409 
Q 2525 409 2770 889 
Q 3016 1369 3016 2328 
Q 3016 3291 2770 3770 
Q 2525 4250 2034 4250 
z
M 2034 4750 
Q 2819 4750 3233 4129 
Q 3647 3509 3647 2328 
Q 3647 1150 3233 529 
Q 2819 -91 2034 -91 
Q 1250 -91 836 529 
Q 422 1150 422 2328 
Q 422 3509 836 4129 
Q 1250 4750 2034 4750 
z
" transform="scale(0.015625)"/>
       </defs>
       <use xlink:href="#DejaVuSans-2212"/>
       <use xlink:href="#DejaVuSans-31" x="83.789062"/>
       <use xlink:href="#DejaVuSans-30" x="147.412109"/>
      </g>
     </g>
    </g>
    <g id="xtick_2">
     <g id="line2d_2">
      <g>
       <use xlink:href="#m46fbfb3ea2" x="114.077994" y="273.312" style="stroke: #000000; stroke-width: 0.8"/>
      </g>
     </g>
     <g id="text_2">
      <!-- 0 -->
      <g transform="translate(110.896744 287.910437) scale(0.1 -0.1)">
       <use xlink:href="#DejaVuSans-30"/>
      </g>
     </g>
    </g>
    <g id="xtick_3">
     <g id="line2d_3">
      <g>
       <use xlink:href="#m46fbfb3ea2" x="174.279237" y="273.312" style="stroke: #000000; stroke-width: 0.8"/>
      </g>
     </g>
     <g id="text_3">
      <!-- 10 -->
      <g transform="translate(167.916737 287.910437) scale(0.1 -0.1)">
       <use xlink:href="#DejaVuSans-31"/>
       <use xlink:href="#DejaVuSans-30" x="63.623047"/>
      </g>
     </g>
    </g>
    <g id="xtick_4">
     <g id="line2d_4">
      <g>
       <use xlink:href="#m46fbfb3ea2" x="234.48048" y="273.312" style="stroke: #000000; stroke-width: 0.8"/>
      </g>
     </g>
     <g id="text_4">
      <!-- 20 -->
      <g transform="translate(228.11798 287.910437) scale(0.1 -0.1)">
       <defs>
        <path id="DejaVuSans-32" d="M 1228 531 
L 3431 531 
L 3431 0 
L 469 0 
L 469 531 
Q 828 903 1448 1529 
Q 2069 2156 2228 2338 
Q 2531 2678 2651 2914 
Q 2772 3150 2772 3378 
Q 2772 3750 2511 3984 
Q 2250 4219 1831 4219 
Q 1534 4219 1204 4116 
Q 875 4013 500 3803 
L 500 4441 
Q 881 4594 1212 4672 
Q 1544 4750 1819 4750 
Q 2544 4750 2975 4387 
Q 3406 4025 3406 3419 
Q 3406 3131 3298 2873 
Q 3191 2616 2906 2266 
Q 2828 2175 2409 1742 
Q 1991 1309 1228 531 
z
" transform="scale(0.015625)"/>
       </defs>
       <use xlink:href="#DejaVuSans-32"/>
       <use xlink:href="#DejaVuSans-30" x="63.623047"/>
      </g>
     </g>
    </g>
    <g id="xtick_5">
     <g id="line2d_5">
      <g>
       <use xlink:href="#m46fbfb3ea2" x="294.681722" y="273.312" style="stroke: #000000; stroke-width: 0.8"/>
      </g>
     </g>
     <g id="text_5">
      <!-- 30 -->
      <g transform="translate(288.319222 287.910437) scale(0.1 -0.1)">
       <defs>
        <path id="DejaVuSans-33" d="M 2597 2516 
Q 3050 2419 3304 2112 
Q 3559 1806 3559 1356 
Q 3559 666 3084 287 
Q 2609 -91 1734 -91 
Q 1441 -91 1130 -33 
Q 819 25 488 141 
L 488 750 
Q 750 597 1062 519 
Q 1375 441 1716 441 
Q 2309 441 2620 675 
Q 2931 909 2931 1356 
Q 2931 1769 2642 2001 
Q 2353 2234 1838 2234 
L 1294 2234 
L 1294 2753 
L 1863 2753 
Q 2328 2753 2575 2939 
Q 2822 3125 2822 3475 
Q 2822 3834 2567 4026 
Q 2313 4219 1838 4219 
Q 1578 4219 1281 4162 
Q 984 4106 628 3988 
L 628 4550 
Q 988 4650 1302 4700 
Q 1616 4750 1894 4750 
Q 2613 4750 3031 4423 
Q 3450 4097 3450 3541 
Q 3450 3153 3228 2886 
Q 3006 2619 2597 2516 
z
" transform="scale(0.015625)"/>
       </defs>
       <use xlink:href="#DejaVuSans-33"/>
       <use xlink:href="#DejaVuSans-30" x="63.623047"/>
      </g>
     </g>
    </g>
    <g id="xtick_6">
     <g id="line2d_6">
      <g>
       <use xlink:href="#m46fbfb3ea2" x="354.882965" y="273.312" style="stroke: #000000; stroke-width: 0.8"/>
      </g>
     </g>
     <g id="text_6">
      <!-- 40 -->
      <g transform="translate(348.520465 287.910437) scale(0.1 -0.1)">
       <defs>
        <path id="DejaVuSans-34" d="M 2419 4116 
L 825 1625 
L 2419 1625 
L 2419 4116 
z
M 2253 4666 
L 3047 4666 
L 3047 1625 
L 3713 1625 
L 3713 1100 
L 3047 1100 
L 3047 0 
L 2419 0 
L 2419 1100 
L 313 1100 
L 313 1709 
L 2253 4666 
z
" transform="scale(0.015625)"/>
       </defs>
       <use xlink:href="#DejaVuSans-34"/>
       <use xlink:href="#DejaVuSans-30" x="63.623047"/>
      </g>
     </g>
    </g>
   </g>
   <g id="matplotlib.axis_2">
    <g id="ytick_1">
     <g id="line2d_7">
      <defs>
       <path id="m4ba325ea6a" d="M 0 0 
L -3.5 0 
" style="stroke: #000000; stroke-width: 0.8"/>
      </defs>
      <g>
       <use xlink:href="#m4ba325ea6a" x="35.304688" y="229.868789" style="stroke: #000000; stroke-width: 0.8"/>
      </g>
     </g>
     <g id="text_7">
      <!-- −10 -->
      <g transform="translate(7.2 233.668008) scale(0.1 -0.1)">
       <use xlink:href="#DejaVuSans-2212"/>
       <use xlink:href="#DejaVuSans-31" x="83.789062"/>
       <use xlink:href="#DejaVuSans-30" x="147.412109"/>
      </g>
     </g>
    </g>
    <g id="ytick_2">
     <g id="line2d_8">
      <g>
       <use xlink:href="#m4ba325ea6a" x="35.304688" y="183.37077" style="stroke: #000000; stroke-width: 0.8"/>
      </g>
     </g>
     <g id="text_8">
      <!-- 0 -->
      <g transform="translate(21.942187 187.169988) scale(0.1 -0.1)">
       <use xlink:href="#DejaVuSans-30"/>
      </g>
     </g>
    </g>
    <g id="ytick_3">
     <g id="line2d_9">
      <g>
       <use xlink:href="#m4ba325ea6a" x="35.304688" y="136.87275" style="stroke: #000000; stroke-width: 0.8"/>
      </g>
     </g>
     <g id="text_9">
      <!-- 10 -->
      <g transform="translate(15.579687 140.671969) scale(0.1 -0.1)">
       <use xlink:href="#DejaVuSans-31"/>
       <use xlink:href="#DejaVuSans-30" x="63.623047"/>
      </g>
     </g>
    </g>
    <g id="ytick_4">
     <g id="line2d_10">
      <g>
       <use xlink:href="#m4ba325ea6a" x="35.304688" y="90.374731" style="stroke: #000000; stroke-width: 0.8"/>
      </g>
     </g>
     <g id="text_10">
      <!-- 20 -->
      <g transform="translate(15.579687 94.17395) scale(0.1 -0.1)">
       <use xlink:href="#DejaVuSans-32"/>
       <use xlink:href="#DejaVuSans-30" x="63.623047"/>
      </g>
     </g>
    </g>
    <g id="ytick_5">
     <g id="line2d_11">
      <g>
       <use xlink:href="#m4ba325ea6a" x="35.304688" y="43.876712" style="stroke: #000000; stroke-width: 0.8"/>
      </g>
     </g>
     <g id="text_11">
      <!-- 30 -->
      <g transform="translate(15.579687 47.675931) scale(0.1 -0.1)">
       <use xlink:href="#DejaVuSans-33"/>
       <use xlink:href="#DejaVuSans-30" x="63.623047"/>
      </g>
     </g>
    </g>
   </g>
   <g id="patch_3">
    <path d="M 35.304688 273.312 
L 35.304688 7.2 
" style="fill: none; stroke: #000000; stroke-width: 0.8; stroke-linejoin: miter; stroke-linecap: square"/>
   </g>
   <g id="patch_4">
    <path d="M 392.424688 273.312 
L 392.424688 7.2 
" style="fill: none; stroke: #000000; stroke-width: 0.8; stroke-linejoin: miter; stroke-linecap: square"/>
   </g>
   <g id="patch_5">
    <path d="M 35.304688 273.312 
L 392.424688 273.312 
" style="fill: none; stroke: #000000; stroke-width: 0.8; stroke-linejoin: miter; stroke-linecap: square"/>
   </g>
   <g id="patch_6">
    <path d="M 35.304688 7.2 
L 392.424688 7.2 
" style="fill: none; stroke: #000000; stroke-width: 0.8; stroke-linejoin: miter; stroke-linecap: square"/>
   </g>
  </g>
 </g>
 <defs>
  <clipPath id="p9b8852f8b5">
   <rect x="35.304688" y="7.2" width="357.12" height="266.112"/>
  </clipPath>
 </defs>
</svg>
