<?xml version="1.0" encoding="utf-8" standalone="no"?>
<!DOCTYPE svg PUBLIC "-//W3C//DTD SVG 1.1//EN"
  "http://www.w3.org/Graphics/SVG/1.1/DTD/svg11.dtd">
<svg xmlns:xlink="http://www.w3.org/1999/xlink" width="400.821812pt" height="297.190125pt" viewBox="0 0 400.821812 297.190125" xmlns="http://www.w3.org/2000/svg" version="1.1">
 <metadata>
  <rdf:RDF xmlns:dc="http://purl.org/dc/elements/1.1/" xmlns:cc="http://creativecommons.org/ns#" xmlns:rdf="http://www.w3.org/1999/02/22-rdf-syntax-ns#">
   <cc:Work>
    <dc:type rdf:resource="http://purl.org/dc/dcmitype/StillImage"/>
    <dc:date>2023-11-11T23:49:17.375140</dc:date>
    <dc:format>image/svg+xml</dc:format>
    <dc:creator>
     <cc:Agent>
      <dc:title>Matplotlib v3.8.0, https://matplotlib.org/</dc:title>
     </cc:Agent>
    </dc:creator>
   </cc:Work>
  </rdf:RDF>
 </metadata>
 <defs>
  <style type="text/css">*{stroke-linejoin: round; stroke-linecap: butt}</style>
 </defs>
 <g id="figure_1">
  <g id="patch_1">
   <path d="M 0 297.190125 
L 400.821812 297.190125 
L 400.821812 0 
L 0 0 
z
" style="fill: #ffffff"/>
  </g>
  <g id="axes_1">
   <g id="patch_2">
    <path d="M 35.304688 273.312 
L 392.424688 273.312 
L 392.424688 7.2 
L 35.304688 7.2 
z
" style="fill: #ffffff"/>
   </g>
   <g id="PathCollection_1">
    <defs>
     <path id="m802c572e33" d="M 0 1.5 
C 0.397805 1.5 0.77937 1.341951 1.06066 1.06066 
C 1.341951 0.77937 1.5 0.397805 1.5 0 
C 1.5 -0.397805 1.341951 -0.77937 1.06066 -1.06066 
C 0.77937 -1.341951 0.397805 -1.5 0 -1.5 
C -0.397805 -1.5 -0.77937 -1.341951 -1.06066 -1.06066 
C -1.341951 -0.77937 -1.5 -0.397805 -1.5 0 
C -1.5 0.397805 -1.341951 0.77937 -1.06066 1.06066 
C -0.77937 1.341951 -0.397805 1.5 0 1.5 
z
" style="stroke: #ff8c00"/>
    </defs>
    <g clip-path="url(#pfb5ad6fbf0)">
     <use xlink:href="#m802c572e33" x="322.812336" y="180.682235" style="fill: #ff8c00; stroke: #ff8c00"/>
     <use xlink:href="#m802c572e33" x="348.170704" y="214.562037" style="fill: #ff8c00; stroke: #ff8c00"/>
     <use xlink:href="#m802c572e33" x="310.628825" y="154.091067" style="fill: #ff8c00; stroke: #ff8c00"/>
     <use xlink:href="#m802c572e33" x="306.302835" y="139.165785" style="fill: #ff8c00; stroke: #ff8c00"/>
     <use xlink:href="#m802c572e33" x="340.369905" y="171.012779" style="fill: #ff8c00; stroke: #ff8c00"/>
     <use xlink:href="#m802c572e33" x="302.020995" y="173.234502" style="fill: #ff8c00; stroke: #ff8c00"/>
     <use xlink:href="#m802c572e33" x="277.606275" y="200.45736" style="fill: #ff8c00; stroke: #ff8c00"/>
     <use xlink:href="#m802c572e33" x="333.316719" y="162.08124" style="fill: #ff8c00; stroke: #ff8c00"/>
     <use xlink:href="#m802c572e33" x="289.988435" y="147.251086" style="fill: #ff8c00; stroke: #ff8c00"/>
     <use xlink:href="#m802c572e33" x="331.723135" y="153.481284" style="fill: #ff8c00; stroke: #ff8c00"/>
     <use xlink:href="#m802c572e33" x="261.723981" y="190.950563" style="fill: #ff8c00; stroke: #ff8c00"/>
     <use xlink:href="#m802c572e33" x="321.090015" y="183.148464" style="fill: #ff8c00; stroke: #ff8c00"/>
     <use xlink:href="#m802c572e33" x="330.929105" y="185.162634" style="fill: #ff8c00; stroke: #ff8c00"/>
    </g>
   </g>
   <g id="PathCollection_2">
    <defs>
     <path id="m7a0185908e" d="M 0 1.5 
C 0.397805 1.5 0.77937 1.341951 1.06066 1.06066 
C 1.341951 0.77937 1.5 0.397805 1.5 0 
C 1.5 -0.397805 1.341951 -0.77937 1.06066 -1.06066 
C 0.77937 -1.341951 0.397805 -1.5 0 -1.5 
C -0.397805 -1.5 -0.77937 -1.341951 -1.06066 -1.06066 
C -1.341951 -0.77937 -1.5 -0.397805 -1.5 0 
C -1.5 0.397805 -1.341951 0.77937 -1.06066 1.06066 
C -0.77937 1.341951 -0.397805 1.5 0 1.5 
z
" style="stroke: #006400"/>
    </defs>
    <g clip-path="url(#pfb5ad6fbf0)">
     <use xlink:href="#m7a0185908e" x="279.265356" y="19.296" style="fill: #006400; stroke: #006400"/>
     <use xlink:href="#m7a0185908e" x="242.725052" y="107.902651" style="fill: #006400; stroke: #006400"/>
     <use xlink:href="#m7a0185908e" x="280.173323" y="80.980864" style="fill: #006400; stroke: #006400"/>
     <use xlink:href="#m7a0185908e" x="275.364948" y="87.784256" style="fill: #006400; stroke: #006400"/>
     <use xlink:href="#m7a0185908e" x="245.025295" y="112.698965" style="fill: #006400; stroke: #006400"/>
     <use xlink:href="#m7a0185908e" x="301.302965" y="54.308928" style="fill: #006400; stroke: #006400"/>
     <use xlink:href="#m7a0185908e" x="284.661305" y="62.805543" style="fill: #006400; stroke: #006400"/>
     <use xlink:href="#m7a0185908e" x="301.090205" y="132.908964" style="fill: #006400; stroke: #006400"/>
     <use xlink:href="#m7a0185908e" x="279.267577" y="110.994803" style="fill: #006400; stroke: #006400"/>
     <use xlink:href="#m7a0185908e" x="283.715607" y="50.757735" style="fill: #006400; stroke: #006400"/>
     <use xlink:href="#m7a0185908e" x="173.068874" y="44.369407" style="fill: #006400; stroke: #006400"/>
     <use xlink:href="#m7a0185908e" x="322.979575" y="68.903037" style="fill: #006400; stroke: #006400"/>
     <use xlink:href="#m7a0185908e" x="283.662404" y="107.597171" style="fill: #006400; stroke: #006400"/>
    </g>
   </g>
   <g id="PathCollection_3">
    <defs>
     <path id="mcaa3242424" d="M 0 1.5 
C 0.397805 1.5 0.77937 1.341951 1.06066 1.06066 
C 1.341951 0.77937 1.5 0.397805 1.5 0 
C 1.5 -0.397805 1.341951 -0.77937 1.06066 -1.06066 
C 0.77937 -1.341951 0.397805 -1.5 0 -1.5 
C -0.397805 -1.5 -0.77937 -1.341951 -1.06066 -1.06066 
C -1.341951 -0.77937 -1.5 -0.397805 -1.5 0 
C -1.5 0.397805 -1.341951 0.77937 -1.06066 1.06066 
C -0.77937 1.341951 -0.397805 1.5 0 1.5 
z
" style="stroke: #2f4f4f"/>
    </defs>
    <g clip-path="url(#pfb5ad6fbf0)">
     <use xlink:href="#mcaa3242424" x="339.159238" y="189.407854" style="fill: #2f4f4f; stroke: #2f4f4f"/>
     <use xlink:href="#mcaa3242424" x="231.048724" y="127.301337" style="fill: #2f4f4f; stroke: #2f4f4f"/>
     <use xlink:href="#mcaa3242424" x="273.180885" y="148.887777" style="fill: #2f4f4f; stroke: #2f4f4f"/>
     <use xlink:href="#mcaa3242424" x="261.731457" y="176.984097" style="fill: #2f4f4f; stroke: #2f4f4f"/>
     <use xlink:href="#mcaa3242424" x="238.613482" y="126.3208" style="fill: #2f4f4f; stroke: #2f4f4f"/>
     <use xlink:href="#mcaa3242424" x="311.711283" y="154.978824" style="fill: #2f4f4f; stroke: #2f4f4f"/>
     <use xlink:href="#mcaa3242424" x="251.853266" y="154.747433" style="fill: #2f4f4f; stroke: #2f4f4f"/>
     <use xlink:href="#mcaa3242424" x="181.722402" y="161.144207" style="fill: #2f4f4f; stroke: #2f4f4f"/>
     <use xlink:href="#mcaa3242424" x="189.754112" y="180.870981" style="fill: #2f4f4f; stroke: #2f4f4f"/>
     <use xlink:href="#mcaa3242424" x="247.589656" y="178.951186" style="fill: #2f4f4f; stroke: #2f4f4f"/>
     <use xlink:href="#mcaa3242424" x="227.724489" y="175.51858" style="fill: #2f4f4f; stroke: #2f4f4f"/>
     <use xlink:href="#mcaa3242424" x="275.984173" y="175.777804" style="fill: #2f4f4f; stroke: #2f4f4f"/>
     <use xlink:href="#mcaa3242424" x="332.181622" y="134.434681" style="fill: #2f4f4f; stroke: #2f4f4f"/>
    </g>
   </g>
   <g id="PathCollection_4">
    <defs>
     <path id="mb96ea84af2" d="M 0 1.5 
C 0.397805 1.5 0.77937 1.341951 1.06066 1.06066 
C 1.341951 0.77937 1.5 0.397805 1.5 0 
C 1.5 -0.397805 1.341951 -0.77937 1.06066 -1.06066 
C 0.77937 -1.341951 0.397805 -1.5 0 -1.5 
C -0.397805 -1.5 -0.77937 -1.341951 -1.06066 -1.06066 
C -1.341951 -0.77937 -1.5 -0.397805 -1.5 0 
C -1.5 0.397805 -1.341951 0.77937 -1.06066 1.06066 
C -0.77937 1.341951 -0.397805 1.5 0 1.5 
z
" style="stroke: #00bfff"/>
    </defs>
    <g clip-path="url(#pfb5ad6fbf0)">
     <use xlink:href="#mb96ea84af2" x="239.920169" y="142.857741" style="fill: #00bfff; stroke: #00bfff"/>
     <use xlink:href="#mb96ea84af2" x="241.488826" y="180.935369" style="fill: #00bfff; stroke: #00bfff"/>
     <use xlink:href="#mb96ea84af2" x="257.992383" y="193.082711" style="fill: #00bfff; stroke: #00bfff"/>
     <use xlink:href="#mb96ea84af2" x="286.036686" y="195.88659" style="fill: #00bfff; stroke: #00bfff"/>
     <use xlink:href="#mb96ea84af2" x="160.343733" y="151.927083" style="fill: #00bfff; stroke: #00bfff"/>
     <use xlink:href="#mb96ea84af2" x="300.018438" y="192.731265" style="fill: #00bfff; stroke: #00bfff"/>
     <use xlink:href="#mb96ea84af2" x="230.979724" y="205.54412" style="fill: #00bfff; stroke: #00bfff"/>
     <use xlink:href="#mb96ea84af2" x="217.854439" y="176.576251" style="fill: #00bfff; stroke: #00bfff"/>
     <use xlink:href="#mb96ea84af2" x="197.199202" y="189.62914" style="fill: #00bfff; stroke: #00bfff"/>
     <use xlink:href="#mb96ea84af2" x="210.969792" y="233.231161" style="fill: #00bfff; stroke: #00bfff"/>
     <use xlink:href="#mb96ea84af2" x="124.277951" y="133.501784" style="fill: #00bfff; stroke: #00bfff"/>
     <use xlink:href="#mb96ea84af2" x="261.040718" y="222.262403" style="fill: #00bfff; stroke: #00bfff"/>
     <use xlink:href="#mb96ea84af2" x="72.041089" y="154.411384" style="fill: #00bfff; stroke: #00bfff"/>
     <use xlink:href="#mb96ea84af2" x="257.99981" y="261.216" style="fill: #00bfff; stroke: #00bfff"/>
     <use xlink:href="#mb96ea84af2" x="233.321766" y="138.880106" style="fill: #00bfff; stroke: #00bfff"/>
    </g>
   </g>
   <g id="PathCollection_5">
    <defs>
     <path id="m64129c3cc4" d="M 0 1.5 
C 0.397805 1.5 0.77937 1.341951 1.06066 1.06066 
C 1.341951 0.77937 1.5 0.397805 1.5 0 
C 1.5 -0.397805 1.341951 -0.77937 1.06066 -1.06066 
C 0.77937 -1.341951 0.397805 -1.5 0 -1.5 
C -0.397805 -1.5 -0.77937 -1.341951 -1.06066 -1.06066 
C -1.341951 -0.77937 -1.5 -0.397805 -1.5 0 
C -1.5 0.397805 -1.341951 0.77937 -1.06066 1.06066 
C -0.77937 1.341951 -0.397805 1.5 0 1.5 
z
" style="stroke: #ffff00"/>
    </defs>
    <g clip-path="url(#pfb5ad6fbf0)">
     <use xlink:href="#m64129c3cc4" x="271.212213" y="182.79335" style="fill: #ffff00; stroke: #ffff00"/>
     <use xlink:href="#m64129c3cc4" x="178.077512" y="167.852954" style="fill: #ffff00; stroke: #ffff00"/>
     <use xlink:href="#m64129c3cc4" x="240.746249" y="182.554435" style="fill: #ffff00; stroke: #ffff00"/>
     <use xlink:href="#m64129c3cc4" x="300.558942" y="209.004306" style="fill: #ffff00; stroke: #ffff00"/>
     <use xlink:href="#m64129c3cc4" x="244.984537" y="129.993241" style="fill: #ffff00; stroke: #ffff00"/>
     <use xlink:href="#m64129c3cc4" x="253.032519" y="173.752216" style="fill: #ffff00; stroke: #ffff00"/>
     <use xlink:href="#m64129c3cc4" x="169.896949" y="161.210122" style="fill: #ffff00; stroke: #ffff00"/>
     <use xlink:href="#m64129c3cc4" x="242.462706" y="170.597233" style="fill: #ffff00; stroke: #ffff00"/>
     <use xlink:href="#m64129c3cc4" x="147.151507" y="165.374054" style="fill: #ffff00; stroke: #ffff00"/>
     <use xlink:href="#m64129c3cc4" x="239.078599" y="164.281766" style="fill: #ffff00; stroke: #ffff00"/>
     <use xlink:href="#m64129c3cc4" x="105.650272" y="144.315716" style="fill: #ffff00; stroke: #ffff00"/>
     <use xlink:href="#m64129c3cc4" x="150.423244" y="140.332791" style="fill: #ffff00; stroke: #ffff00"/>
    </g>
   </g>
   <g id="PathCollection_6">
    <defs>
     <path id="m4f6de9b7ea" d="M 0 1.5 
C 0.397805 1.5 0.77937 1.341951 1.06066 1.06066 
C 1.341951 0.77937 1.5 0.397805 1.5 0 
C 1.5 -0.397805 1.341951 -0.77937 1.06066 -1.06066 
C 0.77937 -1.341951 0.397805 -1.5 0 -1.5 
C -0.397805 -1.5 -0.77937 -1.341951 -1.06066 -1.06066 
C -1.341951 -0.77937 -1.5 -0.397805 -1.5 0 
C -1.5 0.397805 -1.341951 0.77937 -1.06066 1.06066 
C -0.77937 1.341951 -0.397805 1.5 0 1.5 
z
" style="stroke: #00ffff"/>
    </defs>
    <g clip-path="url(#pfb5ad6fbf0)">
     <use xlink:href="#m4f6de9b7ea" x="134.037984" y="191.31576" style="fill: #00ffff; stroke: #00ffff"/>
     <use xlink:href="#m4f6de9b7ea" x="248.614367" y="120.294831" style="fill: #00ffff; stroke: #00ffff"/>
     <use xlink:href="#m4f6de9b7ea" x="235.972789" y="156.855122" style="fill: #00ffff; stroke: #00ffff"/>
     <use xlink:href="#m4f6de9b7ea" x="246.181312" y="123.060586" style="fill: #00ffff; stroke: #00ffff"/>
     <use xlink:href="#m4f6de9b7ea" x="208.706927" y="233.126061" style="fill: #00ffff; stroke: #00ffff"/>
     <use xlink:href="#m4f6de9b7ea" x="233.189398" y="96.443321" style="fill: #00ffff; stroke: #00ffff"/>
     <use xlink:href="#m4f6de9b7ea" x="202.099341" y="81.71341" style="fill: #00ffff; stroke: #00ffff"/>
     <use xlink:href="#m4f6de9b7ea" x="291.839727" y="210.686803" style="fill: #00ffff; stroke: #00ffff"/>
     <use xlink:href="#m4f6de9b7ea" x="224.439053" y="108.100448" style="fill: #00ffff; stroke: #00ffff"/>
    </g>
   </g>
   <g id="PathCollection_7">
    <defs>
     <path id="me077a9a226" d="M 0 1.5 
C 0.397805 1.5 0.77937 1.341951 1.06066 1.06066 
C 1.341951 0.77937 1.5 0.397805 1.5 0 
C 1.5 -0.397805 1.341951 -0.77937 1.06066 -1.06066 
C 0.77937 -1.341951 0.397805 -1.5 0 -1.5 
C -0.397805 -1.5 -0.77937 -1.341951 -1.06066 -1.06066 
C -1.341951 -0.77937 -1.5 -0.397805 -1.5 0 
C -1.5 0.397805 -1.341951 0.77937 -1.06066 1.06066 
C -0.77937 1.341951 -0.397805 1.5 0 1.5 
z
" style="stroke: #0000ff"/>
    </defs>
    <g clip-path="url(#pfb5ad6fbf0)">
     <use xlink:href="#me077a9a226" x="148.548784" y="204.834026" style="fill: #0000ff; stroke: #0000ff"/>
     <use xlink:href="#me077a9a226" x="229.591737" y="184.3933" style="fill: #0000ff; stroke: #0000ff"/>
     <use xlink:href="#me077a9a226" x="235.457289" y="194.123153" style="fill: #0000ff; stroke: #0000ff"/>
     <use xlink:href="#me077a9a226" x="176.079047" y="113.719211" style="fill: #0000ff; stroke: #0000ff"/>
     <use xlink:href="#me077a9a226" x="257.827154" y="207.386384" style="fill: #0000ff; stroke: #0000ff"/>
     <use xlink:href="#me077a9a226" x="254.30952" y="110.163703" style="fill: #0000ff; stroke: #0000ff"/>
     <use xlink:href="#me077a9a226" x="231.743876" y="182.384497" style="fill: #0000ff; stroke: #0000ff"/>
     <use xlink:href="#me077a9a226" x="259.824375" y="168.998942" style="fill: #0000ff; stroke: #0000ff"/>
     <use xlink:href="#me077a9a226" x="227.130999" y="199.097715" style="fill: #0000ff; stroke: #0000ff"/>
     <use xlink:href="#me077a9a226" x="224.088387" y="143.164186" style="fill: #0000ff; stroke: #0000ff"/>
     <use xlink:href="#me077a9a226" x="274.355343" y="164.893312" style="fill: #0000ff; stroke: #0000ff"/>
     <use xlink:href="#me077a9a226" x="261.040553" y="144.743868" style="fill: #0000ff; stroke: #0000ff"/>
     <use xlink:href="#me077a9a226" x="191.619055" y="207.059424" style="fill: #0000ff; stroke: #0000ff"/>
     <use xlink:href="#me077a9a226" x="240.488483" y="156.180378" style="fill: #0000ff; stroke: #0000ff"/>
     <use xlink:href="#me077a9a226" x="234.094869" y="136.016341" style="fill: #0000ff; stroke: #0000ff"/>
     <use xlink:href="#me077a9a226" x="250.887015" y="142.417426" style="fill: #0000ff; stroke: #0000ff"/>
     <use xlink:href="#me077a9a226" x="226.758807" y="195.806899" style="fill: #0000ff; stroke: #0000ff"/>
     <use xlink:href="#me077a9a226" x="225.791147" y="247.155974" style="fill: #0000ff; stroke: #0000ff"/>
     <use xlink:href="#me077a9a226" x="220.400425" y="123.907834" style="fill: #0000ff; stroke: #0000ff"/>
     <use xlink:href="#me077a9a226" x="153.74586" y="167.837374" style="fill: #0000ff; stroke: #0000ff"/>
     <use xlink:href="#me077a9a226" x="228.32912" y="157.002834" style="fill: #0000ff; stroke: #0000ff"/>
    </g>
   </g>
   <g id="PathCollection_8">
    <defs>
     <path id="mff61b760f4" d="M 0 1.5 
C 0.397805 1.5 0.77937 1.341951 1.06066 1.06066 
C 1.341951 0.77937 1.5 0.397805 1.5 0 
C 1.5 -0.397805 1.341951 -0.77937 1.06066 -1.06066 
C 0.77937 -1.341951 0.397805 -1.5 0 -1.5 
C -0.397805 -1.5 -0.77937 -1.341951 -1.06066 -1.06066 
C -1.341951 -0.77937 -1.5 -0.397805 -1.5 0 
C -1.5 0.397805 -1.341951 0.77937 -1.06066 1.06066 
C -0.77937 1.341951 -0.397805 1.5 0 1.5 
z
" style="stroke: #dc143c"/>
    </defs>
    <g clip-path="url(#pfb5ad6fbf0)">
     <use xlink:href="#mff61b760f4" x="320.687686" y="163.431072" style="fill: #dc143c; stroke: #dc143c"/>
     <use xlink:href="#mff61b760f4" x="277.269891" y="147.69358" style="fill: #dc143c; stroke: #dc143c"/>
     <use xlink:href="#mff61b760f4" x="339.3724" y="150.824369" style="fill: #dc143c; stroke: #dc143c"/>
     <use xlink:href="#mff61b760f4" x="324.273575" y="133.746463" style="fill: #dc143c; stroke: #dc143c"/>
     <use xlink:href="#mff61b760f4" x="248.818629" y="75.606138" style="fill: #dc143c; stroke: #dc143c"/>
     <use xlink:href="#mff61b760f4" x="342.585007" y="178.776781" style="fill: #dc143c; stroke: #dc143c"/>
     <use xlink:href="#mff61b760f4" x="266.829648" y="159.508409" style="fill: #dc143c; stroke: #dc143c"/>
     <use xlink:href="#mff61b760f4" x="304.789745" y="148.860227" style="fill: #dc143c; stroke: #dc143c"/>
     <use xlink:href="#mff61b760f4" x="269.30856" y="145.311932" style="fill: #dc143c; stroke: #dc143c"/>
     <use xlink:href="#mff61b760f4" x="270.410335" y="115.237971" style="fill: #dc143c; stroke: #dc143c"/>
     <use xlink:href="#mff61b760f4" x="356.976546" y="152.854898" style="fill: #dc143c; stroke: #dc143c"/>
     <use xlink:href="#mff61b760f4" x="273.043717" y="121.92892" style="fill: #dc143c; stroke: #dc143c"/>
     <use xlink:href="#mff61b760f4" x="365.919489" y="119.262893" style="fill: #dc143c; stroke: #dc143c"/>
     <use xlink:href="#mff61b760f4" x="358.079508" y="172.745673" style="fill: #dc143c; stroke: #dc143c"/>
     <use xlink:href="#mff61b760f4" x="310.908801" y="96.819749" style="fill: #dc143c; stroke: #dc143c"/>
     <use xlink:href="#mff61b760f4" x="376.19196" y="188.00636" style="fill: #dc143c; stroke: #dc143c"/>
     <use xlink:href="#mff61b760f4" x="255.816418" y="149.267332" style="fill: #dc143c; stroke: #dc143c"/>
     <use xlink:href="#mff61b760f4" x="318.411287" y="156.432017" style="fill: #dc143c; stroke: #dc143c"/>
     <use xlink:href="#mff61b760f4" x="320.308556" y="85.773915" style="fill: #dc143c; stroke: #dc143c"/>
     <use xlink:href="#mff61b760f4" x="370.895533" y="158.555301" style="fill: #dc143c; stroke: #dc143c"/>
     <use xlink:href="#mff61b760f4" x="292.860959" y="101.347886" style="fill: #dc143c; stroke: #dc143c"/>
    </g>
   </g>
   <g id="PathCollection_9">
    <defs>
     <path id="m8886be5ffc" d="M 0 1.5 
C 0.397805 1.5 0.77937 1.341951 1.06066 1.06066 
C 1.341951 0.77937 1.5 0.397805 1.5 0 
C 1.5 -0.397805 1.341951 -0.77937 1.06066 -1.06066 
C 0.77937 -1.341951 0.397805 -1.5 0 -1.5 
C -0.397805 -1.5 -0.77937 -1.341951 -1.06066 -1.06066 
C -1.341951 -0.77937 -1.5 -0.397805 -1.5 0 
C -1.5 0.397805 -1.341951 0.77937 -1.06066 1.06066 
C -0.77937 1.341951 -0.397805 1.5 0 1.5 
z
" style="stroke: #ffe4c4"/>
    </defs>
    <g clip-path="url(#pfb5ad6fbf0)">
     <use xlink:href="#m8886be5ffc" x="313.092698" y="163.578678" style="fill: #ffe4c4; stroke: #ffe4c4"/>
     <use xlink:href="#m8886be5ffc" x="287.380666" y="131.680204" style="fill: #ffe4c4; stroke: #ffe4c4"/>
     <use xlink:href="#m8886be5ffc" x="292.36184" y="153.19469" style="fill: #ffe4c4; stroke: #ffe4c4"/>
     <use xlink:href="#m8886be5ffc" x="243.244912" y="89.630804" style="fill: #ffe4c4; stroke: #ffe4c4"/>
     <use xlink:href="#m8886be5ffc" x="227.22441" y="91.292275" style="fill: #ffe4c4; stroke: #ffe4c4"/>
     <use xlink:href="#m8886be5ffc" x="240.339322" y="120.460266" style="fill: #ffe4c4; stroke: #ffe4c4"/>
     <use xlink:href="#m8886be5ffc" x="289.947946" y="181.223313" style="fill: #ffe4c4; stroke: #ffe4c4"/>
     <use xlink:href="#m8886be5ffc" x="186.884834" y="174.521393" style="fill: #ffe4c4; stroke: #ffe4c4"/>
     <use xlink:href="#m8886be5ffc" x="270.910695" y="166.491212" style="fill: #ffe4c4; stroke: #ffe4c4"/>
     <use xlink:href="#m8886be5ffc" x="207.708416" y="140.013881" style="fill: #ffe4c4; stroke: #ffe4c4"/>
     <use xlink:href="#m8886be5ffc" x="214.981372" y="177.619986" style="fill: #ffe4c4; stroke: #ffe4c4"/>
    </g>
   </g>
   <g id="PathCollection_10">
    <defs>
     <path id="maabe333ecd" d="M -2.99994 2.99994 
L 3.00006 2.99994 
L 3.00006 -3.00006 
L -2.99994 -3.00006 
z
" style="stroke: #000000"/>
    </defs>
    <g clip-path="url(#pfb5ad6fbf0)">
     <use xlink:href="#maabe333ecd" x="123.455422" y="148.008642" style="stroke: #000000"/>
     <use xlink:href="#maabe333ecd" x="100.53326" y="119.744941" style="stroke: #000000"/>
     <use xlink:href="#maabe333ecd" x="51.537415" y="165.248166" style="stroke: #000000"/>
     <use xlink:href="#maabe333ecd" x="174.560721" y="195.739597" style="stroke: #000000"/>
     <use xlink:href="#maabe333ecd" x="113.361793" y="137.002199" style="stroke: #000000"/>
     <use xlink:href="#maabe333ecd" x="125.921157" y="96.75439" style="stroke: #000000"/>
     <use xlink:href="#maabe333ecd" x="163.688965" y="199.700616" style="stroke: #000000"/>
     <use xlink:href="#maabe333ecd" x="175.807919" y="178.616548" style="stroke: #000000"/>
     <use xlink:href="#maabe333ecd" x="148.032057" y="172.00918" style="stroke: #000000"/>
     <use xlink:href="#maabe333ecd" x="111.406655" y="168.837312" style="stroke: #000000"/>
     <use xlink:href="#maabe333ecd" x="161.232216" y="137.031321" style="stroke: #000000"/>
     <use xlink:href="#maabe333ecd" x="105.106393" y="131.298765" style="stroke: #000000"/>
     <use xlink:href="#maabe333ecd" x="111.236605" y="107.530729" style="stroke: #000000"/>
     <use xlink:href="#maabe333ecd" x="250.311922" y="231.734832" style="stroke: #000000"/>
     <use xlink:href="#maabe333ecd" x="155.35985" y="114.567332" style="stroke: #000000"/>
     <use xlink:href="#maabe333ecd" x="119.229964" y="143.504913" style="stroke: #000000"/>
     <use xlink:href="#maabe333ecd" x="153.443581" y="180.03692" style="stroke: #000000"/>
     <use xlink:href="#maabe333ecd" x="118.536217" y="177.056948" style="stroke: #000000"/>
     <use xlink:href="#maabe333ecd" x="145.311541" y="158.746812" style="stroke: #000000"/>
     <use xlink:href="#maabe333ecd" x="232.445379" y="171.25111" style="stroke: #000000"/>
     <use xlink:href="#maabe333ecd" x="203.311075" y="174.207906" style="stroke: #000000"/>
     <use xlink:href="#maabe333ecd" x="197.344655" y="225.279368" style="stroke: #000000"/>
     <use xlink:href="#maabe333ecd" x="70.050011" y="122.884911" style="stroke: #000000"/>
     <use xlink:href="#maabe333ecd" x="76.73003" y="139.096817" style="stroke: #000000"/>
     <use xlink:href="#maabe333ecd" x="185.486809" y="175.508244" style="stroke: #000000"/>
     <use xlink:href="#maabe333ecd" x="195.233287" y="174.76883" style="stroke: #000000"/>
     <use xlink:href="#maabe333ecd" x="182.114631" y="110.722813" style="stroke: #000000"/>
     <use xlink:href="#maabe333ecd" x="144.432822" y="121.078766" style="stroke: #000000"/>
     <use xlink:href="#maabe333ecd" x="222.024255" y="226.959813" style="stroke: #000000"/>
     <use xlink:href="#maabe333ecd" x="150.48027" y="144.442209" style="stroke: #000000"/>
     <use xlink:href="#maabe333ecd" x="88.651921" y="114.125893" style="stroke: #000000"/>
     <use xlink:href="#maabe333ecd" x="203.007057" y="182.872344" style="stroke: #000000"/>
     <use xlink:href="#maabe333ecd" x="206.030536" y="218.539628" style="stroke: #000000"/>
     <use xlink:href="#maabe333ecd" x="107.003376" y="153.61826" style="stroke: #000000"/>
     <use xlink:href="#maabe333ecd" x="118.185533" y="217.467325" style="stroke: #000000"/>
     <use xlink:href="#maabe333ecd" x="174.870714" y="118.918486" style="stroke: #000000"/>
     <use xlink:href="#maabe333ecd" x="159.011039" y="147.429754" style="stroke: #000000"/>
     <use xlink:href="#maabe333ecd" x="114.77666" y="146.55777" style="stroke: #000000"/>
     <use xlink:href="#maabe333ecd" x="149.544524" y="176.918846" style="stroke: #000000"/>
     <use xlink:href="#maabe333ecd" x="152.847371" y="136.07788" style="stroke: #000000"/>
     <use xlink:href="#maabe333ecd" x="285.869877" y="157.62445" style="stroke: #000000"/>
     <use xlink:href="#maabe333ecd" x="135.403726" y="176.382893" style="stroke: #000000"/>
     <use xlink:href="#maabe333ecd" x="166.717815" y="156.727635" style="stroke: #000000"/>
     <use xlink:href="#maabe333ecd" x="140.713388" y="153.855573" style="stroke: #000000"/>
     <use xlink:href="#maabe333ecd" x="152.97862" y="186.567661" style="stroke: #000000"/>
     <use xlink:href="#maabe333ecd" x="172.690505" y="122.510545" style="stroke: #000000"/>
     <use xlink:href="#maabe333ecd" x="124.66599" y="114.088054" style="stroke: #000000"/>
     <use xlink:href="#maabe333ecd" x="69.263395" y="134.652388" style="stroke: #000000"/>
     <use xlink:href="#maabe333ecd" x="80.088063" y="153.809603" style="stroke: #000000"/>
     <use xlink:href="#maabe333ecd" x="70.123342" y="153.701947" style="stroke: #000000"/>
     <use xlink:href="#maabe333ecd" x="258.818261" y="184.620593" style="stroke: #000000"/>
     <use xlink:href="#maabe333ecd" x="101.065849" y="170.654812" style="stroke: #000000"/>
     <use xlink:href="#maabe333ecd" x="85.733455" y="140.418816" style="stroke: #000000"/>
     <use xlink:href="#maabe333ecd" x="122.077471" y="118.748388" style="stroke: #000000"/>
     <use xlink:href="#maabe333ecd" x="118.536217" y="177.056948" style="stroke: #000000"/>
     <use xlink:href="#maabe333ecd" x="84.887887" y="160.338588" style="stroke: #000000"/>
     <use xlink:href="#maabe333ecd" x="94.564091" y="136.690937" style="stroke: #000000"/>
     <use xlink:href="#maabe333ecd" x="114.12915" y="146.552635" style="stroke: #000000"/>
     <use xlink:href="#maabe333ecd" x="135.192337" y="139.09968" style="stroke: #000000"/>
     <use xlink:href="#maabe333ecd" x="160.786193" y="211.911314" style="stroke: #000000"/>
     <use xlink:href="#maabe333ecd" x="237.321949" y="169.326358" style="stroke: #000000"/>
     <use xlink:href="#maabe333ecd" x="105.525591" y="186.627984" style="stroke: #000000"/>
     <use xlink:href="#maabe333ecd" x="88.411369" y="123.722363" style="stroke: #000000"/>
     <use xlink:href="#maabe333ecd" x="204.269759" y="76.502044" style="stroke: #000000"/>
    </g>
   </g>
   <g id="PathCollection_11">
    <defs>
     <path id="m4792dff8eb" d="M -3 -0 
L 3 3 
L 3 -3 
z
" style="stroke: #ff8c00"/>
    </defs>
    <g clip-path="url(#pfb5ad6fbf0)">
     <use xlink:href="#m4792dff8eb" x="141.673465" y="93.233642" style="fill: #ff8c00; stroke: #ff8c00"/>
     <use xlink:href="#m4792dff8eb" x="133.08224" y="113.971611" style="fill: #ff8c00; stroke: #ff8c00"/>
     <use xlink:href="#m4792dff8eb" x="103.989615" y="185.290974" style="fill: #ff8c00; stroke: #ff8c00"/>
     <use xlink:href="#m4792dff8eb" x="119.474187" y="91.080771" style="fill: #ff8c00; stroke: #ff8c00"/>
     <use xlink:href="#m4792dff8eb" x="161.613087" y="137.397695" style="fill: #ff8c00; stroke: #ff8c00"/>
     <use xlink:href="#m4792dff8eb" x="122.161216" y="106.355573" style="fill: #ff8c00; stroke: #ff8c00"/>
     <use xlink:href="#m4792dff8eb" x="165.707309" y="207.533204" style="fill: #ff8c00; stroke: #ff8c00"/>
     <use xlink:href="#m4792dff8eb" x="144.140925" y="191.653257" style="fill: #ff8c00; stroke: #ff8c00"/>
     <use xlink:href="#m4792dff8eb" x="104.134828" y="166.2992" style="fill: #ff8c00; stroke: #ff8c00"/>
     <use xlink:href="#m4792dff8eb" x="211.000599" y="189.248927" style="fill: #ff8c00; stroke: #ff8c00"/>
     <use xlink:href="#m4792dff8eb" x="96.428294" y="179.91713" style="fill: #ff8c00; stroke: #ff8c00"/>
     <use xlink:href="#m4792dff8eb" x="156.775447" y="201.908106" style="fill: #ff8c00; stroke: #ff8c00"/>
     <use xlink:href="#m4792dff8eb" x="113.537207" y="180.21846" style="fill: #ff8c00; stroke: #ff8c00"/>
     <use xlink:href="#m4792dff8eb" x="128.090053" y="161.894429" style="fill: #ff8c00; stroke: #ff8c00"/>
     <use xlink:href="#m4792dff8eb" x="157.481828" y="166.063624" style="fill: #ff8c00; stroke: #ff8c00"/>
     <use xlink:href="#m4792dff8eb" x="131.113761" y="135.870196" style="fill: #ff8c00; stroke: #ff8c00"/>
     <use xlink:href="#m4792dff8eb" x="113.760764" y="168.383009" style="fill: #ff8c00; stroke: #ff8c00"/>
     <use xlink:href="#m4792dff8eb" x="105.013086" y="185.244769" style="fill: #ff8c00; stroke: #ff8c00"/>
     <use xlink:href="#m4792dff8eb" x="83.722921" y="165.153311" style="fill: #ff8c00; stroke: #ff8c00"/>
     <use xlink:href="#m4792dff8eb" x="123.243262" y="156.846625" style="fill: #ff8c00; stroke: #ff8c00"/>
     <use xlink:href="#m4792dff8eb" x="122.312042" y="156.101784" style="fill: #ff8c00; stroke: #ff8c00"/>
     <use xlink:href="#m4792dff8eb" x="129.974241" y="174.330396" style="fill: #ff8c00; stroke: #ff8c00"/>
     <use xlink:href="#m4792dff8eb" x="143.619125" y="100.241523" style="fill: #ff8c00; stroke: #ff8c00"/>
     <use xlink:href="#m4792dff8eb" x="179.176648" y="140.099954" style="fill: #ff8c00; stroke: #ff8c00"/>
     <use xlink:href="#m4792dff8eb" x="155.452294" y="120.444315" style="fill: #ff8c00; stroke: #ff8c00"/>
     <use xlink:href="#m4792dff8eb" x="94.649886" y="117.699338" style="fill: #ff8c00; stroke: #ff8c00"/>
     <use xlink:href="#m4792dff8eb" x="138.115064" y="189.835341" style="fill: #ff8c00; stroke: #ff8c00"/>
     <use xlink:href="#m4792dff8eb" x="113.400366" y="178.472405" style="fill: #ff8c00; stroke: #ff8c00"/>
     <use xlink:href="#m4792dff8eb" x="188.030831" y="105.513424" style="fill: #ff8c00; stroke: #ff8c00"/>
     <use xlink:href="#m4792dff8eb" x="123.594133" y="166.893566" style="fill: #ff8c00; stroke: #ff8c00"/>
     <use xlink:href="#m4792dff8eb" x="95.37062" y="154.540005" style="fill: #ff8c00; stroke: #ff8c00"/>
     <use xlink:href="#m4792dff8eb" x="116.894031" y="139.467" style="fill: #ff8c00; stroke: #ff8c00"/>
     <use xlink:href="#m4792dff8eb" x="153.266381" y="105.38259" style="fill: #ff8c00; stroke: #ff8c00"/>
     <use xlink:href="#m4792dff8eb" x="173.479221" y="156.346654" style="fill: #ff8c00; stroke: #ff8c00"/>
     <use xlink:href="#m4792dff8eb" x="131.033656" y="167.723793" style="fill: #ff8c00; stroke: #ff8c00"/>
     <use xlink:href="#m4792dff8eb" x="157.963282" y="139.124854" style="fill: #ff8c00; stroke: #ff8c00"/>
     <use xlink:href="#m4792dff8eb" x="156.611593" y="177.250409" style="fill: #ff8c00; stroke: #ff8c00"/>
     <use xlink:href="#m4792dff8eb" x="120.197384" y="142.979368" style="fill: #ff8c00; stroke: #ff8c00"/>
     <use xlink:href="#m4792dff8eb" x="134.465823" y="169.504346" style="fill: #ff8c00; stroke: #ff8c00"/>
     <use xlink:href="#m4792dff8eb" x="163.197223" y="225.296113" style="fill: #ff8c00; stroke: #ff8c00"/>
     <use xlink:href="#m4792dff8eb" x="139.28753" y="171.864056" style="fill: #ff8c00; stroke: #ff8c00"/>
     <use xlink:href="#m4792dff8eb" x="156.194772" y="188.544206" style="fill: #ff8c00; stroke: #ff8c00"/>
     <use xlink:href="#m4792dff8eb" x="213.280177" y="222.909412" style="fill: #ff8c00; stroke: #ff8c00"/>
     <use xlink:href="#m4792dff8eb" x="108.629427" y="125.693359" style="fill: #ff8c00; stroke: #ff8c00"/>
     <use xlink:href="#m4792dff8eb" x="128.862616" y="126.976197" style="fill: #ff8c00; stroke: #ff8c00"/>
     <use xlink:href="#m4792dff8eb" x="108.742343" y="151.586004" style="fill: #ff8c00; stroke: #ff8c00"/>
     <use xlink:href="#m4792dff8eb" x="170.480937" y="197.127688" style="fill: #ff8c00; stroke: #ff8c00"/>
     <use xlink:href="#m4792dff8eb" x="128.862616" y="126.976197" style="fill: #ff8c00; stroke: #ff8c00"/>
     <use xlink:href="#m4792dff8eb" x="153.113791" y="137.405358" style="fill: #ff8c00; stroke: #ff8c00"/>
     <use xlink:href="#m4792dff8eb" x="156.645017" y="170.175178" style="fill: #ff8c00; stroke: #ff8c00"/>
     <use xlink:href="#m4792dff8eb" x="148.454742" y="178.756273" style="fill: #ff8c00; stroke: #ff8c00"/>
     <use xlink:href="#m4792dff8eb" x="153.867757" y="215.079006" style="fill: #ff8c00; stroke: #ff8c00"/>
     <use xlink:href="#m4792dff8eb" x="136.374334" y="131.975518" style="fill: #ff8c00; stroke: #ff8c00"/>
     <use xlink:href="#m4792dff8eb" x="169.9521" y="169.171688" style="fill: #ff8c00; stroke: #ff8c00"/>
     <use xlink:href="#m4792dff8eb" x="152.14116" y="205.561536" style="fill: #ff8c00; stroke: #ff8c00"/>
     <use xlink:href="#m4792dff8eb" x="103.056444" y="156.081067" style="fill: #ff8c00; stroke: #ff8c00"/>
     <use xlink:href="#m4792dff8eb" x="164.974409" y="165.094082" style="fill: #ff8c00; stroke: #ff8c00"/>
     <use xlink:href="#m4792dff8eb" x="158.489397" y="186.465345" style="fill: #ff8c00; stroke: #ff8c00"/>
     <use xlink:href="#m4792dff8eb" x="118.945834" y="163.657377" style="fill: #ff8c00; stroke: #ff8c00"/>
     <use xlink:href="#m4792dff8eb" x="92.086984" y="174.796473" style="fill: #ff8c00; stroke: #ff8c00"/>
     <use xlink:href="#m4792dff8eb" x="78.43841" y="103.297789" style="fill: #ff8c00; stroke: #ff8c00"/>
     <use xlink:href="#m4792dff8eb" x="148.993415" y="205.600068" style="fill: #ff8c00; stroke: #ff8c00"/>
     <use xlink:href="#m4792dff8eb" x="193.642518" y="149.848819" style="fill: #ff8c00; stroke: #ff8c00"/>
     <use xlink:href="#m4792dff8eb" x="185.178079" y="156.698918" style="fill: #ff8c00; stroke: #ff8c00"/>
    </g>
   </g>
   <g id="matplotlib.axis_1">
    <g id="xtick_1">
     <g id="line2d_1">
      <defs>
       <path id="md851149f51" d="M 0 0 
L 0 3.5 
" style="stroke: #000000; stroke-width: 0.8"/>
      </defs>
      <g>
       <use xlink:href="#md851149f51" x="58.654271" y="273.312" style="stroke: #000000; stroke-width: 0.8"/>
      </g>
     </g>
     <g id="text_1">
      <!-- −15 -->
      <g transform="translate(48.101927 287.910437) scale(0.1 -0.1)">
       <defs>
        <path id="DejaVuSans-2212" d="M 678 2272 
L 4684 2272 
L 4684 1741 
L 678 1741 
L 678 2272 
z
" transform="scale(0.015625)"/>
        <path id="DejaVuSans-31" d="M 794 531 
L 1825 531 
L 1825 4091 
L 703 3866 
L 703 4441 
L 1819 4666 
L 2450 4666 
L 2450 531 
L 3481 531 
L 3481 0 
L 794 0 
L 794 531 
z
" transform="scale(0.015625)"/>
        <path id="DejaVuSans-35" d="M 691 4666 
L 3169 4666 
L 3169 4134 
L 1269 4134 
L 1269 2991 
Q 1406 3038 1543 3061 
Q 1681 3084 1819 3084 
Q 2600 3084 3056 2656 
Q 3513 2228 3513 1497 
Q 3513 744 3044 326 
Q 2575 -91 1722 -91 
Q 1428 -91 1123 -41 
Q 819 9 494 109 
L 494 744 
Q 775 591 1075 516 
Q 1375 441 1709 441 
Q 2250 441 2565 725 
Q 2881 1009 2881 1497 
Q 2881 1984 2565 2268 
Q 2250 2553 1709 2553 
Q 1456 2553 1204 2497 
Q 953 2441 691 2322 
L 691 4666 
z
" transform="scale(0.015625)"/>
       </defs>
       <use xlink:href="#DejaVuSans-2212"/>
       <use xlink:href="#DejaVuSans-31" x="83.789062"/>
       <use xlink:href="#DejaVuSans-35" x="147.412109"/>
      </g>
     </g>
    </g>
    <g id="xtick_2">
     <g id="line2d_2">
      <g>
       <use xlink:href="#md851149f51" x="105.597848" y="273.312" style="stroke: #000000; stroke-width: 0.8"/>
      </g>
     </g>
     <g id="text_2">
      <!-- −10 -->
      <g transform="translate(95.045504 287.910437) scale(0.1 -0.1)">
       <defs>
        <path id="DejaVuSans-30" d="M 2034 4250 
Q 1547 4250 1301 3770 
Q 1056 3291 1056 2328 
Q 1056 1369 1301 889 
Q 1547 409 2034 409 
Q 2525 409 2770 889 
Q 3016 1369 3016 2328 
Q 3016 3291 2770 3770 
Q 2525 4250 2034 4250 
z
M 2034 4750 
Q 2819 4750 3233 4129 
Q 3647 3509 3647 2328 
Q 3647 1150 3233 529 
Q 2819 -91 2034 -91 
Q 1250 -91 836 529 
Q 422 1150 422 2328 
Q 422 3509 836 4129 
Q 1250 4750 2034 4750 
z
" transform="scale(0.015625)"/>
       </defs>
       <use xlink:href="#DejaVuSans-2212"/>
       <use xlink:href="#DejaVuSans-31" x="83.789062"/>
       <use xlink:href="#DejaVuSans-30" x="147.412109"/>
      </g>
     </g>
    </g>
    <g id="xtick_3">
     <g id="line2d_3">
      <g>
       <use xlink:href="#md851149f51" x="152.541425" y="273.312" style="stroke: #000000; stroke-width: 0.8"/>
      </g>
     </g>
     <g id="text_3">
      <!-- −5 -->
      <g transform="translate(145.170331 287.910437) scale(0.1 -0.1)">
       <use xlink:href="#DejaVuSans-2212"/>
       <use xlink:href="#DejaVuSans-35" x="83.789062"/>
      </g>
     </g>
    </g>
    <g id="xtick_4">
     <g id="line2d_4">
      <g>
       <use xlink:href="#md851149f51" x="199.485003" y="273.312" style="stroke: #000000; stroke-width: 0.8"/>
      </g>
     </g>
     <g id="text_4">
      <!-- 0 -->
      <g transform="translate(196.303753 287.910437) scale(0.1 -0.1)">
       <use xlink:href="#DejaVuSans-30"/>
      </g>
     </g>
    </g>
    <g id="xtick_5">
     <g id="line2d_5">
      <g>
       <use xlink:href="#md851149f51" x="246.42858" y="273.312" style="stroke: #000000; stroke-width: 0.8"/>
      </g>
     </g>
     <g id="text_5">
      <!-- 5 -->
      <g transform="translate(243.24733 287.910437) scale(0.1 -0.1)">
       <use xlink:href="#DejaVuSans-35"/>
      </g>
     </g>
    </g>
    <g id="xtick_6">
     <g id="line2d_6">
      <g>
       <use xlink:href="#md851149f51" x="293.372157" y="273.312" style="stroke: #000000; stroke-width: 0.8"/>
      </g>
     </g>
     <g id="text_6">
      <!-- 10 -->
      <g transform="translate(287.009657 287.910437) scale(0.1 -0.1)">
       <use xlink:href="#DejaVuSans-31"/>
       <use xlink:href="#DejaVuSans-30" x="63.623047"/>
      </g>
     </g>
    </g>
    <g id="xtick_7">
     <g id="line2d_7">
      <g>
       <use xlink:href="#md851149f51" x="340.315735" y="273.312" style="stroke: #000000; stroke-width: 0.8"/>
      </g>
     </g>
     <g id="text_7">
      <!-- 15 -->
      <g transform="translate(333.953235 287.910437) scale(0.1 -0.1)">
       <use xlink:href="#DejaVuSans-31"/>
       <use xlink:href="#DejaVuSans-35" x="63.623047"/>
      </g>
     </g>
    </g>
    <g id="xtick_8">
     <g id="line2d_8">
      <g>
       <use xlink:href="#md851149f51" x="387.259312" y="273.312" style="stroke: #000000; stroke-width: 0.8"/>
      </g>
     </g>
     <g id="text_8">
      <!-- 20 -->
      <g transform="translate(380.896812 287.910437) scale(0.1 -0.1)">
       <defs>
        <path id="DejaVuSans-32" d="M 1228 531 
L 3431 531 
L 3431 0 
L 469 0 
L 469 531 
Q 828 903 1448 1529 
Q 2069 2156 2228 2338 
Q 2531 2678 2651 2914 
Q 2772 3150 2772 3378 
Q 2772 3750 2511 3984 
Q 2250 4219 1831 4219 
Q 1534 4219 1204 4116 
Q 875 4013 500 3803 
L 500 4441 
Q 881 4594 1212 4672 
Q 1544 4750 1819 4750 
Q 2544 4750 2975 4387 
Q 3406 4025 3406 3419 
Q 3406 3131 3298 2873 
Q 3191 2616 2906 2266 
Q 2828 2175 2409 1742 
Q 1991 1309 1228 531 
z
" transform="scale(0.015625)"/>
       </defs>
       <use xlink:href="#DejaVuSans-32"/>
       <use xlink:href="#DejaVuSans-30" x="63.623047"/>
      </g>
     </g>
    </g>
   </g>
   <g id="matplotlib.axis_2">
    <g id="ytick_1">
     <g id="line2d_9">
      <defs>
       <path id="mbe9803de31" d="M 0 0 
L -3.5 0 
" style="stroke: #000000; stroke-width: 0.8"/>
      </defs>
      <g>
       <use xlink:href="#mbe9803de31" x="35.304688" y="253.939013" style="stroke: #000000; stroke-width: 0.8"/>
      </g>
     </g>
     <g id="text_9">
      <!-- −15 -->
      <g transform="translate(7.2 257.738232) scale(0.1 -0.1)">
       <use xlink:href="#DejaVuSans-2212"/>
       <use xlink:href="#DejaVuSans-31" x="83.789062"/>
       <use xlink:href="#DejaVuSans-35" x="147.412109"/>
      </g>
     </g>
    </g>
    <g id="ytick_2">
     <g id="line2d_10">
      <g>
       <use xlink:href="#mbe9803de31" x="35.304688" y="221.034177" style="stroke: #000000; stroke-width: 0.8"/>
      </g>
     </g>
     <g id="text_10">
      <!-- −10 -->
      <g transform="translate(7.2 224.833395) scale(0.1 -0.1)">
       <use xlink:href="#DejaVuSans-2212"/>
       <use xlink:href="#DejaVuSans-31" x="83.789062"/>
       <use xlink:href="#DejaVuSans-30" x="147.412109"/>
      </g>
     </g>
    </g>
    <g id="ytick_3">
     <g id="line2d_11">
      <g>
       <use xlink:href="#mbe9803de31" x="35.304688" y="188.12934" style="stroke: #000000; stroke-width: 0.8"/>
      </g>
     </g>
     <g id="text_11">
      <!-- −5 -->
      <g transform="translate(13.5625 191.928559) scale(0.1 -0.1)">
       <use xlink:href="#DejaVuSans-2212"/>
       <use xlink:href="#DejaVuSans-35" x="83.789062"/>
      </g>
     </g>
    </g>
    <g id="ytick_4">
     <g id="line2d_12">
      <g>
       <use xlink:href="#mbe9803de31" x="35.304688" y="155.224504" style="stroke: #000000; stroke-width: 0.8"/>
      </g>
     </g>
     <g id="text_12">
      <!-- 0 -->
      <g transform="translate(21.942187 159.023722) scale(0.1 -0.1)">
       <use xlink:href="#DejaVuSans-30"/>
      </g>
     </g>
    </g>
    <g id="ytick_5">
     <g id="line2d_13">
      <g>
       <use xlink:href="#mbe9803de31" x="35.304688" y="122.319667" style="stroke: #000000; stroke-width: 0.8"/>
      </g>
     </g>
     <g id="text_13">
      <!-- 5 -->
      <g transform="translate(21.942187 126.118886) scale(0.1 -0.1)">
       <use xlink:href="#DejaVuSans-35"/>
      </g>
     </g>
    </g>
    <g id="ytick_6">
     <g id="line2d_14">
      <g>
       <use xlink:href="#mbe9803de31" x="35.304688" y="89.41483" style="stroke: #000000; stroke-width: 0.8"/>
      </g>
     </g>
     <g id="text_14">
      <!-- 10 -->
      <g transform="translate(15.579687 93.214049) scale(0.1 -0.1)">
       <use xlink:href="#DejaVuSans-31"/>
       <use xlink:href="#DejaVuSans-30" x="63.623047"/>
      </g>
     </g>
    </g>
    <g id="ytick_7">
     <g id="line2d_15">
      <g>
       <use xlink:href="#mbe9803de31" x="35.304688" y="56.509994" style="stroke: #000000; stroke-width: 0.8"/>
      </g>
     </g>
     <g id="text_15">
      <!-- 15 -->
      <g transform="translate(15.579687 60.309213) scale(0.1 -0.1)">
       <use xlink:href="#DejaVuSans-31"/>
       <use xlink:href="#DejaVuSans-35" x="63.623047"/>
      </g>
     </g>
    </g>
    <g id="ytick_8">
     <g id="line2d_16">
      <g>
       <use xlink:href="#mbe9803de31" x="35.304688" y="23.605157" style="stroke: #000000; stroke-width: 0.8"/>
      </g>
     </g>
     <g id="text_16">
      <!-- 20 -->
      <g transform="translate(15.579687 27.404376) scale(0.1 -0.1)">
       <use xlink:href="#DejaVuSans-32"/>
       <use xlink:href="#DejaVuSans-30" x="63.623047"/>
      </g>
     </g>
    </g>
   </g>
   <g id="patch_3">
    <path d="M 35.304688 273.312 
L 35.304688 7.2 
" style="fill: none; stroke: #000000; stroke-width: 0.8; stroke-linejoin: miter; stroke-linecap: square"/>
   </g>
   <g id="patch_4">
    <path d="M 392.424688 273.312 
L 392.424688 7.2 
" style="fill: none; stroke: #000000; stroke-width: 0.8; stroke-linejoin: miter; stroke-linecap: square"/>
   </g>
   <g id="patch_5">
    <path d="M 35.304688 273.312 
L 392.424688 273.312 
" style="fill: none; stroke: #000000; stroke-width: 0.8; stroke-linejoin: miter; stroke-linecap: square"/>
   </g>
   <g id="patch_6">
    <path d="M 35.304688 7.2 
L 392.424688 7.2 
" style="fill: none; stroke: #000000; stroke-width: 0.8; stroke-linejoin: miter; stroke-linecap: square"/>
   </g>
  </g>
 </g>
 <defs>
  <clipPath id="pfb5ad6fbf0">
   <rect x="35.304688" y="7.2" width="357.12" height="266.112"/>
  </clipPath>
 </defs>
</svg>
