<?xml version="1.0" encoding="utf-8" standalone="no"?>
<!DOCTYPE svg PUBLIC "-//W3C//DTD SVG 1.1//EN"
  "http://www.w3.org/Graphics/SVG/1.1/DTD/svg11.dtd">
<svg xmlns:xlink="http://www.w3.org/1999/xlink" width="400.910474pt" height="297.190125pt" viewBox="0 0 400.910474 297.190125" xmlns="http://www.w3.org/2000/svg" version="1.1">
 <metadata>
  <rdf:RDF xmlns:dc="http://purl.org/dc/elements/1.1/" xmlns:cc="http://creativecommons.org/ns#" xmlns:rdf="http://www.w3.org/1999/02/22-rdf-syntax-ns#">
   <cc:Work>
    <dc:type rdf:resource="http://purl.org/dc/dcmitype/StillImage"/>
    <dc:date>2023-11-13T05:12:48.649363</dc:date>
    <dc:format>image/svg+xml</dc:format>
    <dc:creator>
     <cc:Agent>
      <dc:title>Matplotlib v3.8.0, https://matplotlib.org/</dc:title>
     </cc:Agent>
    </dc:creator>
   </cc:Work>
  </rdf:RDF>
 </metadata>
 <defs>
  <style type="text/css">*{stroke-linejoin: round; stroke-linecap: butt}</style>
 </defs>
 <g id="figure_1">
  <g id="patch_1">
   <path d="M 0 297.190125 
L 400.910474 297.190125 
L 400.910474 0 
L 0 0 
z
" style="fill: #ffffff"/>
  </g>
  <g id="axes_1">
   <g id="patch_2">
    <path d="M 35.304688 273.312 
L 392.424688 273.312 
L 392.424688 7.2 
L 35.304688 7.2 
z
" style="fill: #ffffff"/>
   </g>
   <g id="PathCollection_1">
    <defs>
     <path id="ma64a6fc5c5" d="M 0 1.5 
C 0.397805 1.5 0.77937 1.341951 1.06066 1.06066 
C 1.341951 0.77937 1.5 0.397805 1.5 0 
C 1.5 -0.397805 1.341951 -0.77937 1.06066 -1.06066 
C 0.77937 -1.341951 0.397805 -1.5 0 -1.5 
C -0.397805 -1.5 -0.77937 -1.341951 -1.06066 -1.06066 
C -1.341951 -0.77937 -1.5 -0.397805 -1.5 0 
C -1.5 0.397805 -1.341951 0.77937 -1.06066 1.06066 
C -0.77937 1.341951 -0.397805 1.5 0 1.5 
z
" style="stroke: #ff8c00"/>
    </defs>
    <g clip-path="url(#pc8f7bbac54)">
     <use xlink:href="#ma64a6fc5c5" x="228.445982" y="220.216743" style="fill: #ff8c00; stroke: #ff8c00"/>
     <use xlink:href="#ma64a6fc5c5" x="190.272905" y="195.367719" style="fill: #ff8c00; stroke: #ff8c00"/>
     <use xlink:href="#ma64a6fc5c5" x="183.832636" y="205.981504" style="fill: #ff8c00; stroke: #ff8c00"/>
     <use xlink:href="#ma64a6fc5c5" x="207.705681" y="196.299718" style="fill: #ff8c00; stroke: #ff8c00"/>
     <use xlink:href="#ma64a6fc5c5" x="113.866413" y="155.984309" style="fill: #ff8c00; stroke: #ff8c00"/>
     <use xlink:href="#ma64a6fc5c5" x="136.104219" y="171.897828" style="fill: #ff8c00; stroke: #ff8c00"/>
     <use xlink:href="#ma64a6fc5c5" x="189.471721" y="197.583557" style="fill: #ff8c00; stroke: #ff8c00"/>
     <use xlink:href="#ma64a6fc5c5" x="199.123252" y="221.038404" style="fill: #ff8c00; stroke: #ff8c00"/>
     <use xlink:href="#ma64a6fc5c5" x="121.884244" y="177.135882" style="fill: #ff8c00; stroke: #ff8c00"/>
     <use xlink:href="#ma64a6fc5c5" x="218.220631" y="221.838845" style="fill: #ff8c00; stroke: #ff8c00"/>
     <use xlink:href="#ma64a6fc5c5" x="193.684997" y="255.252672" style="fill: #ff8c00; stroke: #ff8c00"/>
     <use xlink:href="#ma64a6fc5c5" x="214.688913" y="177.185841" style="fill: #ff8c00; stroke: #ff8c00"/>
     <use xlink:href="#ma64a6fc5c5" x="188.433011" y="216.406625" style="fill: #ff8c00; stroke: #ff8c00"/>
     <use xlink:href="#ma64a6fc5c5" x="194.794507" y="161.390403" style="fill: #ff8c00; stroke: #ff8c00"/>
     <use xlink:href="#ma64a6fc5c5" x="250.074975" y="222.296853" style="fill: #ff8c00; stroke: #ff8c00"/>
    </g>
   </g>
   <g id="PathCollection_2">
    <defs>
     <path id="mb103b7da77" d="M 0 1.5 
C 0.397805 1.5 0.77937 1.341951 1.06066 1.06066 
C 1.341951 0.77937 1.5 0.397805 1.5 0 
C 1.5 -0.397805 1.341951 -0.77937 1.06066 -1.06066 
C 0.77937 -1.341951 0.397805 -1.5 0 -1.5 
C -0.397805 -1.5 -0.77937 -1.341951 -1.06066 -1.06066 
C -1.341951 -0.77937 -1.5 -0.397805 -1.5 0 
C -1.5 0.397805 -1.341951 0.77937 -1.06066 1.06066 
C -0.77937 1.341951 -0.397805 1.5 0 1.5 
z
" style="stroke: #006400"/>
    </defs>
    <g clip-path="url(#pc8f7bbac54)">
     <use xlink:href="#mb103b7da77" x="376.19196" y="221.293029" style="fill: #006400; stroke: #006400"/>
     <use xlink:href="#mb103b7da77" x="244.613315" y="195.2527" style="fill: #006400; stroke: #006400"/>
     <use xlink:href="#mb103b7da77" x="152.703479" y="175.124047" style="fill: #006400; stroke: #006400"/>
     <use xlink:href="#mb103b7da77" x="225.616971" y="202.508153" style="fill: #006400; stroke: #006400"/>
     <use xlink:href="#mb103b7da77" x="206.45611" y="215.271958" style="fill: #006400; stroke: #006400"/>
     <use xlink:href="#mb103b7da77" x="203.610405" y="224.432159" style="fill: #006400; stroke: #006400"/>
     <use xlink:href="#mb103b7da77" x="220.092665" y="238.577849" style="fill: #006400; stroke: #006400"/>
     <use xlink:href="#mb103b7da77" x="302.602696" y="218.133422" style="fill: #006400; stroke: #006400"/>
     <use xlink:href="#mb103b7da77" x="180.57414" y="206.085474" style="fill: #006400; stroke: #006400"/>
     <use xlink:href="#mb103b7da77" x="362.986704" y="212.535431" style="fill: #006400; stroke: #006400"/>
     <use xlink:href="#mb103b7da77" x="133.936213" y="239.322382" style="fill: #006400; stroke: #006400"/>
     <use xlink:href="#mb103b7da77" x="224.612013" y="220.372035" style="fill: #006400; stroke: #006400"/>
     <use xlink:href="#mb103b7da77" x="227.118939" y="244.586532" style="fill: #006400; stroke: #006400"/>
     <use xlink:href="#mb103b7da77" x="161.300708" y="197.119862" style="fill: #006400; stroke: #006400"/>
    </g>
   </g>
   <g id="PathCollection_3">
    <defs>
     <path id="m753b3a84e8" d="M 0 1.5 
C 0.397805 1.5 0.77937 1.341951 1.06066 1.06066 
C 1.341951 0.77937 1.5 0.397805 1.5 0 
C 1.5 -0.397805 1.341951 -0.77937 1.06066 -1.06066 
C 0.77937 -1.341951 0.397805 -1.5 0 -1.5 
C -0.397805 -1.5 -0.77937 -1.341951 -1.06066 -1.06066 
C -1.341951 -0.77937 -1.5 -0.397805 -1.5 0 
C -1.5 0.397805 -1.341951 0.77937 -1.06066 1.06066 
C -0.77937 1.341951 -0.397805 1.5 0 1.5 
z
" style="stroke: #2f4f4f"/>
    </defs>
    <g clip-path="url(#pc8f7bbac54)">
     <use xlink:href="#m753b3a84e8" x="78.799292" y="192.932883" style="fill: #2f4f4f; stroke: #2f4f4f"/>
     <use xlink:href="#m753b3a84e8" x="112.931122" y="197.360378" style="fill: #2f4f4f; stroke: #2f4f4f"/>
     <use xlink:href="#m753b3a84e8" x="84.254516" y="195.981973" style="fill: #2f4f4f; stroke: #2f4f4f"/>
     <use xlink:href="#m753b3a84e8" x="120.211333" y="203.508691" style="fill: #2f4f4f; stroke: #2f4f4f"/>
     <use xlink:href="#m753b3a84e8" x="160.408074" y="102.604138" style="fill: #2f4f4f; stroke: #2f4f4f"/>
     <use xlink:href="#m753b3a84e8" x="180.464775" y="183.253151" style="fill: #2f4f4f; stroke: #2f4f4f"/>
     <use xlink:href="#m753b3a84e8" x="92.529633" y="218.47643" style="fill: #2f4f4f; stroke: #2f4f4f"/>
     <use xlink:href="#m753b3a84e8" x="151.536336" y="135.002792" style="fill: #2f4f4f; stroke: #2f4f4f"/>
     <use xlink:href="#m753b3a84e8" x="123.695968" y="170.894985" style="fill: #2f4f4f; stroke: #2f4f4f"/>
     <use xlink:href="#m753b3a84e8" x="158.972503" y="155.404776" style="fill: #2f4f4f; stroke: #2f4f4f"/>
     <use xlink:href="#m753b3a84e8" x="72.31878" y="196.408006" style="fill: #2f4f4f; stroke: #2f4f4f"/>
    </g>
   </g>
   <g id="PathCollection_4">
    <defs>
     <path id="m42f957113b" d="M 0 1.5 
C 0.397805 1.5 0.77937 1.341951 1.06066 1.06066 
C 1.341951 0.77937 1.5 0.397805 1.5 0 
C 1.5 -0.397805 1.341951 -0.77937 1.06066 -1.06066 
C 0.77937 -1.341951 0.397805 -1.5 0 -1.5 
C -0.397805 -1.5 -0.77937 -1.341951 -1.06066 -1.06066 
C -1.341951 -0.77937 -1.5 -0.397805 -1.5 0 
C -1.5 0.397805 -1.341951 0.77937 -1.06066 1.06066 
C -0.77937 1.341951 -0.397805 1.5 0 1.5 
z
" style="stroke: #00bfff"/>
    </defs>
    <g clip-path="url(#pc8f7bbac54)">
     <use xlink:href="#m42f957113b" x="142.191065" y="150.008481" style="fill: #00bfff; stroke: #00bfff"/>
     <use xlink:href="#m42f957113b" x="134.635607" y="168.969631" style="fill: #00bfff; stroke: #00bfff"/>
     <use xlink:href="#m42f957113b" x="125.699501" y="150.124392" style="fill: #00bfff; stroke: #00bfff"/>
     <use xlink:href="#m42f957113b" x="161.006165" y="199.130442" style="fill: #00bfff; stroke: #00bfff"/>
     <use xlink:href="#m42f957113b" x="111.160182" y="201.149214" style="fill: #00bfff; stroke: #00bfff"/>
     <use xlink:href="#m42f957113b" x="140.46726" y="81.53879" style="fill: #00bfff; stroke: #00bfff"/>
     <use xlink:href="#m42f957113b" x="96.622821" y="198.439769" style="fill: #00bfff; stroke: #00bfff"/>
     <use xlink:href="#m42f957113b" x="114.250832" y="167.203541" style="fill: #00bfff; stroke: #00bfff"/>
     <use xlink:href="#m42f957113b" x="164.4472" y="191.961169" style="fill: #00bfff; stroke: #00bfff"/>
     <use xlink:href="#m42f957113b" x="191.088223" y="205.105625" style="fill: #00bfff; stroke: #00bfff"/>
     <use xlink:href="#m42f957113b" x="135.427768" y="221.342702" style="fill: #00bfff; stroke: #00bfff"/>
     <use xlink:href="#m42f957113b" x="234.347656" y="105.5229" style="fill: #00bfff; stroke: #00bfff"/>
     <use xlink:href="#m42f957113b" x="115.39154" y="192.423452" style="fill: #00bfff; stroke: #00bfff"/>
     <use xlink:href="#m42f957113b" x="100.799692" y="190.484724" style="fill: #00bfff; stroke: #00bfff"/>
     <use xlink:href="#m42f957113b" x="146.880578" y="82.443794" style="fill: #00bfff; stroke: #00bfff"/>
     <use xlink:href="#m42f957113b" x="103.009537" y="194.302741" style="fill: #00bfff; stroke: #00bfff"/>
     <use xlink:href="#m42f957113b" x="97.404387" y="206.945543" style="fill: #00bfff; stroke: #00bfff"/>
    </g>
   </g>
   <g id="PathCollection_5">
    <defs>
     <path id="m9458d0a57b" d="M 0 1.5 
C 0.397805 1.5 0.77937 1.341951 1.06066 1.06066 
C 1.341951 0.77937 1.5 0.397805 1.5 0 
C 1.5 -0.397805 1.341951 -0.77937 1.06066 -1.06066 
C 0.77937 -1.341951 0.397805 -1.5 0 -1.5 
C -0.397805 -1.5 -0.77937 -1.341951 -1.06066 -1.06066 
C -1.341951 -0.77937 -1.5 -0.397805 -1.5 0 
C -1.5 0.397805 -1.341951 0.77937 -1.06066 1.06066 
C -0.77937 1.341951 -0.397805 1.5 0 1.5 
z
" style="stroke: #ffff00"/>
    </defs>
    <g clip-path="url(#pc8f7bbac54)">
     <use xlink:href="#m9458d0a57b" x="150.807577" y="200.841556" style="fill: #ffff00; stroke: #ffff00"/>
     <use xlink:href="#m9458d0a57b" x="94.918814" y="188.768774" style="fill: #ffff00; stroke: #ffff00"/>
     <use xlink:href="#m9458d0a57b" x="76.894898" y="209.06643" style="fill: #ffff00; stroke: #ffff00"/>
     <use xlink:href="#m9458d0a57b" x="61.763852" y="212.374097" style="fill: #ffff00; stroke: #ffff00"/>
     <use xlink:href="#m9458d0a57b" x="154.636393" y="171.989958" style="fill: #ffff00; stroke: #ffff00"/>
     <use xlink:href="#m9458d0a57b" x="64.561495" y="198.285847" style="fill: #ffff00; stroke: #ffff00"/>
     <use xlink:href="#m9458d0a57b" x="100.407204" y="202.922496" style="fill: #ffff00; stroke: #ffff00"/>
     <use xlink:href="#m9458d0a57b" x="78.965548" y="195.299599" style="fill: #ffff00; stroke: #ffff00"/>
     <use xlink:href="#m9458d0a57b" x="94.488556" y="192.680463" style="fill: #ffff00; stroke: #ffff00"/>
     <use xlink:href="#m9458d0a57b" x="108.550636" y="174.928913" style="fill: #ffff00; stroke: #ffff00"/>
     <use xlink:href="#m9458d0a57b" x="100.030021" y="202.027405" style="fill: #ffff00; stroke: #ffff00"/>
     <use xlink:href="#m9458d0a57b" x="87.260053" y="210.794474" style="fill: #ffff00; stroke: #ffff00"/>
     <use xlink:href="#m9458d0a57b" x="80.365639" y="184.316706" style="fill: #ffff00; stroke: #ffff00"/>
     <use xlink:href="#m9458d0a57b" x="109.817705" y="193.642518" style="fill: #ffff00; stroke: #ffff00"/>
     <use xlink:href="#m9458d0a57b" x="88.454707" y="178.623717" style="fill: #ffff00; stroke: #ffff00"/>
     <use xlink:href="#m9458d0a57b" x="68.64451" y="208.567771" style="fill: #ffff00; stroke: #ffff00"/>
    </g>
   </g>
   <g id="PathCollection_6">
    <defs>
     <path id="mf779625c4e" d="M 0 1.5 
C 0.397805 1.5 0.77937 1.341951 1.06066 1.06066 
C 1.341951 0.77937 1.5 0.397805 1.5 0 
C 1.5 -0.397805 1.341951 -0.77937 1.06066 -1.06066 
C 0.77937 -1.341951 0.397805 -1.5 0 -1.5 
C -0.397805 -1.5 -0.77937 -1.341951 -1.06066 -1.06066 
C -1.341951 -0.77937 -1.5 -0.397805 -1.5 0 
C -1.5 0.397805 -1.341951 0.77937 -1.06066 1.06066 
C -0.77937 1.341951 -0.397805 1.5 0 1.5 
z
" style="stroke: #00ffff"/>
    </defs>
    <g clip-path="url(#pc8f7bbac54)">
     <use xlink:href="#mf779625c4e" x="112.055413" y="196.351185" style="fill: #00ffff; stroke: #00ffff"/>
     <use xlink:href="#mf779625c4e" x="123.75487" y="184.396704" style="fill: #00ffff; stroke: #00ffff"/>
     <use xlink:href="#mf779625c4e" x="84.509853" y="201.988576" style="fill: #00ffff; stroke: #00ffff"/>
     <use xlink:href="#mf779625c4e" x="143.452799" y="196.511004" style="fill: #00ffff; stroke: #00ffff"/>
     <use xlink:href="#mf779625c4e" x="129.626206" y="229.475904" style="fill: #00ffff; stroke: #00ffff"/>
     <use xlink:href="#mf779625c4e" x="150.544803" y="160.258631" style="fill: #00ffff; stroke: #00ffff"/>
     <use xlink:href="#mf779625c4e" x="98.268324" y="215.274254" style="fill: #00ffff; stroke: #00ffff"/>
     <use xlink:href="#mf779625c4e" x="101.000053" y="219.231501" style="fill: #00ffff; stroke: #00ffff"/>
     <use xlink:href="#mf779625c4e" x="125.758541" y="233.502816" style="fill: #00ffff; stroke: #00ffff"/>
     <use xlink:href="#mf779625c4e" x="110.278196" y="211.541266" style="fill: #00ffff; stroke: #00ffff"/>
     <use xlink:href="#mf779625c4e" x="107.189348" y="217.758371" style="fill: #00ffff; stroke: #00ffff"/>
     <use xlink:href="#mf779625c4e" x="102.731156" y="211.290626" style="fill: #00ffff; stroke: #00ffff"/>
     <use xlink:href="#mf779625c4e" x="124.009464" y="182.71249" style="fill: #00ffff; stroke: #00ffff"/>
     <use xlink:href="#mf779625c4e" x="121.370104" y="193.187942" style="fill: #00ffff; stroke: #00ffff"/>
     <use xlink:href="#mf779625c4e" x="107.546112" y="190.432071" style="fill: #00ffff; stroke: #00ffff"/>
     <use xlink:href="#mf779625c4e" x="120.802084" y="222.26867" style="fill: #00ffff; stroke: #00ffff"/>
    </g>
   </g>
   <g id="PathCollection_7">
    <defs>
     <path id="m28fd6e5f59" d="M 0 1.5 
C 0.397805 1.5 0.77937 1.341951 1.06066 1.06066 
C 1.341951 0.77937 1.5 0.397805 1.5 0 
C 1.5 -0.397805 1.341951 -0.77937 1.06066 -1.06066 
C 0.77937 -1.341951 0.397805 -1.5 0 -1.5 
C -0.397805 -1.5 -0.77937 -1.341951 -1.06066 -1.06066 
C -1.341951 -0.77937 -1.5 -0.397805 -1.5 0 
C -1.5 0.397805 -1.341951 0.77937 -1.06066 1.06066 
C -0.77937 1.341951 -0.397805 1.5 0 1.5 
z
" style="stroke: #0000ff"/>
    </defs>
    <g clip-path="url(#pc8f7bbac54)">
     <use xlink:href="#m28fd6e5f59" x="110.081505" y="147.419023" style="fill: #0000ff; stroke: #0000ff"/>
     <use xlink:href="#m28fd6e5f59" x="119.566282" y="136.209746" style="fill: #0000ff; stroke: #0000ff"/>
     <use xlink:href="#m28fd6e5f59" x="181.154746" y="132.61206" style="fill: #0000ff; stroke: #0000ff"/>
     <use xlink:href="#m28fd6e5f59" x="149.565776" y="90.170697" style="fill: #0000ff; stroke: #0000ff"/>
     <use xlink:href="#m28fd6e5f59" x="130.701518" y="165.381014" style="fill: #0000ff; stroke: #0000ff"/>
     <use xlink:href="#m28fd6e5f59" x="110.949414" y="159.90195" style="fill: #0000ff; stroke: #0000ff"/>
     <use xlink:href="#m28fd6e5f59" x="71.100576" y="213.283369" style="fill: #0000ff; stroke: #0000ff"/>
     <use xlink:href="#m28fd6e5f59" x="87.442161" y="188.524735" style="fill: #0000ff; stroke: #0000ff"/>
     <use xlink:href="#m28fd6e5f59" x="143.534255" y="148.288065" style="fill: #0000ff; stroke: #0000ff"/>
     <use xlink:href="#m28fd6e5f59" x="187.052162" y="19.296" style="fill: #0000ff; stroke: #0000ff"/>
     <use xlink:href="#m28fd6e5f59" x="105.573297" y="154.310919" style="fill: #0000ff; stroke: #0000ff"/>
     <use xlink:href="#m28fd6e5f59" x="141.045971" y="203.188305" style="fill: #0000ff; stroke: #0000ff"/>
     <use xlink:href="#m28fd6e5f59" x="128.150396" y="41.098399" style="fill: #0000ff; stroke: #0000ff"/>
     <use xlink:href="#m28fd6e5f59" x="126.73537" y="219.618695" style="fill: #0000ff; stroke: #0000ff"/>
     <use xlink:href="#m28fd6e5f59" x="100.808392" y="173.643428" style="fill: #0000ff; stroke: #0000ff"/>
     <use xlink:href="#m28fd6e5f59" x="194.630104" y="129.237932" style="fill: #0000ff; stroke: #0000ff"/>
     <use xlink:href="#m28fd6e5f59" x="121.30902" y="198.125833" style="fill: #0000ff; stroke: #0000ff"/>
     <use xlink:href="#m28fd6e5f59" x="149.363487" y="113.384391" style="fill: #0000ff; stroke: #0000ff"/>
    </g>
   </g>
   <g id="PathCollection_8">
    <defs>
     <path id="maade907f49" d="M 0 1.5 
C 0.397805 1.5 0.77937 1.341951 1.06066 1.06066 
C 1.341951 0.77937 1.5 0.397805 1.5 0 
C 1.5 -0.397805 1.341951 -0.77937 1.06066 -1.06066 
C 0.77937 -1.341951 0.397805 -1.5 0 -1.5 
C -0.397805 -1.5 -0.77937 -1.341951 -1.06066 -1.06066 
C -1.341951 -0.77937 -1.5 -0.397805 -1.5 0 
C -1.5 0.397805 -1.341951 0.77937 -1.06066 1.06066 
C -0.77937 1.341951 -0.397805 1.5 0 1.5 
z
" style="stroke: #dc143c"/>
    </defs>
    <g clip-path="url(#pc8f7bbac54)">
     <use xlink:href="#maade907f49" x="198.117052" y="222.91616" style="fill: #dc143c; stroke: #dc143c"/>
     <use xlink:href="#maade907f49" x="117.376879" y="190.545674" style="fill: #dc143c; stroke: #dc143c"/>
     <use xlink:href="#maade907f49" x="176.398423" y="243.289591" style="fill: #dc143c; stroke: #dc143c"/>
     <use xlink:href="#maade907f49" x="184.106304" y="236.208579" style="fill: #dc143c; stroke: #dc143c"/>
     <use xlink:href="#maade907f49" x="202.529484" y="238.990488" style="fill: #dc143c; stroke: #dc143c"/>
     <use xlink:href="#maade907f49" x="303.631594" y="228.700102" style="fill: #dc143c; stroke: #dc143c"/>
     <use xlink:href="#maade907f49" x="216.537577" y="229.14057" style="fill: #dc143c; stroke: #dc143c"/>
     <use xlink:href="#maade907f49" x="215.97734" y="261.216" style="fill: #dc143c; stroke: #dc143c"/>
     <use xlink:href="#maade907f49" x="221.513136" y="213.224578" style="fill: #dc143c; stroke: #dc143c"/>
     <use xlink:href="#maade907f49" x="175.671735" y="217.699099" style="fill: #dc143c; stroke: #dc143c"/>
     <use xlink:href="#maade907f49" x="184.380467" y="214.922395" style="fill: #dc143c; stroke: #dc143c"/>
     <use xlink:href="#maade907f49" x="195.122336" y="241.417285" style="fill: #dc143c; stroke: #dc143c"/>
     <use xlink:href="#maade907f49" x="183.629919" y="235.43866" style="fill: #dc143c; stroke: #dc143c"/>
    </g>
   </g>
   <g id="PathCollection_9">
    <defs>
     <path id="mf752163403" d="M 0 1.5 
C 0.397805 1.5 0.77937 1.341951 1.06066 1.06066 
C 1.341951 0.77937 1.5 0.397805 1.5 0 
C 1.5 -0.397805 1.341951 -0.77937 1.06066 -1.06066 
C 0.77937 -1.341951 0.397805 -1.5 0 -1.5 
C -0.397805 -1.5 -0.77937 -1.341951 -1.06066 -1.06066 
C -1.341951 -0.77937 -1.5 -0.397805 -1.5 0 
C -1.5 0.397805 -1.341951 0.77937 -1.06066 1.06066 
C -0.77937 1.341951 -0.397805 1.5 0 1.5 
z
" style="stroke: #ffe4c4"/>
    </defs>
    <g clip-path="url(#pc8f7bbac54)">
     <use xlink:href="#mf752163403" x="157.705289" y="196.862579" style="fill: #ffe4c4; stroke: #ffe4c4"/>
     <use xlink:href="#mf752163403" x="211.946649" y="225.013456" style="fill: #ffe4c4; stroke: #ffe4c4"/>
     <use xlink:href="#mf752163403" x="100.568617" y="197.477228" style="fill: #ffe4c4; stroke: #ffe4c4"/>
     <use xlink:href="#mf752163403" x="195.108918" y="224.37294" style="fill: #ffe4c4; stroke: #ffe4c4"/>
     <use xlink:href="#mf752163403" x="208.745684" y="191.076891" style="fill: #ffe4c4; stroke: #ffe4c4"/>
     <use xlink:href="#mf752163403" x="260.99528" y="188.35687" style="fill: #ffe4c4; stroke: #ffe4c4"/>
     <use xlink:href="#mf752163403" x="244.89462" y="202.429616" style="fill: #ffe4c4; stroke: #ffe4c4"/>
     <use xlink:href="#mf752163403" x="175.366078" y="190.82129" style="fill: #ffe4c4; stroke: #ffe4c4"/>
    </g>
   </g>
   <g id="PathCollection_10">
    <defs>
     <path id="md1313568fa" d="M -2.99994 2.99994 
L 3.00006 2.99994 
L 3.00006 -3.00006 
L -2.99994 -3.00006 
z
" style="stroke: #000000"/>
    </defs>
    <g clip-path="url(#pc8f7bbac54)">
     <use xlink:href="#md1313568fa" x="88.782518" y="201.448007" style="stroke: #000000"/>
     <use xlink:href="#md1313568fa" x="87.13832" y="198.153834" style="stroke: #000000"/>
     <use xlink:href="#md1313568fa" x="80.403899" y="199.324419" style="stroke: #000000"/>
     <use xlink:href="#md1313568fa" x="90.590083" y="210.187656" style="stroke: #000000"/>
     <use xlink:href="#md1313568fa" x="59.638831" y="216.971367" style="stroke: #000000"/>
     <use xlink:href="#md1313568fa" x="95.845352" y="207.461933" style="stroke: #000000"/>
     <use xlink:href="#md1313568fa" x="142.8721" y="210.554205" style="stroke: #000000"/>
     <use xlink:href="#md1313568fa" x="93.604209" y="210.346412" style="stroke: #000000"/>
     <use xlink:href="#md1313568fa" x="102.180283" y="202.930326" style="stroke: #000000"/>
     <use xlink:href="#md1313568fa" x="102.963664" y="192.047138" style="stroke: #000000"/>
     <use xlink:href="#md1313568fa" x="57.642332" y="192.484632" style="stroke: #000000"/>
     <use xlink:href="#md1313568fa" x="89.162368" y="214.855611" style="stroke: #000000"/>
     <use xlink:href="#md1313568fa" x="95.396714" y="212.065115" style="stroke: #000000"/>
     <use xlink:href="#md1313568fa" x="97.614284" y="208.244363" style="stroke: #000000"/>
     <use xlink:href="#md1313568fa" x="109.723367" y="221.898583" style="stroke: #000000"/>
     <use xlink:href="#md1313568fa" x="63.686897" y="186.278287" style="stroke: #000000"/>
     <use xlink:href="#md1313568fa" x="118.954681" y="212.789781" style="stroke: #000000"/>
     <use xlink:href="#md1313568fa" x="91.207662" y="202.284012" style="stroke: #000000"/>
     <use xlink:href="#md1313568fa" x="111.061269" y="194.148861" style="stroke: #000000"/>
     <use xlink:href="#md1313568fa" x="93.339119" y="191.290018" style="stroke: #000000"/>
     <use xlink:href="#md1313568fa" x="83.518956" y="192.542921" style="stroke: #000000"/>
     <use xlink:href="#md1313568fa" x="118.221749" y="194.084386" style="stroke: #000000"/>
     <use xlink:href="#md1313568fa" x="92.233613" y="236.084995" style="stroke: #000000"/>
     <use xlink:href="#md1313568fa" x="108.712319" y="211.989284" style="stroke: #000000"/>
     <use xlink:href="#md1313568fa" x="129.770544" y="199.260571" style="stroke: #000000"/>
     <use xlink:href="#md1313568fa" x="77.986749" y="201.923597" style="stroke: #000000"/>
     <use xlink:href="#md1313568fa" x="114.020953" y="169.498371" style="stroke: #000000"/>
     <use xlink:href="#md1313568fa" x="51.537415" y="198.680646" style="stroke: #000000"/>
     <use xlink:href="#md1313568fa" x="118.378623" y="213.939757" style="stroke: #000000"/>
     <use xlink:href="#md1313568fa" x="63.361467" y="216.635844" style="stroke: #000000"/>
     <use xlink:href="#md1313568fa" x="86.109328" y="200.627357" style="stroke: #000000"/>
     <use xlink:href="#md1313568fa" x="118.885939" y="222.154374" style="stroke: #000000"/>
     <use xlink:href="#md1313568fa" x="131.403505" y="189.501382" style="stroke: #000000"/>
     <use xlink:href="#md1313568fa" x="100.467789" y="218.808053" style="stroke: #000000"/>
     <use xlink:href="#md1313568fa" x="111.1086" y="215.521901" style="stroke: #000000"/>
     <use xlink:href="#md1313568fa" x="82.589948" y="180.017171" style="stroke: #000000"/>
     <use xlink:href="#md1313568fa" x="72.076305" y="193.360646" style="stroke: #000000"/>
     <use xlink:href="#md1313568fa" x="112.063305" y="207.309317" style="stroke: #000000"/>
     <use xlink:href="#md1313568fa" x="77.960494" y="210.617044" style="stroke: #000000"/>
     <use xlink:href="#md1313568fa" x="68.379568" y="203.436767" style="stroke: #000000"/>
     <use xlink:href="#md1313568fa" x="90.992188" y="230.766406" style="stroke: #000000"/>
     <use xlink:href="#md1313568fa" x="89.748341" y="199.797789" style="stroke: #000000"/>
     <use xlink:href="#md1313568fa" x="76.649374" y="174.987195" style="stroke: #000000"/>
     <use xlink:href="#md1313568fa" x="96.47143" y="203.843729" style="stroke: #000000"/>
     <use xlink:href="#md1313568fa" x="73.305447" y="200.481598" style="stroke: #000000"/>
     <use xlink:href="#md1313568fa" x="95.111472" y="182.290231" style="stroke: #000000"/>
     <use xlink:href="#md1313568fa" x="92.054768" y="200.991743" style="stroke: #000000"/>
     <use xlink:href="#md1313568fa" x="105.019094" y="155.359175" style="stroke: #000000"/>
     <use xlink:href="#md1313568fa" x="106.176251" y="217.114548" style="stroke: #000000"/>
     <use xlink:href="#md1313568fa" x="99.815744" y="197.444572" style="stroke: #000000"/>
     <use xlink:href="#md1313568fa" x="119.808691" y="213.668135" style="stroke: #000000"/>
     <use xlink:href="#md1313568fa" x="64.182986" y="209.628761" style="stroke: #000000"/>
     <use xlink:href="#md1313568fa" x="73.772512" y="198.399374" style="stroke: #000000"/>
     <use xlink:href="#md1313568fa" x="95.585365" y="227.771124" style="stroke: #000000"/>
     <use xlink:href="#md1313568fa" x="89.596905" y="186.364901" style="stroke: #000000"/>
     <use xlink:href="#md1313568fa" x="90.548165" y="195.139249" style="stroke: #000000"/>
     <use xlink:href="#md1313568fa" x="167.869098" y="191.500941" style="stroke: #000000"/>
     <use xlink:href="#md1313568fa" x="116.142863" y="197.369583" style="stroke: #000000"/>
     <use xlink:href="#md1313568fa" x="90.34705" y="204.219328" style="stroke: #000000"/>
     <use xlink:href="#md1313568fa" x="118.035266" y="189.054385" style="stroke: #000000"/>
     <use xlink:href="#md1313568fa" x="100.790304" y="214.342688" style="stroke: #000000"/>
     <use xlink:href="#md1313568fa" x="113.845925" y="204.172946" style="stroke: #000000"/>
     <use xlink:href="#md1313568fa" x="83.495088" y="220.849536" style="stroke: #000000"/>
     <use xlink:href="#md1313568fa" x="63.180882" y="206.255475" style="stroke: #000000"/>
    </g>
   </g>
   <g id="PathCollection_11">
    <defs>
     <path id="m86d0510379" d="M -3 -0 
L 3 3 
L 3 -3 
z
" style="stroke: #ff8c00"/>
    </defs>
    <g clip-path="url(#pc8f7bbac54)">
     <use xlink:href="#m86d0510379" x="126.806114" y="195.896998" style="fill: #ff8c00; stroke: #ff8c00"/>
     <use xlink:href="#m86d0510379" x="122.041996" y="212.820783" style="fill: #ff8c00; stroke: #ff8c00"/>
     <use xlink:href="#m86d0510379" x="90.165561" y="219.643118" style="fill: #ff8c00; stroke: #ff8c00"/>
     <use xlink:href="#m86d0510379" x="97.404562" y="208.100761" style="fill: #ff8c00; stroke: #ff8c00"/>
     <use xlink:href="#m86d0510379" x="93.327086" y="202.329789" style="fill: #ff8c00; stroke: #ff8c00"/>
     <use xlink:href="#m86d0510379" x="80.604938" y="212.501353" style="fill: #ff8c00; stroke: #ff8c00"/>
     <use xlink:href="#m86d0510379" x="100.323317" y="218.877529" style="fill: #ff8c00; stroke: #ff8c00"/>
     <use xlink:href="#m86d0510379" x="116.050268" y="191.658256" style="fill: #ff8c00; stroke: #ff8c00"/>
     <use xlink:href="#m86d0510379" x="118.126921" y="211.093658" style="fill: #ff8c00; stroke: #ff8c00"/>
     <use xlink:href="#m86d0510379" x="109.630847" y="205.656086" style="fill: #ff8c00; stroke: #ff8c00"/>
     <use xlink:href="#m86d0510379" x="139.139065" y="210.894863" style="fill: #ff8c00; stroke: #ff8c00"/>
     <use xlink:href="#m86d0510379" x="89.584108" y="213.59245" style="fill: #ff8c00; stroke: #ff8c00"/>
     <use xlink:href="#m86d0510379" x="128.967923" y="200.718991" style="fill: #ff8c00; stroke: #ff8c00"/>
     <use xlink:href="#m86d0510379" x="119.546629" y="188.770736" style="fill: #ff8c00; stroke: #ff8c00"/>
     <use xlink:href="#m86d0510379" x="92.738093" y="174.114553" style="fill: #ff8c00; stroke: #ff8c00"/>
     <use xlink:href="#m86d0510379" x="109.617215" y="207.31585" style="fill: #ff8c00; stroke: #ff8c00"/>
     <use xlink:href="#m86d0510379" x="93.163475" y="210.348282" style="fill: #ff8c00; stroke: #ff8c00"/>
     <use xlink:href="#m86d0510379" x="93.304793" y="216.15932" style="fill: #ff8c00; stroke: #ff8c00"/>
     <use xlink:href="#m86d0510379" x="68.930364" y="207.895221" style="fill: #ff8c00; stroke: #ff8c00"/>
     <use xlink:href="#m86d0510379" x="96.972008" y="199.61452" style="fill: #ff8c00; stroke: #ff8c00"/>
     <use xlink:href="#m86d0510379" x="117.838197" y="213.996217" style="fill: #ff8c00; stroke: #ff8c00"/>
     <use xlink:href="#m86d0510379" x="77.204742" y="209.186723" style="fill: #ff8c00; stroke: #ff8c00"/>
     <use xlink:href="#m86d0510379" x="91.04686" y="208.630541" style="fill: #ff8c00; stroke: #ff8c00"/>
     <use xlink:href="#m86d0510379" x="97.35031" y="199.181448" style="fill: #ff8c00; stroke: #ff8c00"/>
     <use xlink:href="#m86d0510379" x="89.16806" y="203.071866" style="fill: #ff8c00; stroke: #ff8c00"/>
     <use xlink:href="#m86d0510379" x="92.784687" y="206.720873" style="fill: #ff8c00; stroke: #ff8c00"/>
     <use xlink:href="#m86d0510379" x="136.731942" y="206.312714" style="fill: #ff8c00; stroke: #ff8c00"/>
     <use xlink:href="#m86d0510379" x="72.287282" y="206.018598" style="fill: #ff8c00; stroke: #ff8c00"/>
     <use xlink:href="#m86d0510379" x="112.177671" y="198.745929" style="fill: #ff8c00; stroke: #ff8c00"/>
     <use xlink:href="#m86d0510379" x="94.14157" y="203.217205" style="fill: #ff8c00; stroke: #ff8c00"/>
     <use xlink:href="#m86d0510379" x="88.45516" y="206.454925" style="fill: #ff8c00; stroke: #ff8c00"/>
     <use xlink:href="#m86d0510379" x="90.107022" y="211.950388" style="fill: #ff8c00; stroke: #ff8c00"/>
     <use xlink:href="#m86d0510379" x="88.945586" y="220.313991" style="fill: #ff8c00; stroke: #ff8c00"/>
     <use xlink:href="#m86d0510379" x="96.012156" y="217.475225" style="fill: #ff8c00; stroke: #ff8c00"/>
     <use xlink:href="#m86d0510379" x="113.380699" y="216.779469" style="fill: #ff8c00; stroke: #ff8c00"/>
     <use xlink:href="#m86d0510379" x="110.395446" y="210.97464" style="fill: #ff8c00; stroke: #ff8c00"/>
     <use xlink:href="#m86d0510379" x="80.296527" y="203.715866" style="fill: #ff8c00; stroke: #ff8c00"/>
     <use xlink:href="#m86d0510379" x="93.510599" y="209.003772" style="fill: #ff8c00; stroke: #ff8c00"/>
     <use xlink:href="#m86d0510379" x="101.559624" y="208.66352" style="fill: #ff8c00; stroke: #ff8c00"/>
     <use xlink:href="#m86d0510379" x="106.482465" y="225.802122" style="fill: #ff8c00; stroke: #ff8c00"/>
     <use xlink:href="#m86d0510379" x="131.863298" y="186.771733" style="fill: #ff8c00; stroke: #ff8c00"/>
     <use xlink:href="#m86d0510379" x="83.12939" y="210.093853" style="fill: #ff8c00; stroke: #ff8c00"/>
     <use xlink:href="#m86d0510379" x="86.766792" y="182.079086" style="fill: #ff8c00; stroke: #ff8c00"/>
     <use xlink:href="#m86d0510379" x="90.562166" y="210.035644" style="fill: #ff8c00; stroke: #ff8c00"/>
     <use xlink:href="#m86d0510379" x="83.293725" y="203.876808" style="fill: #ff8c00; stroke: #ff8c00"/>
     <use xlink:href="#m86d0510379" x="99.645071" y="212.067291" style="fill: #ff8c00; stroke: #ff8c00"/>
     <use xlink:href="#m86d0510379" x="67.389454" y="196.428153" style="fill: #ff8c00; stroke: #ff8c00"/>
     <use xlink:href="#m86d0510379" x="76.377058" y="202.057923" style="fill: #ff8c00; stroke: #ff8c00"/>
     <use xlink:href="#m86d0510379" x="90.32805" y="194.552197" style="fill: #ff8c00; stroke: #ff8c00"/>
     <use xlink:href="#m86d0510379" x="98.995198" y="203.979959" style="fill: #ff8c00; stroke: #ff8c00"/>
     <use xlink:href="#m86d0510379" x="80.565467" y="194.539858" style="fill: #ff8c00; stroke: #ff8c00"/>
     <use xlink:href="#m86d0510379" x="75.573876" y="206.021676" style="fill: #ff8c00; stroke: #ff8c00"/>
     <use xlink:href="#m86d0510379" x="90.653838" y="206.306077" style="fill: #ff8c00; stroke: #ff8c00"/>
     <use xlink:href="#m86d0510379" x="85.874223" y="219.992972" style="fill: #ff8c00; stroke: #ff8c00"/>
     <use xlink:href="#m86d0510379" x="82.663838" y="191.745358" style="fill: #ff8c00; stroke: #ff8c00"/>
     <use xlink:href="#m86d0510379" x="101.138637" y="220.277593" style="fill: #ff8c00; stroke: #ff8c00"/>
     <use xlink:href="#m86d0510379" x="75.039558" y="215.576849" style="fill: #ff8c00; stroke: #ff8c00"/>
     <use xlink:href="#m86d0510379" x="100.385394" y="192.501923" style="fill: #ff8c00; stroke: #ff8c00"/>
     <use xlink:href="#m86d0510379" x="96.63879" y="220.938105" style="fill: #ff8c00; stroke: #ff8c00"/>
     <use xlink:href="#m86d0510379" x="122.036355" y="211.025507" style="fill: #ff8c00; stroke: #ff8c00"/>
     <use xlink:href="#m86d0510379" x="92.445088" y="197.823447" style="fill: #ff8c00; stroke: #ff8c00"/>
     <use xlink:href="#m86d0510379" x="117.382443" y="208.232401" style="fill: #ff8c00; stroke: #ff8c00"/>
     <use xlink:href="#m86d0510379" x="107.042689" y="211.374758" style="fill: #ff8c00; stroke: #ff8c00"/>
     <use xlink:href="#m86d0510379" x="86.83942" y="195.559115" style="fill: #ff8c00; stroke: #ff8c00"/>
    </g>
   </g>
   <g id="matplotlib.axis_1">
    <g id="xtick_1">
     <g id="line2d_1">
      <defs>
       <path id="mc8414f9e5e" d="M 0 0 
L 0 3.5 
" style="stroke: #000000; stroke-width: 0.8"/>
      </defs>
      <g>
       <use xlink:href="#mc8414f9e5e" x="72.242651" y="273.312" style="stroke: #000000; stroke-width: 0.8"/>
      </g>
     </g>
     <g id="text_1">
      <!-- −10 -->
      <g transform="translate(61.690308 287.910437) scale(0.1 -0.1)">
       <defs>
        <path id="DejaVuSans-2212" d="M 678 2272 
L 4684 2272 
L 4684 1741 
L 678 1741 
L 678 2272 
z
" transform="scale(0.015625)"/>
        <path id="DejaVuSans-31" d="M 794 531 
L 1825 531 
L 1825 4091 
L 703 3866 
L 703 4441 
L 1819 4666 
L 2450 4666 
L 2450 531 
L 3481 531 
L 3481 0 
L 794 0 
L 794 531 
z
" transform="scale(0.015625)"/>
        <path id="DejaVuSans-30" d="M 2034 4250 
Q 1547 4250 1301 3770 
Q 1056 3291 1056 2328 
Q 1056 1369 1301 889 
Q 1547 409 2034 409 
Q 2525 409 2770 889 
Q 3016 1369 3016 2328 
Q 3016 3291 2770 3770 
Q 2525 4250 2034 4250 
z
M 2034 4750 
Q 2819 4750 3233 4129 
Q 3647 3509 3647 2328 
Q 3647 1150 3233 529 
Q 2819 -91 2034 -91 
Q 1250 -91 836 529 
Q 422 1150 422 2328 
Q 422 3509 836 4129 
Q 1250 4750 2034 4750 
z
" transform="scale(0.015625)"/>
       </defs>
       <use xlink:href="#DejaVuSans-2212"/>
       <use xlink:href="#DejaVuSans-31" x="83.789062"/>
       <use xlink:href="#DejaVuSans-30" x="147.412109"/>
      </g>
     </g>
    </g>
    <g id="xtick_2">
     <g id="line2d_2">
      <g>
       <use xlink:href="#mc8414f9e5e" x="124.760205" y="273.312" style="stroke: #000000; stroke-width: 0.8"/>
      </g>
     </g>
     <g id="text_2">
      <!-- 0 -->
      <g transform="translate(121.578955 287.910437) scale(0.1 -0.1)">
       <use xlink:href="#DejaVuSans-30"/>
      </g>
     </g>
    </g>
    <g id="xtick_3">
     <g id="line2d_3">
      <g>
       <use xlink:href="#mc8414f9e5e" x="177.277759" y="273.312" style="stroke: #000000; stroke-width: 0.8"/>
      </g>
     </g>
     <g id="text_3">
      <!-- 10 -->
      <g transform="translate(170.915259 287.910437) scale(0.1 -0.1)">
       <use xlink:href="#DejaVuSans-31"/>
       <use xlink:href="#DejaVuSans-30" x="63.623047"/>
      </g>
     </g>
    </g>
    <g id="xtick_4">
     <g id="line2d_4">
      <g>
       <use xlink:href="#mc8414f9e5e" x="229.795312" y="273.312" style="stroke: #000000; stroke-width: 0.8"/>
      </g>
     </g>
     <g id="text_4">
      <!-- 20 -->
      <g transform="translate(223.432812 287.910437) scale(0.1 -0.1)">
       <defs>
        <path id="DejaVuSans-32" d="M 1228 531 
L 3431 531 
L 3431 0 
L 469 0 
L 469 531 
Q 828 903 1448 1529 
Q 2069 2156 2228 2338 
Q 2531 2678 2651 2914 
Q 2772 3150 2772 3378 
Q 2772 3750 2511 3984 
Q 2250 4219 1831 4219 
Q 1534 4219 1204 4116 
Q 875 4013 500 3803 
L 500 4441 
Q 881 4594 1212 4672 
Q 1544 4750 1819 4750 
Q 2544 4750 2975 4387 
Q 3406 4025 3406 3419 
Q 3406 3131 3298 2873 
Q 3191 2616 2906 2266 
Q 2828 2175 2409 1742 
Q 1991 1309 1228 531 
z
" transform="scale(0.015625)"/>
       </defs>
       <use xlink:href="#DejaVuSans-32"/>
       <use xlink:href="#DejaVuSans-30" x="63.623047"/>
      </g>
     </g>
    </g>
    <g id="xtick_5">
     <g id="line2d_5">
      <g>
       <use xlink:href="#mc8414f9e5e" x="282.312866" y="273.312" style="stroke: #000000; stroke-width: 0.8"/>
      </g>
     </g>
     <g id="text_5">
      <!-- 30 -->
      <g transform="translate(275.950366 287.910437) scale(0.1 -0.1)">
       <defs>
        <path id="DejaVuSans-33" d="M 2597 2516 
Q 3050 2419 3304 2112 
Q 3559 1806 3559 1356 
Q 3559 666 3084 287 
Q 2609 -91 1734 -91 
Q 1441 -91 1130 -33 
Q 819 25 488 141 
L 488 750 
Q 750 597 1062 519 
Q 1375 441 1716 441 
Q 2309 441 2620 675 
Q 2931 909 2931 1356 
Q 2931 1769 2642 2001 
Q 2353 2234 1838 2234 
L 1294 2234 
L 1294 2753 
L 1863 2753 
Q 2328 2753 2575 2939 
Q 2822 3125 2822 3475 
Q 2822 3834 2567 4026 
Q 2313 4219 1838 4219 
Q 1578 4219 1281 4162 
Q 984 4106 628 3988 
L 628 4550 
Q 988 4650 1302 4700 
Q 1616 4750 1894 4750 
Q 2613 4750 3031 4423 
Q 3450 4097 3450 3541 
Q 3450 3153 3228 2886 
Q 3006 2619 2597 2516 
z
" transform="scale(0.015625)"/>
       </defs>
       <use xlink:href="#DejaVuSans-33"/>
       <use xlink:href="#DejaVuSans-30" x="63.623047"/>
      </g>
     </g>
    </g>
    <g id="xtick_6">
     <g id="line2d_6">
      <g>
       <use xlink:href="#mc8414f9e5e" x="334.83042" y="273.312" style="stroke: #000000; stroke-width: 0.8"/>
      </g>
     </g>
     <g id="text_6">
      <!-- 40 -->
      <g transform="translate(328.46792 287.910437) scale(0.1 -0.1)">
       <defs>
        <path id="DejaVuSans-34" d="M 2419 4116 
L 825 1625 
L 2419 1625 
L 2419 4116 
z
M 2253 4666 
L 3047 4666 
L 3047 1625 
L 3713 1625 
L 3713 1100 
L 3047 1100 
L 3047 0 
L 2419 0 
L 2419 1100 
L 313 1100 
L 313 1709 
L 2253 4666 
z
" transform="scale(0.015625)"/>
       </defs>
       <use xlink:href="#DejaVuSans-34"/>
       <use xlink:href="#DejaVuSans-30" x="63.623047"/>
      </g>
     </g>
    </g>
    <g id="xtick_7">
     <g id="line2d_7">
      <g>
       <use xlink:href="#mc8414f9e5e" x="387.347974" y="273.312" style="stroke: #000000; stroke-width: 0.8"/>
      </g>
     </g>
     <g id="text_7">
      <!-- 50 -->
      <g transform="translate(380.985474 287.910437) scale(0.1 -0.1)">
       <defs>
        <path id="DejaVuSans-35" d="M 691 4666 
L 3169 4666 
L 3169 4134 
L 1269 4134 
L 1269 2991 
Q 1406 3038 1543 3061 
Q 1681 3084 1819 3084 
Q 2600 3084 3056 2656 
Q 3513 2228 3513 1497 
Q 3513 744 3044 326 
Q 2575 -91 1722 -91 
Q 1428 -91 1123 -41 
Q 819 9 494 109 
L 494 744 
Q 775 591 1075 516 
Q 1375 441 1709 441 
Q 2250 441 2565 725 
Q 2881 1009 2881 1497 
Q 2881 1984 2565 2268 
Q 2250 2553 1709 2553 
Q 1456 2553 1204 2497 
Q 953 2441 691 2322 
L 691 4666 
z
" transform="scale(0.015625)"/>
       </defs>
       <use xlink:href="#DejaVuSans-35"/>
       <use xlink:href="#DejaVuSans-30" x="63.623047"/>
      </g>
     </g>
    </g>
   </g>
   <g id="matplotlib.axis_2">
    <g id="ytick_1">
     <g id="line2d_8">
      <defs>
       <path id="mf7f553b7b8" d="M 0 0 
L -3.5 0 
" style="stroke: #000000; stroke-width: 0.8"/>
      </defs>
      <g>
       <use xlink:href="#mf7f553b7b8" x="35.304688" y="266.893904" style="stroke: #000000; stroke-width: 0.8"/>
      </g>
     </g>
     <g id="text_8">
      <!-- −20 -->
      <g transform="translate(7.2 270.693123) scale(0.1 -0.1)">
       <use xlink:href="#DejaVuSans-2212"/>
       <use xlink:href="#DejaVuSans-32" x="83.789062"/>
       <use xlink:href="#DejaVuSans-30" x="147.412109"/>
      </g>
     </g>
    </g>
    <g id="ytick_2">
     <g id="line2d_9">
      <g>
       <use xlink:href="#mf7f553b7b8" x="35.304688" y="232.377018" style="stroke: #000000; stroke-width: 0.8"/>
      </g>
     </g>
     <g id="text_9">
      <!-- −10 -->
      <g transform="translate(7.2 236.176237) scale(0.1 -0.1)">
       <use xlink:href="#DejaVuSans-2212"/>
       <use xlink:href="#DejaVuSans-31" x="83.789062"/>
       <use xlink:href="#DejaVuSans-30" x="147.412109"/>
      </g>
     </g>
    </g>
    <g id="ytick_3">
     <g id="line2d_10">
      <g>
       <use xlink:href="#mf7f553b7b8" x="35.304688" y="197.860132" style="stroke: #000000; stroke-width: 0.8"/>
      </g>
     </g>
     <g id="text_10">
      <!-- 0 -->
      <g transform="translate(21.942187 201.659351) scale(0.1 -0.1)">
       <use xlink:href="#DejaVuSans-30"/>
      </g>
     </g>
    </g>
    <g id="ytick_4">
     <g id="line2d_11">
      <g>
       <use xlink:href="#mf7f553b7b8" x="35.304688" y="163.343246" style="stroke: #000000; stroke-width: 0.8"/>
      </g>
     </g>
     <g id="text_11">
      <!-- 10 -->
      <g transform="translate(15.579687 167.142465) scale(0.1 -0.1)">
       <use xlink:href="#DejaVuSans-31"/>
       <use xlink:href="#DejaVuSans-30" x="63.623047"/>
      </g>
     </g>
    </g>
    <g id="ytick_5">
     <g id="line2d_12">
      <g>
       <use xlink:href="#mf7f553b7b8" x="35.304688" y="128.82636" style="stroke: #000000; stroke-width: 0.8"/>
      </g>
     </g>
     <g id="text_12">
      <!-- 20 -->
      <g transform="translate(15.579687 132.625579) scale(0.1 -0.1)">
       <use xlink:href="#DejaVuSans-32"/>
       <use xlink:href="#DejaVuSans-30" x="63.623047"/>
      </g>
     </g>
    </g>
    <g id="ytick_6">
     <g id="line2d_13">
      <g>
       <use xlink:href="#mf7f553b7b8" x="35.304688" y="94.309474" style="stroke: #000000; stroke-width: 0.8"/>
      </g>
     </g>
     <g id="text_13">
      <!-- 30 -->
      <g transform="translate(15.579687 98.108693) scale(0.1 -0.1)">
       <use xlink:href="#DejaVuSans-33"/>
       <use xlink:href="#DejaVuSans-30" x="63.623047"/>
      </g>
     </g>
    </g>
    <g id="ytick_7">
     <g id="line2d_14">
      <g>
       <use xlink:href="#mf7f553b7b8" x="35.304688" y="59.792588" style="stroke: #000000; stroke-width: 0.8"/>
      </g>
     </g>
     <g id="text_14">
      <!-- 40 -->
      <g transform="translate(15.579687 63.591807) scale(0.1 -0.1)">
       <use xlink:href="#DejaVuSans-34"/>
       <use xlink:href="#DejaVuSans-30" x="63.623047"/>
      </g>
     </g>
    </g>
    <g id="ytick_8">
     <g id="line2d_15">
      <g>
       <use xlink:href="#mf7f553b7b8" x="35.304688" y="25.275702" style="stroke: #000000; stroke-width: 0.8"/>
      </g>
     </g>
     <g id="text_15">
      <!-- 50 -->
      <g transform="translate(15.579687 29.074921) scale(0.1 -0.1)">
       <use xlink:href="#DejaVuSans-35"/>
       <use xlink:href="#DejaVuSans-30" x="63.623047"/>
      </g>
     </g>
    </g>
   </g>
   <g id="patch_3">
    <path d="M 35.304688 273.312 
L 35.304688 7.2 
" style="fill: none; stroke: #000000; stroke-width: 0.8; stroke-linejoin: miter; stroke-linecap: square"/>
   </g>
   <g id="patch_4">
    <path d="M 392.424688 273.312 
L 392.424688 7.2 
" style="fill: none; stroke: #000000; stroke-width: 0.8; stroke-linejoin: miter; stroke-linecap: square"/>
   </g>
   <g id="patch_5">
    <path d="M 35.304687 273.312 
L 392.424688 273.312 
" style="fill: none; stroke: #000000; stroke-width: 0.8; stroke-linejoin: miter; stroke-linecap: square"/>
   </g>
   <g id="patch_6">
    <path d="M 35.304687 7.2 
L 392.424688 7.2 
" style="fill: none; stroke: #000000; stroke-width: 0.8; stroke-linejoin: miter; stroke-linecap: square"/>
   </g>
  </g>
 </g>
 <defs>
  <clipPath id="pc8f7bbac54">
   <rect x="35.304688" y="7.2" width="357.12" height="266.112"/>
  </clipPath>
 </defs>
</svg>
