<?xml version="1.0" encoding="utf-8" standalone="no"?>
<!DOCTYPE svg PUBLIC "-//W3C//DTD SVG 1.1//EN"
  "http://www.w3.org/Graphics/SVG/1.1/DTD/svg11.dtd">
<svg xmlns:xlink="http://www.w3.org/1999/xlink" width="399.624687pt" height="297.190125pt" viewBox="0 0 399.624687 297.190125" xmlns="http://www.w3.org/2000/svg" version="1.1">
 <metadata>
  <rdf:RDF xmlns:dc="http://purl.org/dc/elements/1.1/" xmlns:cc="http://creativecommons.org/ns#" xmlns:rdf="http://www.w3.org/1999/02/22-rdf-syntax-ns#">
   <cc:Work>
    <dc:type rdf:resource="http://purl.org/dc/dcmitype/StillImage"/>
    <dc:date>2023-11-13T18:51:04.540074</dc:date>
    <dc:format>image/svg+xml</dc:format>
    <dc:creator>
     <cc:Agent>
      <dc:title>Matplotlib v3.8.0, https://matplotlib.org/</dc:title>
     </cc:Agent>
    </dc:creator>
   </cc:Work>
  </rdf:RDF>
 </metadata>
 <defs>
  <style type="text/css">*{stroke-linejoin: round; stroke-linecap: butt}</style>
 </defs>
 <g id="figure_1">
  <g id="patch_1">
   <path d="M 0 297.190125 
L 399.624687 297.190125 
L 399.624687 0 
L 0 0 
z
" style="fill: #ffffff"/>
  </g>
  <g id="axes_1">
   <g id="patch_2">
    <path d="M 35.304688 273.312 
L 392.424688 273.312 
L 392.424688 7.2 
L 35.304688 7.2 
z
" style="fill: #ffffff"/>
   </g>
   <g id="PathCollection_1">
    <defs>
     <path id="m90c32ec543" d="M 0 1.5 
C 0.397805 1.5 0.77937 1.341951 1.06066 1.06066 
C 1.341951 0.77937 1.5 0.397805 1.5 0 
C 1.5 -0.397805 1.341951 -0.77937 1.06066 -1.06066 
C 0.77937 -1.341951 0.397805 -1.5 0 -1.5 
C -0.397805 -1.5 -0.77937 -1.341951 -1.06066 -1.06066 
C -1.341951 -0.77937 -1.5 -0.397805 -1.5 0 
C -1.5 0.397805 -1.341951 0.77937 -1.06066 1.06066 
C -0.77937 1.341951 -0.397805 1.5 0 1.5 
z
" style="stroke: #ff8c00"/>
    </defs>
    <g clip-path="url(#p55692cf0a2)">
     <use xlink:href="#m90c32ec543" x="178.906595" y="235.871966" style="fill: #ff8c00; stroke: #ff8c00"/>
     <use xlink:href="#m90c32ec543" x="221.248519" y="163.708856" style="fill: #ff8c00; stroke: #ff8c00"/>
     <use xlink:href="#m90c32ec543" x="141.145601" y="208.386461" style="fill: #ff8c00; stroke: #ff8c00"/>
     <use xlink:href="#m90c32ec543" x="180.354198" y="223.235321" style="fill: #ff8c00; stroke: #ff8c00"/>
     <use xlink:href="#m90c32ec543" x="180.381324" y="248.040857" style="fill: #ff8c00; stroke: #ff8c00"/>
     <use xlink:href="#m90c32ec543" x="219.575713" y="204.607079" style="fill: #ff8c00; stroke: #ff8c00"/>
     <use xlink:href="#m90c32ec543" x="168.776697" y="198.96189" style="fill: #ff8c00; stroke: #ff8c00"/>
     <use xlink:href="#m90c32ec543" x="212.951301" y="261.216" style="fill: #ff8c00; stroke: #ff8c00"/>
     <use xlink:href="#m90c32ec543" x="214.212931" y="223.222961" style="fill: #ff8c00; stroke: #ff8c00"/>
     <use xlink:href="#m90c32ec543" x="184.452492" y="251.370983" style="fill: #ff8c00; stroke: #ff8c00"/>
     <use xlink:href="#m90c32ec543" x="210.962635" y="211.420636" style="fill: #ff8c00; stroke: #ff8c00"/>
     <use xlink:href="#m90c32ec543" x="185.369401" y="182.385601" style="fill: #ff8c00; stroke: #ff8c00"/>
     <use xlink:href="#m90c32ec543" x="193.813244" y="242.244391" style="fill: #ff8c00; stroke: #ff8c00"/>
    </g>
   </g>
   <g id="PathCollection_2">
    <defs>
     <path id="ma6989c53c9" d="M 0 1.5 
C 0.397805 1.5 0.77937 1.341951 1.06066 1.06066 
C 1.341951 0.77937 1.5 0.397805 1.5 0 
C 1.5 -0.397805 1.341951 -0.77937 1.06066 -1.06066 
C 0.77937 -1.341951 0.397805 -1.5 0 -1.5 
C -0.397805 -1.5 -0.77937 -1.341951 -1.06066 -1.06066 
C -1.341951 -0.77937 -1.5 -0.397805 -1.5 0 
C -1.5 0.397805 -1.341951 0.77937 -1.06066 1.06066 
C -0.77937 1.341951 -0.397805 1.5 0 1.5 
z
" style="stroke: #006400"/>
    </defs>
    <g clip-path="url(#p55692cf0a2)">
     <use xlink:href="#ma6989c53c9" x="303.939307" y="125.856275" style="fill: #006400; stroke: #006400"/>
     <use xlink:href="#ma6989c53c9" x="205.456068" y="196.220655" style="fill: #006400; stroke: #006400"/>
     <use xlink:href="#ma6989c53c9" x="193.453282" y="118.258695" style="fill: #006400; stroke: #006400"/>
     <use xlink:href="#ma6989c53c9" x="211.923557" y="200.005714" style="fill: #006400; stroke: #006400"/>
     <use xlink:href="#ma6989c53c9" x="137.723811" y="131.095236" style="fill: #006400; stroke: #006400"/>
     <use xlink:href="#ma6989c53c9" x="246.268341" y="127.895938" style="fill: #006400; stroke: #006400"/>
     <use xlink:href="#ma6989c53c9" x="191.808158" y="112.855751" style="fill: #006400; stroke: #006400"/>
     <use xlink:href="#ma6989c53c9" x="170.525316" y="145.848789" style="fill: #006400; stroke: #006400"/>
     <use xlink:href="#ma6989c53c9" x="223.806124" y="141.614044" style="fill: #006400; stroke: #006400"/>
     <use xlink:href="#ma6989c53c9" x="186.764891" y="155.692533" style="fill: #006400; stroke: #006400"/>
     <use xlink:href="#ma6989c53c9" x="303.834762" y="142.643017" style="fill: #006400; stroke: #006400"/>
    </g>
   </g>
   <g id="PathCollection_3">
    <defs>
     <path id="m8073e82174" d="M 0 1.5 
C 0.397805 1.5 0.77937 1.341951 1.06066 1.06066 
C 1.341951 0.77937 1.5 0.397805 1.5 0 
C 1.5 -0.397805 1.341951 -0.77937 1.06066 -1.06066 
C 0.77937 -1.341951 0.397805 -1.5 0 -1.5 
C -0.397805 -1.5 -0.77937 -1.341951 -1.06066 -1.06066 
C -1.341951 -0.77937 -1.5 -0.397805 -1.5 0 
C -1.5 0.397805 -1.341951 0.77937 -1.06066 1.06066 
C -0.77937 1.341951 -0.397805 1.5 0 1.5 
z
" style="stroke: #2f4f4f"/>
    </defs>
    <g clip-path="url(#p55692cf0a2)">
     <use xlink:href="#m8073e82174" x="96.436599" y="163.810636" style="fill: #2f4f4f; stroke: #2f4f4f"/>
     <use xlink:href="#m8073e82174" x="159.489163" y="113.443062" style="fill: #2f4f4f; stroke: #2f4f4f"/>
     <use xlink:href="#m8073e82174" x="104.508791" y="114.034319" style="fill: #2f4f4f; stroke: #2f4f4f"/>
     <use xlink:href="#m8073e82174" x="88.411207" y="149.896389" style="fill: #2f4f4f; stroke: #2f4f4f"/>
     <use xlink:href="#m8073e82174" x="201.100965" y="140.098475" style="fill: #2f4f4f; stroke: #2f4f4f"/>
     <use xlink:href="#m8073e82174" x="136.787983" y="208.037248" style="fill: #2f4f4f; stroke: #2f4f4f"/>
     <use xlink:href="#m8073e82174" x="139.048473" y="160.201788" style="fill: #2f4f4f; stroke: #2f4f4f"/>
     <use xlink:href="#m8073e82174" x="98.252706" y="141.768279" style="fill: #2f4f4f; stroke: #2f4f4f"/>
     <use xlink:href="#m8073e82174" x="131.848281" y="208.647729" style="fill: #2f4f4f; stroke: #2f4f4f"/>
     <use xlink:href="#m8073e82174" x="116.038129" y="149.175797" style="fill: #2f4f4f; stroke: #2f4f4f"/>
    </g>
   </g>
   <g id="PathCollection_4">
    <defs>
     <path id="m2326789da8" d="M 0 1.5 
C 0.397805 1.5 0.77937 1.341951 1.06066 1.06066 
C 1.341951 0.77937 1.5 0.397805 1.5 0 
C 1.5 -0.397805 1.341951 -0.77937 1.06066 -1.06066 
C 0.77937 -1.341951 0.397805 -1.5 0 -1.5 
C -0.397805 -1.5 -0.77937 -1.341951 -1.06066 -1.06066 
C -1.341951 -0.77937 -1.5 -0.397805 -1.5 0 
C -1.5 0.397805 -1.341951 0.77937 -1.06066 1.06066 
C -0.77937 1.341951 -0.397805 1.5 0 1.5 
z
" style="stroke: #00bfff"/>
    </defs>
    <g clip-path="url(#p55692cf0a2)">
     <use xlink:href="#m2326789da8" x="98.252698" y="70.140974" style="fill: #00bfff; stroke: #00bfff"/>
     <use xlink:href="#m2326789da8" x="120.284416" y="113.009671" style="fill: #00bfff; stroke: #00bfff"/>
     <use xlink:href="#m2326789da8" x="149.688853" y="188.924464" style="fill: #00bfff; stroke: #00bfff"/>
     <use xlink:href="#m2326789da8" x="125.428063" y="155.531768" style="fill: #00bfff; stroke: #00bfff"/>
     <use xlink:href="#m2326789da8" x="126.316788" y="104.20851" style="fill: #00bfff; stroke: #00bfff"/>
     <use xlink:href="#m2326789da8" x="162.753967" y="101.972466" style="fill: #00bfff; stroke: #00bfff"/>
     <use xlink:href="#m2326789da8" x="88.658179" y="149.51945" style="fill: #00bfff; stroke: #00bfff"/>
     <use xlink:href="#m2326789da8" x="150.920779" y="113.691337" style="fill: #00bfff; stroke: #00bfff"/>
     <use xlink:href="#m2326789da8" x="141.491972" y="115.890162" style="fill: #00bfff; stroke: #00bfff"/>
     <use xlink:href="#m2326789da8" x="140.508743" y="160.584087" style="fill: #00bfff; stroke: #00bfff"/>
     <use xlink:href="#m2326789da8" x="214.888441" y="104.291473" style="fill: #00bfff; stroke: #00bfff"/>
     <use xlink:href="#m2326789da8" x="98.97139" y="124.487084" style="fill: #00bfff; stroke: #00bfff"/>
     <use xlink:href="#m2326789da8" x="124.57291" y="124.277952" style="fill: #00bfff; stroke: #00bfff"/>
     <use xlink:href="#m2326789da8" x="123.947738" y="140.725098" style="fill: #00bfff; stroke: #00bfff"/>
     <use xlink:href="#m2326789da8" x="113.680512" y="122.602426" style="fill: #00bfff; stroke: #00bfff"/>
     <use xlink:href="#m2326789da8" x="168.527102" y="118.266704" style="fill: #00bfff; stroke: #00bfff"/>
     <use xlink:href="#m2326789da8" x="167.780595" y="138.37907" style="fill: #00bfff; stroke: #00bfff"/>
     <use xlink:href="#m2326789da8" x="118.056324" y="86.39477" style="fill: #00bfff; stroke: #00bfff"/>
    </g>
   </g>
   <g id="PathCollection_5">
    <defs>
     <path id="m8219f09177" d="M 0 1.5 
C 0.397805 1.5 0.77937 1.341951 1.06066 1.06066 
C 1.341951 0.77937 1.5 0.397805 1.5 0 
C 1.5 -0.397805 1.341951 -0.77937 1.06066 -1.06066 
C 0.77937 -1.341951 0.397805 -1.5 0 -1.5 
C -0.397805 -1.5 -0.77937 -1.341951 -1.06066 -1.06066 
C -1.341951 -0.77937 -1.5 -0.397805 -1.5 0 
C -1.5 0.397805 -1.341951 0.77937 -1.06066 1.06066 
C -0.77937 1.341951 -0.397805 1.5 0 1.5 
z
" style="stroke: #ffff00"/>
    </defs>
    <g clip-path="url(#p55692cf0a2)">
     <use xlink:href="#m8219f09177" x="194.548826" y="138.458477" style="fill: #ffff00; stroke: #ffff00"/>
     <use xlink:href="#m8219f09177" x="83.400888" y="114.414588" style="fill: #ffff00; stroke: #ffff00"/>
     <use xlink:href="#m8219f09177" x="101.326575" y="127.976328" style="fill: #ffff00; stroke: #ffff00"/>
     <use xlink:href="#m8219f09177" x="100.722122" y="179.257998" style="fill: #ffff00; stroke: #ffff00"/>
     <use xlink:href="#m8219f09177" x="110.475944" y="117.959723" style="fill: #ffff00; stroke: #ffff00"/>
     <use xlink:href="#m8219f09177" x="103.106073" y="158.379122" style="fill: #ffff00; stroke: #ffff00"/>
     <use xlink:href="#m8219f09177" x="116.37485" y="148.27679" style="fill: #ffff00; stroke: #ffff00"/>
     <use xlink:href="#m8219f09177" x="161.943942" y="185.761664" style="fill: #ffff00; stroke: #ffff00"/>
     <use xlink:href="#m8219f09177" x="127.534812" y="169.264487" style="fill: #ffff00; stroke: #ffff00"/>
     <use xlink:href="#m8219f09177" x="149.483893" y="174.68085" style="fill: #ffff00; stroke: #ffff00"/>
     <use xlink:href="#m8219f09177" x="148.744224" y="182.794491" style="fill: #ffff00; stroke: #ffff00"/>
     <use xlink:href="#m8219f09177" x="129.206714" y="147.895595" style="fill: #ffff00; stroke: #ffff00"/>
     <use xlink:href="#m8219f09177" x="84.791349" y="119.860998" style="fill: #ffff00; stroke: #ffff00"/>
     <use xlink:href="#m8219f09177" x="151.712622" y="130.355274" style="fill: #ffff00; stroke: #ffff00"/>
     <use xlink:href="#m8219f09177" x="123.832797" y="137.505121" style="fill: #ffff00; stroke: #ffff00"/>
     <use xlink:href="#m8219f09177" x="97.787195" y="101.602054" style="fill: #ffff00; stroke: #ffff00"/>
     <use xlink:href="#m8219f09177" x="94.653142" y="133.874335" style="fill: #ffff00; stroke: #ffff00"/>
    </g>
   </g>
   <g id="PathCollection_6">
    <defs>
     <path id="m6be51de3f1" d="M 0 1.5 
C 0.397805 1.5 0.77937 1.341951 1.06066 1.06066 
C 1.341951 0.77937 1.5 0.397805 1.5 0 
C 1.5 -0.397805 1.341951 -0.77937 1.06066 -1.06066 
C 0.77937 -1.341951 0.397805 -1.5 0 -1.5 
C -0.397805 -1.5 -0.77937 -1.341951 -1.06066 -1.06066 
C -1.341951 -0.77937 -1.5 -0.397805 -1.5 0 
C -1.5 0.397805 -1.341951 0.77937 -1.06066 1.06066 
C -0.77937 1.341951 -0.397805 1.5 0 1.5 
z
" style="stroke: #00ffff"/>
    </defs>
    <g clip-path="url(#p55692cf0a2)">
     <use xlink:href="#m6be51de3f1" x="282.635151" y="140.263435" style="fill: #00ffff; stroke: #00ffff"/>
     <use xlink:href="#m6be51de3f1" x="94.438748" y="108.698505" style="fill: #00ffff; stroke: #00ffff"/>
     <use xlink:href="#m6be51de3f1" x="183.169784" y="74.93342" style="fill: #00ffff; stroke: #00ffff"/>
     <use xlink:href="#m6be51de3f1" x="133.940835" y="119.596762" style="fill: #00ffff; stroke: #00ffff"/>
     <use xlink:href="#m6be51de3f1" x="99.541625" y="154.022254" style="fill: #00ffff; stroke: #00ffff"/>
     <use xlink:href="#m6be51de3f1" x="138.11979" y="102.064669" style="fill: #00ffff; stroke: #00ffff"/>
     <use xlink:href="#m6be51de3f1" x="152.153863" y="103.811041" style="fill: #00ffff; stroke: #00ffff"/>
     <use xlink:href="#m6be51de3f1" x="127.626904" y="127.188775" style="fill: #00ffff; stroke: #00ffff"/>
     <use xlink:href="#m6be51de3f1" x="138.105244" y="109.21735" style="fill: #00ffff; stroke: #00ffff"/>
     <use xlink:href="#m6be51de3f1" x="170.59476" y="158.030497" style="fill: #00ffff; stroke: #00ffff"/>
     <use xlink:href="#m6be51de3f1" x="135.570767" y="167.013255" style="fill: #00ffff; stroke: #00ffff"/>
     <use xlink:href="#m6be51de3f1" x="112.34161" y="127.177206" style="fill: #00ffff; stroke: #00ffff"/>
     <use xlink:href="#m6be51de3f1" x="123.431999" y="139.816044" style="fill: #00ffff; stroke: #00ffff"/>
     <use xlink:href="#m6be51de3f1" x="143.599594" y="135.876822" style="fill: #00ffff; stroke: #00ffff"/>
     <use xlink:href="#m6be51de3f1" x="100.069172" y="101.183822" style="fill: #00ffff; stroke: #00ffff"/>
     <use xlink:href="#m6be51de3f1" x="140.713173" y="142.082657" style="fill: #00ffff; stroke: #00ffff"/>
     <use xlink:href="#m6be51de3f1" x="90.221773" y="91.279868" style="fill: #00ffff; stroke: #00ffff"/>
    </g>
   </g>
   <g id="PathCollection_7">
    <defs>
     <path id="mb5764b1c6e" d="M 0 1.5 
C 0.397805 1.5 0.77937 1.341951 1.06066 1.06066 
C 1.341951 0.77937 1.5 0.397805 1.5 0 
C 1.5 -0.397805 1.341951 -0.77937 1.06066 -1.06066 
C 0.77937 -1.341951 0.397805 -1.5 0 -1.5 
C -0.397805 -1.5 -0.77937 -1.341951 -1.06066 -1.06066 
C -1.341951 -0.77937 -1.5 -0.397805 -1.5 0 
C -1.5 0.397805 -1.341951 0.77937 -1.06066 1.06066 
C -0.77937 1.341951 -0.397805 1.5 0 1.5 
z
" style="stroke: #0000ff"/>
    </defs>
    <g clip-path="url(#p55692cf0a2)">
     <use xlink:href="#mb5764b1c6e" x="91.721153" y="86.236865" style="fill: #0000ff; stroke: #0000ff"/>
     <use xlink:href="#mb5764b1c6e" x="135.3746" y="135.705465" style="fill: #0000ff; stroke: #0000ff"/>
     <use xlink:href="#mb5764b1c6e" x="86.652543" y="101.14416" style="fill: #0000ff; stroke: #0000ff"/>
     <use xlink:href="#mb5764b1c6e" x="187.619147" y="118.844291" style="fill: #0000ff; stroke: #0000ff"/>
     <use xlink:href="#mb5764b1c6e" x="90.003805" y="131.880716" style="fill: #0000ff; stroke: #0000ff"/>
     <use xlink:href="#mb5764b1c6e" x="112.668587" y="130.429249" style="fill: #0000ff; stroke: #0000ff"/>
     <use xlink:href="#mb5764b1c6e" x="216.783702" y="122.638113" style="fill: #0000ff; stroke: #0000ff"/>
     <use xlink:href="#mb5764b1c6e" x="92.710269" y="146.700973" style="fill: #0000ff; stroke: #0000ff"/>
     <use xlink:href="#mb5764b1c6e" x="152.487968" y="105.010201" style="fill: #0000ff; stroke: #0000ff"/>
     <use xlink:href="#mb5764b1c6e" x="157.097878" y="150.181364" style="fill: #0000ff; stroke: #0000ff"/>
     <use xlink:href="#mb5764b1c6e" x="209.06501" y="126.339859" style="fill: #0000ff; stroke: #0000ff"/>
     <use xlink:href="#mb5764b1c6e" x="117.751576" y="108.390176" style="fill: #0000ff; stroke: #0000ff"/>
    </g>
   </g>
   <g id="PathCollection_8">
    <defs>
     <path id="m5fcdad719e" d="M 0 1.5 
C 0.397805 1.5 0.77937 1.341951 1.06066 1.06066 
C 1.341951 0.77937 1.5 0.397805 1.5 0 
C 1.5 -0.397805 1.341951 -0.77937 1.06066 -1.06066 
C 0.77937 -1.341951 0.397805 -1.5 0 -1.5 
C -0.397805 -1.5 -0.77937 -1.341951 -1.06066 -1.06066 
C -1.341951 -0.77937 -1.5 -0.397805 -1.5 0 
C -1.5 0.397805 -1.341951 0.77937 -1.06066 1.06066 
C -0.77937 1.341951 -0.397805 1.5 0 1.5 
z
" style="stroke: #dc143c"/>
    </defs>
    <g clip-path="url(#p55692cf0a2)">
     <use xlink:href="#m5fcdad719e" x="152.49242" y="155.342772" style="fill: #dc143c; stroke: #dc143c"/>
     <use xlink:href="#m5fcdad719e" x="58.055707" y="122.338798" style="fill: #dc143c; stroke: #dc143c"/>
     <use xlink:href="#m5fcdad719e" x="204.974552" y="136.490925" style="fill: #dc143c; stroke: #dc143c"/>
     <use xlink:href="#m5fcdad719e" x="88.836356" y="127.181622" style="fill: #dc143c; stroke: #dc143c"/>
     <use xlink:href="#m5fcdad719e" x="145.216608" y="154.415531" style="fill: #dc143c; stroke: #dc143c"/>
     <use xlink:href="#m5fcdad719e" x="109.760181" y="92.279072" style="fill: #dc143c; stroke: #dc143c"/>
     <use xlink:href="#m5fcdad719e" x="119.833431" y="143.766053" style="fill: #dc143c; stroke: #dc143c"/>
     <use xlink:href="#m5fcdad719e" x="51.537415" y="116.846332" style="fill: #dc143c; stroke: #dc143c"/>
     <use xlink:href="#m5fcdad719e" x="86.883331" y="59.52549" style="fill: #dc143c; stroke: #dc143c"/>
     <use xlink:href="#m5fcdad719e" x="89.180168" y="95.905943" style="fill: #dc143c; stroke: #dc143c"/>
     <use xlink:href="#m5fcdad719e" x="148.651557" y="121.923466" style="fill: #dc143c; stroke: #dc143c"/>
     <use xlink:href="#m5fcdad719e" x="194.487988" y="132.946723" style="fill: #dc143c; stroke: #dc143c"/>
     <use xlink:href="#m5fcdad719e" x="112.810425" y="158.967655" style="fill: #dc143c; stroke: #dc143c"/>
    </g>
   </g>
   <g id="PathCollection_9">
    <defs>
     <path id="m5ea8ea9c7e" d="M 0 1.5 
C 0.397805 1.5 0.77937 1.341951 1.06066 1.06066 
C 1.341951 0.77937 1.5 0.397805 1.5 0 
C 1.5 -0.397805 1.341951 -0.77937 1.06066 -1.06066 
C 0.77937 -1.341951 0.397805 -1.5 0 -1.5 
C -0.397805 -1.5 -0.77937 -1.341951 -1.06066 -1.06066 
C -1.341951 -0.77937 -1.5 -0.397805 -1.5 0 
C -1.5 0.397805 -1.341951 0.77937 -1.06066 1.06066 
C -0.77937 1.341951 -0.397805 1.5 0 1.5 
z
" style="stroke: #ffe4c4"/>
    </defs>
    <g clip-path="url(#p55692cf0a2)">
     <use xlink:href="#m5ea8ea9c7e" x="197.405932" y="222.27209" style="fill: #ffe4c4; stroke: #ffe4c4"/>
     <use xlink:href="#m5ea8ea9c7e" x="186.593245" y="166.62268" style="fill: #ffe4c4; stroke: #ffe4c4"/>
     <use xlink:href="#m5ea8ea9c7e" x="206.10985" y="224.47545" style="fill: #ffe4c4; stroke: #ffe4c4"/>
     <use xlink:href="#m5ea8ea9c7e" x="199.061222" y="194.767793" style="fill: #ffe4c4; stroke: #ffe4c4"/>
     <use xlink:href="#m5ea8ea9c7e" x="160.282581" y="201.091345" style="fill: #ffe4c4; stroke: #ffe4c4"/>
     <use xlink:href="#m5ea8ea9c7e" x="211.796583" y="204.289736" style="fill: #ffe4c4; stroke: #ffe4c4"/>
     <use xlink:href="#m5ea8ea9c7e" x="193.914263" y="251.873063" style="fill: #ffe4c4; stroke: #ffe4c4"/>
     <use xlink:href="#m5ea8ea9c7e" x="114.303179" y="176.267015" style="fill: #ffe4c4; stroke: #ffe4c4"/>
     <use xlink:href="#m5ea8ea9c7e" x="190.972496" y="214.822371" style="fill: #ffe4c4; stroke: #ffe4c4"/>
     <use xlink:href="#m5ea8ea9c7e" x="187.104411" y="212.92685" style="fill: #ffe4c4; stroke: #ffe4c4"/>
     <use xlink:href="#m5ea8ea9c7e" x="230.215538" y="215.410321" style="fill: #ffe4c4; stroke: #ffe4c4"/>
     <use xlink:href="#m5ea8ea9c7e" x="192.458271" y="228.314539" style="fill: #ffe4c4; stroke: #ffe4c4"/>
     <use xlink:href="#m5ea8ea9c7e" x="195.71579" y="202.423976" style="fill: #ffe4c4; stroke: #ffe4c4"/>
     <use xlink:href="#m5ea8ea9c7e" x="190.784709" y="238.664021" style="fill: #ffe4c4; stroke: #ffe4c4"/>
     <use xlink:href="#m5ea8ea9c7e" x="200.479725" y="255.992401" style="fill: #ffe4c4; stroke: #ffe4c4"/>
     <use xlink:href="#m5ea8ea9c7e" x="179.018741" y="227.529721" style="fill: #ffe4c4; stroke: #ffe4c4"/>
     <use xlink:href="#m5ea8ea9c7e" x="237.702398" y="195.74529" style="fill: #ffe4c4; stroke: #ffe4c4"/>
    </g>
   </g>
   <g id="PathCollection_10">
    <defs>
     <path id="mb581c5b6c9" d="M -2.99994 2.99994 
L 3.00006 2.99994 
L 3.00006 -3.00006 
L -2.99994 -3.00006 
z
" style="stroke: #000000"/>
    </defs>
    <g clip-path="url(#p55692cf0a2)">
     <use xlink:href="#mb581c5b6c9" x="338.39986" y="122.724855" style="stroke: #000000"/>
     <use xlink:href="#mb581c5b6c9" x="319.983439" y="123.162355" style="stroke: #000000"/>
     <use xlink:href="#mb581c5b6c9" x="223.889574" y="222.851331" style="stroke: #000000"/>
     <use xlink:href="#mb581c5b6c9" x="200.432013" y="201.618408" style="stroke: #000000"/>
     <use xlink:href="#mb581c5b6c9" x="299.312223" y="145.971115" style="stroke: #000000"/>
     <use xlink:href="#mb581c5b6c9" x="324.000309" y="131.58761" style="stroke: #000000"/>
     <use xlink:href="#mb581c5b6c9" x="236.22025" y="174.039413" style="stroke: #000000"/>
     <use xlink:href="#mb581c5b6c9" x="244.638266" y="94.586248" style="stroke: #000000"/>
     <use xlink:href="#mb581c5b6c9" x="244.61542" y="162.019797" style="stroke: #000000"/>
     <use xlink:href="#mb581c5b6c9" x="267.43593" y="201.405934" style="stroke: #000000"/>
     <use xlink:href="#mb581c5b6c9" x="219.320767" y="139.165638" style="stroke: #000000"/>
     <use xlink:href="#mb581c5b6c9" x="245.828707" y="90.592645" style="stroke: #000000"/>
     <use xlink:href="#mb581c5b6c9" x="305.077965" y="114.947828" style="stroke: #000000"/>
     <use xlink:href="#mb581c5b6c9" x="273.654982" y="157.481408" style="stroke: #000000"/>
     <use xlink:href="#mb581c5b6c9" x="226.428216" y="168.129764" style="stroke: #000000"/>
     <use xlink:href="#mb581c5b6c9" x="314.138172" y="140.826457" style="stroke: #000000"/>
     <use xlink:href="#mb581c5b6c9" x="371.097375" y="111.613809" style="stroke: #000000"/>
     <use xlink:href="#mb581c5b6c9" x="288.061022" y="169.170998" style="stroke: #000000"/>
     <use xlink:href="#mb581c5b6c9" x="228.249395" y="92.792678" style="stroke: #000000"/>
     <use xlink:href="#mb581c5b6c9" x="173.79065" y="129.66864" style="stroke: #000000"/>
     <use xlink:href="#mb581c5b6c9" x="325.028408" y="115.764327" style="stroke: #000000"/>
     <use xlink:href="#mb581c5b6c9" x="233.59513" y="193.491882" style="stroke: #000000"/>
     <use xlink:href="#mb581c5b6c9" x="266.12204" y="160.483865" style="stroke: #000000"/>
     <use xlink:href="#mb581c5b6c9" x="253.002353" y="114.650405" style="stroke: #000000"/>
     <use xlink:href="#mb581c5b6c9" x="317.54145" y="133.175242" style="stroke: #000000"/>
     <use xlink:href="#mb581c5b6c9" x="193.499753" y="196.869717" style="stroke: #000000"/>
     <use xlink:href="#mb581c5b6c9" x="215.005717" y="201.713595" style="stroke: #000000"/>
     <use xlink:href="#mb581c5b6c9" x="350.174153" y="125.232222" style="stroke: #000000"/>
     <use xlink:href="#mb581c5b6c9" x="291.365842" y="192.006127" style="stroke: #000000"/>
     <use xlink:href="#mb581c5b6c9" x="325.713739" y="19.296" style="stroke: #000000"/>
     <use xlink:href="#mb581c5b6c9" x="260.665399" y="124.613084" style="stroke: #000000"/>
     <use xlink:href="#mb581c5b6c9" x="304.33511" y="191.411208" style="stroke: #000000"/>
     <use xlink:href="#mb581c5b6c9" x="290.327999" y="104.051378" style="stroke: #000000"/>
     <use xlink:href="#mb581c5b6c9" x="237.145518" y="203.792924" style="stroke: #000000"/>
     <use xlink:href="#mb581c5b6c9" x="246.871328" y="130.272709" style="stroke: #000000"/>
     <use xlink:href="#mb581c5b6c9" x="221.392195" y="121.470909" style="stroke: #000000"/>
     <use xlink:href="#mb581c5b6c9" x="319.93361" y="136.44229" style="stroke: #000000"/>
     <use xlink:href="#mb581c5b6c9" x="250.948198" y="199.519509" style="stroke: #000000"/>
     <use xlink:href="#mb581c5b6c9" x="376.19196" y="98.680975" style="stroke: #000000"/>
     <use xlink:href="#mb581c5b6c9" x="307.446827" y="141.074068" style="stroke: #000000"/>
     <use xlink:href="#mb581c5b6c9" x="330.815735" y="111.555308" style="stroke: #000000"/>
     <use xlink:href="#mb581c5b6c9" x="254.240533" y="155.232654" style="stroke: #000000"/>
     <use xlink:href="#mb581c5b6c9" x="350.205816" y="113.392811" style="stroke: #000000"/>
     <use xlink:href="#mb581c5b6c9" x="212.777575" y="117.651203" style="stroke: #000000"/>
     <use xlink:href="#mb581c5b6c9" x="237.10926" y="181.78433" style="stroke: #000000"/>
     <use xlink:href="#mb581c5b6c9" x="211.256435" y="173.16287" style="stroke: #000000"/>
     <use xlink:href="#mb581c5b6c9" x="342.977458" y="99.557044" style="stroke: #000000"/>
     <use xlink:href="#mb581c5b6c9" x="208.372893" y="134.771096" style="stroke: #000000"/>
     <use xlink:href="#mb581c5b6c9" x="262.136245" y="141.23764" style="stroke: #000000"/>
     <use xlink:href="#mb581c5b6c9" x="224.228008" y="197.386253" style="stroke: #000000"/>
     <use xlink:href="#mb581c5b6c9" x="199.778074" y="192.353883" style="stroke: #000000"/>
     <use xlink:href="#mb581c5b6c9" x="312.723507" y="95.313699" style="stroke: #000000"/>
     <use xlink:href="#mb581c5b6c9" x="234.218208" y="114.921708" style="stroke: #000000"/>
     <use xlink:href="#mb581c5b6c9" x="250.304025" y="178.10871" style="stroke: #000000"/>
     <use xlink:href="#mb581c5b6c9" x="217.989978" y="128.625009" style="stroke: #000000"/>
     <use xlink:href="#mb581c5b6c9" x="175.368725" y="206.284441" style="stroke: #000000"/>
     <use xlink:href="#mb581c5b6c9" x="321.994763" y="181.415535" style="stroke: #000000"/>
     <use xlink:href="#mb581c5b6c9" x="194.092017" y="218.7106" style="stroke: #000000"/>
     <use xlink:href="#mb581c5b6c9" x="230.305867" y="174.253653" style="stroke: #000000"/>
     <use xlink:href="#mb581c5b6c9" x="307.184931" y="136.302002" style="stroke: #000000"/>
     <use xlink:href="#mb581c5b6c9" x="221.885064" y="87.949386" style="stroke: #000000"/>
     <use xlink:href="#mb581c5b6c9" x="309.86906" y="185.43227" style="stroke: #000000"/>
     <use xlink:href="#mb581c5b6c9" x="325.710312" y="131.693605" style="stroke: #000000"/>
     <use xlink:href="#mb581c5b6c9" x="181.381129" y="78.350619" style="stroke: #000000"/>
    </g>
   </g>
   <g id="PathCollection_11">
    <defs>
     <path id="m828d657f76" d="M -3 -0 
L 3 3 
L 3 -3 
z
" style="stroke: #ff8c00"/>
    </defs>
    <g clip-path="url(#p55692cf0a2)">
     <use xlink:href="#m828d657f76" x="245.232693" y="98.34159" style="fill: #ff8c00; stroke: #ff8c00"/>
     <use xlink:href="#m828d657f76" x="178.80772" y="209.395474" style="fill: #ff8c00; stroke: #ff8c00"/>
     <use xlink:href="#m828d657f76" x="145.328008" y="142.685357" style="fill: #ff8c00; stroke: #ff8c00"/>
     <use xlink:href="#m828d657f76" x="300.623665" y="126.318912" style="fill: #ff8c00; stroke: #ff8c00"/>
     <use xlink:href="#m828d657f76" x="240.739601" y="123.932198" style="fill: #ff8c00; stroke: #ff8c00"/>
     <use xlink:href="#m828d657f76" x="167.191623" y="198.322007" style="fill: #ff8c00; stroke: #ff8c00"/>
     <use xlink:href="#m828d657f76" x="176.924553" y="189.690487" style="fill: #ff8c00; stroke: #ff8c00"/>
     <use xlink:href="#m828d657f76" x="226.422832" y="186.050433" style="fill: #ff8c00; stroke: #ff8c00"/>
     <use xlink:href="#m828d657f76" x="256.318064" y="123.280719" style="fill: #ff8c00; stroke: #ff8c00"/>
     <use xlink:href="#m828d657f76" x="228.226015" y="132.963616" style="fill: #ff8c00; stroke: #ff8c00"/>
     <use xlink:href="#m828d657f76" x="174.483301" y="160.182913" style="fill: #ff8c00; stroke: #ff8c00"/>
     <use xlink:href="#m828d657f76" x="191.816604" y="113.334663" style="fill: #ff8c00; stroke: #ff8c00"/>
     <use xlink:href="#m828d657f76" x="227.483392" y="68.543451" style="fill: #ff8c00; stroke: #ff8c00"/>
     <use xlink:href="#m828d657f76" x="174.065401" y="205.766007" style="fill: #ff8c00; stroke: #ff8c00"/>
     <use xlink:href="#m828d657f76" x="228.91945" y="135.903617" style="fill: #ff8c00; stroke: #ff8c00"/>
     <use xlink:href="#m828d657f76" x="182.578763" y="222.144019" style="fill: #ff8c00; stroke: #ff8c00"/>
     <use xlink:href="#m828d657f76" x="186.002616" y="196.185684" style="fill: #ff8c00; stroke: #ff8c00"/>
     <use xlink:href="#m828d657f76" x="214.437514" y="168.183715" style="fill: #ff8c00; stroke: #ff8c00"/>
     <use xlink:href="#m828d657f76" x="147.912419" y="156.041664" style="fill: #ff8c00; stroke: #ff8c00"/>
     <use xlink:href="#m828d657f76" x="223.001045" y="195.461337" style="fill: #ff8c00; stroke: #ff8c00"/>
     <use xlink:href="#m828d657f76" x="217.93792" y="177.495776" style="fill: #ff8c00; stroke: #ff8c00"/>
     <use xlink:href="#m828d657f76" x="106.202579" y="135.47036" style="fill: #ff8c00; stroke: #ff8c00"/>
     <use xlink:href="#m828d657f76" x="134.909579" y="147.829195" style="fill: #ff8c00; stroke: #ff8c00"/>
     <use xlink:href="#m828d657f76" x="331.762685" y="41.258967" style="fill: #ff8c00; stroke: #ff8c00"/>
     <use xlink:href="#m828d657f76" x="196.650742" y="156.19104" style="fill: #ff8c00; stroke: #ff8c00"/>
     <use xlink:href="#m828d657f76" x="217.166481" y="110.430101" style="fill: #ff8c00; stroke: #ff8c00"/>
     <use xlink:href="#m828d657f76" x="231.334636" y="174.012047" style="fill: #ff8c00; stroke: #ff8c00"/>
     <use xlink:href="#m828d657f76" x="186.188365" y="126.661672" style="fill: #ff8c00; stroke: #ff8c00"/>
     <use xlink:href="#m828d657f76" x="236.162326" y="166.243921" style="fill: #ff8c00; stroke: #ff8c00"/>
     <use xlink:href="#m828d657f76" x="232.545764" y="138.892059" style="fill: #ff8c00; stroke: #ff8c00"/>
     <use xlink:href="#m828d657f76" x="240.35446" y="176.556085" style="fill: #ff8c00; stroke: #ff8c00"/>
     <use xlink:href="#m828d657f76" x="208.123585" y="146.19243" style="fill: #ff8c00; stroke: #ff8c00"/>
     <use xlink:href="#m828d657f76" x="227.575682" y="190.559073" style="fill: #ff8c00; stroke: #ff8c00"/>
     <use xlink:href="#m828d657f76" x="323.372215" y="77.046038" style="fill: #ff8c00; stroke: #ff8c00"/>
     <use xlink:href="#m828d657f76" x="152.663706" y="153.147945" style="fill: #ff8c00; stroke: #ff8c00"/>
     <use xlink:href="#m828d657f76" x="189.225207" y="126.919172" style="fill: #ff8c00; stroke: #ff8c00"/>
     <use xlink:href="#m828d657f76" x="140.159696" y="148.015613" style="fill: #ff8c00; stroke: #ff8c00"/>
     <use xlink:href="#m828d657f76" x="258.304122" y="90.371026" style="fill: #ff8c00; stroke: #ff8c00"/>
     <use xlink:href="#m828d657f76" x="203.989721" y="164.822851" style="fill: #ff8c00; stroke: #ff8c00"/>
     <use xlink:href="#m828d657f76" x="194.095763" y="168.0662" style="fill: #ff8c00; stroke: #ff8c00"/>
     <use xlink:href="#m828d657f76" x="195.855959" y="171.664491" style="fill: #ff8c00; stroke: #ff8c00"/>
     <use xlink:href="#m828d657f76" x="186.006825" y="87.408153" style="fill: #ff8c00; stroke: #ff8c00"/>
     <use xlink:href="#m828d657f76" x="189.556588" y="182.355255" style="fill: #ff8c00; stroke: #ff8c00"/>
     <use xlink:href="#m828d657f76" x="186.522577" y="185.434296" style="fill: #ff8c00; stroke: #ff8c00"/>
     <use xlink:href="#m828d657f76" x="190.590499" y="164.768334" style="fill: #ff8c00; stroke: #ff8c00"/>
     <use xlink:href="#m828d657f76" x="224.162708" y="184.526128" style="fill: #ff8c00; stroke: #ff8c00"/>
     <use xlink:href="#m828d657f76" x="216.44428" y="86.989469" style="fill: #ff8c00; stroke: #ff8c00"/>
     <use xlink:href="#m828d657f76" x="243.236637" y="115.044776" style="fill: #ff8c00; stroke: #ff8c00"/>
     <use xlink:href="#m828d657f76" x="147.420611" y="135.98736" style="fill: #ff8c00; stroke: #ff8c00"/>
     <use xlink:href="#m828d657f76" x="162.527283" y="165.122738" style="fill: #ff8c00; stroke: #ff8c00"/>
     <use xlink:href="#m828d657f76" x="174.275213" y="149.935254" style="fill: #ff8c00; stroke: #ff8c00"/>
     <use xlink:href="#m828d657f76" x="183.239365" y="215.199586" style="fill: #ff8c00; stroke: #ff8c00"/>
     <use xlink:href="#m828d657f76" x="209.643644" y="172.73598" style="fill: #ff8c00; stroke: #ff8c00"/>
     <use xlink:href="#m828d657f76" x="164.229156" y="152.913796" style="fill: #ff8c00; stroke: #ff8c00"/>
     <use xlink:href="#m828d657f76" x="268.874089" y="140.898864" style="fill: #ff8c00; stroke: #ff8c00"/>
     <use xlink:href="#m828d657f76" x="200.978357" y="100.214847" style="fill: #ff8c00; stroke: #ff8c00"/>
     <use xlink:href="#m828d657f76" x="118.97672" y="107.818769" style="fill: #ff8c00; stroke: #ff8c00"/>
     <use xlink:href="#m828d657f76" x="214.185585" y="82.580548" style="fill: #ff8c00; stroke: #ff8c00"/>
     <use xlink:href="#m828d657f76" x="189.224878" y="178.089769" style="fill: #ff8c00; stroke: #ff8c00"/>
     <use xlink:href="#m828d657f76" x="189.405873" y="181.783726" style="fill: #ff8c00; stroke: #ff8c00"/>
     <use xlink:href="#m828d657f76" x="220.386872" y="107.685768" style="fill: #ff8c00; stroke: #ff8c00"/>
     <use xlink:href="#m828d657f76" x="193.005255" y="186.046517" style="fill: #ff8c00; stroke: #ff8c00"/>
     <use xlink:href="#m828d657f76" x="212.15225" y="160.457679" style="fill: #ff8c00; stroke: #ff8c00"/>
     <use xlink:href="#m828d657f76" x="175.065443" y="179.4908" style="fill: #ff8c00; stroke: #ff8c00"/>
    </g>
   </g>
   <g id="matplotlib.axis_1">
    <g id="xtick_1">
     <g id="line2d_1">
      <defs>
       <path id="m53ef8fb2d9" d="M 0 0 
L 0 3.5 
" style="stroke: #000000; stroke-width: 0.8"/>
      </defs>
      <g>
       <use xlink:href="#m53ef8fb2d9" x="65.222991" y="273.312" style="stroke: #000000; stroke-width: 0.8"/>
      </g>
     </g>
     <g id="text_1">
      <!-- −15 -->
      <g transform="translate(54.670648 287.910437) scale(0.1 -0.1)">
       <defs>
        <path id="DejaVuSans-2212" d="M 678 2272 
L 4684 2272 
L 4684 1741 
L 678 1741 
L 678 2272 
z
" transform="scale(0.015625)"/>
        <path id="DejaVuSans-31" d="M 794 531 
L 1825 531 
L 1825 4091 
L 703 3866 
L 703 4441 
L 1819 4666 
L 2450 4666 
L 2450 531 
L 3481 531 
L 3481 0 
L 794 0 
L 794 531 
z
" transform="scale(0.015625)"/>
        <path id="DejaVuSans-35" d="M 691 4666 
L 3169 4666 
L 3169 4134 
L 1269 4134 
L 1269 2991 
Q 1406 3038 1543 3061 
Q 1681 3084 1819 3084 
Q 2600 3084 3056 2656 
Q 3513 2228 3513 1497 
Q 3513 744 3044 326 
Q 2575 -91 1722 -91 
Q 1428 -91 1123 -41 
Q 819 9 494 109 
L 494 744 
Q 775 591 1075 516 
Q 1375 441 1709 441 
Q 2250 441 2565 725 
Q 2881 1009 2881 1497 
Q 2881 1984 2565 2268 
Q 2250 2553 1709 2553 
Q 1456 2553 1204 2497 
Q 953 2441 691 2322 
L 691 4666 
z
" transform="scale(0.015625)"/>
       </defs>
       <use xlink:href="#DejaVuSans-2212"/>
       <use xlink:href="#DejaVuSans-31" x="83.789062"/>
       <use xlink:href="#DejaVuSans-35" x="147.412109"/>
      </g>
     </g>
    </g>
    <g id="xtick_2">
     <g id="line2d_2">
      <g>
       <use xlink:href="#m53ef8fb2d9" x="108.0078" y="273.312" style="stroke: #000000; stroke-width: 0.8"/>
      </g>
     </g>
     <g id="text_2">
      <!-- −10 -->
      <g transform="translate(97.455457 287.910437) scale(0.1 -0.1)">
       <defs>
        <path id="DejaVuSans-30" d="M 2034 4250 
Q 1547 4250 1301 3770 
Q 1056 3291 1056 2328 
Q 1056 1369 1301 889 
Q 1547 409 2034 409 
Q 2525 409 2770 889 
Q 3016 1369 3016 2328 
Q 3016 3291 2770 3770 
Q 2525 4250 2034 4250 
z
M 2034 4750 
Q 2819 4750 3233 4129 
Q 3647 3509 3647 2328 
Q 3647 1150 3233 529 
Q 2819 -91 2034 -91 
Q 1250 -91 836 529 
Q 422 1150 422 2328 
Q 422 3509 836 4129 
Q 1250 4750 2034 4750 
z
" transform="scale(0.015625)"/>
       </defs>
       <use xlink:href="#DejaVuSans-2212"/>
       <use xlink:href="#DejaVuSans-31" x="83.789062"/>
       <use xlink:href="#DejaVuSans-30" x="147.412109"/>
      </g>
     </g>
    </g>
    <g id="xtick_3">
     <g id="line2d_3">
      <g>
       <use xlink:href="#m53ef8fb2d9" x="150.792609" y="273.312" style="stroke: #000000; stroke-width: 0.8"/>
      </g>
     </g>
     <g id="text_3">
      <!-- −5 -->
      <g transform="translate(143.421515 287.910437) scale(0.1 -0.1)">
       <use xlink:href="#DejaVuSans-2212"/>
       <use xlink:href="#DejaVuSans-35" x="83.789062"/>
      </g>
     </g>
    </g>
    <g id="xtick_4">
     <g id="line2d_4">
      <g>
       <use xlink:href="#m53ef8fb2d9" x="193.577418" y="273.312" style="stroke: #000000; stroke-width: 0.8"/>
      </g>
     </g>
     <g id="text_4">
      <!-- 0 -->
      <g transform="translate(190.396168 287.910437) scale(0.1 -0.1)">
       <use xlink:href="#DejaVuSans-30"/>
      </g>
     </g>
    </g>
    <g id="xtick_5">
     <g id="line2d_5">
      <g>
       <use xlink:href="#m53ef8fb2d9" x="236.362227" y="273.312" style="stroke: #000000; stroke-width: 0.8"/>
      </g>
     </g>
     <g id="text_5">
      <!-- 5 -->
      <g transform="translate(233.180977 287.910437) scale(0.1 -0.1)">
       <use xlink:href="#DejaVuSans-35"/>
      </g>
     </g>
    </g>
    <g id="xtick_6">
     <g id="line2d_6">
      <g>
       <use xlink:href="#m53ef8fb2d9" x="279.147036" y="273.312" style="stroke: #000000; stroke-width: 0.8"/>
      </g>
     </g>
     <g id="text_6">
      <!-- 10 -->
      <g transform="translate(272.784536 287.910437) scale(0.1 -0.1)">
       <use xlink:href="#DejaVuSans-31"/>
       <use xlink:href="#DejaVuSans-30" x="63.623047"/>
      </g>
     </g>
    </g>
    <g id="xtick_7">
     <g id="line2d_7">
      <g>
       <use xlink:href="#m53ef8fb2d9" x="321.931845" y="273.312" style="stroke: #000000; stroke-width: 0.8"/>
      </g>
     </g>
     <g id="text_7">
      <!-- 15 -->
      <g transform="translate(315.569345 287.910437) scale(0.1 -0.1)">
       <use xlink:href="#DejaVuSans-31"/>
       <use xlink:href="#DejaVuSans-35" x="63.623047"/>
      </g>
     </g>
    </g>
    <g id="xtick_8">
     <g id="line2d_8">
      <g>
       <use xlink:href="#m53ef8fb2d9" x="364.716654" y="273.312" style="stroke: #000000; stroke-width: 0.8"/>
      </g>
     </g>
     <g id="text_8">
      <!-- 20 -->
      <g transform="translate(358.354154 287.910437) scale(0.1 -0.1)">
       <defs>
        <path id="DejaVuSans-32" d="M 1228 531 
L 3431 531 
L 3431 0 
L 469 0 
L 469 531 
Q 828 903 1448 1529 
Q 2069 2156 2228 2338 
Q 2531 2678 2651 2914 
Q 2772 3150 2772 3378 
Q 2772 3750 2511 3984 
Q 2250 4219 1831 4219 
Q 1534 4219 1204 4116 
Q 875 4013 500 3803 
L 500 4441 
Q 881 4594 1212 4672 
Q 1544 4750 1819 4750 
Q 2544 4750 2975 4387 
Q 3406 4025 3406 3419 
Q 3406 3131 3298 2873 
Q 3191 2616 2906 2266 
Q 2828 2175 2409 1742 
Q 1991 1309 1228 531 
z
" transform="scale(0.015625)"/>
       </defs>
       <use xlink:href="#DejaVuSans-32"/>
       <use xlink:href="#DejaVuSans-30" x="63.623047"/>
      </g>
     </g>
    </g>
   </g>
   <g id="matplotlib.axis_2">
    <g id="ytick_1">
     <g id="line2d_9">
      <defs>
       <path id="m4e6e4a87bc" d="M 0 0 
L -3.5 0 
" style="stroke: #000000; stroke-width: 0.8"/>
      </defs>
      <g>
       <use xlink:href="#m4e6e4a87bc" x="35.304688" y="250.124079" style="stroke: #000000; stroke-width: 0.8"/>
      </g>
     </g>
     <g id="text_9">
      <!-- −15 -->
      <g transform="translate(7.2 253.923298) scale(0.1 -0.1)">
       <use xlink:href="#DejaVuSans-2212"/>
       <use xlink:href="#DejaVuSans-31" x="83.789062"/>
       <use xlink:href="#DejaVuSans-35" x="147.412109"/>
      </g>
     </g>
    </g>
    <g id="ytick_2">
     <g id="line2d_10">
      <g>
       <use xlink:href="#m4e6e4a87bc" x="35.304688" y="216.772885" style="stroke: #000000; stroke-width: 0.8"/>
      </g>
     </g>
     <g id="text_10">
      <!-- −10 -->
      <g transform="translate(7.2 220.572103) scale(0.1 -0.1)">
       <use xlink:href="#DejaVuSans-2212"/>
       <use xlink:href="#DejaVuSans-31" x="83.789062"/>
       <use xlink:href="#DejaVuSans-30" x="147.412109"/>
      </g>
     </g>
    </g>
    <g id="ytick_3">
     <g id="line2d_11">
      <g>
       <use xlink:href="#m4e6e4a87bc" x="35.304688" y="183.42169" style="stroke: #000000; stroke-width: 0.8"/>
      </g>
     </g>
     <g id="text_11">
      <!-- −5 -->
      <g transform="translate(13.5625 187.220909) scale(0.1 -0.1)">
       <use xlink:href="#DejaVuSans-2212"/>
       <use xlink:href="#DejaVuSans-35" x="83.789062"/>
      </g>
     </g>
    </g>
    <g id="ytick_4">
     <g id="line2d_12">
      <g>
       <use xlink:href="#m4e6e4a87bc" x="35.304688" y="150.070496" style="stroke: #000000; stroke-width: 0.8"/>
      </g>
     </g>
     <g id="text_12">
      <!-- 0 -->
      <g transform="translate(21.942187 153.869715) scale(0.1 -0.1)">
       <use xlink:href="#DejaVuSans-30"/>
      </g>
     </g>
    </g>
    <g id="ytick_5">
     <g id="line2d_13">
      <g>
       <use xlink:href="#m4e6e4a87bc" x="35.304688" y="116.719301" style="stroke: #000000; stroke-width: 0.8"/>
      </g>
     </g>
     <g id="text_13">
      <!-- 5 -->
      <g transform="translate(21.942187 120.51852) scale(0.1 -0.1)">
       <use xlink:href="#DejaVuSans-35"/>
      </g>
     </g>
    </g>
    <g id="ytick_6">
     <g id="line2d_14">
      <g>
       <use xlink:href="#m4e6e4a87bc" x="35.304688" y="83.368107" style="stroke: #000000; stroke-width: 0.8"/>
      </g>
     </g>
     <g id="text_14">
      <!-- 10 -->
      <g transform="translate(15.579687 87.167326) scale(0.1 -0.1)">
       <use xlink:href="#DejaVuSans-31"/>
       <use xlink:href="#DejaVuSans-30" x="63.623047"/>
      </g>
     </g>
    </g>
    <g id="ytick_7">
     <g id="line2d_15">
      <g>
       <use xlink:href="#m4e6e4a87bc" x="35.304688" y="50.016913" style="stroke: #000000; stroke-width: 0.8"/>
      </g>
     </g>
     <g id="text_15">
      <!-- 15 -->
      <g transform="translate(15.579687 53.816131) scale(0.1 -0.1)">
       <use xlink:href="#DejaVuSans-31"/>
       <use xlink:href="#DejaVuSans-35" x="63.623047"/>
      </g>
     </g>
    </g>
    <g id="ytick_8">
     <g id="line2d_16">
      <g>
       <use xlink:href="#m4e6e4a87bc" x="35.304688" y="16.665718" style="stroke: #000000; stroke-width: 0.8"/>
      </g>
     </g>
     <g id="text_16">
      <!-- 20 -->
      <g transform="translate(15.579687 20.464937) scale(0.1 -0.1)">
       <use xlink:href="#DejaVuSans-32"/>
       <use xlink:href="#DejaVuSans-30" x="63.623047"/>
      </g>
     </g>
    </g>
   </g>
   <g id="patch_3">
    <path d="M 35.304688 273.312 
L 35.304688 7.2 
" style="fill: none; stroke: #000000; stroke-width: 0.8; stroke-linejoin: miter; stroke-linecap: square"/>
   </g>
   <g id="patch_4">
    <path d="M 392.424688 273.312 
L 392.424688 7.2 
" style="fill: none; stroke: #000000; stroke-width: 0.8; stroke-linejoin: miter; stroke-linecap: square"/>
   </g>
   <g id="patch_5">
    <path d="M 35.304688 273.312 
L 392.424688 273.312 
" style="fill: none; stroke: #000000; stroke-width: 0.8; stroke-linejoin: miter; stroke-linecap: square"/>
   </g>
   <g id="patch_6">
    <path d="M 35.304688 7.2 
L 392.424688 7.2 
" style="fill: none; stroke: #000000; stroke-width: 0.8; stroke-linejoin: miter; stroke-linecap: square"/>
   </g>
  </g>
 </g>
 <defs>
  <clipPath id="p55692cf0a2">
   <rect x="35.304688" y="7.2" width="357.12" height="266.112"/>
  </clipPath>
 </defs>
</svg>
