<?xml version="1.0" encoding="utf-8" standalone="no"?>
<!DOCTYPE svg PUBLIC "-//W3C//DTD SVG 1.1//EN"
  "http://www.w3.org/Graphics/SVG/1.1/DTD/svg11.dtd">
<svg xmlns:xlink="http://www.w3.org/1999/xlink" width="399.624687pt" height="297.583282pt" viewBox="0 0 399.624687 297.583282" xmlns="http://www.w3.org/2000/svg" version="1.1">
 <metadata>
  <rdf:RDF xmlns:dc="http://purl.org/dc/elements/1.1/" xmlns:cc="http://creativecommons.org/ns#" xmlns:rdf="http://www.w3.org/1999/02/22-rdf-syntax-ns#">
   <cc:Work>
    <dc:type rdf:resource="http://purl.org/dc/dcmitype/StillImage"/>
    <dc:date>2023-11-13T08:34:09.604403</dc:date>
    <dc:format>image/svg+xml</dc:format>
    <dc:creator>
     <cc:Agent>
      <dc:title>Matplotlib v3.8.0, https://matplotlib.org/</dc:title>
     </cc:Agent>
    </dc:creator>
   </cc:Work>
  </rdf:RDF>
 </metadata>
 <defs>
  <style type="text/css">*{stroke-linejoin: round; stroke-linecap: butt}</style>
 </defs>
 <g id="figure_1">
  <g id="patch_1">
   <path d="M 0 297.583282 
L 399.624687 297.583282 
L 399.624687 0 
L 0 0 
z
" style="fill: #ffffff"/>
  </g>
  <g id="axes_1">
   <g id="patch_2">
    <path d="M 35.304688 273.705157 
L 392.424688 273.705157 
L 392.424688 7.593157 
L 35.304688 7.593157 
z
" style="fill: #ffffff"/>
   </g>
   <g id="PathCollection_1">
    <defs>
     <path id="mdce6d541a4" d="M 0 1.5 
C 0.397805 1.5 0.77937 1.341951 1.06066 1.06066 
C 1.341951 0.77937 1.5 0.397805 1.5 0 
C 1.5 -0.397805 1.341951 -0.77937 1.06066 -1.06066 
C 0.77937 -1.341951 0.397805 -1.5 0 -1.5 
C -0.397805 -1.5 -0.77937 -1.341951 -1.06066 -1.06066 
C -1.341951 -0.77937 -1.5 -0.397805 -1.5 0 
C -1.5 0.397805 -1.341951 0.77937 -1.06066 1.06066 
C -0.77937 1.341951 -0.397805 1.5 0 1.5 
z
" style="stroke: #ff8c00"/>
    </defs>
    <g clip-path="url(#pe60ce30dfc)">
     <use xlink:href="#mdce6d541a4" x="213.218836" y="107.514953" style="fill: #ff8c00; stroke: #ff8c00"/>
     <use xlink:href="#mdce6d541a4" x="164.080564" y="63.18938" style="fill: #ff8c00; stroke: #ff8c00"/>
     <use xlink:href="#mdce6d541a4" x="144.076229" y="89.084173" style="fill: #ff8c00; stroke: #ff8c00"/>
     <use xlink:href="#mdce6d541a4" x="92.621209" y="72.864357" style="fill: #ff8c00; stroke: #ff8c00"/>
     <use xlink:href="#mdce6d541a4" x="180.599091" y="31.456687" style="fill: #ff8c00; stroke: #ff8c00"/>
     <use xlink:href="#mdce6d541a4" x="209.412197" y="107.946332" style="fill: #ff8c00; stroke: #ff8c00"/>
     <use xlink:href="#mdce6d541a4" x="110.035762" y="97.516086" style="fill: #ff8c00; stroke: #ff8c00"/>
     <use xlink:href="#mdce6d541a4" x="208.559714" y="113.993982" style="fill: #ff8c00; stroke: #ff8c00"/>
     <use xlink:href="#mdce6d541a4" x="133.745936" y="122.598889" style="fill: #ff8c00; stroke: #ff8c00"/>
     <use xlink:href="#mdce6d541a4" x="152.098174" y="134.648886" style="fill: #ff8c00; stroke: #ff8c00"/>
     <use xlink:href="#mdce6d541a4" x="172.335633" y="107.083648" style="fill: #ff8c00; stroke: #ff8c00"/>
    </g>
   </g>
   <g id="PathCollection_2">
    <defs>
     <path id="m182ba9311b" d="M 0 1.5 
C 0.397805 1.5 0.77937 1.341951 1.06066 1.06066 
C 1.341951 0.77937 1.5 0.397805 1.5 0 
C 1.5 -0.397805 1.341951 -0.77937 1.06066 -1.06066 
C 0.77937 -1.341951 0.397805 -1.5 0 -1.5 
C -0.397805 -1.5 -0.77937 -1.341951 -1.06066 -1.06066 
C -1.341951 -0.77937 -1.5 -0.397805 -1.5 0 
C -1.5 0.397805 -1.341951 0.77937 -1.06066 1.06066 
C -0.77937 1.341951 -0.397805 1.5 0 1.5 
z
" style="stroke: #006400"/>
    </defs>
    <g clip-path="url(#pe60ce30dfc)">
     <use xlink:href="#m182ba9311b" x="172.934353" y="133.114851" style="fill: #006400; stroke: #006400"/>
     <use xlink:href="#m182ba9311b" x="178.017705" y="69.375184" style="fill: #006400; stroke: #006400"/>
     <use xlink:href="#m182ba9311b" x="203.824714" y="168.324366" style="fill: #006400; stroke: #006400"/>
     <use xlink:href="#m182ba9311b" x="276.3013" y="169.609574" style="fill: #006400; stroke: #006400"/>
     <use xlink:href="#m182ba9311b" x="204.957528" y="125.967441" style="fill: #006400; stroke: #006400"/>
     <use xlink:href="#m182ba9311b" x="335.149728" y="38.736847" style="fill: #006400; stroke: #006400"/>
     <use xlink:href="#m182ba9311b" x="376.19196" y="181.495265" style="fill: #006400; stroke: #006400"/>
     <use xlink:href="#m182ba9311b" x="292.141126" y="117.265468" style="fill: #006400; stroke: #006400"/>
     <use xlink:href="#m182ba9311b" x="128.266688" y="147.624071" style="fill: #006400; stroke: #006400"/>
     <use xlink:href="#m182ba9311b" x="309.684842" y="24.482117" style="fill: #006400; stroke: #006400"/>
     <use xlink:href="#m182ba9311b" x="285.928371" y="21.573629" style="fill: #006400; stroke: #006400"/>
     <use xlink:href="#m182ba9311b" x="293.296675" y="118.937919" style="fill: #006400; stroke: #006400"/>
     <use xlink:href="#m182ba9311b" x="315.699553" y="19.689157" style="fill: #006400; stroke: #006400"/>
     <use xlink:href="#m182ba9311b" x="302.012836" y="99.382787" style="fill: #006400; stroke: #006400"/>
     <use xlink:href="#m182ba9311b" x="180.930026" y="138.592552" style="fill: #006400; stroke: #006400"/>
     <use xlink:href="#m182ba9311b" x="276.465762" y="175.460973" style="fill: #006400; stroke: #006400"/>
     <use xlink:href="#m182ba9311b" x="272.204082" y="127.499163" style="fill: #006400; stroke: #006400"/>
     <use xlink:href="#m182ba9311b" x="160.589998" y="163.380741" style="fill: #006400; stroke: #006400"/>
     <use xlink:href="#m182ba9311b" x="153.471934" y="80.946718" style="fill: #006400; stroke: #006400"/>
    </g>
   </g>
   <g id="PathCollection_3">
    <defs>
     <path id="mc56e252bbf" d="M 0 1.5 
C 0.397805 1.5 0.77937 1.341951 1.06066 1.06066 
C 1.341951 0.77937 1.5 0.397805 1.5 0 
C 1.5 -0.397805 1.341951 -0.77937 1.06066 -1.06066 
C 0.77937 -1.341951 0.397805 -1.5 0 -1.5 
C -0.397805 -1.5 -0.77937 -1.341951 -1.06066 -1.06066 
C -1.341951 -0.77937 -1.5 -0.397805 -1.5 0 
C -1.5 0.397805 -1.341951 0.77937 -1.06066 1.06066 
C -0.77937 1.341951 -0.397805 1.5 0 1.5 
z
" style="stroke: #2f4f4f"/>
    </defs>
    <g clip-path="url(#pe60ce30dfc)">
     <use xlink:href="#mc56e252bbf" x="87.097179" y="116.764341" style="fill: #2f4f4f; stroke: #2f4f4f"/>
     <use xlink:href="#mc56e252bbf" x="137.432632" y="148.923591" style="fill: #2f4f4f; stroke: #2f4f4f"/>
     <use xlink:href="#mc56e252bbf" x="84.96023" y="119.729403" style="fill: #2f4f4f; stroke: #2f4f4f"/>
     <use xlink:href="#mc56e252bbf" x="109.942934" y="170.032474" style="fill: #2f4f4f; stroke: #2f4f4f"/>
     <use xlink:href="#mc56e252bbf" x="53.489008" y="147.916" style="fill: #2f4f4f; stroke: #2f4f4f"/>
     <use xlink:href="#mc56e252bbf" x="68.682731" y="181.039779" style="fill: #2f4f4f; stroke: #2f4f4f"/>
     <use xlink:href="#mc56e252bbf" x="136.222344" y="155.320911" style="fill: #2f4f4f; stroke: #2f4f4f"/>
     <use xlink:href="#mc56e252bbf" x="93.374608" y="193.139719" style="fill: #2f4f4f; stroke: #2f4f4f"/>
     <use xlink:href="#mc56e252bbf" x="56.788852" y="143.266054" style="fill: #2f4f4f; stroke: #2f4f4f"/>
     <use xlink:href="#mc56e252bbf" x="116.231784" y="85.182207" style="fill: #2f4f4f; stroke: #2f4f4f"/>
     <use xlink:href="#mc56e252bbf" x="157.844488" y="150.122452" style="fill: #2f4f4f; stroke: #2f4f4f"/>
     <use xlink:href="#mc56e252bbf" x="59.171918" y="148.312943" style="fill: #2f4f4f; stroke: #2f4f4f"/>
     <use xlink:href="#mc56e252bbf" x="125.493835" y="144.572988" style="fill: #2f4f4f; stroke: #2f4f4f"/>
     <use xlink:href="#mc56e252bbf" x="51.537415" y="109.448907" style="fill: #2f4f4f; stroke: #2f4f4f"/>
    </g>
   </g>
   <g id="PathCollection_4">
    <defs>
     <path id="me9a1e4ac36" d="M 0 1.5 
C 0.397805 1.5 0.77937 1.341951 1.06066 1.06066 
C 1.341951 0.77937 1.5 0.397805 1.5 0 
C 1.5 -0.397805 1.341951 -0.77937 1.06066 -1.06066 
C 0.77937 -1.341951 0.397805 -1.5 0 -1.5 
C -0.397805 -1.5 -0.77937 -1.341951 -1.06066 -1.06066 
C -1.341951 -0.77937 -1.5 -0.397805 -1.5 0 
C -1.5 0.397805 -1.341951 0.77937 -1.06066 1.06066 
C -0.77937 1.341951 -0.397805 1.5 0 1.5 
z
" style="stroke: #00bfff"/>
    </defs>
    <g clip-path="url(#pe60ce30dfc)">
     <use xlink:href="#me9a1e4ac36" x="129.757982" y="136.523595" style="fill: #00bfff; stroke: #00bfff"/>
     <use xlink:href="#me9a1e4ac36" x="193.859405" y="125.612054" style="fill: #00bfff; stroke: #00bfff"/>
     <use xlink:href="#me9a1e4ac36" x="108.120187" y="184.542233" style="fill: #00bfff; stroke: #00bfff"/>
     <use xlink:href="#me9a1e4ac36" x="171.94958" y="238.848331" style="fill: #00bfff; stroke: #00bfff"/>
     <use xlink:href="#me9a1e4ac36" x="77.110084" y="153.142808" style="fill: #00bfff; stroke: #00bfff"/>
     <use xlink:href="#me9a1e4ac36" x="107.969906" y="178.018307" style="fill: #00bfff; stroke: #00bfff"/>
     <use xlink:href="#me9a1e4ac36" x="80.045032" y="133.041529" style="fill: #00bfff; stroke: #00bfff"/>
     <use xlink:href="#me9a1e4ac36" x="156.417542" y="170.651235" style="fill: #00bfff; stroke: #00bfff"/>
     <use xlink:href="#me9a1e4ac36" x="96.244588" y="140.95679" style="fill: #00bfff; stroke: #00bfff"/>
     <use xlink:href="#me9a1e4ac36" x="89.065265" y="143.893318" style="fill: #00bfff; stroke: #00bfff"/>
     <use xlink:href="#me9a1e4ac36" x="126.82025" y="147.407346" style="fill: #00bfff; stroke: #00bfff"/>
     <use xlink:href="#me9a1e4ac36" x="139.641172" y="137.788423" style="fill: #00bfff; stroke: #00bfff"/>
     <use xlink:href="#me9a1e4ac36" x="161.518565" y="143.27077" style="fill: #00bfff; stroke: #00bfff"/>
     <use xlink:href="#me9a1e4ac36" x="198.204368" y="104.156256" style="fill: #00bfff; stroke: #00bfff"/>
     <use xlink:href="#me9a1e4ac36" x="110.001283" y="167.554836" style="fill: #00bfff; stroke: #00bfff"/>
     <use xlink:href="#me9a1e4ac36" x="90.870978" y="108.90694" style="fill: #00bfff; stroke: #00bfff"/>
    </g>
   </g>
   <g id="PathCollection_5">
    <defs>
     <path id="ma968fe757c" d="M 0 1.5 
C 0.397805 1.5 0.77937 1.341951 1.06066 1.06066 
C 1.341951 0.77937 1.5 0.397805 1.5 0 
C 1.5 -0.397805 1.341951 -0.77937 1.06066 -1.06066 
C 0.77937 -1.341951 0.397805 -1.5 0 -1.5 
C -0.397805 -1.5 -0.77937 -1.341951 -1.06066 -1.06066 
C -1.341951 -0.77937 -1.5 -0.397805 -1.5 0 
C -1.5 0.397805 -1.341951 0.77937 -1.06066 1.06066 
C -0.77937 1.341951 -0.397805 1.5 0 1.5 
z
" style="stroke: #ffff00"/>
    </defs>
    <g clip-path="url(#pe60ce30dfc)">
     <use xlink:href="#ma968fe757c" x="146.068756" y="159.884047" style="fill: #ffff00; stroke: #ffff00"/>
     <use xlink:href="#ma968fe757c" x="140.047606" y="146.398489" style="fill: #ffff00; stroke: #ffff00"/>
     <use xlink:href="#ma968fe757c" x="182.733797" y="189.934495" style="fill: #ffff00; stroke: #ffff00"/>
     <use xlink:href="#ma968fe757c" x="113.007336" y="154.738243" style="fill: #ffff00; stroke: #ffff00"/>
     <use xlink:href="#ma968fe757c" x="122.39458" y="74.204146" style="fill: #ffff00; stroke: #ffff00"/>
     <use xlink:href="#ma968fe757c" x="71.553476" y="166.662882" style="fill: #ffff00; stroke: #ffff00"/>
     <use xlink:href="#ma968fe757c" x="120.184319" y="101.719303" style="fill: #ffff00; stroke: #ffff00"/>
     <use xlink:href="#ma968fe757c" x="104.88835" y="129.961315" style="fill: #ffff00; stroke: #ffff00"/>
     <use xlink:href="#ma968fe757c" x="86.315355" y="106.889007" style="fill: #ffff00; stroke: #ffff00"/>
     <use xlink:href="#ma968fe757c" x="159.398713" y="123.876369" style="fill: #ffff00; stroke: #ffff00"/>
     <use xlink:href="#ma968fe757c" x="137.509048" y="189.17464" style="fill: #ffff00; stroke: #ffff00"/>
     <use xlink:href="#ma968fe757c" x="83.996724" y="125.500425" style="fill: #ffff00; stroke: #ffff00"/>
     <use xlink:href="#ma968fe757c" x="99.634477" y="141.548417" style="fill: #ffff00; stroke: #ffff00"/>
    </g>
   </g>
   <g id="PathCollection_6">
    <defs>
     <path id="m75dae9ddac" d="M 0 1.5 
C 0.397805 1.5 0.77937 1.341951 1.06066 1.06066 
C 1.341951 0.77937 1.5 0.397805 1.5 0 
C 1.5 -0.397805 1.341951 -0.77937 1.06066 -1.06066 
C 0.77937 -1.341951 0.397805 -1.5 0 -1.5 
C -0.397805 -1.5 -0.77937 -1.341951 -1.06066 -1.06066 
C -1.341951 -0.77937 -1.5 -0.397805 -1.5 0 
C -1.5 0.397805 -1.341951 0.77937 -1.06066 1.06066 
C -0.77937 1.341951 -0.397805 1.5 0 1.5 
z
" style="stroke: #00ffff"/>
    </defs>
    <g clip-path="url(#pe60ce30dfc)">
     <use xlink:href="#m75dae9ddac" x="98.926916" y="188.275956" style="fill: #00ffff; stroke: #00ffff"/>
     <use xlink:href="#m75dae9ddac" x="79.282408" y="212.679659" style="fill: #00ffff; stroke: #00ffff"/>
     <use xlink:href="#m75dae9ddac" x="151.590736" y="168.784397" style="fill: #00ffff; stroke: #00ffff"/>
     <use xlink:href="#m75dae9ddac" x="93.104543" y="157.128085" style="fill: #00ffff; stroke: #00ffff"/>
     <use xlink:href="#m75dae9ddac" x="116.582723" y="136.857928" style="fill: #00ffff; stroke: #00ffff"/>
     <use xlink:href="#m75dae9ddac" x="99.147199" y="153.379469" style="fill: #00ffff; stroke: #00ffff"/>
     <use xlink:href="#m75dae9ddac" x="111.494719" y="141.745119" style="fill: #00ffff; stroke: #00ffff"/>
     <use xlink:href="#m75dae9ddac" x="106.377812" y="193.911689" style="fill: #00ffff; stroke: #00ffff"/>
     <use xlink:href="#m75dae9ddac" x="127.880698" y="179.941551" style="fill: #00ffff; stroke: #00ffff"/>
     <use xlink:href="#m75dae9ddac" x="110.331321" y="208.71463" style="fill: #00ffff; stroke: #00ffff"/>
     <use xlink:href="#m75dae9ddac" x="101.445849" y="142.801982" style="fill: #00ffff; stroke: #00ffff"/>
     <use xlink:href="#m75dae9ddac" x="90.674101" y="167.83849" style="fill: #00ffff; stroke: #00ffff"/>
     <use xlink:href="#m75dae9ddac" x="123.715701" y="155.335981" style="fill: #00ffff; stroke: #00ffff"/>
     <use xlink:href="#m75dae9ddac" x="119.046713" y="199.551937" style="fill: #00ffff; stroke: #00ffff"/>
    </g>
   </g>
   <g id="PathCollection_7">
    <defs>
     <path id="m84e7779993" d="M 0 1.5 
C 0.397805 1.5 0.77937 1.341951 1.06066 1.06066 
C 1.341951 0.77937 1.5 0.397805 1.5 0 
C 1.5 -0.397805 1.341951 -0.77937 1.06066 -1.06066 
C 0.77937 -1.341951 0.397805 -1.5 0 -1.5 
C -0.397805 -1.5 -0.77937 -1.341951 -1.06066 -1.06066 
C -1.341951 -0.77937 -1.5 -0.397805 -1.5 0 
C -1.5 0.397805 -1.341951 0.77937 -1.06066 1.06066 
C -0.77937 1.341951 -0.397805 1.5 0 1.5 
z
" style="stroke: #0000ff"/>
    </defs>
    <g clip-path="url(#pe60ce30dfc)">
     <use xlink:href="#m84e7779993" x="114.640575" y="158.903315" style="fill: #0000ff; stroke: #0000ff"/>
     <use xlink:href="#m84e7779993" x="146.235548" y="153.610077" style="fill: #0000ff; stroke: #0000ff"/>
     <use xlink:href="#m84e7779993" x="166.0201" y="132.21463" style="fill: #0000ff; stroke: #0000ff"/>
     <use xlink:href="#m84e7779993" x="125.39554" y="182.154079" style="fill: #0000ff; stroke: #0000ff"/>
     <use xlink:href="#m84e7779993" x="182.560514" y="155.382889" style="fill: #0000ff; stroke: #0000ff"/>
     <use xlink:href="#m84e7779993" x="82.58185" y="118.623309" style="fill: #0000ff; stroke: #0000ff"/>
     <use xlink:href="#m84e7779993" x="153.336463" y="131.071385" style="fill: #0000ff; stroke: #0000ff"/>
     <use xlink:href="#m84e7779993" x="71.087772" y="167.500224" style="fill: #0000ff; stroke: #0000ff"/>
     <use xlink:href="#m84e7779993" x="161.754652" y="186.256985" style="fill: #0000ff; stroke: #0000ff"/>
     <use xlink:href="#m84e7779993" x="112.742285" y="164.122267" style="fill: #0000ff; stroke: #0000ff"/>
     <use xlink:href="#m84e7779993" x="178.635077" y="180.452264" style="fill: #0000ff; stroke: #0000ff"/>
     <use xlink:href="#m84e7779993" x="132.188973" y="153.043259" style="fill: #0000ff; stroke: #0000ff"/>
    </g>
   </g>
   <g id="PathCollection_8">
    <defs>
     <path id="m81661d672e" d="M 0 1.5 
C 0.397805 1.5 0.77937 1.341951 1.06066 1.06066 
C 1.341951 0.77937 1.5 0.397805 1.5 0 
C 1.5 -0.397805 1.341951 -0.77937 1.06066 -1.06066 
C 0.77937 -1.341951 0.397805 -1.5 0 -1.5 
C -0.397805 -1.5 -0.77937 -1.341951 -1.06066 -1.06066 
C -1.341951 -0.77937 -1.5 -0.397805 -1.5 0 
C -1.5 0.397805 -1.341951 0.77937 -1.06066 1.06066 
C -0.77937 1.341951 -0.397805 1.5 0 1.5 
z
" style="stroke: #dc143c"/>
    </defs>
    <g clip-path="url(#pe60ce30dfc)">
     <use xlink:href="#m81661d672e" x="149.673896" y="148.826679" style="fill: #dc143c; stroke: #dc143c"/>
     <use xlink:href="#m81661d672e" x="140.019128" y="227.504755" style="fill: #dc143c; stroke: #dc143c"/>
     <use xlink:href="#m81661d672e" x="185.859065" y="150.892151" style="fill: #dc143c; stroke: #dc143c"/>
     <use xlink:href="#m81661d672e" x="160.700047" y="142.814521" style="fill: #dc143c; stroke: #dc143c"/>
     <use xlink:href="#m81661d672e" x="92.270108" y="168.444703" style="fill: #dc143c; stroke: #dc143c"/>
     <use xlink:href="#m81661d672e" x="151.990072" y="172.683963" style="fill: #dc143c; stroke: #dc143c"/>
     <use xlink:href="#m81661d672e" x="179.008916" y="124.585349" style="fill: #dc143c; stroke: #dc143c"/>
     <use xlink:href="#m81661d672e" x="169.851971" y="147.601276" style="fill: #dc143c; stroke: #dc143c"/>
     <use xlink:href="#m81661d672e" x="180.244634" y="116.121725" style="fill: #dc143c; stroke: #dc143c"/>
     <use xlink:href="#m81661d672e" x="159.90955" y="181.724057" style="fill: #dc143c; stroke: #dc143c"/>
     <use xlink:href="#m81661d672e" x="135.345295" y="186.638808" style="fill: #dc143c; stroke: #dc143c"/>
    </g>
   </g>
   <g id="PathCollection_9">
    <defs>
     <path id="m4cd6b5fcd6" d="M 0 1.5 
C 0.397805 1.5 0.77937 1.341951 1.06066 1.06066 
C 1.341951 0.77937 1.5 0.397805 1.5 0 
C 1.5 -0.397805 1.341951 -0.77937 1.06066 -1.06066 
C 0.77937 -1.341951 0.397805 -1.5 0 -1.5 
C -0.397805 -1.5 -0.77937 -1.341951 -1.06066 -1.06066 
C -1.341951 -0.77937 -1.5 -0.397805 -1.5 0 
C -1.5 0.397805 -1.341951 0.77937 -1.06066 1.06066 
C -0.77937 1.341951 -0.397805 1.5 0 1.5 
z
" style="stroke: #ffe4c4"/>
    </defs>
    <g clip-path="url(#pe60ce30dfc)">
     <use xlink:href="#m4cd6b5fcd6" x="158.209741" y="51.125345" style="fill: #ffe4c4; stroke: #ffe4c4"/>
     <use xlink:href="#m4cd6b5fcd6" x="211.531953" y="160.068123" style="fill: #ffe4c4; stroke: #ffe4c4"/>
     <use xlink:href="#m4cd6b5fcd6" x="148.971267" y="40.780549" style="fill: #ffe4c4; stroke: #ffe4c4"/>
     <use xlink:href="#m4cd6b5fcd6" x="196.834272" y="187.471814" style="fill: #ffe4c4; stroke: #ffe4c4"/>
     <use xlink:href="#m4cd6b5fcd6" x="184.313334" y="173.763826" style="fill: #ffe4c4; stroke: #ffe4c4"/>
     <use xlink:href="#m4cd6b5fcd6" x="130.622218" y="81.221011" style="fill: #ffe4c4; stroke: #ffe4c4"/>
     <use xlink:href="#m4cd6b5fcd6" x="136.491929" y="97.210403" style="fill: #ffe4c4; stroke: #ffe4c4"/>
     <use xlink:href="#m4cd6b5fcd6" x="177.753487" y="67.30439" style="fill: #ffe4c4; stroke: #ffe4c4"/>
     <use xlink:href="#m4cd6b5fcd6" x="131.360825" y="52.100848" style="fill: #ffe4c4; stroke: #ffe4c4"/>
     <use xlink:href="#m4cd6b5fcd6" x="122.582343" y="119.801118" style="fill: #ffe4c4; stroke: #ffe4c4"/>
     <use xlink:href="#m4cd6b5fcd6" x="168.508822" y="88.536772" style="fill: #ffe4c4; stroke: #ffe4c4"/>
     <use xlink:href="#m4cd6b5fcd6" x="123.941308" y="109.546651" style="fill: #ffe4c4; stroke: #ffe4c4"/>
     <use xlink:href="#m4cd6b5fcd6" x="158.727489" y="101.10804" style="fill: #ffe4c4; stroke: #ffe4c4"/>
     <use xlink:href="#m4cd6b5fcd6" x="173.092667" y="52.592357" style="fill: #ffe4c4; stroke: #ffe4c4"/>
     <use xlink:href="#m4cd6b5fcd6" x="120.567042" y="100.239865" style="fill: #ffe4c4; stroke: #ffe4c4"/>
     <use xlink:href="#m4cd6b5fcd6" x="80.766759" y="73.08611" style="fill: #ffe4c4; stroke: #ffe4c4"/>
     <use xlink:href="#m4cd6b5fcd6" x="137.111854" y="134.219787" style="fill: #ffe4c4; stroke: #ffe4c4"/>
     <use xlink:href="#m4cd6b5fcd6" x="173.374957" y="46.743019" style="fill: #ffe4c4; stroke: #ffe4c4"/>
    </g>
   </g>
   <g id="PathCollection_10">
    <defs>
     <path id="mea70f33acb" d="M -2.99994 2.99994 
L 3.00006 2.99994 
L 3.00006 -3.00006 
L -2.99994 -3.00006 
z
" style="stroke: #000000"/>
    </defs>
    <g clip-path="url(#pe60ce30dfc)">
     <use xlink:href="#mea70f33acb" x="210.033456" y="167.217583" style="stroke: #000000"/>
     <use xlink:href="#mea70f33acb" x="233.123503" y="136.149886" style="stroke: #000000"/>
     <use xlink:href="#mea70f33acb" x="254.290444" y="170.536497" style="stroke: #000000"/>
     <use xlink:href="#mea70f33acb" x="211.602894" y="193.622394" style="stroke: #000000"/>
     <use xlink:href="#mea70f33acb" x="283.061089" y="132.612789" style="stroke: #000000"/>
     <use xlink:href="#mea70f33acb" x="266.292337" y="133.48572" style="stroke: #000000"/>
     <use xlink:href="#mea70f33acb" x="260.044222" y="75.985494" style="stroke: #000000"/>
     <use xlink:href="#mea70f33acb" x="158.484623" y="176.627004" style="stroke: #000000"/>
     <use xlink:href="#mea70f33acb" x="286.584402" y="230.575791" style="stroke: #000000"/>
     <use xlink:href="#mea70f33acb" x="178.702622" y="128.44112" style="stroke: #000000"/>
     <use xlink:href="#mea70f33acb" x="216.073699" y="157.033495" style="stroke: #000000"/>
     <use xlink:href="#mea70f33acb" x="230.304766" y="157.06643" style="stroke: #000000"/>
     <use xlink:href="#mea70f33acb" x="227.762462" y="61.538832" style="stroke: #000000"/>
     <use xlink:href="#mea70f33acb" x="243.331036" y="152.275069" style="stroke: #000000"/>
     <use xlink:href="#mea70f33acb" x="225.007572" y="187.903175" style="stroke: #000000"/>
     <use xlink:href="#mea70f33acb" x="219.376891" y="212.047725" style="stroke: #000000"/>
     <use xlink:href="#mea70f33acb" x="172.148629" y="146.081535" style="stroke: #000000"/>
     <use xlink:href="#mea70f33acb" x="268.409452" y="128.620631" style="stroke: #000000"/>
     <use xlink:href="#mea70f33acb" x="265.894795" y="155.373743" style="stroke: #000000"/>
     <use xlink:href="#mea70f33acb" x="251.888488" y="173.448317" style="stroke: #000000"/>
     <use xlink:href="#mea70f33acb" x="210.641785" y="162.698794" style="stroke: #000000"/>
     <use xlink:href="#mea70f33acb" x="186.144489" y="58.394017" style="stroke: #000000"/>
     <use xlink:href="#mea70f33acb" x="235.960616" y="141.216003" style="stroke: #000000"/>
     <use xlink:href="#mea70f33acb" x="223.1681" y="88.94829" style="stroke: #000000"/>
     <use xlink:href="#mea70f33acb" x="183.342168" y="81.540498" style="stroke: #000000"/>
     <use xlink:href="#mea70f33acb" x="220.596137" y="162.05845" style="stroke: #000000"/>
     <use xlink:href="#mea70f33acb" x="247.47447" y="181.806934" style="stroke: #000000"/>
     <use xlink:href="#mea70f33acb" x="244.760346" y="77.023425" style="stroke: #000000"/>
     <use xlink:href="#mea70f33acb" x="248.747082" y="184.746975" style="stroke: #000000"/>
     <use xlink:href="#mea70f33acb" x="212.843401" y="141.361982" style="stroke: #000000"/>
     <use xlink:href="#mea70f33acb" x="263.241804" y="145.233213" style="stroke: #000000"/>
     <use xlink:href="#mea70f33acb" x="251.580379" y="154.047255" style="stroke: #000000"/>
     <use xlink:href="#mea70f33acb" x="294.049827" y="167.702702" style="stroke: #000000"/>
     <use xlink:href="#mea70f33acb" x="193.13875" y="142.124366" style="stroke: #000000"/>
     <use xlink:href="#mea70f33acb" x="262.147658" y="111.022943" style="stroke: #000000"/>
     <use xlink:href="#mea70f33acb" x="283.606848" y="261.609157" style="stroke: #000000"/>
     <use xlink:href="#mea70f33acb" x="240.598272" y="130.701389" style="stroke: #000000"/>
     <use xlink:href="#mea70f33acb" x="169.831616" y="168.920737" style="stroke: #000000"/>
     <use xlink:href="#mea70f33acb" x="259.113463" y="157.05686" style="stroke: #000000"/>
     <use xlink:href="#mea70f33acb" x="219.449468" y="207.10688" style="stroke: #000000"/>
     <use xlink:href="#mea70f33acb" x="258.23022" y="202.347864" style="stroke: #000000"/>
     <use xlink:href="#mea70f33acb" x="225.578832" y="73.025839" style="stroke: #000000"/>
     <use xlink:href="#mea70f33acb" x="158.239243" y="204.641131" style="stroke: #000000"/>
     <use xlink:href="#mea70f33acb" x="155.942495" y="112.432184" style="stroke: #000000"/>
     <use xlink:href="#mea70f33acb" x="216.430507" y="166.749439" style="stroke: #000000"/>
     <use xlink:href="#mea70f33acb" x="289.267635" y="168.785584" style="stroke: #000000"/>
     <use xlink:href="#mea70f33acb" x="293.872815" y="169.473497" style="stroke: #000000"/>
     <use xlink:href="#mea70f33acb" x="213.694948" y="183.571175" style="stroke: #000000"/>
     <use xlink:href="#mea70f33acb" x="228.637477" y="199.427492" style="stroke: #000000"/>
     <use xlink:href="#mea70f33acb" x="276.515876" y="125.997119" style="stroke: #000000"/>
     <use xlink:href="#mea70f33acb" x="266.783822" y="189.171113" style="stroke: #000000"/>
     <use xlink:href="#mea70f33acb" x="189.265992" y="152.546664" style="stroke: #000000"/>
     <use xlink:href="#mea70f33acb" x="287.363171" y="159.169287" style="stroke: #000000"/>
     <use xlink:href="#mea70f33acb" x="274.260598" y="191.120459" style="stroke: #000000"/>
     <use xlink:href="#mea70f33acb" x="187.860117" y="72.062565" style="stroke: #000000"/>
     <use xlink:href="#mea70f33acb" x="189.164076" y="112.701345" style="stroke: #000000"/>
     <use xlink:href="#mea70f33acb" x="297.486025" y="141.136379" style="stroke: #000000"/>
     <use xlink:href="#mea70f33acb" x="241.246544" y="150.867382" style="stroke: #000000"/>
     <use xlink:href="#mea70f33acb" x="241.863245" y="184.118288" style="stroke: #000000"/>
     <use xlink:href="#mea70f33acb" x="236.9457" y="147.160289" style="stroke: #000000"/>
     <use xlink:href="#mea70f33acb" x="278.861988" y="219.955904" style="stroke: #000000"/>
     <use xlink:href="#mea70f33acb" x="281.620288" y="221.275489" style="stroke: #000000"/>
     <use xlink:href="#mea70f33acb" x="237.689212" y="183.828396" style="stroke: #000000"/>
     <use xlink:href="#mea70f33acb" x="255.136486" y="198.483073" style="stroke: #000000"/>
    </g>
   </g>
   <g id="PathCollection_11">
    <defs>
     <path id="me56e1dc6fc" d="M -3 -0 
L 3 3 
L 3 -3 
z
" style="stroke: #ff8c00"/>
    </defs>
    <g clip-path="url(#pe60ce30dfc)">
     <use xlink:href="#me56e1dc6fc" x="139.844868" y="166.441758" style="fill: #ff8c00; stroke: #ff8c00"/>
     <use xlink:href="#me56e1dc6fc" x="217.990573" y="181.747893" style="fill: #ff8c00; stroke: #ff8c00"/>
     <use xlink:href="#me56e1dc6fc" x="174.991682" y="130.362777" style="fill: #ff8c00; stroke: #ff8c00"/>
     <use xlink:href="#me56e1dc6fc" x="170.448776" y="119.058042" style="fill: #ff8c00; stroke: #ff8c00"/>
     <use xlink:href="#me56e1dc6fc" x="208.96016" y="199.740925" style="fill: #ff8c00; stroke: #ff8c00"/>
     <use xlink:href="#me56e1dc6fc" x="184.314876" y="115.25984" style="fill: #ff8c00; stroke: #ff8c00"/>
     <use xlink:href="#me56e1dc6fc" x="216.419418" y="211.931111" style="fill: #ff8c00; stroke: #ff8c00"/>
     <use xlink:href="#me56e1dc6fc" x="140.593477" y="141.817372" style="fill: #ff8c00; stroke: #ff8c00"/>
     <use xlink:href="#me56e1dc6fc" x="189.48244" y="140.981335" style="fill: #ff8c00; stroke: #ff8c00"/>
     <use xlink:href="#me56e1dc6fc" x="164.122387" y="97.41423" style="fill: #ff8c00; stroke: #ff8c00"/>
     <use xlink:href="#me56e1dc6fc" x="168.757513" y="138.161244" style="fill: #ff8c00; stroke: #ff8c00"/>
     <use xlink:href="#me56e1dc6fc" x="210.836574" y="183.935819" style="fill: #ff8c00; stroke: #ff8c00"/>
     <use xlink:href="#me56e1dc6fc" x="183.917409" y="156.27153" style="fill: #ff8c00; stroke: #ff8c00"/>
     <use xlink:href="#me56e1dc6fc" x="179.627063" y="200.957774" style="fill: #ff8c00; stroke: #ff8c00"/>
     <use xlink:href="#me56e1dc6fc" x="185.966476" y="134.912939" style="fill: #ff8c00; stroke: #ff8c00"/>
     <use xlink:href="#me56e1dc6fc" x="163.872098" y="144.612564" style="fill: #ff8c00; stroke: #ff8c00"/>
     <use xlink:href="#me56e1dc6fc" x="240.115916" y="133.155322" style="fill: #ff8c00; stroke: #ff8c00"/>
     <use xlink:href="#me56e1dc6fc" x="175.836783" y="149.127618" style="fill: #ff8c00; stroke: #ff8c00"/>
     <use xlink:href="#me56e1dc6fc" x="154.829663" y="200.172916" style="fill: #ff8c00; stroke: #ff8c00"/>
     <use xlink:href="#me56e1dc6fc" x="181.539084" y="96.8861" style="fill: #ff8c00; stroke: #ff8c00"/>
     <use xlink:href="#me56e1dc6fc" x="204.34015" y="141.679573" style="fill: #ff8c00; stroke: #ff8c00"/>
     <use xlink:href="#me56e1dc6fc" x="185.507921" y="94.181477" style="fill: #ff8c00; stroke: #ff8c00"/>
     <use xlink:href="#me56e1dc6fc" x="193.351049" y="122.683972" style="fill: #ff8c00; stroke: #ff8c00"/>
     <use xlink:href="#me56e1dc6fc" x="178.63393" y="114.754841" style="fill: #ff8c00; stroke: #ff8c00"/>
     <use xlink:href="#me56e1dc6fc" x="148.298674" y="169.944838" style="fill: #ff8c00; stroke: #ff8c00"/>
     <use xlink:href="#me56e1dc6fc" x="195.82952" y="100.844714" style="fill: #ff8c00; stroke: #ff8c00"/>
     <use xlink:href="#me56e1dc6fc" x="170.778544" y="129.622012" style="fill: #ff8c00; stroke: #ff8c00"/>
     <use xlink:href="#me56e1dc6fc" x="183.482859" y="145.104673" style="fill: #ff8c00; stroke: #ff8c00"/>
     <use xlink:href="#me56e1dc6fc" x="247.61067" y="97.928041" style="fill: #ff8c00; stroke: #ff8c00"/>
     <use xlink:href="#me56e1dc6fc" x="166.692005" y="106.684179" style="fill: #ff8c00; stroke: #ff8c00"/>
     <use xlink:href="#me56e1dc6fc" x="165.795246" y="199.078987" style="fill: #ff8c00; stroke: #ff8c00"/>
     <use xlink:href="#me56e1dc6fc" x="199.479179" y="152.583823" style="fill: #ff8c00; stroke: #ff8c00"/>
     <use xlink:href="#me56e1dc6fc" x="166.671835" y="115.966677" style="fill: #ff8c00; stroke: #ff8c00"/>
     <use xlink:href="#me56e1dc6fc" x="181.677478" y="147.580566" style="fill: #ff8c00; stroke: #ff8c00"/>
     <use xlink:href="#me56e1dc6fc" x="174.361895" y="137.666412" style="fill: #ff8c00; stroke: #ff8c00"/>
     <use xlink:href="#me56e1dc6fc" x="157.881716" y="135.838088" style="fill: #ff8c00; stroke: #ff8c00"/>
     <use xlink:href="#me56e1dc6fc" x="256.458245" y="182.652612" style="fill: #ff8c00; stroke: #ff8c00"/>
     <use xlink:href="#me56e1dc6fc" x="132.191881" y="170.132232" style="fill: #ff8c00; stroke: #ff8c00"/>
     <use xlink:href="#me56e1dc6fc" x="192.369331" y="105.652032" style="fill: #ff8c00; stroke: #ff8c00"/>
     <use xlink:href="#me56e1dc6fc" x="168.323042" y="144.502859" style="fill: #ff8c00; stroke: #ff8c00"/>
     <use xlink:href="#me56e1dc6fc" x="202.58216" y="176.732296" style="fill: #ff8c00; stroke: #ff8c00"/>
     <use xlink:href="#me56e1dc6fc" x="163.00219" y="108.898767" style="fill: #ff8c00; stroke: #ff8c00"/>
     <use xlink:href="#me56e1dc6fc" x="192.698147" y="137.250273" style="fill: #ff8c00; stroke: #ff8c00"/>
     <use xlink:href="#me56e1dc6fc" x="176.937884" y="111.917416" style="fill: #ff8c00; stroke: #ff8c00"/>
     <use xlink:href="#me56e1dc6fc" x="161.491548" y="158.51283" style="fill: #ff8c00; stroke: #ff8c00"/>
     <use xlink:href="#me56e1dc6fc" x="170.208322" y="209.511937" style="fill: #ff8c00; stroke: #ff8c00"/>
     <use xlink:href="#me56e1dc6fc" x="188.359048" y="92.490805" style="fill: #ff8c00; stroke: #ff8c00"/>
     <use xlink:href="#me56e1dc6fc" x="127.055483" y="199.412559" style="fill: #ff8c00; stroke: #ff8c00"/>
     <use xlink:href="#me56e1dc6fc" x="134.226041" y="135.107711" style="fill: #ff8c00; stroke: #ff8c00"/>
     <use xlink:href="#me56e1dc6fc" x="147.192413" y="233.65679" style="fill: #ff8c00; stroke: #ff8c00"/>
     <use xlink:href="#me56e1dc6fc" x="170.350426" y="137.644195" style="fill: #ff8c00; stroke: #ff8c00"/>
     <use xlink:href="#me56e1dc6fc" x="194.419397" y="136.294194" style="fill: #ff8c00; stroke: #ff8c00"/>
     <use xlink:href="#me56e1dc6fc" x="183.185411" y="169.440469" style="fill: #ff8c00; stroke: #ff8c00"/>
     <use xlink:href="#me56e1dc6fc" x="165.267752" y="134.47189" style="fill: #ff8c00; stroke: #ff8c00"/>
     <use xlink:href="#me56e1dc6fc" x="222.025061" y="130.433828" style="fill: #ff8c00; stroke: #ff8c00"/>
     <use xlink:href="#me56e1dc6fc" x="154.640952" y="136.615944" style="fill: #ff8c00; stroke: #ff8c00"/>
     <use xlink:href="#me56e1dc6fc" x="142.047384" y="193.953784" style="fill: #ff8c00; stroke: #ff8c00"/>
     <use xlink:href="#me56e1dc6fc" x="194.059636" y="91.502324" style="fill: #ff8c00; stroke: #ff8c00"/>
     <use xlink:href="#me56e1dc6fc" x="210.335486" y="148.292062" style="fill: #ff8c00; stroke: #ff8c00"/>
     <use xlink:href="#me56e1dc6fc" x="160.775849" y="95.580046" style="fill: #ff8c00; stroke: #ff8c00"/>
     <use xlink:href="#me56e1dc6fc" x="142.378126" y="200.012847" style="fill: #ff8c00; stroke: #ff8c00"/>
     <use xlink:href="#me56e1dc6fc" x="142.536201" y="183.378125" style="fill: #ff8c00; stroke: #ff8c00"/>
     <use xlink:href="#me56e1dc6fc" x="158.640789" y="110.116511" style="fill: #ff8c00; stroke: #ff8c00"/>
     <use xlink:href="#me56e1dc6fc" x="156.264108" y="176.426982" style="fill: #ff8c00; stroke: #ff8c00"/>
    </g>
   </g>
   <g id="matplotlib.axis_1">
    <g id="xtick_1">
     <g id="line2d_1">
      <defs>
       <path id="m7000d3aa26" d="M 0 0 
L 0 3.5 
" style="stroke: #000000; stroke-width: 0.8"/>
      </defs>
      <g>
       <use xlink:href="#m7000d3aa26" x="56.177654" y="273.705157" style="stroke: #000000; stroke-width: 0.8"/>
      </g>
     </g>
     <g id="text_1">
      <!-- −15 -->
      <g transform="translate(45.62531 288.303594) scale(0.1 -0.1)">
       <defs>
        <path id="DejaVuSans-2212" d="M 678 2272 
L 4684 2272 
L 4684 1741 
L 678 1741 
L 678 2272 
z
" transform="scale(0.015625)"/>
        <path id="DejaVuSans-31" d="M 794 531 
L 1825 531 
L 1825 4091 
L 703 3866 
L 703 4441 
L 1819 4666 
L 2450 4666 
L 2450 531 
L 3481 531 
L 3481 0 
L 794 0 
L 794 531 
z
" transform="scale(0.015625)"/>
        <path id="DejaVuSans-35" d="M 691 4666 
L 3169 4666 
L 3169 4134 
L 1269 4134 
L 1269 2991 
Q 1406 3038 1543 3061 
Q 1681 3084 1819 3084 
Q 2600 3084 3056 2656 
Q 3513 2228 3513 1497 
Q 3513 744 3044 326 
Q 2575 -91 1722 -91 
Q 1428 -91 1123 -41 
Q 819 9 494 109 
L 494 744 
Q 775 591 1075 516 
Q 1375 441 1709 441 
Q 2250 441 2565 725 
Q 2881 1009 2881 1497 
Q 2881 1984 2565 2268 
Q 2250 2553 1709 2553 
Q 1456 2553 1204 2497 
Q 953 2441 691 2322 
L 691 4666 
z
" transform="scale(0.015625)"/>
       </defs>
       <use xlink:href="#DejaVuSans-2212"/>
       <use xlink:href="#DejaVuSans-31" x="83.789062"/>
       <use xlink:href="#DejaVuSans-35" x="147.412109"/>
      </g>
     </g>
    </g>
    <g id="xtick_2">
     <g id="line2d_2">
      <g>
       <use xlink:href="#m7000d3aa26" x="96.718125" y="273.705157" style="stroke: #000000; stroke-width: 0.8"/>
      </g>
     </g>
     <g id="text_2">
      <!-- −10 -->
      <g transform="translate(86.165782 288.303594) scale(0.1 -0.1)">
       <defs>
        <path id="DejaVuSans-30" d="M 2034 4250 
Q 1547 4250 1301 3770 
Q 1056 3291 1056 2328 
Q 1056 1369 1301 889 
Q 1547 409 2034 409 
Q 2525 409 2770 889 
Q 3016 1369 3016 2328 
Q 3016 3291 2770 3770 
Q 2525 4250 2034 4250 
z
M 2034 4750 
Q 2819 4750 3233 4129 
Q 3647 3509 3647 2328 
Q 3647 1150 3233 529 
Q 2819 -91 2034 -91 
Q 1250 -91 836 529 
Q 422 1150 422 2328 
Q 422 3509 836 4129 
Q 1250 4750 2034 4750 
z
" transform="scale(0.015625)"/>
       </defs>
       <use xlink:href="#DejaVuSans-2212"/>
       <use xlink:href="#DejaVuSans-31" x="83.789062"/>
       <use xlink:href="#DejaVuSans-30" x="147.412109"/>
      </g>
     </g>
    </g>
    <g id="xtick_3">
     <g id="line2d_3">
      <g>
       <use xlink:href="#m7000d3aa26" x="137.258597" y="273.705157" style="stroke: #000000; stroke-width: 0.8"/>
      </g>
     </g>
     <g id="text_3">
      <!-- −5 -->
      <g transform="translate(129.887503 288.303594) scale(0.1 -0.1)">
       <use xlink:href="#DejaVuSans-2212"/>
       <use xlink:href="#DejaVuSans-35" x="83.789062"/>
      </g>
     </g>
    </g>
    <g id="xtick_4">
     <g id="line2d_4">
      <g>
       <use xlink:href="#m7000d3aa26" x="177.799069" y="273.705157" style="stroke: #000000; stroke-width: 0.8"/>
      </g>
     </g>
     <g id="text_4">
      <!-- 0 -->
      <g transform="translate(174.617819 288.303594) scale(0.1 -0.1)">
       <use xlink:href="#DejaVuSans-30"/>
      </g>
     </g>
    </g>
    <g id="xtick_5">
     <g id="line2d_5">
      <g>
       <use xlink:href="#m7000d3aa26" x="218.33954" y="273.705157" style="stroke: #000000; stroke-width: 0.8"/>
      </g>
     </g>
     <g id="text_5">
      <!-- 5 -->
      <g transform="translate(215.15829 288.303594) scale(0.1 -0.1)">
       <use xlink:href="#DejaVuSans-35"/>
      </g>
     </g>
    </g>
    <g id="xtick_6">
     <g id="line2d_6">
      <g>
       <use xlink:href="#m7000d3aa26" x="258.880012" y="273.705157" style="stroke: #000000; stroke-width: 0.8"/>
      </g>
     </g>
     <g id="text_6">
      <!-- 10 -->
      <g transform="translate(252.517512 288.303594) scale(0.1 -0.1)">
       <use xlink:href="#DejaVuSans-31"/>
       <use xlink:href="#DejaVuSans-30" x="63.623047"/>
      </g>
     </g>
    </g>
    <g id="xtick_7">
     <g id="line2d_7">
      <g>
       <use xlink:href="#m7000d3aa26" x="299.420483" y="273.705157" style="stroke: #000000; stroke-width: 0.8"/>
      </g>
     </g>
     <g id="text_7">
      <!-- 15 -->
      <g transform="translate(293.057983 288.303594) scale(0.1 -0.1)">
       <use xlink:href="#DejaVuSans-31"/>
       <use xlink:href="#DejaVuSans-35" x="63.623047"/>
      </g>
     </g>
    </g>
    <g id="xtick_8">
     <g id="line2d_8">
      <g>
       <use xlink:href="#m7000d3aa26" x="339.960955" y="273.705157" style="stroke: #000000; stroke-width: 0.8"/>
      </g>
     </g>
     <g id="text_8">
      <!-- 20 -->
      <g transform="translate(333.598455 288.303594) scale(0.1 -0.1)">
       <defs>
        <path id="DejaVuSans-32" d="M 1228 531 
L 3431 531 
L 3431 0 
L 469 0 
L 469 531 
Q 828 903 1448 1529 
Q 2069 2156 2228 2338 
Q 2531 2678 2651 2914 
Q 2772 3150 2772 3378 
Q 2772 3750 2511 3984 
Q 2250 4219 1831 4219 
Q 1534 4219 1204 4116 
Q 875 4013 500 3803 
L 500 4441 
Q 881 4594 1212 4672 
Q 1544 4750 1819 4750 
Q 2544 4750 2975 4387 
Q 3406 4025 3406 3419 
Q 3406 3131 3298 2873 
Q 3191 2616 2906 2266 
Q 2828 2175 2409 1742 
Q 1991 1309 1228 531 
z
" transform="scale(0.015625)"/>
       </defs>
       <use xlink:href="#DejaVuSans-32"/>
       <use xlink:href="#DejaVuSans-30" x="63.623047"/>
      </g>
     </g>
    </g>
    <g id="xtick_9">
     <g id="line2d_9">
      <g>
       <use xlink:href="#m7000d3aa26" x="380.501427" y="273.705157" style="stroke: #000000; stroke-width: 0.8"/>
      </g>
     </g>
     <g id="text_9">
      <!-- 25 -->
      <g transform="translate(374.138927 288.303594) scale(0.1 -0.1)">
       <use xlink:href="#DejaVuSans-32"/>
       <use xlink:href="#DejaVuSans-35" x="63.623047"/>
      </g>
     </g>
    </g>
   </g>
   <g id="matplotlib.axis_2">
    <g id="ytick_1">
     <g id="line2d_10">
      <defs>
       <path id="ma6489d5bd8" d="M 0 0 
L -3.5 0 
" style="stroke: #000000; stroke-width: 0.8"/>
      </defs>
      <g>
       <use xlink:href="#ma6489d5bd8" x="35.304688" y="241.266897" style="stroke: #000000; stroke-width: 0.8"/>
      </g>
     </g>
     <g id="text_10">
      <!-- −15 -->
      <g transform="translate(7.2 245.066116) scale(0.1 -0.1)">
       <use xlink:href="#DejaVuSans-2212"/>
       <use xlink:href="#DejaVuSans-31" x="83.789062"/>
       <use xlink:href="#DejaVuSans-35" x="147.412109"/>
      </g>
     </g>
    </g>
    <g id="ytick_2">
     <g id="line2d_11">
      <g>
       <use xlink:href="#ma6489d5bd8" x="35.304688" y="208.371514" style="stroke: #000000; stroke-width: 0.8"/>
      </g>
     </g>
     <g id="text_11">
      <!-- −10 -->
      <g transform="translate(7.2 212.170733) scale(0.1 -0.1)">
       <use xlink:href="#DejaVuSans-2212"/>
       <use xlink:href="#DejaVuSans-31" x="83.789062"/>
       <use xlink:href="#DejaVuSans-30" x="147.412109"/>
      </g>
     </g>
    </g>
    <g id="ytick_3">
     <g id="line2d_12">
      <g>
       <use xlink:href="#ma6489d5bd8" x="35.304688" y="175.476132" style="stroke: #000000; stroke-width: 0.8"/>
      </g>
     </g>
     <g id="text_12">
      <!-- −5 -->
      <g transform="translate(13.5625 179.27535) scale(0.1 -0.1)">
       <use xlink:href="#DejaVuSans-2212"/>
       <use xlink:href="#DejaVuSans-35" x="83.789062"/>
      </g>
     </g>
    </g>
    <g id="ytick_4">
     <g id="line2d_13">
      <g>
       <use xlink:href="#ma6489d5bd8" x="35.304688" y="142.580749" style="stroke: #000000; stroke-width: 0.8"/>
      </g>
     </g>
     <g id="text_13">
      <!-- 0 -->
      <g transform="translate(21.942187 146.379968) scale(0.1 -0.1)">
       <use xlink:href="#DejaVuSans-30"/>
      </g>
     </g>
    </g>
    <g id="ytick_5">
     <g id="line2d_14">
      <g>
       <use xlink:href="#ma6489d5bd8" x="35.304688" y="109.685366" style="stroke: #000000; stroke-width: 0.8"/>
      </g>
     </g>
     <g id="text_14">
      <!-- 5 -->
      <g transform="translate(21.942187 113.484585) scale(0.1 -0.1)">
       <use xlink:href="#DejaVuSans-35"/>
      </g>
     </g>
    </g>
    <g id="ytick_6">
     <g id="line2d_15">
      <g>
       <use xlink:href="#ma6489d5bd8" x="35.304688" y="76.789984" style="stroke: #000000; stroke-width: 0.8"/>
      </g>
     </g>
     <g id="text_15">
      <!-- 10 -->
      <g transform="translate(15.579687 80.589203) scale(0.1 -0.1)">
       <use xlink:href="#DejaVuSans-31"/>
       <use xlink:href="#DejaVuSans-30" x="63.623047"/>
      </g>
     </g>
    </g>
    <g id="ytick_7">
     <g id="line2d_16">
      <g>
       <use xlink:href="#ma6489d5bd8" x="35.304688" y="43.894601" style="stroke: #000000; stroke-width: 0.8"/>
      </g>
     </g>
     <g id="text_16">
      <!-- 15 -->
      <g transform="translate(15.579687 47.69382) scale(0.1 -0.1)">
       <use xlink:href="#DejaVuSans-31"/>
       <use xlink:href="#DejaVuSans-35" x="63.623047"/>
      </g>
     </g>
    </g>
    <g id="ytick_8">
     <g id="line2d_17">
      <g>
       <use xlink:href="#ma6489d5bd8" x="35.304688" y="10.999219" style="stroke: #000000; stroke-width: 0.8"/>
      </g>
     </g>
     <g id="text_17">
      <!-- 20 -->
      <g transform="translate(15.579687 14.798437) scale(0.1 -0.1)">
       <use xlink:href="#DejaVuSans-32"/>
       <use xlink:href="#DejaVuSans-30" x="63.623047"/>
      </g>
     </g>
    </g>
   </g>
   <g id="patch_3">
    <path d="M 35.304688 273.705157 
L 35.304688 7.593157 
" style="fill: none; stroke: #000000; stroke-width: 0.8; stroke-linejoin: miter; stroke-linecap: square"/>
   </g>
   <g id="patch_4">
    <path d="M 392.424688 273.705157 
L 392.424688 7.593157 
" style="fill: none; stroke: #000000; stroke-width: 0.8; stroke-linejoin: miter; stroke-linecap: square"/>
   </g>
   <g id="patch_5">
    <path d="M 35.304688 273.705157 
L 392.424688 273.705157 
" style="fill: none; stroke: #000000; stroke-width: 0.8; stroke-linejoin: miter; stroke-linecap: square"/>
   </g>
   <g id="patch_6">
    <path d="M 35.304688 7.593157 
L 392.424688 7.593157 
" style="fill: none; stroke: #000000; stroke-width: 0.8; stroke-linejoin: miter; stroke-linecap: square"/>
   </g>
  </g>
 </g>
 <defs>
  <clipPath id="pe60ce30dfc">
   <rect x="35.304688" y="7.593157" width="357.12" height="266.112"/>
  </clipPath>
 </defs>
</svg>
