<?xml version="1.0" encoding="utf-8" standalone="no"?>
<!DOCTYPE svg PUBLIC "-//W3C//DTD SVG 1.1//EN"
  "http://www.w3.org/Graphics/SVG/1.1/DTD/svg11.dtd">
<svg xmlns:xlink="http://www.w3.org/1999/xlink" width="399.624687pt" height="297.190125pt" viewBox="0 0 399.624687 297.190125" xmlns="http://www.w3.org/2000/svg" version="1.1">
 <metadata>
  <rdf:RDF xmlns:dc="http://purl.org/dc/elements/1.1/" xmlns:cc="http://creativecommons.org/ns#" xmlns:rdf="http://www.w3.org/1999/02/22-rdf-syntax-ns#">
   <cc:Work>
    <dc:type rdf:resource="http://purl.org/dc/dcmitype/StillImage"/>
    <dc:date>2023-11-11T04:20:27.779660</dc:date>
    <dc:format>image/svg+xml</dc:format>
    <dc:creator>
     <cc:Agent>
      <dc:title>Matplotlib v3.8.0, https://matplotlib.org/</dc:title>
     </cc:Agent>
    </dc:creator>
   </cc:Work>
  </rdf:RDF>
 </metadata>
 <defs>
  <style type="text/css">*{stroke-linejoin: round; stroke-linecap: butt}</style>
 </defs>
 <g id="figure_1">
  <g id="patch_1">
   <path d="M 0 297.190125 
L 399.624687 297.190125 
L 399.624687 0 
L 0 0 
z
" style="fill: #ffffff"/>
  </g>
  <g id="axes_1">
   <g id="patch_2">
    <path d="M 35.304688 273.312 
L 392.424688 273.312 
L 392.424688 7.2 
L 35.304688 7.2 
z
" style="fill: #ffffff"/>
   </g>
   <g id="PathCollection_1">
    <defs>
     <path id="m7e0981c6d1" d="M 0 1.5 
C 0.397805 1.5 0.77937 1.341951 1.06066 1.06066 
C 1.341951 0.77937 1.5 0.397805 1.5 0 
C 1.5 -0.397805 1.341951 -0.77937 1.06066 -1.06066 
C 0.77937 -1.341951 0.397805 -1.5 0 -1.5 
C -0.397805 -1.5 -0.77937 -1.341951 -1.06066 -1.06066 
C -1.341951 -0.77937 -1.5 -0.397805 -1.5 0 
C -1.5 0.397805 -1.341951 0.77937 -1.06066 1.06066 
C -0.77937 1.341951 -0.397805 1.5 0 1.5 
z
" style="stroke: #ff8c00"/>
    </defs>
    <g clip-path="url(#p39f4809aa9)">
     <use xlink:href="#m7e0981c6d1" x="269.797351" y="129.863987" style="fill: #ff8c00; stroke: #ff8c00"/>
     <use xlink:href="#m7e0981c6d1" x="203.985242" y="155.91075" style="fill: #ff8c00; stroke: #ff8c00"/>
     <use xlink:href="#m7e0981c6d1" x="296.68686" y="188.617991" style="fill: #ff8c00; stroke: #ff8c00"/>
     <use xlink:href="#m7e0981c6d1" x="319.936879" y="138.654361" style="fill: #ff8c00; stroke: #ff8c00"/>
     <use xlink:href="#m7e0981c6d1" x="259.979504" y="193.833387" style="fill: #ff8c00; stroke: #ff8c00"/>
     <use xlink:href="#m7e0981c6d1" x="205.860479" y="114.872623" style="fill: #ff8c00; stroke: #ff8c00"/>
     <use xlink:href="#m7e0981c6d1" x="245.746641" y="26.407432" style="fill: #ff8c00; stroke: #ff8c00"/>
     <use xlink:href="#m7e0981c6d1" x="238.462879" y="147.137846" style="fill: #ff8c00; stroke: #ff8c00"/>
     <use xlink:href="#m7e0981c6d1" x="209.046779" y="167.063176" style="fill: #ff8c00; stroke: #ff8c00"/>
     <use xlink:href="#m7e0981c6d1" x="276.517075" y="111.795749" style="fill: #ff8c00; stroke: #ff8c00"/>
     <use xlink:href="#m7e0981c6d1" x="310.636658" y="151.115564" style="fill: #ff8c00; stroke: #ff8c00"/>
     <use xlink:href="#m7e0981c6d1" x="376.19196" y="93.09251" style="fill: #ff8c00; stroke: #ff8c00"/>
     <use xlink:href="#m7e0981c6d1" x="341.4868" y="118.751647" style="fill: #ff8c00; stroke: #ff8c00"/>
     <use xlink:href="#m7e0981c6d1" x="230.307211" y="100.324257" style="fill: #ff8c00; stroke: #ff8c00"/>
     <use xlink:href="#m7e0981c6d1" x="212.806252" y="174.565831" style="fill: #ff8c00; stroke: #ff8c00"/>
    </g>
   </g>
   <g id="PathCollection_2">
    <defs>
     <path id="m2b9806fcca" d="M 0 1.5 
C 0.397805 1.5 0.77937 1.341951 1.06066 1.06066 
C 1.341951 0.77937 1.5 0.397805 1.5 0 
C 1.5 -0.397805 1.341951 -0.77937 1.06066 -1.06066 
C 0.77937 -1.341951 0.397805 -1.5 0 -1.5 
C -0.397805 -1.5 -0.77937 -1.341951 -1.06066 -1.06066 
C -1.341951 -0.77937 -1.5 -0.397805 -1.5 0 
C -1.5 0.397805 -1.341951 0.77937 -1.06066 1.06066 
C -0.77937 1.341951 -0.397805 1.5 0 1.5 
z
" style="stroke: #006400"/>
    </defs>
    <g clip-path="url(#p39f4809aa9)">
     <use xlink:href="#m2b9806fcca" x="280.59125" y="92.637662" style="fill: #006400; stroke: #006400"/>
     <use xlink:href="#m2b9806fcca" x="290.425739" y="119.672779" style="fill: #006400; stroke: #006400"/>
     <use xlink:href="#m2b9806fcca" x="356.120458" y="40.709782" style="fill: #006400; stroke: #006400"/>
     <use xlink:href="#m2b9806fcca" x="171.229736" y="48.497383" style="fill: #006400; stroke: #006400"/>
     <use xlink:href="#m2b9806fcca" x="293.870862" y="21.099722" style="fill: #006400; stroke: #006400"/>
     <use xlink:href="#m2b9806fcca" x="271.389161" y="115.72093" style="fill: #006400; stroke: #006400"/>
     <use xlink:href="#m2b9806fcca" x="238.702909" y="30.210601" style="fill: #006400; stroke: #006400"/>
     <use xlink:href="#m2b9806fcca" x="244.955281" y="82.209111" style="fill: #006400; stroke: #006400"/>
     <use xlink:href="#m2b9806fcca" x="268.198007" y="25.900099" style="fill: #006400; stroke: #006400"/>
     <use xlink:href="#m2b9806fcca" x="226.91033" y="83.963086" style="fill: #006400; stroke: #006400"/>
     <use xlink:href="#m2b9806fcca" x="223.983165" y="62.583976" style="fill: #006400; stroke: #006400"/>
    </g>
   </g>
   <g id="PathCollection_3">
    <defs>
     <path id="me132d821a8" d="M 0 1.5 
C 0.397805 1.5 0.77937 1.341951 1.06066 1.06066 
C 1.341951 0.77937 1.5 0.397805 1.5 0 
C 1.5 -0.397805 1.341951 -0.77937 1.06066 -1.06066 
C 0.77937 -1.341951 0.397805 -1.5 0 -1.5 
C -0.397805 -1.5 -0.77937 -1.341951 -1.06066 -1.06066 
C -1.341951 -0.77937 -1.5 -0.397805 -1.5 0 
C -1.5 0.397805 -1.341951 0.77937 -1.06066 1.06066 
C -0.77937 1.341951 -0.397805 1.5 0 1.5 
z
" style="stroke: #2f4f4f"/>
    </defs>
    <g clip-path="url(#p39f4809aa9)">
     <use xlink:href="#me132d821a8" x="188.364016" y="92.066673" style="fill: #2f4f4f; stroke: #2f4f4f"/>
     <use xlink:href="#me132d821a8" x="208.883952" y="207.220915" style="fill: #2f4f4f; stroke: #2f4f4f"/>
     <use xlink:href="#me132d821a8" x="228.23147" y="221.296223" style="fill: #2f4f4f; stroke: #2f4f4f"/>
     <use xlink:href="#me132d821a8" x="145.704161" y="107.553931" style="fill: #2f4f4f; stroke: #2f4f4f"/>
     <use xlink:href="#me132d821a8" x="183.082751" y="202.923559" style="fill: #2f4f4f; stroke: #2f4f4f"/>
     <use xlink:href="#me132d821a8" x="189.338367" y="166.760826" style="fill: #2f4f4f; stroke: #2f4f4f"/>
     <use xlink:href="#me132d821a8" x="208.611598" y="176.177142" style="fill: #2f4f4f; stroke: #2f4f4f"/>
     <use xlink:href="#me132d821a8" x="213.585649" y="180.562405" style="fill: #2f4f4f; stroke: #2f4f4f"/>
     <use xlink:href="#me132d821a8" x="107.248273" y="92.051344" style="fill: #2f4f4f; stroke: #2f4f4f"/>
    </g>
   </g>
   <g id="PathCollection_4">
    <defs>
     <path id="m9bd7cfbd5e" d="M 0 1.5 
C 0.397805 1.5 0.77937 1.341951 1.06066 1.06066 
C 1.341951 0.77937 1.5 0.397805 1.5 0 
C 1.5 -0.397805 1.341951 -0.77937 1.06066 -1.06066 
C 0.77937 -1.341951 0.397805 -1.5 0 -1.5 
C -0.397805 -1.5 -0.77937 -1.341951 -1.06066 -1.06066 
C -1.341951 -0.77937 -1.5 -0.397805 -1.5 0 
C -1.5 0.397805 -1.341951 0.77937 -1.06066 1.06066 
C -0.77937 1.341951 -0.397805 1.5 0 1.5 
z
" style="stroke: #00bfff"/>
    </defs>
    <g clip-path="url(#p39f4809aa9)">
     <use xlink:href="#m9bd7cfbd5e" x="196.22346" y="173.562888" style="fill: #00bfff; stroke: #00bfff"/>
     <use xlink:href="#m9bd7cfbd5e" x="189.978794" y="216.247675" style="fill: #00bfff; stroke: #00bfff"/>
     <use xlink:href="#m9bd7cfbd5e" x="231.210431" y="226.729718" style="fill: #00bfff; stroke: #00bfff"/>
     <use xlink:href="#m9bd7cfbd5e" x="218.885078" y="210.783592" style="fill: #00bfff; stroke: #00bfff"/>
     <use xlink:href="#m9bd7cfbd5e" x="210.247393" y="217.952984" style="fill: #00bfff; stroke: #00bfff"/>
     <use xlink:href="#m9bd7cfbd5e" x="231.82612" y="201.942231" style="fill: #00bfff; stroke: #00bfff"/>
     <use xlink:href="#m9bd7cfbd5e" x="234.953281" y="226.973266" style="fill: #00bfff; stroke: #00bfff"/>
     <use xlink:href="#m9bd7cfbd5e" x="222.626313" y="197.072954" style="fill: #00bfff; stroke: #00bfff"/>
     <use xlink:href="#m9bd7cfbd5e" x="197.362787" y="224.980067" style="fill: #00bfff; stroke: #00bfff"/>
     <use xlink:href="#m9bd7cfbd5e" x="207.397876" y="241.478691" style="fill: #00bfff; stroke: #00bfff"/>
     <use xlink:href="#m9bd7cfbd5e" x="217.151752" y="214.161571" style="fill: #00bfff; stroke: #00bfff"/>
     <use xlink:href="#m9bd7cfbd5e" x="141.417134" y="104.559516" style="fill: #00bfff; stroke: #00bfff"/>
     <use xlink:href="#m9bd7cfbd5e" x="203.25554" y="209.795366" style="fill: #00bfff; stroke: #00bfff"/>
    </g>
   </g>
   <g id="PathCollection_5">
    <defs>
     <path id="ma8c1f881a6" d="M 0 1.5 
C 0.397805 1.5 0.77937 1.341951 1.06066 1.06066 
C 1.341951 0.77937 1.5 0.397805 1.5 0 
C 1.5 -0.397805 1.341951 -0.77937 1.06066 -1.06066 
C 0.77937 -1.341951 0.397805 -1.5 0 -1.5 
C -0.397805 -1.5 -0.77937 -1.341951 -1.06066 -1.06066 
C -1.341951 -0.77937 -1.5 -0.397805 -1.5 0 
C -1.5 0.397805 -1.341951 0.77937 -1.06066 1.06066 
C -0.77937 1.341951 -0.397805 1.5 0 1.5 
z
" style="stroke: #ffff00"/>
    </defs>
    <g clip-path="url(#p39f4809aa9)">
     <use xlink:href="#ma8c1f881a6" x="157.573722" y="152.870167" style="fill: #ffff00; stroke: #ffff00"/>
     <use xlink:href="#ma8c1f881a6" x="118.265563" y="101.673959" style="fill: #ffff00; stroke: #ffff00"/>
     <use xlink:href="#ma8c1f881a6" x="170.498475" y="198.033584" style="fill: #ffff00; stroke: #ffff00"/>
     <use xlink:href="#ma8c1f881a6" x="164.344022" y="154.515005" style="fill: #ffff00; stroke: #ffff00"/>
     <use xlink:href="#ma8c1f881a6" x="160.076805" y="190.725583" style="fill: #ffff00; stroke: #ffff00"/>
     <use xlink:href="#ma8c1f881a6" x="96.231511" y="146.231525" style="fill: #ffff00; stroke: #ffff00"/>
     <use xlink:href="#ma8c1f881a6" x="172.350064" y="146.690389" style="fill: #ffff00; stroke: #ffff00"/>
     <use xlink:href="#ma8c1f881a6" x="214.109539" y="183.743712" style="fill: #ffff00; stroke: #ffff00"/>
     <use xlink:href="#ma8c1f881a6" x="145.462209" y="140.771976" style="fill: #ffff00; stroke: #ffff00"/>
     <use xlink:href="#ma8c1f881a6" x="138.102871" y="144.306766" style="fill: #ffff00; stroke: #ffff00"/>
     <use xlink:href="#ma8c1f881a6" x="153.952761" y="89.436812" style="fill: #ffff00; stroke: #ffff00"/>
     <use xlink:href="#ma8c1f881a6" x="167.354295" y="150.663769" style="fill: #ffff00; stroke: #ffff00"/>
     <use xlink:href="#ma8c1f881a6" x="144.052097" y="158.445301" style="fill: #ffff00; stroke: #ffff00"/>
     <use xlink:href="#ma8c1f881a6" x="126.263049" y="135.816729" style="fill: #ffff00; stroke: #ffff00"/>
    </g>
   </g>
   <g id="PathCollection_6">
    <defs>
     <path id="meb75119f6a" d="M 0 1.5 
C 0.397805 1.5 0.77937 1.341951 1.06066 1.06066 
C 1.341951 0.77937 1.5 0.397805 1.5 0 
C 1.5 -0.397805 1.341951 -0.77937 1.06066 -1.06066 
C 0.77937 -1.341951 0.397805 -1.5 0 -1.5 
C -0.397805 -1.5 -0.77937 -1.341951 -1.06066 -1.06066 
C -1.341951 -0.77937 -1.5 -0.397805 -1.5 0 
C -1.5 0.397805 -1.341951 0.77937 -1.06066 1.06066 
C -0.77937 1.341951 -0.397805 1.5 0 1.5 
z
" style="stroke: #00ffff"/>
    </defs>
    <g clip-path="url(#p39f4809aa9)">
     <use xlink:href="#meb75119f6a" x="234.65005" y="184.840413" style="fill: #00ffff; stroke: #00ffff"/>
     <use xlink:href="#meb75119f6a" x="225.532934" y="216.592967" style="fill: #00ffff; stroke: #00ffff"/>
     <use xlink:href="#meb75119f6a" x="210.834506" y="170.640179" style="fill: #00ffff; stroke: #00ffff"/>
     <use xlink:href="#meb75119f6a" x="213.39164" y="186.277025" style="fill: #00ffff; stroke: #00ffff"/>
     <use xlink:href="#meb75119f6a" x="227.775518" y="139.611487" style="fill: #00ffff; stroke: #00ffff"/>
     <use xlink:href="#meb75119f6a" x="210.739702" y="160.337546" style="fill: #00ffff; stroke: #00ffff"/>
     <use xlink:href="#meb75119f6a" x="157.971581" y="19.296" style="fill: #00ffff; stroke: #00ffff"/>
     <use xlink:href="#meb75119f6a" x="172.56903" y="98.521141" style="fill: #00ffff; stroke: #00ffff"/>
     <use xlink:href="#meb75119f6a" x="195.462379" y="187.895392" style="fill: #00ffff; stroke: #00ffff"/>
     <use xlink:href="#meb75119f6a" x="182.574891" y="147.362212" style="fill: #00ffff; stroke: #00ffff"/>
     <use xlink:href="#meb75119f6a" x="218.708949" y="199.059318" style="fill: #00ffff; stroke: #00ffff"/>
     <use xlink:href="#meb75119f6a" x="214.005341" y="192.59473" style="fill: #00ffff; stroke: #00ffff"/>
     <use xlink:href="#meb75119f6a" x="217.560836" y="181.280318" style="fill: #00ffff; stroke: #00ffff"/>
     <use xlink:href="#meb75119f6a" x="227.539327" y="165.96847" style="fill: #00ffff; stroke: #00ffff"/>
     <use xlink:href="#meb75119f6a" x="180.485676" y="121.815401" style="fill: #00ffff; stroke: #00ffff"/>
     <use xlink:href="#meb75119f6a" x="251.968905" y="129.988186" style="fill: #00ffff; stroke: #00ffff"/>
     <use xlink:href="#meb75119f6a" x="211.383202" y="159.629635" style="fill: #00ffff; stroke: #00ffff"/>
     <use xlink:href="#meb75119f6a" x="224.520371" y="141.404953" style="fill: #00ffff; stroke: #00ffff"/>
     <use xlink:href="#meb75119f6a" x="220.038994" y="169.572189" style="fill: #00ffff; stroke: #00ffff"/>
     <use xlink:href="#meb75119f6a" x="123.020845" y="165.846545" style="fill: #00ffff; stroke: #00ffff"/>
     <use xlink:href="#meb75119f6a" x="180.785884" y="150.665432" style="fill: #00ffff; stroke: #00ffff"/>
    </g>
   </g>
   <g id="PathCollection_7">
    <defs>
     <path id="mbc7c258439" d="M 0 1.5 
C 0.397805 1.5 0.77937 1.341951 1.06066 1.06066 
C 1.341951 0.77937 1.5 0.397805 1.5 0 
C 1.5 -0.397805 1.341951 -0.77937 1.06066 -1.06066 
C 0.77937 -1.341951 0.397805 -1.5 0 -1.5 
C -0.397805 -1.5 -0.77937 -1.341951 -1.06066 -1.06066 
C -1.341951 -0.77937 -1.5 -0.397805 -1.5 0 
C -1.5 0.397805 -1.341951 0.77937 -1.06066 1.06066 
C -0.77937 1.341951 -0.397805 1.5 0 1.5 
z
" style="stroke: #0000ff"/>
    </defs>
    <g clip-path="url(#p39f4809aa9)">
     <use xlink:href="#mbc7c258439" x="223.857127" y="123.083011" style="fill: #0000ff; stroke: #0000ff"/>
     <use xlink:href="#mbc7c258439" x="224.663104" y="137.277416" style="fill: #0000ff; stroke: #0000ff"/>
     <use xlink:href="#mbc7c258439" x="203.794999" y="234.751397" style="fill: #0000ff; stroke: #0000ff"/>
     <use xlink:href="#mbc7c258439" x="194.685626" y="210.959945" style="fill: #0000ff; stroke: #0000ff"/>
     <use xlink:href="#mbc7c258439" x="233.795372" y="231.242504" style="fill: #0000ff; stroke: #0000ff"/>
     <use xlink:href="#mbc7c258439" x="221.060521" y="125.079382" style="fill: #0000ff; stroke: #0000ff"/>
     <use xlink:href="#mbc7c258439" x="183.265848" y="178.572294" style="fill: #0000ff; stroke: #0000ff"/>
     <use xlink:href="#mbc7c258439" x="224.282879" y="243.493891" style="fill: #0000ff; stroke: #0000ff"/>
     <use xlink:href="#mbc7c258439" x="202.232798" y="227.615556" style="fill: #0000ff; stroke: #0000ff"/>
     <use xlink:href="#mbc7c258439" x="214.831802" y="221.518366" style="fill: #0000ff; stroke: #0000ff"/>
     <use xlink:href="#mbc7c258439" x="273.09474" y="261.216" style="fill: #0000ff; stroke: #0000ff"/>
     <use xlink:href="#mbc7c258439" x="226.202817" y="216.333494" style="fill: #0000ff; stroke: #0000ff"/>
    </g>
   </g>
   <g id="PathCollection_8">
    <defs>
     <path id="m972a6cae00" d="M 0 1.5 
C 0.397805 1.5 0.77937 1.341951 1.06066 1.06066 
C 1.341951 0.77937 1.5 0.397805 1.5 0 
C 1.5 -0.397805 1.341951 -0.77937 1.06066 -1.06066 
C 0.77937 -1.341951 0.397805 -1.5 0 -1.5 
C -0.397805 -1.5 -0.77937 -1.341951 -1.06066 -1.06066 
C -1.341951 -0.77937 -1.5 -0.397805 -1.5 0 
C -1.5 0.397805 -1.341951 0.77937 -1.06066 1.06066 
C -0.77937 1.341951 -0.397805 1.5 0 1.5 
z
" style="stroke: #dc143c"/>
    </defs>
    <g clip-path="url(#p39f4809aa9)">
     <use xlink:href="#m972a6cae00" x="280.662074" y="118.625638" style="fill: #dc143c; stroke: #dc143c"/>
     <use xlink:href="#m972a6cae00" x="222.305038" y="99.882185" style="fill: #dc143c; stroke: #dc143c"/>
     <use xlink:href="#m972a6cae00" x="311.009798" y="117.332146" style="fill: #dc143c; stroke: #dc143c"/>
     <use xlink:href="#m972a6cae00" x="268.445034" y="160.972286" style="fill: #dc143c; stroke: #dc143c"/>
     <use xlink:href="#m972a6cae00" x="283.523504" y="168.064393" style="fill: #dc143c; stroke: #dc143c"/>
     <use xlink:href="#m972a6cae00" x="258.787714" y="171.654702" style="fill: #dc143c; stroke: #dc143c"/>
     <use xlink:href="#m972a6cae00" x="265.852799" y="167.7521" style="fill: #dc143c; stroke: #dc143c"/>
     <use xlink:href="#m972a6cae00" x="215.428394" y="72.482072" style="fill: #dc143c; stroke: #dc143c"/>
     <use xlink:href="#m972a6cae00" x="243.314888" y="182.084098" style="fill: #dc143c; stroke: #dc143c"/>
     <use xlink:href="#m972a6cae00" x="257.936594" y="48.706064" style="fill: #dc143c; stroke: #dc143c"/>
     <use xlink:href="#m972a6cae00" x="276.88407" y="90.378272" style="fill: #dc143c; stroke: #dc143c"/>
     <use xlink:href="#m972a6cae00" x="236.260838" y="110.746681" style="fill: #dc143c; stroke: #dc143c"/>
     <use xlink:href="#m972a6cae00" x="220.916666" y="98.481206" style="fill: #dc143c; stroke: #dc143c"/>
     <use xlink:href="#m972a6cae00" x="207.782175" y="134.359661" style="fill: #dc143c; stroke: #dc143c"/>
     <use xlink:href="#m972a6cae00" x="300.790216" y="149.145243" style="fill: #dc143c; stroke: #dc143c"/>
     <use xlink:href="#m972a6cae00" x="305.534493" y="72.013884" style="fill: #dc143c; stroke: #dc143c"/>
     <use xlink:href="#m972a6cae00" x="299.77703" y="155.844527" style="fill: #dc143c; stroke: #dc143c"/>
     <use xlink:href="#m972a6cae00" x="202.271181" y="153.777365" style="fill: #dc143c; stroke: #dc143c"/>
     <use xlink:href="#m972a6cae00" x="263.276267" y="101.309528" style="fill: #dc143c; stroke: #dc143c"/>
     <use xlink:href="#m972a6cae00" x="186.038811" y="118.092469" style="fill: #dc143c; stroke: #dc143c"/>
    </g>
   </g>
   <g id="PathCollection_9">
    <defs>
     <path id="m83415bf195" d="M 0 1.5 
C 0.397805 1.5 0.77937 1.341951 1.06066 1.06066 
C 1.341951 0.77937 1.5 0.397805 1.5 0 
C 1.5 -0.397805 1.341951 -0.77937 1.06066 -1.06066 
C 0.77937 -1.341951 0.397805 -1.5 0 -1.5 
C -0.397805 -1.5 -0.77937 -1.341951 -1.06066 -1.06066 
C -1.341951 -0.77937 -1.5 -0.397805 -1.5 0 
C -1.5 0.397805 -1.341951 0.77937 -1.06066 1.06066 
C -0.77937 1.341951 -0.397805 1.5 0 1.5 
z
" style="stroke: #ffe4c4"/>
    </defs>
    <g clip-path="url(#p39f4809aa9)">
     <use xlink:href="#m83415bf195" x="331.274499" y="139.368158" style="fill: #ffe4c4; stroke: #ffe4c4"/>
     <use xlink:href="#m83415bf195" x="255.595464" y="43.871056" style="fill: #ffe4c4; stroke: #ffe4c4"/>
     <use xlink:href="#m83415bf195" x="173.914256" y="141.641185" style="fill: #ffe4c4; stroke: #ffe4c4"/>
     <use xlink:href="#m83415bf195" x="183.143191" y="68.583786" style="fill: #ffe4c4; stroke: #ffe4c4"/>
     <use xlink:href="#m83415bf195" x="281.412399" y="87.149452" style="fill: #ffe4c4; stroke: #ffe4c4"/>
     <use xlink:href="#m83415bf195" x="212.280829" y="162.620648" style="fill: #ffe4c4; stroke: #ffe4c4"/>
     <use xlink:href="#m83415bf195" x="277.08038" y="137.556333" style="fill: #ffe4c4; stroke: #ffe4c4"/>
     <use xlink:href="#m83415bf195" x="153.661668" y="77.340293" style="fill: #ffe4c4; stroke: #ffe4c4"/>
     <use xlink:href="#m83415bf195" x="198.106546" y="70.372519" style="fill: #ffe4c4; stroke: #ffe4c4"/>
     <use xlink:href="#m83415bf195" x="215.807376" y="117.051071" style="fill: #ffe4c4; stroke: #ffe4c4"/>
     <use xlink:href="#m83415bf195" x="245.553619" y="103.153328" style="fill: #ffe4c4; stroke: #ffe4c4"/>
     <use xlink:href="#m83415bf195" x="227.604563" y="159.566059" style="fill: #ffe4c4; stroke: #ffe4c4"/>
     <use xlink:href="#m83415bf195" x="206.536471" y="129.49372" style="fill: #ffe4c4; stroke: #ffe4c4"/>
    </g>
   </g>
   <g id="PathCollection_10">
    <defs>
     <path id="m194ddc82be" d="M -2.99994 2.99994 
L 3.00006 2.99994 
L 3.00006 -3.00006 
L -2.99994 -3.00006 
z
" style="stroke: #000000"/>
    </defs>
    <g clip-path="url(#p39f4809aa9)">
     <use xlink:href="#m194ddc82be" x="110.206165" y="165.231881" style="stroke: #000000"/>
     <use xlink:href="#m194ddc82be" x="88.964942" y="113.429622" style="stroke: #000000"/>
     <use xlink:href="#m194ddc82be" x="108.003817" y="174.003257" style="stroke: #000000"/>
     <use xlink:href="#m194ddc82be" x="152.354666" y="183.405303" style="stroke: #000000"/>
     <use xlink:href="#m194ddc82be" x="137.698983" y="157.64857" style="stroke: #000000"/>
     <use xlink:href="#m194ddc82be" x="178.171228" y="165.629926" style="stroke: #000000"/>
     <use xlink:href="#m194ddc82be" x="148.440032" y="189.014586" style="stroke: #000000"/>
     <use xlink:href="#m194ddc82be" x="193.516536" y="97.936976" style="stroke: #000000"/>
     <use xlink:href="#m194ddc82be" x="167.420525" y="157.576696" style="stroke: #000000"/>
     <use xlink:href="#m194ddc82be" x="127.994085" y="98.011849" style="stroke: #000000"/>
     <use xlink:href="#m194ddc82be" x="226.969048" y="133.89339" style="stroke: #000000"/>
     <use xlink:href="#m194ddc82be" x="121.07184" y="87.657458" style="stroke: #000000"/>
     <use xlink:href="#m194ddc82be" x="89.387632" y="104.551327" style="stroke: #000000"/>
     <use xlink:href="#m194ddc82be" x="222.187755" y="242.332591" style="stroke: #000000"/>
     <use xlink:href="#m194ddc82be" x="144.283062" y="202.559533" style="stroke: #000000"/>
     <use xlink:href="#m194ddc82be" x="192.264028" y="184.871601" style="stroke: #000000"/>
     <use xlink:href="#m194ddc82be" x="194.953521" y="155.22856" style="stroke: #000000"/>
     <use xlink:href="#m194ddc82be" x="149.056621" y="161.628014" style="stroke: #000000"/>
     <use xlink:href="#m194ddc82be" x="136.835116" y="204.118059" style="stroke: #000000"/>
     <use xlink:href="#m194ddc82be" x="185.154812" y="170.983943" style="stroke: #000000"/>
     <use xlink:href="#m194ddc82be" x="150.508366" y="156.110492" style="stroke: #000000"/>
     <use xlink:href="#m194ddc82be" x="169.730049" y="174.269645" style="stroke: #000000"/>
     <use xlink:href="#m194ddc82be" x="80.847769" y="140.596428" style="stroke: #000000"/>
     <use xlink:href="#m194ddc82be" x="148.916759" y="164.671052" style="stroke: #000000"/>
     <use xlink:href="#m194ddc82be" x="168.650068" y="169.636625" style="stroke: #000000"/>
     <use xlink:href="#m194ddc82be" x="199.155643" y="169.843916" style="stroke: #000000"/>
     <use xlink:href="#m194ddc82be" x="131.546538" y="146.36082" style="stroke: #000000"/>
     <use xlink:href="#m194ddc82be" x="164.46236" y="184.656881" style="stroke: #000000"/>
     <use xlink:href="#m194ddc82be" x="119.165148" y="131.692255" style="stroke: #000000"/>
     <use xlink:href="#m194ddc82be" x="155.784969" y="22.326723" style="stroke: #000000"/>
     <use xlink:href="#m194ddc82be" x="137.235898" y="120.96969" style="stroke: #000000"/>
     <use xlink:href="#m194ddc82be" x="193.831667" y="182.160906" style="stroke: #000000"/>
     <use xlink:href="#m194ddc82be" x="189.221187" y="206.947423" style="stroke: #000000"/>
     <use xlink:href="#m194ddc82be" x="175.045985" y="118.517607" style="stroke: #000000"/>
     <use xlink:href="#m194ddc82be" x="138.157035" y="121.549645" style="stroke: #000000"/>
     <use xlink:href="#m194ddc82be" x="144.06035" y="110.753667" style="stroke: #000000"/>
     <use xlink:href="#m194ddc82be" x="173.381956" y="158.929684" style="stroke: #000000"/>
     <use xlink:href="#m194ddc82be" x="167.748665" y="187.747157" style="stroke: #000000"/>
     <use xlink:href="#m194ddc82be" x="125.37593" y="173.852963" style="stroke: #000000"/>
     <use xlink:href="#m194ddc82be" x="74.88327" y="89.92857" style="stroke: #000000"/>
     <use xlink:href="#m194ddc82be" x="180.63532" y="167.182717" style="stroke: #000000"/>
     <use xlink:href="#m194ddc82be" x="172.502299" y="111.676873" style="stroke: #000000"/>
     <use xlink:href="#m194ddc82be" x="181.137809" y="177.744611" style="stroke: #000000"/>
     <use xlink:href="#m194ddc82be" x="104.036751" y="146.51903" style="stroke: #000000"/>
     <use xlink:href="#m194ddc82be" x="178.5229" y="180.998702" style="stroke: #000000"/>
     <use xlink:href="#m194ddc82be" x="154.584391" y="197.589402" style="stroke: #000000"/>
     <use xlink:href="#m194ddc82be" x="53.516867" y="32.60005" style="stroke: #000000"/>
     <use xlink:href="#m194ddc82be" x="51.537415" y="96.983657" style="stroke: #000000"/>
     <use xlink:href="#m194ddc82be" x="185.404638" y="146.81595" style="stroke: #000000"/>
     <use xlink:href="#m194ddc82be" x="125.264678" y="194.295993" style="stroke: #000000"/>
     <use xlink:href="#m194ddc82be" x="142.975923" y="133.726375" style="stroke: #000000"/>
     <use xlink:href="#m194ddc82be" x="138.144911" y="152.088178" style="stroke: #000000"/>
     <use xlink:href="#m194ddc82be" x="151.587117" y="167.186021" style="stroke: #000000"/>
     <use xlink:href="#m194ddc82be" x="185.147071" y="190.570043" style="stroke: #000000"/>
     <use xlink:href="#m194ddc82be" x="77.630454" y="117.035312" style="stroke: #000000"/>
     <use xlink:href="#m194ddc82be" x="136.050501" y="163.889651" style="stroke: #000000"/>
     <use xlink:href="#m194ddc82be" x="209.927437" y="159.182057" style="stroke: #000000"/>
     <use xlink:href="#m194ddc82be" x="195.018151" y="143.713739" style="stroke: #000000"/>
     <use xlink:href="#m194ddc82be" x="173.401849" y="153.067608" style="stroke: #000000"/>
     <use xlink:href="#m194ddc82be" x="220.131503" y="137.682229" style="stroke: #000000"/>
     <use xlink:href="#m194ddc82be" x="161.160925" y="29.207616" style="stroke: #000000"/>
     <use xlink:href="#m194ddc82be" x="225.362012" y="239.050981" style="stroke: #000000"/>
     <use xlink:href="#m194ddc82be" x="166.097138" y="155.621995" style="stroke: #000000"/>
     <use xlink:href="#m194ddc82be" x="185.251128" y="93.851471" style="stroke: #000000"/>
    </g>
   </g>
   <g id="PathCollection_11">
    <defs>
     <path id="ma52b40b877" d="M -3 -0 
L 3 3 
L 3 -3 
z
" style="stroke: #ff8c00"/>
    </defs>
    <g clip-path="url(#p39f4809aa9)">
     <use xlink:href="#ma52b40b877" x="128.108801" y="152.651177" style="fill: #ff8c00; stroke: #ff8c00"/>
     <use xlink:href="#ma52b40b877" x="212.44278" y="132.371111" style="fill: #ff8c00; stroke: #ff8c00"/>
     <use xlink:href="#ma52b40b877" x="171.478745" y="175.546872" style="fill: #ff8c00; stroke: #ff8c00"/>
     <use xlink:href="#ma52b40b877" x="179.940746" y="181.855684" style="fill: #ff8c00; stroke: #ff8c00"/>
     <use xlink:href="#ma52b40b877" x="135.299869" y="129.086362" style="fill: #ff8c00; stroke: #ff8c00"/>
     <use xlink:href="#ma52b40b877" x="148.065033" y="176.92284" style="fill: #ff8c00; stroke: #ff8c00"/>
     <use xlink:href="#ma52b40b877" x="83.898777" y="197.347876" style="fill: #ff8c00; stroke: #ff8c00"/>
     <use xlink:href="#ma52b40b877" x="191.500129" y="175.440427" style="fill: #ff8c00; stroke: #ff8c00"/>
     <use xlink:href="#ma52b40b877" x="118.824347" y="198.527398" style="fill: #ff8c00; stroke: #ff8c00"/>
     <use xlink:href="#ma52b40b877" x="127.197857" y="136.473787" style="fill: #ff8c00; stroke: #ff8c00"/>
     <use xlink:href="#ma52b40b877" x="111.530495" y="160.270576" style="fill: #ff8c00; stroke: #ff8c00"/>
     <use xlink:href="#ma52b40b877" x="150.309606" y="137.210317" style="fill: #ff8c00; stroke: #ff8c00"/>
     <use xlink:href="#ma52b40b877" x="153.541521" y="124.137313" style="fill: #ff8c00; stroke: #ff8c00"/>
     <use xlink:href="#ma52b40b877" x="122.533537" y="109.078154" style="fill: #ff8c00; stroke: #ff8c00"/>
     <use xlink:href="#ma52b40b877" x="163.913021" y="90.219389" style="fill: #ff8c00; stroke: #ff8c00"/>
     <use xlink:href="#ma52b40b877" x="192.982579" y="168.453694" style="fill: #ff8c00; stroke: #ff8c00"/>
     <use xlink:href="#ma52b40b877" x="160.11206" y="144.572728" style="fill: #ff8c00; stroke: #ff8c00"/>
     <use xlink:href="#ma52b40b877" x="161.027877" y="171.598627" style="fill: #ff8c00; stroke: #ff8c00"/>
     <use xlink:href="#ma52b40b877" x="97.547282" y="70.581074" style="fill: #ff8c00; stroke: #ff8c00"/>
     <use xlink:href="#ma52b40b877" x="185.003999" y="175.471273" style="fill: #ff8c00; stroke: #ff8c00"/>
     <use xlink:href="#ma52b40b877" x="164.23711" y="141.188083" style="fill: #ff8c00; stroke: #ff8c00"/>
     <use xlink:href="#ma52b40b877" x="243.437511" y="81.682354" style="fill: #ff8c00; stroke: #ff8c00"/>
     <use xlink:href="#ma52b40b877" x="186.212537" y="169.564127" style="fill: #ff8c00; stroke: #ff8c00"/>
     <use xlink:href="#ma52b40b877" x="169.899088" y="138.88969" style="fill: #ff8c00; stroke: #ff8c00"/>
     <use xlink:href="#ma52b40b877" x="201.520236" y="150.266871" style="fill: #ff8c00; stroke: #ff8c00"/>
     <use xlink:href="#ma52b40b877" x="142.311161" y="180.367071" style="fill: #ff8c00; stroke: #ff8c00"/>
     <use xlink:href="#ma52b40b877" x="186.344127" y="159.072515" style="fill: #ff8c00; stroke: #ff8c00"/>
     <use xlink:href="#ma52b40b877" x="189.064922" y="208.011165" style="fill: #ff8c00; stroke: #ff8c00"/>
     <use xlink:href="#ma52b40b877" x="107.051317" y="124.770372" style="fill: #ff8c00; stroke: #ff8c00"/>
     <use xlink:href="#ma52b40b877" x="133.28203" y="164.265194" style="fill: #ff8c00; stroke: #ff8c00"/>
     <use xlink:href="#ma52b40b877" x="133.180368" y="132.110413" style="fill: #ff8c00; stroke: #ff8c00"/>
     <use xlink:href="#ma52b40b877" x="150.721909" y="146.161598" style="fill: #ff8c00; stroke: #ff8c00"/>
     <use xlink:href="#ma52b40b877" x="184.247026" y="184.151994" style="fill: #ff8c00; stroke: #ff8c00"/>
     <use xlink:href="#ma52b40b877" x="140.953041" y="128.210006" style="fill: #ff8c00; stroke: #ff8c00"/>
     <use xlink:href="#ma52b40b877" x="109.453661" y="108.764004" style="fill: #ff8c00; stroke: #ff8c00"/>
     <use xlink:href="#ma52b40b877" x="159.257584" y="108.597098" style="fill: #ff8c00; stroke: #ff8c00"/>
     <use xlink:href="#ma52b40b877" x="181.927073" y="109.359089" style="fill: #ff8c00; stroke: #ff8c00"/>
     <use xlink:href="#ma52b40b877" x="121.396279" y="153.497005" style="fill: #ff8c00; stroke: #ff8c00"/>
     <use xlink:href="#ma52b40b877" x="164.429335" y="160.562649" style="fill: #ff8c00; stroke: #ff8c00"/>
     <use xlink:href="#ma52b40b877" x="194.247933" y="177.319151" style="fill: #ff8c00; stroke: #ff8c00"/>
     <use xlink:href="#ma52b40b877" x="150.31325" y="205.957383" style="fill: #ff8c00; stroke: #ff8c00"/>
     <use xlink:href="#ma52b40b877" x="173.278506" y="142.632147" style="fill: #ff8c00; stroke: #ff8c00"/>
     <use xlink:href="#ma52b40b877" x="163.621482" y="151.905975" style="fill: #ff8c00; stroke: #ff8c00"/>
     <use xlink:href="#ma52b40b877" x="123.601804" y="154.065586" style="fill: #ff8c00; stroke: #ff8c00"/>
     <use xlink:href="#ma52b40b877" x="191.391519" y="26.717261" style="fill: #ff8c00; stroke: #ff8c00"/>
     <use xlink:href="#ma52b40b877" x="164.920687" y="120.152253" style="fill: #ff8c00; stroke: #ff8c00"/>
     <use xlink:href="#ma52b40b877" x="231.017063" y="131.416758" style="fill: #ff8c00; stroke: #ff8c00"/>
     <use xlink:href="#ma52b40b877" x="164.072477" y="124.818245" style="fill: #ff8c00; stroke: #ff8c00"/>
     <use xlink:href="#ma52b40b877" x="212.569178" y="158.432267" style="fill: #ff8c00; stroke: #ff8c00"/>
     <use xlink:href="#ma52b40b877" x="159.678554" y="161.49346" style="fill: #ff8c00; stroke: #ff8c00"/>
     <use xlink:href="#ma52b40b877" x="174.676783" y="191.977577" style="fill: #ff8c00; stroke: #ff8c00"/>
     <use xlink:href="#ma52b40b877" x="171.798727" y="149.883779" style="fill: #ff8c00; stroke: #ff8c00"/>
     <use xlink:href="#ma52b40b877" x="174.169326" y="154.153991" style="fill: #ff8c00; stroke: #ff8c00"/>
     <use xlink:href="#ma52b40b877" x="142.616518" y="140.632312" style="fill: #ff8c00; stroke: #ff8c00"/>
     <use xlink:href="#ma52b40b877" x="225.618019" y="121.213011" style="fill: #ff8c00; stroke: #ff8c00"/>
     <use xlink:href="#ma52b40b877" x="126.84541" y="142.534122" style="fill: #ff8c00; stroke: #ff8c00"/>
     <use xlink:href="#ma52b40b877" x="102.774046" y="98.285082" style="fill: #ff8c00; stroke: #ff8c00"/>
     <use xlink:href="#ma52b40b877" x="241.116683" y="194.329469" style="fill: #ff8c00; stroke: #ff8c00"/>
     <use xlink:href="#ma52b40b877" x="141.876572" y="85.850778" style="fill: #ff8c00; stroke: #ff8c00"/>
     <use xlink:href="#ma52b40b877" x="168.086611" y="151.729558" style="fill: #ff8c00; stroke: #ff8c00"/>
     <use xlink:href="#ma52b40b877" x="144.068961" y="144.902553" style="fill: #ff8c00; stroke: #ff8c00"/>
     <use xlink:href="#ma52b40b877" x="131.733382" y="113.763212" style="fill: #ff8c00; stroke: #ff8c00"/>
     <use xlink:href="#ma52b40b877" x="114.148343" y="91.715959" style="fill: #ff8c00; stroke: #ff8c00"/>
     <use xlink:href="#ma52b40b877" x="133.965909" y="186.284032" style="fill: #ff8c00; stroke: #ff8c00"/>
    </g>
   </g>
   <g id="matplotlib.axis_1">
    <g id="xtick_1">
     <g id="line2d_1">
      <defs>
       <path id="m8b6a7bb990" d="M 0 0 
L 0 3.5 
" style="stroke: #000000; stroke-width: 0.8"/>
      </defs>
      <g>
       <use xlink:href="#m8b6a7bb990" x="52.200425" y="273.312" style="stroke: #000000; stroke-width: 0.8"/>
      </g>
     </g>
     <g id="text_1">
      <!-- −20 -->
      <g transform="translate(41.648081 287.910437) scale(0.1 -0.1)">
       <defs>
        <path id="DejaVuSans-2212" d="M 678 2272 
L 4684 2272 
L 4684 1741 
L 678 1741 
L 678 2272 
z
" transform="scale(0.015625)"/>
        <path id="DejaVuSans-32" d="M 1228 531 
L 3431 531 
L 3431 0 
L 469 0 
L 469 531 
Q 828 903 1448 1529 
Q 2069 2156 2228 2338 
Q 2531 2678 2651 2914 
Q 2772 3150 2772 3378 
Q 2772 3750 2511 3984 
Q 2250 4219 1831 4219 
Q 1534 4219 1204 4116 
Q 875 4013 500 3803 
L 500 4441 
Q 881 4594 1212 4672 
Q 1544 4750 1819 4750 
Q 2544 4750 2975 4387 
Q 3406 4025 3406 3419 
Q 3406 3131 3298 2873 
Q 3191 2616 2906 2266 
Q 2828 2175 2409 1742 
Q 1991 1309 1228 531 
z
" transform="scale(0.015625)"/>
        <path id="DejaVuSans-30" d="M 2034 4250 
Q 1547 4250 1301 3770 
Q 1056 3291 1056 2328 
Q 1056 1369 1301 889 
Q 1547 409 2034 409 
Q 2525 409 2770 889 
Q 3016 1369 3016 2328 
Q 3016 3291 2770 3770 
Q 2525 4250 2034 4250 
z
M 2034 4750 
Q 2819 4750 3233 4129 
Q 3647 3509 3647 2328 
Q 3647 1150 3233 529 
Q 2819 -91 2034 -91 
Q 1250 -91 836 529 
Q 422 1150 422 2328 
Q 422 3509 836 4129 
Q 1250 4750 2034 4750 
z
" transform="scale(0.015625)"/>
       </defs>
       <use xlink:href="#DejaVuSans-2212"/>
       <use xlink:href="#DejaVuSans-32" x="83.789062"/>
       <use xlink:href="#DejaVuSans-30" x="147.412109"/>
      </g>
     </g>
    </g>
    <g id="xtick_2">
     <g id="line2d_2">
      <g>
       <use xlink:href="#m8b6a7bb990" x="120.608363" y="273.312" style="stroke: #000000; stroke-width: 0.8"/>
      </g>
     </g>
     <g id="text_2">
      <!-- −10 -->
      <g transform="translate(110.056019 287.910437) scale(0.1 -0.1)">
       <defs>
        <path id="DejaVuSans-31" d="M 794 531 
L 1825 531 
L 1825 4091 
L 703 3866 
L 703 4441 
L 1819 4666 
L 2450 4666 
L 2450 531 
L 3481 531 
L 3481 0 
L 794 0 
L 794 531 
z
" transform="scale(0.015625)"/>
       </defs>
       <use xlink:href="#DejaVuSans-2212"/>
       <use xlink:href="#DejaVuSans-31" x="83.789062"/>
       <use xlink:href="#DejaVuSans-30" x="147.412109"/>
      </g>
     </g>
    </g>
    <g id="xtick_3">
     <g id="line2d_3">
      <g>
       <use xlink:href="#m8b6a7bb990" x="189.016302" y="273.312" style="stroke: #000000; stroke-width: 0.8"/>
      </g>
     </g>
     <g id="text_3">
      <!-- 0 -->
      <g transform="translate(185.835052 287.910437) scale(0.1 -0.1)">
       <use xlink:href="#DejaVuSans-30"/>
      </g>
     </g>
    </g>
    <g id="xtick_4">
     <g id="line2d_4">
      <g>
       <use xlink:href="#m8b6a7bb990" x="257.42424" y="273.312" style="stroke: #000000; stroke-width: 0.8"/>
      </g>
     </g>
     <g id="text_4">
      <!-- 10 -->
      <g transform="translate(251.06174 287.910437) scale(0.1 -0.1)">
       <use xlink:href="#DejaVuSans-31"/>
       <use xlink:href="#DejaVuSans-30" x="63.623047"/>
      </g>
     </g>
    </g>
    <g id="xtick_5">
     <g id="line2d_5">
      <g>
       <use xlink:href="#m8b6a7bb990" x="325.832179" y="273.312" style="stroke: #000000; stroke-width: 0.8"/>
      </g>
     </g>
     <g id="text_5">
      <!-- 20 -->
      <g transform="translate(319.469679 287.910437) scale(0.1 -0.1)">
       <use xlink:href="#DejaVuSans-32"/>
       <use xlink:href="#DejaVuSans-30" x="63.623047"/>
      </g>
     </g>
    </g>
   </g>
   <g id="matplotlib.axis_2">
    <g id="ytick_1">
     <g id="line2d_6">
      <defs>
       <path id="m5924a4289e" d="M 0 0 
L -3.5 0 
" style="stroke: #000000; stroke-width: 0.8"/>
      </defs>
      <g>
       <use xlink:href="#m5924a4289e" x="35.304688" y="266.616404" style="stroke: #000000; stroke-width: 0.8"/>
      </g>
     </g>
     <g id="text_6">
      <!-- −20 -->
      <g transform="translate(7.2 270.415623) scale(0.1 -0.1)">
       <use xlink:href="#DejaVuSans-2212"/>
       <use xlink:href="#DejaVuSans-32" x="83.789062"/>
       <use xlink:href="#DejaVuSans-30" x="147.412109"/>
      </g>
     </g>
    </g>
    <g id="ytick_2">
     <g id="line2d_7">
      <g>
       <use xlink:href="#m5924a4289e" x="35.304688" y="236.50605" style="stroke: #000000; stroke-width: 0.8"/>
      </g>
     </g>
     <g id="text_7">
      <!-- −15 -->
      <g transform="translate(7.2 240.305269) scale(0.1 -0.1)">
       <defs>
        <path id="DejaVuSans-35" d="M 691 4666 
L 3169 4666 
L 3169 4134 
L 1269 4134 
L 1269 2991 
Q 1406 3038 1543 3061 
Q 1681 3084 1819 3084 
Q 2600 3084 3056 2656 
Q 3513 2228 3513 1497 
Q 3513 744 3044 326 
Q 2575 -91 1722 -91 
Q 1428 -91 1123 -41 
Q 819 9 494 109 
L 494 744 
Q 775 591 1075 516 
Q 1375 441 1709 441 
Q 2250 441 2565 725 
Q 2881 1009 2881 1497 
Q 2881 1984 2565 2268 
Q 2250 2553 1709 2553 
Q 1456 2553 1204 2497 
Q 953 2441 691 2322 
L 691 4666 
z
" transform="scale(0.015625)"/>
       </defs>
       <use xlink:href="#DejaVuSans-2212"/>
       <use xlink:href="#DejaVuSans-31" x="83.789062"/>
       <use xlink:href="#DejaVuSans-35" x="147.412109"/>
      </g>
     </g>
    </g>
    <g id="ytick_3">
     <g id="line2d_8">
      <g>
       <use xlink:href="#m5924a4289e" x="35.304688" y="206.395696" style="stroke: #000000; stroke-width: 0.8"/>
      </g>
     </g>
     <g id="text_8">
      <!-- −10 -->
      <g transform="translate(7.2 210.194915) scale(0.1 -0.1)">
       <use xlink:href="#DejaVuSans-2212"/>
       <use xlink:href="#DejaVuSans-31" x="83.789062"/>
       <use xlink:href="#DejaVuSans-30" x="147.412109"/>
      </g>
     </g>
    </g>
    <g id="ytick_4">
     <g id="line2d_9">
      <g>
       <use xlink:href="#m5924a4289e" x="35.304688" y="176.285342" style="stroke: #000000; stroke-width: 0.8"/>
      </g>
     </g>
     <g id="text_9">
      <!-- −5 -->
      <g transform="translate(13.5625 180.084561) scale(0.1 -0.1)">
       <use xlink:href="#DejaVuSans-2212"/>
       <use xlink:href="#DejaVuSans-35" x="83.789062"/>
      </g>
     </g>
    </g>
    <g id="ytick_5">
     <g id="line2d_10">
      <g>
       <use xlink:href="#m5924a4289e" x="35.304688" y="146.174988" style="stroke: #000000; stroke-width: 0.8"/>
      </g>
     </g>
     <g id="text_10">
      <!-- 0 -->
      <g transform="translate(21.942187 149.974207) scale(0.1 -0.1)">
       <use xlink:href="#DejaVuSans-30"/>
      </g>
     </g>
    </g>
    <g id="ytick_6">
     <g id="line2d_11">
      <g>
       <use xlink:href="#m5924a4289e" x="35.304688" y="116.064634" style="stroke: #000000; stroke-width: 0.8"/>
      </g>
     </g>
     <g id="text_11">
      <!-- 5 -->
      <g transform="translate(21.942187 119.863853) scale(0.1 -0.1)">
       <use xlink:href="#DejaVuSans-35"/>
      </g>
     </g>
    </g>
    <g id="ytick_7">
     <g id="line2d_12">
      <g>
       <use xlink:href="#m5924a4289e" x="35.304688" y="85.95428" style="stroke: #000000; stroke-width: 0.8"/>
      </g>
     </g>
     <g id="text_12">
      <!-- 10 -->
      <g transform="translate(15.579687 89.753499) scale(0.1 -0.1)">
       <use xlink:href="#DejaVuSans-31"/>
       <use xlink:href="#DejaVuSans-30" x="63.623047"/>
      </g>
     </g>
    </g>
    <g id="ytick_8">
     <g id="line2d_13">
      <g>
       <use xlink:href="#m5924a4289e" x="35.304688" y="55.843926" style="stroke: #000000; stroke-width: 0.8"/>
      </g>
     </g>
     <g id="text_13">
      <!-- 15 -->
      <g transform="translate(15.579687 59.643145) scale(0.1 -0.1)">
       <use xlink:href="#DejaVuSans-31"/>
       <use xlink:href="#DejaVuSans-35" x="63.623047"/>
      </g>
     </g>
    </g>
    <g id="ytick_9">
     <g id="line2d_14">
      <g>
       <use xlink:href="#m5924a4289e" x="35.304688" y="25.733572" style="stroke: #000000; stroke-width: 0.8"/>
      </g>
     </g>
     <g id="text_14">
      <!-- 20 -->
      <g transform="translate(15.579687 29.532791) scale(0.1 -0.1)">
       <use xlink:href="#DejaVuSans-32"/>
       <use xlink:href="#DejaVuSans-30" x="63.623047"/>
      </g>
     </g>
    </g>
   </g>
   <g id="patch_3">
    <path d="M 35.304688 273.312 
L 35.304688 7.2 
" style="fill: none; stroke: #000000; stroke-width: 0.8; stroke-linejoin: miter; stroke-linecap: square"/>
   </g>
   <g id="patch_4">
    <path d="M 392.424688 273.312 
L 392.424688 7.2 
" style="fill: none; stroke: #000000; stroke-width: 0.8; stroke-linejoin: miter; stroke-linecap: square"/>
   </g>
   <g id="patch_5">
    <path d="M 35.304688 273.312 
L 392.424688 273.312 
" style="fill: none; stroke: #000000; stroke-width: 0.8; stroke-linejoin: miter; stroke-linecap: square"/>
   </g>
   <g id="patch_6">
    <path d="M 35.304688 7.2 
L 392.424688 7.2 
" style="fill: none; stroke: #000000; stroke-width: 0.8; stroke-linejoin: miter; stroke-linecap: square"/>
   </g>
  </g>
 </g>
 <defs>
  <clipPath id="p39f4809aa9">
   <rect x="35.304688" y="7.2" width="357.12" height="266.112"/>
  </clipPath>
 </defs>
</svg>
