<?xml version="1.0" encoding="utf-8" standalone="no"?>
<!DOCTYPE svg PUBLIC "-//W3C//DTD SVG 1.1//EN"
  "http://www.w3.org/Graphics/SVG/1.1/DTD/svg11.dtd">
<svg xmlns:xlink="http://www.w3.org/1999/xlink" width="399.624688pt" height="298.104517pt" viewBox="0 0 399.624688 298.104517" xmlns="http://www.w3.org/2000/svg" version="1.1">
 <metadata>
  <rdf:RDF xmlns:dc="http://purl.org/dc/elements/1.1/" xmlns:cc="http://creativecommons.org/ns#" xmlns:rdf="http://www.w3.org/1999/02/22-rdf-syntax-ns#">
   <cc:Work>
    <dc:type rdf:resource="http://purl.org/dc/dcmitype/StillImage"/>
    <dc:date>2023-11-11T13:57:31.719181</dc:date>
    <dc:format>image/svg+xml</dc:format>
    <dc:creator>
     <cc:Agent>
      <dc:title>Matplotlib v3.8.0, https://matplotlib.org/</dc:title>
     </cc:Agent>
    </dc:creator>
   </cc:Work>
  </rdf:RDF>
 </metadata>
 <defs>
  <style type="text/css">*{stroke-linejoin: round; stroke-linecap: butt}</style>
 </defs>
 <g id="figure_1">
  <g id="patch_1">
   <path d="M 0 298.104517 
L 399.624688 298.104517 
L 399.624688 0 
L 0 0 
z
" style="fill: #ffffff"/>
  </g>
  <g id="axes_1">
   <g id="patch_2">
    <path d="M 35.304688 274.226392 
L 392.424688 274.226392 
L 392.424688 8.114392 
L 35.304688 8.114392 
z
" style="fill: #ffffff"/>
   </g>
   <g id="PathCollection_1">
    <defs>
     <path id="m3bd751f3b3" d="M 0 1.5 
C 0.397805 1.5 0.77937 1.341951 1.06066 1.06066 
C 1.341951 0.77937 1.5 0.397805 1.5 0 
C 1.5 -0.397805 1.341951 -0.77937 1.06066 -1.06066 
C 0.77937 -1.341951 0.397805 -1.5 0 -1.5 
C -0.397805 -1.5 -0.77937 -1.341951 -1.06066 -1.06066 
C -1.341951 -0.77937 -1.5 -0.397805 -1.5 0 
C -1.5 0.397805 -1.341951 0.77937 -1.06066 1.06066 
C -0.77937 1.341951 -0.397805 1.5 0 1.5 
z
" style="stroke: #ff8c00"/>
    </defs>
    <g clip-path="url(#p5218906d37)">
     <use xlink:href="#m3bd751f3b3" x="101.95314" y="175.245046" style="fill: #ff8c00; stroke: #ff8c00"/>
     <use xlink:href="#m3bd751f3b3" x="101.569112" y="187.868377" style="fill: #ff8c00; stroke: #ff8c00"/>
     <use xlink:href="#m3bd751f3b3" x="76.259626" y="182.306167" style="fill: #ff8c00; stroke: #ff8c00"/>
     <use xlink:href="#m3bd751f3b3" x="69.384408" y="190.404024" style="fill: #ff8c00; stroke: #ff8c00"/>
     <use xlink:href="#m3bd751f3b3" x="108.525528" y="163.937508" style="fill: #ff8c00; stroke: #ff8c00"/>
     <use xlink:href="#m3bd751f3b3" x="60.305766" y="199.497453" style="fill: #ff8c00; stroke: #ff8c00"/>
     <use xlink:href="#m3bd751f3b3" x="121.707646" y="170.669205" style="fill: #ff8c00; stroke: #ff8c00"/>
    </g>
   </g>
   <g id="PathCollection_2">
    <defs>
     <path id="m8f9070a879" d="M 0 1.5 
C 0.397805 1.5 0.77937 1.341951 1.06066 1.06066 
C 1.341951 0.77937 1.5 0.397805 1.5 0 
C 1.5 -0.397805 1.341951 -0.77937 1.06066 -1.06066 
C 0.77937 -1.341951 0.397805 -1.5 0 -1.5 
C -0.397805 -1.5 -0.77937 -1.341951 -1.06066 -1.06066 
C -1.341951 -0.77937 -1.5 -0.397805 -1.5 0 
C -1.5 0.397805 -1.341951 0.77937 -1.06066 1.06066 
C -0.77937 1.341951 -0.397805 1.5 0 1.5 
z
" style="stroke: #006400"/>
    </defs>
    <g clip-path="url(#p5218906d37)">
     <use xlink:href="#m8f9070a879" x="102.179141" y="130.508174" style="fill: #006400; stroke: #006400"/>
     <use xlink:href="#m8f9070a879" x="100.8783" y="172.749518" style="fill: #006400; stroke: #006400"/>
     <use xlink:href="#m8f9070a879" x="66.836268" y="173.624221" style="fill: #006400; stroke: #006400"/>
     <use xlink:href="#m8f9070a879" x="54.227184" y="202.764819" style="fill: #006400; stroke: #006400"/>
     <use xlink:href="#m8f9070a879" x="69.039204" y="184.844942" style="fill: #006400; stroke: #006400"/>
     <use xlink:href="#m8f9070a879" x="100.080703" y="194.166918" style="fill: #006400; stroke: #006400"/>
     <use xlink:href="#m8f9070a879" x="114.947542" y="171.580205" style="fill: #006400; stroke: #006400"/>
     <use xlink:href="#m8f9070a879" x="121.610354" y="162.12692" style="fill: #006400; stroke: #006400"/>
     <use xlink:href="#m8f9070a879" x="125.859788" y="183.366699" style="fill: #006400; stroke: #006400"/>
     <use xlink:href="#m8f9070a879" x="65.267745" y="181.075713" style="fill: #006400; stroke: #006400"/>
    </g>
   </g>
   <g id="PathCollection_3">
    <defs>
     <path id="md03b5d25fe" d="M 0 1.5 
C 0.397805 1.5 0.77937 1.341951 1.06066 1.06066 
C 1.341951 0.77937 1.5 0.397805 1.5 0 
C 1.5 -0.397805 1.341951 -0.77937 1.06066 -1.06066 
C 0.77937 -1.341951 0.397805 -1.5 0 -1.5 
C -0.397805 -1.5 -0.77937 -1.341951 -1.06066 -1.06066 
C -1.341951 -0.77937 -1.5 -0.397805 -1.5 0 
C -1.5 0.397805 -1.341951 0.77937 -1.06066 1.06066 
C -0.77937 1.341951 -0.397805 1.5 0 1.5 
z
" style="stroke: #2f4f4f"/>
    </defs>
    <g clip-path="url(#p5218906d37)">
     <use xlink:href="#md03b5d25fe" x="65.480825" y="153.13865" style="fill: #2f4f4f; stroke: #2f4f4f"/>
     <use xlink:href="#md03b5d25fe" x="92.73091" y="152.923648" style="fill: #2f4f4f; stroke: #2f4f4f"/>
     <use xlink:href="#md03b5d25fe" x="94.79223" y="173.620418" style="fill: #2f4f4f; stroke: #2f4f4f"/>
     <use xlink:href="#md03b5d25fe" x="83.610326" y="159.67241" style="fill: #2f4f4f; stroke: #2f4f4f"/>
     <use xlink:href="#md03b5d25fe" x="90.457231" y="188.150776" style="fill: #2f4f4f; stroke: #2f4f4f"/>
     <use xlink:href="#md03b5d25fe" x="96.683599" y="160.505759" style="fill: #2f4f4f; stroke: #2f4f4f"/>
     <use xlink:href="#md03b5d25fe" x="93.11345" y="153.158747" style="fill: #2f4f4f; stroke: #2f4f4f"/>
     <use xlink:href="#md03b5d25fe" x="73.479372" y="170.352789" style="fill: #2f4f4f; stroke: #2f4f4f"/>
     <use xlink:href="#md03b5d25fe" x="109.674386" y="184.690493" style="fill: #2f4f4f; stroke: #2f4f4f"/>
     <use xlink:href="#md03b5d25fe" x="74.195557" y="183.54283" style="fill: #2f4f4f; stroke: #2f4f4f"/>
     <use xlink:href="#md03b5d25fe" x="106.092423" y="164.856134" style="fill: #2f4f4f; stroke: #2f4f4f"/>
     <use xlink:href="#md03b5d25fe" x="101.734756" y="158.56552" style="fill: #2f4f4f; stroke: #2f4f4f"/>
     <use xlink:href="#md03b5d25fe" x="103.338589" y="155.325374" style="fill: #2f4f4f; stroke: #2f4f4f"/>
     <use xlink:href="#md03b5d25fe" x="78.534555" y="173.220102" style="fill: #2f4f4f; stroke: #2f4f4f"/>
     <use xlink:href="#md03b5d25fe" x="120.987104" y="144.031057" style="fill: #2f4f4f; stroke: #2f4f4f"/>
    </g>
   </g>
   <g id="PathCollection_4">
    <defs>
     <path id="ma71a183613" d="M 0 1.5 
C 0.397805 1.5 0.77937 1.341951 1.06066 1.06066 
C 1.341951 0.77937 1.5 0.397805 1.5 0 
C 1.5 -0.397805 1.341951 -0.77937 1.06066 -1.06066 
C 0.77937 -1.341951 0.397805 -1.5 0 -1.5 
C -0.397805 -1.5 -0.77937 -1.341951 -1.06066 -1.06066 
C -1.341951 -0.77937 -1.5 -0.397805 -1.5 0 
C -1.5 0.397805 -1.341951 0.77937 -1.06066 1.06066 
C -0.77937 1.341951 -0.397805 1.5 0 1.5 
z
" style="stroke: #00bfff"/>
    </defs>
    <g clip-path="url(#p5218906d37)">
     <use xlink:href="#ma71a183613" x="77.084282" y="191.482205" style="fill: #00bfff; stroke: #00bfff"/>
     <use xlink:href="#ma71a183613" x="139.004185" y="133.418369" style="fill: #00bfff; stroke: #00bfff"/>
     <use xlink:href="#ma71a183613" x="105.528139" y="158.387831" style="fill: #00bfff; stroke: #00bfff"/>
     <use xlink:href="#ma71a183613" x="84.269079" y="177.404271" style="fill: #00bfff; stroke: #00bfff"/>
     <use xlink:href="#ma71a183613" x="103.963717" y="139.598599" style="fill: #00bfff; stroke: #00bfff"/>
     <use xlink:href="#ma71a183613" x="98.998414" y="162.429278" style="fill: #00bfff; stroke: #00bfff"/>
     <use xlink:href="#ma71a183613" x="157.724232" y="184.743806" style="fill: #00bfff; stroke: #00bfff"/>
     <use xlink:href="#ma71a183613" x="76.762868" y="172.409454" style="fill: #00bfff; stroke: #00bfff"/>
     <use xlink:href="#ma71a183613" x="118.911519" y="130.155316" style="fill: #00bfff; stroke: #00bfff"/>
     <use xlink:href="#ma71a183613" x="127.058839" y="158.696774" style="fill: #00bfff; stroke: #00bfff"/>
     <use xlink:href="#ma71a183613" x="91.857348" y="168.047645" style="fill: #00bfff; stroke: #00bfff"/>
     <use xlink:href="#ma71a183613" x="118.826999" y="171.319368" style="fill: #00bfff; stroke: #00bfff"/>
     <use xlink:href="#ma71a183613" x="126.155982" y="131.067634" style="fill: #00bfff; stroke: #00bfff"/>
    </g>
   </g>
   <g id="PathCollection_5">
    <defs>
     <path id="m411133d3ba" d="M 0 1.5 
C 0.397805 1.5 0.77937 1.341951 1.06066 1.06066 
C 1.341951 0.77937 1.5 0.397805 1.5 0 
C 1.5 -0.397805 1.341951 -0.77937 1.06066 -1.06066 
C 0.77937 -1.341951 0.397805 -1.5 0 -1.5 
C -0.397805 -1.5 -0.77937 -1.341951 -1.06066 -1.06066 
C -1.341951 -0.77937 -1.5 -0.397805 -1.5 0 
C -1.5 0.397805 -1.341951 0.77937 -1.06066 1.06066 
C -0.77937 1.341951 -0.397805 1.5 0 1.5 
z
" style="stroke: #ffff00"/>
    </defs>
    <g clip-path="url(#p5218906d37)">
     <use xlink:href="#m411133d3ba" x="86.615076" y="179.692308" style="fill: #ffff00; stroke: #ffff00"/>
     <use xlink:href="#m411133d3ba" x="97.241005" y="182.514978" style="fill: #ffff00; stroke: #ffff00"/>
     <use xlink:href="#m411133d3ba" x="61.841191" y="161.743911" style="fill: #ffff00; stroke: #ffff00"/>
     <use xlink:href="#m411133d3ba" x="75.850875" y="175.182809" style="fill: #ffff00; stroke: #ffff00"/>
     <use xlink:href="#m411133d3ba" x="76.25959" y="166.475172" style="fill: #ffff00; stroke: #ffff00"/>
     <use xlink:href="#m411133d3ba" x="106.517723" y="198.11141" style="fill: #ffff00; stroke: #ffff00"/>
     <use xlink:href="#m411133d3ba" x="91.382264" y="156.310483" style="fill: #ffff00; stroke: #ffff00"/>
     <use xlink:href="#m411133d3ba" x="106.293453" y="176.210965" style="fill: #ffff00; stroke: #ffff00"/>
     <use xlink:href="#m411133d3ba" x="81.326112" y="164.100939" style="fill: #ffff00; stroke: #ffff00"/>
     <use xlink:href="#m411133d3ba" x="122.352027" y="141.209262" style="fill: #ffff00; stroke: #ffff00"/>
     <use xlink:href="#m411133d3ba" x="72.11212" y="143.026451" style="fill: #ffff00; stroke: #ffff00"/>
     <use xlink:href="#m411133d3ba" x="108.048967" y="142.205395" style="fill: #ffff00; stroke: #ffff00"/>
    </g>
   </g>
   <g id="PathCollection_6">
    <defs>
     <path id="m29b1024de2" d="M 0 1.5 
C 0.397805 1.5 0.77937 1.341951 1.06066 1.06066 
C 1.341951 0.77937 1.5 0.397805 1.5 0 
C 1.5 -0.397805 1.341951 -0.77937 1.06066 -1.06066 
C 0.77937 -1.341951 0.397805 -1.5 0 -1.5 
C -0.397805 -1.5 -0.77937 -1.341951 -1.06066 -1.06066 
C -1.341951 -0.77937 -1.5 -0.397805 -1.5 0 
C -1.5 0.397805 -1.341951 0.77937 -1.06066 1.06066 
C -0.77937 1.341951 -0.397805 1.5 0 1.5 
z
" style="stroke: #00ffff"/>
    </defs>
    <g clip-path="url(#p5218906d37)">
     <use xlink:href="#m29b1024de2" x="64.474538" y="205.038177" style="fill: #00ffff; stroke: #00ffff"/>
     <use xlink:href="#m29b1024de2" x="93.48749" y="177.533017" style="fill: #00ffff; stroke: #00ffff"/>
     <use xlink:href="#m29b1024de2" x="100.669785" y="201.841835" style="fill: #00ffff; stroke: #00ffff"/>
     <use xlink:href="#m29b1024de2" x="85.576119" y="198.51742" style="fill: #00ffff; stroke: #00ffff"/>
     <use xlink:href="#m29b1024de2" x="83.057143" y="164.502879" style="fill: #00ffff; stroke: #00ffff"/>
     <use xlink:href="#m29b1024de2" x="130.414939" y="187.184988" style="fill: #00ffff; stroke: #00ffff"/>
     <use xlink:href="#m29b1024de2" x="104.192781" y="213.20547" style="fill: #00ffff; stroke: #00ffff"/>
     <use xlink:href="#m29b1024de2" x="115.718542" y="177.7348" style="fill: #00ffff; stroke: #00ffff"/>
     <use xlink:href="#m29b1024de2" x="103.558793" y="176.423858" style="fill: #00ffff; stroke: #00ffff"/>
     <use xlink:href="#m29b1024de2" x="90.635187" y="179.82511" style="fill: #00ffff; stroke: #00ffff"/>
     <use xlink:href="#m29b1024de2" x="89.126607" y="172.659769" style="fill: #00ffff; stroke: #00ffff"/>
     <use xlink:href="#m29b1024de2" x="107.287949" y="158.990553" style="fill: #00ffff; stroke: #00ffff"/>
     <use xlink:href="#m29b1024de2" x="90.533197" y="210.302897" style="fill: #00ffff; stroke: #00ffff"/>
     <use xlink:href="#m29b1024de2" x="145.953378" y="187.769771" style="fill: #00ffff; stroke: #00ffff"/>
     <use xlink:href="#m29b1024de2" x="93.851073" y="203.016113" style="fill: #00ffff; stroke: #00ffff"/>
     <use xlink:href="#m29b1024de2" x="85.872572" y="193.057087" style="fill: #00ffff; stroke: #00ffff"/>
     <use xlink:href="#m29b1024de2" x="82.720271" y="187.945189" style="fill: #00ffff; stroke: #00ffff"/>
     <use xlink:href="#m29b1024de2" x="90.008865" y="206.82325" style="fill: #00ffff; stroke: #00ffff"/>
     <use xlink:href="#m29b1024de2" x="132.742195" y="171.750499" style="fill: #00ffff; stroke: #00ffff"/>
     <use xlink:href="#m29b1024de2" x="97.503577" y="186.166621" style="fill: #00ffff; stroke: #00ffff"/>
    </g>
   </g>
   <g id="PathCollection_7">
    <defs>
     <path id="mc88302840e" d="M 0 1.5 
C 0.397805 1.5 0.77937 1.341951 1.06066 1.06066 
C 1.341951 0.77937 1.5 0.397805 1.5 0 
C 1.5 -0.397805 1.341951 -0.77937 1.06066 -1.06066 
C 0.77937 -1.341951 0.397805 -1.5 0 -1.5 
C -0.397805 -1.5 -0.77937 -1.341951 -1.06066 -1.06066 
C -1.341951 -0.77937 -1.5 -0.397805 -1.5 0 
C -1.5 0.397805 -1.341951 0.77937 -1.06066 1.06066 
C -0.77937 1.341951 -0.397805 1.5 0 1.5 
z
" style="stroke: #0000ff"/>
    </defs>
    <g clip-path="url(#p5218906d37)">
     <use xlink:href="#mc88302840e" x="69.427321" y="161.902262" style="fill: #0000ff; stroke: #0000ff"/>
     <use xlink:href="#mc88302840e" x="154.294556" y="107.945984" style="fill: #0000ff; stroke: #0000ff"/>
     <use xlink:href="#mc88302840e" x="100.161067" y="161.052797" style="fill: #0000ff; stroke: #0000ff"/>
     <use xlink:href="#mc88302840e" x="101.073691" y="184.399694" style="fill: #0000ff; stroke: #0000ff"/>
     <use xlink:href="#mc88302840e" x="107.819528" y="171.219138" style="fill: #0000ff; stroke: #0000ff"/>
     <use xlink:href="#mc88302840e" x="213.621747" y="128.123046" style="fill: #0000ff; stroke: #0000ff"/>
     <use xlink:href="#mc88302840e" x="110.001544" y="168.799971" style="fill: #0000ff; stroke: #0000ff"/>
     <use xlink:href="#mc88302840e" x="126.294414" y="178.110489" style="fill: #0000ff; stroke: #0000ff"/>
     <use xlink:href="#mc88302840e" x="101.122677" y="165.560961" style="fill: #0000ff; stroke: #0000ff"/>
     <use xlink:href="#mc88302840e" x="188.790541" y="20.210392" style="fill: #0000ff; stroke: #0000ff"/>
     <use xlink:href="#mc88302840e" x="141.093062" y="93.521049" style="fill: #0000ff; stroke: #0000ff"/>
     <use xlink:href="#mc88302840e" x="136.573054" y="154.277833" style="fill: #0000ff; stroke: #0000ff"/>
     <use xlink:href="#mc88302840e" x="73.973144" y="143.62338" style="fill: #0000ff; stroke: #0000ff"/>
     <use xlink:href="#mc88302840e" x="155.147345" y="47.349023" style="fill: #0000ff; stroke: #0000ff"/>
     <use xlink:href="#mc88302840e" x="130.42872" y="151.747767" style="fill: #0000ff; stroke: #0000ff"/>
     <use xlink:href="#mc88302840e" x="136.4511" y="127.686268" style="fill: #0000ff; stroke: #0000ff"/>
    </g>
   </g>
   <g id="PathCollection_8">
    <defs>
     <path id="m4573b2ead8" d="M 0 1.5 
C 0.397805 1.5 0.77937 1.341951 1.06066 1.06066 
C 1.341951 0.77937 1.5 0.397805 1.5 0 
C 1.5 -0.397805 1.341951 -0.77937 1.06066 -1.06066 
C 0.77937 -1.341951 0.397805 -1.5 0 -1.5 
C -0.397805 -1.5 -0.77937 -1.341951 -1.06066 -1.06066 
C -1.341951 -0.77937 -1.5 -0.397805 -1.5 0 
C -1.5 0.397805 -1.341951 0.77937 -1.06066 1.06066 
C -0.77937 1.341951 -0.397805 1.5 0 1.5 
z
" style="stroke: #dc143c"/>
    </defs>
    <g clip-path="url(#p5218906d37)">
     <use xlink:href="#m4573b2ead8" x="71.144531" y="191.547623" style="fill: #dc143c; stroke: #dc143c"/>
     <use xlink:href="#m4573b2ead8" x="79.366931" y="157.283685" style="fill: #dc143c; stroke: #dc143c"/>
     <use xlink:href="#m4573b2ead8" x="101.277909" y="168.158794" style="fill: #dc143c; stroke: #dc143c"/>
     <use xlink:href="#m4573b2ead8" x="102.675133" y="161.781114" style="fill: #dc143c; stroke: #dc143c"/>
     <use xlink:href="#m4573b2ead8" x="84.860339" y="176.362113" style="fill: #dc143c; stroke: #dc143c"/>
     <use xlink:href="#m4573b2ead8" x="88.108877" y="189.126926" style="fill: #dc143c; stroke: #dc143c"/>
     <use xlink:href="#m4573b2ead8" x="100.614299" y="168.782151" style="fill: #dc143c; stroke: #dc143c"/>
     <use xlink:href="#m4573b2ead8" x="51.537415" y="190.046369" style="fill: #dc143c; stroke: #dc143c"/>
     <use xlink:href="#m4573b2ead8" x="116.112141" y="139.092073" style="fill: #dc143c; stroke: #dc143c"/>
     <use xlink:href="#m4573b2ead8" x="121.280053" y="165.135386" style="fill: #dc143c; stroke: #dc143c"/>
     <use xlink:href="#m4573b2ead8" x="82.606426" y="189.381537" style="fill: #dc143c; stroke: #dc143c"/>
     <use xlink:href="#m4573b2ead8" x="121.512099" y="152.806275" style="fill: #dc143c; stroke: #dc143c"/>
     <use xlink:href="#m4573b2ead8" x="93.284629" y="205.63418" style="fill: #dc143c; stroke: #dc143c"/>
    </g>
   </g>
   <g id="PathCollection_9">
    <defs>
     <path id="m62becb9803" d="M 0 1.5 
C 0.397805 1.5 0.77937 1.341951 1.06066 1.06066 
C 1.341951 0.77937 1.5 0.397805 1.5 0 
C 1.5 -0.397805 1.341951 -0.77937 1.06066 -1.06066 
C 0.77937 -1.341951 0.397805 -1.5 0 -1.5 
C -0.397805 -1.5 -0.77937 -1.341951 -1.06066 -1.06066 
C -1.341951 -0.77937 -1.5 -0.397805 -1.5 0 
C -1.5 0.397805 -1.341951 0.77937 -1.06066 1.06066 
C -0.77937 1.341951 -0.397805 1.5 0 1.5 
z
" style="stroke: #ffe4c4"/>
    </defs>
    <g clip-path="url(#p5218906d37)">
     <use xlink:href="#m62becb9803" x="174.113263" y="193.273376" style="fill: #ffe4c4; stroke: #ffe4c4"/>
     <use xlink:href="#m62becb9803" x="159.906784" y="197.971528" style="fill: #ffe4c4; stroke: #ffe4c4"/>
     <use xlink:href="#m62becb9803" x="222.271533" y="158.740867" style="fill: #ffe4c4; stroke: #ffe4c4"/>
     <use xlink:href="#m62becb9803" x="122.448922" y="164.257455" style="fill: #ffe4c4; stroke: #ffe4c4"/>
     <use xlink:href="#m62becb9803" x="175.325551" y="203.038508" style="fill: #ffe4c4; stroke: #ffe4c4"/>
     <use xlink:href="#m62becb9803" x="177.008929" y="174.738022" style="fill: #ffe4c4; stroke: #ffe4c4"/>
     <use xlink:href="#m62becb9803" x="192.86972" y="199.627756" style="fill: #ffe4c4; stroke: #ffe4c4"/>
     <use xlink:href="#m62becb9803" x="147.849867" y="189.356264" style="fill: #ffe4c4; stroke: #ffe4c4"/>
     <use xlink:href="#m62becb9803" x="162.200435" y="137.526682" style="fill: #ffe4c4; stroke: #ffe4c4"/>
     <use xlink:href="#m62becb9803" x="112.641686" y="153.756068" style="fill: #ffe4c4; stroke: #ffe4c4"/>
     <use xlink:href="#m62becb9803" x="232.979746" y="140.763908" style="fill: #ffe4c4; stroke: #ffe4c4"/>
     <use xlink:href="#m62becb9803" x="120.275839" y="136.734057" style="fill: #ffe4c4; stroke: #ffe4c4"/>
     <use xlink:href="#m62becb9803" x="206.570386" y="130.5107" style="fill: #ffe4c4; stroke: #ffe4c4"/>
     <use xlink:href="#m62becb9803" x="163.330323" y="170.526867" style="fill: #ffe4c4; stroke: #ffe4c4"/>
     <use xlink:href="#m62becb9803" x="105.982336" y="180.859586" style="fill: #ffe4c4; stroke: #ffe4c4"/>
     <use xlink:href="#m62becb9803" x="119.336204" y="200.301688" style="fill: #ffe4c4; stroke: #ffe4c4"/>
     <use xlink:href="#m62becb9803" x="228.348211" y="180.501548" style="fill: #ffe4c4; stroke: #ffe4c4"/>
     <use xlink:href="#m62becb9803" x="137.360973" y="154.304142" style="fill: #ffe4c4; stroke: #ffe4c4"/>
     <use xlink:href="#m62becb9803" x="142.927378" y="166.393734" style="fill: #ffe4c4; stroke: #ffe4c4"/>
     <use xlink:href="#m62becb9803" x="165.134802" y="185.434201" style="fill: #ffe4c4; stroke: #ffe4c4"/>
     <use xlink:href="#m62becb9803" x="137.898224" y="157.185687" style="fill: #ffe4c4; stroke: #ffe4c4"/>
     <use xlink:href="#m62becb9803" x="186.176514" y="182.939177" style="fill: #ffe4c4; stroke: #ffe4c4"/>
    </g>
   </g>
   <g id="PathCollection_10">
    <defs>
     <path id="m20483f701a" d="M -2.99994 2.99994 
L 3.00006 2.99994 
L 3.00006 -3.00006 
L -2.99994 -3.00006 
z
" style="stroke: #000000"/>
    </defs>
    <g clip-path="url(#p5218906d37)">
     <use xlink:href="#m20483f701a" x="141.06898" y="168.799294" style="stroke: #000000"/>
     <use xlink:href="#m20483f701a" x="226.831343" y="262.130392" style="stroke: #000000"/>
     <use xlink:href="#m20483f701a" x="230.147765" y="84.98512" style="stroke: #000000"/>
     <use xlink:href="#m20483f701a" x="123.571384" y="184.697433" style="stroke: #000000"/>
     <use xlink:href="#m20483f701a" x="175.997538" y="148.110271" style="stroke: #000000"/>
     <use xlink:href="#m20483f701a" x="111.555876" y="174.192689" style="stroke: #000000"/>
     <use xlink:href="#m20483f701a" x="129.070433" y="151.005457" style="stroke: #000000"/>
     <use xlink:href="#m20483f701a" x="152.705216" y="117.676673" style="stroke: #000000"/>
     <use xlink:href="#m20483f701a" x="134.706445" y="176.156125" style="stroke: #000000"/>
     <use xlink:href="#m20483f701a" x="176.50458" y="165.367767" style="stroke: #000000"/>
     <use xlink:href="#m20483f701a" x="159.353366" y="192.480884" style="stroke: #000000"/>
     <use xlink:href="#m20483f701a" x="109.003948" y="190.814887" style="stroke: #000000"/>
     <use xlink:href="#m20483f701a" x="169.808443" y="175.272396" style="stroke: #000000"/>
     <use xlink:href="#m20483f701a" x="125.939774" y="187.252705" style="stroke: #000000"/>
     <use xlink:href="#m20483f701a" x="177.157319" y="184.646058" style="stroke: #000000"/>
     <use xlink:href="#m20483f701a" x="89.331479" y="179.223501" style="stroke: #000000"/>
     <use xlink:href="#m20483f701a" x="171.283207" y="145.761636" style="stroke: #000000"/>
     <use xlink:href="#m20483f701a" x="176.78554" y="198.475453" style="stroke: #000000"/>
     <use xlink:href="#m20483f701a" x="124.025408" y="198.219039" style="stroke: #000000"/>
     <use xlink:href="#m20483f701a" x="124.434988" y="185.753487" style="stroke: #000000"/>
     <use xlink:href="#m20483f701a" x="170.247456" y="205.548946" style="stroke: #000000"/>
     <use xlink:href="#m20483f701a" x="219.415673" y="166.57347" style="stroke: #000000"/>
     <use xlink:href="#m20483f701a" x="237.407688" y="242.551259" style="stroke: #000000"/>
     <use xlink:href="#m20483f701a" x="109.326312" y="185.588302" style="stroke: #000000"/>
     <use xlink:href="#m20483f701a" x="176.704429" y="121.238162" style="stroke: #000000"/>
     <use xlink:href="#m20483f701a" x="175.001276" y="197.340478" style="stroke: #000000"/>
     <use xlink:href="#m20483f701a" x="154.768994" y="139.261571" style="stroke: #000000"/>
     <use xlink:href="#m20483f701a" x="243.12386" y="198.860356" style="stroke: #000000"/>
     <use xlink:href="#m20483f701a" x="225.700848" y="230.417441" style="stroke: #000000"/>
     <use xlink:href="#m20483f701a" x="148.493765" y="188.933122" style="stroke: #000000"/>
     <use xlink:href="#m20483f701a" x="141.624241" y="166.309028" style="stroke: #000000"/>
     <use xlink:href="#m20483f701a" x="135.494631" y="177.160185" style="stroke: #000000"/>
     <use xlink:href="#m20483f701a" x="152.881711" y="157.719639" style="stroke: #000000"/>
     <use xlink:href="#m20483f701a" x="168.590772" y="141.402492" style="stroke: #000000"/>
     <use xlink:href="#m20483f701a" x="237.244073" y="209.70019" style="stroke: #000000"/>
     <use xlink:href="#m20483f701a" x="376.19196" y="109.597032" style="stroke: #000000"/>
     <use xlink:href="#m20483f701a" x="184.243117" y="182.940828" style="stroke: #000000"/>
     <use xlink:href="#m20483f701a" x="158.219493" y="203.975692" style="stroke: #000000"/>
     <use xlink:href="#m20483f701a" x="175.208357" y="139.589373" style="stroke: #000000"/>
     <use xlink:href="#m20483f701a" x="185.500171" y="183.636545" style="stroke: #000000"/>
     <use xlink:href="#m20483f701a" x="203.787144" y="176.315882" style="stroke: #000000"/>
     <use xlink:href="#m20483f701a" x="187.304343" y="154.120648" style="stroke: #000000"/>
     <use xlink:href="#m20483f701a" x="148.011861" y="201.637493" style="stroke: #000000"/>
     <use xlink:href="#m20483f701a" x="162.851882" y="180.833317" style="stroke: #000000"/>
     <use xlink:href="#m20483f701a" x="171.270372" y="217.729113" style="stroke: #000000"/>
     <use xlink:href="#m20483f701a" x="262.883402" y="226.389259" style="stroke: #000000"/>
     <use xlink:href="#m20483f701a" x="176.23441" y="174.654049" style="stroke: #000000"/>
     <use xlink:href="#m20483f701a" x="188.437338" y="199.52259" style="stroke: #000000"/>
     <use xlink:href="#m20483f701a" x="206.91565" y="237.52019" style="stroke: #000000"/>
     <use xlink:href="#m20483f701a" x="157.88552" y="194.856594" style="stroke: #000000"/>
     <use xlink:href="#m20483f701a" x="118.597237" y="178.945232" style="stroke: #000000"/>
     <use xlink:href="#m20483f701a" x="169.573752" y="233.80478" style="stroke: #000000"/>
     <use xlink:href="#m20483f701a" x="127.107153" y="218.962863" style="stroke: #000000"/>
     <use xlink:href="#m20483f701a" x="110.326616" y="192.257578" style="stroke: #000000"/>
     <use xlink:href="#m20483f701a" x="166.957204" y="130.243588" style="stroke: #000000"/>
     <use xlink:href="#m20483f701a" x="121.159307" y="165.178996" style="stroke: #000000"/>
     <use xlink:href="#m20483f701a" x="107.511998" y="198.95085" style="stroke: #000000"/>
     <use xlink:href="#m20483f701a" x="185.114179" y="167.751996" style="stroke: #000000"/>
     <use xlink:href="#m20483f701a" x="93.487425" y="187.65927" style="stroke: #000000"/>
     <use xlink:href="#m20483f701a" x="154.75114" y="200.92635" style="stroke: #000000"/>
     <use xlink:href="#m20483f701a" x="176.23103" y="194.352653" style="stroke: #000000"/>
     <use xlink:href="#m20483f701a" x="225.294609" y="195.507737" style="stroke: #000000"/>
     <use xlink:href="#m20483f701a" x="102.38937" y="188.928736" style="stroke: #000000"/>
     <use xlink:href="#m20483f701a" x="153.973675" y="202.789216" style="stroke: #000000"/>
    </g>
   </g>
   <g id="PathCollection_11">
    <defs>
     <path id="m75554f8510" d="M -3 -0 
L 3 3 
L 3 -3 
z
" style="stroke: #ff8c00"/>
    </defs>
    <g clip-path="url(#p5218906d37)">
     <use xlink:href="#m75554f8510" x="149.989688" y="203.099918" style="fill: #ff8c00; stroke: #ff8c00"/>
     <use xlink:href="#m75554f8510" x="95.930968" y="178.483561" style="fill: #ff8c00; stroke: #ff8c00"/>
     <use xlink:href="#m75554f8510" x="144.168217" y="210.024486" style="fill: #ff8c00; stroke: #ff8c00"/>
     <use xlink:href="#m75554f8510" x="77.05594" y="192.692245" style="fill: #ff8c00; stroke: #ff8c00"/>
     <use xlink:href="#m75554f8510" x="137.411113" y="195.59594" style="fill: #ff8c00; stroke: #ff8c00"/>
     <use xlink:href="#m75554f8510" x="123.100585" y="170.410452" style="fill: #ff8c00; stroke: #ff8c00"/>
     <use xlink:href="#m75554f8510" x="131.711529" y="226.025969" style="fill: #ff8c00; stroke: #ff8c00"/>
     <use xlink:href="#m75554f8510" x="117.395681" y="152.197952" style="fill: #ff8c00; stroke: #ff8c00"/>
     <use xlink:href="#m75554f8510" x="166.450862" y="219.35909" style="fill: #ff8c00; stroke: #ff8c00"/>
     <use xlink:href="#m75554f8510" x="141.887483" y="163.010191" style="fill: #ff8c00; stroke: #ff8c00"/>
     <use xlink:href="#m75554f8510" x="171.854472" y="181.479608" style="fill: #ff8c00; stroke: #ff8c00"/>
     <use xlink:href="#m75554f8510" x="141.922756" y="202.112116" style="fill: #ff8c00; stroke: #ff8c00"/>
     <use xlink:href="#m75554f8510" x="112.728721" y="170.686602" style="fill: #ff8c00; stroke: #ff8c00"/>
     <use xlink:href="#m75554f8510" x="181.235962" y="215.725766" style="fill: #ff8c00; stroke: #ff8c00"/>
     <use xlink:href="#m75554f8510" x="113.914883" y="173.443815" style="fill: #ff8c00; stroke: #ff8c00"/>
     <use xlink:href="#m75554f8510" x="116.606137" y="190.011035" style="fill: #ff8c00; stroke: #ff8c00"/>
     <use xlink:href="#m75554f8510" x="92.832621" y="157.880953" style="fill: #ff8c00; stroke: #ff8c00"/>
     <use xlink:href="#m75554f8510" x="202.524395" y="196.211213" style="fill: #ff8c00; stroke: #ff8c00"/>
     <use xlink:href="#m75554f8510" x="119.011092" y="206.609271" style="fill: #ff8c00; stroke: #ff8c00"/>
     <use xlink:href="#m75554f8510" x="178.223207" y="226.198691" style="fill: #ff8c00; stroke: #ff8c00"/>
     <use xlink:href="#m75554f8510" x="141.655656" y="164.473232" style="fill: #ff8c00; stroke: #ff8c00"/>
     <use xlink:href="#m75554f8510" x="92.719388" y="198.345304" style="fill: #ff8c00; stroke: #ff8c00"/>
     <use xlink:href="#m75554f8510" x="131.430811" y="129.395066" style="fill: #ff8c00; stroke: #ff8c00"/>
     <use xlink:href="#m75554f8510" x="99.78814" y="178.005707" style="fill: #ff8c00; stroke: #ff8c00"/>
     <use xlink:href="#m75554f8510" x="144.865262" y="166.878926" style="fill: #ff8c00; stroke: #ff8c00"/>
     <use xlink:href="#m75554f8510" x="140.13857" y="134.565181" style="fill: #ff8c00; stroke: #ff8c00"/>
     <use xlink:href="#m75554f8510" x="134.361519" y="167.191247" style="fill: #ff8c00; stroke: #ff8c00"/>
     <use xlink:href="#m75554f8510" x="133.07639" y="119.012301" style="fill: #ff8c00; stroke: #ff8c00"/>
     <use xlink:href="#m75554f8510" x="139.288871" y="188.020983" style="fill: #ff8c00; stroke: #ff8c00"/>
     <use xlink:href="#m75554f8510" x="175.899967" y="171.193073" style="fill: #ff8c00; stroke: #ff8c00"/>
     <use xlink:href="#m75554f8510" x="126.336335" y="226.352331" style="fill: #ff8c00; stroke: #ff8c00"/>
     <use xlink:href="#m75554f8510" x="136.14406" y="221.047907" style="fill: #ff8c00; stroke: #ff8c00"/>
     <use xlink:href="#m75554f8510" x="93.104028" y="195.462208" style="fill: #ff8c00; stroke: #ff8c00"/>
     <use xlink:href="#m75554f8510" x="125.698328" y="228.969556" style="fill: #ff8c00; stroke: #ff8c00"/>
     <use xlink:href="#m75554f8510" x="119.100824" y="158.661913" style="fill: #ff8c00; stroke: #ff8c00"/>
     <use xlink:href="#m75554f8510" x="161.748274" y="219.58199" style="fill: #ff8c00; stroke: #ff8c00"/>
     <use xlink:href="#m75554f8510" x="87.444797" y="169.72462" style="fill: #ff8c00; stroke: #ff8c00"/>
     <use xlink:href="#m75554f8510" x="151.577044" y="183.274983" style="fill: #ff8c00; stroke: #ff8c00"/>
     <use xlink:href="#m75554f8510" x="136.670796" y="193.460954" style="fill: #ff8c00; stroke: #ff8c00"/>
     <use xlink:href="#m75554f8510" x="118.630982" y="135.577481" style="fill: #ff8c00; stroke: #ff8c00"/>
     <use xlink:href="#m75554f8510" x="149.953901" y="226.707834" style="fill: #ff8c00; stroke: #ff8c00"/>
     <use xlink:href="#m75554f8510" x="99.221863" y="185.050259" style="fill: #ff8c00; stroke: #ff8c00"/>
     <use xlink:href="#m75554f8510" x="129.532671" y="212.937858" style="fill: #ff8c00; stroke: #ff8c00"/>
     <use xlink:href="#m75554f8510" x="173.615098" y="184.010358" style="fill: #ff8c00; stroke: #ff8c00"/>
     <use xlink:href="#m75554f8510" x="144.039615" y="210.412535" style="fill: #ff8c00; stroke: #ff8c00"/>
     <use xlink:href="#m75554f8510" x="192.2065" y="189.587114" style="fill: #ff8c00; stroke: #ff8c00"/>
     <use xlink:href="#m75554f8510" x="136.512319" y="229.011234" style="fill: #ff8c00; stroke: #ff8c00"/>
     <use xlink:href="#m75554f8510" x="124.706736" y="206.828043" style="fill: #ff8c00; stroke: #ff8c00"/>
     <use xlink:href="#m75554f8510" x="138.005865" y="207.212628" style="fill: #ff8c00; stroke: #ff8c00"/>
     <use xlink:href="#m75554f8510" x="142.178108" y="190.868115" style="fill: #ff8c00; stroke: #ff8c00"/>
     <use xlink:href="#m75554f8510" x="99.735636" y="181.905049" style="fill: #ff8c00; stroke: #ff8c00"/>
     <use xlink:href="#m75554f8510" x="186.330332" y="217.714433" style="fill: #ff8c00; stroke: #ff8c00"/>
     <use xlink:href="#m75554f8510" x="175.218326" y="141.455483" style="fill: #ff8c00; stroke: #ff8c00"/>
     <use xlink:href="#m75554f8510" x="104.702688" y="194.208618" style="fill: #ff8c00; stroke: #ff8c00"/>
     <use xlink:href="#m75554f8510" x="179.031056" y="146.125397" style="fill: #ff8c00; stroke: #ff8c00"/>
     <use xlink:href="#m75554f8510" x="141.187697" y="176.207377" style="fill: #ff8c00; stroke: #ff8c00"/>
     <use xlink:href="#m75554f8510" x="151.420873" y="193.586656" style="fill: #ff8c00; stroke: #ff8c00"/>
     <use xlink:href="#m75554f8510" x="155.04098" y="197.071844" style="fill: #ff8c00; stroke: #ff8c00"/>
     <use xlink:href="#m75554f8510" x="119.616421" y="178.938976" style="fill: #ff8c00; stroke: #ff8c00"/>
     <use xlink:href="#m75554f8510" x="116.200987" y="206.594181" style="fill: #ff8c00; stroke: #ff8c00"/>
     <use xlink:href="#m75554f8510" x="95.460482" y="202.41331" style="fill: #ff8c00; stroke: #ff8c00"/>
     <use xlink:href="#m75554f8510" x="157.119423" y="218.635582" style="fill: #ff8c00; stroke: #ff8c00"/>
     <use xlink:href="#m75554f8510" x="184.535415" y="212.929661" style="fill: #ff8c00; stroke: #ff8c00"/>
     <use xlink:href="#m75554f8510" x="149.831458" y="158.411648" style="fill: #ff8c00; stroke: #ff8c00"/>
    </g>
   </g>
   <g id="matplotlib.axis_1">
    <g id="xtick_1">
     <g id="line2d_1">
      <defs>
       <path id="m496a42acf3" d="M 0 0 
L 0 3.5 
" style="stroke: #000000; stroke-width: 0.8"/>
      </defs>
      <g>
       <use xlink:href="#m496a42acf3" x="69.357697" y="274.226392" style="stroke: #000000; stroke-width: 0.8"/>
      </g>
     </g>
     <g id="text_1">
      <!-- −20 -->
      <g transform="translate(58.805353 288.824829) scale(0.1 -0.1)">
       <defs>
        <path id="DejaVuSans-2212" d="M 678 2272 
L 4684 2272 
L 4684 1741 
L 678 1741 
L 678 2272 
z
" transform="scale(0.015625)"/>
        <path id="DejaVuSans-32" d="M 1228 531 
L 3431 531 
L 3431 0 
L 469 0 
L 469 531 
Q 828 903 1448 1529 
Q 2069 2156 2228 2338 
Q 2531 2678 2651 2914 
Q 2772 3150 2772 3378 
Q 2772 3750 2511 3984 
Q 2250 4219 1831 4219 
Q 1534 4219 1204 4116 
Q 875 4013 500 3803 
L 500 4441 
Q 881 4594 1212 4672 
Q 1544 4750 1819 4750 
Q 2544 4750 2975 4387 
Q 3406 4025 3406 3419 
Q 3406 3131 3298 2873 
Q 3191 2616 2906 2266 
Q 2828 2175 2409 1742 
Q 1991 1309 1228 531 
z
" transform="scale(0.015625)"/>
        <path id="DejaVuSans-30" d="M 2034 4250 
Q 1547 4250 1301 3770 
Q 1056 3291 1056 2328 
Q 1056 1369 1301 889 
Q 1547 409 2034 409 
Q 2525 409 2770 889 
Q 3016 1369 3016 2328 
Q 3016 3291 2770 3770 
Q 2525 4250 2034 4250 
z
M 2034 4750 
Q 2819 4750 3233 4129 
Q 3647 3509 3647 2328 
Q 3647 1150 3233 529 
Q 2819 -91 2034 -91 
Q 1250 -91 836 529 
Q 422 1150 422 2328 
Q 422 3509 836 4129 
Q 1250 4750 2034 4750 
z
" transform="scale(0.015625)"/>
       </defs>
       <use xlink:href="#DejaVuSans-2212"/>
       <use xlink:href="#DejaVuSans-32" x="83.789062"/>
       <use xlink:href="#DejaVuSans-30" x="147.412109"/>
      </g>
     </g>
    </g>
    <g id="xtick_2">
     <g id="line2d_2">
      <g>
       <use xlink:href="#m496a42acf3" x="131.766751" y="274.226392" style="stroke: #000000; stroke-width: 0.8"/>
      </g>
     </g>
     <g id="text_2">
      <!-- 0 -->
      <g transform="translate(128.585501 288.824829) scale(0.1 -0.1)">
       <use xlink:href="#DejaVuSans-30"/>
      </g>
     </g>
    </g>
    <g id="xtick_3">
     <g id="line2d_3">
      <g>
       <use xlink:href="#m496a42acf3" x="194.175805" y="274.226392" style="stroke: #000000; stroke-width: 0.8"/>
      </g>
     </g>
     <g id="text_3">
      <!-- 20 -->
      <g transform="translate(187.813305 288.824829) scale(0.1 -0.1)">
       <use xlink:href="#DejaVuSans-32"/>
       <use xlink:href="#DejaVuSans-30" x="63.623047"/>
      </g>
     </g>
    </g>
    <g id="xtick_4">
     <g id="line2d_4">
      <g>
       <use xlink:href="#m496a42acf3" x="256.584859" y="274.226392" style="stroke: #000000; stroke-width: 0.8"/>
      </g>
     </g>
     <g id="text_4">
      <!-- 40 -->
      <g transform="translate(250.222359 288.824829) scale(0.1 -0.1)">
       <defs>
        <path id="DejaVuSans-34" d="M 2419 4116 
L 825 1625 
L 2419 1625 
L 2419 4116 
z
M 2253 4666 
L 3047 4666 
L 3047 1625 
L 3713 1625 
L 3713 1100 
L 3047 1100 
L 3047 0 
L 2419 0 
L 2419 1100 
L 313 1100 
L 313 1709 
L 2253 4666 
z
" transform="scale(0.015625)"/>
       </defs>
       <use xlink:href="#DejaVuSans-34"/>
       <use xlink:href="#DejaVuSans-30" x="63.623047"/>
      </g>
     </g>
    </g>
    <g id="xtick_5">
     <g id="line2d_5">
      <g>
       <use xlink:href="#m496a42acf3" x="318.993913" y="274.226392" style="stroke: #000000; stroke-width: 0.8"/>
      </g>
     </g>
     <g id="text_5">
      <!-- 60 -->
      <g transform="translate(312.631413 288.824829) scale(0.1 -0.1)">
       <defs>
        <path id="DejaVuSans-36" d="M 2113 2584 
Q 1688 2584 1439 2293 
Q 1191 2003 1191 1497 
Q 1191 994 1439 701 
Q 1688 409 2113 409 
Q 2538 409 2786 701 
Q 3034 994 3034 1497 
Q 3034 2003 2786 2293 
Q 2538 2584 2113 2584 
z
M 3366 4563 
L 3366 3988 
Q 3128 4100 2886 4159 
Q 2644 4219 2406 4219 
Q 1781 4219 1451 3797 
Q 1122 3375 1075 2522 
Q 1259 2794 1537 2939 
Q 1816 3084 2150 3084 
Q 2853 3084 3261 2657 
Q 3669 2231 3669 1497 
Q 3669 778 3244 343 
Q 2819 -91 2113 -91 
Q 1303 -91 875 529 
Q 447 1150 447 2328 
Q 447 3434 972 4092 
Q 1497 4750 2381 4750 
Q 2619 4750 2861 4703 
Q 3103 4656 3366 4563 
z
" transform="scale(0.015625)"/>
       </defs>
       <use xlink:href="#DejaVuSans-36"/>
       <use xlink:href="#DejaVuSans-30" x="63.623047"/>
      </g>
     </g>
    </g>
    <g id="xtick_6">
     <g id="line2d_6">
      <g>
       <use xlink:href="#m496a42acf3" x="381.402968" y="274.226392" style="stroke: #000000; stroke-width: 0.8"/>
      </g>
     </g>
     <g id="text_6">
      <!-- 80 -->
      <g transform="translate(375.040468 288.824829) scale(0.1 -0.1)">
       <defs>
        <path id="DejaVuSans-38" d="M 2034 2216 
Q 1584 2216 1326 1975 
Q 1069 1734 1069 1313 
Q 1069 891 1326 650 
Q 1584 409 2034 409 
Q 2484 409 2743 651 
Q 3003 894 3003 1313 
Q 3003 1734 2745 1975 
Q 2488 2216 2034 2216 
z
M 1403 2484 
Q 997 2584 770 2862 
Q 544 3141 544 3541 
Q 544 4100 942 4425 
Q 1341 4750 2034 4750 
Q 2731 4750 3128 4425 
Q 3525 4100 3525 3541 
Q 3525 3141 3298 2862 
Q 3072 2584 2669 2484 
Q 3125 2378 3379 2068 
Q 3634 1759 3634 1313 
Q 3634 634 3220 271 
Q 2806 -91 2034 -91 
Q 1263 -91 848 271 
Q 434 634 434 1313 
Q 434 1759 690 2068 
Q 947 2378 1403 2484 
z
M 1172 3481 
Q 1172 3119 1398 2916 
Q 1625 2713 2034 2713 
Q 2441 2713 2670 2916 
Q 2900 3119 2900 3481 
Q 2900 3844 2670 4047 
Q 2441 4250 2034 4250 
Q 1625 4250 1398 4047 
Q 1172 3844 1172 3481 
z
" transform="scale(0.015625)"/>
       </defs>
       <use xlink:href="#DejaVuSans-38"/>
       <use xlink:href="#DejaVuSans-30" x="63.623047"/>
      </g>
     </g>
    </g>
   </g>
   <g id="matplotlib.axis_2">
    <g id="ytick_1">
     <g id="line2d_7">
      <defs>
       <path id="mf967d97426" d="M 0 0 
L -3.5 0 
" style="stroke: #000000; stroke-width: 0.8"/>
      </defs>
      <g>
       <use xlink:href="#mf967d97426" x="35.304688" y="242.769312" style="stroke: #000000; stroke-width: 0.8"/>
      </g>
     </g>
     <g id="text_7">
      <!-- −20 -->
      <g transform="translate(7.2 246.56853) scale(0.1 -0.1)">
       <use xlink:href="#DejaVuSans-2212"/>
       <use xlink:href="#DejaVuSans-32" x="83.789062"/>
       <use xlink:href="#DejaVuSans-30" x="147.412109"/>
      </g>
     </g>
    </g>
    <g id="ytick_2">
     <g id="line2d_8">
      <g>
       <use xlink:href="#mf967d97426" x="35.304688" y="209.659298" style="stroke: #000000; stroke-width: 0.8"/>
      </g>
     </g>
     <g id="text_8">
      <!-- −10 -->
      <g transform="translate(7.2 213.458517) scale(0.1 -0.1)">
       <defs>
        <path id="DejaVuSans-31" d="M 794 531 
L 1825 531 
L 1825 4091 
L 703 3866 
L 703 4441 
L 1819 4666 
L 2450 4666 
L 2450 531 
L 3481 531 
L 3481 0 
L 794 0 
L 794 531 
z
" transform="scale(0.015625)"/>
       </defs>
       <use xlink:href="#DejaVuSans-2212"/>
       <use xlink:href="#DejaVuSans-31" x="83.789062"/>
       <use xlink:href="#DejaVuSans-30" x="147.412109"/>
      </g>
     </g>
    </g>
    <g id="ytick_3">
     <g id="line2d_9">
      <g>
       <use xlink:href="#mf967d97426" x="35.304688" y="176.549285" style="stroke: #000000; stroke-width: 0.8"/>
      </g>
     </g>
     <g id="text_9">
      <!-- 0 -->
      <g transform="translate(21.942187 180.348504) scale(0.1 -0.1)">
       <use xlink:href="#DejaVuSans-30"/>
      </g>
     </g>
    </g>
    <g id="ytick_4">
     <g id="line2d_10">
      <g>
       <use xlink:href="#mf967d97426" x="35.304688" y="143.439272" style="stroke: #000000; stroke-width: 0.8"/>
      </g>
     </g>
     <g id="text_10">
      <!-- 10 -->
      <g transform="translate(15.579687 147.238491) scale(0.1 -0.1)">
       <use xlink:href="#DejaVuSans-31"/>
       <use xlink:href="#DejaVuSans-30" x="63.623047"/>
      </g>
     </g>
    </g>
    <g id="ytick_5">
     <g id="line2d_11">
      <g>
       <use xlink:href="#mf967d97426" x="35.304688" y="110.329259" style="stroke: #000000; stroke-width: 0.8"/>
      </g>
     </g>
     <g id="text_11">
      <!-- 20 -->
      <g transform="translate(15.579687 114.128477) scale(0.1 -0.1)">
       <use xlink:href="#DejaVuSans-32"/>
       <use xlink:href="#DejaVuSans-30" x="63.623047"/>
      </g>
     </g>
    </g>
    <g id="ytick_6">
     <g id="line2d_12">
      <g>
       <use xlink:href="#mf967d97426" x="35.304688" y="77.219245" style="stroke: #000000; stroke-width: 0.8"/>
      </g>
     </g>
     <g id="text_12">
      <!-- 30 -->
      <g transform="translate(15.579687 81.018464) scale(0.1 -0.1)">
       <defs>
        <path id="DejaVuSans-33" d="M 2597 2516 
Q 3050 2419 3304 2112 
Q 3559 1806 3559 1356 
Q 3559 666 3084 287 
Q 2609 -91 1734 -91 
Q 1441 -91 1130 -33 
Q 819 25 488 141 
L 488 750 
Q 750 597 1062 519 
Q 1375 441 1716 441 
Q 2309 441 2620 675 
Q 2931 909 2931 1356 
Q 2931 1769 2642 2001 
Q 2353 2234 1838 2234 
L 1294 2234 
L 1294 2753 
L 1863 2753 
Q 2328 2753 2575 2939 
Q 2822 3125 2822 3475 
Q 2822 3834 2567 4026 
Q 2313 4219 1838 4219 
Q 1578 4219 1281 4162 
Q 984 4106 628 3988 
L 628 4550 
Q 988 4650 1302 4700 
Q 1616 4750 1894 4750 
Q 2613 4750 3031 4423 
Q 3450 4097 3450 3541 
Q 3450 3153 3228 2886 
Q 3006 2619 2597 2516 
z
" transform="scale(0.015625)"/>
       </defs>
       <use xlink:href="#DejaVuSans-33"/>
       <use xlink:href="#DejaVuSans-30" x="63.623047"/>
      </g>
     </g>
    </g>
    <g id="ytick_7">
     <g id="line2d_13">
      <g>
       <use xlink:href="#mf967d97426" x="35.304688" y="44.109232" style="stroke: #000000; stroke-width: 0.8"/>
      </g>
     </g>
     <g id="text_13">
      <!-- 40 -->
      <g transform="translate(15.579687 47.908451) scale(0.1 -0.1)">
       <use xlink:href="#DejaVuSans-34"/>
       <use xlink:href="#DejaVuSans-30" x="63.623047"/>
      </g>
     </g>
    </g>
    <g id="ytick_8">
     <g id="line2d_14">
      <g>
       <use xlink:href="#mf967d97426" x="35.304688" y="10.999219" style="stroke: #000000; stroke-width: 0.8"/>
      </g>
     </g>
     <g id="text_14">
      <!-- 50 -->
      <g transform="translate(15.579687 14.798437) scale(0.1 -0.1)">
       <defs>
        <path id="DejaVuSans-35" d="M 691 4666 
L 3169 4666 
L 3169 4134 
L 1269 4134 
L 1269 2991 
Q 1406 3038 1543 3061 
Q 1681 3084 1819 3084 
Q 2600 3084 3056 2656 
Q 3513 2228 3513 1497 
Q 3513 744 3044 326 
Q 2575 -91 1722 -91 
Q 1428 -91 1123 -41 
Q 819 9 494 109 
L 494 744 
Q 775 591 1075 516 
Q 1375 441 1709 441 
Q 2250 441 2565 725 
Q 2881 1009 2881 1497 
Q 2881 1984 2565 2268 
Q 2250 2553 1709 2553 
Q 1456 2553 1204 2497 
Q 953 2441 691 2322 
L 691 4666 
z
" transform="scale(0.015625)"/>
       </defs>
       <use xlink:href="#DejaVuSans-35"/>
       <use xlink:href="#DejaVuSans-30" x="63.623047"/>
      </g>
     </g>
    </g>
   </g>
   <g id="patch_3">
    <path d="M 35.304688 274.226392 
L 35.304688 8.114392 
" style="fill: none; stroke: #000000; stroke-width: 0.8; stroke-linejoin: miter; stroke-linecap: square"/>
   </g>
   <g id="patch_4">
    <path d="M 392.424688 274.226392 
L 392.424688 8.114392 
" style="fill: none; stroke: #000000; stroke-width: 0.8; stroke-linejoin: miter; stroke-linecap: square"/>
   </g>
   <g id="patch_5">
    <path d="M 35.304687 274.226392 
L 392.424688 274.226392 
" style="fill: none; stroke: #000000; stroke-width: 0.8; stroke-linejoin: miter; stroke-linecap: square"/>
   </g>
   <g id="patch_6">
    <path d="M 35.304687 8.114392 
L 392.424688 8.114392 
" style="fill: none; stroke: #000000; stroke-width: 0.8; stroke-linejoin: miter; stroke-linecap: square"/>
   </g>
  </g>
 </g>
 <defs>
  <clipPath id="p5218906d37">
   <rect x="35.304688" y="8.114392" width="357.12" height="266.112"/>
  </clipPath>
 </defs>
</svg>
