<?xml version="1.0" encoding="utf-8" standalone="no"?>
<!DOCTYPE svg PUBLIC "-//W3C//DTD SVG 1.1//EN"
  "http://www.w3.org/Graphics/SVG/1.1/DTD/svg11.dtd">
<svg xmlns:xlink="http://www.w3.org/1999/xlink" width="399.624687pt" height="297.190125pt" viewBox="0 0 399.624687 297.190125" xmlns="http://www.w3.org/2000/svg" version="1.1">
 <metadata>
  <rdf:RDF xmlns:dc="http://purl.org/dc/elements/1.1/" xmlns:cc="http://creativecommons.org/ns#" xmlns:rdf="http://www.w3.org/1999/02/22-rdf-syntax-ns#">
   <cc:Work>
    <dc:type rdf:resource="http://purl.org/dc/dcmitype/StillImage"/>
    <dc:date>2023-11-11T11:37:26.385633</dc:date>
    <dc:format>image/svg+xml</dc:format>
    <dc:creator>
     <cc:Agent>
      <dc:title>Matplotlib v3.8.0, https://matplotlib.org/</dc:title>
     </cc:Agent>
    </dc:creator>
   </cc:Work>
  </rdf:RDF>
 </metadata>
 <defs>
  <style type="text/css">*{stroke-linejoin: round; stroke-linecap: butt}</style>
 </defs>
 <g id="figure_1">
  <g id="patch_1">
   <path d="M 0 297.190125 
L 399.624687 297.190125 
L 399.624687 0 
L 0 0 
z
" style="fill: #ffffff"/>
  </g>
  <g id="axes_1">
   <g id="patch_2">
    <path d="M 35.304688 273.312 
L 392.424688 273.312 
L 392.424688 7.2 
L 35.304688 7.2 
z
" style="fill: #ffffff"/>
   </g>
   <g id="PathCollection_1">
    <defs>
     <path id="m7051b28cd6" d="M 0 1.5 
C 0.397805 1.5 0.77937 1.341951 1.06066 1.06066 
C 1.341951 0.77937 1.5 0.397805 1.5 0 
C 1.5 -0.397805 1.341951 -0.77937 1.06066 -1.06066 
C 0.77937 -1.341951 0.397805 -1.5 0 -1.5 
C -0.397805 -1.5 -0.77937 -1.341951 -1.06066 -1.06066 
C -1.341951 -0.77937 -1.5 -0.397805 -1.5 0 
C -1.5 0.397805 -1.341951 0.77937 -1.06066 1.06066 
C -0.77937 1.341951 -0.397805 1.5 0 1.5 
z
" style="stroke: #ff8c00"/>
    </defs>
    <g clip-path="url(#p4bc309d7f2)">
     <use xlink:href="#m7051b28cd6" x="334.271485" y="213.016892" style="fill: #ff8c00; stroke: #ff8c00"/>
     <use xlink:href="#m7051b28cd6" x="317.756557" y="180.818061" style="fill: #ff8c00; stroke: #ff8c00"/>
     <use xlink:href="#m7051b28cd6" x="307.210559" y="255.768293" style="fill: #ff8c00; stroke: #ff8c00"/>
     <use xlink:href="#m7051b28cd6" x="227.693272" y="192.916901" style="fill: #ff8c00; stroke: #ff8c00"/>
     <use xlink:href="#m7051b28cd6" x="230.108719" y="138.458423" style="fill: #ff8c00; stroke: #ff8c00"/>
     <use xlink:href="#m7051b28cd6" x="307.155231" y="179.226025" style="fill: #ff8c00; stroke: #ff8c00"/>
     <use xlink:href="#m7051b28cd6" x="310.646978" y="193.469587" style="fill: #ff8c00; stroke: #ff8c00"/>
     <use xlink:href="#m7051b28cd6" x="291.22408" y="79.391996" style="fill: #ff8c00; stroke: #ff8c00"/>
     <use xlink:href="#m7051b28cd6" x="221.864603" y="131.402745" style="fill: #ff8c00; stroke: #ff8c00"/>
     <use xlink:href="#m7051b28cd6" x="241.239024" y="124.518509" style="fill: #ff8c00; stroke: #ff8c00"/>
     <use xlink:href="#m7051b28cd6" x="153.746737" y="230.537176" style="fill: #ff8c00; stroke: #ff8c00"/>
     <use xlink:href="#m7051b28cd6" x="306.151547" y="186.159866" style="fill: #ff8c00; stroke: #ff8c00"/>
     <use xlink:href="#m7051b28cd6" x="292.100473" y="108.441757" style="fill: #ff8c00; stroke: #ff8c00"/>
     <use xlink:href="#m7051b28cd6" x="367.456351" y="202.914751" style="fill: #ff8c00; stroke: #ff8c00"/>
     <use xlink:href="#m7051b28cd6" x="170.094408" y="191.533137" style="fill: #ff8c00; stroke: #ff8c00"/>
    </g>
   </g>
   <g id="PathCollection_2">
    <defs>
     <path id="mfe135aa3d6" d="M 0 1.5 
C 0.397805 1.5 0.77937 1.341951 1.06066 1.06066 
C 1.341951 0.77937 1.5 0.397805 1.5 0 
C 1.5 -0.397805 1.341951 -0.77937 1.06066 -1.06066 
C 0.77937 -1.341951 0.397805 -1.5 0 -1.5 
C -0.397805 -1.5 -0.77937 -1.341951 -1.06066 -1.06066 
C -1.341951 -0.77937 -1.5 -0.397805 -1.5 0 
C -1.5 0.397805 -1.341951 0.77937 -1.06066 1.06066 
C -0.77937 1.341951 -0.397805 1.5 0 1.5 
z
" style="stroke: #006400"/>
    </defs>
    <g clip-path="url(#p4bc309d7f2)">
     <use xlink:href="#mfe135aa3d6" x="118.292001" y="114.218683" style="fill: #006400; stroke: #006400"/>
     <use xlink:href="#mfe135aa3d6" x="126.421089" y="154.787643" style="fill: #006400; stroke: #006400"/>
     <use xlink:href="#mfe135aa3d6" x="95.296034" y="148.028627" style="fill: #006400; stroke: #006400"/>
     <use xlink:href="#mfe135aa3d6" x="124.85885" y="163.371985" style="fill: #006400; stroke: #006400"/>
     <use xlink:href="#mfe135aa3d6" x="115.043326" y="180.884512" style="fill: #006400; stroke: #006400"/>
     <use xlink:href="#mfe135aa3d6" x="263.94726" y="182.062081" style="fill: #006400; stroke: #006400"/>
     <use xlink:href="#mfe135aa3d6" x="292.512907" y="157.858137" style="fill: #006400; stroke: #006400"/>
     <use xlink:href="#mfe135aa3d6" x="126.036926" y="180.609962" style="fill: #006400; stroke: #006400"/>
     <use xlink:href="#mfe135aa3d6" x="149.775668" y="151.820804" style="fill: #006400; stroke: #006400"/>
     <use xlink:href="#mfe135aa3d6" x="206.809148" y="165.353722" style="fill: #006400; stroke: #006400"/>
     <use xlink:href="#mfe135aa3d6" x="172.4021" y="190.882204" style="fill: #006400; stroke: #006400"/>
     <use xlink:href="#mfe135aa3d6" x="108.504663" y="163.556402" style="fill: #006400; stroke: #006400"/>
     <use xlink:href="#mfe135aa3d6" x="204.265453" y="163.700869" style="fill: #006400; stroke: #006400"/>
     <use xlink:href="#mfe135aa3d6" x="154.651446" y="155.673415" style="fill: #006400; stroke: #006400"/>
     <use xlink:href="#mfe135aa3d6" x="175.497163" y="161.76017" style="fill: #006400; stroke: #006400"/>
    </g>
   </g>
   <g id="PathCollection_3">
    <defs>
     <path id="mb543ec283b" d="M 0 1.5 
C 0.397805 1.5 0.77937 1.341951 1.06066 1.06066 
C 1.341951 0.77937 1.5 0.397805 1.5 0 
C 1.5 -0.397805 1.341951 -0.77937 1.06066 -1.06066 
C 0.77937 -1.341951 0.397805 -1.5 0 -1.5 
C -0.397805 -1.5 -0.77937 -1.341951 -1.06066 -1.06066 
C -1.341951 -0.77937 -1.5 -0.397805 -1.5 0 
C -1.5 0.397805 -1.341951 0.77937 -1.06066 1.06066 
C -0.77937 1.341951 -0.397805 1.5 0 1.5 
z
" style="stroke: #2f4f4f"/>
    </defs>
    <g clip-path="url(#p4bc309d7f2)">
     <use xlink:href="#mb543ec283b" x="177.167958" y="191.971561" style="fill: #2f4f4f; stroke: #2f4f4f"/>
     <use xlink:href="#mb543ec283b" x="61.318852" y="164.011696" style="fill: #2f4f4f; stroke: #2f4f4f"/>
     <use xlink:href="#mb543ec283b" x="171.331773" y="163.671495" style="fill: #2f4f4f; stroke: #2f4f4f"/>
     <use xlink:href="#mb543ec283b" x="95.494548" y="144.143205" style="fill: #2f4f4f; stroke: #2f4f4f"/>
     <use xlink:href="#mb543ec283b" x="168.598265" y="135.901784" style="fill: #2f4f4f; stroke: #2f4f4f"/>
     <use xlink:href="#mb543ec283b" x="179.837712" y="250.55137" style="fill: #2f4f4f; stroke: #2f4f4f"/>
     <use xlink:href="#mb543ec283b" x="161.602491" y="97.806192" style="fill: #2f4f4f; stroke: #2f4f4f"/>
     <use xlink:href="#mb543ec283b" x="159.912166" y="145.36103" style="fill: #2f4f4f; stroke: #2f4f4f"/>
     <use xlink:href="#mb543ec283b" x="119.172365" y="155.167292" style="fill: #2f4f4f; stroke: #2f4f4f"/>
     <use xlink:href="#mb543ec283b" x="92.276297" y="195.700294" style="fill: #2f4f4f; stroke: #2f4f4f"/>
     <use xlink:href="#mb543ec283b" x="101.258311" y="161.974365" style="fill: #2f4f4f; stroke: #2f4f4f"/>
    </g>
   </g>
   <g id="PathCollection_4">
    <defs>
     <path id="m9f95a25758" d="M 0 1.5 
C 0.397805 1.5 0.77937 1.341951 1.06066 1.06066 
C 1.341951 0.77937 1.5 0.397805 1.5 0 
C 1.5 -0.397805 1.341951 -0.77937 1.06066 -1.06066 
C 0.77937 -1.341951 0.397805 -1.5 0 -1.5 
C -0.397805 -1.5 -0.77937 -1.341951 -1.06066 -1.06066 
C -1.341951 -0.77937 -1.5 -0.397805 -1.5 0 
C -1.5 0.397805 -1.341951 0.77937 -1.06066 1.06066 
C -0.77937 1.341951 -0.397805 1.5 0 1.5 
z
" style="stroke: #00bfff"/>
    </defs>
    <g clip-path="url(#p4bc309d7f2)">
     <use xlink:href="#m9f95a25758" x="122.389088" y="184.531986" style="fill: #00bfff; stroke: #00bfff"/>
     <use xlink:href="#m9f95a25758" x="164.268515" y="171.895295" style="fill: #00bfff; stroke: #00bfff"/>
     <use xlink:href="#m9f95a25758" x="124.096038" y="186.775487" style="fill: #00bfff; stroke: #00bfff"/>
     <use xlink:href="#m9f95a25758" x="136.25773" y="162.573511" style="fill: #00bfff; stroke: #00bfff"/>
     <use xlink:href="#m9f95a25758" x="105.953623" y="205.553648" style="fill: #00bfff; stroke: #00bfff"/>
     <use xlink:href="#m9f95a25758" x="135.038928" y="141.218147" style="fill: #00bfff; stroke: #00bfff"/>
     <use xlink:href="#m9f95a25758" x="89.040431" y="167.226227" style="fill: #00bfff; stroke: #00bfff"/>
     <use xlink:href="#m9f95a25758" x="108.416301" y="123.736707" style="fill: #00bfff; stroke: #00bfff"/>
     <use xlink:href="#m9f95a25758" x="137.354376" y="148.684729" style="fill: #00bfff; stroke: #00bfff"/>
     <use xlink:href="#m9f95a25758" x="84.186352" y="183.563488" style="fill: #00bfff; stroke: #00bfff"/>
     <use xlink:href="#m9f95a25758" x="160.88489" y="144.214896" style="fill: #00bfff; stroke: #00bfff"/>
     <use xlink:href="#m9f95a25758" x="136.25773" y="162.573511" style="fill: #00bfff; stroke: #00bfff"/>
     <use xlink:href="#m9f95a25758" x="142.549139" y="141.728683" style="fill: #00bfff; stroke: #00bfff"/>
    </g>
   </g>
   <g id="PathCollection_5">
    <defs>
     <path id="m2b16ea1479" d="M 0 1.5 
C 0.397805 1.5 0.77937 1.341951 1.06066 1.06066 
C 1.341951 0.77937 1.5 0.397805 1.5 0 
C 1.5 -0.397805 1.341951 -0.77937 1.06066 -1.06066 
C 0.77937 -1.341951 0.397805 -1.5 0 -1.5 
C -0.397805 -1.5 -0.77937 -1.341951 -1.06066 -1.06066 
C -1.341951 -0.77937 -1.5 -0.397805 -1.5 0 
C -1.5 0.397805 -1.341951 0.77937 -1.06066 1.06066 
C -0.77937 1.341951 -0.397805 1.5 0 1.5 
z
" style="stroke: #ffff00"/>
    </defs>
    <g clip-path="url(#p4bc309d7f2)">
     <use xlink:href="#m2b16ea1479" x="101.850124" y="98.072789" style="fill: #ffff00; stroke: #ffff00"/>
     <use xlink:href="#m2b16ea1479" x="110.998379" y="224.84291" style="fill: #ffff00; stroke: #ffff00"/>
     <use xlink:href="#m2b16ea1479" x="127.476284" y="176.307538" style="fill: #ffff00; stroke: #ffff00"/>
     <use xlink:href="#m2b16ea1479" x="218.576265" y="62.321631" style="fill: #ffff00; stroke: #ffff00"/>
     <use xlink:href="#m2b16ea1479" x="116.885031" y="150.959155" style="fill: #ffff00; stroke: #ffff00"/>
     <use xlink:href="#m2b16ea1479" x="118.444714" y="183.256679" style="fill: #ffff00; stroke: #ffff00"/>
     <use xlink:href="#m2b16ea1479" x="130.84889" y="229.098191" style="fill: #ffff00; stroke: #ffff00"/>
     <use xlink:href="#m2b16ea1479" x="82.463009" y="168.675055" style="fill: #ffff00; stroke: #ffff00"/>
     <use xlink:href="#m2b16ea1479" x="239.507471" y="210.542654" style="fill: #ffff00; stroke: #ffff00"/>
     <use xlink:href="#m2b16ea1479" x="134.510954" y="209.320246" style="fill: #ffff00; stroke: #ffff00"/>
     <use xlink:href="#m2b16ea1479" x="171.481412" y="180.069441" style="fill: #ffff00; stroke: #ffff00"/>
    </g>
   </g>
   <g id="PathCollection_6">
    <defs>
     <path id="m4b2c3b087b" d="M 0 1.5 
C 0.397805 1.5 0.77937 1.341951 1.06066 1.06066 
C 1.341951 0.77937 1.5 0.397805 1.5 0 
C 1.5 -0.397805 1.341951 -0.77937 1.06066 -1.06066 
C 0.77937 -1.341951 0.397805 -1.5 0 -1.5 
C -0.397805 -1.5 -0.77937 -1.341951 -1.06066 -1.06066 
C -1.341951 -0.77937 -1.5 -0.397805 -1.5 0 
C -1.5 0.397805 -1.341951 0.77937 -1.06066 1.06066 
C -0.77937 1.341951 -0.397805 1.5 0 1.5 
z
" style="stroke: #00ffff"/>
    </defs>
    <g clip-path="url(#p4bc309d7f2)">
     <use xlink:href="#m4b2c3b087b" x="121.55247" y="161.892126" style="fill: #00ffff; stroke: #00ffff"/>
     <use xlink:href="#m4b2c3b087b" x="160.275374" y="191.150233" style="fill: #00ffff; stroke: #00ffff"/>
     <use xlink:href="#m4b2c3b087b" x="168.047067" y="154.262193" style="fill: #00ffff; stroke: #00ffff"/>
     <use xlink:href="#m4b2c3b087b" x="95.959751" y="162.952859" style="fill: #00ffff; stroke: #00ffff"/>
     <use xlink:href="#m4b2c3b087b" x="263.689338" y="133.679288" style="fill: #00ffff; stroke: #00ffff"/>
     <use xlink:href="#m4b2c3b087b" x="173.079053" y="185.043299" style="fill: #00ffff; stroke: #00ffff"/>
     <use xlink:href="#m4b2c3b087b" x="130.056363" y="174.273642" style="fill: #00ffff; stroke: #00ffff"/>
     <use xlink:href="#m4b2c3b087b" x="79.981512" y="168.551895" style="fill: #00ffff; stroke: #00ffff"/>
     <use xlink:href="#m4b2c3b087b" x="118.43817" y="116.181062" style="fill: #00ffff; stroke: #00ffff"/>
     <use xlink:href="#m4b2c3b087b" x="51.537415" y="165.261716" style="fill: #00ffff; stroke: #00ffff"/>
     <use xlink:href="#m4b2c3b087b" x="315.684744" y="125.263751" style="fill: #00ffff; stroke: #00ffff"/>
     <use xlink:href="#m4b2c3b087b" x="117.535915" y="177.776245" style="fill: #00ffff; stroke: #00ffff"/>
     <use xlink:href="#m4b2c3b087b" x="131.198388" y="175.421793" style="fill: #00ffff; stroke: #00ffff"/>
     <use xlink:href="#m4b2c3b087b" x="137.656318" y="230.492688" style="fill: #00ffff; stroke: #00ffff"/>
     <use xlink:href="#m4b2c3b087b" x="110.173146" y="190.482858" style="fill: #00ffff; stroke: #00ffff"/>
     <use xlink:href="#m4b2c3b087b" x="185.049006" y="148.380828" style="fill: #00ffff; stroke: #00ffff"/>
    </g>
   </g>
   <g id="PathCollection_7">
    <defs>
     <path id="m7b84950d8d" d="M 0 1.5 
C 0.397805 1.5 0.77937 1.341951 1.06066 1.06066 
C 1.341951 0.77937 1.5 0.397805 1.5 0 
C 1.5 -0.397805 1.341951 -0.77937 1.06066 -1.06066 
C 0.77937 -1.341951 0.397805 -1.5 0 -1.5 
C -0.397805 -1.5 -0.77937 -1.341951 -1.06066 -1.06066 
C -1.341951 -0.77937 -1.5 -0.397805 -1.5 0 
C -1.5 0.397805 -1.341951 0.77937 -1.06066 1.06066 
C -0.77937 1.341951 -0.397805 1.5 0 1.5 
z
" style="stroke: #0000ff"/>
    </defs>
    <g clip-path="url(#p4bc309d7f2)">
     <use xlink:href="#m7b84950d8d" x="208.919829" y="87.123142" style="fill: #0000ff; stroke: #0000ff"/>
     <use xlink:href="#m7b84950d8d" x="99.877532" y="102.33283" style="fill: #0000ff; stroke: #0000ff"/>
     <use xlink:href="#m7b84950d8d" x="177.340935" y="223.805338" style="fill: #0000ff; stroke: #0000ff"/>
     <use xlink:href="#m7b84950d8d" x="141.107993" y="189.708987" style="fill: #0000ff; stroke: #0000ff"/>
     <use xlink:href="#m7b84950d8d" x="114.713902" y="126.527207" style="fill: #0000ff; stroke: #0000ff"/>
     <use xlink:href="#m7b84950d8d" x="193.792234" y="19.296" style="fill: #0000ff; stroke: #0000ff"/>
     <use xlink:href="#m7b84950d8d" x="185.343328" y="142.989446" style="fill: #0000ff; stroke: #0000ff"/>
     <use xlink:href="#m7b84950d8d" x="190.909154" y="41.315612" style="fill: #0000ff; stroke: #0000ff"/>
     <use xlink:href="#m7b84950d8d" x="135.471831" y="81.834703" style="fill: #0000ff; stroke: #0000ff"/>
     <use xlink:href="#m7b84950d8d" x="138.629936" y="119.699418" style="fill: #0000ff; stroke: #0000ff"/>
     <use xlink:href="#m7b84950d8d" x="134.598271" y="162.089661" style="fill: #0000ff; stroke: #0000ff"/>
     <use xlink:href="#m7b84950d8d" x="196.674398" y="132.220721" style="fill: #0000ff; stroke: #0000ff"/>
     <use xlink:href="#m7b84950d8d" x="74.596658" y="103.234463" style="fill: #0000ff; stroke: #0000ff"/>
    </g>
   </g>
   <g id="PathCollection_8">
    <defs>
     <path id="m6e709153ce" d="M 0 1.5 
C 0.397805 1.5 0.77937 1.341951 1.06066 1.06066 
C 1.341951 0.77937 1.5 0.397805 1.5 0 
C 1.5 -0.397805 1.341951 -0.77937 1.06066 -1.06066 
C 0.77937 -1.341951 0.397805 -1.5 0 -1.5 
C -0.397805 -1.5 -0.77937 -1.341951 -1.06066 -1.06066 
C -1.341951 -0.77937 -1.5 -0.397805 -1.5 0 
C -1.5 0.397805 -1.341951 0.77937 -1.06066 1.06066 
C -0.77937 1.341951 -0.397805 1.5 0 1.5 
z
" style="stroke: #dc143c"/>
    </defs>
    <g clip-path="url(#p4bc309d7f2)">
     <use xlink:href="#m6e709153ce" x="309.98468" y="129.774386" style="fill: #dc143c; stroke: #dc143c"/>
     <use xlink:href="#m6e709153ce" x="246.133567" y="155.51817" style="fill: #dc143c; stroke: #dc143c"/>
     <use xlink:href="#m6e709153ce" x="216.731229" y="203.619249" style="fill: #dc143c; stroke: #dc143c"/>
     <use xlink:href="#m6e709153ce" x="254.028442" y="159.781922" style="fill: #dc143c; stroke: #dc143c"/>
     <use xlink:href="#m6e709153ce" x="297.089937" y="166.044143" style="fill: #dc143c; stroke: #dc143c"/>
     <use xlink:href="#m6e709153ce" x="352.15083" y="221.774716" style="fill: #dc143c; stroke: #dc143c"/>
     <use xlink:href="#m6e709153ce" x="241.951521" y="128.351919" style="fill: #dc143c; stroke: #dc143c"/>
     <use xlink:href="#m6e709153ce" x="282.442319" y="141.460967" style="fill: #dc143c; stroke: #dc143c"/>
     <use xlink:href="#m6e709153ce" x="201.058564" y="179.004341" style="fill: #dc143c; stroke: #dc143c"/>
     <use xlink:href="#m6e709153ce" x="316.075293" y="166.525718" style="fill: #dc143c; stroke: #dc143c"/>
     <use xlink:href="#m6e709153ce" x="225.224212" y="163.248222" style="fill: #dc143c; stroke: #dc143c"/>
     <use xlink:href="#m6e709153ce" x="325.265313" y="155.185234" style="fill: #dc143c; stroke: #dc143c"/>
     <use xlink:href="#m6e709153ce" x="215.71966" y="167.639446" style="fill: #dc143c; stroke: #dc143c"/>
     <use xlink:href="#m6e709153ce" x="206.365746" y="138.79248" style="fill: #dc143c; stroke: #dc143c"/>
     <use xlink:href="#m6e709153ce" x="273.440029" y="175.102517" style="fill: #dc143c; stroke: #dc143c"/>
     <use xlink:href="#m6e709153ce" x="222.005292" y="209.190618" style="fill: #dc143c; stroke: #dc143c"/>
     <use xlink:href="#m6e709153ce" x="254.890321" y="196.105575" style="fill: #dc143c; stroke: #dc143c"/>
     <use xlink:href="#m6e709153ce" x="245.431424" y="160.51931" style="fill: #dc143c; stroke: #dc143c"/>
     <use xlink:href="#m6e709153ce" x="259.060416" y="127.641157" style="fill: #dc143c; stroke: #dc143c"/>
     <use xlink:href="#m6e709153ce" x="314.719476" y="151.455419" style="fill: #dc143c; stroke: #dc143c"/>
    </g>
   </g>
   <g id="PathCollection_9">
    <defs>
     <path id="m2386d2d95a" d="M 0 1.5 
C 0.397805 1.5 0.77937 1.341951 1.06066 1.06066 
C 1.341951 0.77937 1.5 0.397805 1.5 0 
C 1.5 -0.397805 1.341951 -0.77937 1.06066 -1.06066 
C 0.77937 -1.341951 0.397805 -1.5 0 -1.5 
C -0.397805 -1.5 -0.77937 -1.341951 -1.06066 -1.06066 
C -1.341951 -0.77937 -1.5 -0.397805 -1.5 0 
C -1.5 0.397805 -1.341951 0.77937 -1.06066 1.06066 
C -0.77937 1.341951 -0.397805 1.5 0 1.5 
z
" style="stroke: #ffe4c4"/>
    </defs>
    <g clip-path="url(#p4bc309d7f2)">
     <use xlink:href="#m2386d2d95a" x="190.32601" y="97.603055" style="fill: #ffe4c4; stroke: #ffe4c4"/>
     <use xlink:href="#m2386d2d95a" x="196.318946" y="120.3493" style="fill: #ffe4c4; stroke: #ffe4c4"/>
     <use xlink:href="#m2386d2d95a" x="188.669107" y="100.354245" style="fill: #ffe4c4; stroke: #ffe4c4"/>
     <use xlink:href="#m2386d2d95a" x="215.945008" y="111.723766" style="fill: #ffe4c4; stroke: #ffe4c4"/>
     <use xlink:href="#m2386d2d95a" x="234.658206" y="112.929559" style="fill: #ffe4c4; stroke: #ffe4c4"/>
     <use xlink:href="#m2386d2d95a" x="214.580201" y="135.162653" style="fill: #ffe4c4; stroke: #ffe4c4"/>
     <use xlink:href="#m2386d2d95a" x="168.330831" y="125.904712" style="fill: #ffe4c4; stroke: #ffe4c4"/>
     <use xlink:href="#m2386d2d95a" x="170.587275" y="184.448226" style="fill: #ffe4c4; stroke: #ffe4c4"/>
     <use xlink:href="#m2386d2d95a" x="186.92503" y="121.392344" style="fill: #ffe4c4; stroke: #ffe4c4"/>
     <use xlink:href="#m2386d2d95a" x="173.21564" y="92.049237" style="fill: #ffe4c4; stroke: #ffe4c4"/>
     <use xlink:href="#m2386d2d95a" x="211.155833" y="134.590232" style="fill: #ffe4c4; stroke: #ffe4c4"/>
     <use xlink:href="#m2386d2d95a" x="248.171955" y="143.803982" style="fill: #ffe4c4; stroke: #ffe4c4"/>
     <use xlink:href="#m2386d2d95a" x="155.701248" y="160.096532" style="fill: #ffe4c4; stroke: #ffe4c4"/>
     <use xlink:href="#m2386d2d95a" x="102.582739" y="116.407654" style="fill: #ffe4c4; stroke: #ffe4c4"/>
    </g>
   </g>
   <g id="PathCollection_10">
    <defs>
     <path id="m5547557d9c" d="M -2.99994 2.99994 
L 3.00006 2.99994 
L 3.00006 -3.00006 
L -2.99994 -3.00006 
z
" style="stroke: #000000"/>
    </defs>
    <g clip-path="url(#p4bc309d7f2)">
     <use xlink:href="#m5547557d9c" x="313.691751" y="143.28919" style="stroke: #000000"/>
     <use xlink:href="#m5547557d9c" x="153.303576" y="135.826677" style="stroke: #000000"/>
     <use xlink:href="#m5547557d9c" x="258.20133" y="63.994522" style="stroke: #000000"/>
     <use xlink:href="#m5547557d9c" x="192.477808" y="186.284573" style="stroke: #000000"/>
     <use xlink:href="#m5547557d9c" x="180.111858" y="152.0414" style="stroke: #000000"/>
     <use xlink:href="#m5547557d9c" x="176.083778" y="220.791072" style="stroke: #000000"/>
     <use xlink:href="#m5547557d9c" x="148.308237" y="171.882842" style="stroke: #000000"/>
     <use xlink:href="#m5547557d9c" x="213.426663" y="173.014288" style="stroke: #000000"/>
     <use xlink:href="#m5547557d9c" x="216.727149" y="162.275678" style="stroke: #000000"/>
     <use xlink:href="#m5547557d9c" x="172.313003" y="147.90978" style="stroke: #000000"/>
     <use xlink:href="#m5547557d9c" x="201.117296" y="182.67614" style="stroke: #000000"/>
     <use xlink:href="#m5547557d9c" x="223.659505" y="143.113666" style="stroke: #000000"/>
     <use xlink:href="#m5547557d9c" x="217.395224" y="195.242818" style="stroke: #000000"/>
     <use xlink:href="#m5547557d9c" x="190.610278" y="110.037235" style="stroke: #000000"/>
     <use xlink:href="#m5547557d9c" x="246.963633" y="232.371106" style="stroke: #000000"/>
     <use xlink:href="#m5547557d9c" x="194.162252" y="120.99281" style="stroke: #000000"/>
     <use xlink:href="#m5547557d9c" x="187.809419" y="163.704279" style="stroke: #000000"/>
     <use xlink:href="#m5547557d9c" x="169.548904" y="125.909515" style="stroke: #000000"/>
     <use xlink:href="#m5547557d9c" x="134.690636" y="117.677414" style="stroke: #000000"/>
     <use xlink:href="#m5547557d9c" x="209.287219" y="230.398998" style="stroke: #000000"/>
     <use xlink:href="#m5547557d9c" x="179.297772" y="161.53955" style="stroke: #000000"/>
     <use xlink:href="#m5547557d9c" x="180.810801" y="237.660923" style="stroke: #000000"/>
     <use xlink:href="#m5547557d9c" x="226.88014" y="173.145842" style="stroke: #000000"/>
     <use xlink:href="#m5547557d9c" x="234.823828" y="236.79952" style="stroke: #000000"/>
     <use xlink:href="#m5547557d9c" x="173.060666" y="115.133335" style="stroke: #000000"/>
     <use xlink:href="#m5547557d9c" x="173.018065" y="186.290185" style="stroke: #000000"/>
     <use xlink:href="#m5547557d9c" x="102.844895" y="167.801004" style="stroke: #000000"/>
     <use xlink:href="#m5547557d9c" x="85.083993" y="146.976129" style="stroke: #000000"/>
     <use xlink:href="#m5547557d9c" x="278.610305" y="219.099082" style="stroke: #000000"/>
     <use xlink:href="#m5547557d9c" x="195.248402" y="218.014066" style="stroke: #000000"/>
     <use xlink:href="#m5547557d9c" x="158.07149" y="231.805611" style="stroke: #000000"/>
     <use xlink:href="#m5547557d9c" x="269.907482" y="128.746913" style="stroke: #000000"/>
     <use xlink:href="#m5547557d9c" x="208.883936" y="152.565198" style="stroke: #000000"/>
     <use xlink:href="#m5547557d9c" x="376.19196" y="203.599857" style="stroke: #000000"/>
     <use xlink:href="#m5547557d9c" x="192.043902" y="169.198087" style="stroke: #000000"/>
     <use xlink:href="#m5547557d9c" x="216.58719" y="143.639355" style="stroke: #000000"/>
     <use xlink:href="#m5547557d9c" x="192.054655" y="179.274688" style="stroke: #000000"/>
     <use xlink:href="#m5547557d9c" x="160.449079" y="176.646528" style="stroke: #000000"/>
     <use xlink:href="#m5547557d9c" x="208.168931" y="116.74853" style="stroke: #000000"/>
     <use xlink:href="#m5547557d9c" x="275.922565" y="218.601955" style="stroke: #000000"/>
     <use xlink:href="#m5547557d9c" x="182.214289" y="124.385613" style="stroke: #000000"/>
     <use xlink:href="#m5547557d9c" x="154.752457" y="197.16419" style="stroke: #000000"/>
     <use xlink:href="#m5547557d9c" x="342.885909" y="167.208496" style="stroke: #000000"/>
     <use xlink:href="#m5547557d9c" x="165.260913" y="178.84616" style="stroke: #000000"/>
     <use xlink:href="#m5547557d9c" x="130.172554" y="159.191868" style="stroke: #000000"/>
     <use xlink:href="#m5547557d9c" x="176.050336" y="171.289581" style="stroke: #000000"/>
     <use xlink:href="#m5547557d9c" x="267.904648" y="166.678699" style="stroke: #000000"/>
     <use xlink:href="#m5547557d9c" x="337.338749" y="78.037566" style="stroke: #000000"/>
     <use xlink:href="#m5547557d9c" x="245.020847" y="248.756317" style="stroke: #000000"/>
     <use xlink:href="#m5547557d9c" x="268.53476" y="199.631827" style="stroke: #000000"/>
     <use xlink:href="#m5547557d9c" x="252.516694" y="115.294962" style="stroke: #000000"/>
     <use xlink:href="#m5547557d9c" x="296.226632" y="84.733304" style="stroke: #000000"/>
     <use xlink:href="#m5547557d9c" x="265.379631" y="141.047796" style="stroke: #000000"/>
     <use xlink:href="#m5547557d9c" x="131.563679" y="168.519136" style="stroke: #000000"/>
     <use xlink:href="#m5547557d9c" x="230.305522" y="97.457634" style="stroke: #000000"/>
     <use xlink:href="#m5547557d9c" x="147.896907" y="217.314528" style="stroke: #000000"/>
     <use xlink:href="#m5547557d9c" x="183.21087" y="156.542028" style="stroke: #000000"/>
     <use xlink:href="#m5547557d9c" x="169.405533" y="203.582403" style="stroke: #000000"/>
     <use xlink:href="#m5547557d9c" x="151.962908" y="233.883358" style="stroke: #000000"/>
     <use xlink:href="#m5547557d9c" x="299.636568" y="207.394118" style="stroke: #000000"/>
     <use xlink:href="#m5547557d9c" x="185.268" y="120.321474" style="stroke: #000000"/>
     <use xlink:href="#m5547557d9c" x="186.934983" y="153.949944" style="stroke: #000000"/>
     <use xlink:href="#m5547557d9c" x="194.246813" y="131.487558" style="stroke: #000000"/>
     <use xlink:href="#m5547557d9c" x="217.564459" y="187.646285" style="stroke: #000000"/>
    </g>
   </g>
   <g id="PathCollection_11">
    <defs>
     <path id="m59a6c0d65d" d="M -3 -0 
L 3 3 
L 3 -3 
z
" style="stroke: #ff8c00"/>
    </defs>
    <g clip-path="url(#p4bc309d7f2)">
     <use xlink:href="#m59a6c0d65d" x="106.465746" y="137.012056" style="fill: #ff8c00; stroke: #ff8c00"/>
     <use xlink:href="#m59a6c0d65d" x="217.370448" y="150.796849" style="fill: #ff8c00; stroke: #ff8c00"/>
     <use xlink:href="#m59a6c0d65d" x="165.165993" y="204.526937" style="fill: #ff8c00; stroke: #ff8c00"/>
     <use xlink:href="#m59a6c0d65d" x="123.237178" y="147.13602" style="fill: #ff8c00; stroke: #ff8c00"/>
     <use xlink:href="#m59a6c0d65d" x="230.914873" y="120.468382" style="fill: #ff8c00; stroke: #ff8c00"/>
     <use xlink:href="#m59a6c0d65d" x="151.824746" y="116.887677" style="fill: #ff8c00; stroke: #ff8c00"/>
     <use xlink:href="#m59a6c0d65d" x="220.255649" y="212.528272" style="fill: #ff8c00; stroke: #ff8c00"/>
     <use xlink:href="#m59a6c0d65d" x="247.609429" y="123.70556" style="fill: #ff8c00; stroke: #ff8c00"/>
     <use xlink:href="#m59a6c0d65d" x="139.053736" y="140.021248" style="fill: #ff8c00; stroke: #ff8c00"/>
     <use xlink:href="#m59a6c0d65d" x="135.762897" y="127.039273" style="fill: #ff8c00; stroke: #ff8c00"/>
     <use xlink:href="#m59a6c0d65d" x="94.996976" y="164.087618" style="fill: #ff8c00; stroke: #ff8c00"/>
     <use xlink:href="#m59a6c0d65d" x="169.220988" y="126.439754" style="fill: #ff8c00; stroke: #ff8c00"/>
     <use xlink:href="#m59a6c0d65d" x="244.192393" y="132.14609" style="fill: #ff8c00; stroke: #ff8c00"/>
     <use xlink:href="#m59a6c0d65d" x="255.420218" y="113.099374" style="fill: #ff8c00; stroke: #ff8c00"/>
     <use xlink:href="#m59a6c0d65d" x="181.931249" y="261.216" style="fill: #ff8c00; stroke: #ff8c00"/>
     <use xlink:href="#m59a6c0d65d" x="166.371686" y="180.937658" style="fill: #ff8c00; stroke: #ff8c00"/>
     <use xlink:href="#m59a6c0d65d" x="108.805922" y="126.913436" style="fill: #ff8c00; stroke: #ff8c00"/>
     <use xlink:href="#m59a6c0d65d" x="106.735717" y="176.018202" style="fill: #ff8c00; stroke: #ff8c00"/>
     <use xlink:href="#m59a6c0d65d" x="142.354708" y="156.236342" style="fill: #ff8c00; stroke: #ff8c00"/>
     <use xlink:href="#m59a6c0d65d" x="124.261144" y="144.836875" style="fill: #ff8c00; stroke: #ff8c00"/>
     <use xlink:href="#m59a6c0d65d" x="175.163418" y="143.100058" style="fill: #ff8c00; stroke: #ff8c00"/>
     <use xlink:href="#m59a6c0d65d" x="121.639692" y="197.627716" style="fill: #ff8c00; stroke: #ff8c00"/>
     <use xlink:href="#m59a6c0d65d" x="173.813783" y="186.616825" style="fill: #ff8c00; stroke: #ff8c00"/>
     <use xlink:href="#m59a6c0d65d" x="244.884476" y="178.557994" style="fill: #ff8c00; stroke: #ff8c00"/>
     <use xlink:href="#m59a6c0d65d" x="249.706606" y="192.819962" style="fill: #ff8c00; stroke: #ff8c00"/>
     <use xlink:href="#m59a6c0d65d" x="162.5861" y="105.142687" style="fill: #ff8c00; stroke: #ff8c00"/>
     <use xlink:href="#m59a6c0d65d" x="293.057742" y="88.912256" style="fill: #ff8c00; stroke: #ff8c00"/>
     <use xlink:href="#m59a6c0d65d" x="155.038445" y="152.08551" style="fill: #ff8c00; stroke: #ff8c00"/>
     <use xlink:href="#m59a6c0d65d" x="118.266695" y="146.130132" style="fill: #ff8c00; stroke: #ff8c00"/>
     <use xlink:href="#m59a6c0d65d" x="169.696808" y="178.362957" style="fill: #ff8c00; stroke: #ff8c00"/>
     <use xlink:href="#m59a6c0d65d" x="172.964801" y="190.707067" style="fill: #ff8c00; stroke: #ff8c00"/>
     <use xlink:href="#m59a6c0d65d" x="195.104288" y="120.699405" style="fill: #ff8c00; stroke: #ff8c00"/>
     <use xlink:href="#m59a6c0d65d" x="114.290493" y="186.687439" style="fill: #ff8c00; stroke: #ff8c00"/>
     <use xlink:href="#m59a6c0d65d" x="131.038736" y="141.651253" style="fill: #ff8c00; stroke: #ff8c00"/>
     <use xlink:href="#m59a6c0d65d" x="165.74744" y="108.464837" style="fill: #ff8c00; stroke: #ff8c00"/>
     <use xlink:href="#m59a6c0d65d" x="144.647208" y="191.49054" style="fill: #ff8c00; stroke: #ff8c00"/>
     <use xlink:href="#m59a6c0d65d" x="120.569859" y="109.326136" style="fill: #ff8c00; stroke: #ff8c00"/>
     <use xlink:href="#m59a6c0d65d" x="296.288123" y="182.580972" style="fill: #ff8c00; stroke: #ff8c00"/>
     <use xlink:href="#m59a6c0d65d" x="226.337163" y="113.352195" style="fill: #ff8c00; stroke: #ff8c00"/>
     <use xlink:href="#m59a6c0d65d" x="292.907522" y="184.021852" style="fill: #ff8c00; stroke: #ff8c00"/>
     <use xlink:href="#m59a6c0d65d" x="133.47497" y="170.735656" style="fill: #ff8c00; stroke: #ff8c00"/>
     <use xlink:href="#m59a6c0d65d" x="245.685869" y="165.601213" style="fill: #ff8c00; stroke: #ff8c00"/>
     <use xlink:href="#m59a6c0d65d" x="87.952173" y="95.461149" style="fill: #ff8c00; stroke: #ff8c00"/>
     <use xlink:href="#m59a6c0d65d" x="152.880993" y="134.362985" style="fill: #ff8c00; stroke: #ff8c00"/>
     <use xlink:href="#m59a6c0d65d" x="62.907812" y="121.113627" style="fill: #ff8c00; stroke: #ff8c00"/>
     <use xlink:href="#m59a6c0d65d" x="237.311109" y="136.184153" style="fill: #ff8c00; stroke: #ff8c00"/>
     <use xlink:href="#m59a6c0d65d" x="214.901733" y="134.186145" style="fill: #ff8c00; stroke: #ff8c00"/>
     <use xlink:href="#m59a6c0d65d" x="282.876542" y="129.303374" style="fill: #ff8c00; stroke: #ff8c00"/>
     <use xlink:href="#m59a6c0d65d" x="199.852785" y="183.535151" style="fill: #ff8c00; stroke: #ff8c00"/>
     <use xlink:href="#m59a6c0d65d" x="193.666873" y="122.255364" style="fill: #ff8c00; stroke: #ff8c00"/>
     <use xlink:href="#m59a6c0d65d" x="235.005174" y="95.846173" style="fill: #ff8c00; stroke: #ff8c00"/>
     <use xlink:href="#m59a6c0d65d" x="111.998158" y="206.651915" style="fill: #ff8c00; stroke: #ff8c00"/>
     <use xlink:href="#m59a6c0d65d" x="112.858868" y="144.447813" style="fill: #ff8c00; stroke: #ff8c00"/>
     <use xlink:href="#m59a6c0d65d" x="183.419096" y="178.607562" style="fill: #ff8c00; stroke: #ff8c00"/>
     <use xlink:href="#m59a6c0d65d" x="144.217533" y="140.797088" style="fill: #ff8c00; stroke: #ff8c00"/>
     <use xlink:href="#m59a6c0d65d" x="141.680137" y="186.499523" style="fill: #ff8c00; stroke: #ff8c00"/>
     <use xlink:href="#m59a6c0d65d" x="125.649974" y="192.582276" style="fill: #ff8c00; stroke: #ff8c00"/>
     <use xlink:href="#m59a6c0d65d" x="266.723647" y="145.25078" style="fill: #ff8c00; stroke: #ff8c00"/>
     <use xlink:href="#m59a6c0d65d" x="138.433648" y="163.454589" style="fill: #ff8c00; stroke: #ff8c00"/>
     <use xlink:href="#m59a6c0d65d" x="285.17159" y="172.55795" style="fill: #ff8c00; stroke: #ff8c00"/>
     <use xlink:href="#m59a6c0d65d" x="68.679509" y="157.824933" style="fill: #ff8c00; stroke: #ff8c00"/>
     <use xlink:href="#m59a6c0d65d" x="224.881419" y="82.54412" style="fill: #ff8c00; stroke: #ff8c00"/>
     <use xlink:href="#m59a6c0d65d" x="237.496649" y="88.824052" style="fill: #ff8c00; stroke: #ff8c00"/>
     <use xlink:href="#m59a6c0d65d" x="68.422676" y="193.346547" style="fill: #ff8c00; stroke: #ff8c00"/>
    </g>
   </g>
   <g id="matplotlib.axis_1">
    <g id="xtick_1">
     <g id="line2d_1">
      <defs>
       <path id="m32530be28d" d="M 0 0 
L 0 3.5 
" style="stroke: #000000; stroke-width: 0.8"/>
      </defs>
      <g>
       <use xlink:href="#m32530be28d" x="110.641375" y="273.312" style="stroke: #000000; stroke-width: 0.8"/>
      </g>
     </g>
     <g id="text_1">
      <!-- −10 -->
      <g transform="translate(100.089032 287.910437) scale(0.1 -0.1)">
       <defs>
        <path id="DejaVuSans-2212" d="M 678 2272 
L 4684 2272 
L 4684 1741 
L 678 1741 
L 678 2272 
z
" transform="scale(0.015625)"/>
        <path id="DejaVuSans-31" d="M 794 531 
L 1825 531 
L 1825 4091 
L 703 3866 
L 703 4441 
L 1819 4666 
L 2450 4666 
L 2450 531 
L 3481 531 
L 3481 0 
L 794 0 
L 794 531 
z
" transform="scale(0.015625)"/>
        <path id="DejaVuSans-30" d="M 2034 4250 
Q 1547 4250 1301 3770 
Q 1056 3291 1056 2328 
Q 1056 1369 1301 889 
Q 1547 409 2034 409 
Q 2525 409 2770 889 
Q 3016 1369 3016 2328 
Q 3016 3291 2770 3770 
Q 2525 4250 2034 4250 
z
M 2034 4750 
Q 2819 4750 3233 4129 
Q 3647 3509 3647 2328 
Q 3647 1150 3233 529 
Q 2819 -91 2034 -91 
Q 1250 -91 836 529 
Q 422 1150 422 2328 
Q 422 3509 836 4129 
Q 1250 4750 2034 4750 
z
" transform="scale(0.015625)"/>
       </defs>
       <use xlink:href="#DejaVuSans-2212"/>
       <use xlink:href="#DejaVuSans-31" x="83.789062"/>
       <use xlink:href="#DejaVuSans-30" x="147.412109"/>
      </g>
     </g>
    </g>
    <g id="xtick_2">
     <g id="line2d_2">
      <g>
       <use xlink:href="#m32530be28d" x="187.310612" y="273.312" style="stroke: #000000; stroke-width: 0.8"/>
      </g>
     </g>
     <g id="text_2">
      <!-- 0 -->
      <g transform="translate(184.129362 287.910437) scale(0.1 -0.1)">
       <use xlink:href="#DejaVuSans-30"/>
      </g>
     </g>
    </g>
    <g id="xtick_3">
     <g id="line2d_3">
      <g>
       <use xlink:href="#m32530be28d" x="263.979848" y="273.312" style="stroke: #000000; stroke-width: 0.8"/>
      </g>
     </g>
     <g id="text_3">
      <!-- 10 -->
      <g transform="translate(257.617348 287.910437) scale(0.1 -0.1)">
       <use xlink:href="#DejaVuSans-31"/>
       <use xlink:href="#DejaVuSans-30" x="63.623047"/>
      </g>
     </g>
    </g>
    <g id="xtick_4">
     <g id="line2d_4">
      <g>
       <use xlink:href="#m32530be28d" x="340.649084" y="273.312" style="stroke: #000000; stroke-width: 0.8"/>
      </g>
     </g>
     <g id="text_4">
      <!-- 20 -->
      <g transform="translate(334.286584 287.910437) scale(0.1 -0.1)">
       <defs>
        <path id="DejaVuSans-32" d="M 1228 531 
L 3431 531 
L 3431 0 
L 469 0 
L 469 531 
Q 828 903 1448 1529 
Q 2069 2156 2228 2338 
Q 2531 2678 2651 2914 
Q 2772 3150 2772 3378 
Q 2772 3750 2511 3984 
Q 2250 4219 1831 4219 
Q 1534 4219 1204 4116 
Q 875 4013 500 3803 
L 500 4441 
Q 881 4594 1212 4672 
Q 1544 4750 1819 4750 
Q 2544 4750 2975 4387 
Q 3406 4025 3406 3419 
Q 3406 3131 3298 2873 
Q 3191 2616 2906 2266 
Q 2828 2175 2409 1742 
Q 1991 1309 1228 531 
z
" transform="scale(0.015625)"/>
       </defs>
       <use xlink:href="#DejaVuSans-32"/>
       <use xlink:href="#DejaVuSans-30" x="63.623047"/>
      </g>
     </g>
    </g>
   </g>
   <g id="matplotlib.axis_2">
    <g id="ytick_1">
     <g id="line2d_5">
      <defs>
       <path id="m03f493c40e" d="M 0 0 
L -3.5 0 
" style="stroke: #000000; stroke-width: 0.8"/>
      </defs>
      <g>
       <use xlink:href="#m03f493c40e" x="35.304688" y="262.866424" style="stroke: #000000; stroke-width: 0.8"/>
      </g>
     </g>
     <g id="text_5">
      <!-- −15 -->
      <g transform="translate(7.2 266.665643) scale(0.1 -0.1)">
       <defs>
        <path id="DejaVuSans-35" d="M 691 4666 
L 3169 4666 
L 3169 4134 
L 1269 4134 
L 1269 2991 
Q 1406 3038 1543 3061 
Q 1681 3084 1819 3084 
Q 2600 3084 3056 2656 
Q 3513 2228 3513 1497 
Q 3513 744 3044 326 
Q 2575 -91 1722 -91 
Q 1428 -91 1123 -41 
Q 819 9 494 109 
L 494 744 
Q 775 591 1075 516 
Q 1375 441 1709 441 
Q 2250 441 2565 725 
Q 2881 1009 2881 1497 
Q 2881 1984 2565 2268 
Q 2250 2553 1709 2553 
Q 1456 2553 1204 2497 
Q 953 2441 691 2322 
L 691 4666 
z
" transform="scale(0.015625)"/>
       </defs>
       <use xlink:href="#DejaVuSans-2212"/>
       <use xlink:href="#DejaVuSans-31" x="83.789062"/>
       <use xlink:href="#DejaVuSans-35" x="147.412109"/>
      </g>
     </g>
    </g>
    <g id="ytick_2">
     <g id="line2d_6">
      <g>
       <use xlink:href="#m03f493c40e" x="35.304688" y="227.964845" style="stroke: #000000; stroke-width: 0.8"/>
      </g>
     </g>
     <g id="text_6">
      <!-- −10 -->
      <g transform="translate(7.2 231.764064) scale(0.1 -0.1)">
       <use xlink:href="#DejaVuSans-2212"/>
       <use xlink:href="#DejaVuSans-31" x="83.789062"/>
       <use xlink:href="#DejaVuSans-30" x="147.412109"/>
      </g>
     </g>
    </g>
    <g id="ytick_3">
     <g id="line2d_7">
      <g>
       <use xlink:href="#m03f493c40e" x="35.304688" y="193.063267" style="stroke: #000000; stroke-width: 0.8"/>
      </g>
     </g>
     <g id="text_7">
      <!-- −5 -->
      <g transform="translate(13.5625 196.862486) scale(0.1 -0.1)">
       <use xlink:href="#DejaVuSans-2212"/>
       <use xlink:href="#DejaVuSans-35" x="83.789062"/>
      </g>
     </g>
    </g>
    <g id="ytick_4">
     <g id="line2d_8">
      <g>
       <use xlink:href="#m03f493c40e" x="35.304688" y="158.161688" style="stroke: #000000; stroke-width: 0.8"/>
      </g>
     </g>
     <g id="text_8">
      <!-- 0 -->
      <g transform="translate(21.942187 161.960907) scale(0.1 -0.1)">
       <use xlink:href="#DejaVuSans-30"/>
      </g>
     </g>
    </g>
    <g id="ytick_5">
     <g id="line2d_9">
      <g>
       <use xlink:href="#m03f493c40e" x="35.304688" y="123.26011" style="stroke: #000000; stroke-width: 0.8"/>
      </g>
     </g>
     <g id="text_9">
      <!-- 5 -->
      <g transform="translate(21.942187 127.059329) scale(0.1 -0.1)">
       <use xlink:href="#DejaVuSans-35"/>
      </g>
     </g>
    </g>
    <g id="ytick_6">
     <g id="line2d_10">
      <g>
       <use xlink:href="#m03f493c40e" x="35.304688" y="88.358532" style="stroke: #000000; stroke-width: 0.8"/>
      </g>
     </g>
     <g id="text_10">
      <!-- 10 -->
      <g transform="translate(15.579687 92.15775) scale(0.1 -0.1)">
       <use xlink:href="#DejaVuSans-31"/>
       <use xlink:href="#DejaVuSans-30" x="63.623047"/>
      </g>
     </g>
    </g>
    <g id="ytick_7">
     <g id="line2d_11">
      <g>
       <use xlink:href="#m03f493c40e" x="35.304688" y="53.456953" style="stroke: #000000; stroke-width: 0.8"/>
      </g>
     </g>
     <g id="text_11">
      <!-- 15 -->
      <g transform="translate(15.579687 57.256172) scale(0.1 -0.1)">
       <use xlink:href="#DejaVuSans-31"/>
       <use xlink:href="#DejaVuSans-35" x="63.623047"/>
      </g>
     </g>
    </g>
    <g id="ytick_8">
     <g id="line2d_12">
      <g>
       <use xlink:href="#m03f493c40e" x="35.304688" y="18.555375" style="stroke: #000000; stroke-width: 0.8"/>
      </g>
     </g>
     <g id="text_12">
      <!-- 20 -->
      <g transform="translate(15.579687 22.354593) scale(0.1 -0.1)">
       <use xlink:href="#DejaVuSans-32"/>
       <use xlink:href="#DejaVuSans-30" x="63.623047"/>
      </g>
     </g>
    </g>
   </g>
   <g id="patch_3">
    <path d="M 35.304688 273.312 
L 35.304688 7.2 
" style="fill: none; stroke: #000000; stroke-width: 0.8; stroke-linejoin: miter; stroke-linecap: square"/>
   </g>
   <g id="patch_4">
    <path d="M 392.424688 273.312 
L 392.424688 7.2 
" style="fill: none; stroke: #000000; stroke-width: 0.8; stroke-linejoin: miter; stroke-linecap: square"/>
   </g>
   <g id="patch_5">
    <path d="M 35.304688 273.312 
L 392.424688 273.312 
" style="fill: none; stroke: #000000; stroke-width: 0.8; stroke-linejoin: miter; stroke-linecap: square"/>
   </g>
   <g id="patch_6">
    <path d="M 35.304688 7.2 
L 392.424688 7.2 
" style="fill: none; stroke: #000000; stroke-width: 0.8; stroke-linejoin: miter; stroke-linecap: square"/>
   </g>
  </g>
 </g>
 <defs>
  <clipPath id="p4bc309d7f2">
   <rect x="35.304688" y="7.2" width="357.12" height="266.112"/>
  </clipPath>
 </defs>
</svg>
