<?xml version="1.0" encoding="utf-8" standalone="no"?>
<!DOCTYPE svg PUBLIC "-//W3C//DTD SVG 1.1//EN"
  "http://www.w3.org/Graphics/SVG/1.1/DTD/svg11.dtd">
<svg xmlns:xlink="http://www.w3.org/1999/xlink" width="399.624687pt" height="297.190125pt" viewBox="0 0 399.624687 297.190125" xmlns="http://www.w3.org/2000/svg" version="1.1">
 <metadata>
  <rdf:RDF xmlns:dc="http://purl.org/dc/elements/1.1/" xmlns:cc="http://creativecommons.org/ns#" xmlns:rdf="http://www.w3.org/1999/02/22-rdf-syntax-ns#">
   <cc:Work>
    <dc:type rdf:resource="http://purl.org/dc/dcmitype/StillImage"/>
    <dc:date>2023-11-11T11:41:27.573808</dc:date>
    <dc:format>image/svg+xml</dc:format>
    <dc:creator>
     <cc:Agent>
      <dc:title>Matplotlib v3.8.0, https://matplotlib.org/</dc:title>
     </cc:Agent>
    </dc:creator>
   </cc:Work>
  </rdf:RDF>
 </metadata>
 <defs>
  <style type="text/css">*{stroke-linejoin: round; stroke-linecap: butt}</style>
 </defs>
 <g id="figure_1">
  <g id="patch_1">
   <path d="M 0 297.190125 
L 399.624687 297.190125 
L 399.624687 0 
L 0 0 
z
" style="fill: #ffffff"/>
  </g>
  <g id="axes_1">
   <g id="patch_2">
    <path d="M 35.304688 273.312 
L 392.424688 273.312 
L 392.424688 7.2 
L 35.304688 7.2 
z
" style="fill: #ffffff"/>
   </g>
   <g id="PathCollection_1">
    <defs>
     <path id="m5511bfe611" d="M 0 1.5 
C 0.397805 1.5 0.77937 1.341951 1.06066 1.06066 
C 1.341951 0.77937 1.5 0.397805 1.5 0 
C 1.5 -0.397805 1.341951 -0.77937 1.06066 -1.06066 
C 0.77937 -1.341951 0.397805 -1.5 0 -1.5 
C -0.397805 -1.5 -0.77937 -1.341951 -1.06066 -1.06066 
C -1.341951 -0.77937 -1.5 -0.397805 -1.5 0 
C -1.5 0.397805 -1.341951 0.77937 -1.06066 1.06066 
C -0.77937 1.341951 -0.397805 1.5 0 1.5 
z
" style="stroke: #ff8c00"/>
    </defs>
    <g clip-path="url(#p74c8f00bef)">
     <use xlink:href="#m5511bfe611" x="272.858878" y="133.424582" style="fill: #ff8c00; stroke: #ff8c00"/>
     <use xlink:href="#m5511bfe611" x="143.761713" y="130.39112" style="fill: #ff8c00; stroke: #ff8c00"/>
     <use xlink:href="#m5511bfe611" x="338.132077" y="181.965039" style="fill: #ff8c00; stroke: #ff8c00"/>
     <use xlink:href="#m5511bfe611" x="171.792711" y="163.731364" style="fill: #ff8c00; stroke: #ff8c00"/>
     <use xlink:href="#m5511bfe611" x="193.322776" y="173.99757" style="fill: #ff8c00; stroke: #ff8c00"/>
     <use xlink:href="#m5511bfe611" x="280.097937" y="197.652875" style="fill: #ff8c00; stroke: #ff8c00"/>
     <use xlink:href="#m5511bfe611" x="203.623709" y="128.190733" style="fill: #ff8c00; stroke: #ff8c00"/>
     <use xlink:href="#m5511bfe611" x="262.380483" y="239.03706" style="fill: #ff8c00; stroke: #ff8c00"/>
     <use xlink:href="#m5511bfe611" x="184.373266" y="187.633718" style="fill: #ff8c00; stroke: #ff8c00"/>
     <use xlink:href="#m5511bfe611" x="219.219938" y="231.177581" style="fill: #ff8c00; stroke: #ff8c00"/>
     <use xlink:href="#m5511bfe611" x="172.050839" y="121.285743" style="fill: #ff8c00; stroke: #ff8c00"/>
     <use xlink:href="#m5511bfe611" x="142.242114" y="107.448662" style="fill: #ff8c00; stroke: #ff8c00"/>
     <use xlink:href="#m5511bfe611" x="167.669615" y="166.385371" style="fill: #ff8c00; stroke: #ff8c00"/>
     <use xlink:href="#m5511bfe611" x="246.240054" y="132.57022" style="fill: #ff8c00; stroke: #ff8c00"/>
     <use xlink:href="#m5511bfe611" x="227.990627" y="182.265155" style="fill: #ff8c00; stroke: #ff8c00"/>
    </g>
   </g>
   <g id="PathCollection_2">
    <defs>
     <path id="m8f43aa7491" d="M 0 1.5 
C 0.397805 1.5 0.77937 1.341951 1.06066 1.06066 
C 1.341951 0.77937 1.5 0.397805 1.5 0 
C 1.5 -0.397805 1.341951 -0.77937 1.06066 -1.06066 
C 0.77937 -1.341951 0.397805 -1.5 0 -1.5 
C -0.397805 -1.5 -0.77937 -1.341951 -1.06066 -1.06066 
C -1.341951 -0.77937 -1.5 -0.397805 -1.5 0 
C -1.5 0.397805 -1.341951 0.77937 -1.06066 1.06066 
C -0.77937 1.341951 -0.397805 1.5 0 1.5 
z
" style="stroke: #006400"/>
    </defs>
    <g clip-path="url(#p74c8f00bef)">
     <use xlink:href="#m8f43aa7491" x="92.562807" y="186.628912" style="fill: #006400; stroke: #006400"/>
     <use xlink:href="#m8f43aa7491" x="163.279278" y="185.069613" style="fill: #006400; stroke: #006400"/>
     <use xlink:href="#m8f43aa7491" x="135.541146" y="144.407281" style="fill: #006400; stroke: #006400"/>
     <use xlink:href="#m8f43aa7491" x="115.203317" y="192.057634" style="fill: #006400; stroke: #006400"/>
     <use xlink:href="#m8f43aa7491" x="188.185235" y="162.898914" style="fill: #006400; stroke: #006400"/>
     <use xlink:href="#m8f43aa7491" x="148.748693" y="113.32425" style="fill: #006400; stroke: #006400"/>
     <use xlink:href="#m8f43aa7491" x="218.79662" y="132.070546" style="fill: #006400; stroke: #006400"/>
     <use xlink:href="#m8f43aa7491" x="145.003451" y="169.369878" style="fill: #006400; stroke: #006400"/>
     <use xlink:href="#m8f43aa7491" x="170.029262" y="182.448474" style="fill: #006400; stroke: #006400"/>
     <use xlink:href="#m8f43aa7491" x="157.866935" y="162.10429" style="fill: #006400; stroke: #006400"/>
     <use xlink:href="#m8f43aa7491" x="203.723892" y="147.045452" style="fill: #006400; stroke: #006400"/>
     <use xlink:href="#m8f43aa7491" x="114.347501" y="180.207591" style="fill: #006400; stroke: #006400"/>
     <use xlink:href="#m8f43aa7491" x="162.314055" y="183.768784" style="fill: #006400; stroke: #006400"/>
     <use xlink:href="#m8f43aa7491" x="143.385882" y="196.959122" style="fill: #006400; stroke: #006400"/>
     <use xlink:href="#m8f43aa7491" x="126.533414" y="180.194442" style="fill: #006400; stroke: #006400"/>
    </g>
   </g>
   <g id="PathCollection_3">
    <defs>
     <path id="m36cafba9cc" d="M 0 1.5 
C 0.397805 1.5 0.77937 1.341951 1.06066 1.06066 
C 1.341951 0.77937 1.5 0.397805 1.5 0 
C 1.5 -0.397805 1.341951 -0.77937 1.06066 -1.06066 
C 0.77937 -1.341951 0.397805 -1.5 0 -1.5 
C -0.397805 -1.5 -0.77937 -1.341951 -1.06066 -1.06066 
C -1.341951 -0.77937 -1.5 -0.397805 -1.5 0 
C -1.5 0.397805 -1.341951 0.77937 -1.06066 1.06066 
C -0.77937 1.341951 -0.397805 1.5 0 1.5 
z
" style="stroke: #2f4f4f"/>
    </defs>
    <g clip-path="url(#p74c8f00bef)">
     <use xlink:href="#m36cafba9cc" x="108.264987" y="170.941797" style="fill: #2f4f4f; stroke: #2f4f4f"/>
     <use xlink:href="#m36cafba9cc" x="87.21488" y="175.025534" style="fill: #2f4f4f; stroke: #2f4f4f"/>
     <use xlink:href="#m36cafba9cc" x="161.727321" y="156.84954" style="fill: #2f4f4f; stroke: #2f4f4f"/>
     <use xlink:href="#m36cafba9cc" x="71.622501" y="167.121568" style="fill: #2f4f4f; stroke: #2f4f4f"/>
     <use xlink:href="#m36cafba9cc" x="146.606338" y="197.590623" style="fill: #2f4f4f; stroke: #2f4f4f"/>
     <use xlink:href="#m36cafba9cc" x="217.201685" y="127.501275" style="fill: #2f4f4f; stroke: #2f4f4f"/>
     <use xlink:href="#m36cafba9cc" x="146.188046" y="211.212564" style="fill: #2f4f4f; stroke: #2f4f4f"/>
     <use xlink:href="#m36cafba9cc" x="133.955636" y="168.867522" style="fill: #2f4f4f; stroke: #2f4f4f"/>
     <use xlink:href="#m36cafba9cc" x="107.038072" y="192.508483" style="fill: #2f4f4f; stroke: #2f4f4f"/>
     <use xlink:href="#m36cafba9cc" x="98.762773" y="153.317788" style="fill: #2f4f4f; stroke: #2f4f4f"/>
     <use xlink:href="#m36cafba9cc" x="130.370795" y="162.375396" style="fill: #2f4f4f; stroke: #2f4f4f"/>
    </g>
   </g>
   <g id="PathCollection_4">
    <defs>
     <path id="m3e134dbaf4" d="M 0 1.5 
C 0.397805 1.5 0.77937 1.341951 1.06066 1.06066 
C 1.341951 0.77937 1.5 0.397805 1.5 0 
C 1.5 -0.397805 1.341951 -0.77937 1.06066 -1.06066 
C 0.77937 -1.341951 0.397805 -1.5 0 -1.5 
C -0.397805 -1.5 -0.77937 -1.341951 -1.06066 -1.06066 
C -1.341951 -0.77937 -1.5 -0.397805 -1.5 0 
C -1.5 0.397805 -1.341951 0.77937 -1.06066 1.06066 
C -0.77937 1.341951 -0.397805 1.5 0 1.5 
z
" style="stroke: #00bfff"/>
    </defs>
    <g clip-path="url(#p74c8f00bef)">
     <use xlink:href="#m3e134dbaf4" x="110.048392" y="160.668373" style="fill: #00bfff; stroke: #00bfff"/>
     <use xlink:href="#m3e134dbaf4" x="154.019051" y="149.588743" style="fill: #00bfff; stroke: #00bfff"/>
     <use xlink:href="#m3e134dbaf4" x="114.905643" y="111.362183" style="fill: #00bfff; stroke: #00bfff"/>
     <use xlink:href="#m3e134dbaf4" x="97.452598" y="134.887452" style="fill: #00bfff; stroke: #00bfff"/>
     <use xlink:href="#m3e134dbaf4" x="109.085286" y="132.248036" style="fill: #00bfff; stroke: #00bfff"/>
     <use xlink:href="#m3e134dbaf4" x="192.449968" y="214.147622" style="fill: #00bfff; stroke: #00bfff"/>
     <use xlink:href="#m3e134dbaf4" x="55.653793" y="156.689141" style="fill: #00bfff; stroke: #00bfff"/>
     <use xlink:href="#m3e134dbaf4" x="152.587101" y="248.081369" style="fill: #00bfff; stroke: #00bfff"/>
     <use xlink:href="#m3e134dbaf4" x="107.823593" y="167.457512" style="fill: #00bfff; stroke: #00bfff"/>
     <use xlink:href="#m3e134dbaf4" x="108.402372" y="141.818987" style="fill: #00bfff; stroke: #00bfff"/>
     <use xlink:href="#m3e134dbaf4" x="88.35386" y="176.140713" style="fill: #00bfff; stroke: #00bfff"/>
     <use xlink:href="#m3e134dbaf4" x="97.452598" y="134.887452" style="fill: #00bfff; stroke: #00bfff"/>
     <use xlink:href="#m3e134dbaf4" x="164.594727" y="178.65516" style="fill: #00bfff; stroke: #00bfff"/>
    </g>
   </g>
   <g id="PathCollection_5">
    <defs>
     <path id="mf441cc7aec" d="M 0 1.5 
C 0.397805 1.5 0.77937 1.341951 1.06066 1.06066 
C 1.341951 0.77937 1.5 0.397805 1.5 0 
C 1.5 -0.397805 1.341951 -0.77937 1.06066 -1.06066 
C 0.77937 -1.341951 0.397805 -1.5 0 -1.5 
C -0.397805 -1.5 -0.77937 -1.341951 -1.06066 -1.06066 
C -1.341951 -0.77937 -1.5 -0.397805 -1.5 0 
C -1.5 0.397805 -1.341951 0.77937 -1.06066 1.06066 
C -0.77937 1.341951 -0.397805 1.5 0 1.5 
z
" style="stroke: #ffff00"/>
    </defs>
    <g clip-path="url(#p74c8f00bef)">
     <use xlink:href="#mf441cc7aec" x="77.078934" y="250.733411" style="fill: #ffff00; stroke: #ffff00"/>
     <use xlink:href="#mf441cc7aec" x="114.946822" y="118.074474" style="fill: #ffff00; stroke: #ffff00"/>
     <use xlink:href="#mf441cc7aec" x="115.126249" y="162.925093" style="fill: #ffff00; stroke: #ffff00"/>
     <use xlink:href="#mf441cc7aec" x="187.012024" y="258.830245" style="fill: #ffff00; stroke: #ffff00"/>
     <use xlink:href="#mf441cc7aec" x="83.560116" y="145.447964" style="fill: #ffff00; stroke: #ffff00"/>
     <use xlink:href="#mf441cc7aec" x="118.073582" y="142.002594" style="fill: #ffff00; stroke: #ffff00"/>
     <use xlink:href="#mf441cc7aec" x="151.86698" y="170.925388" style="fill: #ffff00; stroke: #ffff00"/>
     <use xlink:href="#mf441cc7aec" x="60.42756" y="174.656099" style="fill: #ffff00; stroke: #ffff00"/>
     <use xlink:href="#mf441cc7aec" x="220.948683" y="122.821165" style="fill: #ffff00; stroke: #ffff00"/>
     <use xlink:href="#mf441cc7aec" x="167.618209" y="113.683658" style="fill: #ffff00; stroke: #ffff00"/>
     <use xlink:href="#mf441cc7aec" x="133.467392" y="125.741786" style="fill: #ffff00; stroke: #ffff00"/>
    </g>
   </g>
   <g id="PathCollection_6">
    <defs>
     <path id="mf5f6c3e92f" d="M 0 1.5 
C 0.397805 1.5 0.77937 1.341951 1.06066 1.06066 
C 1.341951 0.77937 1.5 0.397805 1.5 0 
C 1.5 -0.397805 1.341951 -0.77937 1.06066 -1.06066 
C 0.77937 -1.341951 0.397805 -1.5 0 -1.5 
C -0.397805 -1.5 -0.77937 -1.341951 -1.06066 -1.06066 
C -1.341951 -0.77937 -1.5 -0.397805 -1.5 0 
C -1.5 0.397805 -1.341951 0.77937 -1.06066 1.06066 
C -0.77937 1.341951 -0.397805 1.5 0 1.5 
z
" style="stroke: #00ffff"/>
    </defs>
    <g clip-path="url(#p74c8f00bef)">
     <use xlink:href="#mf5f6c3e92f" x="60.32874" y="181.505282" style="fill: #00ffff; stroke: #00ffff"/>
     <use xlink:href="#mf5f6c3e92f" x="121.125011" y="141.519745" style="fill: #00ffff; stroke: #00ffff"/>
     <use xlink:href="#mf5f6c3e92f" x="226.580484" y="209.194518" style="fill: #00ffff; stroke: #00ffff"/>
     <use xlink:href="#mf5f6c3e92f" x="91.833747" y="154.506737" style="fill: #00ffff; stroke: #00ffff"/>
     <use xlink:href="#mf5f6c3e92f" x="222.504159" y="122.549735" style="fill: #00ffff; stroke: #00ffff"/>
     <use xlink:href="#mf5f6c3e92f" x="152.222413" y="132.880196" style="fill: #00ffff; stroke: #00ffff"/>
     <use xlink:href="#mf5f6c3e92f" x="84.33666" y="145.570477" style="fill: #00ffff; stroke: #00ffff"/>
     <use xlink:href="#mf5f6c3e92f" x="82.883156" y="181.703213" style="fill: #00ffff; stroke: #00ffff"/>
     <use xlink:href="#mf5f6c3e92f" x="52.808262" y="182.373923" style="fill: #00ffff; stroke: #00ffff"/>
     <use xlink:href="#mf5f6c3e92f" x="53.886638" y="187.962911" style="fill: #00ffff; stroke: #00ffff"/>
     <use xlink:href="#mf5f6c3e92f" x="228.444158" y="150.94754" style="fill: #00ffff; stroke: #00ffff"/>
     <use xlink:href="#mf5f6c3e92f" x="95.234195" y="142.063053" style="fill: #00ffff; stroke: #00ffff"/>
     <use xlink:href="#mf5f6c3e92f" x="110.960877" y="149.801689" style="fill: #00ffff; stroke: #00ffff"/>
     <use xlink:href="#mf5f6c3e92f" x="153.689309" y="33.879839" style="fill: #00ffff; stroke: #00ffff"/>
     <use xlink:href="#mf5f6c3e92f" x="106.897711" y="151.055893" style="fill: #00ffff; stroke: #00ffff"/>
     <use xlink:href="#mf5f6c3e92f" x="137.262517" y="143.651719" style="fill: #00ffff; stroke: #00ffff"/>
    </g>
   </g>
   <g id="PathCollection_7">
    <defs>
     <path id="m4c4bd51b3f" d="M 0 1.5 
C 0.397805 1.5 0.77937 1.341951 1.06066 1.06066 
C 1.341951 0.77937 1.5 0.397805 1.5 0 
C 1.5 -0.397805 1.341951 -0.77937 1.06066 -1.06066 
C 0.77937 -1.341951 0.397805 -1.5 0 -1.5 
C -0.397805 -1.5 -0.77937 -1.341951 -1.06066 -1.06066 
C -1.341951 -0.77937 -1.5 -0.397805 -1.5 0 
C -1.5 0.397805 -1.341951 0.77937 -1.06066 1.06066 
C -0.77937 1.341951 -0.397805 1.5 0 1.5 
z
" style="stroke: #0000ff"/>
    </defs>
    <g clip-path="url(#p74c8f00bef)">
     <use xlink:href="#m4c4bd51b3f" x="216.189935" y="155.236601" style="fill: #0000ff; stroke: #0000ff"/>
     <use xlink:href="#m4c4bd51b3f" x="108.835564" y="186.064499" style="fill: #0000ff; stroke: #0000ff"/>
     <use xlink:href="#m4c4bd51b3f" x="179.678726" y="139.50104" style="fill: #0000ff; stroke: #0000ff"/>
     <use xlink:href="#m4c4bd51b3f" x="152.183226" y="140.804733" style="fill: #0000ff; stroke: #0000ff"/>
     <use xlink:href="#m4c4bd51b3f" x="125.439487" y="212.445984" style="fill: #0000ff; stroke: #0000ff"/>
     <use xlink:href="#m4c4bd51b3f" x="168.344742" y="226.372237" style="fill: #0000ff; stroke: #0000ff"/>
     <use xlink:href="#m4c4bd51b3f" x="167.167606" y="113.019373" style="fill: #0000ff; stroke: #0000ff"/>
     <use xlink:href="#m4c4bd51b3f" x="195.312037" y="214.014418" style="fill: #0000ff; stroke: #0000ff"/>
     <use xlink:href="#m4c4bd51b3f" x="147.025977" y="261.216" style="fill: #0000ff; stroke: #0000ff"/>
     <use xlink:href="#m4c4bd51b3f" x="134.198113" y="221.332143" style="fill: #0000ff; stroke: #0000ff"/>
     <use xlink:href="#m4c4bd51b3f" x="140.455734" y="175.086785" style="fill: #0000ff; stroke: #0000ff"/>
     <use xlink:href="#m4c4bd51b3f" x="206.764238" y="186.144967" style="fill: #0000ff; stroke: #0000ff"/>
     <use xlink:href="#m4c4bd51b3f" x="71.036443" y="215.429328" style="fill: #0000ff; stroke: #0000ff"/>
    </g>
   </g>
   <g id="PathCollection_8">
    <defs>
     <path id="mab17df5557" d="M 0 1.5 
C 0.397805 1.5 0.77937 1.341951 1.06066 1.06066 
C 1.341951 0.77937 1.5 0.397805 1.5 0 
C 1.5 -0.397805 1.341951 -0.77937 1.06066 -1.06066 
C 0.77937 -1.341951 0.397805 -1.5 0 -1.5 
C -0.397805 -1.5 -0.77937 -1.341951 -1.06066 -1.06066 
C -1.341951 -0.77937 -1.5 -0.397805 -1.5 0 
C -1.5 0.397805 -1.341951 0.77937 -1.06066 1.06066 
C -0.77937 1.341951 -0.397805 1.5 0 1.5 
z
" style="stroke: #dc143c"/>
    </defs>
    <g clip-path="url(#p74c8f00bef)">
     <use xlink:href="#mab17df5557" x="199.884685" y="172.240157" style="fill: #dc143c; stroke: #dc143c"/>
     <use xlink:href="#mab17df5557" x="157.501737" y="134.939285" style="fill: #dc143c; stroke: #dc143c"/>
     <use xlink:href="#mab17df5557" x="174.436" y="163.960064" style="fill: #dc143c; stroke: #dc143c"/>
     <use xlink:href="#mab17df5557" x="162.031576" y="185.018013" style="fill: #dc143c; stroke: #dc143c"/>
     <use xlink:href="#mab17df5557" x="214.765292" y="127.656027" style="fill: #dc143c; stroke: #dc143c"/>
     <use xlink:href="#mab17df5557" x="214.95814" y="82.531843" style="fill: #dc143c; stroke: #dc143c"/>
     <use xlink:href="#mab17df5557" x="168.635048" y="220.104862" style="fill: #dc143c; stroke: #dc143c"/>
     <use xlink:href="#mab17df5557" x="200.269149" y="165.271691" style="fill: #dc143c; stroke: #dc143c"/>
     <use xlink:href="#mab17df5557" x="202.874073" y="139.404171" style="fill: #dc143c; stroke: #dc143c"/>
     <use xlink:href="#mab17df5557" x="152.773199" y="166.866252" style="fill: #dc143c; stroke: #dc143c"/>
     <use xlink:href="#mab17df5557" x="211.30032" y="102.281556" style="fill: #dc143c; stroke: #dc143c"/>
     <use xlink:href="#mab17df5557" x="184.439114" y="75.060144" style="fill: #dc143c; stroke: #dc143c"/>
     <use xlink:href="#mab17df5557" x="147.927593" y="157.563085" style="fill: #dc143c; stroke: #dc143c"/>
     <use xlink:href="#mab17df5557" x="177.66666" y="186.092618" style="fill: #dc143c; stroke: #dc143c"/>
     <use xlink:href="#mab17df5557" x="236.725714" y="107.559231" style="fill: #dc143c; stroke: #dc143c"/>
     <use xlink:href="#mab17df5557" x="212.409529" y="178.967661" style="fill: #dc143c; stroke: #dc143c"/>
     <use xlink:href="#mab17df5557" x="190.632977" y="166.337958" style="fill: #dc143c; stroke: #dc143c"/>
     <use xlink:href="#mab17df5557" x="218.91636" y="168.61038" style="fill: #dc143c; stroke: #dc143c"/>
     <use xlink:href="#mab17df5557" x="209.133756" y="230.596479" style="fill: #dc143c; stroke: #dc143c"/>
     <use xlink:href="#mab17df5557" x="170.983803" y="132.445764" style="fill: #dc143c; stroke: #dc143c"/>
    </g>
   </g>
   <g id="PathCollection_9">
    <defs>
     <path id="m4e042bea59" d="M 0 1.5 
C 0.397805 1.5 0.77937 1.341951 1.06066 1.06066 
C 1.341951 0.77937 1.5 0.397805 1.5 0 
C 1.5 -0.397805 1.341951 -0.77937 1.06066 -1.06066 
C 0.77937 -1.341951 0.397805 -1.5 0 -1.5 
C -0.397805 -1.5 -0.77937 -1.341951 -1.06066 -1.06066 
C -1.341951 -0.77937 -1.5 -0.397805 -1.5 0 
C -1.5 0.397805 -1.341951 0.77937 -1.06066 1.06066 
C -0.77937 1.341951 -0.397805 1.5 0 1.5 
z
" style="stroke: #ffe4c4"/>
    </defs>
    <g clip-path="url(#p74c8f00bef)">
     <use xlink:href="#m4e042bea59" x="151.199185" y="212.729401" style="fill: #ffe4c4; stroke: #ffe4c4"/>
     <use xlink:href="#m4e042bea59" x="180.180811" y="173.600426" style="fill: #ffe4c4; stroke: #ffe4c4"/>
     <use xlink:href="#m4e042bea59" x="214.631747" y="210.829815" style="fill: #ffe4c4; stroke: #ffe4c4"/>
     <use xlink:href="#m4e042bea59" x="199.597233" y="206.344226" style="fill: #ffe4c4; stroke: #ffe4c4"/>
     <use xlink:href="#m4e042bea59" x="204.118553" y="215.090085" style="fill: #ffe4c4; stroke: #ffe4c4"/>
     <use xlink:href="#m4e042bea59" x="250.920985" y="128.326228" style="fill: #ffe4c4; stroke: #ffe4c4"/>
     <use xlink:href="#m4e042bea59" x="173.752049" y="218.51112" style="fill: #ffe4c4; stroke: #ffe4c4"/>
     <use xlink:href="#m4e042bea59" x="220.400564" y="145.922287" style="fill: #ffe4c4; stroke: #ffe4c4"/>
     <use xlink:href="#m4e042bea59" x="169.605345" y="144.051455" style="fill: #ffe4c4; stroke: #ffe4c4"/>
     <use xlink:href="#m4e042bea59" x="141.801087" y="199.779568" style="fill: #ffe4c4; stroke: #ffe4c4"/>
     <use xlink:href="#m4e042bea59" x="183.980005" y="171.713098" style="fill: #ffe4c4; stroke: #ffe4c4"/>
     <use xlink:href="#m4e042bea59" x="213.070116" y="180.781356" style="fill: #ffe4c4; stroke: #ffe4c4"/>
     <use xlink:href="#m4e042bea59" x="164.542926" y="186.062843" style="fill: #ffe4c4; stroke: #ffe4c4"/>
     <use xlink:href="#m4e042bea59" x="101.872202" y="207.790572" style="fill: #ffe4c4; stroke: #ffe4c4"/>
    </g>
   </g>
   <g id="PathCollection_10">
    <defs>
     <path id="mcaaf5d1d76" d="M -2.99994 2.99994 
L 3.00006 2.99994 
L 3.00006 -3.00006 
L -2.99994 -3.00006 
z
" style="stroke: #000000"/>
    </defs>
    <g clip-path="url(#p74c8f00bef)">
     <use xlink:href="#mcaaf5d1d76" x="289.280655" y="174.05909" style="stroke: #000000"/>
     <use xlink:href="#mcaaf5d1d76" x="125.205108" y="189.409014" style="stroke: #000000"/>
     <use xlink:href="#mcaaf5d1d76" x="169.549333" y="196.093356" style="stroke: #000000"/>
     <use xlink:href="#mcaaf5d1d76" x="292.877752" y="219.270058" style="stroke: #000000"/>
     <use xlink:href="#mcaaf5d1d76" x="247.820215" y="135.539835" style="stroke: #000000"/>
     <use xlink:href="#mcaaf5d1d76" x="295.010756" y="174.319339" style="stroke: #000000"/>
     <use xlink:href="#mcaaf5d1d76" x="239.522891" y="169.298859" style="stroke: #000000"/>
     <use xlink:href="#mcaaf5d1d76" x="252.752113" y="203.81594" style="stroke: #000000"/>
     <use xlink:href="#mcaaf5d1d76" x="198.522015" y="140.258847" style="stroke: #000000"/>
     <use xlink:href="#mcaaf5d1d76" x="200.692184" y="152.411583" style="stroke: #000000"/>
     <use xlink:href="#mcaaf5d1d76" x="257.267928" y="110.593955" style="stroke: #000000"/>
     <use xlink:href="#mcaaf5d1d76" x="209.056524" y="221.115891" style="stroke: #000000"/>
     <use xlink:href="#mcaaf5d1d76" x="256.632822" y="244.700012" style="stroke: #000000"/>
     <use xlink:href="#mcaaf5d1d76" x="376.19196" y="139.461548" style="stroke: #000000"/>
     <use xlink:href="#mcaaf5d1d76" x="261.643832" y="204.908607" style="stroke: #000000"/>
     <use xlink:href="#mcaaf5d1d76" x="268.178889" y="223.918094" style="stroke: #000000"/>
     <use xlink:href="#mcaaf5d1d76" x="322.312623" y="106.905995" style="stroke: #000000"/>
     <use xlink:href="#mcaaf5d1d76" x="178.827116" y="214.535804" style="stroke: #000000"/>
     <use xlink:href="#mcaaf5d1d76" x="248.646215" y="140.038337" style="stroke: #000000"/>
     <use xlink:href="#mcaaf5d1d76" x="225.065721" y="166.247723" style="stroke: #000000"/>
     <use xlink:href="#mcaaf5d1d76" x="249.749628" y="104.916459" style="stroke: #000000"/>
     <use xlink:href="#mcaaf5d1d76" x="204.368046" y="168.171444" style="stroke: #000000"/>
     <use xlink:href="#mcaaf5d1d76" x="328.044004" y="200.669814" style="stroke: #000000"/>
     <use xlink:href="#mcaaf5d1d76" x="121.242221" y="175.691251" style="stroke: #000000"/>
     <use xlink:href="#mcaaf5d1d76" x="238.632917" y="140.034025" style="stroke: #000000"/>
     <use xlink:href="#mcaaf5d1d76" x="222.728927" y="231.153264" style="stroke: #000000"/>
     <use xlink:href="#mcaaf5d1d76" x="191.62932" y="175.990414" style="stroke: #000000"/>
     <use xlink:href="#mcaaf5d1d76" x="312.683127" y="221.649351" style="stroke: #000000"/>
     <use xlink:href="#mcaaf5d1d76" x="154.357913" y="163.864768" style="stroke: #000000"/>
     <use xlink:href="#mcaaf5d1d76" x="263.663864" y="55.874863" style="stroke: #000000"/>
     <use xlink:href="#mcaaf5d1d76" x="223.704017" y="230.125042" style="stroke: #000000"/>
     <use xlink:href="#mcaaf5d1d76" x="230.909474" y="171.95207" style="stroke: #000000"/>
     <use xlink:href="#mcaaf5d1d76" x="190.438697" y="253.640673" style="stroke: #000000"/>
     <use xlink:href="#mcaaf5d1d76" x="173.716388" y="176.170735" style="stroke: #000000"/>
     <use xlink:href="#mcaaf5d1d76" x="255.952567" y="185.07919" style="stroke: #000000"/>
     <use xlink:href="#mcaaf5d1d76" x="235.117428" y="118.087404" style="stroke: #000000"/>
     <use xlink:href="#mcaaf5d1d76" x="232.193694" y="160.888947" style="stroke: #000000"/>
     <use xlink:href="#mcaaf5d1d76" x="246.337267" y="155.60835" style="stroke: #000000"/>
     <use xlink:href="#mcaaf5d1d76" x="217.836345" y="143.292981" style="stroke: #000000"/>
     <use xlink:href="#mcaaf5d1d76" x="208.214626" y="201.506096" style="stroke: #000000"/>
     <use xlink:href="#mcaaf5d1d76" x="233.937294" y="229.93214" style="stroke: #000000"/>
     <use xlink:href="#mcaaf5d1d76" x="242.620048" y="151.654226" style="stroke: #000000"/>
     <use xlink:href="#mcaaf5d1d76" x="209.909122" y="178.97882" style="stroke: #000000"/>
     <use xlink:href="#mcaaf5d1d76" x="190.003368" y="137.220605" style="stroke: #000000"/>
     <use xlink:href="#mcaaf5d1d76" x="235.047654" y="149.084639" style="stroke: #000000"/>
     <use xlink:href="#mcaaf5d1d76" x="174.371705" y="133.811794" style="stroke: #000000"/>
     <use xlink:href="#mcaaf5d1d76" x="370.255266" y="199.677276" style="stroke: #000000"/>
     <use xlink:href="#mcaaf5d1d76" x="259.912993" y="179.118057" style="stroke: #000000"/>
     <use xlink:href="#mcaaf5d1d76" x="298.649583" y="250.279979" style="stroke: #000000"/>
     <use xlink:href="#mcaaf5d1d76" x="328.105283" y="169.77295" style="stroke: #000000"/>
     <use xlink:href="#mcaaf5d1d76" x="336.817029" y="241.465238" style="stroke: #000000"/>
     <use xlink:href="#mcaaf5d1d76" x="321.265884" y="183.647424" style="stroke: #000000"/>
     <use xlink:href="#mcaaf5d1d76" x="240.314549" y="180.482908" style="stroke: #000000"/>
     <use xlink:href="#mcaaf5d1d76" x="297.40153" y="187.365978" style="stroke: #000000"/>
     <use xlink:href="#mcaaf5d1d76" x="213.96032" y="212.255243" style="stroke: #000000"/>
     <use xlink:href="#mcaaf5d1d76" x="270.191489" y="101.146123" style="stroke: #000000"/>
     <use xlink:href="#mcaaf5d1d76" x="214.580352" y="187.67613" style="stroke: #000000"/>
     <use xlink:href="#mcaaf5d1d76" x="216.869936" y="149.101375" style="stroke: #000000"/>
     <use xlink:href="#mcaaf5d1d76" x="153.286932" y="210.903921" style="stroke: #000000"/>
     <use xlink:href="#mcaaf5d1d76" x="132.681846" y="168.611132" style="stroke: #000000"/>
     <use xlink:href="#mcaaf5d1d76" x="278.750816" y="19.296" style="stroke: #000000"/>
     <use xlink:href="#mcaaf5d1d76" x="350.181037" y="186.734566" style="stroke: #000000"/>
     <use xlink:href="#mcaaf5d1d76" x="188.159301" y="154.470334" style="stroke: #000000"/>
     <use xlink:href="#mcaaf5d1d76" x="183.584302" y="168.638365" style="stroke: #000000"/>
    </g>
   </g>
   <g id="PathCollection_11">
    <defs>
     <path id="m00a83ba70f" d="M -3 -0 
L 3 3 
L 3 -3 
z
" style="stroke: #ff8c00"/>
    </defs>
    <g clip-path="url(#p74c8f00bef)">
     <use xlink:href="#m00a83ba70f" x="132.734194" y="179.63378" style="fill: #ff8c00; stroke: #ff8c00"/>
     <use xlink:href="#m00a83ba70f" x="132.02978" y="120.898219" style="fill: #ff8c00; stroke: #ff8c00"/>
     <use xlink:href="#m00a83ba70f" x="182.314429" y="189.209779" style="fill: #ff8c00; stroke: #ff8c00"/>
     <use xlink:href="#m00a83ba70f" x="97.522729" y="184.327273" style="fill: #ff8c00; stroke: #ff8c00"/>
     <use xlink:href="#m00a83ba70f" x="141.700986" y="145.903217" style="fill: #ff8c00; stroke: #ff8c00"/>
     <use xlink:href="#m00a83ba70f" x="141.641319" y="151.01469" style="fill: #ff8c00; stroke: #ff8c00"/>
     <use xlink:href="#m00a83ba70f" x="112.156686" y="189.663777" style="fill: #ff8c00; stroke: #ff8c00"/>
     <use xlink:href="#m00a83ba70f" x="113.298693" y="172.03343" style="fill: #ff8c00; stroke: #ff8c00"/>
     <use xlink:href="#m00a83ba70f" x="85.30905" y="179.350359" style="fill: #ff8c00; stroke: #ff8c00"/>
     <use xlink:href="#m00a83ba70f" x="150.92913" y="256.904979" style="fill: #ff8c00; stroke: #ff8c00"/>
     <use xlink:href="#m00a83ba70f" x="210.382051" y="167.309721" style="fill: #ff8c00; stroke: #ff8c00"/>
     <use xlink:href="#m00a83ba70f" x="111.607882" y="207.245245" style="fill: #ff8c00; stroke: #ff8c00"/>
     <use xlink:href="#m00a83ba70f" x="208.815089" y="125.86149" style="fill: #ff8c00; stroke: #ff8c00"/>
     <use xlink:href="#m00a83ba70f" x="185.914712" y="222.648776" style="fill: #ff8c00; stroke: #ff8c00"/>
     <use xlink:href="#m00a83ba70f" x="230.709599" y="148.17682" style="fill: #ff8c00; stroke: #ff8c00"/>
     <use xlink:href="#m00a83ba70f" x="119.731308" y="158.561664" style="fill: #ff8c00; stroke: #ff8c00"/>
     <use xlink:href="#m00a83ba70f" x="182.163469" y="185.071568" style="fill: #ff8c00; stroke: #ff8c00"/>
     <use xlink:href="#m00a83ba70f" x="232.836396" y="118.645214" style="fill: #ff8c00; stroke: #ff8c00"/>
     <use xlink:href="#m00a83ba70f" x="168.623077" y="210.88408" style="fill: #ff8c00; stroke: #ff8c00"/>
     <use xlink:href="#m00a83ba70f" x="186.666748" y="131.476736" style="fill: #ff8c00; stroke: #ff8c00"/>
     <use xlink:href="#m00a83ba70f" x="138.054369" y="203.68986" style="fill: #ff8c00; stroke: #ff8c00"/>
     <use xlink:href="#m00a83ba70f" x="166.491812" y="120.182216" style="fill: #ff8c00; stroke: #ff8c00"/>
     <use xlink:href="#m00a83ba70f" x="179.275541" y="226.092692" style="fill: #ff8c00; stroke: #ff8c00"/>
     <use xlink:href="#m00a83ba70f" x="163.439808" y="200.585263" style="fill: #ff8c00; stroke: #ff8c00"/>
     <use xlink:href="#m00a83ba70f" x="125.293365" y="169.733191" style="fill: #ff8c00; stroke: #ff8c00"/>
     <use xlink:href="#m00a83ba70f" x="111.161799" y="170.316724" style="fill: #ff8c00; stroke: #ff8c00"/>
     <use xlink:href="#m00a83ba70f" x="138.890179" y="189.756401" style="fill: #ff8c00; stroke: #ff8c00"/>
     <use xlink:href="#m00a83ba70f" x="192.02782" y="110.498615" style="fill: #ff8c00; stroke: #ff8c00"/>
     <use xlink:href="#m00a83ba70f" x="104.015894" y="172.09859" style="fill: #ff8c00; stroke: #ff8c00"/>
     <use xlink:href="#m00a83ba70f" x="174.272527" y="216.848255" style="fill: #ff8c00; stroke: #ff8c00"/>
     <use xlink:href="#m00a83ba70f" x="86.759766" y="157.522963" style="fill: #ff8c00; stroke: #ff8c00"/>
     <use xlink:href="#m00a83ba70f" x="228.506806" y="221.10301" style="fill: #ff8c00; stroke: #ff8c00"/>
     <use xlink:href="#m00a83ba70f" x="177.161924" y="216.796591" style="fill: #ff8c00; stroke: #ff8c00"/>
     <use xlink:href="#m00a83ba70f" x="135.914634" y="177.624873" style="fill: #ff8c00; stroke: #ff8c00"/>
     <use xlink:href="#m00a83ba70f" x="92.524828" y="198.553026" style="fill: #ff8c00; stroke: #ff8c00"/>
     <use xlink:href="#m00a83ba70f" x="170.509777" y="210.928649" style="fill: #ff8c00; stroke: #ff8c00"/>
     <use xlink:href="#m00a83ba70f" x="118.604052" y="155.711016" style="fill: #ff8c00; stroke: #ff8c00"/>
     <use xlink:href="#m00a83ba70f" x="214.372633" y="142.990196" style="fill: #ff8c00; stroke: #ff8c00"/>
     <use xlink:href="#m00a83ba70f" x="92.763445" y="190.034332" style="fill: #ff8c00; stroke: #ff8c00"/>
     <use xlink:href="#m00a83ba70f" x="170.502122" y="169.617057" style="fill: #ff8c00; stroke: #ff8c00"/>
     <use xlink:href="#m00a83ba70f" x="189.52805" y="252.950761" style="fill: #ff8c00; stroke: #ff8c00"/>
     <use xlink:href="#m00a83ba70f" x="117.369169" y="158.242248" style="fill: #ff8c00; stroke: #ff8c00"/>
     <use xlink:href="#m00a83ba70f" x="182.127201" y="123.639037" style="fill: #ff8c00; stroke: #ff8c00"/>
     <use xlink:href="#m00a83ba70f" x="172.100517" y="189.167268" style="fill: #ff8c00; stroke: #ff8c00"/>
     <use xlink:href="#m00a83ba70f" x="201.436432" y="192.030369" style="fill: #ff8c00; stroke: #ff8c00"/>
     <use xlink:href="#m00a83ba70f" x="99.332551" y="186.20819" style="fill: #ff8c00; stroke: #ff8c00"/>
     <use xlink:href="#m00a83ba70f" x="161.565882" y="205.730899" style="fill: #ff8c00; stroke: #ff8c00"/>
     <use xlink:href="#m00a83ba70f" x="106.067002" y="168.586127" style="fill: #ff8c00; stroke: #ff8c00"/>
     <use xlink:href="#m00a83ba70f" x="106.568113" y="199.781395" style="fill: #ff8c00; stroke: #ff8c00"/>
     <use xlink:href="#m00a83ba70f" x="166.612687" y="146.388804" style="fill: #ff8c00; stroke: #ff8c00"/>
     <use xlink:href="#m00a83ba70f" x="225.119359" y="183.03937" style="fill: #ff8c00; stroke: #ff8c00"/>
     <use xlink:href="#m00a83ba70f" x="148.896572" y="141.130404" style="fill: #ff8c00; stroke: #ff8c00"/>
     <use xlink:href="#m00a83ba70f" x="212.991719" y="98.758348" style="fill: #ff8c00; stroke: #ff8c00"/>
     <use xlink:href="#m00a83ba70f" x="233.393794" y="245.006591" style="fill: #ff8c00; stroke: #ff8c00"/>
     <use xlink:href="#m00a83ba70f" x="231.649941" y="219.28813" style="fill: #ff8c00; stroke: #ff8c00"/>
     <use xlink:href="#m00a83ba70f" x="147.871459" y="191.504305" style="fill: #ff8c00; stroke: #ff8c00"/>
     <use xlink:href="#m00a83ba70f" x="195.099342" y="140.168201" style="fill: #ff8c00; stroke: #ff8c00"/>
     <use xlink:href="#m00a83ba70f" x="98.71249" y="182.616571" style="fill: #ff8c00; stroke: #ff8c00"/>
     <use xlink:href="#m00a83ba70f" x="138.030882" y="142.551136" style="fill: #ff8c00; stroke: #ff8c00"/>
     <use xlink:href="#m00a83ba70f" x="152.748159" y="134.204814" style="fill: #ff8c00; stroke: #ff8c00"/>
     <use xlink:href="#m00a83ba70f" x="120.659706" y="179.167177" style="fill: #ff8c00; stroke: #ff8c00"/>
     <use xlink:href="#m00a83ba70f" x="84.759641" y="159.277629" style="fill: #ff8c00; stroke: #ff8c00"/>
     <use xlink:href="#m00a83ba70f" x="135.718632" y="112.50327" style="fill: #ff8c00; stroke: #ff8c00"/>
     <use xlink:href="#m00a83ba70f" x="51.537415" y="187.082556" style="fill: #ff8c00; stroke: #ff8c00"/>
    </g>
   </g>
   <g id="matplotlib.axis_1">
    <g id="xtick_1">
     <g id="line2d_1">
      <defs>
       <path id="m2a5086ebde" d="M 0 0 
L 0 3.5 
" style="stroke: #000000; stroke-width: 0.8"/>
      </defs>
      <g>
       <use xlink:href="#m2a5086ebde" x="73.362544" y="273.312" style="stroke: #000000; stroke-width: 0.8"/>
      </g>
     </g>
     <g id="text_1">
      <!-- −20 -->
      <g transform="translate(62.8102 287.910437) scale(0.1 -0.1)">
       <defs>
        <path id="DejaVuSans-2212" d="M 678 2272 
L 4684 2272 
L 4684 1741 
L 678 1741 
L 678 2272 
z
" transform="scale(0.015625)"/>
        <path id="DejaVuSans-32" d="M 1228 531 
L 3431 531 
L 3431 0 
L 469 0 
L 469 531 
Q 828 903 1448 1529 
Q 2069 2156 2228 2338 
Q 2531 2678 2651 2914 
Q 2772 3150 2772 3378 
Q 2772 3750 2511 3984 
Q 2250 4219 1831 4219 
Q 1534 4219 1204 4116 
Q 875 4013 500 3803 
L 500 4441 
Q 881 4594 1212 4672 
Q 1544 4750 1819 4750 
Q 2544 4750 2975 4387 
Q 3406 4025 3406 3419 
Q 3406 3131 3298 2873 
Q 3191 2616 2906 2266 
Q 2828 2175 2409 1742 
Q 1991 1309 1228 531 
z
" transform="scale(0.015625)"/>
        <path id="DejaVuSans-30" d="M 2034 4250 
Q 1547 4250 1301 3770 
Q 1056 3291 1056 2328 
Q 1056 1369 1301 889 
Q 1547 409 2034 409 
Q 2525 409 2770 889 
Q 3016 1369 3016 2328 
Q 3016 3291 2770 3770 
Q 2525 4250 2034 4250 
z
M 2034 4750 
Q 2819 4750 3233 4129 
Q 3647 3509 3647 2328 
Q 3647 1150 3233 529 
Q 2819 -91 2034 -91 
Q 1250 -91 836 529 
Q 422 1150 422 2328 
Q 422 3509 836 4129 
Q 1250 4750 2034 4750 
z
" transform="scale(0.015625)"/>
       </defs>
       <use xlink:href="#DejaVuSans-2212"/>
       <use xlink:href="#DejaVuSans-32" x="83.789062"/>
       <use xlink:href="#DejaVuSans-30" x="147.412109"/>
      </g>
     </g>
    </g>
    <g id="xtick_2">
     <g id="line2d_2">
      <g>
       <use xlink:href="#m2a5086ebde" x="125.391655" y="273.312" style="stroke: #000000; stroke-width: 0.8"/>
      </g>
     </g>
     <g id="text_2">
      <!-- −10 -->
      <g transform="translate(114.839311 287.910437) scale(0.1 -0.1)">
       <defs>
        <path id="DejaVuSans-31" d="M 794 531 
L 1825 531 
L 1825 4091 
L 703 3866 
L 703 4441 
L 1819 4666 
L 2450 4666 
L 2450 531 
L 3481 531 
L 3481 0 
L 794 0 
L 794 531 
z
" transform="scale(0.015625)"/>
       </defs>
       <use xlink:href="#DejaVuSans-2212"/>
       <use xlink:href="#DejaVuSans-31" x="83.789062"/>
       <use xlink:href="#DejaVuSans-30" x="147.412109"/>
      </g>
     </g>
    </g>
    <g id="xtick_3">
     <g id="line2d_3">
      <g>
       <use xlink:href="#m2a5086ebde" x="177.420766" y="273.312" style="stroke: #000000; stroke-width: 0.8"/>
      </g>
     </g>
     <g id="text_3">
      <!-- 0 -->
      <g transform="translate(174.239516 287.910437) scale(0.1 -0.1)">
       <use xlink:href="#DejaVuSans-30"/>
      </g>
     </g>
    </g>
    <g id="xtick_4">
     <g id="line2d_4">
      <g>
       <use xlink:href="#m2a5086ebde" x="229.449877" y="273.312" style="stroke: #000000; stroke-width: 0.8"/>
      </g>
     </g>
     <g id="text_4">
      <!-- 10 -->
      <g transform="translate(223.087377 287.910437) scale(0.1 -0.1)">
       <use xlink:href="#DejaVuSans-31"/>
       <use xlink:href="#DejaVuSans-30" x="63.623047"/>
      </g>
     </g>
    </g>
    <g id="xtick_5">
     <g id="line2d_5">
      <g>
       <use xlink:href="#m2a5086ebde" x="281.478988" y="273.312" style="stroke: #000000; stroke-width: 0.8"/>
      </g>
     </g>
     <g id="text_5">
      <!-- 20 -->
      <g transform="translate(275.116488 287.910437) scale(0.1 -0.1)">
       <use xlink:href="#DejaVuSans-32"/>
       <use xlink:href="#DejaVuSans-30" x="63.623047"/>
      </g>
     </g>
    </g>
    <g id="xtick_6">
     <g id="line2d_6">
      <g>
       <use xlink:href="#m2a5086ebde" x="333.508099" y="273.312" style="stroke: #000000; stroke-width: 0.8"/>
      </g>
     </g>
     <g id="text_6">
      <!-- 30 -->
      <g transform="translate(327.145599 287.910437) scale(0.1 -0.1)">
       <defs>
        <path id="DejaVuSans-33" d="M 2597 2516 
Q 3050 2419 3304 2112 
Q 3559 1806 3559 1356 
Q 3559 666 3084 287 
Q 2609 -91 1734 -91 
Q 1441 -91 1130 -33 
Q 819 25 488 141 
L 488 750 
Q 750 597 1062 519 
Q 1375 441 1716 441 
Q 2309 441 2620 675 
Q 2931 909 2931 1356 
Q 2931 1769 2642 2001 
Q 2353 2234 1838 2234 
L 1294 2234 
L 1294 2753 
L 1863 2753 
Q 2328 2753 2575 2939 
Q 2822 3125 2822 3475 
Q 2822 3834 2567 4026 
Q 2313 4219 1838 4219 
Q 1578 4219 1281 4162 
Q 984 4106 628 3988 
L 628 4550 
Q 988 4650 1302 4700 
Q 1616 4750 1894 4750 
Q 2613 4750 3031 4423 
Q 3450 4097 3450 3541 
Q 3450 3153 3228 2886 
Q 3006 2619 2597 2516 
z
" transform="scale(0.015625)"/>
       </defs>
       <use xlink:href="#DejaVuSans-33"/>
       <use xlink:href="#DejaVuSans-30" x="63.623047"/>
      </g>
     </g>
    </g>
    <g id="xtick_7">
     <g id="line2d_7">
      <g>
       <use xlink:href="#m2a5086ebde" x="385.53721" y="273.312" style="stroke: #000000; stroke-width: 0.8"/>
      </g>
     </g>
     <g id="text_7">
      <!-- 40 -->
      <g transform="translate(379.17471 287.910437) scale(0.1 -0.1)">
       <defs>
        <path id="DejaVuSans-34" d="M 2419 4116 
L 825 1625 
L 2419 1625 
L 2419 4116 
z
M 2253 4666 
L 3047 4666 
L 3047 1625 
L 3713 1625 
L 3713 1100 
L 3047 1100 
L 3047 0 
L 2419 0 
L 2419 1100 
L 313 1100 
L 313 1709 
L 2253 4666 
z
" transform="scale(0.015625)"/>
       </defs>
       <use xlink:href="#DejaVuSans-34"/>
       <use xlink:href="#DejaVuSans-30" x="63.623047"/>
      </g>
     </g>
    </g>
   </g>
   <g id="matplotlib.axis_2">
    <g id="ytick_1">
     <g id="line2d_8">
      <defs>
       <path id="m5cb1687a1f" d="M 0 0 
L -3.5 0 
" style="stroke: #000000; stroke-width: 0.8"/>
      </defs>
      <g>
       <use xlink:href="#m5cb1687a1f" x="35.304688" y="271.643362" style="stroke: #000000; stroke-width: 0.8"/>
      </g>
     </g>
     <g id="text_8">
      <!-- −20 -->
      <g transform="translate(7.2 275.442581) scale(0.1 -0.1)">
       <use xlink:href="#DejaVuSans-2212"/>
       <use xlink:href="#DejaVuSans-32" x="83.789062"/>
       <use xlink:href="#DejaVuSans-30" x="147.412109"/>
      </g>
     </g>
    </g>
    <g id="ytick_2">
     <g id="line2d_9">
      <g>
       <use xlink:href="#m5cb1687a1f" x="35.304688" y="220.961314" style="stroke: #000000; stroke-width: 0.8"/>
      </g>
     </g>
     <g id="text_9">
      <!-- −10 -->
      <g transform="translate(7.2 224.760533) scale(0.1 -0.1)">
       <use xlink:href="#DejaVuSans-2212"/>
       <use xlink:href="#DejaVuSans-31" x="83.789062"/>
       <use xlink:href="#DejaVuSans-30" x="147.412109"/>
      </g>
     </g>
    </g>
    <g id="ytick_3">
     <g id="line2d_10">
      <g>
       <use xlink:href="#m5cb1687a1f" x="35.304688" y="170.279266" style="stroke: #000000; stroke-width: 0.8"/>
      </g>
     </g>
     <g id="text_10">
      <!-- 0 -->
      <g transform="translate(21.942187 174.078485) scale(0.1 -0.1)">
       <use xlink:href="#DejaVuSans-30"/>
      </g>
     </g>
    </g>
    <g id="ytick_4">
     <g id="line2d_11">
      <g>
       <use xlink:href="#m5cb1687a1f" x="35.304688" y="119.597218" style="stroke: #000000; stroke-width: 0.8"/>
      </g>
     </g>
     <g id="text_11">
      <!-- 10 -->
      <g transform="translate(15.579687 123.396437) scale(0.1 -0.1)">
       <use xlink:href="#DejaVuSans-31"/>
       <use xlink:href="#DejaVuSans-30" x="63.623047"/>
      </g>
     </g>
    </g>
    <g id="ytick_5">
     <g id="line2d_12">
      <g>
       <use xlink:href="#m5cb1687a1f" x="35.304688" y="68.91517" style="stroke: #000000; stroke-width: 0.8"/>
      </g>
     </g>
     <g id="text_12">
      <!-- 20 -->
      <g transform="translate(15.579687 72.714389) scale(0.1 -0.1)">
       <use xlink:href="#DejaVuSans-32"/>
       <use xlink:href="#DejaVuSans-30" x="63.623047"/>
      </g>
     </g>
    </g>
    <g id="ytick_6">
     <g id="line2d_13">
      <g>
       <use xlink:href="#m5cb1687a1f" x="35.304688" y="18.233122" style="stroke: #000000; stroke-width: 0.8"/>
      </g>
     </g>
     <g id="text_13">
      <!-- 30 -->
      <g transform="translate(15.579687 22.032341) scale(0.1 -0.1)">
       <use xlink:href="#DejaVuSans-33"/>
       <use xlink:href="#DejaVuSans-30" x="63.623047"/>
      </g>
     </g>
    </g>
   </g>
   <g id="patch_3">
    <path d="M 35.304688 273.312 
L 35.304688 7.2 
" style="fill: none; stroke: #000000; stroke-width: 0.8; stroke-linejoin: miter; stroke-linecap: square"/>
   </g>
   <g id="patch_4">
    <path d="M 392.424688 273.312 
L 392.424688 7.2 
" style="fill: none; stroke: #000000; stroke-width: 0.8; stroke-linejoin: miter; stroke-linecap: square"/>
   </g>
   <g id="patch_5">
    <path d="M 35.304688 273.312 
L 392.424688 273.312 
" style="fill: none; stroke: #000000; stroke-width: 0.8; stroke-linejoin: miter; stroke-linecap: square"/>
   </g>
   <g id="patch_6">
    <path d="M 35.304688 7.2 
L 392.424688 7.2 
" style="fill: none; stroke: #000000; stroke-width: 0.8; stroke-linejoin: miter; stroke-linecap: square"/>
   </g>
  </g>
 </g>
 <defs>
  <clipPath id="p74c8f00bef">
   <rect x="35.304688" y="7.2" width="357.12" height="266.112"/>
  </clipPath>
 </defs>
</svg>
