<?xml version="1.0" encoding="utf-8" standalone="no"?>
<!DOCTYPE svg PUBLIC "-//W3C//DTD SVG 1.1//EN"
  "http://www.w3.org/Graphics/SVG/1.1/DTD/svg11.dtd">
<svg xmlns:xlink="http://www.w3.org/1999/xlink" width="399.624687pt" height="297.190125pt" viewBox="0 0 399.624687 297.190125" xmlns="http://www.w3.org/2000/svg" version="1.1">
 <metadata>
  <rdf:RDF xmlns:dc="http://purl.org/dc/elements/1.1/" xmlns:cc="http://creativecommons.org/ns#" xmlns:rdf="http://www.w3.org/1999/02/22-rdf-syntax-ns#">
   <cc:Work>
    <dc:type rdf:resource="http://purl.org/dc/dcmitype/StillImage"/>
    <dc:date>2023-11-12T06:08:31.488100</dc:date>
    <dc:format>image/svg+xml</dc:format>
    <dc:creator>
     <cc:Agent>
      <dc:title>Matplotlib v3.8.0, https://matplotlib.org/</dc:title>
     </cc:Agent>
    </dc:creator>
   </cc:Work>
  </rdf:RDF>
 </metadata>
 <defs>
  <style type="text/css">*{stroke-linejoin: round; stroke-linecap: butt}</style>
 </defs>
 <g id="figure_1">
  <g id="patch_1">
   <path d="M 0 297.190125 
L 399.624687 297.190125 
L 399.624687 0 
L 0 0 
z
" style="fill: #ffffff"/>
  </g>
  <g id="axes_1">
   <g id="patch_2">
    <path d="M 35.304688 273.312 
L 392.424688 273.312 
L 392.424688 7.2 
L 35.304688 7.2 
z
" style="fill: #ffffff"/>
   </g>
   <g id="PathCollection_1">
    <defs>
     <path id="m51cfade46d" d="M 0 1.5 
C 0.397805 1.5 0.77937 1.341951 1.06066 1.06066 
C 1.341951 0.77937 1.5 0.397805 1.5 0 
C 1.5 -0.397805 1.341951 -0.77937 1.06066 -1.06066 
C 0.77937 -1.341951 0.397805 -1.5 0 -1.5 
C -0.397805 -1.5 -0.77937 -1.341951 -1.06066 -1.06066 
C -1.341951 -0.77937 -1.5 -0.397805 -1.5 0 
C -1.5 0.397805 -1.341951 0.77937 -1.06066 1.06066 
C -0.77937 1.341951 -0.397805 1.5 0 1.5 
z
" style="stroke: #ff8c00"/>
    </defs>
    <g clip-path="url(#p84e2946a42)">
     <use xlink:href="#m51cfade46d" x="130.534023" y="193.636254" style="fill: #ff8c00; stroke: #ff8c00"/>
     <use xlink:href="#m51cfade46d" x="100.355339" y="189.56057" style="fill: #ff8c00; stroke: #ff8c00"/>
     <use xlink:href="#m51cfade46d" x="94.544208" y="169.918003" style="fill: #ff8c00; stroke: #ff8c00"/>
     <use xlink:href="#m51cfade46d" x="158.073769" y="195.310931" style="fill: #ff8c00; stroke: #ff8c00"/>
     <use xlink:href="#m51cfade46d" x="173.491245" y="154.592414" style="fill: #ff8c00; stroke: #ff8c00"/>
     <use xlink:href="#m51cfade46d" x="87.528195" y="210.497488" style="fill: #ff8c00; stroke: #ff8c00"/>
     <use xlink:href="#m51cfade46d" x="105.056555" y="210.106874" style="fill: #ff8c00; stroke: #ff8c00"/>
     <use xlink:href="#m51cfade46d" x="100.743507" y="220.364033" style="fill: #ff8c00; stroke: #ff8c00"/>
     <use xlink:href="#m51cfade46d" x="101.228552" y="211.47862" style="fill: #ff8c00; stroke: #ff8c00"/>
     <use xlink:href="#m51cfade46d" x="120.76193" y="158.424416" style="fill: #ff8c00; stroke: #ff8c00"/>
    </g>
   </g>
   <g id="PathCollection_2">
    <defs>
     <path id="m872bf6489a" d="M 0 1.5 
C 0.397805 1.5 0.77937 1.341951 1.06066 1.06066 
C 1.341951 0.77937 1.5 0.397805 1.5 0 
C 1.5 -0.397805 1.341951 -0.77937 1.06066 -1.06066 
C 0.77937 -1.341951 0.397805 -1.5 0 -1.5 
C -0.397805 -1.5 -0.77937 -1.341951 -1.06066 -1.06066 
C -1.341951 -0.77937 -1.5 -0.397805 -1.5 0 
C -1.5 0.397805 -1.341951 0.77937 -1.06066 1.06066 
C -0.77937 1.341951 -0.397805 1.5 0 1.5 
z
" style="stroke: #006400"/>
    </defs>
    <g clip-path="url(#p84e2946a42)">
     <use xlink:href="#m872bf6489a" x="165.840557" y="212.737866" style="fill: #006400; stroke: #006400"/>
     <use xlink:href="#m872bf6489a" x="187.89793" y="125.419785" style="fill: #006400; stroke: #006400"/>
     <use xlink:href="#m872bf6489a" x="189.543479" y="224.965194" style="fill: #006400; stroke: #006400"/>
     <use xlink:href="#m872bf6489a" x="250.828551" y="169.920759" style="fill: #006400; stroke: #006400"/>
     <use xlink:href="#m872bf6489a" x="166.145285" y="192.652" style="fill: #006400; stroke: #006400"/>
     <use xlink:href="#m872bf6489a" x="218.508523" y="261.216" style="fill: #006400; stroke: #006400"/>
     <use xlink:href="#m872bf6489a" x="248.450446" y="241.355199" style="fill: #006400; stroke: #006400"/>
     <use xlink:href="#m872bf6489a" x="193.337738" y="172.287613" style="fill: #006400; stroke: #006400"/>
     <use xlink:href="#m872bf6489a" x="343.360062" y="210.511095" style="fill: #006400; stroke: #006400"/>
     <use xlink:href="#m872bf6489a" x="368.085674" y="234.874333" style="fill: #006400; stroke: #006400"/>
     <use xlink:href="#m872bf6489a" x="219.801302" y="223.110618" style="fill: #006400; stroke: #006400"/>
     <use xlink:href="#m872bf6489a" x="196.300469" y="208.77496" style="fill: #006400; stroke: #006400"/>
     <use xlink:href="#m872bf6489a" x="244.126813" y="198.490015" style="fill: #006400; stroke: #006400"/>
     <use xlink:href="#m872bf6489a" x="186.261277" y="203.361501" style="fill: #006400; stroke: #006400"/>
    </g>
   </g>
   <g id="PathCollection_3">
    <defs>
     <path id="m1b6dde69a4" d="M 0 1.5 
C 0.397805 1.5 0.77937 1.341951 1.06066 1.06066 
C 1.341951 0.77937 1.5 0.397805 1.5 0 
C 1.5 -0.397805 1.341951 -0.77937 1.06066 -1.06066 
C 0.77937 -1.341951 0.397805 -1.5 0 -1.5 
C -0.397805 -1.5 -0.77937 -1.341951 -1.06066 -1.06066 
C -1.341951 -0.77937 -1.5 -0.397805 -1.5 0 
C -1.5 0.397805 -1.341951 0.77937 -1.06066 1.06066 
C -0.77937 1.341951 -0.397805 1.5 0 1.5 
z
" style="stroke: #2f4f4f"/>
    </defs>
    <g clip-path="url(#p84e2946a42)">
     <use xlink:href="#m1b6dde69a4" x="162.644685" y="140.579863" style="fill: #2f4f4f; stroke: #2f4f4f"/>
     <use xlink:href="#m1b6dde69a4" x="138.385784" y="205.522919" style="fill: #2f4f4f; stroke: #2f4f4f"/>
     <use xlink:href="#m1b6dde69a4" x="118.218638" y="203.426578" style="fill: #2f4f4f; stroke: #2f4f4f"/>
     <use xlink:href="#m1b6dde69a4" x="111.061344" y="170.872558" style="fill: #2f4f4f; stroke: #2f4f4f"/>
     <use xlink:href="#m1b6dde69a4" x="139.392475" y="203.907697" style="fill: #2f4f4f; stroke: #2f4f4f"/>
     <use xlink:href="#m1b6dde69a4" x="170.667335" y="188.200159" style="fill: #2f4f4f; stroke: #2f4f4f"/>
     <use xlink:href="#m1b6dde69a4" x="153.258138" y="151.601815" style="fill: #2f4f4f; stroke: #2f4f4f"/>
     <use xlink:href="#m1b6dde69a4" x="138.36551" y="170.557012" style="fill: #2f4f4f; stroke: #2f4f4f"/>
     <use xlink:href="#m1b6dde69a4" x="152.132467" y="159.826875" style="fill: #2f4f4f; stroke: #2f4f4f"/>
     <use xlink:href="#m1b6dde69a4" x="160.452571" y="186.573047" style="fill: #2f4f4f; stroke: #2f4f4f"/>
     <use xlink:href="#m1b6dde69a4" x="83.417982" y="190.976236" style="fill: #2f4f4f; stroke: #2f4f4f"/>
     <use xlink:href="#m1b6dde69a4" x="113.700202" y="152.208281" style="fill: #2f4f4f; stroke: #2f4f4f"/>
     <use xlink:href="#m1b6dde69a4" x="55.775016" y="176.858929" style="fill: #2f4f4f; stroke: #2f4f4f"/>
     <use xlink:href="#m1b6dde69a4" x="90.74996" y="157.670051" style="fill: #2f4f4f; stroke: #2f4f4f"/>
     <use xlink:href="#m1b6dde69a4" x="60.719614" y="179.205871" style="fill: #2f4f4f; stroke: #2f4f4f"/>
     <use xlink:href="#m1b6dde69a4" x="99.206023" y="181.369358" style="fill: #2f4f4f; stroke: #2f4f4f"/>
     <use xlink:href="#m1b6dde69a4" x="122.504713" y="155.097857" style="fill: #2f4f4f; stroke: #2f4f4f"/>
     <use xlink:href="#m1b6dde69a4" x="149.58902" y="185.149486" style="fill: #2f4f4f; stroke: #2f4f4f"/>
     <use xlink:href="#m1b6dde69a4" x="63.510415" y="179.789022" style="fill: #2f4f4f; stroke: #2f4f4f"/>
     <use xlink:href="#m1b6dde69a4" x="169.957663" y="151.80027" style="fill: #2f4f4f; stroke: #2f4f4f"/>
     <use xlink:href="#m1b6dde69a4" x="131.422419" y="182.175699" style="fill: #2f4f4f; stroke: #2f4f4f"/>
    </g>
   </g>
   <g id="PathCollection_4">
    <defs>
     <path id="m79b74bd0e1" d="M 0 1.5 
C 0.397805 1.5 0.77937 1.341951 1.06066 1.06066 
C 1.341951 0.77937 1.5 0.397805 1.5 0 
C 1.5 -0.397805 1.341951 -0.77937 1.06066 -1.06066 
C 0.77937 -1.341951 0.397805 -1.5 0 -1.5 
C -0.397805 -1.5 -0.77937 -1.341951 -1.06066 -1.06066 
C -1.341951 -0.77937 -1.5 -0.397805 -1.5 0 
C -1.5 0.397805 -1.341951 0.77937 -1.06066 1.06066 
C -0.77937 1.341951 -0.397805 1.5 0 1.5 
z
" style="stroke: #00bfff"/>
    </defs>
    <g clip-path="url(#p84e2946a42)">
     <use xlink:href="#m79b74bd0e1" x="99.47625" y="139.66286" style="fill: #00bfff; stroke: #00bfff"/>
     <use xlink:href="#m79b74bd0e1" x="204.377582" y="105.332641" style="fill: #00bfff; stroke: #00bfff"/>
     <use xlink:href="#m79b74bd0e1" x="97.816563" y="156.75473" style="fill: #00bfff; stroke: #00bfff"/>
     <use xlink:href="#m79b74bd0e1" x="215.692333" y="138.952273" style="fill: #00bfff; stroke: #00bfff"/>
     <use xlink:href="#m79b74bd0e1" x="148.030703" y="211.650346" style="fill: #00bfff; stroke: #00bfff"/>
     <use xlink:href="#m79b74bd0e1" x="104.931982" y="147.18428" style="fill: #00bfff; stroke: #00bfff"/>
     <use xlink:href="#m79b74bd0e1" x="170.203555" y="172.468523" style="fill: #00bfff; stroke: #00bfff"/>
     <use xlink:href="#m79b74bd0e1" x="133.202274" y="157.742967" style="fill: #00bfff; stroke: #00bfff"/>
     <use xlink:href="#m79b74bd0e1" x="222.908471" y="127.629339" style="fill: #00bfff; stroke: #00bfff"/>
     <use xlink:href="#m79b74bd0e1" x="190.146263" y="137.167486" style="fill: #00bfff; stroke: #00bfff"/>
     <use xlink:href="#m79b74bd0e1" x="204.294818" y="161.382512" style="fill: #00bfff; stroke: #00bfff"/>
    </g>
   </g>
   <g id="PathCollection_5">
    <defs>
     <path id="m7fa19063b3" d="M 0 1.5 
C 0.397805 1.5 0.77937 1.341951 1.06066 1.06066 
C 1.341951 0.77937 1.5 0.397805 1.5 0 
C 1.5 -0.397805 1.341951 -0.77937 1.06066 -1.06066 
C 0.77937 -1.341951 0.397805 -1.5 0 -1.5 
C -0.397805 -1.5 -0.77937 -1.341951 -1.06066 -1.06066 
C -1.341951 -0.77937 -1.5 -0.397805 -1.5 0 
C -1.5 0.397805 -1.341951 0.77937 -1.06066 1.06066 
C -0.77937 1.341951 -0.397805 1.5 0 1.5 
z
" style="stroke: #ffff00"/>
    </defs>
    <g clip-path="url(#p84e2946a42)">
     <use xlink:href="#m7fa19063b3" x="181.387054" y="179.662357" style="fill: #ffff00; stroke: #ffff00"/>
     <use xlink:href="#m7fa19063b3" x="161.678685" y="181.837209" style="fill: #ffff00; stroke: #ffff00"/>
     <use xlink:href="#m7fa19063b3" x="94.702203" y="153.889935" style="fill: #ffff00; stroke: #ffff00"/>
     <use xlink:href="#m7fa19063b3" x="101.882072" y="186.312494" style="fill: #ffff00; stroke: #ffff00"/>
     <use xlink:href="#m7fa19063b3" x="110.866342" y="185.526096" style="fill: #ffff00; stroke: #ffff00"/>
     <use xlink:href="#m7fa19063b3" x="147.133806" y="191.563223" style="fill: #ffff00; stroke: #ffff00"/>
     <use xlink:href="#m7fa19063b3" x="51.537415" y="179.378484" style="fill: #ffff00; stroke: #ffff00"/>
     <use xlink:href="#m7fa19063b3" x="126.833475" y="182.935178" style="fill: #ffff00; stroke: #ffff00"/>
     <use xlink:href="#m7fa19063b3" x="120.875299" y="159.780433" style="fill: #ffff00; stroke: #ffff00"/>
    </g>
   </g>
   <g id="PathCollection_6">
    <defs>
     <path id="maff1a9088d" d="M 0 1.5 
C 0.397805 1.5 0.77937 1.341951 1.06066 1.06066 
C 1.341951 0.77937 1.5 0.397805 1.5 0 
C 1.5 -0.397805 1.341951 -0.77937 1.06066 -1.06066 
C 0.77937 -1.341951 0.397805 -1.5 0 -1.5 
C -0.397805 -1.5 -0.77937 -1.341951 -1.06066 -1.06066 
C -1.341951 -0.77937 -1.5 -0.397805 -1.5 0 
C -1.5 0.397805 -1.341951 0.77937 -1.06066 1.06066 
C -0.77937 1.341951 -0.397805 1.5 0 1.5 
z
" style="stroke: #00ffff"/>
    </defs>
    <g clip-path="url(#p84e2946a42)">
     <use xlink:href="#maff1a9088d" x="195.902655" y="125.876629" style="fill: #00ffff; stroke: #00ffff"/>
     <use xlink:href="#maff1a9088d" x="124.057043" y="164.806742" style="fill: #00ffff; stroke: #00ffff"/>
     <use xlink:href="#maff1a9088d" x="192.389254" y="138.822059" style="fill: #00ffff; stroke: #00ffff"/>
     <use xlink:href="#maff1a9088d" x="111.099068" y="131.940531" style="fill: #00ffff; stroke: #00ffff"/>
     <use xlink:href="#maff1a9088d" x="110.589277" y="147.805804" style="fill: #00ffff; stroke: #00ffff"/>
     <use xlink:href="#maff1a9088d" x="138.616828" y="109.842712" style="fill: #00ffff; stroke: #00ffff"/>
     <use xlink:href="#maff1a9088d" x="169.743159" y="156.450996" style="fill: #00ffff; stroke: #00ffff"/>
     <use xlink:href="#maff1a9088d" x="181.580775" y="170.716913" style="fill: #00ffff; stroke: #00ffff"/>
     <use xlink:href="#maff1a9088d" x="188.943309" y="178.786777" style="fill: #00ffff; stroke: #00ffff"/>
     <use xlink:href="#maff1a9088d" x="140.638652" y="145.389196" style="fill: #00ffff; stroke: #00ffff"/>
     <use xlink:href="#maff1a9088d" x="135.386272" y="136.303324" style="fill: #00ffff; stroke: #00ffff"/>
     <use xlink:href="#maff1a9088d" x="158.704253" y="135.664048" style="fill: #00ffff; stroke: #00ffff"/>
     <use xlink:href="#maff1a9088d" x="117.029118" y="111.748666" style="fill: #00ffff; stroke: #00ffff"/>
     <use xlink:href="#maff1a9088d" x="127.824311" y="186.636591" style="fill: #00ffff; stroke: #00ffff"/>
     <use xlink:href="#maff1a9088d" x="108.451893" y="189.588911" style="fill: #00ffff; stroke: #00ffff"/>
     <use xlink:href="#maff1a9088d" x="65.414985" y="143.681657" style="fill: #00ffff; stroke: #00ffff"/>
     <use xlink:href="#maff1a9088d" x="185.547405" y="129.282495" style="fill: #00ffff; stroke: #00ffff"/>
     <use xlink:href="#maff1a9088d" x="127.885341" y="160.5394" style="fill: #00ffff; stroke: #00ffff"/>
     <use xlink:href="#maff1a9088d" x="123.825629" y="149.752682" style="fill: #00ffff; stroke: #00ffff"/>
     <use xlink:href="#maff1a9088d" x="145.081204" y="139.551536" style="fill: #00ffff; stroke: #00ffff"/>
     <use xlink:href="#maff1a9088d" x="184.649328" y="161.117443" style="fill: #00ffff; stroke: #00ffff"/>
     <use xlink:href="#maff1a9088d" x="201.455533" y="121.740373" style="fill: #00ffff; stroke: #00ffff"/>
     <use xlink:href="#maff1a9088d" x="148.411467" y="144.124206" style="fill: #00ffff; stroke: #00ffff"/>
     <use xlink:href="#maff1a9088d" x="149.061083" y="130.079999" style="fill: #00ffff; stroke: #00ffff"/>
    </g>
   </g>
   <g id="PathCollection_7">
    <defs>
     <path id="ma761bb9c79" d="M 0 1.5 
C 0.397805 1.5 0.77937 1.341951 1.06066 1.06066 
C 1.341951 0.77937 1.5 0.397805 1.5 0 
C 1.5 -0.397805 1.341951 -0.77937 1.06066 -1.06066 
C 0.77937 -1.341951 0.397805 -1.5 0 -1.5 
C -0.397805 -1.5 -0.77937 -1.341951 -1.06066 -1.06066 
C -1.341951 -0.77937 -1.5 -0.397805 -1.5 0 
C -1.5 0.397805 -1.341951 0.77937 -1.06066 1.06066 
C -0.77937 1.341951 -0.397805 1.5 0 1.5 
z
" style="stroke: #0000ff"/>
    </defs>
    <g clip-path="url(#p84e2946a42)">
     <use xlink:href="#ma761bb9c79" x="194.346127" y="149.4474" style="fill: #0000ff; stroke: #0000ff"/>
     <use xlink:href="#ma761bb9c79" x="81.994551" y="196.652299" style="fill: #0000ff; stroke: #0000ff"/>
     <use xlink:href="#ma761bb9c79" x="267.505014" y="122.372145" style="fill: #0000ff; stroke: #0000ff"/>
     <use xlink:href="#ma761bb9c79" x="146.130863" y="209.538141" style="fill: #0000ff; stroke: #0000ff"/>
     <use xlink:href="#ma761bb9c79" x="152.031412" y="198.765858" style="fill: #0000ff; stroke: #0000ff"/>
     <use xlink:href="#ma761bb9c79" x="154.560145" y="205.787616" style="fill: #0000ff; stroke: #0000ff"/>
     <use xlink:href="#ma761bb9c79" x="151.720866" y="147.003463" style="fill: #0000ff; stroke: #0000ff"/>
     <use xlink:href="#ma761bb9c79" x="240.631156" y="182.173233" style="fill: #0000ff; stroke: #0000ff"/>
     <use xlink:href="#ma761bb9c79" x="133.592609" y="205.129192" style="fill: #0000ff; stroke: #0000ff"/>
     <use xlink:href="#ma761bb9c79" x="134.813757" y="143.746018" style="fill: #0000ff; stroke: #0000ff"/>
     <use xlink:href="#ma761bb9c79" x="110.615335" y="197.127161" style="fill: #0000ff; stroke: #0000ff"/>
     <use xlink:href="#ma761bb9c79" x="101.09023" y="187.255461" style="fill: #0000ff; stroke: #0000ff"/>
    </g>
   </g>
   <g id="PathCollection_8">
    <defs>
     <path id="m614cc25461" d="M 0 1.5 
C 0.397805 1.5 0.77937 1.341951 1.06066 1.06066 
C 1.341951 0.77937 1.5 0.397805 1.5 0 
C 1.5 -0.397805 1.341951 -0.77937 1.06066 -1.06066 
C 0.77937 -1.341951 0.397805 -1.5 0 -1.5 
C -0.397805 -1.5 -0.77937 -1.341951 -1.06066 -1.06066 
C -1.341951 -0.77937 -1.5 -0.397805 -1.5 0 
C -1.5 0.397805 -1.341951 0.77937 -1.06066 1.06066 
C -0.77937 1.341951 -0.397805 1.5 0 1.5 
z
" style="stroke: #dc143c"/>
    </defs>
    <g clip-path="url(#p84e2946a42)">
     <use xlink:href="#m614cc25461" x="119.869554" y="146.295847" style="fill: #dc143c; stroke: #dc143c"/>
     <use xlink:href="#m614cc25461" x="86.966145" y="177.996841" style="fill: #dc143c; stroke: #dc143c"/>
     <use xlink:href="#m614cc25461" x="161.863843" y="155.006233" style="fill: #dc143c; stroke: #dc143c"/>
     <use xlink:href="#m614cc25461" x="215.48809" y="151.9247" style="fill: #dc143c; stroke: #dc143c"/>
     <use xlink:href="#m614cc25461" x="170.145161" y="129.421073" style="fill: #dc143c; stroke: #dc143c"/>
     <use xlink:href="#m614cc25461" x="145.13229" y="176.989154" style="fill: #dc143c; stroke: #dc143c"/>
     <use xlink:href="#m614cc25461" x="196.932326" y="54.095046" style="fill: #dc143c; stroke: #dc143c"/>
     <use xlink:href="#m614cc25461" x="191.85421" y="79.685446" style="fill: #dc143c; stroke: #dc143c"/>
     <use xlink:href="#m614cc25461" x="183.184629" y="175.800497" style="fill: #dc143c; stroke: #dc143c"/>
     <use xlink:href="#m614cc25461" x="203.937694" y="19.296" style="fill: #dc143c; stroke: #dc143c"/>
     <use xlink:href="#m614cc25461" x="183.130682" y="81.155555" style="fill: #dc143c; stroke: #dc143c"/>
     <use xlink:href="#m614cc25461" x="147.336378" y="148.915017" style="fill: #dc143c; stroke: #dc143c"/>
     <use xlink:href="#m614cc25461" x="170.415395" y="155.148295" style="fill: #dc143c; stroke: #dc143c"/>
     <use xlink:href="#m614cc25461" x="196.043678" y="94.920623" style="fill: #dc143c; stroke: #dc143c"/>
     <use xlink:href="#m614cc25461" x="186.975298" y="75.235126" style="fill: #dc143c; stroke: #dc143c"/>
    </g>
   </g>
   <g id="PathCollection_9">
    <defs>
     <path id="m8a561cae33" d="M 0 1.5 
C 0.397805 1.5 0.77937 1.341951 1.06066 1.06066 
C 1.341951 0.77937 1.5 0.397805 1.5 0 
C 1.5 -0.397805 1.341951 -0.77937 1.06066 -1.06066 
C 0.77937 -1.341951 0.397805 -1.5 0 -1.5 
C -0.397805 -1.5 -0.77937 -1.341951 -1.06066 -1.06066 
C -1.341951 -0.77937 -1.5 -0.397805 -1.5 0 
C -1.5 0.397805 -1.341951 0.77937 -1.06066 1.06066 
C -0.77937 1.341951 -0.397805 1.5 0 1.5 
z
" style="stroke: #ffe4c4"/>
    </defs>
    <g clip-path="url(#p84e2946a42)">
     <use xlink:href="#m8a561cae33" x="149.971685" y="233.722546" style="fill: #ffe4c4; stroke: #ffe4c4"/>
     <use xlink:href="#m8a561cae33" x="109.426729" y="233.752753" style="fill: #ffe4c4; stroke: #ffe4c4"/>
     <use xlink:href="#m8a561cae33" x="170.309499" y="232.933233" style="fill: #ffe4c4; stroke: #ffe4c4"/>
     <use xlink:href="#m8a561cae33" x="214.006319" y="168.3556" style="fill: #ffe4c4; stroke: #ffe4c4"/>
     <use xlink:href="#m8a561cae33" x="81.541353" y="212.93721" style="fill: #ffe4c4; stroke: #ffe4c4"/>
     <use xlink:href="#m8a561cae33" x="90.032738" y="204.589822" style="fill: #ffe4c4; stroke: #ffe4c4"/>
     <use xlink:href="#m8a561cae33" x="161.218108" y="213.78066" style="fill: #ffe4c4; stroke: #ffe4c4"/>
     <use xlink:href="#m8a561cae33" x="171.920362" y="190.178152" style="fill: #ffe4c4; stroke: #ffe4c4"/>
     <use xlink:href="#m8a561cae33" x="150.759324" y="217.847843" style="fill: #ffe4c4; stroke: #ffe4c4"/>
     <use xlink:href="#m8a561cae33" x="128.859112" y="220.235705" style="fill: #ffe4c4; stroke: #ffe4c4"/>
     <use xlink:href="#m8a561cae33" x="153.743469" y="183.123352" style="fill: #ffe4c4; stroke: #ffe4c4"/>
     <use xlink:href="#m8a561cae33" x="137.084859" y="204.390264" style="fill: #ffe4c4; stroke: #ffe4c4"/>
    </g>
   </g>
   <g id="PathCollection_10">
    <defs>
     <path id="m805bb1ea4a" d="M -2.99994 2.99994 
L 3.00006 2.99994 
L 3.00006 -3.00006 
L -2.99994 -3.00006 
z
" style="stroke: #000000"/>
    </defs>
    <g clip-path="url(#p84e2946a42)">
     <use xlink:href="#m805bb1ea4a" x="257.24066" y="163.824657" style="stroke: #000000"/>
     <use xlink:href="#m805bb1ea4a" x="251.001066" y="158.694498" style="stroke: #000000"/>
     <use xlink:href="#m805bb1ea4a" x="246.965309" y="190.172763" style="stroke: #000000"/>
     <use xlink:href="#m805bb1ea4a" x="244.57126" y="204.884419" style="stroke: #000000"/>
     <use xlink:href="#m805bb1ea4a" x="224.46199" y="158.066643" style="stroke: #000000"/>
     <use xlink:href="#m805bb1ea4a" x="208.872536" y="156.591662" style="stroke: #000000"/>
     <use xlink:href="#m805bb1ea4a" x="162.570753" y="157.423735" style="stroke: #000000"/>
     <use xlink:href="#m805bb1ea4a" x="280.847205" y="192.761521" style="stroke: #000000"/>
     <use xlink:href="#m805bb1ea4a" x="287.918046" y="179.34407" style="stroke: #000000"/>
     <use xlink:href="#m805bb1ea4a" x="289.280589" y="191.359214" style="stroke: #000000"/>
     <use xlink:href="#m805bb1ea4a" x="284.039779" y="172.834684" style="stroke: #000000"/>
     <use xlink:href="#m805bb1ea4a" x="118.432597" y="201.51916" style="stroke: #000000"/>
     <use xlink:href="#m805bb1ea4a" x="312.813404" y="164.917134" style="stroke: #000000"/>
     <use xlink:href="#m805bb1ea4a" x="269.265609" y="170.124187" style="stroke: #000000"/>
     <use xlink:href="#m805bb1ea4a" x="246.533641" y="209.894323" style="stroke: #000000"/>
     <use xlink:href="#m805bb1ea4a" x="185.809278" y="173.810935" style="stroke: #000000"/>
     <use xlink:href="#m805bb1ea4a" x="253.410955" y="178.634121" style="stroke: #000000"/>
     <use xlink:href="#m805bb1ea4a" x="132.208957" y="198.282057" style="stroke: #000000"/>
     <use xlink:href="#m805bb1ea4a" x="278.434409" y="196.405726" style="stroke: #000000"/>
     <use xlink:href="#m805bb1ea4a" x="299.384984" y="183.082268" style="stroke: #000000"/>
     <use xlink:href="#m805bb1ea4a" x="263.08518" y="214.814544" style="stroke: #000000"/>
     <use xlink:href="#m805bb1ea4a" x="232.921856" y="178.380488" style="stroke: #000000"/>
     <use xlink:href="#m805bb1ea4a" x="253.844583" y="173.005028" style="stroke: #000000"/>
     <use xlink:href="#m805bb1ea4a" x="254.006351" y="186.415902" style="stroke: #000000"/>
     <use xlink:href="#m805bb1ea4a" x="337.723132" y="195.111141" style="stroke: #000000"/>
     <use xlink:href="#m805bb1ea4a" x="259.194115" y="166.431484" style="stroke: #000000"/>
     <use xlink:href="#m805bb1ea4a" x="240.827892" y="175.090033" style="stroke: #000000"/>
     <use xlink:href="#m805bb1ea4a" x="376.19196" y="136.005197" style="stroke: #000000"/>
     <use xlink:href="#m805bb1ea4a" x="259.770061" y="162.39876" style="stroke: #000000"/>
     <use xlink:href="#m805bb1ea4a" x="154.233683" y="202.025748" style="stroke: #000000"/>
     <use xlink:href="#m805bb1ea4a" x="286.084357" y="151.688942" style="stroke: #000000"/>
     <use xlink:href="#m805bb1ea4a" x="258.554045" y="148.53093" style="stroke: #000000"/>
     <use xlink:href="#m805bb1ea4a" x="221.845417" y="182.878073" style="stroke: #000000"/>
     <use xlink:href="#m805bb1ea4a" x="288.053242" y="166.768184" style="stroke: #000000"/>
     <use xlink:href="#m805bb1ea4a" x="258.971396" y="188.189877" style="stroke: #000000"/>
     <use xlink:href="#m805bb1ea4a" x="234.107217" y="151.858301" style="stroke: #000000"/>
     <use xlink:href="#m805bb1ea4a" x="144.751736" y="170.866097" style="stroke: #000000"/>
     <use xlink:href="#m805bb1ea4a" x="214.267348" y="222.678764" style="stroke: #000000"/>
     <use xlink:href="#m805bb1ea4a" x="266.641924" y="174.943854" style="stroke: #000000"/>
     <use xlink:href="#m805bb1ea4a" x="356.843477" y="171.376923" style="stroke: #000000"/>
     <use xlink:href="#m805bb1ea4a" x="271.685887" y="199.891128" style="stroke: #000000"/>
     <use xlink:href="#m805bb1ea4a" x="255.912926" y="168.192907" style="stroke: #000000"/>
     <use xlink:href="#m805bb1ea4a" x="334.636699" y="217.761637" style="stroke: #000000"/>
     <use xlink:href="#m805bb1ea4a" x="250.694563" y="193.959659" style="stroke: #000000"/>
     <use xlink:href="#m805bb1ea4a" x="203.719098" y="163.895138" style="stroke: #000000"/>
     <use xlink:href="#m805bb1ea4a" x="230.060371" y="188.051715" style="stroke: #000000"/>
     <use xlink:href="#m805bb1ea4a" x="199.025228" y="176.075097" style="stroke: #000000"/>
     <use xlink:href="#m805bb1ea4a" x="242.923744" y="151.002647" style="stroke: #000000"/>
     <use xlink:href="#m805bb1ea4a" x="257.507467" y="192.280077" style="stroke: #000000"/>
     <use xlink:href="#m805bb1ea4a" x="235.910342" y="178.168613" style="stroke: #000000"/>
     <use xlink:href="#m805bb1ea4a" x="361.682204" y="111.578051" style="stroke: #000000"/>
     <use xlink:href="#m805bb1ea4a" x="236.094836" y="180.395441" style="stroke: #000000"/>
     <use xlink:href="#m805bb1ea4a" x="289.780806" y="195.684721" style="stroke: #000000"/>
     <use xlink:href="#m805bb1ea4a" x="254.713104" y="138.500777" style="stroke: #000000"/>
     <use xlink:href="#m805bb1ea4a" x="269.356061" y="171.607692" style="stroke: #000000"/>
     <use xlink:href="#m805bb1ea4a" x="259.673637" y="216.865858" style="stroke: #000000"/>
     <use xlink:href="#m805bb1ea4a" x="256.154414" y="159.775947" style="stroke: #000000"/>
     <use xlink:href="#m805bb1ea4a" x="296.838065" y="155.365807" style="stroke: #000000"/>
     <use xlink:href="#m805bb1ea4a" x="348.893317" y="154.381341" style="stroke: #000000"/>
     <use xlink:href="#m805bb1ea4a" x="299.476462" y="182.87149" style="stroke: #000000"/>
     <use xlink:href="#m805bb1ea4a" x="253.787624" y="174.407776" style="stroke: #000000"/>
     <use xlink:href="#m805bb1ea4a" x="248.181154" y="151.193947" style="stroke: #000000"/>
     <use xlink:href="#m805bb1ea4a" x="139.520631" y="209.026062" style="stroke: #000000"/>
     <use xlink:href="#m805bb1ea4a" x="300.160922" y="188.520056" style="stroke: #000000"/>
    </g>
   </g>
   <g id="PathCollection_11">
    <defs>
     <path id="m16e6b4c47f" d="M -3 -0 
L 3 3 
L 3 -3 
z
" style="stroke: #ff8c00"/>
    </defs>
    <g clip-path="url(#p84e2946a42)">
     <use xlink:href="#m16e6b4c47f" x="230.188968" y="175.134581" style="fill: #ff8c00; stroke: #ff8c00"/>
     <use xlink:href="#m16e6b4c47f" x="224.698206" y="180.300504" style="fill: #ff8c00; stroke: #ff8c00"/>
     <use xlink:href="#m16e6b4c47f" x="207.809781" y="188.67846" style="fill: #ff8c00; stroke: #ff8c00"/>
     <use xlink:href="#m16e6b4c47f" x="169.414528" y="189.54762" style="fill: #ff8c00; stroke: #ff8c00"/>
     <use xlink:href="#m16e6b4c47f" x="179.495698" y="195.373088" style="fill: #ff8c00; stroke: #ff8c00"/>
     <use xlink:href="#m16e6b4c47f" x="233.210133" y="165.374381" style="fill: #ff8c00; stroke: #ff8c00"/>
     <use xlink:href="#m16e6b4c47f" x="198.778962" y="187.919858" style="fill: #ff8c00; stroke: #ff8c00"/>
     <use xlink:href="#m16e6b4c47f" x="224.312416" y="157.850618" style="fill: #ff8c00; stroke: #ff8c00"/>
     <use xlink:href="#m16e6b4c47f" x="211.90436" y="195.366502" style="fill: #ff8c00; stroke: #ff8c00"/>
     <use xlink:href="#m16e6b4c47f" x="208.335679" y="185.409867" style="fill: #ff8c00; stroke: #ff8c00"/>
     <use xlink:href="#m16e6b4c47f" x="199.060366" y="188.470522" style="fill: #ff8c00; stroke: #ff8c00"/>
     <use xlink:href="#m16e6b4c47f" x="226.43756" y="175.575526" style="fill: #ff8c00; stroke: #ff8c00"/>
     <use xlink:href="#m16e6b4c47f" x="207.31375" y="219.016953" style="fill: #ff8c00; stroke: #ff8c00"/>
     <use xlink:href="#m16e6b4c47f" x="199.333456" y="191.684771" style="fill: #ff8c00; stroke: #ff8c00"/>
     <use xlink:href="#m16e6b4c47f" x="189.135574" y="204.619869" style="fill: #ff8c00; stroke: #ff8c00"/>
     <use xlink:href="#m16e6b4c47f" x="309.757617" y="142.357493" style="fill: #ff8c00; stroke: #ff8c00"/>
     <use xlink:href="#m16e6b4c47f" x="230.820597" y="179.959185" style="fill: #ff8c00; stroke: #ff8c00"/>
     <use xlink:href="#m16e6b4c47f" x="245.384198" y="165.220853" style="fill: #ff8c00; stroke: #ff8c00"/>
     <use xlink:href="#m16e6b4c47f" x="251.771923" y="190.139737" style="fill: #ff8c00; stroke: #ff8c00"/>
     <use xlink:href="#m16e6b4c47f" x="231.554815" y="175.153922" style="fill: #ff8c00; stroke: #ff8c00"/>
     <use xlink:href="#m16e6b4c47f" x="239.234181" y="200.813244" style="fill: #ff8c00; stroke: #ff8c00"/>
     <use xlink:href="#m16e6b4c47f" x="265.84415" y="184.428983" style="fill: #ff8c00; stroke: #ff8c00"/>
     <use xlink:href="#m16e6b4c47f" x="221.890953" y="196.419781" style="fill: #ff8c00; stroke: #ff8c00"/>
     <use xlink:href="#m16e6b4c47f" x="207.133825" y="205.252996" style="fill: #ff8c00; stroke: #ff8c00"/>
     <use xlink:href="#m16e6b4c47f" x="179.82534" y="152.844427" style="fill: #ff8c00; stroke: #ff8c00"/>
     <use xlink:href="#m16e6b4c47f" x="191.561858" y="209.238645" style="fill: #ff8c00; stroke: #ff8c00"/>
     <use xlink:href="#m16e6b4c47f" x="221.640791" y="119.778222" style="fill: #ff8c00; stroke: #ff8c00"/>
     <use xlink:href="#m16e6b4c47f" x="215.131803" y="176.848606" style="fill: #ff8c00; stroke: #ff8c00"/>
     <use xlink:href="#m16e6b4c47f" x="198.739699" y="184.947389" style="fill: #ff8c00; stroke: #ff8c00"/>
     <use xlink:href="#m16e6b4c47f" x="241.516185" y="201.485928" style="fill: #ff8c00; stroke: #ff8c00"/>
     <use xlink:href="#m16e6b4c47f" x="178.511943" y="200.669796" style="fill: #ff8c00; stroke: #ff8c00"/>
     <use xlink:href="#m16e6b4c47f" x="230.689105" y="212.561573" style="fill: #ff8c00; stroke: #ff8c00"/>
     <use xlink:href="#m16e6b4c47f" x="208.606519" y="150.155307" style="fill: #ff8c00; stroke: #ff8c00"/>
     <use xlink:href="#m16e6b4c47f" x="282.570784" y="186.698418" style="fill: #ff8c00; stroke: #ff8c00"/>
     <use xlink:href="#m16e6b4c47f" x="279.12834" y="167.241794" style="fill: #ff8c00; stroke: #ff8c00"/>
     <use xlink:href="#m16e6b4c47f" x="312.136228" y="166.830749" style="fill: #ff8c00; stroke: #ff8c00"/>
     <use xlink:href="#m16e6b4c47f" x="257.719009" y="157.052544" style="fill: #ff8c00; stroke: #ff8c00"/>
     <use xlink:href="#m16e6b4c47f" x="224.630826" y="210.993367" style="fill: #ff8c00; stroke: #ff8c00"/>
     <use xlink:href="#m16e6b4c47f" x="222.784789" y="162.640685" style="fill: #ff8c00; stroke: #ff8c00"/>
     <use xlink:href="#m16e6b4c47f" x="206.133609" y="206.169478" style="fill: #ff8c00; stroke: #ff8c00"/>
     <use xlink:href="#m16e6b4c47f" x="239.334954" y="207.540101" style="fill: #ff8c00; stroke: #ff8c00"/>
     <use xlink:href="#m16e6b4c47f" x="178.197989" y="197.835761" style="fill: #ff8c00; stroke: #ff8c00"/>
     <use xlink:href="#m16e6b4c47f" x="230.303951" y="186.363269" style="fill: #ff8c00; stroke: #ff8c00"/>
     <use xlink:href="#m16e6b4c47f" x="186.632483" y="186.888778" style="fill: #ff8c00; stroke: #ff8c00"/>
     <use xlink:href="#m16e6b4c47f" x="296.921043" y="171.792347" style="fill: #ff8c00; stroke: #ff8c00"/>
     <use xlink:href="#m16e6b4c47f" x="237.622873" y="168.63817" style="fill: #ff8c00; stroke: #ff8c00"/>
     <use xlink:href="#m16e6b4c47f" x="160.686696" y="186.369096" style="fill: #ff8c00; stroke: #ff8c00"/>
     <use xlink:href="#m16e6b4c47f" x="217.34661" y="176.151901" style="fill: #ff8c00; stroke: #ff8c00"/>
     <use xlink:href="#m16e6b4c47f" x="229.693013" y="139.410191" style="fill: #ff8c00; stroke: #ff8c00"/>
     <use xlink:href="#m16e6b4c47f" x="221.989691" y="150.161812" style="fill: #ff8c00; stroke: #ff8c00"/>
     <use xlink:href="#m16e6b4c47f" x="192.065256" y="168.638683" style="fill: #ff8c00; stroke: #ff8c00"/>
     <use xlink:href="#m16e6b4c47f" x="241.476032" y="171.103342" style="fill: #ff8c00; stroke: #ff8c00"/>
     <use xlink:href="#m16e6b4c47f" x="242.92244" y="159.07418" style="fill: #ff8c00; stroke: #ff8c00"/>
     <use xlink:href="#m16e6b4c47f" x="200.676276" y="199.990343" style="fill: #ff8c00; stroke: #ff8c00"/>
     <use xlink:href="#m16e6b4c47f" x="257.458254" y="177.06578" style="fill: #ff8c00; stroke: #ff8c00"/>
     <use xlink:href="#m16e6b4c47f" x="230.303951" y="186.363269" style="fill: #ff8c00; stroke: #ff8c00"/>
     <use xlink:href="#m16e6b4c47f" x="209.47757" y="207.274267" style="fill: #ff8c00; stroke: #ff8c00"/>
     <use xlink:href="#m16e6b4c47f" x="241.496142" y="206.894326" style="fill: #ff8c00; stroke: #ff8c00"/>
     <use xlink:href="#m16e6b4c47f" x="201.388509" y="218.934652" style="fill: #ff8c00; stroke: #ff8c00"/>
     <use xlink:href="#m16e6b4c47f" x="198.592113" y="198.583068" style="fill: #ff8c00; stroke: #ff8c00"/>
     <use xlink:href="#m16e6b4c47f" x="282.376609" y="206.419528" style="fill: #ff8c00; stroke: #ff8c00"/>
     <use xlink:href="#m16e6b4c47f" x="228.204446" y="193.697518" style="fill: #ff8c00; stroke: #ff8c00"/>
     <use xlink:href="#m16e6b4c47f" x="186.571226" y="190.271433" style="fill: #ff8c00; stroke: #ff8c00"/>
     <use xlink:href="#m16e6b4c47f" x="210.302501" y="161.993517" style="fill: #ff8c00; stroke: #ff8c00"/>
    </g>
   </g>
   <g id="matplotlib.axis_1">
    <g id="xtick_1">
     <g id="line2d_1">
      <defs>
       <path id="mb7ce67495c" d="M 0 0 
L 0 3.5 
" style="stroke: #000000; stroke-width: 0.8"/>
      </defs>
      <g>
       <use xlink:href="#mb7ce67495c" x="70.561352" y="273.312" style="stroke: #000000; stroke-width: 0.8"/>
      </g>
     </g>
     <g id="text_1">
      <!-- −15 -->
      <g transform="translate(60.009009 287.910437) scale(0.1 -0.1)">
       <defs>
        <path id="DejaVuSans-2212" d="M 678 2272 
L 4684 2272 
L 4684 1741 
L 678 1741 
L 678 2272 
z
" transform="scale(0.015625)"/>
        <path id="DejaVuSans-31" d="M 794 531 
L 1825 531 
L 1825 4091 
L 703 3866 
L 703 4441 
L 1819 4666 
L 2450 4666 
L 2450 531 
L 3481 531 
L 3481 0 
L 794 0 
L 794 531 
z
" transform="scale(0.015625)"/>
        <path id="DejaVuSans-35" d="M 691 4666 
L 3169 4666 
L 3169 4134 
L 1269 4134 
L 1269 2991 
Q 1406 3038 1543 3061 
Q 1681 3084 1819 3084 
Q 2600 3084 3056 2656 
Q 3513 2228 3513 1497 
Q 3513 744 3044 326 
Q 2575 -91 1722 -91 
Q 1428 -91 1123 -41 
Q 819 9 494 109 
L 494 744 
Q 775 591 1075 516 
Q 1375 441 1709 441 
Q 2250 441 2565 725 
Q 2881 1009 2881 1497 
Q 2881 1984 2565 2268 
Q 2250 2553 1709 2553 
Q 1456 2553 1204 2497 
Q 953 2441 691 2322 
L 691 4666 
z
" transform="scale(0.015625)"/>
       </defs>
       <use xlink:href="#DejaVuSans-2212"/>
       <use xlink:href="#DejaVuSans-31" x="83.789062"/>
       <use xlink:href="#DejaVuSans-35" x="147.412109"/>
      </g>
     </g>
    </g>
    <g id="xtick_2">
     <g id="line2d_2">
      <g>
       <use xlink:href="#mb7ce67495c" x="112.251763" y="273.312" style="stroke: #000000; stroke-width: 0.8"/>
      </g>
     </g>
     <g id="text_2">
      <!-- −10 -->
      <g transform="translate(101.699419 287.910437) scale(0.1 -0.1)">
       <defs>
        <path id="DejaVuSans-30" d="M 2034 4250 
Q 1547 4250 1301 3770 
Q 1056 3291 1056 2328 
Q 1056 1369 1301 889 
Q 1547 409 2034 409 
Q 2525 409 2770 889 
Q 3016 1369 3016 2328 
Q 3016 3291 2770 3770 
Q 2525 4250 2034 4250 
z
M 2034 4750 
Q 2819 4750 3233 4129 
Q 3647 3509 3647 2328 
Q 3647 1150 3233 529 
Q 2819 -91 2034 -91 
Q 1250 -91 836 529 
Q 422 1150 422 2328 
Q 422 3509 836 4129 
Q 1250 4750 2034 4750 
z
" transform="scale(0.015625)"/>
       </defs>
       <use xlink:href="#DejaVuSans-2212"/>
       <use xlink:href="#DejaVuSans-31" x="83.789062"/>
       <use xlink:href="#DejaVuSans-30" x="147.412109"/>
      </g>
     </g>
    </g>
    <g id="xtick_3">
     <g id="line2d_3">
      <g>
       <use xlink:href="#mb7ce67495c" x="153.942173" y="273.312" style="stroke: #000000; stroke-width: 0.8"/>
      </g>
     </g>
     <g id="text_3">
      <!-- −5 -->
      <g transform="translate(146.57108 287.910437) scale(0.1 -0.1)">
       <use xlink:href="#DejaVuSans-2212"/>
       <use xlink:href="#DejaVuSans-35" x="83.789062"/>
      </g>
     </g>
    </g>
    <g id="xtick_4">
     <g id="line2d_4">
      <g>
       <use xlink:href="#mb7ce67495c" x="195.632584" y="273.312" style="stroke: #000000; stroke-width: 0.8"/>
      </g>
     </g>
     <g id="text_4">
      <!-- 0 -->
      <g transform="translate(192.451334 287.910437) scale(0.1 -0.1)">
       <use xlink:href="#DejaVuSans-30"/>
      </g>
     </g>
    </g>
    <g id="xtick_5">
     <g id="line2d_5">
      <g>
       <use xlink:href="#mb7ce67495c" x="237.322994" y="273.312" style="stroke: #000000; stroke-width: 0.8"/>
      </g>
     </g>
     <g id="text_5">
      <!-- 5 -->
      <g transform="translate(234.141744 287.910437) scale(0.1 -0.1)">
       <use xlink:href="#DejaVuSans-35"/>
      </g>
     </g>
    </g>
    <g id="xtick_6">
     <g id="line2d_6">
      <g>
       <use xlink:href="#mb7ce67495c" x="279.013405" y="273.312" style="stroke: #000000; stroke-width: 0.8"/>
      </g>
     </g>
     <g id="text_6">
      <!-- 10 -->
      <g transform="translate(272.650905 287.910437) scale(0.1 -0.1)">
       <use xlink:href="#DejaVuSans-31"/>
       <use xlink:href="#DejaVuSans-30" x="63.623047"/>
      </g>
     </g>
    </g>
    <g id="xtick_7">
     <g id="line2d_7">
      <g>
       <use xlink:href="#mb7ce67495c" x="320.703815" y="273.312" style="stroke: #000000; stroke-width: 0.8"/>
      </g>
     </g>
     <g id="text_7">
      <!-- 15 -->
      <g transform="translate(314.341315 287.910437) scale(0.1 -0.1)">
       <use xlink:href="#DejaVuSans-31"/>
       <use xlink:href="#DejaVuSans-35" x="63.623047"/>
      </g>
     </g>
    </g>
    <g id="xtick_8">
     <g id="line2d_8">
      <g>
       <use xlink:href="#mb7ce67495c" x="362.394226" y="273.312" style="stroke: #000000; stroke-width: 0.8"/>
      </g>
     </g>
     <g id="text_8">
      <!-- 20 -->
      <g transform="translate(356.031726 287.910437) scale(0.1 -0.1)">
       <defs>
        <path id="DejaVuSans-32" d="M 1228 531 
L 3431 531 
L 3431 0 
L 469 0 
L 469 531 
Q 828 903 1448 1529 
Q 2069 2156 2228 2338 
Q 2531 2678 2651 2914 
Q 2772 3150 2772 3378 
Q 2772 3750 2511 3984 
Q 2250 4219 1831 4219 
Q 1534 4219 1204 4116 
Q 875 4013 500 3803 
L 500 4441 
Q 881 4594 1212 4672 
Q 1544 4750 1819 4750 
Q 2544 4750 2975 4387 
Q 3406 4025 3406 3419 
Q 3406 3131 3298 2873 
Q 3191 2616 2906 2266 
Q 2828 2175 2409 1742 
Q 1991 1309 1228 531 
z
" transform="scale(0.015625)"/>
       </defs>
       <use xlink:href="#DejaVuSans-32"/>
       <use xlink:href="#DejaVuSans-30" x="63.623047"/>
      </g>
     </g>
    </g>
   </g>
   <g id="matplotlib.axis_2">
    <g id="ytick_1">
     <g id="line2d_9">
      <defs>
       <path id="m892c44753a" d="M 0 0 
L -3.5 0 
" style="stroke: #000000; stroke-width: 0.8"/>
      </defs>
      <g>
       <use xlink:href="#m892c44753a" x="35.304688" y="259.631243" style="stroke: #000000; stroke-width: 0.8"/>
      </g>
     </g>
     <g id="text_9">
      <!-- −20 -->
      <g transform="translate(7.2 263.430462) scale(0.1 -0.1)">
       <use xlink:href="#DejaVuSans-2212"/>
       <use xlink:href="#DejaVuSans-32" x="83.789062"/>
       <use xlink:href="#DejaVuSans-30" x="147.412109"/>
      </g>
     </g>
    </g>
    <g id="ytick_2">
     <g id="line2d_10">
      <g>
       <use xlink:href="#m892c44753a" x="35.304688" y="217.28037" style="stroke: #000000; stroke-width: 0.8"/>
      </g>
     </g>
     <g id="text_10">
      <!-- −10 -->
      <g transform="translate(7.2 221.079589) scale(0.1 -0.1)">
       <use xlink:href="#DejaVuSans-2212"/>
       <use xlink:href="#DejaVuSans-31" x="83.789062"/>
       <use xlink:href="#DejaVuSans-30" x="147.412109"/>
      </g>
     </g>
    </g>
    <g id="ytick_3">
     <g id="line2d_11">
      <g>
       <use xlink:href="#m892c44753a" x="35.304688" y="174.929497" style="stroke: #000000; stroke-width: 0.8"/>
      </g>
     </g>
     <g id="text_11">
      <!-- 0 -->
      <g transform="translate(21.942187 178.728716) scale(0.1 -0.1)">
       <use xlink:href="#DejaVuSans-30"/>
      </g>
     </g>
    </g>
    <g id="ytick_4">
     <g id="line2d_12">
      <g>
       <use xlink:href="#m892c44753a" x="35.304688" y="132.578624" style="stroke: #000000; stroke-width: 0.8"/>
      </g>
     </g>
     <g id="text_12">
      <!-- 10 -->
      <g transform="translate(15.579687 136.377843) scale(0.1 -0.1)">
       <use xlink:href="#DejaVuSans-31"/>
       <use xlink:href="#DejaVuSans-30" x="63.623047"/>
      </g>
     </g>
    </g>
    <g id="ytick_5">
     <g id="line2d_13">
      <g>
       <use xlink:href="#m892c44753a" x="35.304688" y="90.227751" style="stroke: #000000; stroke-width: 0.8"/>
      </g>
     </g>
     <g id="text_13">
      <!-- 20 -->
      <g transform="translate(15.579687 94.02697) scale(0.1 -0.1)">
       <use xlink:href="#DejaVuSans-32"/>
       <use xlink:href="#DejaVuSans-30" x="63.623047"/>
      </g>
     </g>
    </g>
    <g id="ytick_6">
     <g id="line2d_14">
      <g>
       <use xlink:href="#m892c44753a" x="35.304688" y="47.876878" style="stroke: #000000; stroke-width: 0.8"/>
      </g>
     </g>
     <g id="text_14">
      <!-- 30 -->
      <g transform="translate(15.579687 51.676097) scale(0.1 -0.1)">
       <defs>
        <path id="DejaVuSans-33" d="M 2597 2516 
Q 3050 2419 3304 2112 
Q 3559 1806 3559 1356 
Q 3559 666 3084 287 
Q 2609 -91 1734 -91 
Q 1441 -91 1130 -33 
Q 819 25 488 141 
L 488 750 
Q 750 597 1062 519 
Q 1375 441 1716 441 
Q 2309 441 2620 675 
Q 2931 909 2931 1356 
Q 2931 1769 2642 2001 
Q 2353 2234 1838 2234 
L 1294 2234 
L 1294 2753 
L 1863 2753 
Q 2328 2753 2575 2939 
Q 2822 3125 2822 3475 
Q 2822 3834 2567 4026 
Q 2313 4219 1838 4219 
Q 1578 4219 1281 4162 
Q 984 4106 628 3988 
L 628 4550 
Q 988 4650 1302 4700 
Q 1616 4750 1894 4750 
Q 2613 4750 3031 4423 
Q 3450 4097 3450 3541 
Q 3450 3153 3228 2886 
Q 3006 2619 2597 2516 
z
" transform="scale(0.015625)"/>
       </defs>
       <use xlink:href="#DejaVuSans-33"/>
       <use xlink:href="#DejaVuSans-30" x="63.623047"/>
      </g>
     </g>
    </g>
   </g>
   <g id="patch_3">
    <path d="M 35.304688 273.312 
L 35.304688 7.2 
" style="fill: none; stroke: #000000; stroke-width: 0.8; stroke-linejoin: miter; stroke-linecap: square"/>
   </g>
   <g id="patch_4">
    <path d="M 392.424688 273.312 
L 392.424688 7.2 
" style="fill: none; stroke: #000000; stroke-width: 0.8; stroke-linejoin: miter; stroke-linecap: square"/>
   </g>
   <g id="patch_5">
    <path d="M 35.304688 273.312 
L 392.424688 273.312 
" style="fill: none; stroke: #000000; stroke-width: 0.8; stroke-linejoin: miter; stroke-linecap: square"/>
   </g>
   <g id="patch_6">
    <path d="M 35.304688 7.2 
L 392.424688 7.2 
" style="fill: none; stroke: #000000; stroke-width: 0.8; stroke-linejoin: miter; stroke-linecap: square"/>
   </g>
  </g>
 </g>
 <defs>
  <clipPath id="p84e2946a42">
   <rect x="35.304688" y="7.2" width="357.12" height="266.112"/>
  </clipPath>
 </defs>
</svg>
