<?xml version="1.0" encoding="utf-8" standalone="no"?>
<!DOCTYPE svg PUBLIC "-//W3C//DTD SVG 1.1//EN"
  "http://www.w3.org/Graphics/SVG/1.1/DTD/svg11.dtd">
<svg xmlns:xlink="http://www.w3.org/1999/xlink" width="399.624687pt" height="297.190125pt" viewBox="0 0 399.624687 297.190125" xmlns="http://www.w3.org/2000/svg" version="1.1">
 <metadata>
  <rdf:RDF xmlns:dc="http://purl.org/dc/elements/1.1/" xmlns:cc="http://creativecommons.org/ns#" xmlns:rdf="http://www.w3.org/1999/02/22-rdf-syntax-ns#">
   <cc:Work>
    <dc:type rdf:resource="http://purl.org/dc/dcmitype/StillImage"/>
    <dc:date>2023-11-13T09:46:26.211087</dc:date>
    <dc:format>image/svg+xml</dc:format>
    <dc:creator>
     <cc:Agent>
      <dc:title>Matplotlib v3.8.0, https://matplotlib.org/</dc:title>
     </cc:Agent>
    </dc:creator>
   </cc:Work>
  </rdf:RDF>
 </metadata>
 <defs>
  <style type="text/css">*{stroke-linejoin: round; stroke-linecap: butt}</style>
 </defs>
 <g id="figure_1">
  <g id="patch_1">
   <path d="M 0 297.190125 
L 399.624687 297.190125 
L 399.624687 0 
L 0 0 
z
" style="fill: #ffffff"/>
  </g>
  <g id="axes_1">
   <g id="patch_2">
    <path d="M 35.304688 273.312 
L 392.424688 273.312 
L 392.424688 7.2 
L 35.304688 7.2 
z
" style="fill: #ffffff"/>
   </g>
   <g id="PathCollection_1">
    <defs>
     <path id="mcdd154f752" d="M 0 1.5 
C 0.397805 1.5 0.77937 1.341951 1.06066 1.06066 
C 1.341951 0.77937 1.5 0.397805 1.5 0 
C 1.5 -0.397805 1.341951 -0.77937 1.06066 -1.06066 
C 0.77937 -1.341951 0.397805 -1.5 0 -1.5 
C -0.397805 -1.5 -0.77937 -1.341951 -1.06066 -1.06066 
C -1.341951 -0.77937 -1.5 -0.397805 -1.5 0 
C -1.5 0.397805 -1.341951 0.77937 -1.06066 1.06066 
C -0.77937 1.341951 -0.397805 1.5 0 1.5 
z
" style="stroke: #ff8c00"/>
    </defs>
    <g clip-path="url(#p9500bd319c)">
     <use xlink:href="#mcdd154f752" x="86.061805" y="257.184306" style="fill: #ff8c00; stroke: #ff8c00"/>
     <use xlink:href="#mcdd154f752" x="119.991397" y="245.076326" style="fill: #ff8c00; stroke: #ff8c00"/>
     <use xlink:href="#mcdd154f752" x="123.240476" y="222.858846" style="fill: #ff8c00; stroke: #ff8c00"/>
     <use xlink:href="#mcdd154f752" x="68.895132" y="237.86756" style="fill: #ff8c00; stroke: #ff8c00"/>
     <use xlink:href="#mcdd154f752" x="173.123467" y="225.641926" style="fill: #ff8c00; stroke: #ff8c00"/>
     <use xlink:href="#mcdd154f752" x="104.75211" y="236.431915" style="fill: #ff8c00; stroke: #ff8c00"/>
     <use xlink:href="#mcdd154f752" x="140.711705" y="230.635116" style="fill: #ff8c00; stroke: #ff8c00"/>
     <use xlink:href="#mcdd154f752" x="106.410239" y="203.534205" style="fill: #ff8c00; stroke: #ff8c00"/>
     <use xlink:href="#mcdd154f752" x="101.695696" y="249.138258" style="fill: #ff8c00; stroke: #ff8c00"/>
     <use xlink:href="#mcdd154f752" x="170.323627" y="230.600385" style="fill: #ff8c00; stroke: #ff8c00"/>
     <use xlink:href="#mcdd154f752" x="133.022436" y="218.734233" style="fill: #ff8c00; stroke: #ff8c00"/>
     <use xlink:href="#mcdd154f752" x="122.166776" y="201.382518" style="fill: #ff8c00; stroke: #ff8c00"/>
     <use xlink:href="#mcdd154f752" x="147.202414" y="212.723698" style="fill: #ff8c00; stroke: #ff8c00"/>
     <use xlink:href="#mcdd154f752" x="147.212295" y="167.170908" style="fill: #ff8c00; stroke: #ff8c00"/>
     <use xlink:href="#mcdd154f752" x="85.821438" y="242.345056" style="fill: #ff8c00; stroke: #ff8c00"/>
     <use xlink:href="#mcdd154f752" x="99.891925" y="214.634658" style="fill: #ff8c00; stroke: #ff8c00"/>
     <use xlink:href="#mcdd154f752" x="125.798215" y="241.719868" style="fill: #ff8c00; stroke: #ff8c00"/>
     <use xlink:href="#mcdd154f752" x="270.139667" y="182.299939" style="fill: #ff8c00; stroke: #ff8c00"/>
     <use xlink:href="#mcdd154f752" x="95.188037" y="165.8166" style="fill: #ff8c00; stroke: #ff8c00"/>
     <use xlink:href="#mcdd154f752" x="172.378948" y="204.502618" style="fill: #ff8c00; stroke: #ff8c00"/>
     <use xlink:href="#mcdd154f752" x="149.470627" y="210.939564" style="fill: #ff8c00; stroke: #ff8c00"/>
     <use xlink:href="#mcdd154f752" x="116.254258" y="222.237119" style="fill: #ff8c00; stroke: #ff8c00"/>
     <use xlink:href="#mcdd154f752" x="153.295187" y="231.397336" style="fill: #ff8c00; stroke: #ff8c00"/>
     <use xlink:href="#mcdd154f752" x="108.820712" y="239.799886" style="fill: #ff8c00; stroke: #ff8c00"/>
     <use xlink:href="#mcdd154f752" x="108.799837" y="187.538061" style="fill: #ff8c00; stroke: #ff8c00"/>
     <use xlink:href="#mcdd154f752" x="165.094507" y="216.624553" style="fill: #ff8c00; stroke: #ff8c00"/>
    </g>
   </g>
   <g id="PathCollection_2">
    <defs>
     <path id="m34b5e6e80c" d="M 0 1.5 
C 0.397805 1.5 0.77937 1.341951 1.06066 1.06066 
C 1.341951 0.77937 1.5 0.397805 1.5 0 
C 1.5 -0.397805 1.341951 -0.77937 1.06066 -1.06066 
C 0.77937 -1.341951 0.397805 -1.5 0 -1.5 
C -0.397805 -1.5 -0.77937 -1.341951 -1.06066 -1.06066 
C -1.341951 -0.77937 -1.5 -0.397805 -1.5 0 
C -1.5 0.397805 -1.341951 0.77937 -1.06066 1.06066 
C -0.77937 1.341951 -0.397805 1.5 0 1.5 
z
" style="stroke: #006400"/>
    </defs>
    <g clip-path="url(#p9500bd319c)">
     <use xlink:href="#m34b5e6e80c" x="77.47901" y="19.296" style="fill: #006400; stroke: #006400"/>
     <use xlink:href="#m34b5e6e80c" x="61.99658" y="79.450037" style="fill: #006400; stroke: #006400"/>
     <use xlink:href="#m34b5e6e80c" x="123.488902" y="182.207755" style="fill: #006400; stroke: #006400"/>
     <use xlink:href="#m34b5e6e80c" x="195.56825" y="169.110649" style="fill: #006400; stroke: #006400"/>
     <use xlink:href="#m34b5e6e80c" x="59.460237" y="182.501249" style="fill: #006400; stroke: #006400"/>
     <use xlink:href="#m34b5e6e80c" x="175.081057" y="159.075285" style="fill: #006400; stroke: #006400"/>
     <use xlink:href="#m34b5e6e80c" x="119.647167" y="141.981806" style="fill: #006400; stroke: #006400"/>
     <use xlink:href="#m34b5e6e80c" x="98.208304" y="227.336343" style="fill: #006400; stroke: #006400"/>
     <use xlink:href="#m34b5e6e80c" x="65.22534" y="65.390014" style="fill: #006400; stroke: #006400"/>
     <use xlink:href="#m34b5e6e80c" x="116.192535" y="212.566312" style="fill: #006400; stroke: #006400"/>
     <use xlink:href="#m34b5e6e80c" x="162.394003" y="226.160151" style="fill: #006400; stroke: #006400"/>
    </g>
   </g>
   <g id="PathCollection_3">
    <defs>
     <path id="m85ae15e1db" d="M 0 1.5 
C 0.397805 1.5 0.77937 1.341951 1.06066 1.06066 
C 1.341951 0.77937 1.5 0.397805 1.5 0 
C 1.5 -0.397805 1.341951 -0.77937 1.06066 -1.06066 
C 0.77937 -1.341951 0.397805 -1.5 0 -1.5 
C -0.397805 -1.5 -0.77937 -1.341951 -1.06066 -1.06066 
C -1.341951 -0.77937 -1.5 -0.397805 -1.5 0 
C -1.5 0.397805 -1.341951 0.77937 -1.06066 1.06066 
C -0.77937 1.341951 -0.397805 1.5 0 1.5 
z
" style="stroke: #2f4f4f"/>
    </defs>
    <g clip-path="url(#p9500bd319c)">
     <use xlink:href="#m85ae15e1db" x="158.884394" y="216.454613" style="fill: #2f4f4f; stroke: #2f4f4f"/>
     <use xlink:href="#m85ae15e1db" x="178.833327" y="224.833984" style="fill: #2f4f4f; stroke: #2f4f4f"/>
     <use xlink:href="#m85ae15e1db" x="200.339022" y="238.310361" style="fill: #2f4f4f; stroke: #2f4f4f"/>
     <use xlink:href="#m85ae15e1db" x="180.811896" y="256.374343" style="fill: #2f4f4f; stroke: #2f4f4f"/>
     <use xlink:href="#m85ae15e1db" x="225.442369" y="204.974206" style="fill: #2f4f4f; stroke: #2f4f4f"/>
     <use xlink:href="#m85ae15e1db" x="194.619071" y="199.650763" style="fill: #2f4f4f; stroke: #2f4f4f"/>
     <use xlink:href="#m85ae15e1db" x="121.470986" y="179.337788" style="fill: #2f4f4f; stroke: #2f4f4f"/>
     <use xlink:href="#m85ae15e1db" x="293.207415" y="162.652455" style="fill: #2f4f4f; stroke: #2f4f4f"/>
     <use xlink:href="#m85ae15e1db" x="203.08215" y="245.553314" style="fill: #2f4f4f; stroke: #2f4f4f"/>
     <use xlink:href="#m85ae15e1db" x="92.981626" y="192.184105" style="fill: #2f4f4f; stroke: #2f4f4f"/>
     <use xlink:href="#m85ae15e1db" x="178.660832" y="225.057796" style="fill: #2f4f4f; stroke: #2f4f4f"/>
     <use xlink:href="#m85ae15e1db" x="188.86696" y="226.044685" style="fill: #2f4f4f; stroke: #2f4f4f"/>
     <use xlink:href="#m85ae15e1db" x="200.809412" y="169.927381" style="fill: #2f4f4f; stroke: #2f4f4f"/>
     <use xlink:href="#m85ae15e1db" x="231.371843" y="192.256497" style="fill: #2f4f4f; stroke: #2f4f4f"/>
     <use xlink:href="#m85ae15e1db" x="179.495778" y="203.359931" style="fill: #2f4f4f; stroke: #2f4f4f"/>
     <use xlink:href="#m85ae15e1db" x="152.930725" y="228.661359" style="fill: #2f4f4f; stroke: #2f4f4f"/>
    </g>
   </g>
   <g id="PathCollection_4">
    <defs>
     <path id="me882846443" d="M 0 1.5 
C 0.397805 1.5 0.77937 1.341951 1.06066 1.06066 
C 1.341951 0.77937 1.5 0.397805 1.5 0 
C 1.5 -0.397805 1.341951 -0.77937 1.06066 -1.06066 
C 0.77937 -1.341951 0.397805 -1.5 0 -1.5 
C -0.397805 -1.5 -0.77937 -1.341951 -1.06066 -1.06066 
C -1.341951 -0.77937 -1.5 -0.397805 -1.5 0 
C -1.5 0.397805 -1.341951 0.77937 -1.06066 1.06066 
C -0.77937 1.341951 -0.397805 1.5 0 1.5 
z
" style="stroke: #00bfff"/>
    </defs>
    <g clip-path="url(#p9500bd319c)">
     <use xlink:href="#me882846443" x="192.661383" y="224.538263" style="fill: #00bfff; stroke: #00bfff"/>
     <use xlink:href="#me882846443" x="251.739572" y="211.209625" style="fill: #00bfff; stroke: #00bfff"/>
     <use xlink:href="#me882846443" x="185.024867" y="206.10071" style="fill: #00bfff; stroke: #00bfff"/>
     <use xlink:href="#me882846443" x="169.846347" y="182.100086" style="fill: #00bfff; stroke: #00bfff"/>
     <use xlink:href="#me882846443" x="218.424731" y="223.380768" style="fill: #00bfff; stroke: #00bfff"/>
     <use xlink:href="#me882846443" x="289.730598" y="234.997818" style="fill: #00bfff; stroke: #00bfff"/>
     <use xlink:href="#me882846443" x="221.240102" y="222.836498" style="fill: #00bfff; stroke: #00bfff"/>
     <use xlink:href="#me882846443" x="179.393388" y="218.122377" style="fill: #00bfff; stroke: #00bfff"/>
     <use xlink:href="#me882846443" x="229.407212" y="194.631881" style="fill: #00bfff; stroke: #00bfff"/>
     <use xlink:href="#me882846443" x="217.208993" y="235.583849" style="fill: #00bfff; stroke: #00bfff"/>
     <use xlink:href="#me882846443" x="205.354393" y="178.013362" style="fill: #00bfff; stroke: #00bfff"/>
     <use xlink:href="#me882846443" x="192.247117" y="223.303362" style="fill: #00bfff; stroke: #00bfff"/>
     <use xlink:href="#me882846443" x="203.060856" y="216.268374" style="fill: #00bfff; stroke: #00bfff"/>
     <use xlink:href="#me882846443" x="175.70688" y="261.216" style="fill: #00bfff; stroke: #00bfff"/>
     <use xlink:href="#me882846443" x="211.695528" y="225.528177" style="fill: #00bfff; stroke: #00bfff"/>
    </g>
   </g>
   <g id="PathCollection_5">
    <defs>
     <path id="m3290c80a84" d="M 0 1.5 
C 0.397805 1.5 0.77937 1.341951 1.06066 1.06066 
C 1.341951 0.77937 1.5 0.397805 1.5 0 
C 1.5 -0.397805 1.341951 -0.77937 1.06066 -1.06066 
C 0.77937 -1.341951 0.397805 -1.5 0 -1.5 
C -0.397805 -1.5 -0.77937 -1.341951 -1.06066 -1.06066 
C -1.341951 -0.77937 -1.5 -0.397805 -1.5 0 
C -1.5 0.397805 -1.341951 0.77937 -1.06066 1.06066 
C -0.77937 1.341951 -0.397805 1.5 0 1.5 
z
" style="stroke: #ffff00"/>
    </defs>
    <g clip-path="url(#p9500bd319c)">
     <use xlink:href="#m3290c80a84" x="118.165343" y="203.68293" style="fill: #ffff00; stroke: #ffff00"/>
     <use xlink:href="#m3290c80a84" x="154.553741" y="224.309589" style="fill: #ffff00; stroke: #ffff00"/>
     <use xlink:href="#m3290c80a84" x="149.976583" y="204.578433" style="fill: #ffff00; stroke: #ffff00"/>
     <use xlink:href="#m3290c80a84" x="151.644022" y="240.850696" style="fill: #ffff00; stroke: #ffff00"/>
     <use xlink:href="#m3290c80a84" x="191.350887" y="209.91278" style="fill: #ffff00; stroke: #ffff00"/>
     <use xlink:href="#m3290c80a84" x="223.762137" y="211.910154" style="fill: #ffff00; stroke: #ffff00"/>
     <use xlink:href="#m3290c80a84" x="148.355074" y="150.368952" style="fill: #ffff00; stroke: #ffff00"/>
     <use xlink:href="#m3290c80a84" x="183.667842" y="219.646342" style="fill: #ffff00; stroke: #ffff00"/>
     <use xlink:href="#m3290c80a84" x="161.662825" y="204.17514" style="fill: #ffff00; stroke: #ffff00"/>
     <use xlink:href="#m3290c80a84" x="194.01407" y="233.875493" style="fill: #ffff00; stroke: #ffff00"/>
     <use xlink:href="#m3290c80a84" x="183.957546" y="253.582235" style="fill: #ffff00; stroke: #ffff00"/>
    </g>
   </g>
   <g id="PathCollection_6">
    <defs>
     <path id="m08ab542fd3" d="M 0 1.5 
C 0.397805 1.5 0.77937 1.341951 1.06066 1.06066 
C 1.341951 0.77937 1.5 0.397805 1.5 0 
C 1.5 -0.397805 1.341951 -0.77937 1.06066 -1.06066 
C 0.77937 -1.341951 0.397805 -1.5 0 -1.5 
C -0.397805 -1.5 -0.77937 -1.341951 -1.06066 -1.06066 
C -1.341951 -0.77937 -1.5 -0.397805 -1.5 0 
C -1.5 0.397805 -1.341951 0.77937 -1.06066 1.06066 
C -0.77937 1.341951 -0.397805 1.5 0 1.5 
z
" style="stroke: #00ffff"/>
    </defs>
    <g clip-path="url(#p9500bd319c)">
     <use xlink:href="#m08ab542fd3" x="170.481816" y="216.874902" style="fill: #00ffff; stroke: #00ffff"/>
     <use xlink:href="#m08ab542fd3" x="187.173697" y="241.355298" style="fill: #00ffff; stroke: #00ffff"/>
     <use xlink:href="#m08ab542fd3" x="166.1239" y="237.089726" style="fill: #00ffff; stroke: #00ffff"/>
     <use xlink:href="#m08ab542fd3" x="207.175887" y="206.080468" style="fill: #00ffff; stroke: #00ffff"/>
     <use xlink:href="#m08ab542fd3" x="136.043132" y="207.935837" style="fill: #00ffff; stroke: #00ffff"/>
     <use xlink:href="#m08ab542fd3" x="204.028582" y="239.744637" style="fill: #00ffff; stroke: #00ffff"/>
     <use xlink:href="#m08ab542fd3" x="197.330218" y="246.487474" style="fill: #00ffff; stroke: #00ffff"/>
     <use xlink:href="#m08ab542fd3" x="216.537311" y="225.301281" style="fill: #00ffff; stroke: #00ffff"/>
     <use xlink:href="#m08ab542fd3" x="145.093756" y="194.522097" style="fill: #00ffff; stroke: #00ffff"/>
     <use xlink:href="#m08ab542fd3" x="152.434104" y="216.371395" style="fill: #00ffff; stroke: #00ffff"/>
     <use xlink:href="#m08ab542fd3" x="174.89423" y="229.05294" style="fill: #00ffff; stroke: #00ffff"/>
     <use xlink:href="#m08ab542fd3" x="183.796641" y="238.70715" style="fill: #00ffff; stroke: #00ffff"/>
     <use xlink:href="#m08ab542fd3" x="154.634429" y="240.789093" style="fill: #00ffff; stroke: #00ffff"/>
     <use xlink:href="#m08ab542fd3" x="204.498807" y="198.859569" style="fill: #00ffff; stroke: #00ffff"/>
    </g>
   </g>
   <g id="PathCollection_7">
    <defs>
     <path id="m23e09b6309" d="M 0 1.5 
C 0.397805 1.5 0.77937 1.341951 1.06066 1.06066 
C 1.341951 0.77937 1.5 0.397805 1.5 0 
C 1.5 -0.397805 1.341951 -0.77937 1.06066 -1.06066 
C 0.77937 -1.341951 0.397805 -1.5 0 -1.5 
C -0.397805 -1.5 -0.77937 -1.341951 -1.06066 -1.06066 
C -1.341951 -0.77937 -1.5 -0.397805 -1.5 0 
C -1.5 0.397805 -1.341951 0.77937 -1.06066 1.06066 
C -0.77937 1.341951 -0.397805 1.5 0 1.5 
z
" style="stroke: #0000ff"/>
    </defs>
    <g clip-path="url(#p9500bd319c)">
     <use xlink:href="#m23e09b6309" x="167.537058" y="202.24043" style="fill: #0000ff; stroke: #0000ff"/>
     <use xlink:href="#m23e09b6309" x="228.523353" y="209.006792" style="fill: #0000ff; stroke: #0000ff"/>
     <use xlink:href="#m23e09b6309" x="180.799252" y="204.486867" style="fill: #0000ff; stroke: #0000ff"/>
     <use xlink:href="#m23e09b6309" x="180.799252" y="204.486867" style="fill: #0000ff; stroke: #0000ff"/>
    </g>
   </g>
   <g id="PathCollection_8">
    <defs>
     <path id="md1b1f594a7" d="M 0 1.5 
C 0.397805 1.5 0.77937 1.341951 1.06066 1.06066 
C 1.341951 0.77937 1.5 0.397805 1.5 0 
C 1.5 -0.397805 1.341951 -0.77937 1.06066 -1.06066 
C 0.77937 -1.341951 0.397805 -1.5 0 -1.5 
C -0.397805 -1.5 -0.77937 -1.341951 -1.06066 -1.06066 
C -1.341951 -0.77937 -1.5 -0.397805 -1.5 0 
C -1.5 0.397805 -1.341951 0.77937 -1.06066 1.06066 
C -0.77937 1.341951 -0.397805 1.5 0 1.5 
z
" style="stroke: #dc143c"/>
    </defs>
    <g clip-path="url(#p9500bd319c)">
     <use xlink:href="#md1b1f594a7" x="124.702016" y="225.726966" style="fill: #dc143c; stroke: #dc143c"/>
     <use xlink:href="#md1b1f594a7" x="134.307677" y="249.213998" style="fill: #dc143c; stroke: #dc143c"/>
     <use xlink:href="#md1b1f594a7" x="96.604676" y="196.878224" style="fill: #dc143c; stroke: #dc143c"/>
     <use xlink:href="#md1b1f594a7" x="156.665399" y="229.948367" style="fill: #dc143c; stroke: #dc143c"/>
     <use xlink:href="#md1b1f594a7" x="152.281702" y="176.500908" style="fill: #dc143c; stroke: #dc143c"/>
     <use xlink:href="#md1b1f594a7" x="146.467311" y="193.530822" style="fill: #dc143c; stroke: #dc143c"/>
     <use xlink:href="#md1b1f594a7" x="121.968179" y="227.114498" style="fill: #dc143c; stroke: #dc143c"/>
     <use xlink:href="#md1b1f594a7" x="51.537415" y="183.307414" style="fill: #dc143c; stroke: #dc143c"/>
     <use xlink:href="#md1b1f594a7" x="145.75784" y="214.790531" style="fill: #dc143c; stroke: #dc143c"/>
     <use xlink:href="#md1b1f594a7" x="129.447241" y="213.304118" style="fill: #dc143c; stroke: #dc143c"/>
     <use xlink:href="#md1b1f594a7" x="110.772976" y="210.414548" style="fill: #dc143c; stroke: #dc143c"/>
     <use xlink:href="#md1b1f594a7" x="145.829765" y="165.539072" style="fill: #dc143c; stroke: #dc143c"/>
     <use xlink:href="#md1b1f594a7" x="124.198118" y="199.867764" style="fill: #dc143c; stroke: #dc143c"/>
     <use xlink:href="#md1b1f594a7" x="102.80512" y="192.710458" style="fill: #dc143c; stroke: #dc143c"/>
    </g>
   </g>
   <g id="PathCollection_9">
    <defs>
     <path id="m9c9250b0f1" d="M 0 1.5 
C 0.397805 1.5 0.77937 1.341951 1.06066 1.06066 
C 1.341951 0.77937 1.5 0.397805 1.5 0 
C 1.5 -0.397805 1.341951 -0.77937 1.06066 -1.06066 
C 0.77937 -1.341951 0.397805 -1.5 0 -1.5 
C -0.397805 -1.5 -0.77937 -1.341951 -1.06066 -1.06066 
C -1.341951 -0.77937 -1.5 -0.397805 -1.5 0 
C -1.5 0.397805 -1.341951 0.77937 -1.06066 1.06066 
C -0.77937 1.341951 -0.397805 1.5 0 1.5 
z
" style="stroke: #ffe4c4"/>
    </defs>
    <g clip-path="url(#p9500bd319c)">
     <use xlink:href="#m9c9250b0f1" x="153.402858" y="209.228171" style="fill: #ffe4c4; stroke: #ffe4c4"/>
     <use xlink:href="#m9c9250b0f1" x="97.890266" y="150.699348" style="fill: #ffe4c4; stroke: #ffe4c4"/>
     <use xlink:href="#m9c9250b0f1" x="96.645943" y="206.021619" style="fill: #ffe4c4; stroke: #ffe4c4"/>
     <use xlink:href="#m9c9250b0f1" x="124.53382" y="114.791623" style="fill: #ffe4c4; stroke: #ffe4c4"/>
     <use xlink:href="#m9c9250b0f1" x="86.417397" y="163.909783" style="fill: #ffe4c4; stroke: #ffe4c4"/>
     <use xlink:href="#m9c9250b0f1" x="120.795141" y="30.739965" style="fill: #ffe4c4; stroke: #ffe4c4"/>
     <use xlink:href="#m9c9250b0f1" x="111.584739" y="139.374887" style="fill: #ffe4c4; stroke: #ffe4c4"/>
     <use xlink:href="#m9c9250b0f1" x="182.986476" y="110.359823" style="fill: #ffe4c4; stroke: #ffe4c4"/>
     <use xlink:href="#m9c9250b0f1" x="163.588303" y="165.802941" style="fill: #ffe4c4; stroke: #ffe4c4"/>
     <use xlink:href="#m9c9250b0f1" x="155.545186" y="181.59091" style="fill: #ffe4c4; stroke: #ffe4c4"/>
     <use xlink:href="#m9c9250b0f1" x="125.54426" y="178.505933" style="fill: #ffe4c4; stroke: #ffe4c4"/>
     <use xlink:href="#m9c9250b0f1" x="152.9932" y="203.615565" style="fill: #ffe4c4; stroke: #ffe4c4"/>
     <use xlink:href="#m9c9250b0f1" x="165.478284" y="140.978222" style="fill: #ffe4c4; stroke: #ffe4c4"/>
     <use xlink:href="#m9c9250b0f1" x="176.623953" y="193.503438" style="fill: #ffe4c4; stroke: #ffe4c4"/>
     <use xlink:href="#m9c9250b0f1" x="92.633861" y="67.122107" style="fill: #ffe4c4; stroke: #ffe4c4"/>
     <use xlink:href="#m9c9250b0f1" x="146.132087" y="142.175001" style="fill: #ffe4c4; stroke: #ffe4c4"/>
     <use xlink:href="#m9c9250b0f1" x="83.647649" y="111.548287" style="fill: #ffe4c4; stroke: #ffe4c4"/>
    </g>
   </g>
   <g id="PathCollection_10">
    <defs>
     <path id="mf8e0829fb5" d="M -2.99994 2.99994 
L 3.00006 2.99994 
L 3.00006 -3.00006 
L -2.99994 -3.00006 
z
" style="stroke: #000000"/>
    </defs>
    <g clip-path="url(#p9500bd319c)">
     <use xlink:href="#mf8e0829fb5" x="251.386259" y="200.228782" style="stroke: #000000"/>
     <use xlink:href="#mf8e0829fb5" x="262.254548" y="195.582154" style="stroke: #000000"/>
     <use xlink:href="#mf8e0829fb5" x="207.9045" y="222.086977" style="stroke: #000000"/>
     <use xlink:href="#mf8e0829fb5" x="209.36297" y="228.122477" style="stroke: #000000"/>
     <use xlink:href="#mf8e0829fb5" x="225.39173" y="221.237935" style="stroke: #000000"/>
     <use xlink:href="#mf8e0829fb5" x="278.123922" y="190.777061" style="stroke: #000000"/>
     <use xlink:href="#mf8e0829fb5" x="205.753488" y="196.588502" style="stroke: #000000"/>
     <use xlink:href="#mf8e0829fb5" x="283.043138" y="167.460938" style="stroke: #000000"/>
     <use xlink:href="#mf8e0829fb5" x="190.442331" y="217.833551" style="stroke: #000000"/>
     <use xlink:href="#mf8e0829fb5" x="231.731507" y="211.235286" style="stroke: #000000"/>
     <use xlink:href="#mf8e0829fb5" x="312.185854" y="198.431426" style="stroke: #000000"/>
     <use xlink:href="#mf8e0829fb5" x="204.9249" y="183.646891" style="stroke: #000000"/>
     <use xlink:href="#mf8e0829fb5" x="280.519566" y="207.41625" style="stroke: #000000"/>
     <use xlink:href="#mf8e0829fb5" x="305.867171" y="216.643814" style="stroke: #000000"/>
     <use xlink:href="#mf8e0829fb5" x="231.28215" y="221.100499" style="stroke: #000000"/>
     <use xlink:href="#mf8e0829fb5" x="195.224963" y="195.069891" style="stroke: #000000"/>
     <use xlink:href="#mf8e0829fb5" x="243.323466" y="211.377978" style="stroke: #000000"/>
     <use xlink:href="#mf8e0829fb5" x="184.658916" y="193.850762" style="stroke: #000000"/>
     <use xlink:href="#mf8e0829fb5" x="250.80149" y="187.007886" style="stroke: #000000"/>
     <use xlink:href="#mf8e0829fb5" x="345.392297" y="120.671694" style="stroke: #000000"/>
     <use xlink:href="#mf8e0829fb5" x="282.444933" y="184.308087" style="stroke: #000000"/>
     <use xlink:href="#mf8e0829fb5" x="332.549107" y="136.348348" style="stroke: #000000"/>
     <use xlink:href="#mf8e0829fb5" x="163.523379" y="248.141341" style="stroke: #000000"/>
     <use xlink:href="#mf8e0829fb5" x="376.19196" y="130.040362" style="stroke: #000000"/>
     <use xlink:href="#mf8e0829fb5" x="235.710081" y="207.010298" style="stroke: #000000"/>
     <use xlink:href="#mf8e0829fb5" x="299.982786" y="145.457366" style="stroke: #000000"/>
     <use xlink:href="#mf8e0829fb5" x="195.257145" y="232.421749" style="stroke: #000000"/>
     <use xlink:href="#mf8e0829fb5" x="322.550579" y="148.170729" style="stroke: #000000"/>
     <use xlink:href="#mf8e0829fb5" x="217.850462" y="194.210677" style="stroke: #000000"/>
     <use xlink:href="#mf8e0829fb5" x="250.04149" y="194.93383" style="stroke: #000000"/>
     <use xlink:href="#mf8e0829fb5" x="276.755197" y="207.325607" style="stroke: #000000"/>
     <use xlink:href="#mf8e0829fb5" x="191.869806" y="226.788532" style="stroke: #000000"/>
     <use xlink:href="#mf8e0829fb5" x="206.92437" y="231.918716" style="stroke: #000000"/>
     <use xlink:href="#mf8e0829fb5" x="268.386567" y="161.559541" style="stroke: #000000"/>
     <use xlink:href="#mf8e0829fb5" x="182.095927" y="235.270709" style="stroke: #000000"/>
     <use xlink:href="#mf8e0829fb5" x="235.360391" y="122.88352" style="stroke: #000000"/>
     <use xlink:href="#mf8e0829fb5" x="229.183821" y="232.539188" style="stroke: #000000"/>
     <use xlink:href="#mf8e0829fb5" x="169.91296" y="200.575525" style="stroke: #000000"/>
     <use xlink:href="#mf8e0829fb5" x="152.621934" y="181.234532" style="stroke: #000000"/>
     <use xlink:href="#mf8e0829fb5" x="299.410882" y="205.356005" style="stroke: #000000"/>
     <use xlink:href="#mf8e0829fb5" x="268.574362" y="113.78416" style="stroke: #000000"/>
     <use xlink:href="#mf8e0829fb5" x="266.139726" y="226.528944" style="stroke: #000000"/>
     <use xlink:href="#mf8e0829fb5" x="188.478775" y="186.787202" style="stroke: #000000"/>
     <use xlink:href="#mf8e0829fb5" x="182.562638" y="236.772589" style="stroke: #000000"/>
     <use xlink:href="#mf8e0829fb5" x="315.109889" y="84.451294" style="stroke: #000000"/>
     <use xlink:href="#mf8e0829fb5" x="167.304707" y="235.413178" style="stroke: #000000"/>
     <use xlink:href="#mf8e0829fb5" x="284.819949" y="181.699719" style="stroke: #000000"/>
     <use xlink:href="#mf8e0829fb5" x="230.500049" y="202.367617" style="stroke: #000000"/>
     <use xlink:href="#mf8e0829fb5" x="288.473385" y="156.387881" style="stroke: #000000"/>
     <use xlink:href="#mf8e0829fb5" x="304.259369" y="181.325681" style="stroke: #000000"/>
     <use xlink:href="#mf8e0829fb5" x="190.892363" y="189.277793" style="stroke: #000000"/>
     <use xlink:href="#mf8e0829fb5" x="231.452901" y="183.303172" style="stroke: #000000"/>
     <use xlink:href="#mf8e0829fb5" x="247.228107" y="213.308612" style="stroke: #000000"/>
     <use xlink:href="#mf8e0829fb5" x="119.369895" y="199.268427" style="stroke: #000000"/>
     <use xlink:href="#mf8e0829fb5" x="249.515442" y="165.37467" style="stroke: #000000"/>
     <use xlink:href="#mf8e0829fb5" x="176.352247" y="224.72132" style="stroke: #000000"/>
     <use xlink:href="#mf8e0829fb5" x="308.961121" y="214.751502" style="stroke: #000000"/>
     <use xlink:href="#mf8e0829fb5" x="232.323087" y="227.3989" style="stroke: #000000"/>
     <use xlink:href="#mf8e0829fb5" x="191.042723" y="220.424878" style="stroke: #000000"/>
     <use xlink:href="#mf8e0829fb5" x="232.767243" y="149.524717" style="stroke: #000000"/>
     <use xlink:href="#mf8e0829fb5" x="227.092636" y="216.913944" style="stroke: #000000"/>
     <use xlink:href="#mf8e0829fb5" x="209.310629" y="244.093294" style="stroke: #000000"/>
     <use xlink:href="#mf8e0829fb5" x="217.384828" y="197.552619" style="stroke: #000000"/>
     <use xlink:href="#mf8e0829fb5" x="260.625068" y="234.268934" style="stroke: #000000"/>
    </g>
   </g>
   <g id="PathCollection_11">
    <defs>
     <path id="m25f5193b2b" d="M -3 -0 
L 3 3 
L 3 -3 
z
" style="stroke: #ff8c00"/>
    </defs>
    <g clip-path="url(#p9500bd319c)">
     <use xlink:href="#m25f5193b2b" x="216.113759" y="180.176524" style="fill: #ff8c00; stroke: #ff8c00"/>
     <use xlink:href="#m25f5193b2b" x="247.670251" y="225.064921" style="fill: #ff8c00; stroke: #ff8c00"/>
     <use xlink:href="#m25f5193b2b" x="188.357393" y="226.157163" style="fill: #ff8c00; stroke: #ff8c00"/>
     <use xlink:href="#m25f5193b2b" x="221.310173" y="207.401039" style="fill: #ff8c00; stroke: #ff8c00"/>
     <use xlink:href="#m25f5193b2b" x="206.910618" y="200.491188" style="fill: #ff8c00; stroke: #ff8c00"/>
     <use xlink:href="#m25f5193b2b" x="234.571191" y="207.419194" style="fill: #ff8c00; stroke: #ff8c00"/>
     <use xlink:href="#m25f5193b2b" x="196.766592" y="219.669374" style="fill: #ff8c00; stroke: #ff8c00"/>
     <use xlink:href="#m25f5193b2b" x="250.844722" y="204.635008" style="fill: #ff8c00; stroke: #ff8c00"/>
     <use xlink:href="#m25f5193b2b" x="250.181072" y="221.547739" style="fill: #ff8c00; stroke: #ff8c00"/>
     <use xlink:href="#m25f5193b2b" x="207.760814" y="200.015818" style="fill: #ff8c00; stroke: #ff8c00"/>
     <use xlink:href="#m25f5193b2b" x="194.108327" y="183.291778" style="fill: #ff8c00; stroke: #ff8c00"/>
     <use xlink:href="#m25f5193b2b" x="188.417349" y="210.9994" style="fill: #ff8c00; stroke: #ff8c00"/>
     <use xlink:href="#m25f5193b2b" x="222.506629" y="195.572154" style="fill: #ff8c00; stroke: #ff8c00"/>
     <use xlink:href="#m25f5193b2b" x="222.399539" y="206.634426" style="fill: #ff8c00; stroke: #ff8c00"/>
     <use xlink:href="#m25f5193b2b" x="253.19452" y="162.13885" style="fill: #ff8c00; stroke: #ff8c00"/>
     <use xlink:href="#m25f5193b2b" x="203.515446" y="241.94627" style="fill: #ff8c00; stroke: #ff8c00"/>
     <use xlink:href="#m25f5193b2b" x="218.615796" y="187.720405" style="fill: #ff8c00; stroke: #ff8c00"/>
     <use xlink:href="#m25f5193b2b" x="240.761217" y="215.953397" style="fill: #ff8c00; stroke: #ff8c00"/>
     <use xlink:href="#m25f5193b2b" x="200.678799" y="223.900755" style="fill: #ff8c00; stroke: #ff8c00"/>
     <use xlink:href="#m25f5193b2b" x="230.711784" y="193.059361" style="fill: #ff8c00; stroke: #ff8c00"/>
     <use xlink:href="#m25f5193b2b" x="229.305604" y="195.086452" style="fill: #ff8c00; stroke: #ff8c00"/>
     <use xlink:href="#m25f5193b2b" x="225.0103" y="169.008257" style="fill: #ff8c00; stroke: #ff8c00"/>
     <use xlink:href="#m25f5193b2b" x="227.085915" y="243.971182" style="fill: #ff8c00; stroke: #ff8c00"/>
     <use xlink:href="#m25f5193b2b" x="210.223067" y="212.456121" style="fill: #ff8c00; stroke: #ff8c00"/>
     <use xlink:href="#m25f5193b2b" x="218.703577" y="207.024101" style="fill: #ff8c00; stroke: #ff8c00"/>
     <use xlink:href="#m25f5193b2b" x="242.191755" y="200.116795" style="fill: #ff8c00; stroke: #ff8c00"/>
     <use xlink:href="#m25f5193b2b" x="224.235988" y="192.260843" style="fill: #ff8c00; stroke: #ff8c00"/>
     <use xlink:href="#m25f5193b2b" x="203.757526" y="236.997258" style="fill: #ff8c00; stroke: #ff8c00"/>
     <use xlink:href="#m25f5193b2b" x="231.281918" y="203.481454" style="fill: #ff8c00; stroke: #ff8c00"/>
     <use xlink:href="#m25f5193b2b" x="200.924431" y="223.775593" style="fill: #ff8c00; stroke: #ff8c00"/>
     <use xlink:href="#m25f5193b2b" x="273.573041" y="211.773576" style="fill: #ff8c00; stroke: #ff8c00"/>
     <use xlink:href="#m25f5193b2b" x="218.881983" y="191.273532" style="fill: #ff8c00; stroke: #ff8c00"/>
     <use xlink:href="#m25f5193b2b" x="205.165317" y="195.058625" style="fill: #ff8c00; stroke: #ff8c00"/>
     <use xlink:href="#m25f5193b2b" x="213.568264" y="176.53699" style="fill: #ff8c00; stroke: #ff8c00"/>
     <use xlink:href="#m25f5193b2b" x="225.333034" y="222.261368" style="fill: #ff8c00; stroke: #ff8c00"/>
     <use xlink:href="#m25f5193b2b" x="209.740509" y="211.106169" style="fill: #ff8c00; stroke: #ff8c00"/>
     <use xlink:href="#m25f5193b2b" x="208.276151" y="192.054282" style="fill: #ff8c00; stroke: #ff8c00"/>
     <use xlink:href="#m25f5193b2b" x="200.841104" y="215.08464" style="fill: #ff8c00; stroke: #ff8c00"/>
     <use xlink:href="#m25f5193b2b" x="194.783048" y="238.684663" style="fill: #ff8c00; stroke: #ff8c00"/>
     <use xlink:href="#m25f5193b2b" x="213.840216" y="208.64076" style="fill: #ff8c00; stroke: #ff8c00"/>
     <use xlink:href="#m25f5193b2b" x="223.761916" y="225.283317" style="fill: #ff8c00; stroke: #ff8c00"/>
     <use xlink:href="#m25f5193b2b" x="203.485301" y="216.592243" style="fill: #ff8c00; stroke: #ff8c00"/>
     <use xlink:href="#m25f5193b2b" x="240.906938" y="175.730253" style="fill: #ff8c00; stroke: #ff8c00"/>
     <use xlink:href="#m25f5193b2b" x="232.907469" y="194.47288" style="fill: #ff8c00; stroke: #ff8c00"/>
     <use xlink:href="#m25f5193b2b" x="208.68501" y="208.637284" style="fill: #ff8c00; stroke: #ff8c00"/>
     <use xlink:href="#m25f5193b2b" x="220.574748" y="191.404423" style="fill: #ff8c00; stroke: #ff8c00"/>
     <use xlink:href="#m25f5193b2b" x="199.144988" y="219.130528" style="fill: #ff8c00; stroke: #ff8c00"/>
     <use xlink:href="#m25f5193b2b" x="239.707585" y="206.744375" style="fill: #ff8c00; stroke: #ff8c00"/>
     <use xlink:href="#m25f5193b2b" x="202.383043" y="219.078916" style="fill: #ff8c00; stroke: #ff8c00"/>
     <use xlink:href="#m25f5193b2b" x="206.203117" y="210.02454" style="fill: #ff8c00; stroke: #ff8c00"/>
     <use xlink:href="#m25f5193b2b" x="248.321726" y="209.397126" style="fill: #ff8c00; stroke: #ff8c00"/>
     <use xlink:href="#m25f5193b2b" x="197.996433" y="238.549661" style="fill: #ff8c00; stroke: #ff8c00"/>
     <use xlink:href="#m25f5193b2b" x="223.666691" y="219.287611" style="fill: #ff8c00; stroke: #ff8c00"/>
     <use xlink:href="#m25f5193b2b" x="178.713972" y="210.552875" style="fill: #ff8c00; stroke: #ff8c00"/>
     <use xlink:href="#m25f5193b2b" x="240.691734" y="213.67495" style="fill: #ff8c00; stroke: #ff8c00"/>
     <use xlink:href="#m25f5193b2b" x="215.044879" y="198.335615" style="fill: #ff8c00; stroke: #ff8c00"/>
     <use xlink:href="#m25f5193b2b" x="245.396002" y="193.970646" style="fill: #ff8c00; stroke: #ff8c00"/>
     <use xlink:href="#m25f5193b2b" x="242.145707" y="220.174294" style="fill: #ff8c00; stroke: #ff8c00"/>
     <use xlink:href="#m25f5193b2b" x="235.717412" y="215.772986" style="fill: #ff8c00; stroke: #ff8c00"/>
     <use xlink:href="#m25f5193b2b" x="253.253068" y="182.082507" style="fill: #ff8c00; stroke: #ff8c00"/>
     <use xlink:href="#m25f5193b2b" x="210.403702" y="195.674299" style="fill: #ff8c00; stroke: #ff8c00"/>
     <use xlink:href="#m25f5193b2b" x="242.31602" y="205.446148" style="fill: #ff8c00; stroke: #ff8c00"/>
     <use xlink:href="#m25f5193b2b" x="225.30236" y="149.977529" style="fill: #ff8c00; stroke: #ff8c00"/>
     <use xlink:href="#m25f5193b2b" x="220.094661" y="200.59205" style="fill: #ff8c00; stroke: #ff8c00"/>
    </g>
   </g>
   <g id="matplotlib.axis_1">
    <g id="xtick_1">
     <g id="line2d_1">
      <defs>
       <path id="mc971cfd877" d="M 0 0 
L 0 3.5 
" style="stroke: #000000; stroke-width: 0.8"/>
      </defs>
      <g>
       <use xlink:href="#mc971cfd877" x="38.022023" y="273.312" style="stroke: #000000; stroke-width: 0.8"/>
      </g>
     </g>
     <g id="text_1">
      <!-- −30 -->
      <g transform="translate(27.469679 287.910437) scale(0.1 -0.1)">
       <defs>
        <path id="DejaVuSans-2212" d="M 678 2272 
L 4684 2272 
L 4684 1741 
L 678 1741 
L 678 2272 
z
" transform="scale(0.015625)"/>
        <path id="DejaVuSans-33" d="M 2597 2516 
Q 3050 2419 3304 2112 
Q 3559 1806 3559 1356 
Q 3559 666 3084 287 
Q 2609 -91 1734 -91 
Q 1441 -91 1130 -33 
Q 819 25 488 141 
L 488 750 
Q 750 597 1062 519 
Q 1375 441 1716 441 
Q 2309 441 2620 675 
Q 2931 909 2931 1356 
Q 2931 1769 2642 2001 
Q 2353 2234 1838 2234 
L 1294 2234 
L 1294 2753 
L 1863 2753 
Q 2328 2753 2575 2939 
Q 2822 3125 2822 3475 
Q 2822 3834 2567 4026 
Q 2313 4219 1838 4219 
Q 1578 4219 1281 4162 
Q 984 4106 628 3988 
L 628 4550 
Q 988 4650 1302 4700 
Q 1616 4750 1894 4750 
Q 2613 4750 3031 4423 
Q 3450 4097 3450 3541 
Q 3450 3153 3228 2886 
Q 3006 2619 2597 2516 
z
" transform="scale(0.015625)"/>
        <path id="DejaVuSans-30" d="M 2034 4250 
Q 1547 4250 1301 3770 
Q 1056 3291 1056 2328 
Q 1056 1369 1301 889 
Q 1547 409 2034 409 
Q 2525 409 2770 889 
Q 3016 1369 3016 2328 
Q 3016 3291 2770 3770 
Q 2525 4250 2034 4250 
z
M 2034 4750 
Q 2819 4750 3233 4129 
Q 3647 3509 3647 2328 
Q 3647 1150 3233 529 
Q 2819 -91 2034 -91 
Q 1250 -91 836 529 
Q 422 1150 422 2328 
Q 422 3509 836 4129 
Q 1250 4750 2034 4750 
z
" transform="scale(0.015625)"/>
       </defs>
       <use xlink:href="#DejaVuSans-2212"/>
       <use xlink:href="#DejaVuSans-33" x="83.789062"/>
       <use xlink:href="#DejaVuSans-30" x="147.412109"/>
      </g>
     </g>
    </g>
    <g id="xtick_2">
     <g id="line2d_2">
      <g>
       <use xlink:href="#mc971cfd877" x="89.646896" y="273.312" style="stroke: #000000; stroke-width: 0.8"/>
      </g>
     </g>
     <g id="text_2">
      <!-- −20 -->
      <g transform="translate(79.094552 287.910437) scale(0.1 -0.1)">
       <defs>
        <path id="DejaVuSans-32" d="M 1228 531 
L 3431 531 
L 3431 0 
L 469 0 
L 469 531 
Q 828 903 1448 1529 
Q 2069 2156 2228 2338 
Q 2531 2678 2651 2914 
Q 2772 3150 2772 3378 
Q 2772 3750 2511 3984 
Q 2250 4219 1831 4219 
Q 1534 4219 1204 4116 
Q 875 4013 500 3803 
L 500 4441 
Q 881 4594 1212 4672 
Q 1544 4750 1819 4750 
Q 2544 4750 2975 4387 
Q 3406 4025 3406 3419 
Q 3406 3131 3298 2873 
Q 3191 2616 2906 2266 
Q 2828 2175 2409 1742 
Q 1991 1309 1228 531 
z
" transform="scale(0.015625)"/>
       </defs>
       <use xlink:href="#DejaVuSans-2212"/>
       <use xlink:href="#DejaVuSans-32" x="83.789062"/>
       <use xlink:href="#DejaVuSans-30" x="147.412109"/>
      </g>
     </g>
    </g>
    <g id="xtick_3">
     <g id="line2d_3">
      <g>
       <use xlink:href="#mc971cfd877" x="141.271769" y="273.312" style="stroke: #000000; stroke-width: 0.8"/>
      </g>
     </g>
     <g id="text_3">
      <!-- −10 -->
      <g transform="translate(130.719425 287.910437) scale(0.1 -0.1)">
       <defs>
        <path id="DejaVuSans-31" d="M 794 531 
L 1825 531 
L 1825 4091 
L 703 3866 
L 703 4441 
L 1819 4666 
L 2450 4666 
L 2450 531 
L 3481 531 
L 3481 0 
L 794 0 
L 794 531 
z
" transform="scale(0.015625)"/>
       </defs>
       <use xlink:href="#DejaVuSans-2212"/>
       <use xlink:href="#DejaVuSans-31" x="83.789062"/>
       <use xlink:href="#DejaVuSans-30" x="147.412109"/>
      </g>
     </g>
    </g>
    <g id="xtick_4">
     <g id="line2d_4">
      <g>
       <use xlink:href="#mc971cfd877" x="192.896642" y="273.312" style="stroke: #000000; stroke-width: 0.8"/>
      </g>
     </g>
     <g id="text_4">
      <!-- 0 -->
      <g transform="translate(189.715392 287.910437) scale(0.1 -0.1)">
       <use xlink:href="#DejaVuSans-30"/>
      </g>
     </g>
    </g>
    <g id="xtick_5">
     <g id="line2d_5">
      <g>
       <use xlink:href="#mc971cfd877" x="244.521515" y="273.312" style="stroke: #000000; stroke-width: 0.8"/>
      </g>
     </g>
     <g id="text_5">
      <!-- 10 -->
      <g transform="translate(238.159015 287.910437) scale(0.1 -0.1)">
       <use xlink:href="#DejaVuSans-31"/>
       <use xlink:href="#DejaVuSans-30" x="63.623047"/>
      </g>
     </g>
    </g>
    <g id="xtick_6">
     <g id="line2d_6">
      <g>
       <use xlink:href="#mc971cfd877" x="296.146388" y="273.312" style="stroke: #000000; stroke-width: 0.8"/>
      </g>
     </g>
     <g id="text_6">
      <!-- 20 -->
      <g transform="translate(289.783888 287.910437) scale(0.1 -0.1)">
       <use xlink:href="#DejaVuSans-32"/>
       <use xlink:href="#DejaVuSans-30" x="63.623047"/>
      </g>
     </g>
    </g>
    <g id="xtick_7">
     <g id="line2d_7">
      <g>
       <use xlink:href="#mc971cfd877" x="347.771261" y="273.312" style="stroke: #000000; stroke-width: 0.8"/>
      </g>
     </g>
     <g id="text_7">
      <!-- 30 -->
      <g transform="translate(341.408761 287.910437) scale(0.1 -0.1)">
       <use xlink:href="#DejaVuSans-33"/>
       <use xlink:href="#DejaVuSans-30" x="63.623047"/>
      </g>
     </g>
    </g>
   </g>
   <g id="matplotlib.axis_2">
    <g id="ytick_1">
     <g id="line2d_8">
      <defs>
       <path id="m07d4bfc0c8" d="M 0 0 
L -3.5 0 
" style="stroke: #000000; stroke-width: 0.8"/>
      </defs>
      <g>
       <use xlink:href="#m07d4bfc0c8" x="35.304688" y="243.135459" style="stroke: #000000; stroke-width: 0.8"/>
      </g>
     </g>
     <g id="text_8">
      <!-- −10 -->
      <g transform="translate(7.2 246.934678) scale(0.1 -0.1)">
       <use xlink:href="#DejaVuSans-2212"/>
       <use xlink:href="#DejaVuSans-31" x="83.789062"/>
       <use xlink:href="#DejaVuSans-30" x="147.412109"/>
      </g>
     </g>
    </g>
    <g id="ytick_2">
     <g id="line2d_9">
      <g>
       <use xlink:href="#m07d4bfc0c8" x="35.304688" y="200.672183" style="stroke: #000000; stroke-width: 0.8"/>
      </g>
     </g>
     <g id="text_9">
      <!-- 0 -->
      <g transform="translate(21.942187 204.471402) scale(0.1 -0.1)">
       <use xlink:href="#DejaVuSans-30"/>
      </g>
     </g>
    </g>
    <g id="ytick_3">
     <g id="line2d_10">
      <g>
       <use xlink:href="#m07d4bfc0c8" x="35.304688" y="158.208907" style="stroke: #000000; stroke-width: 0.8"/>
      </g>
     </g>
     <g id="text_10">
      <!-- 10 -->
      <g transform="translate(15.579687 162.008126) scale(0.1 -0.1)">
       <use xlink:href="#DejaVuSans-31"/>
       <use xlink:href="#DejaVuSans-30" x="63.623047"/>
      </g>
     </g>
    </g>
    <g id="ytick_4">
     <g id="line2d_11">
      <g>
       <use xlink:href="#m07d4bfc0c8" x="35.304688" y="115.745631" style="stroke: #000000; stroke-width: 0.8"/>
      </g>
     </g>
     <g id="text_11">
      <!-- 20 -->
      <g transform="translate(15.579687 119.544849) scale(0.1 -0.1)">
       <use xlink:href="#DejaVuSans-32"/>
       <use xlink:href="#DejaVuSans-30" x="63.623047"/>
      </g>
     </g>
    </g>
    <g id="ytick_5">
     <g id="line2d_12">
      <g>
       <use xlink:href="#m07d4bfc0c8" x="35.304688" y="73.282355" style="stroke: #000000; stroke-width: 0.8"/>
      </g>
     </g>
     <g id="text_12">
      <!-- 30 -->
      <g transform="translate(15.579687 77.081573) scale(0.1 -0.1)">
       <use xlink:href="#DejaVuSans-33"/>
       <use xlink:href="#DejaVuSans-30" x="63.623047"/>
      </g>
     </g>
    </g>
    <g id="ytick_6">
     <g id="line2d_13">
      <g>
       <use xlink:href="#m07d4bfc0c8" x="35.304688" y="30.819078" style="stroke: #000000; stroke-width: 0.8"/>
      </g>
     </g>
     <g id="text_13">
      <!-- 40 -->
      <g transform="translate(15.579687 34.618297) scale(0.1 -0.1)">
       <defs>
        <path id="DejaVuSans-34" d="M 2419 4116 
L 825 1625 
L 2419 1625 
L 2419 4116 
z
M 2253 4666 
L 3047 4666 
L 3047 1625 
L 3713 1625 
L 3713 1100 
L 3047 1100 
L 3047 0 
L 2419 0 
L 2419 1100 
L 313 1100 
L 313 1709 
L 2253 4666 
z
" transform="scale(0.015625)"/>
       </defs>
       <use xlink:href="#DejaVuSans-34"/>
       <use xlink:href="#DejaVuSans-30" x="63.623047"/>
      </g>
     </g>
    </g>
   </g>
   <g id="patch_3">
    <path d="M 35.304688 273.312 
L 35.304688 7.2 
" style="fill: none; stroke: #000000; stroke-width: 0.8; stroke-linejoin: miter; stroke-linecap: square"/>
   </g>
   <g id="patch_4">
    <path d="M 392.424688 273.312 
L 392.424688 7.2 
" style="fill: none; stroke: #000000; stroke-width: 0.8; stroke-linejoin: miter; stroke-linecap: square"/>
   </g>
   <g id="patch_5">
    <path d="M 35.304688 273.312 
L 392.424688 273.312 
" style="fill: none; stroke: #000000; stroke-width: 0.8; stroke-linejoin: miter; stroke-linecap: square"/>
   </g>
   <g id="patch_6">
    <path d="M 35.304688 7.2 
L 392.424688 7.2 
" style="fill: none; stroke: #000000; stroke-width: 0.8; stroke-linejoin: miter; stroke-linecap: square"/>
   </g>
  </g>
 </g>
 <defs>
  <clipPath id="p9500bd319c">
   <rect x="35.304688" y="7.2" width="357.12" height="266.112"/>
  </clipPath>
 </defs>
</svg>
