<?xml version="1.0" encoding="utf-8" standalone="no"?>
<!DOCTYPE svg PUBLIC "-//W3C//DTD SVG 1.1//EN"
  "http://www.w3.org/Graphics/SVG/1.1/DTD/svg11.dtd">
<svg xmlns:xlink="http://www.w3.org/1999/xlink" width="399.624687pt" height="299.355941pt" viewBox="0 0 399.624687 299.355941" xmlns="http://www.w3.org/2000/svg" version="1.1">
 <metadata>
  <rdf:RDF xmlns:dc="http://purl.org/dc/elements/1.1/" xmlns:cc="http://creativecommons.org/ns#" xmlns:rdf="http://www.w3.org/1999/02/22-rdf-syntax-ns#">
   <cc:Work>
    <dc:type rdf:resource="http://purl.org/dc/dcmitype/StillImage"/>
    <dc:date>2023-11-12T13:28:13.362359</dc:date>
    <dc:format>image/svg+xml</dc:format>
    <dc:creator>
     <cc:Agent>
      <dc:title>Matplotlib v3.8.0, https://matplotlib.org/</dc:title>
     </cc:Agent>
    </dc:creator>
   </cc:Work>
  </rdf:RDF>
 </metadata>
 <defs>
  <style type="text/css">*{stroke-linejoin: round; stroke-linecap: butt}</style>
 </defs>
 <g id="figure_1">
  <g id="patch_1">
   <path d="M 0 299.355941 
L 399.624687 299.355941 
L 399.624687 0 
L 0 0 
z
" style="fill: #ffffff"/>
  </g>
  <g id="axes_1">
   <g id="patch_2">
    <path d="M 35.304688 275.477816 
L 392.424688 275.477816 
L 392.424688 9.365816 
L 35.304688 9.365816 
z
" style="fill: #ffffff"/>
   </g>
   <g id="PathCollection_1">
    <defs>
     <path id="mbc085c1505" d="M 0 1.5 
C 0.397805 1.5 0.77937 1.341951 1.06066 1.06066 
C 1.341951 0.77937 1.5 0.397805 1.5 0 
C 1.5 -0.397805 1.341951 -0.77937 1.06066 -1.06066 
C 0.77937 -1.341951 0.397805 -1.5 0 -1.5 
C -0.397805 -1.5 -0.77937 -1.341951 -1.06066 -1.06066 
C -1.341951 -0.77937 -1.5 -0.397805 -1.5 0 
C -1.5 0.397805 -1.341951 0.77937 -1.06066 1.06066 
C -0.77937 1.341951 -0.397805 1.5 0 1.5 
z
" style="stroke: #ff8c00"/>
    </defs>
    <g clip-path="url(#pefa239ceab)">
     <use xlink:href="#mbc085c1505" x="166.502151" y="251.0715" style="fill: #ff8c00; stroke: #ff8c00"/>
     <use xlink:href="#mbc085c1505" x="168.233624" y="227.851944" style="fill: #ff8c00; stroke: #ff8c00"/>
     <use xlink:href="#mbc085c1505" x="150.652641" y="235.548676" style="fill: #ff8c00; stroke: #ff8c00"/>
     <use xlink:href="#mbc085c1505" x="127.25484" y="245.272078" style="fill: #ff8c00; stroke: #ff8c00"/>
     <use xlink:href="#mbc085c1505" x="128.842665" y="230.424254" style="fill: #ff8c00; stroke: #ff8c00"/>
     <use xlink:href="#mbc085c1505" x="132.975733" y="250.631666" style="fill: #ff8c00; stroke: #ff8c00"/>
     <use xlink:href="#mbc085c1505" x="139.050633" y="263.381816" style="fill: #ff8c00; stroke: #ff8c00"/>
     <use xlink:href="#mbc085c1505" x="179.180249" y="221.711577" style="fill: #ff8c00; stroke: #ff8c00"/>
     <use xlink:href="#mbc085c1505" x="164.14571" y="233.548936" style="fill: #ff8c00; stroke: #ff8c00"/>
     <use xlink:href="#mbc085c1505" x="97.030397" y="239.114012" style="fill: #ff8c00; stroke: #ff8c00"/>
     <use xlink:href="#mbc085c1505" x="166.929517" y="247.737353" style="fill: #ff8c00; stroke: #ff8c00"/>
     <use xlink:href="#mbc085c1505" x="158.330094" y="197.278647" style="fill: #ff8c00; stroke: #ff8c00"/>
    </g>
   </g>
   <g id="PathCollection_2">
    <defs>
     <path id="m6c38791978" d="M 0 1.5 
C 0.397805 1.5 0.77937 1.341951 1.06066 1.06066 
C 1.341951 0.77937 1.5 0.397805 1.5 0 
C 1.5 -0.397805 1.341951 -0.77937 1.06066 -1.06066 
C 0.77937 -1.341951 0.397805 -1.5 0 -1.5 
C -0.397805 -1.5 -0.77937 -1.341951 -1.06066 -1.06066 
C -1.341951 -0.77937 -1.5 -0.397805 -1.5 0 
C -1.5 0.397805 -1.341951 0.77937 -1.06066 1.06066 
C -0.77937 1.341951 -0.397805 1.5 0 1.5 
z
" style="stroke: #006400"/>
    </defs>
    <g clip-path="url(#pefa239ceab)">
     <use xlink:href="#m6c38791978" x="345.10333" y="152.135247" style="fill: #006400; stroke: #006400"/>
     <use xlink:href="#m6c38791978" x="200.112217" y="188.290002" style="fill: #006400; stroke: #006400"/>
     <use xlink:href="#m6c38791978" x="295.444028" y="180.227281" style="fill: #006400; stroke: #006400"/>
     <use xlink:href="#m6c38791978" x="318.13836" y="201.343155" style="fill: #006400; stroke: #006400"/>
     <use xlink:href="#m6c38791978" x="280.149566" y="176.1399" style="fill: #006400; stroke: #006400"/>
     <use xlink:href="#m6c38791978" x="376.19196" y="89.264951" style="fill: #006400; stroke: #006400"/>
     <use xlink:href="#m6c38791978" x="278.747152" y="183.753841" style="fill: #006400; stroke: #006400"/>
     <use xlink:href="#m6c38791978" x="322.072018" y="140.292537" style="fill: #006400; stroke: #006400"/>
     <use xlink:href="#m6c38791978" x="264.647911" y="189.178436" style="fill: #006400; stroke: #006400"/>
     <use xlink:href="#m6c38791978" x="253.398127" y="177.549722" style="fill: #006400; stroke: #006400"/>
     <use xlink:href="#m6c38791978" x="169.592673" y="234.50421" style="fill: #006400; stroke: #006400"/>
     <use xlink:href="#m6c38791978" x="305.888397" y="229.699731" style="fill: #006400; stroke: #006400"/>
     <use xlink:href="#m6c38791978" x="306.371045" y="164.326993" style="fill: #006400; stroke: #006400"/>
     <use xlink:href="#m6c38791978" x="274.527983" y="188.866612" style="fill: #006400; stroke: #006400"/>
     <use xlink:href="#m6c38791978" x="317.351065" y="121.057643" style="fill: #006400; stroke: #006400"/>
     <use xlink:href="#m6c38791978" x="309.235023" y="168.412461" style="fill: #006400; stroke: #006400"/>
     <use xlink:href="#m6c38791978" x="266.059953" y="190.005837" style="fill: #006400; stroke: #006400"/>
    </g>
   </g>
   <g id="PathCollection_3">
    <defs>
     <path id="m45283e0f47" d="M 0 1.5 
C 0.397805 1.5 0.77937 1.341951 1.06066 1.06066 
C 1.341951 0.77937 1.5 0.397805 1.5 0 
C 1.5 -0.397805 1.341951 -0.77937 1.06066 -1.06066 
C 0.77937 -1.341951 0.397805 -1.5 0 -1.5 
C -0.397805 -1.5 -0.77937 -1.341951 -1.06066 -1.06066 
C -1.341951 -0.77937 -1.5 -0.397805 -1.5 0 
C -1.5 0.397805 -1.341951 0.77937 -1.06066 1.06066 
C -0.77937 1.341951 -0.397805 1.5 0 1.5 
z
" style="stroke: #2f4f4f"/>
    </defs>
    <g clip-path="url(#pefa239ceab)">
     <use xlink:href="#m45283e0f47" x="84.784349" y="186.443278" style="fill: #2f4f4f; stroke: #2f4f4f"/>
     <use xlink:href="#m45283e0f47" x="82.143327" y="243.205983" style="fill: #2f4f4f; stroke: #2f4f4f"/>
     <use xlink:href="#m45283e0f47" x="98.229751" y="224.784576" style="fill: #2f4f4f; stroke: #2f4f4f"/>
     <use xlink:href="#m45283e0f47" x="91.789776" y="233.524482" style="fill: #2f4f4f; stroke: #2f4f4f"/>
     <use xlink:href="#m45283e0f47" x="55.037382" y="228.054101" style="fill: #2f4f4f; stroke: #2f4f4f"/>
     <use xlink:href="#m45283e0f47" x="93.156827" y="253.439565" style="fill: #2f4f4f; stroke: #2f4f4f"/>
     <use xlink:href="#m45283e0f47" x="87.064602" y="214.578726" style="fill: #2f4f4f; stroke: #2f4f4f"/>
     <use xlink:href="#m45283e0f47" x="68.142091" y="201.355634" style="fill: #2f4f4f; stroke: #2f4f4f"/>
     <use xlink:href="#m45283e0f47" x="108.613407" y="188.376578" style="fill: #2f4f4f; stroke: #2f4f4f"/>
     <use xlink:href="#m45283e0f47" x="98.338037" y="194.814335" style="fill: #2f4f4f; stroke: #2f4f4f"/>
     <use xlink:href="#m45283e0f47" x="69.760588" y="203.54035" style="fill: #2f4f4f; stroke: #2f4f4f"/>
     <use xlink:href="#m45283e0f47" x="63.468985" y="203.624033" style="fill: #2f4f4f; stroke: #2f4f4f"/>
     <use xlink:href="#m45283e0f47" x="128.186389" y="239.344135" style="fill: #2f4f4f; stroke: #2f4f4f"/>
     <use xlink:href="#m45283e0f47" x="76.630033" y="209.868536" style="fill: #2f4f4f; stroke: #2f4f4f"/>
    </g>
   </g>
   <g id="PathCollection_4">
    <defs>
     <path id="me0885f1579" d="M 0 1.5 
C 0.397805 1.5 0.77937 1.341951 1.06066 1.06066 
C 1.341951 0.77937 1.5 0.397805 1.5 0 
C 1.5 -0.397805 1.341951 -0.77937 1.06066 -1.06066 
C 0.77937 -1.341951 0.397805 -1.5 0 -1.5 
C -0.397805 -1.5 -0.77937 -1.341951 -1.06066 -1.06066 
C -1.341951 -0.77937 -1.5 -0.397805 -1.5 0 
C -1.5 0.397805 -1.341951 0.77937 -1.06066 1.06066 
C -0.77937 1.341951 -0.397805 1.5 0 1.5 
z
" style="stroke: #00bfff"/>
    </defs>
    <g clip-path="url(#pefa239ceab)">
     <use xlink:href="#me0885f1579" x="136.101845" y="214.785585" style="fill: #00bfff; stroke: #00bfff"/>
     <use xlink:href="#me0885f1579" x="95.473404" y="228.513479" style="fill: #00bfff; stroke: #00bfff"/>
     <use xlink:href="#me0885f1579" x="107.643782" y="233.150604" style="fill: #00bfff; stroke: #00bfff"/>
     <use xlink:href="#me0885f1579" x="67.640694" y="209.098926" style="fill: #00bfff; stroke: #00bfff"/>
     <use xlink:href="#me0885f1579" x="126.085119" y="217.972973" style="fill: #00bfff; stroke: #00bfff"/>
     <use xlink:href="#me0885f1579" x="77.918206" y="247.520582" style="fill: #00bfff; stroke: #00bfff"/>
     <use xlink:href="#me0885f1579" x="94.170405" y="224.15391" style="fill: #00bfff; stroke: #00bfff"/>
     <use xlink:href="#me0885f1579" x="138.196874" y="195.641645" style="fill: #00bfff; stroke: #00bfff"/>
     <use xlink:href="#me0885f1579" x="110.233858" y="230.243742" style="fill: #00bfff; stroke: #00bfff"/>
     <use xlink:href="#me0885f1579" x="99.067209" y="227.048217" style="fill: #00bfff; stroke: #00bfff"/>
     <use xlink:href="#me0885f1579" x="81.357138" y="193.79804" style="fill: #00bfff; stroke: #00bfff"/>
     <use xlink:href="#me0885f1579" x="117.664254" y="219.791337" style="fill: #00bfff; stroke: #00bfff"/>
     <use xlink:href="#me0885f1579" x="147.346796" y="223.392073" style="fill: #00bfff; stroke: #00bfff"/>
     <use xlink:href="#me0885f1579" x="88.336612" y="236.216667" style="fill: #00bfff; stroke: #00bfff"/>
     <use xlink:href="#me0885f1579" x="94.742793" y="206.21549" style="fill: #00bfff; stroke: #00bfff"/>
     <use xlink:href="#me0885f1579" x="136.104174" y="183.484295" style="fill: #00bfff; stroke: #00bfff"/>
    </g>
   </g>
   <g id="PathCollection_5">
    <defs>
     <path id="mf1023fdc4d" d="M 0 1.5 
C 0.397805 1.5 0.77937 1.341951 1.06066 1.06066 
C 1.341951 0.77937 1.5 0.397805 1.5 0 
C 1.5 -0.397805 1.341951 -0.77937 1.06066 -1.06066 
C 0.77937 -1.341951 0.397805 -1.5 0 -1.5 
C -0.397805 -1.5 -0.77937 -1.341951 -1.06066 -1.06066 
C -1.341951 -0.77937 -1.5 -0.397805 -1.5 0 
C -1.5 0.397805 -1.341951 0.77937 -1.06066 1.06066 
C -0.77937 1.341951 -0.397805 1.5 0 1.5 
z
" style="stroke: #ffff00"/>
    </defs>
    <g clip-path="url(#pefa239ceab)">
     <use xlink:href="#mf1023fdc4d" x="94.253347" y="205.977654" style="fill: #ffff00; stroke: #ffff00"/>
     <use xlink:href="#mf1023fdc4d" x="58.320773" y="207.796006" style="fill: #ffff00; stroke: #ffff00"/>
     <use xlink:href="#mf1023fdc4d" x="94.696763" y="220.419738" style="fill: #ffff00; stroke: #ffff00"/>
     <use xlink:href="#mf1023fdc4d" x="67.730626" y="186.541923" style="fill: #ffff00; stroke: #ffff00"/>
     <use xlink:href="#mf1023fdc4d" x="59.239529" y="124.232524" style="fill: #ffff00; stroke: #ffff00"/>
     <use xlink:href="#mf1023fdc4d" x="85.957238" y="224.726644" style="fill: #ffff00; stroke: #ffff00"/>
     <use xlink:href="#mf1023fdc4d" x="134.283906" y="204.485284" style="fill: #ffff00; stroke: #ffff00"/>
     <use xlink:href="#mf1023fdc4d" x="100.400755" y="154.543531" style="fill: #ffff00; stroke: #ffff00"/>
     <use xlink:href="#mf1023fdc4d" x="89.974135" y="215.938324" style="fill: #ffff00; stroke: #ffff00"/>
     <use xlink:href="#mf1023fdc4d" x="113.916075" y="183.601754" style="fill: #ffff00; stroke: #ffff00"/>
     <use xlink:href="#mf1023fdc4d" x="106.187394" y="213.037078" style="fill: #ffff00; stroke: #ffff00"/>
     <use xlink:href="#mf1023fdc4d" x="80.424755" y="176.704278" style="fill: #ffff00; stroke: #ffff00"/>
     <use xlink:href="#mf1023fdc4d" x="59.746068" y="184.514101" style="fill: #ffff00; stroke: #ffff00"/>
    </g>
   </g>
   <g id="PathCollection_6">
    <defs>
     <path id="m16384a976b" d="M 0 1.5 
C 0.397805 1.5 0.77937 1.341951 1.06066 1.06066 
C 1.341951 0.77937 1.5 0.397805 1.5 0 
C 1.5 -0.397805 1.341951 -0.77937 1.06066 -1.06066 
C 0.77937 -1.341951 0.397805 -1.5 0 -1.5 
C -0.397805 -1.5 -0.77937 -1.341951 -1.06066 -1.06066 
C -1.341951 -0.77937 -1.5 -0.397805 -1.5 0 
C -1.5 0.397805 -1.341951 0.77937 -1.06066 1.06066 
C -0.77937 1.341951 -0.397805 1.5 0 1.5 
z
" style="stroke: #00ffff"/>
    </defs>
    <g clip-path="url(#pefa239ceab)">
     <use xlink:href="#m16384a976b" x="93.470731" y="218.307293" style="fill: #00ffff; stroke: #00ffff"/>
     <use xlink:href="#m16384a976b" x="59.659391" y="183.962714" style="fill: #00ffff; stroke: #00ffff"/>
     <use xlink:href="#m16384a976b" x="113.236699" y="217.687719" style="fill: #00ffff; stroke: #00ffff"/>
     <use xlink:href="#m16384a976b" x="94.357883" y="190.222026" style="fill: #00ffff; stroke: #00ffff"/>
     <use xlink:href="#m16384a976b" x="141.142768" y="235.565112" style="fill: #00ffff; stroke: #00ffff"/>
     <use xlink:href="#m16384a976b" x="85.493614" y="202.062605" style="fill: #00ffff; stroke: #00ffff"/>
     <use xlink:href="#m16384a976b" x="116.803935" y="226.008381" style="fill: #00ffff; stroke: #00ffff"/>
     <use xlink:href="#m16384a976b" x="95.204908" y="131.063516" style="fill: #00ffff; stroke: #00ffff"/>
     <use xlink:href="#m16384a976b" x="93.817619" y="211.309772" style="fill: #00ffff; stroke: #00ffff"/>
     <use xlink:href="#m16384a976b" x="121.023037" y="194.954916" style="fill: #00ffff; stroke: #00ffff"/>
     <use xlink:href="#m16384a976b" x="85.39879" y="202.336591" style="fill: #00ffff; stroke: #00ffff"/>
     <use xlink:href="#m16384a976b" x="113.01279" y="164.009928" style="fill: #00ffff; stroke: #00ffff"/>
     <use xlink:href="#m16384a976b" x="127.141037" y="191.832866" style="fill: #00ffff; stroke: #00ffff"/>
     <use xlink:href="#m16384a976b" x="137.112548" y="248.394801" style="fill: #00ffff; stroke: #00ffff"/>
     <use xlink:href="#m16384a976b" x="90.036755" y="194.234293" style="fill: #00ffff; stroke: #00ffff"/>
     <use xlink:href="#m16384a976b" x="71.477549" y="225.286913" style="fill: #00ffff; stroke: #00ffff"/>
     <use xlink:href="#m16384a976b" x="92.591718" y="216.239958" style="fill: #00ffff; stroke: #00ffff"/>
     <use xlink:href="#m16384a976b" x="137.877983" y="206.701988" style="fill: #00ffff; stroke: #00ffff"/>
    </g>
   </g>
   <g id="PathCollection_7">
    <defs>
     <path id="m4bda9dda75" d="M 0 1.5 
C 0.397805 1.5 0.77937 1.341951 1.06066 1.06066 
C 1.341951 0.77937 1.5 0.397805 1.5 0 
C 1.5 -0.397805 1.341951 -0.77937 1.06066 -1.06066 
C 0.77937 -1.341951 0.397805 -1.5 0 -1.5 
C -0.397805 -1.5 -0.77937 -1.341951 -1.06066 -1.06066 
C -1.341951 -0.77937 -1.5 -0.397805 -1.5 0 
C -1.5 0.397805 -1.341951 0.77937 -1.06066 1.06066 
C -0.77937 1.341951 -0.397805 1.5 0 1.5 
z
" style="stroke: #0000ff"/>
    </defs>
    <g clip-path="url(#pefa239ceab)">
     <use xlink:href="#m4bda9dda75" x="94.981125" y="173.013911" style="fill: #0000ff; stroke: #0000ff"/>
     <use xlink:href="#m4bda9dda75" x="99.422466" y="210.854093" style="fill: #0000ff; stroke: #0000ff"/>
     <use xlink:href="#m4bda9dda75" x="101.45322" y="215.262055" style="fill: #0000ff; stroke: #0000ff"/>
     <use xlink:href="#m4bda9dda75" x="139.438519" y="178.69258" style="fill: #0000ff; stroke: #0000ff"/>
     <use xlink:href="#m4bda9dda75" x="88.130382" y="212.157771" style="fill: #0000ff; stroke: #0000ff"/>
     <use xlink:href="#m4bda9dda75" x="119.054165" y="200.52923" style="fill: #0000ff; stroke: #0000ff"/>
     <use xlink:href="#m4bda9dda75" x="94.296603" y="205.435544" style="fill: #0000ff; stroke: #0000ff"/>
     <use xlink:href="#m4bda9dda75" x="94.128564" y="178.411572" style="fill: #0000ff; stroke: #0000ff"/>
     <use xlink:href="#m4bda9dda75" x="157.026268" y="192.684012" style="fill: #0000ff; stroke: #0000ff"/>
     <use xlink:href="#m4bda9dda75" x="103.331867" y="221.704276" style="fill: #0000ff; stroke: #0000ff"/>
     <use xlink:href="#m4bda9dda75" x="118.432698" y="225.141708" style="fill: #0000ff; stroke: #0000ff"/>
     <use xlink:href="#m4bda9dda75" x="169.962715" y="192.046067" style="fill: #0000ff; stroke: #0000ff"/>
     <use xlink:href="#m4bda9dda75" x="88.38294" y="202.638404" style="fill: #0000ff; stroke: #0000ff"/>
     <use xlink:href="#m4bda9dda75" x="98.507635" y="222.501463" style="fill: #0000ff; stroke: #0000ff"/>
    </g>
   </g>
   <g id="PathCollection_8">
    <defs>
     <path id="m0fb489c725" d="M 0 1.5 
C 0.397805 1.5 0.77937 1.341951 1.06066 1.06066 
C 1.341951 0.77937 1.5 0.397805 1.5 0 
C 1.5 -0.397805 1.341951 -0.77937 1.06066 -1.06066 
C 0.77937 -1.341951 0.397805 -1.5 0 -1.5 
C -0.397805 -1.5 -0.77937 -1.341951 -1.06066 -1.06066 
C -1.341951 -0.77937 -1.5 -0.397805 -1.5 0 
C -1.5 0.397805 -1.341951 0.77937 -1.06066 1.06066 
C -0.77937 1.341951 -0.397805 1.5 0 1.5 
z
" style="stroke: #dc143c"/>
    </defs>
    <g clip-path="url(#pefa239ceab)">
     <use xlink:href="#m0fb489c725" x="171.462013" y="224.975819" style="fill: #dc143c; stroke: #dc143c"/>
     <use xlink:href="#m0fb489c725" x="157.757798" y="215.680175" style="fill: #dc143c; stroke: #dc143c"/>
     <use xlink:href="#m0fb489c725" x="220.329915" y="221.586275" style="fill: #dc143c; stroke: #dc143c"/>
     <use xlink:href="#m0fb489c725" x="159.671466" y="255.987195" style="fill: #dc143c; stroke: #dc143c"/>
     <use xlink:href="#m0fb489c725" x="158.40041" y="208.618722" style="fill: #dc143c; stroke: #dc143c"/>
     <use xlink:href="#m0fb489c725" x="122.426768" y="234.908732" style="fill: #dc143c; stroke: #dc143c"/>
     <use xlink:href="#m0fb489c725" x="136.758375" y="239.866257" style="fill: #dc143c; stroke: #dc143c"/>
     <use xlink:href="#m0fb489c725" x="149.567858" y="255.567784" style="fill: #dc143c; stroke: #dc143c"/>
     <use xlink:href="#m0fb489c725" x="104.214472" y="251.938309" style="fill: #dc143c; stroke: #dc143c"/>
     <use xlink:href="#m0fb489c725" x="177.747305" y="210.538954" style="fill: #dc143c; stroke: #dc143c"/>
    </g>
   </g>
   <g id="PathCollection_9">
    <defs>
     <path id="mdeea2887e3" d="M 0 1.5 
C 0.397805 1.5 0.77937 1.341951 1.06066 1.06066 
C 1.341951 0.77937 1.5 0.397805 1.5 0 
C 1.5 -0.397805 1.341951 -0.77937 1.06066 -1.06066 
C 0.77937 -1.341951 0.397805 -1.5 0 -1.5 
C -0.397805 -1.5 -0.77937 -1.341951 -1.06066 -1.06066 
C -1.341951 -0.77937 -1.5 -0.397805 -1.5 0 
C -1.5 0.397805 -1.341951 0.77937 -1.06066 1.06066 
C -0.77937 1.341951 -0.397805 1.5 0 1.5 
z
" style="stroke: #ffe4c4"/>
    </defs>
    <g clip-path="url(#pefa239ceab)">
     <use xlink:href="#mdeea2887e3" x="212.24123" y="215.389381" style="fill: #ffe4c4; stroke: #ffe4c4"/>
     <use xlink:href="#mdeea2887e3" x="136.16601" y="215.270221" style="fill: #ffe4c4; stroke: #ffe4c4"/>
     <use xlink:href="#mdeea2887e3" x="147.301605" y="175.761994" style="fill: #ffe4c4; stroke: #ffe4c4"/>
     <use xlink:href="#mdeea2887e3" x="162.796536" y="200.012171" style="fill: #ffe4c4; stroke: #ffe4c4"/>
     <use xlink:href="#mdeea2887e3" x="202.150693" y="157.773647" style="fill: #ffe4c4; stroke: #ffe4c4"/>
     <use xlink:href="#mdeea2887e3" x="158.007626" y="240.278868" style="fill: #ffe4c4; stroke: #ffe4c4"/>
     <use xlink:href="#mdeea2887e3" x="141.325995" y="151.515971" style="fill: #ffe4c4; stroke: #ffe4c4"/>
     <use xlink:href="#mdeea2887e3" x="300.460694" y="220.495375" style="fill: #ffe4c4; stroke: #ffe4c4"/>
     <use xlink:href="#mdeea2887e3" x="193.819748" y="203.470164" style="fill: #ffe4c4; stroke: #ffe4c4"/>
     <use xlink:href="#mdeea2887e3" x="284.919011" y="169.054725" style="fill: #ffe4c4; stroke: #ffe4c4"/>
     <use xlink:href="#mdeea2887e3" x="237.461433" y="200.256436" style="fill: #ffe4c4; stroke: #ffe4c4"/>
     <use xlink:href="#mdeea2887e3" x="214.240488" y="198.463752" style="fill: #ffe4c4; stroke: #ffe4c4"/>
     <use xlink:href="#mdeea2887e3" x="299.846135" y="158.97574" style="fill: #ffe4c4; stroke: #ffe4c4"/>
     <use xlink:href="#mdeea2887e3" x="210.457952" y="175.657527" style="fill: #ffe4c4; stroke: #ffe4c4"/>
    </g>
   </g>
   <g id="PathCollection_10">
    <defs>
     <path id="mbf37ccc800" d="M -2.99994 2.99994 
L 3.00006 2.99994 
L 3.00006 -3.00006 
L -2.99994 -3.00006 
z
" style="stroke: #000000"/>
    </defs>
    <g clip-path="url(#pefa239ceab)">
     <use xlink:href="#mbf37ccc800" x="176.505907" y="167.591349" style="stroke: #000000"/>
     <use xlink:href="#mbf37ccc800" x="123.63387" y="160.981085" style="stroke: #000000"/>
     <use xlink:href="#mbf37ccc800" x="78.088473" y="179.840516" style="stroke: #000000"/>
     <use xlink:href="#mbf37ccc800" x="143.141515" y="141.646138" style="stroke: #000000"/>
     <use xlink:href="#mbf37ccc800" x="94.533701" y="143.811897" style="stroke: #000000"/>
     <use xlink:href="#mbf37ccc800" x="112.767854" y="176.803666" style="stroke: #000000"/>
     <use xlink:href="#mbf37ccc800" x="121.665577" y="202.707578" style="stroke: #000000"/>
     <use xlink:href="#mbf37ccc800" x="82.080096" y="78.987719" style="stroke: #000000"/>
     <use xlink:href="#mbf37ccc800" x="51.537415" y="74.348828" style="stroke: #000000"/>
     <use xlink:href="#mbf37ccc800" x="112.525955" y="218.785968" style="stroke: #000000"/>
     <use xlink:href="#mbf37ccc800" x="148.642841" y="172.549347" style="stroke: #000000"/>
     <use xlink:href="#mbf37ccc800" x="88.53055" y="179.321091" style="stroke: #000000"/>
     <use xlink:href="#mbf37ccc800" x="88.869196" y="195.668262" style="stroke: #000000"/>
     <use xlink:href="#mbf37ccc800" x="75.510535" y="176.593511" style="stroke: #000000"/>
     <use xlink:href="#mbf37ccc800" x="140.048485" y="137.75948" style="stroke: #000000"/>
     <use xlink:href="#mbf37ccc800" x="85.300774" y="213.828878" style="stroke: #000000"/>
     <use xlink:href="#mbf37ccc800" x="100.50289" y="150.018503" style="stroke: #000000"/>
     <use xlink:href="#mbf37ccc800" x="81.651793" y="230.330489" style="stroke: #000000"/>
     <use xlink:href="#mbf37ccc800" x="91.543793" y="103.087314" style="stroke: #000000"/>
     <use xlink:href="#mbf37ccc800" x="78.273362" y="85.249422" style="stroke: #000000"/>
     <use xlink:href="#mbf37ccc800" x="102.916082" y="143.443586" style="stroke: #000000"/>
     <use xlink:href="#mbf37ccc800" x="83.987305" y="101.019721" style="stroke: #000000"/>
     <use xlink:href="#mbf37ccc800" x="122.114981" y="211.801363" style="stroke: #000000"/>
     <use xlink:href="#mbf37ccc800" x="126.300531" y="168.110245" style="stroke: #000000"/>
     <use xlink:href="#mbf37ccc800" x="101.647765" y="120.44743" style="stroke: #000000"/>
     <use xlink:href="#mbf37ccc800" x="72.68047" y="93.945311" style="stroke: #000000"/>
     <use xlink:href="#mbf37ccc800" x="132.2889" y="203.087601" style="stroke: #000000"/>
     <use xlink:href="#mbf37ccc800" x="72.170146" y="106.647373" style="stroke: #000000"/>
     <use xlink:href="#mbf37ccc800" x="98.489773" y="232.538694" style="stroke: #000000"/>
     <use xlink:href="#mbf37ccc800" x="102.961113" y="165.553565" style="stroke: #000000"/>
     <use xlink:href="#mbf37ccc800" x="75.6099" y="104.477188" style="stroke: #000000"/>
     <use xlink:href="#mbf37ccc800" x="102.433674" y="179.098464" style="stroke: #000000"/>
     <use xlink:href="#mbf37ccc800" x="115.936409" y="182.440112" style="stroke: #000000"/>
     <use xlink:href="#mbf37ccc800" x="121.077099" y="130.096066" style="stroke: #000000"/>
     <use xlink:href="#mbf37ccc800" x="107.30166" y="144.12256" style="stroke: #000000"/>
     <use xlink:href="#mbf37ccc800" x="90.47749" y="160.493918" style="stroke: #000000"/>
     <use xlink:href="#mbf37ccc800" x="68.216819" y="200.275043" style="stroke: #000000"/>
     <use xlink:href="#mbf37ccc800" x="135.210302" y="156.135451" style="stroke: #000000"/>
     <use xlink:href="#mbf37ccc800" x="88.504973" y="196.491447" style="stroke: #000000"/>
     <use xlink:href="#mbf37ccc800" x="108.79495" y="176.579703" style="stroke: #000000"/>
     <use xlink:href="#mbf37ccc800" x="134.637123" y="127.770244" style="stroke: #000000"/>
     <use xlink:href="#mbf37ccc800" x="101.586331" y="119.961876" style="stroke: #000000"/>
     <use xlink:href="#mbf37ccc800" x="149.173387" y="21.461816" style="stroke: #000000"/>
     <use xlink:href="#mbf37ccc800" x="71.954675" y="130.539897" style="stroke: #000000"/>
     <use xlink:href="#mbf37ccc800" x="159.966456" y="183.110237" style="stroke: #000000"/>
     <use xlink:href="#mbf37ccc800" x="95.948079" y="122.955535" style="stroke: #000000"/>
     <use xlink:href="#mbf37ccc800" x="89.628003" y="187.317448" style="stroke: #000000"/>
     <use xlink:href="#mbf37ccc800" x="102.772278" y="187.81898" style="stroke: #000000"/>
     <use xlink:href="#mbf37ccc800" x="100.939301" y="188.955038" style="stroke: #000000"/>
     <use xlink:href="#mbf37ccc800" x="130.805636" y="181.144508" style="stroke: #000000"/>
     <use xlink:href="#mbf37ccc800" x="93.389934" y="168.586506" style="stroke: #000000"/>
     <use xlink:href="#mbf37ccc800" x="90.077978" y="196.421763" style="stroke: #000000"/>
     <use xlink:href="#mbf37ccc800" x="98.544844" y="187.035165" style="stroke: #000000"/>
     <use xlink:href="#mbf37ccc800" x="119.366353" y="199.275171" style="stroke: #000000"/>
     <use xlink:href="#mbf37ccc800" x="54.136613" y="107.280588" style="stroke: #000000"/>
     <use xlink:href="#mbf37ccc800" x="99.667593" y="141.854504" style="stroke: #000000"/>
     <use xlink:href="#mbf37ccc800" x="121.336351" y="169.924494" style="stroke: #000000"/>
     <use xlink:href="#mbf37ccc800" x="131.851368" y="217.992127" style="stroke: #000000"/>
     <use xlink:href="#mbf37ccc800" x="118.778498" y="160.989129" style="stroke: #000000"/>
     <use xlink:href="#mbf37ccc800" x="97.862094" y="184.7496" style="stroke: #000000"/>
     <use xlink:href="#mbf37ccc800" x="126.438084" y="140.107263" style="stroke: #000000"/>
     <use xlink:href="#mbf37ccc800" x="121.864437" y="141.168351" style="stroke: #000000"/>
     <use xlink:href="#mbf37ccc800" x="85.357825" y="107.704521" style="stroke: #000000"/>
     <use xlink:href="#mbf37ccc800" x="114.43701" y="115.778087" style="stroke: #000000"/>
    </g>
   </g>
   <g id="PathCollection_11">
    <defs>
     <path id="m15a81638eb" d="M -3 -0 
L 3 3 
L 3 -3 
z
" style="stroke: #ff8c00"/>
    </defs>
    <g clip-path="url(#pefa239ceab)">
     <use xlink:href="#m15a81638eb" x="102.261049" y="191.660069" style="fill: #ff8c00; stroke: #ff8c00"/>
     <use xlink:href="#m15a81638eb" x="144.291046" y="207.647263" style="fill: #ff8c00; stroke: #ff8c00"/>
     <use xlink:href="#m15a81638eb" x="109.053977" y="177.736153" style="fill: #ff8c00; stroke: #ff8c00"/>
     <use xlink:href="#m15a81638eb" x="84.373083" y="169.323338" style="fill: #ff8c00; stroke: #ff8c00"/>
     <use xlink:href="#m15a81638eb" x="78.91907" y="170.947324" style="fill: #ff8c00; stroke: #ff8c00"/>
     <use xlink:href="#m15a81638eb" x="84.318075" y="154.575254" style="fill: #ff8c00; stroke: #ff8c00"/>
     <use xlink:href="#m15a81638eb" x="118.830101" y="198.04226" style="fill: #ff8c00; stroke: #ff8c00"/>
     <use xlink:href="#m15a81638eb" x="108.995706" y="185.648638" style="fill: #ff8c00; stroke: #ff8c00"/>
     <use xlink:href="#m15a81638eb" x="106.092712" y="180.612654" style="fill: #ff8c00; stroke: #ff8c00"/>
     <use xlink:href="#m15a81638eb" x="82.898094" y="186.355356" style="fill: #ff8c00; stroke: #ff8c00"/>
     <use xlink:href="#m15a81638eb" x="91.379155" y="178.507726" style="fill: #ff8c00; stroke: #ff8c00"/>
     <use xlink:href="#m15a81638eb" x="93.361201" y="178.622693" style="fill: #ff8c00; stroke: #ff8c00"/>
     <use xlink:href="#m15a81638eb" x="121.741048" y="200.415463" style="fill: #ff8c00; stroke: #ff8c00"/>
     <use xlink:href="#m15a81638eb" x="123.562375" y="200.878191" style="fill: #ff8c00; stroke: #ff8c00"/>
     <use xlink:href="#m15a81638eb" x="103.128829" y="202.300854" style="fill: #ff8c00; stroke: #ff8c00"/>
     <use xlink:href="#m15a81638eb" x="89.282722" y="145.377178" style="fill: #ff8c00; stroke: #ff8c00"/>
     <use xlink:href="#m15a81638eb" x="106.248879" y="180.652073" style="fill: #ff8c00; stroke: #ff8c00"/>
     <use xlink:href="#m15a81638eb" x="128.800349" y="205.420649" style="fill: #ff8c00; stroke: #ff8c00"/>
     <use xlink:href="#m15a81638eb" x="97.502988" y="175.611866" style="fill: #ff8c00; stroke: #ff8c00"/>
     <use xlink:href="#m15a81638eb" x="100.518518" y="194.77647" style="fill: #ff8c00; stroke: #ff8c00"/>
     <use xlink:href="#m15a81638eb" x="96.978332" y="189.047209" style="fill: #ff8c00; stroke: #ff8c00"/>
     <use xlink:href="#m15a81638eb" x="95.250202" y="194.296598" style="fill: #ff8c00; stroke: #ff8c00"/>
     <use xlink:href="#m15a81638eb" x="82.813112" y="190.341208" style="fill: #ff8c00; stroke: #ff8c00"/>
     <use xlink:href="#m15a81638eb" x="101.401066" y="187.110689" style="fill: #ff8c00; stroke: #ff8c00"/>
     <use xlink:href="#m15a81638eb" x="130.105138" y="192.569522" style="fill: #ff8c00; stroke: #ff8c00"/>
     <use xlink:href="#m15a81638eb" x="86.397748" y="189.356575" style="fill: #ff8c00; stroke: #ff8c00"/>
     <use xlink:href="#m15a81638eb" x="122.42674" y="206.481988" style="fill: #ff8c00; stroke: #ff8c00"/>
     <use xlink:href="#m15a81638eb" x="64.304163" y="172.851099" style="fill: #ff8c00; stroke: #ff8c00"/>
     <use xlink:href="#m15a81638eb" x="102.18903" y="208.82546" style="fill: #ff8c00; stroke: #ff8c00"/>
     <use xlink:href="#m15a81638eb" x="99.988873" y="185.55873" style="fill: #ff8c00; stroke: #ff8c00"/>
     <use xlink:href="#m15a81638eb" x="85.835164" y="172.554528" style="fill: #ff8c00; stroke: #ff8c00"/>
     <use xlink:href="#m15a81638eb" x="89.739781" y="174.572262" style="fill: #ff8c00; stroke: #ff8c00"/>
     <use xlink:href="#m15a81638eb" x="104.395144" y="185.131324" style="fill: #ff8c00; stroke: #ff8c00"/>
     <use xlink:href="#m15a81638eb" x="126.878778" y="218.008037" style="fill: #ff8c00; stroke: #ff8c00"/>
     <use xlink:href="#m15a81638eb" x="103.062991" y="183.576949" style="fill: #ff8c00; stroke: #ff8c00"/>
     <use xlink:href="#m15a81638eb" x="92.454057" y="164.601406" style="fill: #ff8c00; stroke: #ff8c00"/>
     <use xlink:href="#m15a81638eb" x="114.865586" y="182.838188" style="fill: #ff8c00; stroke: #ff8c00"/>
     <use xlink:href="#m15a81638eb" x="108.737805" y="199.206772" style="fill: #ff8c00; stroke: #ff8c00"/>
     <use xlink:href="#m15a81638eb" x="69.49838" y="146.723006" style="fill: #ff8c00; stroke: #ff8c00"/>
     <use xlink:href="#m15a81638eb" x="93.629203" y="175.589277" style="fill: #ff8c00; stroke: #ff8c00"/>
     <use xlink:href="#m15a81638eb" x="144.409401" y="177.262566" style="fill: #ff8c00; stroke: #ff8c00"/>
     <use xlink:href="#m15a81638eb" x="89.169752" y="173.480945" style="fill: #ff8c00; stroke: #ff8c00"/>
     <use xlink:href="#m15a81638eb" x="136.907197" y="212.54274" style="fill: #ff8c00; stroke: #ff8c00"/>
     <use xlink:href="#m15a81638eb" x="98.294606" y="197.30958" style="fill: #ff8c00; stroke: #ff8c00"/>
     <use xlink:href="#m15a81638eb" x="84.982717" y="181.437343" style="fill: #ff8c00; stroke: #ff8c00"/>
     <use xlink:href="#m15a81638eb" x="94.712541" y="203.047362" style="fill: #ff8c00; stroke: #ff8c00"/>
     <use xlink:href="#m15a81638eb" x="94.951679" y="208.713274" style="fill: #ff8c00; stroke: #ff8c00"/>
     <use xlink:href="#m15a81638eb" x="85.712121" y="182.215851" style="fill: #ff8c00; stroke: #ff8c00"/>
     <use xlink:href="#m15a81638eb" x="99.837219" y="195.683438" style="fill: #ff8c00; stroke: #ff8c00"/>
     <use xlink:href="#m15a81638eb" x="83.059242" y="204.389857" style="fill: #ff8c00; stroke: #ff8c00"/>
     <use xlink:href="#m15a81638eb" x="82.317214" y="239.150845" style="fill: #ff8c00; stroke: #ff8c00"/>
     <use xlink:href="#m15a81638eb" x="87.520965" y="191.328169" style="fill: #ff8c00; stroke: #ff8c00"/>
     <use xlink:href="#m15a81638eb" x="92.624906" y="201.496295" style="fill: #ff8c00; stroke: #ff8c00"/>
     <use xlink:href="#m15a81638eb" x="66.379148" y="170.983539" style="fill: #ff8c00; stroke: #ff8c00"/>
     <use xlink:href="#m15a81638eb" x="91.454155" y="158.943848" style="fill: #ff8c00; stroke: #ff8c00"/>
     <use xlink:href="#m15a81638eb" x="89.836658" y="194.31558" style="fill: #ff8c00; stroke: #ff8c00"/>
     <use xlink:href="#m15a81638eb" x="81.785418" y="153.953639" style="fill: #ff8c00; stroke: #ff8c00"/>
     <use xlink:href="#m15a81638eb" x="118.443553" y="192.765657" style="fill: #ff8c00; stroke: #ff8c00"/>
     <use xlink:href="#m15a81638eb" x="83.56633" y="216.622357" style="fill: #ff8c00; stroke: #ff8c00"/>
     <use xlink:href="#m15a81638eb" x="76.470905" y="199.254631" style="fill: #ff8c00; stroke: #ff8c00"/>
     <use xlink:href="#m15a81638eb" x="89.32703" y="141.997948" style="fill: #ff8c00; stroke: #ff8c00"/>
     <use xlink:href="#m15a81638eb" x="90.791883" y="184.284043" style="fill: #ff8c00; stroke: #ff8c00"/>
     <use xlink:href="#m15a81638eb" x="94.066989" y="169.8172" style="fill: #ff8c00; stroke: #ff8c00"/>
     <use xlink:href="#m15a81638eb" x="120.694301" y="195.325466" style="fill: #ff8c00; stroke: #ff8c00"/>
    </g>
   </g>
   <g id="matplotlib.axis_1">
    <g id="xtick_1">
     <g id="line2d_1">
      <defs>
       <path id="mb3aec33f41" d="M 0 0 
L 0 3.5 
" style="stroke: #000000; stroke-width: 0.8"/>
      </defs>
      <g>
       <use xlink:href="#mb3aec33f41" x="46.390327" y="275.477816" style="stroke: #000000; stroke-width: 0.8"/>
      </g>
     </g>
     <g id="text_1">
      <!-- −10 -->
      <g transform="translate(35.837983 290.076254) scale(0.1 -0.1)">
       <defs>
        <path id="DejaVuSans-2212" d="M 678 2272 
L 4684 2272 
L 4684 1741 
L 678 1741 
L 678 2272 
z
" transform="scale(0.015625)"/>
        <path id="DejaVuSans-31" d="M 794 531 
L 1825 531 
L 1825 4091 
L 703 3866 
L 703 4441 
L 1819 4666 
L 2450 4666 
L 2450 531 
L 3481 531 
L 3481 0 
L 794 0 
L 794 531 
z
" transform="scale(0.015625)"/>
        <path id="DejaVuSans-30" d="M 2034 4250 
Q 1547 4250 1301 3770 
Q 1056 3291 1056 2328 
Q 1056 1369 1301 889 
Q 1547 409 2034 409 
Q 2525 409 2770 889 
Q 3016 1369 3016 2328 
Q 3016 3291 2770 3770 
Q 2525 4250 2034 4250 
z
M 2034 4750 
Q 2819 4750 3233 4129 
Q 3647 3509 3647 2328 
Q 3647 1150 3233 529 
Q 2819 -91 2034 -91 
Q 1250 -91 836 529 
Q 422 1150 422 2328 
Q 422 3509 836 4129 
Q 1250 4750 2034 4750 
z
" transform="scale(0.015625)"/>
       </defs>
       <use xlink:href="#DejaVuSans-2212"/>
       <use xlink:href="#DejaVuSans-31" x="83.789062"/>
       <use xlink:href="#DejaVuSans-30" x="147.412109"/>
      </g>
     </g>
    </g>
    <g id="xtick_2">
     <g id="line2d_2">
      <g>
       <use xlink:href="#mb3aec33f41" x="123.689386" y="275.477816" style="stroke: #000000; stroke-width: 0.8"/>
      </g>
     </g>
     <g id="text_2">
      <!-- 0 -->
      <g transform="translate(120.508136 290.076254) scale(0.1 -0.1)">
       <use xlink:href="#DejaVuSans-30"/>
      </g>
     </g>
    </g>
    <g id="xtick_3">
     <g id="line2d_3">
      <g>
       <use xlink:href="#mb3aec33f41" x="200.988445" y="275.477816" style="stroke: #000000; stroke-width: 0.8"/>
      </g>
     </g>
     <g id="text_3">
      <!-- 10 -->
      <g transform="translate(194.625945 290.076254) scale(0.1 -0.1)">
       <use xlink:href="#DejaVuSans-31"/>
       <use xlink:href="#DejaVuSans-30" x="63.623047"/>
      </g>
     </g>
    </g>
    <g id="xtick_4">
     <g id="line2d_4">
      <g>
       <use xlink:href="#mb3aec33f41" x="278.287505" y="275.477816" style="stroke: #000000; stroke-width: 0.8"/>
      </g>
     </g>
     <g id="text_4">
      <!-- 20 -->
      <g transform="translate(271.925005 290.076254) scale(0.1 -0.1)">
       <defs>
        <path id="DejaVuSans-32" d="M 1228 531 
L 3431 531 
L 3431 0 
L 469 0 
L 469 531 
Q 828 903 1448 1529 
Q 2069 2156 2228 2338 
Q 2531 2678 2651 2914 
Q 2772 3150 2772 3378 
Q 2772 3750 2511 3984 
Q 2250 4219 1831 4219 
Q 1534 4219 1204 4116 
Q 875 4013 500 3803 
L 500 4441 
Q 881 4594 1212 4672 
Q 1544 4750 1819 4750 
Q 2544 4750 2975 4387 
Q 3406 4025 3406 3419 
Q 3406 3131 3298 2873 
Q 3191 2616 2906 2266 
Q 2828 2175 2409 1742 
Q 1991 1309 1228 531 
z
" transform="scale(0.015625)"/>
       </defs>
       <use xlink:href="#DejaVuSans-32"/>
       <use xlink:href="#DejaVuSans-30" x="63.623047"/>
      </g>
     </g>
    </g>
    <g id="xtick_5">
     <g id="line2d_5">
      <g>
       <use xlink:href="#mb3aec33f41" x="355.586564" y="275.477816" style="stroke: #000000; stroke-width: 0.8"/>
      </g>
     </g>
     <g id="text_5">
      <!-- 30 -->
      <g transform="translate(349.224064 290.076254) scale(0.1 -0.1)">
       <defs>
        <path id="DejaVuSans-33" d="M 2597 2516 
Q 3050 2419 3304 2112 
Q 3559 1806 3559 1356 
Q 3559 666 3084 287 
Q 2609 -91 1734 -91 
Q 1441 -91 1130 -33 
Q 819 25 488 141 
L 488 750 
Q 750 597 1062 519 
Q 1375 441 1716 441 
Q 2309 441 2620 675 
Q 2931 909 2931 1356 
Q 2931 1769 2642 2001 
Q 2353 2234 1838 2234 
L 1294 2234 
L 1294 2753 
L 1863 2753 
Q 2328 2753 2575 2939 
Q 2822 3125 2822 3475 
Q 2822 3834 2567 4026 
Q 2313 4219 1838 4219 
Q 1578 4219 1281 4162 
Q 984 4106 628 3988 
L 628 4550 
Q 988 4650 1302 4700 
Q 1616 4750 1894 4750 
Q 2613 4750 3031 4423 
Q 3450 4097 3450 3541 
Q 3450 3153 3228 2886 
Q 3006 2619 2597 2516 
z
" transform="scale(0.015625)"/>
       </defs>
       <use xlink:href="#DejaVuSans-33"/>
       <use xlink:href="#DejaVuSans-30" x="63.623047"/>
      </g>
     </g>
    </g>
   </g>
   <g id="matplotlib.axis_2">
    <g id="ytick_1">
     <g id="line2d_6">
      <defs>
       <path id="m210f2c3367" d="M 0 0 
L -3.5 0 
" style="stroke: #000000; stroke-width: 0.8"/>
      </defs>
      <g>
       <use xlink:href="#m210f2c3367" x="35.304688" y="248.092515" style="stroke: #000000; stroke-width: 0.8"/>
      </g>
     </g>
     <g id="text_6">
      <!-- −10 -->
      <g transform="translate(7.2 251.891734) scale(0.1 -0.1)">
       <use xlink:href="#DejaVuSans-2212"/>
       <use xlink:href="#DejaVuSans-31" x="83.789062"/>
       <use xlink:href="#DejaVuSans-30" x="147.412109"/>
      </g>
     </g>
    </g>
    <g id="ytick_2">
     <g id="line2d_7">
      <g>
       <use xlink:href="#m210f2c3367" x="35.304688" y="218.455853" style="stroke: #000000; stroke-width: 0.8"/>
      </g>
     </g>
     <g id="text_7">
      <!-- −5 -->
      <g transform="translate(13.5625 222.255072) scale(0.1 -0.1)">
       <defs>
        <path id="DejaVuSans-35" d="M 691 4666 
L 3169 4666 
L 3169 4134 
L 1269 4134 
L 1269 2991 
Q 1406 3038 1543 3061 
Q 1681 3084 1819 3084 
Q 2600 3084 3056 2656 
Q 3513 2228 3513 1497 
Q 3513 744 3044 326 
Q 2575 -91 1722 -91 
Q 1428 -91 1123 -41 
Q 819 9 494 109 
L 494 744 
Q 775 591 1075 516 
Q 1375 441 1709 441 
Q 2250 441 2565 725 
Q 2881 1009 2881 1497 
Q 2881 1984 2565 2268 
Q 2250 2553 1709 2553 
Q 1456 2553 1204 2497 
Q 953 2441 691 2322 
L 691 4666 
z
" transform="scale(0.015625)"/>
       </defs>
       <use xlink:href="#DejaVuSans-2212"/>
       <use xlink:href="#DejaVuSans-35" x="83.789062"/>
      </g>
     </g>
    </g>
    <g id="ytick_3">
     <g id="line2d_8">
      <g>
       <use xlink:href="#m210f2c3367" x="35.304688" y="188.819191" style="stroke: #000000; stroke-width: 0.8"/>
      </g>
     </g>
     <g id="text_8">
      <!-- 0 -->
      <g transform="translate(21.942187 192.61841) scale(0.1 -0.1)">
       <use xlink:href="#DejaVuSans-30"/>
      </g>
     </g>
    </g>
    <g id="ytick_4">
     <g id="line2d_9">
      <g>
       <use xlink:href="#m210f2c3367" x="35.304688" y="159.182529" style="stroke: #000000; stroke-width: 0.8"/>
      </g>
     </g>
     <g id="text_9">
      <!-- 5 -->
      <g transform="translate(21.942187 162.981748) scale(0.1 -0.1)">
       <use xlink:href="#DejaVuSans-35"/>
      </g>
     </g>
    </g>
    <g id="ytick_5">
     <g id="line2d_10">
      <g>
       <use xlink:href="#m210f2c3367" x="35.304688" y="129.545867" style="stroke: #000000; stroke-width: 0.8"/>
      </g>
     </g>
     <g id="text_10">
      <!-- 10 -->
      <g transform="translate(15.579687 133.345086) scale(0.1 -0.1)">
       <use xlink:href="#DejaVuSans-31"/>
       <use xlink:href="#DejaVuSans-30" x="63.623047"/>
      </g>
     </g>
    </g>
    <g id="ytick_6">
     <g id="line2d_11">
      <g>
       <use xlink:href="#m210f2c3367" x="35.304688" y="99.909205" style="stroke: #000000; stroke-width: 0.8"/>
      </g>
     </g>
     <g id="text_11">
      <!-- 15 -->
      <g transform="translate(15.579687 103.708424) scale(0.1 -0.1)">
       <use xlink:href="#DejaVuSans-31"/>
       <use xlink:href="#DejaVuSans-35" x="63.623047"/>
      </g>
     </g>
    </g>
    <g id="ytick_7">
     <g id="line2d_12">
      <g>
       <use xlink:href="#m210f2c3367" x="35.304688" y="70.272543" style="stroke: #000000; stroke-width: 0.8"/>
      </g>
     </g>
     <g id="text_12">
      <!-- 20 -->
      <g transform="translate(15.579687 74.071762) scale(0.1 -0.1)">
       <use xlink:href="#DejaVuSans-32"/>
       <use xlink:href="#DejaVuSans-30" x="63.623047"/>
      </g>
     </g>
    </g>
    <g id="ytick_8">
     <g id="line2d_13">
      <g>
       <use xlink:href="#m210f2c3367" x="35.304688" y="40.635881" style="stroke: #000000; stroke-width: 0.8"/>
      </g>
     </g>
     <g id="text_13">
      <!-- 25 -->
      <g transform="translate(15.579687 44.4351) scale(0.1 -0.1)">
       <use xlink:href="#DejaVuSans-32"/>
       <use xlink:href="#DejaVuSans-35" x="63.623047"/>
      </g>
     </g>
    </g>
    <g id="ytick_9">
     <g id="line2d_14">
      <g>
       <use xlink:href="#m210f2c3367" x="35.304688" y="10.999219" style="stroke: #000000; stroke-width: 0.8"/>
      </g>
     </g>
     <g id="text_14">
      <!-- 30 -->
      <g transform="translate(15.579687 14.798437) scale(0.1 -0.1)">
       <use xlink:href="#DejaVuSans-33"/>
       <use xlink:href="#DejaVuSans-30" x="63.623047"/>
      </g>
     </g>
    </g>
   </g>
   <g id="patch_3">
    <path d="M 35.304688 275.477816 
L 35.304688 9.365816 
" style="fill: none; stroke: #000000; stroke-width: 0.8; stroke-linejoin: miter; stroke-linecap: square"/>
   </g>
   <g id="patch_4">
    <path d="M 392.424688 275.477816 
L 392.424688 9.365816 
" style="fill: none; stroke: #000000; stroke-width: 0.8; stroke-linejoin: miter; stroke-linecap: square"/>
   </g>
   <g id="patch_5">
    <path d="M 35.304688 275.477816 
L 392.424688 275.477816 
" style="fill: none; stroke: #000000; stroke-width: 0.8; stroke-linejoin: miter; stroke-linecap: square"/>
   </g>
   <g id="patch_6">
    <path d="M 35.304688 9.365816 
L 392.424688 9.365816 
" style="fill: none; stroke: #000000; stroke-width: 0.8; stroke-linejoin: miter; stroke-linecap: square"/>
   </g>
  </g>
 </g>
 <defs>
  <clipPath id="pefa239ceab">
   <rect x="35.304688" y="9.365816" width="357.12" height="266.112"/>
  </clipPath>
 </defs>
</svg>
