<?xml version="1.0" encoding="utf-8" standalone="no"?>
<!DOCTYPE svg PUBLIC "-//W3C//DTD SVG 1.1//EN"
  "http://www.w3.org/Graphics/SVG/1.1/DTD/svg11.dtd">
<svg xmlns:xlink="http://www.w3.org/1999/xlink" width="399.624687pt" height="297.190125pt" viewBox="0 0 399.624687 297.190125" xmlns="http://www.w3.org/2000/svg" version="1.1">
 <metadata>
  <rdf:RDF xmlns:dc="http://purl.org/dc/elements/1.1/" xmlns:cc="http://creativecommons.org/ns#" xmlns:rdf="http://www.w3.org/1999/02/22-rdf-syntax-ns#">
   <cc:Work>
    <dc:type rdf:resource="http://purl.org/dc/dcmitype/StillImage"/>
    <dc:date>2023-11-11T16:43:24.434398</dc:date>
    <dc:format>image/svg+xml</dc:format>
    <dc:creator>
     <cc:Agent>
      <dc:title>Matplotlib v3.8.0, https://matplotlib.org/</dc:title>
     </cc:Agent>
    </dc:creator>
   </cc:Work>
  </rdf:RDF>
 </metadata>
 <defs>
  <style type="text/css">*{stroke-linejoin: round; stroke-linecap: butt}</style>
 </defs>
 <g id="figure_1">
  <g id="patch_1">
   <path d="M 0 297.190125 
L 399.624687 297.190125 
L 399.624687 0 
L 0 0 
z
" style="fill: #ffffff"/>
  </g>
  <g id="axes_1">
   <g id="patch_2">
    <path d="M 35.304688 273.312 
L 392.424688 273.312 
L 392.424688 7.2 
L 35.304688 7.2 
z
" style="fill: #ffffff"/>
   </g>
   <g id="PathCollection_1">
    <defs>
     <path id="ma90b4d0fa9" d="M 0 1.5 
C 0.397805 1.5 0.77937 1.341951 1.06066 1.06066 
C 1.341951 0.77937 1.5 0.397805 1.5 0 
C 1.5 -0.397805 1.341951 -0.77937 1.06066 -1.06066 
C 0.77937 -1.341951 0.397805 -1.5 0 -1.5 
C -0.397805 -1.5 -0.77937 -1.341951 -1.06066 -1.06066 
C -1.341951 -0.77937 -1.5 -0.397805 -1.5 0 
C -1.5 0.397805 -1.341951 0.77937 -1.06066 1.06066 
C -0.77937 1.341951 -0.397805 1.5 0 1.5 
z
" style="stroke: #ff8c00"/>
    </defs>
    <g clip-path="url(#pa39d9a3c5f)">
     <use xlink:href="#ma90b4d0fa9" x="137.869796" y="201.59033" style="fill: #ff8c00; stroke: #ff8c00"/>
     <use xlink:href="#ma90b4d0fa9" x="219.251662" y="139.480408" style="fill: #ff8c00; stroke: #ff8c00"/>
     <use xlink:href="#ma90b4d0fa9" x="142.684763" y="258.112169" style="fill: #ff8c00; stroke: #ff8c00"/>
     <use xlink:href="#ma90b4d0fa9" x="140.542986" y="201.657042" style="fill: #ff8c00; stroke: #ff8c00"/>
     <use xlink:href="#ma90b4d0fa9" x="149.821318" y="231.756398" style="fill: #ff8c00; stroke: #ff8c00"/>
     <use xlink:href="#ma90b4d0fa9" x="214.668599" y="224.571504" style="fill: #ff8c00; stroke: #ff8c00"/>
     <use xlink:href="#ma90b4d0fa9" x="132.154069" y="203.972736" style="fill: #ff8c00; stroke: #ff8c00"/>
     <use xlink:href="#ma90b4d0fa9" x="122.364881" y="195.564375" style="fill: #ff8c00; stroke: #ff8c00"/>
     <use xlink:href="#ma90b4d0fa9" x="132.668137" y="124.769015" style="fill: #ff8c00; stroke: #ff8c00"/>
     <use xlink:href="#ma90b4d0fa9" x="191.301142" y="175.832257" style="fill: #ff8c00; stroke: #ff8c00"/>
     <use xlink:href="#ma90b4d0fa9" x="199.856396" y="120.389328" style="fill: #ff8c00; stroke: #ff8c00"/>
     <use xlink:href="#ma90b4d0fa9" x="159.534741" y="170.795985" style="fill: #ff8c00; stroke: #ff8c00"/>
     <use xlink:href="#ma90b4d0fa9" x="160.271887" y="181.766059" style="fill: #ff8c00; stroke: #ff8c00"/>
     <use xlink:href="#ma90b4d0fa9" x="157.736473" y="200.480273" style="fill: #ff8c00; stroke: #ff8c00"/>
     <use xlink:href="#ma90b4d0fa9" x="138.002733" y="215.485218" style="fill: #ff8c00; stroke: #ff8c00"/>
     <use xlink:href="#ma90b4d0fa9" x="156.648715" y="170.206698" style="fill: #ff8c00; stroke: #ff8c00"/>
    </g>
   </g>
   <g id="PathCollection_2">
    <defs>
     <path id="m49e3a2af2a" d="M 0 1.5 
C 0.397805 1.5 0.77937 1.341951 1.06066 1.06066 
C 1.341951 0.77937 1.5 0.397805 1.5 0 
C 1.5 -0.397805 1.341951 -0.77937 1.06066 -1.06066 
C 0.77937 -1.341951 0.397805 -1.5 0 -1.5 
C -0.397805 -1.5 -0.77937 -1.341951 -1.06066 -1.06066 
C -1.341951 -0.77937 -1.5 -0.397805 -1.5 0 
C -1.5 0.397805 -1.341951 0.77937 -1.06066 1.06066 
C -0.77937 1.341951 -0.397805 1.5 0 1.5 
z
" style="stroke: #006400"/>
    </defs>
    <g clip-path="url(#pa39d9a3c5f)">
     <use xlink:href="#m49e3a2af2a" x="180.78398" y="146.767674" style="fill: #006400; stroke: #006400"/>
     <use xlink:href="#m49e3a2af2a" x="253.889734" y="204.099129" style="fill: #006400; stroke: #006400"/>
     <use xlink:href="#m49e3a2af2a" x="193.466086" y="174.695732" style="fill: #006400; stroke: #006400"/>
     <use xlink:href="#m49e3a2af2a" x="376.19196" y="32.247108" style="fill: #006400; stroke: #006400"/>
     <use xlink:href="#m49e3a2af2a" x="321.665963" y="116.341884" style="fill: #006400; stroke: #006400"/>
     <use xlink:href="#m49e3a2af2a" x="261.425449" y="142.991668" style="fill: #006400; stroke: #006400"/>
     <use xlink:href="#m49e3a2af2a" x="298.71259" y="44.204443" style="fill: #006400; stroke: #006400"/>
     <use xlink:href="#m49e3a2af2a" x="343.586374" y="19.296" style="fill: #006400; stroke: #006400"/>
     <use xlink:href="#m49e3a2af2a" x="352.573585" y="107.235905" style="fill: #006400; stroke: #006400"/>
    </g>
   </g>
   <g id="PathCollection_3">
    <defs>
     <path id="m42edbf2326" d="M 0 1.5 
C 0.397805 1.5 0.77937 1.341951 1.06066 1.06066 
C 1.341951 0.77937 1.5 0.397805 1.5 0 
C 1.5 -0.397805 1.341951 -0.77937 1.06066 -1.06066 
C 0.77937 -1.341951 0.397805 -1.5 0 -1.5 
C -0.397805 -1.5 -0.77937 -1.341951 -1.06066 -1.06066 
C -1.341951 -0.77937 -1.5 -0.397805 -1.5 0 
C -1.5 0.397805 -1.341951 0.77937 -1.06066 1.06066 
C -0.77937 1.341951 -0.397805 1.5 0 1.5 
z
" style="stroke: #2f4f4f"/>
    </defs>
    <g clip-path="url(#pa39d9a3c5f)">
     <use xlink:href="#m42edbf2326" x="108.935319" y="173.099385" style="fill: #2f4f4f; stroke: #2f4f4f"/>
     <use xlink:href="#m42edbf2326" x="99.429168" y="105.345519" style="fill: #2f4f4f; stroke: #2f4f4f"/>
     <use xlink:href="#m42edbf2326" x="84.25117" y="128.758344" style="fill: #2f4f4f; stroke: #2f4f4f"/>
     <use xlink:href="#m42edbf2326" x="133.73536" y="213.811447" style="fill: #2f4f4f; stroke: #2f4f4f"/>
     <use xlink:href="#m42edbf2326" x="128.146037" y="184.590319" style="fill: #2f4f4f; stroke: #2f4f4f"/>
     <use xlink:href="#m42edbf2326" x="92.445014" y="205.269254" style="fill: #2f4f4f; stroke: #2f4f4f"/>
     <use xlink:href="#m42edbf2326" x="175.579103" y="184.732964" style="fill: #2f4f4f; stroke: #2f4f4f"/>
     <use xlink:href="#m42edbf2326" x="107.39271" y="134.660313" style="fill: #2f4f4f; stroke: #2f4f4f"/>
     <use xlink:href="#m42edbf2326" x="181.749848" y="233.158585" style="fill: #2f4f4f; stroke: #2f4f4f"/>
     <use xlink:href="#m42edbf2326" x="111.791055" y="181.840591" style="fill: #2f4f4f; stroke: #2f4f4f"/>
     <use xlink:href="#m42edbf2326" x="141.101638" y="149.013898" style="fill: #2f4f4f; stroke: #2f4f4f"/>
     <use xlink:href="#m42edbf2326" x="114.693207" y="178.083625" style="fill: #2f4f4f; stroke: #2f4f4f"/>
     <use xlink:href="#m42edbf2326" x="127.43281" y="228.88878" style="fill: #2f4f4f; stroke: #2f4f4f"/>
     <use xlink:href="#m42edbf2326" x="128.490329" y="116.646254" style="fill: #2f4f4f; stroke: #2f4f4f"/>
     <use xlink:href="#m42edbf2326" x="146.86705" y="191.610117" style="fill: #2f4f4f; stroke: #2f4f4f"/>
     <use xlink:href="#m42edbf2326" x="79.723557" y="187.682596" style="fill: #2f4f4f; stroke: #2f4f4f"/>
     <use xlink:href="#m42edbf2326" x="76.979644" y="175.806883" style="fill: #2f4f4f; stroke: #2f4f4f"/>
    </g>
   </g>
   <g id="PathCollection_4">
    <defs>
     <path id="m4d2485ce66" d="M 0 1.5 
C 0.397805 1.5 0.77937 1.341951 1.06066 1.06066 
C 1.341951 0.77937 1.5 0.397805 1.5 0 
C 1.5 -0.397805 1.341951 -0.77937 1.06066 -1.06066 
C 0.77937 -1.341951 0.397805 -1.5 0 -1.5 
C -0.397805 -1.5 -0.77937 -1.341951 -1.06066 -1.06066 
C -1.341951 -0.77937 -1.5 -0.397805 -1.5 0 
C -1.5 0.397805 -1.341951 0.77937 -1.06066 1.06066 
C -0.77937 1.341951 -0.397805 1.5 0 1.5 
z
" style="stroke: #00bfff"/>
    </defs>
    <g clip-path="url(#pa39d9a3c5f)">
     <use xlink:href="#m4d2485ce66" x="142.665289" y="205.883695" style="fill: #00bfff; stroke: #00bfff"/>
     <use xlink:href="#m4d2485ce66" x="107.473897" y="148.362948" style="fill: #00bfff; stroke: #00bfff"/>
     <use xlink:href="#m4d2485ce66" x="146.825664" y="206.785692" style="fill: #00bfff; stroke: #00bfff"/>
     <use xlink:href="#m4d2485ce66" x="109.983643" y="130.386927" style="fill: #00bfff; stroke: #00bfff"/>
     <use xlink:href="#m4d2485ce66" x="112.024157" y="213.417895" style="fill: #00bfff; stroke: #00bfff"/>
     <use xlink:href="#m4d2485ce66" x="92.261455" y="151.024252" style="fill: #00bfff; stroke: #00bfff"/>
     <use xlink:href="#m4d2485ce66" x="165.986112" y="216.736595" style="fill: #00bfff; stroke: #00bfff"/>
     <use xlink:href="#m4d2485ce66" x="94.333311" y="151.05067" style="fill: #00bfff; stroke: #00bfff"/>
     <use xlink:href="#m4d2485ce66" x="115.09666" y="132.737233" style="fill: #00bfff; stroke: #00bfff"/>
    </g>
   </g>
   <g id="PathCollection_5">
    <defs>
     <path id="mb65e5c1578" d="M 0 1.5 
C 0.397805 1.5 0.77937 1.341951 1.06066 1.06066 
C 1.341951 0.77937 1.5 0.397805 1.5 0 
C 1.5 -0.397805 1.341951 -0.77937 1.06066 -1.06066 
C 0.77937 -1.341951 0.397805 -1.5 0 -1.5 
C -0.397805 -1.5 -0.77937 -1.341951 -1.06066 -1.06066 
C -1.341951 -0.77937 -1.5 -0.397805 -1.5 0 
C -1.5 0.397805 -1.341951 0.77937 -1.06066 1.06066 
C -0.77937 1.341951 -0.397805 1.5 0 1.5 
z
" style="stroke: #ffff00"/>
    </defs>
    <g clip-path="url(#pa39d9a3c5f)">
     <use xlink:href="#mb65e5c1578" x="159.20629" y="69.262578" style="fill: #ffff00; stroke: #ffff00"/>
     <use xlink:href="#mb65e5c1578" x="105.840837" y="161.2701" style="fill: #ffff00; stroke: #ffff00"/>
     <use xlink:href="#mb65e5c1578" x="113.502038" y="192.395558" style="fill: #ffff00; stroke: #ffff00"/>
     <use xlink:href="#mb65e5c1578" x="148.630374" y="185.392351" style="fill: #ffff00; stroke: #ffff00"/>
     <use xlink:href="#mb65e5c1578" x="78.384032" y="142.249387" style="fill: #ffff00; stroke: #ffff00"/>
     <use xlink:href="#mb65e5c1578" x="122.492725" y="123.426385" style="fill: #ffff00; stroke: #ffff00"/>
     <use xlink:href="#mb65e5c1578" x="79.996326" y="157.181367" style="fill: #ffff00; stroke: #ffff00"/>
     <use xlink:href="#mb65e5c1578" x="106.467591" y="130.529136" style="fill: #ffff00; stroke: #ffff00"/>
     <use xlink:href="#mb65e5c1578" x="175.632416" y="170.461547" style="fill: #ffff00; stroke: #ffff00"/>
     <use xlink:href="#mb65e5c1578" x="106.339432" y="106.736916" style="fill: #ffff00; stroke: #ffff00"/>
     <use xlink:href="#mb65e5c1578" x="129.07807" y="166.942087" style="fill: #ffff00; stroke: #ffff00"/>
     <use xlink:href="#mb65e5c1578" x="116.47032" y="126.745975" style="fill: #ffff00; stroke: #ffff00"/>
     <use xlink:href="#mb65e5c1578" x="110.289058" y="141.998378" style="fill: #ffff00; stroke: #ffff00"/>
     <use xlink:href="#mb65e5c1578" x="164.62577" y="170.48783" style="fill: #ffff00; stroke: #ffff00"/>
     <use xlink:href="#mb65e5c1578" x="114.967461" y="171.930488" style="fill: #ffff00; stroke: #ffff00"/>
     <use xlink:href="#mb65e5c1578" x="69.919457" y="146.125865" style="fill: #ffff00; stroke: #ffff00"/>
    </g>
   </g>
   <g id="PathCollection_6">
    <defs>
     <path id="m593d155f31" d="M 0 1.5 
C 0.397805 1.5 0.77937 1.341951 1.06066 1.06066 
C 1.341951 0.77937 1.5 0.397805 1.5 0 
C 1.5 -0.397805 1.341951 -0.77937 1.06066 -1.06066 
C 0.77937 -1.341951 0.397805 -1.5 0 -1.5 
C -0.397805 -1.5 -0.77937 -1.341951 -1.06066 -1.06066 
C -1.341951 -0.77937 -1.5 -0.397805 -1.5 0 
C -1.5 0.397805 -1.341951 0.77937 -1.06066 1.06066 
C -0.77937 1.341951 -0.397805 1.5 0 1.5 
z
" style="stroke: #00ffff"/>
    </defs>
    <g clip-path="url(#pa39d9a3c5f)">
     <use xlink:href="#m593d155f31" x="112.20251" y="148.586083" style="fill: #00ffff; stroke: #00ffff"/>
     <use xlink:href="#m593d155f31" x="99.268544" y="149.397184" style="fill: #00ffff; stroke: #00ffff"/>
     <use xlink:href="#m593d155f31" x="127.965186" y="170.048482" style="fill: #00ffff; stroke: #00ffff"/>
     <use xlink:href="#m593d155f31" x="74.844731" y="81.827165" style="fill: #00ffff; stroke: #00ffff"/>
     <use xlink:href="#m593d155f31" x="121.081563" y="111.523707" style="fill: #00ffff; stroke: #00ffff"/>
     <use xlink:href="#m593d155f31" x="138.677346" y="185.595631" style="fill: #00ffff; stroke: #00ffff"/>
     <use xlink:href="#m593d155f31" x="107.708666" y="175.017539" style="fill: #00ffff; stroke: #00ffff"/>
     <use xlink:href="#m593d155f31" x="165.012923" y="181.354915" style="fill: #00ffff; stroke: #00ffff"/>
     <use xlink:href="#m593d155f31" x="112.968239" y="122.831428" style="fill: #00ffff; stroke: #00ffff"/>
     <use xlink:href="#m593d155f31" x="103.912658" y="154.09344" style="fill: #00ffff; stroke: #00ffff"/>
     <use xlink:href="#m593d155f31" x="107.422065" y="112.650664" style="fill: #00ffff; stroke: #00ffff"/>
     <use xlink:href="#m593d155f31" x="87.973098" y="150.22788" style="fill: #00ffff; stroke: #00ffff"/>
     <use xlink:href="#m593d155f31" x="170.144328" y="126.042307" style="fill: #00ffff; stroke: #00ffff"/>
     <use xlink:href="#m593d155f31" x="85.054256" y="105.832451" style="fill: #00ffff; stroke: #00ffff"/>
     <use xlink:href="#m593d155f31" x="126.671429" y="146.536304" style="fill: #00ffff; stroke: #00ffff"/>
     <use xlink:href="#m593d155f31" x="92.997483" y="135.634827" style="fill: #00ffff; stroke: #00ffff"/>
     <use xlink:href="#m593d155f31" x="135.666009" y="158.496593" style="fill: #00ffff; stroke: #00ffff"/>
     <use xlink:href="#m593d155f31" x="96.646974" y="118.650416" style="fill: #00ffff; stroke: #00ffff"/>
     <use xlink:href="#m593d155f31" x="103.361914" y="190.852819" style="fill: #00ffff; stroke: #00ffff"/>
     <use xlink:href="#m593d155f31" x="129.16108" y="216.228337" style="fill: #00ffff; stroke: #00ffff"/>
    </g>
   </g>
   <g id="PathCollection_7">
    <defs>
     <path id="m95463cfbb8" d="M 0 1.5 
C 0.397805 1.5 0.77937 1.341951 1.06066 1.06066 
C 1.341951 0.77937 1.5 0.397805 1.5 0 
C 1.5 -0.397805 1.341951 -0.77937 1.06066 -1.06066 
C 0.77937 -1.341951 0.397805 -1.5 0 -1.5 
C -0.397805 -1.5 -0.77937 -1.341951 -1.06066 -1.06066 
C -1.341951 -0.77937 -1.5 -0.397805 -1.5 0 
C -1.5 0.397805 -1.341951 0.77937 -1.06066 1.06066 
C -0.77937 1.341951 -0.397805 1.5 0 1.5 
z
" style="stroke: #0000ff"/>
    </defs>
    <g clip-path="url(#pa39d9a3c5f)">
     <use xlink:href="#m95463cfbb8" x="69.929002" y="92.658925" style="fill: #0000ff; stroke: #0000ff"/>
     <use xlink:href="#m95463cfbb8" x="51.537415" y="125.16765" style="fill: #0000ff; stroke: #0000ff"/>
     <use xlink:href="#m95463cfbb8" x="153.231451" y="152.254831" style="fill: #0000ff; stroke: #0000ff"/>
     <use xlink:href="#m95463cfbb8" x="168.741942" y="108.497568" style="fill: #0000ff; stroke: #0000ff"/>
     <use xlink:href="#m95463cfbb8" x="114.484595" y="110.80395" style="fill: #0000ff; stroke: #0000ff"/>
     <use xlink:href="#m95463cfbb8" x="181.503523" y="133.422568" style="fill: #0000ff; stroke: #0000ff"/>
     <use xlink:href="#m95463cfbb8" x="92.088109" y="120.826615" style="fill: #0000ff; stroke: #0000ff"/>
     <use xlink:href="#m95463cfbb8" x="129.915376" y="139.400156" style="fill: #0000ff; stroke: #0000ff"/>
     <use xlink:href="#m95463cfbb8" x="118.116656" y="156.444766" style="fill: #0000ff; stroke: #0000ff"/>
     <use xlink:href="#m95463cfbb8" x="97.225666" y="122.965915" style="fill: #0000ff; stroke: #0000ff"/>
     <use xlink:href="#m95463cfbb8" x="64.94756" y="77.015355" style="fill: #0000ff; stroke: #0000ff"/>
     <use xlink:href="#m95463cfbb8" x="127.123693" y="128.678725" style="fill: #0000ff; stroke: #0000ff"/>
     <use xlink:href="#m95463cfbb8" x="168.741942" y="108.497568" style="fill: #0000ff; stroke: #0000ff"/>
     <use xlink:href="#m95463cfbb8" x="72.228772" y="141.768966" style="fill: #0000ff; stroke: #0000ff"/>
     <use xlink:href="#m95463cfbb8" x="173.138936" y="80.500548" style="fill: #0000ff; stroke: #0000ff"/>
     <use xlink:href="#m95463cfbb8" x="78.436331" y="113.808539" style="fill: #0000ff; stroke: #0000ff"/>
     <use xlink:href="#m95463cfbb8" x="101.232859" y="91.665922" style="fill: #0000ff; stroke: #0000ff"/>
     <use xlink:href="#m95463cfbb8" x="101.620978" y="108.635974" style="fill: #0000ff; stroke: #0000ff"/>
     <use xlink:href="#m95463cfbb8" x="89.534377" y="115.016372" style="fill: #0000ff; stroke: #0000ff"/>
    </g>
   </g>
   <g id="PathCollection_8">
    <defs>
     <path id="mf432165a56" d="M 0 1.5 
C 0.397805 1.5 0.77937 1.341951 1.06066 1.06066 
C 1.341951 0.77937 1.5 0.397805 1.5 0 
C 1.5 -0.397805 1.341951 -0.77937 1.06066 -1.06066 
C 0.77937 -1.341951 0.397805 -1.5 0 -1.5 
C -0.397805 -1.5 -0.77937 -1.341951 -1.06066 -1.06066 
C -1.341951 -0.77937 -1.5 -0.397805 -1.5 0 
C -1.5 0.397805 -1.341951 0.77937 -1.06066 1.06066 
C -0.77937 1.341951 -0.397805 1.5 0 1.5 
z
" style="stroke: #dc143c"/>
    </defs>
    <g clip-path="url(#pa39d9a3c5f)">
     <use xlink:href="#mf432165a56" x="129.968586" y="159.294941" style="fill: #dc143c; stroke: #dc143c"/>
     <use xlink:href="#mf432165a56" x="148.022698" y="210.973294" style="fill: #dc143c; stroke: #dc143c"/>
     <use xlink:href="#mf432165a56" x="140.310875" y="176.245686" style="fill: #dc143c; stroke: #dc143c"/>
     <use xlink:href="#mf432165a56" x="207.273876" y="255.826077" style="fill: #dc143c; stroke: #dc143c"/>
     <use xlink:href="#mf432165a56" x="126.660353" y="158.141482" style="fill: #dc143c; stroke: #dc143c"/>
     <use xlink:href="#mf432165a56" x="151.807337" y="177.143536" style="fill: #dc143c; stroke: #dc143c"/>
     <use xlink:href="#mf432165a56" x="148.360184" y="131.229088" style="fill: #dc143c; stroke: #dc143c"/>
     <use xlink:href="#mf432165a56" x="119.38641" y="125.093686" style="fill: #dc143c; stroke: #dc143c"/>
     <use xlink:href="#mf432165a56" x="113.803126" y="116.880817" style="fill: #dc143c; stroke: #dc143c"/>
     <use xlink:href="#mf432165a56" x="121.25244" y="105.203187" style="fill: #dc143c; stroke: #dc143c"/>
     <use xlink:href="#mf432165a56" x="102.971369" y="81.254768" style="fill: #dc143c; stroke: #dc143c"/>
     <use xlink:href="#mf432165a56" x="179.706621" y="104.326643" style="fill: #dc143c; stroke: #dc143c"/>
    </g>
   </g>
   <g id="PathCollection_9">
    <defs>
     <path id="maf9699719e" d="M 0 1.5 
C 0.397805 1.5 0.77937 1.341951 1.06066 1.06066 
C 1.341951 0.77937 1.5 0.397805 1.5 0 
C 1.5 -0.397805 1.341951 -0.77937 1.06066 -1.06066 
C 0.77937 -1.341951 0.397805 -1.5 0 -1.5 
C -0.397805 -1.5 -0.77937 -1.341951 -1.06066 -1.06066 
C -1.341951 -0.77937 -1.5 -0.397805 -1.5 0 
C -1.5 0.397805 -1.341951 0.77937 -1.06066 1.06066 
C -0.77937 1.341951 -0.397805 1.5 0 1.5 
z
" style="stroke: #ffe4c4"/>
    </defs>
    <g clip-path="url(#pa39d9a3c5f)">
     <use xlink:href="#maf9699719e" x="151.117877" y="182.37299" style="fill: #ffe4c4; stroke: #ffe4c4"/>
     <use xlink:href="#maf9699719e" x="312.172649" y="51.256361" style="fill: #ffe4c4; stroke: #ffe4c4"/>
     <use xlink:href="#maf9699719e" x="192.93916" y="128.748126" style="fill: #ffe4c4; stroke: #ffe4c4"/>
     <use xlink:href="#maf9699719e" x="351.758825" y="84.397175" style="fill: #ffe4c4; stroke: #ffe4c4"/>
     <use xlink:href="#maf9699719e" x="215.470096" y="134.255311" style="fill: #ffe4c4; stroke: #ffe4c4"/>
     <use xlink:href="#maf9699719e" x="204.278278" y="167.010517" style="fill: #ffe4c4; stroke: #ffe4c4"/>
     <use xlink:href="#maf9699719e" x="266.308293" y="169.241818" style="fill: #ffe4c4; stroke: #ffe4c4"/>
     <use xlink:href="#maf9699719e" x="211.228012" y="169.321242" style="fill: #ffe4c4; stroke: #ffe4c4"/>
     <use xlink:href="#maf9699719e" x="196.810096" y="129.020132" style="fill: #ffe4c4; stroke: #ffe4c4"/>
     <use xlink:href="#maf9699719e" x="250.176741" y="158.633415" style="fill: #ffe4c4; stroke: #ffe4c4"/>
    </g>
   </g>
   <g id="PathCollection_10">
    <defs>
     <path id="mcdd9a42c1f" d="M -2.99994 2.99994 
L 3.00006 2.99994 
L 3.00006 -3.00006 
L -2.99994 -3.00006 
z
" style="stroke: #000000"/>
    </defs>
    <g clip-path="url(#pa39d9a3c5f)">
     <use xlink:href="#mcdd9a42c1f" x="176.434824" y="187.102514" style="stroke: #000000"/>
     <use xlink:href="#mcdd9a42c1f" x="109.204054" y="225.354518" style="stroke: #000000"/>
     <use xlink:href="#mcdd9a42c1f" x="164.977389" y="202.680641" style="stroke: #000000"/>
     <use xlink:href="#mcdd9a42c1f" x="156.992609" y="204.570806" style="stroke: #000000"/>
     <use xlink:href="#mcdd9a42c1f" x="197.705325" y="220.799961" style="stroke: #000000"/>
     <use xlink:href="#mcdd9a42c1f" x="101.346972" y="144.063072" style="stroke: #000000"/>
     <use xlink:href="#mcdd9a42c1f" x="147.614893" y="233.127258" style="stroke: #000000"/>
     <use xlink:href="#mcdd9a42c1f" x="151.352913" y="198.620556" style="stroke: #000000"/>
     <use xlink:href="#mcdd9a42c1f" x="238.717586" y="87.268486" style="stroke: #000000"/>
     <use xlink:href="#mcdd9a42c1f" x="234.497913" y="238.463534" style="stroke: #000000"/>
     <use xlink:href="#mcdd9a42c1f" x="138.316835" y="222.949698" style="stroke: #000000"/>
     <use xlink:href="#mcdd9a42c1f" x="113.934866" y="209.2906" style="stroke: #000000"/>
     <use xlink:href="#mcdd9a42c1f" x="142.232427" y="175.129517" style="stroke: #000000"/>
     <use xlink:href="#mcdd9a42c1f" x="129.917129" y="208.868071" style="stroke: #000000"/>
     <use xlink:href="#mcdd9a42c1f" x="164.451641" y="240.152119" style="stroke: #000000"/>
     <use xlink:href="#mcdd9a42c1f" x="108.680675" y="212.757555" style="stroke: #000000"/>
     <use xlink:href="#mcdd9a42c1f" x="127.956869" y="206.493667" style="stroke: #000000"/>
     <use xlink:href="#mcdd9a42c1f" x="143.889002" y="203.658293" style="stroke: #000000"/>
     <use xlink:href="#mcdd9a42c1f" x="142.557804" y="229.831789" style="stroke: #000000"/>
     <use xlink:href="#mcdd9a42c1f" x="236.956698" y="206.10145" style="stroke: #000000"/>
     <use xlink:href="#mcdd9a42c1f" x="170.089738" y="226.855406" style="stroke: #000000"/>
     <use xlink:href="#mcdd9a42c1f" x="178.108997" y="234.017749" style="stroke: #000000"/>
     <use xlink:href="#mcdd9a42c1f" x="225.217324" y="200.640369" style="stroke: #000000"/>
     <use xlink:href="#mcdd9a42c1f" x="137.507601" y="228.904498" style="stroke: #000000"/>
     <use xlink:href="#mcdd9a42c1f" x="111.774356" y="162.710515" style="stroke: #000000"/>
     <use xlink:href="#mcdd9a42c1f" x="178.115659" y="211.232125" style="stroke: #000000"/>
     <use xlink:href="#mcdd9a42c1f" x="174.758816" y="214.409749" style="stroke: #000000"/>
     <use xlink:href="#mcdd9a42c1f" x="120.700481" y="147.235194" style="stroke: #000000"/>
     <use xlink:href="#mcdd9a42c1f" x="118.905473" y="150.51394" style="stroke: #000000"/>
     <use xlink:href="#mcdd9a42c1f" x="150.692982" y="157.928343" style="stroke: #000000"/>
     <use xlink:href="#mcdd9a42c1f" x="123.744502" y="147.837473" style="stroke: #000000"/>
     <use xlink:href="#mcdd9a42c1f" x="91.509677" y="151.13523" style="stroke: #000000"/>
     <use xlink:href="#mcdd9a42c1f" x="138.231796" y="209.312905" style="stroke: #000000"/>
     <use xlink:href="#mcdd9a42c1f" x="183.410319" y="216.403518" style="stroke: #000000"/>
     <use xlink:href="#mcdd9a42c1f" x="131.12084" y="150.867779" style="stroke: #000000"/>
     <use xlink:href="#mcdd9a42c1f" x="135.634305" y="128.115488" style="stroke: #000000"/>
     <use xlink:href="#mcdd9a42c1f" x="160.11485" y="215.969264" style="stroke: #000000"/>
     <use xlink:href="#mcdd9a42c1f" x="143.359787" y="154.798126" style="stroke: #000000"/>
     <use xlink:href="#mcdd9a42c1f" x="150.696019" y="165.952649" style="stroke: #000000"/>
     <use xlink:href="#mcdd9a42c1f" x="175.970066" y="231.896636" style="stroke: #000000"/>
     <use xlink:href="#mcdd9a42c1f" x="142.912077" y="175.460417" style="stroke: #000000"/>
     <use xlink:href="#mcdd9a42c1f" x="180.926524" y="190.429479" style="stroke: #000000"/>
     <use xlink:href="#mcdd9a42c1f" x="125.784494" y="203.587981" style="stroke: #000000"/>
     <use xlink:href="#mcdd9a42c1f" x="144.696825" y="141.389177" style="stroke: #000000"/>
     <use xlink:href="#mcdd9a42c1f" x="135.15592" y="179.382257" style="stroke: #000000"/>
     <use xlink:href="#mcdd9a42c1f" x="198.87166" y="247.153832" style="stroke: #000000"/>
     <use xlink:href="#mcdd9a42c1f" x="143.791893" y="159.46942" style="stroke: #000000"/>
     <use xlink:href="#mcdd9a42c1f" x="185.977563" y="230.819641" style="stroke: #000000"/>
     <use xlink:href="#mcdd9a42c1f" x="163.301892" y="218.247467" style="stroke: #000000"/>
     <use xlink:href="#mcdd9a42c1f" x="142.569476" y="217.548197" style="stroke: #000000"/>
     <use xlink:href="#mcdd9a42c1f" x="139.243815" y="147.344646" style="stroke: #000000"/>
     <use xlink:href="#mcdd9a42c1f" x="155.758598" y="184.549016" style="stroke: #000000"/>
     <use xlink:href="#mcdd9a42c1f" x="153.889988" y="238.161323" style="stroke: #000000"/>
     <use xlink:href="#mcdd9a42c1f" x="154.678372" y="189.475218" style="stroke: #000000"/>
     <use xlink:href="#mcdd9a42c1f" x="129.978133" y="122.315853" style="stroke: #000000"/>
     <use xlink:href="#mcdd9a42c1f" x="173.584281" y="207.359993" style="stroke: #000000"/>
     <use xlink:href="#mcdd9a42c1f" x="145.527884" y="206.997557" style="stroke: #000000"/>
     <use xlink:href="#mcdd9a42c1f" x="159.080726" y="248.373791" style="stroke: #000000"/>
     <use xlink:href="#mcdd9a42c1f" x="182.104063" y="144.591091" style="stroke: #000000"/>
     <use xlink:href="#mcdd9a42c1f" x="178.236331" y="235.944179" style="stroke: #000000"/>
     <use xlink:href="#mcdd9a42c1f" x="155.366818" y="222.848998" style="stroke: #000000"/>
     <use xlink:href="#mcdd9a42c1f" x="155.941986" y="220.990685" style="stroke: #000000"/>
     <use xlink:href="#mcdd9a42c1f" x="114.844863" y="165.112843" style="stroke: #000000"/>
     <use xlink:href="#mcdd9a42c1f" x="158.71359" y="187.257986" style="stroke: #000000"/>
    </g>
   </g>
   <g id="PathCollection_11">
    <defs>
     <path id="mdca795aa1e" d="M -3 -0 
L 3 3 
L 3 -3 
z
" style="stroke: #ff8c00"/>
    </defs>
    <g clip-path="url(#pa39d9a3c5f)">
     <use xlink:href="#mdca795aa1e" x="139.427515" y="231.638846" style="fill: #ff8c00; stroke: #ff8c00"/>
     <use xlink:href="#mdca795aa1e" x="127.918745" y="195.689557" style="fill: #ff8c00; stroke: #ff8c00"/>
     <use xlink:href="#mdca795aa1e" x="149.159674" y="217.521151" style="fill: #ff8c00; stroke: #ff8c00"/>
     <use xlink:href="#mdca795aa1e" x="190.311031" y="253.098029" style="fill: #ff8c00; stroke: #ff8c00"/>
     <use xlink:href="#mdca795aa1e" x="140.446005" y="200.730748" style="fill: #ff8c00; stroke: #ff8c00"/>
     <use xlink:href="#mdca795aa1e" x="130.440972" y="189.465129" style="fill: #ff8c00; stroke: #ff8c00"/>
     <use xlink:href="#mdca795aa1e" x="137.90994" y="192.411124" style="fill: #ff8c00; stroke: #ff8c00"/>
     <use xlink:href="#mdca795aa1e" x="184.604592" y="184.147904" style="fill: #ff8c00; stroke: #ff8c00"/>
     <use xlink:href="#mdca795aa1e" x="162.69558" y="202.403337" style="fill: #ff8c00; stroke: #ff8c00"/>
     <use xlink:href="#mdca795aa1e" x="181.734717" y="120.63548" style="fill: #ff8c00; stroke: #ff8c00"/>
     <use xlink:href="#mdca795aa1e" x="116.118913" y="163.57365" style="fill: #ff8c00; stroke: #ff8c00"/>
     <use xlink:href="#mdca795aa1e" x="121.604552" y="217.180523" style="fill: #ff8c00; stroke: #ff8c00"/>
     <use xlink:href="#mdca795aa1e" x="139.014774" y="155.263367" style="fill: #ff8c00; stroke: #ff8c00"/>
     <use xlink:href="#mdca795aa1e" x="184.427366" y="216.796434" style="fill: #ff8c00; stroke: #ff8c00"/>
     <use xlink:href="#mdca795aa1e" x="150.509062" y="169.417863" style="fill: #ff8c00; stroke: #ff8c00"/>
     <use xlink:href="#mdca795aa1e" x="170.77709" y="179.743443" style="fill: #ff8c00; stroke: #ff8c00"/>
     <use xlink:href="#mdca795aa1e" x="128.624408" y="174.687042" style="fill: #ff8c00; stroke: #ff8c00"/>
     <use xlink:href="#mdca795aa1e" x="205.663459" y="176.439086" style="fill: #ff8c00; stroke: #ff8c00"/>
     <use xlink:href="#mdca795aa1e" x="186.785591" y="250.909596" style="fill: #ff8c00; stroke: #ff8c00"/>
     <use xlink:href="#mdca795aa1e" x="158.13388" y="209.36875" style="fill: #ff8c00; stroke: #ff8c00"/>
     <use xlink:href="#mdca795aa1e" x="177.033659" y="178.190703" style="fill: #ff8c00; stroke: #ff8c00"/>
     <use xlink:href="#mdca795aa1e" x="178.202585" y="250.086953" style="fill: #ff8c00; stroke: #ff8c00"/>
     <use xlink:href="#mdca795aa1e" x="147.397129" y="160.381594" style="fill: #ff8c00; stroke: #ff8c00"/>
     <use xlink:href="#mdca795aa1e" x="180.103231" y="215.682902" style="fill: #ff8c00; stroke: #ff8c00"/>
     <use xlink:href="#mdca795aa1e" x="154.2904" y="147.862637" style="fill: #ff8c00; stroke: #ff8c00"/>
     <use xlink:href="#mdca795aa1e" x="171.130699" y="127.678909" style="fill: #ff8c00; stroke: #ff8c00"/>
     <use xlink:href="#mdca795aa1e" x="173.858727" y="196.619105" style="fill: #ff8c00; stroke: #ff8c00"/>
     <use xlink:href="#mdca795aa1e" x="135.081305" y="195.494659" style="fill: #ff8c00; stroke: #ff8c00"/>
     <use xlink:href="#mdca795aa1e" x="126.071538" y="152.706887" style="fill: #ff8c00; stroke: #ff8c00"/>
     <use xlink:href="#mdca795aa1e" x="120.933032" y="185.632745" style="fill: #ff8c00; stroke: #ff8c00"/>
     <use xlink:href="#mdca795aa1e" x="184.635631" y="193.797029" style="fill: #ff8c00; stroke: #ff8c00"/>
     <use xlink:href="#mdca795aa1e" x="170.344392" y="202.390772" style="fill: #ff8c00; stroke: #ff8c00"/>
     <use xlink:href="#mdca795aa1e" x="172.855204" y="261.216" style="fill: #ff8c00; stroke: #ff8c00"/>
     <use xlink:href="#mdca795aa1e" x="117.266088" y="197.529589" style="fill: #ff8c00; stroke: #ff8c00"/>
     <use xlink:href="#mdca795aa1e" x="140.515757" y="173.626235" style="fill: #ff8c00; stroke: #ff8c00"/>
     <use xlink:href="#mdca795aa1e" x="161.084421" y="155.02549" style="fill: #ff8c00; stroke: #ff8c00"/>
     <use xlink:href="#mdca795aa1e" x="190.987406" y="173.872397" style="fill: #ff8c00; stroke: #ff8c00"/>
     <use xlink:href="#mdca795aa1e" x="172.036284" y="172.808863" style="fill: #ff8c00; stroke: #ff8c00"/>
     <use xlink:href="#mdca795aa1e" x="142.260951" y="189.165972" style="fill: #ff8c00; stroke: #ff8c00"/>
     <use xlink:href="#mdca795aa1e" x="165.617046" y="169.36413" style="fill: #ff8c00; stroke: #ff8c00"/>
     <use xlink:href="#mdca795aa1e" x="141.440234" y="190.57633" style="fill: #ff8c00; stroke: #ff8c00"/>
     <use xlink:href="#mdca795aa1e" x="150.166313" y="260.444849" style="fill: #ff8c00; stroke: #ff8c00"/>
     <use xlink:href="#mdca795aa1e" x="201.960272" y="225.761162" style="fill: #ff8c00; stroke: #ff8c00"/>
     <use xlink:href="#mdca795aa1e" x="174.096109" y="220.127618" style="fill: #ff8c00; stroke: #ff8c00"/>
     <use xlink:href="#mdca795aa1e" x="155.106485" y="191.559924" style="fill: #ff8c00; stroke: #ff8c00"/>
     <use xlink:href="#mdca795aa1e" x="182.253549" y="260.93132" style="fill: #ff8c00; stroke: #ff8c00"/>
     <use xlink:href="#mdca795aa1e" x="212.313177" y="250.014539" style="fill: #ff8c00; stroke: #ff8c00"/>
     <use xlink:href="#mdca795aa1e" x="219.250593" y="251.16737" style="fill: #ff8c00; stroke: #ff8c00"/>
     <use xlink:href="#mdca795aa1e" x="222.960563" y="151.637884" style="fill: #ff8c00; stroke: #ff8c00"/>
     <use xlink:href="#mdca795aa1e" x="147.193943" y="211.24222" style="fill: #ff8c00; stroke: #ff8c00"/>
     <use xlink:href="#mdca795aa1e" x="125.58602" y="211.656785" style="fill: #ff8c00; stroke: #ff8c00"/>
     <use xlink:href="#mdca795aa1e" x="152.60049" y="198.386363" style="fill: #ff8c00; stroke: #ff8c00"/>
     <use xlink:href="#mdca795aa1e" x="126.089103" y="163.702741" style="fill: #ff8c00; stroke: #ff8c00"/>
     <use xlink:href="#mdca795aa1e" x="150.174373" y="195.377797" style="fill: #ff8c00; stroke: #ff8c00"/>
     <use xlink:href="#mdca795aa1e" x="142.857265" y="176.077878" style="fill: #ff8c00; stroke: #ff8c00"/>
     <use xlink:href="#mdca795aa1e" x="133.971756" y="137.881076" style="fill: #ff8c00; stroke: #ff8c00"/>
     <use xlink:href="#mdca795aa1e" x="167.18237" y="187.936317" style="fill: #ff8c00; stroke: #ff8c00"/>
     <use xlink:href="#mdca795aa1e" x="153.080104" y="160.990665" style="fill: #ff8c00; stroke: #ff8c00"/>
     <use xlink:href="#mdca795aa1e" x="179.901335" y="135.568836" style="fill: #ff8c00; stroke: #ff8c00"/>
     <use xlink:href="#mdca795aa1e" x="137.666855" y="170.583197" style="fill: #ff8c00; stroke: #ff8c00"/>
     <use xlink:href="#mdca795aa1e" x="231.918766" y="229.722476" style="fill: #ff8c00; stroke: #ff8c00"/>
     <use xlink:href="#mdca795aa1e" x="109.323018" y="188.913171" style="fill: #ff8c00; stroke: #ff8c00"/>
     <use xlink:href="#mdca795aa1e" x="93.129342" y="190.058442" style="fill: #ff8c00; stroke: #ff8c00"/>
     <use xlink:href="#mdca795aa1e" x="173.046319" y="192.106919" style="fill: #ff8c00; stroke: #ff8c00"/>
    </g>
   </g>
   <g id="matplotlib.axis_1">
    <g id="xtick_1">
     <g id="line2d_1">
      <defs>
       <path id="mc0578cbf35" d="M 0 0 
L 0 3.5 
" style="stroke: #000000; stroke-width: 0.8"/>
      </defs>
      <g>
       <use xlink:href="#mc0578cbf35" x="64.57922" y="273.312" style="stroke: #000000; stroke-width: 0.8"/>
      </g>
     </g>
     <g id="text_1">
      <!-- −10 -->
      <g transform="translate(54.026877 287.910437) scale(0.1 -0.1)">
       <defs>
        <path id="DejaVuSans-2212" d="M 678 2272 
L 4684 2272 
L 4684 1741 
L 678 1741 
L 678 2272 
z
" transform="scale(0.015625)"/>
        <path id="DejaVuSans-31" d="M 794 531 
L 1825 531 
L 1825 4091 
L 703 3866 
L 703 4441 
L 1819 4666 
L 2450 4666 
L 2450 531 
L 3481 531 
L 3481 0 
L 794 0 
L 794 531 
z
" transform="scale(0.015625)"/>
        <path id="DejaVuSans-30" d="M 2034 4250 
Q 1547 4250 1301 3770 
Q 1056 3291 1056 2328 
Q 1056 1369 1301 889 
Q 1547 409 2034 409 
Q 2525 409 2770 889 
Q 3016 1369 3016 2328 
Q 3016 3291 2770 3770 
Q 2525 4250 2034 4250 
z
M 2034 4750 
Q 2819 4750 3233 4129 
Q 3647 3509 3647 2328 
Q 3647 1150 3233 529 
Q 2819 -91 2034 -91 
Q 1250 -91 836 529 
Q 422 1150 422 2328 
Q 422 3509 836 4129 
Q 1250 4750 2034 4750 
z
" transform="scale(0.015625)"/>
       </defs>
       <use xlink:href="#DejaVuSans-2212"/>
       <use xlink:href="#DejaVuSans-31" x="83.789062"/>
       <use xlink:href="#DejaVuSans-30" x="147.412109"/>
      </g>
     </g>
    </g>
    <g id="xtick_2">
     <g id="line2d_2">
      <g>
       <use xlink:href="#mc0578cbf35" x="107.834209" y="273.312" style="stroke: #000000; stroke-width: 0.8"/>
      </g>
     </g>
     <g id="text_2">
      <!-- −5 -->
      <g transform="translate(100.463116 287.910437) scale(0.1 -0.1)">
       <defs>
        <path id="DejaVuSans-35" d="M 691 4666 
L 3169 4666 
L 3169 4134 
L 1269 4134 
L 1269 2991 
Q 1406 3038 1543 3061 
Q 1681 3084 1819 3084 
Q 2600 3084 3056 2656 
Q 3513 2228 3513 1497 
Q 3513 744 3044 326 
Q 2575 -91 1722 -91 
Q 1428 -91 1123 -41 
Q 819 9 494 109 
L 494 744 
Q 775 591 1075 516 
Q 1375 441 1709 441 
Q 2250 441 2565 725 
Q 2881 1009 2881 1497 
Q 2881 1984 2565 2268 
Q 2250 2553 1709 2553 
Q 1456 2553 1204 2497 
Q 953 2441 691 2322 
L 691 4666 
z
" transform="scale(0.015625)"/>
       </defs>
       <use xlink:href="#DejaVuSans-2212"/>
       <use xlink:href="#DejaVuSans-35" x="83.789062"/>
      </g>
     </g>
    </g>
    <g id="xtick_3">
     <g id="line2d_3">
      <g>
       <use xlink:href="#mc0578cbf35" x="151.089198" y="273.312" style="stroke: #000000; stroke-width: 0.8"/>
      </g>
     </g>
     <g id="text_3">
      <!-- 0 -->
      <g transform="translate(147.907948 287.910437) scale(0.1 -0.1)">
       <use xlink:href="#DejaVuSans-30"/>
      </g>
     </g>
    </g>
    <g id="xtick_4">
     <g id="line2d_4">
      <g>
       <use xlink:href="#mc0578cbf35" x="194.344187" y="273.312" style="stroke: #000000; stroke-width: 0.8"/>
      </g>
     </g>
     <g id="text_4">
      <!-- 5 -->
      <g transform="translate(191.162937 287.910437) scale(0.1 -0.1)">
       <use xlink:href="#DejaVuSans-35"/>
      </g>
     </g>
    </g>
    <g id="xtick_5">
     <g id="line2d_5">
      <g>
       <use xlink:href="#mc0578cbf35" x="237.599176" y="273.312" style="stroke: #000000; stroke-width: 0.8"/>
      </g>
     </g>
     <g id="text_5">
      <!-- 10 -->
      <g transform="translate(231.236676 287.910437) scale(0.1 -0.1)">
       <use xlink:href="#DejaVuSans-31"/>
       <use xlink:href="#DejaVuSans-30" x="63.623047"/>
      </g>
     </g>
    </g>
    <g id="xtick_6">
     <g id="line2d_6">
      <g>
       <use xlink:href="#mc0578cbf35" x="280.854165" y="273.312" style="stroke: #000000; stroke-width: 0.8"/>
      </g>
     </g>
     <g id="text_6">
      <!-- 15 -->
      <g transform="translate(274.491665 287.910437) scale(0.1 -0.1)">
       <use xlink:href="#DejaVuSans-31"/>
       <use xlink:href="#DejaVuSans-35" x="63.623047"/>
      </g>
     </g>
    </g>
    <g id="xtick_7">
     <g id="line2d_7">
      <g>
       <use xlink:href="#mc0578cbf35" x="324.109154" y="273.312" style="stroke: #000000; stroke-width: 0.8"/>
      </g>
     </g>
     <g id="text_7">
      <!-- 20 -->
      <g transform="translate(317.746654 287.910437) scale(0.1 -0.1)">
       <defs>
        <path id="DejaVuSans-32" d="M 1228 531 
L 3431 531 
L 3431 0 
L 469 0 
L 469 531 
Q 828 903 1448 1529 
Q 2069 2156 2228 2338 
Q 2531 2678 2651 2914 
Q 2772 3150 2772 3378 
Q 2772 3750 2511 3984 
Q 2250 4219 1831 4219 
Q 1534 4219 1204 4116 
Q 875 4013 500 3803 
L 500 4441 
Q 881 4594 1212 4672 
Q 1544 4750 1819 4750 
Q 2544 4750 2975 4387 
Q 3406 4025 3406 3419 
Q 3406 3131 3298 2873 
Q 3191 2616 2906 2266 
Q 2828 2175 2409 1742 
Q 1991 1309 1228 531 
z
" transform="scale(0.015625)"/>
       </defs>
       <use xlink:href="#DejaVuSans-32"/>
       <use xlink:href="#DejaVuSans-30" x="63.623047"/>
      </g>
     </g>
    </g>
    <g id="xtick_8">
     <g id="line2d_8">
      <g>
       <use xlink:href="#mc0578cbf35" x="367.364143" y="273.312" style="stroke: #000000; stroke-width: 0.8"/>
      </g>
     </g>
     <g id="text_8">
      <!-- 25 -->
      <g transform="translate(361.001643 287.910437) scale(0.1 -0.1)">
       <use xlink:href="#DejaVuSans-32"/>
       <use xlink:href="#DejaVuSans-35" x="63.623047"/>
      </g>
     </g>
    </g>
   </g>
   <g id="matplotlib.axis_2">
    <g id="ytick_1">
     <g id="line2d_9">
      <defs>
       <path id="m3e744f3328" d="M 0 0 
L -3.5 0 
" style="stroke: #000000; stroke-width: 0.8"/>
      </defs>
      <g>
       <use xlink:href="#m3e744f3328" x="35.304688" y="255.395424" style="stroke: #000000; stroke-width: 0.8"/>
      </g>
     </g>
     <g id="text_9">
      <!-- −10 -->
      <g transform="translate(7.2 259.194643) scale(0.1 -0.1)">
       <use xlink:href="#DejaVuSans-2212"/>
       <use xlink:href="#DejaVuSans-31" x="83.789062"/>
       <use xlink:href="#DejaVuSans-30" x="147.412109"/>
      </g>
     </g>
    </g>
    <g id="ytick_2">
     <g id="line2d_10">
      <g>
       <use xlink:href="#m3e744f3328" x="35.304688" y="213.720508" style="stroke: #000000; stroke-width: 0.8"/>
      </g>
     </g>
     <g id="text_10">
      <!-- −5 -->
      <g transform="translate(13.5625 217.519726) scale(0.1 -0.1)">
       <use xlink:href="#DejaVuSans-2212"/>
       <use xlink:href="#DejaVuSans-35" x="83.789062"/>
      </g>
     </g>
    </g>
    <g id="ytick_3">
     <g id="line2d_11">
      <g>
       <use xlink:href="#m3e744f3328" x="35.304688" y="172.045591" style="stroke: #000000; stroke-width: 0.8"/>
      </g>
     </g>
     <g id="text_11">
      <!-- 0 -->
      <g transform="translate(21.942187 175.84481) scale(0.1 -0.1)">
       <use xlink:href="#DejaVuSans-30"/>
      </g>
     </g>
    </g>
    <g id="ytick_4">
     <g id="line2d_12">
      <g>
       <use xlink:href="#m3e744f3328" x="35.304688" y="130.370675" style="stroke: #000000; stroke-width: 0.8"/>
      </g>
     </g>
     <g id="text_12">
      <!-- 5 -->
      <g transform="translate(21.942187 134.169894) scale(0.1 -0.1)">
       <use xlink:href="#DejaVuSans-35"/>
      </g>
     </g>
    </g>
    <g id="ytick_5">
     <g id="line2d_13">
      <g>
       <use xlink:href="#m3e744f3328" x="35.304688" y="88.695759" style="stroke: #000000; stroke-width: 0.8"/>
      </g>
     </g>
     <g id="text_13">
      <!-- 10 -->
      <g transform="translate(15.579687 92.494978) scale(0.1 -0.1)">
       <use xlink:href="#DejaVuSans-31"/>
       <use xlink:href="#DejaVuSans-30" x="63.623047"/>
      </g>
     </g>
    </g>
    <g id="ytick_6">
     <g id="line2d_14">
      <g>
       <use xlink:href="#m3e744f3328" x="35.304688" y="47.020843" style="stroke: #000000; stroke-width: 0.8"/>
      </g>
     </g>
     <g id="text_14">
      <!-- 15 -->
      <g transform="translate(15.579687 50.820062) scale(0.1 -0.1)">
       <use xlink:href="#DejaVuSans-31"/>
       <use xlink:href="#DejaVuSans-35" x="63.623047"/>
      </g>
     </g>
    </g>
   </g>
   <g id="patch_3">
    <path d="M 35.304688 273.312 
L 35.304688 7.2 
" style="fill: none; stroke: #000000; stroke-width: 0.8; stroke-linejoin: miter; stroke-linecap: square"/>
   </g>
   <g id="patch_4">
    <path d="M 392.424688 273.312 
L 392.424688 7.2 
" style="fill: none; stroke: #000000; stroke-width: 0.8; stroke-linejoin: miter; stroke-linecap: square"/>
   </g>
   <g id="patch_5">
    <path d="M 35.304688 273.312 
L 392.424688 273.312 
" style="fill: none; stroke: #000000; stroke-width: 0.8; stroke-linejoin: miter; stroke-linecap: square"/>
   </g>
   <g id="patch_6">
    <path d="M 35.304688 7.2 
L 392.424688 7.2 
" style="fill: none; stroke: #000000; stroke-width: 0.8; stroke-linejoin: miter; stroke-linecap: square"/>
   </g>
  </g>
 </g>
 <defs>
  <clipPath id="pa39d9a3c5f">
   <rect x="35.304688" y="7.2" width="357.12" height="266.112"/>
  </clipPath>
 </defs>
</svg>
