<?xml version="1.0" encoding="utf-8" standalone="no"?>
<!DOCTYPE svg PUBLIC "-//W3C//DTD SVG 1.1//EN"
  "http://www.w3.org/Graphics/SVG/1.1/DTD/svg11.dtd">
<svg xmlns:xlink="http://www.w3.org/1999/xlink" width="399.624687pt" height="297.190125pt" viewBox="0 0 399.624687 297.190125" xmlns="http://www.w3.org/2000/svg" version="1.1">
 <metadata>
  <rdf:RDF xmlns:dc="http://purl.org/dc/elements/1.1/" xmlns:cc="http://creativecommons.org/ns#" xmlns:rdf="http://www.w3.org/1999/02/22-rdf-syntax-ns#">
   <cc:Work>
    <dc:type rdf:resource="http://purl.org/dc/dcmitype/StillImage"/>
    <dc:date>2023-11-12T19:44:24.057801</dc:date>
    <dc:format>image/svg+xml</dc:format>
    <dc:creator>
     <cc:Agent>
      <dc:title>Matplotlib v3.8.0, https://matplotlib.org/</dc:title>
     </cc:Agent>
    </dc:creator>
   </cc:Work>
  </rdf:RDF>
 </metadata>
 <defs>
  <style type="text/css">*{stroke-linejoin: round; stroke-linecap: butt}</style>
 </defs>
 <g id="figure_1">
  <g id="patch_1">
   <path d="M 0 297.190125 
L 399.624687 297.190125 
L 399.624687 0 
L 0 0 
z
" style="fill: #ffffff"/>
  </g>
  <g id="axes_1">
   <g id="patch_2">
    <path d="M 35.304688 273.312 
L 392.424688 273.312 
L 392.424688 7.2 
L 35.304688 7.2 
z
" style="fill: #ffffff"/>
   </g>
   <g id="PathCollection_1">
    <defs>
     <path id="m74af904bba" d="M 0 1.5 
C 0.397805 1.5 0.77937 1.341951 1.06066 1.06066 
C 1.341951 0.77937 1.5 0.397805 1.5 0 
C 1.5 -0.397805 1.341951 -0.77937 1.06066 -1.06066 
C 0.77937 -1.341951 0.397805 -1.5 0 -1.5 
C -0.397805 -1.5 -0.77937 -1.341951 -1.06066 -1.06066 
C -1.341951 -0.77937 -1.5 -0.397805 -1.5 0 
C -1.5 0.397805 -1.341951 0.77937 -1.06066 1.06066 
C -0.77937 1.341951 -0.397805 1.5 0 1.5 
z
" style="stroke: #ff8c00"/>
    </defs>
    <g clip-path="url(#pe025c6d8a6)">
     <use xlink:href="#m74af904bba" x="262.00749" y="253.272961" style="fill: #ff8c00; stroke: #ff8c00"/>
     <use xlink:href="#m74af904bba" x="232.677802" y="253.506645" style="fill: #ff8c00; stroke: #ff8c00"/>
     <use xlink:href="#m74af904bba" x="229.893371" y="229.051253" style="fill: #ff8c00; stroke: #ff8c00"/>
     <use xlink:href="#m74af904bba" x="216.747505" y="243.291518" style="fill: #ff8c00; stroke: #ff8c00"/>
     <use xlink:href="#m74af904bba" x="192.860131" y="236.048296" style="fill: #ff8c00; stroke: #ff8c00"/>
     <use xlink:href="#m74af904bba" x="206.940322" y="249.583492" style="fill: #ff8c00; stroke: #ff8c00"/>
     <use xlink:href="#m74af904bba" x="263.981769" y="240.153735" style="fill: #ff8c00; stroke: #ff8c00"/>
     <use xlink:href="#m74af904bba" x="265.679147" y="240.126186" style="fill: #ff8c00; stroke: #ff8c00"/>
     <use xlink:href="#m74af904bba" x="233.648066" y="231.027319" style="fill: #ff8c00; stroke: #ff8c00"/>
     <use xlink:href="#m74af904bba" x="270.981971" y="207.603013" style="fill: #ff8c00; stroke: #ff8c00"/>
     <use xlink:href="#m74af904bba" x="175.886569" y="201.450208" style="fill: #ff8c00; stroke: #ff8c00"/>
    </g>
   </g>
   <g id="PathCollection_2">
    <defs>
     <path id="me70556bac5" d="M 0 1.5 
C 0.397805 1.5 0.77937 1.341951 1.06066 1.06066 
C 1.341951 0.77937 1.5 0.397805 1.5 0 
C 1.5 -0.397805 1.341951 -0.77937 1.06066 -1.06066 
C 0.77937 -1.341951 0.397805 -1.5 0 -1.5 
C -0.397805 -1.5 -0.77937 -1.341951 -1.06066 -1.06066 
C -1.341951 -0.77937 -1.5 -0.397805 -1.5 0 
C -1.5 0.397805 -1.341951 0.77937 -1.06066 1.06066 
C -0.77937 1.341951 -0.397805 1.5 0 1.5 
z
" style="stroke: #006400"/>
    </defs>
    <g clip-path="url(#pe025c6d8a6)">
     <use xlink:href="#me70556bac5" x="318.964764" y="223.196142" style="fill: #006400; stroke: #006400"/>
     <use xlink:href="#me70556bac5" x="217.817132" y="191.153892" style="fill: #006400; stroke: #006400"/>
     <use xlink:href="#me70556bac5" x="230.461558" y="201.042384" style="fill: #006400; stroke: #006400"/>
     <use xlink:href="#me70556bac5" x="208.384362" y="239.543572" style="fill: #006400; stroke: #006400"/>
     <use xlink:href="#me70556bac5" x="168.207143" y="206.077657" style="fill: #006400; stroke: #006400"/>
     <use xlink:href="#me70556bac5" x="376.19196" y="212.668272" style="fill: #006400; stroke: #006400"/>
     <use xlink:href="#me70556bac5" x="147.046575" y="219.087191" style="fill: #006400; stroke: #006400"/>
     <use xlink:href="#me70556bac5" x="197.538063" y="209.721958" style="fill: #006400; stroke: #006400"/>
     <use xlink:href="#me70556bac5" x="175.3877" y="229.302635" style="fill: #006400; stroke: #006400"/>
     <use xlink:href="#me70556bac5" x="188.687256" y="244.362682" style="fill: #006400; stroke: #006400"/>
     <use xlink:href="#me70556bac5" x="275.791096" y="257.077405" style="fill: #006400; stroke: #006400"/>
     <use xlink:href="#me70556bac5" x="236.686368" y="215.146394" style="fill: #006400; stroke: #006400"/>
     <use xlink:href="#me70556bac5" x="231.000661" y="231.356493" style="fill: #006400; stroke: #006400"/>
     <use xlink:href="#me70556bac5" x="193.125573" y="247.064531" style="fill: #006400; stroke: #006400"/>
     <use xlink:href="#me70556bac5" x="255.063877" y="219.76006" style="fill: #006400; stroke: #006400"/>
     <use xlink:href="#me70556bac5" x="254.0463" y="222.448932" style="fill: #006400; stroke: #006400"/>
    </g>
   </g>
   <g id="PathCollection_3">
    <defs>
     <path id="m84230570f2" d="M 0 1.5 
C 0.397805 1.5 0.77937 1.341951 1.06066 1.06066 
C 1.341951 0.77937 1.5 0.397805 1.5 0 
C 1.5 -0.397805 1.341951 -0.77937 1.06066 -1.06066 
C 0.77937 -1.341951 0.397805 -1.5 0 -1.5 
C -0.397805 -1.5 -0.77937 -1.341951 -1.06066 -1.06066 
C -1.341951 -0.77937 -1.5 -0.397805 -1.5 0 
C -1.5 0.397805 -1.341951 0.77937 -1.06066 1.06066 
C -0.77937 1.341951 -0.397805 1.5 0 1.5 
z
" style="stroke: #2f4f4f"/>
    </defs>
    <g clip-path="url(#pe025c6d8a6)">
     <use xlink:href="#m84230570f2" x="208.725415" y="226.176233" style="fill: #2f4f4f; stroke: #2f4f4f"/>
     <use xlink:href="#m84230570f2" x="167.912097" y="218.37141" style="fill: #2f4f4f; stroke: #2f4f4f"/>
     <use xlink:href="#m84230570f2" x="151.07453" y="196.045581" style="fill: #2f4f4f; stroke: #2f4f4f"/>
     <use xlink:href="#m84230570f2" x="206.191358" y="229.939059" style="fill: #2f4f4f; stroke: #2f4f4f"/>
     <use xlink:href="#m84230570f2" x="147.438814" y="222.957994" style="fill: #2f4f4f; stroke: #2f4f4f"/>
     <use xlink:href="#m84230570f2" x="133.332401" y="223.250122" style="fill: #2f4f4f; stroke: #2f4f4f"/>
     <use xlink:href="#m84230570f2" x="150.843876" y="218.436477" style="fill: #2f4f4f; stroke: #2f4f4f"/>
     <use xlink:href="#m84230570f2" x="167.265997" y="245.29221" style="fill: #2f4f4f; stroke: #2f4f4f"/>
     <use xlink:href="#m84230570f2" x="223.459459" y="242.659538" style="fill: #2f4f4f; stroke: #2f4f4f"/>
     <use xlink:href="#m84230570f2" x="158.296875" y="196.59792" style="fill: #2f4f4f; stroke: #2f4f4f"/>
     <use xlink:href="#m84230570f2" x="164.831533" y="228.972186" style="fill: #2f4f4f; stroke: #2f4f4f"/>
     <use xlink:href="#m84230570f2" x="143.671947" y="233.200754" style="fill: #2f4f4f; stroke: #2f4f4f"/>
     <use xlink:href="#m84230570f2" x="160.162872" y="227.931045" style="fill: #2f4f4f; stroke: #2f4f4f"/>
     <use xlink:href="#m84230570f2" x="109.595984" y="186.784302" style="fill: #2f4f4f; stroke: #2f4f4f"/>
    </g>
   </g>
   <g id="PathCollection_4">
    <defs>
     <path id="m7fa1a66cab" d="M 0 1.5 
C 0.397805 1.5 0.77937 1.341951 1.06066 1.06066 
C 1.341951 0.77937 1.5 0.397805 1.5 0 
C 1.5 -0.397805 1.341951 -0.77937 1.06066 -1.06066 
C 0.77937 -1.341951 0.397805 -1.5 0 -1.5 
C -0.397805 -1.5 -0.77937 -1.341951 -1.06066 -1.06066 
C -1.341951 -0.77937 -1.5 -0.397805 -1.5 0 
C -1.5 0.397805 -1.341951 0.77937 -1.06066 1.06066 
C -0.77937 1.341951 -0.397805 1.5 0 1.5 
z
" style="stroke: #00bfff"/>
    </defs>
    <g clip-path="url(#pe025c6d8a6)">
     <use xlink:href="#m7fa1a66cab" x="154.934676" y="228.371664" style="fill: #00bfff; stroke: #00bfff"/>
     <use xlink:href="#m7fa1a66cab" x="145.285128" y="207.376743" style="fill: #00bfff; stroke: #00bfff"/>
     <use xlink:href="#m7fa1a66cab" x="144.776391" y="242.044954" style="fill: #00bfff; stroke: #00bfff"/>
     <use xlink:href="#m7fa1a66cab" x="104.89292" y="236.871666" style="fill: #00bfff; stroke: #00bfff"/>
     <use xlink:href="#m7fa1a66cab" x="155.521152" y="215.733356" style="fill: #00bfff; stroke: #00bfff"/>
     <use xlink:href="#m7fa1a66cab" x="134.350704" y="238.805637" style="fill: #00bfff; stroke: #00bfff"/>
     <use xlink:href="#m7fa1a66cab" x="162.970421" y="220.572117" style="fill: #00bfff; stroke: #00bfff"/>
     <use xlink:href="#m7fa1a66cab" x="162.999334" y="199.247958" style="fill: #00bfff; stroke: #00bfff"/>
     <use xlink:href="#m7fa1a66cab" x="185.611644" y="174.42827" style="fill: #00bfff; stroke: #00bfff"/>
     <use xlink:href="#m7fa1a66cab" x="127.928797" y="220.123591" style="fill: #00bfff; stroke: #00bfff"/>
     <use xlink:href="#m7fa1a66cab" x="104.16559" y="206.732323" style="fill: #00bfff; stroke: #00bfff"/>
     <use xlink:href="#m7fa1a66cab" x="184.072953" y="226.911718" style="fill: #00bfff; stroke: #00bfff"/>
     <use xlink:href="#m7fa1a66cab" x="169.12827" y="214.904622" style="fill: #00bfff; stroke: #00bfff"/>
     <use xlink:href="#m7fa1a66cab" x="175.124839" y="228.379781" style="fill: #00bfff; stroke: #00bfff"/>
     <use xlink:href="#m7fa1a66cab" x="118.336427" y="199.729352" style="fill: #00bfff; stroke: #00bfff"/>
     <use xlink:href="#m7fa1a66cab" x="136.522645" y="217.795632" style="fill: #00bfff; stroke: #00bfff"/>
     <use xlink:href="#m7fa1a66cab" x="104.81993" y="185.24249" style="fill: #00bfff; stroke: #00bfff"/>
     <use xlink:href="#m7fa1a66cab" x="200.384342" y="190.033495" style="fill: #00bfff; stroke: #00bfff"/>
    </g>
   </g>
   <g id="PathCollection_5">
    <defs>
     <path id="m32a7620117" d="M 0 1.5 
C 0.397805 1.5 0.77937 1.341951 1.06066 1.06066 
C 1.341951 0.77937 1.5 0.397805 1.5 0 
C 1.5 -0.397805 1.341951 -0.77937 1.06066 -1.06066 
C 0.77937 -1.341951 0.397805 -1.5 0 -1.5 
C -0.397805 -1.5 -0.77937 -1.341951 -1.06066 -1.06066 
C -1.341951 -0.77937 -1.5 -0.397805 -1.5 0 
C -1.5 0.397805 -1.341951 0.77937 -1.06066 1.06066 
C -0.77937 1.341951 -0.397805 1.5 0 1.5 
z
" style="stroke: #ffff00"/>
    </defs>
    <g clip-path="url(#pe025c6d8a6)">
     <use xlink:href="#m32a7620117" x="133.143563" y="204.072203" style="fill: #ffff00; stroke: #ffff00"/>
     <use xlink:href="#m32a7620117" x="193.860111" y="186.247841" style="fill: #ffff00; stroke: #ffff00"/>
     <use xlink:href="#m32a7620117" x="92.306652" y="167.464586" style="fill: #ffff00; stroke: #ffff00"/>
     <use xlink:href="#m32a7620117" x="167.910215" y="217.226748" style="fill: #ffff00; stroke: #ffff00"/>
     <use xlink:href="#m32a7620117" x="124.387474" y="221.516061" style="fill: #ffff00; stroke: #ffff00"/>
     <use xlink:href="#m32a7620117" x="137.864775" y="188.40313" style="fill: #ffff00; stroke: #ffff00"/>
     <use xlink:href="#m32a7620117" x="118.856695" y="212.967427" style="fill: #ffff00; stroke: #ffff00"/>
     <use xlink:href="#m32a7620117" x="123.574659" y="226.384145" style="fill: #ffff00; stroke: #ffff00"/>
     <use xlink:href="#m32a7620117" x="152.239321" y="227.770439" style="fill: #ffff00; stroke: #ffff00"/>
     <use xlink:href="#m32a7620117" x="123.284238" y="186.235273" style="fill: #ffff00; stroke: #ffff00"/>
     <use xlink:href="#m32a7620117" x="101.107896" y="169.73259" style="fill: #ffff00; stroke: #ffff00"/>
     <use xlink:href="#m32a7620117" x="138.663141" y="211.023672" style="fill: #ffff00; stroke: #ffff00"/>
     <use xlink:href="#m32a7620117" x="132.72202" y="190.623093" style="fill: #ffff00; stroke: #ffff00"/>
    </g>
   </g>
   <g id="PathCollection_6">
    <defs>
     <path id="m9f6b8af7f1" d="M 0 1.5 
C 0.397805 1.5 0.77937 1.341951 1.06066 1.06066 
C 1.341951 0.77937 1.5 0.397805 1.5 0 
C 1.5 -0.397805 1.341951 -0.77937 1.06066 -1.06066 
C 0.77937 -1.341951 0.397805 -1.5 0 -1.5 
C -0.397805 -1.5 -0.77937 -1.341951 -1.06066 -1.06066 
C -1.341951 -0.77937 -1.5 -0.397805 -1.5 0 
C -1.5 0.397805 -1.341951 0.77937 -1.06066 1.06066 
C -0.77937 1.341951 -0.397805 1.5 0 1.5 
z
" style="stroke: #00ffff"/>
    </defs>
    <g clip-path="url(#pe025c6d8a6)">
     <use xlink:href="#m9f6b8af7f1" x="138.103109" y="146.840633" style="fill: #00ffff; stroke: #00ffff"/>
     <use xlink:href="#m9f6b8af7f1" x="167.225623" y="185.754587" style="fill: #00ffff; stroke: #00ffff"/>
     <use xlink:href="#m9f6b8af7f1" x="141.722505" y="216.680129" style="fill: #00ffff; stroke: #00ffff"/>
     <use xlink:href="#m9f6b8af7f1" x="135.959138" y="207.562323" style="fill: #00ffff; stroke: #00ffff"/>
     <use xlink:href="#m9f6b8af7f1" x="131.922022" y="213.238163" style="fill: #00ffff; stroke: #00ffff"/>
     <use xlink:href="#m9f6b8af7f1" x="111.684401" y="193.842245" style="fill: #00ffff; stroke: #00ffff"/>
     <use xlink:href="#m9f6b8af7f1" x="120.948862" y="185.348598" style="fill: #00ffff; stroke: #00ffff"/>
     <use xlink:href="#m9f6b8af7f1" x="105.003741" y="176.487675" style="fill: #00ffff; stroke: #00ffff"/>
     <use xlink:href="#m9f6b8af7f1" x="137.000046" y="204.755507" style="fill: #00ffff; stroke: #00ffff"/>
     <use xlink:href="#m9f6b8af7f1" x="161.186256" y="217.147412" style="fill: #00ffff; stroke: #00ffff"/>
     <use xlink:href="#m9f6b8af7f1" x="137.510262" y="193.946789" style="fill: #00ffff; stroke: #00ffff"/>
    </g>
   </g>
   <g id="PathCollection_7">
    <defs>
     <path id="m0e0ad8fdda" d="M 0 1.5 
C 0.397805 1.5 0.77937 1.341951 1.06066 1.06066 
C 1.341951 0.77937 1.5 0.397805 1.5 0 
C 1.5 -0.397805 1.341951 -0.77937 1.06066 -1.06066 
C 0.77937 -1.341951 0.397805 -1.5 0 -1.5 
C -0.397805 -1.5 -0.77937 -1.341951 -1.06066 -1.06066 
C -1.341951 -0.77937 -1.5 -0.397805 -1.5 0 
C -1.5 0.397805 -1.341951 0.77937 -1.06066 1.06066 
C -0.77937 1.341951 -0.397805 1.5 0 1.5 
z
" style="stroke: #0000ff"/>
    </defs>
    <g clip-path="url(#pe025c6d8a6)">
     <use xlink:href="#m0e0ad8fdda" x="254.606218" y="129.458783" style="fill: #0000ff; stroke: #0000ff"/>
     <use xlink:href="#m0e0ad8fdda" x="176.895208" y="153.918905" style="fill: #0000ff; stroke: #0000ff"/>
     <use xlink:href="#m0e0ad8fdda" x="201.621411" y="220.467039" style="fill: #0000ff; stroke: #0000ff"/>
     <use xlink:href="#m0e0ad8fdda" x="174.866618" y="112.337198" style="fill: #0000ff; stroke: #0000ff"/>
     <use xlink:href="#m0e0ad8fdda" x="186.303919" y="132.132247" style="fill: #0000ff; stroke: #0000ff"/>
     <use xlink:href="#m0e0ad8fdda" x="143.687359" y="128.443143" style="fill: #0000ff; stroke: #0000ff"/>
     <use xlink:href="#m0e0ad8fdda" x="148.506016" y="188.636205" style="fill: #0000ff; stroke: #0000ff"/>
     <use xlink:href="#m0e0ad8fdda" x="177.6986" y="94.412322" style="fill: #0000ff; stroke: #0000ff"/>
     <use xlink:href="#m0e0ad8fdda" x="242.27835" y="146.713955" style="fill: #0000ff; stroke: #0000ff"/>
     <use xlink:href="#m0e0ad8fdda" x="149.183762" y="100.099723" style="fill: #0000ff; stroke: #0000ff"/>
     <use xlink:href="#m0e0ad8fdda" x="185.001159" y="172.930863" style="fill: #0000ff; stroke: #0000ff"/>
     <use xlink:href="#m0e0ad8fdda" x="103.639137" y="152.65602" style="fill: #0000ff; stroke: #0000ff"/>
     <use xlink:href="#m0e0ad8fdda" x="157.34566" y="90.566733" style="fill: #0000ff; stroke: #0000ff"/>
     <use xlink:href="#m0e0ad8fdda" x="145.662092" y="132.683117" style="fill: #0000ff; stroke: #0000ff"/>
     <use xlink:href="#m0e0ad8fdda" x="159.039162" y="166.320883" style="fill: #0000ff; stroke: #0000ff"/>
     <use xlink:href="#m0e0ad8fdda" x="214.860402" y="165.128215" style="fill: #0000ff; stroke: #0000ff"/>
     <use xlink:href="#m0e0ad8fdda" x="165.785048" y="19.296" style="fill: #0000ff; stroke: #0000ff"/>
     <use xlink:href="#m0e0ad8fdda" x="126.921642" y="151.636579" style="fill: #0000ff; stroke: #0000ff"/>
    </g>
   </g>
   <g id="PathCollection_8">
    <defs>
     <path id="mdcb12da312" d="M 0 1.5 
C 0.397805 1.5 0.77937 1.341951 1.06066 1.06066 
C 1.341951 0.77937 1.5 0.397805 1.5 0 
C 1.5 -0.397805 1.341951 -0.77937 1.06066 -1.06066 
C 0.77937 -1.341951 0.397805 -1.5 0 -1.5 
C -0.397805 -1.5 -0.77937 -1.341951 -1.06066 -1.06066 
C -1.341951 -0.77937 -1.5 -0.397805 -1.5 0 
C -1.5 0.397805 -1.341951 0.77937 -1.06066 1.06066 
C -0.77937 1.341951 -0.397805 1.5 0 1.5 
z
" style="stroke: #dc143c"/>
    </defs>
    <g clip-path="url(#pe025c6d8a6)">
     <use xlink:href="#mdcb12da312" x="258.899184" y="227.423321" style="fill: #dc143c; stroke: #dc143c"/>
     <use xlink:href="#mdcb12da312" x="241.509266" y="224.185711" style="fill: #dc143c; stroke: #dc143c"/>
     <use xlink:href="#mdcb12da312" x="220.538369" y="238.766823" style="fill: #dc143c; stroke: #dc143c"/>
     <use xlink:href="#mdcb12da312" x="268.970241" y="251.990493" style="fill: #dc143c; stroke: #dc143c"/>
     <use xlink:href="#mdcb12da312" x="228.216139" y="242.910257" style="fill: #dc143c; stroke: #dc143c"/>
     <use xlink:href="#mdcb12da312" x="241.917616" y="224.957652" style="fill: #dc143c; stroke: #dc143c"/>
     <use xlink:href="#mdcb12da312" x="216.810016" y="261.216" style="fill: #dc143c; stroke: #dc143c"/>
     <use xlink:href="#mdcb12da312" x="224.727763" y="236.204229" style="fill: #dc143c; stroke: #dc143c"/>
     <use xlink:href="#mdcb12da312" x="208.643272" y="213.244531" style="fill: #dc143c; stroke: #dc143c"/>
    </g>
   </g>
   <g id="PathCollection_9">
    <defs>
     <path id="m1f76fe47d3" d="M 0 1.5 
C 0.397805 1.5 0.77937 1.341951 1.06066 1.06066 
C 1.341951 0.77937 1.5 0.397805 1.5 0 
C 1.5 -0.397805 1.341951 -0.77937 1.06066 -1.06066 
C 0.77937 -1.341951 0.397805 -1.5 0 -1.5 
C -0.397805 -1.5 -0.77937 -1.341951 -1.06066 -1.06066 
C -1.341951 -0.77937 -1.5 -0.397805 -1.5 0 
C -1.5 0.397805 -1.341951 0.77937 -1.06066 1.06066 
C -0.77937 1.341951 -0.397805 1.5 0 1.5 
z
" style="stroke: #ffe4c4"/>
    </defs>
    <g clip-path="url(#pe025c6d8a6)">
     <use xlink:href="#m1f76fe47d3" x="160.364151" y="205.136402" style="fill: #ffe4c4; stroke: #ffe4c4"/>
     <use xlink:href="#m1f76fe47d3" x="182.981034" y="214.797242" style="fill: #ffe4c4; stroke: #ffe4c4"/>
     <use xlink:href="#m1f76fe47d3" x="265.304167" y="238.007805" style="fill: #ffe4c4; stroke: #ffe4c4"/>
     <use xlink:href="#m1f76fe47d3" x="303.869531" y="221.769527" style="fill: #ffe4c4; stroke: #ffe4c4"/>
     <use xlink:href="#m1f76fe47d3" x="190.460986" y="232.179433" style="fill: #ffe4c4; stroke: #ffe4c4"/>
     <use xlink:href="#m1f76fe47d3" x="155.446184" y="204.257222" style="fill: #ffe4c4; stroke: #ffe4c4"/>
     <use xlink:href="#m1f76fe47d3" x="182.09475" y="214.399211" style="fill: #ffe4c4; stroke: #ffe4c4"/>
     <use xlink:href="#m1f76fe47d3" x="248.252771" y="225.631218" style="fill: #ffe4c4; stroke: #ffe4c4"/>
     <use xlink:href="#m1f76fe47d3" x="204.52894" y="199.868121" style="fill: #ffe4c4; stroke: #ffe4c4"/>
     <use xlink:href="#m1f76fe47d3" x="173.629635" y="184.947402" style="fill: #ffe4c4; stroke: #ffe4c4"/>
     <use xlink:href="#m1f76fe47d3" x="267.531414" y="205.441237" style="fill: #ffe4c4; stroke: #ffe4c4"/>
     <use xlink:href="#m1f76fe47d3" x="287.540619" y="204.250282" style="fill: #ffe4c4; stroke: #ffe4c4"/>
     <use xlink:href="#m1f76fe47d3" x="203.947144" y="160.757915" style="fill: #ffe4c4; stroke: #ffe4c4"/>
     <use xlink:href="#m1f76fe47d3" x="174.926826" y="192.417005" style="fill: #ffe4c4; stroke: #ffe4c4"/>
     <use xlink:href="#m1f76fe47d3" x="261.618884" y="230.354363" style="fill: #ffe4c4; stroke: #ffe4c4"/>
     <use xlink:href="#m1f76fe47d3" x="160.364151" y="205.136402" style="fill: #ffe4c4; stroke: #ffe4c4"/>
     <use xlink:href="#m1f76fe47d3" x="222.053734" y="208.892626" style="fill: #ffe4c4; stroke: #ffe4c4"/>
     <use xlink:href="#m1f76fe47d3" x="203.380758" y="199.879876" style="fill: #ffe4c4; stroke: #ffe4c4"/>
    </g>
   </g>
   <g id="PathCollection_10">
    <defs>
     <path id="m84fbd153c8" d="M -2.99994 2.99994 
L 3.00006 2.99994 
L 3.00006 -3.00006 
L -2.99994 -3.00006 
z
" style="stroke: #000000"/>
    </defs>
    <g clip-path="url(#pe025c6d8a6)">
     <use xlink:href="#m84fbd153c8" x="104.036624" y="244.105854" style="stroke: #000000"/>
     <use xlink:href="#m84fbd153c8" x="226.910623" y="219.804056" style="stroke: #000000"/>
     <use xlink:href="#m84fbd153c8" x="142.679627" y="208.504756" style="stroke: #000000"/>
     <use xlink:href="#m84fbd153c8" x="174.527541" y="190.414583" style="stroke: #000000"/>
     <use xlink:href="#m84fbd153c8" x="103.616329" y="206.335374" style="stroke: #000000"/>
     <use xlink:href="#m84fbd153c8" x="167.169414" y="226.09085" style="stroke: #000000"/>
     <use xlink:href="#m84fbd153c8" x="91.689354" y="228.760172" style="stroke: #000000"/>
     <use xlink:href="#m84fbd153c8" x="134.331698" y="198.838896" style="stroke: #000000"/>
     <use xlink:href="#m84fbd153c8" x="146.594271" y="181.425564" style="stroke: #000000"/>
     <use xlink:href="#m84fbd153c8" x="127.824596" y="215.264218" style="stroke: #000000"/>
     <use xlink:href="#m84fbd153c8" x="118.682228" y="235.271854" style="stroke: #000000"/>
     <use xlink:href="#m84fbd153c8" x="129.91868" y="221.597669" style="stroke: #000000"/>
     <use xlink:href="#m84fbd153c8" x="99.446577" y="217.011651" style="stroke: #000000"/>
     <use xlink:href="#m84fbd153c8" x="136.628618" y="221.887375" style="stroke: #000000"/>
     <use xlink:href="#m84fbd153c8" x="201.515725" y="213.459373" style="stroke: #000000"/>
     <use xlink:href="#m84fbd153c8" x="89.87506" y="229.333693" style="stroke: #000000"/>
     <use xlink:href="#m84fbd153c8" x="84.785046" y="231.257916" style="stroke: #000000"/>
     <use xlink:href="#m84fbd153c8" x="119.471349" y="190.781769" style="stroke: #000000"/>
     <use xlink:href="#m84fbd153c8" x="72.239708" y="224.157679" style="stroke: #000000"/>
     <use xlink:href="#m84fbd153c8" x="101.597952" y="227.160977" style="stroke: #000000"/>
     <use xlink:href="#m84fbd153c8" x="67.128724" y="225.191288" style="stroke: #000000"/>
     <use xlink:href="#m84fbd153c8" x="133.953615" y="206.738831" style="stroke: #000000"/>
     <use xlink:href="#m84fbd153c8" x="82.15642" y="229.411806" style="stroke: #000000"/>
     <use xlink:href="#m84fbd153c8" x="105.018544" y="237.136292" style="stroke: #000000"/>
     <use xlink:href="#m84fbd153c8" x="193.611745" y="205.510117" style="stroke: #000000"/>
     <use xlink:href="#m84fbd153c8" x="112.12112" y="228.835442" style="stroke: #000000"/>
     <use xlink:href="#m84fbd153c8" x="92.079518" y="241.889972" style="stroke: #000000"/>
     <use xlink:href="#m84fbd153c8" x="115.187188" y="231.234367" style="stroke: #000000"/>
     <use xlink:href="#m84fbd153c8" x="204.192433" y="240.629061" style="stroke: #000000"/>
     <use xlink:href="#m84fbd153c8" x="115.187188" y="231.234367" style="stroke: #000000"/>
     <use xlink:href="#m84fbd153c8" x="124.848964" y="226.390587" style="stroke: #000000"/>
     <use xlink:href="#m84fbd153c8" x="100.751853" y="218.172224" style="stroke: #000000"/>
     <use xlink:href="#m84fbd153c8" x="90.572689" y="213.584018" style="stroke: #000000"/>
     <use xlink:href="#m84fbd153c8" x="105.715453" y="226.743458" style="stroke: #000000"/>
     <use xlink:href="#m84fbd153c8" x="98.684531" y="221.543465" style="stroke: #000000"/>
     <use xlink:href="#m84fbd153c8" x="119.852829" y="219.255923" style="stroke: #000000"/>
     <use xlink:href="#m84fbd153c8" x="104.667456" y="213.204014" style="stroke: #000000"/>
     <use xlink:href="#m84fbd153c8" x="180.932051" y="221.123713" style="stroke: #000000"/>
     <use xlink:href="#m84fbd153c8" x="97.716695" y="228.685296" style="stroke: #000000"/>
     <use xlink:href="#m84fbd153c8" x="113.479486" y="189.354873" style="stroke: #000000"/>
     <use xlink:href="#m84fbd153c8" x="114.755117" y="227.626836" style="stroke: #000000"/>
     <use xlink:href="#m84fbd153c8" x="123.488913" y="215.489208" style="stroke: #000000"/>
     <use xlink:href="#m84fbd153c8" x="131.603565" y="229.970966" style="stroke: #000000"/>
     <use xlink:href="#m84fbd153c8" x="112.891251" y="228.719594" style="stroke: #000000"/>
     <use xlink:href="#m84fbd153c8" x="95.103242" y="226.056762" style="stroke: #000000"/>
     <use xlink:href="#m84fbd153c8" x="97.64556" y="213.83744" style="stroke: #000000"/>
     <use xlink:href="#m84fbd153c8" x="105.12656" y="212.89349" style="stroke: #000000"/>
     <use xlink:href="#m84fbd153c8" x="83.601464" y="198.694086" style="stroke: #000000"/>
     <use xlink:href="#m84fbd153c8" x="102.638946" y="230.818887" style="stroke: #000000"/>
     <use xlink:href="#m84fbd153c8" x="127.871264" y="231.743161" style="stroke: #000000"/>
     <use xlink:href="#m84fbd153c8" x="82.066608" y="222.171632" style="stroke: #000000"/>
     <use xlink:href="#m84fbd153c8" x="130.725442" y="198.510832" style="stroke: #000000"/>
     <use xlink:href="#m84fbd153c8" x="185.450877" y="227.704365" style="stroke: #000000"/>
     <use xlink:href="#m84fbd153c8" x="81.109928" y="220.924266" style="stroke: #000000"/>
     <use xlink:href="#m84fbd153c8" x="62.106105" y="226.53948" style="stroke: #000000"/>
     <use xlink:href="#m84fbd153c8" x="100.275814" y="231.12559" style="stroke: #000000"/>
     <use xlink:href="#m84fbd153c8" x="190.428483" y="203.973149" style="stroke: #000000"/>
     <use xlink:href="#m84fbd153c8" x="112.777142" y="234.096664" style="stroke: #000000"/>
     <use xlink:href="#m84fbd153c8" x="206.682905" y="236.152961" style="stroke: #000000"/>
     <use xlink:href="#m84fbd153c8" x="177.851335" y="205.599985" style="stroke: #000000"/>
     <use xlink:href="#m84fbd153c8" x="165.999569" y="210.568896" style="stroke: #000000"/>
     <use xlink:href="#m84fbd153c8" x="95.47535" y="227.383586" style="stroke: #000000"/>
     <use xlink:href="#m84fbd153c8" x="78.548007" y="234.481461" style="stroke: #000000"/>
     <use xlink:href="#m84fbd153c8" x="66.805455" y="229.631067" style="stroke: #000000"/>
    </g>
   </g>
   <g id="PathCollection_11">
    <defs>
     <path id="mac513953c0" d="M -3 -0 
L 3 3 
L 3 -3 
z
" style="stroke: #ff8c00"/>
    </defs>
    <g clip-path="url(#pe025c6d8a6)">
     <use xlink:href="#mac513953c0" x="204.289988" y="222.695124" style="fill: #ff8c00; stroke: #ff8c00"/>
     <use xlink:href="#mac513953c0" x="183.095161" y="205.485036" style="fill: #ff8c00; stroke: #ff8c00"/>
     <use xlink:href="#mac513953c0" x="100.157778" y="200.189719" style="fill: #ff8c00; stroke: #ff8c00"/>
     <use xlink:href="#mac513953c0" x="150.403449" y="214.448502" style="fill: #ff8c00; stroke: #ff8c00"/>
     <use xlink:href="#mac513953c0" x="137.271694" y="216.183864" style="fill: #ff8c00; stroke: #ff8c00"/>
     <use xlink:href="#mac513953c0" x="153.026911" y="240.660896" style="fill: #ff8c00; stroke: #ff8c00"/>
     <use xlink:href="#mac513953c0" x="123.747775" y="206.591176" style="fill: #ff8c00; stroke: #ff8c00"/>
     <use xlink:href="#mac513953c0" x="89.279953" y="216.026892" style="fill: #ff8c00; stroke: #ff8c00"/>
     <use xlink:href="#mac513953c0" x="72.659281" y="202.876778" style="fill: #ff8c00; stroke: #ff8c00"/>
     <use xlink:href="#mac513953c0" x="84.87975" y="251.545441" style="fill: #ff8c00; stroke: #ff8c00"/>
     <use xlink:href="#mac513953c0" x="110.061837" y="215.357096" style="fill: #ff8c00; stroke: #ff8c00"/>
     <use xlink:href="#mac513953c0" x="51.537415" y="215.417261" style="fill: #ff8c00; stroke: #ff8c00"/>
     <use xlink:href="#mac513953c0" x="116.033361" y="245.711343" style="fill: #ff8c00; stroke: #ff8c00"/>
     <use xlink:href="#mac513953c0" x="97.852851" y="235.90567" style="fill: #ff8c00; stroke: #ff8c00"/>
     <use xlink:href="#mac513953c0" x="117.894048" y="213.206139" style="fill: #ff8c00; stroke: #ff8c00"/>
     <use xlink:href="#mac513953c0" x="94.102378" y="226.895249" style="fill: #ff8c00; stroke: #ff8c00"/>
     <use xlink:href="#mac513953c0" x="84.978951" y="193.29126" style="fill: #ff8c00; stroke: #ff8c00"/>
     <use xlink:href="#mac513953c0" x="131.363845" y="236.40595" style="fill: #ff8c00; stroke: #ff8c00"/>
     <use xlink:href="#mac513953c0" x="156.893122" y="215.152869" style="fill: #ff8c00; stroke: #ff8c00"/>
     <use xlink:href="#mac513953c0" x="91.794892" y="235.926619" style="fill: #ff8c00; stroke: #ff8c00"/>
     <use xlink:href="#mac513953c0" x="99.539779" y="221.961434" style="fill: #ff8c00; stroke: #ff8c00"/>
     <use xlink:href="#mac513953c0" x="128.528555" y="199.378613" style="fill: #ff8c00; stroke: #ff8c00"/>
     <use xlink:href="#mac513953c0" x="99.442749" y="217.165175" style="fill: #ff8c00; stroke: #ff8c00"/>
     <use xlink:href="#mac513953c0" x="184.629527" y="229.490885" style="fill: #ff8c00; stroke: #ff8c00"/>
     <use xlink:href="#mac513953c0" x="90.458586" y="224.960345" style="fill: #ff8c00; stroke: #ff8c00"/>
     <use xlink:href="#mac513953c0" x="180.378621" y="209.120669" style="fill: #ff8c00; stroke: #ff8c00"/>
     <use xlink:href="#mac513953c0" x="119.438092" y="201.205474" style="fill: #ff8c00; stroke: #ff8c00"/>
     <use xlink:href="#mac513953c0" x="109.179957" y="223.694979" style="fill: #ff8c00; stroke: #ff8c00"/>
     <use xlink:href="#mac513953c0" x="136.421803" y="216.086453" style="fill: #ff8c00; stroke: #ff8c00"/>
     <use xlink:href="#mac513953c0" x="153.188299" y="232.908581" style="fill: #ff8c00; stroke: #ff8c00"/>
     <use xlink:href="#mac513953c0" x="106.88389" y="225.412231" style="fill: #ff8c00; stroke: #ff8c00"/>
     <use xlink:href="#mac513953c0" x="86.102503" y="230.930084" style="fill: #ff8c00; stroke: #ff8c00"/>
     <use xlink:href="#mac513953c0" x="94.601365" y="218.137386" style="fill: #ff8c00; stroke: #ff8c00"/>
     <use xlink:href="#mac513953c0" x="173.169261" y="217.205235" style="fill: #ff8c00; stroke: #ff8c00"/>
     <use xlink:href="#mac513953c0" x="181.192564" y="213.106687" style="fill: #ff8c00; stroke: #ff8c00"/>
     <use xlink:href="#mac513953c0" x="178.063088" y="224.406969" style="fill: #ff8c00; stroke: #ff8c00"/>
     <use xlink:href="#mac513953c0" x="71.325322" y="223.794197" style="fill: #ff8c00; stroke: #ff8c00"/>
     <use xlink:href="#mac513953c0" x="152.215633" y="224.702795" style="fill: #ff8c00; stroke: #ff8c00"/>
     <use xlink:href="#mac513953c0" x="133.967494" y="192.773888" style="fill: #ff8c00; stroke: #ff8c00"/>
     <use xlink:href="#mac513953c0" x="151.16939" y="216.371876" style="fill: #ff8c00; stroke: #ff8c00"/>
     <use xlink:href="#mac513953c0" x="88.42494" y="241.195252" style="fill: #ff8c00; stroke: #ff8c00"/>
     <use xlink:href="#mac513953c0" x="97.125475" y="219.25686" style="fill: #ff8c00; stroke: #ff8c00"/>
     <use xlink:href="#mac513953c0" x="201.843664" y="255.1909" style="fill: #ff8c00; stroke: #ff8c00"/>
     <use xlink:href="#mac513953c0" x="79.103005" y="231.427839" style="fill: #ff8c00; stroke: #ff8c00"/>
     <use xlink:href="#mac513953c0" x="126.096752" y="201.490502" style="fill: #ff8c00; stroke: #ff8c00"/>
     <use xlink:href="#mac513953c0" x="83.518448" y="223.893132" style="fill: #ff8c00; stroke: #ff8c00"/>
     <use xlink:href="#mac513953c0" x="146.675506" y="215.660502" style="fill: #ff8c00; stroke: #ff8c00"/>
     <use xlink:href="#mac513953c0" x="97.820912" y="237.655656" style="fill: #ff8c00; stroke: #ff8c00"/>
     <use xlink:href="#mac513953c0" x="61.786396" y="226.235945" style="fill: #ff8c00; stroke: #ff8c00"/>
     <use xlink:href="#mac513953c0" x="103.408369" y="211.625205" style="fill: #ff8c00; stroke: #ff8c00"/>
     <use xlink:href="#mac513953c0" x="126.24905" y="193.311697" style="fill: #ff8c00; stroke: #ff8c00"/>
     <use xlink:href="#mac513953c0" x="201.487822" y="229.424844" style="fill: #ff8c00; stroke: #ff8c00"/>
     <use xlink:href="#mac513953c0" x="96.897686" y="227.92254" style="fill: #ff8c00; stroke: #ff8c00"/>
     <use xlink:href="#mac513953c0" x="67.141271" y="211.469055" style="fill: #ff8c00; stroke: #ff8c00"/>
     <use xlink:href="#mac513953c0" x="124.382019" y="229.891941" style="fill: #ff8c00; stroke: #ff8c00"/>
     <use xlink:href="#mac513953c0" x="150.578928" y="225.188686" style="fill: #ff8c00; stroke: #ff8c00"/>
     <use xlink:href="#mac513953c0" x="156.830933" y="211.840261" style="fill: #ff8c00; stroke: #ff8c00"/>
     <use xlink:href="#mac513953c0" x="166.430482" y="212.709399" style="fill: #ff8c00; stroke: #ff8c00"/>
     <use xlink:href="#mac513953c0" x="169.548508" y="233.575998" style="fill: #ff8c00; stroke: #ff8c00"/>
     <use xlink:href="#mac513953c0" x="91.123831" y="230.38077" style="fill: #ff8c00; stroke: #ff8c00"/>
     <use xlink:href="#mac513953c0" x="88.193225" y="233.432898" style="fill: #ff8c00; stroke: #ff8c00"/>
     <use xlink:href="#mac513953c0" x="109.197108" y="217.268094" style="fill: #ff8c00; stroke: #ff8c00"/>
     <use xlink:href="#mac513953c0" x="147.28897" y="217.000163" style="fill: #ff8c00; stroke: #ff8c00"/>
     <use xlink:href="#mac513953c0" x="104.465872" y="230.758544" style="fill: #ff8c00; stroke: #ff8c00"/>
    </g>
   </g>
   <g id="matplotlib.axis_1">
    <g id="xtick_1">
     <g id="line2d_1">
      <defs>
       <path id="m29062fce5f" d="M 0 0 
L 0 3.5 
" style="stroke: #000000; stroke-width: 0.8"/>
      </defs>
      <g>
       <use xlink:href="#m29062fce5f" x="78.898914" y="273.312" style="stroke: #000000; stroke-width: 0.8"/>
      </g>
     </g>
     <g id="text_1">
      <!-- −10 -->
      <g transform="translate(68.346571 287.910437) scale(0.1 -0.1)">
       <defs>
        <path id="DejaVuSans-2212" d="M 678 2272 
L 4684 2272 
L 4684 1741 
L 678 1741 
L 678 2272 
z
" transform="scale(0.015625)"/>
        <path id="DejaVuSans-31" d="M 794 531 
L 1825 531 
L 1825 4091 
L 703 3866 
L 703 4441 
L 1819 4666 
L 2450 4666 
L 2450 531 
L 3481 531 
L 3481 0 
L 794 0 
L 794 531 
z
" transform="scale(0.015625)"/>
        <path id="DejaVuSans-30" d="M 2034 4250 
Q 1547 4250 1301 3770 
Q 1056 3291 1056 2328 
Q 1056 1369 1301 889 
Q 1547 409 2034 409 
Q 2525 409 2770 889 
Q 3016 1369 3016 2328 
Q 3016 3291 2770 3770 
Q 2525 4250 2034 4250 
z
M 2034 4750 
Q 2819 4750 3233 4129 
Q 3647 3509 3647 2328 
Q 3647 1150 3233 529 
Q 2819 -91 2034 -91 
Q 1250 -91 836 529 
Q 422 1150 422 2328 
Q 422 3509 836 4129 
Q 1250 4750 2034 4750 
z
" transform="scale(0.015625)"/>
       </defs>
       <use xlink:href="#DejaVuSans-2212"/>
       <use xlink:href="#DejaVuSans-31" x="83.789062"/>
       <use xlink:href="#DejaVuSans-30" x="147.412109"/>
      </g>
     </g>
    </g>
    <g id="xtick_2">
     <g id="line2d_2">
      <g>
       <use xlink:href="#m29062fce5f" x="152.813367" y="273.312" style="stroke: #000000; stroke-width: 0.8"/>
      </g>
     </g>
     <g id="text_2">
      <!-- 0 -->
      <g transform="translate(149.632117 287.910437) scale(0.1 -0.1)">
       <use xlink:href="#DejaVuSans-30"/>
      </g>
     </g>
    </g>
    <g id="xtick_3">
     <g id="line2d_3">
      <g>
       <use xlink:href="#m29062fce5f" x="226.72782" y="273.312" style="stroke: #000000; stroke-width: 0.8"/>
      </g>
     </g>
     <g id="text_3">
      <!-- 10 -->
      <g transform="translate(220.36532 287.910437) scale(0.1 -0.1)">
       <use xlink:href="#DejaVuSans-31"/>
       <use xlink:href="#DejaVuSans-30" x="63.623047"/>
      </g>
     </g>
    </g>
    <g id="xtick_4">
     <g id="line2d_4">
      <g>
       <use xlink:href="#m29062fce5f" x="300.642273" y="273.312" style="stroke: #000000; stroke-width: 0.8"/>
      </g>
     </g>
     <g id="text_4">
      <!-- 20 -->
      <g transform="translate(294.279773 287.910437) scale(0.1 -0.1)">
       <defs>
        <path id="DejaVuSans-32" d="M 1228 531 
L 3431 531 
L 3431 0 
L 469 0 
L 469 531 
Q 828 903 1448 1529 
Q 2069 2156 2228 2338 
Q 2531 2678 2651 2914 
Q 2772 3150 2772 3378 
Q 2772 3750 2511 3984 
Q 2250 4219 1831 4219 
Q 1534 4219 1204 4116 
Q 875 4013 500 3803 
L 500 4441 
Q 881 4594 1212 4672 
Q 1544 4750 1819 4750 
Q 2544 4750 2975 4387 
Q 3406 4025 3406 3419 
Q 3406 3131 3298 2873 
Q 3191 2616 2906 2266 
Q 2828 2175 2409 1742 
Q 1991 1309 1228 531 
z
" transform="scale(0.015625)"/>
       </defs>
       <use xlink:href="#DejaVuSans-32"/>
       <use xlink:href="#DejaVuSans-30" x="63.623047"/>
      </g>
     </g>
    </g>
    <g id="xtick_5">
     <g id="line2d_5">
      <g>
       <use xlink:href="#m29062fce5f" x="374.556726" y="273.312" style="stroke: #000000; stroke-width: 0.8"/>
      </g>
     </g>
     <g id="text_5">
      <!-- 30 -->
      <g transform="translate(368.194226 287.910437) scale(0.1 -0.1)">
       <defs>
        <path id="DejaVuSans-33" d="M 2597 2516 
Q 3050 2419 3304 2112 
Q 3559 1806 3559 1356 
Q 3559 666 3084 287 
Q 2609 -91 1734 -91 
Q 1441 -91 1130 -33 
Q 819 25 488 141 
L 488 750 
Q 750 597 1062 519 
Q 1375 441 1716 441 
Q 2309 441 2620 675 
Q 2931 909 2931 1356 
Q 2931 1769 2642 2001 
Q 2353 2234 1838 2234 
L 1294 2234 
L 1294 2753 
L 1863 2753 
Q 2328 2753 2575 2939 
Q 2822 3125 2822 3475 
Q 2822 3834 2567 4026 
Q 2313 4219 1838 4219 
Q 1578 4219 1281 4162 
Q 984 4106 628 3988 
L 628 4550 
Q 988 4650 1302 4700 
Q 1616 4750 1894 4750 
Q 2613 4750 3031 4423 
Q 3450 4097 3450 3541 
Q 3450 3153 3228 2886 
Q 3006 2619 2597 2516 
z
" transform="scale(0.015625)"/>
       </defs>
       <use xlink:href="#DejaVuSans-33"/>
       <use xlink:href="#DejaVuSans-30" x="63.623047"/>
      </g>
     </g>
    </g>
   </g>
   <g id="matplotlib.axis_2">
    <g id="ytick_1">
     <g id="line2d_6">
      <defs>
       <path id="mc95f97d247" d="M 0 0 
L -3.5 0 
" style="stroke: #000000; stroke-width: 0.8"/>
      </defs>
      <g>
       <use xlink:href="#mc95f97d247" x="35.304688" y="257.737242" style="stroke: #000000; stroke-width: 0.8"/>
      </g>
     </g>
     <g id="text_6">
      <!-- −10 -->
      <g transform="translate(7.2 261.536461) scale(0.1 -0.1)">
       <use xlink:href="#DejaVuSans-2212"/>
       <use xlink:href="#DejaVuSans-31" x="83.789062"/>
       <use xlink:href="#DejaVuSans-30" x="147.412109"/>
      </g>
     </g>
    </g>
    <g id="ytick_2">
     <g id="line2d_7">
      <g>
       <use xlink:href="#mc95f97d247" x="35.304688" y="212.636014" style="stroke: #000000; stroke-width: 0.8"/>
      </g>
     </g>
     <g id="text_7">
      <!-- 0 -->
      <g transform="translate(21.942187 216.435233) scale(0.1 -0.1)">
       <use xlink:href="#DejaVuSans-30"/>
      </g>
     </g>
    </g>
    <g id="ytick_3">
     <g id="line2d_8">
      <g>
       <use xlink:href="#mc95f97d247" x="35.304688" y="167.534786" style="stroke: #000000; stroke-width: 0.8"/>
      </g>
     </g>
     <g id="text_8">
      <!-- 10 -->
      <g transform="translate(15.579687 171.334004) scale(0.1 -0.1)">
       <use xlink:href="#DejaVuSans-31"/>
       <use xlink:href="#DejaVuSans-30" x="63.623047"/>
      </g>
     </g>
    </g>
    <g id="ytick_4">
     <g id="line2d_9">
      <g>
       <use xlink:href="#mc95f97d247" x="35.304688" y="122.433557" style="stroke: #000000; stroke-width: 0.8"/>
      </g>
     </g>
     <g id="text_9">
      <!-- 20 -->
      <g transform="translate(15.579687 126.232776) scale(0.1 -0.1)">
       <use xlink:href="#DejaVuSans-32"/>
       <use xlink:href="#DejaVuSans-30" x="63.623047"/>
      </g>
     </g>
    </g>
    <g id="ytick_5">
     <g id="line2d_10">
      <g>
       <use xlink:href="#mc95f97d247" x="35.304688" y="77.332329" style="stroke: #000000; stroke-width: 0.8"/>
      </g>
     </g>
     <g id="text_10">
      <!-- 30 -->
      <g transform="translate(15.579687 81.131548) scale(0.1 -0.1)">
       <use xlink:href="#DejaVuSans-33"/>
       <use xlink:href="#DejaVuSans-30" x="63.623047"/>
      </g>
     </g>
    </g>
    <g id="ytick_6">
     <g id="line2d_11">
      <g>
       <use xlink:href="#mc95f97d247" x="35.304688" y="32.231101" style="stroke: #000000; stroke-width: 0.8"/>
      </g>
     </g>
     <g id="text_11">
      <!-- 40 -->
      <g transform="translate(15.579687 36.03032) scale(0.1 -0.1)">
       <defs>
        <path id="DejaVuSans-34" d="M 2419 4116 
L 825 1625 
L 2419 1625 
L 2419 4116 
z
M 2253 4666 
L 3047 4666 
L 3047 1625 
L 3713 1625 
L 3713 1100 
L 3047 1100 
L 3047 0 
L 2419 0 
L 2419 1100 
L 313 1100 
L 313 1709 
L 2253 4666 
z
" transform="scale(0.015625)"/>
       </defs>
       <use xlink:href="#DejaVuSans-34"/>
       <use xlink:href="#DejaVuSans-30" x="63.623047"/>
      </g>
     </g>
    </g>
   </g>
   <g id="patch_3">
    <path d="M 35.304688 273.312 
L 35.304688 7.2 
" style="fill: none; stroke: #000000; stroke-width: 0.8; stroke-linejoin: miter; stroke-linecap: square"/>
   </g>
   <g id="patch_4">
    <path d="M 392.424688 273.312 
L 392.424688 7.2 
" style="fill: none; stroke: #000000; stroke-width: 0.8; stroke-linejoin: miter; stroke-linecap: square"/>
   </g>
   <g id="patch_5">
    <path d="M 35.304687 273.312 
L 392.424688 273.312 
" style="fill: none; stroke: #000000; stroke-width: 0.8; stroke-linejoin: miter; stroke-linecap: square"/>
   </g>
   <g id="patch_6">
    <path d="M 35.304687 7.2 
L 392.424688 7.2 
" style="fill: none; stroke: #000000; stroke-width: 0.8; stroke-linejoin: miter; stroke-linecap: square"/>
   </g>
  </g>
 </g>
 <defs>
  <clipPath id="pe025c6d8a6">
   <rect x="35.304688" y="7.2" width="357.12" height="266.112"/>
  </clipPath>
 </defs>
</svg>
