<?xml version="1.0" encoding="utf-8" standalone="no"?>
<!DOCTYPE svg PUBLIC "-//W3C//DTD SVG 1.1//EN"
  "http://www.w3.org/Graphics/SVG/1.1/DTD/svg11.dtd">
<svg xmlns:xlink="http://www.w3.org/1999/xlink" width="399.624687pt" height="297.190125pt" viewBox="0 0 399.624687 297.190125" xmlns="http://www.w3.org/2000/svg" version="1.1">
 <metadata>
  <rdf:RDF xmlns:dc="http://purl.org/dc/elements/1.1/" xmlns:cc="http://creativecommons.org/ns#" xmlns:rdf="http://www.w3.org/1999/02/22-rdf-syntax-ns#">
   <cc:Work>
    <dc:type rdf:resource="http://purl.org/dc/dcmitype/StillImage"/>
    <dc:date>2023-11-12T05:17:17.787499</dc:date>
    <dc:format>image/svg+xml</dc:format>
    <dc:creator>
     <cc:Agent>
      <dc:title>Matplotlib v3.8.0, https://matplotlib.org/</dc:title>
     </cc:Agent>
    </dc:creator>
   </cc:Work>
  </rdf:RDF>
 </metadata>
 <defs>
  <style type="text/css">*{stroke-linejoin: round; stroke-linecap: butt}</style>
 </defs>
 <g id="figure_1">
  <g id="patch_1">
   <path d="M 0 297.190125 
L 399.624687 297.190125 
L 399.624687 0 
L 0 0 
z
" style="fill: #ffffff"/>
  </g>
  <g id="axes_1">
   <g id="patch_2">
    <path d="M 35.304688 273.312 
L 392.424688 273.312 
L 392.424688 7.2 
L 35.304688 7.2 
z
" style="fill: #ffffff"/>
   </g>
   <g id="PathCollection_1">
    <defs>
     <path id="m17569a11ef" d="M 0 1.5 
C 0.397805 1.5 0.77937 1.341951 1.06066 1.06066 
C 1.341951 0.77937 1.5 0.397805 1.5 0 
C 1.5 -0.397805 1.341951 -0.77937 1.06066 -1.06066 
C 0.77937 -1.341951 0.397805 -1.5 0 -1.5 
C -0.397805 -1.5 -0.77937 -1.341951 -1.06066 -1.06066 
C -1.341951 -0.77937 -1.5 -0.397805 -1.5 0 
C -1.5 0.397805 -1.341951 0.77937 -1.06066 1.06066 
C -0.77937 1.341951 -0.397805 1.5 0 1.5 
z
" style="stroke: #ff8c00"/>
    </defs>
    <g clip-path="url(#pdec4af455a)">
     <use xlink:href="#m17569a11ef" x="272.209791" y="182.771778" style="fill: #ff8c00; stroke: #ff8c00"/>
     <use xlink:href="#m17569a11ef" x="147.705622" y="212.188961" style="fill: #ff8c00; stroke: #ff8c00"/>
     <use xlink:href="#m17569a11ef" x="259.326663" y="211.167701" style="fill: #ff8c00; stroke: #ff8c00"/>
     <use xlink:href="#m17569a11ef" x="201.173324" y="194.392017" style="fill: #ff8c00; stroke: #ff8c00"/>
     <use xlink:href="#m17569a11ef" x="118.398908" y="217.461385" style="fill: #ff8c00; stroke: #ff8c00"/>
     <use xlink:href="#m17569a11ef" x="124.871759" y="167.991056" style="fill: #ff8c00; stroke: #ff8c00"/>
     <use xlink:href="#m17569a11ef" x="120.739368" y="188.389284" style="fill: #ff8c00; stroke: #ff8c00"/>
     <use xlink:href="#m17569a11ef" x="154.191176" y="217.944519" style="fill: #ff8c00; stroke: #ff8c00"/>
     <use xlink:href="#m17569a11ef" x="191.816278" y="206.373843" style="fill: #ff8c00; stroke: #ff8c00"/>
     <use xlink:href="#m17569a11ef" x="190.028063" y="221.305828" style="fill: #ff8c00; stroke: #ff8c00"/>
     <use xlink:href="#m17569a11ef" x="168.861115" y="223.929813" style="fill: #ff8c00; stroke: #ff8c00"/>
     <use xlink:href="#m17569a11ef" x="101.618672" y="194.532213" style="fill: #ff8c00; stroke: #ff8c00"/>
     <use xlink:href="#m17569a11ef" x="214.933502" y="236.98144" style="fill: #ff8c00; stroke: #ff8c00"/>
     <use xlink:href="#m17569a11ef" x="210.847164" y="189.383013" style="fill: #ff8c00; stroke: #ff8c00"/>
     <use xlink:href="#m17569a11ef" x="258.112117" y="208.109732" style="fill: #ff8c00; stroke: #ff8c00"/>
     <use xlink:href="#m17569a11ef" x="169.470537" y="175.606847" style="fill: #ff8c00; stroke: #ff8c00"/>
    </g>
   </g>
   <g id="PathCollection_2">
    <defs>
     <path id="m1d64ac602e" d="M 0 1.5 
C 0.397805 1.5 0.77937 1.341951 1.06066 1.06066 
C 1.341951 0.77937 1.5 0.397805 1.5 0 
C 1.5 -0.397805 1.341951 -0.77937 1.06066 -1.06066 
C 0.77937 -1.341951 0.397805 -1.5 0 -1.5 
C -0.397805 -1.5 -0.77937 -1.341951 -1.06066 -1.06066 
C -1.341951 -0.77937 -1.5 -0.397805 -1.5 0 
C -1.5 0.397805 -1.341951 0.77937 -1.06066 1.06066 
C -0.77937 1.341951 -0.397805 1.5 0 1.5 
z
" style="stroke: #006400"/>
    </defs>
    <g clip-path="url(#pdec4af455a)">
     <use xlink:href="#m1d64ac602e" x="198.106593" y="19.881383" style="fill: #006400; stroke: #006400"/>
     <use xlink:href="#m1d64ac602e" x="236.988742" y="123.865336" style="fill: #006400; stroke: #006400"/>
     <use xlink:href="#m1d64ac602e" x="223.012626" y="19.296" style="fill: #006400; stroke: #006400"/>
     <use xlink:href="#m1d64ac602e" x="242.133127" y="98.539354" style="fill: #006400; stroke: #006400"/>
     <use xlink:href="#m1d64ac602e" x="178.472546" y="77.408727" style="fill: #006400; stroke: #006400"/>
     <use xlink:href="#m1d64ac602e" x="200.151709" y="42.609454" style="fill: #006400; stroke: #006400"/>
     <use xlink:href="#m1d64ac602e" x="231.110627" y="123.761184" style="fill: #006400; stroke: #006400"/>
     <use xlink:href="#m1d64ac602e" x="266.760207" y="107.761426" style="fill: #006400; stroke: #006400"/>
     <use xlink:href="#m1d64ac602e" x="241.405927" y="130.696647" style="fill: #006400; stroke: #006400"/>
     <use xlink:href="#m1d64ac602e" x="237.238655" y="43.2888" style="fill: #006400; stroke: #006400"/>
    </g>
   </g>
   <g id="PathCollection_3">
    <defs>
     <path id="mbdd9564392" d="M 0 1.5 
C 0.397805 1.5 0.77937 1.341951 1.06066 1.06066 
C 1.341951 0.77937 1.5 0.397805 1.5 0 
C 1.5 -0.397805 1.341951 -0.77937 1.06066 -1.06066 
C 0.77937 -1.341951 0.397805 -1.5 0 -1.5 
C -0.397805 -1.5 -0.77937 -1.341951 -1.06066 -1.06066 
C -1.341951 -0.77937 -1.5 -0.397805 -1.5 0 
C -1.5 0.397805 -1.341951 0.77937 -1.06066 1.06066 
C -0.77937 1.341951 -0.397805 1.5 0 1.5 
z
" style="stroke: #2f4f4f"/>
    </defs>
    <g clip-path="url(#pdec4af455a)">
     <use xlink:href="#mbdd9564392" x="211.919147" y="190.233148" style="fill: #2f4f4f; stroke: #2f4f4f"/>
     <use xlink:href="#mbdd9564392" x="216.466434" y="208.953203" style="fill: #2f4f4f; stroke: #2f4f4f"/>
     <use xlink:href="#mbdd9564392" x="327.640788" y="252.176911" style="fill: #2f4f4f; stroke: #2f4f4f"/>
     <use xlink:href="#mbdd9564392" x="281.774792" y="214.671842" style="fill: #2f4f4f; stroke: #2f4f4f"/>
     <use xlink:href="#mbdd9564392" x="306.66091" y="217.222121" style="fill: #2f4f4f; stroke: #2f4f4f"/>
     <use xlink:href="#mbdd9564392" x="301.902772" y="213.725865" style="fill: #2f4f4f; stroke: #2f4f4f"/>
     <use xlink:href="#mbdd9564392" x="233.925796" y="232.928351" style="fill: #2f4f4f; stroke: #2f4f4f"/>
     <use xlink:href="#mbdd9564392" x="247.930867" y="221.827861" style="fill: #2f4f4f; stroke: #2f4f4f"/>
     <use xlink:href="#mbdd9564392" x="202.225425" y="193.160789" style="fill: #2f4f4f; stroke: #2f4f4f"/>
     <use xlink:href="#mbdd9564392" x="230.57432" y="200.777512" style="fill: #2f4f4f; stroke: #2f4f4f"/>
     <use xlink:href="#mbdd9564392" x="236.945439" y="210.654959" style="fill: #2f4f4f; stroke: #2f4f4f"/>
     <use xlink:href="#mbdd9564392" x="256.593321" y="169.973913" style="fill: #2f4f4f; stroke: #2f4f4f"/>
     <use xlink:href="#mbdd9564392" x="300.857289" y="206.290346" style="fill: #2f4f4f; stroke: #2f4f4f"/>
     <use xlink:href="#mbdd9564392" x="260.997473" y="203.642709" style="fill: #2f4f4f; stroke: #2f4f4f"/>
     <use xlink:href="#mbdd9564392" x="247.91701" y="214.632629" style="fill: #2f4f4f; stroke: #2f4f4f"/>
    </g>
   </g>
   <g id="PathCollection_4">
    <defs>
     <path id="m230fc6c21f" d="M 0 1.5 
C 0.397805 1.5 0.77937 1.341951 1.06066 1.06066 
C 1.341951 0.77937 1.5 0.397805 1.5 0 
C 1.5 -0.397805 1.341951 -0.77937 1.06066 -1.06066 
C 0.77937 -1.341951 0.397805 -1.5 0 -1.5 
C -0.397805 -1.5 -0.77937 -1.341951 -1.06066 -1.06066 
C -1.341951 -0.77937 -1.5 -0.397805 -1.5 0 
C -1.5 0.397805 -1.341951 0.77937 -1.06066 1.06066 
C -0.77937 1.341951 -0.397805 1.5 0 1.5 
z
" style="stroke: #00bfff"/>
    </defs>
    <g clip-path="url(#pdec4af455a)">
     <use xlink:href="#m230fc6c21f" x="376.19196" y="210.445938" style="fill: #00bfff; stroke: #00bfff"/>
     <use xlink:href="#m230fc6c21f" x="260.428427" y="219.187089" style="fill: #00bfff; stroke: #00bfff"/>
     <use xlink:href="#m230fc6c21f" x="325.000412" y="197.778141" style="fill: #00bfff; stroke: #00bfff"/>
     <use xlink:href="#m230fc6c21f" x="298.177026" y="261.216" style="fill: #00bfff; stroke: #00bfff"/>
     <use xlink:href="#m230fc6c21f" x="272.373023" y="225.193709" style="fill: #00bfff; stroke: #00bfff"/>
     <use xlink:href="#m230fc6c21f" x="302.744743" y="213.254047" style="fill: #00bfff; stroke: #00bfff"/>
     <use xlink:href="#m230fc6c21f" x="304.036255" y="206.436726" style="fill: #00bfff; stroke: #00bfff"/>
     <use xlink:href="#m230fc6c21f" x="277.692876" y="230.784982" style="fill: #00bfff; stroke: #00bfff"/>
    </g>
   </g>
   <g id="PathCollection_5">
    <defs>
     <path id="mcd534b49c1" d="M 0 1.5 
C 0.397805 1.5 0.77937 1.341951 1.06066 1.06066 
C 1.341951 0.77937 1.5 0.397805 1.5 0 
C 1.5 -0.397805 1.341951 -0.77937 1.06066 -1.06066 
C 0.77937 -1.341951 0.397805 -1.5 0 -1.5 
C -0.397805 -1.5 -0.77937 -1.341951 -1.06066 -1.06066 
C -1.341951 -0.77937 -1.5 -0.397805 -1.5 0 
C -1.5 0.397805 -1.341951 0.77937 -1.06066 1.06066 
C -0.77937 1.341951 -0.397805 1.5 0 1.5 
z
" style="stroke: #ffff00"/>
    </defs>
    <g clip-path="url(#pdec4af455a)">
     <use xlink:href="#mcd534b49c1" x="226.282146" y="178.586739" style="fill: #ffff00; stroke: #ffff00"/>
     <use xlink:href="#mcd534b49c1" x="284.034905" y="222.140454" style="fill: #ffff00; stroke: #ffff00"/>
     <use xlink:href="#mcd534b49c1" x="283.076998" y="190.845261" style="fill: #ffff00; stroke: #ffff00"/>
     <use xlink:href="#mcd534b49c1" x="261.766877" y="203.983332" style="fill: #ffff00; stroke: #ffff00"/>
     <use xlink:href="#mcd534b49c1" x="223.253389" y="142.729877" style="fill: #ffff00; stroke: #ffff00"/>
     <use xlink:href="#mcd534b49c1" x="272.964167" y="214.014782" style="fill: #ffff00; stroke: #ffff00"/>
     <use xlink:href="#mcd534b49c1" x="260.42978" y="192.745891" style="fill: #ffff00; stroke: #ffff00"/>
     <use xlink:href="#mcd534b49c1" x="283.765778" y="194.303648" style="fill: #ffff00; stroke: #ffff00"/>
     <use xlink:href="#mcd534b49c1" x="217.283415" y="209.335831" style="fill: #ffff00; stroke: #ffff00"/>
     <use xlink:href="#mcd534b49c1" x="267.134716" y="186.751652" style="fill: #ffff00; stroke: #ffff00"/>
     <use xlink:href="#mcd534b49c1" x="252.194927" y="220.665109" style="fill: #ffff00; stroke: #ffff00"/>
     <use xlink:href="#mcd534b49c1" x="268.712321" y="183.922095" style="fill: #ffff00; stroke: #ffff00"/>
     <use xlink:href="#mcd534b49c1" x="206.148588" y="218.813881" style="fill: #ffff00; stroke: #ffff00"/>
    </g>
   </g>
   <g id="PathCollection_6">
    <defs>
     <path id="md77a16c558" d="M 0 1.5 
C 0.397805 1.5 0.77937 1.341951 1.06066 1.06066 
C 1.341951 0.77937 1.5 0.397805 1.5 0 
C 1.5 -0.397805 1.341951 -0.77937 1.06066 -1.06066 
C 0.77937 -1.341951 0.397805 -1.5 0 -1.5 
C -0.397805 -1.5 -0.77937 -1.341951 -1.06066 -1.06066 
C -1.341951 -0.77937 -1.5 -0.397805 -1.5 0 
C -1.5 0.397805 -1.341951 0.77937 -1.06066 1.06066 
C -0.77937 1.341951 -0.397805 1.5 0 1.5 
z
" style="stroke: #00ffff"/>
    </defs>
    <g clip-path="url(#pdec4af455a)">
     <use xlink:href="#md77a16c558" x="309.998445" y="176.135374" style="fill: #00ffff; stroke: #00ffff"/>
     <use xlink:href="#md77a16c558" x="253.268028" y="241.13714" style="fill: #00ffff; stroke: #00ffff"/>
     <use xlink:href="#md77a16c558" x="288.643695" y="222.711386" style="fill: #00ffff; stroke: #00ffff"/>
     <use xlink:href="#md77a16c558" x="299.132079" y="220.660873" style="fill: #00ffff; stroke: #00ffff"/>
     <use xlink:href="#md77a16c558" x="303.776524" y="206.823699" style="fill: #00ffff; stroke: #00ffff"/>
     <use xlink:href="#md77a16c558" x="319.93017" y="217.774338" style="fill: #00ffff; stroke: #00ffff"/>
     <use xlink:href="#md77a16c558" x="304.793229" y="191.410321" style="fill: #00ffff; stroke: #00ffff"/>
     <use xlink:href="#md77a16c558" x="317.599925" y="209.129485" style="fill: #00ffff; stroke: #00ffff"/>
     <use xlink:href="#md77a16c558" x="331.338948" y="219.233924" style="fill: #00ffff; stroke: #00ffff"/>
     <use xlink:href="#md77a16c558" x="346.577483" y="216.211568" style="fill: #00ffff; stroke: #00ffff"/>
     <use xlink:href="#md77a16c558" x="318.715761" y="181.827154" style="fill: #00ffff; stroke: #00ffff"/>
     <use xlink:href="#md77a16c558" x="300.794231" y="204.318863" style="fill: #00ffff; stroke: #00ffff"/>
     <use xlink:href="#md77a16c558" x="370.841689" y="210.391746" style="fill: #00ffff; stroke: #00ffff"/>
     <use xlink:href="#md77a16c558" x="355.88317" y="204.585897" style="fill: #00ffff; stroke: #00ffff"/>
     <use xlink:href="#md77a16c558" x="272.006105" y="176.267924" style="fill: #00ffff; stroke: #00ffff"/>
     <use xlink:href="#md77a16c558" x="320.869522" y="200.109973" style="fill: #00ffff; stroke: #00ffff"/>
     <use xlink:href="#md77a16c558" x="356.689716" y="178.438739" style="fill: #00ffff; stroke: #00ffff"/>
     <use xlink:href="#md77a16c558" x="281.460528" y="236.33002" style="fill: #00ffff; stroke: #00ffff"/>
     <use xlink:href="#md77a16c558" x="287.010838" y="218.861121" style="fill: #00ffff; stroke: #00ffff"/>
    </g>
   </g>
   <g id="PathCollection_7">
    <defs>
     <path id="m7cfc3c83c9" d="M 0 1.5 
C 0.397805 1.5 0.77937 1.341951 1.06066 1.06066 
C 1.341951 0.77937 1.5 0.397805 1.5 0 
C 1.5 -0.397805 1.341951 -0.77937 1.06066 -1.06066 
C 0.77937 -1.341951 0.397805 -1.5 0 -1.5 
C -0.397805 -1.5 -0.77937 -1.341951 -1.06066 -1.06066 
C -1.341951 -0.77937 -1.5 -0.397805 -1.5 0 
C -1.5 0.397805 -1.341951 0.77937 -1.06066 1.06066 
C -0.77937 1.341951 -0.397805 1.5 0 1.5 
z
" style="stroke: #0000ff"/>
    </defs>
    <g clip-path="url(#pdec4af455a)">
     <use xlink:href="#m7cfc3c83c9" x="240.429775" y="203.727025" style="fill: #0000ff; stroke: #0000ff"/>
     <use xlink:href="#m7cfc3c83c9" x="257.599457" y="221.87521" style="fill: #0000ff; stroke: #0000ff"/>
     <use xlink:href="#m7cfc3c83c9" x="269.15458" y="184.237821" style="fill: #0000ff; stroke: #0000ff"/>
     <use xlink:href="#m7cfc3c83c9" x="313.665682" y="195.104216" style="fill: #0000ff; stroke: #0000ff"/>
     <use xlink:href="#m7cfc3c83c9" x="238.888774" y="194.872981" style="fill: #0000ff; stroke: #0000ff"/>
     <use xlink:href="#m7cfc3c83c9" x="293.668342" y="220.194457" style="fill: #0000ff; stroke: #0000ff"/>
     <use xlink:href="#m7cfc3c83c9" x="370.232045" y="147.298199" style="fill: #0000ff; stroke: #0000ff"/>
     <use xlink:href="#m7cfc3c83c9" x="221.583454" y="204.819631" style="fill: #0000ff; stroke: #0000ff"/>
     <use xlink:href="#m7cfc3c83c9" x="251.79127" y="202.011475" style="fill: #0000ff; stroke: #0000ff"/>
     <use xlink:href="#m7cfc3c83c9" x="229.19992" y="217.021629" style="fill: #0000ff; stroke: #0000ff"/>
     <use xlink:href="#m7cfc3c83c9" x="269.285186" y="196.347702" style="fill: #0000ff; stroke: #0000ff"/>
     <use xlink:href="#m7cfc3c83c9" x="274.320669" y="217.15839" style="fill: #0000ff; stroke: #0000ff"/>
     <use xlink:href="#m7cfc3c83c9" x="274.989515" y="225.515791" style="fill: #0000ff; stroke: #0000ff"/>
     <use xlink:href="#m7cfc3c83c9" x="277.041096" y="217.601558" style="fill: #0000ff; stroke: #0000ff"/>
     <use xlink:href="#m7cfc3c83c9" x="212.242121" y="228.832428" style="fill: #0000ff; stroke: #0000ff"/>
    </g>
   </g>
   <g id="PathCollection_8">
    <defs>
     <path id="m3dd4995035" d="M 0 1.5 
C 0.397805 1.5 0.77937 1.341951 1.06066 1.06066 
C 1.341951 0.77937 1.5 0.397805 1.5 0 
C 1.5 -0.397805 1.341951 -0.77937 1.06066 -1.06066 
C 0.77937 -1.341951 0.397805 -1.5 0 -1.5 
C -0.397805 -1.5 -0.77937 -1.341951 -1.06066 -1.06066 
C -1.341951 -0.77937 -1.5 -0.397805 -1.5 0 
C -1.5 0.397805 -1.341951 0.77937 -1.06066 1.06066 
C -0.77937 1.341951 -0.397805 1.5 0 1.5 
z
" style="stroke: #dc143c"/>
    </defs>
    <g clip-path="url(#pdec4af455a)">
     <use xlink:href="#m3dd4995035" x="321.169297" y="193.249248" style="fill: #dc143c; stroke: #dc143c"/>
     <use xlink:href="#m3dd4995035" x="218.699653" y="225.381935" style="fill: #dc143c; stroke: #dc143c"/>
     <use xlink:href="#m3dd4995035" x="371.932746" y="165.401072" style="fill: #dc143c; stroke: #dc143c"/>
     <use xlink:href="#m3dd4995035" x="236.888049" y="179.870599" style="fill: #dc143c; stroke: #dc143c"/>
     <use xlink:href="#m3dd4995035" x="242.391456" y="132.437923" style="fill: #dc143c; stroke: #dc143c"/>
     <use xlink:href="#m3dd4995035" x="330.224768" y="173.427614" style="fill: #dc143c; stroke: #dc143c"/>
     <use xlink:href="#m3dd4995035" x="313.812682" y="205.542582" style="fill: #dc143c; stroke: #dc143c"/>
     <use xlink:href="#m3dd4995035" x="311.521276" y="181.899569" style="fill: #dc143c; stroke: #dc143c"/>
     <use xlink:href="#m3dd4995035" x="186.968868" y="180.77433" style="fill: #dc143c; stroke: #dc143c"/>
     <use xlink:href="#m3dd4995035" x="266.151001" y="144.512084" style="fill: #dc143c; stroke: #dc143c"/>
     <use xlink:href="#m3dd4995035" x="233.011694" y="154.446766" style="fill: #dc143c; stroke: #dc143c"/>
     <use xlink:href="#m3dd4995035" x="279.428726" y="183.764064" style="fill: #dc143c; stroke: #dc143c"/>
     <use xlink:href="#m3dd4995035" x="309.689653" y="186.55072" style="fill: #dc143c; stroke: #dc143c"/>
     <use xlink:href="#m3dd4995035" x="282.082669" y="184.208733" style="fill: #dc143c; stroke: #dc143c"/>
     <use xlink:href="#m3dd4995035" x="292.340065" y="217.534642" style="fill: #dc143c; stroke: #dc143c"/>
     <use xlink:href="#m3dd4995035" x="257.273628" y="164.601741" style="fill: #dc143c; stroke: #dc143c"/>
     <use xlink:href="#m3dd4995035" x="295.096511" y="160.663954" style="fill: #dc143c; stroke: #dc143c"/>
     <use xlink:href="#m3dd4995035" x="278.3736" y="219.745127" style="fill: #dc143c; stroke: #dc143c"/>
     <use xlink:href="#m3dd4995035" x="316.976889" y="166.260254" style="fill: #dc143c; stroke: #dc143c"/>
     <use xlink:href="#m3dd4995035" x="291.192888" y="205.115679" style="fill: #dc143c; stroke: #dc143c"/>
    </g>
   </g>
   <g id="PathCollection_9">
    <defs>
     <path id="md15dd384d1" d="M 0 1.5 
C 0.397805 1.5 0.77937 1.341951 1.06066 1.06066 
C 1.341951 0.77937 1.5 0.397805 1.5 0 
C 1.5 -0.397805 1.341951 -0.77937 1.06066 -1.06066 
C 0.77937 -1.341951 0.397805 -1.5 0 -1.5 
C -0.397805 -1.5 -0.77937 -1.341951 -1.06066 -1.06066 
C -1.341951 -0.77937 -1.5 -0.397805 -1.5 0 
C -1.5 0.397805 -1.341951 0.77937 -1.06066 1.06066 
C -0.77937 1.341951 -0.397805 1.5 0 1.5 
z
" style="stroke: #ffe4c4"/>
    </defs>
    <g clip-path="url(#pdec4af455a)">
     <use xlink:href="#md15dd384d1" x="226.487785" y="146.558536" style="fill: #ffe4c4; stroke: #ffe4c4"/>
     <use xlink:href="#md15dd384d1" x="199.57007" y="76.565365" style="fill: #ffe4c4; stroke: #ffe4c4"/>
     <use xlink:href="#md15dd384d1" x="228.037547" y="158.64686" style="fill: #ffe4c4; stroke: #ffe4c4"/>
     <use xlink:href="#md15dd384d1" x="188.029082" y="174.163169" style="fill: #ffe4c4; stroke: #ffe4c4"/>
     <use xlink:href="#md15dd384d1" x="270.29179" y="156.961856" style="fill: #ffe4c4; stroke: #ffe4c4"/>
     <use xlink:href="#md15dd384d1" x="168.810652" y="73.275867" style="fill: #ffe4c4; stroke: #ffe4c4"/>
     <use xlink:href="#md15dd384d1" x="192.426766" y="179.008667" style="fill: #ffe4c4; stroke: #ffe4c4"/>
     <use xlink:href="#md15dd384d1" x="326.555761" y="143.585652" style="fill: #ffe4c4; stroke: #ffe4c4"/>
     <use xlink:href="#md15dd384d1" x="224.939684" y="152.764599" style="fill: #ffe4c4; stroke: #ffe4c4"/>
     <use xlink:href="#md15dd384d1" x="306.993486" y="134.734939" style="fill: #ffe4c4; stroke: #ffe4c4"/>
     <use xlink:href="#md15dd384d1" x="277.879306" y="211.835747" style="fill: #ffe4c4; stroke: #ffe4c4"/>
     <use xlink:href="#md15dd384d1" x="244.611866" y="84.979668" style="fill: #ffe4c4; stroke: #ffe4c4"/>
    </g>
   </g>
   <g id="PathCollection_10">
    <defs>
     <path id="mb2702e8895" d="M -2.99994 2.99994 
L 3.00006 2.99994 
L 3.00006 -3.00006 
L -2.99994 -3.00006 
z
" style="stroke: #000000"/>
    </defs>
    <g clip-path="url(#pdec4af455a)">
     <use xlink:href="#mb2702e8895" x="181.241496" y="201.202728" style="stroke: #000000"/>
     <use xlink:href="#mb2702e8895" x="204.547177" y="150.420312" style="stroke: #000000"/>
     <use xlink:href="#mb2702e8895" x="119.231" y="137.347916" style="stroke: #000000"/>
     <use xlink:href="#mb2702e8895" x="113.29966" y="195.691186" style="stroke: #000000"/>
     <use xlink:href="#mb2702e8895" x="204.821934" y="227.297436" style="stroke: #000000"/>
     <use xlink:href="#mb2702e8895" x="165.092749" y="138.418599" style="stroke: #000000"/>
     <use xlink:href="#mb2702e8895" x="184.099112" y="202.575689" style="stroke: #000000"/>
     <use xlink:href="#mb2702e8895" x="104.335008" y="216.2388" style="stroke: #000000"/>
     <use xlink:href="#mb2702e8895" x="148.534949" y="194.236448" style="stroke: #000000"/>
     <use xlink:href="#mb2702e8895" x="91.978135" y="174.810296" style="stroke: #000000"/>
     <use xlink:href="#mb2702e8895" x="123.925306" y="154.642532" style="stroke: #000000"/>
     <use xlink:href="#mb2702e8895" x="166.683763" y="163.737433" style="stroke: #000000"/>
     <use xlink:href="#mb2702e8895" x="121.4294" y="222.981749" style="stroke: #000000"/>
     <use xlink:href="#mb2702e8895" x="171.878525" y="198.231029" style="stroke: #000000"/>
     <use xlink:href="#mb2702e8895" x="144.95448" y="186.174546" style="stroke: #000000"/>
     <use xlink:href="#mb2702e8895" x="155.694883" y="159.764324" style="stroke: #000000"/>
     <use xlink:href="#mb2702e8895" x="238.776292" y="215.698871" style="stroke: #000000"/>
     <use xlink:href="#mb2702e8895" x="91.978135" y="174.810296" style="stroke: #000000"/>
     <use xlink:href="#mb2702e8895" x="208.173621" y="248.196561" style="stroke: #000000"/>
     <use xlink:href="#mb2702e8895" x="58.474504" y="210.71929" style="stroke: #000000"/>
     <use xlink:href="#mb2702e8895" x="238.322548" y="210.069105" style="stroke: #000000"/>
     <use xlink:href="#mb2702e8895" x="162.302015" y="171.525901" style="stroke: #000000"/>
     <use xlink:href="#mb2702e8895" x="123.563281" y="194.087261" style="stroke: #000000"/>
     <use xlink:href="#mb2702e8895" x="128.492142" y="209.09962" style="stroke: #000000"/>
     <use xlink:href="#mb2702e8895" x="204.821934" y="227.297436" style="stroke: #000000"/>
     <use xlink:href="#mb2702e8895" x="152.501401" y="216.631" style="stroke: #000000"/>
     <use xlink:href="#mb2702e8895" x="175.216897" y="220.304652" style="stroke: #000000"/>
     <use xlink:href="#mb2702e8895" x="53.557877" y="189.764637" style="stroke: #000000"/>
     <use xlink:href="#mb2702e8895" x="94.587123" y="215.112329" style="stroke: #000000"/>
     <use xlink:href="#mb2702e8895" x="167.503166" y="224.832626" style="stroke: #000000"/>
     <use xlink:href="#mb2702e8895" x="181.041636" y="222.642481" style="stroke: #000000"/>
     <use xlink:href="#mb2702e8895" x="125.189684" y="212.98039" style="stroke: #000000"/>
     <use xlink:href="#mb2702e8895" x="147.999407" y="200.859406" style="stroke: #000000"/>
     <use xlink:href="#mb2702e8895" x="82.430321" y="189.926077" style="stroke: #000000"/>
     <use xlink:href="#mb2702e8895" x="157.289481" y="178.426479" style="stroke: #000000"/>
     <use xlink:href="#mb2702e8895" x="198.478441" y="228.15334" style="stroke: #000000"/>
     <use xlink:href="#mb2702e8895" x="96.964348" y="183.536367" style="stroke: #000000"/>
     <use xlink:href="#mb2702e8895" x="227.993678" y="229.198265" style="stroke: #000000"/>
     <use xlink:href="#mb2702e8895" x="160.484824" y="193.403259" style="stroke: #000000"/>
     <use xlink:href="#mb2702e8895" x="83.63129" y="164.464065" style="stroke: #000000"/>
     <use xlink:href="#mb2702e8895" x="124.181384" y="174.721048" style="stroke: #000000"/>
     <use xlink:href="#mb2702e8895" x="226.0479" y="223.516644" style="stroke: #000000"/>
     <use xlink:href="#mb2702e8895" x="145.865729" y="201.832003" style="stroke: #000000"/>
     <use xlink:href="#mb2702e8895" x="179.348567" y="212.38211" style="stroke: #000000"/>
     <use xlink:href="#mb2702e8895" x="143.946449" y="215.904318" style="stroke: #000000"/>
     <use xlink:href="#mb2702e8895" x="129.632912" y="163.729939" style="stroke: #000000"/>
     <use xlink:href="#mb2702e8895" x="84.190837" y="180.933774" style="stroke: #000000"/>
     <use xlink:href="#mb2702e8895" x="177.585549" y="175.716269" style="stroke: #000000"/>
     <use xlink:href="#mb2702e8895" x="179.250692" y="215.992528" style="stroke: #000000"/>
     <use xlink:href="#mb2702e8895" x="111.24927" y="176.91844" style="stroke: #000000"/>
     <use xlink:href="#mb2702e8895" x="194.151893" y="223.671437" style="stroke: #000000"/>
     <use xlink:href="#mb2702e8895" x="214.725833" y="195.629755" style="stroke: #000000"/>
     <use xlink:href="#mb2702e8895" x="96.421976" y="217.163923" style="stroke: #000000"/>
     <use xlink:href="#mb2702e8895" x="105.922142" y="172.515422" style="stroke: #000000"/>
     <use xlink:href="#mb2702e8895" x="51.537415" y="177.468572" style="stroke: #000000"/>
     <use xlink:href="#mb2702e8895" x="240.189422" y="213.833909" style="stroke: #000000"/>
     <use xlink:href="#mb2702e8895" x="109.582656" y="207.55777" style="stroke: #000000"/>
     <use xlink:href="#mb2702e8895" x="178.946001" y="208.45702" style="stroke: #000000"/>
     <use xlink:href="#mb2702e8895" x="195.266896" y="237.992267" style="stroke: #000000"/>
     <use xlink:href="#mb2702e8895" x="177.043244" y="208.203638" style="stroke: #000000"/>
     <use xlink:href="#mb2702e8895" x="195.735295" y="240.42905" style="stroke: #000000"/>
     <use xlink:href="#mb2702e8895" x="100.859088" y="168.786373" style="stroke: #000000"/>
     <use xlink:href="#mb2702e8895" x="149.99995" y="213.420675" style="stroke: #000000"/>
     <use xlink:href="#mb2702e8895" x="175.152169" y="206.413765" style="stroke: #000000"/>
    </g>
   </g>
   <g id="PathCollection_11">
    <defs>
     <path id="m41369d5d6d" d="M -3 -0 
L 3 3 
L 3 -3 
z
" style="stroke: #ff8c00"/>
    </defs>
    <g clip-path="url(#pdec4af455a)">
     <use xlink:href="#m41369d5d6d" x="171.986653" y="188.302248" style="fill: #ff8c00; stroke: #ff8c00"/>
     <use xlink:href="#m41369d5d6d" x="208.444004" y="201.185205" style="fill: #ff8c00; stroke: #ff8c00"/>
     <use xlink:href="#m41369d5d6d" x="176.931821" y="187.522417" style="fill: #ff8c00; stroke: #ff8c00"/>
     <use xlink:href="#m41369d5d6d" x="190.197295" y="203.229358" style="fill: #ff8c00; stroke: #ff8c00"/>
     <use xlink:href="#m41369d5d6d" x="140.029266" y="222.917745" style="fill: #ff8c00; stroke: #ff8c00"/>
     <use xlink:href="#m41369d5d6d" x="147.572028" y="229.735972" style="fill: #ff8c00; stroke: #ff8c00"/>
     <use xlink:href="#m41369d5d6d" x="81.813975" y="201.545405" style="fill: #ff8c00; stroke: #ff8c00"/>
     <use xlink:href="#m41369d5d6d" x="186.894631" y="233.96687" style="fill: #ff8c00; stroke: #ff8c00"/>
     <use xlink:href="#m41369d5d6d" x="145.715868" y="239.898437" style="fill: #ff8c00; stroke: #ff8c00"/>
     <use xlink:href="#m41369d5d6d" x="220.562527" y="195.515011" style="fill: #ff8c00; stroke: #ff8c00"/>
     <use xlink:href="#m41369d5d6d" x="100.268099" y="216.433143" style="fill: #ff8c00; stroke: #ff8c00"/>
     <use xlink:href="#m41369d5d6d" x="216.063412" y="138.028315" style="fill: #ff8c00; stroke: #ff8c00"/>
     <use xlink:href="#m41369d5d6d" x="223.86639" y="213.515946" style="fill: #ff8c00; stroke: #ff8c00"/>
     <use xlink:href="#m41369d5d6d" x="188.902869" y="218.03612" style="fill: #ff8c00; stroke: #ff8c00"/>
     <use xlink:href="#m41369d5d6d" x="186.32438" y="218.169373" style="fill: #ff8c00; stroke: #ff8c00"/>
     <use xlink:href="#m41369d5d6d" x="255.495282" y="218.588685" style="fill: #ff8c00; stroke: #ff8c00"/>
     <use xlink:href="#m41369d5d6d" x="176.85963" y="216.244578" style="fill: #ff8c00; stroke: #ff8c00"/>
     <use xlink:href="#m41369d5d6d" x="130.575388" y="216.298767" style="fill: #ff8c00; stroke: #ff8c00"/>
     <use xlink:href="#m41369d5d6d" x="139.255098" y="215.89317" style="fill: #ff8c00; stroke: #ff8c00"/>
     <use xlink:href="#m41369d5d6d" x="211.395848" y="204.974886" style="fill: #ff8c00; stroke: #ff8c00"/>
     <use xlink:href="#m41369d5d6d" x="174.20215" y="187.598213" style="fill: #ff8c00; stroke: #ff8c00"/>
     <use xlink:href="#m41369d5d6d" x="199.241349" y="205.392633" style="fill: #ff8c00; stroke: #ff8c00"/>
     <use xlink:href="#m41369d5d6d" x="104.613247" y="206.560344" style="fill: #ff8c00; stroke: #ff8c00"/>
     <use xlink:href="#m41369d5d6d" x="128.063686" y="173.911551" style="fill: #ff8c00; stroke: #ff8c00"/>
     <use xlink:href="#m41369d5d6d" x="138.666505" y="216.651281" style="fill: #ff8c00; stroke: #ff8c00"/>
     <use xlink:href="#m41369d5d6d" x="266.617985" y="199.756014" style="fill: #ff8c00; stroke: #ff8c00"/>
     <use xlink:href="#m41369d5d6d" x="212.681288" y="185.278566" style="fill: #ff8c00; stroke: #ff8c00"/>
     <use xlink:href="#m41369d5d6d" x="203.474236" y="211.166973" style="fill: #ff8c00; stroke: #ff8c00"/>
     <use xlink:href="#m41369d5d6d" x="185.677564" y="234.893524" style="fill: #ff8c00; stroke: #ff8c00"/>
     <use xlink:href="#m41369d5d6d" x="192.103727" y="210.267359" style="fill: #ff8c00; stroke: #ff8c00"/>
     <use xlink:href="#m41369d5d6d" x="227.420024" y="209.570727" style="fill: #ff8c00; stroke: #ff8c00"/>
     <use xlink:href="#m41369d5d6d" x="133.563239" y="224.308881" style="fill: #ff8c00; stroke: #ff8c00"/>
     <use xlink:href="#m41369d5d6d" x="170.169947" y="209.110344" style="fill: #ff8c00; stroke: #ff8c00"/>
     <use xlink:href="#m41369d5d6d" x="186.79498" y="226.034322" style="fill: #ff8c00; stroke: #ff8c00"/>
     <use xlink:href="#m41369d5d6d" x="244.274075" y="228.437794" style="fill: #ff8c00; stroke: #ff8c00"/>
     <use xlink:href="#m41369d5d6d" x="162.651984" y="205.617453" style="fill: #ff8c00; stroke: #ff8c00"/>
     <use xlink:href="#m41369d5d6d" x="194.323723" y="214.555481" style="fill: #ff8c00; stroke: #ff8c00"/>
     <use xlink:href="#m41369d5d6d" x="132.504957" y="203.74685" style="fill: #ff8c00; stroke: #ff8c00"/>
     <use xlink:href="#m41369d5d6d" x="184.581933" y="208.186753" style="fill: #ff8c00; stroke: #ff8c00"/>
     <use xlink:href="#m41369d5d6d" x="204.861016" y="172.81145" style="fill: #ff8c00; stroke: #ff8c00"/>
     <use xlink:href="#m41369d5d6d" x="77.520021" y="202.11658" style="fill: #ff8c00; stroke: #ff8c00"/>
     <use xlink:href="#m41369d5d6d" x="166.388121" y="194.208438" style="fill: #ff8c00; stroke: #ff8c00"/>
     <use xlink:href="#m41369d5d6d" x="181.374135" y="156.084881" style="fill: #ff8c00; stroke: #ff8c00"/>
     <use xlink:href="#m41369d5d6d" x="164.423954" y="226.000238" style="fill: #ff8c00; stroke: #ff8c00"/>
     <use xlink:href="#m41369d5d6d" x="150.956154" y="224.002002" style="fill: #ff8c00; stroke: #ff8c00"/>
     <use xlink:href="#m41369d5d6d" x="217.317565" y="202.160971" style="fill: #ff8c00; stroke: #ff8c00"/>
     <use xlink:href="#m41369d5d6d" x="102.089856" y="193.712528" style="fill: #ff8c00; stroke: #ff8c00"/>
     <use xlink:href="#m41369d5d6d" x="144.212325" y="230.736955" style="fill: #ff8c00; stroke: #ff8c00"/>
     <use xlink:href="#m41369d5d6d" x="142.468251" y="192.924209" style="fill: #ff8c00; stroke: #ff8c00"/>
     <use xlink:href="#m41369d5d6d" x="157.857393" y="188.023209" style="fill: #ff8c00; stroke: #ff8c00"/>
     <use xlink:href="#m41369d5d6d" x="192.425663" y="154.980774" style="fill: #ff8c00; stroke: #ff8c00"/>
     <use xlink:href="#m41369d5d6d" x="170.740238" y="204.489468" style="fill: #ff8c00; stroke: #ff8c00"/>
     <use xlink:href="#m41369d5d6d" x="102.249488" y="185.806896" style="fill: #ff8c00; stroke: #ff8c00"/>
     <use xlink:href="#m41369d5d6d" x="142.787744" y="189.130502" style="fill: #ff8c00; stroke: #ff8c00"/>
     <use xlink:href="#m41369d5d6d" x="169.172277" y="205.557018" style="fill: #ff8c00; stroke: #ff8c00"/>
     <use xlink:href="#m41369d5d6d" x="163.346676" y="194.591462" style="fill: #ff8c00; stroke: #ff8c00"/>
     <use xlink:href="#m41369d5d6d" x="171.420868" y="224.960821" style="fill: #ff8c00; stroke: #ff8c00"/>
     <use xlink:href="#m41369d5d6d" x="263.483601" y="209.7941" style="fill: #ff8c00; stroke: #ff8c00"/>
     <use xlink:href="#m41369d5d6d" x="138.053604" y="218.305039" style="fill: #ff8c00; stroke: #ff8c00"/>
     <use xlink:href="#m41369d5d6d" x="180.101577" y="207.652694" style="fill: #ff8c00; stroke: #ff8c00"/>
     <use xlink:href="#m41369d5d6d" x="91.870054" y="204.539733" style="fill: #ff8c00; stroke: #ff8c00"/>
     <use xlink:href="#m41369d5d6d" x="184.557583" y="218.604797" style="fill: #ff8c00; stroke: #ff8c00"/>
     <use xlink:href="#m41369d5d6d" x="219.639689" y="187.042694" style="fill: #ff8c00; stroke: #ff8c00"/>
     <use xlink:href="#m41369d5d6d" x="141.724562" y="230.258859" style="fill: #ff8c00; stroke: #ff8c00"/>
    </g>
   </g>
   <g id="matplotlib.axis_1">
    <g id="xtick_1">
     <g id="line2d_1">
      <defs>
       <path id="m5b3c94e644" d="M 0 0 
L 0 3.5 
" style="stroke: #000000; stroke-width: 0.8"/>
      </defs>
      <g>
       <use xlink:href="#m5b3c94e644" x="69.025631" y="273.312" style="stroke: #000000; stroke-width: 0.8"/>
      </g>
     </g>
     <g id="text_1">
      <!-- −20 -->
      <g transform="translate(58.473287 287.910437) scale(0.1 -0.1)">
       <defs>
        <path id="DejaVuSans-2212" d="M 678 2272 
L 4684 2272 
L 4684 1741 
L 678 1741 
L 678 2272 
z
" transform="scale(0.015625)"/>
        <path id="DejaVuSans-32" d="M 1228 531 
L 3431 531 
L 3431 0 
L 469 0 
L 469 531 
Q 828 903 1448 1529 
Q 2069 2156 2228 2338 
Q 2531 2678 2651 2914 
Q 2772 3150 2772 3378 
Q 2772 3750 2511 3984 
Q 2250 4219 1831 4219 
Q 1534 4219 1204 4116 
Q 875 4013 500 3803 
L 500 4441 
Q 881 4594 1212 4672 
Q 1544 4750 1819 4750 
Q 2544 4750 2975 4387 
Q 3406 4025 3406 3419 
Q 3406 3131 3298 2873 
Q 3191 2616 2906 2266 
Q 2828 2175 2409 1742 
Q 1991 1309 1228 531 
z
" transform="scale(0.015625)"/>
        <path id="DejaVuSans-30" d="M 2034 4250 
Q 1547 4250 1301 3770 
Q 1056 3291 1056 2328 
Q 1056 1369 1301 889 
Q 1547 409 2034 409 
Q 2525 409 2770 889 
Q 3016 1369 3016 2328 
Q 3016 3291 2770 3770 
Q 2525 4250 2034 4250 
z
M 2034 4750 
Q 2819 4750 3233 4129 
Q 3647 3509 3647 2328 
Q 3647 1150 3233 529 
Q 2819 -91 2034 -91 
Q 1250 -91 836 529 
Q 422 1150 422 2328 
Q 422 3509 836 4129 
Q 1250 4750 2034 4750 
z
" transform="scale(0.015625)"/>
       </defs>
       <use xlink:href="#DejaVuSans-2212"/>
       <use xlink:href="#DejaVuSans-32" x="83.789062"/>
       <use xlink:href="#DejaVuSans-30" x="147.412109"/>
      </g>
     </g>
    </g>
    <g id="xtick_2">
     <g id="line2d_2">
      <g>
       <use xlink:href="#m5b3c94e644" x="139.593225" y="273.312" style="stroke: #000000; stroke-width: 0.8"/>
      </g>
     </g>
     <g id="text_2">
      <!-- −10 -->
      <g transform="translate(129.040882 287.910437) scale(0.1 -0.1)">
       <defs>
        <path id="DejaVuSans-31" d="M 794 531 
L 1825 531 
L 1825 4091 
L 703 3866 
L 703 4441 
L 1819 4666 
L 2450 4666 
L 2450 531 
L 3481 531 
L 3481 0 
L 794 0 
L 794 531 
z
" transform="scale(0.015625)"/>
       </defs>
       <use xlink:href="#DejaVuSans-2212"/>
       <use xlink:href="#DejaVuSans-31" x="83.789062"/>
       <use xlink:href="#DejaVuSans-30" x="147.412109"/>
      </g>
     </g>
    </g>
    <g id="xtick_3">
     <g id="line2d_3">
      <g>
       <use xlink:href="#m5b3c94e644" x="210.16082" y="273.312" style="stroke: #000000; stroke-width: 0.8"/>
      </g>
     </g>
     <g id="text_3">
      <!-- 0 -->
      <g transform="translate(206.97957 287.910437) scale(0.1 -0.1)">
       <use xlink:href="#DejaVuSans-30"/>
      </g>
     </g>
    </g>
    <g id="xtick_4">
     <g id="line2d_4">
      <g>
       <use xlink:href="#m5b3c94e644" x="280.728415" y="273.312" style="stroke: #000000; stroke-width: 0.8"/>
      </g>
     </g>
     <g id="text_4">
      <!-- 10 -->
      <g transform="translate(274.365915 287.910437) scale(0.1 -0.1)">
       <use xlink:href="#DejaVuSans-31"/>
       <use xlink:href="#DejaVuSans-30" x="63.623047"/>
      </g>
     </g>
    </g>
    <g id="xtick_5">
     <g id="line2d_5">
      <g>
       <use xlink:href="#m5b3c94e644" x="351.29601" y="273.312" style="stroke: #000000; stroke-width: 0.8"/>
      </g>
     </g>
     <g id="text_5">
      <!-- 20 -->
      <g transform="translate(344.93351 287.910437) scale(0.1 -0.1)">
       <use xlink:href="#DejaVuSans-32"/>
       <use xlink:href="#DejaVuSans-30" x="63.623047"/>
      </g>
     </g>
    </g>
   </g>
   <g id="matplotlib.axis_2">
    <g id="ytick_1">
     <g id="line2d_6">
      <defs>
       <path id="m3e76370687" d="M 0 0 
L -3.5 0 
" style="stroke: #000000; stroke-width: 0.8"/>
      </defs>
      <g>
       <use xlink:href="#m3e76370687" x="35.304688" y="238.084657" style="stroke: #000000; stroke-width: 0.8"/>
      </g>
     </g>
     <g id="text_6">
      <!-- −10 -->
      <g transform="translate(7.2 241.883876) scale(0.1 -0.1)">
       <use xlink:href="#DejaVuSans-2212"/>
       <use xlink:href="#DejaVuSans-31" x="83.789062"/>
       <use xlink:href="#DejaVuSans-30" x="147.412109"/>
      </g>
     </g>
    </g>
    <g id="ytick_2">
     <g id="line2d_7">
      <g>
       <use xlink:href="#m3e76370687" x="35.304688" y="194.083353" style="stroke: #000000; stroke-width: 0.8"/>
      </g>
     </g>
     <g id="text_7">
      <!-- 0 -->
      <g transform="translate(21.942187 197.882572) scale(0.1 -0.1)">
       <use xlink:href="#DejaVuSans-30"/>
      </g>
     </g>
    </g>
    <g id="ytick_3">
     <g id="line2d_8">
      <g>
       <use xlink:href="#m3e76370687" x="35.304688" y="150.082048" style="stroke: #000000; stroke-width: 0.8"/>
      </g>
     </g>
     <g id="text_8">
      <!-- 10 -->
      <g transform="translate(15.579687 153.881267) scale(0.1 -0.1)">
       <use xlink:href="#DejaVuSans-31"/>
       <use xlink:href="#DejaVuSans-30" x="63.623047"/>
      </g>
     </g>
    </g>
    <g id="ytick_4">
     <g id="line2d_9">
      <g>
       <use xlink:href="#m3e76370687" x="35.304688" y="106.080744" style="stroke: #000000; stroke-width: 0.8"/>
      </g>
     </g>
     <g id="text_9">
      <!-- 20 -->
      <g transform="translate(15.579687 109.879963) scale(0.1 -0.1)">
       <use xlink:href="#DejaVuSans-32"/>
       <use xlink:href="#DejaVuSans-30" x="63.623047"/>
      </g>
     </g>
    </g>
    <g id="ytick_5">
     <g id="line2d_10">
      <g>
       <use xlink:href="#m3e76370687" x="35.304688" y="62.07944" style="stroke: #000000; stroke-width: 0.8"/>
      </g>
     </g>
     <g id="text_10">
      <!-- 30 -->
      <g transform="translate(15.579687 65.878659) scale(0.1 -0.1)">
       <defs>
        <path id="DejaVuSans-33" d="M 2597 2516 
Q 3050 2419 3304 2112 
Q 3559 1806 3559 1356 
Q 3559 666 3084 287 
Q 2609 -91 1734 -91 
Q 1441 -91 1130 -33 
Q 819 25 488 141 
L 488 750 
Q 750 597 1062 519 
Q 1375 441 1716 441 
Q 2309 441 2620 675 
Q 2931 909 2931 1356 
Q 2931 1769 2642 2001 
Q 2353 2234 1838 2234 
L 1294 2234 
L 1294 2753 
L 1863 2753 
Q 2328 2753 2575 2939 
Q 2822 3125 2822 3475 
Q 2822 3834 2567 4026 
Q 2313 4219 1838 4219 
Q 1578 4219 1281 4162 
Q 984 4106 628 3988 
L 628 4550 
Q 988 4650 1302 4700 
Q 1616 4750 1894 4750 
Q 2613 4750 3031 4423 
Q 3450 4097 3450 3541 
Q 3450 3153 3228 2886 
Q 3006 2619 2597 2516 
z
" transform="scale(0.015625)"/>
       </defs>
       <use xlink:href="#DejaVuSans-33"/>
       <use xlink:href="#DejaVuSans-30" x="63.623047"/>
      </g>
     </g>
    </g>
    <g id="ytick_6">
     <g id="line2d_11">
      <g>
       <use xlink:href="#m3e76370687" x="35.304688" y="18.078136" style="stroke: #000000; stroke-width: 0.8"/>
      </g>
     </g>
     <g id="text_11">
      <!-- 40 -->
      <g transform="translate(15.579687 21.877354) scale(0.1 -0.1)">
       <defs>
        <path id="DejaVuSans-34" d="M 2419 4116 
L 825 1625 
L 2419 1625 
L 2419 4116 
z
M 2253 4666 
L 3047 4666 
L 3047 1625 
L 3713 1625 
L 3713 1100 
L 3047 1100 
L 3047 0 
L 2419 0 
L 2419 1100 
L 313 1100 
L 313 1709 
L 2253 4666 
z
" transform="scale(0.015625)"/>
       </defs>
       <use xlink:href="#DejaVuSans-34"/>
       <use xlink:href="#DejaVuSans-30" x="63.623047"/>
      </g>
     </g>
    </g>
   </g>
   <g id="patch_3">
    <path d="M 35.304688 273.312 
L 35.304688 7.2 
" style="fill: none; stroke: #000000; stroke-width: 0.8; stroke-linejoin: miter; stroke-linecap: square"/>
   </g>
   <g id="patch_4">
    <path d="M 392.424688 273.312 
L 392.424688 7.2 
" style="fill: none; stroke: #000000; stroke-width: 0.8; stroke-linejoin: miter; stroke-linecap: square"/>
   </g>
   <g id="patch_5">
    <path d="M 35.304688 273.312 
L 392.424688 273.312 
" style="fill: none; stroke: #000000; stroke-width: 0.8; stroke-linejoin: miter; stroke-linecap: square"/>
   </g>
   <g id="patch_6">
    <path d="M 35.304688 7.2 
L 392.424688 7.2 
" style="fill: none; stroke: #000000; stroke-width: 0.8; stroke-linejoin: miter; stroke-linecap: square"/>
   </g>
  </g>
 </g>
 <defs>
  <clipPath id="pdec4af455a">
   <rect x="35.304688" y="7.2" width="357.12" height="266.112"/>
  </clipPath>
 </defs>
</svg>
