<?xml version="1.0" encoding="utf-8" standalone="no"?>
<!DOCTYPE svg PUBLIC "-//W3C//DTD SVG 1.1//EN"
  "http://www.w3.org/Graphics/SVG/1.1/DTD/svg11.dtd">
<svg xmlns:xlink="http://www.w3.org/1999/xlink" width="399.624687pt" height="297.190125pt" viewBox="0 0 399.624687 297.190125" xmlns="http://www.w3.org/2000/svg" version="1.1">
 <metadata>
  <rdf:RDF xmlns:dc="http://purl.org/dc/elements/1.1/" xmlns:cc="http://creativecommons.org/ns#" xmlns:rdf="http://www.w3.org/1999/02/22-rdf-syntax-ns#">
   <cc:Work>
    <dc:type rdf:resource="http://purl.org/dc/dcmitype/StillImage"/>
    <dc:date>2023-11-13T16:34:03.082201</dc:date>
    <dc:format>image/svg+xml</dc:format>
    <dc:creator>
     <cc:Agent>
      <dc:title>Matplotlib v3.8.0, https://matplotlib.org/</dc:title>
     </cc:Agent>
    </dc:creator>
   </cc:Work>
  </rdf:RDF>
 </metadata>
 <defs>
  <style type="text/css">*{stroke-linejoin: round; stroke-linecap: butt}</style>
 </defs>
 <g id="figure_1">
  <g id="patch_1">
   <path d="M 0 297.190125 
L 399.624687 297.190125 
L 399.624687 0 
L 0 0 
z
" style="fill: #ffffff"/>
  </g>
  <g id="axes_1">
   <g id="patch_2">
    <path d="M 35.304688 273.312 
L 392.424688 273.312 
L 392.424688 7.2 
L 35.304688 7.2 
z
" style="fill: #ffffff"/>
   </g>
   <g id="PathCollection_1">
    <defs>
     <path id="mdaf89fb5a2" d="M 0 1.5 
C 0.397805 1.5 0.77937 1.341951 1.06066 1.06066 
C 1.341951 0.77937 1.5 0.397805 1.5 0 
C 1.5 -0.397805 1.341951 -0.77937 1.06066 -1.06066 
C 0.77937 -1.341951 0.397805 -1.5 0 -1.5 
C -0.397805 -1.5 -0.77937 -1.341951 -1.06066 -1.06066 
C -1.341951 -0.77937 -1.5 -0.397805 -1.5 0 
C -1.5 0.397805 -1.341951 0.77937 -1.06066 1.06066 
C -0.77937 1.341951 -0.397805 1.5 0 1.5 
z
" style="stroke: #ff8c00"/>
    </defs>
    <g clip-path="url(#paf68a1198f)">
     <use xlink:href="#mdaf89fb5a2" x="123.186608" y="198.600776" style="fill: #ff8c00; stroke: #ff8c00"/>
     <use xlink:href="#mdaf89fb5a2" x="129.378812" y="206.338355" style="fill: #ff8c00; stroke: #ff8c00"/>
     <use xlink:href="#mdaf89fb5a2" x="94.046077" y="188.44993" style="fill: #ff8c00; stroke: #ff8c00"/>
     <use xlink:href="#mdaf89fb5a2" x="137.675746" y="224.211404" style="fill: #ff8c00; stroke: #ff8c00"/>
     <use xlink:href="#mdaf89fb5a2" x="101.427956" y="184.558464" style="fill: #ff8c00; stroke: #ff8c00"/>
     <use xlink:href="#mdaf89fb5a2" x="158.232291" y="177.817703" style="fill: #ff8c00; stroke: #ff8c00"/>
     <use xlink:href="#mdaf89fb5a2" x="112.646193" y="220.48012" style="fill: #ff8c00; stroke: #ff8c00"/>
     <use xlink:href="#mdaf89fb5a2" x="108.039361" y="211.018046" style="fill: #ff8c00; stroke: #ff8c00"/>
     <use xlink:href="#mdaf89fb5a2" x="91.605662" y="148.182543" style="fill: #ff8c00; stroke: #ff8c00"/>
     <use xlink:href="#mdaf89fb5a2" x="118.526919" y="220.255066" style="fill: #ff8c00; stroke: #ff8c00"/>
     <use xlink:href="#mdaf89fb5a2" x="95.857981" y="230.32948" style="fill: #ff8c00; stroke: #ff8c00"/>
     <use xlink:href="#mdaf89fb5a2" x="206.39688" y="101.052469" style="fill: #ff8c00; stroke: #ff8c00"/>
     <use xlink:href="#mdaf89fb5a2" x="120.953194" y="198.207786" style="fill: #ff8c00; stroke: #ff8c00"/>
     <use xlink:href="#mdaf89fb5a2" x="64.740593" y="209.843054" style="fill: #ff8c00; stroke: #ff8c00"/>
     <use xlink:href="#mdaf89fb5a2" x="80.38779" y="123.86449" style="fill: #ff8c00; stroke: #ff8c00"/>
     <use xlink:href="#mdaf89fb5a2" x="85.785757" y="173.175114" style="fill: #ff8c00; stroke: #ff8c00"/>
    </g>
   </g>
   <g id="PathCollection_2">
    <defs>
     <path id="mbbfa181c58" d="M 0 1.5 
C 0.397805 1.5 0.77937 1.341951 1.06066 1.06066 
C 1.341951 0.77937 1.5 0.397805 1.5 0 
C 1.5 -0.397805 1.341951 -0.77937 1.06066 -1.06066 
C 0.77937 -1.341951 0.397805 -1.5 0 -1.5 
C -0.397805 -1.5 -0.77937 -1.341951 -1.06066 -1.06066 
C -1.341951 -0.77937 -1.5 -0.397805 -1.5 0 
C -1.5 0.397805 -1.341951 0.77937 -1.06066 1.06066 
C -0.77937 1.341951 -0.397805 1.5 0 1.5 
z
" style="stroke: #006400"/>
    </defs>
    <g clip-path="url(#paf68a1198f)">
     <use xlink:href="#mbbfa181c58" x="86.158091" y="106.388103" style="fill: #006400; stroke: #006400"/>
     <use xlink:href="#mbbfa181c58" x="66.307627" y="102.017352" style="fill: #006400; stroke: #006400"/>
     <use xlink:href="#mbbfa181c58" x="86.85494" y="141.491683" style="fill: #006400; stroke: #006400"/>
     <use xlink:href="#mbbfa181c58" x="65.948762" y="149.154464" style="fill: #006400; stroke: #006400"/>
     <use xlink:href="#mbbfa181c58" x="99.00645" y="135.857876" style="fill: #006400; stroke: #006400"/>
     <use xlink:href="#mbbfa181c58" x="73.107827" y="124.170646" style="fill: #006400; stroke: #006400"/>
     <use xlink:href="#mbbfa181c58" x="51.537415" y="181.7755" style="fill: #006400; stroke: #006400"/>
     <use xlink:href="#mbbfa181c58" x="78.091469" y="100.05745" style="fill: #006400; stroke: #006400"/>
     <use xlink:href="#mbbfa181c58" x="101.835033" y="150.138475" style="fill: #006400; stroke: #006400"/>
    </g>
   </g>
   <g id="PathCollection_3">
    <defs>
     <path id="m1bc352d72a" d="M 0 1.5 
C 0.397805 1.5 0.77937 1.341951 1.06066 1.06066 
C 1.341951 0.77937 1.5 0.397805 1.5 0 
C 1.5 -0.397805 1.341951 -0.77937 1.06066 -1.06066 
C 0.77937 -1.341951 0.397805 -1.5 0 -1.5 
C -0.397805 -1.5 -0.77937 -1.341951 -1.06066 -1.06066 
C -1.341951 -0.77937 -1.5 -0.397805 -1.5 0 
C -1.5 0.397805 -1.341951 0.77937 -1.06066 1.06066 
C -0.77937 1.341951 -0.397805 1.5 0 1.5 
z
" style="stroke: #2f4f4f"/>
    </defs>
    <g clip-path="url(#paf68a1198f)">
     <use xlink:href="#m1bc352d72a" x="90.76379" y="108.279415" style="fill: #2f4f4f; stroke: #2f4f4f"/>
     <use xlink:href="#m1bc352d72a" x="146.343654" y="116.311582" style="fill: #2f4f4f; stroke: #2f4f4f"/>
     <use xlink:href="#m1bc352d72a" x="97.733392" y="169.958389" style="fill: #2f4f4f; stroke: #2f4f4f"/>
     <use xlink:href="#m1bc352d72a" x="118.964898" y="139.553588" style="fill: #2f4f4f; stroke: #2f4f4f"/>
     <use xlink:href="#m1bc352d72a" x="81.847211" y="114.350415" style="fill: #2f4f4f; stroke: #2f4f4f"/>
     <use xlink:href="#m1bc352d72a" x="126.87175" y="138.207421" style="fill: #2f4f4f; stroke: #2f4f4f"/>
     <use xlink:href="#m1bc352d72a" x="116.510439" y="155.649948" style="fill: #2f4f4f; stroke: #2f4f4f"/>
     <use xlink:href="#m1bc352d72a" x="64.478536" y="133.932863" style="fill: #2f4f4f; stroke: #2f4f4f"/>
     <use xlink:href="#m1bc352d72a" x="70.103735" y="127.139317" style="fill: #2f4f4f; stroke: #2f4f4f"/>
     <use xlink:href="#m1bc352d72a" x="141.392922" y="146.206731" style="fill: #2f4f4f; stroke: #2f4f4f"/>
     <use xlink:href="#m1bc352d72a" x="94.073679" y="140.933999" style="fill: #2f4f4f; stroke: #2f4f4f"/>
     <use xlink:href="#m1bc352d72a" x="71.034821" y="195.454408" style="fill: #2f4f4f; stroke: #2f4f4f"/>
     <use xlink:href="#m1bc352d72a" x="83.672255" y="155.706243" style="fill: #2f4f4f; stroke: #2f4f4f"/>
     <use xlink:href="#m1bc352d72a" x="53.287842" y="115.545853" style="fill: #2f4f4f; stroke: #2f4f4f"/>
     <use xlink:href="#m1bc352d72a" x="114.369609" y="117.020401" style="fill: #2f4f4f; stroke: #2f4f4f"/>
     <use xlink:href="#m1bc352d72a" x="97.311737" y="91.50538" style="fill: #2f4f4f; stroke: #2f4f4f"/>
     <use xlink:href="#m1bc352d72a" x="82.575746" y="116.634011" style="fill: #2f4f4f; stroke: #2f4f4f"/>
    </g>
   </g>
   <g id="PathCollection_4">
    <defs>
     <path id="m769a768027" d="M 0 1.5 
C 0.397805 1.5 0.77937 1.341951 1.06066 1.06066 
C 1.341951 0.77937 1.5 0.397805 1.5 0 
C 1.5 -0.397805 1.341951 -0.77937 1.06066 -1.06066 
C 0.77937 -1.341951 0.397805 -1.5 0 -1.5 
C -0.397805 -1.5 -0.77937 -1.341951 -1.06066 -1.06066 
C -1.341951 -0.77937 -1.5 -0.397805 -1.5 0 
C -1.5 0.397805 -1.341951 0.77937 -1.06066 1.06066 
C -0.77937 1.341951 -0.397805 1.5 0 1.5 
z
" style="stroke: #00bfff"/>
    </defs>
    <g clip-path="url(#paf68a1198f)">
     <use xlink:href="#m769a768027" x="63.636423" y="135.404242" style="fill: #00bfff; stroke: #00bfff"/>
     <use xlink:href="#m769a768027" x="95.260511" y="209.038455" style="fill: #00bfff; stroke: #00bfff"/>
     <use xlink:href="#m769a768027" x="129.936888" y="124.892591" style="fill: #00bfff; stroke: #00bfff"/>
     <use xlink:href="#m769a768027" x="63.069054" y="137.798074" style="fill: #00bfff; stroke: #00bfff"/>
     <use xlink:href="#m769a768027" x="113.909981" y="173.718477" style="fill: #00bfff; stroke: #00bfff"/>
     <use xlink:href="#m769a768027" x="64.332186" y="141.298927" style="fill: #00bfff; stroke: #00bfff"/>
     <use xlink:href="#m769a768027" x="65.647394" y="105.870127" style="fill: #00bfff; stroke: #00bfff"/>
     <use xlink:href="#m769a768027" x="98.943242" y="112.109298" style="fill: #00bfff; stroke: #00bfff"/>
     <use xlink:href="#m769a768027" x="71.245744" y="168.678045" style="fill: #00bfff; stroke: #00bfff"/>
     <use xlink:href="#m769a768027" x="91.525228" y="118.614351" style="fill: #00bfff; stroke: #00bfff"/>
     <use xlink:href="#m769a768027" x="73.88828" y="114.87093" style="fill: #00bfff; stroke: #00bfff"/>
     <use xlink:href="#m769a768027" x="80.981826" y="133.976347" style="fill: #00bfff; stroke: #00bfff"/>
     <use xlink:href="#m769a768027" x="112.890536" y="101.255697" style="fill: #00bfff; stroke: #00bfff"/>
     <use xlink:href="#m769a768027" x="132.039622" y="101.716391" style="fill: #00bfff; stroke: #00bfff"/>
    </g>
   </g>
   <g id="PathCollection_5">
    <defs>
     <path id="m3d9f31876d" d="M 0 1.5 
C 0.397805 1.5 0.77937 1.341951 1.06066 1.06066 
C 1.341951 0.77937 1.5 0.397805 1.5 0 
C 1.5 -0.397805 1.341951 -0.77937 1.06066 -1.06066 
C 0.77937 -1.341951 0.397805 -1.5 0 -1.5 
C -0.397805 -1.5 -0.77937 -1.341951 -1.06066 -1.06066 
C -1.341951 -0.77937 -1.5 -0.397805 -1.5 0 
C -1.5 0.397805 -1.341951 0.77937 -1.06066 1.06066 
C -0.77937 1.341951 -0.397805 1.5 0 1.5 
z
" style="stroke: #ffff00"/>
    </defs>
    <g clip-path="url(#paf68a1198f)">
     <use xlink:href="#m3d9f31876d" x="110.331217" y="119.919175" style="fill: #ffff00; stroke: #ffff00"/>
     <use xlink:href="#m3d9f31876d" x="128.551888" y="136.226026" style="fill: #ffff00; stroke: #ffff00"/>
     <use xlink:href="#m3d9f31876d" x="139.189363" y="60.282562" style="fill: #ffff00; stroke: #ffff00"/>
     <use xlink:href="#m3d9f31876d" x="94.980056" y="75.862223" style="fill: #ffff00; stroke: #ffff00"/>
     <use xlink:href="#m3d9f31876d" x="125.556926" y="56.44674" style="fill: #ffff00; stroke: #ffff00"/>
     <use xlink:href="#m3d9f31876d" x="114.135334" y="62.159211" style="fill: #ffff00; stroke: #ffff00"/>
     <use xlink:href="#m3d9f31876d" x="84.935215" y="111.674677" style="fill: #ffff00; stroke: #ffff00"/>
     <use xlink:href="#m3d9f31876d" x="117.062746" y="84.598351" style="fill: #ffff00; stroke: #ffff00"/>
     <use xlink:href="#m3d9f31876d" x="56.080499" y="123.325276" style="fill: #ffff00; stroke: #ffff00"/>
     <use xlink:href="#m3d9f31876d" x="64.823289" y="75.11477" style="fill: #ffff00; stroke: #ffff00"/>
     <use xlink:href="#m3d9f31876d" x="89.884257" y="87.65242" style="fill: #ffff00; stroke: #ffff00"/>
    </g>
   </g>
   <g id="PathCollection_6">
    <defs>
     <path id="m2b7183395c" d="M 0 1.5 
C 0.397805 1.5 0.77937 1.341951 1.06066 1.06066 
C 1.341951 0.77937 1.5 0.397805 1.5 0 
C 1.5 -0.397805 1.341951 -0.77937 1.06066 -1.06066 
C 0.77937 -1.341951 0.397805 -1.5 0 -1.5 
C -0.397805 -1.5 -0.77937 -1.341951 -1.06066 -1.06066 
C -1.341951 -0.77937 -1.5 -0.397805 -1.5 0 
C -1.5 0.397805 -1.341951 0.77937 -1.06066 1.06066 
C -0.77937 1.341951 -0.397805 1.5 0 1.5 
z
" style="stroke: #00ffff"/>
    </defs>
    <g clip-path="url(#paf68a1198f)">
     <use xlink:href="#m2b7183395c" x="126.769622" y="64.26278" style="fill: #00ffff; stroke: #00ffff"/>
     <use xlink:href="#m2b7183395c" x="66.537952" y="88.4059" style="fill: #00ffff; stroke: #00ffff"/>
     <use xlink:href="#m2b7183395c" x="77.898507" y="116.164816" style="fill: #00ffff; stroke: #00ffff"/>
     <use xlink:href="#m2b7183395c" x="129.344385" y="139.170975" style="fill: #00ffff; stroke: #00ffff"/>
     <use xlink:href="#m2b7183395c" x="104.531144" y="130.150584" style="fill: #00ffff; stroke: #00ffff"/>
     <use xlink:href="#m2b7183395c" x="109.588142" y="197.812708" style="fill: #00ffff; stroke: #00ffff"/>
     <use xlink:href="#m2b7183395c" x="87.804546" y="106.497826" style="fill: #00ffff; stroke: #00ffff"/>
     <use xlink:href="#m2b7183395c" x="62.046519" y="102.954019" style="fill: #00ffff; stroke: #00ffff"/>
     <use xlink:href="#m2b7183395c" x="94.048093" y="164.129519" style="fill: #00ffff; stroke: #00ffff"/>
     <use xlink:href="#m2b7183395c" x="95.993198" y="151.418793" style="fill: #00ffff; stroke: #00ffff"/>
     <use xlink:href="#m2b7183395c" x="67.120075" y="174.187487" style="fill: #00ffff; stroke: #00ffff"/>
    </g>
   </g>
   <g id="PathCollection_7">
    <defs>
     <path id="mbd4496b5dc" d="M 0 1.5 
C 0.397805 1.5 0.77937 1.341951 1.06066 1.06066 
C 1.341951 0.77937 1.5 0.397805 1.5 0 
C 1.5 -0.397805 1.341951 -0.77937 1.06066 -1.06066 
C 0.77937 -1.341951 0.397805 -1.5 0 -1.5 
C -0.397805 -1.5 -0.77937 -1.341951 -1.06066 -1.06066 
C -1.341951 -0.77937 -1.5 -0.397805 -1.5 0 
C -1.5 0.397805 -1.341951 0.77937 -1.06066 1.06066 
C -0.77937 1.341951 -0.397805 1.5 0 1.5 
z
" style="stroke: #0000ff"/>
    </defs>
    <g clip-path="url(#paf68a1198f)">
     <use xlink:href="#mbd4496b5dc" x="107.65837" y="110.262771" style="fill: #0000ff; stroke: #0000ff"/>
     <use xlink:href="#mbd4496b5dc" x="130.533732" y="60.75311" style="fill: #0000ff; stroke: #0000ff"/>
     <use xlink:href="#mbd4496b5dc" x="89.876444" y="98.466854" style="fill: #0000ff; stroke: #0000ff"/>
     <use xlink:href="#mbd4496b5dc" x="123.564363" y="211.150804" style="fill: #0000ff; stroke: #0000ff"/>
     <use xlink:href="#mbd4496b5dc" x="133.194978" y="144.209483" style="fill: #0000ff; stroke: #0000ff"/>
     <use xlink:href="#mbd4496b5dc" x="90.847436" y="123.315081" style="fill: #0000ff; stroke: #0000ff"/>
     <use xlink:href="#mbd4496b5dc" x="114.585298" y="121.100503" style="fill: #0000ff; stroke: #0000ff"/>
     <use xlink:href="#mbd4496b5dc" x="110.936492" y="181.646913" style="fill: #0000ff; stroke: #0000ff"/>
     <use xlink:href="#mbd4496b5dc" x="137.215706" y="111.147114" style="fill: #0000ff; stroke: #0000ff"/>
     <use xlink:href="#mbd4496b5dc" x="171.052865" y="158.375484" style="fill: #0000ff; stroke: #0000ff"/>
     <use xlink:href="#mbd4496b5dc" x="132.15129" y="137.968417" style="fill: #0000ff; stroke: #0000ff"/>
     <use xlink:href="#mbd4496b5dc" x="166.328343" y="106.336005" style="fill: #0000ff; stroke: #0000ff"/>
     <use xlink:href="#mbd4496b5dc" x="121.032449" y="85.824076" style="fill: #0000ff; stroke: #0000ff"/>
     <use xlink:href="#mbd4496b5dc" x="164.506514" y="74.994116" style="fill: #0000ff; stroke: #0000ff"/>
     <use xlink:href="#mbd4496b5dc" x="148.283506" y="60.260776" style="fill: #0000ff; stroke: #0000ff"/>
     <use xlink:href="#mbd4496b5dc" x="125.544953" y="99.904609" style="fill: #0000ff; stroke: #0000ff"/>
     <use xlink:href="#mbd4496b5dc" x="121.363341" y="143.839359" style="fill: #0000ff; stroke: #0000ff"/>
     <use xlink:href="#mbd4496b5dc" x="140.593517" y="62.432075" style="fill: #0000ff; stroke: #0000ff"/>
     <use xlink:href="#mbd4496b5dc" x="154.029976" y="77.059562" style="fill: #0000ff; stroke: #0000ff"/>
    </g>
   </g>
   <g id="PathCollection_8">
    <defs>
     <path id="m81a97c6f95" d="M 0 1.5 
C 0.397805 1.5 0.77937 1.341951 1.06066 1.06066 
C 1.341951 0.77937 1.5 0.397805 1.5 0 
C 1.5 -0.397805 1.341951 -0.77937 1.06066 -1.06066 
C 0.77937 -1.341951 0.397805 -1.5 0 -1.5 
C -0.397805 -1.5 -0.77937 -1.341951 -1.06066 -1.06066 
C -1.341951 -0.77937 -1.5 -0.397805 -1.5 0 
C -1.5 0.397805 -1.341951 0.77937 -1.06066 1.06066 
C -0.77937 1.341951 -0.397805 1.5 0 1.5 
z
" style="stroke: #dc143c"/>
    </defs>
    <g clip-path="url(#paf68a1198f)">
     <use xlink:href="#m81a97c6f95" x="136.285291" y="253.085862" style="fill: #dc143c; stroke: #dc143c"/>
     <use xlink:href="#m81a97c6f95" x="119.2361" y="206.497808" style="fill: #dc143c; stroke: #dc143c"/>
     <use xlink:href="#m81a97c6f95" x="66.259511" y="196.644157" style="fill: #dc143c; stroke: #dc143c"/>
     <use xlink:href="#m81a97c6f95" x="127.704786" y="204.739224" style="fill: #dc143c; stroke: #dc143c"/>
     <use xlink:href="#m81a97c6f95" x="102.611957" y="232.168811" style="fill: #dc143c; stroke: #dc143c"/>
     <use xlink:href="#m81a97c6f95" x="191.879549" y="183.042671" style="fill: #dc143c; stroke: #dc143c"/>
     <use xlink:href="#m81a97c6f95" x="66.525679" y="230.881315" style="fill: #dc143c; stroke: #dc143c"/>
     <use xlink:href="#m81a97c6f95" x="101.583818" y="198.618981" style="fill: #dc143c; stroke: #dc143c"/>
     <use xlink:href="#m81a97c6f95" x="108.886017" y="191.434647" style="fill: #dc143c; stroke: #dc143c"/>
     <use xlink:href="#m81a97c6f95" x="111.794121" y="217.190396" style="fill: #dc143c; stroke: #dc143c"/>
     <use xlink:href="#m81a97c6f95" x="135.535557" y="181.818813" style="fill: #dc143c; stroke: #dc143c"/>
     <use xlink:href="#m81a97c6f95" x="122.794344" y="224.326604" style="fill: #dc143c; stroke: #dc143c"/>
     <use xlink:href="#m81a97c6f95" x="58.005792" y="217.978612" style="fill: #dc143c; stroke: #dc143c"/>
    </g>
   </g>
   <g id="PathCollection_9">
    <defs>
     <path id="m32fba0293f" d="M 0 1.5 
C 0.397805 1.5 0.77937 1.341951 1.06066 1.06066 
C 1.341951 0.77937 1.5 0.397805 1.5 0 
C 1.5 -0.397805 1.341951 -0.77937 1.06066 -1.06066 
C 0.77937 -1.341951 0.397805 -1.5 0 -1.5 
C -0.397805 -1.5 -0.77937 -1.341951 -1.06066 -1.06066 
C -1.341951 -0.77937 -1.5 -0.397805 -1.5 0 
C -1.5 0.397805 -1.341951 0.77937 -1.06066 1.06066 
C -0.77937 1.341951 -0.397805 1.5 0 1.5 
z
" style="stroke: #ffe4c4"/>
    </defs>
    <g clip-path="url(#paf68a1198f)">
     <use xlink:href="#m32fba0293f" x="253.027273" y="157.894463" style="fill: #ffe4c4; stroke: #ffe4c4"/>
     <use xlink:href="#m32fba0293f" x="148.079052" y="219.372432" style="fill: #ffe4c4; stroke: #ffe4c4"/>
     <use xlink:href="#m32fba0293f" x="123.891046" y="218.78438" style="fill: #ffe4c4; stroke: #ffe4c4"/>
     <use xlink:href="#m32fba0293f" x="168.149334" y="135.364533" style="fill: #ffe4c4; stroke: #ffe4c4"/>
     <use xlink:href="#m32fba0293f" x="180.297482" y="112.090534" style="fill: #ffe4c4; stroke: #ffe4c4"/>
     <use xlink:href="#m32fba0293f" x="173.317073" y="153.302852" style="fill: #ffe4c4; stroke: #ffe4c4"/>
     <use xlink:href="#m32fba0293f" x="164.661512" y="181.285685" style="fill: #ffe4c4; stroke: #ffe4c4"/>
     <use xlink:href="#m32fba0293f" x="214.302952" y="170.428358" style="fill: #ffe4c4; stroke: #ffe4c4"/>
     <use xlink:href="#m32fba0293f" x="140.1181" y="135.679287" style="fill: #ffe4c4; stroke: #ffe4c4"/>
     <use xlink:href="#m32fba0293f" x="210.913288" y="182.566859" style="fill: #ffe4c4; stroke: #ffe4c4"/>
     <use xlink:href="#m32fba0293f" x="211.564935" y="165.225932" style="fill: #ffe4c4; stroke: #ffe4c4"/>
     <use xlink:href="#m32fba0293f" x="150.102214" y="159.38724" style="fill: #ffe4c4; stroke: #ffe4c4"/>
     <use xlink:href="#m32fba0293f" x="186.89163" y="191.074804" style="fill: #ffe4c4; stroke: #ffe4c4"/>
     <use xlink:href="#m32fba0293f" x="148.344268" y="181.834041" style="fill: #ffe4c4; stroke: #ffe4c4"/>
     <use xlink:href="#m32fba0293f" x="179.429494" y="168.134125" style="fill: #ffe4c4; stroke: #ffe4c4"/>
     <use xlink:href="#m32fba0293f" x="180.364361" y="146.275988" style="fill: #ffe4c4; stroke: #ffe4c4"/>
     <use xlink:href="#m32fba0293f" x="196.553858" y="207.850161" style="fill: #ffe4c4; stroke: #ffe4c4"/>
     <use xlink:href="#m32fba0293f" x="179.346511" y="151.078853" style="fill: #ffe4c4; stroke: #ffe4c4"/>
    </g>
   </g>
   <g id="PathCollection_10">
    <defs>
     <path id="m3f2e446da7" d="M -2.99994 2.99994 
L 3.00006 2.99994 
L 3.00006 -3.00006 
L -2.99994 -3.00006 
z
" style="stroke: #000000"/>
    </defs>
    <g clip-path="url(#paf68a1198f)">
     <use xlink:href="#m3f2e446da7" x="203.889151" y="119.48334" style="stroke: #000000"/>
     <use xlink:href="#m3f2e446da7" x="174.044386" y="155.295299" style="stroke: #000000"/>
     <use xlink:href="#m3f2e446da7" x="196.997957" y="188.300054" style="stroke: #000000"/>
     <use xlink:href="#m3f2e446da7" x="269.074437" y="91.219878" style="stroke: #000000"/>
     <use xlink:href="#m3f2e446da7" x="185.858702" y="165.138342" style="stroke: #000000"/>
     <use xlink:href="#m3f2e446da7" x="167.907425" y="165.935098" style="stroke: #000000"/>
     <use xlink:href="#m3f2e446da7" x="62.638169" y="213.357911" style="stroke: #000000"/>
     <use xlink:href="#m3f2e446da7" x="183.968207" y="232.201759" style="stroke: #000000"/>
     <use xlink:href="#m3f2e446da7" x="209.847045" y="35.401068" style="stroke: #000000"/>
     <use xlink:href="#m3f2e446da7" x="206.914556" y="182.957398" style="stroke: #000000"/>
     <use xlink:href="#m3f2e446da7" x="184.026931" y="100.076863" style="stroke: #000000"/>
     <use xlink:href="#m3f2e446da7" x="168.965876" y="164.74856" style="stroke: #000000"/>
     <use xlink:href="#m3f2e446da7" x="208.037073" y="99.135687" style="stroke: #000000"/>
     <use xlink:href="#m3f2e446da7" x="304.762166" y="115.508305" style="stroke: #000000"/>
     <use xlink:href="#m3f2e446da7" x="223.179165" y="113.480353" style="stroke: #000000"/>
     <use xlink:href="#m3f2e446da7" x="207.95655" y="138.391907" style="stroke: #000000"/>
     <use xlink:href="#m3f2e446da7" x="168.450655" y="102.53829" style="stroke: #000000"/>
     <use xlink:href="#m3f2e446da7" x="140.32321" y="212.50974" style="stroke: #000000"/>
     <use xlink:href="#m3f2e446da7" x="230.724769" y="166.840319" style="stroke: #000000"/>
     <use xlink:href="#m3f2e446da7" x="198.492098" y="113.524878" style="stroke: #000000"/>
     <use xlink:href="#m3f2e446da7" x="257.324616" y="166.728952" style="stroke: #000000"/>
     <use xlink:href="#m3f2e446da7" x="226.231608" y="127.149995" style="stroke: #000000"/>
     <use xlink:href="#m3f2e446da7" x="151.782564" y="221.75832" style="stroke: #000000"/>
     <use xlink:href="#m3f2e446da7" x="237.742252" y="88.152574" style="stroke: #000000"/>
     <use xlink:href="#m3f2e446da7" x="164.332568" y="128.979484" style="stroke: #000000"/>
     <use xlink:href="#m3f2e446da7" x="148.970275" y="159.325588" style="stroke: #000000"/>
     <use xlink:href="#m3f2e446da7" x="219.29141" y="214.838409" style="stroke: #000000"/>
     <use xlink:href="#m3f2e446da7" x="174.157255" y="187.122634" style="stroke: #000000"/>
     <use xlink:href="#m3f2e446da7" x="178.006454" y="142.862399" style="stroke: #000000"/>
     <use xlink:href="#m3f2e446da7" x="240.224615" y="172.019013" style="stroke: #000000"/>
     <use xlink:href="#m3f2e446da7" x="228.013403" y="208.391158" style="stroke: #000000"/>
     <use xlink:href="#m3f2e446da7" x="251.272918" y="180.701248" style="stroke: #000000"/>
     <use xlink:href="#m3f2e446da7" x="233.460567" y="103.661547" style="stroke: #000000"/>
     <use xlink:href="#m3f2e446da7" x="168.450655" y="102.53829" style="stroke: #000000"/>
     <use xlink:href="#m3f2e446da7" x="278.925831" y="170.105229" style="stroke: #000000"/>
     <use xlink:href="#m3f2e446da7" x="150.741421" y="166.755692" style="stroke: #000000"/>
     <use xlink:href="#m3f2e446da7" x="169.273131" y="127.771174" style="stroke: #000000"/>
     <use xlink:href="#m3f2e446da7" x="180.506271" y="171.942599" style="stroke: #000000"/>
     <use xlink:href="#m3f2e446da7" x="197.415671" y="158.732649" style="stroke: #000000"/>
     <use xlink:href="#m3f2e446da7" x="196.432421" y="152.711754" style="stroke: #000000"/>
     <use xlink:href="#m3f2e446da7" x="216.8239" y="85.619395" style="stroke: #000000"/>
     <use xlink:href="#m3f2e446da7" x="124.661237" y="217.640367" style="stroke: #000000"/>
     <use xlink:href="#m3f2e446da7" x="191.214913" y="113.214727" style="stroke: #000000"/>
     <use xlink:href="#m3f2e446da7" x="202.034542" y="143.279783" style="stroke: #000000"/>
     <use xlink:href="#m3f2e446da7" x="106.066025" y="116.805608" style="stroke: #000000"/>
     <use xlink:href="#m3f2e446da7" x="268.857488" y="74.768194" style="stroke: #000000"/>
     <use xlink:href="#m3f2e446da7" x="187.826434" y="111.83432" style="stroke: #000000"/>
     <use xlink:href="#m3f2e446da7" x="170.088062" y="156.094215" style="stroke: #000000"/>
     <use xlink:href="#m3f2e446da7" x="201.061716" y="137.928818" style="stroke: #000000"/>
     <use xlink:href="#m3f2e446da7" x="190.951748" y="159.559344" style="stroke: #000000"/>
     <use xlink:href="#m3f2e446da7" x="211.303995" y="261.216" style="stroke: #000000"/>
     <use xlink:href="#m3f2e446da7" x="189.559507" y="84.321713" style="stroke: #000000"/>
     <use xlink:href="#m3f2e446da7" x="179.062976" y="134.101333" style="stroke: #000000"/>
     <use xlink:href="#m3f2e446da7" x="181.620164" y="165.629943" style="stroke: #000000"/>
     <use xlink:href="#m3f2e446da7" x="209.642765" y="81.927868" style="stroke: #000000"/>
     <use xlink:href="#m3f2e446da7" x="194.564301" y="103.795283" style="stroke: #000000"/>
     <use xlink:href="#m3f2e446da7" x="204.598587" y="249.982699" style="stroke: #000000"/>
     <use xlink:href="#m3f2e446da7" x="376.19196" y="204.14413" style="stroke: #000000"/>
     <use xlink:href="#m3f2e446da7" x="170.334606" y="145.049831" style="stroke: #000000"/>
     <use xlink:href="#m3f2e446da7" x="172.161652" y="206.991986" style="stroke: #000000"/>
     <use xlink:href="#m3f2e446da7" x="192.797281" y="223.562892" style="stroke: #000000"/>
     <use xlink:href="#m3f2e446da7" x="175.539081" y="91.901003" style="stroke: #000000"/>
     <use xlink:href="#m3f2e446da7" x="190.733509" y="106.666824" style="stroke: #000000"/>
     <use xlink:href="#m3f2e446da7" x="171.64475" y="19.296" style="stroke: #000000"/>
    </g>
   </g>
   <g id="PathCollection_11">
    <defs>
     <path id="m7fe1d46ea0" d="M -3 -0 
L 3 3 
L 3 -3 
z
" style="stroke: #ff8c00"/>
    </defs>
    <g clip-path="url(#paf68a1198f)">
     <use xlink:href="#m7fe1d46ea0" x="68.346095" y="135.633799" style="fill: #ff8c00; stroke: #ff8c00"/>
     <use xlink:href="#m7fe1d46ea0" x="149.182043" y="144.628617" style="fill: #ff8c00; stroke: #ff8c00"/>
     <use xlink:href="#m7fe1d46ea0" x="120.738053" y="170.119135" style="fill: #ff8c00; stroke: #ff8c00"/>
     <use xlink:href="#m7fe1d46ea0" x="131.823879" y="154.265329" style="fill: #ff8c00; stroke: #ff8c00"/>
     <use xlink:href="#m7fe1d46ea0" x="89.559037" y="151.229266" style="fill: #ff8c00; stroke: #ff8c00"/>
     <use xlink:href="#m7fe1d46ea0" x="109.520291" y="135.375035" style="fill: #ff8c00; stroke: #ff8c00"/>
     <use xlink:href="#m7fe1d46ea0" x="117.331586" y="154.576276" style="fill: #ff8c00; stroke: #ff8c00"/>
     <use xlink:href="#m7fe1d46ea0" x="137.614366" y="171.851862" style="fill: #ff8c00; stroke: #ff8c00"/>
     <use xlink:href="#m7fe1d46ea0" x="64.363987" y="155.592617" style="fill: #ff8c00; stroke: #ff8c00"/>
     <use xlink:href="#m7fe1d46ea0" x="111.304948" y="152.193829" style="fill: #ff8c00; stroke: #ff8c00"/>
     <use xlink:href="#m7fe1d46ea0" x="131.167152" y="165.583954" style="fill: #ff8c00; stroke: #ff8c00"/>
     <use xlink:href="#m7fe1d46ea0" x="81.937386" y="177.456256" style="fill: #ff8c00; stroke: #ff8c00"/>
     <use xlink:href="#m7fe1d46ea0" x="121.800473" y="167.709469" style="fill: #ff8c00; stroke: #ff8c00"/>
     <use xlink:href="#m7fe1d46ea0" x="128.88093" y="132.868072" style="fill: #ff8c00; stroke: #ff8c00"/>
     <use xlink:href="#m7fe1d46ea0" x="101.305066" y="151.047086" style="fill: #ff8c00; stroke: #ff8c00"/>
     <use xlink:href="#m7fe1d46ea0" x="110.528192" y="159.323377" style="fill: #ff8c00; stroke: #ff8c00"/>
     <use xlink:href="#m7fe1d46ea0" x="130.034696" y="167.290215" style="fill: #ff8c00; stroke: #ff8c00"/>
     <use xlink:href="#m7fe1d46ea0" x="70.269336" y="116.073088" style="fill: #ff8c00; stroke: #ff8c00"/>
     <use xlink:href="#m7fe1d46ea0" x="136.124672" y="187.601155" style="fill: #ff8c00; stroke: #ff8c00"/>
     <use xlink:href="#m7fe1d46ea0" x="159.257053" y="199.186904" style="fill: #ff8c00; stroke: #ff8c00"/>
     <use xlink:href="#m7fe1d46ea0" x="100.30682" y="106.46752" style="fill: #ff8c00; stroke: #ff8c00"/>
     <use xlink:href="#m7fe1d46ea0" x="97.022196" y="148.139689" style="fill: #ff8c00; stroke: #ff8c00"/>
     <use xlink:href="#m7fe1d46ea0" x="160.045618" y="137.572253" style="fill: #ff8c00; stroke: #ff8c00"/>
     <use xlink:href="#m7fe1d46ea0" x="131.880815" y="187.870623" style="fill: #ff8c00; stroke: #ff8c00"/>
     <use xlink:href="#m7fe1d46ea0" x="128.53119" y="179.106938" style="fill: #ff8c00; stroke: #ff8c00"/>
     <use xlink:href="#m7fe1d46ea0" x="158.514205" y="163.280074" style="fill: #ff8c00; stroke: #ff8c00"/>
     <use xlink:href="#m7fe1d46ea0" x="142.519941" y="185.931792" style="fill: #ff8c00; stroke: #ff8c00"/>
     <use xlink:href="#m7fe1d46ea0" x="78.981056" y="181.354442" style="fill: #ff8c00; stroke: #ff8c00"/>
     <use xlink:href="#m7fe1d46ea0" x="128.000409" y="171.14128" style="fill: #ff8c00; stroke: #ff8c00"/>
     <use xlink:href="#m7fe1d46ea0" x="108.617269" y="98.801364" style="fill: #ff8c00; stroke: #ff8c00"/>
     <use xlink:href="#m7fe1d46ea0" x="169.023273" y="101.582254" style="fill: #ff8c00; stroke: #ff8c00"/>
     <use xlink:href="#m7fe1d46ea0" x="151.336548" y="149.84371" style="fill: #ff8c00; stroke: #ff8c00"/>
     <use xlink:href="#m7fe1d46ea0" x="88.723818" y="181.295985" style="fill: #ff8c00; stroke: #ff8c00"/>
     <use xlink:href="#m7fe1d46ea0" x="163.186042" y="146.954932" style="fill: #ff8c00; stroke: #ff8c00"/>
     <use xlink:href="#m7fe1d46ea0" x="148.858042" y="115.344393" style="fill: #ff8c00; stroke: #ff8c00"/>
     <use xlink:href="#m7fe1d46ea0" x="91.719135" y="129.421834" style="fill: #ff8c00; stroke: #ff8c00"/>
     <use xlink:href="#m7fe1d46ea0" x="132.102512" y="136.523513" style="fill: #ff8c00; stroke: #ff8c00"/>
     <use xlink:href="#m7fe1d46ea0" x="154.307468" y="172.043981" style="fill: #ff8c00; stroke: #ff8c00"/>
     <use xlink:href="#m7fe1d46ea0" x="155.284498" y="140.409412" style="fill: #ff8c00; stroke: #ff8c00"/>
     <use xlink:href="#m7fe1d46ea0" x="165.697247" y="174.782658" style="fill: #ff8c00; stroke: #ff8c00"/>
     <use xlink:href="#m7fe1d46ea0" x="118.36932" y="156.759024" style="fill: #ff8c00; stroke: #ff8c00"/>
     <use xlink:href="#m7fe1d46ea0" x="122.523003" y="140.505963" style="fill: #ff8c00; stroke: #ff8c00"/>
     <use xlink:href="#m7fe1d46ea0" x="103.27687" y="175.752206" style="fill: #ff8c00; stroke: #ff8c00"/>
     <use xlink:href="#m7fe1d46ea0" x="170.06304" y="151.653188" style="fill: #ff8c00; stroke: #ff8c00"/>
     <use xlink:href="#m7fe1d46ea0" x="74.856092" y="166.710028" style="fill: #ff8c00; stroke: #ff8c00"/>
     <use xlink:href="#m7fe1d46ea0" x="116.989798" y="176.097496" style="fill: #ff8c00; stroke: #ff8c00"/>
     <use xlink:href="#m7fe1d46ea0" x="116.293492" y="129.23465" style="fill: #ff8c00; stroke: #ff8c00"/>
     <use xlink:href="#m7fe1d46ea0" x="134.994853" y="149.32404" style="fill: #ff8c00; stroke: #ff8c00"/>
     <use xlink:href="#m7fe1d46ea0" x="136.467094" y="105.4096" style="fill: #ff8c00; stroke: #ff8c00"/>
     <use xlink:href="#m7fe1d46ea0" x="129.394777" y="153.524147" style="fill: #ff8c00; stroke: #ff8c00"/>
     <use xlink:href="#m7fe1d46ea0" x="111.340264" y="169.629965" style="fill: #ff8c00; stroke: #ff8c00"/>
     <use xlink:href="#m7fe1d46ea0" x="151.663045" y="180.287565" style="fill: #ff8c00; stroke: #ff8c00"/>
     <use xlink:href="#m7fe1d46ea0" x="168.95528" y="192.568365" style="fill: #ff8c00; stroke: #ff8c00"/>
     <use xlink:href="#m7fe1d46ea0" x="112.166463" y="162.656032" style="fill: #ff8c00; stroke: #ff8c00"/>
     <use xlink:href="#m7fe1d46ea0" x="154.450053" y="152.205564" style="fill: #ff8c00; stroke: #ff8c00"/>
     <use xlink:href="#m7fe1d46ea0" x="100.063224" y="175.695624" style="fill: #ff8c00; stroke: #ff8c00"/>
     <use xlink:href="#m7fe1d46ea0" x="118.900013" y="147.3346" style="fill: #ff8c00; stroke: #ff8c00"/>
     <use xlink:href="#m7fe1d46ea0" x="168.933901" y="139.707291" style="fill: #ff8c00; stroke: #ff8c00"/>
     <use xlink:href="#m7fe1d46ea0" x="137.64592" y="130.212837" style="fill: #ff8c00; stroke: #ff8c00"/>
     <use xlink:href="#m7fe1d46ea0" x="126.399146" y="144.21575" style="fill: #ff8c00; stroke: #ff8c00"/>
     <use xlink:href="#m7fe1d46ea0" x="177.504019" y="164.877029" style="fill: #ff8c00; stroke: #ff8c00"/>
     <use xlink:href="#m7fe1d46ea0" x="79.030446" y="186.095864" style="fill: #ff8c00; stroke: #ff8c00"/>
     <use xlink:href="#m7fe1d46ea0" x="179.772161" y="143.482287" style="fill: #ff8c00; stroke: #ff8c00"/>
     <use xlink:href="#m7fe1d46ea0" x="89.657876" y="151.846011" style="fill: #ff8c00; stroke: #ff8c00"/>
    </g>
   </g>
   <g id="matplotlib.axis_1">
    <g id="xtick_1">
     <g id="line2d_1">
      <defs>
       <path id="md30c217fba" d="M 0 0 
L 0 3.5 
" style="stroke: #000000; stroke-width: 0.8"/>
      </defs>
      <g>
       <use xlink:href="#md30c217fba" x="83.473747" y="273.312" style="stroke: #000000; stroke-width: 0.8"/>
      </g>
     </g>
     <g id="text_1">
      <!-- −10 -->
      <g transform="translate(72.921403 287.910437) scale(0.1 -0.1)">
       <defs>
        <path id="DejaVuSans-2212" d="M 678 2272 
L 4684 2272 
L 4684 1741 
L 678 1741 
L 678 2272 
z
" transform="scale(0.015625)"/>
        <path id="DejaVuSans-31" d="M 794 531 
L 1825 531 
L 1825 4091 
L 703 3866 
L 703 4441 
L 1819 4666 
L 2450 4666 
L 2450 531 
L 3481 531 
L 3481 0 
L 794 0 
L 794 531 
z
" transform="scale(0.015625)"/>
        <path id="DejaVuSans-30" d="M 2034 4250 
Q 1547 4250 1301 3770 
Q 1056 3291 1056 2328 
Q 1056 1369 1301 889 
Q 1547 409 2034 409 
Q 2525 409 2770 889 
Q 3016 1369 3016 2328 
Q 3016 3291 2770 3770 
Q 2525 4250 2034 4250 
z
M 2034 4750 
Q 2819 4750 3233 4129 
Q 3647 3509 3647 2328 
Q 3647 1150 3233 529 
Q 2819 -91 2034 -91 
Q 1250 -91 836 529 
Q 422 1150 422 2328 
Q 422 3509 836 4129 
Q 1250 4750 2034 4750 
z
" transform="scale(0.015625)"/>
       </defs>
       <use xlink:href="#DejaVuSans-2212"/>
       <use xlink:href="#DejaVuSans-31" x="83.789062"/>
       <use xlink:href="#DejaVuSans-30" x="147.412109"/>
      </g>
     </g>
    </g>
    <g id="xtick_2">
     <g id="line2d_2">
      <g>
       <use xlink:href="#md30c217fba" x="138.237335" y="273.312" style="stroke: #000000; stroke-width: 0.8"/>
      </g>
     </g>
     <g id="text_2">
      <!-- 0 -->
      <g transform="translate(135.056085 287.910437) scale(0.1 -0.1)">
       <use xlink:href="#DejaVuSans-30"/>
      </g>
     </g>
    </g>
    <g id="xtick_3">
     <g id="line2d_3">
      <g>
       <use xlink:href="#md30c217fba" x="193.000923" y="273.312" style="stroke: #000000; stroke-width: 0.8"/>
      </g>
     </g>
     <g id="text_3">
      <!-- 10 -->
      <g transform="translate(186.638423 287.910437) scale(0.1 -0.1)">
       <use xlink:href="#DejaVuSans-31"/>
       <use xlink:href="#DejaVuSans-30" x="63.623047"/>
      </g>
     </g>
    </g>
    <g id="xtick_4">
     <g id="line2d_4">
      <g>
       <use xlink:href="#md30c217fba" x="247.764511" y="273.312" style="stroke: #000000; stroke-width: 0.8"/>
      </g>
     </g>
     <g id="text_4">
      <!-- 20 -->
      <g transform="translate(241.402011 287.910437) scale(0.1 -0.1)">
       <defs>
        <path id="DejaVuSans-32" d="M 1228 531 
L 3431 531 
L 3431 0 
L 469 0 
L 469 531 
Q 828 903 1448 1529 
Q 2069 2156 2228 2338 
Q 2531 2678 2651 2914 
Q 2772 3150 2772 3378 
Q 2772 3750 2511 3984 
Q 2250 4219 1831 4219 
Q 1534 4219 1204 4116 
Q 875 4013 500 3803 
L 500 4441 
Q 881 4594 1212 4672 
Q 1544 4750 1819 4750 
Q 2544 4750 2975 4387 
Q 3406 4025 3406 3419 
Q 3406 3131 3298 2873 
Q 3191 2616 2906 2266 
Q 2828 2175 2409 1742 
Q 1991 1309 1228 531 
z
" transform="scale(0.015625)"/>
       </defs>
       <use xlink:href="#DejaVuSans-32"/>
       <use xlink:href="#DejaVuSans-30" x="63.623047"/>
      </g>
     </g>
    </g>
    <g id="xtick_5">
     <g id="line2d_5">
      <g>
       <use xlink:href="#md30c217fba" x="302.528099" y="273.312" style="stroke: #000000; stroke-width: 0.8"/>
      </g>
     </g>
     <g id="text_5">
      <!-- 30 -->
      <g transform="translate(296.165599 287.910437) scale(0.1 -0.1)">
       <defs>
        <path id="DejaVuSans-33" d="M 2597 2516 
Q 3050 2419 3304 2112 
Q 3559 1806 3559 1356 
Q 3559 666 3084 287 
Q 2609 -91 1734 -91 
Q 1441 -91 1130 -33 
Q 819 25 488 141 
L 488 750 
Q 750 597 1062 519 
Q 1375 441 1716 441 
Q 2309 441 2620 675 
Q 2931 909 2931 1356 
Q 2931 1769 2642 2001 
Q 2353 2234 1838 2234 
L 1294 2234 
L 1294 2753 
L 1863 2753 
Q 2328 2753 2575 2939 
Q 2822 3125 2822 3475 
Q 2822 3834 2567 4026 
Q 2313 4219 1838 4219 
Q 1578 4219 1281 4162 
Q 984 4106 628 3988 
L 628 4550 
Q 988 4650 1302 4700 
Q 1616 4750 1894 4750 
Q 2613 4750 3031 4423 
Q 3450 4097 3450 3541 
Q 3450 3153 3228 2886 
Q 3006 2619 2597 2516 
z
" transform="scale(0.015625)"/>
       </defs>
       <use xlink:href="#DejaVuSans-33"/>
       <use xlink:href="#DejaVuSans-30" x="63.623047"/>
      </g>
     </g>
    </g>
    <g id="xtick_6">
     <g id="line2d_6">
      <g>
       <use xlink:href="#md30c217fba" x="357.291687" y="273.312" style="stroke: #000000; stroke-width: 0.8"/>
      </g>
     </g>
     <g id="text_6">
      <!-- 40 -->
      <g transform="translate(350.929187 287.910437) scale(0.1 -0.1)">
       <defs>
        <path id="DejaVuSans-34" d="M 2419 4116 
L 825 1625 
L 2419 1625 
L 2419 4116 
z
M 2253 4666 
L 3047 4666 
L 3047 1625 
L 3713 1625 
L 3713 1100 
L 3047 1100 
L 3047 0 
L 2419 0 
L 2419 1100 
L 313 1100 
L 313 1709 
L 2253 4666 
z
" transform="scale(0.015625)"/>
       </defs>
       <use xlink:href="#DejaVuSans-34"/>
       <use xlink:href="#DejaVuSans-30" x="63.623047"/>
      </g>
     </g>
    </g>
   </g>
   <g id="matplotlib.axis_2">
    <g id="ytick_1">
     <g id="line2d_7">
      <defs>
       <path id="mea0b3a7677" d="M 0 0 
L -3.5 0 
" style="stroke: #000000; stroke-width: 0.8"/>
      </defs>
      <g>
       <use xlink:href="#mea0b3a7677" x="35.304688" y="267.719404" style="stroke: #000000; stroke-width: 0.8"/>
      </g>
     </g>
     <g id="text_7">
      <!-- −20 -->
      <g transform="translate(7.2 271.518623) scale(0.1 -0.1)">
       <use xlink:href="#DejaVuSans-2212"/>
       <use xlink:href="#DejaVuSans-32" x="83.789062"/>
       <use xlink:href="#DejaVuSans-30" x="147.412109"/>
      </g>
     </g>
    </g>
    <g id="ytick_2">
     <g id="line2d_8">
      <g>
       <use xlink:href="#mea0b3a7677" x="35.304688" y="237.966779" style="stroke: #000000; stroke-width: 0.8"/>
      </g>
     </g>
     <g id="text_8">
      <!-- −15 -->
      <g transform="translate(7.2 241.765997) scale(0.1 -0.1)">
       <defs>
        <path id="DejaVuSans-35" d="M 691 4666 
L 3169 4666 
L 3169 4134 
L 1269 4134 
L 1269 2991 
Q 1406 3038 1543 3061 
Q 1681 3084 1819 3084 
Q 2600 3084 3056 2656 
Q 3513 2228 3513 1497 
Q 3513 744 3044 326 
Q 2575 -91 1722 -91 
Q 1428 -91 1123 -41 
Q 819 9 494 109 
L 494 744 
Q 775 591 1075 516 
Q 1375 441 1709 441 
Q 2250 441 2565 725 
Q 2881 1009 2881 1497 
Q 2881 1984 2565 2268 
Q 2250 2553 1709 2553 
Q 1456 2553 1204 2497 
Q 953 2441 691 2322 
L 691 4666 
z
" transform="scale(0.015625)"/>
       </defs>
       <use xlink:href="#DejaVuSans-2212"/>
       <use xlink:href="#DejaVuSans-31" x="83.789062"/>
       <use xlink:href="#DejaVuSans-35" x="147.412109"/>
      </g>
     </g>
    </g>
    <g id="ytick_3">
     <g id="line2d_9">
      <g>
       <use xlink:href="#mea0b3a7677" x="35.304688" y="208.214153" style="stroke: #000000; stroke-width: 0.8"/>
      </g>
     </g>
     <g id="text_9">
      <!-- −10 -->
      <g transform="translate(7.2 212.013372) scale(0.1 -0.1)">
       <use xlink:href="#DejaVuSans-2212"/>
       <use xlink:href="#DejaVuSans-31" x="83.789062"/>
       <use xlink:href="#DejaVuSans-30" x="147.412109"/>
      </g>
     </g>
    </g>
    <g id="ytick_4">
     <g id="line2d_10">
      <g>
       <use xlink:href="#mea0b3a7677" x="35.304688" y="178.461527" style="stroke: #000000; stroke-width: 0.8"/>
      </g>
     </g>
     <g id="text_10">
      <!-- −5 -->
      <g transform="translate(13.5625 182.260746) scale(0.1 -0.1)">
       <use xlink:href="#DejaVuSans-2212"/>
       <use xlink:href="#DejaVuSans-35" x="83.789062"/>
      </g>
     </g>
    </g>
    <g id="ytick_5">
     <g id="line2d_11">
      <g>
       <use xlink:href="#mea0b3a7677" x="35.304688" y="148.708901" style="stroke: #000000; stroke-width: 0.8"/>
      </g>
     </g>
     <g id="text_11">
      <!-- 0 -->
      <g transform="translate(21.942187 152.50812) scale(0.1 -0.1)">
       <use xlink:href="#DejaVuSans-30"/>
      </g>
     </g>
    </g>
    <g id="ytick_6">
     <g id="line2d_12">
      <g>
       <use xlink:href="#mea0b3a7677" x="35.304688" y="118.956276" style="stroke: #000000; stroke-width: 0.8"/>
      </g>
     </g>
     <g id="text_12">
      <!-- 5 -->
      <g transform="translate(21.942187 122.755494) scale(0.1 -0.1)">
       <use xlink:href="#DejaVuSans-35"/>
      </g>
     </g>
    </g>
    <g id="ytick_7">
     <g id="line2d_13">
      <g>
       <use xlink:href="#mea0b3a7677" x="35.304688" y="89.20365" style="stroke: #000000; stroke-width: 0.8"/>
      </g>
     </g>
     <g id="text_13">
      <!-- 10 -->
      <g transform="translate(15.579687 93.002869) scale(0.1 -0.1)">
       <use xlink:href="#DejaVuSans-31"/>
       <use xlink:href="#DejaVuSans-30" x="63.623047"/>
      </g>
     </g>
    </g>
    <g id="ytick_8">
     <g id="line2d_14">
      <g>
       <use xlink:href="#mea0b3a7677" x="35.304688" y="59.451024" style="stroke: #000000; stroke-width: 0.8"/>
      </g>
     </g>
     <g id="text_14">
      <!-- 15 -->
      <g transform="translate(15.579687 63.250243) scale(0.1 -0.1)">
       <use xlink:href="#DejaVuSans-31"/>
       <use xlink:href="#DejaVuSans-35" x="63.623047"/>
      </g>
     </g>
    </g>
    <g id="ytick_9">
     <g id="line2d_15">
      <g>
       <use xlink:href="#mea0b3a7677" x="35.304688" y="29.698398" style="stroke: #000000; stroke-width: 0.8"/>
      </g>
     </g>
     <g id="text_15">
      <!-- 20 -->
      <g transform="translate(15.579687 33.497617) scale(0.1 -0.1)">
       <use xlink:href="#DejaVuSans-32"/>
       <use xlink:href="#DejaVuSans-30" x="63.623047"/>
      </g>
     </g>
    </g>
   </g>
   <g id="patch_3">
    <path d="M 35.304688 273.312 
L 35.304688 7.2 
" style="fill: none; stroke: #000000; stroke-width: 0.8; stroke-linejoin: miter; stroke-linecap: square"/>
   </g>
   <g id="patch_4">
    <path d="M 392.424688 273.312 
L 392.424688 7.2 
" style="fill: none; stroke: #000000; stroke-width: 0.8; stroke-linejoin: miter; stroke-linecap: square"/>
   </g>
   <g id="patch_5">
    <path d="M 35.304688 273.312 
L 392.424688 273.312 
" style="fill: none; stroke: #000000; stroke-width: 0.8; stroke-linejoin: miter; stroke-linecap: square"/>
   </g>
   <g id="patch_6">
    <path d="M 35.304688 7.2 
L 392.424688 7.2 
" style="fill: none; stroke: #000000; stroke-width: 0.8; stroke-linejoin: miter; stroke-linecap: square"/>
   </g>
  </g>
 </g>
 <defs>
  <clipPath id="paf68a1198f">
   <rect x="35.304688" y="7.2" width="357.12" height="266.112"/>
  </clipPath>
 </defs>
</svg>
