<?xml version="1.0" encoding="utf-8" standalone="no"?>
<!DOCTYPE svg PUBLIC "-//W3C//DTD SVG 1.1//EN"
  "http://www.w3.org/Graphics/SVG/1.1/DTD/svg11.dtd">
<svg xmlns:xlink="http://www.w3.org/1999/xlink" width="399.624687pt" height="297.190125pt" viewBox="0 0 399.624687 297.190125" xmlns="http://www.w3.org/2000/svg" version="1.1">
 <metadata>
  <rdf:RDF xmlns:dc="http://purl.org/dc/elements/1.1/" xmlns:cc="http://creativecommons.org/ns#" xmlns:rdf="http://www.w3.org/1999/02/22-rdf-syntax-ns#">
   <cc:Work>
    <dc:type rdf:resource="http://purl.org/dc/dcmitype/StillImage"/>
    <dc:date>2023-11-10T22:58:34.043813</dc:date>
    <dc:format>image/svg+xml</dc:format>
    <dc:creator>
     <cc:Agent>
      <dc:title>Matplotlib v3.8.0, https://matplotlib.org/</dc:title>
     </cc:Agent>
    </dc:creator>
   </cc:Work>
  </rdf:RDF>
 </metadata>
 <defs>
  <style type="text/css">*{stroke-linejoin: round; stroke-linecap: butt}</style>
 </defs>
 <g id="figure_1">
  <g id="patch_1">
   <path d="M 0 297.190125 
L 399.624687 297.190125 
L 399.624687 0 
L 0 0 
z
" style="fill: #ffffff"/>
  </g>
  <g id="axes_1">
   <g id="patch_2">
    <path d="M 35.304688 273.312 
L 392.424688 273.312 
L 392.424688 7.2 
L 35.304688 7.2 
z
" style="fill: #ffffff"/>
   </g>
   <g id="PathCollection_1">
    <defs>
     <path id="mb27c85c466" d="M 0 1.5 
C 0.397805 1.5 0.77937 1.341951 1.06066 1.06066 
C 1.341951 0.77937 1.5 0.397805 1.5 0 
C 1.5 -0.397805 1.341951 -0.77937 1.06066 -1.06066 
C 0.77937 -1.341951 0.397805 -1.5 0 -1.5 
C -0.397805 -1.5 -0.77937 -1.341951 -1.06066 -1.06066 
C -1.341951 -0.77937 -1.5 -0.397805 -1.5 0 
C -1.5 0.397805 -1.341951 0.77937 -1.06066 1.06066 
C -0.77937 1.341951 -0.397805 1.5 0 1.5 
z
" style="stroke: #ff8c00"/>
    </defs>
    <g clip-path="url(#pa60a1b913e)">
     <use xlink:href="#mb27c85c466" x="166.707465" y="188.792215" style="fill: #ff8c00; stroke: #ff8c00"/>
     <use xlink:href="#mb27c85c466" x="192.035826" y="183.576153" style="fill: #ff8c00; stroke: #ff8c00"/>
     <use xlink:href="#mb27c85c466" x="168.413737" y="134.907238" style="fill: #ff8c00; stroke: #ff8c00"/>
     <use xlink:href="#mb27c85c466" x="161.021447" y="114.807852" style="fill: #ff8c00; stroke: #ff8c00"/>
     <use xlink:href="#mb27c85c466" x="149.652756" y="135.282329" style="fill: #ff8c00; stroke: #ff8c00"/>
     <use xlink:href="#mb27c85c466" x="167.032965" y="138.275029" style="fill: #ff8c00; stroke: #ff8c00"/>
     <use xlink:href="#mb27c85c466" x="258.391534" y="119.027284" style="fill: #ff8c00; stroke: #ff8c00"/>
     <use xlink:href="#mb27c85c466" x="154.248303" y="171.264902" style="fill: #ff8c00; stroke: #ff8c00"/>
     <use xlink:href="#mb27c85c466" x="214.259802" y="162.698028" style="fill: #ff8c00; stroke: #ff8c00"/>
     <use xlink:href="#mb27c85c466" x="104.40578" y="149.508341" style="fill: #ff8c00; stroke: #ff8c00"/>
     <use xlink:href="#mb27c85c466" x="174.306158" y="132.233756" style="fill: #ff8c00; stroke: #ff8c00"/>
     <use xlink:href="#mb27c85c466" x="204.859027" y="197.0862" style="fill: #ff8c00; stroke: #ff8c00"/>
     <use xlink:href="#mb27c85c466" x="205.233291" y="169.99511" style="fill: #ff8c00; stroke: #ff8c00"/>
     <use xlink:href="#mb27c85c466" x="213.035572" y="261.216" style="fill: #ff8c00; stroke: #ff8c00"/>
     <use xlink:href="#mb27c85c466" x="178.005309" y="72.498193" style="fill: #ff8c00; stroke: #ff8c00"/>
     <use xlink:href="#mb27c85c466" x="156.71662" y="179.581755" style="fill: #ff8c00; stroke: #ff8c00"/>
     <use xlink:href="#mb27c85c466" x="204.233478" y="137.086469" style="fill: #ff8c00; stroke: #ff8c00"/>
     <use xlink:href="#mb27c85c466" x="92.105231" y="83.523032" style="fill: #ff8c00; stroke: #ff8c00"/>
    </g>
   </g>
   <g id="PathCollection_2">
    <defs>
     <path id="meeb04c7d81" d="M 0 1.5 
C 0.397805 1.5 0.77937 1.341951 1.06066 1.06066 
C 1.341951 0.77937 1.5 0.397805 1.5 0 
C 1.5 -0.397805 1.341951 -0.77937 1.06066 -1.06066 
C 0.77937 -1.341951 0.397805 -1.5 0 -1.5 
C -0.397805 -1.5 -0.77937 -1.341951 -1.06066 -1.06066 
C -1.341951 -0.77937 -1.5 -0.397805 -1.5 0 
C -1.5 0.397805 -1.341951 0.77937 -1.06066 1.06066 
C -0.77937 1.341951 -0.397805 1.5 0 1.5 
z
" style="stroke: #006400"/>
    </defs>
    <g clip-path="url(#pa60a1b913e)">
     <use xlink:href="#meeb04c7d81" x="246.879986" y="116.783789" style="fill: #006400; stroke: #006400"/>
     <use xlink:href="#meeb04c7d81" x="176.183161" y="186.212663" style="fill: #006400; stroke: #006400"/>
     <use xlink:href="#meeb04c7d81" x="289.092371" y="108.862215" style="fill: #006400; stroke: #006400"/>
     <use xlink:href="#meeb04c7d81" x="263.794387" y="99.86651" style="fill: #006400; stroke: #006400"/>
     <use xlink:href="#meeb04c7d81" x="204.466857" y="112.725354" style="fill: #006400; stroke: #006400"/>
     <use xlink:href="#meeb04c7d81" x="305.422366" y="218.384283" style="fill: #006400; stroke: #006400"/>
     <use xlink:href="#meeb04c7d81" x="272.367345" y="106.87625" style="fill: #006400; stroke: #006400"/>
     <use xlink:href="#meeb04c7d81" x="227.5477" y="124.432389" style="fill: #006400; stroke: #006400"/>
     <use xlink:href="#meeb04c7d81" x="272.450119" y="54.878002" style="fill: #006400; stroke: #006400"/>
     <use xlink:href="#meeb04c7d81" x="176.488592" y="164.316158" style="fill: #006400; stroke: #006400"/>
     <use xlink:href="#meeb04c7d81" x="222.744732" y="33.973594" style="fill: #006400; stroke: #006400"/>
     <use xlink:href="#meeb04c7d81" x="277.581006" y="65.352945" style="fill: #006400; stroke: #006400"/>
     <use xlink:href="#meeb04c7d81" x="243.35649" y="165.658239" style="fill: #006400; stroke: #006400"/>
    </g>
   </g>
   <g id="PathCollection_3">
    <defs>
     <path id="me70718ecac" d="M 0 1.5 
C 0.397805 1.5 0.77937 1.341951 1.06066 1.06066 
C 1.341951 0.77937 1.5 0.397805 1.5 0 
C 1.5 -0.397805 1.341951 -0.77937 1.06066 -1.06066 
C 0.77937 -1.341951 0.397805 -1.5 0 -1.5 
C -0.397805 -1.5 -0.77937 -1.341951 -1.06066 -1.06066 
C -1.341951 -0.77937 -1.5 -0.397805 -1.5 0 
C -1.5 0.397805 -1.341951 0.77937 -1.06066 1.06066 
C -0.77937 1.341951 -0.397805 1.5 0 1.5 
z
" style="stroke: #2f4f4f"/>
    </defs>
    <g clip-path="url(#pa60a1b913e)">
     <use xlink:href="#me70718ecac" x="149.916124" y="154.769396" style="fill: #2f4f4f; stroke: #2f4f4f"/>
     <use xlink:href="#me70718ecac" x="112.072655" y="174.865091" style="fill: #2f4f4f; stroke: #2f4f4f"/>
     <use xlink:href="#me70718ecac" x="117.111038" y="157.53613" style="fill: #2f4f4f; stroke: #2f4f4f"/>
     <use xlink:href="#me70718ecac" x="172.410394" y="184.607898" style="fill: #2f4f4f; stroke: #2f4f4f"/>
     <use xlink:href="#me70718ecac" x="127.89853" y="185.379171" style="fill: #2f4f4f; stroke: #2f4f4f"/>
     <use xlink:href="#me70718ecac" x="156.48016" y="126.522574" style="fill: #2f4f4f; stroke: #2f4f4f"/>
     <use xlink:href="#me70718ecac" x="120.622027" y="155.276653" style="fill: #2f4f4f; stroke: #2f4f4f"/>
     <use xlink:href="#me70718ecac" x="152.729693" y="193.294702" style="fill: #2f4f4f; stroke: #2f4f4f"/>
     <use xlink:href="#me70718ecac" x="132.10842" y="163.02909" style="fill: #2f4f4f; stroke: #2f4f4f"/>
     <use xlink:href="#me70718ecac" x="102.28487" y="150.208392" style="fill: #2f4f4f; stroke: #2f4f4f"/>
    </g>
   </g>
   <g id="PathCollection_4">
    <defs>
     <path id="m8f5008fc8d" d="M 0 1.5 
C 0.397805 1.5 0.77937 1.341951 1.06066 1.06066 
C 1.341951 0.77937 1.5 0.397805 1.5 0 
C 1.5 -0.397805 1.341951 -0.77937 1.06066 -1.06066 
C 0.77937 -1.341951 0.397805 -1.5 0 -1.5 
C -0.397805 -1.5 -0.77937 -1.341951 -1.06066 -1.06066 
C -1.341951 -0.77937 -1.5 -0.397805 -1.5 0 
C -1.5 0.397805 -1.341951 0.77937 -1.06066 1.06066 
C -0.77937 1.341951 -0.397805 1.5 0 1.5 
z
" style="stroke: #00bfff"/>
    </defs>
    <g clip-path="url(#pa60a1b913e)">
     <use xlink:href="#m8f5008fc8d" x="121.060144" y="164.509788" style="fill: #00bfff; stroke: #00bfff"/>
     <use xlink:href="#m8f5008fc8d" x="125.924501" y="145.418008" style="fill: #00bfff; stroke: #00bfff"/>
     <use xlink:href="#m8f5008fc8d" x="154.339432" y="155.92409" style="fill: #00bfff; stroke: #00bfff"/>
     <use xlink:href="#m8f5008fc8d" x="154.169143" y="136.51903" style="fill: #00bfff; stroke: #00bfff"/>
     <use xlink:href="#m8f5008fc8d" x="218.109529" y="148.000243" style="fill: #00bfff; stroke: #00bfff"/>
     <use xlink:href="#m8f5008fc8d" x="147.900779" y="150.737622" style="fill: #00bfff; stroke: #00bfff"/>
     <use xlink:href="#m8f5008fc8d" x="154.150726" y="167.528615" style="fill: #00bfff; stroke: #00bfff"/>
     <use xlink:href="#m8f5008fc8d" x="97.607291" y="151.212385" style="fill: #00bfff; stroke: #00bfff"/>
     <use xlink:href="#m8f5008fc8d" x="51.537415" y="139.93899" style="fill: #00bfff; stroke: #00bfff"/>
     <use xlink:href="#m8f5008fc8d" x="100.747159" y="134.355556" style="fill: #00bfff; stroke: #00bfff"/>
     <use xlink:href="#m8f5008fc8d" x="163.030659" y="89.881748" style="fill: #00bfff; stroke: #00bfff"/>
     <use xlink:href="#m8f5008fc8d" x="132.750657" y="161.568677" style="fill: #00bfff; stroke: #00bfff"/>
     <use xlink:href="#m8f5008fc8d" x="123.939868" y="118.39357" style="fill: #00bfff; stroke: #00bfff"/>
    </g>
   </g>
   <g id="PathCollection_5">
    <defs>
     <path id="m8e7e29107c" d="M 0 1.5 
C 0.397805 1.5 0.77937 1.341951 1.06066 1.06066 
C 1.341951 0.77937 1.5 0.397805 1.5 0 
C 1.5 -0.397805 1.341951 -0.77937 1.06066 -1.06066 
C 0.77937 -1.341951 0.397805 -1.5 0 -1.5 
C -0.397805 -1.5 -0.77937 -1.341951 -1.06066 -1.06066 
C -1.341951 -0.77937 -1.5 -0.397805 -1.5 0 
C -1.5 0.397805 -1.341951 0.77937 -1.06066 1.06066 
C -0.77937 1.341951 -0.397805 1.5 0 1.5 
z
" style="stroke: #ffff00"/>
    </defs>
    <g clip-path="url(#pa60a1b913e)">
     <use xlink:href="#m8e7e29107c" x="131.660905" y="122.940707" style="fill: #ffff00; stroke: #ffff00"/>
     <use xlink:href="#m8e7e29107c" x="102.487314" y="87.660116" style="fill: #ffff00; stroke: #ffff00"/>
     <use xlink:href="#m8e7e29107c" x="125.458539" y="123.642134" style="fill: #ffff00; stroke: #ffff00"/>
     <use xlink:href="#m8e7e29107c" x="186.13106" y="98.593116" style="fill: #ffff00; stroke: #ffff00"/>
     <use xlink:href="#m8e7e29107c" x="156.033082" y="100.408858" style="fill: #ffff00; stroke: #ffff00"/>
     <use xlink:href="#m8e7e29107c" x="101.29747" y="142.566724" style="fill: #ffff00; stroke: #ffff00"/>
     <use xlink:href="#m8e7e29107c" x="181.220478" y="119.767726" style="fill: #ffff00; stroke: #ffff00"/>
     <use xlink:href="#m8e7e29107c" x="122.181106" y="93.762198" style="fill: #ffff00; stroke: #ffff00"/>
     <use xlink:href="#m8e7e29107c" x="125.866244" y="97.404983" style="fill: #ffff00; stroke: #ffff00"/>
     <use xlink:href="#m8e7e29107c" x="110.767937" y="90.752173" style="fill: #ffff00; stroke: #ffff00"/>
     <use xlink:href="#m8e7e29107c" x="160.600367" y="133.29253" style="fill: #ffff00; stroke: #ffff00"/>
     <use xlink:href="#m8e7e29107c" x="115.498569" y="158.911069" style="fill: #ffff00; stroke: #ffff00"/>
     <use xlink:href="#m8e7e29107c" x="217.825704" y="51.380319" style="fill: #ffff00; stroke: #ffff00"/>
    </g>
   </g>
   <g id="PathCollection_6">
    <defs>
     <path id="me4ccf2ed35" d="M 0 1.5 
C 0.397805 1.5 0.77937 1.341951 1.06066 1.06066 
C 1.341951 0.77937 1.5 0.397805 1.5 0 
C 1.5 -0.397805 1.341951 -0.77937 1.06066 -1.06066 
C 0.77937 -1.341951 0.397805 -1.5 0 -1.5 
C -0.397805 -1.5 -0.77937 -1.341951 -1.06066 -1.06066 
C -1.341951 -0.77937 -1.5 -0.397805 -1.5 0 
C -1.5 0.397805 -1.341951 0.77937 -1.06066 1.06066 
C -0.77937 1.341951 -0.397805 1.5 0 1.5 
z
" style="stroke: #00ffff"/>
    </defs>
    <g clip-path="url(#pa60a1b913e)">
     <use xlink:href="#me4ccf2ed35" x="171.868989" y="156.081199" style="fill: #00ffff; stroke: #00ffff"/>
     <use xlink:href="#me4ccf2ed35" x="120.440301" y="145.450809" style="fill: #00ffff; stroke: #00ffff"/>
     <use xlink:href="#me4ccf2ed35" x="194.375653" y="157.628061" style="fill: #00ffff; stroke: #00ffff"/>
     <use xlink:href="#me4ccf2ed35" x="165.15945" y="141.294016" style="fill: #00ffff; stroke: #00ffff"/>
     <use xlink:href="#me4ccf2ed35" x="186.848341" y="145.221593" style="fill: #00ffff; stroke: #00ffff"/>
     <use xlink:href="#me4ccf2ed35" x="208.96429" y="162.801733" style="fill: #00ffff; stroke: #00ffff"/>
     <use xlink:href="#me4ccf2ed35" x="276.032358" y="150.713086" style="fill: #00ffff; stroke: #00ffff"/>
     <use xlink:href="#me4ccf2ed35" x="164.414784" y="119.166945" style="fill: #00ffff; stroke: #00ffff"/>
     <use xlink:href="#me4ccf2ed35" x="181.899054" y="186.540003" style="fill: #00ffff; stroke: #00ffff"/>
     <use xlink:href="#me4ccf2ed35" x="134.616076" y="159.455352" style="fill: #00ffff; stroke: #00ffff"/>
     <use xlink:href="#me4ccf2ed35" x="168.642776" y="141.562669" style="fill: #00ffff; stroke: #00ffff"/>
     <use xlink:href="#me4ccf2ed35" x="118.638355" y="173.962663" style="fill: #00ffff; stroke: #00ffff"/>
     <use xlink:href="#me4ccf2ed35" x="183.389445" y="144.643669" style="fill: #00ffff; stroke: #00ffff"/>
     <use xlink:href="#me4ccf2ed35" x="109.22615" y="171.464739" style="fill: #00ffff; stroke: #00ffff"/>
     <use xlink:href="#me4ccf2ed35" x="126.263339" y="113.910004" style="fill: #00ffff; stroke: #00ffff"/>
     <use xlink:href="#me4ccf2ed35" x="179.308315" y="188.818227" style="fill: #00ffff; stroke: #00ffff"/>
    </g>
   </g>
   <g id="PathCollection_7">
    <defs>
     <path id="mb4d659dfea" d="M 0 1.5 
C 0.397805 1.5 0.77937 1.341951 1.06066 1.06066 
C 1.341951 0.77937 1.5 0.397805 1.5 0 
C 1.5 -0.397805 1.341951 -0.77937 1.06066 -1.06066 
C 0.77937 -1.341951 0.397805 -1.5 0 -1.5 
C -0.397805 -1.5 -0.77937 -1.341951 -1.06066 -1.06066 
C -1.341951 -0.77937 -1.5 -0.397805 -1.5 0 
C -1.5 0.397805 -1.341951 0.77937 -1.06066 1.06066 
C -0.77937 1.341951 -0.397805 1.5 0 1.5 
z
" style="stroke: #0000ff"/>
    </defs>
    <g clip-path="url(#pa60a1b913e)">
     <use xlink:href="#mb4d659dfea" x="208.595384" y="175.837709" style="fill: #0000ff; stroke: #0000ff"/>
     <use xlink:href="#mb4d659dfea" x="160.202026" y="119.699297" style="fill: #0000ff; stroke: #0000ff"/>
     <use xlink:href="#mb4d659dfea" x="250.438235" y="151.095801" style="fill: #0000ff; stroke: #0000ff"/>
     <use xlink:href="#mb4d659dfea" x="139.370918" y="124.684259" style="fill: #0000ff; stroke: #0000ff"/>
     <use xlink:href="#mb4d659dfea" x="183.973578" y="153.307979" style="fill: #0000ff; stroke: #0000ff"/>
     <use xlink:href="#mb4d659dfea" x="100.370525" y="112.270217" style="fill: #0000ff; stroke: #0000ff"/>
     <use xlink:href="#mb4d659dfea" x="236.424531" y="168.661497" style="fill: #0000ff; stroke: #0000ff"/>
     <use xlink:href="#mb4d659dfea" x="255.856421" y="191.944152" style="fill: #0000ff; stroke: #0000ff"/>
     <use xlink:href="#mb4d659dfea" x="106.233501" y="161.805628" style="fill: #0000ff; stroke: #0000ff"/>
     <use xlink:href="#mb4d659dfea" x="216.098687" y="147.404026" style="fill: #0000ff; stroke: #0000ff"/>
     <use xlink:href="#mb4d659dfea" x="149.351095" y="101.591927" style="fill: #0000ff; stroke: #0000ff"/>
    </g>
   </g>
   <g id="PathCollection_8">
    <defs>
     <path id="mb4ec855745" d="M 0 1.5 
C 0.397805 1.5 0.77937 1.341951 1.06066 1.06066 
C 1.341951 0.77937 1.5 0.397805 1.5 0 
C 1.5 -0.397805 1.341951 -0.77937 1.06066 -1.06066 
C 0.77937 -1.341951 0.397805 -1.5 0 -1.5 
C -0.397805 -1.5 -0.77937 -1.341951 -1.06066 -1.06066 
C -1.341951 -0.77937 -1.5 -0.397805 -1.5 0 
C -1.5 0.397805 -1.341951 0.77937 -1.06066 1.06066 
C -0.77937 1.341951 -0.397805 1.5 0 1.5 
z
" style="stroke: #dc143c"/>
    </defs>
    <g clip-path="url(#pa60a1b913e)">
     <use xlink:href="#mb4ec855745" x="223.531742" y="206.62196" style="fill: #dc143c; stroke: #dc143c"/>
     <use xlink:href="#mb4ec855745" x="142.685635" y="140.5441" style="fill: #dc143c; stroke: #dc143c"/>
     <use xlink:href="#mb4ec855745" x="99.25709" y="151.35165" style="fill: #dc143c; stroke: #dc143c"/>
     <use xlink:href="#mb4ec855745" x="224.836894" y="105.134864" style="fill: #dc143c; stroke: #dc143c"/>
     <use xlink:href="#mb4ec855745" x="92.090741" y="170.377358" style="fill: #dc143c; stroke: #dc143c"/>
     <use xlink:href="#mb4ec855745" x="172.592245" y="77.626648" style="fill: #dc143c; stroke: #dc143c"/>
     <use xlink:href="#mb4ec855745" x="129.431901" y="155.018936" style="fill: #dc143c; stroke: #dc143c"/>
     <use xlink:href="#mb4ec855745" x="96.574681" y="151.248069" style="fill: #dc143c; stroke: #dc143c"/>
     <use xlink:href="#mb4ec855745" x="170.633304" y="161.517475" style="fill: #dc143c; stroke: #dc143c"/>
     <use xlink:href="#mb4ec855745" x="194.294831" y="145.064708" style="fill: #dc143c; stroke: #dc143c"/>
     <use xlink:href="#mb4ec855745" x="112.820609" y="157.268224" style="fill: #dc143c; stroke: #dc143c"/>
    </g>
   </g>
   <g id="PathCollection_9">
    <defs>
     <path id="me06d4eab74" d="M 0 1.5 
C 0.397805 1.5 0.77937 1.341951 1.06066 1.06066 
C 1.341951 0.77937 1.5 0.397805 1.5 0 
C 1.5 -0.397805 1.341951 -0.77937 1.06066 -1.06066 
C 0.77937 -1.341951 0.397805 -1.5 0 -1.5 
C -0.397805 -1.5 -0.77937 -1.341951 -1.06066 -1.06066 
C -1.341951 -0.77937 -1.5 -0.397805 -1.5 0 
C -1.5 0.397805 -1.341951 0.77937 -1.06066 1.06066 
C -0.77937 1.341951 -0.397805 1.5 0 1.5 
z
" style="stroke: #ffe4c4"/>
    </defs>
    <g clip-path="url(#pa60a1b913e)">
     <use xlink:href="#me06d4eab74" x="351.696005" y="149.211653" style="fill: #ffe4c4; stroke: #ffe4c4"/>
     <use xlink:href="#me06d4eab74" x="244.091079" y="161.583581" style="fill: #ffe4c4; stroke: #ffe4c4"/>
     <use xlink:href="#me06d4eab74" x="131.033566" y="204.398015" style="fill: #ffe4c4; stroke: #ffe4c4"/>
     <use xlink:href="#me06d4eab74" x="126.84709" y="160.406806" style="fill: #ffe4c4; stroke: #ffe4c4"/>
     <use xlink:href="#me06d4eab74" x="142.40374" y="100.725317" style="fill: #ffe4c4; stroke: #ffe4c4"/>
     <use xlink:href="#me06d4eab74" x="298.399631" y="200.933151" style="fill: #ffe4c4; stroke: #ffe4c4"/>
     <use xlink:href="#me06d4eab74" x="207.807935" y="109.609235" style="fill: #ffe4c4; stroke: #ffe4c4"/>
     <use xlink:href="#me06d4eab74" x="278.114619" y="215.221175" style="fill: #ffe4c4; stroke: #ffe4c4"/>
     <use xlink:href="#me06d4eab74" x="207.115246" y="146.350404" style="fill: #ffe4c4; stroke: #ffe4c4"/>
     <use xlink:href="#me06d4eab74" x="223.826375" y="205.822814" style="fill: #ffe4c4; stroke: #ffe4c4"/>
     <use xlink:href="#me06d4eab74" x="156.596526" y="152.016714" style="fill: #ffe4c4; stroke: #ffe4c4"/>
     <use xlink:href="#me06d4eab74" x="218.022544" y="147.647144" style="fill: #ffe4c4; stroke: #ffe4c4"/>
     <use xlink:href="#me06d4eab74" x="214.617041" y="178.905938" style="fill: #ffe4c4; stroke: #ffe4c4"/>
     <use xlink:href="#me06d4eab74" x="276.931728" y="184.045453" style="fill: #ffe4c4; stroke: #ffe4c4"/>
     <use xlink:href="#me06d4eab74" x="190.417382" y="130.688093" style="fill: #ffe4c4; stroke: #ffe4c4"/>
     <use xlink:href="#me06d4eab74" x="166.248152" y="138.701904" style="fill: #ffe4c4; stroke: #ffe4c4"/>
     <use xlink:href="#me06d4eab74" x="266.592446" y="201.412797" style="fill: #ffe4c4; stroke: #ffe4c4"/>
     <use xlink:href="#me06d4eab74" x="271.990962" y="205.539089" style="fill: #ffe4c4; stroke: #ffe4c4"/>
     <use xlink:href="#me06d4eab74" x="226.178439" y="153.212584" style="fill: #ffe4c4; stroke: #ffe4c4"/>
     <use xlink:href="#me06d4eab74" x="145.573749" y="201.998259" style="fill: #ffe4c4; stroke: #ffe4c4"/>
     <use xlink:href="#me06d4eab74" x="184.433424" y="124.945856" style="fill: #ffe4c4; stroke: #ffe4c4"/>
     <use xlink:href="#me06d4eab74" x="279.242141" y="188.368294" style="fill: #ffe4c4; stroke: #ffe4c4"/>
     <use xlink:href="#me06d4eab74" x="197.809874" y="139.791372" style="fill: #ffe4c4; stroke: #ffe4c4"/>
    </g>
   </g>
   <g id="PathCollection_10">
    <defs>
     <path id="m906d6ba4a4" d="M -2.99994 2.99994 
L 3.00006 2.99994 
L 3.00006 -3.00006 
L -2.99994 -3.00006 
z
" style="stroke: #000000"/>
    </defs>
    <g clip-path="url(#pa60a1b913e)">
     <use xlink:href="#m906d6ba4a4" x="231.437212" y="205.64266" style="stroke: #000000"/>
     <use xlink:href="#m906d6ba4a4" x="240.340439" y="194.911846" style="stroke: #000000"/>
     <use xlink:href="#m906d6ba4a4" x="165.374623" y="234.01502" style="stroke: #000000"/>
     <use xlink:href="#m906d6ba4a4" x="286.004757" y="157.486012" style="stroke: #000000"/>
     <use xlink:href="#m906d6ba4a4" x="247.588493" y="193.313937" style="stroke: #000000"/>
     <use xlink:href="#m906d6ba4a4" x="189.844647" y="148.753313" style="stroke: #000000"/>
     <use xlink:href="#m906d6ba4a4" x="266.415955" y="141.702162" style="stroke: #000000"/>
     <use xlink:href="#m906d6ba4a4" x="215.592007" y="146.448833" style="stroke: #000000"/>
     <use xlink:href="#m906d6ba4a4" x="130.811995" y="109.511369" style="stroke: #000000"/>
     <use xlink:href="#m906d6ba4a4" x="114.722693" y="124.942703" style="stroke: #000000"/>
     <use xlink:href="#m906d6ba4a4" x="199.102889" y="174.365022" style="stroke: #000000"/>
     <use xlink:href="#m906d6ba4a4" x="151.657936" y="161.984498" style="stroke: #000000"/>
     <use xlink:href="#m906d6ba4a4" x="219.199956" y="143.919147" style="stroke: #000000"/>
     <use xlink:href="#m906d6ba4a4" x="237.426233" y="111.375237" style="stroke: #000000"/>
     <use xlink:href="#m906d6ba4a4" x="184.482161" y="235.005759" style="stroke: #000000"/>
     <use xlink:href="#m906d6ba4a4" x="208.949326" y="189.409365" style="stroke: #000000"/>
     <use xlink:href="#m906d6ba4a4" x="181.313168" y="119.283148" style="stroke: #000000"/>
     <use xlink:href="#m906d6ba4a4" x="173.771947" y="100.254293" style="stroke: #000000"/>
     <use xlink:href="#m906d6ba4a4" x="205.77173" y="227.625635" style="stroke: #000000"/>
     <use xlink:href="#m906d6ba4a4" x="212.443851" y="149.613493" style="stroke: #000000"/>
     <use xlink:href="#m906d6ba4a4" x="193.85281" y="192.457439" style="stroke: #000000"/>
     <use xlink:href="#m906d6ba4a4" x="245.426265" y="19.296" style="stroke: #000000"/>
     <use xlink:href="#m906d6ba4a4" x="135.489963" y="146.075041" style="stroke: #000000"/>
     <use xlink:href="#m906d6ba4a4" x="169.030596" y="129.298127" style="stroke: #000000"/>
     <use xlink:href="#m906d6ba4a4" x="140.865712" y="213.197022" style="stroke: #000000"/>
     <use xlink:href="#m906d6ba4a4" x="165.08929" y="83.752563" style="stroke: #000000"/>
     <use xlink:href="#m906d6ba4a4" x="129.297445" y="202.921644" style="stroke: #000000"/>
     <use xlink:href="#m906d6ba4a4" x="206.11003" y="145.712696" style="stroke: #000000"/>
     <use xlink:href="#m906d6ba4a4" x="240.689411" y="210.809297" style="stroke: #000000"/>
     <use xlink:href="#m906d6ba4a4" x="217.055276" y="109.122289" style="stroke: #000000"/>
     <use xlink:href="#m906d6ba4a4" x="249.007083" y="195.526827" style="stroke: #000000"/>
     <use xlink:href="#m906d6ba4a4" x="169.782285" y="110.872001" style="stroke: #000000"/>
     <use xlink:href="#m906d6ba4a4" x="174.673471" y="204.762841" style="stroke: #000000"/>
     <use xlink:href="#m906d6ba4a4" x="170.878459" y="94.343421" style="stroke: #000000"/>
     <use xlink:href="#m906d6ba4a4" x="122.034292" y="65.651571" style="stroke: #000000"/>
     <use xlink:href="#m906d6ba4a4" x="199.597616" y="118.699294" style="stroke: #000000"/>
     <use xlink:href="#m906d6ba4a4" x="159.393908" y="175.908277" style="stroke: #000000"/>
     <use xlink:href="#m906d6ba4a4" x="144.959439" y="158.727967" style="stroke: #000000"/>
     <use xlink:href="#m906d6ba4a4" x="189.112455" y="115.071536" style="stroke: #000000"/>
     <use xlink:href="#m906d6ba4a4" x="123.061032" y="217.688394" style="stroke: #000000"/>
     <use xlink:href="#m906d6ba4a4" x="262.251899" y="90.312171" style="stroke: #000000"/>
     <use xlink:href="#m906d6ba4a4" x="127.672562" y="76.717563" style="stroke: #000000"/>
     <use xlink:href="#m906d6ba4a4" x="151.107952" y="130.399022" style="stroke: #000000"/>
     <use xlink:href="#m906d6ba4a4" x="200.299208" y="98.004157" style="stroke: #000000"/>
     <use xlink:href="#m906d6ba4a4" x="122.918558" y="153.682264" style="stroke: #000000"/>
     <use xlink:href="#m906d6ba4a4" x="198.622681" y="153.364132" style="stroke: #000000"/>
     <use xlink:href="#m906d6ba4a4" x="141.044155" y="171.581453" style="stroke: #000000"/>
     <use xlink:href="#m906d6ba4a4" x="180.853952" y="176.007753" style="stroke: #000000"/>
     <use xlink:href="#m906d6ba4a4" x="128.976001" y="167.885291" style="stroke: #000000"/>
     <use xlink:href="#m906d6ba4a4" x="96.725095" y="160.956959" style="stroke: #000000"/>
     <use xlink:href="#m906d6ba4a4" x="165.998188" y="114.857595" style="stroke: #000000"/>
     <use xlink:href="#m906d6ba4a4" x="189.135105" y="132.081794" style="stroke: #000000"/>
     <use xlink:href="#m906d6ba4a4" x="92.862373" y="112.335938" style="stroke: #000000"/>
     <use xlink:href="#m906d6ba4a4" x="171.878012" y="183.551733" style="stroke: #000000"/>
     <use xlink:href="#m906d6ba4a4" x="242.848336" y="222.22892" style="stroke: #000000"/>
     <use xlink:href="#m906d6ba4a4" x="192.237905" y="165.635764" style="stroke: #000000"/>
     <use xlink:href="#m906d6ba4a4" x="183.960341" y="127.189832" style="stroke: #000000"/>
     <use xlink:href="#m906d6ba4a4" x="107.028034" y="117.695114" style="stroke: #000000"/>
     <use xlink:href="#m906d6ba4a4" x="165.106948" y="142.275148" style="stroke: #000000"/>
     <use xlink:href="#m906d6ba4a4" x="150.625546" y="151.997048" style="stroke: #000000"/>
     <use xlink:href="#m906d6ba4a4" x="216.892675" y="184.906087" style="stroke: #000000"/>
     <use xlink:href="#m906d6ba4a4" x="60.772889" y="192.849217" style="stroke: #000000"/>
     <use xlink:href="#m906d6ba4a4" x="219.438258" y="104.966724" style="stroke: #000000"/>
     <use xlink:href="#m906d6ba4a4" x="207.569917" y="150.442537" style="stroke: #000000"/>
    </g>
   </g>
   <g id="PathCollection_11">
    <defs>
     <path id="m6a07a039df" d="M -3 -0 
L 3 3 
L 3 -3 
z
" style="stroke: #ff8c00"/>
    </defs>
    <g clip-path="url(#pa60a1b913e)">
     <use xlink:href="#m6a07a039df" x="166.23202" y="126.088074" style="fill: #ff8c00; stroke: #ff8c00"/>
     <use xlink:href="#m6a07a039df" x="184.981596" y="101.150308" style="fill: #ff8c00; stroke: #ff8c00"/>
     <use xlink:href="#m6a07a039df" x="203.182731" y="202.093575" style="fill: #ff8c00; stroke: #ff8c00"/>
     <use xlink:href="#m6a07a039df" x="140.207741" y="147.552713" style="fill: #ff8c00; stroke: #ff8c00"/>
     <use xlink:href="#m6a07a039df" x="273.394928" y="85.781492" style="fill: #ff8c00; stroke: #ff8c00"/>
     <use xlink:href="#m6a07a039df" x="256.232277" y="148.437892" style="fill: #ff8c00; stroke: #ff8c00"/>
     <use xlink:href="#m6a07a039df" x="274.717675" y="147.642982" style="fill: #ff8c00; stroke: #ff8c00"/>
     <use xlink:href="#m6a07a039df" x="152.788899" y="129.006349" style="fill: #ff8c00; stroke: #ff8c00"/>
     <use xlink:href="#m6a07a039df" x="67.886001" y="162.456971" style="fill: #ff8c00; stroke: #ff8c00"/>
     <use xlink:href="#m6a07a039df" x="229.569155" y="86.88543" style="fill: #ff8c00; stroke: #ff8c00"/>
     <use xlink:href="#m6a07a039df" x="245.802945" y="59.190658" style="fill: #ff8c00; stroke: #ff8c00"/>
     <use xlink:href="#m6a07a039df" x="292.419149" y="165.166656" style="fill: #ff8c00; stroke: #ff8c00"/>
     <use xlink:href="#m6a07a039df" x="241.19074" y="189.054062" style="fill: #ff8c00; stroke: #ff8c00"/>
     <use xlink:href="#m6a07a039df" x="262.295948" y="219.03261" style="fill: #ff8c00; stroke: #ff8c00"/>
     <use xlink:href="#m6a07a039df" x="357.713056" y="169.493601" style="fill: #ff8c00; stroke: #ff8c00"/>
     <use xlink:href="#m6a07a039df" x="216.898665" y="65.0214" style="fill: #ff8c00; stroke: #ff8c00"/>
     <use xlink:href="#m6a07a039df" x="376.19196" y="116.808503" style="fill: #ff8c00; stroke: #ff8c00"/>
     <use xlink:href="#m6a07a039df" x="153.424981" y="62.708178" style="fill: #ff8c00; stroke: #ff8c00"/>
     <use xlink:href="#m6a07a039df" x="239.281845" y="157.610691" style="fill: #ff8c00; stroke: #ff8c00"/>
     <use xlink:href="#m6a07a039df" x="155.193598" y="103.985503" style="fill: #ff8c00; stroke: #ff8c00"/>
     <use xlink:href="#m6a07a039df" x="238.038238" y="96.558967" style="fill: #ff8c00; stroke: #ff8c00"/>
     <use xlink:href="#m6a07a039df" x="224.231176" y="138.249472" style="fill: #ff8c00; stroke: #ff8c00"/>
     <use xlink:href="#m6a07a039df" x="222.95742" y="173.384075" style="fill: #ff8c00; stroke: #ff8c00"/>
     <use xlink:href="#m6a07a039df" x="305.25781" y="176.743963" style="fill: #ff8c00; stroke: #ff8c00"/>
     <use xlink:href="#m6a07a039df" x="234.364834" y="123.63063" style="fill: #ff8c00; stroke: #ff8c00"/>
     <use xlink:href="#m6a07a039df" x="341.984051" y="136.224248" style="fill: #ff8c00; stroke: #ff8c00"/>
     <use xlink:href="#m6a07a039df" x="241.821821" y="97.716018" style="fill: #ff8c00; stroke: #ff8c00"/>
     <use xlink:href="#m6a07a039df" x="184.748874" y="84.984382" style="fill: #ff8c00; stroke: #ff8c00"/>
     <use xlink:href="#m6a07a039df" x="238.353494" y="166.474649" style="fill: #ff8c00; stroke: #ff8c00"/>
     <use xlink:href="#m6a07a039df" x="242.188279" y="129.139472" style="fill: #ff8c00; stroke: #ff8c00"/>
     <use xlink:href="#m6a07a039df" x="275.34465" y="151.945188" style="fill: #ff8c00; stroke: #ff8c00"/>
     <use xlink:href="#m6a07a039df" x="142.578027" y="166.718978" style="fill: #ff8c00; stroke: #ff8c00"/>
     <use xlink:href="#m6a07a039df" x="259.424108" y="78.083382" style="fill: #ff8c00; stroke: #ff8c00"/>
     <use xlink:href="#m6a07a039df" x="213.202034" y="186.605486" style="fill: #ff8c00; stroke: #ff8c00"/>
     <use xlink:href="#m6a07a039df" x="326.70047" y="155.462901" style="fill: #ff8c00; stroke: #ff8c00"/>
     <use xlink:href="#m6a07a039df" x="248.57955" y="115.470116" style="fill: #ff8c00; stroke: #ff8c00"/>
     <use xlink:href="#m6a07a039df" x="231.523494" y="122.948161" style="fill: #ff8c00; stroke: #ff8c00"/>
     <use xlink:href="#m6a07a039df" x="335.368392" y="202.288024" style="fill: #ff8c00; stroke: #ff8c00"/>
     <use xlink:href="#m6a07a039df" x="204.731683" y="143.138253" style="fill: #ff8c00; stroke: #ff8c00"/>
     <use xlink:href="#m6a07a039df" x="255.136322" y="128.874454" style="fill: #ff8c00; stroke: #ff8c00"/>
     <use xlink:href="#m6a07a039df" x="269.331235" y="167.277417" style="fill: #ff8c00; stroke: #ff8c00"/>
     <use xlink:href="#m6a07a039df" x="287.071491" y="152.508796" style="fill: #ff8c00; stroke: #ff8c00"/>
     <use xlink:href="#m6a07a039df" x="234.437383" y="134.657922" style="fill: #ff8c00; stroke: #ff8c00"/>
     <use xlink:href="#m6a07a039df" x="194.658939" y="156.204844" style="fill: #ff8c00; stroke: #ff8c00"/>
     <use xlink:href="#m6a07a039df" x="177.393574" y="129.151545" style="fill: #ff8c00; stroke: #ff8c00"/>
     <use xlink:href="#m6a07a039df" x="230.0994" y="65.739131" style="fill: #ff8c00; stroke: #ff8c00"/>
     <use xlink:href="#m6a07a039df" x="241.747376" y="161.253127" style="fill: #ff8c00; stroke: #ff8c00"/>
     <use xlink:href="#m6a07a039df" x="308.272961" y="79.964807" style="fill: #ff8c00; stroke: #ff8c00"/>
     <use xlink:href="#m6a07a039df" x="264.072876" y="77.957048" style="fill: #ff8c00; stroke: #ff8c00"/>
     <use xlink:href="#m6a07a039df" x="199.887771" y="240.704938" style="fill: #ff8c00; stroke: #ff8c00"/>
     <use xlink:href="#m6a07a039df" x="257.20714" y="145.961708" style="fill: #ff8c00; stroke: #ff8c00"/>
     <use xlink:href="#m6a07a039df" x="186.768089" y="164.455809" style="fill: #ff8c00; stroke: #ff8c00"/>
     <use xlink:href="#m6a07a039df" x="235.554484" y="121.001756" style="fill: #ff8c00; stroke: #ff8c00"/>
     <use xlink:href="#m6a07a039df" x="327.682144" y="123.951001" style="fill: #ff8c00; stroke: #ff8c00"/>
     <use xlink:href="#m6a07a039df" x="138.875239" y="123.581594" style="fill: #ff8c00; stroke: #ff8c00"/>
     <use xlink:href="#m6a07a039df" x="205.74184" y="91.601228" style="fill: #ff8c00; stroke: #ff8c00"/>
     <use xlink:href="#m6a07a039df" x="195.795986" y="90.748018" style="fill: #ff8c00; stroke: #ff8c00"/>
     <use xlink:href="#m6a07a039df" x="270.341532" y="116.017666" style="fill: #ff8c00; stroke: #ff8c00"/>
     <use xlink:href="#m6a07a039df" x="211.239476" y="124.466693" style="fill: #ff8c00; stroke: #ff8c00"/>
     <use xlink:href="#m6a07a039df" x="303.4962" y="146.743211" style="fill: #ff8c00; stroke: #ff8c00"/>
     <use xlink:href="#m6a07a039df" x="236.860905" y="66.448742" style="fill: #ff8c00; stroke: #ff8c00"/>
     <use xlink:href="#m6a07a039df" x="234.759659" y="44.790062" style="fill: #ff8c00; stroke: #ff8c00"/>
     <use xlink:href="#m6a07a039df" x="212.943804" y="134.859018" style="fill: #ff8c00; stroke: #ff8c00"/>
     <use xlink:href="#m6a07a039df" x="150.869306" y="194.03857" style="fill: #ff8c00; stroke: #ff8c00"/>
    </g>
   </g>
   <g id="matplotlib.axis_1">
    <g id="xtick_1">
     <g id="line2d_1">
      <defs>
       <path id="m9d4b3255a5" d="M 0 0 
L 0 3.5 
" style="stroke: #000000; stroke-width: 0.8"/>
      </defs>
      <g>
       <use xlink:href="#m9d4b3255a5" x="85.141715" y="273.312" style="stroke: #000000; stroke-width: 0.8"/>
      </g>
     </g>
     <g id="text_1">
      <!-- −20 -->
      <g transform="translate(74.589371 287.910437) scale(0.1 -0.1)">
       <defs>
        <path id="DejaVuSans-2212" d="M 678 2272 
L 4684 2272 
L 4684 1741 
L 678 1741 
L 678 2272 
z
" transform="scale(0.015625)"/>
        <path id="DejaVuSans-32" d="M 1228 531 
L 3431 531 
L 3431 0 
L 469 0 
L 469 531 
Q 828 903 1448 1529 
Q 2069 2156 2228 2338 
Q 2531 2678 2651 2914 
Q 2772 3150 2772 3378 
Q 2772 3750 2511 3984 
Q 2250 4219 1831 4219 
Q 1534 4219 1204 4116 
Q 875 4013 500 3803 
L 500 4441 
Q 881 4594 1212 4672 
Q 1544 4750 1819 4750 
Q 2544 4750 2975 4387 
Q 3406 4025 3406 3419 
Q 3406 3131 3298 2873 
Q 3191 2616 2906 2266 
Q 2828 2175 2409 1742 
Q 1991 1309 1228 531 
z
" transform="scale(0.015625)"/>
        <path id="DejaVuSans-30" d="M 2034 4250 
Q 1547 4250 1301 3770 
Q 1056 3291 1056 2328 
Q 1056 1369 1301 889 
Q 1547 409 2034 409 
Q 2525 409 2770 889 
Q 3016 1369 3016 2328 
Q 3016 3291 2770 3770 
Q 2525 4250 2034 4250 
z
M 2034 4750 
Q 2819 4750 3233 4129 
Q 3647 3509 3647 2328 
Q 3647 1150 3233 529 
Q 2819 -91 2034 -91 
Q 1250 -91 836 529 
Q 422 1150 422 2328 
Q 422 3509 836 4129 
Q 1250 4750 2034 4750 
z
" transform="scale(0.015625)"/>
       </defs>
       <use xlink:href="#DejaVuSans-2212"/>
       <use xlink:href="#DejaVuSans-32" x="83.789062"/>
       <use xlink:href="#DejaVuSans-30" x="147.412109"/>
      </g>
     </g>
    </g>
    <g id="xtick_2">
     <g id="line2d_2">
      <g>
       <use xlink:href="#m9d4b3255a5" x="138.755319" y="273.312" style="stroke: #000000; stroke-width: 0.8"/>
      </g>
     </g>
     <g id="text_2">
      <!-- −10 -->
      <g transform="translate(128.202975 287.910437) scale(0.1 -0.1)">
       <defs>
        <path id="DejaVuSans-31" d="M 794 531 
L 1825 531 
L 1825 4091 
L 703 3866 
L 703 4441 
L 1819 4666 
L 2450 4666 
L 2450 531 
L 3481 531 
L 3481 0 
L 794 0 
L 794 531 
z
" transform="scale(0.015625)"/>
       </defs>
       <use xlink:href="#DejaVuSans-2212"/>
       <use xlink:href="#DejaVuSans-31" x="83.789062"/>
       <use xlink:href="#DejaVuSans-30" x="147.412109"/>
      </g>
     </g>
    </g>
    <g id="xtick_3">
     <g id="line2d_3">
      <g>
       <use xlink:href="#m9d4b3255a5" x="192.368924" y="273.312" style="stroke: #000000; stroke-width: 0.8"/>
      </g>
     </g>
     <g id="text_3">
      <!-- 0 -->
      <g transform="translate(189.187674 287.910437) scale(0.1 -0.1)">
       <use xlink:href="#DejaVuSans-30"/>
      </g>
     </g>
    </g>
    <g id="xtick_4">
     <g id="line2d_4">
      <g>
       <use xlink:href="#m9d4b3255a5" x="245.982528" y="273.312" style="stroke: #000000; stroke-width: 0.8"/>
      </g>
     </g>
     <g id="text_4">
      <!-- 10 -->
      <g transform="translate(239.620028 287.910437) scale(0.1 -0.1)">
       <use xlink:href="#DejaVuSans-31"/>
       <use xlink:href="#DejaVuSans-30" x="63.623047"/>
      </g>
     </g>
    </g>
    <g id="xtick_5">
     <g id="line2d_5">
      <g>
       <use xlink:href="#m9d4b3255a5" x="299.596133" y="273.312" style="stroke: #000000; stroke-width: 0.8"/>
      </g>
     </g>
     <g id="text_5">
      <!-- 20 -->
      <g transform="translate(293.233633 287.910437) scale(0.1 -0.1)">
       <use xlink:href="#DejaVuSans-32"/>
       <use xlink:href="#DejaVuSans-30" x="63.623047"/>
      </g>
     </g>
    </g>
    <g id="xtick_6">
     <g id="line2d_6">
      <g>
       <use xlink:href="#m9d4b3255a5" x="353.209737" y="273.312" style="stroke: #000000; stroke-width: 0.8"/>
      </g>
     </g>
     <g id="text_6">
      <!-- 30 -->
      <g transform="translate(346.847237 287.910437) scale(0.1 -0.1)">
       <defs>
        <path id="DejaVuSans-33" d="M 2597 2516 
Q 3050 2419 3304 2112 
Q 3559 1806 3559 1356 
Q 3559 666 3084 287 
Q 2609 -91 1734 -91 
Q 1441 -91 1130 -33 
Q 819 25 488 141 
L 488 750 
Q 750 597 1062 519 
Q 1375 441 1716 441 
Q 2309 441 2620 675 
Q 2931 909 2931 1356 
Q 2931 1769 2642 2001 
Q 2353 2234 1838 2234 
L 1294 2234 
L 1294 2753 
L 1863 2753 
Q 2328 2753 2575 2939 
Q 2822 3125 2822 3475 
Q 2822 3834 2567 4026 
Q 2313 4219 1838 4219 
Q 1578 4219 1281 4162 
Q 984 4106 628 3988 
L 628 4550 
Q 988 4650 1302 4700 
Q 1616 4750 1894 4750 
Q 2613 4750 3031 4423 
Q 3450 4097 3450 3541 
Q 3450 3153 3228 2886 
Q 3006 2619 2597 2516 
z
" transform="scale(0.015625)"/>
       </defs>
       <use xlink:href="#DejaVuSans-33"/>
       <use xlink:href="#DejaVuSans-30" x="63.623047"/>
      </g>
     </g>
    </g>
   </g>
   <g id="matplotlib.axis_2">
    <g id="ytick_1">
     <g id="line2d_7">
      <defs>
       <path id="m5b06cccef4" d="M 0 0 
L -3.5 0 
" style="stroke: #000000; stroke-width: 0.8"/>
      </defs>
      <g>
       <use xlink:href="#m5b06cccef4" x="35.304688" y="248.273634" style="stroke: #000000; stroke-width: 0.8"/>
      </g>
     </g>
     <g id="text_7">
      <!-- −20 -->
      <g transform="translate(7.2 252.072853) scale(0.1 -0.1)">
       <use xlink:href="#DejaVuSans-2212"/>
       <use xlink:href="#DejaVuSans-32" x="83.789062"/>
       <use xlink:href="#DejaVuSans-30" x="147.412109"/>
      </g>
     </g>
    </g>
    <g id="ytick_2">
     <g id="line2d_8">
      <g>
       <use xlink:href="#m5b06cccef4" x="35.304688" y="196.101352" style="stroke: #000000; stroke-width: 0.8"/>
      </g>
     </g>
     <g id="text_8">
      <!-- −10 -->
      <g transform="translate(7.2 199.900571) scale(0.1 -0.1)">
       <use xlink:href="#DejaVuSans-2212"/>
       <use xlink:href="#DejaVuSans-31" x="83.789062"/>
       <use xlink:href="#DejaVuSans-30" x="147.412109"/>
      </g>
     </g>
    </g>
    <g id="ytick_3">
     <g id="line2d_9">
      <g>
       <use xlink:href="#m5b06cccef4" x="35.304688" y="143.92907" style="stroke: #000000; stroke-width: 0.8"/>
      </g>
     </g>
     <g id="text_9">
      <!-- 0 -->
      <g transform="translate(21.942187 147.728289) scale(0.1 -0.1)">
       <use xlink:href="#DejaVuSans-30"/>
      </g>
     </g>
    </g>
    <g id="ytick_4">
     <g id="line2d_10">
      <g>
       <use xlink:href="#m5b06cccef4" x="35.304688" y="91.756788" style="stroke: #000000; stroke-width: 0.8"/>
      </g>
     </g>
     <g id="text_10">
      <!-- 10 -->
      <g transform="translate(15.579687 95.556007) scale(0.1 -0.1)">
       <use xlink:href="#DejaVuSans-31"/>
       <use xlink:href="#DejaVuSans-30" x="63.623047"/>
      </g>
     </g>
    </g>
    <g id="ytick_5">
     <g id="line2d_11">
      <g>
       <use xlink:href="#m5b06cccef4" x="35.304688" y="39.584506" style="stroke: #000000; stroke-width: 0.8"/>
      </g>
     </g>
     <g id="text_11">
      <!-- 20 -->
      <g transform="translate(15.579687 43.383725) scale(0.1 -0.1)">
       <use xlink:href="#DejaVuSans-32"/>
       <use xlink:href="#DejaVuSans-30" x="63.623047"/>
      </g>
     </g>
    </g>
   </g>
   <g id="patch_3">
    <path d="M 35.304688 273.312 
L 35.304688 7.2 
" style="fill: none; stroke: #000000; stroke-width: 0.8; stroke-linejoin: miter; stroke-linecap: square"/>
   </g>
   <g id="patch_4">
    <path d="M 392.424688 273.312 
L 392.424688 7.2 
" style="fill: none; stroke: #000000; stroke-width: 0.8; stroke-linejoin: miter; stroke-linecap: square"/>
   </g>
   <g id="patch_5">
    <path d="M 35.304688 273.312 
L 392.424688 273.312 
" style="fill: none; stroke: #000000; stroke-width: 0.8; stroke-linejoin: miter; stroke-linecap: square"/>
   </g>
   <g id="patch_6">
    <path d="M 35.304688 7.2 
L 392.424688 7.2 
" style="fill: none; stroke: #000000; stroke-width: 0.8; stroke-linejoin: miter; stroke-linecap: square"/>
   </g>
  </g>
 </g>
 <defs>
  <clipPath id="pa60a1b913e">
   <rect x="35.304688" y="7.2" width="357.12" height="266.112"/>
  </clipPath>
 </defs>
</svg>
