<?xml version="1.0" encoding="utf-8" standalone="no"?>
<!DOCTYPE svg PUBLIC "-//W3C//DTD SVG 1.1//EN"
  "http://www.w3.org/Graphics/SVG/1.1/DTD/svg11.dtd">
<svg xmlns:xlink="http://www.w3.org/1999/xlink" width="399.624687pt" height="297.190125pt" viewBox="0 0 399.624687 297.190125" xmlns="http://www.w3.org/2000/svg" version="1.1">
 <metadata>
  <rdf:RDF xmlns:dc="http://purl.org/dc/elements/1.1/" xmlns:cc="http://creativecommons.org/ns#" xmlns:rdf="http://www.w3.org/1999/02/22-rdf-syntax-ns#">
   <cc:Work>
    <dc:type rdf:resource="http://purl.org/dc/dcmitype/StillImage"/>
    <dc:date>2023-11-11T16:30:17.051433</dc:date>
    <dc:format>image/svg+xml</dc:format>
    <dc:creator>
     <cc:Agent>
      <dc:title>Matplotlib v3.8.0, https://matplotlib.org/</dc:title>
     </cc:Agent>
    </dc:creator>
   </cc:Work>
  </rdf:RDF>
 </metadata>
 <defs>
  <style type="text/css">*{stroke-linejoin: round; stroke-linecap: butt}</style>
 </defs>
 <g id="figure_1">
  <g id="patch_1">
   <path d="M 0 297.190125 
L 399.624687 297.190125 
L 399.624687 0 
L 0 0 
z
" style="fill: #ffffff"/>
  </g>
  <g id="axes_1">
   <g id="patch_2">
    <path d="M 35.304688 273.312 
L 392.424688 273.312 
L 392.424688 7.2 
L 35.304688 7.2 
z
" style="fill: #ffffff"/>
   </g>
   <g id="PathCollection_1">
    <defs>
     <path id="md074b51266" d="M 0 1.5 
C 0.397805 1.5 0.77937 1.341951 1.06066 1.06066 
C 1.341951 0.77937 1.5 0.397805 1.5 0 
C 1.5 -0.397805 1.341951 -0.77937 1.06066 -1.06066 
C 0.77937 -1.341951 0.397805 -1.5 0 -1.5 
C -0.397805 -1.5 -0.77937 -1.341951 -1.06066 -1.06066 
C -1.341951 -0.77937 -1.5 -0.397805 -1.5 0 
C -1.5 0.397805 -1.341951 0.77937 -1.06066 1.06066 
C -0.77937 1.341951 -0.397805 1.5 0 1.5 
z
" style="stroke: #ff8c00"/>
    </defs>
    <g clip-path="url(#peecb34bf02)">
     <use xlink:href="#md074b51266" x="119.324821" y="153.622225" style="fill: #ff8c00; stroke: #ff8c00"/>
     <use xlink:href="#md074b51266" x="134.87773" y="193.713413" style="fill: #ff8c00; stroke: #ff8c00"/>
     <use xlink:href="#md074b51266" x="131.338791" y="162.005299" style="fill: #ff8c00; stroke: #ff8c00"/>
     <use xlink:href="#md074b51266" x="164.642107" y="160.40902" style="fill: #ff8c00; stroke: #ff8c00"/>
     <use xlink:href="#md074b51266" x="211.853979" y="159.653441" style="fill: #ff8c00; stroke: #ff8c00"/>
     <use xlink:href="#md074b51266" x="167.061537" y="185.132982" style="fill: #ff8c00; stroke: #ff8c00"/>
     <use xlink:href="#md074b51266" x="176.012324" y="159.906076" style="fill: #ff8c00; stroke: #ff8c00"/>
     <use xlink:href="#md074b51266" x="117.624964" y="110.424581" style="fill: #ff8c00; stroke: #ff8c00"/>
     <use xlink:href="#md074b51266" x="116.289591" y="169.566422" style="fill: #ff8c00; stroke: #ff8c00"/>
     <use xlink:href="#md074b51266" x="185.582003" y="155.444253" style="fill: #ff8c00; stroke: #ff8c00"/>
     <use xlink:href="#md074b51266" x="248.533927" y="191.617211" style="fill: #ff8c00; stroke: #ff8c00"/>
     <use xlink:href="#md074b51266" x="200.393085" y="162.566074" style="fill: #ff8c00; stroke: #ff8c00"/>
     <use xlink:href="#md074b51266" x="145.288315" y="137.369036" style="fill: #ff8c00; stroke: #ff8c00"/>
     <use xlink:href="#md074b51266" x="169.472094" y="184.88862" style="fill: #ff8c00; stroke: #ff8c00"/>
     <use xlink:href="#md074b51266" x="154.681941" y="126.618769" style="fill: #ff8c00; stroke: #ff8c00"/>
     <use xlink:href="#md074b51266" x="143.052336" y="169.195429" style="fill: #ff8c00; stroke: #ff8c00"/>
     <use xlink:href="#md074b51266" x="206.621251" y="143.022696" style="fill: #ff8c00; stroke: #ff8c00"/>
    </g>
   </g>
   <g id="PathCollection_2">
    <defs>
     <path id="m3e1d3ecb0d" d="M 0 1.5 
C 0.397805 1.5 0.77937 1.341951 1.06066 1.06066 
C 1.341951 0.77937 1.5 0.397805 1.5 0 
C 1.5 -0.397805 1.341951 -0.77937 1.06066 -1.06066 
C 0.77937 -1.341951 0.397805 -1.5 0 -1.5 
C -0.397805 -1.5 -0.77937 -1.341951 -1.06066 -1.06066 
C -1.341951 -0.77937 -1.5 -0.397805 -1.5 0 
C -1.5 0.397805 -1.341951 0.77937 -1.06066 1.06066 
C -0.77937 1.341951 -0.397805 1.5 0 1.5 
z
" style="stroke: #006400"/>
    </defs>
    <g clip-path="url(#peecb34bf02)">
     <use xlink:href="#m3e1d3ecb0d" x="144.030184" y="151.576928" style="fill: #006400; stroke: #006400"/>
     <use xlink:href="#m3e1d3ecb0d" x="160.626772" y="70.702184" style="fill: #006400; stroke: #006400"/>
     <use xlink:href="#m3e1d3ecb0d" x="140.837131" y="34.569472" style="fill: #006400; stroke: #006400"/>
     <use xlink:href="#m3e1d3ecb0d" x="131.231704" y="130.114571" style="fill: #006400; stroke: #006400"/>
     <use xlink:href="#m3e1d3ecb0d" x="156.521519" y="109.311162" style="fill: #006400; stroke: #006400"/>
     <use xlink:href="#m3e1d3ecb0d" x="203.434187" y="47.095461" style="fill: #006400; stroke: #006400"/>
     <use xlink:href="#m3e1d3ecb0d" x="164.300645" y="112.032726" style="fill: #006400; stroke: #006400"/>
     <use xlink:href="#m3e1d3ecb0d" x="146.428527" y="95.252512" style="fill: #006400; stroke: #006400"/>
     <use xlink:href="#m3e1d3ecb0d" x="159.665047" y="77.968862" style="fill: #006400; stroke: #006400"/>
     <use xlink:href="#m3e1d3ecb0d" x="114.501866" y="83.562216" style="fill: #006400; stroke: #006400"/>
     <use xlink:href="#m3e1d3ecb0d" x="104.737416" y="134.375365" style="fill: #006400; stroke: #006400"/>
    </g>
   </g>
   <g id="PathCollection_3">
    <defs>
     <path id="m9155417179" d="M 0 1.5 
C 0.397805 1.5 0.77937 1.341951 1.06066 1.06066 
C 1.341951 0.77937 1.5 0.397805 1.5 0 
C 1.5 -0.397805 1.341951 -0.77937 1.06066 -1.06066 
C 0.77937 -1.341951 0.397805 -1.5 0 -1.5 
C -0.397805 -1.5 -0.77937 -1.341951 -1.06066 -1.06066 
C -1.341951 -0.77937 -1.5 -0.397805 -1.5 0 
C -1.5 0.397805 -1.341951 0.77937 -1.06066 1.06066 
C -0.77937 1.341951 -0.397805 1.5 0 1.5 
z
" style="stroke: #2f4f4f"/>
    </defs>
    <g clip-path="url(#peecb34bf02)">
     <use xlink:href="#m9155417179" x="67.962059" y="149.613789" style="fill: #2f4f4f; stroke: #2f4f4f"/>
     <use xlink:href="#m9155417179" x="78.450443" y="150.833211" style="fill: #2f4f4f; stroke: #2f4f4f"/>
     <use xlink:href="#m9155417179" x="112.386326" y="179.608311" style="fill: #2f4f4f; stroke: #2f4f4f"/>
     <use xlink:href="#m9155417179" x="97.552717" y="171.466967" style="fill: #2f4f4f; stroke: #2f4f4f"/>
     <use xlink:href="#m9155417179" x="143.478446" y="188.912051" style="fill: #2f4f4f; stroke: #2f4f4f"/>
     <use xlink:href="#m9155417179" x="175.29743" y="141.999962" style="fill: #2f4f4f; stroke: #2f4f4f"/>
     <use xlink:href="#m9155417179" x="223.470554" y="185.320699" style="fill: #2f4f4f; stroke: #2f4f4f"/>
     <use xlink:href="#m9155417179" x="109.88103" y="143.083913" style="fill: #2f4f4f; stroke: #2f4f4f"/>
     <use xlink:href="#m9155417179" x="89.140795" y="157.227612" style="fill: #2f4f4f; stroke: #2f4f4f"/>
     <use xlink:href="#m9155417179" x="137.09833" y="164.570553" style="fill: #2f4f4f; stroke: #2f4f4f"/>
     <use xlink:href="#m9155417179" x="100.965252" y="127.825994" style="fill: #2f4f4f; stroke: #2f4f4f"/>
     <use xlink:href="#m9155417179" x="116.947491" y="140.634538" style="fill: #2f4f4f; stroke: #2f4f4f"/>
     <use xlink:href="#m9155417179" x="152.838375" y="186.826129" style="fill: #2f4f4f; stroke: #2f4f4f"/>
     <use xlink:href="#m9155417179" x="163.47976" y="129.595054" style="fill: #2f4f4f; stroke: #2f4f4f"/>
    </g>
   </g>
   <g id="PathCollection_4">
    <defs>
     <path id="m9187ed7d08" d="M 0 1.5 
C 0.397805 1.5 0.77937 1.341951 1.06066 1.06066 
C 1.341951 0.77937 1.5 0.397805 1.5 0 
C 1.5 -0.397805 1.341951 -0.77937 1.06066 -1.06066 
C 0.77937 -1.341951 0.397805 -1.5 0 -1.5 
C -0.397805 -1.5 -0.77937 -1.341951 -1.06066 -1.06066 
C -1.341951 -0.77937 -1.5 -0.397805 -1.5 0 
C -1.5 0.397805 -1.341951 0.77937 -1.06066 1.06066 
C -0.77937 1.341951 -0.397805 1.5 0 1.5 
z
" style="stroke: #00bfff"/>
    </defs>
    <g clip-path="url(#peecb34bf02)">
     <use xlink:href="#m9187ed7d08" x="99.4274" y="166.577781" style="fill: #00bfff; stroke: #00bfff"/>
     <use xlink:href="#m9187ed7d08" x="189.003964" y="92.660823" style="fill: #00bfff; stroke: #00bfff"/>
     <use xlink:href="#m9187ed7d08" x="134.241961" y="140.787638" style="fill: #00bfff; stroke: #00bfff"/>
     <use xlink:href="#m9187ed7d08" x="138.603674" y="148.636436" style="fill: #00bfff; stroke: #00bfff"/>
     <use xlink:href="#m9187ed7d08" x="127.746039" y="170.014752" style="fill: #00bfff; stroke: #00bfff"/>
     <use xlink:href="#m9187ed7d08" x="107.419207" y="89.807521" style="fill: #00bfff; stroke: #00bfff"/>
     <use xlink:href="#m9187ed7d08" x="117.428757" y="160.336282" style="fill: #00bfff; stroke: #00bfff"/>
     <use xlink:href="#m9187ed7d08" x="167.400567" y="173.787234" style="fill: #00bfff; stroke: #00bfff"/>
     <use xlink:href="#m9187ed7d08" x="142.121951" y="110.354433" style="fill: #00bfff; stroke: #00bfff"/>
     <use xlink:href="#m9187ed7d08" x="134.53704" y="249.948173" style="fill: #00bfff; stroke: #00bfff"/>
     <use xlink:href="#m9187ed7d08" x="151.242099" y="152.383813" style="fill: #00bfff; stroke: #00bfff"/>
     <use xlink:href="#m9187ed7d08" x="102.99789" y="231.332754" style="fill: #00bfff; stroke: #00bfff"/>
     <use xlink:href="#m9187ed7d08" x="116.376165" y="144.044249" style="fill: #00bfff; stroke: #00bfff"/>
     <use xlink:href="#m9187ed7d08" x="144.185939" y="134.683794" style="fill: #00bfff; stroke: #00bfff"/>
     <use xlink:href="#m9187ed7d08" x="134.310852" y="210.169659" style="fill: #00bfff; stroke: #00bfff"/>
     <use xlink:href="#m9187ed7d08" x="184.088262" y="155.424191" style="fill: #00bfff; stroke: #00bfff"/>
    </g>
   </g>
   <g id="PathCollection_5">
    <defs>
     <path id="mc4b3ae49d6" d="M 0 1.5 
C 0.397805 1.5 0.77937 1.341951 1.06066 1.06066 
C 1.341951 0.77937 1.5 0.397805 1.5 0 
C 1.5 -0.397805 1.341951 -0.77937 1.06066 -1.06066 
C 0.77937 -1.341951 0.397805 -1.5 0 -1.5 
C -0.397805 -1.5 -0.77937 -1.341951 -1.06066 -1.06066 
C -1.341951 -0.77937 -1.5 -0.397805 -1.5 0 
C -1.5 0.397805 -1.341951 0.77937 -1.06066 1.06066 
C -0.77937 1.341951 -0.397805 1.5 0 1.5 
z
" style="stroke: #ffff00"/>
    </defs>
    <g clip-path="url(#peecb34bf02)">
     <use xlink:href="#mc4b3ae49d6" x="181.446753" y="193.456565" style="fill: #ffff00; stroke: #ffff00"/>
     <use xlink:href="#mc4b3ae49d6" x="137.027528" y="172.002933" style="fill: #ffff00; stroke: #ffff00"/>
     <use xlink:href="#mc4b3ae49d6" x="123.973298" y="159.179239" style="fill: #ffff00; stroke: #ffff00"/>
     <use xlink:href="#mc4b3ae49d6" x="129.139051" y="175.363767" style="fill: #ffff00; stroke: #ffff00"/>
     <use xlink:href="#mc4b3ae49d6" x="161.700664" y="209.122281" style="fill: #ffff00; stroke: #ffff00"/>
     <use xlink:href="#mc4b3ae49d6" x="148.021529" y="167.643007" style="fill: #ffff00; stroke: #ffff00"/>
     <use xlink:href="#mc4b3ae49d6" x="91.583217" y="210.704842" style="fill: #ffff00; stroke: #ffff00"/>
     <use xlink:href="#mc4b3ae49d6" x="133.146332" y="207.438656" style="fill: #ffff00; stroke: #ffff00"/>
     <use xlink:href="#mc4b3ae49d6" x="116.926408" y="76.533688" style="fill: #ffff00; stroke: #ffff00"/>
     <use xlink:href="#mc4b3ae49d6" x="90.844366" y="152.438192" style="fill: #ffff00; stroke: #ffff00"/>
     <use xlink:href="#mc4b3ae49d6" x="172.373521" y="63.154975" style="fill: #ffff00; stroke: #ffff00"/>
    </g>
   </g>
   <g id="PathCollection_6">
    <defs>
     <path id="m68a149f2d3" d="M 0 1.5 
C 0.397805 1.5 0.77937 1.341951 1.06066 1.06066 
C 1.341951 0.77937 1.5 0.397805 1.5 0 
C 1.5 -0.397805 1.341951 -0.77937 1.06066 -1.06066 
C 0.77937 -1.341951 0.397805 -1.5 0 -1.5 
C -0.397805 -1.5 -0.77937 -1.341951 -1.06066 -1.06066 
C -1.341951 -0.77937 -1.5 -0.397805 -1.5 0 
C -1.5 0.397805 -1.341951 0.77937 -1.06066 1.06066 
C -0.77937 1.341951 -0.397805 1.5 0 1.5 
z
" style="stroke: #00ffff"/>
    </defs>
    <g clip-path="url(#peecb34bf02)">
     <use xlink:href="#m68a149f2d3" x="126.07603" y="178.900043" style="fill: #00ffff; stroke: #00ffff"/>
     <use xlink:href="#m68a149f2d3" x="93.700838" y="192.577752" style="fill: #00ffff; stroke: #00ffff"/>
     <use xlink:href="#m68a149f2d3" x="185.663485" y="200.294455" style="fill: #00ffff; stroke: #00ffff"/>
     <use xlink:href="#m68a149f2d3" x="150.989954" y="216.452161" style="fill: #00ffff; stroke: #00ffff"/>
     <use xlink:href="#m68a149f2d3" x="109.129448" y="236.355789" style="fill: #00ffff; stroke: #00ffff"/>
     <use xlink:href="#m68a149f2d3" x="114.741915" y="230.380855" style="fill: #00ffff; stroke: #00ffff"/>
     <use xlink:href="#m68a149f2d3" x="170.062107" y="139.700124" style="fill: #00ffff; stroke: #00ffff"/>
     <use xlink:href="#m68a149f2d3" x="148.441096" y="173.364773" style="fill: #00ffff; stroke: #00ffff"/>
     <use xlink:href="#m68a149f2d3" x="106.865012" y="165.347585" style="fill: #00ffff; stroke: #00ffff"/>
     <use xlink:href="#m68a149f2d3" x="112.466776" y="199.333522" style="fill: #00ffff; stroke: #00ffff"/>
     <use xlink:href="#m68a149f2d3" x="185.771698" y="108.565548" style="fill: #00ffff; stroke: #00ffff"/>
     <use xlink:href="#m68a149f2d3" x="148.643987" y="203.139991" style="fill: #00ffff; stroke: #00ffff"/>
     <use xlink:href="#m68a149f2d3" x="100.171476" y="199.024589" style="fill: #00ffff; stroke: #00ffff"/>
     <use xlink:href="#m68a149f2d3" x="208.01241" y="192.07604" style="fill: #00ffff; stroke: #00ffff"/>
     <use xlink:href="#m68a149f2d3" x="90.98065" y="107.887139" style="fill: #00ffff; stroke: #00ffff"/>
     <use xlink:href="#m68a149f2d3" x="134.137046" y="161.398025" style="fill: #00ffff; stroke: #00ffff"/>
     <use xlink:href="#m68a149f2d3" x="109.145086" y="213.836803" style="fill: #00ffff; stroke: #00ffff"/>
     <use xlink:href="#m68a149f2d3" x="154.982361" y="261.216" style="fill: #00ffff; stroke: #00ffff"/>
     <use xlink:href="#m68a149f2d3" x="78.44484" y="202.060208" style="fill: #00ffff; stroke: #00ffff"/>
     <use xlink:href="#m68a149f2d3" x="210.898474" y="142.389215" style="fill: #00ffff; stroke: #00ffff"/>
     <use xlink:href="#m68a149f2d3" x="123.758078" y="159.138752" style="fill: #00ffff; stroke: #00ffff"/>
    </g>
   </g>
   <g id="PathCollection_7">
    <defs>
     <path id="mbdbaa96143" d="M 0 1.5 
C 0.397805 1.5 0.77937 1.341951 1.06066 1.06066 
C 1.341951 0.77937 1.5 0.397805 1.5 0 
C 1.5 -0.397805 1.341951 -0.77937 1.06066 -1.06066 
C 0.77937 -1.341951 0.397805 -1.5 0 -1.5 
C -0.397805 -1.5 -0.77937 -1.341951 -1.06066 -1.06066 
C -1.341951 -0.77937 -1.5 -0.397805 -1.5 0 
C -1.5 0.397805 -1.341951 0.77937 -1.06066 1.06066 
C -0.77937 1.341951 -0.397805 1.5 0 1.5 
z
" style="stroke: #0000ff"/>
    </defs>
    <g clip-path="url(#peecb34bf02)">
     <use xlink:href="#mbdbaa96143" x="151.986433" y="187.268268" style="fill: #0000ff; stroke: #0000ff"/>
     <use xlink:href="#mbdbaa96143" x="142.315316" y="170.923526" style="fill: #0000ff; stroke: #0000ff"/>
     <use xlink:href="#mbdbaa96143" x="133.333596" y="243.749309" style="fill: #0000ff; stroke: #0000ff"/>
     <use xlink:href="#mbdbaa96143" x="113.309447" y="196.862011" style="fill: #0000ff; stroke: #0000ff"/>
     <use xlink:href="#mbdbaa96143" x="154.803697" y="204.047694" style="fill: #0000ff; stroke: #0000ff"/>
     <use xlink:href="#mbdbaa96143" x="174.964688" y="149.034709" style="fill: #0000ff; stroke: #0000ff"/>
     <use xlink:href="#mbdbaa96143" x="145.534448" y="204.629378" style="fill: #0000ff; stroke: #0000ff"/>
     <use xlink:href="#mbdbaa96143" x="51.537415" y="185.197988" style="fill: #0000ff; stroke: #0000ff"/>
     <use xlink:href="#mbdbaa96143" x="147.213629" y="101.290558" style="fill: #0000ff; stroke: #0000ff"/>
     <use xlink:href="#mbdbaa96143" x="196.093656" y="237.679155" style="fill: #0000ff; stroke: #0000ff"/>
     <use xlink:href="#mbdbaa96143" x="198.104051" y="141.100457" style="fill: #0000ff; stroke: #0000ff"/>
     <use xlink:href="#mbdbaa96143" x="151.42046" y="147.684586" style="fill: #0000ff; stroke: #0000ff"/>
     <use xlink:href="#mbdbaa96143" x="110.867312" y="184.54958" style="fill: #0000ff; stroke: #0000ff"/>
     <use xlink:href="#mbdbaa96143" x="171.11155" y="162.078579" style="fill: #0000ff; stroke: #0000ff"/>
     <use xlink:href="#mbdbaa96143" x="116.0688" y="135.479594" style="fill: #0000ff; stroke: #0000ff"/>
     <use xlink:href="#mbdbaa96143" x="105.871346" y="189.340262" style="fill: #0000ff; stroke: #0000ff"/>
     <use xlink:href="#mbdbaa96143" x="86.524099" y="149.432865" style="fill: #0000ff; stroke: #0000ff"/>
    </g>
   </g>
   <g id="PathCollection_8">
    <defs>
     <path id="m7e9eede9b8" d="M 0 1.5 
C 0.397805 1.5 0.77937 1.341951 1.06066 1.06066 
C 1.341951 0.77937 1.5 0.397805 1.5 0 
C 1.5 -0.397805 1.341951 -0.77937 1.06066 -1.06066 
C 0.77937 -1.341951 0.397805 -1.5 0 -1.5 
C -0.397805 -1.5 -0.77937 -1.341951 -1.06066 -1.06066 
C -1.341951 -0.77937 -1.5 -0.397805 -1.5 0 
C -1.5 0.397805 -1.341951 0.77937 -1.06066 1.06066 
C -0.77937 1.341951 -0.397805 1.5 0 1.5 
z
" style="stroke: #dc143c"/>
    </defs>
    <g clip-path="url(#peecb34bf02)">
     <use xlink:href="#m7e9eede9b8" x="164.725067" y="139.548133" style="fill: #dc143c; stroke: #dc143c"/>
     <use xlink:href="#m7e9eede9b8" x="130.76617" y="154.577801" style="fill: #dc143c; stroke: #dc143c"/>
     <use xlink:href="#m7e9eede9b8" x="132.402134" y="99.217593" style="fill: #dc143c; stroke: #dc143c"/>
     <use xlink:href="#m7e9eede9b8" x="127.264438" y="110.610492" style="fill: #dc143c; stroke: #dc143c"/>
     <use xlink:href="#m7e9eede9b8" x="195.923649" y="116.773985" style="fill: #dc143c; stroke: #dc143c"/>
     <use xlink:href="#m7e9eede9b8" x="218.517033" y="109.003961" style="fill: #dc143c; stroke: #dc143c"/>
     <use xlink:href="#m7e9eede9b8" x="185.522351" y="99.89618" style="fill: #dc143c; stroke: #dc143c"/>
     <use xlink:href="#m7e9eede9b8" x="142.571609" y="128.151431" style="fill: #dc143c; stroke: #dc143c"/>
     <use xlink:href="#m7e9eede9b8" x="195.74998" y="111.521568" style="fill: #dc143c; stroke: #dc143c"/>
     <use xlink:href="#m7e9eede9b8" x="126.222622" y="57.944107" style="fill: #dc143c; stroke: #dc143c"/>
     <use xlink:href="#m7e9eede9b8" x="248.850508" y="119.074393" style="fill: #dc143c; stroke: #dc143c"/>
     <use xlink:href="#m7e9eede9b8" x="111.198723" y="174.805668" style="fill: #dc143c; stroke: #dc143c"/>
     <use xlink:href="#m7e9eede9b8" x="210.412641" y="148.8993" style="fill: #dc143c; stroke: #dc143c"/>
     <use xlink:href="#m7e9eede9b8" x="155.424656" y="167.523343" style="fill: #dc143c; stroke: #dc143c"/>
     <use xlink:href="#m7e9eede9b8" x="173.121876" y="143.267344" style="fill: #dc143c; stroke: #dc143c"/>
    </g>
   </g>
   <g id="PathCollection_9">
    <defs>
     <path id="mab6e41529a" d="M 0 1.5 
C 0.397805 1.5 0.77937 1.341951 1.06066 1.06066 
C 1.341951 0.77937 1.5 0.397805 1.5 0 
C 1.5 -0.397805 1.341951 -0.77937 1.06066 -1.06066 
C 0.77937 -1.341951 0.397805 -1.5 0 -1.5 
C -0.397805 -1.5 -0.77937 -1.341951 -1.06066 -1.06066 
C -1.341951 -0.77937 -1.5 -0.397805 -1.5 0 
C -1.5 0.397805 -1.341951 0.77937 -1.06066 1.06066 
C -0.77937 1.341951 -0.397805 1.5 0 1.5 
z
" style="stroke: #ffe4c4"/>
    </defs>
    <g clip-path="url(#peecb34bf02)">
     <use xlink:href="#mab6e41529a" x="169.315029" y="85.931638" style="fill: #ffe4c4; stroke: #ffe4c4"/>
     <use xlink:href="#mab6e41529a" x="113.078789" y="81.391215" style="fill: #ffe4c4; stroke: #ffe4c4"/>
     <use xlink:href="#mab6e41529a" x="150.583232" y="100.589348" style="fill: #ffe4c4; stroke: #ffe4c4"/>
     <use xlink:href="#mab6e41529a" x="144.490577" y="59.28601" style="fill: #ffe4c4; stroke: #ffe4c4"/>
     <use xlink:href="#mab6e41529a" x="139.131005" y="91.608464" style="fill: #ffe4c4; stroke: #ffe4c4"/>
     <use xlink:href="#mab6e41529a" x="168.387003" y="19.296" style="fill: #ffe4c4; stroke: #ffe4c4"/>
    </g>
   </g>
   <g id="PathCollection_10">
    <defs>
     <path id="m367c19bf37" d="M -2.99994 2.99994 
L 3.00006 2.99994 
L 3.00006 -3.00006 
L -2.99994 -3.00006 
z
" style="stroke: #000000"/>
    </defs>
    <g clip-path="url(#peecb34bf02)">
     <use xlink:href="#m367c19bf37" x="208.411515" y="174.857835" style="stroke: #000000"/>
     <use xlink:href="#m367c19bf37" x="132.342851" y="124.475473" style="stroke: #000000"/>
     <use xlink:href="#m367c19bf37" x="187.669348" y="125.013616" style="stroke: #000000"/>
     <use xlink:href="#m367c19bf37" x="237.117791" y="198.814868" style="stroke: #000000"/>
     <use xlink:href="#m367c19bf37" x="128.607785" y="149.719627" style="stroke: #000000"/>
     <use xlink:href="#m367c19bf37" x="197.372045" y="144.094586" style="stroke: #000000"/>
     <use xlink:href="#m367c19bf37" x="184.683793" y="144.185251" style="stroke: #000000"/>
     <use xlink:href="#m367c19bf37" x="239.268023" y="170.170433" style="stroke: #000000"/>
     <use xlink:href="#m367c19bf37" x="282.751353" y="238.009469" style="stroke: #000000"/>
     <use xlink:href="#m367c19bf37" x="148.926832" y="148.261094" style="stroke: #000000"/>
     <use xlink:href="#m367c19bf37" x="186.600265" y="165.014583" style="stroke: #000000"/>
     <use xlink:href="#m367c19bf37" x="256.504021" y="120.308775" style="stroke: #000000"/>
     <use xlink:href="#m367c19bf37" x="276.641819" y="232.876385" style="stroke: #000000"/>
     <use xlink:href="#m367c19bf37" x="188.556841" y="137.088814" style="stroke: #000000"/>
     <use xlink:href="#m367c19bf37" x="155.128876" y="198.422037" style="stroke: #000000"/>
     <use xlink:href="#m367c19bf37" x="205.165731" y="145.843968" style="stroke: #000000"/>
     <use xlink:href="#m367c19bf37" x="207.628697" y="154.47654" style="stroke: #000000"/>
     <use xlink:href="#m367c19bf37" x="162.571457" y="175.741691" style="stroke: #000000"/>
     <use xlink:href="#m367c19bf37" x="111.015638" y="166.179066" style="stroke: #000000"/>
     <use xlink:href="#m367c19bf37" x="154.766278" y="156.642516" style="stroke: #000000"/>
     <use xlink:href="#m367c19bf37" x="169.917518" y="206.831339" style="stroke: #000000"/>
     <use xlink:href="#m367c19bf37" x="160.77735" y="143.446477" style="stroke: #000000"/>
     <use xlink:href="#m367c19bf37" x="225.344915" y="166.407747" style="stroke: #000000"/>
     <use xlink:href="#m367c19bf37" x="125.253344" y="138.726264" style="stroke: #000000"/>
     <use xlink:href="#m367c19bf37" x="253.05004" y="93.195208" style="stroke: #000000"/>
     <use xlink:href="#m367c19bf37" x="171.593389" y="128.136552" style="stroke: #000000"/>
     <use xlink:href="#m367c19bf37" x="243.257998" y="179.305173" style="stroke: #000000"/>
     <use xlink:href="#m367c19bf37" x="187.031772" y="105.680089" style="stroke: #000000"/>
     <use xlink:href="#m367c19bf37" x="178.915096" y="40.219435" style="stroke: #000000"/>
     <use xlink:href="#m367c19bf37" x="228.954472" y="207.193886" style="stroke: #000000"/>
     <use xlink:href="#m367c19bf37" x="135.575687" y="201.071565" style="stroke: #000000"/>
     <use xlink:href="#m367c19bf37" x="110.489496" y="172.066031" style="stroke: #000000"/>
     <use xlink:href="#m367c19bf37" x="195.638339" y="177.626942" style="stroke: #000000"/>
     <use xlink:href="#m367c19bf37" x="305.346744" y="191.920057" style="stroke: #000000"/>
     <use xlink:href="#m367c19bf37" x="80.879567" y="167.460655" style="stroke: #000000"/>
     <use xlink:href="#m367c19bf37" x="213.181416" y="92.027943" style="stroke: #000000"/>
     <use xlink:href="#m367c19bf37" x="170.312854" y="191.348456" style="stroke: #000000"/>
     <use xlink:href="#m367c19bf37" x="250.616216" y="121.444519" style="stroke: #000000"/>
     <use xlink:href="#m367c19bf37" x="208.989284" y="239.267323" style="stroke: #000000"/>
     <use xlink:href="#m367c19bf37" x="294.64434" y="183.115916" style="stroke: #000000"/>
     <use xlink:href="#m367c19bf37" x="265.93668" y="146.410192" style="stroke: #000000"/>
     <use xlink:href="#m367c19bf37" x="376.19196" y="256.442392" style="stroke: #000000"/>
     <use xlink:href="#m367c19bf37" x="126.072697" y="134.262699" style="stroke: #000000"/>
     <use xlink:href="#m367c19bf37" x="220.837293" y="129.310356" style="stroke: #000000"/>
     <use xlink:href="#m367c19bf37" x="142.164727" y="103.723565" style="stroke: #000000"/>
     <use xlink:href="#m367c19bf37" x="135.564376" y="112.59545" style="stroke: #000000"/>
     <use xlink:href="#m367c19bf37" x="161.855338" y="120.713708" style="stroke: #000000"/>
     <use xlink:href="#m367c19bf37" x="138.39046" y="177.709617" style="stroke: #000000"/>
     <use xlink:href="#m367c19bf37" x="190.602491" y="147.62073" style="stroke: #000000"/>
     <use xlink:href="#m367c19bf37" x="181.617672" y="54.242312" style="stroke: #000000"/>
     <use xlink:href="#m367c19bf37" x="191.271372" y="126.762519" style="stroke: #000000"/>
     <use xlink:href="#m367c19bf37" x="257.078355" y="104.599624" style="stroke: #000000"/>
     <use xlink:href="#m367c19bf37" x="181.740405" y="94.885589" style="stroke: #000000"/>
     <use xlink:href="#m367c19bf37" x="125.300326" y="219.544443" style="stroke: #000000"/>
     <use xlink:href="#m367c19bf37" x="233.08162" y="94.784914" style="stroke: #000000"/>
     <use xlink:href="#m367c19bf37" x="243.894252" y="123.932943" style="stroke: #000000"/>
     <use xlink:href="#m367c19bf37" x="197.372045" y="144.094586" style="stroke: #000000"/>
     <use xlink:href="#m367c19bf37" x="256.454972" y="94.165428" style="stroke: #000000"/>
     <use xlink:href="#m367c19bf37" x="281.356962" y="173.549681" style="stroke: #000000"/>
     <use xlink:href="#m367c19bf37" x="252.242065" y="120.72967" style="stroke: #000000"/>
     <use xlink:href="#m367c19bf37" x="166.377238" y="172.437502" style="stroke: #000000"/>
     <use xlink:href="#m367c19bf37" x="253.945202" y="131.168143" style="stroke: #000000"/>
     <use xlink:href="#m367c19bf37" x="130.930032" y="143.198554" style="stroke: #000000"/>
     <use xlink:href="#m367c19bf37" x="164.798165" y="146.34077" style="stroke: #000000"/>
    </g>
   </g>
   <g id="PathCollection_11">
    <defs>
     <path id="mac8dc48ed5" d="M -3 -0 
L 3 3 
L 3 -3 
z
" style="stroke: #ff8c00"/>
    </defs>
    <g clip-path="url(#peecb34bf02)">
     <use xlink:href="#mac8dc48ed5" x="165.860338" y="144.696541" style="fill: #ff8c00; stroke: #ff8c00"/>
     <use xlink:href="#mac8dc48ed5" x="125.159544" y="190.23913" style="fill: #ff8c00; stroke: #ff8c00"/>
     <use xlink:href="#mac8dc48ed5" x="125.925927" y="132.133074" style="fill: #ff8c00; stroke: #ff8c00"/>
     <use xlink:href="#mac8dc48ed5" x="150.903581" y="124.038658" style="fill: #ff8c00; stroke: #ff8c00"/>
     <use xlink:href="#mac8dc48ed5" x="139.826151" y="110.003189" style="fill: #ff8c00; stroke: #ff8c00"/>
     <use xlink:href="#mac8dc48ed5" x="150.109421" y="161.756597" style="fill: #ff8c00; stroke: #ff8c00"/>
     <use xlink:href="#mac8dc48ed5" x="148.057228" y="144.03494" style="fill: #ff8c00; stroke: #ff8c00"/>
     <use xlink:href="#mac8dc48ed5" x="202.930961" y="76.87705" style="fill: #ff8c00; stroke: #ff8c00"/>
     <use xlink:href="#mac8dc48ed5" x="140.704381" y="123.542588" style="fill: #ff8c00; stroke: #ff8c00"/>
     <use xlink:href="#mac8dc48ed5" x="329.160266" y="209.864897" style="fill: #ff8c00; stroke: #ff8c00"/>
     <use xlink:href="#mac8dc48ed5" x="190.281978" y="132.411379" style="fill: #ff8c00; stroke: #ff8c00"/>
     <use xlink:href="#mac8dc48ed5" x="182.801048" y="106.381102" style="fill: #ff8c00; stroke: #ff8c00"/>
     <use xlink:href="#mac8dc48ed5" x="209.031233" y="25.538542" style="fill: #ff8c00; stroke: #ff8c00"/>
     <use xlink:href="#mac8dc48ed5" x="117.448196" y="181.777248" style="fill: #ff8c00; stroke: #ff8c00"/>
     <use xlink:href="#mac8dc48ed5" x="180.662094" y="183.47904" style="fill: #ff8c00; stroke: #ff8c00"/>
     <use xlink:href="#mac8dc48ed5" x="121.721271" y="125.399233" style="fill: #ff8c00; stroke: #ff8c00"/>
     <use xlink:href="#mac8dc48ed5" x="173.045493" y="182.478376" style="fill: #ff8c00; stroke: #ff8c00"/>
     <use xlink:href="#mac8dc48ed5" x="154.25118" y="153.184964" style="fill: #ff8c00; stroke: #ff8c00"/>
     <use xlink:href="#mac8dc48ed5" x="147.554518" y="114.269219" style="fill: #ff8c00; stroke: #ff8c00"/>
     <use xlink:href="#mac8dc48ed5" x="179.877506" y="118.535176" style="fill: #ff8c00; stroke: #ff8c00"/>
     <use xlink:href="#mac8dc48ed5" x="158.62007" y="171.903798" style="fill: #ff8c00; stroke: #ff8c00"/>
     <use xlink:href="#mac8dc48ed5" x="180.903501" y="160.842803" style="fill: #ff8c00; stroke: #ff8c00"/>
     <use xlink:href="#mac8dc48ed5" x="141.061949" y="111.11112" style="fill: #ff8c00; stroke: #ff8c00"/>
     <use xlink:href="#mac8dc48ed5" x="173.860184" y="166.910009" style="fill: #ff8c00; stroke: #ff8c00"/>
     <use xlink:href="#mac8dc48ed5" x="155.014353" y="141.87431" style="fill: #ff8c00; stroke: #ff8c00"/>
     <use xlink:href="#mac8dc48ed5" x="147.544791" y="194.73295" style="fill: #ff8c00; stroke: #ff8c00"/>
     <use xlink:href="#mac8dc48ed5" x="185.7378" y="184.269609" style="fill: #ff8c00; stroke: #ff8c00"/>
     <use xlink:href="#mac8dc48ed5" x="214.942108" y="97.73595" style="fill: #ff8c00; stroke: #ff8c00"/>
     <use xlink:href="#mac8dc48ed5" x="184.215523" y="120.763069" style="fill: #ff8c00; stroke: #ff8c00"/>
     <use xlink:href="#mac8dc48ed5" x="149.583644" y="225.46782" style="fill: #ff8c00; stroke: #ff8c00"/>
     <use xlink:href="#mac8dc48ed5" x="160.151917" y="163.824212" style="fill: #ff8c00; stroke: #ff8c00"/>
     <use xlink:href="#mac8dc48ed5" x="174.08927" y="137.935942" style="fill: #ff8c00; stroke: #ff8c00"/>
     <use xlink:href="#mac8dc48ed5" x="181.271498" y="102.54016" style="fill: #ff8c00; stroke: #ff8c00"/>
     <use xlink:href="#mac8dc48ed5" x="198.904958" y="112.900633" style="fill: #ff8c00; stroke: #ff8c00"/>
     <use xlink:href="#mac8dc48ed5" x="186.958819" y="202.63247" style="fill: #ff8c00; stroke: #ff8c00"/>
     <use xlink:href="#mac8dc48ed5" x="183.688552" y="210.799927" style="fill: #ff8c00; stroke: #ff8c00"/>
     <use xlink:href="#mac8dc48ed5" x="161.134293" y="124.765363" style="fill: #ff8c00; stroke: #ff8c00"/>
     <use xlink:href="#mac8dc48ed5" x="210.689393" y="163.50333" style="fill: #ff8c00; stroke: #ff8c00"/>
     <use xlink:href="#mac8dc48ed5" x="161.445761" y="175.29047" style="fill: #ff8c00; stroke: #ff8c00"/>
     <use xlink:href="#mac8dc48ed5" x="180.535514" y="111.681652" style="fill: #ff8c00; stroke: #ff8c00"/>
     <use xlink:href="#mac8dc48ed5" x="216.323212" y="190.414157" style="fill: #ff8c00; stroke: #ff8c00"/>
     <use xlink:href="#mac8dc48ed5" x="195.77412" y="139.020082" style="fill: #ff8c00; stroke: #ff8c00"/>
     <use xlink:href="#mac8dc48ed5" x="210.182109" y="99.850742" style="fill: #ff8c00; stroke: #ff8c00"/>
     <use xlink:href="#mac8dc48ed5" x="152.172469" y="135.260746" style="fill: #ff8c00; stroke: #ff8c00"/>
     <use xlink:href="#mac8dc48ed5" x="198.93732" y="172.633583" style="fill: #ff8c00; stroke: #ff8c00"/>
     <use xlink:href="#mac8dc48ed5" x="89.497794" y="107.365163" style="fill: #ff8c00; stroke: #ff8c00"/>
     <use xlink:href="#mac8dc48ed5" x="216.321543" y="197.972532" style="fill: #ff8c00; stroke: #ff8c00"/>
     <use xlink:href="#mac8dc48ed5" x="239.807522" y="162.662619" style="fill: #ff8c00; stroke: #ff8c00"/>
     <use xlink:href="#mac8dc48ed5" x="168.413187" y="170.117335" style="fill: #ff8c00; stroke: #ff8c00"/>
     <use xlink:href="#mac8dc48ed5" x="203.162364" y="159.912679" style="fill: #ff8c00; stroke: #ff8c00"/>
     <use xlink:href="#mac8dc48ed5" x="147.900497" y="123.299218" style="fill: #ff8c00; stroke: #ff8c00"/>
     <use xlink:href="#mac8dc48ed5" x="217.470114" y="160.354288" style="fill: #ff8c00; stroke: #ff8c00"/>
     <use xlink:href="#mac8dc48ed5" x="170.621193" y="141.137533" style="fill: #ff8c00; stroke: #ff8c00"/>
     <use xlink:href="#mac8dc48ed5" x="207.995496" y="204.013794" style="fill: #ff8c00; stroke: #ff8c00"/>
     <use xlink:href="#mac8dc48ed5" x="159.415656" y="85.052968" style="fill: #ff8c00; stroke: #ff8c00"/>
     <use xlink:href="#mac8dc48ed5" x="147.554518" y="114.269219" style="fill: #ff8c00; stroke: #ff8c00"/>
     <use xlink:href="#mac8dc48ed5" x="133.178597" y="175.96838" style="fill: #ff8c00; stroke: #ff8c00"/>
     <use xlink:href="#mac8dc48ed5" x="144.929952" y="128.347436" style="fill: #ff8c00; stroke: #ff8c00"/>
     <use xlink:href="#mac8dc48ed5" x="150.250063" y="154.606418" style="fill: #ff8c00; stroke: #ff8c00"/>
     <use xlink:href="#mac8dc48ed5" x="185.975004" y="103.830582" style="fill: #ff8c00; stroke: #ff8c00"/>
     <use xlink:href="#mac8dc48ed5" x="194.793745" y="110.639166" style="fill: #ff8c00; stroke: #ff8c00"/>
     <use xlink:href="#mac8dc48ed5" x="165.261129" y="132.543029" style="fill: #ff8c00; stroke: #ff8c00"/>
     <use xlink:href="#mac8dc48ed5" x="219.246283" y="170.069406" style="fill: #ff8c00; stroke: #ff8c00"/>
     <use xlink:href="#mac8dc48ed5" x="203.156953" y="222.313766" style="fill: #ff8c00; stroke: #ff8c00"/>
    </g>
   </g>
   <g id="matplotlib.axis_1">
    <g id="xtick_1">
     <g id="line2d_1">
      <defs>
       <path id="mb9b83dc2d2" d="M 0 0 
L 0 3.5 
" style="stroke: #000000; stroke-width: 0.8"/>
      </defs>
      <g>
       <use xlink:href="#mb9b83dc2d2" x="91.822111" y="273.312" style="stroke: #000000; stroke-width: 0.8"/>
      </g>
     </g>
     <g id="text_1">
      <!-- −20 -->
      <g transform="translate(81.269767 287.910437) scale(0.1 -0.1)">
       <defs>
        <path id="DejaVuSans-2212" d="M 678 2272 
L 4684 2272 
L 4684 1741 
L 678 1741 
L 678 2272 
z
" transform="scale(0.015625)"/>
        <path id="DejaVuSans-32" d="M 1228 531 
L 3431 531 
L 3431 0 
L 469 0 
L 469 531 
Q 828 903 1448 1529 
Q 2069 2156 2228 2338 
Q 2531 2678 2651 2914 
Q 2772 3150 2772 3378 
Q 2772 3750 2511 3984 
Q 2250 4219 1831 4219 
Q 1534 4219 1204 4116 
Q 875 4013 500 3803 
L 500 4441 
Q 881 4594 1212 4672 
Q 1544 4750 1819 4750 
Q 2544 4750 2975 4387 
Q 3406 4025 3406 3419 
Q 3406 3131 3298 2873 
Q 3191 2616 2906 2266 
Q 2828 2175 2409 1742 
Q 1991 1309 1228 531 
z
" transform="scale(0.015625)"/>
        <path id="DejaVuSans-30" d="M 2034 4250 
Q 1547 4250 1301 3770 
Q 1056 3291 1056 2328 
Q 1056 1369 1301 889 
Q 1547 409 2034 409 
Q 2525 409 2770 889 
Q 3016 1369 3016 2328 
Q 3016 3291 2770 3770 
Q 2525 4250 2034 4250 
z
M 2034 4750 
Q 2819 4750 3233 4129 
Q 3647 3509 3647 2328 
Q 3647 1150 3233 529 
Q 2819 -91 2034 -91 
Q 1250 -91 836 529 
Q 422 1150 422 2328 
Q 422 3509 836 4129 
Q 1250 4750 2034 4750 
z
" transform="scale(0.015625)"/>
       </defs>
       <use xlink:href="#DejaVuSans-2212"/>
       <use xlink:href="#DejaVuSans-32" x="83.789062"/>
       <use xlink:href="#DejaVuSans-30" x="147.412109"/>
      </g>
     </g>
    </g>
    <g id="xtick_2">
     <g id="line2d_2">
      <g>
       <use xlink:href="#mb9b83dc2d2" x="165.170374" y="273.312" style="stroke: #000000; stroke-width: 0.8"/>
      </g>
     </g>
     <g id="text_2">
      <!-- 0 -->
      <g transform="translate(161.989124 287.910437) scale(0.1 -0.1)">
       <use xlink:href="#DejaVuSans-30"/>
      </g>
     </g>
    </g>
    <g id="xtick_3">
     <g id="line2d_3">
      <g>
       <use xlink:href="#mb9b83dc2d2" x="238.518638" y="273.312" style="stroke: #000000; stroke-width: 0.8"/>
      </g>
     </g>
     <g id="text_3">
      <!-- 20 -->
      <g transform="translate(232.156138 287.910437) scale(0.1 -0.1)">
       <use xlink:href="#DejaVuSans-32"/>
       <use xlink:href="#DejaVuSans-30" x="63.623047"/>
      </g>
     </g>
    </g>
    <g id="xtick_4">
     <g id="line2d_4">
      <g>
       <use xlink:href="#mb9b83dc2d2" x="311.866901" y="273.312" style="stroke: #000000; stroke-width: 0.8"/>
      </g>
     </g>
     <g id="text_4">
      <!-- 40 -->
      <g transform="translate(305.504401 287.910437) scale(0.1 -0.1)">
       <defs>
        <path id="DejaVuSans-34" d="M 2419 4116 
L 825 1625 
L 2419 1625 
L 2419 4116 
z
M 2253 4666 
L 3047 4666 
L 3047 1625 
L 3713 1625 
L 3713 1100 
L 3047 1100 
L 3047 0 
L 2419 0 
L 2419 1100 
L 313 1100 
L 313 1709 
L 2253 4666 
z
" transform="scale(0.015625)"/>
       </defs>
       <use xlink:href="#DejaVuSans-34"/>
       <use xlink:href="#DejaVuSans-30" x="63.623047"/>
      </g>
     </g>
    </g>
    <g id="xtick_5">
     <g id="line2d_5">
      <g>
       <use xlink:href="#mb9b83dc2d2" x="385.215164" y="273.312" style="stroke: #000000; stroke-width: 0.8"/>
      </g>
     </g>
     <g id="text_5">
      <!-- 60 -->
      <g transform="translate(378.852664 287.910437) scale(0.1 -0.1)">
       <defs>
        <path id="DejaVuSans-36" d="M 2113 2584 
Q 1688 2584 1439 2293 
Q 1191 2003 1191 1497 
Q 1191 994 1439 701 
Q 1688 409 2113 409 
Q 2538 409 2786 701 
Q 3034 994 3034 1497 
Q 3034 2003 2786 2293 
Q 2538 2584 2113 2584 
z
M 3366 4563 
L 3366 3988 
Q 3128 4100 2886 4159 
Q 2644 4219 2406 4219 
Q 1781 4219 1451 3797 
Q 1122 3375 1075 2522 
Q 1259 2794 1537 2939 
Q 1816 3084 2150 3084 
Q 2853 3084 3261 2657 
Q 3669 2231 3669 1497 
Q 3669 778 3244 343 
Q 2819 -91 2113 -91 
Q 1303 -91 875 529 
Q 447 1150 447 2328 
Q 447 3434 972 4092 
Q 1497 4750 2381 4750 
Q 2619 4750 2861 4703 
Q 3103 4656 3366 4563 
z
" transform="scale(0.015625)"/>
       </defs>
       <use xlink:href="#DejaVuSans-36"/>
       <use xlink:href="#DejaVuSans-30" x="63.623047"/>
      </g>
     </g>
    </g>
   </g>
   <g id="matplotlib.axis_2">
    <g id="ytick_1">
     <g id="line2d_6">
      <defs>
       <path id="m2370855f15" d="M 0 0 
L -3.5 0 
" style="stroke: #000000; stroke-width: 0.8"/>
      </defs>
      <g>
       <use xlink:href="#m2370855f15" x="35.304688" y="263.84908" style="stroke: #000000; stroke-width: 0.8"/>
      </g>
     </g>
     <g id="text_6">
      <!-- −20 -->
      <g transform="translate(7.2 267.648298) scale(0.1 -0.1)">
       <use xlink:href="#DejaVuSans-2212"/>
       <use xlink:href="#DejaVuSans-32" x="83.789062"/>
       <use xlink:href="#DejaVuSans-30" x="147.412109"/>
      </g>
     </g>
    </g>
    <g id="ytick_2">
     <g id="line2d_7">
      <g>
       <use xlink:href="#m2370855f15" x="35.304688" y="207.26365" style="stroke: #000000; stroke-width: 0.8"/>
      </g>
     </g>
     <g id="text_7">
      <!-- −10 -->
      <g transform="translate(7.2 211.062869) scale(0.1 -0.1)">
       <defs>
        <path id="DejaVuSans-31" d="M 794 531 
L 1825 531 
L 1825 4091 
L 703 3866 
L 703 4441 
L 1819 4666 
L 2450 4666 
L 2450 531 
L 3481 531 
L 3481 0 
L 794 0 
L 794 531 
z
" transform="scale(0.015625)"/>
       </defs>
       <use xlink:href="#DejaVuSans-2212"/>
       <use xlink:href="#DejaVuSans-31" x="83.789062"/>
       <use xlink:href="#DejaVuSans-30" x="147.412109"/>
      </g>
     </g>
    </g>
    <g id="ytick_3">
     <g id="line2d_8">
      <g>
       <use xlink:href="#m2370855f15" x="35.304688" y="150.678221" style="stroke: #000000; stroke-width: 0.8"/>
      </g>
     </g>
     <g id="text_8">
      <!-- 0 -->
      <g transform="translate(21.942187 154.47744) scale(0.1 -0.1)">
       <use xlink:href="#DejaVuSans-30"/>
      </g>
     </g>
    </g>
    <g id="ytick_4">
     <g id="line2d_9">
      <g>
       <use xlink:href="#m2370855f15" x="35.304688" y="94.092792" style="stroke: #000000; stroke-width: 0.8"/>
      </g>
     </g>
     <g id="text_9">
      <!-- 10 -->
      <g transform="translate(15.579687 97.892011) scale(0.1 -0.1)">
       <use xlink:href="#DejaVuSans-31"/>
       <use xlink:href="#DejaVuSans-30" x="63.623047"/>
      </g>
     </g>
    </g>
    <g id="ytick_5">
     <g id="line2d_10">
      <g>
       <use xlink:href="#m2370855f15" x="35.304688" y="37.507363" style="stroke: #000000; stroke-width: 0.8"/>
      </g>
     </g>
     <g id="text_10">
      <!-- 20 -->
      <g transform="translate(15.579687 41.306582) scale(0.1 -0.1)">
       <use xlink:href="#DejaVuSans-32"/>
       <use xlink:href="#DejaVuSans-30" x="63.623047"/>
      </g>
     </g>
    </g>
   </g>
   <g id="patch_3">
    <path d="M 35.304688 273.312 
L 35.304688 7.2 
" style="fill: none; stroke: #000000; stroke-width: 0.8; stroke-linejoin: miter; stroke-linecap: square"/>
   </g>
   <g id="patch_4">
    <path d="M 392.424688 273.312 
L 392.424688 7.2 
" style="fill: none; stroke: #000000; stroke-width: 0.8; stroke-linejoin: miter; stroke-linecap: square"/>
   </g>
   <g id="patch_5">
    <path d="M 35.304688 273.312 
L 392.424688 273.312 
" style="fill: none; stroke: #000000; stroke-width: 0.8; stroke-linejoin: miter; stroke-linecap: square"/>
   </g>
   <g id="patch_6">
    <path d="M 35.304688 7.2 
L 392.424688 7.2 
" style="fill: none; stroke: #000000; stroke-width: 0.8; stroke-linejoin: miter; stroke-linecap: square"/>
   </g>
  </g>
 </g>
 <defs>
  <clipPath id="peecb34bf02">
   <rect x="35.304688" y="7.2" width="357.12" height="266.112"/>
  </clipPath>
 </defs>
</svg>
