<?xml version="1.0" encoding="utf-8" standalone="no"?>
<!DOCTYPE svg PUBLIC "-//W3C//DTD SVG 1.1//EN"
  "http://www.w3.org/Graphics/SVG/1.1/DTD/svg11.dtd">
<svg xmlns:xlink="http://www.w3.org/1999/xlink" width="399.624687pt" height="297.190125pt" viewBox="0 0 399.624687 297.190125" xmlns="http://www.w3.org/2000/svg" version="1.1">
 <metadata>
  <rdf:RDF xmlns:dc="http://purl.org/dc/elements/1.1/" xmlns:cc="http://creativecommons.org/ns#" xmlns:rdf="http://www.w3.org/1999/02/22-rdf-syntax-ns#">
   <cc:Work>
    <dc:type rdf:resource="http://purl.org/dc/dcmitype/StillImage"/>
    <dc:date>2023-11-10T22:37:39.509903</dc:date>
    <dc:format>image/svg+xml</dc:format>
    <dc:creator>
     <cc:Agent>
      <dc:title>Matplotlib v3.8.0, https://matplotlib.org/</dc:title>
     </cc:Agent>
    </dc:creator>
   </cc:Work>
  </rdf:RDF>
 </metadata>
 <defs>
  <style type="text/css">*{stroke-linejoin: round; stroke-linecap: butt}</style>
 </defs>
 <g id="figure_1">
  <g id="patch_1">
   <path d="M 0 297.190125 
L 399.624687 297.190125 
L 399.624687 0 
L 0 0 
z
" style="fill: #ffffff"/>
  </g>
  <g id="axes_1">
   <g id="patch_2">
    <path d="M 35.304688 273.312 
L 392.424688 273.312 
L 392.424688 7.2 
L 35.304688 7.2 
z
" style="fill: #ffffff"/>
   </g>
   <g id="PathCollection_1">
    <defs>
     <path id="m64b648dc85" d="M 0 1.5 
C 0.397805 1.5 0.77937 1.341951 1.06066 1.06066 
C 1.341951 0.77937 1.5 0.397805 1.5 0 
C 1.5 -0.397805 1.341951 -0.77937 1.06066 -1.06066 
C 0.77937 -1.341951 0.397805 -1.5 0 -1.5 
C -0.397805 -1.5 -0.77937 -1.341951 -1.06066 -1.06066 
C -1.341951 -0.77937 -1.5 -0.397805 -1.5 0 
C -1.5 0.397805 -1.341951 0.77937 -1.06066 1.06066 
C -0.77937 1.341951 -0.397805 1.5 0 1.5 
z
" style="stroke: #ff8c00"/>
    </defs>
    <g clip-path="url(#p8f8e139284)">
     <use xlink:href="#m64b648dc85" x="253.671018" y="218.973957" style="fill: #ff8c00; stroke: #ff8c00"/>
     <use xlink:href="#m64b648dc85" x="206.556105" y="173.494711" style="fill: #ff8c00; stroke: #ff8c00"/>
     <use xlink:href="#m64b648dc85" x="202.231284" y="202.153505" style="fill: #ff8c00; stroke: #ff8c00"/>
     <use xlink:href="#m64b648dc85" x="334.298838" y="158.378351" style="fill: #ff8c00; stroke: #ff8c00"/>
     <use xlink:href="#m64b648dc85" x="249.336255" y="217.175645" style="fill: #ff8c00; stroke: #ff8c00"/>
     <use xlink:href="#m64b648dc85" x="192.266377" y="230.144048" style="fill: #ff8c00; stroke: #ff8c00"/>
     <use xlink:href="#m64b648dc85" x="217.07841" y="248.282865" style="fill: #ff8c00; stroke: #ff8c00"/>
     <use xlink:href="#m64b648dc85" x="207.886773" y="224.887908" style="fill: #ff8c00; stroke: #ff8c00"/>
     <use xlink:href="#m64b648dc85" x="237.61852" y="258.7052" style="fill: #ff8c00; stroke: #ff8c00"/>
     <use xlink:href="#m64b648dc85" x="217.056051" y="224.154937" style="fill: #ff8c00; stroke: #ff8c00"/>
     <use xlink:href="#m64b648dc85" x="209.397736" y="191.802483" style="fill: #ff8c00; stroke: #ff8c00"/>
     <use xlink:href="#m64b648dc85" x="187.46689" y="177.961178" style="fill: #ff8c00; stroke: #ff8c00"/>
     <use xlink:href="#m64b648dc85" x="300.412118" y="212.657301" style="fill: #ff8c00; stroke: #ff8c00"/>
     <use xlink:href="#m64b648dc85" x="178.580298" y="179.318617" style="fill: #ff8c00; stroke: #ff8c00"/>
     <use xlink:href="#m64b648dc85" x="235.057753" y="214.291452" style="fill: #ff8c00; stroke: #ff8c00"/>
     <use xlink:href="#m64b648dc85" x="189.08575" y="198.267612" style="fill: #ff8c00; stroke: #ff8c00"/>
    </g>
   </g>
   <g id="PathCollection_2">
    <defs>
     <path id="m7d15ddb525" d="M 0 1.5 
C 0.397805 1.5 0.77937 1.341951 1.06066 1.06066 
C 1.341951 0.77937 1.5 0.397805 1.5 0 
C 1.5 -0.397805 1.341951 -0.77937 1.06066 -1.06066 
C 0.77937 -1.341951 0.397805 -1.5 0 -1.5 
C -0.397805 -1.5 -0.77937 -1.341951 -1.06066 -1.06066 
C -1.341951 -0.77937 -1.5 -0.397805 -1.5 0 
C -1.5 0.397805 -1.341951 0.77937 -1.06066 1.06066 
C -0.77937 1.341951 -0.397805 1.5 0 1.5 
z
" style="stroke: #006400"/>
    </defs>
    <g clip-path="url(#p8f8e139284)">
     <use xlink:href="#m7d15ddb525" x="294.714347" y="143.729837" style="fill: #006400; stroke: #006400"/>
     <use xlink:href="#m7d15ddb525" x="376.19196" y="61.500283" style="fill: #006400; stroke: #006400"/>
     <use xlink:href="#m7d15ddb525" x="243.63872" y="134.187742" style="fill: #006400; stroke: #006400"/>
     <use xlink:href="#m7d15ddb525" x="315.093971" y="80.392741" style="fill: #006400; stroke: #006400"/>
     <use xlink:href="#m7d15ddb525" x="218.240805" y="114.795174" style="fill: #006400; stroke: #006400"/>
     <use xlink:href="#m7d15ddb525" x="198.347737" y="118.105347" style="fill: #006400; stroke: #006400"/>
     <use xlink:href="#m7d15ddb525" x="227.884971" y="68.643193" style="fill: #006400; stroke: #006400"/>
     <use xlink:href="#m7d15ddb525" x="244.107171" y="98.549133" style="fill: #006400; stroke: #006400"/>
     <use xlink:href="#m7d15ddb525" x="299.341062" y="121.677774" style="fill: #006400; stroke: #006400"/>
     <use xlink:href="#m7d15ddb525" x="186.098498" y="77.874106" style="fill: #006400; stroke: #006400"/>
     <use xlink:href="#m7d15ddb525" x="177.205231" y="73.145956" style="fill: #006400; stroke: #006400"/>
     <use xlink:href="#m7d15ddb525" x="235.924759" y="98.322276" style="fill: #006400; stroke: #006400"/>
     <use xlink:href="#m7d15ddb525" x="269.076116" y="152.558485" style="fill: #006400; stroke: #006400"/>
     <use xlink:href="#m7d15ddb525" x="200.922104" y="113.344471" style="fill: #006400; stroke: #006400"/>
     <use xlink:href="#m7d15ddb525" x="294.431573" y="101.065585" style="fill: #006400; stroke: #006400"/>
     <use xlink:href="#m7d15ddb525" x="185.022684" y="193.791412" style="fill: #006400; stroke: #006400"/>
     <use xlink:href="#m7d15ddb525" x="293.663633" y="69.961532" style="fill: #006400; stroke: #006400"/>
     <use xlink:href="#m7d15ddb525" x="252.711994" y="161.613523" style="fill: #006400; stroke: #006400"/>
     <use xlink:href="#m7d15ddb525" x="248.828928" y="91.604118" style="fill: #006400; stroke: #006400"/>
     <use xlink:href="#m7d15ddb525" x="351.339431" y="19.296" style="fill: #006400; stroke: #006400"/>
     <use xlink:href="#m7d15ddb525" x="280.791255" y="145.420826" style="fill: #006400; stroke: #006400"/>
    </g>
   </g>
   <g id="PathCollection_3">
    <defs>
     <path id="mfc2e6fa594" d="M 0 1.5 
C 0.397805 1.5 0.77937 1.341951 1.06066 1.06066 
C 1.341951 0.77937 1.5 0.397805 1.5 0 
C 1.5 -0.397805 1.341951 -0.77937 1.06066 -1.06066 
C 0.77937 -1.341951 0.397805 -1.5 0 -1.5 
C -0.397805 -1.5 -0.77937 -1.341951 -1.06066 -1.06066 
C -1.341951 -0.77937 -1.5 -0.397805 -1.5 0 
C -1.5 0.397805 -1.341951 0.77937 -1.06066 1.06066 
C -0.77937 1.341951 -0.397805 1.5 0 1.5 
z
" style="stroke: #2f4f4f"/>
    </defs>
    <g clip-path="url(#p8f8e139284)">
     <use xlink:href="#mfc2e6fa594" x="117.751335" y="193.652606" style="fill: #2f4f4f; stroke: #2f4f4f"/>
     <use xlink:href="#mfc2e6fa594" x="118.083782" y="198.332755" style="fill: #2f4f4f; stroke: #2f4f4f"/>
     <use xlink:href="#mfc2e6fa594" x="99.078569" y="136.897084" style="fill: #2f4f4f; stroke: #2f4f4f"/>
     <use xlink:href="#mfc2e6fa594" x="140.015367" y="213.98994" style="fill: #2f4f4f; stroke: #2f4f4f"/>
     <use xlink:href="#mfc2e6fa594" x="131.762607" y="223.836412" style="fill: #2f4f4f; stroke: #2f4f4f"/>
     <use xlink:href="#mfc2e6fa594" x="94.273469" y="200.482382" style="fill: #2f4f4f; stroke: #2f4f4f"/>
     <use xlink:href="#mfc2e6fa594" x="183.418761" y="238.669892" style="fill: #2f4f4f; stroke: #2f4f4f"/>
     <use xlink:href="#mfc2e6fa594" x="85.898316" y="139.501169" style="fill: #2f4f4f; stroke: #2f4f4f"/>
     <use xlink:href="#mfc2e6fa594" x="80.797824" y="177.743599" style="fill: #2f4f4f; stroke: #2f4f4f"/>
     <use xlink:href="#mfc2e6fa594" x="133.149883" y="223.080764" style="fill: #2f4f4f; stroke: #2f4f4f"/>
     <use xlink:href="#mfc2e6fa594" x="73.825221" y="191.683942" style="fill: #2f4f4f; stroke: #2f4f4f"/>
     <use xlink:href="#mfc2e6fa594" x="153.38389" y="261.216" style="fill: #2f4f4f; stroke: #2f4f4f"/>
     <use xlink:href="#mfc2e6fa594" x="115.43149" y="193.187983" style="fill: #2f4f4f; stroke: #2f4f4f"/>
     <use xlink:href="#mfc2e6fa594" x="133.896121" y="212.830476" style="fill: #2f4f4f; stroke: #2f4f4f"/>
     <use xlink:href="#mfc2e6fa594" x="117.813384" y="166.33817" style="fill: #2f4f4f; stroke: #2f4f4f"/>
     <use xlink:href="#mfc2e6fa594" x="136.111373" y="193.890962" style="fill: #2f4f4f; stroke: #2f4f4f"/>
    </g>
   </g>
   <g id="PathCollection_4">
    <defs>
     <path id="m4275258a54" d="M 0 1.5 
C 0.397805 1.5 0.77937 1.341951 1.06066 1.06066 
C 1.341951 0.77937 1.5 0.397805 1.5 0 
C 1.5 -0.397805 1.341951 -0.77937 1.06066 -1.06066 
C 0.77937 -1.341951 0.397805 -1.5 0 -1.5 
C -0.397805 -1.5 -0.77937 -1.341951 -1.06066 -1.06066 
C -1.341951 -0.77937 -1.5 -0.397805 -1.5 0 
C -1.5 0.397805 -1.341951 0.77937 -1.06066 1.06066 
C -0.77937 1.341951 -0.397805 1.5 0 1.5 
z
" style="stroke: #00bfff"/>
    </defs>
    <g clip-path="url(#p8f8e139284)">
     <use xlink:href="#m4275258a54" x="126.592978" y="233.973351" style="fill: #00bfff; stroke: #00bfff"/>
     <use xlink:href="#m4275258a54" x="90.925668" y="184.627647" style="fill: #00bfff; stroke: #00bfff"/>
     <use xlink:href="#m4275258a54" x="118.928538" y="148.965372" style="fill: #00bfff; stroke: #00bfff"/>
     <use xlink:href="#m4275258a54" x="99.245037" y="202.239426" style="fill: #00bfff; stroke: #00bfff"/>
     <use xlink:href="#m4275258a54" x="70.268722" y="126.704471" style="fill: #00bfff; stroke: #00bfff"/>
     <use xlink:href="#m4275258a54" x="126.877978" y="178.45683" style="fill: #00bfff; stroke: #00bfff"/>
     <use xlink:href="#m4275258a54" x="97.757656" y="182.45936" style="fill: #00bfff; stroke: #00bfff"/>
     <use xlink:href="#m4275258a54" x="126.894242" y="188.397945" style="fill: #00bfff; stroke: #00bfff"/>
     <use xlink:href="#m4275258a54" x="88.93556" y="113.615578" style="fill: #00bfff; stroke: #00bfff"/>
     <use xlink:href="#m4275258a54" x="81.561725" y="109.293663" style="fill: #00bfff; stroke: #00bfff"/>
     <use xlink:href="#m4275258a54" x="100.913463" y="133.894763" style="fill: #00bfff; stroke: #00bfff"/>
     <use xlink:href="#m4275258a54" x="158.089622" y="168.219696" style="fill: #00bfff; stroke: #00bfff"/>
     <use xlink:href="#m4275258a54" x="104.657101" y="169.420742" style="fill: #00bfff; stroke: #00bfff"/>
     <use xlink:href="#m4275258a54" x="107.925854" y="159.621109" style="fill: #00bfff; stroke: #00bfff"/>
    </g>
   </g>
   <g id="PathCollection_5">
    <defs>
     <path id="mf99c2d079d" d="M 0 1.5 
C 0.397805 1.5 0.77937 1.341951 1.06066 1.06066 
C 1.341951 0.77937 1.5 0.397805 1.5 0 
C 1.5 -0.397805 1.341951 -0.77937 1.06066 -1.06066 
C 0.77937 -1.341951 0.397805 -1.5 0 -1.5 
C -0.397805 -1.5 -0.77937 -1.341951 -1.06066 -1.06066 
C -1.341951 -0.77937 -1.5 -0.397805 -1.5 0 
C -1.5 0.397805 -1.341951 0.77937 -1.06066 1.06066 
C -0.77937 1.341951 -0.397805 1.5 0 1.5 
z
" style="stroke: #ffff00"/>
    </defs>
    <g clip-path="url(#p8f8e139284)">
     <use xlink:href="#mf99c2d079d" x="109.091402" y="190.098025" style="fill: #ffff00; stroke: #ffff00"/>
     <use xlink:href="#mf99c2d079d" x="136.024918" y="173.111298" style="fill: #ffff00; stroke: #ffff00"/>
     <use xlink:href="#mf99c2d079d" x="98.355565" y="177.476189" style="fill: #ffff00; stroke: #ffff00"/>
     <use xlink:href="#mf99c2d079d" x="100.291787" y="164.495817" style="fill: #ffff00; stroke: #ffff00"/>
     <use xlink:href="#mf99c2d079d" x="96.310774" y="127.623135" style="fill: #ffff00; stroke: #ffff00"/>
     <use xlink:href="#mf99c2d079d" x="161.324104" y="187.278679" style="fill: #ffff00; stroke: #ffff00"/>
     <use xlink:href="#mf99c2d079d" x="132.361709" y="145.041969" style="fill: #ffff00; stroke: #ffff00"/>
     <use xlink:href="#mf99c2d079d" x="99.106075" y="222.304275" style="fill: #ffff00; stroke: #ffff00"/>
     <use xlink:href="#mf99c2d079d" x="129.572467" y="215.807807" style="fill: #ffff00; stroke: #ffff00"/>
     <use xlink:href="#mf99c2d079d" x="158.790144" y="217.087616" style="fill: #ffff00; stroke: #ffff00"/>
     <use xlink:href="#mf99c2d079d" x="95.264077" y="196.178647" style="fill: #ffff00; stroke: #ffff00"/>
     <use xlink:href="#mf99c2d079d" x="167.104447" y="242.76525" style="fill: #ffff00; stroke: #ffff00"/>
     <use xlink:href="#mf99c2d079d" x="90.469863" y="164.013965" style="fill: #ffff00; stroke: #ffff00"/>
     <use xlink:href="#mf99c2d079d" x="98.135059" y="189.759961" style="fill: #ffff00; stroke: #ffff00"/>
    </g>
   </g>
   <g id="PathCollection_6">
    <defs>
     <path id="m79821601f1" d="M 0 1.5 
C 0.397805 1.5 0.77937 1.341951 1.06066 1.06066 
C 1.341951 0.77937 1.5 0.397805 1.5 0 
C 1.5 -0.397805 1.341951 -0.77937 1.06066 -1.06066 
C 0.77937 -1.341951 0.397805 -1.5 0 -1.5 
C -0.397805 -1.5 -0.77937 -1.341951 -1.06066 -1.06066 
C -1.341951 -0.77937 -1.5 -0.397805 -1.5 0 
C -1.5 0.397805 -1.341951 0.77937 -1.06066 1.06066 
C -0.77937 1.341951 -0.397805 1.5 0 1.5 
z
" style="stroke: #00ffff"/>
    </defs>
    <g clip-path="url(#p8f8e139284)">
     <use xlink:href="#m79821601f1" x="142.382866" y="113.322828" style="fill: #00ffff; stroke: #00ffff"/>
     <use xlink:href="#m79821601f1" x="154.49569" y="204.24247" style="fill: #00ffff; stroke: #00ffff"/>
     <use xlink:href="#m79821601f1" x="156.342235" y="202.089859" style="fill: #00ffff; stroke: #00ffff"/>
     <use xlink:href="#m79821601f1" x="65.013789" y="135.962082" style="fill: #00ffff; stroke: #00ffff"/>
     <use xlink:href="#m79821601f1" x="131.561728" y="204.610406" style="fill: #00ffff; stroke: #00ffff"/>
     <use xlink:href="#m79821601f1" x="106.894657" y="198.804979" style="fill: #00ffff; stroke: #00ffff"/>
     <use xlink:href="#m79821601f1" x="125.901151" y="129.19002" style="fill: #00ffff; stroke: #00ffff"/>
     <use xlink:href="#m79821601f1" x="79.260738" y="153.219236" style="fill: #00ffff; stroke: #00ffff"/>
     <use xlink:href="#m79821601f1" x="91.15811" y="102.202952" style="fill: #00ffff; stroke: #00ffff"/>
     <use xlink:href="#m79821601f1" x="70.198392" y="146.354731" style="fill: #00ffff; stroke: #00ffff"/>
     <use xlink:href="#m79821601f1" x="90.441169" y="173.685394" style="fill: #00ffff; stroke: #00ffff"/>
     <use xlink:href="#m79821601f1" x="66.690223" y="160.223558" style="fill: #00ffff; stroke: #00ffff"/>
     <use xlink:href="#m79821601f1" x="57.433326" y="178.748781" style="fill: #00ffff; stroke: #00ffff"/>
    </g>
   </g>
   <g id="PathCollection_7">
    <defs>
     <path id="mb964600f1a" d="M 0 1.5 
C 0.397805 1.5 0.77937 1.341951 1.06066 1.06066 
C 1.341951 0.77937 1.5 0.397805 1.5 0 
C 1.5 -0.397805 1.341951 -0.77937 1.06066 -1.06066 
C 0.77937 -1.341951 0.397805 -1.5 0 -1.5 
C -0.397805 -1.5 -0.77937 -1.341951 -1.06066 -1.06066 
C -1.341951 -0.77937 -1.5 -0.397805 -1.5 0 
C -1.5 0.397805 -1.341951 0.77937 -1.06066 1.06066 
C -0.77937 1.341951 -0.397805 1.5 0 1.5 
z
" style="stroke: #0000ff"/>
    </defs>
    <g clip-path="url(#p8f8e139284)">
     <use xlink:href="#mb964600f1a" x="108.758021" y="227.996611" style="fill: #0000ff; stroke: #0000ff"/>
     <use xlink:href="#mb964600f1a" x="160.923987" y="195.479169" style="fill: #0000ff; stroke: #0000ff"/>
     <use xlink:href="#mb964600f1a" x="80.154475" y="128.925943" style="fill: #0000ff; stroke: #0000ff"/>
     <use xlink:href="#mb964600f1a" x="98.901017" y="172.668069" style="fill: #0000ff; stroke: #0000ff"/>
     <use xlink:href="#mb964600f1a" x="137.691609" y="232.276271" style="fill: #0000ff; stroke: #0000ff"/>
     <use xlink:href="#mb964600f1a" x="108.758021" y="227.996611" style="fill: #0000ff; stroke: #0000ff"/>
     <use xlink:href="#mb964600f1a" x="185.011932" y="117.93519" style="fill: #0000ff; stroke: #0000ff"/>
     <use xlink:href="#mb964600f1a" x="195.502807" y="147.044329" style="fill: #0000ff; stroke: #0000ff"/>
     <use xlink:href="#mb964600f1a" x="139.746319" y="163.469233" style="fill: #0000ff; stroke: #0000ff"/>
     <use xlink:href="#mb964600f1a" x="128.422397" y="152.628579" style="fill: #0000ff; stroke: #0000ff"/>
     <use xlink:href="#mb964600f1a" x="142.601154" y="148.591855" style="fill: #0000ff; stroke: #0000ff"/>
     <use xlink:href="#mb964600f1a" x="93.101151" y="139.22906" style="fill: #0000ff; stroke: #0000ff"/>
     <use xlink:href="#mb964600f1a" x="151.475655" y="182.908186" style="fill: #0000ff; stroke: #0000ff"/>
     <use xlink:href="#mb964600f1a" x="98.672656" y="155.927036" style="fill: #0000ff; stroke: #0000ff"/>
     <use xlink:href="#mb964600f1a" x="113.743015" y="205.556377" style="fill: #0000ff; stroke: #0000ff"/>
     <use xlink:href="#mb964600f1a" x="149.799747" y="139.720514" style="fill: #0000ff; stroke: #0000ff"/>
     <use xlink:href="#mb964600f1a" x="103.051844" y="106.884476" style="fill: #0000ff; stroke: #0000ff"/>
    </g>
   </g>
   <g id="PathCollection_8">
    <defs>
     <path id="m3654a16cde" d="M 0 1.5 
C 0.397805 1.5 0.77937 1.341951 1.06066 1.06066 
C 1.341951 0.77937 1.5 0.397805 1.5 0 
C 1.5 -0.397805 1.341951 -0.77937 1.06066 -1.06066 
C 0.77937 -1.341951 0.397805 -1.5 0 -1.5 
C -0.397805 -1.5 -0.77937 -1.341951 -1.06066 -1.06066 
C -1.341951 -0.77937 -1.5 -0.397805 -1.5 0 
C -1.5 0.397805 -1.341951 0.77937 -1.06066 1.06066 
C -0.77937 1.341951 -0.397805 1.5 0 1.5 
z
" style="stroke: #dc143c"/>
    </defs>
    <g clip-path="url(#p8f8e139284)">
     <use xlink:href="#m3654a16cde" x="135.02422" y="135.8112" style="fill: #dc143c; stroke: #dc143c"/>
     <use xlink:href="#m3654a16cde" x="209.869027" y="157.884251" style="fill: #dc143c; stroke: #dc143c"/>
     <use xlink:href="#m3654a16cde" x="218.551787" y="177.086098" style="fill: #dc143c; stroke: #dc143c"/>
     <use xlink:href="#m3654a16cde" x="205.111265" y="146.356409" style="fill: #dc143c; stroke: #dc143c"/>
     <use xlink:href="#m3654a16cde" x="133.230518" y="192.315097" style="fill: #dc143c; stroke: #dc143c"/>
     <use xlink:href="#m3654a16cde" x="161.920593" y="197.134544" style="fill: #dc143c; stroke: #dc143c"/>
     <use xlink:href="#m3654a16cde" x="180.860838" y="247.815704" style="fill: #dc143c; stroke: #dc143c"/>
     <use xlink:href="#m3654a16cde" x="216.804503" y="176.357873" style="fill: #dc143c; stroke: #dc143c"/>
     <use xlink:href="#m3654a16cde" x="230.095643" y="170.06993" style="fill: #dc143c; stroke: #dc143c"/>
     <use xlink:href="#m3654a16cde" x="193.957992" y="203.052689" style="fill: #dc143c; stroke: #dc143c"/>
     <use xlink:href="#m3654a16cde" x="162.872328" y="156.662449" style="fill: #dc143c; stroke: #dc143c"/>
    </g>
   </g>
   <g id="PathCollection_9">
    <defs>
     <path id="mf14a9355de" d="M 0 1.5 
C 0.397805 1.5 0.77937 1.341951 1.06066 1.06066 
C 1.341951 0.77937 1.5 0.397805 1.5 0 
C 1.5 -0.397805 1.341951 -0.77937 1.06066 -1.06066 
C 0.77937 -1.341951 0.397805 -1.5 0 -1.5 
C -0.397805 -1.5 -0.77937 -1.341951 -1.06066 -1.06066 
C -1.341951 -0.77937 -1.5 -0.397805 -1.5 0 
C -1.5 0.397805 -1.341951 0.77937 -1.06066 1.06066 
C -0.77937 1.341951 -0.397805 1.5 0 1.5 
z
" style="stroke: #ffe4c4"/>
    </defs>
    <g clip-path="url(#p8f8e139284)">
     <use xlink:href="#mf14a9355de" x="244.076229" y="142.147223" style="fill: #ffe4c4; stroke: #ffe4c4"/>
     <use xlink:href="#mf14a9355de" x="247.543245" y="150.406832" style="fill: #ffe4c4; stroke: #ffe4c4"/>
     <use xlink:href="#mf14a9355de" x="239.46949" y="135.985453" style="fill: #ffe4c4; stroke: #ffe4c4"/>
     <use xlink:href="#mf14a9355de" x="163.780185" y="107.913367" style="fill: #ffe4c4; stroke: #ffe4c4"/>
     <use xlink:href="#mf14a9355de" x="186.159062" y="94.52322" style="fill: #ffe4c4; stroke: #ffe4c4"/>
     <use xlink:href="#mf14a9355de" x="191.758317" y="141.934059" style="fill: #ffe4c4; stroke: #ffe4c4"/>
    </g>
   </g>
   <g id="PathCollection_10">
    <defs>
     <path id="m2e896ccc79" d="M -2.99994 2.99994 
L 3.00006 2.99994 
L 3.00006 -3.00006 
L -2.99994 -3.00006 
z
" style="stroke: #000000"/>
    </defs>
    <g clip-path="url(#p8f8e139284)">
     <use xlink:href="#m2e896ccc79" x="105.314622" y="165.861166" style="stroke: #000000"/>
     <use xlink:href="#m2e896ccc79" x="77.328372" y="125.175548" style="stroke: #000000"/>
     <use xlink:href="#m2e896ccc79" x="130.531581" y="93.573505" style="stroke: #000000"/>
     <use xlink:href="#m2e896ccc79" x="92.31598" y="93.913049" style="stroke: #000000"/>
     <use xlink:href="#m2e896ccc79" x="95.757663" y="158.492246" style="stroke: #000000"/>
     <use xlink:href="#m2e896ccc79" x="104.516984" y="151.200872" style="stroke: #000000"/>
     <use xlink:href="#m2e896ccc79" x="103.156286" y="155.94697" style="stroke: #000000"/>
     <use xlink:href="#m2e896ccc79" x="135.213057" y="81.831577" style="stroke: #000000"/>
     <use xlink:href="#m2e896ccc79" x="97.778847" y="140.683662" style="stroke: #000000"/>
     <use xlink:href="#m2e896ccc79" x="81.129833" y="148.308666" style="stroke: #000000"/>
     <use xlink:href="#m2e896ccc79" x="110.770284" y="144.716805" style="stroke: #000000"/>
     <use xlink:href="#m2e896ccc79" x="104.211684" y="161.968158" style="stroke: #000000"/>
     <use xlink:href="#m2e896ccc79" x="83.179909" y="144.037761" style="stroke: #000000"/>
     <use xlink:href="#m2e896ccc79" x="124.005238" y="149.198508" style="stroke: #000000"/>
     <use xlink:href="#m2e896ccc79" x="107.546219" y="124.373851" style="stroke: #000000"/>
     <use xlink:href="#m2e896ccc79" x="69.820076" y="120.363068" style="stroke: #000000"/>
     <use xlink:href="#m2e896ccc79" x="93.778647" y="147.997302" style="stroke: #000000"/>
     <use xlink:href="#m2e896ccc79" x="76.639491" y="79.957978" style="stroke: #000000"/>
     <use xlink:href="#m2e896ccc79" x="103.128833" y="151.213397" style="stroke: #000000"/>
     <use xlink:href="#m2e896ccc79" x="108.100876" y="149.54619" style="stroke: #000000"/>
     <use xlink:href="#m2e896ccc79" x="59.163375" y="160.120623" style="stroke: #000000"/>
     <use xlink:href="#m2e896ccc79" x="98.663019" y="121.691503" style="stroke: #000000"/>
     <use xlink:href="#m2e896ccc79" x="88.964883" y="156.022609" style="stroke: #000000"/>
     <use xlink:href="#m2e896ccc79" x="96.730833" y="139.597575" style="stroke: #000000"/>
     <use xlink:href="#m2e896ccc79" x="87.523503" y="126.636149" style="stroke: #000000"/>
     <use xlink:href="#m2e896ccc79" x="142.036515" y="175.892373" style="stroke: #000000"/>
     <use xlink:href="#m2e896ccc79" x="65.129991" y="138.059311" style="stroke: #000000"/>
     <use xlink:href="#m2e896ccc79" x="68.163573" y="132.902598" style="stroke: #000000"/>
     <use xlink:href="#m2e896ccc79" x="129.232403" y="133.143442" style="stroke: #000000"/>
     <use xlink:href="#m2e896ccc79" x="96.915021" y="163.512631" style="stroke: #000000"/>
     <use xlink:href="#m2e896ccc79" x="131.760645" y="192.653764" style="stroke: #000000"/>
     <use xlink:href="#m2e896ccc79" x="93.618975" y="125.686944" style="stroke: #000000"/>
     <use xlink:href="#m2e896ccc79" x="90.347811" y="168.30379" style="stroke: #000000"/>
     <use xlink:href="#m2e896ccc79" x="119.94509" y="145.472739" style="stroke: #000000"/>
     <use xlink:href="#m2e896ccc79" x="112.124713" y="212.801989" style="stroke: #000000"/>
     <use xlink:href="#m2e896ccc79" x="73.72869" y="154.53354" style="stroke: #000000"/>
     <use xlink:href="#m2e896ccc79" x="67.993168" y="122.165515" style="stroke: #000000"/>
     <use xlink:href="#m2e896ccc79" x="144.501826" y="130.115812" style="stroke: #000000"/>
     <use xlink:href="#m2e896ccc79" x="76.614364" y="110.280725" style="stroke: #000000"/>
     <use xlink:href="#m2e896ccc79" x="90.887704" y="108.01112" style="stroke: #000000"/>
     <use xlink:href="#m2e896ccc79" x="95.302774" y="92.078478" style="stroke: #000000"/>
     <use xlink:href="#m2e896ccc79" x="96.449713" y="99.140147" style="stroke: #000000"/>
     <use xlink:href="#m2e896ccc79" x="102.411511" y="168.515468" style="stroke: #000000"/>
     <use xlink:href="#m2e896ccc79" x="153.106987" y="230.957352" style="stroke: #000000"/>
     <use xlink:href="#m2e896ccc79" x="77.997697" y="170.461798" style="stroke: #000000"/>
     <use xlink:href="#m2e896ccc79" x="65.398569" y="164.237236" style="stroke: #000000"/>
     <use xlink:href="#m2e896ccc79" x="80.138217" y="142.016251" style="stroke: #000000"/>
     <use xlink:href="#m2e896ccc79" x="99.948286" y="199.672917" style="stroke: #000000"/>
     <use xlink:href="#m2e896ccc79" x="66.688795" y="137.272708" style="stroke: #000000"/>
     <use xlink:href="#m2e896ccc79" x="71.945122" y="119.208209" style="stroke: #000000"/>
     <use xlink:href="#m2e896ccc79" x="99.330297" y="193.317964" style="stroke: #000000"/>
     <use xlink:href="#m2e896ccc79" x="114.087507" y="212.131746" style="stroke: #000000"/>
     <use xlink:href="#m2e896ccc79" x="149.99694" y="183.451363" style="stroke: #000000"/>
     <use xlink:href="#m2e896ccc79" x="60.008503" y="126.803363" style="stroke: #000000"/>
     <use xlink:href="#m2e896ccc79" x="77.866111" y="189.143197" style="stroke: #000000"/>
     <use xlink:href="#m2e896ccc79" x="125.489653" y="113.938579" style="stroke: #000000"/>
     <use xlink:href="#m2e896ccc79" x="76.073532" y="161.005246" style="stroke: #000000"/>
     <use xlink:href="#m2e896ccc79" x="151.167206" y="158.925641" style="stroke: #000000"/>
     <use xlink:href="#m2e896ccc79" x="116.283292" y="144.751366" style="stroke: #000000"/>
     <use xlink:href="#m2e896ccc79" x="98.942795" y="130.539109" style="stroke: #000000"/>
     <use xlink:href="#m2e896ccc79" x="84.065716" y="126.488345" style="stroke: #000000"/>
     <use xlink:href="#m2e896ccc79" x="117.002675" y="170.981529" style="stroke: #000000"/>
     <use xlink:href="#m2e896ccc79" x="82.237777" y="145.507018" style="stroke: #000000"/>
     <use xlink:href="#m2e896ccc79" x="103.153672" y="155.131323" style="stroke: #000000"/>
    </g>
   </g>
   <g id="PathCollection_11">
    <defs>
     <path id="m1b31e5dcec" d="M -3 -0 
L 3 3 
L 3 -3 
z
" style="stroke: #ff8c00"/>
    </defs>
    <g clip-path="url(#p8f8e139284)">
     <use xlink:href="#m1b31e5dcec" x="98.059176" y="141.49284" style="fill: #ff8c00; stroke: #ff8c00"/>
     <use xlink:href="#m1b31e5dcec" x="58.203549" y="123.813611" style="fill: #ff8c00; stroke: #ff8c00"/>
     <use xlink:href="#m1b31e5dcec" x="79.907715" y="127.140783" style="fill: #ff8c00; stroke: #ff8c00"/>
     <use xlink:href="#m1b31e5dcec" x="92.440834" y="108.427524" style="fill: #ff8c00; stroke: #ff8c00"/>
     <use xlink:href="#m1b31e5dcec" x="103.792839" y="204.707338" style="fill: #ff8c00; stroke: #ff8c00"/>
     <use xlink:href="#m1b31e5dcec" x="89.700476" y="143.336878" style="fill: #ff8c00; stroke: #ff8c00"/>
     <use xlink:href="#m1b31e5dcec" x="104.640267" y="126.930372" style="fill: #ff8c00; stroke: #ff8c00"/>
     <use xlink:href="#m1b31e5dcec" x="106.942456" y="124.309559" style="fill: #ff8c00; stroke: #ff8c00"/>
     <use xlink:href="#m1b31e5dcec" x="77.950859" y="139.992767" style="fill: #ff8c00; stroke: #ff8c00"/>
     <use xlink:href="#m1b31e5dcec" x="138.696195" y="213.663202" style="fill: #ff8c00; stroke: #ff8c00"/>
     <use xlink:href="#m1b31e5dcec" x="99.895385" y="165.775763" style="fill: #ff8c00; stroke: #ff8c00"/>
     <use xlink:href="#m1b31e5dcec" x="119.599737" y="114.575979" style="fill: #ff8c00; stroke: #ff8c00"/>
     <use xlink:href="#m1b31e5dcec" x="62.031848" y="164.369217" style="fill: #ff8c00; stroke: #ff8c00"/>
     <use xlink:href="#m1b31e5dcec" x="132.362412" y="210.899928" style="fill: #ff8c00; stroke: #ff8c00"/>
     <use xlink:href="#m1b31e5dcec" x="112.864137" y="96.176643" style="fill: #ff8c00; stroke: #ff8c00"/>
     <use xlink:href="#m1b31e5dcec" x="97.175267" y="229.824924" style="fill: #ff8c00; stroke: #ff8c00"/>
     <use xlink:href="#m1b31e5dcec" x="105.189056" y="198.087927" style="fill: #ff8c00; stroke: #ff8c00"/>
     <use xlink:href="#m1b31e5dcec" x="82.222844" y="151.985662" style="fill: #ff8c00; stroke: #ff8c00"/>
     <use xlink:href="#m1b31e5dcec" x="123.296361" y="185.228619" style="fill: #ff8c00; stroke: #ff8c00"/>
     <use xlink:href="#m1b31e5dcec" x="69.355303" y="138.331787" style="fill: #ff8c00; stroke: #ff8c00"/>
     <use xlink:href="#m1b31e5dcec" x="63.745318" y="142.854798" style="fill: #ff8c00; stroke: #ff8c00"/>
     <use xlink:href="#m1b31e5dcec" x="91.233675" y="87.214963" style="fill: #ff8c00; stroke: #ff8c00"/>
     <use xlink:href="#m1b31e5dcec" x="51.537415" y="94.032624" style="fill: #ff8c00; stroke: #ff8c00"/>
     <use xlink:href="#m1b31e5dcec" x="91.218032" y="107.861836" style="fill: #ff8c00; stroke: #ff8c00"/>
     <use xlink:href="#m1b31e5dcec" x="94.510551" y="108.037472" style="fill: #ff8c00; stroke: #ff8c00"/>
     <use xlink:href="#m1b31e5dcec" x="87.662847" y="161.774669" style="fill: #ff8c00; stroke: #ff8c00"/>
     <use xlink:href="#m1b31e5dcec" x="58.798717" y="182.210033" style="fill: #ff8c00; stroke: #ff8c00"/>
     <use xlink:href="#m1b31e5dcec" x="105.511196" y="186.056651" style="fill: #ff8c00; stroke: #ff8c00"/>
     <use xlink:href="#m1b31e5dcec" x="123.853153" y="148.081226" style="fill: #ff8c00; stroke: #ff8c00"/>
     <use xlink:href="#m1b31e5dcec" x="104.429541" y="103.781851" style="fill: #ff8c00; stroke: #ff8c00"/>
     <use xlink:href="#m1b31e5dcec" x="127.989628" y="87.382208" style="fill: #ff8c00; stroke: #ff8c00"/>
     <use xlink:href="#m1b31e5dcec" x="125.783098" y="185.392259" style="fill: #ff8c00; stroke: #ff8c00"/>
     <use xlink:href="#m1b31e5dcec" x="89.97559" y="194.081771" style="fill: #ff8c00; stroke: #ff8c00"/>
     <use xlink:href="#m1b31e5dcec" x="96.561245" y="145.207085" style="fill: #ff8c00; stroke: #ff8c00"/>
     <use xlink:href="#m1b31e5dcec" x="171.505131" y="181.142117" style="fill: #ff8c00; stroke: #ff8c00"/>
     <use xlink:href="#m1b31e5dcec" x="114.696623" y="94.495067" style="fill: #ff8c00; stroke: #ff8c00"/>
     <use xlink:href="#m1b31e5dcec" x="94.298757" y="179.536827" style="fill: #ff8c00; stroke: #ff8c00"/>
     <use xlink:href="#m1b31e5dcec" x="93.946612" y="132.235744" style="fill: #ff8c00; stroke: #ff8c00"/>
     <use xlink:href="#m1b31e5dcec" x="76.882227" y="142.142606" style="fill: #ff8c00; stroke: #ff8c00"/>
     <use xlink:href="#m1b31e5dcec" x="168.688967" y="140.285004" style="fill: #ff8c00; stroke: #ff8c00"/>
     <use xlink:href="#m1b31e5dcec" x="103.32826" y="193.325729" style="fill: #ff8c00; stroke: #ff8c00"/>
     <use xlink:href="#m1b31e5dcec" x="102.283833" y="136.671733" style="fill: #ff8c00; stroke: #ff8c00"/>
     <use xlink:href="#m1b31e5dcec" x="85.840082" y="127.469083" style="fill: #ff8c00; stroke: #ff8c00"/>
     <use xlink:href="#m1b31e5dcec" x="120.595666" y="190.686323" style="fill: #ff8c00; stroke: #ff8c00"/>
     <use xlink:href="#m1b31e5dcec" x="133.899074" y="215.259139" style="fill: #ff8c00; stroke: #ff8c00"/>
     <use xlink:href="#m1b31e5dcec" x="95.282442" y="116.675539" style="fill: #ff8c00; stroke: #ff8c00"/>
     <use xlink:href="#m1b31e5dcec" x="77.017264" y="140.183664" style="fill: #ff8c00; stroke: #ff8c00"/>
     <use xlink:href="#m1b31e5dcec" x="115.540722" y="129.45487" style="fill: #ff8c00; stroke: #ff8c00"/>
     <use xlink:href="#m1b31e5dcec" x="129.298129" y="170.852036" style="fill: #ff8c00; stroke: #ff8c00"/>
     <use xlink:href="#m1b31e5dcec" x="189.851582" y="164.127602" style="fill: #ff8c00; stroke: #ff8c00"/>
     <use xlink:href="#m1b31e5dcec" x="119.075709" y="143.850384" style="fill: #ff8c00; stroke: #ff8c00"/>
     <use xlink:href="#m1b31e5dcec" x="104.074169" y="156.65791" style="fill: #ff8c00; stroke: #ff8c00"/>
     <use xlink:href="#m1b31e5dcec" x="64.302182" y="128.964523" style="fill: #ff8c00; stroke: #ff8c00"/>
     <use xlink:href="#m1b31e5dcec" x="68.208162" y="175.838105" style="fill: #ff8c00; stroke: #ff8c00"/>
     <use xlink:href="#m1b31e5dcec" x="108.734543" y="150.688204" style="fill: #ff8c00; stroke: #ff8c00"/>
     <use xlink:href="#m1b31e5dcec" x="94.531222" y="147.013695" style="fill: #ff8c00; stroke: #ff8c00"/>
     <use xlink:href="#m1b31e5dcec" x="90.572633" y="104.174446" style="fill: #ff8c00; stroke: #ff8c00"/>
     <use xlink:href="#m1b31e5dcec" x="106.803926" y="131.577172" style="fill: #ff8c00; stroke: #ff8c00"/>
     <use xlink:href="#m1b31e5dcec" x="96.721005" y="176.741888" style="fill: #ff8c00; stroke: #ff8c00"/>
     <use xlink:href="#m1b31e5dcec" x="113.136702" y="50.83071" style="fill: #ff8c00; stroke: #ff8c00"/>
     <use xlink:href="#m1b31e5dcec" x="97.971294" y="197.847341" style="fill: #ff8c00; stroke: #ff8c00"/>
     <use xlink:href="#m1b31e5dcec" x="96.470037" y="100.736898" style="fill: #ff8c00; stroke: #ff8c00"/>
     <use xlink:href="#m1b31e5dcec" x="97.971294" y="197.847341" style="fill: #ff8c00; stroke: #ff8c00"/>
     <use xlink:href="#m1b31e5dcec" x="105.263059" y="128.610711" style="fill: #ff8c00; stroke: #ff8c00"/>
    </g>
   </g>
   <g id="matplotlib.axis_1">
    <g id="xtick_1">
     <g id="line2d_1">
      <defs>
       <path id="m53ed879ca2" d="M 0 0 
L 0 3.5 
" style="stroke: #000000; stroke-width: 0.8"/>
      </defs>
      <g>
       <use xlink:href="#m53ed879ca2" x="51.804282" y="273.312" style="stroke: #000000; stroke-width: 0.8"/>
      </g>
     </g>
     <g id="text_1">
      <!-- −10 -->
      <g transform="translate(41.251938 287.910437) scale(0.1 -0.1)">
       <defs>
        <path id="DejaVuSans-2212" d="M 678 2272 
L 4684 2272 
L 4684 1741 
L 678 1741 
L 678 2272 
z
" transform="scale(0.015625)"/>
        <path id="DejaVuSans-31" d="M 794 531 
L 1825 531 
L 1825 4091 
L 703 3866 
L 703 4441 
L 1819 4666 
L 2450 4666 
L 2450 531 
L 3481 531 
L 3481 0 
L 794 0 
L 794 531 
z
" transform="scale(0.015625)"/>
        <path id="DejaVuSans-30" d="M 2034 4250 
Q 1547 4250 1301 3770 
Q 1056 3291 1056 2328 
Q 1056 1369 1301 889 
Q 1547 409 2034 409 
Q 2525 409 2770 889 
Q 3016 1369 3016 2328 
Q 3016 3291 2770 3770 
Q 2525 4250 2034 4250 
z
M 2034 4750 
Q 2819 4750 3233 4129 
Q 3647 3509 3647 2328 
Q 3647 1150 3233 529 
Q 2819 -91 2034 -91 
Q 1250 -91 836 529 
Q 422 1150 422 2328 
Q 422 3509 836 4129 
Q 1250 4750 2034 4750 
z
" transform="scale(0.015625)"/>
       </defs>
       <use xlink:href="#DejaVuSans-2212"/>
       <use xlink:href="#DejaVuSans-31" x="83.789062"/>
       <use xlink:href="#DejaVuSans-30" x="147.412109"/>
      </g>
     </g>
    </g>
    <g id="xtick_2">
     <g id="line2d_2">
      <g>
       <use xlink:href="#m53ed879ca2" x="91.840645" y="273.312" style="stroke: #000000; stroke-width: 0.8"/>
      </g>
     </g>
     <g id="text_2">
      <!-- −5 -->
      <g transform="translate(84.469552 287.910437) scale(0.1 -0.1)">
       <defs>
        <path id="DejaVuSans-35" d="M 691 4666 
L 3169 4666 
L 3169 4134 
L 1269 4134 
L 1269 2991 
Q 1406 3038 1543 3061 
Q 1681 3084 1819 3084 
Q 2600 3084 3056 2656 
Q 3513 2228 3513 1497 
Q 3513 744 3044 326 
Q 2575 -91 1722 -91 
Q 1428 -91 1123 -41 
Q 819 9 494 109 
L 494 744 
Q 775 591 1075 516 
Q 1375 441 1709 441 
Q 2250 441 2565 725 
Q 2881 1009 2881 1497 
Q 2881 1984 2565 2268 
Q 2250 2553 1709 2553 
Q 1456 2553 1204 2497 
Q 953 2441 691 2322 
L 691 4666 
z
" transform="scale(0.015625)"/>
       </defs>
       <use xlink:href="#DejaVuSans-2212"/>
       <use xlink:href="#DejaVuSans-35" x="83.789062"/>
      </g>
     </g>
    </g>
    <g id="xtick_3">
     <g id="line2d_3">
      <g>
       <use xlink:href="#m53ed879ca2" x="131.877009" y="273.312" style="stroke: #000000; stroke-width: 0.8"/>
      </g>
     </g>
     <g id="text_3">
      <!-- 0 -->
      <g transform="translate(128.695759 287.910437) scale(0.1 -0.1)">
       <use xlink:href="#DejaVuSans-30"/>
      </g>
     </g>
    </g>
    <g id="xtick_4">
     <g id="line2d_4">
      <g>
       <use xlink:href="#m53ed879ca2" x="171.913373" y="273.312" style="stroke: #000000; stroke-width: 0.8"/>
      </g>
     </g>
     <g id="text_4">
      <!-- 5 -->
      <g transform="translate(168.732123 287.910437) scale(0.1 -0.1)">
       <use xlink:href="#DejaVuSans-35"/>
      </g>
     </g>
    </g>
    <g id="xtick_5">
     <g id="line2d_5">
      <g>
       <use xlink:href="#m53ed879ca2" x="211.949736" y="273.312" style="stroke: #000000; stroke-width: 0.8"/>
      </g>
     </g>
     <g id="text_5">
      <!-- 10 -->
      <g transform="translate(205.587236 287.910437) scale(0.1 -0.1)">
       <use xlink:href="#DejaVuSans-31"/>
       <use xlink:href="#DejaVuSans-30" x="63.623047"/>
      </g>
     </g>
    </g>
    <g id="xtick_6">
     <g id="line2d_6">
      <g>
       <use xlink:href="#m53ed879ca2" x="251.9861" y="273.312" style="stroke: #000000; stroke-width: 0.8"/>
      </g>
     </g>
     <g id="text_6">
      <!-- 15 -->
      <g transform="translate(245.6236 287.910437) scale(0.1 -0.1)">
       <use xlink:href="#DejaVuSans-31"/>
       <use xlink:href="#DejaVuSans-35" x="63.623047"/>
      </g>
     </g>
    </g>
    <g id="xtick_7">
     <g id="line2d_7">
      <g>
       <use xlink:href="#m53ed879ca2" x="292.022464" y="273.312" style="stroke: #000000; stroke-width: 0.8"/>
      </g>
     </g>
     <g id="text_7">
      <!-- 20 -->
      <g transform="translate(285.659964 287.910437) scale(0.1 -0.1)">
       <defs>
        <path id="DejaVuSans-32" d="M 1228 531 
L 3431 531 
L 3431 0 
L 469 0 
L 469 531 
Q 828 903 1448 1529 
Q 2069 2156 2228 2338 
Q 2531 2678 2651 2914 
Q 2772 3150 2772 3378 
Q 2772 3750 2511 3984 
Q 2250 4219 1831 4219 
Q 1534 4219 1204 4116 
Q 875 4013 500 3803 
L 500 4441 
Q 881 4594 1212 4672 
Q 1544 4750 1819 4750 
Q 2544 4750 2975 4387 
Q 3406 4025 3406 3419 
Q 3406 3131 3298 2873 
Q 3191 2616 2906 2266 
Q 2828 2175 2409 1742 
Q 1991 1309 1228 531 
z
" transform="scale(0.015625)"/>
       </defs>
       <use xlink:href="#DejaVuSans-32"/>
       <use xlink:href="#DejaVuSans-30" x="63.623047"/>
      </g>
     </g>
    </g>
    <g id="xtick_8">
     <g id="line2d_8">
      <g>
       <use xlink:href="#m53ed879ca2" x="332.058827" y="273.312" style="stroke: #000000; stroke-width: 0.8"/>
      </g>
     </g>
     <g id="text_8">
      <!-- 25 -->
      <g transform="translate(325.696327 287.910437) scale(0.1 -0.1)">
       <use xlink:href="#DejaVuSans-32"/>
       <use xlink:href="#DejaVuSans-35" x="63.623047"/>
      </g>
     </g>
    </g>
    <g id="xtick_9">
     <g id="line2d_9">
      <g>
       <use xlink:href="#m53ed879ca2" x="372.095191" y="273.312" style="stroke: #000000; stroke-width: 0.8"/>
      </g>
     </g>
     <g id="text_9">
      <!-- 30 -->
      <g transform="translate(365.732691 287.910437) scale(0.1 -0.1)">
       <defs>
        <path id="DejaVuSans-33" d="M 2597 2516 
Q 3050 2419 3304 2112 
Q 3559 1806 3559 1356 
Q 3559 666 3084 287 
Q 2609 -91 1734 -91 
Q 1441 -91 1130 -33 
Q 819 25 488 141 
L 488 750 
Q 750 597 1062 519 
Q 1375 441 1716 441 
Q 2309 441 2620 675 
Q 2931 909 2931 1356 
Q 2931 1769 2642 2001 
Q 2353 2234 1838 2234 
L 1294 2234 
L 1294 2753 
L 1863 2753 
Q 2328 2753 2575 2939 
Q 2822 3125 2822 3475 
Q 2822 3834 2567 4026 
Q 2313 4219 1838 4219 
Q 1578 4219 1281 4162 
Q 984 4106 628 3988 
L 628 4550 
Q 988 4650 1302 4700 
Q 1616 4750 1894 4750 
Q 2613 4750 3031 4423 
Q 3450 4097 3450 3541 
Q 3450 3153 3228 2886 
Q 3006 2619 2597 2516 
z
" transform="scale(0.015625)"/>
       </defs>
       <use xlink:href="#DejaVuSans-33"/>
       <use xlink:href="#DejaVuSans-30" x="63.623047"/>
      </g>
     </g>
    </g>
   </g>
   <g id="matplotlib.axis_2">
    <g id="ytick_1">
     <g id="line2d_10">
      <defs>
       <path id="ma854879137" d="M 0 0 
L -3.5 0 
" style="stroke: #000000; stroke-width: 0.8"/>
      </defs>
      <g>
       <use xlink:href="#ma854879137" x="35.304688" y="256.093849" style="stroke: #000000; stroke-width: 0.8"/>
      </g>
     </g>
     <g id="text_10">
      <!-- −15 -->
      <g transform="translate(7.2 259.893068) scale(0.1 -0.1)">
       <use xlink:href="#DejaVuSans-2212"/>
       <use xlink:href="#DejaVuSans-31" x="83.789062"/>
       <use xlink:href="#DejaVuSans-35" x="147.412109"/>
      </g>
     </g>
    </g>
    <g id="ytick_2">
     <g id="line2d_11">
      <g>
       <use xlink:href="#ma854879137" x="35.304688" y="223.021488" style="stroke: #000000; stroke-width: 0.8"/>
      </g>
     </g>
     <g id="text_11">
      <!-- −10 -->
      <g transform="translate(7.2 226.820706) scale(0.1 -0.1)">
       <use xlink:href="#DejaVuSans-2212"/>
       <use xlink:href="#DejaVuSans-31" x="83.789062"/>
       <use xlink:href="#DejaVuSans-30" x="147.412109"/>
      </g>
     </g>
    </g>
    <g id="ytick_3">
     <g id="line2d_12">
      <g>
       <use xlink:href="#ma854879137" x="35.304688" y="189.949126" style="stroke: #000000; stroke-width: 0.8"/>
      </g>
     </g>
     <g id="text_12">
      <!-- −5 -->
      <g transform="translate(13.5625 193.748345) scale(0.1 -0.1)">
       <use xlink:href="#DejaVuSans-2212"/>
       <use xlink:href="#DejaVuSans-35" x="83.789062"/>
      </g>
     </g>
    </g>
    <g id="ytick_4">
     <g id="line2d_13">
      <g>
       <use xlink:href="#ma854879137" x="35.304688" y="156.876765" style="stroke: #000000; stroke-width: 0.8"/>
      </g>
     </g>
     <g id="text_13">
      <!-- 0 -->
      <g transform="translate(21.942187 160.675984) scale(0.1 -0.1)">
       <use xlink:href="#DejaVuSans-30"/>
      </g>
     </g>
    </g>
    <g id="ytick_5">
     <g id="line2d_14">
      <g>
       <use xlink:href="#ma854879137" x="35.304688" y="123.804404" style="stroke: #000000; stroke-width: 0.8"/>
      </g>
     </g>
     <g id="text_14">
      <!-- 5 -->
      <g transform="translate(21.942187 127.603623) scale(0.1 -0.1)">
       <use xlink:href="#DejaVuSans-35"/>
      </g>
     </g>
    </g>
    <g id="ytick_6">
     <g id="line2d_15">
      <g>
       <use xlink:href="#ma854879137" x="35.304688" y="90.732043" style="stroke: #000000; stroke-width: 0.8"/>
      </g>
     </g>
     <g id="text_15">
      <!-- 10 -->
      <g transform="translate(15.579687 94.531262) scale(0.1 -0.1)">
       <use xlink:href="#DejaVuSans-31"/>
       <use xlink:href="#DejaVuSans-30" x="63.623047"/>
      </g>
     </g>
    </g>
    <g id="ytick_7">
     <g id="line2d_16">
      <g>
       <use xlink:href="#ma854879137" x="35.304688" y="57.659682" style="stroke: #000000; stroke-width: 0.8"/>
      </g>
     </g>
     <g id="text_16">
      <!-- 15 -->
      <g transform="translate(15.579687 61.4589) scale(0.1 -0.1)">
       <use xlink:href="#DejaVuSans-31"/>
       <use xlink:href="#DejaVuSans-35" x="63.623047"/>
      </g>
     </g>
    </g>
    <g id="ytick_8">
     <g id="line2d_17">
      <g>
       <use xlink:href="#ma854879137" x="35.304688" y="24.58732" style="stroke: #000000; stroke-width: 0.8"/>
      </g>
     </g>
     <g id="text_17">
      <!-- 20 -->
      <g transform="translate(15.579687 28.386539) scale(0.1 -0.1)">
       <use xlink:href="#DejaVuSans-32"/>
       <use xlink:href="#DejaVuSans-30" x="63.623047"/>
      </g>
     </g>
    </g>
   </g>
   <g id="patch_3">
    <path d="M 35.304688 273.312 
L 35.304688 7.2 
" style="fill: none; stroke: #000000; stroke-width: 0.8; stroke-linejoin: miter; stroke-linecap: square"/>
   </g>
   <g id="patch_4">
    <path d="M 392.424688 273.312 
L 392.424688 7.2 
" style="fill: none; stroke: #000000; stroke-width: 0.8; stroke-linejoin: miter; stroke-linecap: square"/>
   </g>
   <g id="patch_5">
    <path d="M 35.304687 273.312 
L 392.424688 273.312 
" style="fill: none; stroke: #000000; stroke-width: 0.8; stroke-linejoin: miter; stroke-linecap: square"/>
   </g>
   <g id="patch_6">
    <path d="M 35.304687 7.2 
L 392.424688 7.2 
" style="fill: none; stroke: #000000; stroke-width: 0.8; stroke-linejoin: miter; stroke-linecap: square"/>
   </g>
  </g>
 </g>
 <defs>
  <clipPath id="p8f8e139284">
   <rect x="35.304688" y="7.2" width="357.12" height="266.112"/>
  </clipPath>
 </defs>
</svg>
