<?xml version="1.0" encoding="utf-8" standalone="no"?>
<!DOCTYPE svg PUBLIC "-//W3C//DTD SVG 1.1//EN"
  "http://www.w3.org/Graphics/SVG/1.1/DTD/svg11.dtd">
<svg xmlns:xlink="http://www.w3.org/1999/xlink" width="399.624687pt" height="297.190125pt" viewBox="0 0 399.624687 297.190125" xmlns="http://www.w3.org/2000/svg" version="1.1">
 <metadata>
  <rdf:RDF xmlns:dc="http://purl.org/dc/elements/1.1/" xmlns:cc="http://creativecommons.org/ns#" xmlns:rdf="http://www.w3.org/1999/02/22-rdf-syntax-ns#">
   <cc:Work>
    <dc:type rdf:resource="http://purl.org/dc/dcmitype/StillImage"/>
    <dc:date>2023-11-13T23:42:57.913860</dc:date>
    <dc:format>image/svg+xml</dc:format>
    <dc:creator>
     <cc:Agent>
      <dc:title>Matplotlib v3.8.0, https://matplotlib.org/</dc:title>
     </cc:Agent>
    </dc:creator>
   </cc:Work>
  </rdf:RDF>
 </metadata>
 <defs>
  <style type="text/css">*{stroke-linejoin: round; stroke-linecap: butt}</style>
 </defs>
 <g id="figure_1">
  <g id="patch_1">
   <path d="M 0 297.190125 
L 399.624687 297.190125 
L 399.624687 0 
L 0 0 
z
" style="fill: #ffffff"/>
  </g>
  <g id="axes_1">
   <g id="patch_2">
    <path d="M 35.304688 273.312 
L 392.424688 273.312 
L 392.424688 7.2 
L 35.304688 7.2 
z
" style="fill: #ffffff"/>
   </g>
   <g id="PathCollection_1">
    <defs>
     <path id="mdf0f4402ef" d="M 0 1.5 
C 0.397805 1.5 0.77937 1.341951 1.06066 1.06066 
C 1.341951 0.77937 1.5 0.397805 1.5 0 
C 1.5 -0.397805 1.341951 -0.77937 1.06066 -1.06066 
C 0.77937 -1.341951 0.397805 -1.5 0 -1.5 
C -0.397805 -1.5 -0.77937 -1.341951 -1.06066 -1.06066 
C -1.341951 -0.77937 -1.5 -0.397805 -1.5 0 
C -1.5 0.397805 -1.341951 0.77937 -1.06066 1.06066 
C -0.77937 1.341951 -0.397805 1.5 0 1.5 
z
" style="stroke: #ff8c00"/>
    </defs>
    <g clip-path="url(#p4c52c471dd)">
     <use xlink:href="#mdf0f4402ef" x="236.803428" y="189.159178" style="fill: #ff8c00; stroke: #ff8c00"/>
     <use xlink:href="#mdf0f4402ef" x="227.470569" y="185.31042" style="fill: #ff8c00; stroke: #ff8c00"/>
     <use xlink:href="#mdf0f4402ef" x="218.356382" y="158.184237" style="fill: #ff8c00; stroke: #ff8c00"/>
     <use xlink:href="#mdf0f4402ef" x="132.036518" y="228.305548" style="fill: #ff8c00; stroke: #ff8c00"/>
     <use xlink:href="#mdf0f4402ef" x="141.407157" y="241.602405" style="fill: #ff8c00; stroke: #ff8c00"/>
     <use xlink:href="#mdf0f4402ef" x="217.632781" y="108.665104" style="fill: #ff8c00; stroke: #ff8c00"/>
     <use xlink:href="#mdf0f4402ef" x="243.888314" y="149.697453" style="fill: #ff8c00; stroke: #ff8c00"/>
     <use xlink:href="#mdf0f4402ef" x="289.340758" y="194.320394" style="fill: #ff8c00; stroke: #ff8c00"/>
     <use xlink:href="#mdf0f4402ef" x="204.686116" y="222.083098" style="fill: #ff8c00; stroke: #ff8c00"/>
     <use xlink:href="#mdf0f4402ef" x="216.277026" y="199.072603" style="fill: #ff8c00; stroke: #ff8c00"/>
     <use xlink:href="#mdf0f4402ef" x="289.547813" y="163.176244" style="fill: #ff8c00; stroke: #ff8c00"/>
     <use xlink:href="#mdf0f4402ef" x="232.97248" y="217.862158" style="fill: #ff8c00; stroke: #ff8c00"/>
     <use xlink:href="#mdf0f4402ef" x="125.004427" y="233.211051" style="fill: #ff8c00; stroke: #ff8c00"/>
     <use xlink:href="#mdf0f4402ef" x="186.659103" y="220.119786" style="fill: #ff8c00; stroke: #ff8c00"/>
    </g>
   </g>
   <g id="PathCollection_2">
    <defs>
     <path id="m19abe25aeb" d="M 0 1.5 
C 0.397805 1.5 0.77937 1.341951 1.06066 1.06066 
C 1.341951 0.77937 1.5 0.397805 1.5 0 
C 1.5 -0.397805 1.341951 -0.77937 1.06066 -1.06066 
C 0.77937 -1.341951 0.397805 -1.5 0 -1.5 
C -0.397805 -1.5 -0.77937 -1.341951 -1.06066 -1.06066 
C -1.341951 -0.77937 -1.5 -0.397805 -1.5 0 
C -1.5 0.397805 -1.341951 0.77937 -1.06066 1.06066 
C -0.77937 1.341951 -0.397805 1.5 0 1.5 
z
" style="stroke: #006400"/>
    </defs>
    <g clip-path="url(#p4c52c471dd)">
     <use xlink:href="#m19abe25aeb" x="175.839869" y="239.797489" style="fill: #006400; stroke: #006400"/>
     <use xlink:href="#m19abe25aeb" x="229.078885" y="241.860874" style="fill: #006400; stroke: #006400"/>
     <use xlink:href="#m19abe25aeb" x="151.017769" y="260.121717" style="fill: #006400; stroke: #006400"/>
     <use xlink:href="#m19abe25aeb" x="83.177466" y="232.183815" style="fill: #006400; stroke: #006400"/>
     <use xlink:href="#m19abe25aeb" x="147.480604" y="249.684208" style="fill: #006400; stroke: #006400"/>
     <use xlink:href="#m19abe25aeb" x="138.50741" y="226.633921" style="fill: #006400; stroke: #006400"/>
     <use xlink:href="#m19abe25aeb" x="110.203833" y="250.789399" style="fill: #006400; stroke: #006400"/>
     <use xlink:href="#m19abe25aeb" x="235.371205" y="244.791272" style="fill: #006400; stroke: #006400"/>
     <use xlink:href="#m19abe25aeb" x="248.480844" y="246.596533" style="fill: #006400; stroke: #006400"/>
     <use xlink:href="#m19abe25aeb" x="204.865191" y="210.504695" style="fill: #006400; stroke: #006400"/>
     <use xlink:href="#m19abe25aeb" x="162.790233" y="258.847924" style="fill: #006400; stroke: #006400"/>
     <use xlink:href="#m19abe25aeb" x="155.725971" y="220.903005" style="fill: #006400; stroke: #006400"/>
     <use xlink:href="#m19abe25aeb" x="159.713961" y="203.288136" style="fill: #006400; stroke: #006400"/>
     <use xlink:href="#m19abe25aeb" x="216.527206" y="259.109197" style="fill: #006400; stroke: #006400"/>
     <use xlink:href="#m19abe25aeb" x="117.378691" y="228.665907" style="fill: #006400; stroke: #006400"/>
     <use xlink:href="#m19abe25aeb" x="136.460992" y="223.237216" style="fill: #006400; stroke: #006400"/>
     <use xlink:href="#m19abe25aeb" x="301.896404" y="254.161011" style="fill: #006400; stroke: #006400"/>
     <use xlink:href="#m19abe25aeb" x="112.946723" y="243.555506" style="fill: #006400; stroke: #006400"/>
    </g>
   </g>
   <g id="PathCollection_3">
    <defs>
     <path id="m6dd2370940" d="M 0 1.5 
C 0.397805 1.5 0.77937 1.341951 1.06066 1.06066 
C 1.341951 0.77937 1.5 0.397805 1.5 0 
C 1.5 -0.397805 1.341951 -0.77937 1.06066 -1.06066 
C 0.77937 -1.341951 0.397805 -1.5 0 -1.5 
C -0.397805 -1.5 -0.77937 -1.341951 -1.06066 -1.06066 
C -1.341951 -0.77937 -1.5 -0.397805 -1.5 0 
C -1.5 0.397805 -1.341951 0.77937 -1.06066 1.06066 
C -0.77937 1.341951 -0.397805 1.5 0 1.5 
z
" style="stroke: #2f4f4f"/>
    </defs>
    <g clip-path="url(#p4c52c471dd)">
     <use xlink:href="#m6dd2370940" x="78.047656" y="218.726513" style="fill: #2f4f4f; stroke: #2f4f4f"/>
     <use xlink:href="#m6dd2370940" x="187.222968" y="229.16773" style="fill: #2f4f4f; stroke: #2f4f4f"/>
     <use xlink:href="#m6dd2370940" x="259.183735" y="199.267078" style="fill: #2f4f4f; stroke: #2f4f4f"/>
     <use xlink:href="#m6dd2370940" x="131.707793" y="258.130106" style="fill: #2f4f4f; stroke: #2f4f4f"/>
     <use xlink:href="#m6dd2370940" x="182.727336" y="235.239274" style="fill: #2f4f4f; stroke: #2f4f4f"/>
     <use xlink:href="#m6dd2370940" x="118.414208" y="228.314379" style="fill: #2f4f4f; stroke: #2f4f4f"/>
     <use xlink:href="#m6dd2370940" x="100.300725" y="227.384016" style="fill: #2f4f4f; stroke: #2f4f4f"/>
     <use xlink:href="#m6dd2370940" x="150.106724" y="239.993724" style="fill: #2f4f4f; stroke: #2f4f4f"/>
     <use xlink:href="#m6dd2370940" x="175.104604" y="224.360372" style="fill: #2f4f4f; stroke: #2f4f4f"/>
     <use xlink:href="#m6dd2370940" x="178.380206" y="214.525994" style="fill: #2f4f4f; stroke: #2f4f4f"/>
     <use xlink:href="#m6dd2370940" x="137.393663" y="238.499851" style="fill: #2f4f4f; stroke: #2f4f4f"/>
     <use xlink:href="#m6dd2370940" x="181.519422" y="243.32763" style="fill: #2f4f4f; stroke: #2f4f4f"/>
    </g>
   </g>
   <g id="PathCollection_4">
    <defs>
     <path id="ma74fe53fcc" d="M 0 1.5 
C 0.397805 1.5 0.77937 1.341951 1.06066 1.06066 
C 1.341951 0.77937 1.5 0.397805 1.5 0 
C 1.5 -0.397805 1.341951 -0.77937 1.06066 -1.06066 
C 0.77937 -1.341951 0.397805 -1.5 0 -1.5 
C -0.397805 -1.5 -0.77937 -1.341951 -1.06066 -1.06066 
C -1.341951 -0.77937 -1.5 -0.397805 -1.5 0 
C -1.5 0.397805 -1.341951 0.77937 -1.06066 1.06066 
C -0.77937 1.341951 -0.397805 1.5 0 1.5 
z
" style="stroke: #00bfff"/>
    </defs>
    <g clip-path="url(#p4c52c471dd)">
     <use xlink:href="#ma74fe53fcc" x="161.070011" y="220.622776" style="fill: #00bfff; stroke: #00bfff"/>
     <use xlink:href="#ma74fe53fcc" x="185.920307" y="248.018521" style="fill: #00bfff; stroke: #00bfff"/>
     <use xlink:href="#ma74fe53fcc" x="132.630151" y="237.103726" style="fill: #00bfff; stroke: #00bfff"/>
     <use xlink:href="#ma74fe53fcc" x="153.379429" y="207.776605" style="fill: #00bfff; stroke: #00bfff"/>
     <use xlink:href="#ma74fe53fcc" x="66.408143" y="238.662012" style="fill: #00bfff; stroke: #00bfff"/>
     <use xlink:href="#ma74fe53fcc" x="116.654268" y="230.959092" style="fill: #00bfff; stroke: #00bfff"/>
     <use xlink:href="#ma74fe53fcc" x="60.0572" y="223.609461" style="fill: #00bfff; stroke: #00bfff"/>
     <use xlink:href="#ma74fe53fcc" x="116.770957" y="223.755117" style="fill: #00bfff; stroke: #00bfff"/>
     <use xlink:href="#ma74fe53fcc" x="93.9105" y="247.107192" style="fill: #00bfff; stroke: #00bfff"/>
     <use xlink:href="#ma74fe53fcc" x="140.838949" y="198.013688" style="fill: #00bfff; stroke: #00bfff"/>
     <use xlink:href="#ma74fe53fcc" x="119.122401" y="240.466246" style="fill: #00bfff; stroke: #00bfff"/>
     <use xlink:href="#ma74fe53fcc" x="72.138923" y="243.084163" style="fill: #00bfff; stroke: #00bfff"/>
    </g>
   </g>
   <g id="PathCollection_5">
    <defs>
     <path id="mec6c0fd78c" d="M 0 1.5 
C 0.397805 1.5 0.77937 1.341951 1.06066 1.06066 
C 1.341951 0.77937 1.5 0.397805 1.5 0 
C 1.5 -0.397805 1.341951 -0.77937 1.06066 -1.06066 
C 0.77937 -1.341951 0.397805 -1.5 0 -1.5 
C -0.397805 -1.5 -0.77937 -1.341951 -1.06066 -1.06066 
C -1.341951 -0.77937 -1.5 -0.397805 -1.5 0 
C -1.5 0.397805 -1.341951 0.77937 -1.06066 1.06066 
C -0.77937 1.341951 -0.397805 1.5 0 1.5 
z
" style="stroke: #ffff00"/>
    </defs>
    <g clip-path="url(#p4c52c471dd)">
     <use xlink:href="#mec6c0fd78c" x="53.621186" y="233.68071" style="fill: #ffff00; stroke: #ffff00"/>
     <use xlink:href="#mec6c0fd78c" x="51.537415" y="222.777493" style="fill: #ffff00; stroke: #ffff00"/>
     <use xlink:href="#mec6c0fd78c" x="93.114353" y="206.858382" style="fill: #ffff00; stroke: #ffff00"/>
     <use xlink:href="#mec6c0fd78c" x="150.329418" y="215.790949" style="fill: #ffff00; stroke: #ffff00"/>
     <use xlink:href="#mec6c0fd78c" x="110.393696" y="240.66947" style="fill: #ffff00; stroke: #ffff00"/>
     <use xlink:href="#mec6c0fd78c" x="140.921978" y="199.597446" style="fill: #ffff00; stroke: #ffff00"/>
     <use xlink:href="#mec6c0fd78c" x="110.393696" y="240.66947" style="fill: #ffff00; stroke: #ffff00"/>
     <use xlink:href="#mec6c0fd78c" x="159.289843" y="212.372275" style="fill: #ffff00; stroke: #ffff00"/>
     <use xlink:href="#mec6c0fd78c" x="132.613864" y="237.665159" style="fill: #ffff00; stroke: #ffff00"/>
     <use xlink:href="#mec6c0fd78c" x="98.84772" y="226.227276" style="fill: #ffff00; stroke: #ffff00"/>
     <use xlink:href="#mec6c0fd78c" x="107.36488" y="214.161886" style="fill: #ffff00; stroke: #ffff00"/>
     <use xlink:href="#mec6c0fd78c" x="163.654736" y="219.009783" style="fill: #ffff00; stroke: #ffff00"/>
     <use xlink:href="#mec6c0fd78c" x="203.496295" y="220.41263" style="fill: #ffff00; stroke: #ffff00"/>
     <use xlink:href="#mec6c0fd78c" x="183.469856" y="197.127538" style="fill: #ffff00; stroke: #ffff00"/>
     <use xlink:href="#mec6c0fd78c" x="124.435862" y="222.182306" style="fill: #ffff00; stroke: #ffff00"/>
     <use xlink:href="#mec6c0fd78c" x="109.397178" y="210.108274" style="fill: #ffff00; stroke: #ffff00"/>
     <use xlink:href="#mec6c0fd78c" x="128.839225" y="235.136915" style="fill: #ffff00; stroke: #ffff00"/>
     <use xlink:href="#mec6c0fd78c" x="137.76822" y="234.580284" style="fill: #ffff00; stroke: #ffff00"/>
    </g>
   </g>
   <g id="PathCollection_6">
    <defs>
     <path id="mf03254ac3a" d="M 0 1.5 
C 0.397805 1.5 0.77937 1.341951 1.06066 1.06066 
C 1.341951 0.77937 1.5 0.397805 1.5 0 
C 1.5 -0.397805 1.341951 -0.77937 1.06066 -1.06066 
C 0.77937 -1.341951 0.397805 -1.5 0 -1.5 
C -0.397805 -1.5 -0.77937 -1.341951 -1.06066 -1.06066 
C -1.341951 -0.77937 -1.5 -0.397805 -1.5 0 
C -1.5 0.397805 -1.341951 0.77937 -1.06066 1.06066 
C -0.77937 1.341951 -0.397805 1.5 0 1.5 
z
" style="stroke: #00ffff"/>
    </defs>
    <g clip-path="url(#p4c52c471dd)">
     <use xlink:href="#mf03254ac3a" x="148.685819" y="252.722249" style="fill: #00ffff; stroke: #00ffff"/>
     <use xlink:href="#mf03254ac3a" x="214.565943" y="214.54769" style="fill: #00ffff; stroke: #00ffff"/>
     <use xlink:href="#mf03254ac3a" x="164.678419" y="243.326788" style="fill: #00ffff; stroke: #00ffff"/>
     <use xlink:href="#mf03254ac3a" x="53.013232" y="233.422444" style="fill: #00ffff; stroke: #00ffff"/>
     <use xlink:href="#mf03254ac3a" x="100.180016" y="224.854126" style="fill: #00ffff; stroke: #00ffff"/>
     <use xlink:href="#mf03254ac3a" x="99.533955" y="241.372744" style="fill: #00ffff; stroke: #00ffff"/>
     <use xlink:href="#mf03254ac3a" x="108.33427" y="220.375977" style="fill: #00ffff; stroke: #00ffff"/>
     <use xlink:href="#mf03254ac3a" x="73.572041" y="226.650062" style="fill: #00ffff; stroke: #00ffff"/>
     <use xlink:href="#mf03254ac3a" x="100.939274" y="222.833917" style="fill: #00ffff; stroke: #00ffff"/>
     <use xlink:href="#mf03254ac3a" x="96.068362" y="234.692965" style="fill: #00ffff; stroke: #00ffff"/>
     <use xlink:href="#mf03254ac3a" x="51.872043" y="248.851554" style="fill: #00ffff; stroke: #00ffff"/>
    </g>
   </g>
   <g id="PathCollection_7">
    <defs>
     <path id="ma2ab007415" d="M 0 1.5 
C 0.397805 1.5 0.77937 1.341951 1.06066 1.06066 
C 1.341951 0.77937 1.5 0.397805 1.5 0 
C 1.5 -0.397805 1.341951 -0.77937 1.06066 -1.06066 
C 0.77937 -1.341951 0.397805 -1.5 0 -1.5 
C -0.397805 -1.5 -0.77937 -1.341951 -1.06066 -1.06066 
C -1.341951 -0.77937 -1.5 -0.397805 -1.5 0 
C -1.5 0.397805 -1.341951 0.77937 -1.06066 1.06066 
C -0.77937 1.341951 -0.397805 1.5 0 1.5 
z
" style="stroke: #0000ff"/>
    </defs>
    <g clip-path="url(#p4c52c471dd)">
     <use xlink:href="#ma2ab007415" x="276.307276" y="104.816349" style="fill: #0000ff; stroke: #0000ff"/>
     <use xlink:href="#ma2ab007415" x="122.176114" y="204.707344" style="fill: #0000ff; stroke: #0000ff"/>
     <use xlink:href="#ma2ab007415" x="212.234289" y="19.296" style="fill: #0000ff; stroke: #0000ff"/>
     <use xlink:href="#ma2ab007415" x="218.600438" y="230.882275" style="fill: #0000ff; stroke: #0000ff"/>
     <use xlink:href="#ma2ab007415" x="164.379413" y="147.416084" style="fill: #0000ff; stroke: #0000ff"/>
     <use xlink:href="#ma2ab007415" x="146.488075" y="133.529556" style="fill: #0000ff; stroke: #0000ff"/>
     <use xlink:href="#ma2ab007415" x="179.664615" y="143.625086" style="fill: #0000ff; stroke: #0000ff"/>
     <use xlink:href="#ma2ab007415" x="124.311214" y="219.836161" style="fill: #0000ff; stroke: #0000ff"/>
     <use xlink:href="#ma2ab007415" x="117.63382" y="176.05015" style="fill: #0000ff; stroke: #0000ff"/>
     <use xlink:href="#ma2ab007415" x="204.898965" y="214.520695" style="fill: #0000ff; stroke: #0000ff"/>
     <use xlink:href="#ma2ab007415" x="138.32156" y="113.580434" style="fill: #0000ff; stroke: #0000ff"/>
     <use xlink:href="#ma2ab007415" x="141.521861" y="198.459355" style="fill: #0000ff; stroke: #0000ff"/>
     <use xlink:href="#ma2ab007415" x="93.92651" y="241.936947" style="fill: #0000ff; stroke: #0000ff"/>
     <use xlink:href="#ma2ab007415" x="216.823732" y="178.699685" style="fill: #0000ff; stroke: #0000ff"/>
     <use xlink:href="#ma2ab007415" x="257.862827" y="230.073994" style="fill: #0000ff; stroke: #0000ff"/>
     <use xlink:href="#ma2ab007415" x="103.401289" y="174.441392" style="fill: #0000ff; stroke: #0000ff"/>
    </g>
   </g>
   <g id="PathCollection_8">
    <defs>
     <path id="med7e4d8052" d="M 0 1.5 
C 0.397805 1.5 0.77937 1.341951 1.06066 1.06066 
C 1.341951 0.77937 1.5 0.397805 1.5 0 
C 1.5 -0.397805 1.341951 -0.77937 1.06066 -1.06066 
C 0.77937 -1.341951 0.397805 -1.5 0 -1.5 
C -0.397805 -1.5 -0.77937 -1.341951 -1.06066 -1.06066 
C -1.341951 -0.77937 -1.5 -0.397805 -1.5 0 
C -1.5 0.397805 -1.341951 0.77937 -1.06066 1.06066 
C -0.77937 1.341951 -0.397805 1.5 0 1.5 
z
" style="stroke: #dc143c"/>
    </defs>
    <g clip-path="url(#p4c52c471dd)">
     <use xlink:href="#med7e4d8052" x="193.385836" y="241.363382" style="fill: #dc143c; stroke: #dc143c"/>
     <use xlink:href="#med7e4d8052" x="218.0894" y="225.212406" style="fill: #dc143c; stroke: #dc143c"/>
     <use xlink:href="#med7e4d8052" x="177.730356" y="236.668329" style="fill: #dc143c; stroke: #dc143c"/>
     <use xlink:href="#med7e4d8052" x="242.015152" y="241.897932" style="fill: #dc143c; stroke: #dc143c"/>
     <use xlink:href="#med7e4d8052" x="212.185354" y="233.780084" style="fill: #dc143c; stroke: #dc143c"/>
     <use xlink:href="#med7e4d8052" x="229.715346" y="239.480198" style="fill: #dc143c; stroke: #dc143c"/>
     <use xlink:href="#med7e4d8052" x="216.988985" y="252.786546" style="fill: #dc143c; stroke: #dc143c"/>
     <use xlink:href="#med7e4d8052" x="258.992609" y="204.50803" style="fill: #dc143c; stroke: #dc143c"/>
     <use xlink:href="#med7e4d8052" x="205.278165" y="243.435153" style="fill: #dc143c; stroke: #dc143c"/>
     <use xlink:href="#med7e4d8052" x="213.375367" y="242.813731" style="fill: #dc143c; stroke: #dc143c"/>
     <use xlink:href="#med7e4d8052" x="202.038367" y="232.435303" style="fill: #dc143c; stroke: #dc143c"/>
     <use xlink:href="#med7e4d8052" x="306.380033" y="235.036963" style="fill: #dc143c; stroke: #dc143c"/>
     <use xlink:href="#med7e4d8052" x="296.811058" y="235.505252" style="fill: #dc143c; stroke: #dc143c"/>
     <use xlink:href="#med7e4d8052" x="186.285184" y="230.459624" style="fill: #dc143c; stroke: #dc143c"/>
    </g>
   </g>
   <g id="PathCollection_9">
    <defs>
     <path id="mb825a08804" d="M 0 1.5 
C 0.397805 1.5 0.77937 1.341951 1.06066 1.06066 
C 1.341951 0.77937 1.5 0.397805 1.5 0 
C 1.5 -0.397805 1.341951 -0.77937 1.06066 -1.06066 
C 0.77937 -1.341951 0.397805 -1.5 0 -1.5 
C -0.397805 -1.5 -0.77937 -1.341951 -1.06066 -1.06066 
C -1.341951 -0.77937 -1.5 -0.397805 -1.5 0 
C -1.5 0.397805 -1.341951 0.77937 -1.06066 1.06066 
C -0.77937 1.341951 -0.397805 1.5 0 1.5 
z
" style="stroke: #ffe4c4"/>
    </defs>
    <g clip-path="url(#p4c52c471dd)">
     <use xlink:href="#mb825a08804" x="327.485544" y="239.30975" style="fill: #ffe4c4; stroke: #ffe4c4"/>
     <use xlink:href="#mb825a08804" x="301.033892" y="176.892287" style="fill: #ffe4c4; stroke: #ffe4c4"/>
     <use xlink:href="#mb825a08804" x="192.533268" y="167.673681" style="fill: #ffe4c4; stroke: #ffe4c4"/>
     <use xlink:href="#mb825a08804" x="157.42604" y="198.725696" style="fill: #ffe4c4; stroke: #ffe4c4"/>
     <use xlink:href="#mb825a08804" x="172.088628" y="212.595444" style="fill: #ffe4c4; stroke: #ffe4c4"/>
     <use xlink:href="#mb825a08804" x="165.904731" y="170.102252" style="fill: #ffe4c4; stroke: #ffe4c4"/>
     <use xlink:href="#mb825a08804" x="254.205129" y="202.550801" style="fill: #ffe4c4; stroke: #ffe4c4"/>
     <use xlink:href="#mb825a08804" x="162.486686" y="186.511629" style="fill: #ffe4c4; stroke: #ffe4c4"/>
     <use xlink:href="#mb825a08804" x="271.457758" y="163.543757" style="fill: #ffe4c4; stroke: #ffe4c4"/>
     <use xlink:href="#mb825a08804" x="257.848958" y="195.284595" style="fill: #ffe4c4; stroke: #ffe4c4"/>
     <use xlink:href="#mb825a08804" x="130.123327" y="229.053669" style="fill: #ffe4c4; stroke: #ffe4c4"/>
     <use xlink:href="#mb825a08804" x="227.939483" y="174.01569" style="fill: #ffe4c4; stroke: #ffe4c4"/>
     <use xlink:href="#mb825a08804" x="135.07777" y="241.536496" style="fill: #ffe4c4; stroke: #ffe4c4"/>
    </g>
   </g>
   <g id="PathCollection_10">
    <defs>
     <path id="m0f51dbb85d" d="M -2.99994 2.99994 
L 3.00006 2.99994 
L 3.00006 -3.00006 
L -2.99994 -3.00006 
z
" style="stroke: #000000"/>
    </defs>
    <g clip-path="url(#p4c52c471dd)">
     <use xlink:href="#m0f51dbb85d" x="334.98809" y="236.636709" style="stroke: #000000"/>
     <use xlink:href="#m0f51dbb85d" x="219.642397" y="176.172374" style="stroke: #000000"/>
     <use xlink:href="#m0f51dbb85d" x="332.523098" y="247.789021" style="stroke: #000000"/>
     <use xlink:href="#m0f51dbb85d" x="258.821175" y="229.174108" style="stroke: #000000"/>
     <use xlink:href="#m0f51dbb85d" x="222.504695" y="163.4819" style="stroke: #000000"/>
     <use xlink:href="#m0f51dbb85d" x="243.527198" y="243.804894" style="stroke: #000000"/>
     <use xlink:href="#m0f51dbb85d" x="369.058751" y="243.138556" style="stroke: #000000"/>
     <use xlink:href="#m0f51dbb85d" x="219.627227" y="238.999966" style="stroke: #000000"/>
     <use xlink:href="#m0f51dbb85d" x="191.985091" y="243.650841" style="stroke: #000000"/>
     <use xlink:href="#m0f51dbb85d" x="210.342578" y="202.40448" style="stroke: #000000"/>
     <use xlink:href="#m0f51dbb85d" x="353.820884" y="224.219592" style="stroke: #000000"/>
     <use xlink:href="#m0f51dbb85d" x="271.794673" y="242.030782" style="stroke: #000000"/>
     <use xlink:href="#m0f51dbb85d" x="140.675071" y="236.942944" style="stroke: #000000"/>
     <use xlink:href="#m0f51dbb85d" x="183.769046" y="237.123376" style="stroke: #000000"/>
     <use xlink:href="#m0f51dbb85d" x="296.629347" y="243.244915" style="stroke: #000000"/>
     <use xlink:href="#m0f51dbb85d" x="122.749378" y="221.623393" style="stroke: #000000"/>
     <use xlink:href="#m0f51dbb85d" x="217.506382" y="252.55945" style="stroke: #000000"/>
     <use xlink:href="#m0f51dbb85d" x="234.38327" y="220.617241" style="stroke: #000000"/>
     <use xlink:href="#m0f51dbb85d" x="323.706948" y="222.149353" style="stroke: #000000"/>
     <use xlink:href="#m0f51dbb85d" x="360.555272" y="250.37421" style="stroke: #000000"/>
     <use xlink:href="#m0f51dbb85d" x="261.174082" y="205.66452" style="stroke: #000000"/>
     <use xlink:href="#m0f51dbb85d" x="376.19196" y="248.457427" style="stroke: #000000"/>
     <use xlink:href="#m0f51dbb85d" x="295.428602" y="256.640224" style="stroke: #000000"/>
     <use xlink:href="#m0f51dbb85d" x="218.516269" y="245.004559" style="stroke: #000000"/>
     <use xlink:href="#m0f51dbb85d" x="272.61708" y="233.394823" style="stroke: #000000"/>
     <use xlink:href="#m0f51dbb85d" x="367.501921" y="196.15805" style="stroke: #000000"/>
     <use xlink:href="#m0f51dbb85d" x="222.487083" y="237.668114" style="stroke: #000000"/>
     <use xlink:href="#m0f51dbb85d" x="247.919096" y="241.688452" style="stroke: #000000"/>
     <use xlink:href="#m0f51dbb85d" x="271.423847" y="150.952876" style="stroke: #000000"/>
     <use xlink:href="#m0f51dbb85d" x="313.815636" y="250.64594" style="stroke: #000000"/>
     <use xlink:href="#m0f51dbb85d" x="327.651991" y="240.535674" style="stroke: #000000"/>
     <use xlink:href="#m0f51dbb85d" x="300.898925" y="231.326108" style="stroke: #000000"/>
     <use xlink:href="#m0f51dbb85d" x="273.653859" y="254.493106" style="stroke: #000000"/>
     <use xlink:href="#m0f51dbb85d" x="341.139021" y="207.247162" style="stroke: #000000"/>
     <use xlink:href="#m0f51dbb85d" x="254.82871" y="226.371447" style="stroke: #000000"/>
     <use xlink:href="#m0f51dbb85d" x="245.786446" y="234.863398" style="stroke: #000000"/>
     <use xlink:href="#m0f51dbb85d" x="263.190307" y="206.300908" style="stroke: #000000"/>
     <use xlink:href="#m0f51dbb85d" x="260.199391" y="255.088515" style="stroke: #000000"/>
     <use xlink:href="#m0f51dbb85d" x="304.921527" y="235.110646" style="stroke: #000000"/>
     <use xlink:href="#m0f51dbb85d" x="199.458926" y="248.088169" style="stroke: #000000"/>
     <use xlink:href="#m0f51dbb85d" x="273.537566" y="229.220958" style="stroke: #000000"/>
     <use xlink:href="#m0f51dbb85d" x="228.374904" y="235.319534" style="stroke: #000000"/>
     <use xlink:href="#m0f51dbb85d" x="334.210762" y="244.70209" style="stroke: #000000"/>
     <use xlink:href="#m0f51dbb85d" x="266.515695" y="251.904437" style="stroke: #000000"/>
     <use xlink:href="#m0f51dbb85d" x="201.352984" y="243.250968" style="stroke: #000000"/>
     <use xlink:href="#m0f51dbb85d" x="186.303965" y="247.386984" style="stroke: #000000"/>
     <use xlink:href="#m0f51dbb85d" x="251.840991" y="212.368843" style="stroke: #000000"/>
     <use xlink:href="#m0f51dbb85d" x="348.106837" y="248.643114" style="stroke: #000000"/>
     <use xlink:href="#m0f51dbb85d" x="340.120299" y="235.614187" style="stroke: #000000"/>
     <use xlink:href="#m0f51dbb85d" x="276.468209" y="249.718702" style="stroke: #000000"/>
     <use xlink:href="#m0f51dbb85d" x="222.24211" y="254.260149" style="stroke: #000000"/>
     <use xlink:href="#m0f51dbb85d" x="200.762853" y="233.474664" style="stroke: #000000"/>
     <use xlink:href="#m0f51dbb85d" x="340.931998" y="237.420961" style="stroke: #000000"/>
     <use xlink:href="#m0f51dbb85d" x="228.669544" y="219.081474" style="stroke: #000000"/>
     <use xlink:href="#m0f51dbb85d" x="314.693775" y="196.776402" style="stroke: #000000"/>
     <use xlink:href="#m0f51dbb85d" x="211.341837" y="239.435419" style="stroke: #000000"/>
     <use xlink:href="#m0f51dbb85d" x="215.272622" y="224.409679" style="stroke: #000000"/>
     <use xlink:href="#m0f51dbb85d" x="284.882737" y="251.006091" style="stroke: #000000"/>
     <use xlink:href="#m0f51dbb85d" x="172.019737" y="204.397245" style="stroke: #000000"/>
     <use xlink:href="#m0f51dbb85d" x="195.872952" y="207.887167" style="stroke: #000000"/>
     <use xlink:href="#m0f51dbb85d" x="195.766012" y="223.910143" style="stroke: #000000"/>
     <use xlink:href="#m0f51dbb85d" x="201.650529" y="190.843515" style="stroke: #000000"/>
     <use xlink:href="#m0f51dbb85d" x="342.861079" y="256.900049" style="stroke: #000000"/>
     <use xlink:href="#m0f51dbb85d" x="238.327101" y="237.175709" style="stroke: #000000"/>
    </g>
   </g>
   <g id="PathCollection_11">
    <defs>
     <path id="m5b253dcf8f" d="M -3 -0 
L 3 3 
L 3 -3 
z
" style="stroke: #ff8c00"/>
    </defs>
    <g clip-path="url(#p4c52c471dd)">
     <use xlink:href="#m5b253dcf8f" x="216.797928" y="208.104319" style="fill: #ff8c00; stroke: #ff8c00"/>
     <use xlink:href="#m5b253dcf8f" x="131.072636" y="236.343971" style="fill: #ff8c00; stroke: #ff8c00"/>
     <use xlink:href="#m5b253dcf8f" x="215.470696" y="244.095403" style="fill: #ff8c00; stroke: #ff8c00"/>
     <use xlink:href="#m5b253dcf8f" x="175.540771" y="251.054693" style="fill: #ff8c00; stroke: #ff8c00"/>
     <use xlink:href="#m5b253dcf8f" x="200.77034" y="229.772709" style="fill: #ff8c00; stroke: #ff8c00"/>
     <use xlink:href="#m5b253dcf8f" x="174.214311" y="237.217158" style="fill: #ff8c00; stroke: #ff8c00"/>
     <use xlink:href="#m5b253dcf8f" x="214.02766" y="247.291177" style="fill: #ff8c00; stroke: #ff8c00"/>
     <use xlink:href="#m5b253dcf8f" x="215.922559" y="251.351451" style="fill: #ff8c00; stroke: #ff8c00"/>
     <use xlink:href="#m5b253dcf8f" x="180.166726" y="248.720559" style="fill: #ff8c00; stroke: #ff8c00"/>
     <use xlink:href="#m5b253dcf8f" x="178.669966" y="249.335858" style="fill: #ff8c00; stroke: #ff8c00"/>
     <use xlink:href="#m5b253dcf8f" x="219.706418" y="254.493031" style="fill: #ff8c00; stroke: #ff8c00"/>
     <use xlink:href="#m5b253dcf8f" x="162.467369" y="249.716905" style="fill: #ff8c00; stroke: #ff8c00"/>
     <use xlink:href="#m5b253dcf8f" x="215.547989" y="251.799424" style="fill: #ff8c00; stroke: #ff8c00"/>
     <use xlink:href="#m5b253dcf8f" x="205.979486" y="253.865434" style="fill: #ff8c00; stroke: #ff8c00"/>
     <use xlink:href="#m5b253dcf8f" x="108.249344" y="241.535078" style="fill: #ff8c00; stroke: #ff8c00"/>
     <use xlink:href="#m5b253dcf8f" x="157.437588" y="220.935626" style="fill: #ff8c00; stroke: #ff8c00"/>
     <use xlink:href="#m5b253dcf8f" x="244.553463" y="253.194899" style="fill: #ff8c00; stroke: #ff8c00"/>
     <use xlink:href="#m5b253dcf8f" x="205.028048" y="252.547038" style="fill: #ff8c00; stroke: #ff8c00"/>
     <use xlink:href="#m5b253dcf8f" x="217.214194" y="243.792397" style="fill: #ff8c00; stroke: #ff8c00"/>
     <use xlink:href="#m5b253dcf8f" x="203.359929" y="257.989264" style="fill: #ff8c00; stroke: #ff8c00"/>
     <use xlink:href="#m5b253dcf8f" x="221.220433" y="249.609588" style="fill: #ff8c00; stroke: #ff8c00"/>
     <use xlink:href="#m5b253dcf8f" x="176.09503" y="251.956854" style="fill: #ff8c00; stroke: #ff8c00"/>
     <use xlink:href="#m5b253dcf8f" x="196.106002" y="254.977185" style="fill: #ff8c00; stroke: #ff8c00"/>
     <use xlink:href="#m5b253dcf8f" x="216.376552" y="257.62561" style="fill: #ff8c00; stroke: #ff8c00"/>
     <use xlink:href="#m5b253dcf8f" x="190.973329" y="237.347232" style="fill: #ff8c00; stroke: #ff8c00"/>
     <use xlink:href="#m5b253dcf8f" x="169.187953" y="252.191915" style="fill: #ff8c00; stroke: #ff8c00"/>
     <use xlink:href="#m5b253dcf8f" x="122.096936" y="220.600991" style="fill: #ff8c00; stroke: #ff8c00"/>
     <use xlink:href="#m5b253dcf8f" x="122.684665" y="222.668696" style="fill: #ff8c00; stroke: #ff8c00"/>
     <use xlink:href="#m5b253dcf8f" x="234.844678" y="201.941783" style="fill: #ff8c00; stroke: #ff8c00"/>
     <use xlink:href="#m5b253dcf8f" x="152.851292" y="244.822668" style="fill: #ff8c00; stroke: #ff8c00"/>
     <use xlink:href="#m5b253dcf8f" x="129.402798" y="232.077744" style="fill: #ff8c00; stroke: #ff8c00"/>
     <use xlink:href="#m5b253dcf8f" x="166.784962" y="258.709877" style="fill: #ff8c00; stroke: #ff8c00"/>
     <use xlink:href="#m5b253dcf8f" x="199.968681" y="248.747209" style="fill: #ff8c00; stroke: #ff8c00"/>
     <use xlink:href="#m5b253dcf8f" x="178.368296" y="233.070195" style="fill: #ff8c00; stroke: #ff8c00"/>
     <use xlink:href="#m5b253dcf8f" x="75.660825" y="206.501372" style="fill: #ff8c00; stroke: #ff8c00"/>
     <use xlink:href="#m5b253dcf8f" x="228.161772" y="260.096955" style="fill: #ff8c00; stroke: #ff8c00"/>
     <use xlink:href="#m5b253dcf8f" x="163.767641" y="238.57196" style="fill: #ff8c00; stroke: #ff8c00"/>
     <use xlink:href="#m5b253dcf8f" x="245.535318" y="252.206809" style="fill: #ff8c00; stroke: #ff8c00"/>
     <use xlink:href="#m5b253dcf8f" x="222.291887" y="255.178576" style="fill: #ff8c00; stroke: #ff8c00"/>
     <use xlink:href="#m5b253dcf8f" x="201.746143" y="257.99604" style="fill: #ff8c00; stroke: #ff8c00"/>
     <use xlink:href="#m5b253dcf8f" x="139.970558" y="246.62792" style="fill: #ff8c00; stroke: #ff8c00"/>
     <use xlink:href="#m5b253dcf8f" x="155.171616" y="246.581241" style="fill: #ff8c00; stroke: #ff8c00"/>
     <use xlink:href="#m5b253dcf8f" x="170.160312" y="218.083977" style="fill: #ff8c00; stroke: #ff8c00"/>
     <use xlink:href="#m5b253dcf8f" x="150.754041" y="245.770561" style="fill: #ff8c00; stroke: #ff8c00"/>
     <use xlink:href="#m5b253dcf8f" x="137.832061" y="232.288349" style="fill: #ff8c00; stroke: #ff8c00"/>
     <use xlink:href="#m5b253dcf8f" x="144.252648" y="222.896822" style="fill: #ff8c00; stroke: #ff8c00"/>
     <use xlink:href="#m5b253dcf8f" x="95.58829" y="246.992411" style="fill: #ff8c00; stroke: #ff8c00"/>
     <use xlink:href="#m5b253dcf8f" x="191.177133" y="223.719495" style="fill: #ff8c00; stroke: #ff8c00"/>
     <use xlink:href="#m5b253dcf8f" x="213.486635" y="256.893043" style="fill: #ff8c00; stroke: #ff8c00"/>
     <use xlink:href="#m5b253dcf8f" x="273.915295" y="245.584249" style="fill: #ff8c00; stroke: #ff8c00"/>
     <use xlink:href="#m5b253dcf8f" x="200.727433" y="236.493868" style="fill: #ff8c00; stroke: #ff8c00"/>
     <use xlink:href="#m5b253dcf8f" x="199.281885" y="250.007409" style="fill: #ff8c00; stroke: #ff8c00"/>
     <use xlink:href="#m5b253dcf8f" x="114.18366" y="225.175154" style="fill: #ff8c00; stroke: #ff8c00"/>
     <use xlink:href="#m5b253dcf8f" x="227.286607" y="250.865866" style="fill: #ff8c00; stroke: #ff8c00"/>
     <use xlink:href="#m5b253dcf8f" x="203.784867" y="228.469568" style="fill: #ff8c00; stroke: #ff8c00"/>
     <use xlink:href="#m5b253dcf8f" x="151.214002" y="236.716756" style="fill: #ff8c00; stroke: #ff8c00"/>
     <use xlink:href="#m5b253dcf8f" x="154.364481" y="261.216" style="fill: #ff8c00; stroke: #ff8c00"/>
     <use xlink:href="#m5b253dcf8f" x="160.626944" y="223.881938" style="fill: #ff8c00; stroke: #ff8c00"/>
     <use xlink:href="#m5b253dcf8f" x="159.860164" y="221.899077" style="fill: #ff8c00; stroke: #ff8c00"/>
     <use xlink:href="#m5b253dcf8f" x="210.675168" y="220.869296" style="fill: #ff8c00; stroke: #ff8c00"/>
     <use xlink:href="#m5b253dcf8f" x="247.211836" y="239.011296" style="fill: #ff8c00; stroke: #ff8c00"/>
     <use xlink:href="#m5b253dcf8f" x="200.137846" y="217.243222" style="fill: #ff8c00; stroke: #ff8c00"/>
     <use xlink:href="#m5b253dcf8f" x="166.996093" y="240.387392" style="fill: #ff8c00; stroke: #ff8c00"/>
     <use xlink:href="#m5b253dcf8f" x="251.499591" y="248.314812" style="fill: #ff8c00; stroke: #ff8c00"/>
    </g>
   </g>
   <g id="matplotlib.axis_1">
    <g id="xtick_1">
     <g id="line2d_1">
      <defs>
       <path id="m842619c9ff" d="M 0 0 
L 0 3.5 
" style="stroke: #000000; stroke-width: 0.8"/>
      </defs>
      <g>
       <use xlink:href="#m842619c9ff" x="63.702726" y="273.312" style="stroke: #000000; stroke-width: 0.8"/>
      </g>
     </g>
     <g id="text_1">
      <!-- −20 -->
      <g transform="translate(53.150382 287.910437) scale(0.1 -0.1)">
       <defs>
        <path id="DejaVuSans-2212" d="M 678 2272 
L 4684 2272 
L 4684 1741 
L 678 1741 
L 678 2272 
z
" transform="scale(0.015625)"/>
        <path id="DejaVuSans-32" d="M 1228 531 
L 3431 531 
L 3431 0 
L 469 0 
L 469 531 
Q 828 903 1448 1529 
Q 2069 2156 2228 2338 
Q 2531 2678 2651 2914 
Q 2772 3150 2772 3378 
Q 2772 3750 2511 3984 
Q 2250 4219 1831 4219 
Q 1534 4219 1204 4116 
Q 875 4013 500 3803 
L 500 4441 
Q 881 4594 1212 4672 
Q 1544 4750 1819 4750 
Q 2544 4750 2975 4387 
Q 3406 4025 3406 3419 
Q 3406 3131 3298 2873 
Q 3191 2616 2906 2266 
Q 2828 2175 2409 1742 
Q 1991 1309 1228 531 
z
" transform="scale(0.015625)"/>
        <path id="DejaVuSans-30" d="M 2034 4250 
Q 1547 4250 1301 3770 
Q 1056 3291 1056 2328 
Q 1056 1369 1301 889 
Q 1547 409 2034 409 
Q 2525 409 2770 889 
Q 3016 1369 3016 2328 
Q 3016 3291 2770 3770 
Q 2525 4250 2034 4250 
z
M 2034 4750 
Q 2819 4750 3233 4129 
Q 3647 3509 3647 2328 
Q 3647 1150 3233 529 
Q 2819 -91 2034 -91 
Q 1250 -91 836 529 
Q 422 1150 422 2328 
Q 422 3509 836 4129 
Q 1250 4750 2034 4750 
z
" transform="scale(0.015625)"/>
       </defs>
       <use xlink:href="#DejaVuSans-2212"/>
       <use xlink:href="#DejaVuSans-32" x="83.789062"/>
       <use xlink:href="#DejaVuSans-30" x="147.412109"/>
      </g>
     </g>
    </g>
    <g id="xtick_2">
     <g id="line2d_2">
      <g>
       <use xlink:href="#m842619c9ff" x="129.564157" y="273.312" style="stroke: #000000; stroke-width: 0.8"/>
      </g>
     </g>
     <g id="text_2">
      <!-- −10 -->
      <g transform="translate(119.011814 287.910437) scale(0.1 -0.1)">
       <defs>
        <path id="DejaVuSans-31" d="M 794 531 
L 1825 531 
L 1825 4091 
L 703 3866 
L 703 4441 
L 1819 4666 
L 2450 4666 
L 2450 531 
L 3481 531 
L 3481 0 
L 794 0 
L 794 531 
z
" transform="scale(0.015625)"/>
       </defs>
       <use xlink:href="#DejaVuSans-2212"/>
       <use xlink:href="#DejaVuSans-31" x="83.789062"/>
       <use xlink:href="#DejaVuSans-30" x="147.412109"/>
      </g>
     </g>
    </g>
    <g id="xtick_3">
     <g id="line2d_3">
      <g>
       <use xlink:href="#m842619c9ff" x="195.425589" y="273.312" style="stroke: #000000; stroke-width: 0.8"/>
      </g>
     </g>
     <g id="text_3">
      <!-- 0 -->
      <g transform="translate(192.244339 287.910437) scale(0.1 -0.1)">
       <use xlink:href="#DejaVuSans-30"/>
      </g>
     </g>
    </g>
    <g id="xtick_4">
     <g id="line2d_4">
      <g>
       <use xlink:href="#m842619c9ff" x="261.287021" y="273.312" style="stroke: #000000; stroke-width: 0.8"/>
      </g>
     </g>
     <g id="text_4">
      <!-- 10 -->
      <g transform="translate(254.924521 287.910437) scale(0.1 -0.1)">
       <use xlink:href="#DejaVuSans-31"/>
       <use xlink:href="#DejaVuSans-30" x="63.623047"/>
      </g>
     </g>
    </g>
    <g id="xtick_5">
     <g id="line2d_5">
      <g>
       <use xlink:href="#m842619c9ff" x="327.148453" y="273.312" style="stroke: #000000; stroke-width: 0.8"/>
      </g>
     </g>
     <g id="text_5">
      <!-- 20 -->
      <g transform="translate(320.785953 287.910437) scale(0.1 -0.1)">
       <use xlink:href="#DejaVuSans-32"/>
       <use xlink:href="#DejaVuSans-30" x="63.623047"/>
      </g>
     </g>
    </g>
   </g>
   <g id="matplotlib.axis_2">
    <g id="ytick_1">
     <g id="line2d_6">
      <defs>
       <path id="maba44dcf6a" d="M 0 0 
L -3.5 0 
" style="stroke: #000000; stroke-width: 0.8"/>
      </defs>
      <g>
       <use xlink:href="#maba44dcf6a" x="35.304688" y="267.095086" style="stroke: #000000; stroke-width: 0.8"/>
      </g>
     </g>
     <g id="text_6">
      <!-- −10 -->
      <g transform="translate(7.2 270.894305) scale(0.1 -0.1)">
       <use xlink:href="#DejaVuSans-2212"/>
       <use xlink:href="#DejaVuSans-31" x="83.789062"/>
       <use xlink:href="#DejaVuSans-30" x="147.412109"/>
      </g>
     </g>
    </g>
    <g id="ytick_2">
     <g id="line2d_7">
      <g>
       <use xlink:href="#maba44dcf6a" x="35.304688" y="225.868504" style="stroke: #000000; stroke-width: 0.8"/>
      </g>
     </g>
     <g id="text_7">
      <!-- 0 -->
      <g transform="translate(21.942187 229.667723) scale(0.1 -0.1)">
       <use xlink:href="#DejaVuSans-30"/>
      </g>
     </g>
    </g>
    <g id="ytick_3">
     <g id="line2d_8">
      <g>
       <use xlink:href="#maba44dcf6a" x="35.304688" y="184.641922" style="stroke: #000000; stroke-width: 0.8"/>
      </g>
     </g>
     <g id="text_8">
      <!-- 10 -->
      <g transform="translate(15.579687 188.44114) scale(0.1 -0.1)">
       <use xlink:href="#DejaVuSans-31"/>
       <use xlink:href="#DejaVuSans-30" x="63.623047"/>
      </g>
     </g>
    </g>
    <g id="ytick_4">
     <g id="line2d_9">
      <g>
       <use xlink:href="#maba44dcf6a" x="35.304688" y="143.415339" style="stroke: #000000; stroke-width: 0.8"/>
      </g>
     </g>
     <g id="text_9">
      <!-- 20 -->
      <g transform="translate(15.579687 147.214558) scale(0.1 -0.1)">
       <use xlink:href="#DejaVuSans-32"/>
       <use xlink:href="#DejaVuSans-30" x="63.623047"/>
      </g>
     </g>
    </g>
    <g id="ytick_5">
     <g id="line2d_10">
      <g>
       <use xlink:href="#maba44dcf6a" x="35.304688" y="102.188757" style="stroke: #000000; stroke-width: 0.8"/>
      </g>
     </g>
     <g id="text_10">
      <!-- 30 -->
      <g transform="translate(15.579687 105.987976) scale(0.1 -0.1)">
       <defs>
        <path id="DejaVuSans-33" d="M 2597 2516 
Q 3050 2419 3304 2112 
Q 3559 1806 3559 1356 
Q 3559 666 3084 287 
Q 2609 -91 1734 -91 
Q 1441 -91 1130 -33 
Q 819 25 488 141 
L 488 750 
Q 750 597 1062 519 
Q 1375 441 1716 441 
Q 2309 441 2620 675 
Q 2931 909 2931 1356 
Q 2931 1769 2642 2001 
Q 2353 2234 1838 2234 
L 1294 2234 
L 1294 2753 
L 1863 2753 
Q 2328 2753 2575 2939 
Q 2822 3125 2822 3475 
Q 2822 3834 2567 4026 
Q 2313 4219 1838 4219 
Q 1578 4219 1281 4162 
Q 984 4106 628 3988 
L 628 4550 
Q 988 4650 1302 4700 
Q 1616 4750 1894 4750 
Q 2613 4750 3031 4423 
Q 3450 4097 3450 3541 
Q 3450 3153 3228 2886 
Q 3006 2619 2597 2516 
z
" transform="scale(0.015625)"/>
       </defs>
       <use xlink:href="#DejaVuSans-33"/>
       <use xlink:href="#DejaVuSans-30" x="63.623047"/>
      </g>
     </g>
    </g>
    <g id="ytick_6">
     <g id="line2d_11">
      <g>
       <use xlink:href="#maba44dcf6a" x="35.304688" y="60.962175" style="stroke: #000000; stroke-width: 0.8"/>
      </g>
     </g>
     <g id="text_11">
      <!-- 40 -->
      <g transform="translate(15.579687 64.761394) scale(0.1 -0.1)">
       <defs>
        <path id="DejaVuSans-34" d="M 2419 4116 
L 825 1625 
L 2419 1625 
L 2419 4116 
z
M 2253 4666 
L 3047 4666 
L 3047 1625 
L 3713 1625 
L 3713 1100 
L 3047 1100 
L 3047 0 
L 2419 0 
L 2419 1100 
L 313 1100 
L 313 1709 
L 2253 4666 
z
" transform="scale(0.015625)"/>
       </defs>
       <use xlink:href="#DejaVuSans-34"/>
       <use xlink:href="#DejaVuSans-30" x="63.623047"/>
      </g>
     </g>
    </g>
    <g id="ytick_7">
     <g id="line2d_12">
      <g>
       <use xlink:href="#maba44dcf6a" x="35.304688" y="19.735593" style="stroke: #000000; stroke-width: 0.8"/>
      </g>
     </g>
     <g id="text_12">
      <!-- 50 -->
      <g transform="translate(15.579687 23.534811) scale(0.1 -0.1)">
       <defs>
        <path id="DejaVuSans-35" d="M 691 4666 
L 3169 4666 
L 3169 4134 
L 1269 4134 
L 1269 2991 
Q 1406 3038 1543 3061 
Q 1681 3084 1819 3084 
Q 2600 3084 3056 2656 
Q 3513 2228 3513 1497 
Q 3513 744 3044 326 
Q 2575 -91 1722 -91 
Q 1428 -91 1123 -41 
Q 819 9 494 109 
L 494 744 
Q 775 591 1075 516 
Q 1375 441 1709 441 
Q 2250 441 2565 725 
Q 2881 1009 2881 1497 
Q 2881 1984 2565 2268 
Q 2250 2553 1709 2553 
Q 1456 2553 1204 2497 
Q 953 2441 691 2322 
L 691 4666 
z
" transform="scale(0.015625)"/>
       </defs>
       <use xlink:href="#DejaVuSans-35"/>
       <use xlink:href="#DejaVuSans-30" x="63.623047"/>
      </g>
     </g>
    </g>
   </g>
   <g id="patch_3">
    <path d="M 35.304688 273.312 
L 35.304688 7.2 
" style="fill: none; stroke: #000000; stroke-width: 0.8; stroke-linejoin: miter; stroke-linecap: square"/>
   </g>
   <g id="patch_4">
    <path d="M 392.424688 273.312 
L 392.424688 7.2 
" style="fill: none; stroke: #000000; stroke-width: 0.8; stroke-linejoin: miter; stroke-linecap: square"/>
   </g>
   <g id="patch_5">
    <path d="M 35.304688 273.312 
L 392.424688 273.312 
" style="fill: none; stroke: #000000; stroke-width: 0.8; stroke-linejoin: miter; stroke-linecap: square"/>
   </g>
   <g id="patch_6">
    <path d="M 35.304688 7.2 
L 392.424688 7.2 
" style="fill: none; stroke: #000000; stroke-width: 0.8; stroke-linejoin: miter; stroke-linecap: square"/>
   </g>
  </g>
 </g>
 <defs>
  <clipPath id="p4c52c471dd">
   <rect x="35.304688" y="7.2" width="357.12" height="266.112"/>
  </clipPath>
 </defs>
</svg>
