<?xml version="1.0" encoding="utf-8" standalone="no"?>
<!DOCTYPE svg PUBLIC "-//W3C//DTD SVG 1.1//EN"
  "http://www.w3.org/Graphics/SVG/1.1/DTD/svg11.dtd">
<svg xmlns:xlink="http://www.w3.org/1999/xlink" width="399.624687pt" height="297.190125pt" viewBox="0 0 399.624687 297.190125" xmlns="http://www.w3.org/2000/svg" version="1.1">
 <metadata>
  <rdf:RDF xmlns:dc="http://purl.org/dc/elements/1.1/" xmlns:cc="http://creativecommons.org/ns#" xmlns:rdf="http://www.w3.org/1999/02/22-rdf-syntax-ns#">
   <cc:Work>
    <dc:type rdf:resource="http://purl.org/dc/dcmitype/StillImage"/>
    <dc:date>2023-11-11T23:32:22.742408</dc:date>
    <dc:format>image/svg+xml</dc:format>
    <dc:creator>
     <cc:Agent>
      <dc:title>Matplotlib v3.8.0, https://matplotlib.org/</dc:title>
     </cc:Agent>
    </dc:creator>
   </cc:Work>
  </rdf:RDF>
 </metadata>
 <defs>
  <style type="text/css">*{stroke-linejoin: round; stroke-linecap: butt}</style>
 </defs>
 <g id="figure_1">
  <g id="patch_1">
   <path d="M 0 297.190125 
L 399.624687 297.190125 
L 399.624687 0 
L 0 0 
z
" style="fill: #ffffff"/>
  </g>
  <g id="axes_1">
   <g id="patch_2">
    <path d="M 35.304688 273.312 
L 392.424688 273.312 
L 392.424688 7.2 
L 35.304688 7.2 
z
" style="fill: #ffffff"/>
   </g>
   <g id="PathCollection_1">
    <defs>
     <path id="m83668cb30a" d="M 0 1.5 
C 0.397805 1.5 0.77937 1.341951 1.06066 1.06066 
C 1.341951 0.77937 1.5 0.397805 1.5 0 
C 1.5 -0.397805 1.341951 -0.77937 1.06066 -1.06066 
C 0.77937 -1.341951 0.397805 -1.5 0 -1.5 
C -0.397805 -1.5 -0.77937 -1.341951 -1.06066 -1.06066 
C -1.341951 -0.77937 -1.5 -0.397805 -1.5 0 
C -1.5 0.397805 -1.341951 0.77937 -1.06066 1.06066 
C -0.77937 1.341951 -0.397805 1.5 0 1.5 
z
" style="stroke: #ff8c00"/>
    </defs>
    <g clip-path="url(#p83d1b4acee)">
     <use xlink:href="#m83668cb30a" x="307.026372" y="89.424203" style="fill: #ff8c00; stroke: #ff8c00"/>
     <use xlink:href="#m83668cb30a" x="166.035073" y="203.472984" style="fill: #ff8c00; stroke: #ff8c00"/>
     <use xlink:href="#m83668cb30a" x="147.674391" y="107.581729" style="fill: #ff8c00; stroke: #ff8c00"/>
     <use xlink:href="#m83668cb30a" x="249.969679" y="125.383174" style="fill: #ff8c00; stroke: #ff8c00"/>
     <use xlink:href="#m83668cb30a" x="163.125696" y="79.000755" style="fill: #ff8c00; stroke: #ff8c00"/>
     <use xlink:href="#m83668cb30a" x="51.537415" y="60.255255" style="fill: #ff8c00; stroke: #ff8c00"/>
     <use xlink:href="#m83668cb30a" x="218.237857" y="158.136982" style="fill: #ff8c00; stroke: #ff8c00"/>
     <use xlink:href="#m83668cb30a" x="249.947289" y="42.219192" style="fill: #ff8c00; stroke: #ff8c00"/>
     <use xlink:href="#m83668cb30a" x="80.824952" y="146.276328" style="fill: #ff8c00; stroke: #ff8c00"/>
    </g>
   </g>
   <g id="PathCollection_2">
    <defs>
     <path id="m46303a0bda" d="M 0 1.5 
C 0.397805 1.5 0.77937 1.341951 1.06066 1.06066 
C 1.341951 0.77937 1.5 0.397805 1.5 0 
C 1.5 -0.397805 1.341951 -0.77937 1.06066 -1.06066 
C 0.77937 -1.341951 0.397805 -1.5 0 -1.5 
C -0.397805 -1.5 -0.77937 -1.341951 -1.06066 -1.06066 
C -1.341951 -0.77937 -1.5 -0.397805 -1.5 0 
C -1.5 0.397805 -1.341951 0.77937 -1.06066 1.06066 
C -0.77937 1.341951 -0.397805 1.5 0 1.5 
z
" style="stroke: #006400"/>
    </defs>
    <g clip-path="url(#p83d1b4acee)">
     <use xlink:href="#m46303a0bda" x="75.884316" y="131.623053" style="fill: #006400; stroke: #006400"/>
     <use xlink:href="#m46303a0bda" x="78.25686" y="149.939029" style="fill: #006400; stroke: #006400"/>
     <use xlink:href="#m46303a0bda" x="112.405511" y="130.549591" style="fill: #006400; stroke: #006400"/>
     <use xlink:href="#m46303a0bda" x="138.196841" y="206.515641" style="fill: #006400; stroke: #006400"/>
     <use xlink:href="#m46303a0bda" x="60.8696" y="120.717405" style="fill: #006400; stroke: #006400"/>
     <use xlink:href="#m46303a0bda" x="222.466621" y="174.489763" style="fill: #006400; stroke: #006400"/>
     <use xlink:href="#m46303a0bda" x="140.978436" y="68.714635" style="fill: #006400; stroke: #006400"/>
     <use xlink:href="#m46303a0bda" x="283.315751" y="76.936099" style="fill: #006400; stroke: #006400"/>
     <use xlink:href="#m46303a0bda" x="119.756022" y="154.769052" style="fill: #006400; stroke: #006400"/>
     <use xlink:href="#m46303a0bda" x="61.249763" y="122.753079" style="fill: #006400; stroke: #006400"/>
     <use xlink:href="#m46303a0bda" x="209.342199" y="172.863765" style="fill: #006400; stroke: #006400"/>
     <use xlink:href="#m46303a0bda" x="200.820654" y="146.231476" style="fill: #006400; stroke: #006400"/>
     <use xlink:href="#m46303a0bda" x="155.668679" y="91.274317" style="fill: #006400; stroke: #006400"/>
     <use xlink:href="#m46303a0bda" x="216.759505" y="145.320068" style="fill: #006400; stroke: #006400"/>
     <use xlink:href="#m46303a0bda" x="231.698344" y="68.409882" style="fill: #006400; stroke: #006400"/>
     <use xlink:href="#m46303a0bda" x="58.726309" y="77.146019" style="fill: #006400; stroke: #006400"/>
     <use xlink:href="#m46303a0bda" x="247.723181" y="147.429072" style="fill: #006400; stroke: #006400"/>
     <use xlink:href="#m46303a0bda" x="69.920942" y="142.459096" style="fill: #006400; stroke: #006400"/>
     <use xlink:href="#m46303a0bda" x="80.27411" y="137.479906" style="fill: #006400; stroke: #006400"/>
     <use xlink:href="#m46303a0bda" x="109.731581" y="163.385921" style="fill: #006400; stroke: #006400"/>
     <use xlink:href="#m46303a0bda" x="214.286193" y="82.553028" style="fill: #006400; stroke: #006400"/>
    </g>
   </g>
   <g id="PathCollection_3">
    <defs>
     <path id="m823809db93" d="M 0 1.5 
C 0.397805 1.5 0.77937 1.341951 1.06066 1.06066 
C 1.341951 0.77937 1.5 0.397805 1.5 0 
C 1.5 -0.397805 1.341951 -0.77937 1.06066 -1.06066 
C 0.77937 -1.341951 0.397805 -1.5 0 -1.5 
C -0.397805 -1.5 -0.77937 -1.341951 -1.06066 -1.06066 
C -1.341951 -0.77937 -1.5 -0.397805 -1.5 0 
C -1.5 0.397805 -1.341951 0.77937 -1.06066 1.06066 
C -0.77937 1.341951 -0.397805 1.5 0 1.5 
z
" style="stroke: #2f4f4f"/>
    </defs>
    <g clip-path="url(#p83d1b4acee)">
     <use xlink:href="#m823809db93" x="89.369438" y="166.40804" style="fill: #2f4f4f; stroke: #2f4f4f"/>
     <use xlink:href="#m823809db93" x="129.095214" y="188.211492" style="fill: #2f4f4f; stroke: #2f4f4f"/>
     <use xlink:href="#m823809db93" x="154.545967" y="116.46924" style="fill: #2f4f4f; stroke: #2f4f4f"/>
     <use xlink:href="#m823809db93" x="183.56425" y="135.550443" style="fill: #2f4f4f; stroke: #2f4f4f"/>
     <use xlink:href="#m823809db93" x="268.266546" y="205.015056" style="fill: #2f4f4f; stroke: #2f4f4f"/>
     <use xlink:href="#m823809db93" x="61.483622" y="167.386971" style="fill: #2f4f4f; stroke: #2f4f4f"/>
     <use xlink:href="#m823809db93" x="121.110052" y="129.44593" style="fill: #2f4f4f; stroke: #2f4f4f"/>
     <use xlink:href="#m823809db93" x="110.171799" y="112.063393" style="fill: #2f4f4f; stroke: #2f4f4f"/>
     <use xlink:href="#m823809db93" x="197.634966" y="139.525614" style="fill: #2f4f4f; stroke: #2f4f4f"/>
     <use xlink:href="#m823809db93" x="175.968631" y="81.998991" style="fill: #2f4f4f; stroke: #2f4f4f"/>
     <use xlink:href="#m823809db93" x="133.194429" y="176.607038" style="fill: #2f4f4f; stroke: #2f4f4f"/>
     <use xlink:href="#m823809db93" x="178.100794" y="131.717592" style="fill: #2f4f4f; stroke: #2f4f4f"/>
     <use xlink:href="#m823809db93" x="146.802317" y="162.356126" style="fill: #2f4f4f; stroke: #2f4f4f"/>
     <use xlink:href="#m823809db93" x="182.678962" y="138.753956" style="fill: #2f4f4f; stroke: #2f4f4f"/>
     <use xlink:href="#m823809db93" x="125.018998" y="134.942287" style="fill: #2f4f4f; stroke: #2f4f4f"/>
     <use xlink:href="#m823809db93" x="79.157843" y="199.049498" style="fill: #2f4f4f; stroke: #2f4f4f"/>
     <use xlink:href="#m823809db93" x="107.65863" y="144.26861" style="fill: #2f4f4f; stroke: #2f4f4f"/>
     <use xlink:href="#m823809db93" x="255.651727" y="180.734371" style="fill: #2f4f4f; stroke: #2f4f4f"/>
    </g>
   </g>
   <g id="PathCollection_4">
    <defs>
     <path id="m20193f904a" d="M 0 1.5 
C 0.397805 1.5 0.77937 1.341951 1.06066 1.06066 
C 1.341951 0.77937 1.5 0.397805 1.5 0 
C 1.5 -0.397805 1.341951 -0.77937 1.06066 -1.06066 
C 0.77937 -1.341951 0.397805 -1.5 0 -1.5 
C -0.397805 -1.5 -0.77937 -1.341951 -1.06066 -1.06066 
C -1.341951 -0.77937 -1.5 -0.397805 -1.5 0 
C -1.5 0.397805 -1.341951 0.77937 -1.06066 1.06066 
C -0.77937 1.341951 -0.397805 1.5 0 1.5 
z
" style="stroke: #00bfff"/>
    </defs>
    <g clip-path="url(#p83d1b4acee)">
     <use xlink:href="#m20193f904a" x="216.630051" y="225.383482" style="fill: #00bfff; stroke: #00bfff"/>
     <use xlink:href="#m20193f904a" x="91.845606" y="220.877755" style="fill: #00bfff; stroke: #00bfff"/>
     <use xlink:href="#m20193f904a" x="376.19196" y="227.298198" style="fill: #00bfff; stroke: #00bfff"/>
     <use xlink:href="#m20193f904a" x="146.79093" y="211.615886" style="fill: #00bfff; stroke: #00bfff"/>
     <use xlink:href="#m20193f904a" x="194.327235" y="184.009045" style="fill: #00bfff; stroke: #00bfff"/>
     <use xlink:href="#m20193f904a" x="113.42929" y="194.572558" style="fill: #00bfff; stroke: #00bfff"/>
     <use xlink:href="#m20193f904a" x="111.017864" y="180.079683" style="fill: #00bfff; stroke: #00bfff"/>
     <use xlink:href="#m20193f904a" x="322.352841" y="178.791221" style="fill: #00bfff; stroke: #00bfff"/>
     <use xlink:href="#m20193f904a" x="176.323165" y="210.927427" style="fill: #00bfff; stroke: #00bfff"/>
     <use xlink:href="#m20193f904a" x="240.105582" y="232.694139" style="fill: #00bfff; stroke: #00bfff"/>
     <use xlink:href="#m20193f904a" x="190.973936" y="152.371898" style="fill: #00bfff; stroke: #00bfff"/>
     <use xlink:href="#m20193f904a" x="181.26692" y="231.807313" style="fill: #00bfff; stroke: #00bfff"/>
     <use xlink:href="#m20193f904a" x="159.825169" y="210.590118" style="fill: #00bfff; stroke: #00bfff"/>
     <use xlink:href="#m20193f904a" x="120.590311" y="213.754961" style="fill: #00bfff; stroke: #00bfff"/>
     <use xlink:href="#m20193f904a" x="190.212328" y="234.605471" style="fill: #00bfff; stroke: #00bfff"/>
     <use xlink:href="#m20193f904a" x="157.204437" y="206.026781" style="fill: #00bfff; stroke: #00bfff"/>
     <use xlink:href="#m20193f904a" x="234.491742" y="189.00278" style="fill: #00bfff; stroke: #00bfff"/>
     <use xlink:href="#m20193f904a" x="212.068495" y="227.208776" style="fill: #00bfff; stroke: #00bfff"/>
     <use xlink:href="#m20193f904a" x="99.962687" y="129.772603" style="fill: #00bfff; stroke: #00bfff"/>
     <use xlink:href="#m20193f904a" x="194.081666" y="210.856842" style="fill: #00bfff; stroke: #00bfff"/>
     <use xlink:href="#m20193f904a" x="138.000749" y="133.596882" style="fill: #00bfff; stroke: #00bfff"/>
    </g>
   </g>
   <g id="PathCollection_5">
    <defs>
     <path id="m65f4a50a87" d="M 0 1.5 
C 0.397805 1.5 0.77937 1.341951 1.06066 1.06066 
C 1.341951 0.77937 1.5 0.397805 1.5 0 
C 1.5 -0.397805 1.341951 -0.77937 1.06066 -1.06066 
C 0.77937 -1.341951 0.397805 -1.5 0 -1.5 
C -0.397805 -1.5 -0.77937 -1.341951 -1.06066 -1.06066 
C -1.341951 -0.77937 -1.5 -0.397805 -1.5 0 
C -1.5 0.397805 -1.341951 0.77937 -1.06066 1.06066 
C -0.77937 1.341951 -0.397805 1.5 0 1.5 
z
" style="stroke: #ffff00"/>
    </defs>
    <g clip-path="url(#p83d1b4acee)">
     <use xlink:href="#m65f4a50a87" x="75.388276" y="142.23778" style="fill: #ffff00; stroke: #ffff00"/>
     <use xlink:href="#m65f4a50a87" x="126.590444" y="186.39488" style="fill: #ffff00; stroke: #ffff00"/>
     <use xlink:href="#m65f4a50a87" x="167.512194" y="190.654715" style="fill: #ffff00; stroke: #ffff00"/>
     <use xlink:href="#m65f4a50a87" x="299.898464" y="163.98499" style="fill: #ffff00; stroke: #ffff00"/>
     <use xlink:href="#m65f4a50a87" x="239.913368" y="199.075351" style="fill: #ffff00; stroke: #ffff00"/>
     <use xlink:href="#m65f4a50a87" x="151.213975" y="155.172857" style="fill: #ffff00; stroke: #ffff00"/>
     <use xlink:href="#m65f4a50a87" x="203.389429" y="170.8726" style="fill: #ffff00; stroke: #ffff00"/>
     <use xlink:href="#m65f4a50a87" x="100.320125" y="240.481427" style="fill: #ffff00; stroke: #ffff00"/>
     <use xlink:href="#m65f4a50a87" x="156.155936" y="169.249001" style="fill: #ffff00; stroke: #ffff00"/>
     <use xlink:href="#m65f4a50a87" x="197.725992" y="159.253894" style="fill: #ffff00; stroke: #ffff00"/>
     <use xlink:href="#m65f4a50a87" x="62.494429" y="204.280659" style="fill: #ffff00; stroke: #ffff00"/>
     <use xlink:href="#m65f4a50a87" x="81.908862" y="170.864289" style="fill: #ffff00; stroke: #ffff00"/>
     <use xlink:href="#m65f4a50a87" x="165.322885" y="171.919294" style="fill: #ffff00; stroke: #ffff00"/>
     <use xlink:href="#m65f4a50a87" x="151.034864" y="239.878895" style="fill: #ffff00; stroke: #ffff00"/>
    </g>
   </g>
   <g id="PathCollection_6">
    <defs>
     <path id="m8ce02875f8" d="M 0 1.5 
C 0.397805 1.5 0.77937 1.341951 1.06066 1.06066 
C 1.341951 0.77937 1.5 0.397805 1.5 0 
C 1.5 -0.397805 1.341951 -0.77937 1.06066 -1.06066 
C 0.77937 -1.341951 0.397805 -1.5 0 -1.5 
C -0.397805 -1.5 -0.77937 -1.341951 -1.06066 -1.06066 
C -1.341951 -0.77937 -1.5 -0.397805 -1.5 0 
C -1.5 0.397805 -1.341951 0.77937 -1.06066 1.06066 
C -0.77937 1.341951 -0.397805 1.5 0 1.5 
z
" style="stroke: #00ffff"/>
    </defs>
    <g clip-path="url(#p83d1b4acee)">
     <use xlink:href="#m8ce02875f8" x="168.730599" y="140.824856" style="fill: #00ffff; stroke: #00ffff"/>
     <use xlink:href="#m8ce02875f8" x="216.227479" y="212.665065" style="fill: #00ffff; stroke: #00ffff"/>
     <use xlink:href="#m8ce02875f8" x="173.837919" y="153.935296" style="fill: #00ffff; stroke: #00ffff"/>
     <use xlink:href="#m8ce02875f8" x="196.093746" y="86.72508" style="fill: #00ffff; stroke: #00ffff"/>
     <use xlink:href="#m8ce02875f8" x="100.15619" y="180.417282" style="fill: #00ffff; stroke: #00ffff"/>
     <use xlink:href="#m8ce02875f8" x="125.68927" y="176.869511" style="fill: #00ffff; stroke: #00ffff"/>
     <use xlink:href="#m8ce02875f8" x="89.418429" y="189.05781" style="fill: #00ffff; stroke: #00ffff"/>
     <use xlink:href="#m8ce02875f8" x="121.336109" y="205.512391" style="fill: #00ffff; stroke: #00ffff"/>
     <use xlink:href="#m8ce02875f8" x="129.244128" y="209.977062" style="fill: #00ffff; stroke: #00ffff"/>
     <use xlink:href="#m8ce02875f8" x="77.851237" y="185.194323" style="fill: #00ffff; stroke: #00ffff"/>
     <use xlink:href="#m8ce02875f8" x="134.567545" y="194.797448" style="fill: #00ffff; stroke: #00ffff"/>
    </g>
   </g>
   <g id="PathCollection_7">
    <defs>
     <path id="mbcb48fb95d" d="M 0 1.5 
C 0.397805 1.5 0.77937 1.341951 1.06066 1.06066 
C 1.341951 0.77937 1.5 0.397805 1.5 0 
C 1.5 -0.397805 1.341951 -0.77937 1.06066 -1.06066 
C 0.77937 -1.341951 0.397805 -1.5 0 -1.5 
C -0.397805 -1.5 -0.77937 -1.341951 -1.06066 -1.06066 
C -1.341951 -0.77937 -1.5 -0.397805 -1.5 0 
C -1.5 0.397805 -1.341951 0.77937 -1.06066 1.06066 
C -0.77937 1.341951 -0.397805 1.5 0 1.5 
z
" style="stroke: #0000ff"/>
    </defs>
    <g clip-path="url(#p83d1b4acee)">
     <use xlink:href="#mbcb48fb95d" x="170.419899" y="200.249274" style="fill: #0000ff; stroke: #0000ff"/>
     <use xlink:href="#mbcb48fb95d" x="155.870627" y="252.951353" style="fill: #0000ff; stroke: #0000ff"/>
     <use xlink:href="#mbcb48fb95d" x="219.188392" y="202.017457" style="fill: #0000ff; stroke: #0000ff"/>
     <use xlink:href="#mbcb48fb95d" x="178.475818" y="160.064399" style="fill: #0000ff; stroke: #0000ff"/>
     <use xlink:href="#mbcb48fb95d" x="195.549441" y="261.216" style="fill: #0000ff; stroke: #0000ff"/>
    </g>
   </g>
   <g id="PathCollection_8">
    <defs>
     <path id="m23a48542e4" d="M 0 1.5 
C 0.397805 1.5 0.77937 1.341951 1.06066 1.06066 
C 1.341951 0.77937 1.5 0.397805 1.5 0 
C 1.5 -0.397805 1.341951 -0.77937 1.06066 -1.06066 
C 0.77937 -1.341951 0.397805 -1.5 0 -1.5 
C -0.397805 -1.5 -0.77937 -1.341951 -1.06066 -1.06066 
C -1.341951 -0.77937 -1.5 -0.397805 -1.5 0 
C -1.5 0.397805 -1.341951 0.77937 -1.06066 1.06066 
C -0.77937 1.341951 -0.397805 1.5 0 1.5 
z
" style="stroke: #dc143c"/>
    </defs>
    <g clip-path="url(#p83d1b4acee)">
     <use xlink:href="#m23a48542e4" x="180.793562" y="98.637785" style="fill: #dc143c; stroke: #dc143c"/>
     <use xlink:href="#m23a48542e4" x="69.893859" y="134.70173" style="fill: #dc143c; stroke: #dc143c"/>
     <use xlink:href="#m23a48542e4" x="164.097968" y="80.39949" style="fill: #dc143c; stroke: #dc143c"/>
     <use xlink:href="#m23a48542e4" x="132.705517" y="63.616122" style="fill: #dc143c; stroke: #dc143c"/>
     <use xlink:href="#m23a48542e4" x="150.924086" y="79.047444" style="fill: #dc143c; stroke: #dc143c"/>
     <use xlink:href="#m23a48542e4" x="177.8922" y="133.974373" style="fill: #dc143c; stroke: #dc143c"/>
     <use xlink:href="#m23a48542e4" x="155.114515" y="19.296" style="fill: #dc143c; stroke: #dc143c"/>
     <use xlink:href="#m23a48542e4" x="197.551326" y="117.49142" style="fill: #dc143c; stroke: #dc143c"/>
     <use xlink:href="#m23a48542e4" x="209.837507" y="20.202304" style="fill: #dc143c; stroke: #dc143c"/>
     <use xlink:href="#m23a48542e4" x="194.540495" y="64.27413" style="fill: #dc143c; stroke: #dc143c"/>
     <use xlink:href="#m23a48542e4" x="148.317889" y="164.254415" style="fill: #dc143c; stroke: #dc143c"/>
     <use xlink:href="#m23a48542e4" x="91.258333" y="73.59279" style="fill: #dc143c; stroke: #dc143c"/>
     <use xlink:href="#m23a48542e4" x="97.778662" y="100.916292" style="fill: #dc143c; stroke: #dc143c"/>
     <use xlink:href="#m23a48542e4" x="267.428962" y="82.448191" style="fill: #dc143c; stroke: #dc143c"/>
     <use xlink:href="#m23a48542e4" x="97.448959" y="64.123511" style="fill: #dc143c; stroke: #dc143c"/>
     <use xlink:href="#m23a48542e4" x="144.41031" y="32.16869" style="fill: #dc143c; stroke: #dc143c"/>
    </g>
   </g>
   <g id="PathCollection_9">
    <defs>
     <path id="ma4a92a52a4" d="M 0 1.5 
C 0.397805 1.5 0.77937 1.341951 1.06066 1.06066 
C 1.341951 0.77937 1.5 0.397805 1.5 0 
C 1.5 -0.397805 1.341951 -0.77937 1.06066 -1.06066 
C 0.77937 -1.341951 0.397805 -1.5 0 -1.5 
C -0.397805 -1.5 -0.77937 -1.341951 -1.06066 -1.06066 
C -1.341951 -0.77937 -1.5 -0.397805 -1.5 0 
C -1.5 0.397805 -1.341951 0.77937 -1.06066 1.06066 
C -0.77937 1.341951 -0.397805 1.5 0 1.5 
z
" style="stroke: #ffe4c4"/>
    </defs>
    <g clip-path="url(#p83d1b4acee)">
     <use xlink:href="#ma4a92a52a4" x="64.520779" y="73.224404" style="fill: #ffe4c4; stroke: #ffe4c4"/>
     <use xlink:href="#ma4a92a52a4" x="186.496445" y="159.392935" style="fill: #ffe4c4; stroke: #ffe4c4"/>
     <use xlink:href="#ma4a92a52a4" x="223.675996" y="70.165339" style="fill: #ffe4c4; stroke: #ffe4c4"/>
     <use xlink:href="#ma4a92a52a4" x="97.533893" y="84.316217" style="fill: #ffe4c4; stroke: #ffe4c4"/>
     <use xlink:href="#ma4a92a52a4" x="210.982661" y="103.485419" style="fill: #ffe4c4; stroke: #ffe4c4"/>
     <use xlink:href="#ma4a92a52a4" x="189.325786" y="70.219989" style="fill: #ffe4c4; stroke: #ffe4c4"/>
     <use xlink:href="#ma4a92a52a4" x="169.812265" y="51.112978" style="fill: #ffe4c4; stroke: #ffe4c4"/>
     <use xlink:href="#ma4a92a52a4" x="365.410757" y="106.590041" style="fill: #ffe4c4; stroke: #ffe4c4"/>
     <use xlink:href="#ma4a92a52a4" x="133.374774" y="82.774555" style="fill: #ffe4c4; stroke: #ffe4c4"/>
     <use xlink:href="#ma4a92a52a4" x="151.44063" y="126.793966" style="fill: #ffe4c4; stroke: #ffe4c4"/>
     <use xlink:href="#ma4a92a52a4" x="132.789612" y="159.102524" style="fill: #ffe4c4; stroke: #ffe4c4"/>
     <use xlink:href="#ma4a92a52a4" x="129.010916" y="170.703276" style="fill: #ffe4c4; stroke: #ffe4c4"/>
     <use xlink:href="#ma4a92a52a4" x="91.755228" y="98.690445" style="fill: #ffe4c4; stroke: #ffe4c4"/>
    </g>
   </g>
   <g id="PathCollection_10">
    <defs>
     <path id="m09028a9eba" d="M -2.99994 2.99994 
L 3.00006 2.99994 
L 3.00006 -3.00006 
L -2.99994 -3.00006 
z
" style="stroke: #000000"/>
    </defs>
    <g clip-path="url(#p83d1b4acee)">
     <use xlink:href="#m09028a9eba" x="239.772201" y="224.418605" style="stroke: #000000"/>
     <use xlink:href="#m09028a9eba" x="161.473262" y="219.475648" style="stroke: #000000"/>
     <use xlink:href="#m09028a9eba" x="223.662606" y="213.31769" style="stroke: #000000"/>
     <use xlink:href="#m09028a9eba" x="262.675501" y="170.715206" style="stroke: #000000"/>
     <use xlink:href="#m09028a9eba" x="201.311681" y="118.644426" style="stroke: #000000"/>
     <use xlink:href="#m09028a9eba" x="77.098565" y="190.146304" style="stroke: #000000"/>
     <use xlink:href="#m09028a9eba" x="192.438914" y="86.69921" style="stroke: #000000"/>
     <use xlink:href="#m09028a9eba" x="115.753222" y="219.271425" style="stroke: #000000"/>
     <use xlink:href="#m09028a9eba" x="103.070744" y="193.811437" style="stroke: #000000"/>
     <use xlink:href="#m09028a9eba" x="111.548114" y="219.885556" style="stroke: #000000"/>
     <use xlink:href="#m09028a9eba" x="200.397155" y="211.465689" style="stroke: #000000"/>
     <use xlink:href="#m09028a9eba" x="183.14197" y="143.792576" style="stroke: #000000"/>
     <use xlink:href="#m09028a9eba" x="162.3466" y="206.63974" style="stroke: #000000"/>
     <use xlink:href="#m09028a9eba" x="97.530253" y="140.003338" style="stroke: #000000"/>
     <use xlink:href="#m09028a9eba" x="138.293058" y="202.190554" style="stroke: #000000"/>
     <use xlink:href="#m09028a9eba" x="366.36845" y="103.879981" style="stroke: #000000"/>
     <use xlink:href="#m09028a9eba" x="159.565511" y="140.976344" style="stroke: #000000"/>
     <use xlink:href="#m09028a9eba" x="334.621329" y="231.865625" style="stroke: #000000"/>
     <use xlink:href="#m09028a9eba" x="185.337818" y="224.842114" style="stroke: #000000"/>
     <use xlink:href="#m09028a9eba" x="210.974552" y="114.621424" style="stroke: #000000"/>
     <use xlink:href="#m09028a9eba" x="191.079112" y="205.824381" style="stroke: #000000"/>
     <use xlink:href="#m09028a9eba" x="186.526157" y="216.630671" style="stroke: #000000"/>
     <use xlink:href="#m09028a9eba" x="149.426853" y="189.290993" style="stroke: #000000"/>
     <use xlink:href="#m09028a9eba" x="79.386822" y="144.819864" style="stroke: #000000"/>
     <use xlink:href="#m09028a9eba" x="209.420831" y="205.253171" style="stroke: #000000"/>
     <use xlink:href="#m09028a9eba" x="196.118076" y="189.146741" style="stroke: #000000"/>
     <use xlink:href="#m09028a9eba" x="90.609899" y="188.91908" style="stroke: #000000"/>
     <use xlink:href="#m09028a9eba" x="212.767168" y="172.791782" style="stroke: #000000"/>
     <use xlink:href="#m09028a9eba" x="293.63097" y="166.866071" style="stroke: #000000"/>
     <use xlink:href="#m09028a9eba" x="184.976362" y="191.53501" style="stroke: #000000"/>
     <use xlink:href="#m09028a9eba" x="315.677694" y="195.948983" style="stroke: #000000"/>
     <use xlink:href="#m09028a9eba" x="88.151642" y="126.334495" style="stroke: #000000"/>
     <use xlink:href="#m09028a9eba" x="309.458905" y="153.406451" style="stroke: #000000"/>
     <use xlink:href="#m09028a9eba" x="203.576437" y="116.766489" style="stroke: #000000"/>
     <use xlink:href="#m09028a9eba" x="259.490312" y="172.779628" style="stroke: #000000"/>
     <use xlink:href="#m09028a9eba" x="290.931321" y="114.099812" style="stroke: #000000"/>
     <use xlink:href="#m09028a9eba" x="188.162071" y="128.169716" style="stroke: #000000"/>
     <use xlink:href="#m09028a9eba" x="195.625774" y="163.611773" style="stroke: #000000"/>
     <use xlink:href="#m09028a9eba" x="347.89068" y="136.099948" style="stroke: #000000"/>
     <use xlink:href="#m09028a9eba" x="142.396461" y="98.730218" style="stroke: #000000"/>
     <use xlink:href="#m09028a9eba" x="232.182832" y="179.293804" style="stroke: #000000"/>
     <use xlink:href="#m09028a9eba" x="133.062807" y="163.481168" style="stroke: #000000"/>
     <use xlink:href="#m09028a9eba" x="164.226424" y="207.670077" style="stroke: #000000"/>
     <use xlink:href="#m09028a9eba" x="116.52909" y="168.886117" style="stroke: #000000"/>
     <use xlink:href="#m09028a9eba" x="164.226553" y="123.855773" style="stroke: #000000"/>
     <use xlink:href="#m09028a9eba" x="249.651742" y="106.812442" style="stroke: #000000"/>
     <use xlink:href="#m09028a9eba" x="131.73915" y="205.792508" style="stroke: #000000"/>
     <use xlink:href="#m09028a9eba" x="205.330736" y="173.24499" style="stroke: #000000"/>
     <use xlink:href="#m09028a9eba" x="257.306818" y="134.901438" style="stroke: #000000"/>
     <use xlink:href="#m09028a9eba" x="187.664328" y="147.310293" style="stroke: #000000"/>
     <use xlink:href="#m09028a9eba" x="265.407737" y="177.089309" style="stroke: #000000"/>
     <use xlink:href="#m09028a9eba" x="208.405355" y="105.627812" style="stroke: #000000"/>
     <use xlink:href="#m09028a9eba" x="147.493591" y="140.246925" style="stroke: #000000"/>
     <use xlink:href="#m09028a9eba" x="145.03534" y="184.615178" style="stroke: #000000"/>
     <use xlink:href="#m09028a9eba" x="157.840815" y="194.384818" style="stroke: #000000"/>
     <use xlink:href="#m09028a9eba" x="236.634073" y="119.147006" style="stroke: #000000"/>
     <use xlink:href="#m09028a9eba" x="113.836991" y="191.367206" style="stroke: #000000"/>
     <use xlink:href="#m09028a9eba" x="153.275298" y="135.11547" style="stroke: #000000"/>
     <use xlink:href="#m09028a9eba" x="154.09919" y="81.653745" style="stroke: #000000"/>
     <use xlink:href="#m09028a9eba" x="116.444672" y="201.486164" style="stroke: #000000"/>
     <use xlink:href="#m09028a9eba" x="354.400048" y="78.247898" style="stroke: #000000"/>
     <use xlink:href="#m09028a9eba" x="309.845702" y="134.23779" style="stroke: #000000"/>
     <use xlink:href="#m09028a9eba" x="232.317201" y="67.994514" style="stroke: #000000"/>
     <use xlink:href="#m09028a9eba" x="256.801075" y="117.568365" style="stroke: #000000"/>
    </g>
   </g>
   <g id="PathCollection_11">
    <defs>
     <path id="m052d584dc3" d="M -3 -0 
L 3 3 
L 3 -3 
z
" style="stroke: #ff8c00"/>
    </defs>
    <g clip-path="url(#p83d1b4acee)">
     <use xlink:href="#m052d584dc3" x="193.820243" y="219.813782" style="fill: #ff8c00; stroke: #ff8c00"/>
     <use xlink:href="#m052d584dc3" x="198.09726" y="205.584889" style="fill: #ff8c00; stroke: #ff8c00"/>
     <use xlink:href="#m052d584dc3" x="347.60908" y="200.633464" style="fill: #ff8c00; stroke: #ff8c00"/>
     <use xlink:href="#m052d584dc3" x="124.281896" y="122.406292" style="fill: #ff8c00; stroke: #ff8c00"/>
     <use xlink:href="#m052d584dc3" x="177.757454" y="141.908763" style="fill: #ff8c00; stroke: #ff8c00"/>
     <use xlink:href="#m052d584dc3" x="204.100042" y="141.527641" style="fill: #ff8c00; stroke: #ff8c00"/>
     <use xlink:href="#m052d584dc3" x="187.783377" y="190.126119" style="fill: #ff8c00; stroke: #ff8c00"/>
     <use xlink:href="#m052d584dc3" x="219.381983" y="178.015465" style="fill: #ff8c00; stroke: #ff8c00"/>
     <use xlink:href="#m052d584dc3" x="162.560957" y="148.677701" style="fill: #ff8c00; stroke: #ff8c00"/>
     <use xlink:href="#m052d584dc3" x="196.196734" y="143.345268" style="fill: #ff8c00; stroke: #ff8c00"/>
     <use xlink:href="#m052d584dc3" x="314.910241" y="105.746577" style="fill: #ff8c00; stroke: #ff8c00"/>
     <use xlink:href="#m052d584dc3" x="161.278057" y="192.880959" style="fill: #ff8c00; stroke: #ff8c00"/>
     <use xlink:href="#m052d584dc3" x="244.887585" y="174.868495" style="fill: #ff8c00; stroke: #ff8c00"/>
     <use xlink:href="#m052d584dc3" x="196.915441" y="172.343829" style="fill: #ff8c00; stroke: #ff8c00"/>
     <use xlink:href="#m052d584dc3" x="150.81109" y="96.270375" style="fill: #ff8c00; stroke: #ff8c00"/>
     <use xlink:href="#m052d584dc3" x="320.945895" y="141.767569" style="fill: #ff8c00; stroke: #ff8c00"/>
     <use xlink:href="#m052d584dc3" x="121.290358" y="172.466532" style="fill: #ff8c00; stroke: #ff8c00"/>
     <use xlink:href="#m052d584dc3" x="167.597292" y="127.280769" style="fill: #ff8c00; stroke: #ff8c00"/>
     <use xlink:href="#m052d584dc3" x="296.62236" y="184.614216" style="fill: #ff8c00; stroke: #ff8c00"/>
     <use xlink:href="#m052d584dc3" x="187.890342" y="172.447722" style="fill: #ff8c00; stroke: #ff8c00"/>
     <use xlink:href="#m052d584dc3" x="87.186822" y="184.254216" style="fill: #ff8c00; stroke: #ff8c00"/>
     <use xlink:href="#m052d584dc3" x="212.046929" y="168.407818" style="fill: #ff8c00; stroke: #ff8c00"/>
     <use xlink:href="#m052d584dc3" x="141.68977" y="97.012345" style="fill: #ff8c00; stroke: #ff8c00"/>
     <use xlink:href="#m052d584dc3" x="221.629245" y="131.407745" style="fill: #ff8c00; stroke: #ff8c00"/>
     <use xlink:href="#m052d584dc3" x="268.794241" y="161.20452" style="fill: #ff8c00; stroke: #ff8c00"/>
     <use xlink:href="#m052d584dc3" x="148.858818" y="145.180059" style="fill: #ff8c00; stroke: #ff8c00"/>
     <use xlink:href="#m052d584dc3" x="183.350006" y="143.74322" style="fill: #ff8c00; stroke: #ff8c00"/>
     <use xlink:href="#m052d584dc3" x="209.447026" y="160.152915" style="fill: #ff8c00; stroke: #ff8c00"/>
     <use xlink:href="#m052d584dc3" x="232.949078" y="152.224259" style="fill: #ff8c00; stroke: #ff8c00"/>
     <use xlink:href="#m052d584dc3" x="172.593645" y="98.020029" style="fill: #ff8c00; stroke: #ff8c00"/>
     <use xlink:href="#m052d584dc3" x="224.921188" y="131.865472" style="fill: #ff8c00; stroke: #ff8c00"/>
     <use xlink:href="#m052d584dc3" x="321.522121" y="135.157471" style="fill: #ff8c00; stroke: #ff8c00"/>
     <use xlink:href="#m052d584dc3" x="169.261823" y="81.027231" style="fill: #ff8c00; stroke: #ff8c00"/>
     <use xlink:href="#m052d584dc3" x="246.515165" y="148.436763" style="fill: #ff8c00; stroke: #ff8c00"/>
     <use xlink:href="#m052d584dc3" x="214.552782" y="115.934154" style="fill: #ff8c00; stroke: #ff8c00"/>
     <use xlink:href="#m052d584dc3" x="207.623632" y="162.609734" style="fill: #ff8c00; stroke: #ff8c00"/>
     <use xlink:href="#m052d584dc3" x="170.505263" y="190.079156" style="fill: #ff8c00; stroke: #ff8c00"/>
     <use xlink:href="#m052d584dc3" x="171.257192" y="127.605433" style="fill: #ff8c00; stroke: #ff8c00"/>
     <use xlink:href="#m052d584dc3" x="273.024546" y="93.216312" style="fill: #ff8c00; stroke: #ff8c00"/>
     <use xlink:href="#m052d584dc3" x="141.194764" y="177.490637" style="fill: #ff8c00; stroke: #ff8c00"/>
     <use xlink:href="#m052d584dc3" x="214.643165" y="145.528907" style="fill: #ff8c00; stroke: #ff8c00"/>
     <use xlink:href="#m052d584dc3" x="245.930047" y="196.030529" style="fill: #ff8c00; stroke: #ff8c00"/>
     <use xlink:href="#m052d584dc3" x="171.083412" y="129.595752" style="fill: #ff8c00; stroke: #ff8c00"/>
     <use xlink:href="#m052d584dc3" x="182.377888" y="165.086779" style="fill: #ff8c00; stroke: #ff8c00"/>
     <use xlink:href="#m052d584dc3" x="290.192015" y="224.859132" style="fill: #ff8c00; stroke: #ff8c00"/>
     <use xlink:href="#m052d584dc3" x="129.467356" y="191.569884" style="fill: #ff8c00; stroke: #ff8c00"/>
     <use xlink:href="#m052d584dc3" x="151.835749" y="185.943706" style="fill: #ff8c00; stroke: #ff8c00"/>
     <use xlink:href="#m052d584dc3" x="181.863603" y="145.526308" style="fill: #ff8c00; stroke: #ff8c00"/>
     <use xlink:href="#m052d584dc3" x="236.813321" y="196.15117" style="fill: #ff8c00; stroke: #ff8c00"/>
     <use xlink:href="#m052d584dc3" x="150.538175" y="179.792772" style="fill: #ff8c00; stroke: #ff8c00"/>
     <use xlink:href="#m052d584dc3" x="327.860898" y="197.28518" style="fill: #ff8c00; stroke: #ff8c00"/>
     <use xlink:href="#m052d584dc3" x="298.512242" y="140.738444" style="fill: #ff8c00; stroke: #ff8c00"/>
     <use xlink:href="#m052d584dc3" x="87.327292" y="135.115584" style="fill: #ff8c00; stroke: #ff8c00"/>
     <use xlink:href="#m052d584dc3" x="150.538175" y="179.792772" style="fill: #ff8c00; stroke: #ff8c00"/>
     <use xlink:href="#m052d584dc3" x="246.779495" y="177.111836" style="fill: #ff8c00; stroke: #ff8c00"/>
     <use xlink:href="#m052d584dc3" x="197.48797" y="189.417646" style="fill: #ff8c00; stroke: #ff8c00"/>
     <use xlink:href="#m052d584dc3" x="178.456641" y="193.452227" style="fill: #ff8c00; stroke: #ff8c00"/>
     <use xlink:href="#m052d584dc3" x="302.475866" y="116.953134" style="fill: #ff8c00; stroke: #ff8c00"/>
     <use xlink:href="#m052d584dc3" x="140.49562" y="184.75768" style="fill: #ff8c00; stroke: #ff8c00"/>
     <use xlink:href="#m052d584dc3" x="113.975527" y="144.957423" style="fill: #ff8c00; stroke: #ff8c00"/>
     <use xlink:href="#m052d584dc3" x="219.076573" y="138.655126" style="fill: #ff8c00; stroke: #ff8c00"/>
     <use xlink:href="#m052d584dc3" x="167.728248" y="195.995304" style="fill: #ff8c00; stroke: #ff8c00"/>
     <use xlink:href="#m052d584dc3" x="106.437506" y="174.104278" style="fill: #ff8c00; stroke: #ff8c00"/>
     <use xlink:href="#m052d584dc3" x="137.13087" y="163.603912" style="fill: #ff8c00; stroke: #ff8c00"/>
    </g>
   </g>
   <g id="matplotlib.axis_1">
    <g id="xtick_1">
     <g id="line2d_1">
      <defs>
       <path id="m35cc353843" d="M 0 0 
L 0 3.5 
" style="stroke: #000000; stroke-width: 0.8"/>
      </defs>
      <g>
       <use xlink:href="#m35cc353843" x="64.426098" y="273.312" style="stroke: #000000; stroke-width: 0.8"/>
      </g>
     </g>
     <g id="text_1">
      <!-- −10 -->
      <g transform="translate(53.873754 287.910437) scale(0.1 -0.1)">
       <defs>
        <path id="DejaVuSans-2212" d="M 678 2272 
L 4684 2272 
L 4684 1741 
L 678 1741 
L 678 2272 
z
" transform="scale(0.015625)"/>
        <path id="DejaVuSans-31" d="M 794 531 
L 1825 531 
L 1825 4091 
L 703 3866 
L 703 4441 
L 1819 4666 
L 2450 4666 
L 2450 531 
L 3481 531 
L 3481 0 
L 794 0 
L 794 531 
z
" transform="scale(0.015625)"/>
        <path id="DejaVuSans-30" d="M 2034 4250 
Q 1547 4250 1301 3770 
Q 1056 3291 1056 2328 
Q 1056 1369 1301 889 
Q 1547 409 2034 409 
Q 2525 409 2770 889 
Q 3016 1369 3016 2328 
Q 3016 3291 2770 3770 
Q 2525 4250 2034 4250 
z
M 2034 4750 
Q 2819 4750 3233 4129 
Q 3647 3509 3647 2328 
Q 3647 1150 3233 529 
Q 2819 -91 2034 -91 
Q 1250 -91 836 529 
Q 422 1150 422 2328 
Q 422 3509 836 4129 
Q 1250 4750 2034 4750 
z
" transform="scale(0.015625)"/>
       </defs>
       <use xlink:href="#DejaVuSans-2212"/>
       <use xlink:href="#DejaVuSans-31" x="83.789062"/>
       <use xlink:href="#DejaVuSans-30" x="147.412109"/>
      </g>
     </g>
    </g>
    <g id="xtick_2">
     <g id="line2d_2">
      <g>
       <use xlink:href="#m35cc353843" x="121.913568" y="273.312" style="stroke: #000000; stroke-width: 0.8"/>
      </g>
     </g>
     <g id="text_2">
      <!-- −5 -->
      <g transform="translate(114.542474 287.910437) scale(0.1 -0.1)">
       <defs>
        <path id="DejaVuSans-35" d="M 691 4666 
L 3169 4666 
L 3169 4134 
L 1269 4134 
L 1269 2991 
Q 1406 3038 1543 3061 
Q 1681 3084 1819 3084 
Q 2600 3084 3056 2656 
Q 3513 2228 3513 1497 
Q 3513 744 3044 326 
Q 2575 -91 1722 -91 
Q 1428 -91 1123 -41 
Q 819 9 494 109 
L 494 744 
Q 775 591 1075 516 
Q 1375 441 1709 441 
Q 2250 441 2565 725 
Q 2881 1009 2881 1497 
Q 2881 1984 2565 2268 
Q 2250 2553 1709 2553 
Q 1456 2553 1204 2497 
Q 953 2441 691 2322 
L 691 4666 
z
" transform="scale(0.015625)"/>
       </defs>
       <use xlink:href="#DejaVuSans-2212"/>
       <use xlink:href="#DejaVuSans-35" x="83.789062"/>
      </g>
     </g>
    </g>
    <g id="xtick_3">
     <g id="line2d_3">
      <g>
       <use xlink:href="#m35cc353843" x="179.401038" y="273.312" style="stroke: #000000; stroke-width: 0.8"/>
      </g>
     </g>
     <g id="text_3">
      <!-- 0 -->
      <g transform="translate(176.219788 287.910437) scale(0.1 -0.1)">
       <use xlink:href="#DejaVuSans-30"/>
      </g>
     </g>
    </g>
    <g id="xtick_4">
     <g id="line2d_4">
      <g>
       <use xlink:href="#m35cc353843" x="236.888508" y="273.312" style="stroke: #000000; stroke-width: 0.8"/>
      </g>
     </g>
     <g id="text_4">
      <!-- 5 -->
      <g transform="translate(233.707258 287.910437) scale(0.1 -0.1)">
       <use xlink:href="#DejaVuSans-35"/>
      </g>
     </g>
    </g>
    <g id="xtick_5">
     <g id="line2d_5">
      <g>
       <use xlink:href="#m35cc353843" x="294.375977" y="273.312" style="stroke: #000000; stroke-width: 0.8"/>
      </g>
     </g>
     <g id="text_5">
      <!-- 10 -->
      <g transform="translate(288.013477 287.910437) scale(0.1 -0.1)">
       <use xlink:href="#DejaVuSans-31"/>
       <use xlink:href="#DejaVuSans-30" x="63.623047"/>
      </g>
     </g>
    </g>
    <g id="xtick_6">
     <g id="line2d_6">
      <g>
       <use xlink:href="#m35cc353843" x="351.863447" y="273.312" style="stroke: #000000; stroke-width: 0.8"/>
      </g>
     </g>
     <g id="text_6">
      <!-- 15 -->
      <g transform="translate(345.500947 287.910437) scale(0.1 -0.1)">
       <use xlink:href="#DejaVuSans-31"/>
       <use xlink:href="#DejaVuSans-35" x="63.623047"/>
      </g>
     </g>
    </g>
   </g>
   <g id="matplotlib.axis_2">
    <g id="ytick_1">
     <g id="line2d_7">
      <defs>
       <path id="m8fe12b4a1a" d="M 0 0 
L -3.5 0 
" style="stroke: #000000; stroke-width: 0.8"/>
      </defs>
      <g>
       <use xlink:href="#m8fe12b4a1a" x="35.304688" y="239.715149" style="stroke: #000000; stroke-width: 0.8"/>
      </g>
     </g>
     <g id="text_7">
      <!-- −10 -->
      <g transform="translate(7.2 243.514368) scale(0.1 -0.1)">
       <use xlink:href="#DejaVuSans-2212"/>
       <use xlink:href="#DejaVuSans-31" x="83.789062"/>
       <use xlink:href="#DejaVuSans-30" x="147.412109"/>
      </g>
     </g>
    </g>
    <g id="ytick_2">
     <g id="line2d_8">
      <g>
       <use xlink:href="#m8fe12b4a1a" x="35.304688" y="196.860837" style="stroke: #000000; stroke-width: 0.8"/>
      </g>
     </g>
     <g id="text_8">
      <!-- −5 -->
      <g transform="translate(13.5625 200.660056) scale(0.1 -0.1)">
       <use xlink:href="#DejaVuSans-2212"/>
       <use xlink:href="#DejaVuSans-35" x="83.789062"/>
      </g>
     </g>
    </g>
    <g id="ytick_3">
     <g id="line2d_9">
      <g>
       <use xlink:href="#m8fe12b4a1a" x="35.304688" y="154.006525" style="stroke: #000000; stroke-width: 0.8"/>
      </g>
     </g>
     <g id="text_9">
      <!-- 0 -->
      <g transform="translate(21.942187 157.805744) scale(0.1 -0.1)">
       <use xlink:href="#DejaVuSans-30"/>
      </g>
     </g>
    </g>
    <g id="ytick_4">
     <g id="line2d_10">
      <g>
       <use xlink:href="#m8fe12b4a1a" x="35.304688" y="111.152213" style="stroke: #000000; stroke-width: 0.8"/>
      </g>
     </g>
     <g id="text_10">
      <!-- 5 -->
      <g transform="translate(21.942187 114.951432) scale(0.1 -0.1)">
       <use xlink:href="#DejaVuSans-35"/>
      </g>
     </g>
    </g>
    <g id="ytick_5">
     <g id="line2d_11">
      <g>
       <use xlink:href="#m8fe12b4a1a" x="35.304688" y="68.297901" style="stroke: #000000; stroke-width: 0.8"/>
      </g>
     </g>
     <g id="text_11">
      <!-- 10 -->
      <g transform="translate(15.579687 72.09712) scale(0.1 -0.1)">
       <use xlink:href="#DejaVuSans-31"/>
       <use xlink:href="#DejaVuSans-30" x="63.623047"/>
      </g>
     </g>
    </g>
    <g id="ytick_6">
     <g id="line2d_12">
      <g>
       <use xlink:href="#m8fe12b4a1a" x="35.304688" y="25.443589" style="stroke: #000000; stroke-width: 0.8"/>
      </g>
     </g>
     <g id="text_12">
      <!-- 15 -->
      <g transform="translate(15.579687 29.242808) scale(0.1 -0.1)">
       <use xlink:href="#DejaVuSans-31"/>
       <use xlink:href="#DejaVuSans-35" x="63.623047"/>
      </g>
     </g>
    </g>
   </g>
   <g id="patch_3">
    <path d="M 35.304688 273.312 
L 35.304688 7.2 
" style="fill: none; stroke: #000000; stroke-width: 0.8; stroke-linejoin: miter; stroke-linecap: square"/>
   </g>
   <g id="patch_4">
    <path d="M 392.424688 273.312 
L 392.424688 7.2 
" style="fill: none; stroke: #000000; stroke-width: 0.8; stroke-linejoin: miter; stroke-linecap: square"/>
   </g>
   <g id="patch_5">
    <path d="M 35.304688 273.312 
L 392.424688 273.312 
" style="fill: none; stroke: #000000; stroke-width: 0.8; stroke-linejoin: miter; stroke-linecap: square"/>
   </g>
   <g id="patch_6">
    <path d="M 35.304688 7.2 
L 392.424688 7.2 
" style="fill: none; stroke: #000000; stroke-width: 0.8; stroke-linejoin: miter; stroke-linecap: square"/>
   </g>
  </g>
 </g>
 <defs>
  <clipPath id="p83d1b4acee">
   <rect x="35.304688" y="7.2" width="357.12" height="266.112"/>
  </clipPath>
 </defs>
</svg>
