<?xml version="1.0" encoding="utf-8" standalone="no"?>
<!DOCTYPE svg PUBLIC "-//W3C//DTD SVG 1.1//EN"
  "http://www.w3.org/Graphics/SVG/1.1/DTD/svg11.dtd">
<svg xmlns:xlink="http://www.w3.org/1999/xlink" width="405.147296pt" height="297.190125pt" viewBox="0 0 405.147296 297.190125" xmlns="http://www.w3.org/2000/svg" version="1.1">
 <metadata>
  <rdf:RDF xmlns:dc="http://purl.org/dc/elements/1.1/" xmlns:cc="http://creativecommons.org/ns#" xmlns:rdf="http://www.w3.org/1999/02/22-rdf-syntax-ns#">
   <cc:Work>
    <dc:type rdf:resource="http://purl.org/dc/dcmitype/StillImage"/>
    <dc:date>2023-11-12T04:04:51.644189</dc:date>
    <dc:format>image/svg+xml</dc:format>
    <dc:creator>
     <cc:Agent>
      <dc:title>Matplotlib v3.8.0, https://matplotlib.org/</dc:title>
     </cc:Agent>
    </dc:creator>
   </cc:Work>
  </rdf:RDF>
 </metadata>
 <defs>
  <style type="text/css">*{stroke-linejoin: round; stroke-linecap: butt}</style>
 </defs>
 <g id="figure_1">
  <g id="patch_1">
   <path d="M 0 297.190125 
L 405.147296 297.190125 
L 405.147296 0 
L 0 0 
z
" style="fill: #ffffff"/>
  </g>
  <g id="axes_1">
   <g id="patch_2">
    <path d="M 35.304688 273.312 
L 392.424688 273.312 
L 392.424688 7.2 
L 35.304688 7.2 
z
" style="fill: #ffffff"/>
   </g>
   <g id="PathCollection_1">
    <defs>
     <path id="m43772113b0" d="M 0 1.5 
C 0.397805 1.5 0.77937 1.341951 1.06066 1.06066 
C 1.341951 0.77937 1.5 0.397805 1.5 0 
C 1.5 -0.397805 1.341951 -0.77937 1.06066 -1.06066 
C 0.77937 -1.341951 0.397805 -1.5 0 -1.5 
C -0.397805 -1.5 -0.77937 -1.341951 -1.06066 -1.06066 
C -1.341951 -0.77937 -1.5 -0.397805 -1.5 0 
C -1.5 0.397805 -1.341951 0.77937 -1.06066 1.06066 
C -0.77937 1.341951 -0.397805 1.5 0 1.5 
z
" style="stroke: #ff8c00"/>
    </defs>
    <g clip-path="url(#p614ad9381e)">
     <use xlink:href="#m43772113b0" x="236.296352" y="153.77731" style="fill: #ff8c00; stroke: #ff8c00"/>
     <use xlink:href="#m43772113b0" x="266.021395" y="177.457666" style="fill: #ff8c00; stroke: #ff8c00"/>
     <use xlink:href="#m43772113b0" x="321.083183" y="215.18135" style="fill: #ff8c00; stroke: #ff8c00"/>
     <use xlink:href="#m43772113b0" x="360.153317" y="261.216" style="fill: #ff8c00; stroke: #ff8c00"/>
     <use xlink:href="#m43772113b0" x="317.650515" y="213.175336" style="fill: #ff8c00; stroke: #ff8c00"/>
     <use xlink:href="#m43772113b0" x="255.94032" y="214.869388" style="fill: #ff8c00; stroke: #ff8c00"/>
     <use xlink:href="#m43772113b0" x="376.19196" y="198.55599" style="fill: #ff8c00; stroke: #ff8c00"/>
     <use xlink:href="#m43772113b0" x="304.96209" y="144.068817" style="fill: #ff8c00; stroke: #ff8c00"/>
     <use xlink:href="#m43772113b0" x="299.199089" y="246.76188" style="fill: #ff8c00; stroke: #ff8c00"/>
     <use xlink:href="#m43772113b0" x="281.878203" y="178.2269" style="fill: #ff8c00; stroke: #ff8c00"/>
     <use xlink:href="#m43772113b0" x="304.854177" y="210.364734" style="fill: #ff8c00; stroke: #ff8c00"/>
     <use xlink:href="#m43772113b0" x="296.572607" y="161.735915" style="fill: #ff8c00; stroke: #ff8c00"/>
     <use xlink:href="#m43772113b0" x="340.599327" y="225.317843" style="fill: #ff8c00; stroke: #ff8c00"/>
     <use xlink:href="#m43772113b0" x="192.742431" y="173.547146" style="fill: #ff8c00; stroke: #ff8c00"/>
     <use xlink:href="#m43772113b0" x="333.840493" y="205.885695" style="fill: #ff8c00; stroke: #ff8c00"/>
     <use xlink:href="#m43772113b0" x="250.332778" y="186.655483" style="fill: #ff8c00; stroke: #ff8c00"/>
     <use xlink:href="#m43772113b0" x="313.181882" y="235.442597" style="fill: #ff8c00; stroke: #ff8c00"/>
     <use xlink:href="#m43772113b0" x="342.130153" y="209.350363" style="fill: #ff8c00; stroke: #ff8c00"/>
    </g>
   </g>
   <g id="PathCollection_2">
    <defs>
     <path id="m02888817e2" d="M 0 1.5 
C 0.397805 1.5 0.77937 1.341951 1.06066 1.06066 
C 1.341951 0.77937 1.5 0.397805 1.5 0 
C 1.5 -0.397805 1.341951 -0.77937 1.06066 -1.06066 
C 0.77937 -1.341951 0.397805 -1.5 0 -1.5 
C -0.397805 -1.5 -0.77937 -1.341951 -1.06066 -1.06066 
C -1.341951 -0.77937 -1.5 -0.397805 -1.5 0 
C -1.5 0.397805 -1.341951 0.77937 -1.06066 1.06066 
C -0.77937 1.341951 -0.397805 1.5 0 1.5 
z
" style="stroke: #006400"/>
    </defs>
    <g clip-path="url(#p614ad9381e)">
     <use xlink:href="#m02888817e2" x="177.130762" y="76.424314" style="fill: #006400; stroke: #006400"/>
     <use xlink:href="#m02888817e2" x="177.27426" y="92.652147" style="fill: #006400; stroke: #006400"/>
     <use xlink:href="#m02888817e2" x="106.549768" y="88.239212" style="fill: #006400; stroke: #006400"/>
     <use xlink:href="#m02888817e2" x="152.939281" y="91.930732" style="fill: #006400; stroke: #006400"/>
     <use xlink:href="#m02888817e2" x="279.219808" y="19.296" style="fill: #006400; stroke: #006400"/>
     <use xlink:href="#m02888817e2" x="84.759185" y="110.274371" style="fill: #006400; stroke: #006400"/>
     <use xlink:href="#m02888817e2" x="226.529946" y="97.387605" style="fill: #006400; stroke: #006400"/>
     <use xlink:href="#m02888817e2" x="146.555967" y="98.831179" style="fill: #006400; stroke: #006400"/>
     <use xlink:href="#m02888817e2" x="181.080181" y="126.947791" style="fill: #006400; stroke: #006400"/>
     <use xlink:href="#m02888817e2" x="176.382403" y="129.707576" style="fill: #006400; stroke: #006400"/>
     <use xlink:href="#m02888817e2" x="212.272243" y="77.563705" style="fill: #006400; stroke: #006400"/>
     <use xlink:href="#m02888817e2" x="194.188202" y="120.147875" style="fill: #006400; stroke: #006400"/>
     <use xlink:href="#m02888817e2" x="180.430239" y="98.986481" style="fill: #006400; stroke: #006400"/>
     <use xlink:href="#m02888817e2" x="133.582248" y="121.291364" style="fill: #006400; stroke: #006400"/>
     <use xlink:href="#m02888817e2" x="196.49235" y="157.186271" style="fill: #006400; stroke: #006400"/>
     <use xlink:href="#m02888817e2" x="146.291579" y="130.787783" style="fill: #006400; stroke: #006400"/>
     <use xlink:href="#m02888817e2" x="141.649362" y="116.500072" style="fill: #006400; stroke: #006400"/>
     <use xlink:href="#m02888817e2" x="224.606947" y="95.138769" style="fill: #006400; stroke: #006400"/>
     <use xlink:href="#m02888817e2" x="122.409964" y="106.767764" style="fill: #006400; stroke: #006400"/>
    </g>
   </g>
   <g id="PathCollection_3">
    <defs>
     <path id="mf650c359fa" d="M 0 1.5 
C 0.397805 1.5 0.77937 1.341951 1.06066 1.06066 
C 1.341951 0.77937 1.5 0.397805 1.5 0 
C 1.5 -0.397805 1.341951 -0.77937 1.06066 -1.06066 
C 0.77937 -1.341951 0.397805 -1.5 0 -1.5 
C -0.397805 -1.5 -0.77937 -1.341951 -1.06066 -1.06066 
C -1.341951 -0.77937 -1.5 -0.397805 -1.5 0 
C -1.5 0.397805 -1.341951 0.77937 -1.06066 1.06066 
C -0.77937 1.341951 -0.397805 1.5 0 1.5 
z
" style="stroke: #2f4f4f"/>
    </defs>
    <g clip-path="url(#p614ad9381e)">
     <use xlink:href="#mf650c359fa" x="203.428184" y="116.094852" style="fill: #2f4f4f; stroke: #2f4f4f"/>
     <use xlink:href="#mf650c359fa" x="198.446128" y="109.240454" style="fill: #2f4f4f; stroke: #2f4f4f"/>
     <use xlink:href="#mf650c359fa" x="209.628611" y="56.330503" style="fill: #2f4f4f; stroke: #2f4f4f"/>
     <use xlink:href="#mf650c359fa" x="244.805122" y="127.758541" style="fill: #2f4f4f; stroke: #2f4f4f"/>
     <use xlink:href="#mf650c359fa" x="209.275241" y="87.092701" style="fill: #2f4f4f; stroke: #2f4f4f"/>
     <use xlink:href="#mf650c359fa" x="141.872649" y="116.182493" style="fill: #2f4f4f; stroke: #2f4f4f"/>
     <use xlink:href="#mf650c359fa" x="271.189743" y="51.115997" style="fill: #2f4f4f; stroke: #2f4f4f"/>
     <use xlink:href="#mf650c359fa" x="146.017983" y="130.707643" style="fill: #2f4f4f; stroke: #2f4f4f"/>
     <use xlink:href="#mf650c359fa" x="201.154452" y="127.322387" style="fill: #2f4f4f; stroke: #2f4f4f"/>
     <use xlink:href="#mf650c359fa" x="166.864637" y="138.813449" style="fill: #2f4f4f; stroke: #2f4f4f"/>
     <use xlink:href="#mf650c359fa" x="235.276402" y="121.297248" style="fill: #2f4f4f; stroke: #2f4f4f"/>
     <use xlink:href="#mf650c359fa" x="85.313598" y="128.2583" style="fill: #2f4f4f; stroke: #2f4f4f"/>
     <use xlink:href="#mf650c359fa" x="225.387504" y="85.065573" style="fill: #2f4f4f; stroke: #2f4f4f"/>
     <use xlink:href="#mf650c359fa" x="162.652181" y="149.594282" style="fill: #2f4f4f; stroke: #2f4f4f"/>
     <use xlink:href="#mf650c359fa" x="171.903867" y="141.044141" style="fill: #2f4f4f; stroke: #2f4f4f"/>
     <use xlink:href="#mf650c359fa" x="247.979721" y="101.328938" style="fill: #2f4f4f; stroke: #2f4f4f"/>
     <use xlink:href="#mf650c359fa" x="123.423588" y="144.39336" style="fill: #2f4f4f; stroke: #2f4f4f"/>
     <use xlink:href="#mf650c359fa" x="256.581432" y="51.716471" style="fill: #2f4f4f; stroke: #2f4f4f"/>
     <use xlink:href="#mf650c359fa" x="134.818177" y="97.177639" style="fill: #2f4f4f; stroke: #2f4f4f"/>
     <use xlink:href="#mf650c359fa" x="166.800483" y="114.179323" style="fill: #2f4f4f; stroke: #2f4f4f"/>
     <use xlink:href="#mf650c359fa" x="204.934788" y="80.739151" style="fill: #2f4f4f; stroke: #2f4f4f"/>
     <use xlink:href="#mf650c359fa" x="174.358991" y="115.80726" style="fill: #2f4f4f; stroke: #2f4f4f"/>
    </g>
   </g>
   <g id="PathCollection_4">
    <defs>
     <path id="mfc205b75d7" d="M 0 1.5 
C 0.397805 1.5 0.77937 1.341951 1.06066 1.06066 
C 1.341951 0.77937 1.5 0.397805 1.5 0 
C 1.5 -0.397805 1.341951 -0.77937 1.06066 -1.06066 
C 0.77937 -1.341951 0.397805 -1.5 0 -1.5 
C -0.397805 -1.5 -0.77937 -1.341951 -1.06066 -1.06066 
C -1.341951 -0.77937 -1.5 -0.397805 -1.5 0 
C -1.5 0.397805 -1.341951 0.77937 -1.06066 1.06066 
C -0.77937 1.341951 -0.397805 1.5 0 1.5 
z
" style="stroke: #00bfff"/>
    </defs>
    <g clip-path="url(#p614ad9381e)">
     <use xlink:href="#mfc205b75d7" x="251.868489" y="159.458915" style="fill: #00bfff; stroke: #00bfff"/>
     <use xlink:href="#mfc205b75d7" x="183.277859" y="135.712719" style="fill: #00bfff; stroke: #00bfff"/>
     <use xlink:href="#mfc205b75d7" x="171.746545" y="142.272479" style="fill: #00bfff; stroke: #00bfff"/>
     <use xlink:href="#mfc205b75d7" x="272.318614" y="106.808635" style="fill: #00bfff; stroke: #00bfff"/>
     <use xlink:href="#mfc205b75d7" x="228.690245" y="81.494112" style="fill: #00bfff; stroke: #00bfff"/>
     <use xlink:href="#mfc205b75d7" x="168.083447" y="141.463576" style="fill: #00bfff; stroke: #00bfff"/>
     <use xlink:href="#mfc205b75d7" x="148.602627" y="137.936412" style="fill: #00bfff; stroke: #00bfff"/>
     <use xlink:href="#mfc205b75d7" x="151.839527" y="132.243472" style="fill: #00bfff; stroke: #00bfff"/>
     <use xlink:href="#mfc205b75d7" x="165.15829" y="146.19851" style="fill: #00bfff; stroke: #00bfff"/>
     <use xlink:href="#mfc205b75d7" x="108.259339" y="117.033318" style="fill: #00bfff; stroke: #00bfff"/>
     <use xlink:href="#mfc205b75d7" x="196.856444" y="143.29897" style="fill: #00bfff; stroke: #00bfff"/>
     <use xlink:href="#mfc205b75d7" x="161.628143" y="115.723525" style="fill: #00bfff; stroke: #00bfff"/>
     <use xlink:href="#mfc205b75d7" x="209.949431" y="112.191014" style="fill: #00bfff; stroke: #00bfff"/>
     <use xlink:href="#mfc205b75d7" x="215.78343" y="148.48386" style="fill: #00bfff; stroke: #00bfff"/>
    </g>
   </g>
   <g id="PathCollection_5">
    <defs>
     <path id="ma3909a5613" d="M 0 1.5 
C 0.397805 1.5 0.77937 1.341951 1.06066 1.06066 
C 1.341951 0.77937 1.5 0.397805 1.5 0 
C 1.5 -0.397805 1.341951 -0.77937 1.06066 -1.06066 
C 0.77937 -1.341951 0.397805 -1.5 0 -1.5 
C -0.397805 -1.5 -0.77937 -1.341951 -1.06066 -1.06066 
C -1.341951 -0.77937 -1.5 -0.397805 -1.5 0 
C -1.5 0.397805 -1.341951 0.77937 -1.06066 1.06066 
C -0.77937 1.341951 -0.397805 1.5 0 1.5 
z
" style="stroke: #ffff00"/>
    </defs>
    <g clip-path="url(#p614ad9381e)">
     <use xlink:href="#ma3909a5613" x="267.236374" y="88.904927" style="fill: #ffff00; stroke: #ffff00"/>
     <use xlink:href="#ma3909a5613" x="126.328732" y="110.246737" style="fill: #ffff00; stroke: #ffff00"/>
     <use xlink:href="#ma3909a5613" x="229.129679" y="115.990349" style="fill: #ffff00; stroke: #ffff00"/>
     <use xlink:href="#ma3909a5613" x="211.312436" y="98.115517" style="fill: #ffff00; stroke: #ffff00"/>
     <use xlink:href="#ma3909a5613" x="175.36289" y="106.288097" style="fill: #ffff00; stroke: #ffff00"/>
     <use xlink:href="#ma3909a5613" x="222.638594" y="114.210329" style="fill: #ffff00; stroke: #ffff00"/>
     <use xlink:href="#ma3909a5613" x="348.227378" y="81.665668" style="fill: #ffff00; stroke: #ffff00"/>
     <use xlink:href="#ma3909a5613" x="206.24549" y="133.724541" style="fill: #ffff00; stroke: #ffff00"/>
     <use xlink:href="#ma3909a5613" x="221.577514" y="58.401336" style="fill: #ffff00; stroke: #ffff00"/>
     <use xlink:href="#ma3909a5613" x="275.768356" y="93.33955" style="fill: #ffff00; stroke: #ffff00"/>
     <use xlink:href="#ma3909a5613" x="193.45647" y="80.742259" style="fill: #ffff00; stroke: #ffff00"/>
     <use xlink:href="#ma3909a5613" x="210.873334" y="65.145601" style="fill: #ffff00; stroke: #ffff00"/>
     <use xlink:href="#ma3909a5613" x="217.002829" y="77.607121" style="fill: #ffff00; stroke: #ffff00"/>
     <use xlink:href="#ma3909a5613" x="215.216821" y="112.109475" style="fill: #ffff00; stroke: #ffff00"/>
     <use xlink:href="#ma3909a5613" x="173.939686" y="106.232186" style="fill: #ffff00; stroke: #ffff00"/>
    </g>
   </g>
   <g id="PathCollection_6">
    <defs>
     <path id="m28dd5fec0b" d="M 0 1.5 
C 0.397805 1.5 0.77937 1.341951 1.06066 1.06066 
C 1.341951 0.77937 1.5 0.397805 1.5 0 
C 1.5 -0.397805 1.341951 -0.77937 1.06066 -1.06066 
C 0.77937 -1.341951 0.397805 -1.5 0 -1.5 
C -0.397805 -1.5 -0.77937 -1.341951 -1.06066 -1.06066 
C -1.341951 -0.77937 -1.5 -0.397805 -1.5 0 
C -1.5 0.397805 -1.341951 0.77937 -1.06066 1.06066 
C -0.77937 1.341951 -0.397805 1.5 0 1.5 
z
" style="stroke: #00ffff"/>
    </defs>
    <g clip-path="url(#p614ad9381e)">
     <use xlink:href="#m28dd5fec0b" x="163.882398" y="140.209321" style="fill: #00ffff; stroke: #00ffff"/>
     <use xlink:href="#m28dd5fec0b" x="219.7237" y="160.799341" style="fill: #00ffff; stroke: #00ffff"/>
     <use xlink:href="#m28dd5fec0b" x="210.910422" y="113.947823" style="fill: #00ffff; stroke: #00ffff"/>
     <use xlink:href="#m28dd5fec0b" x="260.786246" y="87.015966" style="fill: #00ffff; stroke: #00ffff"/>
     <use xlink:href="#m28dd5fec0b" x="259.845318" y="130.070775" style="fill: #00ffff; stroke: #00ffff"/>
     <use xlink:href="#m28dd5fec0b" x="178.126176" y="159.901662" style="fill: #00ffff; stroke: #00ffff"/>
     <use xlink:href="#m28dd5fec0b" x="164.884742" y="127.861495" style="fill: #00ffff; stroke: #00ffff"/>
     <use xlink:href="#m28dd5fec0b" x="101.531364" y="149.960891" style="fill: #00ffff; stroke: #00ffff"/>
     <use xlink:href="#m28dd5fec0b" x="189.487172" y="158.300433" style="fill: #00ffff; stroke: #00ffff"/>
     <use xlink:href="#m28dd5fec0b" x="211.115991" y="105.875678" style="fill: #00ffff; stroke: #00ffff"/>
    </g>
   </g>
   <g id="PathCollection_7">
    <defs>
     <path id="m0038a8ad65" d="M 0 1.5 
C 0.397805 1.5 0.77937 1.341951 1.06066 1.06066 
C 1.341951 0.77937 1.5 0.397805 1.5 0 
C 1.5 -0.397805 1.341951 -0.77937 1.06066 -1.06066 
C 0.77937 -1.341951 0.397805 -1.5 0 -1.5 
C -0.397805 -1.5 -0.77937 -1.341951 -1.06066 -1.06066 
C -1.341951 -0.77937 -1.5 -0.397805 -1.5 0 
C -1.5 0.397805 -1.341951 0.77937 -1.06066 1.06066 
C -0.77937 1.341951 -0.397805 1.5 0 1.5 
z
" style="stroke: #0000ff"/>
    </defs>
    <g clip-path="url(#p614ad9381e)">
     <use xlink:href="#m0038a8ad65" x="248.83309" y="98.684903" style="fill: #0000ff; stroke: #0000ff"/>
     <use xlink:href="#m0038a8ad65" x="227.498727" y="77.42306" style="fill: #0000ff; stroke: #0000ff"/>
     <use xlink:href="#m0038a8ad65" x="239.515733" y="124.371262" style="fill: #0000ff; stroke: #0000ff"/>
     <use xlink:href="#m0038a8ad65" x="156.031725" y="111.11963" style="fill: #0000ff; stroke: #0000ff"/>
     <use xlink:href="#m0038a8ad65" x="135.768134" y="158.875745" style="fill: #0000ff; stroke: #0000ff"/>
     <use xlink:href="#m0038a8ad65" x="208.515503" y="141.653" style="fill: #0000ff; stroke: #0000ff"/>
     <use xlink:href="#m0038a8ad65" x="202.827548" y="69.965228" style="fill: #0000ff; stroke: #0000ff"/>
     <use xlink:href="#m0038a8ad65" x="234.209717" y="77.940766" style="fill: #0000ff; stroke: #0000ff"/>
     <use xlink:href="#m0038a8ad65" x="220.378382" y="97.245811" style="fill: #0000ff; stroke: #0000ff"/>
     <use xlink:href="#m0038a8ad65" x="210.238054" y="106.317367" style="fill: #0000ff; stroke: #0000ff"/>
    </g>
   </g>
   <g id="PathCollection_8">
    <defs>
     <path id="ma77707981d" d="M 0 1.5 
C 0.397805 1.5 0.77937 1.341951 1.06066 1.06066 
C 1.341951 0.77937 1.5 0.397805 1.5 0 
C 1.5 -0.397805 1.341951 -0.77937 1.06066 -1.06066 
C 0.77937 -1.341951 0.397805 -1.5 0 -1.5 
C -0.397805 -1.5 -0.77937 -1.341951 -1.06066 -1.06066 
C -1.341951 -0.77937 -1.5 -0.397805 -1.5 0 
C -1.5 0.397805 -1.341951 0.77937 -1.06066 1.06066 
C -0.77937 1.341951 -0.397805 1.5 0 1.5 
z
" style="stroke: #dc143c"/>
    </defs>
    <g clip-path="url(#p614ad9381e)">
     <use xlink:href="#ma77707981d" x="258.956652" y="79.53356" style="fill: #dc143c; stroke: #dc143c"/>
     <use xlink:href="#ma77707981d" x="188.656939" y="176.187033" style="fill: #dc143c; stroke: #dc143c"/>
     <use xlink:href="#ma77707981d" x="139.115465" y="129.298403" style="fill: #dc143c; stroke: #dc143c"/>
     <use xlink:href="#ma77707981d" x="203.246297" y="141.13955" style="fill: #dc143c; stroke: #dc143c"/>
     <use xlink:href="#ma77707981d" x="150.645576" y="164.950921" style="fill: #dc143c; stroke: #dc143c"/>
     <use xlink:href="#ma77707981d" x="237.555592" y="135.084788" style="fill: #dc143c; stroke: #dc143c"/>
     <use xlink:href="#ma77707981d" x="151.253945" y="173.072512" style="fill: #dc143c; stroke: #dc143c"/>
     <use xlink:href="#ma77707981d" x="145.841251" y="187.507572" style="fill: #dc143c; stroke: #dc143c"/>
     <use xlink:href="#ma77707981d" x="274.868728" y="141.383839" style="fill: #dc143c; stroke: #dc143c"/>
     <use xlink:href="#ma77707981d" x="98.655314" y="149.74217" style="fill: #dc143c; stroke: #dc143c"/>
    </g>
   </g>
   <g id="PathCollection_9">
    <defs>
     <path id="m5019720509" d="M 0 1.5 
C 0.397805 1.5 0.77937 1.341951 1.06066 1.06066 
C 1.341951 0.77937 1.5 0.397805 1.5 0 
C 1.5 -0.397805 1.341951 -0.77937 1.06066 -1.06066 
C 0.77937 -1.341951 0.397805 -1.5 0 -1.5 
C -0.397805 -1.5 -0.77937 -1.341951 -1.06066 -1.06066 
C -1.341951 -0.77937 -1.5 -0.397805 -1.5 0 
C -1.5 0.397805 -1.341951 0.77937 -1.06066 1.06066 
C -0.77937 1.341951 -0.397805 1.5 0 1.5 
z
" style="stroke: #ffe4c4"/>
    </defs>
    <g clip-path="url(#p614ad9381e)">
     <use xlink:href="#m5019720509" x="258.283295" y="209.657649" style="fill: #ffe4c4; stroke: #ffe4c4"/>
     <use xlink:href="#m5019720509" x="351.978338" y="173.841474" style="fill: #ffe4c4; stroke: #ffe4c4"/>
     <use xlink:href="#m5019720509" x="216.996861" y="227.438246" style="fill: #ffe4c4; stroke: #ffe4c4"/>
     <use xlink:href="#m5019720509" x="339.710095" y="144.176773" style="fill: #ffe4c4; stroke: #ffe4c4"/>
     <use xlink:href="#m5019720509" x="174.492063" y="160.019676" style="fill: #ffe4c4; stroke: #ffe4c4"/>
     <use xlink:href="#m5019720509" x="210.482214" y="146.063146" style="fill: #ffe4c4; stroke: #ffe4c4"/>
     <use xlink:href="#m5019720509" x="216.024877" y="203.534439" style="fill: #ffe4c4; stroke: #ffe4c4"/>
     <use xlink:href="#m5019720509" x="269.178875" y="217.487212" style="fill: #ffe4c4; stroke: #ffe4c4"/>
     <use xlink:href="#m5019720509" x="224.392193" y="136.685622" style="fill: #ffe4c4; stroke: #ffe4c4"/>
     <use xlink:href="#m5019720509" x="279.217423" y="177.592783" style="fill: #ffe4c4; stroke: #ffe4c4"/>
    </g>
   </g>
   <g id="PathCollection_10">
    <defs>
     <path id="mdaf00e5ba2" d="M -2.99994 2.99994 
L 3.00006 2.99994 
L 3.00006 -3.00006 
L -2.99994 -3.00006 
z
" style="stroke: #000000"/>
    </defs>
    <g clip-path="url(#p614ad9381e)">
     <use xlink:href="#mdaf00e5ba2" x="212.062497" y="210.334836" style="stroke: #000000"/>
     <use xlink:href="#mdaf00e5ba2" x="258.967356" y="195.525651" style="stroke: #000000"/>
     <use xlink:href="#mdaf00e5ba2" x="195.770833" y="166.298448" style="stroke: #000000"/>
     <use xlink:href="#mdaf00e5ba2" x="94.270722" y="169.117306" style="stroke: #000000"/>
     <use xlink:href="#mdaf00e5ba2" x="98.408252" y="150.025924" style="stroke: #000000"/>
     <use xlink:href="#mdaf00e5ba2" x="242.232959" y="79.199978" style="stroke: #000000"/>
     <use xlink:href="#mdaf00e5ba2" x="236.17929" y="188.12628" style="stroke: #000000"/>
     <use xlink:href="#mdaf00e5ba2" x="113.672473" y="147.478595" style="stroke: #000000"/>
     <use xlink:href="#mdaf00e5ba2" x="102.985111" y="168.348856" style="stroke: #000000"/>
     <use xlink:href="#mdaf00e5ba2" x="150.056846" y="186.274553" style="stroke: #000000"/>
     <use xlink:href="#mdaf00e5ba2" x="143.72417" y="155.532759" style="stroke: #000000"/>
     <use xlink:href="#mdaf00e5ba2" x="190.125598" y="155.009495" style="stroke: #000000"/>
     <use xlink:href="#mdaf00e5ba2" x="221.964154" y="129.578641" style="stroke: #000000"/>
     <use xlink:href="#mdaf00e5ba2" x="226.853854" y="170.182201" style="stroke: #000000"/>
     <use xlink:href="#mdaf00e5ba2" x="353.932079" y="147.231722" style="stroke: #000000"/>
     <use xlink:href="#mdaf00e5ba2" x="72.021226" y="184.65631" style="stroke: #000000"/>
     <use xlink:href="#mdaf00e5ba2" x="191.864738" y="209.988725" style="stroke: #000000"/>
     <use xlink:href="#mdaf00e5ba2" x="68.920208" y="199.591737" style="stroke: #000000"/>
     <use xlink:href="#mdaf00e5ba2" x="186.191197" y="156.913812" style="stroke: #000000"/>
     <use xlink:href="#mdaf00e5ba2" x="167.444938" y="179.94343" style="stroke: #000000"/>
     <use xlink:href="#mdaf00e5ba2" x="59.97674" y="143.898606" style="stroke: #000000"/>
     <use xlink:href="#mdaf00e5ba2" x="124.497469" y="147.342162" style="stroke: #000000"/>
     <use xlink:href="#mdaf00e5ba2" x="93.533937" y="153.612377" style="stroke: #000000"/>
     <use xlink:href="#mdaf00e5ba2" x="200.415623" y="124.059458" style="stroke: #000000"/>
     <use xlink:href="#mdaf00e5ba2" x="113.191675" y="127.815889" style="stroke: #000000"/>
     <use xlink:href="#mdaf00e5ba2" x="102.707731" y="140.678071" style="stroke: #000000"/>
     <use xlink:href="#mdaf00e5ba2" x="89.05135" y="172.122163" style="stroke: #000000"/>
     <use xlink:href="#mdaf00e5ba2" x="242.330009" y="156.857965" style="stroke: #000000"/>
     <use xlink:href="#mdaf00e5ba2" x="126.563242" y="183.845427" style="stroke: #000000"/>
     <use xlink:href="#mdaf00e5ba2" x="258.925753" y="93.332777" style="stroke: #000000"/>
     <use xlink:href="#mdaf00e5ba2" x="95.666592" y="148.029055" style="stroke: #000000"/>
     <use xlink:href="#mdaf00e5ba2" x="289.321396" y="144.446587" style="stroke: #000000"/>
     <use xlink:href="#mdaf00e5ba2" x="120.754976" y="171.059438" style="stroke: #000000"/>
     <use xlink:href="#mdaf00e5ba2" x="178.864373" y="176.599585" style="stroke: #000000"/>
     <use xlink:href="#mdaf00e5ba2" x="272.267549" y="189.867702" style="stroke: #000000"/>
     <use xlink:href="#mdaf00e5ba2" x="94.553613" y="164.967033" style="stroke: #000000"/>
     <use xlink:href="#mdaf00e5ba2" x="85.643061" y="128.908141" style="stroke: #000000"/>
     <use xlink:href="#mdaf00e5ba2" x="185.575294" y="140.138434" style="stroke: #000000"/>
     <use xlink:href="#mdaf00e5ba2" x="185.66894" y="127.800157" style="stroke: #000000"/>
     <use xlink:href="#mdaf00e5ba2" x="93.586571" y="135.340962" style="stroke: #000000"/>
     <use xlink:href="#mdaf00e5ba2" x="93.085062" y="127.295335" style="stroke: #000000"/>
     <use xlink:href="#mdaf00e5ba2" x="179.498904" y="147.111603" style="stroke: #000000"/>
     <use xlink:href="#mdaf00e5ba2" x="201.803447" y="121.38152" style="stroke: #000000"/>
     <use xlink:href="#mdaf00e5ba2" x="63.81825" y="157.44555" style="stroke: #000000"/>
     <use xlink:href="#mdaf00e5ba2" x="291.964814" y="93.361863" style="stroke: #000000"/>
     <use xlink:href="#mdaf00e5ba2" x="298.764187" y="181.542769" style="stroke: #000000"/>
     <use xlink:href="#mdaf00e5ba2" x="151.396449" y="148.645433" style="stroke: #000000"/>
     <use xlink:href="#mdaf00e5ba2" x="125.173375" y="147.17665" style="stroke: #000000"/>
     <use xlink:href="#mdaf00e5ba2" x="289.376088" y="123.052277" style="stroke: #000000"/>
     <use xlink:href="#mdaf00e5ba2" x="124.722289" y="144.112041" style="stroke: #000000"/>
     <use xlink:href="#mdaf00e5ba2" x="157.609751" y="188.497632" style="stroke: #000000"/>
     <use xlink:href="#mdaf00e5ba2" x="104.922513" y="176.029867" style="stroke: #000000"/>
     <use xlink:href="#mdaf00e5ba2" x="79.015386" y="168.713589" style="stroke: #000000"/>
     <use xlink:href="#mdaf00e5ba2" x="72.684178" y="180.281802" style="stroke: #000000"/>
     <use xlink:href="#mdaf00e5ba2" x="116.415842" y="159.982661" style="stroke: #000000"/>
     <use xlink:href="#mdaf00e5ba2" x="120.701442" y="132.377013" style="stroke: #000000"/>
     <use xlink:href="#mdaf00e5ba2" x="146.340022" y="146.290906" style="stroke: #000000"/>
     <use xlink:href="#mdaf00e5ba2" x="219.648169" y="168.6815" style="stroke: #000000"/>
     <use xlink:href="#mdaf00e5ba2" x="61.881901" y="151.450382" style="stroke: #000000"/>
     <use xlink:href="#mdaf00e5ba2" x="104.781679" y="148.352729" style="stroke: #000000"/>
     <use xlink:href="#mdaf00e5ba2" x="191.898327" y="178.788399" style="stroke: #000000"/>
     <use xlink:href="#mdaf00e5ba2" x="151.658527" y="156.447549" style="stroke: #000000"/>
     <use xlink:href="#mdaf00e5ba2" x="258.460351" y="155.271437" style="stroke: #000000"/>
     <use xlink:href="#mdaf00e5ba2" x="267.597243" y="129.910158" style="stroke: #000000"/>
    </g>
   </g>
   <g id="PathCollection_11">
    <defs>
     <path id="m0d72a161d4" d="M -3 -0 
L 3 3 
L 3 -3 
z
" style="stroke: #ff8c00"/>
    </defs>
    <g clip-path="url(#p614ad9381e)">
     <use xlink:href="#m0d72a161d4" x="141.328478" y="113.852199" style="fill: #ff8c00; stroke: #ff8c00"/>
     <use xlink:href="#m0d72a161d4" x="114.149066" y="216.105105" style="fill: #ff8c00; stroke: #ff8c00"/>
     <use xlink:href="#m0d72a161d4" x="124.341399" y="143.60027" style="fill: #ff8c00; stroke: #ff8c00"/>
     <use xlink:href="#m0d72a161d4" x="139.224918" y="140.889821" style="fill: #ff8c00; stroke: #ff8c00"/>
     <use xlink:href="#m0d72a161d4" x="51.537415" y="209.974384" style="fill: #ff8c00; stroke: #ff8c00"/>
     <use xlink:href="#m0d72a161d4" x="140.635314" y="163.275412" style="fill: #ff8c00; stroke: #ff8c00"/>
     <use xlink:href="#m0d72a161d4" x="74.833569" y="152.75049" style="fill: #ff8c00; stroke: #ff8c00"/>
     <use xlink:href="#m0d72a161d4" x="232.640414" y="134.974177" style="fill: #ff8c00; stroke: #ff8c00"/>
     <use xlink:href="#m0d72a161d4" x="144.899923" y="148.785468" style="fill: #ff8c00; stroke: #ff8c00"/>
     <use xlink:href="#m0d72a161d4" x="99.804222" y="129.999342" style="fill: #ff8c00; stroke: #ff8c00"/>
     <use xlink:href="#m0d72a161d4" x="103.356922" y="145.768826" style="fill: #ff8c00; stroke: #ff8c00"/>
     <use xlink:href="#m0d72a161d4" x="123.120129" y="136.136389" style="fill: #ff8c00; stroke: #ff8c00"/>
     <use xlink:href="#m0d72a161d4" x="127.912625" y="170.769258" style="fill: #ff8c00; stroke: #ff8c00"/>
     <use xlink:href="#m0d72a161d4" x="208.858458" y="128.161698" style="fill: #ff8c00; stroke: #ff8c00"/>
     <use xlink:href="#m0d72a161d4" x="157.293099" y="132.650903" style="fill: #ff8c00; stroke: #ff8c00"/>
     <use xlink:href="#m0d72a161d4" x="139.018862" y="170.928327" style="fill: #ff8c00; stroke: #ff8c00"/>
     <use xlink:href="#m0d72a161d4" x="167.60267" y="164.494678" style="fill: #ff8c00; stroke: #ff8c00"/>
     <use xlink:href="#m0d72a161d4" x="142.893813" y="183.574281" style="fill: #ff8c00; stroke: #ff8c00"/>
     <use xlink:href="#m0d72a161d4" x="117.13925" y="150.416832" style="fill: #ff8c00; stroke: #ff8c00"/>
     <use xlink:href="#m0d72a161d4" x="146.77305" y="165.900589" style="fill: #ff8c00; stroke: #ff8c00"/>
     <use xlink:href="#m0d72a161d4" x="153.713216" y="131.475909" style="fill: #ff8c00; stroke: #ff8c00"/>
     <use xlink:href="#m0d72a161d4" x="226.234036" y="137.20467" style="fill: #ff8c00; stroke: #ff8c00"/>
     <use xlink:href="#m0d72a161d4" x="125.263557" y="135.682485" style="fill: #ff8c00; stroke: #ff8c00"/>
     <use xlink:href="#m0d72a161d4" x="166.742932" y="170.953325" style="fill: #ff8c00; stroke: #ff8c00"/>
     <use xlink:href="#m0d72a161d4" x="135.173272" y="198.257114" style="fill: #ff8c00; stroke: #ff8c00"/>
     <use xlink:href="#m0d72a161d4" x="207.264641" y="162.317123" style="fill: #ff8c00; stroke: #ff8c00"/>
     <use xlink:href="#m0d72a161d4" x="173.259124" y="138.501724" style="fill: #ff8c00; stroke: #ff8c00"/>
     <use xlink:href="#m0d72a161d4" x="133.52456" y="146.983071" style="fill: #ff8c00; stroke: #ff8c00"/>
     <use xlink:href="#m0d72a161d4" x="100.836127" y="168.392548" style="fill: #ff8c00; stroke: #ff8c00"/>
     <use xlink:href="#m0d72a161d4" x="58.070276" y="160.022348" style="fill: #ff8c00; stroke: #ff8c00"/>
     <use xlink:href="#m0d72a161d4" x="158.852923" y="158.998163" style="fill: #ff8c00; stroke: #ff8c00"/>
     <use xlink:href="#m0d72a161d4" x="123.558792" y="157.7925" style="fill: #ff8c00; stroke: #ff8c00"/>
     <use xlink:href="#m0d72a161d4" x="196.666127" y="223.89532" style="fill: #ff8c00; stroke: #ff8c00"/>
     <use xlink:href="#m0d72a161d4" x="139.131908" y="114.403254" style="fill: #ff8c00; stroke: #ff8c00"/>
     <use xlink:href="#m0d72a161d4" x="117.865301" y="126.501117" style="fill: #ff8c00; stroke: #ff8c00"/>
     <use xlink:href="#m0d72a161d4" x="184.77816" y="158.731791" style="fill: #ff8c00; stroke: #ff8c00"/>
     <use xlink:href="#m0d72a161d4" x="136.890272" y="126.933396" style="fill: #ff8c00; stroke: #ff8c00"/>
     <use xlink:href="#m0d72a161d4" x="93.065751" y="175.482525" style="fill: #ff8c00; stroke: #ff8c00"/>
     <use xlink:href="#m0d72a161d4" x="184.418807" y="175.165457" style="fill: #ff8c00; stroke: #ff8c00"/>
     <use xlink:href="#m0d72a161d4" x="98.959842" y="159.924903" style="fill: #ff8c00; stroke: #ff8c00"/>
     <use xlink:href="#m0d72a161d4" x="163.720709" y="153.528975" style="fill: #ff8c00; stroke: #ff8c00"/>
     <use xlink:href="#m0d72a161d4" x="122.626883" y="170.209213" style="fill: #ff8c00; stroke: #ff8c00"/>
     <use xlink:href="#m0d72a161d4" x="180.860571" y="145.155242" style="fill: #ff8c00; stroke: #ff8c00"/>
     <use xlink:href="#m0d72a161d4" x="187.209902" y="163.817418" style="fill: #ff8c00; stroke: #ff8c00"/>
     <use xlink:href="#m0d72a161d4" x="150.778641" y="149.882935" style="fill: #ff8c00; stroke: #ff8c00"/>
     <use xlink:href="#m0d72a161d4" x="168.223978" y="150.601225" style="fill: #ff8c00; stroke: #ff8c00"/>
     <use xlink:href="#m0d72a161d4" x="211.266861" y="170.653264" style="fill: #ff8c00; stroke: #ff8c00"/>
     <use xlink:href="#m0d72a161d4" x="106.063529" y="158.178977" style="fill: #ff8c00; stroke: #ff8c00"/>
     <use xlink:href="#m0d72a161d4" x="154.449017" y="161.803449" style="fill: #ff8c00; stroke: #ff8c00"/>
     <use xlink:href="#m0d72a161d4" x="172.005441" y="154.942544" style="fill: #ff8c00; stroke: #ff8c00"/>
     <use xlink:href="#m0d72a161d4" x="125.038554" y="176.884731" style="fill: #ff8c00; stroke: #ff8c00"/>
     <use xlink:href="#m0d72a161d4" x="125.530761" y="165.292609" style="fill: #ff8c00; stroke: #ff8c00"/>
     <use xlink:href="#m0d72a161d4" x="226.283977" y="172.759723" style="fill: #ff8c00; stroke: #ff8c00"/>
     <use xlink:href="#m0d72a161d4" x="103.455776" y="128.66622" style="fill: #ff8c00; stroke: #ff8c00"/>
     <use xlink:href="#m0d72a161d4" x="135.795316" y="137.889576" style="fill: #ff8c00; stroke: #ff8c00"/>
     <use xlink:href="#m0d72a161d4" x="162.30231" y="185.170521" style="fill: #ff8c00; stroke: #ff8c00"/>
     <use xlink:href="#m0d72a161d4" x="65.224834" y="156.637106" style="fill: #ff8c00; stroke: #ff8c00"/>
     <use xlink:href="#m0d72a161d4" x="253.179688" y="138.53337" style="fill: #ff8c00; stroke: #ff8c00"/>
     <use xlink:href="#m0d72a161d4" x="172.997891" y="175.009317" style="fill: #ff8c00; stroke: #ff8c00"/>
     <use xlink:href="#m0d72a161d4" x="147.952752" y="159.677067" style="fill: #ff8c00; stroke: #ff8c00"/>
     <use xlink:href="#m0d72a161d4" x="200.390132" y="189.985194" style="fill: #ff8c00; stroke: #ff8c00"/>
     <use xlink:href="#m0d72a161d4" x="141.328478" y="113.852199" style="fill: #ff8c00; stroke: #ff8c00"/>
     <use xlink:href="#m0d72a161d4" x="113.902004" y="166.129926" style="fill: #ff8c00; stroke: #ff8c00"/>
     <use xlink:href="#m0d72a161d4" x="74.176323" y="171.033188" style="fill: #ff8c00; stroke: #ff8c00"/>
    </g>
   </g>
   <g id="matplotlib.axis_1">
    <g id="xtick_1">
     <g id="line2d_1">
      <defs>
       <path id="ma7dab07c6f" d="M 0 0 
L 0 3.5 
" style="stroke: #000000; stroke-width: 0.8"/>
      </defs>
      <g>
       <use xlink:href="#ma7dab07c6f" x="78.944852" y="273.312" style="stroke: #000000; stroke-width: 0.8"/>
      </g>
     </g>
     <g id="text_1">
      <!-- −10 -->
      <g transform="translate(68.392508 287.910437) scale(0.1 -0.1)">
       <defs>
        <path id="DejaVuSans-2212" d="M 678 2272 
L 4684 2272 
L 4684 1741 
L 678 1741 
L 678 2272 
z
" transform="scale(0.015625)"/>
        <path id="DejaVuSans-31" d="M 794 531 
L 1825 531 
L 1825 4091 
L 703 3866 
L 703 4441 
L 1819 4666 
L 2450 4666 
L 2450 531 
L 3481 531 
L 3481 0 
L 794 0 
L 794 531 
z
" transform="scale(0.015625)"/>
        <path id="DejaVuSans-30" d="M 2034 4250 
Q 1547 4250 1301 3770 
Q 1056 3291 1056 2328 
Q 1056 1369 1301 889 
Q 1547 409 2034 409 
Q 2525 409 2770 889 
Q 3016 1369 3016 2328 
Q 3016 3291 2770 3770 
Q 2525 4250 2034 4250 
z
M 2034 4750 
Q 2819 4750 3233 4129 
Q 3647 3509 3647 2328 
Q 3647 1150 3233 529 
Q 2819 -91 2034 -91 
Q 1250 -91 836 529 
Q 422 1150 422 2328 
Q 422 3509 836 4129 
Q 1250 4750 2034 4750 
z
" transform="scale(0.015625)"/>
       </defs>
       <use xlink:href="#DejaVuSans-2212"/>
       <use xlink:href="#DejaVuSans-31" x="83.789062"/>
       <use xlink:href="#DejaVuSans-30" x="147.412109"/>
      </g>
     </g>
    </g>
    <g id="xtick_2">
     <g id="line2d_2">
      <g>
       <use xlink:href="#ma7dab07c6f" x="131.051509" y="273.312" style="stroke: #000000; stroke-width: 0.8"/>
      </g>
     </g>
     <g id="text_2">
      <!-- −5 -->
      <g transform="translate(123.680415 287.910437) scale(0.1 -0.1)">
       <defs>
        <path id="DejaVuSans-35" d="M 691 4666 
L 3169 4666 
L 3169 4134 
L 1269 4134 
L 1269 2991 
Q 1406 3038 1543 3061 
Q 1681 3084 1819 3084 
Q 2600 3084 3056 2656 
Q 3513 2228 3513 1497 
Q 3513 744 3044 326 
Q 2575 -91 1722 -91 
Q 1428 -91 1123 -41 
Q 819 9 494 109 
L 494 744 
Q 775 591 1075 516 
Q 1375 441 1709 441 
Q 2250 441 2565 725 
Q 2881 1009 2881 1497 
Q 2881 1984 2565 2268 
Q 2250 2553 1709 2553 
Q 1456 2553 1204 2497 
Q 953 2441 691 2322 
L 691 4666 
z
" transform="scale(0.015625)"/>
       </defs>
       <use xlink:href="#DejaVuSans-2212"/>
       <use xlink:href="#DejaVuSans-35" x="83.789062"/>
      </g>
     </g>
    </g>
    <g id="xtick_3">
     <g id="line2d_3">
      <g>
       <use xlink:href="#ma7dab07c6f" x="183.158167" y="273.312" style="stroke: #000000; stroke-width: 0.8"/>
      </g>
     </g>
     <g id="text_3">
      <!-- 0 -->
      <g transform="translate(179.976917 287.910437) scale(0.1 -0.1)">
       <use xlink:href="#DejaVuSans-30"/>
      </g>
     </g>
    </g>
    <g id="xtick_4">
     <g id="line2d_4">
      <g>
       <use xlink:href="#ma7dab07c6f" x="235.264824" y="273.312" style="stroke: #000000; stroke-width: 0.8"/>
      </g>
     </g>
     <g id="text_4">
      <!-- 5 -->
      <g transform="translate(232.083574 287.910437) scale(0.1 -0.1)">
       <use xlink:href="#DejaVuSans-35"/>
      </g>
     </g>
    </g>
    <g id="xtick_5">
     <g id="line2d_5">
      <g>
       <use xlink:href="#ma7dab07c6f" x="287.371481" y="273.312" style="stroke: #000000; stroke-width: 0.8"/>
      </g>
     </g>
     <g id="text_5">
      <!-- 10 -->
      <g transform="translate(281.008981 287.910437) scale(0.1 -0.1)">
       <use xlink:href="#DejaVuSans-31"/>
       <use xlink:href="#DejaVuSans-30" x="63.623047"/>
      </g>
     </g>
    </g>
    <g id="xtick_6">
     <g id="line2d_6">
      <g>
       <use xlink:href="#ma7dab07c6f" x="339.478139" y="273.312" style="stroke: #000000; stroke-width: 0.8"/>
      </g>
     </g>
     <g id="text_6">
      <!-- 15 -->
      <g transform="translate(333.115639 287.910437) scale(0.1 -0.1)">
       <use xlink:href="#DejaVuSans-31"/>
       <use xlink:href="#DejaVuSans-35" x="63.623047"/>
      </g>
     </g>
    </g>
    <g id="xtick_7">
     <g id="line2d_7">
      <g>
       <use xlink:href="#ma7dab07c6f" x="391.584796" y="273.312" style="stroke: #000000; stroke-width: 0.8"/>
      </g>
     </g>
     <g id="text_7">
      <!-- 20 -->
      <g transform="translate(385.222296 287.910437) scale(0.1 -0.1)">
       <defs>
        <path id="DejaVuSans-32" d="M 1228 531 
L 3431 531 
L 3431 0 
L 469 0 
L 469 531 
Q 828 903 1448 1529 
Q 2069 2156 2228 2338 
Q 2531 2678 2651 2914 
Q 2772 3150 2772 3378 
Q 2772 3750 2511 3984 
Q 2250 4219 1831 4219 
Q 1534 4219 1204 4116 
Q 875 4013 500 3803 
L 500 4441 
Q 881 4594 1212 4672 
Q 1544 4750 1819 4750 
Q 2544 4750 2975 4387 
Q 3406 4025 3406 3419 
Q 3406 3131 3298 2873 
Q 3191 2616 2906 2266 
Q 2828 2175 2409 1742 
Q 1991 1309 1228 531 
z
" transform="scale(0.015625)"/>
       </defs>
       <use xlink:href="#DejaVuSans-32"/>
       <use xlink:href="#DejaVuSans-30" x="63.623047"/>
      </g>
     </g>
    </g>
   </g>
   <g id="matplotlib.axis_2">
    <g id="ytick_1">
     <g id="line2d_8">
      <defs>
       <path id="m1da21acf77" d="M 0 0 
L -3.5 0 
" style="stroke: #000000; stroke-width: 0.8"/>
      </defs>
      <g>
       <use xlink:href="#m1da21acf77" x="35.304688" y="263.272879" style="stroke: #000000; stroke-width: 0.8"/>
      </g>
     </g>
     <g id="text_8">
      <!-- −20 -->
      <g transform="translate(7.2 267.072098) scale(0.1 -0.1)">
       <use xlink:href="#DejaVuSans-2212"/>
       <use xlink:href="#DejaVuSans-32" x="83.789062"/>
       <use xlink:href="#DejaVuSans-30" x="147.412109"/>
      </g>
     </g>
    </g>
    <g id="ytick_2">
     <g id="line2d_9">
      <g>
       <use xlink:href="#m1da21acf77" x="35.304688" y="233.483073" style="stroke: #000000; stroke-width: 0.8"/>
      </g>
     </g>
     <g id="text_9">
      <!-- −15 -->
      <g transform="translate(7.2 237.282292) scale(0.1 -0.1)">
       <use xlink:href="#DejaVuSans-2212"/>
       <use xlink:href="#DejaVuSans-31" x="83.789062"/>
       <use xlink:href="#DejaVuSans-35" x="147.412109"/>
      </g>
     </g>
    </g>
    <g id="ytick_3">
     <g id="line2d_10">
      <g>
       <use xlink:href="#m1da21acf77" x="35.304688" y="203.693267" style="stroke: #000000; stroke-width: 0.8"/>
      </g>
     </g>
     <g id="text_10">
      <!-- −10 -->
      <g transform="translate(7.2 207.492486) scale(0.1 -0.1)">
       <use xlink:href="#DejaVuSans-2212"/>
       <use xlink:href="#DejaVuSans-31" x="83.789062"/>
       <use xlink:href="#DejaVuSans-30" x="147.412109"/>
      </g>
     </g>
    </g>
    <g id="ytick_4">
     <g id="line2d_11">
      <g>
       <use xlink:href="#m1da21acf77" x="35.304688" y="173.903461" style="stroke: #000000; stroke-width: 0.8"/>
      </g>
     </g>
     <g id="text_11">
      <!-- −5 -->
      <g transform="translate(13.5625 177.70268) scale(0.1 -0.1)">
       <use xlink:href="#DejaVuSans-2212"/>
       <use xlink:href="#DejaVuSans-35" x="83.789062"/>
      </g>
     </g>
    </g>
    <g id="ytick_5">
     <g id="line2d_12">
      <g>
       <use xlink:href="#m1da21acf77" x="35.304688" y="144.113655" style="stroke: #000000; stroke-width: 0.8"/>
      </g>
     </g>
     <g id="text_12">
      <!-- 0 -->
      <g transform="translate(21.942187 147.912874) scale(0.1 -0.1)">
       <use xlink:href="#DejaVuSans-30"/>
      </g>
     </g>
    </g>
    <g id="ytick_6">
     <g id="line2d_13">
      <g>
       <use xlink:href="#m1da21acf77" x="35.304688" y="114.323849" style="stroke: #000000; stroke-width: 0.8"/>
      </g>
     </g>
     <g id="text_13">
      <!-- 5 -->
      <g transform="translate(21.942187 118.123068) scale(0.1 -0.1)">
       <use xlink:href="#DejaVuSans-35"/>
      </g>
     </g>
    </g>
    <g id="ytick_7">
     <g id="line2d_14">
      <g>
       <use xlink:href="#m1da21acf77" x="35.304688" y="84.534043" style="stroke: #000000; stroke-width: 0.8"/>
      </g>
     </g>
     <g id="text_14">
      <!-- 10 -->
      <g transform="translate(15.579687 88.333262) scale(0.1 -0.1)">
       <use xlink:href="#DejaVuSans-31"/>
       <use xlink:href="#DejaVuSans-30" x="63.623047"/>
      </g>
     </g>
    </g>
    <g id="ytick_8">
     <g id="line2d_15">
      <g>
       <use xlink:href="#m1da21acf77" x="35.304688" y="54.744237" style="stroke: #000000; stroke-width: 0.8"/>
      </g>
     </g>
     <g id="text_15">
      <!-- 15 -->
      <g transform="translate(15.579687 58.543456) scale(0.1 -0.1)">
       <use xlink:href="#DejaVuSans-31"/>
       <use xlink:href="#DejaVuSans-35" x="63.623047"/>
      </g>
     </g>
    </g>
    <g id="ytick_9">
     <g id="line2d_16">
      <g>
       <use xlink:href="#m1da21acf77" x="35.304688" y="24.954431" style="stroke: #000000; stroke-width: 0.8"/>
      </g>
     </g>
     <g id="text_16">
      <!-- 20 -->
      <g transform="translate(15.579687 28.75365) scale(0.1 -0.1)">
       <use xlink:href="#DejaVuSans-32"/>
       <use xlink:href="#DejaVuSans-30" x="63.623047"/>
      </g>
     </g>
    </g>
   </g>
   <g id="patch_3">
    <path d="M 35.304688 273.312 
L 35.304688 7.2 
" style="fill: none; stroke: #000000; stroke-width: 0.8; stroke-linejoin: miter; stroke-linecap: square"/>
   </g>
   <g id="patch_4">
    <path d="M 392.424688 273.312 
L 392.424688 7.2 
" style="fill: none; stroke: #000000; stroke-width: 0.8; stroke-linejoin: miter; stroke-linecap: square"/>
   </g>
   <g id="patch_5">
    <path d="M 35.304687 273.312 
L 392.424688 273.312 
" style="fill: none; stroke: #000000; stroke-width: 0.8; stroke-linejoin: miter; stroke-linecap: square"/>
   </g>
   <g id="patch_6">
    <path d="M 35.304687 7.2 
L 392.424688 7.2 
" style="fill: none; stroke: #000000; stroke-width: 0.8; stroke-linejoin: miter; stroke-linecap: square"/>
   </g>
  </g>
 </g>
 <defs>
  <clipPath id="p614ad9381e">
   <rect x="35.304688" y="7.2" width="357.12" height="266.112"/>
  </clipPath>
 </defs>
</svg>
