<?xml version="1.0" encoding="utf-8" standalone="no"?>
<!DOCTYPE svg PUBLIC "-//W3C//DTD SVG 1.1//EN"
  "http://www.w3.org/Graphics/SVG/1.1/DTD/svg11.dtd">
<svg xmlns:xlink="http://www.w3.org/1999/xlink" width="405.708186pt" height="299.333769pt" viewBox="0 0 405.708186 299.333769" xmlns="http://www.w3.org/2000/svg" version="1.1">
 <metadata>
  <rdf:RDF xmlns:dc="http://purl.org/dc/elements/1.1/" xmlns:cc="http://creativecommons.org/ns#" xmlns:rdf="http://www.w3.org/1999/02/22-rdf-syntax-ns#">
   <cc:Work>
    <dc:type rdf:resource="http://purl.org/dc/dcmitype/StillImage"/>
    <dc:date>2023-11-12T08:59:02.390211</dc:date>
    <dc:format>image/svg+xml</dc:format>
    <dc:creator>
     <cc:Agent>
      <dc:title>Matplotlib v3.8.0, https://matplotlib.org/</dc:title>
     </cc:Agent>
    </dc:creator>
   </cc:Work>
  </rdf:RDF>
 </metadata>
 <defs>
  <style type="text/css">*{stroke-linejoin: round; stroke-linecap: butt}</style>
 </defs>
 <g id="figure_1">
  <g id="patch_1">
   <path d="M 0 299.333769 
L 405.708186 299.333769 
L 405.708186 0 
L 0 0 
z
" style="fill: #ffffff"/>
  </g>
  <g id="axes_1">
   <g id="patch_2">
    <path d="M 35.304688 275.455644 
L 392.424688 275.455644 
L 392.424688 9.343644 
L 35.304688 9.343644 
z
" style="fill: #ffffff"/>
   </g>
   <g id="PathCollection_1">
    <defs>
     <path id="maf354406a9" d="M 0 1.5 
C 0.397805 1.5 0.77937 1.341951 1.06066 1.06066 
C 1.341951 0.77937 1.5 0.397805 1.5 0 
C 1.5 -0.397805 1.341951 -0.77937 1.06066 -1.06066 
C 0.77937 -1.341951 0.397805 -1.5 0 -1.5 
C -0.397805 -1.5 -0.77937 -1.341951 -1.06066 -1.06066 
C -1.341951 -0.77937 -1.5 -0.397805 -1.5 0 
C -1.5 0.397805 -1.341951 0.77937 -1.06066 1.06066 
C -0.77937 1.341951 -0.397805 1.5 0 1.5 
z
" style="stroke: #ff8c00"/>
    </defs>
    <g clip-path="url(#p35d78f1a78)">
     <use xlink:href="#maf354406a9" x="321.821094" y="173.254983" style="fill: #ff8c00; stroke: #ff8c00"/>
     <use xlink:href="#maf354406a9" x="283.113564" y="151.147007" style="fill: #ff8c00; stroke: #ff8c00"/>
     <use xlink:href="#maf354406a9" x="316.789784" y="208.450666" style="fill: #ff8c00; stroke: #ff8c00"/>
     <use xlink:href="#maf354406a9" x="243.258465" y="246.531779" style="fill: #ff8c00; stroke: #ff8c00"/>
     <use xlink:href="#maf354406a9" x="220.181984" y="142.973054" style="fill: #ff8c00; stroke: #ff8c00"/>
     <use xlink:href="#maf354406a9" x="333.285182" y="222.983937" style="fill: #ff8c00; stroke: #ff8c00"/>
     <use xlink:href="#maf354406a9" x="265.465686" y="184.759127" style="fill: #ff8c00; stroke: #ff8c00"/>
     <use xlink:href="#maf354406a9" x="285.823263" y="191.228545" style="fill: #ff8c00; stroke: #ff8c00"/>
    </g>
   </g>
   <g id="PathCollection_2">
    <defs>
     <path id="m08b4bd2f23" d="M 0 1.5 
C 0.397805 1.5 0.77937 1.341951 1.06066 1.06066 
C 1.341951 0.77937 1.5 0.397805 1.5 0 
C 1.5 -0.397805 1.341951 -0.77937 1.06066 -1.06066 
C 0.77937 -1.341951 0.397805 -1.5 0 -1.5 
C -0.397805 -1.5 -0.77937 -1.341951 -1.06066 -1.06066 
C -1.341951 -0.77937 -1.5 -0.397805 -1.5 0 
C -1.5 0.397805 -1.341951 0.77937 -1.06066 1.06066 
C -0.77937 1.341951 -0.397805 1.5 0 1.5 
z
" style="stroke: #006400"/>
    </defs>
    <g clip-path="url(#p35d78f1a78)">
     <use xlink:href="#m08b4bd2f23" x="307.583574" y="142.42696" style="fill: #006400; stroke: #006400"/>
     <use xlink:href="#m08b4bd2f23" x="290.240617" y="107.028355" style="fill: #006400; stroke: #006400"/>
     <use xlink:href="#m08b4bd2f23" x="297.252148" y="98.569248" style="fill: #006400; stroke: #006400"/>
     <use xlink:href="#m08b4bd2f23" x="347.485942" y="62.550043" style="fill: #006400; stroke: #006400"/>
     <use xlink:href="#m08b4bd2f23" x="309.287235" y="174.480383" style="fill: #006400; stroke: #006400"/>
     <use xlink:href="#m08b4bd2f23" x="374.137164" y="65.936593" style="fill: #006400; stroke: #006400"/>
     <use xlink:href="#m08b4bd2f23" x="323.724391" y="161.395669" style="fill: #006400; stroke: #006400"/>
     <use xlink:href="#m08b4bd2f23" x="331.296292" y="49.437179" style="fill: #006400; stroke: #006400"/>
     <use xlink:href="#m08b4bd2f23" x="309.102936" y="141.312491" style="fill: #006400; stroke: #006400"/>
     <use xlink:href="#m08b4bd2f23" x="248.830543" y="167.329748" style="fill: #006400; stroke: #006400"/>
     <use xlink:href="#m08b4bd2f23" x="258.31141" y="97.898721" style="fill: #006400; stroke: #006400"/>
     <use xlink:href="#m08b4bd2f23" x="376.19196" y="77.054591" style="fill: #006400; stroke: #006400"/>
     <use xlink:href="#m08b4bd2f23" x="367.713804" y="21.439644" style="fill: #006400; stroke: #006400"/>
     <use xlink:href="#m08b4bd2f23" x="342.95007" y="91.152925" style="fill: #006400; stroke: #006400"/>
    </g>
   </g>
   <g id="PathCollection_3">
    <defs>
     <path id="md182d1a9b7" d="M 0 1.5 
C 0.397805 1.5 0.77937 1.341951 1.06066 1.06066 
C 1.341951 0.77937 1.5 0.397805 1.5 0 
C 1.5 -0.397805 1.341951 -0.77937 1.06066 -1.06066 
C 0.77937 -1.341951 0.397805 -1.5 0 -1.5 
C -0.397805 -1.5 -0.77937 -1.341951 -1.06066 -1.06066 
C -1.341951 -0.77937 -1.5 -0.397805 -1.5 0 
C -1.5 0.397805 -1.341951 0.77937 -1.06066 1.06066 
C -0.77937 1.341951 -0.397805 1.5 0 1.5 
z
" style="stroke: #2f4f4f"/>
    </defs>
    <g clip-path="url(#p35d78f1a78)">
     <use xlink:href="#md182d1a9b7" x="139.202845" y="162.672049" style="fill: #2f4f4f; stroke: #2f4f4f"/>
     <use xlink:href="#md182d1a9b7" x="174.414944" y="147.045358" style="fill: #2f4f4f; stroke: #2f4f4f"/>
     <use xlink:href="#md182d1a9b7" x="81.072959" y="156.777429" style="fill: #2f4f4f; stroke: #2f4f4f"/>
     <use xlink:href="#md182d1a9b7" x="155.45944" y="211.703956" style="fill: #2f4f4f; stroke: #2f4f4f"/>
     <use xlink:href="#md182d1a9b7" x="103.913244" y="161.132282" style="fill: #2f4f4f; stroke: #2f4f4f"/>
     <use xlink:href="#md182d1a9b7" x="83.274092" y="145.440333" style="fill: #2f4f4f; stroke: #2f4f4f"/>
     <use xlink:href="#md182d1a9b7" x="128.528512" y="158.028298" style="fill: #2f4f4f; stroke: #2f4f4f"/>
     <use xlink:href="#md182d1a9b7" x="140.18066" y="158.948489" style="fill: #2f4f4f; stroke: #2f4f4f"/>
     <use xlink:href="#md182d1a9b7" x="165.10335" y="143.889943" style="fill: #2f4f4f; stroke: #2f4f4f"/>
     <use xlink:href="#md182d1a9b7" x="219.1945" y="206.650244" style="fill: #2f4f4f; stroke: #2f4f4f"/>
     <use xlink:href="#md182d1a9b7" x="150.562753" y="209.045107" style="fill: #2f4f4f; stroke: #2f4f4f"/>
    </g>
   </g>
   <g id="PathCollection_4">
    <defs>
     <path id="m3c904d29a7" d="M 0 1.5 
C 0.397805 1.5 0.77937 1.341951 1.06066 1.06066 
C 1.341951 0.77937 1.5 0.397805 1.5 0 
C 1.5 -0.397805 1.341951 -0.77937 1.06066 -1.06066 
C 0.77937 -1.341951 0.397805 -1.5 0 -1.5 
C -0.397805 -1.5 -0.77937 -1.341951 -1.06066 -1.06066 
C -1.341951 -0.77937 -1.5 -0.397805 -1.5 0 
C -1.5 0.397805 -1.341951 0.77937 -1.06066 1.06066 
C -0.77937 1.341951 -0.397805 1.5 0 1.5 
z
" style="stroke: #00bfff"/>
    </defs>
    <g clip-path="url(#p35d78f1a78)">
     <use xlink:href="#m3c904d29a7" x="194.736989" y="135.740688" style="fill: #00bfff; stroke: #00bfff"/>
     <use xlink:href="#m3c904d29a7" x="182.177747" y="161.620298" style="fill: #00bfff; stroke: #00bfff"/>
     <use xlink:href="#m3c904d29a7" x="159.639751" y="151.078071" style="fill: #00bfff; stroke: #00bfff"/>
     <use xlink:href="#m3c904d29a7" x="196.387874" y="144.673276" style="fill: #00bfff; stroke: #00bfff"/>
     <use xlink:href="#m3c904d29a7" x="193.660571" y="170.169364" style="fill: #00bfff; stroke: #00bfff"/>
     <use xlink:href="#m3c904d29a7" x="177.503171" y="177.484036" style="fill: #00bfff; stroke: #00bfff"/>
     <use xlink:href="#m3c904d29a7" x="171.21925" y="144.737094" style="fill: #00bfff; stroke: #00bfff"/>
     <use xlink:href="#m3c904d29a7" x="167.36563" y="146.237636" style="fill: #00bfff; stroke: #00bfff"/>
     <use xlink:href="#m3c904d29a7" x="131.717859" y="165.474348" style="fill: #00bfff; stroke: #00bfff"/>
     <use xlink:href="#m3c904d29a7" x="206.716632" y="148.710608" style="fill: #00bfff; stroke: #00bfff"/>
     <use xlink:href="#m3c904d29a7" x="167.656756" y="187.201906" style="fill: #00bfff; stroke: #00bfff"/>
     <use xlink:href="#m3c904d29a7" x="175.245306" y="174.327646" style="fill: #00bfff; stroke: #00bfff"/>
     <use xlink:href="#m3c904d29a7" x="172.207767" y="159.93215" style="fill: #00bfff; stroke: #00bfff"/>
     <use xlink:href="#m3c904d29a7" x="124.327701" y="154.992425" style="fill: #00bfff; stroke: #00bfff"/>
     <use xlink:href="#m3c904d29a7" x="177.822718" y="167.822289" style="fill: #00bfff; stroke: #00bfff"/>
     <use xlink:href="#m3c904d29a7" x="161.685133" y="169.336416" style="fill: #00bfff; stroke: #00bfff"/>
     <use xlink:href="#m3c904d29a7" x="196.22899" y="140.459161" style="fill: #00bfff; stroke: #00bfff"/>
    </g>
   </g>
   <g id="PathCollection_5">
    <defs>
     <path id="m4f3fd3601b" d="M 0 1.5 
C 0.397805 1.5 0.77937 1.341951 1.06066 1.06066 
C 1.341951 0.77937 1.5 0.397805 1.5 0 
C 1.5 -0.397805 1.341951 -0.77937 1.06066 -1.06066 
C 0.77937 -1.341951 0.397805 -1.5 0 -1.5 
C -0.397805 -1.5 -0.77937 -1.341951 -1.06066 -1.06066 
C -1.341951 -0.77937 -1.5 -0.397805 -1.5 0 
C -1.5 0.397805 -1.341951 0.77937 -1.06066 1.06066 
C -0.77937 1.341951 -0.397805 1.5 0 1.5 
z
" style="stroke: #ffff00"/>
    </defs>
    <g clip-path="url(#p35d78f1a78)">
     <use xlink:href="#m4f3fd3601b" x="159.662328" y="111.020588" style="fill: #ffff00; stroke: #ffff00"/>
     <use xlink:href="#m4f3fd3601b" x="205.265006" y="147.227596" style="fill: #ffff00; stroke: #ffff00"/>
     <use xlink:href="#m4f3fd3601b" x="165.608875" y="196.726202" style="fill: #ffff00; stroke: #ffff00"/>
     <use xlink:href="#m4f3fd3601b" x="235.131041" y="145.059959" style="fill: #ffff00; stroke: #ffff00"/>
     <use xlink:href="#m4f3fd3601b" x="179.082686" y="133.835469" style="fill: #ffff00; stroke: #ffff00"/>
     <use xlink:href="#m4f3fd3601b" x="129.829976" y="161.013868" style="fill: #ffff00; stroke: #ffff00"/>
     <use xlink:href="#m4f3fd3601b" x="139.895724" y="122.327037" style="fill: #ffff00; stroke: #ffff00"/>
     <use xlink:href="#m4f3fd3601b" x="145.453319" y="164.811403" style="fill: #ffff00; stroke: #ffff00"/>
     <use xlink:href="#m4f3fd3601b" x="150.054163" y="133.56786" style="fill: #ffff00; stroke: #ffff00"/>
     <use xlink:href="#m4f3fd3601b" x="127.496022" y="133.294946" style="fill: #ffff00; stroke: #ffff00"/>
     <use xlink:href="#m4f3fd3601b" x="188.952254" y="108.766996" style="fill: #ffff00; stroke: #ffff00"/>
     <use xlink:href="#m4f3fd3601b" x="165.581283" y="175.133839" style="fill: #ffff00; stroke: #ffff00"/>
     <use xlink:href="#m4f3fd3601b" x="163.745583" y="179.652486" style="fill: #ffff00; stroke: #ffff00"/>
     <use xlink:href="#m4f3fd3601b" x="154.441836" y="158.302931" style="fill: #ffff00; stroke: #ffff00"/>
    </g>
   </g>
   <g id="PathCollection_6">
    <defs>
     <path id="m35282fbac3" d="M 0 1.5 
C 0.397805 1.5 0.77937 1.341951 1.06066 1.06066 
C 1.341951 0.77937 1.5 0.397805 1.5 0 
C 1.5 -0.397805 1.341951 -0.77937 1.06066 -1.06066 
C 0.77937 -1.341951 0.397805 -1.5 0 -1.5 
C -0.397805 -1.5 -0.77937 -1.341951 -1.06066 -1.06066 
C -1.341951 -0.77937 -1.5 -0.397805 -1.5 0 
C -1.5 0.397805 -1.341951 0.77937 -1.06066 1.06066 
C -0.77937 1.341951 -0.397805 1.5 0 1.5 
z
" style="stroke: #00ffff"/>
    </defs>
    <g clip-path="url(#p35d78f1a78)">
     <use xlink:href="#m35282fbac3" x="184.203614" y="185.554834" style="fill: #00ffff; stroke: #00ffff"/>
     <use xlink:href="#m35282fbac3" x="101.875897" y="147.487477" style="fill: #00ffff; stroke: #00ffff"/>
     <use xlink:href="#m35282fbac3" x="180.890368" y="136.838101" style="fill: #00ffff; stroke: #00ffff"/>
     <use xlink:href="#m35282fbac3" x="117.252845" y="157.260445" style="fill: #00ffff; stroke: #00ffff"/>
     <use xlink:href="#m35282fbac3" x="237.375623" y="168.594246" style="fill: #00ffff; stroke: #00ffff"/>
     <use xlink:href="#m35282fbac3" x="169.85412" y="144.214966" style="fill: #00ffff; stroke: #00ffff"/>
     <use xlink:href="#m35282fbac3" x="205.025199" y="186.128443" style="fill: #00ffff; stroke: #00ffff"/>
     <use xlink:href="#m35282fbac3" x="157.490796" y="133.359134" style="fill: #00ffff; stroke: #00ffff"/>
     <use xlink:href="#m35282fbac3" x="151.736478" y="189.480181" style="fill: #00ffff; stroke: #00ffff"/>
     <use xlink:href="#m35282fbac3" x="152.182229" y="146.843302" style="fill: #00ffff; stroke: #00ffff"/>
     <use xlink:href="#m35282fbac3" x="159.177751" y="187.723715" style="fill: #00ffff; stroke: #00ffff"/>
     <use xlink:href="#m35282fbac3" x="148.355378" y="140.162931" style="fill: #00ffff; stroke: #00ffff"/>
     <use xlink:href="#m35282fbac3" x="84.2691" y="138.160785" style="fill: #00ffff; stroke: #00ffff"/>
     <use xlink:href="#m35282fbac3" x="119.194385" y="125.388793" style="fill: #00ffff; stroke: #00ffff"/>
     <use xlink:href="#m35282fbac3" x="210.416146" y="129.048899" style="fill: #00ffff; stroke: #00ffff"/>
     <use xlink:href="#m35282fbac3" x="85.317246" y="158.671202" style="fill: #00ffff; stroke: #00ffff"/>
    </g>
   </g>
   <g id="PathCollection_7">
    <defs>
     <path id="m9738d69aac" d="M 0 1.5 
C 0.397805 1.5 0.77937 1.341951 1.06066 1.06066 
C 1.341951 0.77937 1.5 0.397805 1.5 0 
C 1.5 -0.397805 1.341951 -0.77937 1.06066 -1.06066 
C 0.77937 -1.341951 0.397805 -1.5 0 -1.5 
C -0.397805 -1.5 -0.77937 -1.341951 -1.06066 -1.06066 
C -1.341951 -0.77937 -1.5 -0.397805 -1.5 0 
C -1.5 0.397805 -1.341951 0.77937 -1.06066 1.06066 
C -0.77937 1.341951 -0.397805 1.5 0 1.5 
z
" style="stroke: #0000ff"/>
    </defs>
    <g clip-path="url(#p35d78f1a78)">
     <use xlink:href="#m9738d69aac" x="112.290415" y="155.965866" style="fill: #0000ff; stroke: #0000ff"/>
     <use xlink:href="#m9738d69aac" x="163.877781" y="140.975261" style="fill: #0000ff; stroke: #0000ff"/>
     <use xlink:href="#m9738d69aac" x="179.109173" y="32.013963" style="fill: #0000ff; stroke: #0000ff"/>
     <use xlink:href="#m9738d69aac" x="124.958518" y="141.79041" style="fill: #0000ff; stroke: #0000ff"/>
     <use xlink:href="#m9738d69aac" x="180.70214" y="93.85019" style="fill: #0000ff; stroke: #0000ff"/>
     <use xlink:href="#m9738d69aac" x="207.489097" y="136.549809" style="fill: #0000ff; stroke: #0000ff"/>
     <use xlink:href="#m9738d69aac" x="158.393178" y="107.326149" style="fill: #0000ff; stroke: #0000ff"/>
     <use xlink:href="#m9738d69aac" x="224.840806" y="123.930508" style="fill: #0000ff; stroke: #0000ff"/>
     <use xlink:href="#m9738d69aac" x="258.056397" y="153.912255" style="fill: #0000ff; stroke: #0000ff"/>
     <use xlink:href="#m9738d69aac" x="162.488073" y="196.255986" style="fill: #0000ff; stroke: #0000ff"/>
     <use xlink:href="#m9738d69aac" x="165.926409" y="99.873251" style="fill: #0000ff; stroke: #0000ff"/>
     <use xlink:href="#m9738d69aac" x="114.919155" y="174.994702" style="fill: #0000ff; stroke: #0000ff"/>
     <use xlink:href="#m9738d69aac" x="106.201199" y="173.591758" style="fill: #0000ff; stroke: #0000ff"/>
     <use xlink:href="#m9738d69aac" x="254.917042" y="37.356457" style="fill: #0000ff; stroke: #0000ff"/>
     <use xlink:href="#m9738d69aac" x="169.544228" y="99.116506" style="fill: #0000ff; stroke: #0000ff"/>
     <use xlink:href="#m9738d69aac" x="210.781101" y="181.337644" style="fill: #0000ff; stroke: #0000ff"/>
    </g>
   </g>
   <g id="PathCollection_8">
    <defs>
     <path id="mb4d81ede5b" d="M 0 1.5 
C 0.397805 1.5 0.77937 1.341951 1.06066 1.06066 
C 1.341951 0.77937 1.5 0.397805 1.5 0 
C 1.5 -0.397805 1.341951 -0.77937 1.06066 -1.06066 
C 0.77937 -1.341951 0.397805 -1.5 0 -1.5 
C -0.397805 -1.5 -0.77937 -1.341951 -1.06066 -1.06066 
C -1.341951 -0.77937 -1.5 -0.397805 -1.5 0 
C -1.5 0.397805 -1.341951 0.77937 -1.06066 1.06066 
C -0.77937 1.341951 -0.397805 1.5 0 1.5 
z
" style="stroke: #dc143c"/>
    </defs>
    <g clip-path="url(#p35d78f1a78)">
     <use xlink:href="#mb4d81ede5b" x="180.880254" y="190.819105" style="fill: #dc143c; stroke: #dc143c"/>
     <use xlink:href="#mb4d81ede5b" x="270.755196" y="247.301234" style="fill: #dc143c; stroke: #dc143c"/>
     <use xlink:href="#mb4d81ede5b" x="332.997786" y="228.218264" style="fill: #dc143c; stroke: #dc143c"/>
     <use xlink:href="#mb4d81ede5b" x="291.24462" y="263.359644" style="fill: #dc143c; stroke: #dc143c"/>
     <use xlink:href="#mb4d81ede5b" x="236.478225" y="151.406313" style="fill: #dc143c; stroke: #dc143c"/>
     <use xlink:href="#mb4d81ede5b" x="196.283234" y="218.047145" style="fill: #dc143c; stroke: #dc143c"/>
     <use xlink:href="#mb4d81ede5b" x="257.258553" y="196.807816" style="fill: #dc143c; stroke: #dc143c"/>
     <use xlink:href="#mb4d81ede5b" x="251.688747" y="234.019025" style="fill: #dc143c; stroke: #dc143c"/>
     <use xlink:href="#mb4d81ede5b" x="217.365799" y="237.161484" style="fill: #dc143c; stroke: #dc143c"/>
     <use xlink:href="#mb4d81ede5b" x="270.1798" y="228.41882" style="fill: #dc143c; stroke: #dc143c"/>
     <use xlink:href="#mb4d81ede5b" x="244.615554" y="196.280509" style="fill: #dc143c; stroke: #dc143c"/>
     <use xlink:href="#mb4d81ede5b" x="278.794214" y="205.709368" style="fill: #dc143c; stroke: #dc143c"/>
     <use xlink:href="#mb4d81ede5b" x="255.406561" y="147.459379" style="fill: #dc143c; stroke: #dc143c"/>
     <use xlink:href="#mb4d81ede5b" x="257.362359" y="156.163906" style="fill: #dc143c; stroke: #dc143c"/>
     <use xlink:href="#mb4d81ede5b" x="215.508868" y="197.028948" style="fill: #dc143c; stroke: #dc143c"/>
     <use xlink:href="#mb4d81ede5b" x="264.271424" y="240.363419" style="fill: #dc143c; stroke: #dc143c"/>
     <use xlink:href="#mb4d81ede5b" x="220.016177" y="213.843387" style="fill: #dc143c; stroke: #dc143c"/>
     <use xlink:href="#mb4d81ede5b" x="262.024438" y="176.767466" style="fill: #dc143c; stroke: #dc143c"/>
     <use xlink:href="#mb4d81ede5b" x="242.432446" y="197.532408" style="fill: #dc143c; stroke: #dc143c"/>
    </g>
   </g>
   <g id="PathCollection_9">
    <defs>
     <path id="m0558e9221a" d="M 0 1.5 
C 0.397805 1.5 0.77937 1.341951 1.06066 1.06066 
C 1.341951 0.77937 1.5 0.397805 1.5 0 
C 1.5 -0.397805 1.341951 -0.77937 1.06066 -1.06066 
C 0.77937 -1.341951 0.397805 -1.5 0 -1.5 
C -0.397805 -1.5 -0.77937 -1.341951 -1.06066 -1.06066 
C -1.341951 -0.77937 -1.5 -0.397805 -1.5 0 
C -1.5 0.397805 -1.341951 0.77937 -1.06066 1.06066 
C -0.77937 1.341951 -0.397805 1.5 0 1.5 
z
" style="stroke: #ffe4c4"/>
    </defs>
    <g clip-path="url(#p35d78f1a78)">
     <use xlink:href="#m0558e9221a" x="256.427583" y="231.854913" style="fill: #ffe4c4; stroke: #ffe4c4"/>
     <use xlink:href="#m0558e9221a" x="224.247433" y="93.253397" style="fill: #ffe4c4; stroke: #ffe4c4"/>
     <use xlink:href="#m0558e9221a" x="283.344757" y="136.895709" style="fill: #ffe4c4; stroke: #ffe4c4"/>
     <use xlink:href="#m0558e9221a" x="236.165441" y="117.704745" style="fill: #ffe4c4; stroke: #ffe4c4"/>
     <use xlink:href="#m0558e9221a" x="354.138558" y="169.734335" style="fill: #ffe4c4; stroke: #ffe4c4"/>
     <use xlink:href="#m0558e9221a" x="247.907839" y="170.813042" style="fill: #ffe4c4; stroke: #ffe4c4"/>
     <use xlink:href="#m0558e9221a" x="261.13134" y="104.905599" style="fill: #ffe4c4; stroke: #ffe4c4"/>
     <use xlink:href="#m0558e9221a" x="298.749407" y="162.693395" style="fill: #ffe4c4; stroke: #ffe4c4"/>
     <use xlink:href="#m0558e9221a" x="281.716032" y="153.289591" style="fill: #ffe4c4; stroke: #ffe4c4"/>
     <use xlink:href="#m0558e9221a" x="261.767307" y="146.951007" style="fill: #ffe4c4; stroke: #ffe4c4"/>
     <use xlink:href="#m0558e9221a" x="325.526731" y="96.653165" style="fill: #ffe4c4; stroke: #ffe4c4"/>
     <use xlink:href="#m0558e9221a" x="212.986267" y="103.275583" style="fill: #ffe4c4; stroke: #ffe4c4"/>
     <use xlink:href="#m0558e9221a" x="316.960121" y="179.475685" style="fill: #ffe4c4; stroke: #ffe4c4"/>
    </g>
   </g>
   <g id="PathCollection_10">
    <defs>
     <path id="mf88f0cd8ae" d="M -2.99994 2.99994 
L 3.00006 2.99994 
L 3.00006 -3.00006 
L -2.99994 -3.00006 
z
" style="stroke: #000000"/>
    </defs>
    <g clip-path="url(#p35d78f1a78)">
     <use xlink:href="#mf88f0cd8ae" x="197.90065" y="153.494816" style="stroke: #000000"/>
     <use xlink:href="#mf88f0cd8ae" x="150.809437" y="126.052516" style="stroke: #000000"/>
     <use xlink:href="#mf88f0cd8ae" x="85.025724" y="150.583534" style="stroke: #000000"/>
     <use xlink:href="#mf88f0cd8ae" x="99.384679" y="142.551488" style="stroke: #000000"/>
     <use xlink:href="#mf88f0cd8ae" x="172.117306" y="192.018739" style="stroke: #000000"/>
     <use xlink:href="#mf88f0cd8ae" x="98.561843" y="167.115541" style="stroke: #000000"/>
     <use xlink:href="#mf88f0cd8ae" x="106.241363" y="159.500617" style="stroke: #000000"/>
     <use xlink:href="#mf88f0cd8ae" x="141.574357" y="159.882787" style="stroke: #000000"/>
     <use xlink:href="#mf88f0cd8ae" x="143.597468" y="172.376013" style="stroke: #000000"/>
     <use xlink:href="#mf88f0cd8ae" x="102.866209" y="129.187454" style="stroke: #000000"/>
     <use xlink:href="#mf88f0cd8ae" x="134.370325" y="114.051079" style="stroke: #000000"/>
     <use xlink:href="#mf88f0cd8ae" x="74.004768" y="130.966951" style="stroke: #000000"/>
     <use xlink:href="#mf88f0cd8ae" x="78.358605" y="135.418578" style="stroke: #000000"/>
     <use xlink:href="#mf88f0cd8ae" x="233.813705" y="139.957895" style="stroke: #000000"/>
     <use xlink:href="#mf88f0cd8ae" x="122.84762" y="101.411141" style="stroke: #000000"/>
     <use xlink:href="#mf88f0cd8ae" x="86.480729" y="138.102925" style="stroke: #000000"/>
     <use xlink:href="#mf88f0cd8ae" x="160.122208" y="138.371801" style="stroke: #000000"/>
     <use xlink:href="#mf88f0cd8ae" x="138.486995" y="129.376111" style="stroke: #000000"/>
     <use xlink:href="#mf88f0cd8ae" x="180.631286" y="216.501797" style="stroke: #000000"/>
     <use xlink:href="#mf88f0cd8ae" x="125.724895" y="160.996916" style="stroke: #000000"/>
     <use xlink:href="#mf88f0cd8ae" x="163.310662" y="177.211558" style="stroke: #000000"/>
     <use xlink:href="#mf88f0cd8ae" x="244.787295" y="92.546141" style="stroke: #000000"/>
     <use xlink:href="#mf88f0cd8ae" x="124.754349" y="153.335003" style="stroke: #000000"/>
     <use xlink:href="#mf88f0cd8ae" x="149.503673" y="188.517427" style="stroke: #000000"/>
     <use xlink:href="#mf88f0cd8ae" x="86.480653" y="159.852026" style="stroke: #000000"/>
     <use xlink:href="#mf88f0cd8ae" x="157.534583" y="89.324016" style="stroke: #000000"/>
     <use xlink:href="#mf88f0cd8ae" x="141.117319" y="152.286713" style="stroke: #000000"/>
     <use xlink:href="#mf88f0cd8ae" x="158.188325" y="148.335903" style="stroke: #000000"/>
     <use xlink:href="#mf88f0cd8ae" x="124.673529" y="190.65217" style="stroke: #000000"/>
     <use xlink:href="#mf88f0cd8ae" x="86.726899" y="161.571753" style="stroke: #000000"/>
     <use xlink:href="#mf88f0cd8ae" x="127.378039" y="144.823935" style="stroke: #000000"/>
     <use xlink:href="#mf88f0cd8ae" x="157.530924" y="203.112763" style="stroke: #000000"/>
     <use xlink:href="#mf88f0cd8ae" x="187.956292" y="134.53591" style="stroke: #000000"/>
     <use xlink:href="#mf88f0cd8ae" x="132.335242" y="163.380558" style="stroke: #000000"/>
     <use xlink:href="#mf88f0cd8ae" x="170.912314" y="158.514421" style="stroke: #000000"/>
     <use xlink:href="#mf88f0cd8ae" x="165.13507" y="148.632091" style="stroke: #000000"/>
     <use xlink:href="#mf88f0cd8ae" x="152.956599" y="159.724699" style="stroke: #000000"/>
     <use xlink:href="#mf88f0cd8ae" x="164.568584" y="85.938304" style="stroke: #000000"/>
     <use xlink:href="#mf88f0cd8ae" x="163.609116" y="130.424983" style="stroke: #000000"/>
     <use xlink:href="#mf88f0cd8ae" x="168.855374" y="156.397161" style="stroke: #000000"/>
     <use xlink:href="#mf88f0cd8ae" x="92.923455" y="155.672844" style="stroke: #000000"/>
     <use xlink:href="#mf88f0cd8ae" x="110.478044" y="130.812669" style="stroke: #000000"/>
     <use xlink:href="#mf88f0cd8ae" x="106.912534" y="125.102603" style="stroke: #000000"/>
     <use xlink:href="#mf88f0cd8ae" x="101.633013" y="145.431204" style="stroke: #000000"/>
     <use xlink:href="#mf88f0cd8ae" x="105.401369" y="149.49012" style="stroke: #000000"/>
     <use xlink:href="#mf88f0cd8ae" x="169.420314" y="176.959241" style="stroke: #000000"/>
     <use xlink:href="#mf88f0cd8ae" x="219.10276" y="221.215056" style="stroke: #000000"/>
     <use xlink:href="#mf88f0cd8ae" x="183.292149" y="147.07745" style="stroke: #000000"/>
     <use xlink:href="#mf88f0cd8ae" x="250.060807" y="132.275345" style="stroke: #000000"/>
     <use xlink:href="#mf88f0cd8ae" x="144.699464" y="184.710637" style="stroke: #000000"/>
     <use xlink:href="#mf88f0cd8ae" x="93.96467" y="143.980991" style="stroke: #000000"/>
     <use xlink:href="#mf88f0cd8ae" x="94.739445" y="144.938978" style="stroke: #000000"/>
     <use xlink:href="#mf88f0cd8ae" x="198.209952" y="158.605083" style="stroke: #000000"/>
     <use xlink:href="#mf88f0cd8ae" x="186.470259" y="168.939902" style="stroke: #000000"/>
     <use xlink:href="#mf88f0cd8ae" x="116.46683" y="158.661191" style="stroke: #000000"/>
     <use xlink:href="#mf88f0cd8ae" x="60.528749" y="156.293177" style="stroke: #000000"/>
     <use xlink:href="#mf88f0cd8ae" x="188.720081" y="145.546191" style="stroke: #000000"/>
     <use xlink:href="#mf88f0cd8ae" x="70.483186" y="140.26188" style="stroke: #000000"/>
     <use xlink:href="#mf88f0cd8ae" x="123.757608" y="147.637808" style="stroke: #000000"/>
     <use xlink:href="#mf88f0cd8ae" x="132.126711" y="181.334667" style="stroke: #000000"/>
     <use xlink:href="#mf88f0cd8ae" x="104.227585" y="186.084091" style="stroke: #000000"/>
     <use xlink:href="#mf88f0cd8ae" x="137.458538" y="135.264739" style="stroke: #000000"/>
     <use xlink:href="#mf88f0cd8ae" x="195.021207" y="139.659882" style="stroke: #000000"/>
     <use xlink:href="#mf88f0cd8ae" x="174.725247" y="186.590231" style="stroke: #000000"/>
    </g>
   </g>
   <g id="PathCollection_11">
    <defs>
     <path id="m1bf760c24f" d="M -3 -0 
L 3 3 
L 3 -3 
z
" style="stroke: #ff8c00"/>
    </defs>
    <g clip-path="url(#p35d78f1a78)">
     <use xlink:href="#m1bf760c24f" x="117.458795" y="145.6894" style="fill: #ff8c00; stroke: #ff8c00"/>
     <use xlink:href="#m1bf760c24f" x="96.681225" y="140.950618" style="fill: #ff8c00; stroke: #ff8c00"/>
     <use xlink:href="#m1bf760c24f" x="138.076983" y="140.059979" style="fill: #ff8c00; stroke: #ff8c00"/>
     <use xlink:href="#m1bf760c24f" x="89.412682" y="148.568246" style="fill: #ff8c00; stroke: #ff8c00"/>
     <use xlink:href="#m1bf760c24f" x="138.78447" y="125.415216" style="fill: #ff8c00; stroke: #ff8c00"/>
     <use xlink:href="#m1bf760c24f" x="131.010289" y="149.234561" style="fill: #ff8c00; stroke: #ff8c00"/>
     <use xlink:href="#m1bf760c24f" x="128.873593" y="160.446055" style="fill: #ff8c00; stroke: #ff8c00"/>
     <use xlink:href="#m1bf760c24f" x="99.600397" y="171.867651" style="fill: #ff8c00; stroke: #ff8c00"/>
     <use xlink:href="#m1bf760c24f" x="197.407425" y="130.324601" style="fill: #ff8c00; stroke: #ff8c00"/>
     <use xlink:href="#m1bf760c24f" x="146.716964" y="130.40247" style="fill: #ff8c00; stroke: #ff8c00"/>
     <use xlink:href="#m1bf760c24f" x="139.489199" y="127.943257" style="fill: #ff8c00; stroke: #ff8c00"/>
     <use xlink:href="#m1bf760c24f" x="129.144651" y="158.582117" style="fill: #ff8c00; stroke: #ff8c00"/>
     <use xlink:href="#m1bf760c24f" x="145.679858" y="151.57251" style="fill: #ff8c00; stroke: #ff8c00"/>
     <use xlink:href="#m1bf760c24f" x="117.193482" y="144.391748" style="fill: #ff8c00; stroke: #ff8c00"/>
     <use xlink:href="#m1bf760c24f" x="132.503221" y="130.477596" style="fill: #ff8c00; stroke: #ff8c00"/>
     <use xlink:href="#m1bf760c24f" x="176.551547" y="160.324021" style="fill: #ff8c00; stroke: #ff8c00"/>
     <use xlink:href="#m1bf760c24f" x="101.097155" y="143.890495" style="fill: #ff8c00; stroke: #ff8c00"/>
     <use xlink:href="#m1bf760c24f" x="120.642433" y="177.243147" style="fill: #ff8c00; stroke: #ff8c00"/>
     <use xlink:href="#m1bf760c24f" x="138.660739" y="143.076718" style="fill: #ff8c00; stroke: #ff8c00"/>
     <use xlink:href="#m1bf760c24f" x="60.118292" y="116.86108" style="fill: #ff8c00; stroke: #ff8c00"/>
     <use xlink:href="#m1bf760c24f" x="134.200575" y="184.506198" style="fill: #ff8c00; stroke: #ff8c00"/>
     <use xlink:href="#m1bf760c24f" x="131.237523" y="135.871527" style="fill: #ff8c00; stroke: #ff8c00"/>
     <use xlink:href="#m1bf760c24f" x="156.690039" y="160.328451" style="fill: #ff8c00; stroke: #ff8c00"/>
     <use xlink:href="#m1bf760c24f" x="130.972842" y="194.12768" style="fill: #ff8c00; stroke: #ff8c00"/>
     <use xlink:href="#m1bf760c24f" x="118.212902" y="142.984107" style="fill: #ff8c00; stroke: #ff8c00"/>
     <use xlink:href="#m1bf760c24f" x="90.771356" y="179.142965" style="fill: #ff8c00; stroke: #ff8c00"/>
     <use xlink:href="#m1bf760c24f" x="86.910142" y="152.51755" style="fill: #ff8c00; stroke: #ff8c00"/>
     <use xlink:href="#m1bf760c24f" x="208.06755" y="127.372688" style="fill: #ff8c00; stroke: #ff8c00"/>
     <use xlink:href="#m1bf760c24f" x="140.201868" y="152.846154" style="fill: #ff8c00; stroke: #ff8c00"/>
     <use xlink:href="#m1bf760c24f" x="132.814369" y="161.88145" style="fill: #ff8c00; stroke: #ff8c00"/>
     <use xlink:href="#m1bf760c24f" x="131.748642" y="139.092875" style="fill: #ff8c00; stroke: #ff8c00"/>
     <use xlink:href="#m1bf760c24f" x="51.537415" y="151.409935" style="fill: #ff8c00; stroke: #ff8c00"/>
     <use xlink:href="#m1bf760c24f" x="101.153941" y="125.155907" style="fill: #ff8c00; stroke: #ff8c00"/>
     <use xlink:href="#m1bf760c24f" x="122.997965" y="158.151364" style="fill: #ff8c00; stroke: #ff8c00"/>
     <use xlink:href="#m1bf760c24f" x="147.834264" y="141.813139" style="fill: #ff8c00; stroke: #ff8c00"/>
     <use xlink:href="#m1bf760c24f" x="177.312476" y="150.005633" style="fill: #ff8c00; stroke: #ff8c00"/>
     <use xlink:href="#m1bf760c24f" x="103.002891" y="141.242542" style="fill: #ff8c00; stroke: #ff8c00"/>
     <use xlink:href="#m1bf760c24f" x="130.602129" y="143.025252" style="fill: #ff8c00; stroke: #ff8c00"/>
     <use xlink:href="#m1bf760c24f" x="113.018331" y="143.486511" style="fill: #ff8c00; stroke: #ff8c00"/>
     <use xlink:href="#m1bf760c24f" x="138.097034" y="135.745347" style="fill: #ff8c00; stroke: #ff8c00"/>
     <use xlink:href="#m1bf760c24f" x="162.060241" y="205.206859" style="fill: #ff8c00; stroke: #ff8c00"/>
     <use xlink:href="#m1bf760c24f" x="184.840812" y="190.326805" style="fill: #ff8c00; stroke: #ff8c00"/>
     <use xlink:href="#m1bf760c24f" x="117.846284" y="161.172931" style="fill: #ff8c00; stroke: #ff8c00"/>
     <use xlink:href="#m1bf760c24f" x="162.992979" y="130.606592" style="fill: #ff8c00; stroke: #ff8c00"/>
     <use xlink:href="#m1bf760c24f" x="107.110691" y="160.680191" style="fill: #ff8c00; stroke: #ff8c00"/>
     <use xlink:href="#m1bf760c24f" x="88.527926" y="148.350347" style="fill: #ff8c00; stroke: #ff8c00"/>
     <use xlink:href="#m1bf760c24f" x="113.111786" y="158.680246" style="fill: #ff8c00; stroke: #ff8c00"/>
     <use xlink:href="#m1bf760c24f" x="122.997965" y="158.151364" style="fill: #ff8c00; stroke: #ff8c00"/>
     <use xlink:href="#m1bf760c24f" x="158.960756" y="156.924762" style="fill: #ff8c00; stroke: #ff8c00"/>
     <use xlink:href="#m1bf760c24f" x="79.89534" y="144.732121" style="fill: #ff8c00; stroke: #ff8c00"/>
     <use xlink:href="#m1bf760c24f" x="154.096347" y="171.482236" style="fill: #ff8c00; stroke: #ff8c00"/>
     <use xlink:href="#m1bf760c24f" x="158.960756" y="156.924762" style="fill: #ff8c00; stroke: #ff8c00"/>
     <use xlink:href="#m1bf760c24f" x="138.625004" y="126.132318" style="fill: #ff8c00; stroke: #ff8c00"/>
     <use xlink:href="#m1bf760c24f" x="153.272452" y="153.904379" style="fill: #ff8c00; stroke: #ff8c00"/>
     <use xlink:href="#m1bf760c24f" x="146.118014" y="188.575742" style="fill: #ff8c00; stroke: #ff8c00"/>
     <use xlink:href="#m1bf760c24f" x="102.440707" y="148.631025" style="fill: #ff8c00; stroke: #ff8c00"/>
     <use xlink:href="#m1bf760c24f" x="136.729604" y="121.144449" style="fill: #ff8c00; stroke: #ff8c00"/>
     <use xlink:href="#m1bf760c24f" x="101.940234" y="134.179095" style="fill: #ff8c00; stroke: #ff8c00"/>
     <use xlink:href="#m1bf760c24f" x="146.690424" y="154.118126" style="fill: #ff8c00; stroke: #ff8c00"/>
     <use xlink:href="#m1bf760c24f" x="85.440453" y="155.036454" style="fill: #ff8c00; stroke: #ff8c00"/>
     <use xlink:href="#m1bf760c24f" x="159.306216" y="155.722879" style="fill: #ff8c00; stroke: #ff8c00"/>
     <use xlink:href="#m1bf760c24f" x="118.381329" y="152.884291" style="fill: #ff8c00; stroke: #ff8c00"/>
     <use xlink:href="#m1bf760c24f" x="167.076385" y="136.860158" style="fill: #ff8c00; stroke: #ff8c00"/>
     <use xlink:href="#m1bf760c24f" x="141.40989" y="167.685474" style="fill: #ff8c00; stroke: #ff8c00"/>
    </g>
   </g>
   <g id="matplotlib.axis_1">
    <g id="xtick_1">
     <g id="line2d_1">
      <defs>
       <path id="mc6b0ef3114" d="M 0 0 
L 0 3.5 
" style="stroke: #000000; stroke-width: 0.8"/>
      </defs>
      <g>
       <use xlink:href="#mc6b0ef3114" x="100.797145" y="275.455644" style="stroke: #000000; stroke-width: 0.8"/>
      </g>
     </g>
     <g id="text_1">
      <!-- −10 -->
      <g transform="translate(90.244801 290.054081) scale(0.1 -0.1)">
       <defs>
        <path id="DejaVuSans-2212" d="M 678 2272 
L 4684 2272 
L 4684 1741 
L 678 1741 
L 678 2272 
z
" transform="scale(0.015625)"/>
        <path id="DejaVuSans-31" d="M 794 531 
L 1825 531 
L 1825 4091 
L 703 3866 
L 703 4441 
L 1819 4666 
L 2450 4666 
L 2450 531 
L 3481 531 
L 3481 0 
L 794 0 
L 794 531 
z
" transform="scale(0.015625)"/>
        <path id="DejaVuSans-30" d="M 2034 4250 
Q 1547 4250 1301 3770 
Q 1056 3291 1056 2328 
Q 1056 1369 1301 889 
Q 1547 409 2034 409 
Q 2525 409 2770 889 
Q 3016 1369 3016 2328 
Q 3016 3291 2770 3770 
Q 2525 4250 2034 4250 
z
M 2034 4750 
Q 2819 4750 3233 4129 
Q 3647 3509 3647 2328 
Q 3647 1150 3233 529 
Q 2819 -91 2034 -91 
Q 1250 -91 836 529 
Q 422 1150 422 2328 
Q 422 3509 836 4129 
Q 1250 4750 2034 4750 
z
" transform="scale(0.015625)"/>
       </defs>
       <use xlink:href="#DejaVuSans-2212"/>
       <use xlink:href="#DejaVuSans-31" x="83.789062"/>
       <use xlink:href="#DejaVuSans-30" x="147.412109"/>
      </g>
     </g>
    </g>
    <g id="xtick_2">
     <g id="line2d_2">
      <g>
       <use xlink:href="#mc6b0ef3114" x="173.63428" y="275.455644" style="stroke: #000000; stroke-width: 0.8"/>
      </g>
     </g>
     <g id="text_2">
      <!-- 0 -->
      <g transform="translate(170.45303 290.054081) scale(0.1 -0.1)">
       <use xlink:href="#DejaVuSans-30"/>
      </g>
     </g>
    </g>
    <g id="xtick_3">
     <g id="line2d_3">
      <g>
       <use xlink:href="#mc6b0ef3114" x="246.471416" y="275.455644" style="stroke: #000000; stroke-width: 0.8"/>
      </g>
     </g>
     <g id="text_3">
      <!-- 10 -->
      <g transform="translate(240.108916 290.054081) scale(0.1 -0.1)">
       <use xlink:href="#DejaVuSans-31"/>
       <use xlink:href="#DejaVuSans-30" x="63.623047"/>
      </g>
     </g>
    </g>
    <g id="xtick_4">
     <g id="line2d_4">
      <g>
       <use xlink:href="#mc6b0ef3114" x="319.308551" y="275.455644" style="stroke: #000000; stroke-width: 0.8"/>
      </g>
     </g>
     <g id="text_4">
      <!-- 20 -->
      <g transform="translate(312.946051 290.054081) scale(0.1 -0.1)">
       <defs>
        <path id="DejaVuSans-32" d="M 1228 531 
L 3431 531 
L 3431 0 
L 469 0 
L 469 531 
Q 828 903 1448 1529 
Q 2069 2156 2228 2338 
Q 2531 2678 2651 2914 
Q 2772 3150 2772 3378 
Q 2772 3750 2511 3984 
Q 2250 4219 1831 4219 
Q 1534 4219 1204 4116 
Q 875 4013 500 3803 
L 500 4441 
Q 881 4594 1212 4672 
Q 1544 4750 1819 4750 
Q 2544 4750 2975 4387 
Q 3406 4025 3406 3419 
Q 3406 3131 3298 2873 
Q 3191 2616 2906 2266 
Q 2828 2175 2409 1742 
Q 1991 1309 1228 531 
z
" transform="scale(0.015625)"/>
       </defs>
       <use xlink:href="#DejaVuSans-32"/>
       <use xlink:href="#DejaVuSans-30" x="63.623047"/>
      </g>
     </g>
    </g>
    <g id="xtick_5">
     <g id="line2d_5">
      <g>
       <use xlink:href="#mc6b0ef3114" x="392.145686" y="275.455644" style="stroke: #000000; stroke-width: 0.8"/>
      </g>
     </g>
     <g id="text_5">
      <!-- 30 -->
      <g transform="translate(385.783186 290.054081) scale(0.1 -0.1)">
       <defs>
        <path id="DejaVuSans-33" d="M 2597 2516 
Q 3050 2419 3304 2112 
Q 3559 1806 3559 1356 
Q 3559 666 3084 287 
Q 2609 -91 1734 -91 
Q 1441 -91 1130 -33 
Q 819 25 488 141 
L 488 750 
Q 750 597 1062 519 
Q 1375 441 1716 441 
Q 2309 441 2620 675 
Q 2931 909 2931 1356 
Q 2931 1769 2642 2001 
Q 2353 2234 1838 2234 
L 1294 2234 
L 1294 2753 
L 1863 2753 
Q 2328 2753 2575 2939 
Q 2822 3125 2822 3475 
Q 2822 3834 2567 4026 
Q 2313 4219 1838 4219 
Q 1578 4219 1281 4162 
Q 984 4106 628 3988 
L 628 4550 
Q 988 4650 1302 4700 
Q 1616 4750 1894 4750 
Q 2613 4750 3031 4423 
Q 3450 4097 3450 3541 
Q 3450 3153 3228 2886 
Q 3006 2619 2597 2516 
z
" transform="scale(0.015625)"/>
       </defs>
       <use xlink:href="#DejaVuSans-33"/>
       <use xlink:href="#DejaVuSans-30" x="63.623047"/>
      </g>
     </g>
    </g>
   </g>
   <g id="matplotlib.axis_2">
    <g id="ytick_1">
     <g id="line2d_6">
      <defs>
       <path id="m35a7301293" d="M 0 0 
L -3.5 0 
" style="stroke: #000000; stroke-width: 0.8"/>
      </defs>
      <g>
       <use xlink:href="#m35a7301293" x="35.304688" y="248.559776" style="stroke: #000000; stroke-width: 0.8"/>
      </g>
     </g>
     <g id="text_6">
      <!-- −20 -->
      <g transform="translate(7.2 252.358995) scale(0.1 -0.1)">
       <use xlink:href="#DejaVuSans-2212"/>
       <use xlink:href="#DejaVuSans-32" x="83.789062"/>
       <use xlink:href="#DejaVuSans-30" x="147.412109"/>
      </g>
     </g>
    </g>
    <g id="ytick_2">
     <g id="line2d_7">
      <g>
       <use xlink:href="#m35a7301293" x="35.304688" y="201.047665" style="stroke: #000000; stroke-width: 0.8"/>
      </g>
     </g>
     <g id="text_7">
      <!-- −10 -->
      <g transform="translate(7.2 204.846884) scale(0.1 -0.1)">
       <use xlink:href="#DejaVuSans-2212"/>
       <use xlink:href="#DejaVuSans-31" x="83.789062"/>
       <use xlink:href="#DejaVuSans-30" x="147.412109"/>
      </g>
     </g>
    </g>
    <g id="ytick_3">
     <g id="line2d_8">
      <g>
       <use xlink:href="#m35a7301293" x="35.304688" y="153.535553" style="stroke: #000000; stroke-width: 0.8"/>
      </g>
     </g>
     <g id="text_8">
      <!-- 0 -->
      <g transform="translate(21.942187 157.334772) scale(0.1 -0.1)">
       <use xlink:href="#DejaVuSans-30"/>
      </g>
     </g>
    </g>
    <g id="ytick_4">
     <g id="line2d_9">
      <g>
       <use xlink:href="#m35a7301293" x="35.304688" y="106.023442" style="stroke: #000000; stroke-width: 0.8"/>
      </g>
     </g>
     <g id="text_9">
      <!-- 10 -->
      <g transform="translate(15.579687 109.822661) scale(0.1 -0.1)">
       <use xlink:href="#DejaVuSans-31"/>
       <use xlink:href="#DejaVuSans-30" x="63.623047"/>
      </g>
     </g>
    </g>
    <g id="ytick_5">
     <g id="line2d_10">
      <g>
       <use xlink:href="#m35a7301293" x="35.304688" y="58.51133" style="stroke: #000000; stroke-width: 0.8"/>
      </g>
     </g>
     <g id="text_10">
      <!-- 20 -->
      <g transform="translate(15.579687 62.310549) scale(0.1 -0.1)">
       <use xlink:href="#DejaVuSans-32"/>
       <use xlink:href="#DejaVuSans-30" x="63.623047"/>
      </g>
     </g>
    </g>
    <g id="ytick_6">
     <g id="line2d_11">
      <g>
       <use xlink:href="#m35a7301293" x="35.304688" y="10.999219" style="stroke: #000000; stroke-width: 0.8"/>
      </g>
     </g>
     <g id="text_11">
      <!-- 30 -->
      <g transform="translate(15.579687 14.798437) scale(0.1 -0.1)">
       <use xlink:href="#DejaVuSans-33"/>
       <use xlink:href="#DejaVuSans-30" x="63.623047"/>
      </g>
     </g>
    </g>
   </g>
   <g id="patch_3">
    <path d="M 35.304688 275.455644 
L 35.304688 9.343644 
" style="fill: none; stroke: #000000; stroke-width: 0.8; stroke-linejoin: miter; stroke-linecap: square"/>
   </g>
   <g id="patch_4">
    <path d="M 392.424688 275.455644 
L 392.424688 9.343644 
" style="fill: none; stroke: #000000; stroke-width: 0.8; stroke-linejoin: miter; stroke-linecap: square"/>
   </g>
   <g id="patch_5">
    <path d="M 35.304688 275.455644 
L 392.424688 275.455644 
" style="fill: none; stroke: #000000; stroke-width: 0.8; stroke-linejoin: miter; stroke-linecap: square"/>
   </g>
   <g id="patch_6">
    <path d="M 35.304688 9.343644 
L 392.424688 9.343644 
" style="fill: none; stroke: #000000; stroke-width: 0.8; stroke-linejoin: miter; stroke-linecap: square"/>
   </g>
  </g>
 </g>
 <defs>
  <clipPath id="p35d78f1a78">
   <rect x="35.304688" y="9.343644" width="357.12" height="266.112"/>
  </clipPath>
 </defs>
</svg>
