<?xml version="1.0" encoding="utf-8" standalone="no"?>
<!DOCTYPE svg PUBLIC "-//W3C//DTD SVG 1.1//EN"
  "http://www.w3.org/Graphics/SVG/1.1/DTD/svg11.dtd">
<svg xmlns:xlink="http://www.w3.org/1999/xlink" width="400.524805pt" height="297.190125pt" viewBox="0 0 400.524805 297.190125" xmlns="http://www.w3.org/2000/svg" version="1.1">
 <metadata>
  <rdf:RDF xmlns:dc="http://purl.org/dc/elements/1.1/" xmlns:cc="http://creativecommons.org/ns#" xmlns:rdf="http://www.w3.org/1999/02/22-rdf-syntax-ns#">
   <cc:Work>
    <dc:type rdf:resource="http://purl.org/dc/dcmitype/StillImage"/>
    <dc:date>2023-11-13T08:16:52.918288</dc:date>
    <dc:format>image/svg+xml</dc:format>
    <dc:creator>
     <cc:Agent>
      <dc:title>Matplotlib v3.8.0, https://matplotlib.org/</dc:title>
     </cc:Agent>
    </dc:creator>
   </cc:Work>
  </rdf:RDF>
 </metadata>
 <defs>
  <style type="text/css">*{stroke-linejoin: round; stroke-linecap: butt}</style>
 </defs>
 <g id="figure_1">
  <g id="patch_1">
   <path d="M 0 297.190125 
L 400.524805 297.190125 
L 400.524805 0 
L 0 0 
z
" style="fill: #ffffff"/>
  </g>
  <g id="axes_1">
   <g id="patch_2">
    <path d="M 35.304688 273.312 
L 392.424688 273.312 
L 392.424688 7.2 
L 35.304688 7.2 
z
" style="fill: #ffffff"/>
   </g>
   <g id="PathCollection_1">
    <defs>
     <path id="ma97a003a81" d="M 0 1.5 
C 0.397805 1.5 0.77937 1.341951 1.06066 1.06066 
C 1.341951 0.77937 1.5 0.397805 1.5 0 
C 1.5 -0.397805 1.341951 -0.77937 1.06066 -1.06066 
C 0.77937 -1.341951 0.397805 -1.5 0 -1.5 
C -0.397805 -1.5 -0.77937 -1.341951 -1.06066 -1.06066 
C -1.341951 -0.77937 -1.5 -0.397805 -1.5 0 
C -1.5 0.397805 -1.341951 0.77937 -1.06066 1.06066 
C -0.77937 1.341951 -0.397805 1.5 0 1.5 
z
" style="stroke: #ff8c00"/>
    </defs>
    <g clip-path="url(#p31252c71b5)">
     <use xlink:href="#ma97a003a81" x="182.885198" y="201.206107" style="fill: #ff8c00; stroke: #ff8c00"/>
     <use xlink:href="#ma97a003a81" x="97.379508" y="202.493127" style="fill: #ff8c00; stroke: #ff8c00"/>
     <use xlink:href="#ma97a003a81" x="187.831503" y="223.082765" style="fill: #ff8c00; stroke: #ff8c00"/>
     <use xlink:href="#ma97a003a81" x="159.152939" y="240.697293" style="fill: #ff8c00; stroke: #ff8c00"/>
     <use xlink:href="#ma97a003a81" x="143.456913" y="252.724559" style="fill: #ff8c00; stroke: #ff8c00"/>
     <use xlink:href="#ma97a003a81" x="165.732856" y="198.20033" style="fill: #ff8c00; stroke: #ff8c00"/>
     <use xlink:href="#ma97a003a81" x="120.865898" y="235.625723" style="fill: #ff8c00; stroke: #ff8c00"/>
     <use xlink:href="#ma97a003a81" x="153.932863" y="224.33435" style="fill: #ff8c00; stroke: #ff8c00"/>
     <use xlink:href="#ma97a003a81" x="140.254151" y="209.615091" style="fill: #ff8c00; stroke: #ff8c00"/>
     <use xlink:href="#ma97a003a81" x="111.889152" y="213.844275" style="fill: #ff8c00; stroke: #ff8c00"/>
    </g>
   </g>
   <g id="PathCollection_2">
    <defs>
     <path id="md98a55599c" d="M 0 1.5 
C 0.397805 1.5 0.77937 1.341951 1.06066 1.06066 
C 1.341951 0.77937 1.5 0.397805 1.5 0 
C 1.5 -0.397805 1.341951 -0.77937 1.06066 -1.06066 
C 0.77937 -1.341951 0.397805 -1.5 0 -1.5 
C -0.397805 -1.5 -0.77937 -1.341951 -1.06066 -1.06066 
C -1.341951 -0.77937 -1.5 -0.397805 -1.5 0 
C -1.5 0.397805 -1.341951 0.77937 -1.06066 1.06066 
C -0.77937 1.341951 -0.397805 1.5 0 1.5 
z
" style="stroke: #006400"/>
    </defs>
    <g clip-path="url(#p31252c71b5)">
     <use xlink:href="#md98a55599c" x="220.721647" y="66.267799" style="fill: #006400; stroke: #006400"/>
     <use xlink:href="#md98a55599c" x="226.980116" y="77.125493" style="fill: #006400; stroke: #006400"/>
     <use xlink:href="#md98a55599c" x="216.771752" y="120.251555" style="fill: #006400; stroke: #006400"/>
     <use xlink:href="#md98a55599c" x="217.795565" y="224.331192" style="fill: #006400; stroke: #006400"/>
     <use xlink:href="#md98a55599c" x="376.19196" y="90.091017" style="fill: #006400; stroke: #006400"/>
     <use xlink:href="#md98a55599c" x="330.996829" y="52.368967" style="fill: #006400; stroke: #006400"/>
     <use xlink:href="#md98a55599c" x="258.223157" y="37.490229" style="fill: #006400; stroke: #006400"/>
     <use xlink:href="#md98a55599c" x="186.799957" y="116.526932" style="fill: #006400; stroke: #006400"/>
     <use xlink:href="#md98a55599c" x="238.907443" y="87.171305" style="fill: #006400; stroke: #006400"/>
     <use xlink:href="#md98a55599c" x="134.944992" y="152.860816" style="fill: #006400; stroke: #006400"/>
     <use xlink:href="#md98a55599c" x="225.865437" y="114.8349" style="fill: #006400; stroke: #006400"/>
     <use xlink:href="#md98a55599c" x="275.667966" y="148.77734" style="fill: #006400; stroke: #006400"/>
     <use xlink:href="#md98a55599c" x="312.842492" y="141.61523" style="fill: #006400; stroke: #006400"/>
     <use xlink:href="#md98a55599c" x="190.968304" y="251.501407" style="fill: #006400; stroke: #006400"/>
     <use xlink:href="#md98a55599c" x="179.489775" y="107.628284" style="fill: #006400; stroke: #006400"/>
     <use xlink:href="#md98a55599c" x="191.461083" y="113.736781" style="fill: #006400; stroke: #006400"/>
    </g>
   </g>
   <g id="PathCollection_3">
    <defs>
     <path id="mdefecf6690" d="M 0 1.5 
C 0.397805 1.5 0.77937 1.341951 1.06066 1.06066 
C 1.341951 0.77937 1.5 0.397805 1.5 0 
C 1.5 -0.397805 1.341951 -0.77937 1.06066 -1.06066 
C 0.77937 -1.341951 0.397805 -1.5 0 -1.5 
C -0.397805 -1.5 -0.77937 -1.341951 -1.06066 -1.06066 
C -1.341951 -0.77937 -1.5 -0.397805 -1.5 0 
C -1.5 0.397805 -1.341951 0.77937 -1.06066 1.06066 
C -0.77937 1.341951 -0.397805 1.5 0 1.5 
z
" style="stroke: #2f4f4f"/>
    </defs>
    <g clip-path="url(#p31252c71b5)">
     <use xlink:href="#mdefecf6690" x="100.085905" y="107.373863" style="fill: #2f4f4f; stroke: #2f4f4f"/>
     <use xlink:href="#mdefecf6690" x="114.613214" y="204.433942" style="fill: #2f4f4f; stroke: #2f4f4f"/>
     <use xlink:href="#mdefecf6690" x="126.97499" y="76.112327" style="fill: #2f4f4f; stroke: #2f4f4f"/>
     <use xlink:href="#mdefecf6690" x="89.41004" y="197.399749" style="fill: #2f4f4f; stroke: #2f4f4f"/>
     <use xlink:href="#mdefecf6690" x="97.450906" y="106.081258" style="fill: #2f4f4f; stroke: #2f4f4f"/>
     <use xlink:href="#mdefecf6690" x="69.537134" y="175.870105" style="fill: #2f4f4f; stroke: #2f4f4f"/>
     <use xlink:href="#mdefecf6690" x="88.213968" y="156.055306" style="fill: #2f4f4f; stroke: #2f4f4f"/>
     <use xlink:href="#mdefecf6690" x="87.934365" y="191.49011" style="fill: #2f4f4f; stroke: #2f4f4f"/>
     <use xlink:href="#mdefecf6690" x="89.823988" y="161.521353" style="fill: #2f4f4f; stroke: #2f4f4f"/>
     <use xlink:href="#mdefecf6690" x="77.389982" y="162.120608" style="fill: #2f4f4f; stroke: #2f4f4f"/>
     <use xlink:href="#mdefecf6690" x="74.14806" y="179.349064" style="fill: #2f4f4f; stroke: #2f4f4f"/>
     <use xlink:href="#mdefecf6690" x="86.869476" y="137.919154" style="fill: #2f4f4f; stroke: #2f4f4f"/>
    </g>
   </g>
   <g id="PathCollection_4">
    <defs>
     <path id="m0051a2322e" d="M 0 1.5 
C 0.397805 1.5 0.77937 1.341951 1.06066 1.06066 
C 1.341951 0.77937 1.5 0.397805 1.5 0 
C 1.5 -0.397805 1.341951 -0.77937 1.06066 -1.06066 
C 0.77937 -1.341951 0.397805 -1.5 0 -1.5 
C -0.397805 -1.5 -0.77937 -1.341951 -1.06066 -1.06066 
C -1.341951 -0.77937 -1.5 -0.397805 -1.5 0 
C -1.5 0.397805 -1.341951 0.77937 -1.06066 1.06066 
C -0.77937 1.341951 -0.397805 1.5 0 1.5 
z
" style="stroke: #00bfff"/>
    </defs>
    <g clip-path="url(#p31252c71b5)">
     <use xlink:href="#m0051a2322e" x="86.425555" y="165.027541" style="fill: #00bfff; stroke: #00bfff"/>
     <use xlink:href="#m0051a2322e" x="99.834686" y="143.790089" style="fill: #00bfff; stroke: #00bfff"/>
     <use xlink:href="#m0051a2322e" x="84.585131" y="186.222953" style="fill: #00bfff; stroke: #00bfff"/>
     <use xlink:href="#m0051a2322e" x="71.293741" y="155.089838" style="fill: #00bfff; stroke: #00bfff"/>
     <use xlink:href="#m0051a2322e" x="70.818339" y="171.934457" style="fill: #00bfff; stroke: #00bfff"/>
     <use xlink:href="#m0051a2322e" x="85.545328" y="216.095381" style="fill: #00bfff; stroke: #00bfff"/>
     <use xlink:href="#m0051a2322e" x="83.432877" y="199.603591" style="fill: #00bfff; stroke: #00bfff"/>
     <use xlink:href="#m0051a2322e" x="75.829525" y="188.6375" style="fill: #00bfff; stroke: #00bfff"/>
     <use xlink:href="#m0051a2322e" x="102.501469" y="261.216" style="fill: #00bfff; stroke: #00bfff"/>
     <use xlink:href="#m0051a2322e" x="51.537415" y="187.829962" style="fill: #00bfff; stroke: #00bfff"/>
     <use xlink:href="#m0051a2322e" x="79.041437" y="173.55592" style="fill: #00bfff; stroke: #00bfff"/>
     <use xlink:href="#m0051a2322e" x="73.74693" y="258.047903" style="fill: #00bfff; stroke: #00bfff"/>
    </g>
   </g>
   <g id="PathCollection_5">
    <defs>
     <path id="m7e3e64b2a8" d="M 0 1.5 
C 0.397805 1.5 0.77937 1.341951 1.06066 1.06066 
C 1.341951 0.77937 1.5 0.397805 1.5 0 
C 1.5 -0.397805 1.341951 -0.77937 1.06066 -1.06066 
C 0.77937 -1.341951 0.397805 -1.5 0 -1.5 
C -0.397805 -1.5 -0.77937 -1.341951 -1.06066 -1.06066 
C -1.341951 -0.77937 -1.5 -0.397805 -1.5 0 
C -1.5 0.397805 -1.341951 0.77937 -1.06066 1.06066 
C -0.77937 1.341951 -0.397805 1.5 0 1.5 
z
" style="stroke: #ffff00"/>
    </defs>
    <g clip-path="url(#p31252c71b5)">
     <use xlink:href="#m7e3e64b2a8" x="83.905952" y="182.241786" style="fill: #ffff00; stroke: #ffff00"/>
     <use xlink:href="#m7e3e64b2a8" x="92.999943" y="180.756897" style="fill: #ffff00; stroke: #ffff00"/>
     <use xlink:href="#m7e3e64b2a8" x="70.462377" y="142.616042" style="fill: #ffff00; stroke: #ffff00"/>
     <use xlink:href="#m7e3e64b2a8" x="108.981823" y="174.806984" style="fill: #ffff00; stroke: #ffff00"/>
     <use xlink:href="#m7e3e64b2a8" x="76.990854" y="72.502881" style="fill: #ffff00; stroke: #ffff00"/>
     <use xlink:href="#m7e3e64b2a8" x="97.937735" y="118.511171" style="fill: #ffff00; stroke: #ffff00"/>
     <use xlink:href="#m7e3e64b2a8" x="127.137839" y="123.866818" style="fill: #ffff00; stroke: #ffff00"/>
     <use xlink:href="#m7e3e64b2a8" x="85.00187" y="127.193279" style="fill: #ffff00; stroke: #ffff00"/>
     <use xlink:href="#m7e3e64b2a8" x="112.883751" y="148.153382" style="fill: #ffff00; stroke: #ffff00"/>
     <use xlink:href="#m7e3e64b2a8" x="84.898844" y="153.345033" style="fill: #ffff00; stroke: #ffff00"/>
     <use xlink:href="#m7e3e64b2a8" x="75.678027" y="153.251308" style="fill: #ffff00; stroke: #ffff00"/>
     <use xlink:href="#m7e3e64b2a8" x="65.519896" y="71.789099" style="fill: #ffff00; stroke: #ffff00"/>
     <use xlink:href="#m7e3e64b2a8" x="116.230872" y="152.882051" style="fill: #ffff00; stroke: #ffff00"/>
     <use xlink:href="#m7e3e64b2a8" x="82.70298" y="115.495967" style="fill: #ffff00; stroke: #ffff00"/>
     <use xlink:href="#m7e3e64b2a8" x="71.702527" y="177.118159" style="fill: #ffff00; stroke: #ffff00"/>
    </g>
   </g>
   <g id="PathCollection_6">
    <defs>
     <path id="m18dffae432" d="M 0 1.5 
C 0.397805 1.5 0.77937 1.341951 1.06066 1.06066 
C 1.341951 0.77937 1.5 0.397805 1.5 0 
C 1.5 -0.397805 1.341951 -0.77937 1.06066 -1.06066 
C 0.77937 -1.341951 0.397805 -1.5 0 -1.5 
C -0.397805 -1.5 -0.77937 -1.341951 -1.06066 -1.06066 
C -1.341951 -0.77937 -1.5 -0.397805 -1.5 0 
C -1.5 0.397805 -1.341951 0.77937 -1.06066 1.06066 
C -0.77937 1.341951 -0.397805 1.5 0 1.5 
z
" style="stroke: #00ffff"/>
    </defs>
    <g clip-path="url(#p31252c71b5)">
     <use xlink:href="#m18dffae432" x="72.090302" y="133.451682" style="fill: #00ffff; stroke: #00ffff"/>
     <use xlink:href="#m18dffae432" x="81.44322" y="74.953674" style="fill: #00ffff; stroke: #00ffff"/>
     <use xlink:href="#m18dffae432" x="111.908563" y="78.161827" style="fill: #00ffff; stroke: #00ffff"/>
     <use xlink:href="#m18dffae432" x="71.922101" y="162.533191" style="fill: #00ffff; stroke: #00ffff"/>
     <use xlink:href="#m18dffae432" x="103.786601" y="82.194112" style="fill: #00ffff; stroke: #00ffff"/>
     <use xlink:href="#m18dffae432" x="65.634741" y="115.377753" style="fill: #00ffff; stroke: #00ffff"/>
     <use xlink:href="#m18dffae432" x="70.202394" y="114.090702" style="fill: #00ffff; stroke: #00ffff"/>
     <use xlink:href="#m18dffae432" x="115.693722" y="93.533755" style="fill: #00ffff; stroke: #00ffff"/>
     <use xlink:href="#m18dffae432" x="105.084136" y="108.543878" style="fill: #00ffff; stroke: #00ffff"/>
     <use xlink:href="#m18dffae432" x="116.882378" y="86.182527" style="fill: #00ffff; stroke: #00ffff"/>
     <use xlink:href="#m18dffae432" x="68.976207" y="121.92438" style="fill: #00ffff; stroke: #00ffff"/>
     <use xlink:href="#m18dffae432" x="82.272379" y="139.952542" style="fill: #00ffff; stroke: #00ffff"/>
    </g>
   </g>
   <g id="PathCollection_7">
    <defs>
     <path id="m1d87f7e8d0" d="M 0 1.5 
C 0.397805 1.5 0.77937 1.341951 1.06066 1.06066 
C 1.341951 0.77937 1.5 0.397805 1.5 0 
C 1.5 -0.397805 1.341951 -0.77937 1.06066 -1.06066 
C 0.77937 -1.341951 0.397805 -1.5 0 -1.5 
C -0.397805 -1.5 -0.77937 -1.341951 -1.06066 -1.06066 
C -1.341951 -0.77937 -1.5 -0.397805 -1.5 0 
C -1.5 0.397805 -1.341951 0.77937 -1.06066 1.06066 
C -0.77937 1.341951 -0.397805 1.5 0 1.5 
z
" style="stroke: #0000ff"/>
    </defs>
    <g clip-path="url(#p31252c71b5)">
     <use xlink:href="#m1d87f7e8d0" x="81.071526" y="118.90241" style="fill: #0000ff; stroke: #0000ff"/>
     <use xlink:href="#m1d87f7e8d0" x="64.681692" y="210.297069" style="fill: #0000ff; stroke: #0000ff"/>
     <use xlink:href="#m1d87f7e8d0" x="76.358574" y="168.91348" style="fill: #0000ff; stroke: #0000ff"/>
     <use xlink:href="#m1d87f7e8d0" x="59.255177" y="220.112344" style="fill: #0000ff; stroke: #0000ff"/>
     <use xlink:href="#m1d87f7e8d0" x="138.393181" y="186.484667" style="fill: #0000ff; stroke: #0000ff"/>
     <use xlink:href="#m1d87f7e8d0" x="91.318168" y="127.05434" style="fill: #0000ff; stroke: #0000ff"/>
     <use xlink:href="#m1d87f7e8d0" x="68.082511" y="182.211895" style="fill: #0000ff; stroke: #0000ff"/>
     <use xlink:href="#m1d87f7e8d0" x="68.259565" y="195.8305" style="fill: #0000ff; stroke: #0000ff"/>
     <use xlink:href="#m1d87f7e8d0" x="120.44856" y="154.836362" style="fill: #0000ff; stroke: #0000ff"/>
     <use xlink:href="#m1d87f7e8d0" x="106.76627" y="189.299052" style="fill: #0000ff; stroke: #0000ff"/>
     <use xlink:href="#m1d87f7e8d0" x="91.276307" y="225.45342" style="fill: #0000ff; stroke: #0000ff"/>
     <use xlink:href="#m1d87f7e8d0" x="81.990007" y="99.047421" style="fill: #0000ff; stroke: #0000ff"/>
     <use xlink:href="#m1d87f7e8d0" x="109.356315" y="219.688807" style="fill: #0000ff; stroke: #0000ff"/>
     <use xlink:href="#m1d87f7e8d0" x="97.947114" y="209.641259" style="fill: #0000ff; stroke: #0000ff"/>
    </g>
   </g>
   <g id="PathCollection_8">
    <defs>
     <path id="me024065e39" d="M 0 1.5 
C 0.397805 1.5 0.77937 1.341951 1.06066 1.06066 
C 1.341951 0.77937 1.5 0.397805 1.5 0 
C 1.5 -0.397805 1.341951 -0.77937 1.06066 -1.06066 
C 0.77937 -1.341951 0.397805 -1.5 0 -1.5 
C -0.397805 -1.5 -0.77937 -1.341951 -1.06066 -1.06066 
C -1.341951 -0.77937 -1.5 -0.397805 -1.5 0 
C -1.5 0.397805 -1.341951 0.77937 -1.06066 1.06066 
C -0.77937 1.341951 -0.397805 1.5 0 1.5 
z
" style="stroke: #dc143c"/>
    </defs>
    <g clip-path="url(#p31252c71b5)">
     <use xlink:href="#me024065e39" x="155.924256" y="202.898816" style="fill: #dc143c; stroke: #dc143c"/>
     <use xlink:href="#me024065e39" x="162.812474" y="180.061355" style="fill: #dc143c; stroke: #dc143c"/>
     <use xlink:href="#me024065e39" x="132.223886" y="215.20873" style="fill: #dc143c; stroke: #dc143c"/>
     <use xlink:href="#me024065e39" x="179.413799" y="188.065682" style="fill: #dc143c; stroke: #dc143c"/>
     <use xlink:href="#me024065e39" x="163.471303" y="190.09138" style="fill: #dc143c; stroke: #dc143c"/>
     <use xlink:href="#me024065e39" x="159.995998" y="120.636886" style="fill: #dc143c; stroke: #dc143c"/>
     <use xlink:href="#me024065e39" x="177.277672" y="191.524346" style="fill: #dc143c; stroke: #dc143c"/>
     <use xlink:href="#me024065e39" x="137.256881" y="187.672209" style="fill: #dc143c; stroke: #dc143c"/>
     <use xlink:href="#me024065e39" x="143.084967" y="236.103412" style="fill: #dc143c; stroke: #dc143c"/>
     <use xlink:href="#me024065e39" x="137.51184" y="188.15856" style="fill: #dc143c; stroke: #dc143c"/>
     <use xlink:href="#me024065e39" x="168.188355" y="222.713937" style="fill: #dc143c; stroke: #dc143c"/>
     <use xlink:href="#me024065e39" x="163.618122" y="190.287329" style="fill: #dc143c; stroke: #dc143c"/>
     <use xlink:href="#me024065e39" x="114.909738" y="185.269479" style="fill: #dc143c; stroke: #dc143c"/>
     <use xlink:href="#me024065e39" x="133.73515" y="201.854223" style="fill: #dc143c; stroke: #dc143c"/>
     <use xlink:href="#me024065e39" x="133.214561" y="224.581381" style="fill: #dc143c; stroke: #dc143c"/>
     <use xlink:href="#me024065e39" x="165.921259" y="210.186556" style="fill: #dc143c; stroke: #dc143c"/>
    </g>
   </g>
   <g id="PathCollection_9">
    <defs>
     <path id="ma47b98f8de" d="M 0 1.5 
C 0.397805 1.5 0.77937 1.341951 1.06066 1.06066 
C 1.341951 0.77937 1.5 0.397805 1.5 0 
C 1.5 -0.397805 1.341951 -0.77937 1.06066 -1.06066 
C 0.77937 -1.341951 0.397805 -1.5 0 -1.5 
C -0.397805 -1.5 -0.77937 -1.341951 -1.06066 -1.06066 
C -1.341951 -0.77937 -1.5 -0.397805 -1.5 0 
C -1.5 0.397805 -1.341951 0.77937 -1.06066 1.06066 
C -0.77937 1.341951 -0.397805 1.5 0 1.5 
z
" style="stroke: #ffe4c4"/>
    </defs>
    <g clip-path="url(#p31252c71b5)">
     <use xlink:href="#ma47b98f8de" x="219.751977" y="134.212632" style="fill: #ffe4c4; stroke: #ffe4c4"/>
     <use xlink:href="#ma47b98f8de" x="131.403276" y="121.860357" style="fill: #ffe4c4; stroke: #ffe4c4"/>
     <use xlink:href="#ma47b98f8de" x="145.038443" y="118.743522" style="fill: #ffe4c4; stroke: #ffe4c4"/>
     <use xlink:href="#ma47b98f8de" x="261.555062" y="142.946336" style="fill: #ffe4c4; stroke: #ffe4c4"/>
     <use xlink:href="#ma47b98f8de" x="225.243368" y="124.884894" style="fill: #ffe4c4; stroke: #ffe4c4"/>
     <use xlink:href="#ma47b98f8de" x="227.888859" y="73.712564" style="fill: #ffe4c4; stroke: #ffe4c4"/>
     <use xlink:href="#ma47b98f8de" x="148.683197" y="136.354248" style="fill: #ffe4c4; stroke: #ffe4c4"/>
     <use xlink:href="#ma47b98f8de" x="285.876719" y="114.950101" style="fill: #ffe4c4; stroke: #ffe4c4"/>
     <use xlink:href="#ma47b98f8de" x="175.89876" y="154.926677" style="fill: #ffe4c4; stroke: #ffe4c4"/>
     <use xlink:href="#ma47b98f8de" x="149.108754" y="218.754405" style="fill: #ffe4c4; stroke: #ffe4c4"/>
     <use xlink:href="#ma47b98f8de" x="149.835458" y="155.918737" style="fill: #ffe4c4; stroke: #ffe4c4"/>
     <use xlink:href="#ma47b98f8de" x="154.142589" y="167.150089" style="fill: #ffe4c4; stroke: #ffe4c4"/>
     <use xlink:href="#ma47b98f8de" x="207.810755" y="194.344807" style="fill: #ffe4c4; stroke: #ffe4c4"/>
     <use xlink:href="#ma47b98f8de" x="118.609486" y="103.037041" style="fill: #ffe4c4; stroke: #ffe4c4"/>
     <use xlink:href="#ma47b98f8de" x="160.272369" y="146.554175" style="fill: #ffe4c4; stroke: #ffe4c4"/>
     <use xlink:href="#ma47b98f8de" x="282.290344" y="56.383713" style="fill: #ffe4c4; stroke: #ffe4c4"/>
     <use xlink:href="#ma47b98f8de" x="227.616269" y="156.482796" style="fill: #ffe4c4; stroke: #ffe4c4"/>
     <use xlink:href="#ma47b98f8de" x="151.470698" y="68.012565" style="fill: #ffe4c4; stroke: #ffe4c4"/>
     <use xlink:href="#ma47b98f8de" x="177.538213" y="146.035064" style="fill: #ffe4c4; stroke: #ffe4c4"/>
     <use xlink:href="#ma47b98f8de" x="176.90991" y="75.780951" style="fill: #ffe4c4; stroke: #ffe4c4"/>
     <use xlink:href="#ma47b98f8de" x="139.06967" y="155.356433" style="fill: #ffe4c4; stroke: #ffe4c4"/>
    </g>
   </g>
   <g id="PathCollection_10">
    <defs>
     <path id="ma532dab860" d="M -2.99994 2.99994 
L 3.00006 2.99994 
L 3.00006 -3.00006 
L -2.99994 -3.00006 
z
" style="stroke: #000000"/>
    </defs>
    <g clip-path="url(#p31252c71b5)">
     <use xlink:href="#ma532dab860" x="77.646307" y="112.012571" style="stroke: #000000"/>
     <use xlink:href="#ma532dab860" x="79.467381" y="111.145286" style="stroke: #000000"/>
     <use xlink:href="#ma532dab860" x="90.853658" y="143.500389" style="stroke: #000000"/>
     <use xlink:href="#ma532dab860" x="87.039753" y="128.925193" style="stroke: #000000"/>
     <use xlink:href="#ma532dab860" x="73.857441" y="107.125821" style="stroke: #000000"/>
     <use xlink:href="#ma532dab860" x="92.100105" y="137.823877" style="stroke: #000000"/>
     <use xlink:href="#ma532dab860" x="99.867443" y="90.720681" style="stroke: #000000"/>
     <use xlink:href="#ma532dab860" x="81.009057" y="111.817105" style="stroke: #000000"/>
     <use xlink:href="#ma532dab860" x="88.638641" y="137.3943" style="stroke: #000000"/>
     <use xlink:href="#ma532dab860" x="106.431502" y="166.78298" style="stroke: #000000"/>
     <use xlink:href="#ma532dab860" x="91.584715" y="125.581963" style="stroke: #000000"/>
     <use xlink:href="#ma532dab860" x="65.873391" y="87.294625" style="stroke: #000000"/>
     <use xlink:href="#ma532dab860" x="74.536829" y="117.109994" style="stroke: #000000"/>
     <use xlink:href="#ma532dab860" x="97.911493" y="107.179654" style="stroke: #000000"/>
     <use xlink:href="#ma532dab860" x="87.669231" y="19.296" style="stroke: #000000"/>
     <use xlink:href="#ma532dab860" x="111.685841" y="71.532133" style="stroke: #000000"/>
     <use xlink:href="#ma532dab860" x="83.377899" y="48.953286" style="stroke: #000000"/>
     <use xlink:href="#ma532dab860" x="115.901598" y="161.204658" style="stroke: #000000"/>
     <use xlink:href="#ma532dab860" x="101.08421" y="128.421343" style="stroke: #000000"/>
     <use xlink:href="#ma532dab860" x="81.867033" y="133.140072" style="stroke: #000000"/>
     <use xlink:href="#ma532dab860" x="75.907113" y="161.374872" style="stroke: #000000"/>
     <use xlink:href="#ma532dab860" x="99.097854" y="108.558128" style="stroke: #000000"/>
     <use xlink:href="#ma532dab860" x="87.693043" y="150.584261" style="stroke: #000000"/>
     <use xlink:href="#ma532dab860" x="62.82472" y="136.032636" style="stroke: #000000"/>
     <use xlink:href="#ma532dab860" x="72.206563" y="135.034363" style="stroke: #000000"/>
     <use xlink:href="#ma532dab860" x="96.643137" y="109.300076" style="stroke: #000000"/>
     <use xlink:href="#ma532dab860" x="115.559988" y="170.158118" style="stroke: #000000"/>
     <use xlink:href="#ma532dab860" x="128.823984" y="141.44892" style="stroke: #000000"/>
     <use xlink:href="#ma532dab860" x="83.526893" y="92.22459" style="stroke: #000000"/>
     <use xlink:href="#ma532dab860" x="102.896246" y="160.791471" style="stroke: #000000"/>
     <use xlink:href="#ma532dab860" x="119.879127" y="160.793107" style="stroke: #000000"/>
     <use xlink:href="#ma532dab860" x="64.101576" y="123.284283" style="stroke: #000000"/>
     <use xlink:href="#ma532dab860" x="94.307506" y="107.27647" style="stroke: #000000"/>
     <use xlink:href="#ma532dab860" x="105.049226" y="106.451655" style="stroke: #000000"/>
     <use xlink:href="#ma532dab860" x="76.151861" y="117.463391" style="stroke: #000000"/>
     <use xlink:href="#ma532dab860" x="73.020144" y="64.306106" style="stroke: #000000"/>
     <use xlink:href="#ma532dab860" x="128.502458" y="210.004693" style="stroke: #000000"/>
     <use xlink:href="#ma532dab860" x="112.977414" y="120.37146" style="stroke: #000000"/>
     <use xlink:href="#ma532dab860" x="68.958878" y="99.326771" style="stroke: #000000"/>
     <use xlink:href="#ma532dab860" x="87.235196" y="121.534718" style="stroke: #000000"/>
     <use xlink:href="#ma532dab860" x="105.590536" y="186.164407" style="stroke: #000000"/>
     <use xlink:href="#ma532dab860" x="88.917893" y="119.849261" style="stroke: #000000"/>
     <use xlink:href="#ma532dab860" x="105.882703" y="121.44882" style="stroke: #000000"/>
     <use xlink:href="#ma532dab860" x="95.787411" y="154.263923" style="stroke: #000000"/>
     <use xlink:href="#ma532dab860" x="76.168155" y="208.21129" style="stroke: #000000"/>
     <use xlink:href="#ma532dab860" x="86.950779" y="113.729205" style="stroke: #000000"/>
     <use xlink:href="#ma532dab860" x="75.805304" y="188.181813" style="stroke: #000000"/>
     <use xlink:href="#ma532dab860" x="96.935319" y="121.299777" style="stroke: #000000"/>
     <use xlink:href="#ma532dab860" x="71.864815" y="150.172547" style="stroke: #000000"/>
     <use xlink:href="#ma532dab860" x="117.367045" y="147.141011" style="stroke: #000000"/>
     <use xlink:href="#ma532dab860" x="156.817743" y="79.316503" style="stroke: #000000"/>
     <use xlink:href="#ma532dab860" x="112.076942" y="122.379139" style="stroke: #000000"/>
     <use xlink:href="#ma532dab860" x="98.1478" y="171.267421" style="stroke: #000000"/>
     <use xlink:href="#ma532dab860" x="97.746622" y="168.591463" style="stroke: #000000"/>
     <use xlink:href="#ma532dab860" x="90.184999" y="163.210811" style="stroke: #000000"/>
     <use xlink:href="#ma532dab860" x="91.442399" y="123.695714" style="stroke: #000000"/>
     <use xlink:href="#ma532dab860" x="95.693148" y="139.087686" style="stroke: #000000"/>
     <use xlink:href="#ma532dab860" x="76.250842" y="175.240404" style="stroke: #000000"/>
     <use xlink:href="#ma532dab860" x="68.372024" y="119.069841" style="stroke: #000000"/>
     <use xlink:href="#ma532dab860" x="122.449442" y="64.899038" style="stroke: #000000"/>
     <use xlink:href="#ma532dab860" x="79.837136" y="106.843131" style="stroke: #000000"/>
     <use xlink:href="#ma532dab860" x="127.080755" y="152.092947" style="stroke: #000000"/>
     <use xlink:href="#ma532dab860" x="91.76492" y="189.884121" style="stroke: #000000"/>
     <use xlink:href="#ma532dab860" x="83.64819" y="130.599558" style="stroke: #000000"/>
    </g>
   </g>
   <g id="PathCollection_11">
    <defs>
     <path id="mc895504bf4" d="M -3 -0 
L 3 3 
L 3 -3 
z
" style="stroke: #ff8c00"/>
    </defs>
    <g clip-path="url(#p31252c71b5)">
     <use xlink:href="#mc895504bf4" x="83.284449" y="93.668125" style="fill: #ff8c00; stroke: #ff8c00"/>
     <use xlink:href="#mc895504bf4" x="78.615479" y="134.646589" style="fill: #ff8c00; stroke: #ff8c00"/>
     <use xlink:href="#mc895504bf4" x="64.671431" y="119.776402" style="fill: #ff8c00; stroke: #ff8c00"/>
     <use xlink:href="#mc895504bf4" x="78.559826" y="123.260979" style="fill: #ff8c00; stroke: #ff8c00"/>
     <use xlink:href="#mc895504bf4" x="101.821132" y="152.71995" style="fill: #ff8c00; stroke: #ff8c00"/>
     <use xlink:href="#mc895504bf4" x="73.82263" y="106.504577" style="fill: #ff8c00; stroke: #ff8c00"/>
     <use xlink:href="#mc895504bf4" x="94.012578" y="143.699462" style="fill: #ff8c00; stroke: #ff8c00"/>
     <use xlink:href="#mc895504bf4" x="71.30147" y="54.244025" style="fill: #ff8c00; stroke: #ff8c00"/>
     <use xlink:href="#mc895504bf4" x="78.166144" y="114.551806" style="fill: #ff8c00; stroke: #ff8c00"/>
     <use xlink:href="#mc895504bf4" x="94.239123" y="127.623071" style="fill: #ff8c00; stroke: #ff8c00"/>
     <use xlink:href="#mc895504bf4" x="139.71337" y="96.031688" style="fill: #ff8c00; stroke: #ff8c00"/>
     <use xlink:href="#mc895504bf4" x="76.701549" y="145.544043" style="fill: #ff8c00; stroke: #ff8c00"/>
     <use xlink:href="#mc895504bf4" x="83.62434" y="139.972274" style="fill: #ff8c00; stroke: #ff8c00"/>
     <use xlink:href="#mc895504bf4" x="98.601628" y="86.186541" style="fill: #ff8c00; stroke: #ff8c00"/>
     <use xlink:href="#mc895504bf4" x="110.509223" y="160.129868" style="fill: #ff8c00; stroke: #ff8c00"/>
     <use xlink:href="#mc895504bf4" x="78.614121" y="125.672385" style="fill: #ff8c00; stroke: #ff8c00"/>
     <use xlink:href="#mc895504bf4" x="81.766961" y="141.187749" style="fill: #ff8c00; stroke: #ff8c00"/>
     <use xlink:href="#mc895504bf4" x="79.731595" y="122.541204" style="fill: #ff8c00; stroke: #ff8c00"/>
     <use xlink:href="#mc895504bf4" x="90.321577" y="149.470788" style="fill: #ff8c00; stroke: #ff8c00"/>
     <use xlink:href="#mc895504bf4" x="87.900147" y="123.527593" style="fill: #ff8c00; stroke: #ff8c00"/>
     <use xlink:href="#mc895504bf4" x="75.170596" y="118.619799" style="fill: #ff8c00; stroke: #ff8c00"/>
     <use xlink:href="#mc895504bf4" x="95.60828" y="96.392793" style="fill: #ff8c00; stroke: #ff8c00"/>
     <use xlink:href="#mc895504bf4" x="73.937994" y="140.202127" style="fill: #ff8c00; stroke: #ff8c00"/>
     <use xlink:href="#mc895504bf4" x="80.068741" y="133.280511" style="fill: #ff8c00; stroke: #ff8c00"/>
     <use xlink:href="#mc895504bf4" x="71.335331" y="129.161785" style="fill: #ff8c00; stroke: #ff8c00"/>
     <use xlink:href="#mc895504bf4" x="86.957609" y="102.318589" style="fill: #ff8c00; stroke: #ff8c00"/>
     <use xlink:href="#mc895504bf4" x="72.614716" y="131.078421" style="fill: #ff8c00; stroke: #ff8c00"/>
     <use xlink:href="#mc895504bf4" x="84.448526" y="91.368327" style="fill: #ff8c00; stroke: #ff8c00"/>
     <use xlink:href="#mc895504bf4" x="75.908634" y="114.440658" style="fill: #ff8c00; stroke: #ff8c00"/>
     <use xlink:href="#mc895504bf4" x="80.489041" y="124.241208" style="fill: #ff8c00; stroke: #ff8c00"/>
     <use xlink:href="#mc895504bf4" x="83.828484" y="135.736264" style="fill: #ff8c00; stroke: #ff8c00"/>
     <use xlink:href="#mc895504bf4" x="126.014921" y="167.329836" style="fill: #ff8c00; stroke: #ff8c00"/>
     <use xlink:href="#mc895504bf4" x="72.743278" y="133.568249" style="fill: #ff8c00; stroke: #ff8c00"/>
     <use xlink:href="#mc895504bf4" x="70.405649" y="137.403473" style="fill: #ff8c00; stroke: #ff8c00"/>
     <use xlink:href="#mc895504bf4" x="79.131208" y="108.909863" style="fill: #ff8c00; stroke: #ff8c00"/>
     <use xlink:href="#mc895504bf4" x="106.31339" y="164.081563" style="fill: #ff8c00; stroke: #ff8c00"/>
     <use xlink:href="#mc895504bf4" x="102.504968" y="141.75864" style="fill: #ff8c00; stroke: #ff8c00"/>
     <use xlink:href="#mc895504bf4" x="64.830357" y="103.543357" style="fill: #ff8c00; stroke: #ff8c00"/>
     <use xlink:href="#mc895504bf4" x="91.294396" y="98.946545" style="fill: #ff8c00; stroke: #ff8c00"/>
     <use xlink:href="#mc895504bf4" x="106.950171" y="136.268429" style="fill: #ff8c00; stroke: #ff8c00"/>
     <use xlink:href="#mc895504bf4" x="88.668895" y="120.479977" style="fill: #ff8c00; stroke: #ff8c00"/>
     <use xlink:href="#mc895504bf4" x="78.332381" y="98.02622" style="fill: #ff8c00; stroke: #ff8c00"/>
     <use xlink:href="#mc895504bf4" x="79.33861" y="130.804419" style="fill: #ff8c00; stroke: #ff8c00"/>
     <use xlink:href="#mc895504bf4" x="73.155928" y="100.179909" style="fill: #ff8c00; stroke: #ff8c00"/>
     <use xlink:href="#mc895504bf4" x="79.103678" y="119.453004" style="fill: #ff8c00; stroke: #ff8c00"/>
     <use xlink:href="#mc895504bf4" x="75.623174" y="122.333304" style="fill: #ff8c00; stroke: #ff8c00"/>
     <use xlink:href="#mc895504bf4" x="94.126174" y="48.79368" style="fill: #ff8c00; stroke: #ff8c00"/>
     <use xlink:href="#mc895504bf4" x="87.267906" y="135.915811" style="fill: #ff8c00; stroke: #ff8c00"/>
     <use xlink:href="#mc895504bf4" x="79.049276" y="125.788096" style="fill: #ff8c00; stroke: #ff8c00"/>
     <use xlink:href="#mc895504bf4" x="68.980677" y="132.685199" style="fill: #ff8c00; stroke: #ff8c00"/>
     <use xlink:href="#mc895504bf4" x="93.653219" y="126.710914" style="fill: #ff8c00; stroke: #ff8c00"/>
     <use xlink:href="#mc895504bf4" x="55.397397" y="111.603293" style="fill: #ff8c00; stroke: #ff8c00"/>
     <use xlink:href="#mc895504bf4" x="66.358394" y="131.267913" style="fill: #ff8c00; stroke: #ff8c00"/>
     <use xlink:href="#mc895504bf4" x="72.091146" y="109.382196" style="fill: #ff8c00; stroke: #ff8c00"/>
     <use xlink:href="#mc895504bf4" x="69.458665" y="81.47" style="fill: #ff8c00; stroke: #ff8c00"/>
     <use xlink:href="#mc895504bf4" x="87.804834" y="167.377443" style="fill: #ff8c00; stroke: #ff8c00"/>
     <use xlink:href="#mc895504bf4" x="97.809096" y="126.88697" style="fill: #ff8c00; stroke: #ff8c00"/>
     <use xlink:href="#mc895504bf4" x="84.683883" y="92.271809" style="fill: #ff8c00; stroke: #ff8c00"/>
     <use xlink:href="#mc895504bf4" x="81.064397" y="140.534298" style="fill: #ff8c00; stroke: #ff8c00"/>
     <use xlink:href="#mc895504bf4" x="106.379985" y="132.38537" style="fill: #ff8c00; stroke: #ff8c00"/>
     <use xlink:href="#mc895504bf4" x="58.359165" y="110.54878" style="fill: #ff8c00; stroke: #ff8c00"/>
     <use xlink:href="#mc895504bf4" x="76.43211" y="115.789254" style="fill: #ff8c00; stroke: #ff8c00"/>
     <use xlink:href="#mc895504bf4" x="83.85964" y="156.799437" style="fill: #ff8c00; stroke: #ff8c00"/>
     <use xlink:href="#mc895504bf4" x="113.719744" y="129.910446" style="fill: #ff8c00; stroke: #ff8c00"/>
    </g>
   </g>
   <g id="matplotlib.axis_1">
    <g id="xtick_1">
     <g id="line2d_1">
      <defs>
       <path id="ma1c7a7092e" d="M 0 0 
L 0 3.5 
" style="stroke: #000000; stroke-width: 0.8"/>
      </defs>
      <g>
       <use xlink:href="#ma1c7a7092e" x="57.080527" y="273.312" style="stroke: #000000; stroke-width: 0.8"/>
      </g>
     </g>
     <g id="text_1">
      <!-- −10 -->
      <g transform="translate(46.528183 287.910437) scale(0.1 -0.1)">
       <defs>
        <path id="DejaVuSans-2212" d="M 678 2272 
L 4684 2272 
L 4684 1741 
L 678 1741 
L 678 2272 
z
" transform="scale(0.015625)"/>
        <path id="DejaVuSans-31" d="M 794 531 
L 1825 531 
L 1825 4091 
L 703 3866 
L 703 4441 
L 1819 4666 
L 2450 4666 
L 2450 531 
L 3481 531 
L 3481 0 
L 794 0 
L 794 531 
z
" transform="scale(0.015625)"/>
        <path id="DejaVuSans-30" d="M 2034 4250 
Q 1547 4250 1301 3770 
Q 1056 3291 1056 2328 
Q 1056 1369 1301 889 
Q 1547 409 2034 409 
Q 2525 409 2770 889 
Q 3016 1369 3016 2328 
Q 3016 3291 2770 3770 
Q 2525 4250 2034 4250 
z
M 2034 4750 
Q 2819 4750 3233 4129 
Q 3647 3509 3647 2328 
Q 3647 1150 3233 529 
Q 2819 -91 2034 -91 
Q 1250 -91 836 529 
Q 422 1150 422 2328 
Q 422 3509 836 4129 
Q 1250 4750 2034 4750 
z
" transform="scale(0.015625)"/>
       </defs>
       <use xlink:href="#DejaVuSans-2212"/>
       <use xlink:href="#DejaVuSans-31" x="83.789062"/>
       <use xlink:href="#DejaVuSans-30" x="147.412109"/>
      </g>
     </g>
    </g>
    <g id="xtick_2">
     <g id="line2d_2">
      <g>
       <use xlink:href="#ma1c7a7092e" x="112.060823" y="273.312" style="stroke: #000000; stroke-width: 0.8"/>
      </g>
     </g>
     <g id="text_2">
      <!-- 0 -->
      <g transform="translate(108.879573 287.910437) scale(0.1 -0.1)">
       <use xlink:href="#DejaVuSans-30"/>
      </g>
     </g>
    </g>
    <g id="xtick_3">
     <g id="line2d_3">
      <g>
       <use xlink:href="#ma1c7a7092e" x="167.041119" y="273.312" style="stroke: #000000; stroke-width: 0.8"/>
      </g>
     </g>
     <g id="text_3">
      <!-- 10 -->
      <g transform="translate(160.678619 287.910437) scale(0.1 -0.1)">
       <use xlink:href="#DejaVuSans-31"/>
       <use xlink:href="#DejaVuSans-30" x="63.623047"/>
      </g>
     </g>
    </g>
    <g id="xtick_4">
     <g id="line2d_4">
      <g>
       <use xlink:href="#ma1c7a7092e" x="222.021416" y="273.312" style="stroke: #000000; stroke-width: 0.8"/>
      </g>
     </g>
     <g id="text_4">
      <!-- 20 -->
      <g transform="translate(215.658916 287.910437) scale(0.1 -0.1)">
       <defs>
        <path id="DejaVuSans-32" d="M 1228 531 
L 3431 531 
L 3431 0 
L 469 0 
L 469 531 
Q 828 903 1448 1529 
Q 2069 2156 2228 2338 
Q 2531 2678 2651 2914 
Q 2772 3150 2772 3378 
Q 2772 3750 2511 3984 
Q 2250 4219 1831 4219 
Q 1534 4219 1204 4116 
Q 875 4013 500 3803 
L 500 4441 
Q 881 4594 1212 4672 
Q 1544 4750 1819 4750 
Q 2544 4750 2975 4387 
Q 3406 4025 3406 3419 
Q 3406 3131 3298 2873 
Q 3191 2616 2906 2266 
Q 2828 2175 2409 1742 
Q 1991 1309 1228 531 
z
" transform="scale(0.015625)"/>
       </defs>
       <use xlink:href="#DejaVuSans-32"/>
       <use xlink:href="#DejaVuSans-30" x="63.623047"/>
      </g>
     </g>
    </g>
    <g id="xtick_5">
     <g id="line2d_5">
      <g>
       <use xlink:href="#ma1c7a7092e" x="277.001712" y="273.312" style="stroke: #000000; stroke-width: 0.8"/>
      </g>
     </g>
     <g id="text_5">
      <!-- 30 -->
      <g transform="translate(270.639212 287.910437) scale(0.1 -0.1)">
       <defs>
        <path id="DejaVuSans-33" d="M 2597 2516 
Q 3050 2419 3304 2112 
Q 3559 1806 3559 1356 
Q 3559 666 3084 287 
Q 2609 -91 1734 -91 
Q 1441 -91 1130 -33 
Q 819 25 488 141 
L 488 750 
Q 750 597 1062 519 
Q 1375 441 1716 441 
Q 2309 441 2620 675 
Q 2931 909 2931 1356 
Q 2931 1769 2642 2001 
Q 2353 2234 1838 2234 
L 1294 2234 
L 1294 2753 
L 1863 2753 
Q 2328 2753 2575 2939 
Q 2822 3125 2822 3475 
Q 2822 3834 2567 4026 
Q 2313 4219 1838 4219 
Q 1578 4219 1281 4162 
Q 984 4106 628 3988 
L 628 4550 
Q 988 4650 1302 4700 
Q 1616 4750 1894 4750 
Q 2613 4750 3031 4423 
Q 3450 4097 3450 3541 
Q 3450 3153 3228 2886 
Q 3006 2619 2597 2516 
z
" transform="scale(0.015625)"/>
       </defs>
       <use xlink:href="#DejaVuSans-33"/>
       <use xlink:href="#DejaVuSans-30" x="63.623047"/>
      </g>
     </g>
    </g>
    <g id="xtick_6">
     <g id="line2d_6">
      <g>
       <use xlink:href="#ma1c7a7092e" x="331.982008" y="273.312" style="stroke: #000000; stroke-width: 0.8"/>
      </g>
     </g>
     <g id="text_6">
      <!-- 40 -->
      <g transform="translate(325.619508 287.910437) scale(0.1 -0.1)">
       <defs>
        <path id="DejaVuSans-34" d="M 2419 4116 
L 825 1625 
L 2419 1625 
L 2419 4116 
z
M 2253 4666 
L 3047 4666 
L 3047 1625 
L 3713 1625 
L 3713 1100 
L 3047 1100 
L 3047 0 
L 2419 0 
L 2419 1100 
L 313 1100 
L 313 1709 
L 2253 4666 
z
" transform="scale(0.015625)"/>
       </defs>
       <use xlink:href="#DejaVuSans-34"/>
       <use xlink:href="#DejaVuSans-30" x="63.623047"/>
      </g>
     </g>
    </g>
    <g id="xtick_7">
     <g id="line2d_7">
      <g>
       <use xlink:href="#ma1c7a7092e" x="386.962305" y="273.312" style="stroke: #000000; stroke-width: 0.8"/>
      </g>
     </g>
     <g id="text_7">
      <!-- 50 -->
      <g transform="translate(380.599805 287.910437) scale(0.1 -0.1)">
       <defs>
        <path id="DejaVuSans-35" d="M 691 4666 
L 3169 4666 
L 3169 4134 
L 1269 4134 
L 1269 2991 
Q 1406 3038 1543 3061 
Q 1681 3084 1819 3084 
Q 2600 3084 3056 2656 
Q 3513 2228 3513 1497 
Q 3513 744 3044 326 
Q 2575 -91 1722 -91 
Q 1428 -91 1123 -41 
Q 819 9 494 109 
L 494 744 
Q 775 591 1075 516 
Q 1375 441 1709 441 
Q 2250 441 2565 725 
Q 2881 1009 2881 1497 
Q 2881 1984 2565 2268 
Q 2250 2553 1709 2553 
Q 1456 2553 1204 2497 
Q 953 2441 691 2322 
L 691 4666 
z
" transform="scale(0.015625)"/>
       </defs>
       <use xlink:href="#DejaVuSans-35"/>
       <use xlink:href="#DejaVuSans-30" x="63.623047"/>
      </g>
     </g>
    </g>
   </g>
   <g id="matplotlib.axis_2">
    <g id="ytick_1">
     <g id="line2d_8">
      <defs>
       <path id="m440b2dce31" d="M 0 0 
L -3.5 0 
" style="stroke: #000000; stroke-width: 0.8"/>
      </defs>
      <g>
       <use xlink:href="#m440b2dce31" x="35.304688" y="268.680769" style="stroke: #000000; stroke-width: 0.8"/>
      </g>
     </g>
     <g id="text_8">
      <!-- −20 -->
      <g transform="translate(7.2 272.479987) scale(0.1 -0.1)">
       <use xlink:href="#DejaVuSans-2212"/>
       <use xlink:href="#DejaVuSans-32" x="83.789062"/>
       <use xlink:href="#DejaVuSans-30" x="147.412109"/>
      </g>
     </g>
    </g>
    <g id="ytick_2">
     <g id="line2d_9">
      <g>
       <use xlink:href="#m440b2dce31" x="35.304688" y="236.841661" style="stroke: #000000; stroke-width: 0.8"/>
      </g>
     </g>
     <g id="text_9">
      <!-- −15 -->
      <g transform="translate(7.2 240.64088) scale(0.1 -0.1)">
       <use xlink:href="#DejaVuSans-2212"/>
       <use xlink:href="#DejaVuSans-31" x="83.789062"/>
       <use xlink:href="#DejaVuSans-35" x="147.412109"/>
      </g>
     </g>
    </g>
    <g id="ytick_3">
     <g id="line2d_10">
      <g>
       <use xlink:href="#m440b2dce31" x="35.304688" y="205.002553" style="stroke: #000000; stroke-width: 0.8"/>
      </g>
     </g>
     <g id="text_10">
      <!-- −10 -->
      <g transform="translate(7.2 208.801772) scale(0.1 -0.1)">
       <use xlink:href="#DejaVuSans-2212"/>
       <use xlink:href="#DejaVuSans-31" x="83.789062"/>
       <use xlink:href="#DejaVuSans-30" x="147.412109"/>
      </g>
     </g>
    </g>
    <g id="ytick_4">
     <g id="line2d_11">
      <g>
       <use xlink:href="#m440b2dce31" x="35.304688" y="173.163446" style="stroke: #000000; stroke-width: 0.8"/>
      </g>
     </g>
     <g id="text_11">
      <!-- −5 -->
      <g transform="translate(13.5625 176.962664) scale(0.1 -0.1)">
       <use xlink:href="#DejaVuSans-2212"/>
       <use xlink:href="#DejaVuSans-35" x="83.789062"/>
      </g>
     </g>
    </g>
    <g id="ytick_5">
     <g id="line2d_12">
      <g>
       <use xlink:href="#m440b2dce31" x="35.304688" y="141.324338" style="stroke: #000000; stroke-width: 0.8"/>
      </g>
     </g>
     <g id="text_12">
      <!-- 0 -->
      <g transform="translate(21.942187 145.123557) scale(0.1 -0.1)">
       <use xlink:href="#DejaVuSans-30"/>
      </g>
     </g>
    </g>
    <g id="ytick_6">
     <g id="line2d_13">
      <g>
       <use xlink:href="#m440b2dce31" x="35.304688" y="109.48523" style="stroke: #000000; stroke-width: 0.8"/>
      </g>
     </g>
     <g id="text_13">
      <!-- 5 -->
      <g transform="translate(21.942187 113.284449) scale(0.1 -0.1)">
       <use xlink:href="#DejaVuSans-35"/>
      </g>
     </g>
    </g>
    <g id="ytick_7">
     <g id="line2d_14">
      <g>
       <use xlink:href="#m440b2dce31" x="35.304688" y="77.646123" style="stroke: #000000; stroke-width: 0.8"/>
      </g>
     </g>
     <g id="text_14">
      <!-- 10 -->
      <g transform="translate(15.579687 81.445341) scale(0.1 -0.1)">
       <use xlink:href="#DejaVuSans-31"/>
       <use xlink:href="#DejaVuSans-30" x="63.623047"/>
      </g>
     </g>
    </g>
    <g id="ytick_8">
     <g id="line2d_15">
      <g>
       <use xlink:href="#m440b2dce31" x="35.304688" y="45.807015" style="stroke: #000000; stroke-width: 0.8"/>
      </g>
     </g>
     <g id="text_15">
      <!-- 15 -->
      <g transform="translate(15.579687 49.606234) scale(0.1 -0.1)">
       <use xlink:href="#DejaVuSans-31"/>
       <use xlink:href="#DejaVuSans-35" x="63.623047"/>
      </g>
     </g>
    </g>
    <g id="ytick_9">
     <g id="line2d_16">
      <g>
       <use xlink:href="#m440b2dce31" x="35.304688" y="13.967907" style="stroke: #000000; stroke-width: 0.8"/>
      </g>
     </g>
     <g id="text_16">
      <!-- 20 -->
      <g transform="translate(15.579687 17.767126) scale(0.1 -0.1)">
       <use xlink:href="#DejaVuSans-32"/>
       <use xlink:href="#DejaVuSans-30" x="63.623047"/>
      </g>
     </g>
    </g>
   </g>
   <g id="patch_3">
    <path d="M 35.304688 273.312 
L 35.304688 7.2 
" style="fill: none; stroke: #000000; stroke-width: 0.8; stroke-linejoin: miter; stroke-linecap: square"/>
   </g>
   <g id="patch_4">
    <path d="M 392.424688 273.312 
L 392.424688 7.2 
" style="fill: none; stroke: #000000; stroke-width: 0.8; stroke-linejoin: miter; stroke-linecap: square"/>
   </g>
   <g id="patch_5">
    <path d="M 35.304688 273.312 
L 392.424688 273.312 
" style="fill: none; stroke: #000000; stroke-width: 0.8; stroke-linejoin: miter; stroke-linecap: square"/>
   </g>
   <g id="patch_6">
    <path d="M 35.304688 7.2 
L 392.424688 7.2 
" style="fill: none; stroke: #000000; stroke-width: 0.8; stroke-linejoin: miter; stroke-linecap: square"/>
   </g>
  </g>
 </g>
 <defs>
  <clipPath id="p31252c71b5">
   <rect x="35.304688" y="7.2" width="357.12" height="266.112"/>
  </clipPath>
 </defs>
</svg>
