<?xml version="1.0" encoding="utf-8" standalone="no"?>
<!DOCTYPE svg PUBLIC "-//W3C//DTD SVG 1.1//EN"
  "http://www.w3.org/Graphics/SVG/1.1/DTD/svg11.dtd">
<svg xmlns:xlink="http://www.w3.org/1999/xlink" width="399.624687pt" height="297.190125pt" viewBox="0 0 399.624687 297.190125" xmlns="http://www.w3.org/2000/svg" version="1.1">
 <metadata>
  <rdf:RDF xmlns:dc="http://purl.org/dc/elements/1.1/" xmlns:cc="http://creativecommons.org/ns#" xmlns:rdf="http://www.w3.org/1999/02/22-rdf-syntax-ns#">
   <cc:Work>
    <dc:type rdf:resource="http://purl.org/dc/dcmitype/StillImage"/>
    <dc:date>2023-11-13T10:17:06.675600</dc:date>
    <dc:format>image/svg+xml</dc:format>
    <dc:creator>
     <cc:Agent>
      <dc:title>Matplotlib v3.8.0, https://matplotlib.org/</dc:title>
     </cc:Agent>
    </dc:creator>
   </cc:Work>
  </rdf:RDF>
 </metadata>
 <defs>
  <style type="text/css">*{stroke-linejoin: round; stroke-linecap: butt}</style>
 </defs>
 <g id="figure_1">
  <g id="patch_1">
   <path d="M 0 297.190125 
L 399.624687 297.190125 
L 399.624687 0 
L 0 0 
z
" style="fill: #ffffff"/>
  </g>
  <g id="axes_1">
   <g id="patch_2">
    <path d="M 35.304688 273.312 
L 392.424688 273.312 
L 392.424688 7.2 
L 35.304688 7.2 
z
" style="fill: #ffffff"/>
   </g>
   <g id="PathCollection_1">
    <defs>
     <path id="m68dbf5fffb" d="M 0 1.5 
C 0.397805 1.5 0.77937 1.341951 1.06066 1.06066 
C 1.341951 0.77937 1.5 0.397805 1.5 0 
C 1.5 -0.397805 1.341951 -0.77937 1.06066 -1.06066 
C 0.77937 -1.341951 0.397805 -1.5 0 -1.5 
C -0.397805 -1.5 -0.77937 -1.341951 -1.06066 -1.06066 
C -1.341951 -0.77937 -1.5 -0.397805 -1.5 0 
C -1.5 0.397805 -1.341951 0.77937 -1.06066 1.06066 
C -0.77937 1.341951 -0.397805 1.5 0 1.5 
z
" style="stroke: #ff8c00"/>
    </defs>
    <g clip-path="url(#p083c682224)">
     <use xlink:href="#m68dbf5fffb" x="190.213832" y="81.112647" style="fill: #ff8c00; stroke: #ff8c00"/>
     <use xlink:href="#m68dbf5fffb" x="163.023192" y="168.800123" style="fill: #ff8c00; stroke: #ff8c00"/>
     <use xlink:href="#m68dbf5fffb" x="127.441292" y="142.777838" style="fill: #ff8c00; stroke: #ff8c00"/>
     <use xlink:href="#m68dbf5fffb" x="122.815681" y="112.674504" style="fill: #ff8c00; stroke: #ff8c00"/>
     <use xlink:href="#m68dbf5fffb" x="163.558755" y="134.693188" style="fill: #ff8c00; stroke: #ff8c00"/>
     <use xlink:href="#m68dbf5fffb" x="143.903221" y="135.750031" style="fill: #ff8c00; stroke: #ff8c00"/>
     <use xlink:href="#m68dbf5fffb" x="171.815835" y="136.116125" style="fill: #ff8c00; stroke: #ff8c00"/>
     <use xlink:href="#m68dbf5fffb" x="112.861423" y="95.823515" style="fill: #ff8c00; stroke: #ff8c00"/>
     <use xlink:href="#m68dbf5fffb" x="129.855522" y="151.968603" style="fill: #ff8c00; stroke: #ff8c00"/>
     <use xlink:href="#m68dbf5fffb" x="185.530699" y="76.518155" style="fill: #ff8c00; stroke: #ff8c00"/>
     <use xlink:href="#m68dbf5fffb" x="160.43576" y="60.621857" style="fill: #ff8c00; stroke: #ff8c00"/>
     <use xlink:href="#m68dbf5fffb" x="182.822339" y="104.696776" style="fill: #ff8c00; stroke: #ff8c00"/>
     <use xlink:href="#m68dbf5fffb" x="132.140355" y="193.390273" style="fill: #ff8c00; stroke: #ff8c00"/>
    </g>
   </g>
   <g id="PathCollection_2">
    <defs>
     <path id="m534dcf3ee8" d="M 0 1.5 
C 0.397805 1.5 0.77937 1.341951 1.06066 1.06066 
C 1.341951 0.77937 1.5 0.397805 1.5 0 
C 1.5 -0.397805 1.341951 -0.77937 1.06066 -1.06066 
C 0.77937 -1.341951 0.397805 -1.5 0 -1.5 
C -0.397805 -1.5 -0.77937 -1.341951 -1.06066 -1.06066 
C -1.341951 -0.77937 -1.5 -0.397805 -1.5 0 
C -1.5 0.397805 -1.341951 0.77937 -1.06066 1.06066 
C -0.77937 1.341951 -0.397805 1.5 0 1.5 
z
" style="stroke: #006400"/>
    </defs>
    <g clip-path="url(#p083c682224)">
     <use xlink:href="#m534dcf3ee8" x="194.958738" y="162.485626" style="fill: #006400; stroke: #006400"/>
     <use xlink:href="#m534dcf3ee8" x="353.830129" y="259.760423" style="fill: #006400; stroke: #006400"/>
     <use xlink:href="#m534dcf3ee8" x="376.19196" y="196.216509" style="fill: #006400; stroke: #006400"/>
     <use xlink:href="#m534dcf3ee8" x="259.415995" y="165.697814" style="fill: #006400; stroke: #006400"/>
     <use xlink:href="#m534dcf3ee8" x="255.814122" y="132.014123" style="fill: #006400; stroke: #006400"/>
     <use xlink:href="#m534dcf3ee8" x="168.882593" y="178.797506" style="fill: #006400; stroke: #006400"/>
     <use xlink:href="#m534dcf3ee8" x="236.410807" y="212.209004" style="fill: #006400; stroke: #006400"/>
    </g>
   </g>
   <g id="PathCollection_3">
    <defs>
     <path id="mbbe9b06504" d="M 0 1.5 
C 0.397805 1.5 0.77937 1.341951 1.06066 1.06066 
C 1.341951 0.77937 1.5 0.397805 1.5 0 
C 1.5 -0.397805 1.341951 -0.77937 1.06066 -1.06066 
C 0.77937 -1.341951 0.397805 -1.5 0 -1.5 
C -0.397805 -1.5 -0.77937 -1.341951 -1.06066 -1.06066 
C -1.341951 -0.77937 -1.5 -0.397805 -1.5 0 
C -1.5 0.397805 -1.341951 0.77937 -1.06066 1.06066 
C -0.77937 1.341951 -0.397805 1.5 0 1.5 
z
" style="stroke: #2f4f4f"/>
    </defs>
    <g clip-path="url(#p083c682224)">
     <use xlink:href="#mbbe9b06504" x="116.912159" y="146.170345" style="fill: #2f4f4f; stroke: #2f4f4f"/>
     <use xlink:href="#mbbe9b06504" x="146.50962" y="176.606521" style="fill: #2f4f4f; stroke: #2f4f4f"/>
     <use xlink:href="#mbbe9b06504" x="142.9761" y="171.201979" style="fill: #2f4f4f; stroke: #2f4f4f"/>
     <use xlink:href="#mbbe9b06504" x="154.298192" y="125.070095" style="fill: #2f4f4f; stroke: #2f4f4f"/>
     <use xlink:href="#mbbe9b06504" x="100.497806" y="164.871431" style="fill: #2f4f4f; stroke: #2f4f4f"/>
     <use xlink:href="#mbbe9b06504" x="178.023288" y="145.882256" style="fill: #2f4f4f; stroke: #2f4f4f"/>
     <use xlink:href="#mbbe9b06504" x="134.529285" y="159.214973" style="fill: #2f4f4f; stroke: #2f4f4f"/>
     <use xlink:href="#mbbe9b06504" x="145.750835" y="19.296" style="fill: #2f4f4f; stroke: #2f4f4f"/>
     <use xlink:href="#mbbe9b06504" x="125.03662" y="147.345649" style="fill: #2f4f4f; stroke: #2f4f4f"/>
     <use xlink:href="#mbbe9b06504" x="159.692686" y="180.691945" style="fill: #2f4f4f; stroke: #2f4f4f"/>
     <use xlink:href="#mbbe9b06504" x="141.940837" y="166.340314" style="fill: #2f4f4f; stroke: #2f4f4f"/>
     <use xlink:href="#mbbe9b06504" x="140.509098" y="133.264162" style="fill: #2f4f4f; stroke: #2f4f4f"/>
     <use xlink:href="#mbbe9b06504" x="108.412069" y="163.808254" style="fill: #2f4f4f; stroke: #2f4f4f"/>
     <use xlink:href="#mbbe9b06504" x="204.242119" y="56.142764" style="fill: #2f4f4f; stroke: #2f4f4f"/>
     <use xlink:href="#mbbe9b06504" x="170.372566" y="103.127718" style="fill: #2f4f4f; stroke: #2f4f4f"/>
     <use xlink:href="#mbbe9b06504" x="137.387819" y="163.995516" style="fill: #2f4f4f; stroke: #2f4f4f"/>
     <use xlink:href="#mbbe9b06504" x="144.299365" y="149.46839" style="fill: #2f4f4f; stroke: #2f4f4f"/>
     <use xlink:href="#mbbe9b06504" x="108.158762" y="122.662286" style="fill: #2f4f4f; stroke: #2f4f4f"/>
     <use xlink:href="#mbbe9b06504" x="166.453051" y="54.861779" style="fill: #2f4f4f; stroke: #2f4f4f"/>
     <use xlink:href="#mbbe9b06504" x="142.657654" y="125.653405" style="fill: #2f4f4f; stroke: #2f4f4f"/>
     <use xlink:href="#mbbe9b06504" x="182.763765" y="122.734797" style="fill: #2f4f4f; stroke: #2f4f4f"/>
     <use xlink:href="#mbbe9b06504" x="164.208685" y="155.431581" style="fill: #2f4f4f; stroke: #2f4f4f"/>
    </g>
   </g>
   <g id="PathCollection_4">
    <defs>
     <path id="m6e8083ed75" d="M 0 1.5 
C 0.397805 1.5 0.77937 1.341951 1.06066 1.06066 
C 1.341951 0.77937 1.5 0.397805 1.5 0 
C 1.5 -0.397805 1.341951 -0.77937 1.06066 -1.06066 
C 0.77937 -1.341951 0.397805 -1.5 0 -1.5 
C -0.397805 -1.5 -0.77937 -1.341951 -1.06066 -1.06066 
C -1.341951 -0.77937 -1.5 -0.397805 -1.5 0 
C -1.5 0.397805 -1.341951 0.77937 -1.06066 1.06066 
C -0.77937 1.341951 -0.397805 1.5 0 1.5 
z
" style="stroke: #00bfff"/>
    </defs>
    <g clip-path="url(#p083c682224)">
     <use xlink:href="#m6e8083ed75" x="104.908278" y="178.167177" style="fill: #00bfff; stroke: #00bfff"/>
     <use xlink:href="#m6e8083ed75" x="171.971307" y="122.754366" style="fill: #00bfff; stroke: #00bfff"/>
     <use xlink:href="#m6e8083ed75" x="166.718818" y="199.57479" style="fill: #00bfff; stroke: #00bfff"/>
     <use xlink:href="#m6e8083ed75" x="146.688205" y="190.82985" style="fill: #00bfff; stroke: #00bfff"/>
     <use xlink:href="#m6e8083ed75" x="101.357934" y="208.240124" style="fill: #00bfff; stroke: #00bfff"/>
     <use xlink:href="#m6e8083ed75" x="121.415891" y="177.65449" style="fill: #00bfff; stroke: #00bfff"/>
    </g>
   </g>
   <g id="PathCollection_5">
    <defs>
     <path id="m7a04540d6a" d="M 0 1.5 
C 0.397805 1.5 0.77937 1.341951 1.06066 1.06066 
C 1.341951 0.77937 1.5 0.397805 1.5 0 
C 1.5 -0.397805 1.341951 -0.77937 1.06066 -1.06066 
C 0.77937 -1.341951 0.397805 -1.5 0 -1.5 
C -0.397805 -1.5 -0.77937 -1.341951 -1.06066 -1.06066 
C -1.341951 -0.77937 -1.5 -0.397805 -1.5 0 
C -1.5 0.397805 -1.341951 0.77937 -1.06066 1.06066 
C -0.77937 1.341951 -0.397805 1.5 0 1.5 
z
" style="stroke: #ffff00"/>
    </defs>
    <g clip-path="url(#p083c682224)">
     <use xlink:href="#m7a04540d6a" x="133.899569" y="112.582345" style="fill: #ffff00; stroke: #ffff00"/>
     <use xlink:href="#m7a04540d6a" x="140.950393" y="166.755775" style="fill: #ffff00; stroke: #ffff00"/>
     <use xlink:href="#m7a04540d6a" x="111.093071" y="174.403801" style="fill: #ffff00; stroke: #ffff00"/>
     <use xlink:href="#m7a04540d6a" x="129.607484" y="199.143008" style="fill: #ffff00; stroke: #ffff00"/>
     <use xlink:href="#m7a04540d6a" x="115.874848" y="137.379746" style="fill: #ffff00; stroke: #ffff00"/>
     <use xlink:href="#m7a04540d6a" x="128.172199" y="152.443257" style="fill: #ffff00; stroke: #ffff00"/>
     <use xlink:href="#m7a04540d6a" x="118.640056" y="62.96042" style="fill: #ffff00; stroke: #ffff00"/>
     <use xlink:href="#m7a04540d6a" x="168.183205" y="88.144621" style="fill: #ffff00; stroke: #ffff00"/>
     <use xlink:href="#m7a04540d6a" x="124.238447" y="113.477644" style="fill: #ffff00; stroke: #ffff00"/>
     <use xlink:href="#m7a04540d6a" x="148.365113" y="187.714066" style="fill: #ffff00; stroke: #ffff00"/>
     <use xlink:href="#m7a04540d6a" x="149.843415" y="73.540596" style="fill: #ffff00; stroke: #ffff00"/>
     <use xlink:href="#m7a04540d6a" x="183.771602" y="172.350458" style="fill: #ffff00; stroke: #ffff00"/>
     <use xlink:href="#m7a04540d6a" x="138.040927" y="191.130212" style="fill: #ffff00; stroke: #ffff00"/>
     <use xlink:href="#m7a04540d6a" x="115.24723" y="209.649354" style="fill: #ffff00; stroke: #ffff00"/>
     <use xlink:href="#m7a04540d6a" x="125.818976" y="134.022219" style="fill: #ffff00; stroke: #ffff00"/>
     <use xlink:href="#m7a04540d6a" x="162.007698" y="165.771763" style="fill: #ffff00; stroke: #ffff00"/>
     <use xlink:href="#m7a04540d6a" x="137.64303" y="137.811614" style="fill: #ffff00; stroke: #ffff00"/>
     <use xlink:href="#m7a04540d6a" x="121.641194" y="102.074945" style="fill: #ffff00; stroke: #ffff00"/>
     <use xlink:href="#m7a04540d6a" x="105.00779" y="181.136715" style="fill: #ffff00; stroke: #ffff00"/>
     <use xlink:href="#m7a04540d6a" x="136.43381" y="188.268446" style="fill: #ffff00; stroke: #ffff00"/>
     <use xlink:href="#m7a04540d6a" x="162.383052" y="152.441877" style="fill: #ffff00; stroke: #ffff00"/>
     <use xlink:href="#m7a04540d6a" x="101.381712" y="136.90249" style="fill: #ffff00; stroke: #ffff00"/>
    </g>
   </g>
   <g id="PathCollection_6">
    <defs>
     <path id="ma39479f0bf" d="M 0 1.5 
C 0.397805 1.5 0.77937 1.341951 1.06066 1.06066 
C 1.341951 0.77937 1.5 0.397805 1.5 0 
C 1.5 -0.397805 1.341951 -0.77937 1.06066 -1.06066 
C 0.77937 -1.341951 0.397805 -1.5 0 -1.5 
C -0.397805 -1.5 -0.77937 -1.341951 -1.06066 -1.06066 
C -1.341951 -0.77937 -1.5 -0.397805 -1.5 0 
C -1.5 0.397805 -1.341951 0.77937 -1.06066 1.06066 
C -0.77937 1.341951 -0.397805 1.5 0 1.5 
z
" style="stroke: #00ffff"/>
    </defs>
    <g clip-path="url(#p083c682224)">
     <use xlink:href="#ma39479f0bf" x="177.740075" y="164.726297" style="fill: #00ffff; stroke: #00ffff"/>
     <use xlink:href="#ma39479f0bf" x="150.223965" y="167.691188" style="fill: #00ffff; stroke: #00ffff"/>
     <use xlink:href="#ma39479f0bf" x="154.348174" y="177.026077" style="fill: #00ffff; stroke: #00ffff"/>
     <use xlink:href="#ma39479f0bf" x="126.270825" y="195.734261" style="fill: #00ffff; stroke: #00ffff"/>
     <use xlink:href="#ma39479f0bf" x="154.099925" y="202.860198" style="fill: #00ffff; stroke: #00ffff"/>
     <use xlink:href="#ma39479f0bf" x="184.287823" y="182.267402" style="fill: #00ffff; stroke: #00ffff"/>
     <use xlink:href="#ma39479f0bf" x="133.407682" y="166.92868" style="fill: #00ffff; stroke: #00ffff"/>
     <use xlink:href="#ma39479f0bf" x="162.87847" y="159.794649" style="fill: #00ffff; stroke: #00ffff"/>
     <use xlink:href="#ma39479f0bf" x="134.554815" y="204.391392" style="fill: #00ffff; stroke: #00ffff"/>
     <use xlink:href="#ma39479f0bf" x="173.138081" y="168.753535" style="fill: #00ffff; stroke: #00ffff"/>
     <use xlink:href="#ma39479f0bf" x="130.465618" y="177.933631" style="fill: #00ffff; stroke: #00ffff"/>
     <use xlink:href="#ma39479f0bf" x="172.775734" y="205.020337" style="fill: #00ffff; stroke: #00ffff"/>
     <use xlink:href="#ma39479f0bf" x="146.161135" y="194.654622" style="fill: #00ffff; stroke: #00ffff"/>
     <use xlink:href="#ma39479f0bf" x="99.981669" y="186.042499" style="fill: #00ffff; stroke: #00ffff"/>
    </g>
   </g>
   <g id="PathCollection_7">
    <defs>
     <path id="me0148aead3" d="M 0 1.5 
C 0.397805 1.5 0.77937 1.341951 1.06066 1.06066 
C 1.341951 0.77937 1.5 0.397805 1.5 0 
C 1.5 -0.397805 1.341951 -0.77937 1.06066 -1.06066 
C 0.77937 -1.341951 0.397805 -1.5 0 -1.5 
C -0.397805 -1.5 -0.77937 -1.341951 -1.06066 -1.06066 
C -1.341951 -0.77937 -1.5 -0.397805 -1.5 0 
C -1.5 0.397805 -1.341951 0.77937 -1.06066 1.06066 
C -0.77937 1.341951 -0.397805 1.5 0 1.5 
z
" style="stroke: #0000ff"/>
    </defs>
    <g clip-path="url(#p083c682224)">
     <use xlink:href="#me0148aead3" x="137.4701" y="118.52685" style="fill: #0000ff; stroke: #0000ff"/>
     <use xlink:href="#me0148aead3" x="132.518073" y="141.939473" style="fill: #0000ff; stroke: #0000ff"/>
     <use xlink:href="#me0148aead3" x="210.285893" y="261.216" style="fill: #0000ff; stroke: #0000ff"/>
     <use xlink:href="#me0148aead3" x="167.136338" y="167.79763" style="fill: #0000ff; stroke: #0000ff"/>
     <use xlink:href="#me0148aead3" x="183.465174" y="152.149375" style="fill: #0000ff; stroke: #0000ff"/>
     <use xlink:href="#me0148aead3" x="175.874223" y="120.729909" style="fill: #0000ff; stroke: #0000ff"/>
     <use xlink:href="#me0148aead3" x="134.400545" y="190.348941" style="fill: #0000ff; stroke: #0000ff"/>
     <use xlink:href="#me0148aead3" x="151.533822" y="178.556405" style="fill: #0000ff; stroke: #0000ff"/>
     <use xlink:href="#me0148aead3" x="143.310605" y="184.366788" style="fill: #0000ff; stroke: #0000ff"/>
     <use xlink:href="#me0148aead3" x="142.849557" y="156.136808" style="fill: #0000ff; stroke: #0000ff"/>
     <use xlink:href="#me0148aead3" x="140.004835" y="153.912661" style="fill: #0000ff; stroke: #0000ff"/>
     <use xlink:href="#me0148aead3" x="183.366715" y="187.915306" style="fill: #0000ff; stroke: #0000ff"/>
    </g>
   </g>
   <g id="PathCollection_8">
    <defs>
     <path id="m685b31c595" d="M 0 1.5 
C 0.397805 1.5 0.77937 1.341951 1.06066 1.06066 
C 1.341951 0.77937 1.5 0.397805 1.5 0 
C 1.5 -0.397805 1.341951 -0.77937 1.06066 -1.06066 
C 0.77937 -1.341951 0.397805 -1.5 0 -1.5 
C -0.397805 -1.5 -0.77937 -1.341951 -1.06066 -1.06066 
C -1.341951 -0.77937 -1.5 -0.397805 -1.5 0 
C -1.5 0.397805 -1.341951 0.77937 -1.06066 1.06066 
C -0.77937 1.341951 -0.397805 1.5 0 1.5 
z
" style="stroke: #dc143c"/>
    </defs>
    <g clip-path="url(#p083c682224)">
     <use xlink:href="#m685b31c595" x="212.920893" y="124.925953" style="fill: #dc143c; stroke: #dc143c"/>
     <use xlink:href="#m685b31c595" x="157.47972" y="138.400098" style="fill: #dc143c; stroke: #dc143c"/>
     <use xlink:href="#m685b31c595" x="149.943706" y="163.359589" style="fill: #dc143c; stroke: #dc143c"/>
     <use xlink:href="#m685b31c595" x="139.302508" y="148.524108" style="fill: #dc143c; stroke: #dc143c"/>
     <use xlink:href="#m685b31c595" x="119.016203" y="186.902165" style="fill: #dc143c; stroke: #dc143c"/>
     <use xlink:href="#m685b31c595" x="173.460791" y="129.560736" style="fill: #dc143c; stroke: #dc143c"/>
     <use xlink:href="#m685b31c595" x="148.173684" y="140.786534" style="fill: #dc143c; stroke: #dc143c"/>
     <use xlink:href="#m685b31c595" x="136.16613" y="158.504716" style="fill: #dc143c; stroke: #dc143c"/>
     <use xlink:href="#m685b31c595" x="199.210839" y="85.967392" style="fill: #dc143c; stroke: #dc143c"/>
     <use xlink:href="#m685b31c595" x="157.639564" y="137.74349" style="fill: #dc143c; stroke: #dc143c"/>
     <use xlink:href="#m685b31c595" x="159.492901" y="103.747798" style="fill: #dc143c; stroke: #dc143c"/>
     <use xlink:href="#m685b31c595" x="140.661535" y="130.735594" style="fill: #dc143c; stroke: #dc143c"/>
     <use xlink:href="#m685b31c595" x="166.11498" y="118.551393" style="fill: #dc143c; stroke: #dc143c"/>
     <use xlink:href="#m685b31c595" x="153.727193" y="114.285817" style="fill: #dc143c; stroke: #dc143c"/>
     <use xlink:href="#m685b31c595" x="150.507241" y="92.189661" style="fill: #dc143c; stroke: #dc143c"/>
     <use xlink:href="#m685b31c595" x="138.798563" y="96.87155" style="fill: #dc143c; stroke: #dc143c"/>
     <use xlink:href="#m685b31c595" x="132.042417" y="137.289612" style="fill: #dc143c; stroke: #dc143c"/>
    </g>
   </g>
   <g id="PathCollection_9">
    <defs>
     <path id="m39315cf5be" d="M 0 1.5 
C 0.397805 1.5 0.77937 1.341951 1.06066 1.06066 
C 1.341951 0.77937 1.5 0.397805 1.5 0 
C 1.5 -0.397805 1.341951 -0.77937 1.06066 -1.06066 
C 0.77937 -1.341951 0.397805 -1.5 0 -1.5 
C -0.397805 -1.5 -0.77937 -1.341951 -1.06066 -1.06066 
C -1.341951 -0.77937 -1.5 -0.397805 -1.5 0 
C -1.5 0.397805 -1.341951 0.77937 -1.06066 1.06066 
C -0.77937 1.341951 -0.397805 1.5 0 1.5 
z
" style="stroke: #ffe4c4"/>
    </defs>
    <g clip-path="url(#p083c682224)">
     <use xlink:href="#m39315cf5be" x="278.242551" y="190.209734" style="fill: #ffe4c4; stroke: #ffe4c4"/>
     <use xlink:href="#m39315cf5be" x="239.739388" y="134.620942" style="fill: #ffe4c4; stroke: #ffe4c4"/>
     <use xlink:href="#m39315cf5be" x="245.446732" y="118.56135" style="fill: #ffe4c4; stroke: #ffe4c4"/>
     <use xlink:href="#m39315cf5be" x="205.244311" y="131.24385" style="fill: #ffe4c4; stroke: #ffe4c4"/>
     <use xlink:href="#m39315cf5be" x="278.909596" y="138.468705" style="fill: #ffe4c4; stroke: #ffe4c4"/>
     <use xlink:href="#m39315cf5be" x="215.170733" y="112.880519" style="fill: #ffe4c4; stroke: #ffe4c4"/>
     <use xlink:href="#m39315cf5be" x="282.819832" y="181.711778" style="fill: #ffe4c4; stroke: #ffe4c4"/>
     <use xlink:href="#m39315cf5be" x="274.592364" y="119.268766" style="fill: #ffe4c4; stroke: #ffe4c4"/>
     <use xlink:href="#m39315cf5be" x="210.712211" y="147.735525" style="fill: #ffe4c4; stroke: #ffe4c4"/>
     <use xlink:href="#m39315cf5be" x="296.838611" y="108.757102" style="fill: #ffe4c4; stroke: #ffe4c4"/>
     <use xlink:href="#m39315cf5be" x="212.660234" y="128.367685" style="fill: #ffe4c4; stroke: #ffe4c4"/>
     <use xlink:href="#m39315cf5be" x="248.462369" y="176.855076" style="fill: #ffe4c4; stroke: #ffe4c4"/>
     <use xlink:href="#m39315cf5be" x="215.086819" y="138.62605" style="fill: #ffe4c4; stroke: #ffe4c4"/>
     <use xlink:href="#m39315cf5be" x="230.105356" y="163.783145" style="fill: #ffe4c4; stroke: #ffe4c4"/>
     <use xlink:href="#m39315cf5be" x="244.234445" y="134.157707" style="fill: #ffe4c4; stroke: #ffe4c4"/>
    </g>
   </g>
   <g id="PathCollection_10">
    <defs>
     <path id="m06810909cf" d="M -2.99994 2.99994 
L 3.00006 2.99994 
L 3.00006 -3.00006 
L -2.99994 -3.00006 
z
" style="stroke: #000000"/>
    </defs>
    <g clip-path="url(#p083c682224)">
     <use xlink:href="#m06810909cf" x="79.405444" y="168.830102" style="stroke: #000000"/>
     <use xlink:href="#m06810909cf" x="99.323162" y="187.295274" style="stroke: #000000"/>
     <use xlink:href="#m06810909cf" x="124.778699" y="226.302287" style="stroke: #000000"/>
     <use xlink:href="#m06810909cf" x="101.587615" y="108.188754" style="stroke: #000000"/>
     <use xlink:href="#m06810909cf" x="120.207832" y="41.696237" style="stroke: #000000"/>
     <use xlink:href="#m06810909cf" x="172.239257" y="121.881118" style="stroke: #000000"/>
     <use xlink:href="#m06810909cf" x="99.136863" y="125.87234" style="stroke: #000000"/>
     <use xlink:href="#m06810909cf" x="186.220599" y="130.847089" style="stroke: #000000"/>
     <use xlink:href="#m06810909cf" x="107.962914" y="200.083354" style="stroke: #000000"/>
     <use xlink:href="#m06810909cf" x="122.795269" y="171.547697" style="stroke: #000000"/>
     <use xlink:href="#m06810909cf" x="127.201012" y="148.862826" style="stroke: #000000"/>
     <use xlink:href="#m06810909cf" x="110.394482" y="163.270829" style="stroke: #000000"/>
     <use xlink:href="#m06810909cf" x="106.424515" y="110.481511" style="stroke: #000000"/>
     <use xlink:href="#m06810909cf" x="115.405631" y="61.030992" style="stroke: #000000"/>
     <use xlink:href="#m06810909cf" x="126.598708" y="206.841557" style="stroke: #000000"/>
     <use xlink:href="#m06810909cf" x="108.710005" y="70.441811" style="stroke: #000000"/>
     <use xlink:href="#m06810909cf" x="95.138033" y="189.617821" style="stroke: #000000"/>
     <use xlink:href="#m06810909cf" x="112.064219" y="120.923586" style="stroke: #000000"/>
     <use xlink:href="#m06810909cf" x="142.692081" y="184.155696" style="stroke: #000000"/>
     <use xlink:href="#m06810909cf" x="133.636038" y="154.118803" style="stroke: #000000"/>
     <use xlink:href="#m06810909cf" x="106.539773" y="139.91867" style="stroke: #000000"/>
     <use xlink:href="#m06810909cf" x="99.462519" y="131.545524" style="stroke: #000000"/>
     <use xlink:href="#m06810909cf" x="107.94994" y="184.528066" style="stroke: #000000"/>
     <use xlink:href="#m06810909cf" x="89.934858" y="204.883741" style="stroke: #000000"/>
     <use xlink:href="#m06810909cf" x="166.987636" y="188.481943" style="stroke: #000000"/>
     <use xlink:href="#m06810909cf" x="106.135225" y="125.558142" style="stroke: #000000"/>
     <use xlink:href="#m06810909cf" x="167.872292" y="155.894337" style="stroke: #000000"/>
     <use xlink:href="#m06810909cf" x="143.319385" y="224.06841" style="stroke: #000000"/>
     <use xlink:href="#m06810909cf" x="144.436458" y="133.255387" style="stroke: #000000"/>
     <use xlink:href="#m06810909cf" x="127.080962" y="150.826571" style="stroke: #000000"/>
     <use xlink:href="#m06810909cf" x="101.354149" y="135.288732" style="stroke: #000000"/>
     <use xlink:href="#m06810909cf" x="108.602591" y="163.582216" style="stroke: #000000"/>
     <use xlink:href="#m06810909cf" x="150.323142" y="147.290053" style="stroke: #000000"/>
     <use xlink:href="#m06810909cf" x="110.909757" y="124.950495" style="stroke: #000000"/>
     <use xlink:href="#m06810909cf" x="51.537415" y="152.994406" style="stroke: #000000"/>
     <use xlink:href="#m06810909cf" x="117.324477" y="203.193239" style="stroke: #000000"/>
     <use xlink:href="#m06810909cf" x="122.764279" y="193.439512" style="stroke: #000000"/>
     <use xlink:href="#m06810909cf" x="87.150568" y="166.446167" style="stroke: #000000"/>
     <use xlink:href="#m06810909cf" x="114.794695" y="150.290317" style="stroke: #000000"/>
     <use xlink:href="#m06810909cf" x="100.179149" y="188.124085" style="stroke: #000000"/>
     <use xlink:href="#m06810909cf" x="135.146907" y="160.630076" style="stroke: #000000"/>
     <use xlink:href="#m06810909cf" x="162.236649" y="152.495804" style="stroke: #000000"/>
     <use xlink:href="#m06810909cf" x="103.049662" y="175.78708" style="stroke: #000000"/>
     <use xlink:href="#m06810909cf" x="132.229258" y="165.365541" style="stroke: #000000"/>
     <use xlink:href="#m06810909cf" x="97.52573" y="85.602152" style="stroke: #000000"/>
     <use xlink:href="#m06810909cf" x="89.380078" y="194.38824" style="stroke: #000000"/>
     <use xlink:href="#m06810909cf" x="109.82223" y="146.146808" style="stroke: #000000"/>
     <use xlink:href="#m06810909cf" x="135.583262" y="178.438676" style="stroke: #000000"/>
     <use xlink:href="#m06810909cf" x="136.600499" y="147.086921" style="stroke: #000000"/>
     <use xlink:href="#m06810909cf" x="114.277624" y="178.7585" style="stroke: #000000"/>
     <use xlink:href="#m06810909cf" x="88.837203" y="201.189264" style="stroke: #000000"/>
     <use xlink:href="#m06810909cf" x="107.102583" y="77.188649" style="stroke: #000000"/>
     <use xlink:href="#m06810909cf" x="100.532306" y="120.851585" style="stroke: #000000"/>
     <use xlink:href="#m06810909cf" x="140.938583" y="140.049505" style="stroke: #000000"/>
     <use xlink:href="#m06810909cf" x="107.962914" y="200.083354" style="stroke: #000000"/>
     <use xlink:href="#m06810909cf" x="144.140205" y="20.717062" style="stroke: #000000"/>
     <use xlink:href="#m06810909cf" x="78.652021" y="173.803783" style="stroke: #000000"/>
     <use xlink:href="#m06810909cf" x="56.419807" y="222.217693" style="stroke: #000000"/>
     <use xlink:href="#m06810909cf" x="107.607909" y="104.378993" style="stroke: #000000"/>
     <use xlink:href="#m06810909cf" x="140.39582" y="191.479597" style="stroke: #000000"/>
     <use xlink:href="#m06810909cf" x="71.592632" y="185.533247" style="stroke: #000000"/>
     <use xlink:href="#m06810909cf" x="109.448186" y="157.786967" style="stroke: #000000"/>
     <use xlink:href="#m06810909cf" x="107.237043" y="110.373044" style="stroke: #000000"/>
     <use xlink:href="#m06810909cf" x="144.140205" y="20.717062" style="stroke: #000000"/>
    </g>
   </g>
   <g id="PathCollection_11">
    <defs>
     <path id="macb25a8472" d="M -3 -0 
L 3 3 
L 3 -3 
z
" style="stroke: #ff8c00"/>
    </defs>
    <g clip-path="url(#p083c682224)">
     <use xlink:href="#macb25a8472" x="123.138458" y="112.313742" style="fill: #ff8c00; stroke: #ff8c00"/>
     <use xlink:href="#macb25a8472" x="146.431803" y="151.290652" style="fill: #ff8c00; stroke: #ff8c00"/>
     <use xlink:href="#macb25a8472" x="146.239652" y="178.004575" style="fill: #ff8c00; stroke: #ff8c00"/>
     <use xlink:href="#macb25a8472" x="114.067035" y="153.117261" style="fill: #ff8c00; stroke: #ff8c00"/>
     <use xlink:href="#macb25a8472" x="105.403309" y="147.062238" style="fill: #ff8c00; stroke: #ff8c00"/>
     <use xlink:href="#macb25a8472" x="96.634862" y="162.049819" style="fill: #ff8c00; stroke: #ff8c00"/>
     <use xlink:href="#macb25a8472" x="135.519843" y="144.588549" style="fill: #ff8c00; stroke: #ff8c00"/>
     <use xlink:href="#macb25a8472" x="116.686582" y="154.497862" style="fill: #ff8c00; stroke: #ff8c00"/>
     <use xlink:href="#macb25a8472" x="116.274559" y="182.480807" style="fill: #ff8c00; stroke: #ff8c00"/>
     <use xlink:href="#macb25a8472" x="114.14633" y="125.410829" style="fill: #ff8c00; stroke: #ff8c00"/>
     <use xlink:href="#macb25a8472" x="130.547375" y="117.354594" style="fill: #ff8c00; stroke: #ff8c00"/>
     <use xlink:href="#macb25a8472" x="96.579584" y="133.308564" style="fill: #ff8c00; stroke: #ff8c00"/>
     <use xlink:href="#macb25a8472" x="122.104136" y="128.079648" style="fill: #ff8c00; stroke: #ff8c00"/>
     <use xlink:href="#macb25a8472" x="102.154703" y="159.968006" style="fill: #ff8c00; stroke: #ff8c00"/>
     <use xlink:href="#macb25a8472" x="113.125027" y="141.86211" style="fill: #ff8c00; stroke: #ff8c00"/>
     <use xlink:href="#macb25a8472" x="91.168712" y="163.042692" style="fill: #ff8c00; stroke: #ff8c00"/>
     <use xlink:href="#macb25a8472" x="108.973553" y="186.846405" style="fill: #ff8c00; stroke: #ff8c00"/>
     <use xlink:href="#macb25a8472" x="124.641984" y="149.7273" style="fill: #ff8c00; stroke: #ff8c00"/>
     <use xlink:href="#macb25a8472" x="122.549532" y="117.399537" style="fill: #ff8c00; stroke: #ff8c00"/>
     <use xlink:href="#macb25a8472" x="146.982887" y="164.660779" style="fill: #ff8c00; stroke: #ff8c00"/>
     <use xlink:href="#macb25a8472" x="125.156724" y="127.348513" style="fill: #ff8c00; stroke: #ff8c00"/>
     <use xlink:href="#macb25a8472" x="109.22671" y="174.653378" style="fill: #ff8c00; stroke: #ff8c00"/>
     <use xlink:href="#macb25a8472" x="103.982879" y="98.446099" style="fill: #ff8c00; stroke: #ff8c00"/>
     <use xlink:href="#macb25a8472" x="128.727238" y="177.052762" style="fill: #ff8c00; stroke: #ff8c00"/>
     <use xlink:href="#macb25a8472" x="98.229342" y="143.295843" style="fill: #ff8c00; stroke: #ff8c00"/>
     <use xlink:href="#macb25a8472" x="107.85846" y="186.220154" style="fill: #ff8c00; stroke: #ff8c00"/>
     <use xlink:href="#macb25a8472" x="142.301993" y="167.013554" style="fill: #ff8c00; stroke: #ff8c00"/>
     <use xlink:href="#macb25a8472" x="143.537188" y="144.827765" style="fill: #ff8c00; stroke: #ff8c00"/>
     <use xlink:href="#macb25a8472" x="122.709539" y="156.077365" style="fill: #ff8c00; stroke: #ff8c00"/>
     <use xlink:href="#macb25a8472" x="143.77439" y="197.503098" style="fill: #ff8c00; stroke: #ff8c00"/>
     <use xlink:href="#macb25a8472" x="106.379929" y="75.930789" style="fill: #ff8c00; stroke: #ff8c00"/>
     <use xlink:href="#macb25a8472" x="113.540973" y="133.307191" style="fill: #ff8c00; stroke: #ff8c00"/>
     <use xlink:href="#macb25a8472" x="143.852352" y="147.452765" style="fill: #ff8c00; stroke: #ff8c00"/>
     <use xlink:href="#macb25a8472" x="110.858587" y="151.87795" style="fill: #ff8c00; stroke: #ff8c00"/>
     <use xlink:href="#macb25a8472" x="102.541615" y="136.177653" style="fill: #ff8c00; stroke: #ff8c00"/>
     <use xlink:href="#macb25a8472" x="116.960779" y="164.802526" style="fill: #ff8c00; stroke: #ff8c00"/>
     <use xlink:href="#macb25a8472" x="129.206095" y="188.715568" style="fill: #ff8c00; stroke: #ff8c00"/>
     <use xlink:href="#macb25a8472" x="122.413904" y="171.307693" style="fill: #ff8c00; stroke: #ff8c00"/>
     <use xlink:href="#macb25a8472" x="143.755406" y="164.923242" style="fill: #ff8c00; stroke: #ff8c00"/>
     <use xlink:href="#macb25a8472" x="132.612494" y="145.9265" style="fill: #ff8c00; stroke: #ff8c00"/>
     <use xlink:href="#macb25a8472" x="95.985265" y="115.061267" style="fill: #ff8c00; stroke: #ff8c00"/>
     <use xlink:href="#macb25a8472" x="113.03469" y="131.419748" style="fill: #ff8c00; stroke: #ff8c00"/>
     <use xlink:href="#macb25a8472" x="112.664662" y="165.077282" style="fill: #ff8c00; stroke: #ff8c00"/>
     <use xlink:href="#macb25a8472" x="104.27177" y="185.30744" style="fill: #ff8c00; stroke: #ff8c00"/>
     <use xlink:href="#macb25a8472" x="100.203657" y="124.085607" style="fill: #ff8c00; stroke: #ff8c00"/>
     <use xlink:href="#macb25a8472" x="101.150656" y="169.560289" style="fill: #ff8c00; stroke: #ff8c00"/>
     <use xlink:href="#macb25a8472" x="120.32397" y="107.916686" style="fill: #ff8c00; stroke: #ff8c00"/>
     <use xlink:href="#macb25a8472" x="100.325792" y="176.680771" style="fill: #ff8c00; stroke: #ff8c00"/>
     <use xlink:href="#macb25a8472" x="147.382954" y="174.454762" style="fill: #ff8c00; stroke: #ff8c00"/>
     <use xlink:href="#macb25a8472" x="111.267332" y="79.914998" style="fill: #ff8c00; stroke: #ff8c00"/>
     <use xlink:href="#macb25a8472" x="111.205565" y="157.562642" style="fill: #ff8c00; stroke: #ff8c00"/>
     <use xlink:href="#macb25a8472" x="115.091066" y="147.246589" style="fill: #ff8c00; stroke: #ff8c00"/>
     <use xlink:href="#macb25a8472" x="144.555509" y="135.864847" style="fill: #ff8c00; stroke: #ff8c00"/>
     <use xlink:href="#macb25a8472" x="132.404039" y="150.347261" style="fill: #ff8c00; stroke: #ff8c00"/>
     <use xlink:href="#macb25a8472" x="152.67195" y="144.778608" style="fill: #ff8c00; stroke: #ff8c00"/>
     <use xlink:href="#macb25a8472" x="96.864085" y="185.171531" style="fill: #ff8c00; stroke: #ff8c00"/>
     <use xlink:href="#macb25a8472" x="117.82893" y="123.536607" style="fill: #ff8c00; stroke: #ff8c00"/>
     <use xlink:href="#macb25a8472" x="113.08416" y="106.10056" style="fill: #ff8c00; stroke: #ff8c00"/>
     <use xlink:href="#macb25a8472" x="133.193556" y="127.110451" style="fill: #ff8c00; stroke: #ff8c00"/>
     <use xlink:href="#macb25a8472" x="151.194771" y="137.070358" style="fill: #ff8c00; stroke: #ff8c00"/>
     <use xlink:href="#macb25a8472" x="140.137618" y="166.15183" style="fill: #ff8c00; stroke: #ff8c00"/>
     <use xlink:href="#macb25a8472" x="149.542354" y="153.072952" style="fill: #ff8c00; stroke: #ff8c00"/>
     <use xlink:href="#macb25a8472" x="106.593147" y="185.059209" style="fill: #ff8c00; stroke: #ff8c00"/>
     <use xlink:href="#macb25a8472" x="98.168476" y="156.39309" style="fill: #ff8c00; stroke: #ff8c00"/>
    </g>
   </g>
   <g id="matplotlib.axis_1">
    <g id="xtick_1">
     <g id="line2d_1">
      <defs>
       <path id="md55cb1026c" d="M 0 0 
L 0 3.5 
" style="stroke: #000000; stroke-width: 0.8"/>
      </defs>
      <g>
       <use xlink:href="#md55cb1026c" x="88.275506" y="273.312" style="stroke: #000000; stroke-width: 0.8"/>
      </g>
     </g>
     <g id="text_1">
      <!-- −10 -->
      <g transform="translate(77.723162 287.910437) scale(0.1 -0.1)">
       <defs>
        <path id="DejaVuSans-2212" d="M 678 2272 
L 4684 2272 
L 4684 1741 
L 678 1741 
L 678 2272 
z
" transform="scale(0.015625)"/>
        <path id="DejaVuSans-31" d="M 794 531 
L 1825 531 
L 1825 4091 
L 703 3866 
L 703 4441 
L 1819 4666 
L 2450 4666 
L 2450 531 
L 3481 531 
L 3481 0 
L 794 0 
L 794 531 
z
" transform="scale(0.015625)"/>
        <path id="DejaVuSans-30" d="M 2034 4250 
Q 1547 4250 1301 3770 
Q 1056 3291 1056 2328 
Q 1056 1369 1301 889 
Q 1547 409 2034 409 
Q 2525 409 2770 889 
Q 3016 1369 3016 2328 
Q 3016 3291 2770 3770 
Q 2525 4250 2034 4250 
z
M 2034 4750 
Q 2819 4750 3233 4129 
Q 3647 3509 3647 2328 
Q 3647 1150 3233 529 
Q 2819 -91 2034 -91 
Q 1250 -91 836 529 
Q 422 1150 422 2328 
Q 422 3509 836 4129 
Q 1250 4750 2034 4750 
z
" transform="scale(0.015625)"/>
       </defs>
       <use xlink:href="#DejaVuSans-2212"/>
       <use xlink:href="#DejaVuSans-31" x="83.789062"/>
       <use xlink:href="#DejaVuSans-30" x="147.412109"/>
      </g>
     </g>
    </g>
    <g id="xtick_2">
     <g id="line2d_2">
      <g>
       <use xlink:href="#md55cb1026c" x="141.64811" y="273.312" style="stroke: #000000; stroke-width: 0.8"/>
      </g>
     </g>
     <g id="text_2">
      <!-- 0 -->
      <g transform="translate(138.46686 287.910437) scale(0.1 -0.1)">
       <use xlink:href="#DejaVuSans-30"/>
      </g>
     </g>
    </g>
    <g id="xtick_3">
     <g id="line2d_3">
      <g>
       <use xlink:href="#md55cb1026c" x="195.020714" y="273.312" style="stroke: #000000; stroke-width: 0.8"/>
      </g>
     </g>
     <g id="text_3">
      <!-- 10 -->
      <g transform="translate(188.658214 287.910437) scale(0.1 -0.1)">
       <use xlink:href="#DejaVuSans-31"/>
       <use xlink:href="#DejaVuSans-30" x="63.623047"/>
      </g>
     </g>
    </g>
    <g id="xtick_4">
     <g id="line2d_4">
      <g>
       <use xlink:href="#md55cb1026c" x="248.393318" y="273.312" style="stroke: #000000; stroke-width: 0.8"/>
      </g>
     </g>
     <g id="text_4">
      <!-- 20 -->
      <g transform="translate(242.030818 287.910437) scale(0.1 -0.1)">
       <defs>
        <path id="DejaVuSans-32" d="M 1228 531 
L 3431 531 
L 3431 0 
L 469 0 
L 469 531 
Q 828 903 1448 1529 
Q 2069 2156 2228 2338 
Q 2531 2678 2651 2914 
Q 2772 3150 2772 3378 
Q 2772 3750 2511 3984 
Q 2250 4219 1831 4219 
Q 1534 4219 1204 4116 
Q 875 4013 500 3803 
L 500 4441 
Q 881 4594 1212 4672 
Q 1544 4750 1819 4750 
Q 2544 4750 2975 4387 
Q 3406 4025 3406 3419 
Q 3406 3131 3298 2873 
Q 3191 2616 2906 2266 
Q 2828 2175 2409 1742 
Q 1991 1309 1228 531 
z
" transform="scale(0.015625)"/>
       </defs>
       <use xlink:href="#DejaVuSans-32"/>
       <use xlink:href="#DejaVuSans-30" x="63.623047"/>
      </g>
     </g>
    </g>
    <g id="xtick_5">
     <g id="line2d_5">
      <g>
       <use xlink:href="#md55cb1026c" x="301.765922" y="273.312" style="stroke: #000000; stroke-width: 0.8"/>
      </g>
     </g>
     <g id="text_5">
      <!-- 30 -->
      <g transform="translate(295.403422 287.910437) scale(0.1 -0.1)">
       <defs>
        <path id="DejaVuSans-33" d="M 2597 2516 
Q 3050 2419 3304 2112 
Q 3559 1806 3559 1356 
Q 3559 666 3084 287 
Q 2609 -91 1734 -91 
Q 1441 -91 1130 -33 
Q 819 25 488 141 
L 488 750 
Q 750 597 1062 519 
Q 1375 441 1716 441 
Q 2309 441 2620 675 
Q 2931 909 2931 1356 
Q 2931 1769 2642 2001 
Q 2353 2234 1838 2234 
L 1294 2234 
L 1294 2753 
L 1863 2753 
Q 2328 2753 2575 2939 
Q 2822 3125 2822 3475 
Q 2822 3834 2567 4026 
Q 2313 4219 1838 4219 
Q 1578 4219 1281 4162 
Q 984 4106 628 3988 
L 628 4550 
Q 988 4650 1302 4700 
Q 1616 4750 1894 4750 
Q 2613 4750 3031 4423 
Q 3450 4097 3450 3541 
Q 3450 3153 3228 2886 
Q 3006 2619 2597 2516 
z
" transform="scale(0.015625)"/>
       </defs>
       <use xlink:href="#DejaVuSans-33"/>
       <use xlink:href="#DejaVuSans-30" x="63.623047"/>
      </g>
     </g>
    </g>
    <g id="xtick_6">
     <g id="line2d_6">
      <g>
       <use xlink:href="#md55cb1026c" x="355.138526" y="273.312" style="stroke: #000000; stroke-width: 0.8"/>
      </g>
     </g>
     <g id="text_6">
      <!-- 40 -->
      <g transform="translate(348.776026 287.910437) scale(0.1 -0.1)">
       <defs>
        <path id="DejaVuSans-34" d="M 2419 4116 
L 825 1625 
L 2419 1625 
L 2419 4116 
z
M 2253 4666 
L 3047 4666 
L 3047 1625 
L 3713 1625 
L 3713 1100 
L 3047 1100 
L 3047 0 
L 2419 0 
L 2419 1100 
L 313 1100 
L 313 1709 
L 2253 4666 
z
" transform="scale(0.015625)"/>
       </defs>
       <use xlink:href="#DejaVuSans-34"/>
       <use xlink:href="#DejaVuSans-30" x="63.623047"/>
      </g>
     </g>
    </g>
   </g>
   <g id="matplotlib.axis_2">
    <g id="ytick_1">
     <g id="line2d_7">
      <defs>
       <path id="mef7516bf21" d="M 0 0 
L -3.5 0 
" style="stroke: #000000; stroke-width: 0.8"/>
      </defs>
      <g>
       <use xlink:href="#mef7516bf21" x="35.304688" y="256.233672" style="stroke: #000000; stroke-width: 0.8"/>
      </g>
     </g>
     <g id="text_7">
      <!-- −20 -->
      <g transform="translate(7.2 260.032891) scale(0.1 -0.1)">
       <use xlink:href="#DejaVuSans-2212"/>
       <use xlink:href="#DejaVuSans-32" x="83.789062"/>
       <use xlink:href="#DejaVuSans-30" x="147.412109"/>
      </g>
     </g>
    </g>
    <g id="ytick_2">
     <g id="line2d_8">
      <g>
       <use xlink:href="#mef7516bf21" x="35.304688" y="202.868982" style="stroke: #000000; stroke-width: 0.8"/>
      </g>
     </g>
     <g id="text_8">
      <!-- −10 -->
      <g transform="translate(7.2 206.668201) scale(0.1 -0.1)">
       <use xlink:href="#DejaVuSans-2212"/>
       <use xlink:href="#DejaVuSans-31" x="83.789062"/>
       <use xlink:href="#DejaVuSans-30" x="147.412109"/>
      </g>
     </g>
    </g>
    <g id="ytick_3">
     <g id="line2d_9">
      <g>
       <use xlink:href="#mef7516bf21" x="35.304688" y="149.504293" style="stroke: #000000; stroke-width: 0.8"/>
      </g>
     </g>
     <g id="text_9">
      <!-- 0 -->
      <g transform="translate(21.942187 153.303512) scale(0.1 -0.1)">
       <use xlink:href="#DejaVuSans-30"/>
      </g>
     </g>
    </g>
    <g id="ytick_4">
     <g id="line2d_10">
      <g>
       <use xlink:href="#mef7516bf21" x="35.304688" y="96.139604" style="stroke: #000000; stroke-width: 0.8"/>
      </g>
     </g>
     <g id="text_10">
      <!-- 10 -->
      <g transform="translate(15.579687 99.938822) scale(0.1 -0.1)">
       <use xlink:href="#DejaVuSans-31"/>
       <use xlink:href="#DejaVuSans-30" x="63.623047"/>
      </g>
     </g>
    </g>
    <g id="ytick_5">
     <g id="line2d_11">
      <g>
       <use xlink:href="#mef7516bf21" x="35.304688" y="42.774914" style="stroke: #000000; stroke-width: 0.8"/>
      </g>
     </g>
     <g id="text_11">
      <!-- 20 -->
      <g transform="translate(15.579687 46.574133) scale(0.1 -0.1)">
       <use xlink:href="#DejaVuSans-32"/>
       <use xlink:href="#DejaVuSans-30" x="63.623047"/>
      </g>
     </g>
    </g>
   </g>
   <g id="patch_3">
    <path d="M 35.304688 273.312 
L 35.304688 7.2 
" style="fill: none; stroke: #000000; stroke-width: 0.8; stroke-linejoin: miter; stroke-linecap: square"/>
   </g>
   <g id="patch_4">
    <path d="M 392.424688 273.312 
L 392.424688 7.2 
" style="fill: none; stroke: #000000; stroke-width: 0.8; stroke-linejoin: miter; stroke-linecap: square"/>
   </g>
   <g id="patch_5">
    <path d="M 35.304688 273.312 
L 392.424688 273.312 
" style="fill: none; stroke: #000000; stroke-width: 0.8; stroke-linejoin: miter; stroke-linecap: square"/>
   </g>
   <g id="patch_6">
    <path d="M 35.304688 7.2 
L 392.424688 7.2 
" style="fill: none; stroke: #000000; stroke-width: 0.8; stroke-linejoin: miter; stroke-linecap: square"/>
   </g>
  </g>
 </g>
 <defs>
  <clipPath id="p083c682224">
   <rect x="35.304688" y="7.2" width="357.12" height="266.112"/>
  </clipPath>
 </defs>
</svg>
