<?xml version="1.0" encoding="utf-8" standalone="no"?>
<!DOCTYPE svg PUBLIC "-//W3C//DTD SVG 1.1//EN"
  "http://www.w3.org/Graphics/SVG/1.1/DTD/svg11.dtd">
<svg xmlns:xlink="http://www.w3.org/1999/xlink" width="399.624687pt" height="297.190125pt" viewBox="0 0 399.624687 297.190125" xmlns="http://www.w3.org/2000/svg" version="1.1">
 <metadata>
  <rdf:RDF xmlns:dc="http://purl.org/dc/elements/1.1/" xmlns:cc="http://creativecommons.org/ns#" xmlns:rdf="http://www.w3.org/1999/02/22-rdf-syntax-ns#">
   <cc:Work>
    <dc:type rdf:resource="http://purl.org/dc/dcmitype/StillImage"/>
    <dc:date>2023-11-12T23:13:36.289593</dc:date>
    <dc:format>image/svg+xml</dc:format>
    <dc:creator>
     <cc:Agent>
      <dc:title>Matplotlib v3.8.0, https://matplotlib.org/</dc:title>
     </cc:Agent>
    </dc:creator>
   </cc:Work>
  </rdf:RDF>
 </metadata>
 <defs>
  <style type="text/css">*{stroke-linejoin: round; stroke-linecap: butt}</style>
 </defs>
 <g id="figure_1">
  <g id="patch_1">
   <path d="M 0 297.190125 
L 399.624687 297.190125 
L 399.624687 0 
L 0 0 
z
" style="fill: #ffffff"/>
  </g>
  <g id="axes_1">
   <g id="patch_2">
    <path d="M 35.304688 273.312 
L 392.424688 273.312 
L 392.424688 7.2 
L 35.304688 7.2 
z
" style="fill: #ffffff"/>
   </g>
   <g id="PathCollection_1">
    <defs>
     <path id="mc97a728573" d="M 0 1.5 
C 0.397805 1.5 0.77937 1.341951 1.06066 1.06066 
C 1.341951 0.77937 1.5 0.397805 1.5 0 
C 1.5 -0.397805 1.341951 -0.77937 1.06066 -1.06066 
C 0.77937 -1.341951 0.397805 -1.5 0 -1.5 
C -0.397805 -1.5 -0.77937 -1.341951 -1.06066 -1.06066 
C -1.341951 -0.77937 -1.5 -0.397805 -1.5 0 
C -1.5 0.397805 -1.341951 0.77937 -1.06066 1.06066 
C -0.77937 1.341951 -0.397805 1.5 0 1.5 
z
" style="stroke: #ff8c00"/>
    </defs>
    <g clip-path="url(#p6a37fec5a5)">
     <use xlink:href="#mc97a728573" x="176.401569" y="106.053118" style="fill: #ff8c00; stroke: #ff8c00"/>
     <use xlink:href="#mc97a728573" x="146.080383" y="76.037982" style="fill: #ff8c00; stroke: #ff8c00"/>
     <use xlink:href="#mc97a728573" x="143.121103" y="131.832366" style="fill: #ff8c00; stroke: #ff8c00"/>
     <use xlink:href="#mc97a728573" x="106.825687" y="80.585845" style="fill: #ff8c00; stroke: #ff8c00"/>
     <use xlink:href="#mc97a728573" x="178.734907" y="145.266172" style="fill: #ff8c00; stroke: #ff8c00"/>
     <use xlink:href="#mc97a728573" x="207.913874" y="101.243476" style="fill: #ff8c00; stroke: #ff8c00"/>
     <use xlink:href="#mc97a728573" x="147.830758" y="71.817541" style="fill: #ff8c00; stroke: #ff8c00"/>
     <use xlink:href="#mc97a728573" x="182.553264" y="63.364823" style="fill: #ff8c00; stroke: #ff8c00"/>
     <use xlink:href="#mc97a728573" x="136.189524" y="112.802578" style="fill: #ff8c00; stroke: #ff8c00"/>
     <use xlink:href="#mc97a728573" x="213.698334" y="98.328173" style="fill: #ff8c00; stroke: #ff8c00"/>
     <use xlink:href="#mc97a728573" x="196.909695" y="113.99375" style="fill: #ff8c00; stroke: #ff8c00"/>
     <use xlink:href="#mc97a728573" x="289.76289" y="80.080732" style="fill: #ff8c00; stroke: #ff8c00"/>
     <use xlink:href="#mc97a728573" x="234.287224" y="94.297082" style="fill: #ff8c00; stroke: #ff8c00"/>
     <use xlink:href="#mc97a728573" x="105.947341" y="133.303536" style="fill: #ff8c00; stroke: #ff8c00"/>
    </g>
   </g>
   <g id="PathCollection_2">
    <defs>
     <path id="m0799f0f37a" d="M 0 1.5 
C 0.397805 1.5 0.77937 1.341951 1.06066 1.06066 
C 1.341951 0.77937 1.5 0.397805 1.5 0 
C 1.5 -0.397805 1.341951 -0.77937 1.06066 -1.06066 
C 0.77937 -1.341951 0.397805 -1.5 0 -1.5 
C -0.397805 -1.5 -0.77937 -1.341951 -1.06066 -1.06066 
C -1.341951 -0.77937 -1.5 -0.397805 -1.5 0 
C -1.5 0.397805 -1.341951 0.77937 -1.06066 1.06066 
C -0.77937 1.341951 -0.397805 1.5 0 1.5 
z
" style="stroke: #006400"/>
    </defs>
    <g clip-path="url(#p6a37fec5a5)">
     <use xlink:href="#m0799f0f37a" x="281.038909" y="145.337664" style="fill: #006400; stroke: #006400"/>
     <use xlink:href="#m0799f0f37a" x="319.624932" y="67.887788" style="fill: #006400; stroke: #006400"/>
     <use xlink:href="#m0799f0f37a" x="336.127178" y="127.042121" style="fill: #006400; stroke: #006400"/>
     <use xlink:href="#m0799f0f37a" x="368.501692" y="133.790866" style="fill: #006400; stroke: #006400"/>
     <use xlink:href="#m0799f0f37a" x="241.690114" y="139.875514" style="fill: #006400; stroke: #006400"/>
     <use xlink:href="#m0799f0f37a" x="174.727482" y="135.409532" style="fill: #006400; stroke: #006400"/>
     <use xlink:href="#m0799f0f37a" x="292.666937" y="37.63637" style="fill: #006400; stroke: #006400"/>
     <use xlink:href="#m0799f0f37a" x="256.234739" y="156.288627" style="fill: #006400; stroke: #006400"/>
     <use xlink:href="#m0799f0f37a" x="340.813207" y="80.968743" style="fill: #006400; stroke: #006400"/>
     <use xlink:href="#m0799f0f37a" x="231.727143" y="151.732796" style="fill: #006400; stroke: #006400"/>
    </g>
   </g>
   <g id="PathCollection_3">
    <defs>
     <path id="m394ec4cac8" d="M 0 1.5 
C 0.397805 1.5 0.77937 1.341951 1.06066 1.06066 
C 1.341951 0.77937 1.5 0.397805 1.5 0 
C 1.5 -0.397805 1.341951 -0.77937 1.06066 -1.06066 
C 0.77937 -1.341951 0.397805 -1.5 0 -1.5 
C -0.397805 -1.5 -0.77937 -1.341951 -1.06066 -1.06066 
C -1.341951 -0.77937 -1.5 -0.397805 -1.5 0 
C -1.5 0.397805 -1.341951 0.77937 -1.06066 1.06066 
C -0.77937 1.341951 -0.397805 1.5 0 1.5 
z
" style="stroke: #2f4f4f"/>
    </defs>
    <g clip-path="url(#p6a37fec5a5)">
     <use xlink:href="#m394ec4cac8" x="167.942178" y="191.023956" style="fill: #2f4f4f; stroke: #2f4f4f"/>
     <use xlink:href="#m394ec4cac8" x="199.792433" y="187.045993" style="fill: #2f4f4f; stroke: #2f4f4f"/>
     <use xlink:href="#m394ec4cac8" x="178.953439" y="188.396816" style="fill: #2f4f4f; stroke: #2f4f4f"/>
     <use xlink:href="#m394ec4cac8" x="169.667288" y="184.816517" style="fill: #2f4f4f; stroke: #2f4f4f"/>
     <use xlink:href="#m394ec4cac8" x="113.861424" y="125.475332" style="fill: #2f4f4f; stroke: #2f4f4f"/>
     <use xlink:href="#m394ec4cac8" x="122.691286" y="170.432317" style="fill: #2f4f4f; stroke: #2f4f4f"/>
     <use xlink:href="#m394ec4cac8" x="172.059877" y="146.625402" style="fill: #2f4f4f; stroke: #2f4f4f"/>
     <use xlink:href="#m394ec4cac8" x="197.710728" y="178.760249" style="fill: #2f4f4f; stroke: #2f4f4f"/>
     <use xlink:href="#m394ec4cac8" x="161.503659" y="191.809807" style="fill: #2f4f4f; stroke: #2f4f4f"/>
     <use xlink:href="#m394ec4cac8" x="202.431769" y="87.459214" style="fill: #2f4f4f; stroke: #2f4f4f"/>
    </g>
   </g>
   <g id="PathCollection_4">
    <defs>
     <path id="m9b021944b0" d="M 0 1.5 
C 0.397805 1.5 0.77937 1.341951 1.06066 1.06066 
C 1.341951 0.77937 1.5 0.397805 1.5 0 
C 1.5 -0.397805 1.341951 -0.77937 1.06066 -1.06066 
C 0.77937 -1.341951 0.397805 -1.5 0 -1.5 
C -0.397805 -1.5 -0.77937 -1.341951 -1.06066 -1.06066 
C -1.341951 -0.77937 -1.5 -0.397805 -1.5 0 
C -1.5 0.397805 -1.341951 0.77937 -1.06066 1.06066 
C -0.77937 1.341951 -0.397805 1.5 0 1.5 
z
" style="stroke: #00bfff"/>
    </defs>
    <g clip-path="url(#p6a37fec5a5)">
     <use xlink:href="#m9b021944b0" x="146.328681" y="169.785815" style="fill: #00bfff; stroke: #00bfff"/>
     <use xlink:href="#m9b021944b0" x="167.348321" y="184.53437" style="fill: #00bfff; stroke: #00bfff"/>
     <use xlink:href="#m9b021944b0" x="206.138148" y="167.863337" style="fill: #00bfff; stroke: #00bfff"/>
     <use xlink:href="#m9b021944b0" x="197.917558" y="199.812427" style="fill: #00bfff; stroke: #00bfff"/>
     <use xlink:href="#m9b021944b0" x="190.784747" y="207.413104" style="fill: #00bfff; stroke: #00bfff"/>
     <use xlink:href="#m9b021944b0" x="123.709422" y="116.799655" style="fill: #00bfff; stroke: #00bfff"/>
     <use xlink:href="#m9b021944b0" x="222.997188" y="209.80685" style="fill: #00bfff; stroke: #00bfff"/>
     <use xlink:href="#m9b021944b0" x="194.599447" y="182.317765" style="fill: #00bfff; stroke: #00bfff"/>
     <use xlink:href="#m9b021944b0" x="171.46744" y="153.684941" style="fill: #00bfff; stroke: #00bfff"/>
     <use xlink:href="#m9b021944b0" x="121.578801" y="186.934256" style="fill: #00bfff; stroke: #00bfff"/>
     <use xlink:href="#m9b021944b0" x="167.892536" y="115.128442" style="fill: #00bfff; stroke: #00bfff"/>
    </g>
   </g>
   <g id="PathCollection_5">
    <defs>
     <path id="m4aae7690cd" d="M 0 1.5 
C 0.397805 1.5 0.77937 1.341951 1.06066 1.06066 
C 1.341951 0.77937 1.5 0.397805 1.5 0 
C 1.5 -0.397805 1.341951 -0.77937 1.06066 -1.06066 
C 0.77937 -1.341951 0.397805 -1.5 0 -1.5 
C -0.397805 -1.5 -0.77937 -1.341951 -1.06066 -1.06066 
C -1.341951 -0.77937 -1.5 -0.397805 -1.5 0 
C -1.5 0.397805 -1.341951 0.77937 -1.06066 1.06066 
C -0.77937 1.341951 -0.397805 1.5 0 1.5 
z
" style="stroke: #ffff00"/>
    </defs>
    <g clip-path="url(#p6a37fec5a5)">
     <use xlink:href="#m4aae7690cd" x="246.825107" y="185.736871" style="fill: #ffff00; stroke: #ffff00"/>
     <use xlink:href="#m4aae7690cd" x="183.832962" y="205.958863" style="fill: #ffff00; stroke: #ffff00"/>
     <use xlink:href="#m4aae7690cd" x="190.290423" y="221.253739" style="fill: #ffff00; stroke: #ffff00"/>
     <use xlink:href="#m4aae7690cd" x="168.020573" y="197.553965" style="fill: #ffff00; stroke: #ffff00"/>
     <use xlink:href="#m4aae7690cd" x="208.708752" y="167.875318" style="fill: #ffff00; stroke: #ffff00"/>
     <use xlink:href="#m4aae7690cd" x="188.436661" y="207.488134" style="fill: #ffff00; stroke: #ffff00"/>
     <use xlink:href="#m4aae7690cd" x="93.071956" y="139.474203" style="fill: #ffff00; stroke: #ffff00"/>
     <use xlink:href="#m4aae7690cd" x="218.815428" y="243.543435" style="fill: #ffff00; stroke: #ffff00"/>
     <use xlink:href="#m4aae7690cd" x="171.85331" y="228.524822" style="fill: #ffff00; stroke: #ffff00"/>
     <use xlink:href="#m4aae7690cd" x="194.686818" y="215.083601" style="fill: #ffff00; stroke: #ffff00"/>
     <use xlink:href="#m4aae7690cd" x="199.624889" y="182.92374" style="fill: #ffff00; stroke: #ffff00"/>
     <use xlink:href="#m4aae7690cd" x="178.4587" y="152.093812" style="fill: #ffff00; stroke: #ffff00"/>
     <use xlink:href="#m4aae7690cd" x="180.746793" y="213.868809" style="fill: #ffff00; stroke: #ffff00"/>
     <use xlink:href="#m4aae7690cd" x="212.959316" y="223.636785" style="fill: #ffff00; stroke: #ffff00"/>
     <use xlink:href="#m4aae7690cd" x="196.881027" y="174.790328" style="fill: #ffff00; stroke: #ffff00"/>
     <use xlink:href="#m4aae7690cd" x="183.032022" y="223.969507" style="fill: #ffff00; stroke: #ffff00"/>
     <use xlink:href="#m4aae7690cd" x="127.000255" y="214.293025" style="fill: #ffff00; stroke: #ffff00"/>
     <use xlink:href="#m4aae7690cd" x="175.961723" y="200.901332" style="fill: #ffff00; stroke: #ffff00"/>
    </g>
   </g>
   <g id="PathCollection_6">
    <defs>
     <path id="me4323c1a5b" d="M 0 1.5 
C 0.397805 1.5 0.77937 1.341951 1.06066 1.06066 
C 1.341951 0.77937 1.5 0.397805 1.5 0 
C 1.5 -0.397805 1.341951 -0.77937 1.06066 -1.06066 
C 0.77937 -1.341951 0.397805 -1.5 0 -1.5 
C -0.397805 -1.5 -0.77937 -1.341951 -1.06066 -1.06066 
C -1.341951 -0.77937 -1.5 -0.397805 -1.5 0 
C -1.5 0.397805 -1.341951 0.77937 -1.06066 1.06066 
C -0.77937 1.341951 -0.397805 1.5 0 1.5 
z
" style="stroke: #00ffff"/>
    </defs>
    <g clip-path="url(#p6a37fec5a5)">
     <use xlink:href="#me4323c1a5b" x="184.290645" y="197.047771" style="fill: #00ffff; stroke: #00ffff"/>
     <use xlink:href="#me4323c1a5b" x="223.092907" y="181.875742" style="fill: #00ffff; stroke: #00ffff"/>
     <use xlink:href="#me4323c1a5b" x="216.733921" y="169.882231" style="fill: #00ffff; stroke: #00ffff"/>
     <use xlink:href="#me4323c1a5b" x="191.462672" y="116.307018" style="fill: #00ffff; stroke: #00ffff"/>
     <use xlink:href="#me4323c1a5b" x="200.386402" y="166.284477" style="fill: #00ffff; stroke: #00ffff"/>
     <use xlink:href="#me4323c1a5b" x="180.215716" y="140.022457" style="fill: #00ffff; stroke: #00ffff"/>
     <use xlink:href="#me4323c1a5b" x="200.053451" y="191.771549" style="fill: #00ffff; stroke: #00ffff"/>
     <use xlink:href="#me4323c1a5b" x="177.20235" y="177.698794" style="fill: #00ffff; stroke: #00ffff"/>
     <use xlink:href="#me4323c1a5b" x="174.985555" y="174.152586" style="fill: #00ffff; stroke: #00ffff"/>
     <use xlink:href="#me4323c1a5b" x="203.5857" y="158.357451" style="fill: #00ffff; stroke: #00ffff"/>
     <use xlink:href="#me4323c1a5b" x="163.958897" y="150.813638" style="fill: #00ffff; stroke: #00ffff"/>
     <use xlink:href="#me4323c1a5b" x="126.58522" y="171.587981" style="fill: #00ffff; stroke: #00ffff"/>
     <use xlink:href="#me4323c1a5b" x="169.495095" y="167.680418" style="fill: #00ffff; stroke: #00ffff"/>
     <use xlink:href="#me4323c1a5b" x="171.979593" y="128.643085" style="fill: #00ffff; stroke: #00ffff"/>
     <use xlink:href="#me4323c1a5b" x="238.896694" y="205.455982" style="fill: #00ffff; stroke: #00ffff"/>
     <use xlink:href="#me4323c1a5b" x="187.309046" y="176.438747" style="fill: #00ffff; stroke: #00ffff"/>
     <use xlink:href="#me4323c1a5b" x="195.677973" y="197.965111" style="fill: #00ffff; stroke: #00ffff"/>
    </g>
   </g>
   <g id="PathCollection_7">
    <defs>
     <path id="ma85d7b6ea7" d="M 0 1.5 
C 0.397805 1.5 0.77937 1.341951 1.06066 1.06066 
C 1.341951 0.77937 1.5 0.397805 1.5 0 
C 1.5 -0.397805 1.341951 -0.77937 1.06066 -1.06066 
C 0.77937 -1.341951 0.397805 -1.5 0 -1.5 
C -0.397805 -1.5 -0.77937 -1.341951 -1.06066 -1.06066 
C -1.341951 -0.77937 -1.5 -0.397805 -1.5 0 
C -1.5 0.397805 -1.341951 0.77937 -1.06066 1.06066 
C -0.77937 1.341951 -0.397805 1.5 0 1.5 
z
" style="stroke: #0000ff"/>
    </defs>
    <g clip-path="url(#p6a37fec5a5)">
     <use xlink:href="#ma85d7b6ea7" x="212.613244" y="194.676982" style="fill: #0000ff; stroke: #0000ff"/>
     <use xlink:href="#ma85d7b6ea7" x="214.618982" y="160.567028" style="fill: #0000ff; stroke: #0000ff"/>
     <use xlink:href="#ma85d7b6ea7" x="171.812252" y="181.964384" style="fill: #0000ff; stroke: #0000ff"/>
     <use xlink:href="#ma85d7b6ea7" x="216.133018" y="223.477081" style="fill: #0000ff; stroke: #0000ff"/>
     <use xlink:href="#ma85d7b6ea7" x="229.017209" y="228.570765" style="fill: #0000ff; stroke: #0000ff"/>
     <use xlink:href="#ma85d7b6ea7" x="213.607681" y="209.094858" style="fill: #0000ff; stroke: #0000ff"/>
     <use xlink:href="#ma85d7b6ea7" x="183.357866" y="177.063865" style="fill: #0000ff; stroke: #0000ff"/>
     <use xlink:href="#ma85d7b6ea7" x="264.910298" y="252.671047" style="fill: #0000ff; stroke: #0000ff"/>
     <use xlink:href="#ma85d7b6ea7" x="177.25948" y="169.34639" style="fill: #0000ff; stroke: #0000ff"/>
     <use xlink:href="#ma85d7b6ea7" x="187.008653" y="142.13762" style="fill: #0000ff; stroke: #0000ff"/>
     <use xlink:href="#ma85d7b6ea7" x="196.397712" y="225.959262" style="fill: #0000ff; stroke: #0000ff"/>
     <use xlink:href="#ma85d7b6ea7" x="179.186568" y="146.992623" style="fill: #0000ff; stroke: #0000ff"/>
     <use xlink:href="#ma85d7b6ea7" x="243.621504" y="125.207703" style="fill: #0000ff; stroke: #0000ff"/>
     <use xlink:href="#ma85d7b6ea7" x="266.586565" y="191.769906" style="fill: #0000ff; stroke: #0000ff"/>
     <use xlink:href="#ma85d7b6ea7" x="159.886146" y="201.021045" style="fill: #0000ff; stroke: #0000ff"/>
     <use xlink:href="#ma85d7b6ea7" x="235.198153" y="186.514241" style="fill: #0000ff; stroke: #0000ff"/>
     <use xlink:href="#ma85d7b6ea7" x="241.964525" y="166.58506" style="fill: #0000ff; stroke: #0000ff"/>
     <use xlink:href="#ma85d7b6ea7" x="181.147595" y="261.216" style="fill: #0000ff; stroke: #0000ff"/>
     <use xlink:href="#ma85d7b6ea7" x="216.721418" y="206.722691" style="fill: #0000ff; stroke: #0000ff"/>
    </g>
   </g>
   <g id="PathCollection_8">
    <defs>
     <path id="ma1b0b95220" d="M 0 1.5 
C 0.397805 1.5 0.77937 1.341951 1.06066 1.06066 
C 1.341951 0.77937 1.5 0.397805 1.5 0 
C 1.5 -0.397805 1.341951 -0.77937 1.06066 -1.06066 
C 0.77937 -1.341951 0.397805 -1.5 0 -1.5 
C -0.397805 -1.5 -0.77937 -1.341951 -1.06066 -1.06066 
C -1.341951 -0.77937 -1.5 -0.397805 -1.5 0 
C -1.5 0.397805 -1.341951 0.77937 -1.06066 1.06066 
C -0.77937 1.341951 -0.397805 1.5 0 1.5 
z
" style="stroke: #dc143c"/>
    </defs>
    <g clip-path="url(#p6a37fec5a5)">
     <use xlink:href="#ma1b0b95220" x="219.678039" y="103.305812" style="fill: #dc143c; stroke: #dc143c"/>
     <use xlink:href="#ma1b0b95220" x="170.7212" y="58.703" style="fill: #dc143c; stroke: #dc143c"/>
     <use xlink:href="#ma1b0b95220" x="282.064199" y="68.313307" style="fill: #dc143c; stroke: #dc143c"/>
     <use xlink:href="#ma1b0b95220" x="166.24656" y="107.761685" style="fill: #dc143c; stroke: #dc143c"/>
     <use xlink:href="#ma1b0b95220" x="199.705526" y="91.710645" style="fill: #dc143c; stroke: #dc143c"/>
     <use xlink:href="#ma1b0b95220" x="162.507201" y="96.853783" style="fill: #dc143c; stroke: #dc143c"/>
     <use xlink:href="#ma1b0b95220" x="218.573272" y="121.703213" style="fill: #dc143c; stroke: #dc143c"/>
     <use xlink:href="#ma1b0b95220" x="143.271292" y="60.902909" style="fill: #dc143c; stroke: #dc143c"/>
     <use xlink:href="#ma1b0b95220" x="166.366639" y="62.39041" style="fill: #dc143c; stroke: #dc143c"/>
     <use xlink:href="#ma1b0b95220" x="197.018632" y="106.243156" style="fill: #dc143c; stroke: #dc143c"/>
     <use xlink:href="#ma1b0b95220" x="195.109085" y="55.800757" style="fill: #dc143c; stroke: #dc143c"/>
     <use xlink:href="#ma1b0b95220" x="183.03363" y="28.398692" style="fill: #dc143c; stroke: #dc143c"/>
     <use xlink:href="#ma1b0b95220" x="170.93842" y="92.078148" style="fill: #dc143c; stroke: #dc143c"/>
    </g>
   </g>
   <g id="PathCollection_9">
    <defs>
     <path id="mea00b80387" d="M 0 1.5 
C 0.397805 1.5 0.77937 1.341951 1.06066 1.06066 
C 1.341951 0.77937 1.5 0.397805 1.5 0 
C 1.5 -0.397805 1.341951 -0.77937 1.06066 -1.06066 
C 0.77937 -1.341951 0.397805 -1.5 0 -1.5 
C -0.397805 -1.5 -0.77937 -1.341951 -1.06066 -1.06066 
C -1.341951 -0.77937 -1.5 -0.397805 -1.5 0 
C -1.5 0.397805 -1.341951 0.77937 -1.06066 1.06066 
C -0.77937 1.341951 -0.397805 1.5 0 1.5 
z
" style="stroke: #ffe4c4"/>
    </defs>
    <g clip-path="url(#p6a37fec5a5)">
     <use xlink:href="#mea00b80387" x="358.073157" y="116.944977" style="fill: #ffe4c4; stroke: #ffe4c4"/>
     <use xlink:href="#mea00b80387" x="194.80702" y="85.999172" style="fill: #ffe4c4; stroke: #ffe4c4"/>
     <use xlink:href="#mea00b80387" x="281.727076" y="130.49883" style="fill: #ffe4c4; stroke: #ffe4c4"/>
     <use xlink:href="#mea00b80387" x="269.751377" y="130.562564" style="fill: #ffe4c4; stroke: #ffe4c4"/>
     <use xlink:href="#mea00b80387" x="268.970852" y="162.477735" style="fill: #ffe4c4; stroke: #ffe4c4"/>
     <use xlink:href="#mea00b80387" x="332.147016" y="77.670325" style="fill: #ffe4c4; stroke: #ffe4c4"/>
     <use xlink:href="#mea00b80387" x="291.330904" y="154.222164" style="fill: #ffe4c4; stroke: #ffe4c4"/>
     <use xlink:href="#mea00b80387" x="268.692419" y="176.538585" style="fill: #ffe4c4; stroke: #ffe4c4"/>
     <use xlink:href="#mea00b80387" x="233.002077" y="75.73624" style="fill: #ffe4c4; stroke: #ffe4c4"/>
     <use xlink:href="#mea00b80387" x="303.238566" y="77.063311" style="fill: #ffe4c4; stroke: #ffe4c4"/>
     <use xlink:href="#mea00b80387" x="351.310057" y="49.329024" style="fill: #ffe4c4; stroke: #ffe4c4"/>
     <use xlink:href="#mea00b80387" x="259.677867" y="86.386951" style="fill: #ffe4c4; stroke: #ffe4c4"/>
     <use xlink:href="#mea00b80387" x="221.016387" y="154.193829" style="fill: #ffe4c4; stroke: #ffe4c4"/>
     <use xlink:href="#mea00b80387" x="210.674369" y="157.765424" style="fill: #ffe4c4; stroke: #ffe4c4"/>
     <use xlink:href="#mea00b80387" x="291.074968" y="115.581071" style="fill: #ffe4c4; stroke: #ffe4c4"/>
     <use xlink:href="#mea00b80387" x="376.19196" y="95.929462" style="fill: #ffe4c4; stroke: #ffe4c4"/>
    </g>
   </g>
   <g id="PathCollection_10">
    <defs>
     <path id="m0d45d97a24" d="M -2.99994 2.99994 
L 3.00006 2.99994 
L 3.00006 -3.00006 
L -2.99994 -3.00006 
z
" style="stroke: #000000"/>
    </defs>
    <g clip-path="url(#p6a37fec5a5)">
     <use xlink:href="#m0d45d97a24" x="166.515757" y="167.123978" style="stroke: #000000"/>
     <use xlink:href="#m0d45d97a24" x="151.460959" y="167.525018" style="stroke: #000000"/>
     <use xlink:href="#m0d45d97a24" x="97.029125" y="69.248757" style="stroke: #000000"/>
     <use xlink:href="#m0d45d97a24" x="206.806615" y="155.175871" style="stroke: #000000"/>
     <use xlink:href="#m0d45d97a24" x="141.123503" y="64.769917" style="stroke: #000000"/>
     <use xlink:href="#m0d45d97a24" x="174.8279" y="143.482332" style="stroke: #000000"/>
     <use xlink:href="#m0d45d97a24" x="195.805532" y="183.346625" style="stroke: #000000"/>
     <use xlink:href="#m0d45d97a24" x="77.978687" y="19.296" style="stroke: #000000"/>
     <use xlink:href="#m0d45d97a24" x="78.720037" y="159.278426" style="stroke: #000000"/>
     <use xlink:href="#m0d45d97a24" x="150.841447" y="206.649124" style="stroke: #000000"/>
     <use xlink:href="#m0d45d97a24" x="132.104214" y="166.692528" style="stroke: #000000"/>
     <use xlink:href="#m0d45d97a24" x="155.876194" y="101.862671" style="stroke: #000000"/>
     <use xlink:href="#m0d45d97a24" x="126.28167" y="212.207029" style="stroke: #000000"/>
     <use xlink:href="#m0d45d97a24" x="104.406536" y="32.684421" style="stroke: #000000"/>
     <use xlink:href="#m0d45d97a24" x="144.338564" y="155.32817" style="stroke: #000000"/>
     <use xlink:href="#m0d45d97a24" x="178.371588" y="173.664174" style="stroke: #000000"/>
     <use xlink:href="#m0d45d97a24" x="99.287425" y="80.195852" style="stroke: #000000"/>
     <use xlink:href="#m0d45d97a24" x="181.779172" y="163.828165" style="stroke: #000000"/>
     <use xlink:href="#m0d45d97a24" x="131.188929" y="162.740057" style="stroke: #000000"/>
     <use xlink:href="#m0d45d97a24" x="174.494407" y="172.887507" style="stroke: #000000"/>
     <use xlink:href="#m0d45d97a24" x="142.686352" y="78.655295" style="stroke: #000000"/>
     <use xlink:href="#m0d45d97a24" x="51.537415" y="152.561113" style="stroke: #000000"/>
     <use xlink:href="#m0d45d97a24" x="138.390913" y="162.803996" style="stroke: #000000"/>
     <use xlink:href="#m0d45d97a24" x="140.861565" y="201.447187" style="stroke: #000000"/>
     <use xlink:href="#m0d45d97a24" x="201.064154" y="118.562715" style="stroke: #000000"/>
     <use xlink:href="#m0d45d97a24" x="161.418051" y="112.657907" style="stroke: #000000"/>
     <use xlink:href="#m0d45d97a24" x="159.556798" y="89.593329" style="stroke: #000000"/>
     <use xlink:href="#m0d45d97a24" x="109.655668" y="70.550813" style="stroke: #000000"/>
     <use xlink:href="#m0d45d97a24" x="135.666866" y="145.943605" style="stroke: #000000"/>
     <use xlink:href="#m0d45d97a24" x="106.42574" y="162.374131" style="stroke: #000000"/>
     <use xlink:href="#m0d45d97a24" x="180.598061" y="194.836195" style="stroke: #000000"/>
     <use xlink:href="#m0d45d97a24" x="155.99618" y="180.943947" style="stroke: #000000"/>
     <use xlink:href="#m0d45d97a24" x="143.420444" y="79.636461" style="stroke: #000000"/>
     <use xlink:href="#m0d45d97a24" x="172.251062" y="162.185144" style="stroke: #000000"/>
     <use xlink:href="#m0d45d97a24" x="105.226687" y="193.182132" style="stroke: #000000"/>
     <use xlink:href="#m0d45d97a24" x="148.357294" y="187.037313" style="stroke: #000000"/>
     <use xlink:href="#m0d45d97a24" x="132.121199" y="114.236652" style="stroke: #000000"/>
     <use xlink:href="#m0d45d97a24" x="112.00014" y="107.658142" style="stroke: #000000"/>
     <use xlink:href="#m0d45d97a24" x="120.64854" y="127.429806" style="stroke: #000000"/>
     <use xlink:href="#m0d45d97a24" x="179.172339" y="147.674558" style="stroke: #000000"/>
     <use xlink:href="#m0d45d97a24" x="148.851837" y="159.019583" style="stroke: #000000"/>
     <use xlink:href="#m0d45d97a24" x="133.112943" y="157.411701" style="stroke: #000000"/>
     <use xlink:href="#m0d45d97a24" x="208.809015" y="151.324908" style="stroke: #000000"/>
     <use xlink:href="#m0d45d97a24" x="192.617064" y="190.816776" style="stroke: #000000"/>
     <use xlink:href="#m0d45d97a24" x="79.708054" y="51.983996" style="stroke: #000000"/>
     <use xlink:href="#m0d45d97a24" x="141.65247" y="184.249155" style="stroke: #000000"/>
     <use xlink:href="#m0d45d97a24" x="252.995921" y="130.874743" style="stroke: #000000"/>
     <use xlink:href="#m0d45d97a24" x="82.673985" y="22.906487" style="stroke: #000000"/>
     <use xlink:href="#m0d45d97a24" x="142.774488" y="125.992091" style="stroke: #000000"/>
     <use xlink:href="#m0d45d97a24" x="145.98561" y="183.329509" style="stroke: #000000"/>
     <use xlink:href="#m0d45d97a24" x="211.362207" y="131.607233" style="stroke: #000000"/>
     <use xlink:href="#m0d45d97a24" x="88.063952" y="132.973347" style="stroke: #000000"/>
     <use xlink:href="#m0d45d97a24" x="72.614072" y="128.146017" style="stroke: #000000"/>
     <use xlink:href="#m0d45d97a24" x="190.596834" y="152.636142" style="stroke: #000000"/>
     <use xlink:href="#m0d45d97a24" x="63.79207" y="53.352757" style="stroke: #000000"/>
     <use xlink:href="#m0d45d97a24" x="187.011318" y="198.197755" style="stroke: #000000"/>
     <use xlink:href="#m0d45d97a24" x="75.437599" y="69.244976" style="stroke: #000000"/>
     <use xlink:href="#m0d45d97a24" x="144.777495" y="169.204751" style="stroke: #000000"/>
     <use xlink:href="#m0d45d97a24" x="133.81503" y="182.871041" style="stroke: #000000"/>
     <use xlink:href="#m0d45d97a24" x="139.099279" y="170.360005" style="stroke: #000000"/>
     <use xlink:href="#m0d45d97a24" x="119.664167" y="166.851638" style="stroke: #000000"/>
     <use xlink:href="#m0d45d97a24" x="143.507985" y="139.045926" style="stroke: #000000"/>
     <use xlink:href="#m0d45d97a24" x="146.788181" y="154.177184" style="stroke: #000000"/>
     <use xlink:href="#m0d45d97a24" x="156.741285" y="175.087324" style="stroke: #000000"/>
    </g>
   </g>
   <g id="PathCollection_11">
    <defs>
     <path id="mdaec920fea" d="M -3 -0 
L 3 3 
L 3 -3 
z
" style="stroke: #ff8c00"/>
    </defs>
    <g clip-path="url(#p6a37fec5a5)">
     <use xlink:href="#mdaec920fea" x="114.192089" y="156.63436" style="fill: #ff8c00; stroke: #ff8c00"/>
     <use xlink:href="#mdaec920fea" x="119.441927" y="180.592428" style="fill: #ff8c00; stroke: #ff8c00"/>
     <use xlink:href="#mdaec920fea" x="166.342672" y="152.12572" style="fill: #ff8c00; stroke: #ff8c00"/>
     <use xlink:href="#mdaec920fea" x="215.626506" y="150.802593" style="fill: #ff8c00; stroke: #ff8c00"/>
     <use xlink:href="#mdaec920fea" x="119.905772" y="150.60916" style="fill: #ff8c00; stroke: #ff8c00"/>
     <use xlink:href="#mdaec920fea" x="117.774288" y="138.537599" style="fill: #ff8c00; stroke: #ff8c00"/>
     <use xlink:href="#mdaec920fea" x="154.63198" y="148.216374" style="fill: #ff8c00; stroke: #ff8c00"/>
     <use xlink:href="#mdaec920fea" x="98.298223" y="146.83198" style="fill: #ff8c00; stroke: #ff8c00"/>
     <use xlink:href="#mdaec920fea" x="164.793581" y="171.135057" style="fill: #ff8c00; stroke: #ff8c00"/>
     <use xlink:href="#mdaec920fea" x="128.315359" y="156.548858" style="fill: #ff8c00; stroke: #ff8c00"/>
     <use xlink:href="#mdaec920fea" x="165.395579" y="196.946111" style="fill: #ff8c00; stroke: #ff8c00"/>
     <use xlink:href="#mdaec920fea" x="137.333769" y="127.934168" style="fill: #ff8c00; stroke: #ff8c00"/>
     <use xlink:href="#mdaec920fea" x="145.624579" y="173.997512" style="fill: #ff8c00; stroke: #ff8c00"/>
     <use xlink:href="#mdaec920fea" x="141.930931" y="185.027686" style="fill: #ff8c00; stroke: #ff8c00"/>
     <use xlink:href="#mdaec920fea" x="155.940526" y="108.778448" style="fill: #ff8c00; stroke: #ff8c00"/>
     <use xlink:href="#mdaec920fea" x="168.37006" y="160.455374" style="fill: #ff8c00; stroke: #ff8c00"/>
     <use xlink:href="#mdaec920fea" x="132.866142" y="167.946098" style="fill: #ff8c00; stroke: #ff8c00"/>
     <use xlink:href="#mdaec920fea" x="150.316436" y="182.214517" style="fill: #ff8c00; stroke: #ff8c00"/>
     <use xlink:href="#mdaec920fea" x="132.286715" y="183.045962" style="fill: #ff8c00; stroke: #ff8c00"/>
     <use xlink:href="#mdaec920fea" x="113.777777" y="144.511982" style="fill: #ff8c00; stroke: #ff8c00"/>
     <use xlink:href="#mdaec920fea" x="171.643014" y="101.446031" style="fill: #ff8c00; stroke: #ff8c00"/>
     <use xlink:href="#mdaec920fea" x="196.135315" y="222.305575" style="fill: #ff8c00; stroke: #ff8c00"/>
     <use xlink:href="#mdaec920fea" x="121.788852" y="140.685084" style="fill: #ff8c00; stroke: #ff8c00"/>
     <use xlink:href="#mdaec920fea" x="138.763399" y="180.354571" style="fill: #ff8c00; stroke: #ff8c00"/>
     <use xlink:href="#mdaec920fea" x="102.595253" y="153.868847" style="fill: #ff8c00; stroke: #ff8c00"/>
     <use xlink:href="#mdaec920fea" x="149.340068" y="172.106753" style="fill: #ff8c00; stroke: #ff8c00"/>
     <use xlink:href="#mdaec920fea" x="117.197952" y="188.09717" style="fill: #ff8c00; stroke: #ff8c00"/>
     <use xlink:href="#mdaec920fea" x="77.180127" y="151.527362" style="fill: #ff8c00; stroke: #ff8c00"/>
     <use xlink:href="#mdaec920fea" x="120.574439" y="78.429028" style="fill: #ff8c00; stroke: #ff8c00"/>
     <use xlink:href="#mdaec920fea" x="166.309655" y="182.672239" style="fill: #ff8c00; stroke: #ff8c00"/>
     <use xlink:href="#mdaec920fea" x="204.765198" y="187.056787" style="fill: #ff8c00; stroke: #ff8c00"/>
     <use xlink:href="#mdaec920fea" x="125.223391" y="153.105419" style="fill: #ff8c00; stroke: #ff8c00"/>
     <use xlink:href="#mdaec920fea" x="93.039968" y="125.557268" style="fill: #ff8c00; stroke: #ff8c00"/>
     <use xlink:href="#mdaec920fea" x="96.145556" y="149.098862" style="fill: #ff8c00; stroke: #ff8c00"/>
     <use xlink:href="#mdaec920fea" x="168.203024" y="178.184764" style="fill: #ff8c00; stroke: #ff8c00"/>
     <use xlink:href="#mdaec920fea" x="90.448261" y="159.198369" style="fill: #ff8c00; stroke: #ff8c00"/>
     <use xlink:href="#mdaec920fea" x="95.707011" y="128.863176" style="fill: #ff8c00; stroke: #ff8c00"/>
     <use xlink:href="#mdaec920fea" x="152.809337" y="160.908081" style="fill: #ff8c00; stroke: #ff8c00"/>
     <use xlink:href="#mdaec920fea" x="153.907512" y="163.760858" style="fill: #ff8c00; stroke: #ff8c00"/>
     <use xlink:href="#mdaec920fea" x="207.339691" y="158.824153" style="fill: #ff8c00; stroke: #ff8c00"/>
     <use xlink:href="#mdaec920fea" x="170.099943" y="205.501405" style="fill: #ff8c00; stroke: #ff8c00"/>
     <use xlink:href="#mdaec920fea" x="80.221572" y="136.22999" style="fill: #ff8c00; stroke: #ff8c00"/>
     <use xlink:href="#mdaec920fea" x="217.845366" y="103.932483" style="fill: #ff8c00; stroke: #ff8c00"/>
     <use xlink:href="#mdaec920fea" x="145.674964" y="146.408088" style="fill: #ff8c00; stroke: #ff8c00"/>
     <use xlink:href="#mdaec920fea" x="156.46737" y="110.518953" style="fill: #ff8c00; stroke: #ff8c00"/>
     <use xlink:href="#mdaec920fea" x="107.336185" y="173.094424" style="fill: #ff8c00; stroke: #ff8c00"/>
     <use xlink:href="#mdaec920fea" x="164.041319" y="122.01182" style="fill: #ff8c00; stroke: #ff8c00"/>
     <use xlink:href="#mdaec920fea" x="127.823234" y="161.324091" style="fill: #ff8c00; stroke: #ff8c00"/>
     <use xlink:href="#mdaec920fea" x="237.602868" y="112.060564" style="fill: #ff8c00; stroke: #ff8c00"/>
     <use xlink:href="#mdaec920fea" x="148.934752" y="182.779966" style="fill: #ff8c00; stroke: #ff8c00"/>
     <use xlink:href="#mdaec920fea" x="174.157334" y="143.067503" style="fill: #ff8c00; stroke: #ff8c00"/>
     <use xlink:href="#mdaec920fea" x="203.554563" y="165.873586" style="fill: #ff8c00; stroke: #ff8c00"/>
     <use xlink:href="#mdaec920fea" x="127.18634" y="123.213929" style="fill: #ff8c00; stroke: #ff8c00"/>
     <use xlink:href="#mdaec920fea" x="178.598646" y="142.834602" style="fill: #ff8c00; stroke: #ff8c00"/>
     <use xlink:href="#mdaec920fea" x="140.737652" y="116.981789" style="fill: #ff8c00; stroke: #ff8c00"/>
     <use xlink:href="#mdaec920fea" x="111.084143" y="108.931084" style="fill: #ff8c00; stroke: #ff8c00"/>
     <use xlink:href="#mdaec920fea" x="115.002409" y="154.315452" style="fill: #ff8c00; stroke: #ff8c00"/>
     <use xlink:href="#mdaec920fea" x="137.165291" y="108.246149" style="fill: #ff8c00; stroke: #ff8c00"/>
     <use xlink:href="#mdaec920fea" x="131.823431" y="174.181814" style="fill: #ff8c00; stroke: #ff8c00"/>
     <use xlink:href="#mdaec920fea" x="147.813265" y="193.079722" style="fill: #ff8c00; stroke: #ff8c00"/>
     <use xlink:href="#mdaec920fea" x="172.806265" y="144.57737" style="fill: #ff8c00; stroke: #ff8c00"/>
     <use xlink:href="#mdaec920fea" x="88.547557" y="150.258032" style="fill: #ff8c00; stroke: #ff8c00"/>
     <use xlink:href="#mdaec920fea" x="135.298388" y="142.613031" style="fill: #ff8c00; stroke: #ff8c00"/>
     <use xlink:href="#mdaec920fea" x="111.298505" y="157.844838" style="fill: #ff8c00; stroke: #ff8c00"/>
    </g>
   </g>
   <g id="matplotlib.axis_1">
    <g id="xtick_1">
     <g id="line2d_1">
      <defs>
       <path id="mb45284a2f9" d="M 0 0 
L 0 3.5 
" style="stroke: #000000; stroke-width: 0.8"/>
      </defs>
      <g>
       <use xlink:href="#mb45284a2f9" x="57.560056" y="273.312" style="stroke: #000000; stroke-width: 0.8"/>
      </g>
     </g>
     <g id="text_1">
      <!-- −20 -->
      <g transform="translate(47.007712 287.910437) scale(0.1 -0.1)">
       <defs>
        <path id="DejaVuSans-2212" d="M 678 2272 
L 4684 2272 
L 4684 1741 
L 678 1741 
L 678 2272 
z
" transform="scale(0.015625)"/>
        <path id="DejaVuSans-32" d="M 1228 531 
L 3431 531 
L 3431 0 
L 469 0 
L 469 531 
Q 828 903 1448 1529 
Q 2069 2156 2228 2338 
Q 2531 2678 2651 2914 
Q 2772 3150 2772 3378 
Q 2772 3750 2511 3984 
Q 2250 4219 1831 4219 
Q 1534 4219 1204 4116 
Q 875 4013 500 3803 
L 500 4441 
Q 881 4594 1212 4672 
Q 1544 4750 1819 4750 
Q 2544 4750 2975 4387 
Q 3406 4025 3406 3419 
Q 3406 3131 3298 2873 
Q 3191 2616 2906 2266 
Q 2828 2175 2409 1742 
Q 1991 1309 1228 531 
z
" transform="scale(0.015625)"/>
        <path id="DejaVuSans-30" d="M 2034 4250 
Q 1547 4250 1301 3770 
Q 1056 3291 1056 2328 
Q 1056 1369 1301 889 
Q 1547 409 2034 409 
Q 2525 409 2770 889 
Q 3016 1369 3016 2328 
Q 3016 3291 2770 3770 
Q 2525 4250 2034 4250 
z
M 2034 4750 
Q 2819 4750 3233 4129 
Q 3647 3509 3647 2328 
Q 3647 1150 3233 529 
Q 2819 -91 2034 -91 
Q 1250 -91 836 529 
Q 422 1150 422 2328 
Q 422 3509 836 4129 
Q 1250 4750 2034 4750 
z
" transform="scale(0.015625)"/>
       </defs>
       <use xlink:href="#DejaVuSans-2212"/>
       <use xlink:href="#DejaVuSans-32" x="83.789062"/>
       <use xlink:href="#DejaVuSans-30" x="147.412109"/>
      </g>
     </g>
    </g>
    <g id="xtick_2">
     <g id="line2d_2">
      <g>
       <use xlink:href="#mb45284a2f9" x="115.893345" y="273.312" style="stroke: #000000; stroke-width: 0.8"/>
      </g>
     </g>
     <g id="text_2">
      <!-- −10 -->
      <g transform="translate(105.341001 287.910437) scale(0.1 -0.1)">
       <defs>
        <path id="DejaVuSans-31" d="M 794 531 
L 1825 531 
L 1825 4091 
L 703 3866 
L 703 4441 
L 1819 4666 
L 2450 4666 
L 2450 531 
L 3481 531 
L 3481 0 
L 794 0 
L 794 531 
z
" transform="scale(0.015625)"/>
       </defs>
       <use xlink:href="#DejaVuSans-2212"/>
       <use xlink:href="#DejaVuSans-31" x="83.789062"/>
       <use xlink:href="#DejaVuSans-30" x="147.412109"/>
      </g>
     </g>
    </g>
    <g id="xtick_3">
     <g id="line2d_3">
      <g>
       <use xlink:href="#mb45284a2f9" x="174.226633" y="273.312" style="stroke: #000000; stroke-width: 0.8"/>
      </g>
     </g>
     <g id="text_3">
      <!-- 0 -->
      <g transform="translate(171.045383 287.910437) scale(0.1 -0.1)">
       <use xlink:href="#DejaVuSans-30"/>
      </g>
     </g>
    </g>
    <g id="xtick_4">
     <g id="line2d_4">
      <g>
       <use xlink:href="#mb45284a2f9" x="232.559922" y="273.312" style="stroke: #000000; stroke-width: 0.8"/>
      </g>
     </g>
     <g id="text_4">
      <!-- 10 -->
      <g transform="translate(226.197422 287.910437) scale(0.1 -0.1)">
       <use xlink:href="#DejaVuSans-31"/>
       <use xlink:href="#DejaVuSans-30" x="63.623047"/>
      </g>
     </g>
    </g>
    <g id="xtick_5">
     <g id="line2d_5">
      <g>
       <use xlink:href="#mb45284a2f9" x="290.893211" y="273.312" style="stroke: #000000; stroke-width: 0.8"/>
      </g>
     </g>
     <g id="text_5">
      <!-- 20 -->
      <g transform="translate(284.530711 287.910437) scale(0.1 -0.1)">
       <use xlink:href="#DejaVuSans-32"/>
       <use xlink:href="#DejaVuSans-30" x="63.623047"/>
      </g>
     </g>
    </g>
    <g id="xtick_6">
     <g id="line2d_6">
      <g>
       <use xlink:href="#mb45284a2f9" x="349.226499" y="273.312" style="stroke: #000000; stroke-width: 0.8"/>
      </g>
     </g>
     <g id="text_6">
      <!-- 30 -->
      <g transform="translate(342.863999 287.910437) scale(0.1 -0.1)">
       <defs>
        <path id="DejaVuSans-33" d="M 2597 2516 
Q 3050 2419 3304 2112 
Q 3559 1806 3559 1356 
Q 3559 666 3084 287 
Q 2609 -91 1734 -91 
Q 1441 -91 1130 -33 
Q 819 25 488 141 
L 488 750 
Q 750 597 1062 519 
Q 1375 441 1716 441 
Q 2309 441 2620 675 
Q 2931 909 2931 1356 
Q 2931 1769 2642 2001 
Q 2353 2234 1838 2234 
L 1294 2234 
L 1294 2753 
L 1863 2753 
Q 2328 2753 2575 2939 
Q 2822 3125 2822 3475 
Q 2822 3834 2567 4026 
Q 2313 4219 1838 4219 
Q 1578 4219 1281 4162 
Q 984 4106 628 3988 
L 628 4550 
Q 988 4650 1302 4700 
Q 1616 4750 1894 4750 
Q 2613 4750 3031 4423 
Q 3450 4097 3450 3541 
Q 3450 3153 3228 2886 
Q 3006 2619 2597 2516 
z
" transform="scale(0.015625)"/>
       </defs>
       <use xlink:href="#DejaVuSans-33"/>
       <use xlink:href="#DejaVuSans-30" x="63.623047"/>
      </g>
     </g>
    </g>
   </g>
   <g id="matplotlib.axis_2">
    <g id="ytick_1">
     <g id="line2d_7">
      <defs>
       <path id="m79ea8d3bfe" d="M 0 0 
L -3.5 0 
" style="stroke: #000000; stroke-width: 0.8"/>
      </defs>
      <g>
       <use xlink:href="#m79ea8d3bfe" x="35.304688" y="246.96159" style="stroke: #000000; stroke-width: 0.8"/>
      </g>
     </g>
     <g id="text_7">
      <!-- −20 -->
      <g transform="translate(7.2 250.760808) scale(0.1 -0.1)">
       <use xlink:href="#DejaVuSans-2212"/>
       <use xlink:href="#DejaVuSans-32" x="83.789062"/>
       <use xlink:href="#DejaVuSans-30" x="147.412109"/>
      </g>
     </g>
    </g>
    <g id="ytick_2">
     <g id="line2d_8">
      <g>
       <use xlink:href="#m79ea8d3bfe" x="35.304688" y="197.470896" style="stroke: #000000; stroke-width: 0.8"/>
      </g>
     </g>
     <g id="text_8">
      <!-- −10 -->
      <g transform="translate(7.2 201.270115) scale(0.1 -0.1)">
       <use xlink:href="#DejaVuSans-2212"/>
       <use xlink:href="#DejaVuSans-31" x="83.789062"/>
       <use xlink:href="#DejaVuSans-30" x="147.412109"/>
      </g>
     </g>
    </g>
    <g id="ytick_3">
     <g id="line2d_9">
      <g>
       <use xlink:href="#m79ea8d3bfe" x="35.304688" y="147.980203" style="stroke: #000000; stroke-width: 0.8"/>
      </g>
     </g>
     <g id="text_9">
      <!-- 0 -->
      <g transform="translate(21.942187 151.779422) scale(0.1 -0.1)">
       <use xlink:href="#DejaVuSans-30"/>
      </g>
     </g>
    </g>
    <g id="ytick_4">
     <g id="line2d_10">
      <g>
       <use xlink:href="#m79ea8d3bfe" x="35.304688" y="98.48951" style="stroke: #000000; stroke-width: 0.8"/>
      </g>
     </g>
     <g id="text_10">
      <!-- 10 -->
      <g transform="translate(15.579687 102.288729) scale(0.1 -0.1)">
       <use xlink:href="#DejaVuSans-31"/>
       <use xlink:href="#DejaVuSans-30" x="63.623047"/>
      </g>
     </g>
    </g>
    <g id="ytick_5">
     <g id="line2d_11">
      <g>
       <use xlink:href="#m79ea8d3bfe" x="35.304688" y="48.998817" style="stroke: #000000; stroke-width: 0.8"/>
      </g>
     </g>
     <g id="text_11">
      <!-- 20 -->
      <g transform="translate(15.579687 52.798036) scale(0.1 -0.1)">
       <use xlink:href="#DejaVuSans-32"/>
       <use xlink:href="#DejaVuSans-30" x="63.623047"/>
      </g>
     </g>
    </g>
   </g>
   <g id="patch_3">
    <path d="M 35.304688 273.312 
L 35.304688 7.2 
" style="fill: none; stroke: #000000; stroke-width: 0.8; stroke-linejoin: miter; stroke-linecap: square"/>
   </g>
   <g id="patch_4">
    <path d="M 392.424688 273.312 
L 392.424688 7.2 
" style="fill: none; stroke: #000000; stroke-width: 0.8; stroke-linejoin: miter; stroke-linecap: square"/>
   </g>
   <g id="patch_5">
    <path d="M 35.304688 273.312 
L 392.424688 273.312 
" style="fill: none; stroke: #000000; stroke-width: 0.8; stroke-linejoin: miter; stroke-linecap: square"/>
   </g>
   <g id="patch_6">
    <path d="M 35.304688 7.2 
L 392.424688 7.2 
" style="fill: none; stroke: #000000; stroke-width: 0.8; stroke-linejoin: miter; stroke-linecap: square"/>
   </g>
  </g>
 </g>
 <defs>
  <clipPath id="p6a37fec5a5">
   <rect x="35.304688" y="7.2" width="357.12" height="266.112"/>
  </clipPath>
 </defs>
</svg>
