<?xml version="1.0" encoding="utf-8" standalone="no"?>
<!DOCTYPE svg PUBLIC "-//W3C//DTD SVG 1.1//EN"
  "http://www.w3.org/Graphics/SVG/1.1/DTD/svg11.dtd">
<svg xmlns:xlink="http://www.w3.org/1999/xlink" width="399.624687pt" height="297.190125pt" viewBox="0 0 399.624687 297.190125" xmlns="http://www.w3.org/2000/svg" version="1.1">
 <metadata>
  <rdf:RDF xmlns:dc="http://purl.org/dc/elements/1.1/" xmlns:cc="http://creativecommons.org/ns#" xmlns:rdf="http://www.w3.org/1999/02/22-rdf-syntax-ns#">
   <cc:Work>
    <dc:type rdf:resource="http://purl.org/dc/dcmitype/StillImage"/>
    <dc:date>2023-11-11T02:05:07.116552</dc:date>
    <dc:format>image/svg+xml</dc:format>
    <dc:creator>
     <cc:Agent>
      <dc:title>Matplotlib v3.8.0, https://matplotlib.org/</dc:title>
     </cc:Agent>
    </dc:creator>
   </cc:Work>
  </rdf:RDF>
 </metadata>
 <defs>
  <style type="text/css">*{stroke-linejoin: round; stroke-linecap: butt}</style>
 </defs>
 <g id="figure_1">
  <g id="patch_1">
   <path d="M 0 297.190125 
L 399.624687 297.190125 
L 399.624687 0 
L 0 0 
z
" style="fill: #ffffff"/>
  </g>
  <g id="axes_1">
   <g id="patch_2">
    <path d="M 35.304688 273.312 
L 392.424688 273.312 
L 392.424688 7.2 
L 35.304688 7.2 
z
" style="fill: #ffffff"/>
   </g>
   <g id="PathCollection_1">
    <defs>
     <path id="m4fe6eea08b" d="M 0 1.5 
C 0.397805 1.5 0.77937 1.341951 1.06066 1.06066 
C 1.341951 0.77937 1.5 0.397805 1.5 0 
C 1.5 -0.397805 1.341951 -0.77937 1.06066 -1.06066 
C 0.77937 -1.341951 0.397805 -1.5 0 -1.5 
C -0.397805 -1.5 -0.77937 -1.341951 -1.06066 -1.06066 
C -1.341951 -0.77937 -1.5 -0.397805 -1.5 0 
C -1.5 0.397805 -1.341951 0.77937 -1.06066 1.06066 
C -0.77937 1.341951 -0.397805 1.5 0 1.5 
z
" style="stroke: #ff8c00"/>
    </defs>
    <g clip-path="url(#pdb1646adf1)">
     <use xlink:href="#m4fe6eea08b" x="232.788526" y="185.494672" style="fill: #ff8c00; stroke: #ff8c00"/>
     <use xlink:href="#m4fe6eea08b" x="186.406767" y="231.396739" style="fill: #ff8c00; stroke: #ff8c00"/>
     <use xlink:href="#m4fe6eea08b" x="230.073903" y="112.07812" style="fill: #ff8c00; stroke: #ff8c00"/>
     <use xlink:href="#m4fe6eea08b" x="188.026028" y="144.740681" style="fill: #ff8c00; stroke: #ff8c00"/>
     <use xlink:href="#m4fe6eea08b" x="247.987414" y="120.152859" style="fill: #ff8c00; stroke: #ff8c00"/>
     <use xlink:href="#m4fe6eea08b" x="195.886282" y="184.429514" style="fill: #ff8c00; stroke: #ff8c00"/>
     <use xlink:href="#m4fe6eea08b" x="203.096468" y="241.777333" style="fill: #ff8c00; stroke: #ff8c00"/>
     <use xlink:href="#m4fe6eea08b" x="214.754793" y="127.077209" style="fill: #ff8c00; stroke: #ff8c00"/>
     <use xlink:href="#m4fe6eea08b" x="256.961632" y="205.882887" style="fill: #ff8c00; stroke: #ff8c00"/>
     <use xlink:href="#m4fe6eea08b" x="222.580008" y="183.691559" style="fill: #ff8c00; stroke: #ff8c00"/>
     <use xlink:href="#m4fe6eea08b" x="229.502451" y="236.970262" style="fill: #ff8c00; stroke: #ff8c00"/>
    </g>
   </g>
   <g id="PathCollection_2">
    <defs>
     <path id="m0f2a385091" d="M 0 1.5 
C 0.397805 1.5 0.77937 1.341951 1.06066 1.06066 
C 1.341951 0.77937 1.5 0.397805 1.5 0 
C 1.5 -0.397805 1.341951 -0.77937 1.06066 -1.06066 
C 0.77937 -1.341951 0.397805 -1.5 0 -1.5 
C -0.397805 -1.5 -0.77937 -1.341951 -1.06066 -1.06066 
C -1.341951 -0.77937 -1.5 -0.397805 -1.5 0 
C -1.5 0.397805 -1.341951 0.77937 -1.06066 1.06066 
C -0.77937 1.341951 -0.397805 1.5 0 1.5 
z
" style="stroke: #006400"/>
    </defs>
    <g clip-path="url(#pdb1646adf1)">
     <use xlink:href="#m0f2a385091" x="186.742804" y="113.570765" style="fill: #006400; stroke: #006400"/>
     <use xlink:href="#m0f2a385091" x="206.407376" y="162.732781" style="fill: #006400; stroke: #006400"/>
     <use xlink:href="#m0f2a385091" x="231.193912" y="136.217885" style="fill: #006400; stroke: #006400"/>
     <use xlink:href="#m0f2a385091" x="163.031026" y="94.119667" style="fill: #006400; stroke: #006400"/>
     <use xlink:href="#m0f2a385091" x="175.730337" y="104.597595" style="fill: #006400; stroke: #006400"/>
     <use xlink:href="#m0f2a385091" x="207.188132" y="88.211574" style="fill: #006400; stroke: #006400"/>
     <use xlink:href="#m0f2a385091" x="274.358118" y="88.06122" style="fill: #006400; stroke: #006400"/>
     <use xlink:href="#m0f2a385091" x="294.122531" y="40.209652" style="fill: #006400; stroke: #006400"/>
     <use xlink:href="#m0f2a385091" x="207.060241" y="144.817923" style="fill: #006400; stroke: #006400"/>
     <use xlink:href="#m0f2a385091" x="228.74178" y="98.469921" style="fill: #006400; stroke: #006400"/>
     <use xlink:href="#m0f2a385091" x="217.522025" y="88.708393" style="fill: #006400; stroke: #006400"/>
     <use xlink:href="#m0f2a385091" x="243.618827" y="160.247226" style="fill: #006400; stroke: #006400"/>
     <use xlink:href="#m0f2a385091" x="194.312098" y="100.623719" style="fill: #006400; stroke: #006400"/>
     <use xlink:href="#m0f2a385091" x="247.604822" y="64.134907" style="fill: #006400; stroke: #006400"/>
     <use xlink:href="#m0f2a385091" x="287.770794" y="68.338047" style="fill: #006400; stroke: #006400"/>
    </g>
   </g>
   <g id="PathCollection_3">
    <defs>
     <path id="m30aba5c3ca" d="M 0 1.5 
C 0.397805 1.5 0.77937 1.341951 1.06066 1.06066 
C 1.341951 0.77937 1.5 0.397805 1.5 0 
C 1.5 -0.397805 1.341951 -0.77937 1.06066 -1.06066 
C 0.77937 -1.341951 0.397805 -1.5 0 -1.5 
C -0.397805 -1.5 -0.77937 -1.341951 -1.06066 -1.06066 
C -1.341951 -0.77937 -1.5 -0.397805 -1.5 0 
C -1.5 0.397805 -1.341951 0.77937 -1.06066 1.06066 
C -0.77937 1.341951 -0.397805 1.5 0 1.5 
z
" style="stroke: #2f4f4f"/>
    </defs>
    <g clip-path="url(#pdb1646adf1)">
     <use xlink:href="#m30aba5c3ca" x="107.040964" y="171.186631" style="fill: #2f4f4f; stroke: #2f4f4f"/>
     <use xlink:href="#m30aba5c3ca" x="107.395634" y="155.753384" style="fill: #2f4f4f; stroke: #2f4f4f"/>
     <use xlink:href="#m30aba5c3ca" x="194.962688" y="195.245889" style="fill: #2f4f4f; stroke: #2f4f4f"/>
     <use xlink:href="#m30aba5c3ca" x="109.149779" y="127.203351" style="fill: #2f4f4f; stroke: #2f4f4f"/>
     <use xlink:href="#m30aba5c3ca" x="112.766308" y="135.95724" style="fill: #2f4f4f; stroke: #2f4f4f"/>
     <use xlink:href="#m30aba5c3ca" x="126.396158" y="127.407235" style="fill: #2f4f4f; stroke: #2f4f4f"/>
     <use xlink:href="#m30aba5c3ca" x="125.220649" y="166.422432" style="fill: #2f4f4f; stroke: #2f4f4f"/>
     <use xlink:href="#m30aba5c3ca" x="165.632659" y="157.23704" style="fill: #2f4f4f; stroke: #2f4f4f"/>
     <use xlink:href="#m30aba5c3ca" x="126.808923" y="261.216" style="fill: #2f4f4f; stroke: #2f4f4f"/>
     <use xlink:href="#m30aba5c3ca" x="134.472665" y="174.994187" style="fill: #2f4f4f; stroke: #2f4f4f"/>
     <use xlink:href="#m30aba5c3ca" x="111.772597" y="142.58036" style="fill: #2f4f4f; stroke: #2f4f4f"/>
     <use xlink:href="#m30aba5c3ca" x="171.464238" y="145.861864" style="fill: #2f4f4f; stroke: #2f4f4f"/>
     <use xlink:href="#m30aba5c3ca" x="185.982641" y="179.441992" style="fill: #2f4f4f; stroke: #2f4f4f"/>
    </g>
   </g>
   <g id="PathCollection_4">
    <defs>
     <path id="m7dc10ea81a" d="M 0 1.5 
C 0.397805 1.5 0.77937 1.341951 1.06066 1.06066 
C 1.341951 0.77937 1.5 0.397805 1.5 0 
C 1.5 -0.397805 1.341951 -0.77937 1.06066 -1.06066 
C 0.77937 -1.341951 0.397805 -1.5 0 -1.5 
C -0.397805 -1.5 -0.77937 -1.341951 -1.06066 -1.06066 
C -1.341951 -0.77937 -1.5 -0.397805 -1.5 0 
C -1.5 0.397805 -1.341951 0.77937 -1.06066 1.06066 
C -0.77937 1.341951 -0.397805 1.5 0 1.5 
z
" style="stroke: #00bfff"/>
    </defs>
    <g clip-path="url(#pdb1646adf1)">
     <use xlink:href="#m7dc10ea81a" x="145.326821" y="184.202188" style="fill: #00bfff; stroke: #00bfff"/>
     <use xlink:href="#m7dc10ea81a" x="84.797505" y="195.180109" style="fill: #00bfff; stroke: #00bfff"/>
     <use xlink:href="#m7dc10ea81a" x="145.799959" y="198.683069" style="fill: #00bfff; stroke: #00bfff"/>
     <use xlink:href="#m7dc10ea81a" x="157.757601" y="154.43842" style="fill: #00bfff; stroke: #00bfff"/>
     <use xlink:href="#m7dc10ea81a" x="165.286103" y="122.952029" style="fill: #00bfff; stroke: #00bfff"/>
     <use xlink:href="#m7dc10ea81a" x="110.377834" y="129.905633" style="fill: #00bfff; stroke: #00bfff"/>
     <use xlink:href="#m7dc10ea81a" x="147.511079" y="138.746791" style="fill: #00bfff; stroke: #00bfff"/>
     <use xlink:href="#m7dc10ea81a" x="127.989019" y="168.917328" style="fill: #00bfff; stroke: #00bfff"/>
     <use xlink:href="#m7dc10ea81a" x="90.183583" y="156.922053" style="fill: #00bfff; stroke: #00bfff"/>
     <use xlink:href="#m7dc10ea81a" x="97.210004" y="110.492992" style="fill: #00bfff; stroke: #00bfff"/>
     <use xlink:href="#m7dc10ea81a" x="149.431905" y="152.880966" style="fill: #00bfff; stroke: #00bfff"/>
     <use xlink:href="#m7dc10ea81a" x="156.027075" y="140.737409" style="fill: #00bfff; stroke: #00bfff"/>
     <use xlink:href="#m7dc10ea81a" x="60.708151" y="150.627741" style="fill: #00bfff; stroke: #00bfff"/>
     <use xlink:href="#m7dc10ea81a" x="112.948545" y="136.032517" style="fill: #00bfff; stroke: #00bfff"/>
     <use xlink:href="#m7dc10ea81a" x="84.322299" y="130.171341" style="fill: #00bfff; stroke: #00bfff"/>
    </g>
   </g>
   <g id="PathCollection_5">
    <defs>
     <path id="m4a3a687e79" d="M 0 1.5 
C 0.397805 1.5 0.77937 1.341951 1.06066 1.06066 
C 1.341951 0.77937 1.5 0.397805 1.5 0 
C 1.5 -0.397805 1.341951 -0.77937 1.06066 -1.06066 
C 0.77937 -1.341951 0.397805 -1.5 0 -1.5 
C -0.397805 -1.5 -0.77937 -1.341951 -1.06066 -1.06066 
C -1.341951 -0.77937 -1.5 -0.397805 -1.5 0 
C -1.5 0.397805 -1.341951 0.77937 -1.06066 1.06066 
C -0.77937 1.341951 -0.397805 1.5 0 1.5 
z
" style="stroke: #ffff00"/>
    </defs>
    <g clip-path="url(#pdb1646adf1)">
     <use xlink:href="#m4a3a687e79" x="107.338625" y="167.937102" style="fill: #ffff00; stroke: #ffff00"/>
     <use xlink:href="#m4a3a687e79" x="86.412131" y="186.068459" style="fill: #ffff00; stroke: #ffff00"/>
     <use xlink:href="#m4a3a687e79" x="105.991317" y="169.332949" style="fill: #ffff00; stroke: #ffff00"/>
     <use xlink:href="#m4a3a687e79" x="60.361883" y="173.466438" style="fill: #ffff00; stroke: #ffff00"/>
     <use xlink:href="#m4a3a687e79" x="93.190217" y="137.591455" style="fill: #ffff00; stroke: #ffff00"/>
     <use xlink:href="#m4a3a687e79" x="97.358717" y="131.735323" style="fill: #ffff00; stroke: #ffff00"/>
     <use xlink:href="#m4a3a687e79" x="67.425276" y="112.18893" style="fill: #ffff00; stroke: #ffff00"/>
     <use xlink:href="#m4a3a687e79" x="212.305299" y="206.241461" style="fill: #ffff00; stroke: #ffff00"/>
     <use xlink:href="#m4a3a687e79" x="180.301407" y="175.476348" style="fill: #ffff00; stroke: #ffff00"/>
     <use xlink:href="#m4a3a687e79" x="199.378786" y="199.219091" style="fill: #ffff00; stroke: #ffff00"/>
     <use xlink:href="#m4a3a687e79" x="113.01213" y="155.744461" style="fill: #ffff00; stroke: #ffff00"/>
     <use xlink:href="#m4a3a687e79" x="106.807379" y="123.612678" style="fill: #ffff00; stroke: #ffff00"/>
     <use xlink:href="#m4a3a687e79" x="118.706785" y="158.346514" style="fill: #ffff00; stroke: #ffff00"/>
     <use xlink:href="#m4a3a687e79" x="143.282972" y="113.330846" style="fill: #ffff00; stroke: #ffff00"/>
     <use xlink:href="#m4a3a687e79" x="103.789116" y="142.323957" style="fill: #ffff00; stroke: #ffff00"/>
     <use xlink:href="#m4a3a687e79" x="83.719137" y="133.766711" style="fill: #ffff00; stroke: #ffff00"/>
    </g>
   </g>
   <g id="PathCollection_6">
    <defs>
     <path id="md6df15ced7" d="M 0 1.5 
C 0.397805 1.5 0.77937 1.341951 1.06066 1.06066 
C 1.341951 0.77937 1.5 0.397805 1.5 0 
C 1.5 -0.397805 1.341951 -0.77937 1.06066 -1.06066 
C 0.77937 -1.341951 0.397805 -1.5 0 -1.5 
C -0.397805 -1.5 -0.77937 -1.341951 -1.06066 -1.06066 
C -1.341951 -0.77937 -1.5 -0.397805 -1.5 0 
C -1.5 0.397805 -1.341951 0.77937 -1.06066 1.06066 
C -0.77937 1.341951 -0.397805 1.5 0 1.5 
z
" style="stroke: #00ffff"/>
    </defs>
    <g clip-path="url(#pdb1646adf1)">
     <use xlink:href="#md6df15ced7" x="101.173725" y="114.095262" style="fill: #00ffff; stroke: #00ffff"/>
     <use xlink:href="#md6df15ced7" x="105.98226" y="130.417437" style="fill: #00ffff; stroke: #00ffff"/>
     <use xlink:href="#md6df15ced7" x="78.758754" y="161.326271" style="fill: #00ffff; stroke: #00ffff"/>
     <use xlink:href="#md6df15ced7" x="157.522229" y="249.871776" style="fill: #00ffff; stroke: #00ffff"/>
     <use xlink:href="#md6df15ced7" x="96.628411" y="163.597386" style="fill: #00ffff; stroke: #00ffff"/>
     <use xlink:href="#md6df15ced7" x="158.85785" y="208.849805" style="fill: #00ffff; stroke: #00ffff"/>
     <use xlink:href="#md6df15ced7" x="123.146908" y="188.68151" style="fill: #00ffff; stroke: #00ffff"/>
     <use xlink:href="#md6df15ced7" x="67.037992" y="124.371193" style="fill: #00ffff; stroke: #00ffff"/>
     <use xlink:href="#md6df15ced7" x="70.946143" y="104.852037" style="fill: #00ffff; stroke: #00ffff"/>
     <use xlink:href="#md6df15ced7" x="87.42103" y="97.173582" style="fill: #00ffff; stroke: #00ffff"/>
     <use xlink:href="#md6df15ced7" x="157.435646" y="137.492852" style="fill: #00ffff; stroke: #00ffff"/>
     <use xlink:href="#md6df15ced7" x="111.624061" y="178.720195" style="fill: #00ffff; stroke: #00ffff"/>
     <use xlink:href="#md6df15ced7" x="92.755387" y="161.280768" style="fill: #00ffff; stroke: #00ffff"/>
     <use xlink:href="#md6df15ced7" x="161.432085" y="124.199074" style="fill: #00ffff; stroke: #00ffff"/>
    </g>
   </g>
   <g id="PathCollection_7">
    <defs>
     <path id="mebd28b28a4" d="M 0 1.5 
C 0.397805 1.5 0.77937 1.341951 1.06066 1.06066 
C 1.341951 0.77937 1.5 0.397805 1.5 0 
C 1.5 -0.397805 1.341951 -0.77937 1.06066 -1.06066 
C 0.77937 -1.341951 0.397805 -1.5 0 -1.5 
C -0.397805 -1.5 -0.77937 -1.341951 -1.06066 -1.06066 
C -1.341951 -0.77937 -1.5 -0.397805 -1.5 0 
C -1.5 0.397805 -1.341951 0.77937 -1.06066 1.06066 
C -0.77937 1.341951 -0.397805 1.5 0 1.5 
z
" style="stroke: #0000ff"/>
    </defs>
    <g clip-path="url(#pdb1646adf1)">
     <use xlink:href="#mebd28b28a4" x="145.322273" y="90.644586" style="fill: #0000ff; stroke: #0000ff"/>
     <use xlink:href="#mebd28b28a4" x="183.722152" y="144.595669" style="fill: #0000ff; stroke: #0000ff"/>
     <use xlink:href="#mebd28b28a4" x="99.279917" y="221.546446" style="fill: #0000ff; stroke: #0000ff"/>
     <use xlink:href="#mebd28b28a4" x="161.144602" y="126.324611" style="fill: #0000ff; stroke: #0000ff"/>
     <use xlink:href="#mebd28b28a4" x="133.907934" y="190.011531" style="fill: #0000ff; stroke: #0000ff"/>
     <use xlink:href="#mebd28b28a4" x="118.216541" y="133.465037" style="fill: #0000ff; stroke: #0000ff"/>
     <use xlink:href="#mebd28b28a4" x="113.439017" y="115.706406" style="fill: #0000ff; stroke: #0000ff"/>
     <use xlink:href="#mebd28b28a4" x="115.54547" y="176.09837" style="fill: #0000ff; stroke: #0000ff"/>
     <use xlink:href="#mebd28b28a4" x="126.931899" y="106.333158" style="fill: #0000ff; stroke: #0000ff"/>
     <use xlink:href="#mebd28b28a4" x="145.456936" y="185.636201" style="fill: #0000ff; stroke: #0000ff"/>
     <use xlink:href="#mebd28b28a4" x="158.193269" y="155.000969" style="fill: #0000ff; stroke: #0000ff"/>
     <use xlink:href="#mebd28b28a4" x="137.350584" y="170.190686" style="fill: #0000ff; stroke: #0000ff"/>
     <use xlink:href="#mebd28b28a4" x="108.304473" y="142.610861" style="fill: #0000ff; stroke: #0000ff"/>
     <use xlink:href="#mebd28b28a4" x="126.46348" y="106.685882" style="fill: #0000ff; stroke: #0000ff"/>
     <use xlink:href="#mebd28b28a4" x="74.962383" y="117.749004" style="fill: #0000ff; stroke: #0000ff"/>
     <use xlink:href="#mebd28b28a4" x="89.844565" y="114.07474" style="fill: #0000ff; stroke: #0000ff"/>
     <use xlink:href="#mebd28b28a4" x="139.113353" y="202.880776" style="fill: #0000ff; stroke: #0000ff"/>
     <use xlink:href="#mebd28b28a4" x="130.55566" y="135.513149" style="fill: #0000ff; stroke: #0000ff"/>
     <use xlink:href="#mebd28b28a4" x="179.806071" y="143.504032" style="fill: #0000ff; stroke: #0000ff"/>
     <use xlink:href="#mebd28b28a4" x="51.537415" y="165.271401" style="fill: #0000ff; stroke: #0000ff"/>
     <use xlink:href="#mebd28b28a4" x="103.182185" y="118.131314" style="fill: #0000ff; stroke: #0000ff"/>
     <use xlink:href="#mebd28b28a4" x="151.075569" y="158.325306" style="fill: #0000ff; stroke: #0000ff"/>
     <use xlink:href="#mebd28b28a4" x="132.85811" y="141.159383" style="fill: #0000ff; stroke: #0000ff"/>
    </g>
   </g>
   <g id="PathCollection_8">
    <defs>
     <path id="mb938a5cfe0" d="M 0 1.5 
C 0.397805 1.5 0.77937 1.341951 1.06066 1.06066 
C 1.341951 0.77937 1.5 0.397805 1.5 0 
C 1.5 -0.397805 1.341951 -0.77937 1.06066 -1.06066 
C 0.77937 -1.341951 0.397805 -1.5 0 -1.5 
C -0.397805 -1.5 -0.77937 -1.341951 -1.06066 -1.06066 
C -1.341951 -0.77937 -1.5 -0.397805 -1.5 0 
C -1.5 0.397805 -1.341951 0.77937 -1.06066 1.06066 
C -0.77937 1.341951 -0.397805 1.5 0 1.5 
z
" style="stroke: #dc143c"/>
    </defs>
    <g clip-path="url(#pdb1646adf1)">
     <use xlink:href="#mb938a5cfe0" x="160.565384" y="125.23429" style="fill: #dc143c; stroke: #dc143c"/>
     <use xlink:href="#mb938a5cfe0" x="79.565047" y="119.390882" style="fill: #dc143c; stroke: #dc143c"/>
     <use xlink:href="#mb938a5cfe0" x="85.608273" y="131.898412" style="fill: #dc143c; stroke: #dc143c"/>
     <use xlink:href="#mb938a5cfe0" x="144.123403" y="188.756661" style="fill: #dc143c; stroke: #dc143c"/>
     <use xlink:href="#mb938a5cfe0" x="101.102967" y="153.982508" style="fill: #dc143c; stroke: #dc143c"/>
     <use xlink:href="#mb938a5cfe0" x="96.999283" y="132.525993" style="fill: #dc143c; stroke: #dc143c"/>
     <use xlink:href="#mb938a5cfe0" x="131.619108" y="99.086984" style="fill: #dc143c; stroke: #dc143c"/>
     <use xlink:href="#mb938a5cfe0" x="139.611914" y="163.780246" style="fill: #dc143c; stroke: #dc143c"/>
     <use xlink:href="#mb938a5cfe0" x="155.514132" y="203.296217" style="fill: #dc143c; stroke: #dc143c"/>
     <use xlink:href="#mb938a5cfe0" x="84.134939" y="114.769236" style="fill: #dc143c; stroke: #dc143c"/>
     <use xlink:href="#mb938a5cfe0" x="165.914857" y="97.69286" style="fill: #dc143c; stroke: #dc143c"/>
     <use xlink:href="#mb938a5cfe0" x="60.722717" y="133.07728" style="fill: #dc143c; stroke: #dc143c"/>
     <use xlink:href="#mb938a5cfe0" x="158.178732" y="175.035485" style="fill: #dc143c; stroke: #dc143c"/>
    </g>
   </g>
   <g id="PathCollection_9">
    <defs>
     <path id="m69032f2822" d="M 0 1.5 
C 0.397805 1.5 0.77937 1.341951 1.06066 1.06066 
C 1.341951 0.77937 1.5 0.397805 1.5 0 
C 1.5 -0.397805 1.341951 -0.77937 1.06066 -1.06066 
C 0.77937 -1.341951 0.397805 -1.5 0 -1.5 
C -0.397805 -1.5 -0.77937 -1.341951 -1.06066 -1.06066 
C -1.341951 -0.77937 -1.5 -0.397805 -1.5 0 
C -1.5 0.397805 -1.341951 0.77937 -1.06066 1.06066 
C -0.77937 1.341951 -0.397805 1.5 0 1.5 
z
" style="stroke: #ffe4c4"/>
    </defs>
    <g clip-path="url(#pdb1646adf1)">
     <use xlink:href="#m69032f2822" x="227.208834" y="206.849709" style="fill: #ffe4c4; stroke: #ffe4c4"/>
     <use xlink:href="#m69032f2822" x="256.008136" y="115.077249" style="fill: #ffe4c4; stroke: #ffe4c4"/>
     <use xlink:href="#m69032f2822" x="226.06956" y="134.668639" style="fill: #ffe4c4; stroke: #ffe4c4"/>
     <use xlink:href="#m69032f2822" x="262.058517" y="92.363422" style="fill: #ffe4c4; stroke: #ffe4c4"/>
     <use xlink:href="#m69032f2822" x="209.687484" y="99.761869" style="fill: #ffe4c4; stroke: #ffe4c4"/>
     <use xlink:href="#m69032f2822" x="267.1094" y="112.484773" style="fill: #ffe4c4; stroke: #ffe4c4"/>
     <use xlink:href="#m69032f2822" x="318.198117" y="121.162989" style="fill: #ffe4c4; stroke: #ffe4c4"/>
     <use xlink:href="#m69032f2822" x="253.507361" y="142.777559" style="fill: #ffe4c4; stroke: #ffe4c4"/>
    </g>
   </g>
   <g id="PathCollection_10">
    <defs>
     <path id="m22b93ade21" d="M -2.99994 2.99994 
L 3.00006 2.99994 
L 3.00006 -3.00006 
L -2.99994 -3.00006 
z
" style="stroke: #000000"/>
    </defs>
    <g clip-path="url(#pdb1646adf1)">
     <use xlink:href="#m22b93ade21" x="261.785356" y="202.475982" style="stroke: #000000"/>
     <use xlink:href="#m22b93ade21" x="376.19196" y="140.574738" style="stroke: #000000"/>
     <use xlink:href="#m22b93ade21" x="236.689943" y="157.108312" style="stroke: #000000"/>
     <use xlink:href="#m22b93ade21" x="237.933739" y="84.398463" style="stroke: #000000"/>
     <use xlink:href="#m22b93ade21" x="244.914633" y="103.9234" style="stroke: #000000"/>
     <use xlink:href="#m22b93ade21" x="276.35001" y="235.44415" style="stroke: #000000"/>
     <use xlink:href="#m22b93ade21" x="239.01902" y="59.306415" style="stroke: #000000"/>
     <use xlink:href="#m22b93ade21" x="240.5722" y="230.222988" style="stroke: #000000"/>
     <use xlink:href="#m22b93ade21" x="292.032241" y="89.365404" style="stroke: #000000"/>
     <use xlink:href="#m22b93ade21" x="314.170274" y="85.711306" style="stroke: #000000"/>
     <use xlink:href="#m22b93ade21" x="289.062513" y="133.472329" style="stroke: #000000"/>
     <use xlink:href="#m22b93ade21" x="325.00798" y="170.099881" style="stroke: #000000"/>
     <use xlink:href="#m22b93ade21" x="242.547916" y="156.650152" style="stroke: #000000"/>
     <use xlink:href="#m22b93ade21" x="239.01902" y="59.306415" style="stroke: #000000"/>
     <use xlink:href="#m22b93ade21" x="316.273135" y="229.302444" style="stroke: #000000"/>
     <use xlink:href="#m22b93ade21" x="236.345782" y="164.490739" style="stroke: #000000"/>
     <use xlink:href="#m22b93ade21" x="235.805201" y="99.095599" style="stroke: #000000"/>
     <use xlink:href="#m22b93ade21" x="257.709447" y="149.95226" style="stroke: #000000"/>
     <use xlink:href="#m22b93ade21" x="339.253732" y="211.791297" style="stroke: #000000"/>
     <use xlink:href="#m22b93ade21" x="256.389566" y="95.200983" style="stroke: #000000"/>
     <use xlink:href="#m22b93ade21" x="276.231516" y="194.750532" style="stroke: #000000"/>
     <use xlink:href="#m22b93ade21" x="226.398201" y="106.993307" style="stroke: #000000"/>
     <use xlink:href="#m22b93ade21" x="298.620573" y="219.465025" style="stroke: #000000"/>
     <use xlink:href="#m22b93ade21" x="216.593136" y="189.02703" style="stroke: #000000"/>
     <use xlink:href="#m22b93ade21" x="266.282599" y="139.172045" style="stroke: #000000"/>
     <use xlink:href="#m22b93ade21" x="350.19066" y="126.77019" style="stroke: #000000"/>
     <use xlink:href="#m22b93ade21" x="161.194371" y="120.715969" style="stroke: #000000"/>
     <use xlink:href="#m22b93ade21" x="258.721758" y="192.266057" style="stroke: #000000"/>
     <use xlink:href="#m22b93ade21" x="330.076478" y="203.931554" style="stroke: #000000"/>
     <use xlink:href="#m22b93ade21" x="186.015048" y="161.14686" style="stroke: #000000"/>
     <use xlink:href="#m22b93ade21" x="290.950792" y="148.507404" style="stroke: #000000"/>
     <use xlink:href="#m22b93ade21" x="324.044861" y="207.05883" style="stroke: #000000"/>
     <use xlink:href="#m22b93ade21" x="144.967341" y="144.59539" style="stroke: #000000"/>
     <use xlink:href="#m22b93ade21" x="274.740632" y="148.648818" style="stroke: #000000"/>
     <use xlink:href="#m22b93ade21" x="230.271588" y="151.43673" style="stroke: #000000"/>
     <use xlink:href="#m22b93ade21" x="244.194914" y="96.632176" style="stroke: #000000"/>
     <use xlink:href="#m22b93ade21" x="292.160668" y="179.115097" style="stroke: #000000"/>
     <use xlink:href="#m22b93ade21" x="318.827074" y="72.872844" style="stroke: #000000"/>
     <use xlink:href="#m22b93ade21" x="319.352365" y="119.53073" style="stroke: #000000"/>
     <use xlink:href="#m22b93ade21" x="166.064044" y="109.507789" style="stroke: #000000"/>
     <use xlink:href="#m22b93ade21" x="198.051142" y="115.19376" style="stroke: #000000"/>
     <use xlink:href="#m22b93ade21" x="326.461107" y="110.873" style="stroke: #000000"/>
     <use xlink:href="#m22b93ade21" x="239.625323" y="158.503017" style="stroke: #000000"/>
     <use xlink:href="#m22b93ade21" x="283.634477" y="132.948309" style="stroke: #000000"/>
     <use xlink:href="#m22b93ade21" x="202.516628" y="78.438999" style="stroke: #000000"/>
     <use xlink:href="#m22b93ade21" x="185.979549" y="181.596146" style="stroke: #000000"/>
     <use xlink:href="#m22b93ade21" x="283.12775" y="96.954705" style="stroke: #000000"/>
     <use xlink:href="#m22b93ade21" x="237.644801" y="74.473487" style="stroke: #000000"/>
     <use xlink:href="#m22b93ade21" x="353.641901" y="164.039049" style="stroke: #000000"/>
     <use xlink:href="#m22b93ade21" x="334.687609" y="202.081616" style="stroke: #000000"/>
     <use xlink:href="#m22b93ade21" x="278.883179" y="143.810178" style="stroke: #000000"/>
     <use xlink:href="#m22b93ade21" x="244.792572" y="119.988554" style="stroke: #000000"/>
     <use xlink:href="#m22b93ade21" x="322.455362" y="220.370103" style="stroke: #000000"/>
     <use xlink:href="#m22b93ade21" x="289.277102" y="200.952945" style="stroke: #000000"/>
     <use xlink:href="#m22b93ade21" x="270.944811" y="92.391651" style="stroke: #000000"/>
     <use xlink:href="#m22b93ade21" x="268.88421" y="223.007933" style="stroke: #000000"/>
     <use xlink:href="#m22b93ade21" x="299.177739" y="156.752285" style="stroke: #000000"/>
     <use xlink:href="#m22b93ade21" x="168.15543" y="114.738917" style="stroke: #000000"/>
     <use xlink:href="#m22b93ade21" x="216.530147" y="122.273453" style="stroke: #000000"/>
     <use xlink:href="#m22b93ade21" x="299.202343" y="136.691202" style="stroke: #000000"/>
     <use xlink:href="#m22b93ade21" x="177.674908" y="70.731218" style="stroke: #000000"/>
     <use xlink:href="#m22b93ade21" x="325.521937" y="134.581243" style="stroke: #000000"/>
     <use xlink:href="#m22b93ade21" x="318.985654" y="122.064317" style="stroke: #000000"/>
     <use xlink:href="#m22b93ade21" x="329.055931" y="141.343484" style="stroke: #000000"/>
    </g>
   </g>
   <g id="PathCollection_11">
    <defs>
     <path id="m833a0f2924" d="M -3 -0 
L 3 3 
L 3 -3 
z
" style="stroke: #ff8c00"/>
    </defs>
    <g clip-path="url(#pdb1646adf1)">
     <use xlink:href="#m833a0f2924" x="256.861939" y="19.296" style="fill: #ff8c00; stroke: #ff8c00"/>
     <use xlink:href="#m833a0f2924" x="240.671335" y="124.958497" style="fill: #ff8c00; stroke: #ff8c00"/>
     <use xlink:href="#m833a0f2924" x="308.969632" y="181.957702" style="fill: #ff8c00; stroke: #ff8c00"/>
     <use xlink:href="#m833a0f2924" x="273.434621" y="108.154247" style="fill: #ff8c00; stroke: #ff8c00"/>
     <use xlink:href="#m833a0f2924" x="303.0612" y="171.913956" style="fill: #ff8c00; stroke: #ff8c00"/>
     <use xlink:href="#m833a0f2924" x="356.964925" y="186.329331" style="fill: #ff8c00; stroke: #ff8c00"/>
     <use xlink:href="#m833a0f2924" x="270.026169" y="132.23838" style="fill: #ff8c00; stroke: #ff8c00"/>
     <use xlink:href="#m833a0f2924" x="236.088663" y="145.026379" style="fill: #ff8c00; stroke: #ff8c00"/>
     <use xlink:href="#m833a0f2924" x="359.204346" y="149.216773" style="fill: #ff8c00; stroke: #ff8c00"/>
     <use xlink:href="#m833a0f2924" x="259.180873" y="84.222048" style="fill: #ff8c00; stroke: #ff8c00"/>
     <use xlink:href="#m833a0f2924" x="226.671992" y="135.505889" style="fill: #ff8c00; stroke: #ff8c00"/>
     <use xlink:href="#m833a0f2924" x="250.040997" y="159.914977" style="fill: #ff8c00; stroke: #ff8c00"/>
     <use xlink:href="#m833a0f2924" x="188.505041" y="129.168559" style="fill: #ff8c00; stroke: #ff8c00"/>
     <use xlink:href="#m833a0f2924" x="225.620076" y="185.929651" style="fill: #ff8c00; stroke: #ff8c00"/>
     <use xlink:href="#m833a0f2924" x="311.719222" y="174.637238" style="fill: #ff8c00; stroke: #ff8c00"/>
     <use xlink:href="#m833a0f2924" x="252.318758" y="151.875811" style="fill: #ff8c00; stroke: #ff8c00"/>
     <use xlink:href="#m833a0f2924" x="298.713448" y="95.684378" style="fill: #ff8c00; stroke: #ff8c00"/>
     <use xlink:href="#m833a0f2924" x="210.02654" y="93.96274" style="fill: #ff8c00; stroke: #ff8c00"/>
     <use xlink:href="#m833a0f2924" x="255.788391" y="157.900555" style="fill: #ff8c00; stroke: #ff8c00"/>
     <use xlink:href="#m833a0f2924" x="292.968734" y="170.415335" style="fill: #ff8c00; stroke: #ff8c00"/>
     <use xlink:href="#m833a0f2924" x="276.571515" y="148.447107" style="fill: #ff8c00; stroke: #ff8c00"/>
     <use xlink:href="#m833a0f2924" x="191.831231" y="134.968268" style="fill: #ff8c00; stroke: #ff8c00"/>
     <use xlink:href="#m833a0f2924" x="279.285677" y="149.791133" style="fill: #ff8c00; stroke: #ff8c00"/>
     <use xlink:href="#m833a0f2924" x="289.368021" y="77.988005" style="fill: #ff8c00; stroke: #ff8c00"/>
     <use xlink:href="#m833a0f2924" x="159.957714" y="177.351693" style="fill: #ff8c00; stroke: #ff8c00"/>
     <use xlink:href="#m833a0f2924" x="208.951268" y="102.276434" style="fill: #ff8c00; stroke: #ff8c00"/>
     <use xlink:href="#m833a0f2924" x="126.784031" y="120.368179" style="fill: #ff8c00; stroke: #ff8c00"/>
     <use xlink:href="#m833a0f2924" x="282.260837" y="124.069369" style="fill: #ff8c00; stroke: #ff8c00"/>
     <use xlink:href="#m833a0f2924" x="278.136265" y="126.039242" style="fill: #ff8c00; stroke: #ff8c00"/>
     <use xlink:href="#m833a0f2924" x="319.107014" y="159.492488" style="fill: #ff8c00; stroke: #ff8c00"/>
     <use xlink:href="#m833a0f2924" x="288.378707" y="184.735717" style="fill: #ff8c00; stroke: #ff8c00"/>
     <use xlink:href="#m833a0f2924" x="307.346879" y="170.893171" style="fill: #ff8c00; stroke: #ff8c00"/>
     <use xlink:href="#m833a0f2924" x="241.90381" y="170.200307" style="fill: #ff8c00; stroke: #ff8c00"/>
     <use xlink:href="#m833a0f2924" x="294.278082" y="123.401637" style="fill: #ff8c00; stroke: #ff8c00"/>
     <use xlink:href="#m833a0f2924" x="215.672044" y="164.313666" style="fill: #ff8c00; stroke: #ff8c00"/>
     <use xlink:href="#m833a0f2924" x="279.85101" y="153.760948" style="fill: #ff8c00; stroke: #ff8c00"/>
     <use xlink:href="#m833a0f2924" x="280.035766" y="150.133678" style="fill: #ff8c00; stroke: #ff8c00"/>
     <use xlink:href="#m833a0f2924" x="215.358978" y="137.098441" style="fill: #ff8c00; stroke: #ff8c00"/>
     <use xlink:href="#m833a0f2924" x="277.273219" y="199.986995" style="fill: #ff8c00; stroke: #ff8c00"/>
     <use xlink:href="#m833a0f2924" x="256.861939" y="19.296" style="fill: #ff8c00; stroke: #ff8c00"/>
     <use xlink:href="#m833a0f2924" x="244.72086" y="95.958119" style="fill: #ff8c00; stroke: #ff8c00"/>
     <use xlink:href="#m833a0f2924" x="281.793876" y="149.089859" style="fill: #ff8c00; stroke: #ff8c00"/>
     <use xlink:href="#m833a0f2924" x="235.556072" y="109.587757" style="fill: #ff8c00; stroke: #ff8c00"/>
     <use xlink:href="#m833a0f2924" x="309.041521" y="235.820399" style="fill: #ff8c00; stroke: #ff8c00"/>
     <use xlink:href="#m833a0f2924" x="133.018379" y="159.691278" style="fill: #ff8c00; stroke: #ff8c00"/>
     <use xlink:href="#m833a0f2924" x="152.813486" y="195.743644" style="fill: #ff8c00; stroke: #ff8c00"/>
     <use xlink:href="#m833a0f2924" x="257.15446" y="107.098143" style="fill: #ff8c00; stroke: #ff8c00"/>
     <use xlink:href="#m833a0f2924" x="220.221428" y="103.926728" style="fill: #ff8c00; stroke: #ff8c00"/>
     <use xlink:href="#m833a0f2924" x="196.379164" y="160.31269" style="fill: #ff8c00; stroke: #ff8c00"/>
     <use xlink:href="#m833a0f2924" x="171.965736" y="79.381349" style="fill: #ff8c00; stroke: #ff8c00"/>
     <use xlink:href="#m833a0f2924" x="235.478686" y="194.196676" style="fill: #ff8c00; stroke: #ff8c00"/>
     <use xlink:href="#m833a0f2924" x="181.122004" y="144.476968" style="fill: #ff8c00; stroke: #ff8c00"/>
     <use xlink:href="#m833a0f2924" x="245.014948" y="98.953617" style="fill: #ff8c00; stroke: #ff8c00"/>
     <use xlink:href="#m833a0f2924" x="300.87318" y="111.839245" style="fill: #ff8c00; stroke: #ff8c00"/>
     <use xlink:href="#m833a0f2924" x="235.478686" y="194.196676" style="fill: #ff8c00; stroke: #ff8c00"/>
     <use xlink:href="#m833a0f2924" x="262.15151" y="90.055703" style="fill: #ff8c00; stroke: #ff8c00"/>
     <use xlink:href="#m833a0f2924" x="349.069352" y="180.344031" style="fill: #ff8c00; stroke: #ff8c00"/>
     <use xlink:href="#m833a0f2924" x="261.209645" y="150.164248" style="fill: #ff8c00; stroke: #ff8c00"/>
     <use xlink:href="#m833a0f2924" x="239.792443" y="173.496852" style="fill: #ff8c00; stroke: #ff8c00"/>
     <use xlink:href="#m833a0f2924" x="262.961146" y="102.290805" style="fill: #ff8c00; stroke: #ff8c00"/>
     <use xlink:href="#m833a0f2924" x="251.573336" y="167.429266" style="fill: #ff8c00; stroke: #ff8c00"/>
     <use xlink:href="#m833a0f2924" x="250.69429" y="164.993932" style="fill: #ff8c00; stroke: #ff8c00"/>
     <use xlink:href="#m833a0f2924" x="259.569371" y="210.228545" style="fill: #ff8c00; stroke: #ff8c00"/>
     <use xlink:href="#m833a0f2924" x="186.936903" y="204.897655" style="fill: #ff8c00; stroke: #ff8c00"/>
    </g>
   </g>
   <g id="matplotlib.axis_1">
    <g id="xtick_1">
     <g id="line2d_1">
      <defs>
       <path id="m335f888f77" d="M 0 0 
L 0 3.5 
" style="stroke: #000000; stroke-width: 0.8"/>
      </defs>
      <g>
       <use xlink:href="#m335f888f77" x="68.262416" y="273.312" style="stroke: #000000; stroke-width: 0.8"/>
      </g>
     </g>
     <g id="text_1">
      <!-- −20 -->
      <g transform="translate(57.710072 287.910437) scale(0.1 -0.1)">
       <defs>
        <path id="DejaVuSans-2212" d="M 678 2272 
L 4684 2272 
L 4684 1741 
L 678 1741 
L 678 2272 
z
" transform="scale(0.015625)"/>
        <path id="DejaVuSans-32" d="M 1228 531 
L 3431 531 
L 3431 0 
L 469 0 
L 469 531 
Q 828 903 1448 1529 
Q 2069 2156 2228 2338 
Q 2531 2678 2651 2914 
Q 2772 3150 2772 3378 
Q 2772 3750 2511 3984 
Q 2250 4219 1831 4219 
Q 1534 4219 1204 4116 
Q 875 4013 500 3803 
L 500 4441 
Q 881 4594 1212 4672 
Q 1544 4750 1819 4750 
Q 2544 4750 2975 4387 
Q 3406 4025 3406 3419 
Q 3406 3131 3298 2873 
Q 3191 2616 2906 2266 
Q 2828 2175 2409 1742 
Q 1991 1309 1228 531 
z
" transform="scale(0.015625)"/>
        <path id="DejaVuSans-30" d="M 2034 4250 
Q 1547 4250 1301 3770 
Q 1056 3291 1056 2328 
Q 1056 1369 1301 889 
Q 1547 409 2034 409 
Q 2525 409 2770 889 
Q 3016 1369 3016 2328 
Q 3016 3291 2770 3770 
Q 2525 4250 2034 4250 
z
M 2034 4750 
Q 2819 4750 3233 4129 
Q 3647 3509 3647 2328 
Q 3647 1150 3233 529 
Q 2819 -91 2034 -91 
Q 1250 -91 836 529 
Q 422 1150 422 2328 
Q 422 3509 836 4129 
Q 1250 4750 2034 4750 
z
" transform="scale(0.015625)"/>
       </defs>
       <use xlink:href="#DejaVuSans-2212"/>
       <use xlink:href="#DejaVuSans-32" x="83.789062"/>
       <use xlink:href="#DejaVuSans-30" x="147.412109"/>
      </g>
     </g>
    </g>
    <g id="xtick_2">
     <g id="line2d_2">
      <g>
       <use xlink:href="#m335f888f77" x="136.878395" y="273.312" style="stroke: #000000; stroke-width: 0.8"/>
      </g>
     </g>
     <g id="text_2">
      <!-- −10 -->
      <g transform="translate(126.326051 287.910437) scale(0.1 -0.1)">
       <defs>
        <path id="DejaVuSans-31" d="M 794 531 
L 1825 531 
L 1825 4091 
L 703 3866 
L 703 4441 
L 1819 4666 
L 2450 4666 
L 2450 531 
L 3481 531 
L 3481 0 
L 794 0 
L 794 531 
z
" transform="scale(0.015625)"/>
       </defs>
       <use xlink:href="#DejaVuSans-2212"/>
       <use xlink:href="#DejaVuSans-31" x="83.789062"/>
       <use xlink:href="#DejaVuSans-30" x="147.412109"/>
      </g>
     </g>
    </g>
    <g id="xtick_3">
     <g id="line2d_3">
      <g>
       <use xlink:href="#m335f888f77" x="205.494374" y="273.312" style="stroke: #000000; stroke-width: 0.8"/>
      </g>
     </g>
     <g id="text_3">
      <!-- 0 -->
      <g transform="translate(202.313124 287.910437) scale(0.1 -0.1)">
       <use xlink:href="#DejaVuSans-30"/>
      </g>
     </g>
    </g>
    <g id="xtick_4">
     <g id="line2d_4">
      <g>
       <use xlink:href="#m335f888f77" x="274.110353" y="273.312" style="stroke: #000000; stroke-width: 0.8"/>
      </g>
     </g>
     <g id="text_4">
      <!-- 10 -->
      <g transform="translate(267.747853 287.910437) scale(0.1 -0.1)">
       <use xlink:href="#DejaVuSans-31"/>
       <use xlink:href="#DejaVuSans-30" x="63.623047"/>
      </g>
     </g>
    </g>
    <g id="xtick_5">
     <g id="line2d_5">
      <g>
       <use xlink:href="#m335f888f77" x="342.726332" y="273.312" style="stroke: #000000; stroke-width: 0.8"/>
      </g>
     </g>
     <g id="text_5">
      <!-- 20 -->
      <g transform="translate(336.363832 287.910437) scale(0.1 -0.1)">
       <use xlink:href="#DejaVuSans-32"/>
       <use xlink:href="#DejaVuSans-30" x="63.623047"/>
      </g>
     </g>
    </g>
   </g>
   <g id="matplotlib.axis_2">
    <g id="ytick_1">
     <g id="line2d_6">
      <defs>
       <path id="m65a30306cf" d="M 0 0 
L -3.5 0 
" style="stroke: #000000; stroke-width: 0.8"/>
      </defs>
      <g>
       <use xlink:href="#m65a30306cf" x="35.304688" y="247.257179" style="stroke: #000000; stroke-width: 0.8"/>
      </g>
     </g>
     <g id="text_6">
      <!-- −20 -->
      <g transform="translate(7.2 251.056398) scale(0.1 -0.1)">
       <use xlink:href="#DejaVuSans-2212"/>
       <use xlink:href="#DejaVuSans-32" x="83.789062"/>
       <use xlink:href="#DejaVuSans-30" x="147.412109"/>
      </g>
     </g>
    </g>
    <g id="ytick_2">
     <g id="line2d_7">
      <g>
       <use xlink:href="#m65a30306cf" x="35.304688" y="196.160873" style="stroke: #000000; stroke-width: 0.8"/>
      </g>
     </g>
     <g id="text_7">
      <!-- −10 -->
      <g transform="translate(7.2 199.960092) scale(0.1 -0.1)">
       <use xlink:href="#DejaVuSans-2212"/>
       <use xlink:href="#DejaVuSans-31" x="83.789062"/>
       <use xlink:href="#DejaVuSans-30" x="147.412109"/>
      </g>
     </g>
    </g>
    <g id="ytick_3">
     <g id="line2d_8">
      <g>
       <use xlink:href="#m65a30306cf" x="35.304688" y="145.064567" style="stroke: #000000; stroke-width: 0.8"/>
      </g>
     </g>
     <g id="text_8">
      <!-- 0 -->
      <g transform="translate(21.942187 148.863786) scale(0.1 -0.1)">
       <use xlink:href="#DejaVuSans-30"/>
      </g>
     </g>
    </g>
    <g id="ytick_4">
     <g id="line2d_9">
      <g>
       <use xlink:href="#m65a30306cf" x="35.304688" y="93.968261" style="stroke: #000000; stroke-width: 0.8"/>
      </g>
     </g>
     <g id="text_9">
      <!-- 10 -->
      <g transform="translate(15.579687 97.767479) scale(0.1 -0.1)">
       <use xlink:href="#DejaVuSans-31"/>
       <use xlink:href="#DejaVuSans-30" x="63.623047"/>
      </g>
     </g>
    </g>
    <g id="ytick_5">
     <g id="line2d_10">
      <g>
       <use xlink:href="#m65a30306cf" x="35.304688" y="42.871954" style="stroke: #000000; stroke-width: 0.8"/>
      </g>
     </g>
     <g id="text_10">
      <!-- 20 -->
      <g transform="translate(15.579687 46.671173) scale(0.1 -0.1)">
       <use xlink:href="#DejaVuSans-32"/>
       <use xlink:href="#DejaVuSans-30" x="63.623047"/>
      </g>
     </g>
    </g>
   </g>
   <g id="patch_3">
    <path d="M 35.304688 273.312 
L 35.304688 7.2 
" style="fill: none; stroke: #000000; stroke-width: 0.8; stroke-linejoin: miter; stroke-linecap: square"/>
   </g>
   <g id="patch_4">
    <path d="M 392.424688 273.312 
L 392.424688 7.2 
" style="fill: none; stroke: #000000; stroke-width: 0.8; stroke-linejoin: miter; stroke-linecap: square"/>
   </g>
   <g id="patch_5">
    <path d="M 35.304688 273.312 
L 392.424688 273.312 
" style="fill: none; stroke: #000000; stroke-width: 0.8; stroke-linejoin: miter; stroke-linecap: square"/>
   </g>
   <g id="patch_6">
    <path d="M 35.304688 7.2 
L 392.424688 7.2 
" style="fill: none; stroke: #000000; stroke-width: 0.8; stroke-linejoin: miter; stroke-linecap: square"/>
   </g>
  </g>
 </g>
 <defs>
  <clipPath id="pdb1646adf1">
   <rect x="35.304688" y="7.2" width="357.12" height="266.112"/>
  </clipPath>
 </defs>
</svg>
