<?xml version="1.0" encoding="utf-8" standalone="no"?>
<!DOCTYPE svg PUBLIC "-//W3C//DTD SVG 1.1//EN"
  "http://www.w3.org/Graphics/SVG/1.1/DTD/svg11.dtd">
<svg xmlns:xlink="http://www.w3.org/1999/xlink" width="399.624687pt" height="297.190125pt" viewBox="0 0 399.624687 297.190125" xmlns="http://www.w3.org/2000/svg" version="1.1">
 <metadata>
  <rdf:RDF xmlns:dc="http://purl.org/dc/elements/1.1/" xmlns:cc="http://creativecommons.org/ns#" xmlns:rdf="http://www.w3.org/1999/02/22-rdf-syntax-ns#">
   <cc:Work>
    <dc:type rdf:resource="http://purl.org/dc/dcmitype/StillImage"/>
    <dc:date>2023-11-13T19:08:18.280775</dc:date>
    <dc:format>image/svg+xml</dc:format>
    <dc:creator>
     <cc:Agent>
      <dc:title>Matplotlib v3.8.0, https://matplotlib.org/</dc:title>
     </cc:Agent>
    </dc:creator>
   </cc:Work>
  </rdf:RDF>
 </metadata>
 <defs>
  <style type="text/css">*{stroke-linejoin: round; stroke-linecap: butt}</style>
 </defs>
 <g id="figure_1">
  <g id="patch_1">
   <path d="M 0 297.190125 
L 399.624687 297.190125 
L 399.624687 0 
L 0 0 
z
" style="fill: #ffffff"/>
  </g>
  <g id="axes_1">
   <g id="patch_2">
    <path d="M 35.304688 273.312 
L 392.424688 273.312 
L 392.424688 7.2 
L 35.304688 7.2 
z
" style="fill: #ffffff"/>
   </g>
   <g id="PathCollection_1">
    <defs>
     <path id="m386049e287" d="M 0 1.5 
C 0.397805 1.5 0.77937 1.341951 1.06066 1.06066 
C 1.341951 0.77937 1.5 0.397805 1.5 0 
C 1.5 -0.397805 1.341951 -0.77937 1.06066 -1.06066 
C 0.77937 -1.341951 0.397805 -1.5 0 -1.5 
C -0.397805 -1.5 -0.77937 -1.341951 -1.06066 -1.06066 
C -1.341951 -0.77937 -1.5 -0.397805 -1.5 0 
C -1.5 0.397805 -1.341951 0.77937 -1.06066 1.06066 
C -0.77937 1.341951 -0.397805 1.5 0 1.5 
z
" style="stroke: #ff8c00"/>
    </defs>
    <g clip-path="url(#pf301c94e9b)">
     <use xlink:href="#m386049e287" x="284.632306" y="150.300621" style="fill: #ff8c00; stroke: #ff8c00"/>
     <use xlink:href="#m386049e287" x="272.098593" y="75.61036" style="fill: #ff8c00; stroke: #ff8c00"/>
     <use xlink:href="#m386049e287" x="157.19703" y="121.714537" style="fill: #ff8c00; stroke: #ff8c00"/>
     <use xlink:href="#m386049e287" x="226.061988" y="49.029547" style="fill: #ff8c00; stroke: #ff8c00"/>
     <use xlink:href="#m386049e287" x="175.506009" y="163.864805" style="fill: #ff8c00; stroke: #ff8c00"/>
     <use xlink:href="#m386049e287" x="260.899129" y="109.587717" style="fill: #ff8c00; stroke: #ff8c00"/>
     <use xlink:href="#m386049e287" x="256.812944" y="19.296" style="fill: #ff8c00; stroke: #ff8c00"/>
     <use xlink:href="#m386049e287" x="220.119183" y="50.293942" style="fill: #ff8c00; stroke: #ff8c00"/>
     <use xlink:href="#m386049e287" x="212.142358" y="48.883306" style="fill: #ff8c00; stroke: #ff8c00"/>
     <use xlink:href="#m386049e287" x="215.893997" y="27.950319" style="fill: #ff8c00; stroke: #ff8c00"/>
     <use xlink:href="#m386049e287" x="144.715643" y="114.307067" style="fill: #ff8c00; stroke: #ff8c00"/>
     <use xlink:href="#m386049e287" x="171.481227" y="58.2037" style="fill: #ff8c00; stroke: #ff8c00"/>
     <use xlink:href="#m386049e287" x="193.858079" y="92.183808" style="fill: #ff8c00; stroke: #ff8c00"/>
     <use xlink:href="#m386049e287" x="233.531789" y="47.731312" style="fill: #ff8c00; stroke: #ff8c00"/>
     <use xlink:href="#m386049e287" x="218.425141" y="60.644389" style="fill: #ff8c00; stroke: #ff8c00"/>
    </g>
   </g>
   <g id="PathCollection_2">
    <defs>
     <path id="ma059b6fc6f" d="M 0 1.5 
C 0.397805 1.5 0.77937 1.341951 1.06066 1.06066 
C 1.341951 0.77937 1.5 0.397805 1.5 0 
C 1.5 -0.397805 1.341951 -0.77937 1.06066 -1.06066 
C 0.77937 -1.341951 0.397805 -1.5 0 -1.5 
C -0.397805 -1.5 -0.77937 -1.341951 -1.06066 -1.06066 
C -1.341951 -0.77937 -1.5 -0.397805 -1.5 0 
C -1.5 0.397805 -1.341951 0.77937 -1.06066 1.06066 
C -0.77937 1.341951 -0.397805 1.5 0 1.5 
z
" style="stroke: #006400"/>
    </defs>
    <g clip-path="url(#pf301c94e9b)">
     <use xlink:href="#ma059b6fc6f" x="345.555735" y="234.174689" style="fill: #006400; stroke: #006400"/>
     <use xlink:href="#ma059b6fc6f" x="376.19196" y="231.682861" style="fill: #006400; stroke: #006400"/>
     <use xlink:href="#ma059b6fc6f" x="179.992815" y="164.007907" style="fill: #006400; stroke: #006400"/>
     <use xlink:href="#ma059b6fc6f" x="323.192572" y="102.012519" style="fill: #006400; stroke: #006400"/>
     <use xlink:href="#ma059b6fc6f" x="256.32636" y="192.2353" style="fill: #006400; stroke: #006400"/>
     <use xlink:href="#ma059b6fc6f" x="235.258053" y="150.258535" style="fill: #006400; stroke: #006400"/>
     <use xlink:href="#ma059b6fc6f" x="178.212214" y="172.959626" style="fill: #006400; stroke: #006400"/>
     <use xlink:href="#ma059b6fc6f" x="288.663781" y="205.880872" style="fill: #006400; stroke: #006400"/>
     <use xlink:href="#ma059b6fc6f" x="354.14124" y="261.216" style="fill: #006400; stroke: #006400"/>
     <use xlink:href="#ma059b6fc6f" x="247.381393" y="104.223228" style="fill: #006400; stroke: #006400"/>
     <use xlink:href="#ma059b6fc6f" x="246.045805" y="172.43726" style="fill: #006400; stroke: #006400"/>
     <use xlink:href="#ma059b6fc6f" x="358.693733" y="213.218569" style="fill: #006400; stroke: #006400"/>
     <use xlink:href="#ma059b6fc6f" x="264.396489" y="179.435069" style="fill: #006400; stroke: #006400"/>
     <use xlink:href="#ma059b6fc6f" x="220.183169" y="166.183252" style="fill: #006400; stroke: #006400"/>
     <use xlink:href="#ma059b6fc6f" x="360.536428" y="242.106358" style="fill: #006400; stroke: #006400"/>
     <use xlink:href="#ma059b6fc6f" x="274.144748" y="181.789142" style="fill: #006400; stroke: #006400"/>
     <use xlink:href="#ma059b6fc6f" x="260.979538" y="173.816841" style="fill: #006400; stroke: #006400"/>
     <use xlink:href="#ma059b6fc6f" x="335.053853" y="197.585226" style="fill: #006400; stroke: #006400"/>
     <use xlink:href="#ma059b6fc6f" x="297.706236" y="209.649995" style="fill: #006400; stroke: #006400"/>
     <use xlink:href="#ma059b6fc6f" x="323.217098" y="199.906967" style="fill: #006400; stroke: #006400"/>
     <use xlink:href="#ma059b6fc6f" x="262.637077" y="193.289559" style="fill: #006400; stroke: #006400"/>
    </g>
   </g>
   <g id="PathCollection_3">
    <defs>
     <path id="mcb6f04d4a2" d="M 0 1.5 
C 0.397805 1.5 0.77937 1.341951 1.06066 1.06066 
C 1.341951 0.77937 1.5 0.397805 1.5 0 
C 1.5 -0.397805 1.341951 -0.77937 1.06066 -1.06066 
C 0.77937 -1.341951 0.397805 -1.5 0 -1.5 
C -0.397805 -1.5 -0.77937 -1.341951 -1.06066 -1.06066 
C -1.341951 -0.77937 -1.5 -0.397805 -1.5 0 
C -1.5 0.397805 -1.341951 0.77937 -1.06066 1.06066 
C -0.77937 1.341951 -0.397805 1.5 0 1.5 
z
" style="stroke: #2f4f4f"/>
    </defs>
    <g clip-path="url(#pf301c94e9b)">
     <use xlink:href="#mcb6f04d4a2" x="108.375099" y="125.72128" style="fill: #2f4f4f; stroke: #2f4f4f"/>
     <use xlink:href="#mcb6f04d4a2" x="111.261609" y="151.93414" style="fill: #2f4f4f; stroke: #2f4f4f"/>
     <use xlink:href="#mcb6f04d4a2" x="181.874202" y="137.22593" style="fill: #2f4f4f; stroke: #2f4f4f"/>
     <use xlink:href="#mcb6f04d4a2" x="180.797747" y="181.318832" style="fill: #2f4f4f; stroke: #2f4f4f"/>
     <use xlink:href="#mcb6f04d4a2" x="112.265732" y="129.022836" style="fill: #2f4f4f; stroke: #2f4f4f"/>
     <use xlink:href="#mcb6f04d4a2" x="110.380779" y="102.612127" style="fill: #2f4f4f; stroke: #2f4f4f"/>
     <use xlink:href="#mcb6f04d4a2" x="110.570384" y="133.896987" style="fill: #2f4f4f; stroke: #2f4f4f"/>
     <use xlink:href="#mcb6f04d4a2" x="145.649486" y="138.654586" style="fill: #2f4f4f; stroke: #2f4f4f"/>
     <use xlink:href="#mcb6f04d4a2" x="125.842125" y="102.819878" style="fill: #2f4f4f; stroke: #2f4f4f"/>
     <use xlink:href="#mcb6f04d4a2" x="152.337019" y="105.640546" style="fill: #2f4f4f; stroke: #2f4f4f"/>
     <use xlink:href="#mcb6f04d4a2" x="106.288214" y="188.008782" style="fill: #2f4f4f; stroke: #2f4f4f"/>
    </g>
   </g>
   <g id="PathCollection_4">
    <defs>
     <path id="m25e0a7cce1" d="M 0 1.5 
C 0.397805 1.5 0.77937 1.341951 1.06066 1.06066 
C 1.341951 0.77937 1.5 0.397805 1.5 0 
C 1.5 -0.397805 1.341951 -0.77937 1.06066 -1.06066 
C 0.77937 -1.341951 0.397805 -1.5 0 -1.5 
C -0.397805 -1.5 -0.77937 -1.341951 -1.06066 -1.06066 
C -1.341951 -0.77937 -1.5 -0.397805 -1.5 0 
C -1.5 0.397805 -1.341951 0.77937 -1.06066 1.06066 
C -0.77937 1.341951 -0.397805 1.5 0 1.5 
z
" style="stroke: #00bfff"/>
    </defs>
    <g clip-path="url(#pf301c94e9b)">
     <use xlink:href="#m25e0a7cce1" x="197.785094" y="137.732216" style="fill: #00bfff; stroke: #00bfff"/>
     <use xlink:href="#m25e0a7cce1" x="121.82913" y="102.170456" style="fill: #00bfff; stroke: #00bfff"/>
     <use xlink:href="#m25e0a7cce1" x="127.274101" y="118.528156" style="fill: #00bfff; stroke: #00bfff"/>
     <use xlink:href="#m25e0a7cce1" x="119.272101" y="160.877611" style="fill: #00bfff; stroke: #00bfff"/>
     <use xlink:href="#m25e0a7cce1" x="93.655848" y="160.859294" style="fill: #00bfff; stroke: #00bfff"/>
     <use xlink:href="#m25e0a7cce1" x="118.996628" y="145.91021" style="fill: #00bfff; stroke: #00bfff"/>
     <use xlink:href="#m25e0a7cce1" x="134.899395" y="115.195723" style="fill: #00bfff; stroke: #00bfff"/>
     <use xlink:href="#m25e0a7cce1" x="192.626919" y="143.116687" style="fill: #00bfff; stroke: #00bfff"/>
     <use xlink:href="#m25e0a7cce1" x="96.034002" y="136.913631" style="fill: #00bfff; stroke: #00bfff"/>
     <use xlink:href="#m25e0a7cce1" x="160.251012" y="126.249068" style="fill: #00bfff; stroke: #00bfff"/>
     <use xlink:href="#m25e0a7cce1" x="114.879772" y="164.871052" style="fill: #00bfff; stroke: #00bfff"/>
     <use xlink:href="#m25e0a7cce1" x="118.996628" y="145.91021" style="fill: #00bfff; stroke: #00bfff"/>
     <use xlink:href="#m25e0a7cce1" x="132.144605" y="142.430355" style="fill: #00bfff; stroke: #00bfff"/>
     <use xlink:href="#m25e0a7cce1" x="148.095112" y="99.991099" style="fill: #00bfff; stroke: #00bfff"/>
     <use xlink:href="#m25e0a7cce1" x="176.099791" y="147.494999" style="fill: #00bfff; stroke: #00bfff"/>
     <use xlink:href="#m25e0a7cce1" x="147.305069" y="166.670273" style="fill: #00bfff; stroke: #00bfff"/>
    </g>
   </g>
   <g id="PathCollection_5">
    <defs>
     <path id="m0d04c221e7" d="M 0 1.5 
C 0.397805 1.5 0.77937 1.341951 1.06066 1.06066 
C 1.341951 0.77937 1.5 0.397805 1.5 0 
C 1.5 -0.397805 1.341951 -0.77937 1.06066 -1.06066 
C 0.77937 -1.341951 0.397805 -1.5 0 -1.5 
C -0.397805 -1.5 -0.77937 -1.341951 -1.06066 -1.06066 
C -1.341951 -0.77937 -1.5 -0.397805 -1.5 0 
C -1.5 0.397805 -1.341951 0.77937 -1.06066 1.06066 
C -0.77937 1.341951 -0.397805 1.5 0 1.5 
z
" style="stroke: #ffff00"/>
    </defs>
    <g clip-path="url(#pf301c94e9b)">
     <use xlink:href="#m0d04c221e7" x="86.425638" y="156.410362" style="fill: #ffff00; stroke: #ffff00"/>
     <use xlink:href="#m0d04c221e7" x="175.532057" y="107.19032" style="fill: #ffff00; stroke: #ffff00"/>
     <use xlink:href="#m0d04c221e7" x="106.059415" y="113.493438" style="fill: #ffff00; stroke: #ffff00"/>
     <use xlink:href="#m0d04c221e7" x="130.888909" y="124.30541" style="fill: #ffff00; stroke: #ffff00"/>
     <use xlink:href="#m0d04c221e7" x="114.718366" y="136.952772" style="fill: #ffff00; stroke: #ffff00"/>
     <use xlink:href="#m0d04c221e7" x="81.088856" y="153.790461" style="fill: #ffff00; stroke: #ffff00"/>
     <use xlink:href="#m0d04c221e7" x="161.6683" y="97.257811" style="fill: #ffff00; stroke: #ffff00"/>
     <use xlink:href="#m0d04c221e7" x="75.133133" y="141.092686" style="fill: #ffff00; stroke: #ffff00"/>
     <use xlink:href="#m0d04c221e7" x="150.776227" y="130.122031" style="fill: #ffff00; stroke: #ffff00"/>
     <use xlink:href="#m0d04c221e7" x="110.012017" y="175.051405" style="fill: #ffff00; stroke: #ffff00"/>
     <use xlink:href="#m0d04c221e7" x="115.60726" y="139.579574" style="fill: #ffff00; stroke: #ffff00"/>
     <use xlink:href="#m0d04c221e7" x="97.358112" y="153.267311" style="fill: #ffff00; stroke: #ffff00"/>
    </g>
   </g>
   <g id="PathCollection_6">
    <defs>
     <path id="ma5762d9c7c" d="M 0 1.5 
C 0.397805 1.5 0.77937 1.341951 1.06066 1.06066 
C 1.341951 0.77937 1.5 0.397805 1.5 0 
C 1.5 -0.397805 1.341951 -0.77937 1.06066 -1.06066 
C 0.77937 -1.341951 0.397805 -1.5 0 -1.5 
C -0.397805 -1.5 -0.77937 -1.341951 -1.06066 -1.06066 
C -1.341951 -0.77937 -1.5 -0.397805 -1.5 0 
C -1.5 0.397805 -1.341951 0.77937 -1.06066 1.06066 
C -0.77937 1.341951 -0.397805 1.5 0 1.5 
z
" style="stroke: #00ffff"/>
    </defs>
    <g clip-path="url(#pf301c94e9b)">
     <use xlink:href="#ma5762d9c7c" x="188.689774" y="189.985386" style="fill: #00ffff; stroke: #00ffff"/>
     <use xlink:href="#ma5762d9c7c" x="96.981839" y="193.210393" style="fill: #00ffff; stroke: #00ffff"/>
     <use xlink:href="#ma5762d9c7c" x="126.129473" y="138.161052" style="fill: #00ffff; stroke: #00ffff"/>
     <use xlink:href="#ma5762d9c7c" x="144.308823" y="157.808801" style="fill: #00ffff; stroke: #00ffff"/>
     <use xlink:href="#ma5762d9c7c" x="135.140567" y="121.307514" style="fill: #00ffff; stroke: #00ffff"/>
     <use xlink:href="#ma5762d9c7c" x="132.92412" y="193.684846" style="fill: #00ffff; stroke: #00ffff"/>
     <use xlink:href="#ma5762d9c7c" x="111.965349" y="123.281079" style="fill: #00ffff; stroke: #00ffff"/>
     <use xlink:href="#ma5762d9c7c" x="187.828421" y="163.465679" style="fill: #00ffff; stroke: #00ffff"/>
     <use xlink:href="#ma5762d9c7c" x="110.827056" y="121.52264" style="fill: #00ffff; stroke: #00ffff"/>
     <use xlink:href="#ma5762d9c7c" x="107.357435" y="163.187654" style="fill: #00ffff; stroke: #00ffff"/>
     <use xlink:href="#ma5762d9c7c" x="130.835149" y="164.978043" style="fill: #00ffff; stroke: #00ffff"/>
     <use xlink:href="#ma5762d9c7c" x="99.66733" y="192.823025" style="fill: #00ffff; stroke: #00ffff"/>
    </g>
   </g>
   <g id="PathCollection_7">
    <defs>
     <path id="mbe632c8ba4" d="M 0 1.5 
C 0.397805 1.5 0.77937 1.341951 1.06066 1.06066 
C 1.341951 0.77937 1.5 0.397805 1.5 0 
C 1.5 -0.397805 1.341951 -0.77937 1.06066 -1.06066 
C 0.77937 -1.341951 0.397805 -1.5 0 -1.5 
C -0.397805 -1.5 -0.77937 -1.341951 -1.06066 -1.06066 
C -1.341951 -0.77937 -1.5 -0.397805 -1.5 0 
C -1.5 0.397805 -1.341951 0.77937 -1.06066 1.06066 
C -0.77937 1.341951 -0.397805 1.5 0 1.5 
z
" style="stroke: #0000ff"/>
    </defs>
    <g clip-path="url(#pf301c94e9b)">
     <use xlink:href="#mbe632c8ba4" x="160.086635" y="100.534919" style="fill: #0000ff; stroke: #0000ff"/>
     <use xlink:href="#mbe632c8ba4" x="119.278503" y="116.410229" style="fill: #0000ff; stroke: #0000ff"/>
     <use xlink:href="#mbe632c8ba4" x="167.653268" y="116.221943" style="fill: #0000ff; stroke: #0000ff"/>
     <use xlink:href="#mbe632c8ba4" x="177.372585" y="147.474221" style="fill: #0000ff; stroke: #0000ff"/>
     <use xlink:href="#mbe632c8ba4" x="141.583473" y="139.170724" style="fill: #0000ff; stroke: #0000ff"/>
     <use xlink:href="#mbe632c8ba4" x="126.182112" y="138.771243" style="fill: #0000ff; stroke: #0000ff"/>
     <use xlink:href="#mbe632c8ba4" x="227.409365" y="119.572282" style="fill: #0000ff; stroke: #0000ff"/>
     <use xlink:href="#mbe632c8ba4" x="106.521673" y="136.835539" style="fill: #0000ff; stroke: #0000ff"/>
     <use xlink:href="#mbe632c8ba4" x="144.827578" y="124.520192" style="fill: #0000ff; stroke: #0000ff"/>
     <use xlink:href="#mbe632c8ba4" x="182.849424" y="91.116743" style="fill: #0000ff; stroke: #0000ff"/>
     <use xlink:href="#mbe632c8ba4" x="258.164563" y="207.705393" style="fill: #0000ff; stroke: #0000ff"/>
     <use xlink:href="#mbe632c8ba4" x="110.988341" y="127.469592" style="fill: #0000ff; stroke: #0000ff"/>
     <use xlink:href="#mbe632c8ba4" x="124.037848" y="131.392795" style="fill: #0000ff; stroke: #0000ff"/>
     <use xlink:href="#mbe632c8ba4" x="131.504074" y="96.440396" style="fill: #0000ff; stroke: #0000ff"/>
     <use xlink:href="#mbe632c8ba4" x="177.420083" y="103.597628" style="fill: #0000ff; stroke: #0000ff"/>
     <use xlink:href="#mbe632c8ba4" x="104.955109" y="116.658441" style="fill: #0000ff; stroke: #0000ff"/>
    </g>
   </g>
   <g id="PathCollection_8">
    <defs>
     <path id="m828d4cead1" d="M 0 1.5 
C 0.397805 1.5 0.77937 1.341951 1.06066 1.06066 
C 1.341951 0.77937 1.5 0.397805 1.5 0 
C 1.5 -0.397805 1.341951 -0.77937 1.06066 -1.06066 
C 0.77937 -1.341951 0.397805 -1.5 0 -1.5 
C -0.397805 -1.5 -0.77937 -1.341951 -1.06066 -1.06066 
C -1.341951 -0.77937 -1.5 -0.397805 -1.5 0 
C -1.5 0.397805 -1.341951 0.77937 -1.06066 1.06066 
C -0.77937 1.341951 -0.397805 1.5 0 1.5 
z
" style="stroke: #dc143c"/>
    </defs>
    <g clip-path="url(#pf301c94e9b)">
     <use xlink:href="#m828d4cead1" x="198.198694" y="83.69356" style="fill: #dc143c; stroke: #dc143c"/>
     <use xlink:href="#m828d4cead1" x="213.481865" y="103.12139" style="fill: #dc143c; stroke: #dc143c"/>
     <use xlink:href="#m828d4cead1" x="238.317858" y="135.287217" style="fill: #dc143c; stroke: #dc143c"/>
     <use xlink:href="#m828d4cead1" x="276.793653" y="157.995059" style="fill: #dc143c; stroke: #dc143c"/>
     <use xlink:href="#m828d4cead1" x="199.382766" y="105.879621" style="fill: #dc143c; stroke: #dc143c"/>
     <use xlink:href="#m828d4cead1" x="193.406271" y="137.228785" style="fill: #dc143c; stroke: #dc143c"/>
     <use xlink:href="#m828d4cead1" x="242.167195" y="129.780451" style="fill: #dc143c; stroke: #dc143c"/>
     <use xlink:href="#m828d4cead1" x="262.779553" y="100.824473" style="fill: #dc143c; stroke: #dc143c"/>
     <use xlink:href="#m828d4cead1" x="195.971668" y="140.69778" style="fill: #dc143c; stroke: #dc143c"/>
     <use xlink:href="#m828d4cead1" x="209.003084" y="66.218269" style="fill: #dc143c; stroke: #dc143c"/>
     <use xlink:href="#m828d4cead1" x="221.031412" y="84.719114" style="fill: #dc143c; stroke: #dc143c"/>
     <use xlink:href="#m828d4cead1" x="255.945049" y="101.406641" style="fill: #dc143c; stroke: #dc143c"/>
     <use xlink:href="#m828d4cead1" x="248.704296" y="101.662636" style="fill: #dc143c; stroke: #dc143c"/>
     <use xlink:href="#m828d4cead1" x="274.727652" y="184.729629" style="fill: #dc143c; stroke: #dc143c"/>
    </g>
   </g>
   <g id="PathCollection_9">
    <defs>
     <path id="m31de45604d" d="M 0 1.5 
C 0.397805 1.5 0.77937 1.341951 1.06066 1.06066 
C 1.341951 0.77937 1.5 0.397805 1.5 0 
C 1.5 -0.397805 1.341951 -0.77937 1.06066 -1.06066 
C 0.77937 -1.341951 0.397805 -1.5 0 -1.5 
C -0.397805 -1.5 -0.77937 -1.341951 -1.06066 -1.06066 
C -1.341951 -0.77937 -1.5 -0.397805 -1.5 0 
C -1.5 0.397805 -1.341951 0.77937 -1.06066 1.06066 
C -0.77937 1.341951 -0.397805 1.5 0 1.5 
z
" style="stroke: #ffe4c4"/>
    </defs>
    <g clip-path="url(#pf301c94e9b)">
     <use xlink:href="#m31de45604d" x="284.589363" y="134.354226" style="fill: #ffe4c4; stroke: #ffe4c4"/>
     <use xlink:href="#m31de45604d" x="253.558466" y="129.579195" style="fill: #ffe4c4; stroke: #ffe4c4"/>
     <use xlink:href="#m31de45604d" x="236.082989" y="178.343718" style="fill: #ffe4c4; stroke: #ffe4c4"/>
     <use xlink:href="#m31de45604d" x="265.257274" y="207.766771" style="fill: #ffe4c4; stroke: #ffe4c4"/>
     <use xlink:href="#m31de45604d" x="225.259095" y="209.747088" style="fill: #ffe4c4; stroke: #ffe4c4"/>
     <use xlink:href="#m31de45604d" x="317.400496" y="216.633508" style="fill: #ffe4c4; stroke: #ffe4c4"/>
     <use xlink:href="#m31de45604d" x="150.560198" y="140.724875" style="fill: #ffe4c4; stroke: #ffe4c4"/>
     <use xlink:href="#m31de45604d" x="272.539609" y="228.575375" style="fill: #ffe4c4; stroke: #ffe4c4"/>
     <use xlink:href="#m31de45604d" x="327.39096" y="234.676642" style="fill: #ffe4c4; stroke: #ffe4c4"/>
     <use xlink:href="#m31de45604d" x="226.233038" y="216.910387" style="fill: #ffe4c4; stroke: #ffe4c4"/>
     <use xlink:href="#m31de45604d" x="175.394147" y="134.299522" style="fill: #ffe4c4; stroke: #ffe4c4"/>
    </g>
   </g>
   <g id="PathCollection_10">
    <defs>
     <path id="m2ee686159a" d="M -2.99994 2.99994 
L 3.00006 2.99994 
L 3.00006 -3.00006 
L -2.99994 -3.00006 
z
" style="stroke: #000000"/>
    </defs>
    <g clip-path="url(#pf301c94e9b)">
     <use xlink:href="#m2ee686159a" x="138.431897" y="123.677519" style="stroke: #000000"/>
     <use xlink:href="#m2ee686159a" x="81.908135" y="185.860813" style="stroke: #000000"/>
     <use xlink:href="#m2ee686159a" x="73.738278" y="138.190799" style="stroke: #000000"/>
     <use xlink:href="#m2ee686159a" x="106.964343" y="129.655375" style="stroke: #000000"/>
     <use xlink:href="#m2ee686159a" x="119.359333" y="170.782446" style="stroke: #000000"/>
     <use xlink:href="#m2ee686159a" x="81.007409" y="174.054942" style="stroke: #000000"/>
     <use xlink:href="#m2ee686159a" x="107.631855" y="192.883377" style="stroke: #000000"/>
     <use xlink:href="#m2ee686159a" x="62.343862" y="181.033924" style="stroke: #000000"/>
     <use xlink:href="#m2ee686159a" x="149.354266" y="129.708045" style="stroke: #000000"/>
     <use xlink:href="#m2ee686159a" x="175.197887" y="151.027455" style="stroke: #000000"/>
     <use xlink:href="#m2ee686159a" x="128.337091" y="155.321548" style="stroke: #000000"/>
     <use xlink:href="#m2ee686159a" x="159.023401" y="141.328856" style="stroke: #000000"/>
     <use xlink:href="#m2ee686159a" x="109.263777" y="172.444884" style="stroke: #000000"/>
     <use xlink:href="#m2ee686159a" x="147.982111" y="167.566744" style="stroke: #000000"/>
     <use xlink:href="#m2ee686159a" x="100.166094" y="143.172994" style="stroke: #000000"/>
     <use xlink:href="#m2ee686159a" x="94.141793" y="171.562436" style="stroke: #000000"/>
     <use xlink:href="#m2ee686159a" x="82.970936" y="177.075148" style="stroke: #000000"/>
     <use xlink:href="#m2ee686159a" x="126.101912" y="126.333692" style="stroke: #000000"/>
     <use xlink:href="#m2ee686159a" x="78.956673" y="146.579231" style="stroke: #000000"/>
     <use xlink:href="#m2ee686159a" x="63.366616" y="167.171979" style="stroke: #000000"/>
     <use xlink:href="#m2ee686159a" x="131.943559" y="202.804129" style="stroke: #000000"/>
     <use xlink:href="#m2ee686159a" x="112.449939" y="134.964079" style="stroke: #000000"/>
     <use xlink:href="#m2ee686159a" x="156.894777" y="142.11687" style="stroke: #000000"/>
     <use xlink:href="#m2ee686159a" x="111.299429" y="160.386297" style="stroke: #000000"/>
     <use xlink:href="#m2ee686159a" x="83.749916" y="193.714947" style="stroke: #000000"/>
     <use xlink:href="#m2ee686159a" x="101.430052" y="154.765853" style="stroke: #000000"/>
     <use xlink:href="#m2ee686159a" x="120.503562" y="162.238779" style="stroke: #000000"/>
     <use xlink:href="#m2ee686159a" x="64.425828" y="143.033137" style="stroke: #000000"/>
     <use xlink:href="#m2ee686159a" x="78.42589" y="174.256777" style="stroke: #000000"/>
     <use xlink:href="#m2ee686159a" x="109.862559" y="116.752071" style="stroke: #000000"/>
     <use xlink:href="#m2ee686159a" x="128.553019" y="109.489312" style="stroke: #000000"/>
     <use xlink:href="#m2ee686159a" x="92.601128" y="143.541218" style="stroke: #000000"/>
     <use xlink:href="#m2ee686159a" x="92.388655" y="131.412109" style="stroke: #000000"/>
     <use xlink:href="#m2ee686159a" x="151.278938" y="117.952787" style="stroke: #000000"/>
     <use xlink:href="#m2ee686159a" x="83.331531" y="154.606527" style="stroke: #000000"/>
     <use xlink:href="#m2ee686159a" x="63.711717" y="152.840363" style="stroke: #000000"/>
     <use xlink:href="#m2ee686159a" x="64.34484" y="176.8213" style="stroke: #000000"/>
     <use xlink:href="#m2ee686159a" x="179.987244" y="128.49771" style="stroke: #000000"/>
     <use xlink:href="#m2ee686159a" x="78.387288" y="163.291239" style="stroke: #000000"/>
     <use xlink:href="#m2ee686159a" x="89.503924" y="174.038963" style="stroke: #000000"/>
     <use xlink:href="#m2ee686159a" x="57.910575" y="165.783443" style="stroke: #000000"/>
     <use xlink:href="#m2ee686159a" x="98.94049" y="182.772157" style="stroke: #000000"/>
     <use xlink:href="#m2ee686159a" x="153.597027" y="146.706224" style="stroke: #000000"/>
     <use xlink:href="#m2ee686159a" x="136.207729" y="108.012804" style="stroke: #000000"/>
     <use xlink:href="#m2ee686159a" x="93.496979" y="138.824029" style="stroke: #000000"/>
     <use xlink:href="#m2ee686159a" x="82.02779" y="181.920813" style="stroke: #000000"/>
     <use xlink:href="#m2ee686159a" x="72.948174" y="163.884347" style="stroke: #000000"/>
     <use xlink:href="#m2ee686159a" x="106.245304" y="199.324692" style="stroke: #000000"/>
     <use xlink:href="#m2ee686159a" x="92.340747" y="168.666866" style="stroke: #000000"/>
     <use xlink:href="#m2ee686159a" x="79.86405" y="170.685581" style="stroke: #000000"/>
     <use xlink:href="#m2ee686159a" x="177.847496" y="142.110636" style="stroke: #000000"/>
     <use xlink:href="#m2ee686159a" x="58.240968" y="170.740577" style="stroke: #000000"/>
     <use xlink:href="#m2ee686159a" x="101.726673" y="159.773283" style="stroke: #000000"/>
     <use xlink:href="#m2ee686159a" x="193.749962" y="79.713603" style="stroke: #000000"/>
     <use xlink:href="#m2ee686159a" x="52.730375" y="184.929294" style="stroke: #000000"/>
     <use xlink:href="#m2ee686159a" x="93.659245" y="147.926443" style="stroke: #000000"/>
     <use xlink:href="#m2ee686159a" x="119.706095" y="116.489827" style="stroke: #000000"/>
     <use xlink:href="#m2ee686159a" x="100.03218" y="210.476898" style="stroke: #000000"/>
     <use xlink:href="#m2ee686159a" x="130.978875" y="147.516984" style="stroke: #000000"/>
     <use xlink:href="#m2ee686159a" x="112.414185" y="195.450051" style="stroke: #000000"/>
     <use xlink:href="#m2ee686159a" x="63.658234" y="169.812701" style="stroke: #000000"/>
     <use xlink:href="#m2ee686159a" x="97.545969" y="147.673711" style="stroke: #000000"/>
     <use xlink:href="#m2ee686159a" x="59.306687" y="168.863652" style="stroke: #000000"/>
     <use xlink:href="#m2ee686159a" x="141.598819" y="135.384125" style="stroke: #000000"/>
    </g>
   </g>
   <g id="PathCollection_11">
    <defs>
     <path id="m9070c3cb99" d="M -3 -0 
L 3 3 
L 3 -3 
z
" style="stroke: #ff8c00"/>
    </defs>
    <g clip-path="url(#pf301c94e9b)">
     <use xlink:href="#m9070c3cb99" x="132.93845" y="133.395658" style="fill: #ff8c00; stroke: #ff8c00"/>
     <use xlink:href="#m9070c3cb99" x="122.256748" y="151.128606" style="fill: #ff8c00; stroke: #ff8c00"/>
     <use xlink:href="#m9070c3cb99" x="82.77846" y="157.012827" style="fill: #ff8c00; stroke: #ff8c00"/>
     <use xlink:href="#m9070c3cb99" x="60.610624" y="157.442495" style="fill: #ff8c00; stroke: #ff8c00"/>
     <use xlink:href="#m9070c3cb99" x="109.981141" y="140.260973" style="fill: #ff8c00; stroke: #ff8c00"/>
     <use xlink:href="#m9070c3cb99" x="65.604795" y="167.547444" style="fill: #ff8c00; stroke: #ff8c00"/>
     <use xlink:href="#m9070c3cb99" x="71.305674" y="153.745871" style="fill: #ff8c00; stroke: #ff8c00"/>
     <use xlink:href="#m9070c3cb99" x="125.517636" y="153.971137" style="fill: #ff8c00; stroke: #ff8c00"/>
     <use xlink:href="#m9070c3cb99" x="109.462188" y="151.745978" style="fill: #ff8c00; stroke: #ff8c00"/>
     <use xlink:href="#m9070c3cb99" x="82.73762" y="173.075776" style="fill: #ff8c00; stroke: #ff8c00"/>
     <use xlink:href="#m9070c3cb99" x="93.533478" y="178.70043" style="fill: #ff8c00; stroke: #ff8c00"/>
     <use xlink:href="#m9070c3cb99" x="84.763762" y="154.057354" style="fill: #ff8c00; stroke: #ff8c00"/>
     <use xlink:href="#m9070c3cb99" x="97.544111" y="193.368551" style="fill: #ff8c00; stroke: #ff8c00"/>
     <use xlink:href="#m9070c3cb99" x="103.328724" y="148.071075" style="fill: #ff8c00; stroke: #ff8c00"/>
     <use xlink:href="#m9070c3cb99" x="99.200111" y="129.733423" style="fill: #ff8c00; stroke: #ff8c00"/>
     <use xlink:href="#m9070c3cb99" x="79.835431" y="160.156949" style="fill: #ff8c00; stroke: #ff8c00"/>
     <use xlink:href="#m9070c3cb99" x="81.342692" y="162.101074" style="fill: #ff8c00; stroke: #ff8c00"/>
     <use xlink:href="#m9070c3cb99" x="120.893823" y="126.953191" style="fill: #ff8c00; stroke: #ff8c00"/>
     <use xlink:href="#m9070c3cb99" x="100.638553" y="176.726069" style="fill: #ff8c00; stroke: #ff8c00"/>
     <use xlink:href="#m9070c3cb99" x="59.701728" y="147.26096" style="fill: #ff8c00; stroke: #ff8c00"/>
     <use xlink:href="#m9070c3cb99" x="124.734693" y="158.507973" style="fill: #ff8c00; stroke: #ff8c00"/>
     <use xlink:href="#m9070c3cb99" x="130.873937" y="178.30922" style="fill: #ff8c00; stroke: #ff8c00"/>
     <use xlink:href="#m9070c3cb99" x="79.243935" y="170.689493" style="fill: #ff8c00; stroke: #ff8c00"/>
     <use xlink:href="#m9070c3cb99" x="68.112022" y="176.302237" style="fill: #ff8c00; stroke: #ff8c00"/>
     <use xlink:href="#m9070c3cb99" x="84.102491" y="140.84997" style="fill: #ff8c00; stroke: #ff8c00"/>
     <use xlink:href="#m9070c3cb99" x="79.092995" y="188.861225" style="fill: #ff8c00; stroke: #ff8c00"/>
     <use xlink:href="#m9070c3cb99" x="62.337979" y="182.822494" style="fill: #ff8c00; stroke: #ff8c00"/>
     <use xlink:href="#m9070c3cb99" x="79.142724" y="141.772031" style="fill: #ff8c00; stroke: #ff8c00"/>
     <use xlink:href="#m9070c3cb99" x="81.849431" y="177.50139" style="fill: #ff8c00; stroke: #ff8c00"/>
     <use xlink:href="#m9070c3cb99" x="113.76293" y="184.8619" style="fill: #ff8c00; stroke: #ff8c00"/>
     <use xlink:href="#m9070c3cb99" x="92.759952" y="171.307666" style="fill: #ff8c00; stroke: #ff8c00"/>
     <use xlink:href="#m9070c3cb99" x="111.988385" y="177.044508" style="fill: #ff8c00; stroke: #ff8c00"/>
     <use xlink:href="#m9070c3cb99" x="88.993642" y="188.937354" style="fill: #ff8c00; stroke: #ff8c00"/>
     <use xlink:href="#m9070c3cb99" x="96.536159" y="132.996343" style="fill: #ff8c00; stroke: #ff8c00"/>
     <use xlink:href="#m9070c3cb99" x="75.099346" y="157.237401" style="fill: #ff8c00; stroke: #ff8c00"/>
     <use xlink:href="#m9070c3cb99" x="111.145848" y="130.879258" style="fill: #ff8c00; stroke: #ff8c00"/>
     <use xlink:href="#m9070c3cb99" x="94.176133" y="162.626735" style="fill: #ff8c00; stroke: #ff8c00"/>
     <use xlink:href="#m9070c3cb99" x="108.936412" y="131.972208" style="fill: #ff8c00; stroke: #ff8c00"/>
     <use xlink:href="#m9070c3cb99" x="81.015414" y="140.875144" style="fill: #ff8c00; stroke: #ff8c00"/>
     <use xlink:href="#m9070c3cb99" x="92.380301" y="156.485293" style="fill: #ff8c00; stroke: #ff8c00"/>
     <use xlink:href="#m9070c3cb99" x="101.467729" y="156.302635" style="fill: #ff8c00; stroke: #ff8c00"/>
     <use xlink:href="#m9070c3cb99" x="70.603277" y="171.309412" style="fill: #ff8c00; stroke: #ff8c00"/>
     <use xlink:href="#m9070c3cb99" x="102.056934" y="191.958941" style="fill: #ff8c00; stroke: #ff8c00"/>
     <use xlink:href="#m9070c3cb99" x="119.867069" y="122.197653" style="fill: #ff8c00; stroke: #ff8c00"/>
     <use xlink:href="#m9070c3cb99" x="51.537415" y="190.279087" style="fill: #ff8c00; stroke: #ff8c00"/>
     <use xlink:href="#m9070c3cb99" x="67.925046" y="152.700496" style="fill: #ff8c00; stroke: #ff8c00"/>
     <use xlink:href="#m9070c3cb99" x="85.750336" y="175.264792" style="fill: #ff8c00; stroke: #ff8c00"/>
     <use xlink:href="#m9070c3cb99" x="65.516321" y="134.199374" style="fill: #ff8c00; stroke: #ff8c00"/>
     <use xlink:href="#m9070c3cb99" x="126.358452" y="134.641076" style="fill: #ff8c00; stroke: #ff8c00"/>
     <use xlink:href="#m9070c3cb99" x="59.765766" y="143.052872" style="fill: #ff8c00; stroke: #ff8c00"/>
     <use xlink:href="#m9070c3cb99" x="108.507261" y="155.696781" style="fill: #ff8c00; stroke: #ff8c00"/>
     <use xlink:href="#m9070c3cb99" x="99.061698" y="187.499911" style="fill: #ff8c00; stroke: #ff8c00"/>
     <use xlink:href="#m9070c3cb99" x="75.453889" y="153.226053" style="fill: #ff8c00; stroke: #ff8c00"/>
     <use xlink:href="#m9070c3cb99" x="78.53746" y="151.396579" style="fill: #ff8c00; stroke: #ff8c00"/>
     <use xlink:href="#m9070c3cb99" x="90.425069" y="163.99935" style="fill: #ff8c00; stroke: #ff8c00"/>
     <use xlink:href="#m9070c3cb99" x="72.838274" y="171.351543" style="fill: #ff8c00; stroke: #ff8c00"/>
     <use xlink:href="#m9070c3cb99" x="132.04855" y="179.391937" style="fill: #ff8c00; stroke: #ff8c00"/>
     <use xlink:href="#m9070c3cb99" x="88.56732" y="151.572803" style="fill: #ff8c00; stroke: #ff8c00"/>
     <use xlink:href="#m9070c3cb99" x="105.823477" y="197.994678" style="fill: #ff8c00; stroke: #ff8c00"/>
     <use xlink:href="#m9070c3cb99" x="59.457951" y="175.445232" style="fill: #ff8c00; stroke: #ff8c00"/>
     <use xlink:href="#m9070c3cb99" x="112.842029" y="133.604263" style="fill: #ff8c00; stroke: #ff8c00"/>
     <use xlink:href="#m9070c3cb99" x="96.920772" y="139.796969" style="fill: #ff8c00; stroke: #ff8c00"/>
     <use xlink:href="#m9070c3cb99" x="84.693194" y="193.635187" style="fill: #ff8c00; stroke: #ff8c00"/>
     <use xlink:href="#m9070c3cb99" x="109.892934" y="121.384622" style="fill: #ff8c00; stroke: #ff8c00"/>
    </g>
   </g>
   <g id="matplotlib.axis_1">
    <g id="xtick_1">
     <g id="line2d_1">
      <defs>
       <path id="m6d11bafc4c" d="M 0 0 
L 0 3.5 
" style="stroke: #000000; stroke-width: 0.8"/>
      </defs>
      <g>
       <use xlink:href="#m6d11bafc4c" x="65.428525" y="273.312" style="stroke: #000000; stroke-width: 0.8"/>
      </g>
     </g>
     <g id="text_1">
      <!-- −10 -->
      <g transform="translate(54.876181 287.910437) scale(0.1 -0.1)">
       <defs>
        <path id="DejaVuSans-2212" d="M 678 2272 
L 4684 2272 
L 4684 1741 
L 678 1741 
L 678 2272 
z
" transform="scale(0.015625)"/>
        <path id="DejaVuSans-31" d="M 794 531 
L 1825 531 
L 1825 4091 
L 703 3866 
L 703 4441 
L 1819 4666 
L 2450 4666 
L 2450 531 
L 3481 531 
L 3481 0 
L 794 0 
L 794 531 
z
" transform="scale(0.015625)"/>
        <path id="DejaVuSans-30" d="M 2034 4250 
Q 1547 4250 1301 3770 
Q 1056 3291 1056 2328 
Q 1056 1369 1301 889 
Q 1547 409 2034 409 
Q 2525 409 2770 889 
Q 3016 1369 3016 2328 
Q 3016 3291 2770 3770 
Q 2525 4250 2034 4250 
z
M 2034 4750 
Q 2819 4750 3233 4129 
Q 3647 3509 3647 2328 
Q 3647 1150 3233 529 
Q 2819 -91 2034 -91 
Q 1250 -91 836 529 
Q 422 1150 422 2328 
Q 422 3509 836 4129 
Q 1250 4750 2034 4750 
z
" transform="scale(0.015625)"/>
       </defs>
       <use xlink:href="#DejaVuSans-2212"/>
       <use xlink:href="#DejaVuSans-31" x="83.789062"/>
       <use xlink:href="#DejaVuSans-30" x="147.412109"/>
      </g>
     </g>
    </g>
    <g id="xtick_2">
     <g id="line2d_2">
      <g>
       <use xlink:href="#m6d11bafc4c" x="144.315948" y="273.312" style="stroke: #000000; stroke-width: 0.8"/>
      </g>
     </g>
     <g id="text_2">
      <!-- 0 -->
      <g transform="translate(141.134698 287.910437) scale(0.1 -0.1)">
       <use xlink:href="#DejaVuSans-30"/>
      </g>
     </g>
    </g>
    <g id="xtick_3">
     <g id="line2d_3">
      <g>
       <use xlink:href="#m6d11bafc4c" x="223.203371" y="273.312" style="stroke: #000000; stroke-width: 0.8"/>
      </g>
     </g>
     <g id="text_3">
      <!-- 10 -->
      <g transform="translate(216.840871 287.910437) scale(0.1 -0.1)">
       <use xlink:href="#DejaVuSans-31"/>
       <use xlink:href="#DejaVuSans-30" x="63.623047"/>
      </g>
     </g>
    </g>
    <g id="xtick_4">
     <g id="line2d_4">
      <g>
       <use xlink:href="#m6d11bafc4c" x="302.090794" y="273.312" style="stroke: #000000; stroke-width: 0.8"/>
      </g>
     </g>
     <g id="text_4">
      <!-- 20 -->
      <g transform="translate(295.728294 287.910437) scale(0.1 -0.1)">
       <defs>
        <path id="DejaVuSans-32" d="M 1228 531 
L 3431 531 
L 3431 0 
L 469 0 
L 469 531 
Q 828 903 1448 1529 
Q 2069 2156 2228 2338 
Q 2531 2678 2651 2914 
Q 2772 3150 2772 3378 
Q 2772 3750 2511 3984 
Q 2250 4219 1831 4219 
Q 1534 4219 1204 4116 
Q 875 4013 500 3803 
L 500 4441 
Q 881 4594 1212 4672 
Q 1544 4750 1819 4750 
Q 2544 4750 2975 4387 
Q 3406 4025 3406 3419 
Q 3406 3131 3298 2873 
Q 3191 2616 2906 2266 
Q 2828 2175 2409 1742 
Q 1991 1309 1228 531 
z
" transform="scale(0.015625)"/>
       </defs>
       <use xlink:href="#DejaVuSans-32"/>
       <use xlink:href="#DejaVuSans-30" x="63.623047"/>
      </g>
     </g>
    </g>
    <g id="xtick_5">
     <g id="line2d_5">
      <g>
       <use xlink:href="#m6d11bafc4c" x="380.978218" y="273.312" style="stroke: #000000; stroke-width: 0.8"/>
      </g>
     </g>
     <g id="text_5">
      <!-- 30 -->
      <g transform="translate(374.615718 287.910437) scale(0.1 -0.1)">
       <defs>
        <path id="DejaVuSans-33" d="M 2597 2516 
Q 3050 2419 3304 2112 
Q 3559 1806 3559 1356 
Q 3559 666 3084 287 
Q 2609 -91 1734 -91 
Q 1441 -91 1130 -33 
Q 819 25 488 141 
L 488 750 
Q 750 597 1062 519 
Q 1375 441 1716 441 
Q 2309 441 2620 675 
Q 2931 909 2931 1356 
Q 2931 1769 2642 2001 
Q 2353 2234 1838 2234 
L 1294 2234 
L 1294 2753 
L 1863 2753 
Q 2328 2753 2575 2939 
Q 2822 3125 2822 3475 
Q 2822 3834 2567 4026 
Q 2313 4219 1838 4219 
Q 1578 4219 1281 4162 
Q 984 4106 628 3988 
L 628 4550 
Q 988 4650 1302 4700 
Q 1616 4750 1894 4750 
Q 2613 4750 3031 4423 
Q 3450 4097 3450 3541 
Q 3450 3153 3228 2886 
Q 3006 2619 2597 2516 
z
" transform="scale(0.015625)"/>
       </defs>
       <use xlink:href="#DejaVuSans-33"/>
       <use xlink:href="#DejaVuSans-30" x="63.623047"/>
      </g>
     </g>
    </g>
   </g>
   <g id="matplotlib.axis_2">
    <g id="ytick_1">
     <g id="line2d_6">
      <defs>
       <path id="m44f56d87b9" d="M 0 0 
L -3.5 0 
" style="stroke: #000000; stroke-width: 0.8"/>
      </defs>
      <g>
       <use xlink:href="#m44f56d87b9" x="35.304688" y="247.804663" style="stroke: #000000; stroke-width: 0.8"/>
      </g>
     </g>
     <g id="text_6">
      <!-- −20 -->
      <g transform="translate(7.2 251.603881) scale(0.1 -0.1)">
       <use xlink:href="#DejaVuSans-2212"/>
       <use xlink:href="#DejaVuSans-32" x="83.789062"/>
       <use xlink:href="#DejaVuSans-30" x="147.412109"/>
      </g>
     </g>
    </g>
    <g id="ytick_2">
     <g id="line2d_7">
      <g>
       <use xlink:href="#m44f56d87b9" x="35.304688" y="198.671324" style="stroke: #000000; stroke-width: 0.8"/>
      </g>
     </g>
     <g id="text_7">
      <!-- −10 -->
      <g transform="translate(7.2 202.470543) scale(0.1 -0.1)">
       <use xlink:href="#DejaVuSans-2212"/>
       <use xlink:href="#DejaVuSans-31" x="83.789062"/>
       <use xlink:href="#DejaVuSans-30" x="147.412109"/>
      </g>
     </g>
    </g>
    <g id="ytick_3">
     <g id="line2d_8">
      <g>
       <use xlink:href="#m44f56d87b9" x="35.304688" y="149.537986" style="stroke: #000000; stroke-width: 0.8"/>
      </g>
     </g>
     <g id="text_8">
      <!-- 0 -->
      <g transform="translate(21.942187 153.337204) scale(0.1 -0.1)">
       <use xlink:href="#DejaVuSans-30"/>
      </g>
     </g>
    </g>
    <g id="ytick_4">
     <g id="line2d_9">
      <g>
       <use xlink:href="#m44f56d87b9" x="35.304688" y="100.404647" style="stroke: #000000; stroke-width: 0.8"/>
      </g>
     </g>
     <g id="text_9">
      <!-- 10 -->
      <g transform="translate(15.579687 104.203866) scale(0.1 -0.1)">
       <use xlink:href="#DejaVuSans-31"/>
       <use xlink:href="#DejaVuSans-30" x="63.623047"/>
      </g>
     </g>
    </g>
    <g id="ytick_5">
     <g id="line2d_10">
      <g>
       <use xlink:href="#m44f56d87b9" x="35.304688" y="51.271308" style="stroke: #000000; stroke-width: 0.8"/>
      </g>
     </g>
     <g id="text_10">
      <!-- 20 -->
      <g transform="translate(15.579687 55.070527) scale(0.1 -0.1)">
       <use xlink:href="#DejaVuSans-32"/>
       <use xlink:href="#DejaVuSans-30" x="63.623047"/>
      </g>
     </g>
    </g>
   </g>
   <g id="patch_3">
    <path d="M 35.304688 273.312 
L 35.304688 7.2 
" style="fill: none; stroke: #000000; stroke-width: 0.8; stroke-linejoin: miter; stroke-linecap: square"/>
   </g>
   <g id="patch_4">
    <path d="M 392.424688 273.312 
L 392.424688 7.2 
" style="fill: none; stroke: #000000; stroke-width: 0.8; stroke-linejoin: miter; stroke-linecap: square"/>
   </g>
   <g id="patch_5">
    <path d="M 35.304687 273.312 
L 392.424688 273.312 
" style="fill: none; stroke: #000000; stroke-width: 0.8; stroke-linejoin: miter; stroke-linecap: square"/>
   </g>
   <g id="patch_6">
    <path d="M 35.304687 7.2 
L 392.424688 7.2 
" style="fill: none; stroke: #000000; stroke-width: 0.8; stroke-linejoin: miter; stroke-linecap: square"/>
   </g>
  </g>
 </g>
 <defs>
  <clipPath id="pf301c94e9b">
   <rect x="35.304688" y="7.2" width="357.12" height="266.112"/>
  </clipPath>
 </defs>
</svg>
