<?xml version="1.0" encoding="utf-8" standalone="no"?>
<!DOCTYPE svg PUBLIC "-//W3C//DTD SVG 1.1//EN"
  "http://www.w3.org/Graphics/SVG/1.1/DTD/svg11.dtd">
<svg xmlns:xlink="http://www.w3.org/1999/xlink" width="399.624687pt" height="297.190125pt" viewBox="0 0 399.624687 297.190125" xmlns="http://www.w3.org/2000/svg" version="1.1">
 <metadata>
  <rdf:RDF xmlns:dc="http://purl.org/dc/elements/1.1/" xmlns:cc="http://creativecommons.org/ns#" xmlns:rdf="http://www.w3.org/1999/02/22-rdf-syntax-ns#">
   <cc:Work>
    <dc:type rdf:resource="http://purl.org/dc/dcmitype/StillImage"/>
    <dc:date>2023-11-13T21:08:42.560360</dc:date>
    <dc:format>image/svg+xml</dc:format>
    <dc:creator>
     <cc:Agent>
      <dc:title>Matplotlib v3.8.0, https://matplotlib.org/</dc:title>
     </cc:Agent>
    </dc:creator>
   </cc:Work>
  </rdf:RDF>
 </metadata>
 <defs>
  <style type="text/css">*{stroke-linejoin: round; stroke-linecap: butt}</style>
 </defs>
 <g id="figure_1">
  <g id="patch_1">
   <path d="M 0 297.190125 
L 399.624687 297.190125 
L 399.624687 0 
L 0 0 
z
" style="fill: #ffffff"/>
  </g>
  <g id="axes_1">
   <g id="patch_2">
    <path d="M 35.304688 273.312 
L 392.424688 273.312 
L 392.424688 7.2 
L 35.304688 7.2 
z
" style="fill: #ffffff"/>
   </g>
   <g id="PathCollection_1">
    <defs>
     <path id="m4a9c0fe10a" d="M 0 1.5 
C 0.397805 1.5 0.77937 1.341951 1.06066 1.06066 
C 1.341951 0.77937 1.5 0.397805 1.5 0 
C 1.5 -0.397805 1.341951 -0.77937 1.06066 -1.06066 
C 0.77937 -1.341951 0.397805 -1.5 0 -1.5 
C -0.397805 -1.5 -0.77937 -1.341951 -1.06066 -1.06066 
C -1.341951 -0.77937 -1.5 -0.397805 -1.5 0 
C -1.5 0.397805 -1.341951 0.77937 -1.06066 1.06066 
C -0.77937 1.341951 -0.397805 1.5 0 1.5 
z
" style="stroke: #ff8c00"/>
    </defs>
    <g clip-path="url(#p382550a997)">
     <use xlink:href="#m4a9c0fe10a" x="137.6084" y="233.243143" style="fill: #ff8c00; stroke: #ff8c00"/>
     <use xlink:href="#m4a9c0fe10a" x="270.261788" y="216.41171" style="fill: #ff8c00; stroke: #ff8c00"/>
     <use xlink:href="#m4a9c0fe10a" x="209.577377" y="215.120883" style="fill: #ff8c00; stroke: #ff8c00"/>
     <use xlink:href="#m4a9c0fe10a" x="227.292189" y="208.076006" style="fill: #ff8c00; stroke: #ff8c00"/>
     <use xlink:href="#m4a9c0fe10a" x="182.639013" y="228.450809" style="fill: #ff8c00; stroke: #ff8c00"/>
     <use xlink:href="#m4a9c0fe10a" x="311.831787" y="211.67225" style="fill: #ff8c00; stroke: #ff8c00"/>
     <use xlink:href="#m4a9c0fe10a" x="242.51532" y="214.584859" style="fill: #ff8c00; stroke: #ff8c00"/>
     <use xlink:href="#m4a9c0fe10a" x="287.159576" y="185.340581" style="fill: #ff8c00; stroke: #ff8c00"/>
     <use xlink:href="#m4a9c0fe10a" x="144.621249" y="213.702473" style="fill: #ff8c00; stroke: #ff8c00"/>
     <use xlink:href="#m4a9c0fe10a" x="221.47673" y="221.774769" style="fill: #ff8c00; stroke: #ff8c00"/>
     <use xlink:href="#m4a9c0fe10a" x="324.966784" y="210.107637" style="fill: #ff8c00; stroke: #ff8c00"/>
     <use xlink:href="#m4a9c0fe10a" x="315.981312" y="201.62263" style="fill: #ff8c00; stroke: #ff8c00"/>
     <use xlink:href="#m4a9c0fe10a" x="283.104265" y="220.062465" style="fill: #ff8c00; stroke: #ff8c00"/>
     <use xlink:href="#m4a9c0fe10a" x="148.747672" y="235.010544" style="fill: #ff8c00; stroke: #ff8c00"/>
    </g>
   </g>
   <g id="PathCollection_2">
    <defs>
     <path id="mab05378c6e" d="M 0 1.5 
C 0.397805 1.5 0.77937 1.341951 1.06066 1.06066 
C 1.341951 0.77937 1.5 0.397805 1.5 0 
C 1.5 -0.397805 1.341951 -0.77937 1.06066 -1.06066 
C 0.77937 -1.341951 0.397805 -1.5 0 -1.5 
C -0.397805 -1.5 -0.77937 -1.341951 -1.06066 -1.06066 
C -1.341951 -0.77937 -1.5 -0.397805 -1.5 0 
C -1.5 0.397805 -1.341951 0.77937 -1.06066 1.06066 
C -0.77937 1.341951 -0.397805 1.5 0 1.5 
z
" style="stroke: #006400"/>
    </defs>
    <g clip-path="url(#p382550a997)">
     <use xlink:href="#mab05378c6e" x="149.689177" y="141.986908" style="fill: #006400; stroke: #006400"/>
     <use xlink:href="#mab05378c6e" x="202.654419" y="129.400506" style="fill: #006400; stroke: #006400"/>
     <use xlink:href="#mab05378c6e" x="130.48215" y="165.001076" style="fill: #006400; stroke: #006400"/>
     <use xlink:href="#mab05378c6e" x="98.629406" y="201.180747" style="fill: #006400; stroke: #006400"/>
     <use xlink:href="#mab05378c6e" x="98.620979" y="19.296" style="fill: #006400; stroke: #006400"/>
     <use xlink:href="#mab05378c6e" x="139.863839" y="179.466243" style="fill: #006400; stroke: #006400"/>
     <use xlink:href="#mab05378c6e" x="188.141936" y="156.734159" style="fill: #006400; stroke: #006400"/>
     <use xlink:href="#mab05378c6e" x="84.366057" y="102.118116" style="fill: #006400; stroke: #006400"/>
     <use xlink:href="#mab05378c6e" x="85.678099" y="80.276258" style="fill: #006400; stroke: #006400"/>
     <use xlink:href="#mab05378c6e" x="125.142721" y="145.36994" style="fill: #006400; stroke: #006400"/>
     <use xlink:href="#mab05378c6e" x="279.003324" y="136.461377" style="fill: #006400; stroke: #006400"/>
     <use xlink:href="#mab05378c6e" x="188.925982" y="143.822265" style="fill: #006400; stroke: #006400"/>
     <use xlink:href="#mab05378c6e" x="273.261847" y="187.136241" style="fill: #006400; stroke: #006400"/>
     <use xlink:href="#mab05378c6e" x="166.352405" y="170.310012" style="fill: #006400; stroke: #006400"/>
     <use xlink:href="#mab05378c6e" x="114.55758" y="140.639731" style="fill: #006400; stroke: #006400"/>
     <use xlink:href="#mab05378c6e" x="123.711614" y="132.961967" style="fill: #006400; stroke: #006400"/>
    </g>
   </g>
   <g id="PathCollection_3">
    <defs>
     <path id="mc3e06f656b" d="M 0 1.5 
C 0.397805 1.5 0.77937 1.341951 1.06066 1.06066 
C 1.341951 0.77937 1.5 0.397805 1.5 0 
C 1.5 -0.397805 1.341951 -0.77937 1.06066 -1.06066 
C 0.77937 -1.341951 0.397805 -1.5 0 -1.5 
C -0.397805 -1.5 -0.77937 -1.341951 -1.06066 -1.06066 
C -1.341951 -0.77937 -1.5 -0.397805 -1.5 0 
C -1.5 0.397805 -1.341951 0.77937 -1.06066 1.06066 
C -0.77937 1.341951 -0.397805 1.5 0 1.5 
z
" style="stroke: #2f4f4f"/>
    </defs>
    <g clip-path="url(#p382550a997)">
     <use xlink:href="#mc3e06f656b" x="103.539604" y="229.621673" style="fill: #2f4f4f; stroke: #2f4f4f"/>
     <use xlink:href="#mc3e06f656b" x="82.855035" y="218.871614" style="fill: #2f4f4f; stroke: #2f4f4f"/>
     <use xlink:href="#mc3e06f656b" x="98.465421" y="222.288352" style="fill: #2f4f4f; stroke: #2f4f4f"/>
     <use xlink:href="#mc3e06f656b" x="268.290741" y="227.343104" style="fill: #2f4f4f; stroke: #2f4f4f"/>
     <use xlink:href="#mc3e06f656b" x="125.772155" y="249.475589" style="fill: #2f4f4f; stroke: #2f4f4f"/>
     <use xlink:href="#mc3e06f656b" x="127.169961" y="215.925599" style="fill: #2f4f4f; stroke: #2f4f4f"/>
    </g>
   </g>
   <g id="PathCollection_4">
    <defs>
     <path id="m2b7131d7c1" d="M 0 1.5 
C 0.397805 1.5 0.77937 1.341951 1.06066 1.06066 
C 1.341951 0.77937 1.5 0.397805 1.5 0 
C 1.5 -0.397805 1.341951 -0.77937 1.06066 -1.06066 
C 0.77937 -1.341951 0.397805 -1.5 0 -1.5 
C -0.397805 -1.5 -0.77937 -1.341951 -1.06066 -1.06066 
C -1.341951 -0.77937 -1.5 -0.397805 -1.5 0 
C -1.5 0.397805 -1.341951 0.77937 -1.06066 1.06066 
C -0.77937 1.341951 -0.397805 1.5 0 1.5 
z
" style="stroke: #00bfff"/>
    </defs>
    <g clip-path="url(#p382550a997)">
     <use xlink:href="#m2b7131d7c1" x="214.769008" y="231.22497" style="fill: #00bfff; stroke: #00bfff"/>
     <use xlink:href="#m2b7131d7c1" x="93.347912" y="241.318119" style="fill: #00bfff; stroke: #00bfff"/>
     <use xlink:href="#m2b7131d7c1" x="172.73826" y="238.382216" style="fill: #00bfff; stroke: #00bfff"/>
     <use xlink:href="#m2b7131d7c1" x="149.766306" y="234.16093" style="fill: #00bfff; stroke: #00bfff"/>
     <use xlink:href="#m2b7131d7c1" x="212.858732" y="225.664794" style="fill: #00bfff; stroke: #00bfff"/>
     <use xlink:href="#m2b7131d7c1" x="131.663461" y="242.043613" style="fill: #00bfff; stroke: #00bfff"/>
     <use xlink:href="#m2b7131d7c1" x="150.054994" y="223.841773" style="fill: #00bfff; stroke: #00bfff"/>
     <use xlink:href="#m2b7131d7c1" x="79.795441" y="226.410287" style="fill: #00bfff; stroke: #00bfff"/>
     <use xlink:href="#m2b7131d7c1" x="149.417688" y="234.536696" style="fill: #00bfff; stroke: #00bfff"/>
     <use xlink:href="#m2b7131d7c1" x="172.64683" y="224.411888" style="fill: #00bfff; stroke: #00bfff"/>
     <use xlink:href="#m2b7131d7c1" x="160.075403" y="251.214005" style="fill: #00bfff; stroke: #00bfff"/>
     <use xlink:href="#m2b7131d7c1" x="189.186501" y="232.436521" style="fill: #00bfff; stroke: #00bfff"/>
     <use xlink:href="#m2b7131d7c1" x="121.520049" y="246.243725" style="fill: #00bfff; stroke: #00bfff"/>
     <use xlink:href="#m2b7131d7c1" x="209.376117" y="220.521904" style="fill: #00bfff; stroke: #00bfff"/>
     <use xlink:href="#m2b7131d7c1" x="111.681092" y="231.630033" style="fill: #00bfff; stroke: #00bfff"/>
     <use xlink:href="#m2b7131d7c1" x="96.164436" y="223.59434" style="fill: #00bfff; stroke: #00bfff"/>
     <use xlink:href="#m2b7131d7c1" x="130.838216" y="233.139616" style="fill: #00bfff; stroke: #00bfff"/>
     <use xlink:href="#m2b7131d7c1" x="108.64701" y="246.995932" style="fill: #00bfff; stroke: #00bfff"/>
     <use xlink:href="#m2b7131d7c1" x="110.155144" y="237.188548" style="fill: #00bfff; stroke: #00bfff"/>
     <use xlink:href="#m2b7131d7c1" x="257.978766" y="212.309211" style="fill: #00bfff; stroke: #00bfff"/>
     <use xlink:href="#m2b7131d7c1" x="248.804982" y="214.007105" style="fill: #00bfff; stroke: #00bfff"/>
    </g>
   </g>
   <g id="PathCollection_5">
    <defs>
     <path id="m68f46f0766" d="M 0 1.5 
C 0.397805 1.5 0.77937 1.341951 1.06066 1.06066 
C 1.341951 0.77937 1.5 0.397805 1.5 0 
C 1.5 -0.397805 1.341951 -0.77937 1.06066 -1.06066 
C 0.77937 -1.341951 0.397805 -1.5 0 -1.5 
C -0.397805 -1.5 -0.77937 -1.341951 -1.06066 -1.06066 
C -1.341951 -0.77937 -1.5 -0.397805 -1.5 0 
C -1.5 0.397805 -1.341951 0.77937 -1.06066 1.06066 
C -0.77937 1.341951 -0.397805 1.5 0 1.5 
z
" style="stroke: #ffff00"/>
    </defs>
    <g clip-path="url(#p382550a997)">
     <use xlink:href="#m68f46f0766" x="147.986361" y="238.997577" style="fill: #ffff00; stroke: #ffff00"/>
     <use xlink:href="#m68f46f0766" x="72.679372" y="176.270398" style="fill: #ffff00; stroke: #ffff00"/>
     <use xlink:href="#m68f46f0766" x="306.431354" y="212.819413" style="fill: #ffff00; stroke: #ffff00"/>
     <use xlink:href="#m68f46f0766" x="167.306266" y="225.934756" style="fill: #ffff00; stroke: #ffff00"/>
     <use xlink:href="#m68f46f0766" x="132.828384" y="247.752232" style="fill: #ffff00; stroke: #ffff00"/>
     <use xlink:href="#m68f46f0766" x="179.954786" y="228.286553" style="fill: #ffff00; stroke: #ffff00"/>
     <use xlink:href="#m68f46f0766" x="147.425473" y="214.357908" style="fill: #ffff00; stroke: #ffff00"/>
     <use xlink:href="#m68f46f0766" x="118.507075" y="214.387045" style="fill: #ffff00; stroke: #ffff00"/>
     <use xlink:href="#m68f46f0766" x="288.624091" y="227.874975" style="fill: #ffff00; stroke: #ffff00"/>
     <use xlink:href="#m68f46f0766" x="132.363525" y="215.880267" style="fill: #ffff00; stroke: #ffff00"/>
     <use xlink:href="#m68f46f0766" x="103.900516" y="234.951183" style="fill: #ffff00; stroke: #ffff00"/>
    </g>
   </g>
   <g id="PathCollection_6">
    <defs>
     <path id="m60c63dea8c" d="M 0 1.5 
C 0.397805 1.5 0.77937 1.341951 1.06066 1.06066 
C 1.341951 0.77937 1.5 0.397805 1.5 0 
C 1.5 -0.397805 1.341951 -0.77937 1.06066 -1.06066 
C 0.77937 -1.341951 0.397805 -1.5 0 -1.5 
C -0.397805 -1.5 -0.77937 -1.341951 -1.06066 -1.06066 
C -1.341951 -0.77937 -1.5 -0.397805 -1.5 0 
C -1.5 0.397805 -1.341951 0.77937 -1.06066 1.06066 
C -0.77937 1.341951 -0.397805 1.5 0 1.5 
z
" style="stroke: #00ffff"/>
    </defs>
    <g clip-path="url(#p382550a997)">
     <use xlink:href="#m60c63dea8c" x="82.255839" y="249.247381" style="fill: #00ffff; stroke: #00ffff"/>
     <use xlink:href="#m60c63dea8c" x="120.037415" y="231.126244" style="fill: #00ffff; stroke: #00ffff"/>
     <use xlink:href="#m60c63dea8c" x="160.186178" y="238.849362" style="fill: #00ffff; stroke: #00ffff"/>
     <use xlink:href="#m60c63dea8c" x="177.668675" y="230.035903" style="fill: #00ffff; stroke: #00ffff"/>
     <use xlink:href="#m60c63dea8c" x="120.036323" y="240.999633" style="fill: #00ffff; stroke: #00ffff"/>
     <use xlink:href="#m60c63dea8c" x="109.557076" y="234.631811" style="fill: #00ffff; stroke: #00ffff"/>
     <use xlink:href="#m60c63dea8c" x="96.832273" y="221.205726" style="fill: #00ffff; stroke: #00ffff"/>
     <use xlink:href="#m60c63dea8c" x="137.83183" y="239.276628" style="fill: #00ffff; stroke: #00ffff"/>
     <use xlink:href="#m60c63dea8c" x="128.394497" y="233.861167" style="fill: #00ffff; stroke: #00ffff"/>
     <use xlink:href="#m60c63dea8c" x="108.90879" y="249.540843" style="fill: #00ffff; stroke: #00ffff"/>
     <use xlink:href="#m60c63dea8c" x="125.291397" y="219.128037" style="fill: #00ffff; stroke: #00ffff"/>
     <use xlink:href="#m60c63dea8c" x="131.20377" y="239.01344" style="fill: #00ffff; stroke: #00ffff"/>
    </g>
   </g>
   <g id="PathCollection_7">
    <defs>
     <path id="mf688e3610d" d="M 0 1.5 
C 0.397805 1.5 0.77937 1.341951 1.06066 1.06066 
C 1.341951 0.77937 1.5 0.397805 1.5 0 
C 1.5 -0.397805 1.341951 -0.77937 1.06066 -1.06066 
C 0.77937 -1.341951 0.397805 -1.5 0 -1.5 
C -0.397805 -1.5 -0.77937 -1.341951 -1.06066 -1.06066 
C -1.341951 -0.77937 -1.5 -0.397805 -1.5 0 
C -1.5 0.397805 -1.341951 0.77937 -1.06066 1.06066 
C -0.77937 1.341951 -0.397805 1.5 0 1.5 
z
" style="stroke: #0000ff"/>
    </defs>
    <g clip-path="url(#p382550a997)">
     <use xlink:href="#mf688e3610d" x="106.807243" y="227.213391" style="fill: #0000ff; stroke: #0000ff"/>
     <use xlink:href="#mf688e3610d" x="130.017291" y="237.414969" style="fill: #0000ff; stroke: #0000ff"/>
     <use xlink:href="#mf688e3610d" x="132.69113" y="231.144797" style="fill: #0000ff; stroke: #0000ff"/>
     <use xlink:href="#mf688e3610d" x="87.082488" y="205.112835" style="fill: #0000ff; stroke: #0000ff"/>
     <use xlink:href="#mf688e3610d" x="281.645909" y="215.575863" style="fill: #0000ff; stroke: #0000ff"/>
     <use xlink:href="#mf688e3610d" x="112.944066" y="230.819399" style="fill: #0000ff; stroke: #0000ff"/>
     <use xlink:href="#mf688e3610d" x="138.539395" y="200.74754" style="fill: #0000ff; stroke: #0000ff"/>
     <use xlink:href="#mf688e3610d" x="112.590137" y="220.6043" style="fill: #0000ff; stroke: #0000ff"/>
     <use xlink:href="#mf688e3610d" x="86.893331" y="222.700862" style="fill: #0000ff; stroke: #0000ff"/>
     <use xlink:href="#mf688e3610d" x="100.218774" y="222.648263" style="fill: #0000ff; stroke: #0000ff"/>
     <use xlink:href="#mf688e3610d" x="102.894313" y="238.62013" style="fill: #0000ff; stroke: #0000ff"/>
     <use xlink:href="#mf688e3610d" x="83.611781" y="246.200676" style="fill: #0000ff; stroke: #0000ff"/>
     <use xlink:href="#mf688e3610d" x="70.640673" y="237.404344" style="fill: #0000ff; stroke: #0000ff"/>
     <use xlink:href="#mf688e3610d" x="149.173651" y="239.686432" style="fill: #0000ff; stroke: #0000ff"/>
     <use xlink:href="#mf688e3610d" x="75.229229" y="232.4245" style="fill: #0000ff; stroke: #0000ff"/>
     <use xlink:href="#mf688e3610d" x="138.539395" y="200.74754" style="fill: #0000ff; stroke: #0000ff"/>
     <use xlink:href="#mf688e3610d" x="97.460795" y="220.516227" style="fill: #0000ff; stroke: #0000ff"/>
     <use xlink:href="#mf688e3610d" x="51.537415" y="261.216" style="fill: #0000ff; stroke: #0000ff"/>
     <use xlink:href="#mf688e3610d" x="107.247103" y="218.189258" style="fill: #0000ff; stroke: #0000ff"/>
    </g>
   </g>
   <g id="PathCollection_8">
    <defs>
     <path id="med84f425bf" d="M 0 1.5 
C 0.397805 1.5 0.77937 1.341951 1.06066 1.06066 
C 1.341951 0.77937 1.5 0.397805 1.5 0 
C 1.5 -0.397805 1.341951 -0.77937 1.06066 -1.06066 
C 0.77937 -1.341951 0.397805 -1.5 0 -1.5 
C -0.397805 -1.5 -0.77937 -1.341951 -1.06066 -1.06066 
C -1.341951 -0.77937 -1.5 -0.397805 -1.5 0 
C -1.5 0.397805 -1.341951 0.77937 -1.06066 1.06066 
C -0.77937 1.341951 -0.397805 1.5 0 1.5 
z
" style="stroke: #dc143c"/>
    </defs>
    <g clip-path="url(#p382550a997)">
     <use xlink:href="#med84f425bf" x="109.070906" y="217.730695" style="fill: #dc143c; stroke: #dc143c"/>
     <use xlink:href="#med84f425bf" x="100.785277" y="197.191373" style="fill: #dc143c; stroke: #dc143c"/>
     <use xlink:href="#med84f425bf" x="133.098841" y="234.222187" style="fill: #dc143c; stroke: #dc143c"/>
     <use xlink:href="#med84f425bf" x="77.704308" y="224.954176" style="fill: #dc143c; stroke: #dc143c"/>
     <use xlink:href="#med84f425bf" x="278.828353" y="196.473264" style="fill: #dc143c; stroke: #dc143c"/>
     <use xlink:href="#med84f425bf" x="70.831107" y="213.349015" style="fill: #dc143c; stroke: #dc143c"/>
     <use xlink:href="#med84f425bf" x="158.751679" y="197.52646" style="fill: #dc143c; stroke: #dc143c"/>
     <use xlink:href="#med84f425bf" x="209.386161" y="227.443572" style="fill: #dc143c; stroke: #dc143c"/>
     <use xlink:href="#med84f425bf" x="112.275369" y="227.941796" style="fill: #dc143c; stroke: #dc143c"/>
     <use xlink:href="#med84f425bf" x="101.157671" y="221.055462" style="fill: #dc143c; stroke: #dc143c"/>
     <use xlink:href="#med84f425bf" x="120.80519" y="222.824763" style="fill: #dc143c; stroke: #dc143c"/>
     <use xlink:href="#med84f425bf" x="118.441029" y="224.393726" style="fill: #dc143c; stroke: #dc143c"/>
     <use xlink:href="#med84f425bf" x="88.950053" y="238.112643" style="fill: #dc143c; stroke: #dc143c"/>
     <use xlink:href="#med84f425bf" x="167.729965" y="224.829287" style="fill: #dc143c; stroke: #dc143c"/>
    </g>
   </g>
   <g id="PathCollection_9">
    <defs>
     <path id="m53103b591e" d="M 0 1.5 
C 0.397805 1.5 0.77937 1.341951 1.06066 1.06066 
C 1.341951 0.77937 1.5 0.397805 1.5 0 
C 1.5 -0.397805 1.341951 -0.77937 1.06066 -1.06066 
C 0.77937 -1.341951 0.397805 -1.5 0 -1.5 
C -0.397805 -1.5 -0.77937 -1.341951 -1.06066 -1.06066 
C -1.341951 -0.77937 -1.5 -0.397805 -1.5 0 
C -1.5 0.397805 -1.341951 0.77937 -1.06066 1.06066 
C -0.77937 1.341951 -0.397805 1.5 0 1.5 
z
" style="stroke: #ffe4c4"/>
    </defs>
    <g clip-path="url(#p382550a997)">
     <use xlink:href="#m53103b591e" x="159.056764" y="194.538847" style="fill: #ffe4c4; stroke: #ffe4c4"/>
     <use xlink:href="#m53103b591e" x="83.009769" y="190.649929" style="fill: #ffe4c4; stroke: #ffe4c4"/>
     <use xlink:href="#m53103b591e" x="291.812357" y="182.288441" style="fill: #ffe4c4; stroke: #ffe4c4"/>
     <use xlink:href="#m53103b591e" x="220.897379" y="203.548342" style="fill: #ffe4c4; stroke: #ffe4c4"/>
     <use xlink:href="#m53103b591e" x="192.008438" y="158.096533" style="fill: #ffe4c4; stroke: #ffe4c4"/>
     <use xlink:href="#m53103b591e" x="221.692762" y="140.453802" style="fill: #ffe4c4; stroke: #ffe4c4"/>
     <use xlink:href="#m53103b591e" x="237.974713" y="199.578515" style="fill: #ffe4c4; stroke: #ffe4c4"/>
     <use xlink:href="#m53103b591e" x="239.498849" y="149.449574" style="fill: #ffe4c4; stroke: #ffe4c4"/>
     <use xlink:href="#m53103b591e" x="261.137092" y="156.347845" style="fill: #ffe4c4; stroke: #ffe4c4"/>
     <use xlink:href="#m53103b591e" x="270.353066" y="181.241371" style="fill: #ffe4c4; stroke: #ffe4c4"/>
     <use xlink:href="#m53103b591e" x="208.181026" y="159.545014" style="fill: #ffe4c4; stroke: #ffe4c4"/>
     <use xlink:href="#m53103b591e" x="148.725472" y="177.26445" style="fill: #ffe4c4; stroke: #ffe4c4"/>
     <use xlink:href="#m53103b591e" x="146.459756" y="183.910389" style="fill: #ffe4c4; stroke: #ffe4c4"/>
     <use xlink:href="#m53103b591e" x="123.051827" y="153.65222" style="fill: #ffe4c4; stroke: #ffe4c4"/>
     <use xlink:href="#m53103b591e" x="229.163311" y="174.328365" style="fill: #ffe4c4; stroke: #ffe4c4"/>
    </g>
   </g>
   <g id="PathCollection_10">
    <defs>
     <path id="m8ff0fd2879" d="M -2.99994 2.99994 
L 3.00006 2.99994 
L 3.00006 -3.00006 
L -2.99994 -3.00006 
z
" style="stroke: #000000"/>
    </defs>
    <g clip-path="url(#p382550a997)">
     <use xlink:href="#m8ff0fd2879" x="345.302784" y="221.214251" style="stroke: #000000"/>
     <use xlink:href="#m8ff0fd2879" x="334.075444" y="205.297623" style="stroke: #000000"/>
     <use xlink:href="#m8ff0fd2879" x="203.370405" y="202.014957" style="stroke: #000000"/>
     <use xlink:href="#m8ff0fd2879" x="252.638656" y="209.945206" style="stroke: #000000"/>
     <use xlink:href="#m8ff0fd2879" x="355.456998" y="203.460793" style="stroke: #000000"/>
     <use xlink:href="#m8ff0fd2879" x="281.627522" y="202.419237" style="stroke: #000000"/>
     <use xlink:href="#m8ff0fd2879" x="311.508724" y="212.286101" style="stroke: #000000"/>
     <use xlink:href="#m8ff0fd2879" x="194.334754" y="217.617754" style="stroke: #000000"/>
     <use xlink:href="#m8ff0fd2879" x="241.807089" y="216.015223" style="stroke: #000000"/>
     <use xlink:href="#m8ff0fd2879" x="245.352089" y="199.782097" style="stroke: #000000"/>
     <use xlink:href="#m8ff0fd2879" x="238.915609" y="209.287607" style="stroke: #000000"/>
     <use xlink:href="#m8ff0fd2879" x="294.400892" y="213.385913" style="stroke: #000000"/>
     <use xlink:href="#m8ff0fd2879" x="304.301276" y="191.429125" style="stroke: #000000"/>
     <use xlink:href="#m8ff0fd2879" x="197.953515" y="221.408724" style="stroke: #000000"/>
     <use xlink:href="#m8ff0fd2879" x="104.799989" y="147.432639" style="stroke: #000000"/>
     <use xlink:href="#m8ff0fd2879" x="339.447374" y="209.912201" style="stroke: #000000"/>
     <use xlink:href="#m8ff0fd2879" x="311.427024" y="215.159463" style="stroke: #000000"/>
     <use xlink:href="#m8ff0fd2879" x="376.19196" y="217.011516" style="stroke: #000000"/>
     <use xlink:href="#m8ff0fd2879" x="153.062298" y="231.788169" style="stroke: #000000"/>
     <use xlink:href="#m8ff0fd2879" x="302.227969" y="231.840936" style="stroke: #000000"/>
     <use xlink:href="#m8ff0fd2879" x="193.410419" y="218.27289" style="stroke: #000000"/>
     <use xlink:href="#m8ff0fd2879" x="290.661793" y="219.471608" style="stroke: #000000"/>
     <use xlink:href="#m8ff0fd2879" x="272.0259" y="204.557002" style="stroke: #000000"/>
     <use xlink:href="#m8ff0fd2879" x="301.171703" y="225.692279" style="stroke: #000000"/>
     <use xlink:href="#m8ff0fd2879" x="367.873228" y="224.565237" style="stroke: #000000"/>
     <use xlink:href="#m8ff0fd2879" x="239.052941" y="217.794002" style="stroke: #000000"/>
     <use xlink:href="#m8ff0fd2879" x="297.247738" y="199.167572" style="stroke: #000000"/>
     <use xlink:href="#m8ff0fd2879" x="266.083211" y="225.026492" style="stroke: #000000"/>
     <use xlink:href="#m8ff0fd2879" x="194.487795" y="206.867502" style="stroke: #000000"/>
     <use xlink:href="#m8ff0fd2879" x="333.900634" y="217.653062" style="stroke: #000000"/>
     <use xlink:href="#m8ff0fd2879" x="340.096115" y="210.690611" style="stroke: #000000"/>
     <use xlink:href="#m8ff0fd2879" x="268.533309" y="211.17838" style="stroke: #000000"/>
     <use xlink:href="#m8ff0fd2879" x="238.79334" y="215.918849" style="stroke: #000000"/>
     <use xlink:href="#m8ff0fd2879" x="313.169145" y="226.005588" style="stroke: #000000"/>
     <use xlink:href="#m8ff0fd2879" x="357.716436" y="209.154782" style="stroke: #000000"/>
     <use xlink:href="#m8ff0fd2879" x="290.309786" y="207.256136" style="stroke: #000000"/>
     <use xlink:href="#m8ff0fd2879" x="185.428814" y="229.811939" style="stroke: #000000"/>
     <use xlink:href="#m8ff0fd2879" x="320.726285" y="198.730845" style="stroke: #000000"/>
     <use xlink:href="#m8ff0fd2879" x="241.679846" y="228.505426" style="stroke: #000000"/>
     <use xlink:href="#m8ff0fd2879" x="215.672594" y="236.582327" style="stroke: #000000"/>
     <use xlink:href="#m8ff0fd2879" x="178.386096" y="239.691776" style="stroke: #000000"/>
     <use xlink:href="#m8ff0fd2879" x="193.135496" y="222.640359" style="stroke: #000000"/>
     <use xlink:href="#m8ff0fd2879" x="319.583885" y="205.307452" style="stroke: #000000"/>
     <use xlink:href="#m8ff0fd2879" x="321.096315" y="220.157255" style="stroke: #000000"/>
     <use xlink:href="#m8ff0fd2879" x="199.48493" y="212.064448" style="stroke: #000000"/>
     <use xlink:href="#m8ff0fd2879" x="305.105013" y="223.914241" style="stroke: #000000"/>
     <use xlink:href="#m8ff0fd2879" x="239.264716" y="223.442861" style="stroke: #000000"/>
     <use xlink:href="#m8ff0fd2879" x="237.582148" y="211.691535" style="stroke: #000000"/>
     <use xlink:href="#m8ff0fd2879" x="297.295612" y="218.750892" style="stroke: #000000"/>
     <use xlink:href="#m8ff0fd2879" x="286.349584" y="222.005596" style="stroke: #000000"/>
     <use xlink:href="#m8ff0fd2879" x="179.175227" y="225.173547" style="stroke: #000000"/>
     <use xlink:href="#m8ff0fd2879" x="244.639207" y="198.894505" style="stroke: #000000"/>
     <use xlink:href="#m8ff0fd2879" x="244.781582" y="205.604672" style="stroke: #000000"/>
     <use xlink:href="#m8ff0fd2879" x="370.387779" y="215.93667" style="stroke: #000000"/>
     <use xlink:href="#m8ff0fd2879" x="274.37211" y="217.317931" style="stroke: #000000"/>
     <use xlink:href="#m8ff0fd2879" x="139.400293" y="214.30901" style="stroke: #000000"/>
     <use xlink:href="#m8ff0fd2879" x="125.268356" y="209.872673" style="stroke: #000000"/>
     <use xlink:href="#m8ff0fd2879" x="333.51726" y="211.557969" style="stroke: #000000"/>
     <use xlink:href="#m8ff0fd2879" x="354.703009" y="211.002551" style="stroke: #000000"/>
     <use xlink:href="#m8ff0fd2879" x="318.572144" y="221.127562" style="stroke: #000000"/>
     <use xlink:href="#m8ff0fd2879" x="280.213579" y="204.950448" style="stroke: #000000"/>
     <use xlink:href="#m8ff0fd2879" x="263.317032" y="199.976002" style="stroke: #000000"/>
     <use xlink:href="#m8ff0fd2879" x="253.184416" y="191.130634" style="stroke: #000000"/>
     <use xlink:href="#m8ff0fd2879" x="323.757496" y="220.308374" style="stroke: #000000"/>
    </g>
   </g>
   <g id="PathCollection_11">
    <defs>
     <path id="m22b47e0d3d" d="M -3 -0 
L 3 3 
L 3 -3 
z
" style="stroke: #ff8c00"/>
    </defs>
    <g clip-path="url(#p382550a997)">
     <use xlink:href="#m22b47e0d3d" x="180.101651" y="221.5782" style="fill: #ff8c00; stroke: #ff8c00"/>
     <use xlink:href="#m22b47e0d3d" x="300.871526" y="222.493961" style="fill: #ff8c00; stroke: #ff8c00"/>
     <use xlink:href="#m22b47e0d3d" x="262.068762" y="230.235982" style="fill: #ff8c00; stroke: #ff8c00"/>
     <use xlink:href="#m22b47e0d3d" x="292.865545" y="204.910882" style="fill: #ff8c00; stroke: #ff8c00"/>
     <use xlink:href="#m22b47e0d3d" x="278.617831" y="224.018521" style="fill: #ff8c00; stroke: #ff8c00"/>
     <use xlink:href="#m22b47e0d3d" x="223.666686" y="226.286334" style="fill: #ff8c00; stroke: #ff8c00"/>
     <use xlink:href="#m22b47e0d3d" x="293.791253" y="216.154799" style="fill: #ff8c00; stroke: #ff8c00"/>
     <use xlink:href="#m22b47e0d3d" x="248.630527" y="220.877088" style="fill: #ff8c00; stroke: #ff8c00"/>
     <use xlink:href="#m22b47e0d3d" x="259.754832" y="224.586232" style="fill: #ff8c00; stroke: #ff8c00"/>
     <use xlink:href="#m22b47e0d3d" x="264.583594" y="229.497343" style="fill: #ff8c00; stroke: #ff8c00"/>
     <use xlink:href="#m22b47e0d3d" x="111.740334" y="230.144195" style="fill: #ff8c00; stroke: #ff8c00"/>
     <use xlink:href="#m22b47e0d3d" x="123.143636" y="226.345148" style="fill: #ff8c00; stroke: #ff8c00"/>
     <use xlink:href="#m22b47e0d3d" x="346.730197" y="219.138217" style="fill: #ff8c00; stroke: #ff8c00"/>
     <use xlink:href="#m22b47e0d3d" x="264.737128" y="233.254628" style="fill: #ff8c00; stroke: #ff8c00"/>
     <use xlink:href="#m22b47e0d3d" x="280.198063" y="232.780392" style="fill: #ff8c00; stroke: #ff8c00"/>
     <use xlink:href="#m22b47e0d3d" x="175.818819" y="240.712478" style="fill: #ff8c00; stroke: #ff8c00"/>
     <use xlink:href="#m22b47e0d3d" x="243.95107" y="233.51879" style="fill: #ff8c00; stroke: #ff8c00"/>
     <use xlink:href="#m22b47e0d3d" x="319.866617" y="225.446468" style="fill: #ff8c00; stroke: #ff8c00"/>
     <use xlink:href="#m22b47e0d3d" x="232.88903" y="231.434805" style="fill: #ff8c00; stroke: #ff8c00"/>
     <use xlink:href="#m22b47e0d3d" x="299.86231" y="223.909392" style="fill: #ff8c00; stroke: #ff8c00"/>
     <use xlink:href="#m22b47e0d3d" x="225.675735" y="225.82719" style="fill: #ff8c00; stroke: #ff8c00"/>
     <use xlink:href="#m22b47e0d3d" x="142.774535" y="241.59445" style="fill: #ff8c00; stroke: #ff8c00"/>
     <use xlink:href="#m22b47e0d3d" x="198.987837" y="237.088505" style="fill: #ff8c00; stroke: #ff8c00"/>
     <use xlink:href="#m22b47e0d3d" x="260.341776" y="233.028388" style="fill: #ff8c00; stroke: #ff8c00"/>
     <use xlink:href="#m22b47e0d3d" x="168.694954" y="235.999879" style="fill: #ff8c00; stroke: #ff8c00"/>
     <use xlink:href="#m22b47e0d3d" x="257.01712" y="226.404795" style="fill: #ff8c00; stroke: #ff8c00"/>
     <use xlink:href="#m22b47e0d3d" x="206.901119" y="237.087317" style="fill: #ff8c00; stroke: #ff8c00"/>
     <use xlink:href="#m22b47e0d3d" x="282.882333" y="215.104758" style="fill: #ff8c00; stroke: #ff8c00"/>
     <use xlink:href="#m22b47e0d3d" x="215.348939" y="227.833725" style="fill: #ff8c00; stroke: #ff8c00"/>
     <use xlink:href="#m22b47e0d3d" x="220.235575" y="217.579685" style="fill: #ff8c00; stroke: #ff8c00"/>
     <use xlink:href="#m22b47e0d3d" x="210.146694" y="230.512319" style="fill: #ff8c00; stroke: #ff8c00"/>
     <use xlink:href="#m22b47e0d3d" x="304.314274" y="227.060294" style="fill: #ff8c00; stroke: #ff8c00"/>
     <use xlink:href="#m22b47e0d3d" x="292.754596" y="217.623434" style="fill: #ff8c00; stroke: #ff8c00"/>
     <use xlink:href="#m22b47e0d3d" x="246.622963" y="226.352395" style="fill: #ff8c00; stroke: #ff8c00"/>
     <use xlink:href="#m22b47e0d3d" x="289.530654" y="229.411656" style="fill: #ff8c00; stroke: #ff8c00"/>
     <use xlink:href="#m22b47e0d3d" x="268.592636" y="218.32893" style="fill: #ff8c00; stroke: #ff8c00"/>
     <use xlink:href="#m22b47e0d3d" x="207.691423" y="226.517083" style="fill: #ff8c00; stroke: #ff8c00"/>
     <use xlink:href="#m22b47e0d3d" x="185.337955" y="236.932095" style="fill: #ff8c00; stroke: #ff8c00"/>
     <use xlink:href="#m22b47e0d3d" x="293.539953" y="224.317536" style="fill: #ff8c00; stroke: #ff8c00"/>
     <use xlink:href="#m22b47e0d3d" x="222.406005" y="232.231799" style="fill: #ff8c00; stroke: #ff8c00"/>
     <use xlink:href="#m22b47e0d3d" x="325.277004" y="226.783835" style="fill: #ff8c00; stroke: #ff8c00"/>
     <use xlink:href="#m22b47e0d3d" x="107.132753" y="238.483452" style="fill: #ff8c00; stroke: #ff8c00"/>
     <use xlink:href="#m22b47e0d3d" x="270.601143" y="229.811657" style="fill: #ff8c00; stroke: #ff8c00"/>
     <use xlink:href="#m22b47e0d3d" x="138.764664" y="226.930191" style="fill: #ff8c00; stroke: #ff8c00"/>
     <use xlink:href="#m22b47e0d3d" x="202.20563" y="237.821155" style="fill: #ff8c00; stroke: #ff8c00"/>
     <use xlink:href="#m22b47e0d3d" x="210.250881" y="236.730983" style="fill: #ff8c00; stroke: #ff8c00"/>
     <use xlink:href="#m22b47e0d3d" x="152.227158" y="232.62525" style="fill: #ff8c00; stroke: #ff8c00"/>
     <use xlink:href="#m22b47e0d3d" x="286.253007" y="229.141865" style="fill: #ff8c00; stroke: #ff8c00"/>
     <use xlink:href="#m22b47e0d3d" x="165.306099" y="237.063829" style="fill: #ff8c00; stroke: #ff8c00"/>
     <use xlink:href="#m22b47e0d3d" x="310.697205" y="222.861413" style="fill: #ff8c00; stroke: #ff8c00"/>
     <use xlink:href="#m22b47e0d3d" x="272.506413" y="231.714733" style="fill: #ff8c00; stroke: #ff8c00"/>
     <use xlink:href="#m22b47e0d3d" x="191.755534" y="236.303831" style="fill: #ff8c00; stroke: #ff8c00"/>
     <use xlink:href="#m22b47e0d3d" x="204.074213" y="225.199964" style="fill: #ff8c00; stroke: #ff8c00"/>
     <use xlink:href="#m22b47e0d3d" x="283.528961" y="225.043609" style="fill: #ff8c00; stroke: #ff8c00"/>
     <use xlink:href="#m22b47e0d3d" x="341.364532" y="221.615346" style="fill: #ff8c00; stroke: #ff8c00"/>
     <use xlink:href="#m22b47e0d3d" x="228.561107" y="239.311257" style="fill: #ff8c00; stroke: #ff8c00"/>
     <use xlink:href="#m22b47e0d3d" x="243.868123" y="228.986009" style="fill: #ff8c00; stroke: #ff8c00"/>
     <use xlink:href="#m22b47e0d3d" x="362.898839" y="217.204854" style="fill: #ff8c00; stroke: #ff8c00"/>
     <use xlink:href="#m22b47e0d3d" x="232.256674" y="225.536529" style="fill: #ff8c00; stroke: #ff8c00"/>
     <use xlink:href="#m22b47e0d3d" x="187.875203" y="238.702094" style="fill: #ff8c00; stroke: #ff8c00"/>
     <use xlink:href="#m22b47e0d3d" x="255.396161" y="234.212382" style="fill: #ff8c00; stroke: #ff8c00"/>
     <use xlink:href="#m22b47e0d3d" x="226.415586" y="234.447875" style="fill: #ff8c00; stroke: #ff8c00"/>
     <use xlink:href="#m22b47e0d3d" x="199.942224" y="229.872549" style="fill: #ff8c00; stroke: #ff8c00"/>
     <use xlink:href="#m22b47e0d3d" x="201.85337" y="237.530436" style="fill: #ff8c00; stroke: #ff8c00"/>
    </g>
   </g>
   <g id="matplotlib.axis_1">
    <g id="xtick_1">
     <g id="line2d_1">
      <defs>
       <path id="m285934881f" d="M 0 0 
L 0 3.5 
" style="stroke: #000000; stroke-width: 0.8"/>
      </defs>
      <g>
       <use xlink:href="#m285934881f" x="80.629518" y="273.312" style="stroke: #000000; stroke-width: 0.8"/>
      </g>
     </g>
     <g id="text_1">
      <!-- −20 -->
      <g transform="translate(70.077175 287.910437) scale(0.1 -0.1)">
       <defs>
        <path id="DejaVuSans-2212" d="M 678 2272 
L 4684 2272 
L 4684 1741 
L 678 1741 
L 678 2272 
z
" transform="scale(0.015625)"/>
        <path id="DejaVuSans-32" d="M 1228 531 
L 3431 531 
L 3431 0 
L 469 0 
L 469 531 
Q 828 903 1448 1529 
Q 2069 2156 2228 2338 
Q 2531 2678 2651 2914 
Q 2772 3150 2772 3378 
Q 2772 3750 2511 3984 
Q 2250 4219 1831 4219 
Q 1534 4219 1204 4116 
Q 875 4013 500 3803 
L 500 4441 
Q 881 4594 1212 4672 
Q 1544 4750 1819 4750 
Q 2544 4750 2975 4387 
Q 3406 4025 3406 3419 
Q 3406 3131 3298 2873 
Q 3191 2616 2906 2266 
Q 2828 2175 2409 1742 
Q 1991 1309 1228 531 
z
" transform="scale(0.015625)"/>
        <path id="DejaVuSans-30" d="M 2034 4250 
Q 1547 4250 1301 3770 
Q 1056 3291 1056 2328 
Q 1056 1369 1301 889 
Q 1547 409 2034 409 
Q 2525 409 2770 889 
Q 3016 1369 3016 2328 
Q 3016 3291 2770 3770 
Q 2525 4250 2034 4250 
z
M 2034 4750 
Q 2819 4750 3233 4129 
Q 3647 3509 3647 2328 
Q 3647 1150 3233 529 
Q 2819 -91 2034 -91 
Q 1250 -91 836 529 
Q 422 1150 422 2328 
Q 422 3509 836 4129 
Q 1250 4750 2034 4750 
z
" transform="scale(0.015625)"/>
       </defs>
       <use xlink:href="#DejaVuSans-2212"/>
       <use xlink:href="#DejaVuSans-32" x="83.789062"/>
       <use xlink:href="#DejaVuSans-30" x="147.412109"/>
      </g>
     </g>
    </g>
    <g id="xtick_2">
     <g id="line2d_2">
      <g>
       <use xlink:href="#m285934881f" x="143.206894" y="273.312" style="stroke: #000000; stroke-width: 0.8"/>
      </g>
     </g>
     <g id="text_2">
      <!-- −10 -->
      <g transform="translate(132.65455 287.910437) scale(0.1 -0.1)">
       <defs>
        <path id="DejaVuSans-31" d="M 794 531 
L 1825 531 
L 1825 4091 
L 703 3866 
L 703 4441 
L 1819 4666 
L 2450 4666 
L 2450 531 
L 3481 531 
L 3481 0 
L 794 0 
L 794 531 
z
" transform="scale(0.015625)"/>
       </defs>
       <use xlink:href="#DejaVuSans-2212"/>
       <use xlink:href="#DejaVuSans-31" x="83.789062"/>
       <use xlink:href="#DejaVuSans-30" x="147.412109"/>
      </g>
     </g>
    </g>
    <g id="xtick_3">
     <g id="line2d_3">
      <g>
       <use xlink:href="#m285934881f" x="205.784269" y="273.312" style="stroke: #000000; stroke-width: 0.8"/>
      </g>
     </g>
     <g id="text_3">
      <!-- 0 -->
      <g transform="translate(202.603019 287.910437) scale(0.1 -0.1)">
       <use xlink:href="#DejaVuSans-30"/>
      </g>
     </g>
    </g>
    <g id="xtick_4">
     <g id="line2d_4">
      <g>
       <use xlink:href="#m285934881f" x="268.361644" y="273.312" style="stroke: #000000; stroke-width: 0.8"/>
      </g>
     </g>
     <g id="text_4">
      <!-- 10 -->
      <g transform="translate(261.999144 287.910437) scale(0.1 -0.1)">
       <use xlink:href="#DejaVuSans-31"/>
       <use xlink:href="#DejaVuSans-30" x="63.623047"/>
      </g>
     </g>
    </g>
    <g id="xtick_5">
     <g id="line2d_5">
      <g>
       <use xlink:href="#m285934881f" x="330.93902" y="273.312" style="stroke: #000000; stroke-width: 0.8"/>
      </g>
     </g>
     <g id="text_5">
      <!-- 20 -->
      <g transform="translate(324.57652 287.910437) scale(0.1 -0.1)">
       <use xlink:href="#DejaVuSans-32"/>
       <use xlink:href="#DejaVuSans-30" x="63.623047"/>
      </g>
     </g>
    </g>
   </g>
   <g id="matplotlib.axis_2">
    <g id="ytick_1">
     <g id="line2d_6">
      <defs>
       <path id="m2f88dc83c7" d="M 0 0 
L -3.5 0 
" style="stroke: #000000; stroke-width: 0.8"/>
      </defs>
      <g>
       <use xlink:href="#m2f88dc83c7" x="35.304688" y="255.275227" style="stroke: #000000; stroke-width: 0.8"/>
      </g>
     </g>
     <g id="text_6">
      <!-- −10 -->
      <g transform="translate(7.2 259.074446) scale(0.1 -0.1)">
       <use xlink:href="#DejaVuSans-2212"/>
       <use xlink:href="#DejaVuSans-31" x="83.789062"/>
       <use xlink:href="#DejaVuSans-30" x="147.412109"/>
      </g>
     </g>
    </g>
    <g id="ytick_2">
     <g id="line2d_7">
      <g>
       <use xlink:href="#m2f88dc83c7" x="35.304688" y="214.902492" style="stroke: #000000; stroke-width: 0.8"/>
      </g>
     </g>
     <g id="text_7">
      <!-- 0 -->
      <g transform="translate(21.942187 218.701711) scale(0.1 -0.1)">
       <use xlink:href="#DejaVuSans-30"/>
      </g>
     </g>
    </g>
    <g id="ytick_3">
     <g id="line2d_8">
      <g>
       <use xlink:href="#m2f88dc83c7" x="35.304688" y="174.529756" style="stroke: #000000; stroke-width: 0.8"/>
      </g>
     </g>
     <g id="text_8">
      <!-- 10 -->
      <g transform="translate(15.579687 178.328975) scale(0.1 -0.1)">
       <use xlink:href="#DejaVuSans-31"/>
       <use xlink:href="#DejaVuSans-30" x="63.623047"/>
      </g>
     </g>
    </g>
    <g id="ytick_4">
     <g id="line2d_9">
      <g>
       <use xlink:href="#m2f88dc83c7" x="35.304688" y="134.157021" style="stroke: #000000; stroke-width: 0.8"/>
      </g>
     </g>
     <g id="text_9">
      <!-- 20 -->
      <g transform="translate(15.579687 137.95624) scale(0.1 -0.1)">
       <use xlink:href="#DejaVuSans-32"/>
       <use xlink:href="#DejaVuSans-30" x="63.623047"/>
      </g>
     </g>
    </g>
    <g id="ytick_5">
     <g id="line2d_10">
      <g>
       <use xlink:href="#m2f88dc83c7" x="35.304688" y="93.784285" style="stroke: #000000; stroke-width: 0.8"/>
      </g>
     </g>
     <g id="text_10">
      <!-- 30 -->
      <g transform="translate(15.579687 97.583504) scale(0.1 -0.1)">
       <defs>
        <path id="DejaVuSans-33" d="M 2597 2516 
Q 3050 2419 3304 2112 
Q 3559 1806 3559 1356 
Q 3559 666 3084 287 
Q 2609 -91 1734 -91 
Q 1441 -91 1130 -33 
Q 819 25 488 141 
L 488 750 
Q 750 597 1062 519 
Q 1375 441 1716 441 
Q 2309 441 2620 675 
Q 2931 909 2931 1356 
Q 2931 1769 2642 2001 
Q 2353 2234 1838 2234 
L 1294 2234 
L 1294 2753 
L 1863 2753 
Q 2328 2753 2575 2939 
Q 2822 3125 2822 3475 
Q 2822 3834 2567 4026 
Q 2313 4219 1838 4219 
Q 1578 4219 1281 4162 
Q 984 4106 628 3988 
L 628 4550 
Q 988 4650 1302 4700 
Q 1616 4750 1894 4750 
Q 2613 4750 3031 4423 
Q 3450 4097 3450 3541 
Q 3450 3153 3228 2886 
Q 3006 2619 2597 2516 
z
" transform="scale(0.015625)"/>
       </defs>
       <use xlink:href="#DejaVuSans-33"/>
       <use xlink:href="#DejaVuSans-30" x="63.623047"/>
      </g>
     </g>
    </g>
    <g id="ytick_6">
     <g id="line2d_11">
      <g>
       <use xlink:href="#m2f88dc83c7" x="35.304688" y="53.41155" style="stroke: #000000; stroke-width: 0.8"/>
      </g>
     </g>
     <g id="text_11">
      <!-- 40 -->
      <g transform="translate(15.579687 57.210769) scale(0.1 -0.1)">
       <defs>
        <path id="DejaVuSans-34" d="M 2419 4116 
L 825 1625 
L 2419 1625 
L 2419 4116 
z
M 2253 4666 
L 3047 4666 
L 3047 1625 
L 3713 1625 
L 3713 1100 
L 3047 1100 
L 3047 0 
L 2419 0 
L 2419 1100 
L 313 1100 
L 313 1709 
L 2253 4666 
z
" transform="scale(0.015625)"/>
       </defs>
       <use xlink:href="#DejaVuSans-34"/>
       <use xlink:href="#DejaVuSans-30" x="63.623047"/>
      </g>
     </g>
    </g>
    <g id="ytick_7">
     <g id="line2d_12">
      <g>
       <use xlink:href="#m2f88dc83c7" x="35.304688" y="13.038814" style="stroke: #000000; stroke-width: 0.8"/>
      </g>
     </g>
     <g id="text_12">
      <!-- 50 -->
      <g transform="translate(15.579687 16.838033) scale(0.1 -0.1)">
       <defs>
        <path id="DejaVuSans-35" d="M 691 4666 
L 3169 4666 
L 3169 4134 
L 1269 4134 
L 1269 2991 
Q 1406 3038 1543 3061 
Q 1681 3084 1819 3084 
Q 2600 3084 3056 2656 
Q 3513 2228 3513 1497 
Q 3513 744 3044 326 
Q 2575 -91 1722 -91 
Q 1428 -91 1123 -41 
Q 819 9 494 109 
L 494 744 
Q 775 591 1075 516 
Q 1375 441 1709 441 
Q 2250 441 2565 725 
Q 2881 1009 2881 1497 
Q 2881 1984 2565 2268 
Q 2250 2553 1709 2553 
Q 1456 2553 1204 2497 
Q 953 2441 691 2322 
L 691 4666 
z
" transform="scale(0.015625)"/>
       </defs>
       <use xlink:href="#DejaVuSans-35"/>
       <use xlink:href="#DejaVuSans-30" x="63.623047"/>
      </g>
     </g>
    </g>
   </g>
   <g id="patch_3">
    <path d="M 35.304688 273.312 
L 35.304688 7.2 
" style="fill: none; stroke: #000000; stroke-width: 0.8; stroke-linejoin: miter; stroke-linecap: square"/>
   </g>
   <g id="patch_4">
    <path d="M 392.424688 273.312 
L 392.424688 7.2 
" style="fill: none; stroke: #000000; stroke-width: 0.8; stroke-linejoin: miter; stroke-linecap: square"/>
   </g>
   <g id="patch_5">
    <path d="M 35.304687 273.312 
L 392.424688 273.312 
" style="fill: none; stroke: #000000; stroke-width: 0.8; stroke-linejoin: miter; stroke-linecap: square"/>
   </g>
   <g id="patch_6">
    <path d="M 35.304687 7.2 
L 392.424688 7.2 
" style="fill: none; stroke: #000000; stroke-width: 0.8; stroke-linejoin: miter; stroke-linecap: square"/>
   </g>
  </g>
 </g>
 <defs>
  <clipPath id="p382550a997">
   <rect x="35.304688" y="7.2" width="357.12" height="266.112"/>
  </clipPath>
 </defs>
</svg>
