<?xml version="1.0" encoding="utf-8" standalone="no"?>
<!DOCTYPE svg PUBLIC "-//W3C//DTD SVG 1.1//EN"
  "http://www.w3.org/Graphics/SVG/1.1/DTD/svg11.dtd">
<svg xmlns:xlink="http://www.w3.org/1999/xlink" width="399.624687pt" height="298.418388pt" viewBox="0 0 399.624687 298.418388" xmlns="http://www.w3.org/2000/svg" version="1.1">
 <metadata>
  <rdf:RDF xmlns:dc="http://purl.org/dc/elements/1.1/" xmlns:cc="http://creativecommons.org/ns#" xmlns:rdf="http://www.w3.org/1999/02/22-rdf-syntax-ns#">
   <cc:Work>
    <dc:type rdf:resource="http://purl.org/dc/dcmitype/StillImage"/>
    <dc:date>2023-11-11T17:34:31.818322</dc:date>
    <dc:format>image/svg+xml</dc:format>
    <dc:creator>
     <cc:Agent>
      <dc:title>Matplotlib v3.8.0, https://matplotlib.org/</dc:title>
     </cc:Agent>
    </dc:creator>
   </cc:Work>
  </rdf:RDF>
 </metadata>
 <defs>
  <style type="text/css">*{stroke-linejoin: round; stroke-linecap: butt}</style>
 </defs>
 <g id="figure_1">
  <g id="patch_1">
   <path d="M 0 298.418388 
L 399.624687 298.418388 
L 399.624687 0 
L 0 0 
z
" style="fill: #ffffff"/>
  </g>
  <g id="axes_1">
   <g id="patch_2">
    <path d="M 35.304688 274.540263 
L 392.424688 274.540263 
L 392.424688 8.428263 
L 35.304688 8.428263 
z
" style="fill: #ffffff"/>
   </g>
   <g id="PathCollection_1">
    <defs>
     <path id="m192574d6a0" d="M 0 1.5 
C 0.397805 1.5 0.77937 1.341951 1.06066 1.06066 
C 1.341951 0.77937 1.5 0.397805 1.5 0 
C 1.5 -0.397805 1.341951 -0.77937 1.06066 -1.06066 
C 0.77937 -1.341951 0.397805 -1.5 0 -1.5 
C -0.397805 -1.5 -0.77937 -1.341951 -1.06066 -1.06066 
C -1.341951 -0.77937 -1.5 -0.397805 -1.5 0 
C -1.5 0.397805 -1.341951 0.77937 -1.06066 1.06066 
C -0.77937 1.341951 -0.397805 1.5 0 1.5 
z
" style="stroke: #ff8c00"/>
    </defs>
    <g clip-path="url(#p1c85e63f84)">
     <use xlink:href="#m192574d6a0" x="120.964854" y="180.458866" style="fill: #ff8c00; stroke: #ff8c00"/>
     <use xlink:href="#m192574d6a0" x="154.027999" y="176.345209" style="fill: #ff8c00; stroke: #ff8c00"/>
     <use xlink:href="#m192574d6a0" x="129.314576" y="145.134694" style="fill: #ff8c00; stroke: #ff8c00"/>
     <use xlink:href="#m192574d6a0" x="274.634372" y="242.911961" style="fill: #ff8c00; stroke: #ff8c00"/>
     <use xlink:href="#m192574d6a0" x="86.489191" y="234.519813" style="fill: #ff8c00; stroke: #ff8c00"/>
     <use xlink:href="#m192574d6a0" x="184.467431" y="188.563479" style="fill: #ff8c00; stroke: #ff8c00"/>
     <use xlink:href="#m192574d6a0" x="165.2746" y="190.391994" style="fill: #ff8c00; stroke: #ff8c00"/>
     <use xlink:href="#m192574d6a0" x="141.548013" y="187.249998" style="fill: #ff8c00; stroke: #ff8c00"/>
     <use xlink:href="#m192574d6a0" x="134.689531" y="235.574061" style="fill: #ff8c00; stroke: #ff8c00"/>
     <use xlink:href="#m192574d6a0" x="97.4637" y="205.84914" style="fill: #ff8c00; stroke: #ff8c00"/>
     <use xlink:href="#m192574d6a0" x="146.991753" y="201.276671" style="fill: #ff8c00; stroke: #ff8c00"/>
     <use xlink:href="#m192574d6a0" x="114.886622" y="135.488524" style="fill: #ff8c00; stroke: #ff8c00"/>
     <use xlink:href="#m192574d6a0" x="110.075722" y="168.770101" style="fill: #ff8c00; stroke: #ff8c00"/>
     <use xlink:href="#m192574d6a0" x="105.244152" y="211.102814" style="fill: #ff8c00; stroke: #ff8c00"/>
     <use xlink:href="#m192574d6a0" x="184.019152" y="194.110657" style="fill: #ff8c00; stroke: #ff8c00"/>
    </g>
   </g>
   <g id="PathCollection_2">
    <defs>
     <path id="m6fce9dcf3b" d="M 0 1.5 
C 0.397805 1.5 0.77937 1.341951 1.06066 1.06066 
C 1.341951 0.77937 1.5 0.397805 1.5 0 
C 1.5 -0.397805 1.341951 -0.77937 1.06066 -1.06066 
C 0.77937 -1.341951 0.397805 -1.5 0 -1.5 
C -0.397805 -1.5 -0.77937 -1.341951 -1.06066 -1.06066 
C -1.341951 -0.77937 -1.5 -0.397805 -1.5 0 
C -1.5 0.397805 -1.341951 0.77937 -1.06066 1.06066 
C -0.77937 1.341951 -0.397805 1.5 0 1.5 
z
" style="stroke: #006400"/>
    </defs>
    <g clip-path="url(#p1c85e63f84)">
     <use xlink:href="#m6fce9dcf3b" x="203.1283" y="262.444263" style="fill: #006400; stroke: #006400"/>
     <use xlink:href="#m6fce9dcf3b" x="204.885544" y="224.950222" style="fill: #006400; stroke: #006400"/>
     <use xlink:href="#m6fce9dcf3b" x="319.159733" y="187.872062" style="fill: #006400; stroke: #006400"/>
     <use xlink:href="#m6fce9dcf3b" x="257.902963" y="161.924876" style="fill: #006400; stroke: #006400"/>
     <use xlink:href="#m6fce9dcf3b" x="265.03072" y="161.01788" style="fill: #006400; stroke: #006400"/>
     <use xlink:href="#m6fce9dcf3b" x="184.961743" y="156.297108" style="fill: #006400; stroke: #006400"/>
     <use xlink:href="#m6fce9dcf3b" x="163.576737" y="151.389187" style="fill: #006400; stroke: #006400"/>
    </g>
   </g>
   <g id="PathCollection_3">
    <defs>
     <path id="m56d68d1bbb" d="M 0 1.5 
C 0.397805 1.5 0.77937 1.341951 1.06066 1.06066 
C 1.341951 0.77937 1.5 0.397805 1.5 0 
C 1.5 -0.397805 1.341951 -0.77937 1.06066 -1.06066 
C 0.77937 -1.341951 0.397805 -1.5 0 -1.5 
C -0.397805 -1.5 -0.77937 -1.341951 -1.06066 -1.06066 
C -1.341951 -0.77937 -1.5 -0.397805 -1.5 0 
C -1.5 0.397805 -1.341951 0.77937 -1.06066 1.06066 
C -0.77937 1.341951 -0.397805 1.5 0 1.5 
z
" style="stroke: #2f4f4f"/>
    </defs>
    <g clip-path="url(#p1c85e63f84)">
     <use xlink:href="#m56d68d1bbb" x="76.321924" y="187.755433" style="fill: #2f4f4f; stroke: #2f4f4f"/>
     <use xlink:href="#m56d68d1bbb" x="129.064436" y="180.299216" style="fill: #2f4f4f; stroke: #2f4f4f"/>
     <use xlink:href="#m56d68d1bbb" x="144.982804" y="140.500748" style="fill: #2f4f4f; stroke: #2f4f4f"/>
     <use xlink:href="#m56d68d1bbb" x="147.464164" y="185.775596" style="fill: #2f4f4f; stroke: #2f4f4f"/>
     <use xlink:href="#m56d68d1bbb" x="116.758117" y="162.805586" style="fill: #2f4f4f; stroke: #2f4f4f"/>
     <use xlink:href="#m56d68d1bbb" x="92.935619" y="177.090136" style="fill: #2f4f4f; stroke: #2f4f4f"/>
     <use xlink:href="#m56d68d1bbb" x="157.755164" y="174.385581" style="fill: #2f4f4f; stroke: #2f4f4f"/>
     <use xlink:href="#m56d68d1bbb" x="122.837831" y="224.47344" style="fill: #2f4f4f; stroke: #2f4f4f"/>
     <use xlink:href="#m56d68d1bbb" x="151.959751" y="167.144938" style="fill: #2f4f4f; stroke: #2f4f4f"/>
     <use xlink:href="#m56d68d1bbb" x="89.710151" y="193.538876" style="fill: #2f4f4f; stroke: #2f4f4f"/>
     <use xlink:href="#m56d68d1bbb" x="70.22403" y="220.167605" style="fill: #2f4f4f; stroke: #2f4f4f"/>
     <use xlink:href="#m56d68d1bbb" x="142.193479" y="105.612834" style="fill: #2f4f4f; stroke: #2f4f4f"/>
     <use xlink:href="#m56d68d1bbb" x="131.096968" y="212.166959" style="fill: #2f4f4f; stroke: #2f4f4f"/>
     <use xlink:href="#m56d68d1bbb" x="167.375349" y="141.4145" style="fill: #2f4f4f; stroke: #2f4f4f"/>
     <use xlink:href="#m56d68d1bbb" x="89.210208" y="177.296963" style="fill: #2f4f4f; stroke: #2f4f4f"/>
     <use xlink:href="#m56d68d1bbb" x="80.214909" y="195.702893" style="fill: #2f4f4f; stroke: #2f4f4f"/>
    </g>
   </g>
   <g id="PathCollection_4">
    <defs>
     <path id="m74e390d415" d="M 0 1.5 
C 0.397805 1.5 0.77937 1.341951 1.06066 1.06066 
C 1.341951 0.77937 1.5 0.397805 1.5 0 
C 1.5 -0.397805 1.341951 -0.77937 1.06066 -1.06066 
C 0.77937 -1.341951 0.397805 -1.5 0 -1.5 
C -0.397805 -1.5 -0.77937 -1.341951 -1.06066 -1.06066 
C -1.341951 -0.77937 -1.5 -0.397805 -1.5 0 
C -1.5 0.397805 -1.341951 0.77937 -1.06066 1.06066 
C -0.77937 1.341951 -0.397805 1.5 0 1.5 
z
" style="stroke: #00bfff"/>
    </defs>
    <g clip-path="url(#p1c85e63f84)">
     <use xlink:href="#m74e390d415" x="128.371737" y="156.435812" style="fill: #00bfff; stroke: #00bfff"/>
     <use xlink:href="#m74e390d415" x="150.995356" y="194.592821" style="fill: #00bfff; stroke: #00bfff"/>
     <use xlink:href="#m74e390d415" x="144.157833" y="129.32755" style="fill: #00bfff; stroke: #00bfff"/>
     <use xlink:href="#m74e390d415" x="121.09692" y="158.150564" style="fill: #00bfff; stroke: #00bfff"/>
     <use xlink:href="#m74e390d415" x="163.097582" y="123.232984" style="fill: #00bfff; stroke: #00bfff"/>
     <use xlink:href="#m74e390d415" x="147.836277" y="142.288578" style="fill: #00bfff; stroke: #00bfff"/>
     <use xlink:href="#m74e390d415" x="140.918023" y="144.194088" style="fill: #00bfff; stroke: #00bfff"/>
     <use xlink:href="#m74e390d415" x="168.056023" y="180.234786" style="fill: #00bfff; stroke: #00bfff"/>
     <use xlink:href="#m74e390d415" x="133.218598" y="187.706886" style="fill: #00bfff; stroke: #00bfff"/>
     <use xlink:href="#m74e390d415" x="103.105374" y="134.446985" style="fill: #00bfff; stroke: #00bfff"/>
     <use xlink:href="#m74e390d415" x="142.275192" y="194.646587" style="fill: #00bfff; stroke: #00bfff"/>
     <use xlink:href="#m74e390d415" x="150.868712" y="172.044969" style="fill: #00bfff; stroke: #00bfff"/>
     <use xlink:href="#m74e390d415" x="118.304932" y="142.317697" style="fill: #00bfff; stroke: #00bfff"/>
     <use xlink:href="#m74e390d415" x="104.505514" y="155.007872" style="fill: #00bfff; stroke: #00bfff"/>
     <use xlink:href="#m74e390d415" x="158.093728" y="192.331667" style="fill: #00bfff; stroke: #00bfff"/>
     <use xlink:href="#m74e390d415" x="117.530994" y="127.92722" style="fill: #00bfff; stroke: #00bfff"/>
     <use xlink:href="#m74e390d415" x="80.123605" y="174.090347" style="fill: #00bfff; stroke: #00bfff"/>
     <use xlink:href="#m74e390d415" x="155.662623" y="118.314617" style="fill: #00bfff; stroke: #00bfff"/>
    </g>
   </g>
   <g id="PathCollection_5">
    <defs>
     <path id="m5ae5880b28" d="M 0 1.5 
C 0.397805 1.5 0.77937 1.341951 1.06066 1.06066 
C 1.341951 0.77937 1.5 0.397805 1.5 0 
C 1.5 -0.397805 1.341951 -0.77937 1.06066 -1.06066 
C 0.77937 -1.341951 0.397805 -1.5 0 -1.5 
C -0.397805 -1.5 -0.77937 -1.341951 -1.06066 -1.06066 
C -1.341951 -0.77937 -1.5 -0.397805 -1.5 0 
C -1.5 0.397805 -1.341951 0.77937 -1.06066 1.06066 
C -0.77937 1.341951 -0.397805 1.5 0 1.5 
z
" style="stroke: #ffff00"/>
    </defs>
    <g clip-path="url(#p1c85e63f84)">
     <use xlink:href="#m5ae5880b28" x="89.423364" y="213.506747" style="fill: #ffff00; stroke: #ffff00"/>
     <use xlink:href="#m5ae5880b28" x="114.813298" y="187.184807" style="fill: #ffff00; stroke: #ffff00"/>
     <use xlink:href="#m5ae5880b28" x="154.682665" y="198.107295" style="fill: #ffff00; stroke: #ffff00"/>
     <use xlink:href="#m5ae5880b28" x="96.960841" y="197.600187" style="fill: #ffff00; stroke: #ffff00"/>
     <use xlink:href="#m5ae5880b28" x="83.367587" y="245.010679" style="fill: #ffff00; stroke: #ffff00"/>
     <use xlink:href="#m5ae5880b28" x="83.402777" y="214.513002" style="fill: #ffff00; stroke: #ffff00"/>
     <use xlink:href="#m5ae5880b28" x="158.225294" y="259.255433" style="fill: #ffff00; stroke: #ffff00"/>
     <use xlink:href="#m5ae5880b28" x="141.268245" y="205.193565" style="fill: #ffff00; stroke: #ffff00"/>
     <use xlink:href="#m5ae5880b28" x="117.53072" y="256.745279" style="fill: #ffff00; stroke: #ffff00"/>
     <use xlink:href="#m5ae5880b28" x="94.07915" y="216.572459" style="fill: #ffff00; stroke: #ffff00"/>
     <use xlink:href="#m5ae5880b28" x="120.04218" y="207.501449" style="fill: #ffff00; stroke: #ffff00"/>
     <use xlink:href="#m5ae5880b28" x="83.71413" y="210.17379" style="fill: #ffff00; stroke: #ffff00"/>
     <use xlink:href="#m5ae5880b28" x="82.878913" y="220.714489" style="fill: #ffff00; stroke: #ffff00"/>
     <use xlink:href="#m5ae5880b28" x="115.644224" y="203.772547" style="fill: #ffff00; stroke: #ffff00"/>
     <use xlink:href="#m5ae5880b28" x="143.793374" y="200.458301" style="fill: #ffff00; stroke: #ffff00"/>
     <use xlink:href="#m5ae5880b28" x="63.875777" y="214.963374" style="fill: #ffff00; stroke: #ffff00"/>
     <use xlink:href="#m5ae5880b28" x="73.822114" y="198.39814" style="fill: #ffff00; stroke: #ffff00"/>
     <use xlink:href="#m5ae5880b28" x="62.004152" y="252.963411" style="fill: #ffff00; stroke: #ffff00"/>
     <use xlink:href="#m5ae5880b28" x="95.372019" y="230.948992" style="fill: #ffff00; stroke: #ffff00"/>
    </g>
   </g>
   <g id="PathCollection_6">
    <defs>
     <path id="m0409c68298" d="M 0 1.5 
C 0.397805 1.5 0.77937 1.341951 1.06066 1.06066 
C 1.341951 0.77937 1.5 0.397805 1.5 0 
C 1.5 -0.397805 1.341951 -0.77937 1.06066 -1.06066 
C 0.77937 -1.341951 0.397805 -1.5 0 -1.5 
C -0.397805 -1.5 -0.77937 -1.341951 -1.06066 -1.06066 
C -1.341951 -0.77937 -1.5 -0.397805 -1.5 0 
C -1.5 0.397805 -1.341951 0.77937 -1.06066 1.06066 
C -0.77937 1.341951 -0.397805 1.5 0 1.5 
z
" style="stroke: #00ffff"/>
    </defs>
    <g clip-path="url(#p1c85e63f84)">
     <use xlink:href="#m0409c68298" x="104.060322" y="214.373646" style="fill: #00ffff; stroke: #00ffff"/>
     <use xlink:href="#m0409c68298" x="149.246264" y="154.742857" style="fill: #00ffff; stroke: #00ffff"/>
     <use xlink:href="#m0409c68298" x="112.303338" y="181.264537" style="fill: #00ffff; stroke: #00ffff"/>
     <use xlink:href="#m0409c68298" x="120.958876" y="141.285594" style="fill: #00ffff; stroke: #00ffff"/>
     <use xlink:href="#m0409c68298" x="135.226034" y="152.227079" style="fill: #00ffff; stroke: #00ffff"/>
     <use xlink:href="#m0409c68298" x="131.56071" y="190.77839" style="fill: #00ffff; stroke: #00ffff"/>
     <use xlink:href="#m0409c68298" x="142.022981" y="191.291929" style="fill: #00ffff; stroke: #00ffff"/>
     <use xlink:href="#m0409c68298" x="133.050058" y="220.466069" style="fill: #00ffff; stroke: #00ffff"/>
     <use xlink:href="#m0409c68298" x="176.709432" y="188.282242" style="fill: #00ffff; stroke: #00ffff"/>
     <use xlink:href="#m0409c68298" x="111.613365" y="189.107369" style="fill: #00ffff; stroke: #00ffff"/>
     <use xlink:href="#m0409c68298" x="117.514336" y="195.335205" style="fill: #00ffff; stroke: #00ffff"/>
     <use xlink:href="#m0409c68298" x="197.812016" y="189.188024" style="fill: #00ffff; stroke: #00ffff"/>
     <use xlink:href="#m0409c68298" x="128.120882" y="152.998727" style="fill: #00ffff; stroke: #00ffff"/>
     <use xlink:href="#m0409c68298" x="95.528054" y="184.11289" style="fill: #00ffff; stroke: #00ffff"/>
     <use xlink:href="#m0409c68298" x="112.629565" y="140.855212" style="fill: #00ffff; stroke: #00ffff"/>
    </g>
   </g>
   <g id="PathCollection_7">
    <defs>
     <path id="m30cebf2903" d="M 0 1.5 
C 0.397805 1.5 0.77937 1.341951 1.06066 1.06066 
C 1.341951 0.77937 1.5 0.397805 1.5 0 
C 1.5 -0.397805 1.341951 -0.77937 1.06066 -1.06066 
C 0.77937 -1.341951 0.397805 -1.5 0 -1.5 
C -0.397805 -1.5 -0.77937 -1.341951 -1.06066 -1.06066 
C -1.341951 -0.77937 -1.5 -0.397805 -1.5 0 
C -1.5 0.397805 -1.341951 0.77937 -1.06066 1.06066 
C -0.77937 1.341951 -0.397805 1.5 0 1.5 
z
" style="stroke: #0000ff"/>
    </defs>
    <g clip-path="url(#p1c85e63f84)">
     <use xlink:href="#m30cebf2903" x="145.937696" y="156.984311" style="fill: #0000ff; stroke: #0000ff"/>
     <use xlink:href="#m30cebf2903" x="189.41603" y="93.256706" style="fill: #0000ff; stroke: #0000ff"/>
     <use xlink:href="#m30cebf2903" x="120.218179" y="169.377645" style="fill: #0000ff; stroke: #0000ff"/>
     <use xlink:href="#m30cebf2903" x="124.760594" y="190.656935" style="fill: #0000ff; stroke: #0000ff"/>
     <use xlink:href="#m30cebf2903" x="107.941458" y="132.128705" style="fill: #0000ff; stroke: #0000ff"/>
     <use xlink:href="#m30cebf2903" x="112.61559" y="170.312919" style="fill: #0000ff; stroke: #0000ff"/>
     <use xlink:href="#m30cebf2903" x="206.355853" y="129.05878" style="fill: #0000ff; stroke: #0000ff"/>
     <use xlink:href="#m30cebf2903" x="143.379035" y="183.770616" style="fill: #0000ff; stroke: #0000ff"/>
     <use xlink:href="#m30cebf2903" x="123.0653" y="187.631097" style="fill: #0000ff; stroke: #0000ff"/>
     <use xlink:href="#m30cebf2903" x="187.061306" y="117.922451" style="fill: #0000ff; stroke: #0000ff"/>
     <use xlink:href="#m30cebf2903" x="134.922527" y="178.096508" style="fill: #0000ff; stroke: #0000ff"/>
     <use xlink:href="#m30cebf2903" x="127.65725" y="194.371922" style="fill: #0000ff; stroke: #0000ff"/>
     <use xlink:href="#m30cebf2903" x="101.512377" y="173.488364" style="fill: #0000ff; stroke: #0000ff"/>
     <use xlink:href="#m30cebf2903" x="100.837552" y="177.393485" style="fill: #0000ff; stroke: #0000ff"/>
     <use xlink:href="#m30cebf2903" x="126.672842" y="83.746822" style="fill: #0000ff; stroke: #0000ff"/>
    </g>
   </g>
   <g id="PathCollection_8">
    <defs>
     <path id="mb32a90e1bc" d="M 0 1.5 
C 0.397805 1.5 0.77937 1.341951 1.06066 1.06066 
C 1.341951 0.77937 1.5 0.397805 1.5 0 
C 1.5 -0.397805 1.341951 -0.77937 1.06066 -1.06066 
C 0.77937 -1.341951 0.397805 -1.5 0 -1.5 
C -0.397805 -1.5 -0.77937 -1.341951 -1.06066 -1.06066 
C -1.341951 -0.77937 -1.5 -0.397805 -1.5 0 
C -1.5 0.397805 -1.341951 0.77937 -1.06066 1.06066 
C -0.77937 1.341951 -0.397805 1.5 0 1.5 
z
" style="stroke: #dc143c"/>
    </defs>
    <g clip-path="url(#p1c85e63f84)">
     <use xlink:href="#mb32a90e1bc" x="129.044011" y="247.358236" style="fill: #dc143c; stroke: #dc143c"/>
     <use xlink:href="#mb32a90e1bc" x="159.657096" y="172.928364" style="fill: #dc143c; stroke: #dc143c"/>
     <use xlink:href="#mb32a90e1bc" x="141.002106" y="227.543461" style="fill: #dc143c; stroke: #dc143c"/>
     <use xlink:href="#mb32a90e1bc" x="223.963917" y="254.833092" style="fill: #dc143c; stroke: #dc143c"/>
     <use xlink:href="#mb32a90e1bc" x="106.435873" y="231.287338" style="fill: #dc143c; stroke: #dc143c"/>
     <use xlink:href="#mb32a90e1bc" x="127.529418" y="218.254301" style="fill: #dc143c; stroke: #dc143c"/>
     <use xlink:href="#mb32a90e1bc" x="195.301482" y="226.270587" style="fill: #dc143c; stroke: #dc143c"/>
     <use xlink:href="#mb32a90e1bc" x="176.316082" y="249.166432" style="fill: #dc143c; stroke: #dc143c"/>
     <use xlink:href="#mb32a90e1bc" x="206.831455" y="194.491809" style="fill: #dc143c; stroke: #dc143c"/>
     <use xlink:href="#mb32a90e1bc" x="142.507789" y="191.825334" style="fill: #dc143c; stroke: #dc143c"/>
     <use xlink:href="#mb32a90e1bc" x="122.900752" y="229.304309" style="fill: #dc143c; stroke: #dc143c"/>
     <use xlink:href="#mb32a90e1bc" x="164.236981" y="239.60735" style="fill: #dc143c; stroke: #dc143c"/>
    </g>
   </g>
   <g id="PathCollection_9">
    <defs>
     <path id="m4d32b5b0e7" d="M 0 1.5 
C 0.397805 1.5 0.77937 1.341951 1.06066 1.06066 
C 1.341951 0.77937 1.5 0.397805 1.5 0 
C 1.5 -0.397805 1.341951 -0.77937 1.06066 -1.06066 
C 0.77937 -1.341951 0.397805 -1.5 0 -1.5 
C -0.397805 -1.5 -0.77937 -1.341951 -1.06066 -1.06066 
C -1.341951 -0.77937 -1.5 -0.397805 -1.5 0 
C -1.5 0.397805 -1.341951 0.77937 -1.06066 1.06066 
C -0.77937 1.341951 -0.397805 1.5 0 1.5 
z
" style="stroke: #ffe4c4"/>
    </defs>
    <g clip-path="url(#p1c85e63f84)">
     <use xlink:href="#m4d32b5b0e7" x="376.19196" y="232.561699" style="fill: #ffe4c4; stroke: #ffe4c4"/>
     <use xlink:href="#m4d32b5b0e7" x="320.956313" y="205.431507" style="fill: #ffe4c4; stroke: #ffe4c4"/>
     <use xlink:href="#m4d32b5b0e7" x="252.325447" y="216.97464" style="fill: #ffe4c4; stroke: #ffe4c4"/>
     <use xlink:href="#m4d32b5b0e7" x="297.163175" y="230.262585" style="fill: #ffe4c4; stroke: #ffe4c4"/>
     <use xlink:href="#m4d32b5b0e7" x="294.350658" y="223.941937" style="fill: #ffe4c4; stroke: #ffe4c4"/>
     <use xlink:href="#m4d32b5b0e7" x="285.261675" y="213.110968" style="fill: #ffe4c4; stroke: #ffe4c4"/>
     <use xlink:href="#m4d32b5b0e7" x="320.409601" y="220.708068" style="fill: #ffe4c4; stroke: #ffe4c4"/>
     <use xlink:href="#m4d32b5b0e7" x="322.670696" y="214.475902" style="fill: #ffe4c4; stroke: #ffe4c4"/>
     <use xlink:href="#m4d32b5b0e7" x="155.026808" y="163.916277" style="fill: #ffe4c4; stroke: #ffe4c4"/>
     <use xlink:href="#m4d32b5b0e7" x="286.650927" y="202.883843" style="fill: #ffe4c4; stroke: #ffe4c4"/>
     <use xlink:href="#m4d32b5b0e7" x="179.621038" y="172.705696" style="fill: #ffe4c4; stroke: #ffe4c4"/>
    </g>
   </g>
   <g id="PathCollection_10">
    <defs>
     <path id="m3eb18e509d" d="M -2.99994 2.99994 
L 3.00006 2.99994 
L 3.00006 -3.00006 
L -2.99994 -3.00006 
z
" style="stroke: #000000"/>
    </defs>
    <g clip-path="url(#p1c85e63f84)">
     <use xlink:href="#m3eb18e509d" x="113.584431" y="149.570462" style="stroke: #000000"/>
     <use xlink:href="#m3eb18e509d" x="149.285572" y="132.849871" style="stroke: #000000"/>
     <use xlink:href="#m3eb18e509d" x="188.7388" y="130.855795" style="stroke: #000000"/>
     <use xlink:href="#m3eb18e509d" x="211.376987" y="165.399263" style="stroke: #000000"/>
     <use xlink:href="#m3eb18e509d" x="117.658151" y="130.780465" style="stroke: #000000"/>
     <use xlink:href="#m3eb18e509d" x="153.251736" y="99.339238" style="stroke: #000000"/>
     <use xlink:href="#m3eb18e509d" x="182.129817" y="165.150049" style="stroke: #000000"/>
     <use xlink:href="#m3eb18e509d" x="162.736941" y="118.26768" style="stroke: #000000"/>
     <use xlink:href="#m3eb18e509d" x="129.473528" y="103.961911" style="stroke: #000000"/>
     <use xlink:href="#m3eb18e509d" x="157.529319" y="37.767129" style="stroke: #000000"/>
     <use xlink:href="#m3eb18e509d" x="127.901865" y="97.07299" style="stroke: #000000"/>
     <use xlink:href="#m3eb18e509d" x="113.797295" y="162.029799" style="stroke: #000000"/>
     <use xlink:href="#m3eb18e509d" x="161.994842" y="106.669779" style="stroke: #000000"/>
     <use xlink:href="#m3eb18e509d" x="199.949383" y="130.726435" style="stroke: #000000"/>
     <use xlink:href="#m3eb18e509d" x="175.677072" y="175.276399" style="stroke: #000000"/>
     <use xlink:href="#m3eb18e509d" x="166.762299" y="131.807845" style="stroke: #000000"/>
     <use xlink:href="#m3eb18e509d" x="117.109662" y="155.452626" style="stroke: #000000"/>
     <use xlink:href="#m3eb18e509d" x="79.253302" y="160.018916" style="stroke: #000000"/>
     <use xlink:href="#m3eb18e509d" x="177.588093" y="158.569422" style="stroke: #000000"/>
     <use xlink:href="#m3eb18e509d" x="86.08937" y="97.172487" style="stroke: #000000"/>
     <use xlink:href="#m3eb18e509d" x="137.198201" y="155.2557" style="stroke: #000000"/>
     <use xlink:href="#m3eb18e509d" x="184.256011" y="134.677991" style="stroke: #000000"/>
     <use xlink:href="#m3eb18e509d" x="210.788606" y="153.384115" style="stroke: #000000"/>
     <use xlink:href="#m3eb18e509d" x="152.519975" y="133.451907" style="stroke: #000000"/>
     <use xlink:href="#m3eb18e509d" x="164.282637" y="157.235874" style="stroke: #000000"/>
     <use xlink:href="#m3eb18e509d" x="171.578817" y="156.311579" style="stroke: #000000"/>
     <use xlink:href="#m3eb18e509d" x="112.621024" y="130.066937" style="stroke: #000000"/>
     <use xlink:href="#m3eb18e509d" x="111.521984" y="99.033344" style="stroke: #000000"/>
     <use xlink:href="#m3eb18e509d" x="121.585127" y="149.513662" style="stroke: #000000"/>
     <use xlink:href="#m3eb18e509d" x="112.163706" y="168.527166" style="stroke: #000000"/>
     <use xlink:href="#m3eb18e509d" x="186.777066" y="103.780223" style="stroke: #000000"/>
     <use xlink:href="#m3eb18e509d" x="173.188229" y="141.297564" style="stroke: #000000"/>
     <use xlink:href="#m3eb18e509d" x="123.169864" y="151.240131" style="stroke: #000000"/>
     <use xlink:href="#m3eb18e509d" x="145.817919" y="144.664468" style="stroke: #000000"/>
     <use xlink:href="#m3eb18e509d" x="184.150222" y="115.754491" style="stroke: #000000"/>
     <use xlink:href="#m3eb18e509d" x="123.507776" y="151.192504" style="stroke: #000000"/>
     <use xlink:href="#m3eb18e509d" x="145.70079" y="132.996875" style="stroke: #000000"/>
     <use xlink:href="#m3eb18e509d" x="155.155199" y="104.232878" style="stroke: #000000"/>
     <use xlink:href="#m3eb18e509d" x="95.025157" y="113.501166" style="stroke: #000000"/>
     <use xlink:href="#m3eb18e509d" x="80.708573" y="155.421439" style="stroke: #000000"/>
     <use xlink:href="#m3eb18e509d" x="143.204151" y="162.209385" style="stroke: #000000"/>
     <use xlink:href="#m3eb18e509d" x="120.063255" y="180.982547" style="stroke: #000000"/>
     <use xlink:href="#m3eb18e509d" x="165.023994" y="103.478937" style="stroke: #000000"/>
     <use xlink:href="#m3eb18e509d" x="141.996074" y="133.146642" style="stroke: #000000"/>
     <use xlink:href="#m3eb18e509d" x="124.773562" y="118.383969" style="stroke: #000000"/>
     <use xlink:href="#m3eb18e509d" x="150.449057" y="156.297816" style="stroke: #000000"/>
     <use xlink:href="#m3eb18e509d" x="140.39955" y="121.809239" style="stroke: #000000"/>
     <use xlink:href="#m3eb18e509d" x="124.300488" y="127.427038" style="stroke: #000000"/>
     <use xlink:href="#m3eb18e509d" x="130.087873" y="112.337722" style="stroke: #000000"/>
     <use xlink:href="#m3eb18e509d" x="130.175438" y="110.379494" style="stroke: #000000"/>
     <use xlink:href="#m3eb18e509d" x="112.927468" y="189.664551" style="stroke: #000000"/>
     <use xlink:href="#m3eb18e509d" x="164.017724" y="106.200361" style="stroke: #000000"/>
     <use xlink:href="#m3eb18e509d" x="157.529319" y="37.767129" style="stroke: #000000"/>
     <use xlink:href="#m3eb18e509d" x="162.615769" y="166.421148" style="stroke: #000000"/>
     <use xlink:href="#m3eb18e509d" x="145.752145" y="130.24503" style="stroke: #000000"/>
     <use xlink:href="#m3eb18e509d" x="161.547873" y="176.218729" style="stroke: #000000"/>
     <use xlink:href="#m3eb18e509d" x="138.421863" y="148.246071" style="stroke: #000000"/>
     <use xlink:href="#m3eb18e509d" x="167.040982" y="142.333722" style="stroke: #000000"/>
     <use xlink:href="#m3eb18e509d" x="130.953612" y="144.514639" style="stroke: #000000"/>
     <use xlink:href="#m3eb18e509d" x="215.181297" y="139.427652" style="stroke: #000000"/>
     <use xlink:href="#m3eb18e509d" x="174.249529" y="143.73406" style="stroke: #000000"/>
     <use xlink:href="#m3eb18e509d" x="110.934065" y="155.569001" style="stroke: #000000"/>
     <use xlink:href="#m3eb18e509d" x="119.286189" y="125.13479" style="stroke: #000000"/>
     <use xlink:href="#m3eb18e509d" x="132.540161" y="142.827629" style="stroke: #000000"/>
    </g>
   </g>
   <g id="PathCollection_11">
    <defs>
     <path id="mf4c23cb8fd" d="M -3 -0 
L 3 3 
L 3 -3 
z
" style="stroke: #ff8c00"/>
    </defs>
    <g clip-path="url(#p1c85e63f84)">
     <use xlink:href="#mf4c23cb8fd" x="179.00564" y="121.821522" style="fill: #ff8c00; stroke: #ff8c00"/>
     <use xlink:href="#mf4c23cb8fd" x="129.067557" y="164.482557" style="fill: #ff8c00; stroke: #ff8c00"/>
     <use xlink:href="#mf4c23cb8fd" x="149.498589" y="148.603845" style="fill: #ff8c00; stroke: #ff8c00"/>
     <use xlink:href="#mf4c23cb8fd" x="160.759179" y="94.066608" style="fill: #ff8c00; stroke: #ff8c00"/>
     <use xlink:href="#mf4c23cb8fd" x="178.884412" y="157.25769" style="fill: #ff8c00; stroke: #ff8c00"/>
     <use xlink:href="#mf4c23cb8fd" x="93.371586" y="143.508505" style="fill: #ff8c00; stroke: #ff8c00"/>
     <use xlink:href="#mf4c23cb8fd" x="163.233543" y="97.725707" style="fill: #ff8c00; stroke: #ff8c00"/>
     <use xlink:href="#mf4c23cb8fd" x="160.350783" y="148.730571" style="fill: #ff8c00; stroke: #ff8c00"/>
     <use xlink:href="#mf4c23cb8fd" x="145.447629" y="121.920614" style="fill: #ff8c00; stroke: #ff8c00"/>
     <use xlink:href="#mf4c23cb8fd" x="220.932766" y="20.524263" style="fill: #ff8c00; stroke: #ff8c00"/>
     <use xlink:href="#mf4c23cb8fd" x="227.119164" y="99.666393" style="fill: #ff8c00; stroke: #ff8c00"/>
     <use xlink:href="#mf4c23cb8fd" x="117.041635" y="140.558033" style="fill: #ff8c00; stroke: #ff8c00"/>
     <use xlink:href="#mf4c23cb8fd" x="160.886967" y="106.760229" style="fill: #ff8c00; stroke: #ff8c00"/>
     <use xlink:href="#mf4c23cb8fd" x="152.958135" y="149.896484" style="fill: #ff8c00; stroke: #ff8c00"/>
     <use xlink:href="#mf4c23cb8fd" x="178.344576" y="122.350089" style="fill: #ff8c00; stroke: #ff8c00"/>
     <use xlink:href="#mf4c23cb8fd" x="144.205134" y="133.504179" style="fill: #ff8c00; stroke: #ff8c00"/>
     <use xlink:href="#mf4c23cb8fd" x="109.676842" y="123.73527" style="fill: #ff8c00; stroke: #ff8c00"/>
     <use xlink:href="#mf4c23cb8fd" x="90.656999" y="185.694826" style="fill: #ff8c00; stroke: #ff8c00"/>
     <use xlink:href="#mf4c23cb8fd" x="146.776487" y="99.370262" style="fill: #ff8c00; stroke: #ff8c00"/>
     <use xlink:href="#mf4c23cb8fd" x="106.477594" y="120.772142" style="fill: #ff8c00; stroke: #ff8c00"/>
     <use xlink:href="#mf4c23cb8fd" x="138.332637" y="151.74116" style="fill: #ff8c00; stroke: #ff8c00"/>
     <use xlink:href="#mf4c23cb8fd" x="157.817501" y="110.145565" style="fill: #ff8c00; stroke: #ff8c00"/>
     <use xlink:href="#mf4c23cb8fd" x="164.25381" y="97.512939" style="fill: #ff8c00; stroke: #ff8c00"/>
     <use xlink:href="#mf4c23cb8fd" x="157.489382" y="185.30312" style="fill: #ff8c00; stroke: #ff8c00"/>
     <use xlink:href="#mf4c23cb8fd" x="130.022525" y="137.118589" style="fill: #ff8c00; stroke: #ff8c00"/>
     <use xlink:href="#mf4c23cb8fd" x="152.516147" y="114.23437" style="fill: #ff8c00; stroke: #ff8c00"/>
     <use xlink:href="#mf4c23cb8fd" x="111.643599" y="144.488451" style="fill: #ff8c00; stroke: #ff8c00"/>
     <use xlink:href="#mf4c23cb8fd" x="136.575786" y="94.739448" style="fill: #ff8c00; stroke: #ff8c00"/>
     <use xlink:href="#mf4c23cb8fd" x="135.610645" y="140.504641" style="fill: #ff8c00; stroke: #ff8c00"/>
     <use xlink:href="#mf4c23cb8fd" x="108.872188" y="147.226609" style="fill: #ff8c00; stroke: #ff8c00"/>
     <use xlink:href="#mf4c23cb8fd" x="185.240382" y="114.799268" style="fill: #ff8c00; stroke: #ff8c00"/>
     <use xlink:href="#mf4c23cb8fd" x="117.132066" y="156.741357" style="fill: #ff8c00; stroke: #ff8c00"/>
     <use xlink:href="#mf4c23cb8fd" x="156.144662" y="111.463449" style="fill: #ff8c00; stroke: #ff8c00"/>
     <use xlink:href="#mf4c23cb8fd" x="160.958523" y="180.033526" style="fill: #ff8c00; stroke: #ff8c00"/>
     <use xlink:href="#mf4c23cb8fd" x="104.990908" y="229.854499" style="fill: #ff8c00; stroke: #ff8c00"/>
     <use xlink:href="#mf4c23cb8fd" x="159.785755" y="142.57546" style="fill: #ff8c00; stroke: #ff8c00"/>
     <use xlink:href="#mf4c23cb8fd" x="190.345924" y="193.661162" style="fill: #ff8c00; stroke: #ff8c00"/>
     <use xlink:href="#mf4c23cb8fd" x="148.049649" y="136.791971" style="fill: #ff8c00; stroke: #ff8c00"/>
     <use xlink:href="#mf4c23cb8fd" x="161.472147" y="164.456815" style="fill: #ff8c00; stroke: #ff8c00"/>
     <use xlink:href="#mf4c23cb8fd" x="143.588033" y="145.05632" style="fill: #ff8c00; stroke: #ff8c00"/>
     <use xlink:href="#mf4c23cb8fd" x="218.364619" y="90.043693" style="fill: #ff8c00; stroke: #ff8c00"/>
     <use xlink:href="#mf4c23cb8fd" x="104.885229" y="99.850385" style="fill: #ff8c00; stroke: #ff8c00"/>
     <use xlink:href="#mf4c23cb8fd" x="122.600931" y="109.791337" style="fill: #ff8c00; stroke: #ff8c00"/>
     <use xlink:href="#mf4c23cb8fd" x="151.800886" y="120.466443" style="fill: #ff8c00; stroke: #ff8c00"/>
     <use xlink:href="#mf4c23cb8fd" x="132.059833" y="88.361203" style="fill: #ff8c00; stroke: #ff8c00"/>
     <use xlink:href="#mf4c23cb8fd" x="156.661094" y="92.621745" style="fill: #ff8c00; stroke: #ff8c00"/>
     <use xlink:href="#mf4c23cb8fd" x="186.020296" y="115.452557" style="fill: #ff8c00; stroke: #ff8c00"/>
     <use xlink:href="#mf4c23cb8fd" x="149.310131" y="178.170237" style="fill: #ff8c00; stroke: #ff8c00"/>
     <use xlink:href="#mf4c23cb8fd" x="167.674138" y="149.104159" style="fill: #ff8c00; stroke: #ff8c00"/>
     <use xlink:href="#mf4c23cb8fd" x="189.161169" y="167.045971" style="fill: #ff8c00; stroke: #ff8c00"/>
     <use xlink:href="#mf4c23cb8fd" x="171.577396" y="128.27635" style="fill: #ff8c00; stroke: #ff8c00"/>
     <use xlink:href="#mf4c23cb8fd" x="210.592094" y="105.83258" style="fill: #ff8c00; stroke: #ff8c00"/>
     <use xlink:href="#mf4c23cb8fd" x="194.103841" y="57.387894" style="fill: #ff8c00; stroke: #ff8c00"/>
     <use xlink:href="#mf4c23cb8fd" x="51.537415" y="129.526513" style="fill: #ff8c00; stroke: #ff8c00"/>
     <use xlink:href="#mf4c23cb8fd" x="176.692072" y="83.052452" style="fill: #ff8c00; stroke: #ff8c00"/>
     <use xlink:href="#mf4c23cb8fd" x="165.174698" y="140.138783" style="fill: #ff8c00; stroke: #ff8c00"/>
     <use xlink:href="#mf4c23cb8fd" x="186.549995" y="132.773323" style="fill: #ff8c00; stroke: #ff8c00"/>
     <use xlink:href="#mf4c23cb8fd" x="188.50773" y="102.54677" style="fill: #ff8c00; stroke: #ff8c00"/>
     <use xlink:href="#mf4c23cb8fd" x="133.610617" y="147.690548" style="fill: #ff8c00; stroke: #ff8c00"/>
     <use xlink:href="#mf4c23cb8fd" x="142.0301" y="118.230361" style="fill: #ff8c00; stroke: #ff8c00"/>
     <use xlink:href="#mf4c23cb8fd" x="116.133902" y="168.500732" style="fill: #ff8c00; stroke: #ff8c00"/>
     <use xlink:href="#mf4c23cb8fd" x="127.289621" y="144.894959" style="fill: #ff8c00; stroke: #ff8c00"/>
     <use xlink:href="#mf4c23cb8fd" x="148.179947" y="154.273857" style="fill: #ff8c00; stroke: #ff8c00"/>
     <use xlink:href="#mf4c23cb8fd" x="211.699223" y="116.61065" style="fill: #ff8c00; stroke: #ff8c00"/>
    </g>
   </g>
   <g id="matplotlib.axis_1">
    <g id="xtick_1">
     <g id="line2d_1">
      <defs>
       <path id="m8b73f351c8" d="M 0 0 
L 0 3.5 
" style="stroke: #000000; stroke-width: 0.8"/>
      </defs>
      <g>
       <use xlink:href="#m8b73f351c8" x="71.325763" y="274.540263" style="stroke: #000000; stroke-width: 0.8"/>
      </g>
     </g>
     <g id="text_1">
      <!-- −10 -->
      <g transform="translate(60.773419 289.138701) scale(0.1 -0.1)">
       <defs>
        <path id="DejaVuSans-2212" d="M 678 2272 
L 4684 2272 
L 4684 1741 
L 678 1741 
L 678 2272 
z
" transform="scale(0.015625)"/>
        <path id="DejaVuSans-31" d="M 794 531 
L 1825 531 
L 1825 4091 
L 703 3866 
L 703 4441 
L 1819 4666 
L 2450 4666 
L 2450 531 
L 3481 531 
L 3481 0 
L 794 0 
L 794 531 
z
" transform="scale(0.015625)"/>
        <path id="DejaVuSans-30" d="M 2034 4250 
Q 1547 4250 1301 3770 
Q 1056 3291 1056 2328 
Q 1056 1369 1301 889 
Q 1547 409 2034 409 
Q 2525 409 2770 889 
Q 3016 1369 3016 2328 
Q 3016 3291 2770 3770 
Q 2525 4250 2034 4250 
z
M 2034 4750 
Q 2819 4750 3233 4129 
Q 3647 3509 3647 2328 
Q 3647 1150 3233 529 
Q 2819 -91 2034 -91 
Q 1250 -91 836 529 
Q 422 1150 422 2328 
Q 422 3509 836 4129 
Q 1250 4750 2034 4750 
z
" transform="scale(0.015625)"/>
       </defs>
       <use xlink:href="#DejaVuSans-2212"/>
       <use xlink:href="#DejaVuSans-31" x="83.789062"/>
       <use xlink:href="#DejaVuSans-30" x="147.412109"/>
      </g>
     </g>
    </g>
    <g id="xtick_2">
     <g id="line2d_2">
      <g>
       <use xlink:href="#m8b73f351c8" x="148.960394" y="274.540263" style="stroke: #000000; stroke-width: 0.8"/>
      </g>
     </g>
     <g id="text_2">
      <!-- 0 -->
      <g transform="translate(145.779144 289.138701) scale(0.1 -0.1)">
       <use xlink:href="#DejaVuSans-30"/>
      </g>
     </g>
    </g>
    <g id="xtick_3">
     <g id="line2d_3">
      <g>
       <use xlink:href="#m8b73f351c8" x="226.595026" y="274.540263" style="stroke: #000000; stroke-width: 0.8"/>
      </g>
     </g>
     <g id="text_3">
      <!-- 10 -->
      <g transform="translate(220.232526 289.138701) scale(0.1 -0.1)">
       <use xlink:href="#DejaVuSans-31"/>
       <use xlink:href="#DejaVuSans-30" x="63.623047"/>
      </g>
     </g>
    </g>
    <g id="xtick_4">
     <g id="line2d_4">
      <g>
       <use xlink:href="#m8b73f351c8" x="304.229658" y="274.540263" style="stroke: #000000; stroke-width: 0.8"/>
      </g>
     </g>
     <g id="text_4">
      <!-- 20 -->
      <g transform="translate(297.867158 289.138701) scale(0.1 -0.1)">
       <defs>
        <path id="DejaVuSans-32" d="M 1228 531 
L 3431 531 
L 3431 0 
L 469 0 
L 469 531 
Q 828 903 1448 1529 
Q 2069 2156 2228 2338 
Q 2531 2678 2651 2914 
Q 2772 3150 2772 3378 
Q 2772 3750 2511 3984 
Q 2250 4219 1831 4219 
Q 1534 4219 1204 4116 
Q 875 4013 500 3803 
L 500 4441 
Q 881 4594 1212 4672 
Q 1544 4750 1819 4750 
Q 2544 4750 2975 4387 
Q 3406 4025 3406 3419 
Q 3406 3131 3298 2873 
Q 3191 2616 2906 2266 
Q 2828 2175 2409 1742 
Q 1991 1309 1228 531 
z
" transform="scale(0.015625)"/>
       </defs>
       <use xlink:href="#DejaVuSans-32"/>
       <use xlink:href="#DejaVuSans-30" x="63.623047"/>
      </g>
     </g>
    </g>
    <g id="xtick_5">
     <g id="line2d_5">
      <g>
       <use xlink:href="#m8b73f351c8" x="381.86429" y="274.540263" style="stroke: #000000; stroke-width: 0.8"/>
      </g>
     </g>
     <g id="text_5">
      <!-- 30 -->
      <g transform="translate(375.50179 289.138701) scale(0.1 -0.1)">
       <defs>
        <path id="DejaVuSans-33" d="M 2597 2516 
Q 3050 2419 3304 2112 
Q 3559 1806 3559 1356 
Q 3559 666 3084 287 
Q 2609 -91 1734 -91 
Q 1441 -91 1130 -33 
Q 819 25 488 141 
L 488 750 
Q 750 597 1062 519 
Q 1375 441 1716 441 
Q 2309 441 2620 675 
Q 2931 909 2931 1356 
Q 2931 1769 2642 2001 
Q 2353 2234 1838 2234 
L 1294 2234 
L 1294 2753 
L 1863 2753 
Q 2328 2753 2575 2939 
Q 2822 3125 2822 3475 
Q 2822 3834 2567 4026 
Q 2313 4219 1838 4219 
Q 1578 4219 1281 4162 
Q 984 4106 628 3988 
L 628 4550 
Q 988 4650 1302 4700 
Q 1616 4750 1894 4750 
Q 2613 4750 3031 4423 
Q 3450 4097 3450 3541 
Q 3450 3153 3228 2886 
Q 3006 2619 2597 2516 
z
" transform="scale(0.015625)"/>
       </defs>
       <use xlink:href="#DejaVuSans-33"/>
       <use xlink:href="#DejaVuSans-30" x="63.623047"/>
      </g>
     </g>
    </g>
   </g>
   <g id="matplotlib.axis_2">
    <g id="ytick_1">
     <g id="line2d_6">
      <defs>
       <path id="m758b76c9ea" d="M 0 0 
L -3.5 0 
" style="stroke: #000000; stroke-width: 0.8"/>
      </defs>
      <g>
       <use xlink:href="#m758b76c9ea" x="35.304688" y="271.956188" style="stroke: #000000; stroke-width: 0.8"/>
      </g>
     </g>
     <g id="text_6">
      <!-- −15 -->
      <g transform="translate(7.2 275.755407) scale(0.1 -0.1)">
       <defs>
        <path id="DejaVuSans-35" d="M 691 4666 
L 3169 4666 
L 3169 4134 
L 1269 4134 
L 1269 2991 
Q 1406 3038 1543 3061 
Q 1681 3084 1819 3084 
Q 2600 3084 3056 2656 
Q 3513 2228 3513 1497 
Q 3513 744 3044 326 
Q 2575 -91 1722 -91 
Q 1428 -91 1123 -41 
Q 819 9 494 109 
L 494 744 
Q 775 591 1075 516 
Q 1375 441 1709 441 
Q 2250 441 2565 725 
Q 2881 1009 2881 1497 
Q 2881 1984 2565 2268 
Q 2250 2553 1709 2553 
Q 1456 2553 1204 2497 
Q 953 2441 691 2322 
L 691 4666 
z
" transform="scale(0.015625)"/>
       </defs>
       <use xlink:href="#DejaVuSans-2212"/>
       <use xlink:href="#DejaVuSans-31" x="83.789062"/>
       <use xlink:href="#DejaVuSans-35" x="147.412109"/>
      </g>
     </g>
    </g>
    <g id="ytick_2">
     <g id="line2d_7">
      <g>
       <use xlink:href="#m758b76c9ea" x="35.304688" y="234.676621" style="stroke: #000000; stroke-width: 0.8"/>
      </g>
     </g>
     <g id="text_7">
      <!-- −10 -->
      <g transform="translate(7.2 238.47584) scale(0.1 -0.1)">
       <use xlink:href="#DejaVuSans-2212"/>
       <use xlink:href="#DejaVuSans-31" x="83.789062"/>
       <use xlink:href="#DejaVuSans-30" x="147.412109"/>
      </g>
     </g>
    </g>
    <g id="ytick_3">
     <g id="line2d_8">
      <g>
       <use xlink:href="#m758b76c9ea" x="35.304688" y="197.397054" style="stroke: #000000; stroke-width: 0.8"/>
      </g>
     </g>
     <g id="text_8">
      <!-- −5 -->
      <g transform="translate(13.5625 201.196273) scale(0.1 -0.1)">
       <use xlink:href="#DejaVuSans-2212"/>
       <use xlink:href="#DejaVuSans-35" x="83.789062"/>
      </g>
     </g>
    </g>
    <g id="ytick_4">
     <g id="line2d_9">
      <g>
       <use xlink:href="#m758b76c9ea" x="35.304688" y="160.117487" style="stroke: #000000; stroke-width: 0.8"/>
      </g>
     </g>
     <g id="text_9">
      <!-- 0 -->
      <g transform="translate(21.942187 163.916706) scale(0.1 -0.1)">
       <use xlink:href="#DejaVuSans-30"/>
      </g>
     </g>
    </g>
    <g id="ytick_5">
     <g id="line2d_10">
      <g>
       <use xlink:href="#m758b76c9ea" x="35.304688" y="122.83792" style="stroke: #000000; stroke-width: 0.8"/>
      </g>
     </g>
     <g id="text_10">
      <!-- 5 -->
      <g transform="translate(21.942187 126.637139) scale(0.1 -0.1)">
       <use xlink:href="#DejaVuSans-35"/>
      </g>
     </g>
    </g>
    <g id="ytick_6">
     <g id="line2d_11">
      <g>
       <use xlink:href="#m758b76c9ea" x="35.304688" y="85.558353" style="stroke: #000000; stroke-width: 0.8"/>
      </g>
     </g>
     <g id="text_11">
      <!-- 10 -->
      <g transform="translate(15.579687 89.357572) scale(0.1 -0.1)">
       <use xlink:href="#DejaVuSans-31"/>
       <use xlink:href="#DejaVuSans-30" x="63.623047"/>
      </g>
     </g>
    </g>
    <g id="ytick_7">
     <g id="line2d_12">
      <g>
       <use xlink:href="#m758b76c9ea" x="35.304688" y="48.278786" style="stroke: #000000; stroke-width: 0.8"/>
      </g>
     </g>
     <g id="text_12">
      <!-- 15 -->
      <g transform="translate(15.579687 52.078005) scale(0.1 -0.1)">
       <use xlink:href="#DejaVuSans-31"/>
       <use xlink:href="#DejaVuSans-35" x="63.623047"/>
      </g>
     </g>
    </g>
    <g id="ytick_8">
     <g id="line2d_13">
      <g>
       <use xlink:href="#m758b76c9ea" x="35.304688" y="10.999219" style="stroke: #000000; stroke-width: 0.8"/>
      </g>
     </g>
     <g id="text_13">
      <!-- 20 -->
      <g transform="translate(15.579687 14.798438) scale(0.1 -0.1)">
       <use xlink:href="#DejaVuSans-32"/>
       <use xlink:href="#DejaVuSans-30" x="63.623047"/>
      </g>
     </g>
    </g>
   </g>
   <g id="patch_3">
    <path d="M 35.304688 274.540263 
L 35.304688 8.428263 
" style="fill: none; stroke: #000000; stroke-width: 0.8; stroke-linejoin: miter; stroke-linecap: square"/>
   </g>
   <g id="patch_4">
    <path d="M 392.424688 274.540263 
L 392.424688 8.428263 
" style="fill: none; stroke: #000000; stroke-width: 0.8; stroke-linejoin: miter; stroke-linecap: square"/>
   </g>
   <g id="patch_5">
    <path d="M 35.304688 274.540263 
L 392.424688 274.540263 
" style="fill: none; stroke: #000000; stroke-width: 0.8; stroke-linejoin: miter; stroke-linecap: square"/>
   </g>
   <g id="patch_6">
    <path d="M 35.304688 8.428263 
L 392.424688 8.428263 
" style="fill: none; stroke: #000000; stroke-width: 0.8; stroke-linejoin: miter; stroke-linecap: square"/>
   </g>
  </g>
 </g>
 <defs>
  <clipPath id="p1c85e63f84">
   <rect x="35.304688" y="8.428263" width="357.12" height="266.112"/>
  </clipPath>
 </defs>
</svg>
