<?xml version="1.0" encoding="utf-8" standalone="no"?>
<!DOCTYPE svg PUBLIC "-//W3C//DTD SVG 1.1//EN"
  "http://www.w3.org/Graphics/SVG/1.1/DTD/svg11.dtd">
<svg xmlns:xlink="http://www.w3.org/1999/xlink" width="399.624687pt" height="297.190125pt" viewBox="0 0 399.624687 297.190125" xmlns="http://www.w3.org/2000/svg" version="1.1">
 <metadata>
  <rdf:RDF xmlns:dc="http://purl.org/dc/elements/1.1/" xmlns:cc="http://creativecommons.org/ns#" xmlns:rdf="http://www.w3.org/1999/02/22-rdf-syntax-ns#">
   <cc:Work>
    <dc:type rdf:resource="http://purl.org/dc/dcmitype/StillImage"/>
    <dc:date>2023-11-11T05:07:28.377698</dc:date>
    <dc:format>image/svg+xml</dc:format>
    <dc:creator>
     <cc:Agent>
      <dc:title>Matplotlib v3.8.0, https://matplotlib.org/</dc:title>
     </cc:Agent>
    </dc:creator>
   </cc:Work>
  </rdf:RDF>
 </metadata>
 <defs>
  <style type="text/css">*{stroke-linejoin: round; stroke-linecap: butt}</style>
 </defs>
 <g id="figure_1">
  <g id="patch_1">
   <path d="M 0 297.190125 
L 399.624687 297.190125 
L 399.624687 0 
L 0 0 
z
" style="fill: #ffffff"/>
  </g>
  <g id="axes_1">
   <g id="patch_2">
    <path d="M 35.304688 273.312 
L 392.424688 273.312 
L 392.424688 7.2 
L 35.304688 7.2 
z
" style="fill: #ffffff"/>
   </g>
   <g id="PathCollection_1">
    <defs>
     <path id="m097f65ad67" d="M 0 1.5 
C 0.397805 1.5 0.77937 1.341951 1.06066 1.06066 
C 1.341951 0.77937 1.5 0.397805 1.5 0 
C 1.5 -0.397805 1.341951 -0.77937 1.06066 -1.06066 
C 0.77937 -1.341951 0.397805 -1.5 0 -1.5 
C -0.397805 -1.5 -0.77937 -1.341951 -1.06066 -1.06066 
C -1.341951 -0.77937 -1.5 -0.397805 -1.5 0 
C -1.5 0.397805 -1.341951 0.77937 -1.06066 1.06066 
C -0.77937 1.341951 -0.397805 1.5 0 1.5 
z
" style="stroke: #ff8c00"/>
    </defs>
    <g clip-path="url(#p1ff8049264)">
     <use xlink:href="#m097f65ad67" x="81.631404" y="89.529984" style="fill: #ff8c00; stroke: #ff8c00"/>
     <use xlink:href="#m097f65ad67" x="78.2457" y="102.354352" style="fill: #ff8c00; stroke: #ff8c00"/>
     <use xlink:href="#m097f65ad67" x="121.708134" y="157.739839" style="fill: #ff8c00; stroke: #ff8c00"/>
     <use xlink:href="#m097f65ad67" x="113.980216" y="99.190721" style="fill: #ff8c00; stroke: #ff8c00"/>
     <use xlink:href="#m097f65ad67" x="112.805873" y="46.904683" style="fill: #ff8c00; stroke: #ff8c00"/>
     <use xlink:href="#m097f65ad67" x="107.070144" y="80.181672" style="fill: #ff8c00; stroke: #ff8c00"/>
     <use xlink:href="#m097f65ad67" x="138.196257" y="98.470843" style="fill: #ff8c00; stroke: #ff8c00"/>
     <use xlink:href="#m097f65ad67" x="109.407942" y="163.485769" style="fill: #ff8c00; stroke: #ff8c00"/>
     <use xlink:href="#m097f65ad67" x="115.065285" y="149.748357" style="fill: #ff8c00; stroke: #ff8c00"/>
     <use xlink:href="#m097f65ad67" x="174.091421" y="77.536688" style="fill: #ff8c00; stroke: #ff8c00"/>
     <use xlink:href="#m097f65ad67" x="161.282713" y="55.513558" style="fill: #ff8c00; stroke: #ff8c00"/>
     <use xlink:href="#m097f65ad67" x="99.298292" y="40.433861" style="fill: #ff8c00; stroke: #ff8c00"/>
     <use xlink:href="#m097f65ad67" x="89.36048" y="51.829838" style="fill: #ff8c00; stroke: #ff8c00"/>
     <use xlink:href="#m097f65ad67" x="86.912125" y="82.925254" style="fill: #ff8c00; stroke: #ff8c00"/>
    </g>
   </g>
   <g id="PathCollection_2">
    <defs>
     <path id="me864226cec" d="M 0 1.5 
C 0.397805 1.5 0.77937 1.341951 1.06066 1.06066 
C 1.341951 0.77937 1.5 0.397805 1.5 0 
C 1.5 -0.397805 1.341951 -0.77937 1.06066 -1.06066 
C 0.77937 -1.341951 0.397805 -1.5 0 -1.5 
C -0.397805 -1.5 -0.77937 -1.341951 -1.06066 -1.06066 
C -1.341951 -0.77937 -1.5 -0.397805 -1.5 0 
C -1.5 0.397805 -1.341951 0.77937 -1.06066 1.06066 
C -0.77937 1.341951 -0.397805 1.5 0 1.5 
z
" style="stroke: #006400"/>
    </defs>
    <g clip-path="url(#p1ff8049264)">
     <use xlink:href="#me864226cec" x="159.420465" y="117.128602" style="fill: #006400; stroke: #006400"/>
     <use xlink:href="#me864226cec" x="72.244323" y="190.206299" style="fill: #006400; stroke: #006400"/>
     <use xlink:href="#me864226cec" x="86.808842" y="184.819043" style="fill: #006400; stroke: #006400"/>
     <use xlink:href="#me864226cec" x="108.986694" y="178.618642" style="fill: #006400; stroke: #006400"/>
     <use xlink:href="#me864226cec" x="110.812183" y="236.489521" style="fill: #006400; stroke: #006400"/>
     <use xlink:href="#me864226cec" x="151.772799" y="92.511946" style="fill: #006400; stroke: #006400"/>
     <use xlink:href="#me864226cec" x="129.885844" y="149.157858" style="fill: #006400; stroke: #006400"/>
     <use xlink:href="#me864226cec" x="135.043232" y="85.068012" style="fill: #006400; stroke: #006400"/>
     <use xlink:href="#me864226cec" x="65.879898" y="193.390584" style="fill: #006400; stroke: #006400"/>
     <use xlink:href="#me864226cec" x="68.645192" y="173.662603" style="fill: #006400; stroke: #006400"/>
     <use xlink:href="#me864226cec" x="93.927498" y="55.721136" style="fill: #006400; stroke: #006400"/>
     <use xlink:href="#me864226cec" x="117.909873" y="155.850363" style="fill: #006400; stroke: #006400"/>
     <use xlink:href="#me864226cec" x="71.893392" y="118.930239" style="fill: #006400; stroke: #006400"/>
     <use xlink:href="#me864226cec" x="51.537415" y="104.243686" style="fill: #006400; stroke: #006400"/>
     <use xlink:href="#me864226cec" x="93.103436" y="52.888895" style="fill: #006400; stroke: #006400"/>
     <use xlink:href="#me864226cec" x="136.381128" y="118.772688" style="fill: #006400; stroke: #006400"/>
     <use xlink:href="#me864226cec" x="65.741728" y="134.541604" style="fill: #006400; stroke: #006400"/>
     <use xlink:href="#me864226cec" x="123.291425" y="183.094968" style="fill: #006400; stroke: #006400"/>
     <use xlink:href="#me864226cec" x="90.914175" y="172.624218" style="fill: #006400; stroke: #006400"/>
     <use xlink:href="#me864226cec" x="171.63429" y="194.12028" style="fill: #006400; stroke: #006400"/>
     <use xlink:href="#me864226cec" x="170.943981" y="106.682953" style="fill: #006400; stroke: #006400"/>
     <use xlink:href="#me864226cec" x="109.742522" y="107.589333" style="fill: #006400; stroke: #006400"/>
     <use xlink:href="#me864226cec" x="145.380263" y="191.519118" style="fill: #006400; stroke: #006400"/>
    </g>
   </g>
   <g id="PathCollection_3">
    <defs>
     <path id="m20f7705514" d="M 0 1.5 
C 0.397805 1.5 0.77937 1.341951 1.06066 1.06066 
C 1.341951 0.77937 1.5 0.397805 1.5 0 
C 1.5 -0.397805 1.341951 -0.77937 1.06066 -1.06066 
C 0.77937 -1.341951 0.397805 -1.5 0 -1.5 
C -0.397805 -1.5 -0.77937 -1.341951 -1.06066 -1.06066 
C -1.341951 -0.77937 -1.5 -0.397805 -1.5 0 
C -1.5 0.397805 -1.341951 0.77937 -1.06066 1.06066 
C -0.77937 1.341951 -0.397805 1.5 0 1.5 
z
" style="stroke: #2f4f4f"/>
    </defs>
    <g clip-path="url(#p1ff8049264)">
     <use xlink:href="#m20f7705514" x="95.868011" y="188.989085" style="fill: #2f4f4f; stroke: #2f4f4f"/>
     <use xlink:href="#m20f7705514" x="82.101043" y="179.032414" style="fill: #2f4f4f; stroke: #2f4f4f"/>
     <use xlink:href="#m20f7705514" x="154.312665" y="180.783224" style="fill: #2f4f4f; stroke: #2f4f4f"/>
     <use xlink:href="#m20f7705514" x="176.105206" y="119.781077" style="fill: #2f4f4f; stroke: #2f4f4f"/>
     <use xlink:href="#m20f7705514" x="91.859718" y="154.7223" style="fill: #2f4f4f; stroke: #2f4f4f"/>
     <use xlink:href="#m20f7705514" x="126.716231" y="154.103567" style="fill: #2f4f4f; stroke: #2f4f4f"/>
     <use xlink:href="#m20f7705514" x="98.686859" y="119.818212" style="fill: #2f4f4f; stroke: #2f4f4f"/>
     <use xlink:href="#m20f7705514" x="169.350246" y="165.980633" style="fill: #2f4f4f; stroke: #2f4f4f"/>
     <use xlink:href="#m20f7705514" x="106.261735" y="132.757957" style="fill: #2f4f4f; stroke: #2f4f4f"/>
     <use xlink:href="#m20f7705514" x="72.301383" y="77.24883" style="fill: #2f4f4f; stroke: #2f4f4f"/>
     <use xlink:href="#m20f7705514" x="91.585107" y="119.380181" style="fill: #2f4f4f; stroke: #2f4f4f"/>
     <use xlink:href="#m20f7705514" x="107.968393" y="111.777828" style="fill: #2f4f4f; stroke: #2f4f4f"/>
     <use xlink:href="#m20f7705514" x="92.258311" y="156.208967" style="fill: #2f4f4f; stroke: #2f4f4f"/>
     <use xlink:href="#m20f7705514" x="102.658068" y="114.690384" style="fill: #2f4f4f; stroke: #2f4f4f"/>
     <use xlink:href="#m20f7705514" x="153.914799" y="155.839539" style="fill: #2f4f4f; stroke: #2f4f4f"/>
     <use xlink:href="#m20f7705514" x="147.64492" y="230.909394" style="fill: #2f4f4f; stroke: #2f4f4f"/>
     <use xlink:href="#m20f7705514" x="110.483592" y="169.252147" style="fill: #2f4f4f; stroke: #2f4f4f"/>
    </g>
   </g>
   <g id="PathCollection_4">
    <defs>
     <path id="m26f33756d0" d="M 0 1.5 
C 0.397805 1.5 0.77937 1.341951 1.06066 1.06066 
C 1.341951 0.77937 1.5 0.397805 1.5 0 
C 1.5 -0.397805 1.341951 -0.77937 1.06066 -1.06066 
C 0.77937 -1.341951 0.397805 -1.5 0 -1.5 
C -0.397805 -1.5 -0.77937 -1.341951 -1.06066 -1.06066 
C -1.341951 -0.77937 -1.5 -0.397805 -1.5 0 
C -1.5 0.397805 -1.341951 0.77937 -1.06066 1.06066 
C -0.77937 1.341951 -0.397805 1.5 0 1.5 
z
" style="stroke: #00bfff"/>
    </defs>
    <g clip-path="url(#p1ff8049264)">
     <use xlink:href="#m26f33756d0" x="138.872465" y="112.861155" style="fill: #00bfff; stroke: #00bfff"/>
     <use xlink:href="#m26f33756d0" x="156.95293" y="200.001569" style="fill: #00bfff; stroke: #00bfff"/>
     <use xlink:href="#m26f33756d0" x="118.571193" y="112.048254" style="fill: #00bfff; stroke: #00bfff"/>
     <use xlink:href="#m26f33756d0" x="85.019432" y="170.299281" style="fill: #00bfff; stroke: #00bfff"/>
     <use xlink:href="#m26f33756d0" x="86.121335" y="163.824664" style="fill: #00bfff; stroke: #00bfff"/>
     <use xlink:href="#m26f33756d0" x="142.847568" y="142.489014" style="fill: #00bfff; stroke: #00bfff"/>
     <use xlink:href="#m26f33756d0" x="94.058267" y="182.234073" style="fill: #00bfff; stroke: #00bfff"/>
     <use xlink:href="#m26f33756d0" x="104.639846" y="171.349566" style="fill: #00bfff; stroke: #00bfff"/>
     <use xlink:href="#m26f33756d0" x="71.838526" y="152.030697" style="fill: #00bfff; stroke: #00bfff"/>
     <use xlink:href="#m26f33756d0" x="167.309257" y="123.488249" style="fill: #00bfff; stroke: #00bfff"/>
     <use xlink:href="#m26f33756d0" x="121.337509" y="137.226117" style="fill: #00bfff; stroke: #00bfff"/>
     <use xlink:href="#m26f33756d0" x="161.615829" y="119.343595" style="fill: #00bfff; stroke: #00bfff"/>
     <use xlink:href="#m26f33756d0" x="102.998715" y="209.443637" style="fill: #00bfff; stroke: #00bfff"/>
     <use xlink:href="#m26f33756d0" x="116.614128" y="146.839381" style="fill: #00bfff; stroke: #00bfff"/>
     <use xlink:href="#m26f33756d0" x="68.360841" y="148.55794" style="fill: #00bfff; stroke: #00bfff"/>
    </g>
   </g>
   <g id="PathCollection_5">
    <defs>
     <path id="m255e877972" d="M 0 1.5 
C 0.397805 1.5 0.77937 1.341951 1.06066 1.06066 
C 1.341951 0.77937 1.5 0.397805 1.5 0 
C 1.5 -0.397805 1.341951 -0.77937 1.06066 -1.06066 
C 0.77937 -1.341951 0.397805 -1.5 0 -1.5 
C -0.397805 -1.5 -0.77937 -1.341951 -1.06066 -1.06066 
C -1.341951 -0.77937 -1.5 -0.397805 -1.5 0 
C -1.5 0.397805 -1.341951 0.77937 -1.06066 1.06066 
C -0.77937 1.341951 -0.397805 1.5 0 1.5 
z
" style="stroke: #ffff00"/>
    </defs>
    <g clip-path="url(#p1ff8049264)">
     <use xlink:href="#m255e877972" x="80.244431" y="146.197826" style="fill: #ffff00; stroke: #ffff00"/>
     <use xlink:href="#m255e877972" x="74.121274" y="123.466184" style="fill: #ffff00; stroke: #ffff00"/>
     <use xlink:href="#m255e877972" x="97.832026" y="181.117779" style="fill: #ffff00; stroke: #ffff00"/>
     <use xlink:href="#m255e877972" x="82.452254" y="207.771883" style="fill: #ffff00; stroke: #ffff00"/>
     <use xlink:href="#m255e877972" x="167.141829" y="185.973202" style="fill: #ffff00; stroke: #ffff00"/>
     <use xlink:href="#m255e877972" x="149.938814" y="117.143704" style="fill: #ffff00; stroke: #ffff00"/>
     <use xlink:href="#m255e877972" x="114.65901" y="183.06441" style="fill: #ffff00; stroke: #ffff00"/>
    </g>
   </g>
   <g id="PathCollection_6">
    <defs>
     <path id="m0484137ecf" d="M 0 1.5 
C 0.397805 1.5 0.77937 1.341951 1.06066 1.06066 
C 1.341951 0.77937 1.5 0.397805 1.5 0 
C 1.5 -0.397805 1.341951 -0.77937 1.06066 -1.06066 
C 0.77937 -1.341951 0.397805 -1.5 0 -1.5 
C -0.397805 -1.5 -0.77937 -1.341951 -1.06066 -1.06066 
C -1.341951 -0.77937 -1.5 -0.397805 -1.5 0 
C -1.5 0.397805 -1.341951 0.77937 -1.06066 1.06066 
C -0.77937 1.341951 -0.397805 1.5 0 1.5 
z
" style="stroke: #00ffff"/>
    </defs>
    <g clip-path="url(#p1ff8049264)">
     <use xlink:href="#m0484137ecf" x="59.646535" y="135.742967" style="fill: #00ffff; stroke: #00ffff"/>
     <use xlink:href="#m0484137ecf" x="107.571858" y="209.289104" style="fill: #00ffff; stroke: #00ffff"/>
     <use xlink:href="#m0484137ecf" x="143.755944" y="175.666046" style="fill: #00ffff; stroke: #00ffff"/>
     <use xlink:href="#m0484137ecf" x="124.086356" y="196.092074" style="fill: #00ffff; stroke: #00ffff"/>
     <use xlink:href="#m0484137ecf" x="95.727011" y="192.485706" style="fill: #00ffff; stroke: #00ffff"/>
     <use xlink:href="#m0484137ecf" x="123.192731" y="202.234617" style="fill: #00ffff; stroke: #00ffff"/>
     <use xlink:href="#m0484137ecf" x="103.015333" y="145.435636" style="fill: #00ffff; stroke: #00ffff"/>
     <use xlink:href="#m0484137ecf" x="97.85061" y="163.645415" style="fill: #00ffff; stroke: #00ffff"/>
     <use xlink:href="#m0484137ecf" x="166.666082" y="248.118692" style="fill: #00ffff; stroke: #00ffff"/>
     <use xlink:href="#m0484137ecf" x="149.04065" y="179.617256" style="fill: #00ffff; stroke: #00ffff"/>
     <use xlink:href="#m0484137ecf" x="99.58893" y="153.107457" style="fill: #00ffff; stroke: #00ffff"/>
     <use xlink:href="#m0484137ecf" x="150.13289" y="175.743866" style="fill: #00ffff; stroke: #00ffff"/>
     <use xlink:href="#m0484137ecf" x="89.715719" y="161.373477" style="fill: #00ffff; stroke: #00ffff"/>
     <use xlink:href="#m0484137ecf" x="82.406066" y="184.555963" style="fill: #00ffff; stroke: #00ffff"/>
     <use xlink:href="#m0484137ecf" x="197.98039" y="162.516329" style="fill: #00ffff; stroke: #00ffff"/>
     <use xlink:href="#m0484137ecf" x="67.452528" y="188.655811" style="fill: #00ffff; stroke: #00ffff"/>
    </g>
   </g>
   <g id="PathCollection_7">
    <defs>
     <path id="m10cc8bf5fc" d="M 0 1.5 
C 0.397805 1.5 0.77937 1.341951 1.06066 1.06066 
C 1.341951 0.77937 1.5 0.397805 1.5 0 
C 1.5 -0.397805 1.341951 -0.77937 1.06066 -1.06066 
C 0.77937 -1.341951 0.397805 -1.5 0 -1.5 
C -0.397805 -1.5 -0.77937 -1.341951 -1.06066 -1.06066 
C -1.341951 -0.77937 -1.5 -0.397805 -1.5 0 
C -1.5 0.397805 -1.341951 0.77937 -1.06066 1.06066 
C -0.77937 1.341951 -0.397805 1.5 0 1.5 
z
" style="stroke: #0000ff"/>
    </defs>
    <g clip-path="url(#p1ff8049264)">
     <use xlink:href="#m10cc8bf5fc" x="181.39726" y="238.324235" style="fill: #0000ff; stroke: #0000ff"/>
     <use xlink:href="#m10cc8bf5fc" x="175.454535" y="144.006404" style="fill: #0000ff; stroke: #0000ff"/>
     <use xlink:href="#m10cc8bf5fc" x="141.026074" y="207.141339" style="fill: #0000ff; stroke: #0000ff"/>
     <use xlink:href="#m10cc8bf5fc" x="114.9729" y="72.232536" style="fill: #0000ff; stroke: #0000ff"/>
     <use xlink:href="#m10cc8bf5fc" x="140.288415" y="141.916801" style="fill: #0000ff; stroke: #0000ff"/>
     <use xlink:href="#m10cc8bf5fc" x="128.339213" y="112.601377" style="fill: #0000ff; stroke: #0000ff"/>
     <use xlink:href="#m10cc8bf5fc" x="111.315024" y="163.301044" style="fill: #0000ff; stroke: #0000ff"/>
     <use xlink:href="#m10cc8bf5fc" x="94.431581" y="128.706428" style="fill: #0000ff; stroke: #0000ff"/>
     <use xlink:href="#m10cc8bf5fc" x="74.08701" y="140.214864" style="fill: #0000ff; stroke: #0000ff"/>
     <use xlink:href="#m10cc8bf5fc" x="157.132994" y="188.835272" style="fill: #0000ff; stroke: #0000ff"/>
     <use xlink:href="#m10cc8bf5fc" x="153.24857" y="175.138755" style="fill: #0000ff; stroke: #0000ff"/>
     <use xlink:href="#m10cc8bf5fc" x="126.2998" y="186.037481" style="fill: #0000ff; stroke: #0000ff"/>
     <use xlink:href="#m10cc8bf5fc" x="209.941344" y="146.977374" style="fill: #0000ff; stroke: #0000ff"/>
     <use xlink:href="#m10cc8bf5fc" x="98.956061" y="182.360513" style="fill: #0000ff; stroke: #0000ff"/>
     <use xlink:href="#m10cc8bf5fc" x="87.109557" y="164.136786" style="fill: #0000ff; stroke: #0000ff"/>
    </g>
   </g>
   <g id="PathCollection_8">
    <defs>
     <path id="m072457a783" d="M 0 1.5 
C 0.397805 1.5 0.77937 1.341951 1.06066 1.06066 
C 1.341951 0.77937 1.5 0.397805 1.5 0 
C 1.5 -0.397805 1.341951 -0.77937 1.06066 -1.06066 
C 0.77937 -1.341951 0.397805 -1.5 0 -1.5 
C -0.397805 -1.5 -0.77937 -1.341951 -1.06066 -1.06066 
C -1.341951 -0.77937 -1.5 -0.397805 -1.5 0 
C -1.5 0.397805 -1.341951 0.77937 -1.06066 1.06066 
C -0.77937 1.341951 -0.397805 1.5 0 1.5 
z
" style="stroke: #dc143c"/>
    </defs>
    <g clip-path="url(#p1ff8049264)">
     <use xlink:href="#m072457a783" x="146.158919" y="86.543222" style="fill: #dc143c; stroke: #dc143c"/>
     <use xlink:href="#m072457a783" x="123.700569" y="91.480225" style="fill: #dc143c; stroke: #dc143c"/>
     <use xlink:href="#m072457a783" x="75.720552" y="97.329634" style="fill: #dc143c; stroke: #dc143c"/>
     <use xlink:href="#m072457a783" x="190.735802" y="159.462162" style="fill: #dc143c; stroke: #dc143c"/>
     <use xlink:href="#m072457a783" x="118.151563" y="84.963369" style="fill: #dc143c; stroke: #dc143c"/>
     <use xlink:href="#m072457a783" x="96.137094" y="109.927382" style="fill: #dc143c; stroke: #dc143c"/>
     <use xlink:href="#m072457a783" x="131.849547" y="95.408283" style="fill: #dc143c; stroke: #dc143c"/>
     <use xlink:href="#m072457a783" x="118.77335" y="62.656142" style="fill: #dc143c; stroke: #dc143c"/>
     <use xlink:href="#m072457a783" x="181.91111" y="118.592633" style="fill: #dc143c; stroke: #dc143c"/>
     <use xlink:href="#m072457a783" x="110.480521" y="84.281264" style="fill: #dc143c; stroke: #dc143c"/>
     <use xlink:href="#m072457a783" x="125.918268" y="103.037893" style="fill: #dc143c; stroke: #dc143c"/>
    </g>
   </g>
   <g id="PathCollection_9">
    <defs>
     <path id="m88fdf159cc" d="M 0 1.5 
C 0.397805 1.5 0.77937 1.341951 1.06066 1.06066 
C 1.341951 0.77937 1.5 0.397805 1.5 0 
C 1.5 -0.397805 1.341951 -0.77937 1.06066 -1.06066 
C 0.77937 -1.341951 0.397805 -1.5 0 -1.5 
C -0.397805 -1.5 -0.77937 -1.341951 -1.06066 -1.06066 
C -1.341951 -0.77937 -1.5 -0.397805 -1.5 0 
C -1.5 0.397805 -1.341951 0.77937 -1.06066 1.06066 
C -0.77937 1.341951 -0.397805 1.5 0 1.5 
z
" style="stroke: #ffe4c4"/>
    </defs>
    <g clip-path="url(#p1ff8049264)">
     <use xlink:href="#m88fdf159cc" x="152.334644" y="172.733182" style="fill: #ffe4c4; stroke: #ffe4c4"/>
     <use xlink:href="#m88fdf159cc" x="168.286278" y="89.503384" style="fill: #ffe4c4; stroke: #ffe4c4"/>
     <use xlink:href="#m88fdf159cc" x="213.596604" y="100.357646" style="fill: #ffe4c4; stroke: #ffe4c4"/>
     <use xlink:href="#m88fdf159cc" x="166.69864" y="130.556748" style="fill: #ffe4c4; stroke: #ffe4c4"/>
     <use xlink:href="#m88fdf159cc" x="165.865304" y="127.907244" style="fill: #ffe4c4; stroke: #ffe4c4"/>
     <use xlink:href="#m88fdf159cc" x="145.012093" y="136.651441" style="fill: #ffe4c4; stroke: #ffe4c4"/>
     <use xlink:href="#m88fdf159cc" x="212.245712" y="252.769557" style="fill: #ffe4c4; stroke: #ffe4c4"/>
     <use xlink:href="#m88fdf159cc" x="230.923907" y="112.123718" style="fill: #ffe4c4; stroke: #ffe4c4"/>
     <use xlink:href="#m88fdf159cc" x="173.834073" y="68.394958" style="fill: #ffe4c4; stroke: #ffe4c4"/>
     <use xlink:href="#m88fdf159cc" x="174.631484" y="144.837132" style="fill: #ffe4c4; stroke: #ffe4c4"/>
    </g>
   </g>
   <g id="PathCollection_10">
    <defs>
     <path id="ma3b1bd9381" d="M -2.99994 2.99994 
L 3.00006 2.99994 
L 3.00006 -3.00006 
L -2.99994 -3.00006 
z
" style="stroke: #000000"/>
    </defs>
    <g clip-path="url(#p1ff8049264)">
     <use xlink:href="#ma3b1bd9381" x="212.368711" y="243.39534" style="stroke: #000000"/>
     <use xlink:href="#ma3b1bd9381" x="203.464084" y="225.627619" style="stroke: #000000"/>
     <use xlink:href="#ma3b1bd9381" x="221.111327" y="217.02862" style="stroke: #000000"/>
     <use xlink:href="#ma3b1bd9381" x="203.82328" y="166.544821" style="stroke: #000000"/>
     <use xlink:href="#ma3b1bd9381" x="261.149293" y="56.456795" style="stroke: #000000"/>
     <use xlink:href="#ma3b1bd9381" x="258.314119" y="163.069995" style="stroke: #000000"/>
     <use xlink:href="#ma3b1bd9381" x="232.042459" y="156.579927" style="stroke: #000000"/>
     <use xlink:href="#ma3b1bd9381" x="216.83263" y="43.486101" style="stroke: #000000"/>
     <use xlink:href="#ma3b1bd9381" x="168.540474" y="152.175788" style="stroke: #000000"/>
     <use xlink:href="#ma3b1bd9381" x="229.047246" y="137.59583" style="stroke: #000000"/>
     <use xlink:href="#ma3b1bd9381" x="167.930291" y="140.914928" style="stroke: #000000"/>
     <use xlink:href="#ma3b1bd9381" x="190.765233" y="132.904774" style="stroke: #000000"/>
     <use xlink:href="#ma3b1bd9381" x="214.510525" y="156.711173" style="stroke: #000000"/>
     <use xlink:href="#ma3b1bd9381" x="181.24073" y="102.810344" style="stroke: #000000"/>
     <use xlink:href="#ma3b1bd9381" x="211.133407" y="69.026925" style="stroke: #000000"/>
     <use xlink:href="#ma3b1bd9381" x="269.41393" y="104.030523" style="stroke: #000000"/>
     <use xlink:href="#ma3b1bd9381" x="247.322295" y="56.549749" style="stroke: #000000"/>
     <use xlink:href="#ma3b1bd9381" x="172.077201" y="128.020607" style="stroke: #000000"/>
     <use xlink:href="#ma3b1bd9381" x="336.21735" y="223.675694" style="stroke: #000000"/>
     <use xlink:href="#ma3b1bd9381" x="266.912586" y="94.022842" style="stroke: #000000"/>
     <use xlink:href="#ma3b1bd9381" x="202.808705" y="160.962947" style="stroke: #000000"/>
     <use xlink:href="#ma3b1bd9381" x="223.753789" y="160.69482" style="stroke: #000000"/>
     <use xlink:href="#ma3b1bd9381" x="245.154623" y="236.439469" style="stroke: #000000"/>
     <use xlink:href="#ma3b1bd9381" x="185.880322" y="170.775126" style="stroke: #000000"/>
     <use xlink:href="#ma3b1bd9381" x="189.363651" y="122.776207" style="stroke: #000000"/>
     <use xlink:href="#ma3b1bd9381" x="143.452614" y="188.102973" style="stroke: #000000"/>
     <use xlink:href="#ma3b1bd9381" x="154.379686" y="108.423148" style="stroke: #000000"/>
     <use xlink:href="#ma3b1bd9381" x="247.766839" y="172.07553" style="stroke: #000000"/>
     <use xlink:href="#ma3b1bd9381" x="155.402626" y="64.253635" style="stroke: #000000"/>
     <use xlink:href="#ma3b1bd9381" x="261.895289" y="188.202467" style="stroke: #000000"/>
     <use xlink:href="#ma3b1bd9381" x="220.913158" y="60.320655" style="stroke: #000000"/>
     <use xlink:href="#ma3b1bd9381" x="188.446646" y="174.184168" style="stroke: #000000"/>
     <use xlink:href="#ma3b1bd9381" x="218.400649" y="23.801142" style="stroke: #000000"/>
     <use xlink:href="#ma3b1bd9381" x="162.020298" y="247.344377" style="stroke: #000000"/>
     <use xlink:href="#ma3b1bd9381" x="286.648549" y="186.317933" style="stroke: #000000"/>
     <use xlink:href="#ma3b1bd9381" x="199.884709" y="139.875681" style="stroke: #000000"/>
     <use xlink:href="#ma3b1bd9381" x="141.505575" y="112.299743" style="stroke: #000000"/>
     <use xlink:href="#ma3b1bd9381" x="263.87333" y="119.790617" style="stroke: #000000"/>
     <use xlink:href="#ma3b1bd9381" x="241.510356" y="214.724549" style="stroke: #000000"/>
     <use xlink:href="#ma3b1bd9381" x="201.741698" y="194.711018" style="stroke: #000000"/>
     <use xlink:href="#ma3b1bd9381" x="233.957886" y="163.400058" style="stroke: #000000"/>
     <use xlink:href="#ma3b1bd9381" x="169.985066" y="139.734987" style="stroke: #000000"/>
     <use xlink:href="#ma3b1bd9381" x="172.821774" y="230.805052" style="stroke: #000000"/>
     <use xlink:href="#ma3b1bd9381" x="242.415862" y="103.812089" style="stroke: #000000"/>
     <use xlink:href="#ma3b1bd9381" x="158.390231" y="191.952024" style="stroke: #000000"/>
     <use xlink:href="#ma3b1bd9381" x="282.251863" y="72.618058" style="stroke: #000000"/>
     <use xlink:href="#ma3b1bd9381" x="177.438333" y="90.688543" style="stroke: #000000"/>
     <use xlink:href="#ma3b1bd9381" x="168.229229" y="87.542429" style="stroke: #000000"/>
     <use xlink:href="#ma3b1bd9381" x="172.457323" y="261.216" style="stroke: #000000"/>
     <use xlink:href="#ma3b1bd9381" x="202.518659" y="54.533178" style="stroke: #000000"/>
     <use xlink:href="#ma3b1bd9381" x="169.751488" y="210.763639" style="stroke: #000000"/>
     <use xlink:href="#ma3b1bd9381" x="262.604662" y="182.616288" style="stroke: #000000"/>
     <use xlink:href="#ma3b1bd9381" x="123.894426" y="112.223367" style="stroke: #000000"/>
     <use xlink:href="#ma3b1bd9381" x="363.60822" y="44.277157" style="stroke: #000000"/>
     <use xlink:href="#ma3b1bd9381" x="193.362029" y="186.185693" style="stroke: #000000"/>
     <use xlink:href="#ma3b1bd9381" x="156.599733" y="205.296965" style="stroke: #000000"/>
     <use xlink:href="#ma3b1bd9381" x="211.918766" y="178.077477" style="stroke: #000000"/>
     <use xlink:href="#ma3b1bd9381" x="156.125591" y="144.530798" style="stroke: #000000"/>
     <use xlink:href="#ma3b1bd9381" x="202.504945" y="185.189089" style="stroke: #000000"/>
     <use xlink:href="#ma3b1bd9381" x="160.091909" y="191.461883" style="stroke: #000000"/>
     <use xlink:href="#ma3b1bd9381" x="262.025746" y="79.006054" style="stroke: #000000"/>
     <use xlink:href="#ma3b1bd9381" x="184.797712" y="166.099365" style="stroke: #000000"/>
     <use xlink:href="#ma3b1bd9381" x="257.513441" y="19.296" style="stroke: #000000"/>
     <use xlink:href="#ma3b1bd9381" x="190.149014" y="201.704536" style="stroke: #000000"/>
    </g>
   </g>
   <g id="PathCollection_11">
    <defs>
     <path id="m18da0d8d98" d="M -3 -0 
L 3 3 
L 3 -3 
z
" style="stroke: #ff8c00"/>
    </defs>
    <g clip-path="url(#p1ff8049264)">
     <use xlink:href="#m18da0d8d98" x="167.787283" y="167.341869" style="fill: #ff8c00; stroke: #ff8c00"/>
     <use xlink:href="#m18da0d8d98" x="139.761325" y="169.381221" style="fill: #ff8c00; stroke: #ff8c00"/>
     <use xlink:href="#m18da0d8d98" x="214.219045" y="174.018729" style="fill: #ff8c00; stroke: #ff8c00"/>
     <use xlink:href="#m18da0d8d98" x="189.697349" y="181.960938" style="fill: #ff8c00; stroke: #ff8c00"/>
     <use xlink:href="#m18da0d8d98" x="199.603361" y="130.364953" style="fill: #ff8c00; stroke: #ff8c00"/>
     <use xlink:href="#m18da0d8d98" x="151.253707" y="197.35751" style="fill: #ff8c00; stroke: #ff8c00"/>
     <use xlink:href="#m18da0d8d98" x="131.842304" y="144.130005" style="fill: #ff8c00; stroke: #ff8c00"/>
     <use xlink:href="#m18da0d8d98" x="261.740553" y="134.782879" style="fill: #ff8c00; stroke: #ff8c00"/>
     <use xlink:href="#m18da0d8d98" x="153.108898" y="185.289157" style="fill: #ff8c00; stroke: #ff8c00"/>
     <use xlink:href="#m18da0d8d98" x="151.332832" y="141.73526" style="fill: #ff8c00; stroke: #ff8c00"/>
     <use xlink:href="#m18da0d8d98" x="210.226936" y="120.997854" style="fill: #ff8c00; stroke: #ff8c00"/>
     <use xlink:href="#m18da0d8d98" x="260.718884" y="183.202434" style="fill: #ff8c00; stroke: #ff8c00"/>
     <use xlink:href="#m18da0d8d98" x="176.844032" y="247.688665" style="fill: #ff8c00; stroke: #ff8c00"/>
     <use xlink:href="#m18da0d8d98" x="196.03818" y="207.826141" style="fill: #ff8c00; stroke: #ff8c00"/>
     <use xlink:href="#m18da0d8d98" x="185.185894" y="224.354916" style="fill: #ff8c00; stroke: #ff8c00"/>
     <use xlink:href="#m18da0d8d98" x="128.202942" y="183.871726" style="fill: #ff8c00; stroke: #ff8c00"/>
     <use xlink:href="#m18da0d8d98" x="219.450581" y="180.692889" style="fill: #ff8c00; stroke: #ff8c00"/>
     <use xlink:href="#m18da0d8d98" x="105.010089" y="146.997173" style="fill: #ff8c00; stroke: #ff8c00"/>
     <use xlink:href="#m18da0d8d98" x="166.55149" y="153.526825" style="fill: #ff8c00; stroke: #ff8c00"/>
     <use xlink:href="#m18da0d8d98" x="300.599283" y="135.191734" style="fill: #ff8c00; stroke: #ff8c00"/>
     <use xlink:href="#m18da0d8d98" x="249.166737" y="162.525227" style="fill: #ff8c00; stroke: #ff8c00"/>
     <use xlink:href="#m18da0d8d98" x="167.726638" y="137.335812" style="fill: #ff8c00; stroke: #ff8c00"/>
     <use xlink:href="#m18da0d8d98" x="289.855405" y="160.051954" style="fill: #ff8c00; stroke: #ff8c00"/>
     <use xlink:href="#m18da0d8d98" x="366.614809" y="123.316368" style="fill: #ff8c00; stroke: #ff8c00"/>
     <use xlink:href="#m18da0d8d98" x="215.218682" y="200.18075" style="fill: #ff8c00; stroke: #ff8c00"/>
     <use xlink:href="#m18da0d8d98" x="190.766319" y="188.291976" style="fill: #ff8c00; stroke: #ff8c00"/>
     <use xlink:href="#m18da0d8d98" x="234.714951" y="180.634042" style="fill: #ff8c00; stroke: #ff8c00"/>
     <use xlink:href="#m18da0d8d98" x="202.611247" y="209.236843" style="fill: #ff8c00; stroke: #ff8c00"/>
     <use xlink:href="#m18da0d8d98" x="207.208212" y="103.183055" style="fill: #ff8c00; stroke: #ff8c00"/>
     <use xlink:href="#m18da0d8d98" x="167.69043" y="120.769494" style="fill: #ff8c00; stroke: #ff8c00"/>
     <use xlink:href="#m18da0d8d98" x="159.953871" y="178.564253" style="fill: #ff8c00; stroke: #ff8c00"/>
     <use xlink:href="#m18da0d8d98" x="169.133176" y="164.450553" style="fill: #ff8c00; stroke: #ff8c00"/>
     <use xlink:href="#m18da0d8d98" x="310.032192" y="104.409306" style="fill: #ff8c00; stroke: #ff8c00"/>
     <use xlink:href="#m18da0d8d98" x="154.676782" y="131.399383" style="fill: #ff8c00; stroke: #ff8c00"/>
     <use xlink:href="#m18da0d8d98" x="150.946247" y="207.146297" style="fill: #ff8c00; stroke: #ff8c00"/>
     <use xlink:href="#m18da0d8d98" x="286.075259" y="94.014813" style="fill: #ff8c00; stroke: #ff8c00"/>
     <use xlink:href="#m18da0d8d98" x="206.235902" y="236.040549" style="fill: #ff8c00; stroke: #ff8c00"/>
     <use xlink:href="#m18da0d8d98" x="184.75719" y="163.268515" style="fill: #ff8c00; stroke: #ff8c00"/>
     <use xlink:href="#m18da0d8d98" x="166.701943" y="114.797811" style="fill: #ff8c00; stroke: #ff8c00"/>
     <use xlink:href="#m18da0d8d98" x="229.598197" y="157.914835" style="fill: #ff8c00; stroke: #ff8c00"/>
     <use xlink:href="#m18da0d8d98" x="214.728695" y="149.821592" style="fill: #ff8c00; stroke: #ff8c00"/>
     <use xlink:href="#m18da0d8d98" x="286.401253" y="131.909345" style="fill: #ff8c00; stroke: #ff8c00"/>
     <use xlink:href="#m18da0d8d98" x="120.026505" y="176.435433" style="fill: #ff8c00; stroke: #ff8c00"/>
     <use xlink:href="#m18da0d8d98" x="137.987743" y="105.439136" style="fill: #ff8c00; stroke: #ff8c00"/>
     <use xlink:href="#m18da0d8d98" x="191.655371" y="159.146697" style="fill: #ff8c00; stroke: #ff8c00"/>
     <use xlink:href="#m18da0d8d98" x="161.989395" y="147.133348" style="fill: #ff8c00; stroke: #ff8c00"/>
     <use xlink:href="#m18da0d8d98" x="159.229394" y="123.936989" style="fill: #ff8c00; stroke: #ff8c00"/>
     <use xlink:href="#m18da0d8d98" x="174.400239" y="158.743808" style="fill: #ff8c00; stroke: #ff8c00"/>
     <use xlink:href="#m18da0d8d98" x="226.138122" y="182.80654" style="fill: #ff8c00; stroke: #ff8c00"/>
     <use xlink:href="#m18da0d8d98" x="322.23387" y="140.057909" style="fill: #ff8c00; stroke: #ff8c00"/>
     <use xlink:href="#m18da0d8d98" x="376.19196" y="115.177426" style="fill: #ff8c00; stroke: #ff8c00"/>
     <use xlink:href="#m18da0d8d98" x="246.689768" y="143.318244" style="fill: #ff8c00; stroke: #ff8c00"/>
     <use xlink:href="#m18da0d8d98" x="178.698749" y="183.826771" style="fill: #ff8c00; stroke: #ff8c00"/>
     <use xlink:href="#m18da0d8d98" x="158.558169" y="157.51032" style="fill: #ff8c00; stroke: #ff8c00"/>
     <use xlink:href="#m18da0d8d98" x="182.879756" y="224.983052" style="fill: #ff8c00; stroke: #ff8c00"/>
     <use xlink:href="#m18da0d8d98" x="181.114391" y="154.334772" style="fill: #ff8c00; stroke: #ff8c00"/>
     <use xlink:href="#m18da0d8d98" x="277.223932" y="151.612889" style="fill: #ff8c00; stroke: #ff8c00"/>
     <use xlink:href="#m18da0d8d98" x="166.807838" y="228.290458" style="fill: #ff8c00; stroke: #ff8c00"/>
     <use xlink:href="#m18da0d8d98" x="231.306623" y="223.598131" style="fill: #ff8c00; stroke: #ff8c00"/>
     <use xlink:href="#m18da0d8d98" x="210.966769" y="230.556581" style="fill: #ff8c00; stroke: #ff8c00"/>
     <use xlink:href="#m18da0d8d98" x="151.303089" y="121.529166" style="fill: #ff8c00; stroke: #ff8c00"/>
     <use xlink:href="#m18da0d8d98" x="218.772919" y="165.024837" style="fill: #ff8c00; stroke: #ff8c00"/>
     <use xlink:href="#m18da0d8d98" x="198.414818" y="86.455157" style="fill: #ff8c00; stroke: #ff8c00"/>
     <use xlink:href="#m18da0d8d98" x="165.535477" y="167.18557" style="fill: #ff8c00; stroke: #ff8c00"/>
    </g>
   </g>
   <g id="matplotlib.axis_1">
    <g id="xtick_1">
     <g id="line2d_1">
      <defs>
       <path id="me577d3862d" d="M 0 0 
L 0 3.5 
" style="stroke: #000000; stroke-width: 0.8"/>
      </defs>
      <g>
       <use xlink:href="#me577d3862d" x="72.493796" y="273.312" style="stroke: #000000; stroke-width: 0.8"/>
      </g>
     </g>
     <g id="text_1">
      <!-- −10 -->
      <g transform="translate(61.941452 287.910437) scale(0.1 -0.1)">
       <defs>
        <path id="DejaVuSans-2212" d="M 678 2272 
L 4684 2272 
L 4684 1741 
L 678 1741 
L 678 2272 
z
" transform="scale(0.015625)"/>
        <path id="DejaVuSans-31" d="M 794 531 
L 1825 531 
L 1825 4091 
L 703 3866 
L 703 4441 
L 1819 4666 
L 2450 4666 
L 2450 531 
L 3481 531 
L 3481 0 
L 794 0 
L 794 531 
z
" transform="scale(0.015625)"/>
        <path id="DejaVuSans-30" d="M 2034 4250 
Q 1547 4250 1301 3770 
Q 1056 3291 1056 2328 
Q 1056 1369 1301 889 
Q 1547 409 2034 409 
Q 2525 409 2770 889 
Q 3016 1369 3016 2328 
Q 3016 3291 2770 3770 
Q 2525 4250 2034 4250 
z
M 2034 4750 
Q 2819 4750 3233 4129 
Q 3647 3509 3647 2328 
Q 3647 1150 3233 529 
Q 2819 -91 2034 -91 
Q 1250 -91 836 529 
Q 422 1150 422 2328 
Q 422 3509 836 4129 
Q 1250 4750 2034 4750 
z
" transform="scale(0.015625)"/>
       </defs>
       <use xlink:href="#DejaVuSans-2212"/>
       <use xlink:href="#DejaVuSans-31" x="83.789062"/>
       <use xlink:href="#DejaVuSans-30" x="147.412109"/>
      </g>
     </g>
    </g>
    <g id="xtick_2">
     <g id="line2d_2">
      <g>
       <use xlink:href="#me577d3862d" x="118.496747" y="273.312" style="stroke: #000000; stroke-width: 0.8"/>
      </g>
     </g>
     <g id="text_2">
      <!-- −5 -->
      <g transform="translate(111.125653 287.910437) scale(0.1 -0.1)">
       <defs>
        <path id="DejaVuSans-35" d="M 691 4666 
L 3169 4666 
L 3169 4134 
L 1269 4134 
L 1269 2991 
Q 1406 3038 1543 3061 
Q 1681 3084 1819 3084 
Q 2600 3084 3056 2656 
Q 3513 2228 3513 1497 
Q 3513 744 3044 326 
Q 2575 -91 1722 -91 
Q 1428 -91 1123 -41 
Q 819 9 494 109 
L 494 744 
Q 775 591 1075 516 
Q 1375 441 1709 441 
Q 2250 441 2565 725 
Q 2881 1009 2881 1497 
Q 2881 1984 2565 2268 
Q 2250 2553 1709 2553 
Q 1456 2553 1204 2497 
Q 953 2441 691 2322 
L 691 4666 
z
" transform="scale(0.015625)"/>
       </defs>
       <use xlink:href="#DejaVuSans-2212"/>
       <use xlink:href="#DejaVuSans-35" x="83.789062"/>
      </g>
     </g>
    </g>
    <g id="xtick_3">
     <g id="line2d_3">
      <g>
       <use xlink:href="#me577d3862d" x="164.499698" y="273.312" style="stroke: #000000; stroke-width: 0.8"/>
      </g>
     </g>
     <g id="text_3">
      <!-- 0 -->
      <g transform="translate(161.318448 287.910437) scale(0.1 -0.1)">
       <use xlink:href="#DejaVuSans-30"/>
      </g>
     </g>
    </g>
    <g id="xtick_4">
     <g id="line2d_4">
      <g>
       <use xlink:href="#me577d3862d" x="210.502649" y="273.312" style="stroke: #000000; stroke-width: 0.8"/>
      </g>
     </g>
     <g id="text_4">
      <!-- 5 -->
      <g transform="translate(207.321399 287.910437) scale(0.1 -0.1)">
       <use xlink:href="#DejaVuSans-35"/>
      </g>
     </g>
    </g>
    <g id="xtick_5">
     <g id="line2d_5">
      <g>
       <use xlink:href="#me577d3862d" x="256.505599" y="273.312" style="stroke: #000000; stroke-width: 0.8"/>
      </g>
     </g>
     <g id="text_5">
      <!-- 10 -->
      <g transform="translate(250.143099 287.910437) scale(0.1 -0.1)">
       <use xlink:href="#DejaVuSans-31"/>
       <use xlink:href="#DejaVuSans-30" x="63.623047"/>
      </g>
     </g>
    </g>
    <g id="xtick_6">
     <g id="line2d_6">
      <g>
       <use xlink:href="#me577d3862d" x="302.50855" y="273.312" style="stroke: #000000; stroke-width: 0.8"/>
      </g>
     </g>
     <g id="text_6">
      <!-- 15 -->
      <g transform="translate(296.14605 287.910437) scale(0.1 -0.1)">
       <use xlink:href="#DejaVuSans-31"/>
       <use xlink:href="#DejaVuSans-35" x="63.623047"/>
      </g>
     </g>
    </g>
    <g id="xtick_7">
     <g id="line2d_7">
      <g>
       <use xlink:href="#me577d3862d" x="348.511501" y="273.312" style="stroke: #000000; stroke-width: 0.8"/>
      </g>
     </g>
     <g id="text_7">
      <!-- 20 -->
      <g transform="translate(342.149001 287.910437) scale(0.1 -0.1)">
       <defs>
        <path id="DejaVuSans-32" d="M 1228 531 
L 3431 531 
L 3431 0 
L 469 0 
L 469 531 
Q 828 903 1448 1529 
Q 2069 2156 2228 2338 
Q 2531 2678 2651 2914 
Q 2772 3150 2772 3378 
Q 2772 3750 2511 3984 
Q 2250 4219 1831 4219 
Q 1534 4219 1204 4116 
Q 875 4013 500 3803 
L 500 4441 
Q 881 4594 1212 4672 
Q 1544 4750 1819 4750 
Q 2544 4750 2975 4387 
Q 3406 4025 3406 3419 
Q 3406 3131 3298 2873 
Q 3191 2616 2906 2266 
Q 2828 2175 2409 1742 
Q 1991 1309 1228 531 
z
" transform="scale(0.015625)"/>
       </defs>
       <use xlink:href="#DejaVuSans-32"/>
       <use xlink:href="#DejaVuSans-30" x="63.623047"/>
      </g>
     </g>
    </g>
   </g>
   <g id="matplotlib.axis_2">
    <g id="ytick_1">
     <g id="line2d_8">
      <defs>
       <path id="m001e63222f" d="M 0 0 
L -3.5 0 
" style="stroke: #000000; stroke-width: 0.8"/>
      </defs>
      <g>
       <use xlink:href="#m001e63222f" x="35.304688" y="233.555337" style="stroke: #000000; stroke-width: 0.8"/>
      </g>
     </g>
     <g id="text_8">
      <!-- −10 -->
      <g transform="translate(7.2 237.354556) scale(0.1 -0.1)">
       <use xlink:href="#DejaVuSans-2212"/>
       <use xlink:href="#DejaVuSans-31" x="83.789062"/>
       <use xlink:href="#DejaVuSans-30" x="147.412109"/>
      </g>
     </g>
    </g>
    <g id="ytick_2">
     <g id="line2d_9">
      <g>
       <use xlink:href="#m001e63222f" x="35.304688" y="190.90671" style="stroke: #000000; stroke-width: 0.8"/>
      </g>
     </g>
     <g id="text_9">
      <!-- −5 -->
      <g transform="translate(13.5625 194.705929) scale(0.1 -0.1)">
       <use xlink:href="#DejaVuSans-2212"/>
       <use xlink:href="#DejaVuSans-35" x="83.789062"/>
      </g>
     </g>
    </g>
    <g id="ytick_3">
     <g id="line2d_10">
      <g>
       <use xlink:href="#m001e63222f" x="35.304688" y="148.258084" style="stroke: #000000; stroke-width: 0.8"/>
      </g>
     </g>
     <g id="text_10">
      <!-- 0 -->
      <g transform="translate(21.942187 152.057303) scale(0.1 -0.1)">
       <use xlink:href="#DejaVuSans-30"/>
      </g>
     </g>
    </g>
    <g id="ytick_4">
     <g id="line2d_11">
      <g>
       <use xlink:href="#m001e63222f" x="35.304688" y="105.609457" style="stroke: #000000; stroke-width: 0.8"/>
      </g>
     </g>
     <g id="text_11">
      <!-- 5 -->
      <g transform="translate(21.942187 109.408676) scale(0.1 -0.1)">
       <use xlink:href="#DejaVuSans-35"/>
      </g>
     </g>
    </g>
    <g id="ytick_5">
     <g id="line2d_12">
      <g>
       <use xlink:href="#m001e63222f" x="35.304688" y="62.960831" style="stroke: #000000; stroke-width: 0.8"/>
      </g>
     </g>
     <g id="text_12">
      <!-- 10 -->
      <g transform="translate(15.579687 66.76005) scale(0.1 -0.1)">
       <use xlink:href="#DejaVuSans-31"/>
       <use xlink:href="#DejaVuSans-30" x="63.623047"/>
      </g>
     </g>
    </g>
    <g id="ytick_6">
     <g id="line2d_13">
      <g>
       <use xlink:href="#m001e63222f" x="35.304688" y="20.312204" style="stroke: #000000; stroke-width: 0.8"/>
      </g>
     </g>
     <g id="text_13">
      <!-- 15 -->
      <g transform="translate(15.579687 24.111423) scale(0.1 -0.1)">
       <use xlink:href="#DejaVuSans-31"/>
       <use xlink:href="#DejaVuSans-35" x="63.623047"/>
      </g>
     </g>
    </g>
   </g>
   <g id="patch_3">
    <path d="M 35.304688 273.312 
L 35.304688 7.2 
" style="fill: none; stroke: #000000; stroke-width: 0.8; stroke-linejoin: miter; stroke-linecap: square"/>
   </g>
   <g id="patch_4">
    <path d="M 392.424688 273.312 
L 392.424688 7.2 
" style="fill: none; stroke: #000000; stroke-width: 0.8; stroke-linejoin: miter; stroke-linecap: square"/>
   </g>
   <g id="patch_5">
    <path d="M 35.304688 273.312 
L 392.424688 273.312 
" style="fill: none; stroke: #000000; stroke-width: 0.8; stroke-linejoin: miter; stroke-linecap: square"/>
   </g>
   <g id="patch_6">
    <path d="M 35.304688 7.2 
L 392.424688 7.2 
" style="fill: none; stroke: #000000; stroke-width: 0.8; stroke-linejoin: miter; stroke-linecap: square"/>
   </g>
  </g>
 </g>
 <defs>
  <clipPath id="p1ff8049264">
   <rect x="35.304688" y="7.2" width="357.12" height="266.112"/>
  </clipPath>
 </defs>
</svg>
