<?xml version="1.0" encoding="utf-8" standalone="no"?>
<!DOCTYPE svg PUBLIC "-//W3C//DTD SVG 1.1//EN"
  "http://www.w3.org/Graphics/SVG/1.1/DTD/svg11.dtd">
<svg xmlns:xlink="http://www.w3.org/1999/xlink" width="399.624687pt" height="297.190125pt" viewBox="0 0 399.624687 297.190125" xmlns="http://www.w3.org/2000/svg" version="1.1">
 <metadata>
  <rdf:RDF xmlns:dc="http://purl.org/dc/elements/1.1/" xmlns:cc="http://creativecommons.org/ns#" xmlns:rdf="http://www.w3.org/1999/02/22-rdf-syntax-ns#">
   <cc:Work>
    <dc:type rdf:resource="http://purl.org/dc/dcmitype/StillImage"/>
    <dc:date>2023-11-11T00:06:23.005842</dc:date>
    <dc:format>image/svg+xml</dc:format>
    <dc:creator>
     <cc:Agent>
      <dc:title>Matplotlib v3.8.0, https://matplotlib.org/</dc:title>
     </cc:Agent>
    </dc:creator>
   </cc:Work>
  </rdf:RDF>
 </metadata>
 <defs>
  <style type="text/css">*{stroke-linejoin: round; stroke-linecap: butt}</style>
 </defs>
 <g id="figure_1">
  <g id="patch_1">
   <path d="M 0 297.190125 
L 399.624687 297.190125 
L 399.624687 0 
L 0 0 
z
" style="fill: #ffffff"/>
  </g>
  <g id="axes_1">
   <g id="patch_2">
    <path d="M 35.304688 273.312 
L 392.424688 273.312 
L 392.424688 7.2 
L 35.304688 7.2 
z
" style="fill: #ffffff"/>
   </g>
   <g id="PathCollection_1">
    <defs>
     <path id="m7c7f896e7f" d="M 0 1.5 
C 0.397805 1.5 0.77937 1.341951 1.06066 1.06066 
C 1.341951 0.77937 1.5 0.397805 1.5 0 
C 1.5 -0.397805 1.341951 -0.77937 1.06066 -1.06066 
C 0.77937 -1.341951 0.397805 -1.5 0 -1.5 
C -0.397805 -1.5 -0.77937 -1.341951 -1.06066 -1.06066 
C -1.341951 -0.77937 -1.5 -0.397805 -1.5 0 
C -1.5 0.397805 -1.341951 0.77937 -1.06066 1.06066 
C -0.77937 1.341951 -0.397805 1.5 0 1.5 
z
" style="stroke: #ff8c00"/>
    </defs>
    <g clip-path="url(#pe3c05ab7dd)">
     <use xlink:href="#m7c7f896e7f" x="216.697936" y="102.706823" style="fill: #ff8c00; stroke: #ff8c00"/>
     <use xlink:href="#m7c7f896e7f" x="168.55913" y="180.397852" style="fill: #ff8c00; stroke: #ff8c00"/>
     <use xlink:href="#m7c7f896e7f" x="242.136486" y="161.617476" style="fill: #ff8c00; stroke: #ff8c00"/>
     <use xlink:href="#m7c7f896e7f" x="237.96911" y="169.267773" style="fill: #ff8c00; stroke: #ff8c00"/>
     <use xlink:href="#m7c7f896e7f" x="229.24946" y="125.824779" style="fill: #ff8c00; stroke: #ff8c00"/>
     <use xlink:href="#m7c7f896e7f" x="148.317938" y="133.139925" style="fill: #ff8c00; stroke: #ff8c00"/>
     <use xlink:href="#m7c7f896e7f" x="233.912182" y="165.716697" style="fill: #ff8c00; stroke: #ff8c00"/>
     <use xlink:href="#m7c7f896e7f" x="206.188483" y="116.136469" style="fill: #ff8c00; stroke: #ff8c00"/>
     <use xlink:href="#m7c7f896e7f" x="216.351803" y="197.776461" style="fill: #ff8c00; stroke: #ff8c00"/>
     <use xlink:href="#m7c7f896e7f" x="266.851528" y="172.878902" style="fill: #ff8c00; stroke: #ff8c00"/>
     <use xlink:href="#m7c7f896e7f" x="185.067658" y="111.126043" style="fill: #ff8c00; stroke: #ff8c00"/>
     <use xlink:href="#m7c7f896e7f" x="193.376214" y="121.787281" style="fill: #ff8c00; stroke: #ff8c00"/>
     <use xlink:href="#m7c7f896e7f" x="95.536642" y="186.721246" style="fill: #ff8c00; stroke: #ff8c00"/>
     <use xlink:href="#m7c7f896e7f" x="228.030275" y="140.630046" style="fill: #ff8c00; stroke: #ff8c00"/>
    </g>
   </g>
   <g id="PathCollection_2">
    <defs>
     <path id="m144ca64c6e" d="M 0 1.5 
C 0.397805 1.5 0.77937 1.341951 1.06066 1.06066 
C 1.341951 0.77937 1.5 0.397805 1.5 0 
C 1.5 -0.397805 1.341951 -0.77937 1.06066 -1.06066 
C 0.77937 -1.341951 0.397805 -1.5 0 -1.5 
C -0.397805 -1.5 -0.77937 -1.341951 -1.06066 -1.06066 
C -1.341951 -0.77937 -1.5 -0.397805 -1.5 0 
C -1.5 0.397805 -1.341951 0.77937 -1.06066 1.06066 
C -0.77937 1.341951 -0.397805 1.5 0 1.5 
z
" style="stroke: #006400"/>
    </defs>
    <g clip-path="url(#pe3c05ab7dd)">
     <use xlink:href="#m144ca64c6e" x="224.654981" y="161.681267" style="fill: #006400; stroke: #006400"/>
     <use xlink:href="#m144ca64c6e" x="286.395025" y="199.143297" style="fill: #006400; stroke: #006400"/>
     <use xlink:href="#m144ca64c6e" x="376.19196" y="148.98282" style="fill: #006400; stroke: #006400"/>
     <use xlink:href="#m144ca64c6e" x="351.627362" y="224.758797" style="fill: #006400; stroke: #006400"/>
     <use xlink:href="#m144ca64c6e" x="348.690728" y="249.281957" style="fill: #006400; stroke: #006400"/>
     <use xlink:href="#m144ca64c6e" x="258.397228" y="206.092304" style="fill: #006400; stroke: #006400"/>
     <use xlink:href="#m144ca64c6e" x="348.472598" y="196.594251" style="fill: #006400; stroke: #006400"/>
     <use xlink:href="#m144ca64c6e" x="212.346395" y="205.159602" style="fill: #006400; stroke: #006400"/>
     <use xlink:href="#m144ca64c6e" x="203.439617" y="185.078437" style="fill: #006400; stroke: #006400"/>
     <use xlink:href="#m144ca64c6e" x="326.996494" y="132.881281" style="fill: #006400; stroke: #006400"/>
     <use xlink:href="#m144ca64c6e" x="303.88292" y="224.247458" style="fill: #006400; stroke: #006400"/>
     <use xlink:href="#m144ca64c6e" x="312.541713" y="100.681933" style="fill: #006400; stroke: #006400"/>
     <use xlink:href="#m144ca64c6e" x="291.691499" y="190.325024" style="fill: #006400; stroke: #006400"/>
    </g>
   </g>
   <g id="PathCollection_3">
    <defs>
     <path id="m6d820aab94" d="M 0 1.5 
C 0.397805 1.5 0.77937 1.341951 1.06066 1.06066 
C 1.341951 0.77937 1.5 0.397805 1.5 0 
C 1.5 -0.397805 1.341951 -0.77937 1.06066 -1.06066 
C 0.77937 -1.341951 0.397805 -1.5 0 -1.5 
C -0.397805 -1.5 -0.77937 -1.341951 -1.06066 -1.06066 
C -1.341951 -0.77937 -1.5 -0.397805 -1.5 0 
C -1.5 0.397805 -1.341951 0.77937 -1.06066 1.06066 
C -0.77937 1.341951 -0.397805 1.5 0 1.5 
z
" style="stroke: #2f4f4f"/>
    </defs>
    <g clip-path="url(#pe3c05ab7dd)">
     <use xlink:href="#m6d820aab94" x="191.401265" y="182.196971" style="fill: #2f4f4f; stroke: #2f4f4f"/>
     <use xlink:href="#m6d820aab94" x="176.791859" y="202.971647" style="fill: #2f4f4f; stroke: #2f4f4f"/>
     <use xlink:href="#m6d820aab94" x="117.235591" y="141.844265" style="fill: #2f4f4f; stroke: #2f4f4f"/>
     <use xlink:href="#m6d820aab94" x="189.105192" y="162.216821" style="fill: #2f4f4f; stroke: #2f4f4f"/>
     <use xlink:href="#m6d820aab94" x="225.452192" y="172.094753" style="fill: #2f4f4f; stroke: #2f4f4f"/>
     <use xlink:href="#m6d820aab94" x="150.118627" y="144.32718" style="fill: #2f4f4f; stroke: #2f4f4f"/>
     <use xlink:href="#m6d820aab94" x="134.404006" y="211.202644" style="fill: #2f4f4f; stroke: #2f4f4f"/>
     <use xlink:href="#m6d820aab94" x="163.448208" y="216.531362" style="fill: #2f4f4f; stroke: #2f4f4f"/>
     <use xlink:href="#m6d820aab94" x="166.627184" y="221.959609" style="fill: #2f4f4f; stroke: #2f4f4f"/>
     <use xlink:href="#m6d820aab94" x="217.90493" y="181.470048" style="fill: #2f4f4f; stroke: #2f4f4f"/>
     <use xlink:href="#m6d820aab94" x="131.13116" y="203.731087" style="fill: #2f4f4f; stroke: #2f4f4f"/>
     <use xlink:href="#m6d820aab94" x="158.892074" y="128.542686" style="fill: #2f4f4f; stroke: #2f4f4f"/>
     <use xlink:href="#m6d820aab94" x="191.194821" y="173.432066" style="fill: #2f4f4f; stroke: #2f4f4f"/>
     <use xlink:href="#m6d820aab94" x="155.192003" y="178.683348" style="fill: #2f4f4f; stroke: #2f4f4f"/>
     <use xlink:href="#m6d820aab94" x="168.532508" y="207.906508" style="fill: #2f4f4f; stroke: #2f4f4f"/>
    </g>
   </g>
   <g id="PathCollection_4">
    <defs>
     <path id="m48d1052888" d="M 0 1.5 
C 0.397805 1.5 0.77937 1.341951 1.06066 1.06066 
C 1.341951 0.77937 1.5 0.397805 1.5 0 
C 1.5 -0.397805 1.341951 -0.77937 1.06066 -1.06066 
C 0.77937 -1.341951 0.397805 -1.5 0 -1.5 
C -0.397805 -1.5 -0.77937 -1.341951 -1.06066 -1.06066 
C -1.341951 -0.77937 -1.5 -0.397805 -1.5 0 
C -1.5 0.397805 -1.341951 0.77937 -1.06066 1.06066 
C -0.77937 1.341951 -0.397805 1.5 0 1.5 
z
" style="stroke: #00bfff"/>
    </defs>
    <g clip-path="url(#pe3c05ab7dd)">
     <use xlink:href="#m48d1052888" x="169.900831" y="171.720126" style="fill: #00bfff; stroke: #00bfff"/>
     <use xlink:href="#m48d1052888" x="103.965024" y="180.850993" style="fill: #00bfff; stroke: #00bfff"/>
     <use xlink:href="#m48d1052888" x="143.299333" y="209.022911" style="fill: #00bfff; stroke: #00bfff"/>
     <use xlink:href="#m48d1052888" x="229.871837" y="98.886974" style="fill: #00bfff; stroke: #00bfff"/>
     <use xlink:href="#m48d1052888" x="199.665508" y="224.335029" style="fill: #00bfff; stroke: #00bfff"/>
     <use xlink:href="#m48d1052888" x="146.220753" y="173.414149" style="fill: #00bfff; stroke: #00bfff"/>
     <use xlink:href="#m48d1052888" x="143.248696" y="207.345363" style="fill: #00bfff; stroke: #00bfff"/>
     <use xlink:href="#m48d1052888" x="147.009098" y="204.189207" style="fill: #00bfff; stroke: #00bfff"/>
     <use xlink:href="#m48d1052888" x="198.642085" y="190.586387" style="fill: #00bfff; stroke: #00bfff"/>
     <use xlink:href="#m48d1052888" x="175.186637" y="187.32522" style="fill: #00bfff; stroke: #00bfff"/>
     <use xlink:href="#m48d1052888" x="134.725008" y="215.789018" style="fill: #00bfff; stroke: #00bfff"/>
     <use xlink:href="#m48d1052888" x="83.728182" y="187.240014" style="fill: #00bfff; stroke: #00bfff"/>
     <use xlink:href="#m48d1052888" x="180.55546" y="205.722537" style="fill: #00bfff; stroke: #00bfff"/>
     <use xlink:href="#m48d1052888" x="186.140181" y="227.272573" style="fill: #00bfff; stroke: #00bfff"/>
     <use xlink:href="#m48d1052888" x="125.288873" y="177.275292" style="fill: #00bfff; stroke: #00bfff"/>
     <use xlink:href="#m48d1052888" x="137.818822" y="213.70961" style="fill: #00bfff; stroke: #00bfff"/>
    </g>
   </g>
   <g id="PathCollection_5">
    <defs>
     <path id="m19d9787a9e" d="M 0 1.5 
C 0.397805 1.5 0.77937 1.341951 1.06066 1.06066 
C 1.341951 0.77937 1.5 0.397805 1.5 0 
C 1.5 -0.397805 1.341951 -0.77937 1.06066 -1.06066 
C 0.77937 -1.341951 0.397805 -1.5 0 -1.5 
C -0.397805 -1.5 -0.77937 -1.341951 -1.06066 -1.06066 
C -1.341951 -0.77937 -1.5 -0.397805 -1.5 0 
C -1.5 0.397805 -1.341951 0.77937 -1.06066 1.06066 
C -0.77937 1.341951 -0.397805 1.5 0 1.5 
z
" style="stroke: #ffff00"/>
    </defs>
    <g clip-path="url(#pe3c05ab7dd)">
     <use xlink:href="#m19d9787a9e" x="122.013515" y="194.584437" style="fill: #ffff00; stroke: #ffff00"/>
     <use xlink:href="#m19d9787a9e" x="145.275747" y="167.837895" style="fill: #ffff00; stroke: #ffff00"/>
     <use xlink:href="#m19d9787a9e" x="147.05835" y="208.959615" style="fill: #ffff00; stroke: #ffff00"/>
     <use xlink:href="#m19d9787a9e" x="146.023734" y="208.25655" style="fill: #ffff00; stroke: #ffff00"/>
     <use xlink:href="#m19d9787a9e" x="171.443998" y="185.995843" style="fill: #ffff00; stroke: #ffff00"/>
     <use xlink:href="#m19d9787a9e" x="192.771392" y="154.649613" style="fill: #ffff00; stroke: #ffff00"/>
     <use xlink:href="#m19d9787a9e" x="128.005316" y="222.750086" style="fill: #ffff00; stroke: #ffff00"/>
     <use xlink:href="#m19d9787a9e" x="141.984414" y="198.212275" style="fill: #ffff00; stroke: #ffff00"/>
    </g>
   </g>
   <g id="PathCollection_6">
    <defs>
     <path id="m7b1d81d5b8" d="M 0 1.5 
C 0.397805 1.5 0.77937 1.341951 1.06066 1.06066 
C 1.341951 0.77937 1.5 0.397805 1.5 0 
C 1.5 -0.397805 1.341951 -0.77937 1.06066 -1.06066 
C 0.77937 -1.341951 0.397805 -1.5 0 -1.5 
C -0.397805 -1.5 -0.77937 -1.341951 -1.06066 -1.06066 
C -1.341951 -0.77937 -1.5 -0.397805 -1.5 0 
C -1.5 0.397805 -1.341951 0.77937 -1.06066 1.06066 
C -0.77937 1.341951 -0.397805 1.5 0 1.5 
z
" style="stroke: #00ffff"/>
    </defs>
    <g clip-path="url(#pe3c05ab7dd)">
     <use xlink:href="#m7b1d81d5b8" x="140.796901" y="195.266483" style="fill: #00ffff; stroke: #00ffff"/>
     <use xlink:href="#m7b1d81d5b8" x="189.896074" y="119.080233" style="fill: #00ffff; stroke: #00ffff"/>
     <use xlink:href="#m7b1d81d5b8" x="204.313417" y="89.109847" style="fill: #00ffff; stroke: #00ffff"/>
     <use xlink:href="#m7b1d81d5b8" x="171.893478" y="175.994191" style="fill: #00ffff; stroke: #00ffff"/>
     <use xlink:href="#m7b1d81d5b8" x="237.724041" y="133.101537" style="fill: #00ffff; stroke: #00ffff"/>
     <use xlink:href="#m7b1d81d5b8" x="168.329769" y="231.749205" style="fill: #00ffff; stroke: #00ffff"/>
     <use xlink:href="#m7b1d81d5b8" x="195.064151" y="210.190822" style="fill: #00ffff; stroke: #00ffff"/>
     <use xlink:href="#m7b1d81d5b8" x="207.573436" y="74.698789" style="fill: #00ffff; stroke: #00ffff"/>
     <use xlink:href="#m7b1d81d5b8" x="239.156418" y="141.265917" style="fill: #00ffff; stroke: #00ffff"/>
     <use xlink:href="#m7b1d81d5b8" x="144.726146" y="231.245" style="fill: #00ffff; stroke: #00ffff"/>
     <use xlink:href="#m7b1d81d5b8" x="129.537717" y="229.314838" style="fill: #00ffff; stroke: #00ffff"/>
     <use xlink:href="#m7b1d81d5b8" x="219.277914" y="196.873403" style="fill: #00ffff; stroke: #00ffff"/>
     <use xlink:href="#m7b1d81d5b8" x="169.747828" y="199.26606" style="fill: #00ffff; stroke: #00ffff"/>
     <use xlink:href="#m7b1d81d5b8" x="191.234773" y="229.855316" style="fill: #00ffff; stroke: #00ffff"/>
     <use xlink:href="#m7b1d81d5b8" x="184.37963" y="261.216" style="fill: #00ffff; stroke: #00ffff"/>
     <use xlink:href="#m7b1d81d5b8" x="196.473042" y="232.346851" style="fill: #00ffff; stroke: #00ffff"/>
    </g>
   </g>
   <g id="PathCollection_7">
    <defs>
     <path id="mdebf42d6c1" d="M 0 1.5 
C 0.397805 1.5 0.77937 1.341951 1.06066 1.06066 
C 1.341951 0.77937 1.5 0.397805 1.5 0 
C 1.5 -0.397805 1.341951 -0.77937 1.06066 -1.06066 
C 0.77937 -1.341951 0.397805 -1.5 0 -1.5 
C -0.397805 -1.5 -0.77937 -1.341951 -1.06066 -1.06066 
C -1.341951 -0.77937 -1.5 -0.397805 -1.5 0 
C -1.5 0.397805 -1.341951 0.77937 -1.06066 1.06066 
C -0.77937 1.341951 -0.397805 1.5 0 1.5 
z
" style="stroke: #0000ff"/>
    </defs>
    <g clip-path="url(#pe3c05ab7dd)">
     <use xlink:href="#mdebf42d6c1" x="168.69875" y="193.773581" style="fill: #0000ff; stroke: #0000ff"/>
     <use xlink:href="#mdebf42d6c1" x="131.480377" y="174.265072" style="fill: #0000ff; stroke: #0000ff"/>
     <use xlink:href="#mdebf42d6c1" x="211.812245" y="106.716347" style="fill: #0000ff; stroke: #0000ff"/>
     <use xlink:href="#mdebf42d6c1" x="87.601834" y="174.338074" style="fill: #0000ff; stroke: #0000ff"/>
     <use xlink:href="#mdebf42d6c1" x="154.818469" y="248.251202" style="fill: #0000ff; stroke: #0000ff"/>
     <use xlink:href="#mdebf42d6c1" x="156.280486" y="190.018461" style="fill: #0000ff; stroke: #0000ff"/>
     <use xlink:href="#mdebf42d6c1" x="131.186334" y="202.209885" style="fill: #0000ff; stroke: #0000ff"/>
     <use xlink:href="#mdebf42d6c1" x="104.947142" y="233.003098" style="fill: #0000ff; stroke: #0000ff"/>
     <use xlink:href="#mdebf42d6c1" x="133.23208" y="111.674179" style="fill: #0000ff; stroke: #0000ff"/>
     <use xlink:href="#mdebf42d6c1" x="150.41893" y="230.546077" style="fill: #0000ff; stroke: #0000ff"/>
     <use xlink:href="#mdebf42d6c1" x="154.41745" y="194.443333" style="fill: #0000ff; stroke: #0000ff"/>
    </g>
   </g>
   <g id="PathCollection_8">
    <defs>
     <path id="mafe82fe697" d="M 0 1.5 
C 0.397805 1.5 0.77937 1.341951 1.06066 1.06066 
C 1.341951 0.77937 1.5 0.397805 1.5 0 
C 1.5 -0.397805 1.341951 -0.77937 1.06066 -1.06066 
C 0.77937 -1.341951 0.397805 -1.5 0 -1.5 
C -0.397805 -1.5 -0.77937 -1.341951 -1.06066 -1.06066 
C -1.341951 -0.77937 -1.5 -0.397805 -1.5 0 
C -1.5 0.397805 -1.341951 0.77937 -1.06066 1.06066 
C -0.77937 1.341951 -0.397805 1.5 0 1.5 
z
" style="stroke: #dc143c"/>
    </defs>
    <g clip-path="url(#pe3c05ab7dd)">
     <use xlink:href="#mafe82fe697" x="294.669657" y="212.999583" style="fill: #dc143c; stroke: #dc143c"/>
     <use xlink:href="#mafe82fe697" x="283.9953" y="169.711722" style="fill: #dc143c; stroke: #dc143c"/>
     <use xlink:href="#mafe82fe697" x="228.371278" y="229.3566" style="fill: #dc143c; stroke: #dc143c"/>
     <use xlink:href="#mafe82fe697" x="260.672355" y="202.060871" style="fill: #dc143c; stroke: #dc143c"/>
     <use xlink:href="#mafe82fe697" x="314.271185" y="200.667668" style="fill: #dc143c; stroke: #dc143c"/>
     <use xlink:href="#mafe82fe697" x="265.670943" y="180.90668" style="fill: #dc143c; stroke: #dc143c"/>
     <use xlink:href="#mafe82fe697" x="218.414436" y="183.126197" style="fill: #dc143c; stroke: #dc143c"/>
     <use xlink:href="#mafe82fe697" x="270.518074" y="176.220845" style="fill: #dc143c; stroke: #dc143c"/>
     <use xlink:href="#mafe82fe697" x="272.680368" y="154.898571" style="fill: #dc143c; stroke: #dc143c"/>
     <use xlink:href="#mafe82fe697" x="247.633838" y="188.722537" style="fill: #dc143c; stroke: #dc143c"/>
     <use xlink:href="#mafe82fe697" x="249.358681" y="166.327811" style="fill: #dc143c; stroke: #dc143c"/>
     <use xlink:href="#mafe82fe697" x="237.767291" y="171.871409" style="fill: #dc143c; stroke: #dc143c"/>
     <use xlink:href="#mafe82fe697" x="219.044725" y="158.90091" style="fill: #dc143c; stroke: #dc143c"/>
     <use xlink:href="#mafe82fe697" x="235.659934" y="182.716558" style="fill: #dc143c; stroke: #dc143c"/>
     <use xlink:href="#mafe82fe697" x="215.857261" y="187.779449" style="fill: #dc143c; stroke: #dc143c"/>
     <use xlink:href="#mafe82fe697" x="286.716471" y="148.716971" style="fill: #dc143c; stroke: #dc143c"/>
     <use xlink:href="#mafe82fe697" x="212.561143" y="169.613465" style="fill: #dc143c; stroke: #dc143c"/>
    </g>
   </g>
   <g id="PathCollection_9">
    <defs>
     <path id="m10093260f3" d="M 0 1.5 
C 0.397805 1.5 0.77937 1.341951 1.06066 1.06066 
C 1.341951 0.77937 1.5 0.397805 1.5 0 
C 1.5 -0.397805 1.341951 -0.77937 1.06066 -1.06066 
C 0.77937 -1.341951 0.397805 -1.5 0 -1.5 
C -0.397805 -1.5 -0.77937 -1.341951 -1.06066 -1.06066 
C -1.341951 -0.77937 -1.5 -0.397805 -1.5 0 
C -1.5 0.397805 -1.341951 0.77937 -1.06066 1.06066 
C -0.77937 1.341951 -0.397805 1.5 0 1.5 
z
" style="stroke: #ffe4c4"/>
    </defs>
    <g clip-path="url(#pe3c05ab7dd)">
     <use xlink:href="#m10093260f3" x="235.125928" y="144.313356" style="fill: #ffe4c4; stroke: #ffe4c4"/>
     <use xlink:href="#m10093260f3" x="306.750743" y="200.535816" style="fill: #ffe4c4; stroke: #ffe4c4"/>
     <use xlink:href="#m10093260f3" x="364.439801" y="187.854878" style="fill: #ffe4c4; stroke: #ffe4c4"/>
     <use xlink:href="#m10093260f3" x="241.408945" y="230.158055" style="fill: #ffe4c4; stroke: #ffe4c4"/>
     <use xlink:href="#m10093260f3" x="264.868915" y="163.150427" style="fill: #ffe4c4; stroke: #ffe4c4"/>
     <use xlink:href="#m10093260f3" x="272.817972" y="203.563495" style="fill: #ffe4c4; stroke: #ffe4c4"/>
     <use xlink:href="#m10093260f3" x="304.858177" y="170.77921" style="fill: #ffe4c4; stroke: #ffe4c4"/>
     <use xlink:href="#m10093260f3" x="259.477171" y="156.865689" style="fill: #ffe4c4; stroke: #ffe4c4"/>
     <use xlink:href="#m10093260f3" x="246.709443" y="189.674503" style="fill: #ffe4c4; stroke: #ffe4c4"/>
     <use xlink:href="#m10093260f3" x="271.862457" y="183.074112" style="fill: #ffe4c4; stroke: #ffe4c4"/>
     <use xlink:href="#m10093260f3" x="218.303267" y="178.23304" style="fill: #ffe4c4; stroke: #ffe4c4"/>
     <use xlink:href="#m10093260f3" x="225.447297" y="168.200091" style="fill: #ffe4c4; stroke: #ffe4c4"/>
     <use xlink:href="#m10093260f3" x="287.52085" y="170.76961" style="fill: #ffe4c4; stroke: #ffe4c4"/>
     <use xlink:href="#m10093260f3" x="287.483014" y="178.834392" style="fill: #ffe4c4; stroke: #ffe4c4"/>
     <use xlink:href="#m10093260f3" x="343.809718" y="200.871961" style="fill: #ffe4c4; stroke: #ffe4c4"/>
     <use xlink:href="#m10093260f3" x="294.533113" y="188.003121" style="fill: #ffe4c4; stroke: #ffe4c4"/>
     <use xlink:href="#m10093260f3" x="319.151773" y="175.576043" style="fill: #ffe4c4; stroke: #ffe4c4"/>
     <use xlink:href="#m10093260f3" x="347.266095" y="177.379008" style="fill: #ffe4c4; stroke: #ffe4c4"/>
    </g>
   </g>
   <g id="PathCollection_10">
    <defs>
     <path id="m0f933d39f1" d="M -2.99994 2.99994 
L 3.00006 2.99994 
L 3.00006 -3.00006 
L -2.99994 -3.00006 
z
" style="stroke: #000000"/>
    </defs>
    <g clip-path="url(#pe3c05ab7dd)">
     <use xlink:href="#m0f933d39f1" x="130.743559" y="208.167382" style="stroke: #000000"/>
     <use xlink:href="#m0f933d39f1" x="170.863098" y="168.81377" style="stroke: #000000"/>
     <use xlink:href="#m0f933d39f1" x="109.160816" y="196.243512" style="stroke: #000000"/>
     <use xlink:href="#m0f933d39f1" x="188.045537" y="159.770992" style="stroke: #000000"/>
     <use xlink:href="#m0f933d39f1" x="130.456558" y="193.169032" style="stroke: #000000"/>
     <use xlink:href="#m0f933d39f1" x="184.922261" y="147.498503" style="stroke: #000000"/>
     <use xlink:href="#m0f933d39f1" x="137.499121" y="222.931445" style="stroke: #000000"/>
     <use xlink:href="#m0f933d39f1" x="168.926955" y="203.579436" style="stroke: #000000"/>
     <use xlink:href="#m0f933d39f1" x="127.180241" y="168.468322" style="stroke: #000000"/>
     <use xlink:href="#m0f933d39f1" x="79.015929" y="138.520106" style="stroke: #000000"/>
     <use xlink:href="#m0f933d39f1" x="118.890477" y="183.946053" style="stroke: #000000"/>
     <use xlink:href="#m0f933d39f1" x="119.476818" y="181.294309" style="stroke: #000000"/>
     <use xlink:href="#m0f933d39f1" x="112.56797" y="186.052604" style="stroke: #000000"/>
     <use xlink:href="#m0f933d39f1" x="144.160119" y="143.625731" style="stroke: #000000"/>
     <use xlink:href="#m0f933d39f1" x="145.025523" y="186.337147" style="stroke: #000000"/>
     <use xlink:href="#m0f933d39f1" x="183.927359" y="86.17209" style="stroke: #000000"/>
     <use xlink:href="#m0f933d39f1" x="170.947132" y="144.900094" style="stroke: #000000"/>
     <use xlink:href="#m0f933d39f1" x="152.06364" y="148.951714" style="stroke: #000000"/>
     <use xlink:href="#m0f933d39f1" x="130.843905" y="109.502353" style="stroke: #000000"/>
     <use xlink:href="#m0f933d39f1" x="55.015864" y="221.640527" style="stroke: #000000"/>
     <use xlink:href="#m0f933d39f1" x="95.33018" y="176.998636" style="stroke: #000000"/>
     <use xlink:href="#m0f933d39f1" x="133.431506" y="187.022024" style="stroke: #000000"/>
     <use xlink:href="#m0f933d39f1" x="123.66737" y="213.500677" style="stroke: #000000"/>
     <use xlink:href="#m0f933d39f1" x="192.535445" y="102.267562" style="stroke: #000000"/>
     <use xlink:href="#m0f933d39f1" x="114.850899" y="158.376215" style="stroke: #000000"/>
     <use xlink:href="#m0f933d39f1" x="82.50282" y="181.28492" style="stroke: #000000"/>
     <use xlink:href="#m0f933d39f1" x="148.886106" y="168.45187" style="stroke: #000000"/>
     <use xlink:href="#m0f933d39f1" x="229.243405" y="94.401121" style="stroke: #000000"/>
     <use xlink:href="#m0f933d39f1" x="168.362526" y="163.857439" style="stroke: #000000"/>
     <use xlink:href="#m0f933d39f1" x="135.298424" y="162.414953" style="stroke: #000000"/>
     <use xlink:href="#m0f933d39f1" x="208.857858" y="99.476513" style="stroke: #000000"/>
     <use xlink:href="#m0f933d39f1" x="146.654313" y="56.404343" style="stroke: #000000"/>
     <use xlink:href="#m0f933d39f1" x="175.253566" y="218.560227" style="stroke: #000000"/>
     <use xlink:href="#m0f933d39f1" x="119.832051" y="170.539368" style="stroke: #000000"/>
     <use xlink:href="#m0f933d39f1" x="206.295092" y="225.820796" style="stroke: #000000"/>
     <use xlink:href="#m0f933d39f1" x="163.717095" y="120.707415" style="stroke: #000000"/>
     <use xlink:href="#m0f933d39f1" x="71.720728" y="225.055174" style="stroke: #000000"/>
     <use xlink:href="#m0f933d39f1" x="136.992858" y="188.176828" style="stroke: #000000"/>
     <use xlink:href="#m0f933d39f1" x="185.552818" y="171.871309" style="stroke: #000000"/>
     <use xlink:href="#m0f933d39f1" x="128.811032" y="119.014175" style="stroke: #000000"/>
     <use xlink:href="#m0f933d39f1" x="117.963349" y="178.330515" style="stroke: #000000"/>
     <use xlink:href="#m0f933d39f1" x="133.03813" y="134.247864" style="stroke: #000000"/>
     <use xlink:href="#m0f933d39f1" x="168.637949" y="212.152801" style="stroke: #000000"/>
     <use xlink:href="#m0f933d39f1" x="129.331427" y="162.77715" style="stroke: #000000"/>
     <use xlink:href="#m0f933d39f1" x="168.974222" y="129.816678" style="stroke: #000000"/>
     <use xlink:href="#m0f933d39f1" x="183.804756" y="162.733932" style="stroke: #000000"/>
     <use xlink:href="#m0f933d39f1" x="168.013039" y="200.926626" style="stroke: #000000"/>
     <use xlink:href="#m0f933d39f1" x="131.291962" y="184.694765" style="stroke: #000000"/>
     <use xlink:href="#m0f933d39f1" x="112.336071" y="152.509613" style="stroke: #000000"/>
     <use xlink:href="#m0f933d39f1" x="107.422289" y="192.615026" style="stroke: #000000"/>
     <use xlink:href="#m0f933d39f1" x="198.699665" y="124.324511" style="stroke: #000000"/>
     <use xlink:href="#m0f933d39f1" x="169.112823" y="154.379255" style="stroke: #000000"/>
     <use xlink:href="#m0f933d39f1" x="179.296015" y="64.139678" style="stroke: #000000"/>
     <use xlink:href="#m0f933d39f1" x="117.029808" y="209.236862" style="stroke: #000000"/>
     <use xlink:href="#m0f933d39f1" x="102.505024" y="179.029821" style="stroke: #000000"/>
     <use xlink:href="#m0f933d39f1" x="82.67643" y="147.76126" style="stroke: #000000"/>
     <use xlink:href="#m0f933d39f1" x="132.450646" y="207.178699" style="stroke: #000000"/>
     <use xlink:href="#m0f933d39f1" x="124.905678" y="192.537505" style="stroke: #000000"/>
     <use xlink:href="#m0f933d39f1" x="128.909723" y="190.522147" style="stroke: #000000"/>
     <use xlink:href="#m0f933d39f1" x="126.195216" y="216.154595" style="stroke: #000000"/>
     <use xlink:href="#m0f933d39f1" x="158.91373" y="222.518003" style="stroke: #000000"/>
     <use xlink:href="#m0f933d39f1" x="155.08057" y="197.16726" style="stroke: #000000"/>
     <use xlink:href="#m0f933d39f1" x="131.706481" y="172.674607" style="stroke: #000000"/>
     <use xlink:href="#m0f933d39f1" x="88.426291" y="19.296" style="stroke: #000000"/>
    </g>
   </g>
   <g id="PathCollection_11">
    <defs>
     <path id="mbe2acb066c" d="M -3 -0 
L 3 3 
L 3 -3 
z
" style="stroke: #ff8c00"/>
    </defs>
    <g clip-path="url(#pe3c05ab7dd)">
     <use xlink:href="#mbe2acb066c" x="153.132839" y="170.149659" style="fill: #ff8c00; stroke: #ff8c00"/>
     <use xlink:href="#mbe2acb066c" x="51.537415" y="159.989391" style="fill: #ff8c00; stroke: #ff8c00"/>
     <use xlink:href="#mbe2acb066c" x="110.751789" y="158.78471" style="fill: #ff8c00; stroke: #ff8c00"/>
     <use xlink:href="#mbe2acb066c" x="123.067091" y="202.894091" style="fill: #ff8c00; stroke: #ff8c00"/>
     <use xlink:href="#mbe2acb066c" x="125.775033" y="151.454792" style="fill: #ff8c00; stroke: #ff8c00"/>
     <use xlink:href="#mbe2acb066c" x="157.223009" y="170.872398" style="fill: #ff8c00; stroke: #ff8c00"/>
     <use xlink:href="#mbe2acb066c" x="120.241129" y="162.32403" style="fill: #ff8c00; stroke: #ff8c00"/>
     <use xlink:href="#mbe2acb066c" x="154.837188" y="185.400657" style="fill: #ff8c00; stroke: #ff8c00"/>
     <use xlink:href="#mbe2acb066c" x="162.294291" y="216.0308" style="fill: #ff8c00; stroke: #ff8c00"/>
     <use xlink:href="#mbe2acb066c" x="164.112965" y="174.906305" style="fill: #ff8c00; stroke: #ff8c00"/>
     <use xlink:href="#mbe2acb066c" x="127.854708" y="200.891312" style="fill: #ff8c00; stroke: #ff8c00"/>
     <use xlink:href="#mbe2acb066c" x="163.947361" y="138.252611" style="fill: #ff8c00; stroke: #ff8c00"/>
     <use xlink:href="#mbe2acb066c" x="137.729999" y="187.092598" style="fill: #ff8c00; stroke: #ff8c00"/>
     <use xlink:href="#mbe2acb066c" x="201.89495" y="176.664101" style="fill: #ff8c00; stroke: #ff8c00"/>
     <use xlink:href="#mbe2acb066c" x="194.5936" y="151.047764" style="fill: #ff8c00; stroke: #ff8c00"/>
     <use xlink:href="#mbe2acb066c" x="138.079787" y="209.299273" style="fill: #ff8c00; stroke: #ff8c00"/>
     <use xlink:href="#mbe2acb066c" x="171.84921" y="176.596887" style="fill: #ff8c00; stroke: #ff8c00"/>
     <use xlink:href="#mbe2acb066c" x="178.88302" y="126.633132" style="fill: #ff8c00; stroke: #ff8c00"/>
     <use xlink:href="#mbe2acb066c" x="98.225442" y="126.977491" style="fill: #ff8c00; stroke: #ff8c00"/>
     <use xlink:href="#mbe2acb066c" x="105.110143" y="131.225155" style="fill: #ff8c00; stroke: #ff8c00"/>
     <use xlink:href="#mbe2acb066c" x="140.134241" y="215.596064" style="fill: #ff8c00; stroke: #ff8c00"/>
     <use xlink:href="#mbe2acb066c" x="152.189872" y="175.452013" style="fill: #ff8c00; stroke: #ff8c00"/>
     <use xlink:href="#mbe2acb066c" x="130.652888" y="158.941634" style="fill: #ff8c00; stroke: #ff8c00"/>
     <use xlink:href="#mbe2acb066c" x="160.268845" y="170.933163" style="fill: #ff8c00; stroke: #ff8c00"/>
     <use xlink:href="#mbe2acb066c" x="162.561713" y="191.174966" style="fill: #ff8c00; stroke: #ff8c00"/>
     <use xlink:href="#mbe2acb066c" x="157.627713" y="148.74581" style="fill: #ff8c00; stroke: #ff8c00"/>
     <use xlink:href="#mbe2acb066c" x="59.265254" y="135.538727" style="fill: #ff8c00; stroke: #ff8c00"/>
     <use xlink:href="#mbe2acb066c" x="173.912472" y="58.771556" style="fill: #ff8c00; stroke: #ff8c00"/>
     <use xlink:href="#mbe2acb066c" x="148.313805" y="184.416133" style="fill: #ff8c00; stroke: #ff8c00"/>
     <use xlink:href="#mbe2acb066c" x="119.218172" y="172.347509" style="fill: #ff8c00; stroke: #ff8c00"/>
     <use xlink:href="#mbe2acb066c" x="106.507508" y="168.837119" style="fill: #ff8c00; stroke: #ff8c00"/>
     <use xlink:href="#mbe2acb066c" x="201.868431" y="155.208457" style="fill: #ff8c00; stroke: #ff8c00"/>
     <use xlink:href="#mbe2acb066c" x="132.354253" y="179.982916" style="fill: #ff8c00; stroke: #ff8c00"/>
     <use xlink:href="#mbe2acb066c" x="104.180645" y="97.040669" style="fill: #ff8c00; stroke: #ff8c00"/>
     <use xlink:href="#mbe2acb066c" x="152.019158" y="192.679844" style="fill: #ff8c00; stroke: #ff8c00"/>
     <use xlink:href="#mbe2acb066c" x="147.032942" y="151.54945" style="fill: #ff8c00; stroke: #ff8c00"/>
     <use xlink:href="#mbe2acb066c" x="156.772776" y="244.303471" style="fill: #ff8c00; stroke: #ff8c00"/>
     <use xlink:href="#mbe2acb066c" x="139.002101" y="183.612627" style="fill: #ff8c00; stroke: #ff8c00"/>
     <use xlink:href="#mbe2acb066c" x="184.423571" y="126.936634" style="fill: #ff8c00; stroke: #ff8c00"/>
     <use xlink:href="#mbe2acb066c" x="128.741608" y="200.61497" style="fill: #ff8c00; stroke: #ff8c00"/>
     <use xlink:href="#mbe2acb066c" x="141.653196" y="231.037368" style="fill: #ff8c00; stroke: #ff8c00"/>
     <use xlink:href="#mbe2acb066c" x="147.332773" y="154.959549" style="fill: #ff8c00; stroke: #ff8c00"/>
     <use xlink:href="#mbe2acb066c" x="79.586112" y="147.007174" style="fill: #ff8c00; stroke: #ff8c00"/>
     <use xlink:href="#mbe2acb066c" x="139.638286" y="158.991493" style="fill: #ff8c00; stroke: #ff8c00"/>
     <use xlink:href="#mbe2acb066c" x="124.939728" y="191.660657" style="fill: #ff8c00; stroke: #ff8c00"/>
     <use xlink:href="#mbe2acb066c" x="108.329373" y="173.238583" style="fill: #ff8c00; stroke: #ff8c00"/>
     <use xlink:href="#mbe2acb066c" x="140.059921" y="142.264" style="fill: #ff8c00; stroke: #ff8c00"/>
     <use xlink:href="#mbe2acb066c" x="127.342515" y="193.509381" style="fill: #ff8c00; stroke: #ff8c00"/>
     <use xlink:href="#mbe2acb066c" x="166.205649" y="199.099921" style="fill: #ff8c00; stroke: #ff8c00"/>
     <use xlink:href="#mbe2acb066c" x="138.840979" y="169.66225" style="fill: #ff8c00; stroke: #ff8c00"/>
     <use xlink:href="#mbe2acb066c" x="101.696377" y="225.506935" style="fill: #ff8c00; stroke: #ff8c00"/>
     <use xlink:href="#mbe2acb066c" x="193.878875" y="177.306702" style="fill: #ff8c00; stroke: #ff8c00"/>
     <use xlink:href="#mbe2acb066c" x="118.611002" y="149.785254" style="fill: #ff8c00; stroke: #ff8c00"/>
     <use xlink:href="#mbe2acb066c" x="86.823011" y="166.506954" style="fill: #ff8c00; stroke: #ff8c00"/>
     <use xlink:href="#mbe2acb066c" x="166.020703" y="159.428004" style="fill: #ff8c00; stroke: #ff8c00"/>
     <use xlink:href="#mbe2acb066c" x="182.261377" y="157.243041" style="fill: #ff8c00; stroke: #ff8c00"/>
     <use xlink:href="#mbe2acb066c" x="146.797079" y="130.614413" style="fill: #ff8c00; stroke: #ff8c00"/>
     <use xlink:href="#mbe2acb066c" x="162.996287" y="117.104712" style="fill: #ff8c00; stroke: #ff8c00"/>
     <use xlink:href="#mbe2acb066c" x="118.103731" y="214.716196" style="fill: #ff8c00; stroke: #ff8c00"/>
     <use xlink:href="#mbe2acb066c" x="94.199179" y="192.82408" style="fill: #ff8c00; stroke: #ff8c00"/>
     <use xlink:href="#mbe2acb066c" x="127.698643" y="162.35493" style="fill: #ff8c00; stroke: #ff8c00"/>
     <use xlink:href="#mbe2acb066c" x="88.95591" y="171.953856" style="fill: #ff8c00; stroke: #ff8c00"/>
     <use xlink:href="#mbe2acb066c" x="128.017067" y="214.243008" style="fill: #ff8c00; stroke: #ff8c00"/>
     <use xlink:href="#mbe2acb066c" x="132.501599" y="133.737112" style="fill: #ff8c00; stroke: #ff8c00"/>
    </g>
   </g>
   <g id="matplotlib.axis_1">
    <g id="xtick_1">
     <g id="line2d_1">
      <defs>
       <path id="m067dd5ccf9" d="M 0 0 
L 0 3.5 
" style="stroke: #000000; stroke-width: 0.8"/>
      </defs>
      <g>
       <use xlink:href="#m067dd5ccf9" x="37.048156" y="273.312" style="stroke: #000000; stroke-width: 0.8"/>
      </g>
     </g>
     <g id="text_1">
      <!-- −20 -->
      <g transform="translate(26.495812 287.910437) scale(0.1 -0.1)">
       <defs>
        <path id="DejaVuSans-2212" d="M 678 2272 
L 4684 2272 
L 4684 1741 
L 678 1741 
L 678 2272 
z
" transform="scale(0.015625)"/>
        <path id="DejaVuSans-32" d="M 1228 531 
L 3431 531 
L 3431 0 
L 469 0 
L 469 531 
Q 828 903 1448 1529 
Q 2069 2156 2228 2338 
Q 2531 2678 2651 2914 
Q 2772 3150 2772 3378 
Q 2772 3750 2511 3984 
Q 2250 4219 1831 4219 
Q 1534 4219 1204 4116 
Q 875 4013 500 3803 
L 500 4441 
Q 881 4594 1212 4672 
Q 1544 4750 1819 4750 
Q 2544 4750 2975 4387 
Q 3406 4025 3406 3419 
Q 3406 3131 3298 2873 
Q 3191 2616 2906 2266 
Q 2828 2175 2409 1742 
Q 1991 1309 1228 531 
z
" transform="scale(0.015625)"/>
        <path id="DejaVuSans-30" d="M 2034 4250 
Q 1547 4250 1301 3770 
Q 1056 3291 1056 2328 
Q 1056 1369 1301 889 
Q 1547 409 2034 409 
Q 2525 409 2770 889 
Q 3016 1369 3016 2328 
Q 3016 3291 2770 3770 
Q 2525 4250 2034 4250 
z
M 2034 4750 
Q 2819 4750 3233 4129 
Q 3647 3509 3647 2328 
Q 3647 1150 3233 529 
Q 2819 -91 2034 -91 
Q 1250 -91 836 529 
Q 422 1150 422 2328 
Q 422 3509 836 4129 
Q 1250 4750 2034 4750 
z
" transform="scale(0.015625)"/>
       </defs>
       <use xlink:href="#DejaVuSans-2212"/>
       <use xlink:href="#DejaVuSans-32" x="83.789062"/>
       <use xlink:href="#DejaVuSans-30" x="147.412109"/>
      </g>
     </g>
    </g>
    <g id="xtick_2">
     <g id="line2d_2">
      <g>
       <use xlink:href="#m067dd5ccf9" x="106.095349" y="273.312" style="stroke: #000000; stroke-width: 0.8"/>
      </g>
     </g>
     <g id="text_2">
      <!-- −10 -->
      <g transform="translate(95.543005 287.910437) scale(0.1 -0.1)">
       <defs>
        <path id="DejaVuSans-31" d="M 794 531 
L 1825 531 
L 1825 4091 
L 703 3866 
L 703 4441 
L 1819 4666 
L 2450 4666 
L 2450 531 
L 3481 531 
L 3481 0 
L 794 0 
L 794 531 
z
" transform="scale(0.015625)"/>
       </defs>
       <use xlink:href="#DejaVuSans-2212"/>
       <use xlink:href="#DejaVuSans-31" x="83.789062"/>
       <use xlink:href="#DejaVuSans-30" x="147.412109"/>
      </g>
     </g>
    </g>
    <g id="xtick_3">
     <g id="line2d_3">
      <g>
       <use xlink:href="#m067dd5ccf9" x="175.142542" y="273.312" style="stroke: #000000; stroke-width: 0.8"/>
      </g>
     </g>
     <g id="text_3">
      <!-- 0 -->
      <g transform="translate(171.961292 287.910437) scale(0.1 -0.1)">
       <use xlink:href="#DejaVuSans-30"/>
      </g>
     </g>
    </g>
    <g id="xtick_4">
     <g id="line2d_4">
      <g>
       <use xlink:href="#m067dd5ccf9" x="244.189735" y="273.312" style="stroke: #000000; stroke-width: 0.8"/>
      </g>
     </g>
     <g id="text_4">
      <!-- 10 -->
      <g transform="translate(237.827235 287.910437) scale(0.1 -0.1)">
       <use xlink:href="#DejaVuSans-31"/>
       <use xlink:href="#DejaVuSans-30" x="63.623047"/>
      </g>
     </g>
    </g>
    <g id="xtick_5">
     <g id="line2d_5">
      <g>
       <use xlink:href="#m067dd5ccf9" x="313.236929" y="273.312" style="stroke: #000000; stroke-width: 0.8"/>
      </g>
     </g>
     <g id="text_5">
      <!-- 20 -->
      <g transform="translate(306.874429 287.910437) scale(0.1 -0.1)">
       <use xlink:href="#DejaVuSans-32"/>
       <use xlink:href="#DejaVuSans-30" x="63.623047"/>
      </g>
     </g>
    </g>
    <g id="xtick_6">
     <g id="line2d_6">
      <g>
       <use xlink:href="#m067dd5ccf9" x="382.284122" y="273.312" style="stroke: #000000; stroke-width: 0.8"/>
      </g>
     </g>
     <g id="text_6">
      <!-- 30 -->
      <g transform="translate(375.921622 287.910437) scale(0.1 -0.1)">
       <defs>
        <path id="DejaVuSans-33" d="M 2597 2516 
Q 3050 2419 3304 2112 
Q 3559 1806 3559 1356 
Q 3559 666 3084 287 
Q 2609 -91 1734 -91 
Q 1441 -91 1130 -33 
Q 819 25 488 141 
L 488 750 
Q 750 597 1062 519 
Q 1375 441 1716 441 
Q 2309 441 2620 675 
Q 2931 909 2931 1356 
Q 2931 1769 2642 2001 
Q 2353 2234 1838 2234 
L 1294 2234 
L 1294 2753 
L 1863 2753 
Q 2328 2753 2575 2939 
Q 2822 3125 2822 3475 
Q 2822 3834 2567 4026 
Q 2313 4219 1838 4219 
Q 1578 4219 1281 4162 
Q 984 4106 628 3988 
L 628 4550 
Q 988 4650 1302 4700 
Q 1616 4750 1894 4750 
Q 2613 4750 3031 4423 
Q 3450 4097 3450 3541 
Q 3450 3153 3228 2886 
Q 3006 2619 2597 2516 
z
" transform="scale(0.015625)"/>
       </defs>
       <use xlink:href="#DejaVuSans-33"/>
       <use xlink:href="#DejaVuSans-30" x="63.623047"/>
      </g>
     </g>
    </g>
   </g>
   <g id="matplotlib.axis_2">
    <g id="ytick_1">
     <g id="line2d_7">
      <defs>
       <path id="m4a54a89c0e" d="M 0 0 
L -3.5 0 
" style="stroke: #000000; stroke-width: 0.8"/>
      </defs>
      <g>
       <use xlink:href="#m4a54a89c0e" x="35.304688" y="269.794079" style="stroke: #000000; stroke-width: 0.8"/>
      </g>
     </g>
     <g id="text_7">
      <!-- −20 -->
      <g transform="translate(7.2 273.593297) scale(0.1 -0.1)">
       <use xlink:href="#DejaVuSans-2212"/>
       <use xlink:href="#DejaVuSans-32" x="83.789062"/>
       <use xlink:href="#DejaVuSans-30" x="147.412109"/>
      </g>
     </g>
    </g>
    <g id="ytick_2">
     <g id="line2d_8">
      <g>
       <use xlink:href="#m4a54a89c0e" x="35.304688" y="222.112601" style="stroke: #000000; stroke-width: 0.8"/>
      </g>
     </g>
     <g id="text_8">
      <!-- −10 -->
      <g transform="translate(7.2 225.91182) scale(0.1 -0.1)">
       <use xlink:href="#DejaVuSans-2212"/>
       <use xlink:href="#DejaVuSans-31" x="83.789062"/>
       <use xlink:href="#DejaVuSans-30" x="147.412109"/>
      </g>
     </g>
    </g>
    <g id="ytick_3">
     <g id="line2d_9">
      <g>
       <use xlink:href="#m4a54a89c0e" x="35.304688" y="174.431124" style="stroke: #000000; stroke-width: 0.8"/>
      </g>
     </g>
     <g id="text_9">
      <!-- 0 -->
      <g transform="translate(21.942187 178.230343) scale(0.1 -0.1)">
       <use xlink:href="#DejaVuSans-30"/>
      </g>
     </g>
    </g>
    <g id="ytick_4">
     <g id="line2d_10">
      <g>
       <use xlink:href="#m4a54a89c0e" x="35.304688" y="126.749646" style="stroke: #000000; stroke-width: 0.8"/>
      </g>
     </g>
     <g id="text_10">
      <!-- 10 -->
      <g transform="translate(15.579687 130.548865) scale(0.1 -0.1)">
       <use xlink:href="#DejaVuSans-31"/>
       <use xlink:href="#DejaVuSans-30" x="63.623047"/>
      </g>
     </g>
    </g>
    <g id="ytick_5">
     <g id="line2d_11">
      <g>
       <use xlink:href="#m4a54a89c0e" x="35.304688" y="79.068169" style="stroke: #000000; stroke-width: 0.8"/>
      </g>
     </g>
     <g id="text_11">
      <!-- 20 -->
      <g transform="translate(15.579687 82.867388) scale(0.1 -0.1)">
       <use xlink:href="#DejaVuSans-32"/>
       <use xlink:href="#DejaVuSans-30" x="63.623047"/>
      </g>
     </g>
    </g>
    <g id="ytick_6">
     <g id="line2d_12">
      <g>
       <use xlink:href="#m4a54a89c0e" x="35.304688" y="31.386692" style="stroke: #000000; stroke-width: 0.8"/>
      </g>
     </g>
     <g id="text_12">
      <!-- 30 -->
      <g transform="translate(15.579687 35.18591) scale(0.1 -0.1)">
       <use xlink:href="#DejaVuSans-33"/>
       <use xlink:href="#DejaVuSans-30" x="63.623047"/>
      </g>
     </g>
    </g>
   </g>
   <g id="patch_3">
    <path d="M 35.304688 273.312 
L 35.304688 7.2 
" style="fill: none; stroke: #000000; stroke-width: 0.8; stroke-linejoin: miter; stroke-linecap: square"/>
   </g>
   <g id="patch_4">
    <path d="M 392.424688 273.312 
L 392.424688 7.2 
" style="fill: none; stroke: #000000; stroke-width: 0.8; stroke-linejoin: miter; stroke-linecap: square"/>
   </g>
   <g id="patch_5">
    <path d="M 35.304688 273.312 
L 392.424688 273.312 
" style="fill: none; stroke: #000000; stroke-width: 0.8; stroke-linejoin: miter; stroke-linecap: square"/>
   </g>
   <g id="patch_6">
    <path d="M 35.304688 7.2 
L 392.424688 7.2 
" style="fill: none; stroke: #000000; stroke-width: 0.8; stroke-linejoin: miter; stroke-linecap: square"/>
   </g>
  </g>
 </g>
 <defs>
  <clipPath id="pe3c05ab7dd">
   <rect x="35.304688" y="7.2" width="357.12" height="266.112"/>
  </clipPath>
 </defs>
</svg>
