<?xml version="1.0" encoding="utf-8" standalone="no"?>
<!DOCTYPE svg PUBLIC "-//W3C//DTD SVG 1.1//EN"
  "http://www.w3.org/Graphics/SVG/1.1/DTD/svg11.dtd">
<svg xmlns:xlink="http://www.w3.org/1999/xlink" width="399.624687pt" height="300.53178pt" viewBox="0 0 399.624687 300.53178" xmlns="http://www.w3.org/2000/svg" version="1.1">
 <metadata>
  <rdf:RDF xmlns:dc="http://purl.org/dc/elements/1.1/" xmlns:cc="http://creativecommons.org/ns#" xmlns:rdf="http://www.w3.org/1999/02/22-rdf-syntax-ns#">
   <cc:Work>
    <dc:type rdf:resource="http://purl.org/dc/dcmitype/StillImage"/>
    <dc:date>2023-11-11T09:59:49.078402</dc:date>
    <dc:format>image/svg+xml</dc:format>
    <dc:creator>
     <cc:Agent>
      <dc:title>Matplotlib v3.8.0, https://matplotlib.org/</dc:title>
     </cc:Agent>
    </dc:creator>
   </cc:Work>
  </rdf:RDF>
 </metadata>
 <defs>
  <style type="text/css">*{stroke-linejoin: round; stroke-linecap: butt}</style>
 </defs>
 <g id="figure_1">
  <g id="patch_1">
   <path d="M 0 300.53178 
L 399.624687 300.53178 
L 399.624687 0 
L 0 0 
z
" style="fill: #ffffff"/>
  </g>
  <g id="axes_1">
   <g id="patch_2">
    <path d="M 35.304688 276.653655 
L 392.424688 276.653655 
L 392.424688 10.541655 
L 35.304688 10.541655 
z
" style="fill: #ffffff"/>
   </g>
   <g id="PathCollection_1">
    <defs>
     <path id="m57a48a1248" d="M 0 1.5 
C 0.397805 1.5 0.77937 1.341951 1.06066 1.06066 
C 1.341951 0.77937 1.5 0.397805 1.5 0 
C 1.5 -0.397805 1.341951 -0.77937 1.06066 -1.06066 
C 0.77937 -1.341951 0.397805 -1.5 0 -1.5 
C -0.397805 -1.5 -0.77937 -1.341951 -1.06066 -1.06066 
C -1.341951 -0.77937 -1.5 -0.397805 -1.5 0 
C -1.5 0.397805 -1.341951 0.77937 -1.06066 1.06066 
C -0.77937 1.341951 -0.397805 1.5 0 1.5 
z
" style="stroke: #ff8c00"/>
    </defs>
    <g clip-path="url(#p56cebd53c7)">
     <use xlink:href="#m57a48a1248" x="99.131265" y="205.577177" style="fill: #ff8c00; stroke: #ff8c00"/>
     <use xlink:href="#m57a48a1248" x="109.972813" y="239.439688" style="fill: #ff8c00; stroke: #ff8c00"/>
     <use xlink:href="#m57a48a1248" x="112.998223" y="208.19971" style="fill: #ff8c00; stroke: #ff8c00"/>
     <use xlink:href="#m57a48a1248" x="162.253534" y="209.928099" style="fill: #ff8c00; stroke: #ff8c00"/>
     <use xlink:href="#m57a48a1248" x="153.000441" y="225.373719" style="fill: #ff8c00; stroke: #ff8c00"/>
     <use xlink:href="#m57a48a1248" x="158.704637" y="220.01541" style="fill: #ff8c00; stroke: #ff8c00"/>
     <use xlink:href="#m57a48a1248" x="193.842382" y="191.878469" style="fill: #ff8c00; stroke: #ff8c00"/>
     <use xlink:href="#m57a48a1248" x="134.668855" y="199.912253" style="fill: #ff8c00; stroke: #ff8c00"/>
     <use xlink:href="#m57a48a1248" x="118.998599" y="219.715817" style="fill: #ff8c00; stroke: #ff8c00"/>
    </g>
   </g>
   <g id="PathCollection_2">
    <defs>
     <path id="mcfaec75cbf" d="M 0 1.5 
C 0.397805 1.5 0.77937 1.341951 1.06066 1.06066 
C 1.341951 0.77937 1.5 0.397805 1.5 0 
C 1.5 -0.397805 1.341951 -0.77937 1.06066 -1.06066 
C 0.77937 -1.341951 0.397805 -1.5 0 -1.5 
C -0.397805 -1.5 -0.77937 -1.341951 -1.06066 -1.06066 
C -1.341951 -0.77937 -1.5 -0.397805 -1.5 0 
C -1.5 0.397805 -1.341951 0.77937 -1.06066 1.06066 
C -0.77937 1.341951 -0.397805 1.5 0 1.5 
z
" style="stroke: #006400"/>
    </defs>
    <g clip-path="url(#p56cebd53c7)">
     <use xlink:href="#mcfaec75cbf" x="97.721673" y="88.522226" style="fill: #006400; stroke: #006400"/>
     <use xlink:href="#mcfaec75cbf" x="132.313551" y="107.025884" style="fill: #006400; stroke: #006400"/>
     <use xlink:href="#mcfaec75cbf" x="51.537415" y="155.233389" style="fill: #006400; stroke: #006400"/>
     <use xlink:href="#mcfaec75cbf" x="111.132247" y="91.886114" style="fill: #006400; stroke: #006400"/>
     <use xlink:href="#mcfaec75cbf" x="127.278829" y="105.450746" style="fill: #006400; stroke: #006400"/>
     <use xlink:href="#mcfaec75cbf" x="101.315901" y="95.318954" style="fill: #006400; stroke: #006400"/>
     <use xlink:href="#mcfaec75cbf" x="111.132247" y="91.886114" style="fill: #006400; stroke: #006400"/>
     <use xlink:href="#mcfaec75cbf" x="109.484244" y="97.896075" style="fill: #006400; stroke: #006400"/>
     <use xlink:href="#mcfaec75cbf" x="85.440293" y="141.467" style="fill: #006400; stroke: #006400"/>
     <use xlink:href="#mcfaec75cbf" x="82.821568" y="143.950023" style="fill: #006400; stroke: #006400"/>
     <use xlink:href="#mcfaec75cbf" x="111.499716" y="61.690869" style="fill: #006400; stroke: #006400"/>
     <use xlink:href="#mcfaec75cbf" x="120.34944" y="135.577576" style="fill: #006400; stroke: #006400"/>
     <use xlink:href="#mcfaec75cbf" x="137.25739" y="102.730254" style="fill: #006400; stroke: #006400"/>
     <use xlink:href="#mcfaec75cbf" x="120.960833" y="117.88205" style="fill: #006400; stroke: #006400"/>
     <use xlink:href="#mcfaec75cbf" x="161.679858" y="140.236862" style="fill: #006400; stroke: #006400"/>
     <use xlink:href="#mcfaec75cbf" x="129.699732" y="207.901156" style="fill: #006400; stroke: #006400"/>
    </g>
   </g>
   <g id="PathCollection_3">
    <defs>
     <path id="m04c7397680" d="M 0 1.5 
C 0.397805 1.5 0.77937 1.341951 1.06066 1.06066 
C 1.341951 0.77937 1.5 0.397805 1.5 0 
C 1.5 -0.397805 1.341951 -0.77937 1.06066 -1.06066 
C 0.77937 -1.341951 0.397805 -1.5 0 -1.5 
C -0.397805 -1.5 -0.77937 -1.341951 -1.06066 -1.06066 
C -1.341951 -0.77937 -1.5 -0.397805 -1.5 0 
C -1.5 0.397805 -1.341951 0.77937 -1.06066 1.06066 
C -0.77937 1.341951 -0.397805 1.5 0 1.5 
z
" style="stroke: #2f4f4f"/>
    </defs>
    <g clip-path="url(#p56cebd53c7)">
     <use xlink:href="#m04c7397680" x="158.175447" y="236.337928" style="fill: #2f4f4f; stroke: #2f4f4f"/>
     <use xlink:href="#m04c7397680" x="174.640363" y="232.415807" style="fill: #2f4f4f; stroke: #2f4f4f"/>
     <use xlink:href="#m04c7397680" x="189.983986" y="208.858631" style="fill: #2f4f4f; stroke: #2f4f4f"/>
     <use xlink:href="#m04c7397680" x="142.099796" y="242.757938" style="fill: #2f4f4f; stroke: #2f4f4f"/>
     <use xlink:href="#m04c7397680" x="152.628266" y="238.200902" style="fill: #2f4f4f; stroke: #2f4f4f"/>
     <use xlink:href="#m04c7397680" x="179.835263" y="238.849006" style="fill: #2f4f4f; stroke: #2f4f4f"/>
     <use xlink:href="#m04c7397680" x="160.276074" y="224.767166" style="fill: #2f4f4f; stroke: #2f4f4f"/>
     <use xlink:href="#m04c7397680" x="115.520426" y="196.945933" style="fill: #2f4f4f; stroke: #2f4f4f"/>
     <use xlink:href="#m04c7397680" x="181.644058" y="227.137607" style="fill: #2f4f4f; stroke: #2f4f4f"/>
     <use xlink:href="#m04c7397680" x="176.957316" y="210.339835" style="fill: #2f4f4f; stroke: #2f4f4f"/>
     <use xlink:href="#m04c7397680" x="135.187129" y="236.336264" style="fill: #2f4f4f; stroke: #2f4f4f"/>
     <use xlink:href="#m04c7397680" x="116.843292" y="243.294129" style="fill: #2f4f4f; stroke: #2f4f4f"/>
    </g>
   </g>
   <g id="PathCollection_4">
    <defs>
     <path id="m830c8819ac" d="M 0 1.5 
C 0.397805 1.5 0.77937 1.341951 1.06066 1.06066 
C 1.341951 0.77937 1.5 0.397805 1.5 0 
C 1.5 -0.397805 1.341951 -0.77937 1.06066 -1.06066 
C 0.77937 -1.341951 0.397805 -1.5 0 -1.5 
C -0.397805 -1.5 -0.77937 -1.341951 -1.06066 -1.06066 
C -1.341951 -0.77937 -1.5 -0.397805 -1.5 0 
C -1.5 0.397805 -1.341951 0.77937 -1.06066 1.06066 
C -0.77937 1.341951 -0.397805 1.5 0 1.5 
z
" style="stroke: #00bfff"/>
    </defs>
    <g clip-path="url(#p56cebd53c7)">
     <use xlink:href="#m830c8819ac" x="163.975749" y="240.995049" style="fill: #00bfff; stroke: #00bfff"/>
     <use xlink:href="#m830c8819ac" x="199.923807" y="204.286318" style="fill: #00bfff; stroke: #00bfff"/>
     <use xlink:href="#m830c8819ac" x="139.945642" y="219.931391" style="fill: #00bfff; stroke: #00bfff"/>
     <use xlink:href="#m830c8819ac" x="157.685554" y="210.757933" style="fill: #00bfff; stroke: #00bfff"/>
     <use xlink:href="#m830c8819ac" x="159.844452" y="206.413872" style="fill: #00bfff; stroke: #00bfff"/>
     <use xlink:href="#m830c8819ac" x="135.687894" y="247.500593" style="fill: #00bfff; stroke: #00bfff"/>
     <use xlink:href="#m830c8819ac" x="191.32752" y="188.563222" style="fill: #00bfff; stroke: #00bfff"/>
     <use xlink:href="#m830c8819ac" x="129.953231" y="248.567919" style="fill: #00bfff; stroke: #00bfff"/>
     <use xlink:href="#m830c8819ac" x="112.274827" y="232.716198" style="fill: #00bfff; stroke: #00bfff"/>
     <use xlink:href="#m830c8819ac" x="176.234757" y="239.674004" style="fill: #00bfff; stroke: #00bfff"/>
     <use xlink:href="#m830c8819ac" x="176.299501" y="238.731348" style="fill: #00bfff; stroke: #00bfff"/>
     <use xlink:href="#m830c8819ac" x="191.652316" y="179.145515" style="fill: #00bfff; stroke: #00bfff"/>
    </g>
   </g>
   <g id="PathCollection_5">
    <defs>
     <path id="m1a0c9d7c8d" d="M 0 1.5 
C 0.397805 1.5 0.77937 1.341951 1.06066 1.06066 
C 1.341951 0.77937 1.5 0.397805 1.5 0 
C 1.5 -0.397805 1.341951 -0.77937 1.06066 -1.06066 
C 0.77937 -1.341951 0.397805 -1.5 0 -1.5 
C -0.397805 -1.5 -0.77937 -1.341951 -1.06066 -1.06066 
C -1.341951 -0.77937 -1.5 -0.397805 -1.5 0 
C -1.5 0.397805 -1.341951 0.77937 -1.06066 1.06066 
C -0.77937 1.341951 -0.397805 1.5 0 1.5 
z
" style="stroke: #ffff00"/>
    </defs>
    <g clip-path="url(#p56cebd53c7)">
     <use xlink:href="#m1a0c9d7c8d" x="153.373512" y="229.166818" style="fill: #ffff00; stroke: #ffff00"/>
     <use xlink:href="#m1a0c9d7c8d" x="161.022886" y="218.120818" style="fill: #ffff00; stroke: #ffff00"/>
     <use xlink:href="#m1a0c9d7c8d" x="164.600435" y="230.391906" style="fill: #ffff00; stroke: #ffff00"/>
     <use xlink:href="#m1a0c9d7c8d" x="144.533068" y="200.183487" style="fill: #ffff00; stroke: #ffff00"/>
     <use xlink:href="#m1a0c9d7c8d" x="147.11282" y="213.628398" style="fill: #ffff00; stroke: #ffff00"/>
     <use xlink:href="#m1a0c9d7c8d" x="170.845053" y="226.370976" style="fill: #ffff00; stroke: #ffff00"/>
     <use xlink:href="#m1a0c9d7c8d" x="126.614978" y="186.294859" style="fill: #ffff00; stroke: #ffff00"/>
     <use xlink:href="#m1a0c9d7c8d" x="168.890298" y="211.602961" style="fill: #ffff00; stroke: #ffff00"/>
     <use xlink:href="#m1a0c9d7c8d" x="157.618167" y="219.629241" style="fill: #ffff00; stroke: #ffff00"/>
     <use xlink:href="#m1a0c9d7c8d" x="195.561605" y="215.687733" style="fill: #ffff00; stroke: #ffff00"/>
     <use xlink:href="#m1a0c9d7c8d" x="142.621987" y="248.83898" style="fill: #ffff00; stroke: #ffff00"/>
    </g>
   </g>
   <g id="PathCollection_6">
    <defs>
     <path id="m249ddf97de" d="M 0 1.5 
C 0.397805 1.5 0.77937 1.341951 1.06066 1.06066 
C 1.341951 0.77937 1.5 0.397805 1.5 0 
C 1.5 -0.397805 1.341951 -0.77937 1.06066 -1.06066 
C 0.77937 -1.341951 0.397805 -1.5 0 -1.5 
C -0.397805 -1.5 -0.77937 -1.341951 -1.06066 -1.06066 
C -1.341951 -0.77937 -1.5 -0.397805 -1.5 0 
C -1.5 0.397805 -1.341951 0.77937 -1.06066 1.06066 
C -0.77937 1.341951 -0.397805 1.5 0 1.5 
z
" style="stroke: #00ffff"/>
    </defs>
    <g clip-path="url(#p56cebd53c7)">
     <use xlink:href="#m249ddf97de" x="125.973531" y="251.871241" style="fill: #00ffff; stroke: #00ffff"/>
     <use xlink:href="#m249ddf97de" x="128.317446" y="212.754975" style="fill: #00ffff; stroke: #00ffff"/>
     <use xlink:href="#m249ddf97de" x="101.878966" y="218.635273" style="fill: #00ffff; stroke: #00ffff"/>
     <use xlink:href="#m249ddf97de" x="143.617269" y="203.832732" style="fill: #00ffff; stroke: #00ffff"/>
     <use xlink:href="#m249ddf97de" x="149.819421" y="227.598229" style="fill: #00ffff; stroke: #00ffff"/>
     <use xlink:href="#m249ddf97de" x="124.451434" y="237.28312" style="fill: #00ffff; stroke: #00ffff"/>
     <use xlink:href="#m249ddf97de" x="119.281527" y="245.050264" style="fill: #00ffff; stroke: #00ffff"/>
     <use xlink:href="#m249ddf97de" x="134.812759" y="209.323778" style="fill: #00ffff; stroke: #00ffff"/>
     <use xlink:href="#m249ddf97de" x="120.416031" y="239.806906" style="fill: #00ffff; stroke: #00ffff"/>
     <use xlink:href="#m249ddf97de" x="121.941291" y="180.848381" style="fill: #00ffff; stroke: #00ffff"/>
     <use xlink:href="#m249ddf97de" x="92.762286" y="217.075817" style="fill: #00ffff; stroke: #00ffff"/>
     <use xlink:href="#m249ddf97de" x="104.102226" y="242.83707" style="fill: #00ffff; stroke: #00ffff"/>
     <use xlink:href="#m249ddf97de" x="130.230771" y="226.921074" style="fill: #00ffff; stroke: #00ffff"/>
     <use xlink:href="#m249ddf97de" x="127.169839" y="217.742485" style="fill: #00ffff; stroke: #00ffff"/>
     <use xlink:href="#m249ddf97de" x="118.312298" y="197.224701" style="fill: #00ffff; stroke: #00ffff"/>
     <use xlink:href="#m249ddf97de" x="124.649058" y="229.758001" style="fill: #00ffff; stroke: #00ffff"/>
     <use xlink:href="#m249ddf97de" x="104.706217" y="160.33747" style="fill: #00ffff; stroke: #00ffff"/>
     <use xlink:href="#m249ddf97de" x="131.724112" y="213.181755" style="fill: #00ffff; stroke: #00ffff"/>
     <use xlink:href="#m249ddf97de" x="184.256152" y="215.522923" style="fill: #00ffff; stroke: #00ffff"/>
    </g>
   </g>
   <g id="PathCollection_7">
    <defs>
     <path id="me281dddf16" d="M 0 1.5 
C 0.397805 1.5 0.77937 1.341951 1.06066 1.06066 
C 1.341951 0.77937 1.5 0.397805 1.5 0 
C 1.5 -0.397805 1.341951 -0.77937 1.06066 -1.06066 
C 0.77937 -1.341951 0.397805 -1.5 0 -1.5 
C -0.397805 -1.5 -0.77937 -1.341951 -1.06066 -1.06066 
C -1.341951 -0.77937 -1.5 -0.397805 -1.5 0 
C -1.5 0.397805 -1.341951 0.77937 -1.06066 1.06066 
C -0.77937 1.341951 -0.397805 1.5 0 1.5 
z
" style="stroke: #0000ff"/>
    </defs>
    <g clip-path="url(#p56cebd53c7)">
     <use xlink:href="#me281dddf16" x="260.399244" y="183.323154" style="fill: #0000ff; stroke: #0000ff"/>
     <use xlink:href="#me281dddf16" x="170.537966" y="222.104023" style="fill: #0000ff; stroke: #0000ff"/>
     <use xlink:href="#me281dddf16" x="190.146661" y="228.107721" style="fill: #0000ff; stroke: #0000ff"/>
     <use xlink:href="#me281dddf16" x="256.762157" y="171.49013" style="fill: #0000ff; stroke: #0000ff"/>
     <use xlink:href="#me281dddf16" x="269.716887" y="176.44677" style="fill: #0000ff; stroke: #0000ff"/>
     <use xlink:href="#me281dddf16" x="178.539647" y="228.037334" style="fill: #0000ff; stroke: #0000ff"/>
     <use xlink:href="#me281dddf16" x="338.858253" y="153.956708" style="fill: #0000ff; stroke: #0000ff"/>
     <use xlink:href="#me281dddf16" x="327.200907" y="187.019429" style="fill: #0000ff; stroke: #0000ff"/>
     <use xlink:href="#me281dddf16" x="219.186685" y="164.735547" style="fill: #0000ff; stroke: #0000ff"/>
     <use xlink:href="#me281dddf16" x="167.627663" y="236.628714" style="fill: #0000ff; stroke: #0000ff"/>
     <use xlink:href="#me281dddf16" x="144.916077" y="219.473911" style="fill: #0000ff; stroke: #0000ff"/>
     <use xlink:href="#me281dddf16" x="340.218103" y="189.242103" style="fill: #0000ff; stroke: #0000ff"/>
     <use xlink:href="#me281dddf16" x="272.396404" y="181.470411" style="fill: #0000ff; stroke: #0000ff"/>
     <use xlink:href="#me281dddf16" x="305.471988" y="157.989992" style="fill: #0000ff; stroke: #0000ff"/>
     <use xlink:href="#me281dddf16" x="244.560265" y="201.240055" style="fill: #0000ff; stroke: #0000ff"/>
     <use xlink:href="#me281dddf16" x="230.22344" y="193.396045" style="fill: #0000ff; stroke: #0000ff"/>
     <use xlink:href="#me281dddf16" x="185.11515" y="166.290918" style="fill: #0000ff; stroke: #0000ff"/>
     <use xlink:href="#me281dddf16" x="265.349351" y="171.715303" style="fill: #0000ff; stroke: #0000ff"/>
     <use xlink:href="#me281dddf16" x="376.19196" y="145.731424" style="fill: #0000ff; stroke: #0000ff"/>
     <use xlink:href="#me281dddf16" x="134.985521" y="213.590268" style="fill: #0000ff; stroke: #0000ff"/>
    </g>
   </g>
   <g id="PathCollection_8">
    <defs>
     <path id="mfc92446940" d="M 0 1.5 
C 0.397805 1.5 0.77937 1.341951 1.06066 1.06066 
C 1.341951 0.77937 1.5 0.397805 1.5 0 
C 1.5 -0.397805 1.341951 -0.77937 1.06066 -1.06066 
C 0.77937 -1.341951 0.397805 -1.5 0 -1.5 
C -0.397805 -1.5 -0.77937 -1.341951 -1.06066 -1.06066 
C -1.341951 -0.77937 -1.5 -0.397805 -1.5 0 
C -1.5 0.397805 -1.341951 0.77937 -1.06066 1.06066 
C -0.77937 1.341951 -0.397805 1.5 0 1.5 
z
" style="stroke: #dc143c"/>
    </defs>
    <g clip-path="url(#p56cebd53c7)">
     <use xlink:href="#mfc92446940" x="89.267225" y="198.863281" style="fill: #dc143c; stroke: #dc143c"/>
     <use xlink:href="#mfc92446940" x="94.201681" y="213.870686" style="fill: #dc143c; stroke: #dc143c"/>
     <use xlink:href="#mfc92446940" x="103.402377" y="219.329012" style="fill: #dc143c; stroke: #dc143c"/>
     <use xlink:href="#mfc92446940" x="131.839254" y="239.123859" style="fill: #dc143c; stroke: #dc143c"/>
     <use xlink:href="#mfc92446940" x="80.629992" y="208.841831" style="fill: #dc143c; stroke: #dc143c"/>
     <use xlink:href="#mfc92446940" x="128.805413" y="197.3008" style="fill: #dc143c; stroke: #dc143c"/>
     <use xlink:href="#mfc92446940" x="114.914279" y="204.270711" style="fill: #dc143c; stroke: #dc143c"/>
     <use xlink:href="#mfc92446940" x="103.283373" y="180.309754" style="fill: #dc143c; stroke: #dc143c"/>
     <use xlink:href="#mfc92446940" x="107.496019" y="209.214003" style="fill: #dc143c; stroke: #dc143c"/>
     <use xlink:href="#mfc92446940" x="80.389369" y="232.41741" style="fill: #dc143c; stroke: #dc143c"/>
     <use xlink:href="#mfc92446940" x="164.140157" y="226.919146" style="fill: #dc143c; stroke: #dc143c"/>
     <use xlink:href="#mfc92446940" x="133.880229" y="192.393244" style="fill: #dc143c; stroke: #dc143c"/>
     <use xlink:href="#mfc92446940" x="123.706426" y="210.296282" style="fill: #dc143c; stroke: #dc143c"/>
     <use xlink:href="#mfc92446940" x="125.719134" y="222.431182" style="fill: #dc143c; stroke: #dc143c"/>
     <use xlink:href="#mfc92446940" x="104.000157" y="165.91401" style="fill: #dc143c; stroke: #dc143c"/>
     <use xlink:href="#mfc92446940" x="125.051923" y="209.036662" style="fill: #dc143c; stroke: #dc143c"/>
     <use xlink:href="#mfc92446940" x="119.479634" y="235.768308" style="fill: #dc143c; stroke: #dc143c"/>
    </g>
   </g>
   <g id="PathCollection_9">
    <defs>
     <path id="m389d43c4bc" d="M 0 1.5 
C 0.397805 1.5 0.77937 1.341951 1.06066 1.06066 
C 1.341951 0.77937 1.5 0.397805 1.5 0 
C 1.5 -0.397805 1.341951 -0.77937 1.06066 -1.06066 
C 0.77937 -1.341951 0.397805 -1.5 0 -1.5 
C -0.397805 -1.5 -0.77937 -1.341951 -1.06066 -1.06066 
C -1.341951 -0.77937 -1.5 -0.397805 -1.5 0 
C -1.5 0.397805 -1.341951 0.77937 -1.06066 1.06066 
C -0.77937 1.341951 -0.397805 1.5 0 1.5 
z
" style="stroke: #ffe4c4"/>
    </defs>
    <g clip-path="url(#p56cebd53c7)">
     <use xlink:href="#m389d43c4bc" x="108.274247" y="69.506452" style="fill: #ffe4c4; stroke: #ffe4c4"/>
     <use xlink:href="#m389d43c4bc" x="108.714914" y="108.790591" style="fill: #ffe4c4; stroke: #ffe4c4"/>
     <use xlink:href="#m389d43c4bc" x="97.70104" y="63.112414" style="fill: #ffe4c4; stroke: #ffe4c4"/>
     <use xlink:href="#m389d43c4bc" x="127.598844" y="183.817945" style="fill: #ffe4c4; stroke: #ffe4c4"/>
     <use xlink:href="#m389d43c4bc" x="171.846871" y="127.888355" style="fill: #ffe4c4; stroke: #ffe4c4"/>
     <use xlink:href="#m389d43c4bc" x="115.713201" y="100.699999" style="fill: #ffe4c4; stroke: #ffe4c4"/>
     <use xlink:href="#m389d43c4bc" x="64.300976" y="63.062532" style="fill: #ffe4c4; stroke: #ffe4c4"/>
     <use xlink:href="#m389d43c4bc" x="124.474674" y="158.598038" style="fill: #ffe4c4; stroke: #ffe4c4"/>
     <use xlink:href="#m389d43c4bc" x="118.487133" y="50.525145" style="fill: #ffe4c4; stroke: #ffe4c4"/>
     <use xlink:href="#m389d43c4bc" x="147.436334" y="152.515205" style="fill: #ffe4c4; stroke: #ffe4c4"/>
     <use xlink:href="#m389d43c4bc" x="122.863992" y="22.637655" style="fill: #ffe4c4; stroke: #ffe4c4"/>
     <use xlink:href="#m389d43c4bc" x="127.520804" y="192.328001" style="fill: #ffe4c4; stroke: #ffe4c4"/>
    </g>
   </g>
   <g id="PathCollection_10">
    <defs>
     <path id="m61bd6bee3c" d="M -2.99994 2.99994 
L 3.00006 2.99994 
L 3.00006 -3.00006 
L -2.99994 -3.00006 
z
" style="stroke: #000000"/>
    </defs>
    <g clip-path="url(#p56cebd53c7)">
     <use xlink:href="#m61bd6bee3c" x="179.660936" y="240.004823" style="stroke: #000000"/>
     <use xlink:href="#m61bd6bee3c" x="129.326142" y="198.975798" style="stroke: #000000"/>
     <use xlink:href="#m61bd6bee3c" x="107.098089" y="239.423776" style="stroke: #000000"/>
     <use xlink:href="#m61bd6bee3c" x="106.794861" y="239.31351" style="stroke: #000000"/>
     <use xlink:href="#m61bd6bee3c" x="223.439975" y="169.201441" style="stroke: #000000"/>
     <use xlink:href="#m61bd6bee3c" x="168.5007" y="203.439283" style="stroke: #000000"/>
     <use xlink:href="#m61bd6bee3c" x="158.460658" y="252.05173" style="stroke: #000000"/>
     <use xlink:href="#m61bd6bee3c" x="140.132498" y="204.67355" style="stroke: #000000"/>
     <use xlink:href="#m61bd6bee3c" x="122.626384" y="245.620331" style="stroke: #000000"/>
     <use xlink:href="#m61bd6bee3c" x="121.207744" y="197.886559" style="stroke: #000000"/>
     <use xlink:href="#m61bd6bee3c" x="138.91173" y="174.456518" style="stroke: #000000"/>
     <use xlink:href="#m61bd6bee3c" x="146.064457" y="243.755846" style="stroke: #000000"/>
     <use xlink:href="#m61bd6bee3c" x="151.933006" y="221.724582" style="stroke: #000000"/>
     <use xlink:href="#m61bd6bee3c" x="111.913603" y="212.215124" style="stroke: #000000"/>
     <use xlink:href="#m61bd6bee3c" x="178.38374" y="211.29179" style="stroke: #000000"/>
     <use xlink:href="#m61bd6bee3c" x="144.194976" y="201.773584" style="stroke: #000000"/>
     <use xlink:href="#m61bd6bee3c" x="139.695503" y="221.542469" style="stroke: #000000"/>
     <use xlink:href="#m61bd6bee3c" x="131.622623" y="151.287224" style="stroke: #000000"/>
     <use xlink:href="#m61bd6bee3c" x="128.815593" y="236.657181" style="stroke: #000000"/>
     <use xlink:href="#m61bd6bee3c" x="143.75354" y="201.802347" style="stroke: #000000"/>
     <use xlink:href="#m61bd6bee3c" x="159.620805" y="185.387347" style="stroke: #000000"/>
     <use xlink:href="#m61bd6bee3c" x="157.317189" y="218.183935" style="stroke: #000000"/>
     <use xlink:href="#m61bd6bee3c" x="177.943965" y="205.865154" style="stroke: #000000"/>
     <use xlink:href="#m61bd6bee3c" x="141.972154" y="208.170422" style="stroke: #000000"/>
     <use xlink:href="#m61bd6bee3c" x="243.763743" y="164.744823" style="stroke: #000000"/>
     <use xlink:href="#m61bd6bee3c" x="130.495339" y="190.713857" style="stroke: #000000"/>
     <use xlink:href="#m61bd6bee3c" x="146.367124" y="224.602806" style="stroke: #000000"/>
     <use xlink:href="#m61bd6bee3c" x="84.424357" y="211.987552" style="stroke: #000000"/>
     <use xlink:href="#m61bd6bee3c" x="117.031008" y="216.452046" style="stroke: #000000"/>
     <use xlink:href="#m61bd6bee3c" x="132.802956" y="227.633456" style="stroke: #000000"/>
     <use xlink:href="#m61bd6bee3c" x="125.525584" y="222.123448" style="stroke: #000000"/>
     <use xlink:href="#m61bd6bee3c" x="166.235725" y="211.783824" style="stroke: #000000"/>
     <use xlink:href="#m61bd6bee3c" x="145.65907" y="233.666466" style="stroke: #000000"/>
     <use xlink:href="#m61bd6bee3c" x="140.485857" y="224.793153" style="stroke: #000000"/>
     <use xlink:href="#m61bd6bee3c" x="124.088142" y="188.82003" style="stroke: #000000"/>
     <use xlink:href="#m61bd6bee3c" x="157.717688" y="222.10509" style="stroke: #000000"/>
     <use xlink:href="#m61bd6bee3c" x="119.161609" y="264.557655" style="stroke: #000000"/>
     <use xlink:href="#m61bd6bee3c" x="191.545571" y="221.255767" style="stroke: #000000"/>
     <use xlink:href="#m61bd6bee3c" x="128.399102" y="188.514233" style="stroke: #000000"/>
     <use xlink:href="#m61bd6bee3c" x="139.136475" y="202.010104" style="stroke: #000000"/>
     <use xlink:href="#m61bd6bee3c" x="102.413272" y="211.549669" style="stroke: #000000"/>
     <use xlink:href="#m61bd6bee3c" x="142.250425" y="205.120039" style="stroke: #000000"/>
     <use xlink:href="#m61bd6bee3c" x="148.615172" y="237.137345" style="stroke: #000000"/>
     <use xlink:href="#m61bd6bee3c" x="149.077054" y="238.454253" style="stroke: #000000"/>
     <use xlink:href="#m61bd6bee3c" x="142.07362" y="223.956948" style="stroke: #000000"/>
     <use xlink:href="#m61bd6bee3c" x="142.07362" y="223.956948" style="stroke: #000000"/>
     <use xlink:href="#m61bd6bee3c" x="171.76455" y="226.836707" style="stroke: #000000"/>
     <use xlink:href="#m61bd6bee3c" x="130.119849" y="230.989435" style="stroke: #000000"/>
     <use xlink:href="#m61bd6bee3c" x="173.288763" y="227.415533" style="stroke: #000000"/>
     <use xlink:href="#m61bd6bee3c" x="167.298841" y="228.029878" style="stroke: #000000"/>
     <use xlink:href="#m61bd6bee3c" x="138.744054" y="253.162216" style="stroke: #000000"/>
     <use xlink:href="#m61bd6bee3c" x="159.291609" y="233.258684" style="stroke: #000000"/>
     <use xlink:href="#m61bd6bee3c" x="164.78307" y="225.17986" style="stroke: #000000"/>
     <use xlink:href="#m61bd6bee3c" x="144.132935" y="184.860105" style="stroke: #000000"/>
     <use xlink:href="#m61bd6bee3c" x="146.257203" y="235.680413" style="stroke: #000000"/>
     <use xlink:href="#m61bd6bee3c" x="141.19866" y="197.698007" style="stroke: #000000"/>
     <use xlink:href="#m61bd6bee3c" x="111.792325" y="212.255654" style="stroke: #000000"/>
     <use xlink:href="#m61bd6bee3c" x="187.54409" y="209.33377" style="stroke: #000000"/>
     <use xlink:href="#m61bd6bee3c" x="146.828345" y="224.521185" style="stroke: #000000"/>
     <use xlink:href="#m61bd6bee3c" x="128.736105" y="234.042179" style="stroke: #000000"/>
     <use xlink:href="#m61bd6bee3c" x="179.295108" y="246.591219" style="stroke: #000000"/>
     <use xlink:href="#m61bd6bee3c" x="179.246327" y="222.428624" style="stroke: #000000"/>
     <use xlink:href="#m61bd6bee3c" x="121.190641" y="245.319443" style="stroke: #000000"/>
     <use xlink:href="#m61bd6bee3c" x="162.236417" y="206.637419" style="stroke: #000000"/>
    </g>
   </g>
   <g id="PathCollection_11">
    <defs>
     <path id="me96d1bfe1c" d="M -3 -0 
L 3 3 
L 3 -3 
z
" style="stroke: #ff8c00"/>
    </defs>
    <g clip-path="url(#p56cebd53c7)">
     <use xlink:href="#me96d1bfe1c" x="152.890605" y="217.469231" style="fill: #ff8c00; stroke: #ff8c00"/>
     <use xlink:href="#me96d1bfe1c" x="227.247678" y="191.145528" style="fill: #ff8c00; stroke: #ff8c00"/>
     <use xlink:href="#me96d1bfe1c" x="170.325339" y="225.386595" style="fill: #ff8c00; stroke: #ff8c00"/>
     <use xlink:href="#me96d1bfe1c" x="173.510793" y="166.32881" style="fill: #ff8c00; stroke: #ff8c00"/>
     <use xlink:href="#me96d1bfe1c" x="122.963663" y="246.399212" style="fill: #ff8c00; stroke: #ff8c00"/>
     <use xlink:href="#me96d1bfe1c" x="166.702367" y="243.446682" style="fill: #ff8c00; stroke: #ff8c00"/>
     <use xlink:href="#me96d1bfe1c" x="121.86698" y="200.31396" style="fill: #ff8c00; stroke: #ff8c00"/>
     <use xlink:href="#me96d1bfe1c" x="142.139721" y="244.657233" style="fill: #ff8c00; stroke: #ff8c00"/>
     <use xlink:href="#me96d1bfe1c" x="142.709886" y="247.29808" style="fill: #ff8c00; stroke: #ff8c00"/>
     <use xlink:href="#me96d1bfe1c" x="180.277592" y="241.963537" style="fill: #ff8c00; stroke: #ff8c00"/>
     <use xlink:href="#me96d1bfe1c" x="141.147423" y="235.77115" style="fill: #ff8c00; stroke: #ff8c00"/>
     <use xlink:href="#me96d1bfe1c" x="184.502605" y="140.171488" style="fill: #ff8c00; stroke: #ff8c00"/>
     <use xlink:href="#me96d1bfe1c" x="155.430605" y="195.798728" style="fill: #ff8c00; stroke: #ff8c00"/>
     <use xlink:href="#me96d1bfe1c" x="128.051436" y="253.090242" style="fill: #ff8c00; stroke: #ff8c00"/>
     <use xlink:href="#me96d1bfe1c" x="210.93024" y="188.937348" style="fill: #ff8c00; stroke: #ff8c00"/>
     <use xlink:href="#me96d1bfe1c" x="174.605686" y="160.27641" style="fill: #ff8c00; stroke: #ff8c00"/>
     <use xlink:href="#me96d1bfe1c" x="152.07358" y="232.457869" style="fill: #ff8c00; stroke: #ff8c00"/>
     <use xlink:href="#me96d1bfe1c" x="117.840201" y="239.014627" style="fill: #ff8c00; stroke: #ff8c00"/>
     <use xlink:href="#me96d1bfe1c" x="117.692532" y="224.15122" style="fill: #ff8c00; stroke: #ff8c00"/>
     <use xlink:href="#me96d1bfe1c" x="82.211328" y="193.124166" style="fill: #ff8c00; stroke: #ff8c00"/>
     <use xlink:href="#me96d1bfe1c" x="130.664873" y="183.544164" style="fill: #ff8c00; stroke: #ff8c00"/>
     <use xlink:href="#me96d1bfe1c" x="139.188114" y="224.606882" style="fill: #ff8c00; stroke: #ff8c00"/>
     <use xlink:href="#me96d1bfe1c" x="145.933856" y="244.876654" style="fill: #ff8c00; stroke: #ff8c00"/>
     <use xlink:href="#me96d1bfe1c" x="137.6103" y="242.375784" style="fill: #ff8c00; stroke: #ff8c00"/>
     <use xlink:href="#me96d1bfe1c" x="171.844376" y="206.04355" style="fill: #ff8c00; stroke: #ff8c00"/>
     <use xlink:href="#me96d1bfe1c" x="158.117725" y="197.500023" style="fill: #ff8c00; stroke: #ff8c00"/>
     <use xlink:href="#me96d1bfe1c" x="121.77631" y="225.024932" style="fill: #ff8c00; stroke: #ff8c00"/>
     <use xlink:href="#me96d1bfe1c" x="151.744651" y="202.794182" style="fill: #ff8c00; stroke: #ff8c00"/>
     <use xlink:href="#me96d1bfe1c" x="132.81062" y="185.672794" style="fill: #ff8c00; stroke: #ff8c00"/>
     <use xlink:href="#me96d1bfe1c" x="245.70767" y="183.028185" style="fill: #ff8c00; stroke: #ff8c00"/>
     <use xlink:href="#me96d1bfe1c" x="148.416261" y="193.902792" style="fill: #ff8c00; stroke: #ff8c00"/>
     <use xlink:href="#me96d1bfe1c" x="135.965204" y="240.571778" style="fill: #ff8c00; stroke: #ff8c00"/>
     <use xlink:href="#me96d1bfe1c" x="171.443881" y="207.321451" style="fill: #ff8c00; stroke: #ff8c00"/>
     <use xlink:href="#me96d1bfe1c" x="147.086523" y="216.974941" style="fill: #ff8c00; stroke: #ff8c00"/>
     <use xlink:href="#me96d1bfe1c" x="154.706841" y="204.496555" style="fill: #ff8c00; stroke: #ff8c00"/>
     <use xlink:href="#me96d1bfe1c" x="122.336204" y="252.623254" style="fill: #ff8c00; stroke: #ff8c00"/>
     <use xlink:href="#me96d1bfe1c" x="200.918107" y="228.140644" style="fill: #ff8c00; stroke: #ff8c00"/>
     <use xlink:href="#me96d1bfe1c" x="121.292299" y="252.125092" style="fill: #ff8c00; stroke: #ff8c00"/>
     <use xlink:href="#me96d1bfe1c" x="132.799158" y="242.993928" style="fill: #ff8c00; stroke: #ff8c00"/>
     <use xlink:href="#me96d1bfe1c" x="126.659847" y="205.496421" style="fill: #ff8c00; stroke: #ff8c00"/>
     <use xlink:href="#me96d1bfe1c" x="138.914663" y="228.156577" style="fill: #ff8c00; stroke: #ff8c00"/>
     <use xlink:href="#me96d1bfe1c" x="151.888303" y="239.747068" style="fill: #ff8c00; stroke: #ff8c00"/>
     <use xlink:href="#me96d1bfe1c" x="185.812895" y="169.543883" style="fill: #ff8c00; stroke: #ff8c00"/>
     <use xlink:href="#me96d1bfe1c" x="131.91146" y="230.022339" style="fill: #ff8c00; stroke: #ff8c00"/>
     <use xlink:href="#me96d1bfe1c" x="156.656505" y="201.581449" style="fill: #ff8c00; stroke: #ff8c00"/>
     <use xlink:href="#me96d1bfe1c" x="128.303863" y="236.005557" style="fill: #ff8c00; stroke: #ff8c00"/>
     <use xlink:href="#me96d1bfe1c" x="177.55198" y="207.79342" style="fill: #ff8c00; stroke: #ff8c00"/>
     <use xlink:href="#me96d1bfe1c" x="151.199452" y="159.769803" style="fill: #ff8c00; stroke: #ff8c00"/>
     <use xlink:href="#me96d1bfe1c" x="113.686036" y="205.870581" style="fill: #ff8c00; stroke: #ff8c00"/>
     <use xlink:href="#me96d1bfe1c" x="153.177809" y="234.003454" style="fill: #ff8c00; stroke: #ff8c00"/>
     <use xlink:href="#me96d1bfe1c" x="84.449562" y="217.776997" style="fill: #ff8c00; stroke: #ff8c00"/>
     <use xlink:href="#me96d1bfe1c" x="132.09365" y="203.180423" style="fill: #ff8c00; stroke: #ff8c00"/>
     <use xlink:href="#me96d1bfe1c" x="123.61706" y="201.684785" style="fill: #ff8c00; stroke: #ff8c00"/>
     <use xlink:href="#me96d1bfe1c" x="164.787019" y="141.100458" style="fill: #ff8c00; stroke: #ff8c00"/>
     <use xlink:href="#me96d1bfe1c" x="171.844376" y="206.04355" style="fill: #ff8c00; stroke: #ff8c00"/>
     <use xlink:href="#me96d1bfe1c" x="137.876821" y="237.053086" style="fill: #ff8c00; stroke: #ff8c00"/>
     <use xlink:href="#me96d1bfe1c" x="129.254089" y="246.70114" style="fill: #ff8c00; stroke: #ff8c00"/>
     <use xlink:href="#me96d1bfe1c" x="121.24374" y="221.969959" style="fill: #ff8c00; stroke: #ff8c00"/>
     <use xlink:href="#me96d1bfe1c" x="123.884343" y="188.273291" style="fill: #ff8c00; stroke: #ff8c00"/>
     <use xlink:href="#me96d1bfe1c" x="156.237339" y="191.114857" style="fill: #ff8c00; stroke: #ff8c00"/>
     <use xlink:href="#me96d1bfe1c" x="112.149108" y="248.212643" style="fill: #ff8c00; stroke: #ff8c00"/>
     <use xlink:href="#me96d1bfe1c" x="126.994263" y="224.639366" style="fill: #ff8c00; stroke: #ff8c00"/>
     <use xlink:href="#me96d1bfe1c" x="168.15733" y="249.233046" style="fill: #ff8c00; stroke: #ff8c00"/>
     <use xlink:href="#me96d1bfe1c" x="141.212151" y="190.334091" style="fill: #ff8c00; stroke: #ff8c00"/>
    </g>
   </g>
   <g id="matplotlib.axis_1">
    <g id="xtick_1">
     <g id="line2d_1">
      <defs>
       <path id="mc7415837c5" d="M 0 0 
L 0 3.5 
" style="stroke: #000000; stroke-width: 0.8"/>
      </defs>
      <g>
       <use xlink:href="#mc7415837c5" x="48.033001" y="276.653655" style="stroke: #000000; stroke-width: 0.8"/>
      </g>
     </g>
     <g id="text_1">
      <!-- −20 -->
      <g transform="translate(37.480658 291.252092) scale(0.1 -0.1)">
       <defs>
        <path id="DejaVuSans-2212" d="M 678 2272 
L 4684 2272 
L 4684 1741 
L 678 1741 
L 678 2272 
z
" transform="scale(0.015625)"/>
        <path id="DejaVuSans-32" d="M 1228 531 
L 3431 531 
L 3431 0 
L 469 0 
L 469 531 
Q 828 903 1448 1529 
Q 2069 2156 2228 2338 
Q 2531 2678 2651 2914 
Q 2772 3150 2772 3378 
Q 2772 3750 2511 3984 
Q 2250 4219 1831 4219 
Q 1534 4219 1204 4116 
Q 875 4013 500 3803 
L 500 4441 
Q 881 4594 1212 4672 
Q 1544 4750 1819 4750 
Q 2544 4750 2975 4387 
Q 3406 4025 3406 3419 
Q 3406 3131 3298 2873 
Q 3191 2616 2906 2266 
Q 2828 2175 2409 1742 
Q 1991 1309 1228 531 
z
" transform="scale(0.015625)"/>
        <path id="DejaVuSans-30" d="M 2034 4250 
Q 1547 4250 1301 3770 
Q 1056 3291 1056 2328 
Q 1056 1369 1301 889 
Q 1547 409 2034 409 
Q 2525 409 2770 889 
Q 3016 1369 3016 2328 
Q 3016 3291 2770 3770 
Q 2525 4250 2034 4250 
z
M 2034 4750 
Q 2819 4750 3233 4129 
Q 3647 3509 3647 2328 
Q 3647 1150 3233 529 
Q 2819 -91 2034 -91 
Q 1250 -91 836 529 
Q 422 1150 422 2328 
Q 422 3509 836 4129 
Q 1250 4750 2034 4750 
z
" transform="scale(0.015625)"/>
       </defs>
       <use xlink:href="#DejaVuSans-2212"/>
       <use xlink:href="#DejaVuSans-32" x="83.789062"/>
       <use xlink:href="#DejaVuSans-30" x="147.412109"/>
      </g>
     </g>
    </g>
    <g id="xtick_2">
     <g id="line2d_2">
      <g>
       <use xlink:href="#mc7415837c5" x="98.325256" y="276.653655" style="stroke: #000000; stroke-width: 0.8"/>
      </g>
     </g>
     <g id="text_2">
      <!-- −10 -->
      <g transform="translate(87.772913 291.252092) scale(0.1 -0.1)">
       <defs>
        <path id="DejaVuSans-31" d="M 794 531 
L 1825 531 
L 1825 4091 
L 703 3866 
L 703 4441 
L 1819 4666 
L 2450 4666 
L 2450 531 
L 3481 531 
L 3481 0 
L 794 0 
L 794 531 
z
" transform="scale(0.015625)"/>
       </defs>
       <use xlink:href="#DejaVuSans-2212"/>
       <use xlink:href="#DejaVuSans-31" x="83.789062"/>
       <use xlink:href="#DejaVuSans-30" x="147.412109"/>
      </g>
     </g>
    </g>
    <g id="xtick_3">
     <g id="line2d_3">
      <g>
       <use xlink:href="#mc7415837c5" x="148.617511" y="276.653655" style="stroke: #000000; stroke-width: 0.8"/>
      </g>
     </g>
     <g id="text_3">
      <!-- 0 -->
      <g transform="translate(145.436261 291.252092) scale(0.1 -0.1)">
       <use xlink:href="#DejaVuSans-30"/>
      </g>
     </g>
    </g>
    <g id="xtick_4">
     <g id="line2d_4">
      <g>
       <use xlink:href="#mc7415837c5" x="198.909766" y="276.653655" style="stroke: #000000; stroke-width: 0.8"/>
      </g>
     </g>
     <g id="text_4">
      <!-- 10 -->
      <g transform="translate(192.547266 291.252092) scale(0.1 -0.1)">
       <use xlink:href="#DejaVuSans-31"/>
       <use xlink:href="#DejaVuSans-30" x="63.623047"/>
      </g>
     </g>
    </g>
    <g id="xtick_5">
     <g id="line2d_5">
      <g>
       <use xlink:href="#mc7415837c5" x="249.202021" y="276.653655" style="stroke: #000000; stroke-width: 0.8"/>
      </g>
     </g>
     <g id="text_5">
      <!-- 20 -->
      <g transform="translate(242.839521 291.252092) scale(0.1 -0.1)">
       <use xlink:href="#DejaVuSans-32"/>
       <use xlink:href="#DejaVuSans-30" x="63.623047"/>
      </g>
     </g>
    </g>
    <g id="xtick_6">
     <g id="line2d_6">
      <g>
       <use xlink:href="#mc7415837c5" x="299.494276" y="276.653655" style="stroke: #000000; stroke-width: 0.8"/>
      </g>
     </g>
     <g id="text_6">
      <!-- 30 -->
      <g transform="translate(293.131776 291.252092) scale(0.1 -0.1)">
       <defs>
        <path id="DejaVuSans-33" d="M 2597 2516 
Q 3050 2419 3304 2112 
Q 3559 1806 3559 1356 
Q 3559 666 3084 287 
Q 2609 -91 1734 -91 
Q 1441 -91 1130 -33 
Q 819 25 488 141 
L 488 750 
Q 750 597 1062 519 
Q 1375 441 1716 441 
Q 2309 441 2620 675 
Q 2931 909 2931 1356 
Q 2931 1769 2642 2001 
Q 2353 2234 1838 2234 
L 1294 2234 
L 1294 2753 
L 1863 2753 
Q 2328 2753 2575 2939 
Q 2822 3125 2822 3475 
Q 2822 3834 2567 4026 
Q 2313 4219 1838 4219 
Q 1578 4219 1281 4162 
Q 984 4106 628 3988 
L 628 4550 
Q 988 4650 1302 4700 
Q 1616 4750 1894 4750 
Q 2613 4750 3031 4423 
Q 3450 4097 3450 3541 
Q 3450 3153 3228 2886 
Q 3006 2619 2597 2516 
z
" transform="scale(0.015625)"/>
       </defs>
       <use xlink:href="#DejaVuSans-33"/>
       <use xlink:href="#DejaVuSans-30" x="63.623047"/>
      </g>
     </g>
    </g>
    <g id="xtick_7">
     <g id="line2d_7">
      <g>
       <use xlink:href="#mc7415837c5" x="349.786531" y="276.653655" style="stroke: #000000; stroke-width: 0.8"/>
      </g>
     </g>
     <g id="text_7">
      <!-- 40 -->
      <g transform="translate(343.424031 291.252092) scale(0.1 -0.1)">
       <defs>
        <path id="DejaVuSans-34" d="M 2419 4116 
L 825 1625 
L 2419 1625 
L 2419 4116 
z
M 2253 4666 
L 3047 4666 
L 3047 1625 
L 3713 1625 
L 3713 1100 
L 3047 1100 
L 3047 0 
L 2419 0 
L 2419 1100 
L 313 1100 
L 313 1709 
L 2253 4666 
z
" transform="scale(0.015625)"/>
       </defs>
       <use xlink:href="#DejaVuSans-34"/>
       <use xlink:href="#DejaVuSans-30" x="63.623047"/>
      </g>
     </g>
    </g>
   </g>
   <g id="matplotlib.axis_2">
    <g id="ytick_1">
     <g id="line2d_8">
      <defs>
       <path id="m90dd5cf48b" d="M 0 0 
L -3.5 0 
" style="stroke: #000000; stroke-width: 0.8"/>
      </defs>
      <g>
       <use xlink:href="#m90dd5cf48b" x="35.304688" y="251.105289" style="stroke: #000000; stroke-width: 0.8"/>
      </g>
     </g>
     <g id="text_8">
      <!-- −10 -->
      <g transform="translate(7.2 254.904508) scale(0.1 -0.1)">
       <use xlink:href="#DejaVuSans-2212"/>
       <use xlink:href="#DejaVuSans-31" x="83.789062"/>
       <use xlink:href="#DejaVuSans-30" x="147.412109"/>
      </g>
     </g>
    </g>
    <g id="ytick_2">
     <g id="line2d_9">
      <g>
       <use xlink:href="#m90dd5cf48b" x="35.304688" y="203.084075" style="stroke: #000000; stroke-width: 0.8"/>
      </g>
     </g>
     <g id="text_9">
      <!-- 0 -->
      <g transform="translate(21.942187 206.883294) scale(0.1 -0.1)">
       <use xlink:href="#DejaVuSans-30"/>
      </g>
     </g>
    </g>
    <g id="ytick_3">
     <g id="line2d_10">
      <g>
       <use xlink:href="#m90dd5cf48b" x="35.304688" y="155.062861" style="stroke: #000000; stroke-width: 0.8"/>
      </g>
     </g>
     <g id="text_10">
      <!-- 10 -->
      <g transform="translate(15.579687 158.86208) scale(0.1 -0.1)">
       <use xlink:href="#DejaVuSans-31"/>
       <use xlink:href="#DejaVuSans-30" x="63.623047"/>
      </g>
     </g>
    </g>
    <g id="ytick_4">
     <g id="line2d_11">
      <g>
       <use xlink:href="#m90dd5cf48b" x="35.304688" y="107.041647" style="stroke: #000000; stroke-width: 0.8"/>
      </g>
     </g>
     <g id="text_11">
      <!-- 20 -->
      <g transform="translate(15.579687 110.840866) scale(0.1 -0.1)">
       <use xlink:href="#DejaVuSans-32"/>
       <use xlink:href="#DejaVuSans-30" x="63.623047"/>
      </g>
     </g>
    </g>
    <g id="ytick_5">
     <g id="line2d_12">
      <g>
       <use xlink:href="#m90dd5cf48b" x="35.304688" y="59.020433" style="stroke: #000000; stroke-width: 0.8"/>
      </g>
     </g>
     <g id="text_12">
      <!-- 30 -->
      <g transform="translate(15.579687 62.819652) scale(0.1 -0.1)">
       <use xlink:href="#DejaVuSans-33"/>
       <use xlink:href="#DejaVuSans-30" x="63.623047"/>
      </g>
     </g>
    </g>
    <g id="ytick_6">
     <g id="line2d_13">
      <g>
       <use xlink:href="#m90dd5cf48b" x="35.304688" y="10.999219" style="stroke: #000000; stroke-width: 0.8"/>
      </g>
     </g>
     <g id="text_13">
      <!-- 40 -->
      <g transform="translate(15.579687 14.798437) scale(0.1 -0.1)">
       <use xlink:href="#DejaVuSans-34"/>
       <use xlink:href="#DejaVuSans-30" x="63.623047"/>
      </g>
     </g>
    </g>
   </g>
   <g id="patch_3">
    <path d="M 35.304688 276.653655 
L 35.304688 10.541655 
" style="fill: none; stroke: #000000; stroke-width: 0.8; stroke-linejoin: miter; stroke-linecap: square"/>
   </g>
   <g id="patch_4">
    <path d="M 392.424688 276.653655 
L 392.424688 10.541655 
" style="fill: none; stroke: #000000; stroke-width: 0.8; stroke-linejoin: miter; stroke-linecap: square"/>
   </g>
   <g id="patch_5">
    <path d="M 35.304688 276.653655 
L 392.424688 276.653655 
" style="fill: none; stroke: #000000; stroke-width: 0.8; stroke-linejoin: miter; stroke-linecap: square"/>
   </g>
   <g id="patch_6">
    <path d="M 35.304688 10.541655 
L 392.424688 10.541655 
" style="fill: none; stroke: #000000; stroke-width: 0.8; stroke-linejoin: miter; stroke-linecap: square"/>
   </g>
  </g>
 </g>
 <defs>
  <clipPath id="p56cebd53c7">
   <rect x="35.304688" y="10.541655" width="357.12" height="266.112"/>
  </clipPath>
 </defs>
</svg>
