<?xml version="1.0" encoding="utf-8" standalone="no"?>
<!DOCTYPE svg PUBLIC "-//W3C//DTD SVG 1.1//EN"
  "http://www.w3.org/Graphics/SVG/1.1/DTD/svg11.dtd">
<svg xmlns:xlink="http://www.w3.org/1999/xlink" width="399.624687pt" height="297.190125pt" viewBox="0 0 399.624687 297.190125" xmlns="http://www.w3.org/2000/svg" version="1.1">
 <metadata>
  <rdf:RDF xmlns:dc="http://purl.org/dc/elements/1.1/" xmlns:cc="http://creativecommons.org/ns#" xmlns:rdf="http://www.w3.org/1999/02/22-rdf-syntax-ns#">
   <cc:Work>
    <dc:type rdf:resource="http://purl.org/dc/dcmitype/StillImage"/>
    <dc:date>2023-11-11T18:25:35.782747</dc:date>
    <dc:format>image/svg+xml</dc:format>
    <dc:creator>
     <cc:Agent>
      <dc:title>Matplotlib v3.8.0, https://matplotlib.org/</dc:title>
     </cc:Agent>
    </dc:creator>
   </cc:Work>
  </rdf:RDF>
 </metadata>
 <defs>
  <style type="text/css">*{stroke-linejoin: round; stroke-linecap: butt}</style>
 </defs>
 <g id="figure_1">
  <g id="patch_1">
   <path d="M 0 297.190125 
L 399.624687 297.190125 
L 399.624687 0 
L 0 0 
z
" style="fill: #ffffff"/>
  </g>
  <g id="axes_1">
   <g id="patch_2">
    <path d="M 35.304688 273.312 
L 392.424688 273.312 
L 392.424688 7.2 
L 35.304688 7.2 
z
" style="fill: #ffffff"/>
   </g>
   <g id="PathCollection_1">
    <defs>
     <path id="me8873fb6a4" d="M 0 1.5 
C 0.397805 1.5 0.77937 1.341951 1.06066 1.06066 
C 1.341951 0.77937 1.5 0.397805 1.5 0 
C 1.5 -0.397805 1.341951 -0.77937 1.06066 -1.06066 
C 0.77937 -1.341951 0.397805 -1.5 0 -1.5 
C -0.397805 -1.5 -0.77937 -1.341951 -1.06066 -1.06066 
C -1.341951 -0.77937 -1.5 -0.397805 -1.5 0 
C -1.5 0.397805 -1.341951 0.77937 -1.06066 1.06066 
C -0.77937 1.341951 -0.397805 1.5 0 1.5 
z
" style="stroke: #ff8c00"/>
    </defs>
    <g clip-path="url(#p7868caa189)">
     <use xlink:href="#me8873fb6a4" x="249.24556" y="64.235191" style="fill: #ff8c00; stroke: #ff8c00"/>
     <use xlink:href="#me8873fb6a4" x="190.989429" y="113.155821" style="fill: #ff8c00; stroke: #ff8c00"/>
     <use xlink:href="#me8873fb6a4" x="217.564922" y="161.278248" style="fill: #ff8c00; stroke: #ff8c00"/>
     <use xlink:href="#me8873fb6a4" x="135.440474" y="204.245759" style="fill: #ff8c00; stroke: #ff8c00"/>
     <use xlink:href="#me8873fb6a4" x="232.567889" y="193.696503" style="fill: #ff8c00; stroke: #ff8c00"/>
     <use xlink:href="#me8873fb6a4" x="188.215939" y="226.383857" style="fill: #ff8c00; stroke: #ff8c00"/>
     <use xlink:href="#me8873fb6a4" x="197.870127" y="172.779441" style="fill: #ff8c00; stroke: #ff8c00"/>
     <use xlink:href="#me8873fb6a4" x="159.830783" y="200.687394" style="fill: #ff8c00; stroke: #ff8c00"/>
     <use xlink:href="#me8873fb6a4" x="145.576864" y="232.455197" style="fill: #ff8c00; stroke: #ff8c00"/>
     <use xlink:href="#me8873fb6a4" x="192.876809" y="144.453998" style="fill: #ff8c00; stroke: #ff8c00"/>
     <use xlink:href="#me8873fb6a4" x="169.13207" y="245.585593" style="fill: #ff8c00; stroke: #ff8c00"/>
     <use xlink:href="#me8873fb6a4" x="195.805117" y="192.177712" style="fill: #ff8c00; stroke: #ff8c00"/>
     <use xlink:href="#me8873fb6a4" x="235.695853" y="182.665489" style="fill: #ff8c00; stroke: #ff8c00"/>
     <use xlink:href="#me8873fb6a4" x="232.434356" y="171.743112" style="fill: #ff8c00; stroke: #ff8c00"/>
     <use xlink:href="#me8873fb6a4" x="212.025248" y="201.699083" style="fill: #ff8c00; stroke: #ff8c00"/>
     <use xlink:href="#me8873fb6a4" x="221.035209" y="177.243037" style="fill: #ff8c00; stroke: #ff8c00"/>
    </g>
   </g>
   <g id="PathCollection_2">
    <defs>
     <path id="m543795dca0" d="M 0 1.5 
C 0.397805 1.5 0.77937 1.341951 1.06066 1.06066 
C 1.341951 0.77937 1.5 0.397805 1.5 0 
C 1.5 -0.397805 1.341951 -0.77937 1.06066 -1.06066 
C 0.77937 -1.341951 0.397805 -1.5 0 -1.5 
C -0.397805 -1.5 -0.77937 -1.341951 -1.06066 -1.06066 
C -1.341951 -0.77937 -1.5 -0.397805 -1.5 0 
C -1.5 0.397805 -1.341951 0.77937 -1.06066 1.06066 
C -0.77937 1.341951 -0.397805 1.5 0 1.5 
z
" style="stroke: #006400"/>
    </defs>
    <g clip-path="url(#p7868caa189)">
     <use xlink:href="#m543795dca0" x="196.396707" y="172.025725" style="fill: #006400; stroke: #006400"/>
     <use xlink:href="#m543795dca0" x="226.914561" y="125.946302" style="fill: #006400; stroke: #006400"/>
     <use xlink:href="#m543795dca0" x="99.599965" y="138.02617" style="fill: #006400; stroke: #006400"/>
     <use xlink:href="#m543795dca0" x="109.79182" y="211.504105" style="fill: #006400; stroke: #006400"/>
     <use xlink:href="#m543795dca0" x="194.843872" y="188.35966" style="fill: #006400; stroke: #006400"/>
     <use xlink:href="#m543795dca0" x="112.446673" y="113.751906" style="fill: #006400; stroke: #006400"/>
     <use xlink:href="#m543795dca0" x="208.221501" y="194.490859" style="fill: #006400; stroke: #006400"/>
     <use xlink:href="#m543795dca0" x="209.397466" y="206.15765" style="fill: #006400; stroke: #006400"/>
     <use xlink:href="#m543795dca0" x="207.270877" y="93.216599" style="fill: #006400; stroke: #006400"/>
     <use xlink:href="#m543795dca0" x="177.757632" y="69.90187" style="fill: #006400; stroke: #006400"/>
     <use xlink:href="#m543795dca0" x="231.036686" y="145.248663" style="fill: #006400; stroke: #006400"/>
     <use xlink:href="#m543795dca0" x="268.076771" y="108.4827" style="fill: #006400; stroke: #006400"/>
     <use xlink:href="#m543795dca0" x="182.324914" y="148.026732" style="fill: #006400; stroke: #006400"/>
     <use xlink:href="#m543795dca0" x="275.890588" y="141.800336" style="fill: #006400; stroke: #006400"/>
     <use xlink:href="#m543795dca0" x="176.280715" y="79.732814" style="fill: #006400; stroke: #006400"/>
     <use xlink:href="#m543795dca0" x="211.449802" y="113.667953" style="fill: #006400; stroke: #006400"/>
    </g>
   </g>
   <g id="PathCollection_3">
    <defs>
     <path id="m42ef011a36" d="M 0 1.5 
C 0.397805 1.5 0.77937 1.341951 1.06066 1.06066 
C 1.341951 0.77937 1.5 0.397805 1.5 0 
C 1.5 -0.397805 1.341951 -0.77937 1.06066 -1.06066 
C 0.77937 -1.341951 0.397805 -1.5 0 -1.5 
C -0.397805 -1.5 -0.77937 -1.341951 -1.06066 -1.06066 
C -1.341951 -0.77937 -1.5 -0.397805 -1.5 0 
C -1.5 0.397805 -1.341951 0.77937 -1.06066 1.06066 
C -0.77937 1.341951 -0.397805 1.5 0 1.5 
z
" style="stroke: #2f4f4f"/>
    </defs>
    <g clip-path="url(#p7868caa189)">
     <use xlink:href="#m42ef011a36" x="214.167868" y="207.37537" style="fill: #2f4f4f; stroke: #2f4f4f"/>
     <use xlink:href="#m42ef011a36" x="285.877143" y="197.018021" style="fill: #2f4f4f; stroke: #2f4f4f"/>
     <use xlink:href="#m42ef011a36" x="277.351236" y="177.800124" style="fill: #2f4f4f; stroke: #2f4f4f"/>
     <use xlink:href="#m42ef011a36" x="260.304792" y="174.125976" style="fill: #2f4f4f; stroke: #2f4f4f"/>
     <use xlink:href="#m42ef011a36" x="324.544607" y="162.942295" style="fill: #2f4f4f; stroke: #2f4f4f"/>
     <use xlink:href="#m42ef011a36" x="287.009234" y="213.19834" style="fill: #2f4f4f; stroke: #2f4f4f"/>
     <use xlink:href="#m42ef011a36" x="313.837132" y="141.637304" style="fill: #2f4f4f; stroke: #2f4f4f"/>
     <use xlink:href="#m42ef011a36" x="332.937269" y="168.919091" style="fill: #2f4f4f; stroke: #2f4f4f"/>
     <use xlink:href="#m42ef011a36" x="339.926651" y="169.489445" style="fill: #2f4f4f; stroke: #2f4f4f"/>
     <use xlink:href="#m42ef011a36" x="212.423872" y="223.637364" style="fill: #2f4f4f; stroke: #2f4f4f"/>
     <use xlink:href="#m42ef011a36" x="313.934281" y="143.006027" style="fill: #2f4f4f; stroke: #2f4f4f"/>
    </g>
   </g>
   <g id="PathCollection_4">
    <defs>
     <path id="ma93f8ca888" d="M 0 1.5 
C 0.397805 1.5 0.77937 1.341951 1.06066 1.06066 
C 1.341951 0.77937 1.5 0.397805 1.5 0 
C 1.5 -0.397805 1.341951 -0.77937 1.06066 -1.06066 
C 0.77937 -1.341951 0.397805 -1.5 0 -1.5 
C -0.397805 -1.5 -0.77937 -1.341951 -1.06066 -1.06066 
C -1.341951 -0.77937 -1.5 -0.397805 -1.5 0 
C -1.5 0.397805 -1.341951 0.77937 -1.06066 1.06066 
C -0.77937 1.341951 -0.397805 1.5 0 1.5 
z
" style="stroke: #00bfff"/>
    </defs>
    <g clip-path="url(#p7868caa189)">
     <use xlink:href="#ma93f8ca888" x="306.075893" y="129.793227" style="fill: #00bfff; stroke: #00bfff"/>
     <use xlink:href="#ma93f8ca888" x="321.037437" y="168.795862" style="fill: #00bfff; stroke: #00bfff"/>
     <use xlink:href="#ma93f8ca888" x="331.565348" y="132.647008" style="fill: #00bfff; stroke: #00bfff"/>
     <use xlink:href="#ma93f8ca888" x="289.019596" y="174.449072" style="fill: #00bfff; stroke: #00bfff"/>
     <use xlink:href="#ma93f8ca888" x="258.925989" y="239.788099" style="fill: #00bfff; stroke: #00bfff"/>
     <use xlink:href="#ma93f8ca888" x="296.733719" y="175.830761" style="fill: #00bfff; stroke: #00bfff"/>
     <use xlink:href="#ma93f8ca888" x="300.800174" y="143.884648" style="fill: #00bfff; stroke: #00bfff"/>
     <use xlink:href="#ma93f8ca888" x="301.989905" y="135.14784" style="fill: #00bfff; stroke: #00bfff"/>
     <use xlink:href="#ma93f8ca888" x="295.127755" y="167.198222" style="fill: #00bfff; stroke: #00bfff"/>
     <use xlink:href="#ma93f8ca888" x="258.824072" y="185.527396" style="fill: #00bfff; stroke: #00bfff"/>
     <use xlink:href="#ma93f8ca888" x="275.091146" y="172.515481" style="fill: #00bfff; stroke: #00bfff"/>
     <use xlink:href="#ma93f8ca888" x="314.776338" y="191.513871" style="fill: #00bfff; stroke: #00bfff"/>
     <use xlink:href="#ma93f8ca888" x="314.38287" y="154.36248" style="fill: #00bfff; stroke: #00bfff"/>
     <use xlink:href="#ma93f8ca888" x="311.083854" y="214.669054" style="fill: #00bfff; stroke: #00bfff"/>
     <use xlink:href="#ma93f8ca888" x="225.475324" y="214.851287" style="fill: #00bfff; stroke: #00bfff"/>
    </g>
   </g>
   <g id="PathCollection_5">
    <defs>
     <path id="m2cf3f3de3e" d="M 0 1.5 
C 0.397805 1.5 0.77937 1.341951 1.06066 1.06066 
C 1.341951 0.77937 1.5 0.397805 1.5 0 
C 1.5 -0.397805 1.341951 -0.77937 1.06066 -1.06066 
C 0.77937 -1.341951 0.397805 -1.5 0 -1.5 
C -0.397805 -1.5 -0.77937 -1.341951 -1.06066 -1.06066 
C -1.341951 -0.77937 -1.5 -0.397805 -1.5 0 
C -1.5 0.397805 -1.341951 0.77937 -1.06066 1.06066 
C -0.77937 1.341951 -0.397805 1.5 0 1.5 
z
" style="stroke: #ffff00"/>
    </defs>
    <g clip-path="url(#p7868caa189)">
     <use xlink:href="#m2cf3f3de3e" x="285.261911" y="170.981716" style="fill: #ffff00; stroke: #ffff00"/>
     <use xlink:href="#m2cf3f3de3e" x="357.868462" y="134.604527" style="fill: #ffff00; stroke: #ffff00"/>
     <use xlink:href="#m2cf3f3de3e" x="314.279573" y="186.118568" style="fill: #ffff00; stroke: #ffff00"/>
     <use xlink:href="#m2cf3f3de3e" x="343.969787" y="156.535909" style="fill: #ffff00; stroke: #ffff00"/>
     <use xlink:href="#m2cf3f3de3e" x="320.098938" y="161.111586" style="fill: #ffff00; stroke: #ffff00"/>
     <use xlink:href="#m2cf3f3de3e" x="208.28755" y="163.596648" style="fill: #ffff00; stroke: #ffff00"/>
     <use xlink:href="#m2cf3f3de3e" x="338.876296" y="198.569553" style="fill: #ffff00; stroke: #ffff00"/>
     <use xlink:href="#m2cf3f3de3e" x="321.459086" y="261.216" style="fill: #ffff00; stroke: #ffff00"/>
     <use xlink:href="#m2cf3f3de3e" x="327.63346" y="167.546558" style="fill: #ffff00; stroke: #ffff00"/>
     <use xlink:href="#m2cf3f3de3e" x="316.09772" y="170.122335" style="fill: #ffff00; stroke: #ffff00"/>
     <use xlink:href="#m2cf3f3de3e" x="340.414478" y="155.96919" style="fill: #ffff00; stroke: #ffff00"/>
     <use xlink:href="#m2cf3f3de3e" x="346.113168" y="149.615408" style="fill: #ffff00; stroke: #ffff00"/>
     <use xlink:href="#m2cf3f3de3e" x="348.876335" y="149.402375" style="fill: #ffff00; stroke: #ffff00"/>
     <use xlink:href="#m2cf3f3de3e" x="312.428309" y="188.453678" style="fill: #ffff00; stroke: #ffff00"/>
     <use xlink:href="#m2cf3f3de3e" x="196.044233" y="249.129147" style="fill: #ffff00; stroke: #ffff00"/>
    </g>
   </g>
   <g id="PathCollection_6">
    <defs>
     <path id="mfed866f4f1" d="M 0 1.5 
C 0.397805 1.5 0.77937 1.341951 1.06066 1.06066 
C 1.341951 0.77937 1.5 0.397805 1.5 0 
C 1.5 -0.397805 1.341951 -0.77937 1.06066 -1.06066 
C 0.77937 -1.341951 0.397805 -1.5 0 -1.5 
C -0.397805 -1.5 -0.77937 -1.341951 -1.06066 -1.06066 
C -1.341951 -0.77937 -1.5 -0.397805 -1.5 0 
C -1.5 0.397805 -1.341951 0.77937 -1.06066 1.06066 
C -0.77937 1.341951 -0.397805 1.5 0 1.5 
z
" style="stroke: #00ffff"/>
    </defs>
    <g clip-path="url(#p7868caa189)">
     <use xlink:href="#mfed866f4f1" x="278.716981" y="205.347096" style="fill: #00ffff; stroke: #00ffff"/>
     <use xlink:href="#mfed866f4f1" x="347.686061" y="178.92783" style="fill: #00ffff; stroke: #00ffff"/>
     <use xlink:href="#mfed866f4f1" x="300.826028" y="160.509951" style="fill: #00ffff; stroke: #00ffff"/>
     <use xlink:href="#mfed866f4f1" x="287.278114" y="166.937395" style="fill: #00ffff; stroke: #00ffff"/>
     <use xlink:href="#mfed866f4f1" x="230.263288" y="223.635496" style="fill: #00ffff; stroke: #00ffff"/>
     <use xlink:href="#mfed866f4f1" x="311.04314" y="173.612568" style="fill: #00ffff; stroke: #00ffff"/>
     <use xlink:href="#mfed866f4f1" x="259.303034" y="227.700723" style="fill: #00ffff; stroke: #00ffff"/>
     <use xlink:href="#mfed866f4f1" x="331.679522" y="191.331568" style="fill: #00ffff; stroke: #00ffff"/>
     <use xlink:href="#mfed866f4f1" x="310.648268" y="137.62559" style="fill: #00ffff; stroke: #00ffff"/>
     <use xlink:href="#mfed866f4f1" x="288.464404" y="158.108848" style="fill: #00ffff; stroke: #00ffff"/>
     <use xlink:href="#mfed866f4f1" x="313.481607" y="174.066035" style="fill: #00ffff; stroke: #00ffff"/>
     <use xlink:href="#mfed866f4f1" x="309.263135" y="197.916954" style="fill: #00ffff; stroke: #00ffff"/>
    </g>
   </g>
   <g id="PathCollection_7">
    <defs>
     <path id="m0e66f8b097" d="M 0 1.5 
C 0.397805 1.5 0.77937 1.341951 1.06066 1.06066 
C 1.341951 0.77937 1.5 0.397805 1.5 0 
C 1.5 -0.397805 1.341951 -0.77937 1.06066 -1.06066 
C 0.77937 -1.341951 0.397805 -1.5 0 -1.5 
C -0.397805 -1.5 -0.77937 -1.341951 -1.06066 -1.06066 
C -1.341951 -0.77937 -1.5 -0.397805 -1.5 0 
C -1.5 0.397805 -1.341951 0.77937 -1.06066 1.06066 
C -0.77937 1.341951 -0.397805 1.5 0 1.5 
z
" style="stroke: #0000ff"/>
    </defs>
    <g clip-path="url(#p7868caa189)">
     <use xlink:href="#m0e66f8b097" x="326.210221" y="109.258093" style="fill: #0000ff; stroke: #0000ff"/>
     <use xlink:href="#m0e66f8b097" x="230.561425" y="167.93632" style="fill: #0000ff; stroke: #0000ff"/>
     <use xlink:href="#m0e66f8b097" x="326.536224" y="130.833022" style="fill: #0000ff; stroke: #0000ff"/>
     <use xlink:href="#m0e66f8b097" x="240.887139" y="220.528568" style="fill: #0000ff; stroke: #0000ff"/>
     <use xlink:href="#m0e66f8b097" x="226.250452" y="206.549674" style="fill: #0000ff; stroke: #0000ff"/>
     <use xlink:href="#m0e66f8b097" x="276.015085" y="160.839921" style="fill: #0000ff; stroke: #0000ff"/>
     <use xlink:href="#m0e66f8b097" x="234.090097" y="203.844195" style="fill: #0000ff; stroke: #0000ff"/>
     <use xlink:href="#m0e66f8b097" x="331.626926" y="177.279357" style="fill: #0000ff; stroke: #0000ff"/>
     <use xlink:href="#m0e66f8b097" x="293.072096" y="147.098094" style="fill: #0000ff; stroke: #0000ff"/>
    </g>
   </g>
   <g id="PathCollection_8">
    <defs>
     <path id="me9581e34ce" d="M 0 1.5 
C 0.397805 1.5 0.77937 1.341951 1.06066 1.06066 
C 1.341951 0.77937 1.5 0.397805 1.5 0 
C 1.5 -0.397805 1.341951 -0.77937 1.06066 -1.06066 
C 0.77937 -1.341951 0.397805 -1.5 0 -1.5 
C -0.397805 -1.5 -0.77937 -1.341951 -1.06066 -1.06066 
C -1.341951 -0.77937 -1.5 -0.397805 -1.5 0 
C -1.5 0.397805 -1.341951 0.77937 -1.06066 1.06066 
C -0.77937 1.341951 -0.397805 1.5 0 1.5 
z
" style="stroke: #dc143c"/>
    </defs>
    <g clip-path="url(#p7868caa189)">
     <use xlink:href="#me9581e34ce" x="292.307338" y="205.257159" style="fill: #dc143c; stroke: #dc143c"/>
     <use xlink:href="#me9581e34ce" x="376.19196" y="198.399202" style="fill: #dc143c; stroke: #dc143c"/>
     <use xlink:href="#me9581e34ce" x="351.406454" y="190.417003" style="fill: #dc143c; stroke: #dc143c"/>
     <use xlink:href="#me9581e34ce" x="372.526906" y="193.741215" style="fill: #dc143c; stroke: #dc143c"/>
     <use xlink:href="#me9581e34ce" x="336.274609" y="239.587084" style="fill: #dc143c; stroke: #dc143c"/>
     <use xlink:href="#me9581e34ce" x="216.083959" y="248.093558" style="fill: #dc143c; stroke: #dc143c"/>
     <use xlink:href="#me9581e34ce" x="373.84836" y="171.970504" style="fill: #dc143c; stroke: #dc143c"/>
     <use xlink:href="#me9581e34ce" x="298.139916" y="132.568635" style="fill: #dc143c; stroke: #dc143c"/>
     <use xlink:href="#me9581e34ce" x="297.903002" y="220.691395" style="fill: #dc143c; stroke: #dc143c"/>
     <use xlink:href="#me9581e34ce" x="317.318013" y="165.203127" style="fill: #dc143c; stroke: #dc143c"/>
     <use xlink:href="#me9581e34ce" x="283.174404" y="191.238549" style="fill: #dc143c; stroke: #dc143c"/>
     <use xlink:href="#me9581e34ce" x="252.031216" y="203.921249" style="fill: #dc143c; stroke: #dc143c"/>
     <use xlink:href="#me9581e34ce" x="361.395382" y="223.427802" style="fill: #dc143c; stroke: #dc143c"/>
     <use xlink:href="#me9581e34ce" x="346.040025" y="168.204779" style="fill: #dc143c; stroke: #dc143c"/>
     <use xlink:href="#me9581e34ce" x="284.1572" y="113.846987" style="fill: #dc143c; stroke: #dc143c"/>
     <use xlink:href="#me9581e34ce" x="336.717068" y="199.324239" style="fill: #dc143c; stroke: #dc143c"/>
     <use xlink:href="#me9581e34ce" x="263.670191" y="187.626614" style="fill: #dc143c; stroke: #dc143c"/>
     <use xlink:href="#me9581e34ce" x="345.975232" y="205.524983" style="fill: #dc143c; stroke: #dc143c"/>
    </g>
   </g>
   <g id="PathCollection_9">
    <defs>
     <path id="mf2a7e83413" d="M 0 1.5 
C 0.397805 1.5 0.77937 1.341951 1.06066 1.06066 
C 1.341951 0.77937 1.5 0.397805 1.5 0 
C 1.5 -0.397805 1.341951 -0.77937 1.06066 -1.06066 
C 0.77937 -1.341951 0.397805 -1.5 0 -1.5 
C -0.397805 -1.5 -0.77937 -1.341951 -1.06066 -1.06066 
C -1.341951 -0.77937 -1.5 -0.397805 -1.5 0 
C -1.5 0.397805 -1.341951 0.77937 -1.06066 1.06066 
C -0.77937 1.341951 -0.397805 1.5 0 1.5 
z
" style="stroke: #ffe4c4"/>
    </defs>
    <g clip-path="url(#p7868caa189)">
     <use xlink:href="#mf2a7e83413" x="168.588134" y="198.7836" style="fill: #ffe4c4; stroke: #ffe4c4"/>
     <use xlink:href="#mf2a7e83413" x="187.176788" y="227.879215" style="fill: #ffe4c4; stroke: #ffe4c4"/>
     <use xlink:href="#mf2a7e83413" x="188.393459" y="183.1318" style="fill: #ffe4c4; stroke: #ffe4c4"/>
     <use xlink:href="#mf2a7e83413" x="246.13138" y="144.793484" style="fill: #ffe4c4; stroke: #ffe4c4"/>
     <use xlink:href="#mf2a7e83413" x="225.909946" y="208.620338" style="fill: #ffe4c4; stroke: #ffe4c4"/>
     <use xlink:href="#mf2a7e83413" x="153.909297" y="167.87897" style="fill: #ffe4c4; stroke: #ffe4c4"/>
     <use xlink:href="#mf2a7e83413" x="161.468763" y="209.399892" style="fill: #ffe4c4; stroke: #ffe4c4"/>
     <use xlink:href="#mf2a7e83413" x="215.516232" y="161.167728" style="fill: #ffe4c4; stroke: #ffe4c4"/>
     <use xlink:href="#mf2a7e83413" x="90.979236" y="174.91638" style="fill: #ffe4c4; stroke: #ffe4c4"/>
     <use xlink:href="#mf2a7e83413" x="194.888326" y="208.346456" style="fill: #ffe4c4; stroke: #ffe4c4"/>
     <use xlink:href="#mf2a7e83413" x="162.263495" y="126.832062" style="fill: #ffe4c4; stroke: #ffe4c4"/>
     <use xlink:href="#mf2a7e83413" x="220.856125" y="168.050854" style="fill: #ffe4c4; stroke: #ffe4c4"/>
     <use xlink:href="#mf2a7e83413" x="258.337725" y="173.294769" style="fill: #ffe4c4; stroke: #ffe4c4"/>
     <use xlink:href="#mf2a7e83413" x="156.29814" y="199.949341" style="fill: #ffe4c4; stroke: #ffe4c4"/>
     <use xlink:href="#mf2a7e83413" x="152.575351" y="141.549192" style="fill: #ffe4c4; stroke: #ffe4c4"/>
     <use xlink:href="#mf2a7e83413" x="211.155563" y="173.750682" style="fill: #ffe4c4; stroke: #ffe4c4"/>
    </g>
   </g>
   <g id="PathCollection_10">
    <defs>
     <path id="m5d92b9deb8" d="M -2.99994 2.99994 
L 3.00006 2.99994 
L 3.00006 -3.00006 
L -2.99994 -3.00006 
z
" style="stroke: #000000"/>
    </defs>
    <g clip-path="url(#p7868caa189)">
     <use xlink:href="#m5d92b9deb8" x="141.298375" y="176.868813" style="stroke: #000000"/>
     <use xlink:href="#m5d92b9deb8" x="136.755689" y="222.665098" style="stroke: #000000"/>
     <use xlink:href="#m5d92b9deb8" x="172.861368" y="178.309689" style="stroke: #000000"/>
     <use xlink:href="#m5d92b9deb8" x="174.355207" y="52.747399" style="stroke: #000000"/>
     <use xlink:href="#m5d92b9deb8" x="158.01868" y="186.732437" style="stroke: #000000"/>
     <use xlink:href="#m5d92b9deb8" x="231.724598" y="186.427306" style="stroke: #000000"/>
     <use xlink:href="#m5d92b9deb8" x="227.969856" y="191.501136" style="stroke: #000000"/>
     <use xlink:href="#m5d92b9deb8" x="128.477988" y="194.338733" style="stroke: #000000"/>
     <use xlink:href="#m5d92b9deb8" x="175.752117" y="96.248914" style="stroke: #000000"/>
     <use xlink:href="#m5d92b9deb8" x="222.18766" y="125.84467" style="stroke: #000000"/>
     <use xlink:href="#m5d92b9deb8" x="150.550568" y="173.22961" style="stroke: #000000"/>
     <use xlink:href="#m5d92b9deb8" x="147.059925" y="146.239921" style="stroke: #000000"/>
     <use xlink:href="#m5d92b9deb8" x="180.156035" y="130.423182" style="stroke: #000000"/>
     <use xlink:href="#m5d92b9deb8" x="214.104029" y="182.424198" style="stroke: #000000"/>
     <use xlink:href="#m5d92b9deb8" x="70.638394" y="160.042729" style="stroke: #000000"/>
     <use xlink:href="#m5d92b9deb8" x="172.302091" y="222.80467" style="stroke: #000000"/>
     <use xlink:href="#m5d92b9deb8" x="135.572573" y="196.181331" style="stroke: #000000"/>
     <use xlink:href="#m5d92b9deb8" x="248.443746" y="20.236419" style="stroke: #000000"/>
     <use xlink:href="#m5d92b9deb8" x="215.049227" y="19.296" style="stroke: #000000"/>
     <use xlink:href="#m5d92b9deb8" x="134.431689" y="95.244019" style="stroke: #000000"/>
     <use xlink:href="#m5d92b9deb8" x="263.613729" y="122.815663" style="stroke: #000000"/>
     <use xlink:href="#m5d92b9deb8" x="153.835077" y="147.860411" style="stroke: #000000"/>
     <use xlink:href="#m5d92b9deb8" x="153.567849" y="180.703262" style="stroke: #000000"/>
     <use xlink:href="#m5d92b9deb8" x="182.580297" y="102.957077" style="stroke: #000000"/>
     <use xlink:href="#m5d92b9deb8" x="181.974916" y="161.119441" style="stroke: #000000"/>
     <use xlink:href="#m5d92b9deb8" x="206.903966" y="145.1053" style="stroke: #000000"/>
     <use xlink:href="#m5d92b9deb8" x="215.191178" y="182.581694" style="stroke: #000000"/>
     <use xlink:href="#m5d92b9deb8" x="236.605361" y="162.689437" style="stroke: #000000"/>
     <use xlink:href="#m5d92b9deb8" x="185.36589" y="166.599143" style="stroke: #000000"/>
     <use xlink:href="#m5d92b9deb8" x="112.933486" y="168.133339" style="stroke: #000000"/>
     <use xlink:href="#m5d92b9deb8" x="92.797781" y="216.038639" style="stroke: #000000"/>
     <use xlink:href="#m5d92b9deb8" x="182.470859" y="113.5365" style="stroke: #000000"/>
     <use xlink:href="#m5d92b9deb8" x="170.12149" y="176.920018" style="stroke: #000000"/>
     <use xlink:href="#m5d92b9deb8" x="158.246982" y="175.7391" style="stroke: #000000"/>
     <use xlink:href="#m5d92b9deb8" x="184.28087" y="145.481993" style="stroke: #000000"/>
     <use xlink:href="#m5d92b9deb8" x="142.50624" y="112.139294" style="stroke: #000000"/>
     <use xlink:href="#m5d92b9deb8" x="108.814155" y="216.559413" style="stroke: #000000"/>
     <use xlink:href="#m5d92b9deb8" x="180.156035" y="130.423182" style="stroke: #000000"/>
     <use xlink:href="#m5d92b9deb8" x="171.725459" y="101.651287" style="stroke: #000000"/>
     <use xlink:href="#m5d92b9deb8" x="202.909261" y="153.79601" style="stroke: #000000"/>
     <use xlink:href="#m5d92b9deb8" x="159.369067" y="164.130972" style="stroke: #000000"/>
     <use xlink:href="#m5d92b9deb8" x="148.743935" y="197.054421" style="stroke: #000000"/>
     <use xlink:href="#m5d92b9deb8" x="186.965096" y="176.221646" style="stroke: #000000"/>
     <use xlink:href="#m5d92b9deb8" x="173.548548" y="183.748096" style="stroke: #000000"/>
     <use xlink:href="#m5d92b9deb8" x="209.88966" y="236.491127" style="stroke: #000000"/>
     <use xlink:href="#m5d92b9deb8" x="146.90026" y="160.009051" style="stroke: #000000"/>
     <use xlink:href="#m5d92b9deb8" x="132.26456" y="174.657195" style="stroke: #000000"/>
     <use xlink:href="#m5d92b9deb8" x="140.886728" y="250.252302" style="stroke: #000000"/>
     <use xlink:href="#m5d92b9deb8" x="183.821167" y="168.988536" style="stroke: #000000"/>
     <use xlink:href="#m5d92b9deb8" x="260.639461" y="107.222745" style="stroke: #000000"/>
     <use xlink:href="#m5d92b9deb8" x="220.83572" y="127.777703" style="stroke: #000000"/>
     <use xlink:href="#m5d92b9deb8" x="103.395276" y="123.386927" style="stroke: #000000"/>
     <use xlink:href="#m5d92b9deb8" x="137.540369" y="189.043131" style="stroke: #000000"/>
     <use xlink:href="#m5d92b9deb8" x="118.174965" y="171.016575" style="stroke: #000000"/>
     <use xlink:href="#m5d92b9deb8" x="204.138549" y="83.235632" style="stroke: #000000"/>
     <use xlink:href="#m5d92b9deb8" x="230.528929" y="89.723902" style="stroke: #000000"/>
     <use xlink:href="#m5d92b9deb8" x="142.700841" y="207.539363" style="stroke: #000000"/>
     <use xlink:href="#m5d92b9deb8" x="190.993859" y="110.157507" style="stroke: #000000"/>
     <use xlink:href="#m5d92b9deb8" x="135.370777" y="206.758808" style="stroke: #000000"/>
     <use xlink:href="#m5d92b9deb8" x="172.659517" y="205.149402" style="stroke: #000000"/>
     <use xlink:href="#m5d92b9deb8" x="218.610735" y="117.550806" style="stroke: #000000"/>
     <use xlink:href="#m5d92b9deb8" x="154.231202" y="186.068741" style="stroke: #000000"/>
     <use xlink:href="#m5d92b9deb8" x="203.378742" y="226.457262" style="stroke: #000000"/>
     <use xlink:href="#m5d92b9deb8" x="149.170587" y="82.127313" style="stroke: #000000"/>
    </g>
   </g>
   <g id="PathCollection_11">
    <defs>
     <path id="m622f83586d" d="M -3 -0 
L 3 3 
L 3 -3 
z
" style="stroke: #ff8c00"/>
    </defs>
    <g clip-path="url(#p7868caa189)">
     <use xlink:href="#m622f83586d" x="171.886337" y="198.338065" style="fill: #ff8c00; stroke: #ff8c00"/>
     <use xlink:href="#m622f83586d" x="145.514" y="155.421768" style="fill: #ff8c00; stroke: #ff8c00"/>
     <use xlink:href="#m622f83586d" x="174.367387" y="154.276122" style="fill: #ff8c00; stroke: #ff8c00"/>
     <use xlink:href="#m622f83586d" x="192.959102" y="215.789134" style="fill: #ff8c00; stroke: #ff8c00"/>
     <use xlink:href="#m622f83586d" x="133.620439" y="170.987427" style="fill: #ff8c00; stroke: #ff8c00"/>
     <use xlink:href="#m622f83586d" x="166.713932" y="129.20675" style="fill: #ff8c00; stroke: #ff8c00"/>
     <use xlink:href="#m622f83586d" x="156.155971" y="153.017509" style="fill: #ff8c00; stroke: #ff8c00"/>
     <use xlink:href="#m622f83586d" x="110.214972" y="157.74067" style="fill: #ff8c00; stroke: #ff8c00"/>
     <use xlink:href="#m622f83586d" x="199.800555" y="90.925415" style="fill: #ff8c00; stroke: #ff8c00"/>
     <use xlink:href="#m622f83586d" x="165.009452" y="112.5721" style="fill: #ff8c00; stroke: #ff8c00"/>
     <use xlink:href="#m622f83586d" x="177.82554" y="151.952636" style="fill: #ff8c00; stroke: #ff8c00"/>
     <use xlink:href="#m622f83586d" x="149.470723" y="199.505746" style="fill: #ff8c00; stroke: #ff8c00"/>
     <use xlink:href="#m622f83586d" x="106.713418" y="133.034845" style="fill: #ff8c00; stroke: #ff8c00"/>
     <use xlink:href="#m622f83586d" x="145.177537" y="194.622751" style="fill: #ff8c00; stroke: #ff8c00"/>
     <use xlink:href="#m622f83586d" x="111.816472" y="234.75705" style="fill: #ff8c00; stroke: #ff8c00"/>
     <use xlink:href="#m622f83586d" x="143.908099" y="227.196704" style="fill: #ff8c00; stroke: #ff8c00"/>
     <use xlink:href="#m622f83586d" x="122.044052" y="231.186735" style="fill: #ff8c00; stroke: #ff8c00"/>
     <use xlink:href="#m622f83586d" x="97.358684" y="190.257278" style="fill: #ff8c00; stroke: #ff8c00"/>
     <use xlink:href="#m622f83586d" x="113.091054" y="144.995653" style="fill: #ff8c00; stroke: #ff8c00"/>
     <use xlink:href="#m622f83586d" x="105.485454" y="194.684163" style="fill: #ff8c00; stroke: #ff8c00"/>
     <use xlink:href="#m622f83586d" x="161.438209" y="133.546633" style="fill: #ff8c00; stroke: #ff8c00"/>
     <use xlink:href="#m622f83586d" x="174.371851" y="145.853339" style="fill: #ff8c00; stroke: #ff8c00"/>
     <use xlink:href="#m622f83586d" x="148.024188" y="86.955703" style="fill: #ff8c00; stroke: #ff8c00"/>
     <use xlink:href="#m622f83586d" x="157.851979" y="87.517143" style="fill: #ff8c00; stroke: #ff8c00"/>
     <use xlink:href="#m622f83586d" x="153.32432" y="221.301192" style="fill: #ff8c00; stroke: #ff8c00"/>
     <use xlink:href="#m622f83586d" x="142.735733" y="163.754652" style="fill: #ff8c00; stroke: #ff8c00"/>
     <use xlink:href="#m622f83586d" x="169.178874" y="108.14516" style="fill: #ff8c00; stroke: #ff8c00"/>
     <use xlink:href="#m622f83586d" x="100.581198" y="227.114969" style="fill: #ff8c00; stroke: #ff8c00"/>
     <use xlink:href="#m622f83586d" x="180.898949" y="186.095315" style="fill: #ff8c00; stroke: #ff8c00"/>
     <use xlink:href="#m622f83586d" x="52.790245" y="198.591387" style="fill: #ff8c00; stroke: #ff8c00"/>
     <use xlink:href="#m622f83586d" x="153.091228" y="154.391689" style="fill: #ff8c00; stroke: #ff8c00"/>
     <use xlink:href="#m622f83586d" x="51.537415" y="241.762462" style="fill: #ff8c00; stroke: #ff8c00"/>
     <use xlink:href="#m622f83586d" x="165.476755" y="122.141481" style="fill: #ff8c00; stroke: #ff8c00"/>
     <use xlink:href="#m622f83586d" x="196.025442" y="75.539054" style="fill: #ff8c00; stroke: #ff8c00"/>
     <use xlink:href="#m622f83586d" x="166.067092" y="132.472155" style="fill: #ff8c00; stroke: #ff8c00"/>
     <use xlink:href="#m622f83586d" x="81.091605" y="154.464435" style="fill: #ff8c00; stroke: #ff8c00"/>
     <use xlink:href="#m622f83586d" x="142.938887" y="174.847618" style="fill: #ff8c00; stroke: #ff8c00"/>
     <use xlink:href="#m622f83586d" x="157.974149" y="172.865648" style="fill: #ff8c00; stroke: #ff8c00"/>
     <use xlink:href="#m622f83586d" x="172.577346" y="197.459567" style="fill: #ff8c00; stroke: #ff8c00"/>
     <use xlink:href="#m622f83586d" x="119.102743" y="136.637494" style="fill: #ff8c00; stroke: #ff8c00"/>
     <use xlink:href="#m622f83586d" x="194.257849" y="102.33794" style="fill: #ff8c00; stroke: #ff8c00"/>
     <use xlink:href="#m622f83586d" x="93.405297" y="164.644644" style="fill: #ff8c00; stroke: #ff8c00"/>
     <use xlink:href="#m622f83586d" x="87.767009" y="205.992232" style="fill: #ff8c00; stroke: #ff8c00"/>
     <use xlink:href="#m622f83586d" x="90.141281" y="166.308536" style="fill: #ff8c00; stroke: #ff8c00"/>
     <use xlink:href="#m622f83586d" x="111.707089" y="184.619277" style="fill: #ff8c00; stroke: #ff8c00"/>
     <use xlink:href="#m622f83586d" x="58.153269" y="149.971578" style="fill: #ff8c00; stroke: #ff8c00"/>
     <use xlink:href="#m622f83586d" x="188.736457" y="172.469294" style="fill: #ff8c00; stroke: #ff8c00"/>
     <use xlink:href="#m622f83586d" x="166.428471" y="128.387545" style="fill: #ff8c00; stroke: #ff8c00"/>
     <use xlink:href="#m622f83586d" x="180.578585" y="186.024465" style="fill: #ff8c00; stroke: #ff8c00"/>
     <use xlink:href="#m622f83586d" x="202.502112" y="148.479947" style="fill: #ff8c00; stroke: #ff8c00"/>
     <use xlink:href="#m622f83586d" x="109.248074" y="132.147441" style="fill: #ff8c00; stroke: #ff8c00"/>
     <use xlink:href="#m622f83586d" x="175.004157" y="184.236054" style="fill: #ff8c00; stroke: #ff8c00"/>
     <use xlink:href="#m622f83586d" x="123.846633" y="213.803669" style="fill: #ff8c00; stroke: #ff8c00"/>
     <use xlink:href="#m622f83586d" x="238.654108" y="96.814408" style="fill: #ff8c00; stroke: #ff8c00"/>
     <use xlink:href="#m622f83586d" x="176.589372" y="119.030598" style="fill: #ff8c00; stroke: #ff8c00"/>
     <use xlink:href="#m622f83586d" x="138.913083" y="133.937054" style="fill: #ff8c00; stroke: #ff8c00"/>
     <use xlink:href="#m622f83586d" x="234.579446" y="178.925741" style="fill: #ff8c00; stroke: #ff8c00"/>
     <use xlink:href="#m622f83586d" x="110.60576" y="154.614565" style="fill: #ff8c00; stroke: #ff8c00"/>
     <use xlink:href="#m622f83586d" x="78.894135" y="147.010701" style="fill: #ff8c00; stroke: #ff8c00"/>
     <use xlink:href="#m622f83586d" x="184.808793" y="184.65322" style="fill: #ff8c00; stroke: #ff8c00"/>
     <use xlink:href="#m622f83586d" x="154.086004" y="171.496374" style="fill: #ff8c00; stroke: #ff8c00"/>
     <use xlink:href="#m622f83586d" x="189.530592" y="199.599663" style="fill: #ff8c00; stroke: #ff8c00"/>
     <use xlink:href="#m622f83586d" x="140.727666" y="190.302051" style="fill: #ff8c00; stroke: #ff8c00"/>
     <use xlink:href="#m622f83586d" x="114.021177" y="207.166143" style="fill: #ff8c00; stroke: #ff8c00"/>
    </g>
   </g>
   <g id="matplotlib.axis_1">
    <g id="xtick_1">
     <g id="line2d_1">
      <defs>
       <path id="m326860cb48" d="M 0 0 
L 0 3.5 
" style="stroke: #000000; stroke-width: 0.8"/>
      </defs>
      <g>
       <use xlink:href="#m326860cb48" x="66.890933" y="273.312" style="stroke: #000000; stroke-width: 0.8"/>
      </g>
     </g>
     <g id="text_1">
      <!-- −15 -->
      <g transform="translate(56.338589 287.910437) scale(0.1 -0.1)">
       <defs>
        <path id="DejaVuSans-2212" d="M 678 2272 
L 4684 2272 
L 4684 1741 
L 678 1741 
L 678 2272 
z
" transform="scale(0.015625)"/>
        <path id="DejaVuSans-31" d="M 794 531 
L 1825 531 
L 1825 4091 
L 703 3866 
L 703 4441 
L 1819 4666 
L 2450 4666 
L 2450 531 
L 3481 531 
L 3481 0 
L 794 0 
L 794 531 
z
" transform="scale(0.015625)"/>
        <path id="DejaVuSans-35" d="M 691 4666 
L 3169 4666 
L 3169 4134 
L 1269 4134 
L 1269 2991 
Q 1406 3038 1543 3061 
Q 1681 3084 1819 3084 
Q 2600 3084 3056 2656 
Q 3513 2228 3513 1497 
Q 3513 744 3044 326 
Q 2575 -91 1722 -91 
Q 1428 -91 1123 -41 
Q 819 9 494 109 
L 494 744 
Q 775 591 1075 516 
Q 1375 441 1709 441 
Q 2250 441 2565 725 
Q 2881 1009 2881 1497 
Q 2881 1984 2565 2268 
Q 2250 2553 1709 2553 
Q 1456 2553 1204 2497 
Q 953 2441 691 2322 
L 691 4666 
z
" transform="scale(0.015625)"/>
       </defs>
       <use xlink:href="#DejaVuSans-2212"/>
       <use xlink:href="#DejaVuSans-31" x="83.789062"/>
       <use xlink:href="#DejaVuSans-35" x="147.412109"/>
      </g>
     </g>
    </g>
    <g id="xtick_2">
     <g id="line2d_2">
      <g>
       <use xlink:href="#m326860cb48" x="114.368588" y="273.312" style="stroke: #000000; stroke-width: 0.8"/>
      </g>
     </g>
     <g id="text_2">
      <!-- −10 -->
      <g transform="translate(103.816244 287.910437) scale(0.1 -0.1)">
       <defs>
        <path id="DejaVuSans-30" d="M 2034 4250 
Q 1547 4250 1301 3770 
Q 1056 3291 1056 2328 
Q 1056 1369 1301 889 
Q 1547 409 2034 409 
Q 2525 409 2770 889 
Q 3016 1369 3016 2328 
Q 3016 3291 2770 3770 
Q 2525 4250 2034 4250 
z
M 2034 4750 
Q 2819 4750 3233 4129 
Q 3647 3509 3647 2328 
Q 3647 1150 3233 529 
Q 2819 -91 2034 -91 
Q 1250 -91 836 529 
Q 422 1150 422 2328 
Q 422 3509 836 4129 
Q 1250 4750 2034 4750 
z
" transform="scale(0.015625)"/>
       </defs>
       <use xlink:href="#DejaVuSans-2212"/>
       <use xlink:href="#DejaVuSans-31" x="83.789062"/>
       <use xlink:href="#DejaVuSans-30" x="147.412109"/>
      </g>
     </g>
    </g>
    <g id="xtick_3">
     <g id="line2d_3">
      <g>
       <use xlink:href="#m326860cb48" x="161.846243" y="273.312" style="stroke: #000000; stroke-width: 0.8"/>
      </g>
     </g>
     <g id="text_3">
      <!-- −5 -->
      <g transform="translate(154.475149 287.910437) scale(0.1 -0.1)">
       <use xlink:href="#DejaVuSans-2212"/>
       <use xlink:href="#DejaVuSans-35" x="83.789062"/>
      </g>
     </g>
    </g>
    <g id="xtick_4">
     <g id="line2d_4">
      <g>
       <use xlink:href="#m326860cb48" x="209.323898" y="273.312" style="stroke: #000000; stroke-width: 0.8"/>
      </g>
     </g>
     <g id="text_4">
      <!-- 0 -->
      <g transform="translate(206.142648 287.910437) scale(0.1 -0.1)">
       <use xlink:href="#DejaVuSans-30"/>
      </g>
     </g>
    </g>
    <g id="xtick_5">
     <g id="line2d_5">
      <g>
       <use xlink:href="#m326860cb48" x="256.801553" y="273.312" style="stroke: #000000; stroke-width: 0.8"/>
      </g>
     </g>
     <g id="text_5">
      <!-- 5 -->
      <g transform="translate(253.620303 287.910437) scale(0.1 -0.1)">
       <use xlink:href="#DejaVuSans-35"/>
      </g>
     </g>
    </g>
    <g id="xtick_6">
     <g id="line2d_6">
      <g>
       <use xlink:href="#m326860cb48" x="304.279208" y="273.312" style="stroke: #000000; stroke-width: 0.8"/>
      </g>
     </g>
     <g id="text_6">
      <!-- 10 -->
      <g transform="translate(297.916708 287.910437) scale(0.1 -0.1)">
       <use xlink:href="#DejaVuSans-31"/>
       <use xlink:href="#DejaVuSans-30" x="63.623047"/>
      </g>
     </g>
    </g>
    <g id="xtick_7">
     <g id="line2d_7">
      <g>
       <use xlink:href="#m326860cb48" x="351.756862" y="273.312" style="stroke: #000000; stroke-width: 0.8"/>
      </g>
     </g>
     <g id="text_7">
      <!-- 15 -->
      <g transform="translate(345.394362 287.910437) scale(0.1 -0.1)">
       <use xlink:href="#DejaVuSans-31"/>
       <use xlink:href="#DejaVuSans-35" x="63.623047"/>
      </g>
     </g>
    </g>
   </g>
   <g id="matplotlib.axis_2">
    <g id="ytick_1">
     <g id="line2d_8">
      <defs>
       <path id="m9d821fd4c2" d="M 0 0 
L -3.5 0 
" style="stroke: #000000; stroke-width: 0.8"/>
      </defs>
      <g>
       <use xlink:href="#m9d821fd4c2" x="35.304688" y="267.80127" style="stroke: #000000; stroke-width: 0.8"/>
      </g>
     </g>
     <g id="text_8">
      <!-- −15 -->
      <g transform="translate(7.2 271.600489) scale(0.1 -0.1)">
       <use xlink:href="#DejaVuSans-2212"/>
       <use xlink:href="#DejaVuSans-31" x="83.789062"/>
       <use xlink:href="#DejaVuSans-35" x="147.412109"/>
      </g>
     </g>
    </g>
    <g id="ytick_2">
     <g id="line2d_9">
      <g>
       <use xlink:href="#m9d821fd4c2" x="35.304688" y="234.387727" style="stroke: #000000; stroke-width: 0.8"/>
      </g>
     </g>
     <g id="text_9">
      <!-- −10 -->
      <g transform="translate(7.2 238.186946) scale(0.1 -0.1)">
       <use xlink:href="#DejaVuSans-2212"/>
       <use xlink:href="#DejaVuSans-31" x="83.789062"/>
       <use xlink:href="#DejaVuSans-30" x="147.412109"/>
      </g>
     </g>
    </g>
    <g id="ytick_3">
     <g id="line2d_10">
      <g>
       <use xlink:href="#m9d821fd4c2" x="35.304688" y="200.974184" style="stroke: #000000; stroke-width: 0.8"/>
      </g>
     </g>
     <g id="text_10">
      <!-- −5 -->
      <g transform="translate(13.5625 204.773403) scale(0.1 -0.1)">
       <use xlink:href="#DejaVuSans-2212"/>
       <use xlink:href="#DejaVuSans-35" x="83.789062"/>
      </g>
     </g>
    </g>
    <g id="ytick_4">
     <g id="line2d_11">
      <g>
       <use xlink:href="#m9d821fd4c2" x="35.304688" y="167.560642" style="stroke: #000000; stroke-width: 0.8"/>
      </g>
     </g>
     <g id="text_11">
      <!-- 0 -->
      <g transform="translate(21.942187 171.359861) scale(0.1 -0.1)">
       <use xlink:href="#DejaVuSans-30"/>
      </g>
     </g>
    </g>
    <g id="ytick_5">
     <g id="line2d_12">
      <g>
       <use xlink:href="#m9d821fd4c2" x="35.304688" y="134.147099" style="stroke: #000000; stroke-width: 0.8"/>
      </g>
     </g>
     <g id="text_12">
      <!-- 5 -->
      <g transform="translate(21.942187 137.946318) scale(0.1 -0.1)">
       <use xlink:href="#DejaVuSans-35"/>
      </g>
     </g>
    </g>
    <g id="ytick_6">
     <g id="line2d_13">
      <g>
       <use xlink:href="#m9d821fd4c2" x="35.304688" y="100.733557" style="stroke: #000000; stroke-width: 0.8"/>
      </g>
     </g>
     <g id="text_13">
      <!-- 10 -->
      <g transform="translate(15.579687 104.532775) scale(0.1 -0.1)">
       <use xlink:href="#DejaVuSans-31"/>
       <use xlink:href="#DejaVuSans-30" x="63.623047"/>
      </g>
     </g>
    </g>
    <g id="ytick_7">
     <g id="line2d_14">
      <g>
       <use xlink:href="#m9d821fd4c2" x="35.304688" y="67.320014" style="stroke: #000000; stroke-width: 0.8"/>
      </g>
     </g>
     <g id="text_14">
      <!-- 15 -->
      <g transform="translate(15.579687 71.119233) scale(0.1 -0.1)">
       <use xlink:href="#DejaVuSans-31"/>
       <use xlink:href="#DejaVuSans-35" x="63.623047"/>
      </g>
     </g>
    </g>
    <g id="ytick_8">
     <g id="line2d_15">
      <g>
       <use xlink:href="#m9d821fd4c2" x="35.304688" y="33.906471" style="stroke: #000000; stroke-width: 0.8"/>
      </g>
     </g>
     <g id="text_15">
      <!-- 20 -->
      <g transform="translate(15.579687 37.70569) scale(0.1 -0.1)">
       <defs>
        <path id="DejaVuSans-32" d="M 1228 531 
L 3431 531 
L 3431 0 
L 469 0 
L 469 531 
Q 828 903 1448 1529 
Q 2069 2156 2228 2338 
Q 2531 2678 2651 2914 
Q 2772 3150 2772 3378 
Q 2772 3750 2511 3984 
Q 2250 4219 1831 4219 
Q 1534 4219 1204 4116 
Q 875 4013 500 3803 
L 500 4441 
Q 881 4594 1212 4672 
Q 1544 4750 1819 4750 
Q 2544 4750 2975 4387 
Q 3406 4025 3406 3419 
Q 3406 3131 3298 2873 
Q 3191 2616 2906 2266 
Q 2828 2175 2409 1742 
Q 1991 1309 1228 531 
z
" transform="scale(0.015625)"/>
       </defs>
       <use xlink:href="#DejaVuSans-32"/>
       <use xlink:href="#DejaVuSans-30" x="63.623047"/>
      </g>
     </g>
    </g>
   </g>
   <g id="patch_3">
    <path d="M 35.304688 273.312 
L 35.304688 7.2 
" style="fill: none; stroke: #000000; stroke-width: 0.8; stroke-linejoin: miter; stroke-linecap: square"/>
   </g>
   <g id="patch_4">
    <path d="M 392.424688 273.312 
L 392.424688 7.2 
" style="fill: none; stroke: #000000; stroke-width: 0.8; stroke-linejoin: miter; stroke-linecap: square"/>
   </g>
   <g id="patch_5">
    <path d="M 35.304688 273.312 
L 392.424688 273.312 
" style="fill: none; stroke: #000000; stroke-width: 0.8; stroke-linejoin: miter; stroke-linecap: square"/>
   </g>
   <g id="patch_6">
    <path d="M 35.304688 7.2 
L 392.424688 7.2 
" style="fill: none; stroke: #000000; stroke-width: 0.8; stroke-linejoin: miter; stroke-linecap: square"/>
   </g>
  </g>
 </g>
 <defs>
  <clipPath id="p7868caa189">
   <rect x="35.304688" y="7.2" width="357.12" height="266.112"/>
  </clipPath>
 </defs>
</svg>
