<?xml version="1.0" encoding="utf-8" standalone="no"?>
<!DOCTYPE svg PUBLIC "-//W3C//DTD SVG 1.1//EN"
  "http://www.w3.org/Graphics/SVG/1.1/DTD/svg11.dtd">
<svg xmlns:xlink="http://www.w3.org/1999/xlink" width="399.624687pt" height="297.190125pt" viewBox="0 0 399.624687 297.190125" xmlns="http://www.w3.org/2000/svg" version="1.1">
 <metadata>
  <rdf:RDF xmlns:dc="http://purl.org/dc/elements/1.1/" xmlns:cc="http://creativecommons.org/ns#" xmlns:rdf="http://www.w3.org/1999/02/22-rdf-syntax-ns#">
   <cc:Work>
    <dc:type rdf:resource="http://purl.org/dc/dcmitype/StillImage"/>
    <dc:date>2023-11-13T00:04:54.943708</dc:date>
    <dc:format>image/svg+xml</dc:format>
    <dc:creator>
     <cc:Agent>
      <dc:title>Matplotlib v3.8.0, https://matplotlib.org/</dc:title>
     </cc:Agent>
    </dc:creator>
   </cc:Work>
  </rdf:RDF>
 </metadata>
 <defs>
  <style type="text/css">*{stroke-linejoin: round; stroke-linecap: butt}</style>
 </defs>
 <g id="figure_1">
  <g id="patch_1">
   <path d="M 0 297.190125 
L 399.624687 297.190125 
L 399.624687 0 
L 0 0 
z
" style="fill: #ffffff"/>
  </g>
  <g id="axes_1">
   <g id="patch_2">
    <path d="M 35.304688 273.312 
L 392.424688 273.312 
L 392.424688 7.2 
L 35.304688 7.2 
z
" style="fill: #ffffff"/>
   </g>
   <g id="PathCollection_1">
    <defs>
     <path id="m758b09dc44" d="M 0 1.5 
C 0.397805 1.5 0.77937 1.341951 1.06066 1.06066 
C 1.341951 0.77937 1.5 0.397805 1.5 0 
C 1.5 -0.397805 1.341951 -0.77937 1.06066 -1.06066 
C 0.77937 -1.341951 0.397805 -1.5 0 -1.5 
C -0.397805 -1.5 -0.77937 -1.341951 -1.06066 -1.06066 
C -1.341951 -0.77937 -1.5 -0.397805 -1.5 0 
C -1.5 0.397805 -1.341951 0.77937 -1.06066 1.06066 
C -0.77937 1.341951 -0.397805 1.5 0 1.5 
z
" style="stroke: #ff8c00"/>
    </defs>
    <g clip-path="url(#pd360c80e35)">
     <use xlink:href="#m758b09dc44" x="179.720587" y="240.610648" style="fill: #ff8c00; stroke: #ff8c00"/>
     <use xlink:href="#m758b09dc44" x="108.012825" y="170.780182" style="fill: #ff8c00; stroke: #ff8c00"/>
     <use xlink:href="#m758b09dc44" x="102.786288" y="234.712318" style="fill: #ff8c00; stroke: #ff8c00"/>
     <use xlink:href="#m758b09dc44" x="152.084828" y="211.803765" style="fill: #ff8c00; stroke: #ff8c00"/>
     <use xlink:href="#m758b09dc44" x="124.932373" y="241.017384" style="fill: #ff8c00; stroke: #ff8c00"/>
     <use xlink:href="#m758b09dc44" x="109.990374" y="236.020297" style="fill: #ff8c00; stroke: #ff8c00"/>
     <use xlink:href="#m758b09dc44" x="149.548167" y="164.745936" style="fill: #ff8c00; stroke: #ff8c00"/>
     <use xlink:href="#m758b09dc44" x="263.011451" y="173.411713" style="fill: #ff8c00; stroke: #ff8c00"/>
     <use xlink:href="#m758b09dc44" x="198.940518" y="239.377413" style="fill: #ff8c00; stroke: #ff8c00"/>
    </g>
   </g>
   <g id="PathCollection_2">
    <defs>
     <path id="m9178fe5006" d="M 0 1.5 
C 0.397805 1.5 0.77937 1.341951 1.06066 1.06066 
C 1.341951 0.77937 1.5 0.397805 1.5 0 
C 1.5 -0.397805 1.341951 -0.77937 1.06066 -1.06066 
C 0.77937 -1.341951 0.397805 -1.5 0 -1.5 
C -0.397805 -1.5 -0.77937 -1.341951 -1.06066 -1.06066 
C -1.341951 -0.77937 -1.5 -0.397805 -1.5 0 
C -1.5 0.397805 -1.341951 0.77937 -1.06066 1.06066 
C -0.77937 1.341951 -0.397805 1.5 0 1.5 
z
" style="stroke: #006400"/>
    </defs>
    <g clip-path="url(#pd360c80e35)">
     <use xlink:href="#m9178fe5006" x="278.710478" y="160.180791" style="fill: #006400; stroke: #006400"/>
     <use xlink:href="#m9178fe5006" x="362.74789" y="167.007393" style="fill: #006400; stroke: #006400"/>
     <use xlink:href="#m9178fe5006" x="259.732308" y="156.319155" style="fill: #006400; stroke: #006400"/>
     <use xlink:href="#m9178fe5006" x="244.527792" y="205.920823" style="fill: #006400; stroke: #006400"/>
     <use xlink:href="#m9178fe5006" x="185.842442" y="134.418208" style="fill: #006400; stroke: #006400"/>
     <use xlink:href="#m9178fe5006" x="270.750627" y="157.738304" style="fill: #006400; stroke: #006400"/>
     <use xlink:href="#m9178fe5006" x="217.116758" y="200.132143" style="fill: #006400; stroke: #006400"/>
     <use xlink:href="#m9178fe5006" x="220.131399" y="153.898392" style="fill: #006400; stroke: #006400"/>
     <use xlink:href="#m9178fe5006" x="274.622851" y="148.518532" style="fill: #006400; stroke: #006400"/>
     <use xlink:href="#m9178fe5006" x="376.19196" y="45.591332" style="fill: #006400; stroke: #006400"/>
     <use xlink:href="#m9178fe5006" x="255.621736" y="135.505294" style="fill: #006400; stroke: #006400"/>
     <use xlink:href="#m9178fe5006" x="203.788258" y="129.785309" style="fill: #006400; stroke: #006400"/>
     <use xlink:href="#m9178fe5006" x="273.831463" y="174.684191" style="fill: #006400; stroke: #006400"/>
     <use xlink:href="#m9178fe5006" x="317.28156" y="166.293116" style="fill: #006400; stroke: #006400"/>
     <use xlink:href="#m9178fe5006" x="150.847008" y="134.468692" style="fill: #006400; stroke: #006400"/>
     <use xlink:href="#m9178fe5006" x="208.566205" y="168.610778" style="fill: #006400; stroke: #006400"/>
    </g>
   </g>
   <g id="PathCollection_3">
    <defs>
     <path id="m83df9b8dcb" d="M 0 1.5 
C 0.397805 1.5 0.77937 1.341951 1.06066 1.06066 
C 1.341951 0.77937 1.5 0.397805 1.5 0 
C 1.5 -0.397805 1.341951 -0.77937 1.06066 -1.06066 
C 0.77937 -1.341951 0.397805 -1.5 0 -1.5 
C -0.397805 -1.5 -0.77937 -1.341951 -1.06066 -1.06066 
C -1.341951 -0.77937 -1.5 -0.397805 -1.5 0 
C -1.5 0.397805 -1.341951 0.77937 -1.06066 1.06066 
C -0.77937 1.341951 -0.397805 1.5 0 1.5 
z
" style="stroke: #2f4f4f"/>
    </defs>
    <g clip-path="url(#pd360c80e35)">
     <use xlink:href="#m83df9b8dcb" x="138.244316" y="213.897742" style="fill: #2f4f4f; stroke: #2f4f4f"/>
     <use xlink:href="#m83df9b8dcb" x="156.783785" y="198.146609" style="fill: #2f4f4f; stroke: #2f4f4f"/>
     <use xlink:href="#m83df9b8dcb" x="146.787852" y="179.819858" style="fill: #2f4f4f; stroke: #2f4f4f"/>
     <use xlink:href="#m83df9b8dcb" x="122.427764" y="197.291531" style="fill: #2f4f4f; stroke: #2f4f4f"/>
     <use xlink:href="#m83df9b8dcb" x="79.723402" y="210.167863" style="fill: #2f4f4f; stroke: #2f4f4f"/>
     <use xlink:href="#m83df9b8dcb" x="130.725624" y="228.327111" style="fill: #2f4f4f; stroke: #2f4f4f"/>
     <use xlink:href="#m83df9b8dcb" x="133.962858" y="112.768779" style="fill: #2f4f4f; stroke: #2f4f4f"/>
     <use xlink:href="#m83df9b8dcb" x="148.8796" y="199.504348" style="fill: #2f4f4f; stroke: #2f4f4f"/>
     <use xlink:href="#m83df9b8dcb" x="105.275564" y="188.720309" style="fill: #2f4f4f; stroke: #2f4f4f"/>
     <use xlink:href="#m83df9b8dcb" x="79.065912" y="206.820525" style="fill: #2f4f4f; stroke: #2f4f4f"/>
     <use xlink:href="#m83df9b8dcb" x="99.293418" y="102.914308" style="fill: #2f4f4f; stroke: #2f4f4f"/>
     <use xlink:href="#m83df9b8dcb" x="131.420756" y="199.725132" style="fill: #2f4f4f; stroke: #2f4f4f"/>
     <use xlink:href="#m83df9b8dcb" x="112.640308" y="199.944311" style="fill: #2f4f4f; stroke: #2f4f4f"/>
     <use xlink:href="#m83df9b8dcb" x="99.383392" y="222.403953" style="fill: #2f4f4f; stroke: #2f4f4f"/>
     <use xlink:href="#m83df9b8dcb" x="104.457454" y="188.931816" style="fill: #2f4f4f; stroke: #2f4f4f"/>
     <use xlink:href="#m83df9b8dcb" x="122.392127" y="98.257547" style="fill: #2f4f4f; stroke: #2f4f4f"/>
     <use xlink:href="#m83df9b8dcb" x="104.081923" y="160.3081" style="fill: #2f4f4f; stroke: #2f4f4f"/>
     <use xlink:href="#m83df9b8dcb" x="142.032706" y="99.297432" style="fill: #2f4f4f; stroke: #2f4f4f"/>
    </g>
   </g>
   <g id="PathCollection_4">
    <defs>
     <path id="mf29855dd7c" d="M 0 1.5 
C 0.397805 1.5 0.77937 1.341951 1.06066 1.06066 
C 1.341951 0.77937 1.5 0.397805 1.5 0 
C 1.5 -0.397805 1.341951 -0.77937 1.06066 -1.06066 
C 0.77937 -1.341951 0.397805 -1.5 0 -1.5 
C -0.397805 -1.5 -0.77937 -1.341951 -1.06066 -1.06066 
C -1.341951 -0.77937 -1.5 -0.397805 -1.5 0 
C -1.5 0.397805 -1.341951 0.77937 -1.06066 1.06066 
C -0.77937 1.341951 -0.397805 1.5 0 1.5 
z
" style="stroke: #00bfff"/>
    </defs>
    <g clip-path="url(#pd360c80e35)">
     <use xlink:href="#mf29855dd7c" x="149.764373" y="103.141625" style="fill: #00bfff; stroke: #00bfff"/>
     <use xlink:href="#mf29855dd7c" x="140.725077" y="193.174036" style="fill: #00bfff; stroke: #00bfff"/>
     <use xlink:href="#mf29855dd7c" x="118.02276" y="186.121901" style="fill: #00bfff; stroke: #00bfff"/>
     <use xlink:href="#mf29855dd7c" x="114.153298" y="135.621964" style="fill: #00bfff; stroke: #00bfff"/>
     <use xlink:href="#mf29855dd7c" x="83.577701" y="95.79788" style="fill: #00bfff; stroke: #00bfff"/>
     <use xlink:href="#mf29855dd7c" x="92.634247" y="178.032219" style="fill: #00bfff; stroke: #00bfff"/>
     <use xlink:href="#mf29855dd7c" x="183.937286" y="29.722199" style="fill: #00bfff; stroke: #00bfff"/>
     <use xlink:href="#mf29855dd7c" x="160.919977" y="165.316356" style="fill: #00bfff; stroke: #00bfff"/>
     <use xlink:href="#mf29855dd7c" x="106.750432" y="128.27227" style="fill: #00bfff; stroke: #00bfff"/>
     <use xlink:href="#mf29855dd7c" x="150.492149" y="139.73704" style="fill: #00bfff; stroke: #00bfff"/>
     <use xlink:href="#mf29855dd7c" x="83.577701" y="95.79788" style="fill: #00bfff; stroke: #00bfff"/>
     <use xlink:href="#mf29855dd7c" x="104.001709" y="148.076209" style="fill: #00bfff; stroke: #00bfff"/>
     <use xlink:href="#mf29855dd7c" x="99.498797" y="155.94727" style="fill: #00bfff; stroke: #00bfff"/>
     <use xlink:href="#mf29855dd7c" x="188.307137" y="116.043014" style="fill: #00bfff; stroke: #00bfff"/>
     <use xlink:href="#mf29855dd7c" x="84.264017" y="213.77925" style="fill: #00bfff; stroke: #00bfff"/>
     <use xlink:href="#mf29855dd7c" x="96.880897" y="142.994137" style="fill: #00bfff; stroke: #00bfff"/>
     <use xlink:href="#mf29855dd7c" x="108.557768" y="165.317867" style="fill: #00bfff; stroke: #00bfff"/>
    </g>
   </g>
   <g id="PathCollection_5">
    <defs>
     <path id="m0959d92e01" d="M 0 1.5 
C 0.397805 1.5 0.77937 1.341951 1.06066 1.06066 
C 1.341951 0.77937 1.5 0.397805 1.5 0 
C 1.5 -0.397805 1.341951 -0.77937 1.06066 -1.06066 
C 0.77937 -1.341951 0.397805 -1.5 0 -1.5 
C -0.397805 -1.5 -0.77937 -1.341951 -1.06066 -1.06066 
C -1.341951 -0.77937 -1.5 -0.397805 -1.5 0 
C -1.5 0.397805 -1.341951 0.77937 -1.06066 1.06066 
C -0.77937 1.341951 -0.397805 1.5 0 1.5 
z
" style="stroke: #ffff00"/>
    </defs>
    <g clip-path="url(#pd360c80e35)">
     <use xlink:href="#m0959d92e01" x="222.807956" y="157.590773" style="fill: #ffff00; stroke: #ffff00"/>
     <use xlink:href="#m0959d92e01" x="152.042795" y="172.698613" style="fill: #ffff00; stroke: #ffff00"/>
     <use xlink:href="#m0959d92e01" x="89.197582" y="213.86479" style="fill: #ffff00; stroke: #ffff00"/>
     <use xlink:href="#m0959d92e01" x="116.247899" y="182.53638" style="fill: #ffff00; stroke: #ffff00"/>
     <use xlink:href="#m0959d92e01" x="113.981518" y="153.038626" style="fill: #ffff00; stroke: #ffff00"/>
     <use xlink:href="#m0959d92e01" x="178.440575" y="168.246803" style="fill: #ffff00; stroke: #ffff00"/>
     <use xlink:href="#m0959d92e01" x="103.531504" y="232.353614" style="fill: #ffff00; stroke: #ffff00"/>
     <use xlink:href="#m0959d92e01" x="98.647518" y="192.375696" style="fill: #ffff00; stroke: #ffff00"/>
     <use xlink:href="#m0959d92e01" x="113.321361" y="148.325223" style="fill: #ffff00; stroke: #ffff00"/>
     <use xlink:href="#m0959d92e01" x="117.42876" y="180.599325" style="fill: #ffff00; stroke: #ffff00"/>
    </g>
   </g>
   <g id="PathCollection_6">
    <defs>
     <path id="m3382806e9f" d="M 0 1.5 
C 0.397805 1.5 0.77937 1.341951 1.06066 1.06066 
C 1.341951 0.77937 1.5 0.397805 1.5 0 
C 1.5 -0.397805 1.341951 -0.77937 1.06066 -1.06066 
C 0.77937 -1.341951 0.397805 -1.5 0 -1.5 
C -0.397805 -1.5 -0.77937 -1.341951 -1.06066 -1.06066 
C -1.341951 -0.77937 -1.5 -0.397805 -1.5 0 
C -1.5 0.397805 -1.341951 0.77937 -1.06066 1.06066 
C -0.77937 1.341951 -0.397805 1.5 0 1.5 
z
" style="stroke: #00ffff"/>
    </defs>
    <g clip-path="url(#pd360c80e35)">
     <use xlink:href="#m3382806e9f" x="133.723424" y="128.165029" style="fill: #00ffff; stroke: #00ffff"/>
     <use xlink:href="#m3382806e9f" x="111.867827" y="216.069522" style="fill: #00ffff; stroke: #00ffff"/>
     <use xlink:href="#m3382806e9f" x="125.308791" y="142.970622" style="fill: #00ffff; stroke: #00ffff"/>
     <use xlink:href="#m3382806e9f" x="138.775459" y="185.464053" style="fill: #00ffff; stroke: #00ffff"/>
     <use xlink:href="#m3382806e9f" x="118.151507" y="197.315981" style="fill: #00ffff; stroke: #00ffff"/>
     <use xlink:href="#m3382806e9f" x="133.330271" y="201.664632" style="fill: #00ffff; stroke: #00ffff"/>
     <use xlink:href="#m3382806e9f" x="209.267277" y="120.52769" style="fill: #00ffff; stroke: #00ffff"/>
     <use xlink:href="#m3382806e9f" x="143.645105" y="154.929594" style="fill: #00ffff; stroke: #00ffff"/>
     <use xlink:href="#m3382806e9f" x="126.708218" y="129.916906" style="fill: #00ffff; stroke: #00ffff"/>
     <use xlink:href="#m3382806e9f" x="155.095124" y="164.058666" style="fill: #00ffff; stroke: #00ffff"/>
     <use xlink:href="#m3382806e9f" x="114.382401" y="201.785514" style="fill: #00ffff; stroke: #00ffff"/>
     <use xlink:href="#m3382806e9f" x="151.122736" y="114.07318" style="fill: #00ffff; stroke: #00ffff"/>
     <use xlink:href="#m3382806e9f" x="154.613933" y="106.497038" style="fill: #00ffff; stroke: #00ffff"/>
     <use xlink:href="#m3382806e9f" x="134.943823" y="184.508351" style="fill: #00ffff; stroke: #00ffff"/>
    </g>
   </g>
   <g id="PathCollection_7">
    <defs>
     <path id="m51797fe255" d="M 0 1.5 
C 0.397805 1.5 0.77937 1.341951 1.06066 1.06066 
C 1.341951 0.77937 1.5 0.397805 1.5 0 
C 1.5 -0.397805 1.341951 -0.77937 1.06066 -1.06066 
C 0.77937 -1.341951 0.397805 -1.5 0 -1.5 
C -0.397805 -1.5 -0.77937 -1.341951 -1.06066 -1.06066 
C -1.341951 -0.77937 -1.5 -0.397805 -1.5 0 
C -1.5 0.397805 -1.341951 0.77937 -1.06066 1.06066 
C -0.77937 1.341951 -0.397805 1.5 0 1.5 
z
" style="stroke: #0000ff"/>
    </defs>
    <g clip-path="url(#pd360c80e35)">
     <use xlink:href="#m51797fe255" x="166.715788" y="91.393727" style="fill: #0000ff; stroke: #0000ff"/>
     <use xlink:href="#m51797fe255" x="129.656775" y="162.225289" style="fill: #0000ff; stroke: #0000ff"/>
     <use xlink:href="#m51797fe255" x="220.861344" y="86.542036" style="fill: #0000ff; stroke: #0000ff"/>
     <use xlink:href="#m51797fe255" x="195.153431" y="132.185729" style="fill: #0000ff; stroke: #0000ff"/>
     <use xlink:href="#m51797fe255" x="180.126689" y="156.09763" style="fill: #0000ff; stroke: #0000ff"/>
     <use xlink:href="#m51797fe255" x="183.48049" y="131.24914" style="fill: #0000ff; stroke: #0000ff"/>
     <use xlink:href="#m51797fe255" x="120.582083" y="141.131683" style="fill: #0000ff; stroke: #0000ff"/>
     <use xlink:href="#m51797fe255" x="183.215197" y="144.803462" style="fill: #0000ff; stroke: #0000ff"/>
     <use xlink:href="#m51797fe255" x="175.602057" y="171.276895" style="fill: #0000ff; stroke: #0000ff"/>
     <use xlink:href="#m51797fe255" x="148.695412" y="150.354287" style="fill: #0000ff; stroke: #0000ff"/>
     <use xlink:href="#m51797fe255" x="219.440806" y="43.055905" style="fill: #0000ff; stroke: #0000ff"/>
    </g>
   </g>
   <g id="PathCollection_8">
    <defs>
     <path id="m5ed811a1e5" d="M 0 1.5 
C 0.397805 1.5 0.77937 1.341951 1.06066 1.06066 
C 1.341951 0.77937 1.5 0.397805 1.5 0 
C 1.5 -0.397805 1.341951 -0.77937 1.06066 -1.06066 
C 0.77937 -1.341951 0.397805 -1.5 0 -1.5 
C -0.397805 -1.5 -0.77937 -1.341951 -1.06066 -1.06066 
C -1.341951 -0.77937 -1.5 -0.397805 -1.5 0 
C -1.5 0.397805 -1.341951 0.77937 -1.06066 1.06066 
C -0.77937 1.341951 -0.397805 1.5 0 1.5 
z
" style="stroke: #dc143c"/>
    </defs>
    <g clip-path="url(#pd360c80e35)">
     <use xlink:href="#m5ed811a1e5" x="118.412274" y="233.864824" style="fill: #dc143c; stroke: #dc143c"/>
     <use xlink:href="#m5ed811a1e5" x="160.524194" y="210.209406" style="fill: #dc143c; stroke: #dc143c"/>
     <use xlink:href="#m5ed811a1e5" x="132.266756" y="261.216" style="fill: #dc143c; stroke: #dc143c"/>
     <use xlink:href="#m5ed811a1e5" x="164.569598" y="210.546722" style="fill: #dc143c; stroke: #dc143c"/>
     <use xlink:href="#m5ed811a1e5" x="126.761609" y="251.167163" style="fill: #dc143c; stroke: #dc143c"/>
     <use xlink:href="#m5ed811a1e5" x="169.973918" y="195.761913" style="fill: #dc143c; stroke: #dc143c"/>
     <use xlink:href="#m5ed811a1e5" x="182.920164" y="251.42328" style="fill: #dc143c; stroke: #dc143c"/>
     <use xlink:href="#m5ed811a1e5" x="146.766588" y="217.754938" style="fill: #dc143c; stroke: #dc143c"/>
     <use xlink:href="#m5ed811a1e5" x="167.875866" y="239.505649" style="fill: #dc143c; stroke: #dc143c"/>
     <use xlink:href="#m5ed811a1e5" x="145.469339" y="181.691397" style="fill: #dc143c; stroke: #dc143c"/>
     <use xlink:href="#m5ed811a1e5" x="213.970074" y="231.171704" style="fill: #dc143c; stroke: #dc143c"/>
     <use xlink:href="#m5ed811a1e5" x="135.084076" y="203.004381" style="fill: #dc143c; stroke: #dc143c"/>
     <use xlink:href="#m5ed811a1e5" x="119.053341" y="232.705706" style="fill: #dc143c; stroke: #dc143c"/>
     <use xlink:href="#m5ed811a1e5" x="164.726567" y="240.619091" style="fill: #dc143c; stroke: #dc143c"/>
     <use xlink:href="#m5ed811a1e5" x="151.287065" y="207.634885" style="fill: #dc143c; stroke: #dc143c"/>
     <use xlink:href="#m5ed811a1e5" x="152.791052" y="225.029828" style="fill: #dc143c; stroke: #dc143c"/>
     <use xlink:href="#m5ed811a1e5" x="141.081368" y="179.493024" style="fill: #dc143c; stroke: #dc143c"/>
     <use xlink:href="#m5ed811a1e5" x="138.485398" y="176.630674" style="fill: #dc143c; stroke: #dc143c"/>
     <use xlink:href="#m5ed811a1e5" x="186.671436" y="135.93419" style="fill: #dc143c; stroke: #dc143c"/>
     <use xlink:href="#m5ed811a1e5" x="132.823806" y="231.430413" style="fill: #dc143c; stroke: #dc143c"/>
     <use xlink:href="#m5ed811a1e5" x="188.837404" y="191.2725" style="fill: #dc143c; stroke: #dc143c"/>
    </g>
   </g>
   <g id="PathCollection_9">
    <defs>
     <path id="mc6b80230ed" d="M 0 1.5 
C 0.397805 1.5 0.77937 1.341951 1.06066 1.06066 
C 1.341951 0.77937 1.5 0.397805 1.5 0 
C 1.5 -0.397805 1.341951 -0.77937 1.06066 -1.06066 
C 0.77937 -1.341951 0.397805 -1.5 0 -1.5 
C -0.397805 -1.5 -0.77937 -1.341951 -1.06066 -1.06066 
C -1.341951 -0.77937 -1.5 -0.397805 -1.5 0 
C -1.5 0.397805 -1.341951 0.77937 -1.06066 1.06066 
C -0.77937 1.341951 -0.397805 1.5 0 1.5 
z
" style="stroke: #ffe4c4"/>
    </defs>
    <g clip-path="url(#pd360c80e35)">
     <use xlink:href="#mc6b80230ed" x="251.806373" y="156.097283" style="fill: #ffe4c4; stroke: #ffe4c4"/>
     <use xlink:href="#mc6b80230ed" x="335.963932" y="153.874073" style="fill: #ffe4c4; stroke: #ffe4c4"/>
     <use xlink:href="#mc6b80230ed" x="215.164945" y="142.817533" style="fill: #ffe4c4; stroke: #ffe4c4"/>
     <use xlink:href="#mc6b80230ed" x="171.005207" y="155.449744" style="fill: #ffe4c4; stroke: #ffe4c4"/>
     <use xlink:href="#mc6b80230ed" x="191.1202" y="142.2921" style="fill: #ffe4c4; stroke: #ffe4c4"/>
     <use xlink:href="#mc6b80230ed" x="174.826539" y="252.902" style="fill: #ffe4c4; stroke: #ffe4c4"/>
     <use xlink:href="#mc6b80230ed" x="197.729096" y="146.499515" style="fill: #ffe4c4; stroke: #ffe4c4"/>
     <use xlink:href="#mc6b80230ed" x="226.695966" y="159.71551" style="fill: #ffe4c4; stroke: #ffe4c4"/>
     <use xlink:href="#mc6b80230ed" x="262.038693" y="181.952744" style="fill: #ffe4c4; stroke: #ffe4c4"/>
     <use xlink:href="#mc6b80230ed" x="232.09334" y="95.207147" style="fill: #ffe4c4; stroke: #ffe4c4"/>
     <use xlink:href="#mc6b80230ed" x="304.991852" y="147.856935" style="fill: #ffe4c4; stroke: #ffe4c4"/>
     <use xlink:href="#mc6b80230ed" x="267.038454" y="180.604199" style="fill: #ffe4c4; stroke: #ffe4c4"/>
    </g>
   </g>
   <g id="PathCollection_10">
    <defs>
     <path id="m5933e7b9cb" d="M -2.99994 2.99994 
L 3.00006 2.99994 
L 3.00006 -3.00006 
L -2.99994 -3.00006 
z
" style="stroke: #000000"/>
    </defs>
    <g clip-path="url(#pd360c80e35)">
     <use xlink:href="#m5933e7b9cb" x="83.178286" y="103.376855" style="stroke: #000000"/>
     <use xlink:href="#m5933e7b9cb" x="110.363797" y="130.42929" style="stroke: #000000"/>
     <use xlink:href="#m5933e7b9cb" x="104.218349" y="140.733301" style="stroke: #000000"/>
     <use xlink:href="#m5933e7b9cb" x="114.735433" y="117.47527" style="stroke: #000000"/>
     <use xlink:href="#m5933e7b9cb" x="141.821436" y="129.134043" style="stroke: #000000"/>
     <use xlink:href="#m5933e7b9cb" x="117.769961" y="158.197671" style="stroke: #000000"/>
     <use xlink:href="#m5933e7b9cb" x="68.882423" y="159.497779" style="stroke: #000000"/>
     <use xlink:href="#m5933e7b9cb" x="148.39869" y="164.860588" style="stroke: #000000"/>
     <use xlink:href="#m5933e7b9cb" x="115.562965" y="126.754551" style="stroke: #000000"/>
     <use xlink:href="#m5933e7b9cb" x="123.909595" y="104.637137" style="stroke: #000000"/>
     <use xlink:href="#m5933e7b9cb" x="122.418693" y="137.075361" style="stroke: #000000"/>
     <use xlink:href="#m5933e7b9cb" x="193.504947" y="19.296" style="stroke: #000000"/>
     <use xlink:href="#m5933e7b9cb" x="106.134144" y="117.704259" style="stroke: #000000"/>
     <use xlink:href="#m5933e7b9cb" x="148.39869" y="164.860588" style="stroke: #000000"/>
     <use xlink:href="#m5933e7b9cb" x="65.769516" y="158.343238" style="stroke: #000000"/>
     <use xlink:href="#m5933e7b9cb" x="163.127024" y="93.670195" style="stroke: #000000"/>
     <use xlink:href="#m5933e7b9cb" x="154.974348" y="152.618709" style="stroke: #000000"/>
     <use xlink:href="#m5933e7b9cb" x="71.201494" y="168.226334" style="stroke: #000000"/>
     <use xlink:href="#m5933e7b9cb" x="94.008247" y="128.303934" style="stroke: #000000"/>
     <use xlink:href="#m5933e7b9cb" x="109.782808" y="68.360159" style="stroke: #000000"/>
     <use xlink:href="#m5933e7b9cb" x="114.575623" y="106.935351" style="stroke: #000000"/>
     <use xlink:href="#m5933e7b9cb" x="81.462442" y="113.215771" style="stroke: #000000"/>
     <use xlink:href="#m5933e7b9cb" x="120.396164" y="113.456786" style="stroke: #000000"/>
     <use xlink:href="#m5933e7b9cb" x="109.440939" y="164.741081" style="stroke: #000000"/>
     <use xlink:href="#m5933e7b9cb" x="104.817498" y="118.324953" style="stroke: #000000"/>
     <use xlink:href="#m5933e7b9cb" x="171.657522" y="83.768963" style="stroke: #000000"/>
     <use xlink:href="#m5933e7b9cb" x="131.51129" y="177.076633" style="stroke: #000000"/>
     <use xlink:href="#m5933e7b9cb" x="122.674738" y="113.668199" style="stroke: #000000"/>
     <use xlink:href="#m5933e7b9cb" x="51.537415" y="93.219742" style="stroke: #000000"/>
     <use xlink:href="#m5933e7b9cb" x="161.925647" y="153.934574" style="stroke: #000000"/>
     <use xlink:href="#m5933e7b9cb" x="73.219251" y="180.654773" style="stroke: #000000"/>
     <use xlink:href="#m5933e7b9cb" x="98.550166" y="79.869842" style="stroke: #000000"/>
     <use xlink:href="#m5933e7b9cb" x="246.985192" y="99.624465" style="stroke: #000000"/>
     <use xlink:href="#m5933e7b9cb" x="104.362394" y="126.598996" style="stroke: #000000"/>
     <use xlink:href="#m5933e7b9cb" x="164.323299" y="126.588521" style="stroke: #000000"/>
     <use xlink:href="#m5933e7b9cb" x="77.593138" y="87.148704" style="stroke: #000000"/>
     <use xlink:href="#m5933e7b9cb" x="107.237805" y="153.827913" style="stroke: #000000"/>
     <use xlink:href="#m5933e7b9cb" x="131.230594" y="171.445627" style="stroke: #000000"/>
     <use xlink:href="#m5933e7b9cb" x="165.909202" y="138.54099" style="stroke: #000000"/>
     <use xlink:href="#m5933e7b9cb" x="111.32336" y="87.432756" style="stroke: #000000"/>
     <use xlink:href="#m5933e7b9cb" x="91.982755" y="96.026126" style="stroke: #000000"/>
     <use xlink:href="#m5933e7b9cb" x="93.204949" y="151.761716" style="stroke: #000000"/>
     <use xlink:href="#m5933e7b9cb" x="101.504215" y="120.398228" style="stroke: #000000"/>
     <use xlink:href="#m5933e7b9cb" x="121.7959" y="169.69319" style="stroke: #000000"/>
     <use xlink:href="#m5933e7b9cb" x="98.913981" y="101.515438" style="stroke: #000000"/>
     <use xlink:href="#m5933e7b9cb" x="98.05425" y="101.12229" style="stroke: #000000"/>
     <use xlink:href="#m5933e7b9cb" x="112.316925" y="109.810888" style="stroke: #000000"/>
     <use xlink:href="#m5933e7b9cb" x="141.225315" y="144.467489" style="stroke: #000000"/>
     <use xlink:href="#m5933e7b9cb" x="107.767113" y="186.419177" style="stroke: #000000"/>
     <use xlink:href="#m5933e7b9cb" x="85.662331" y="95.481332" style="stroke: #000000"/>
     <use xlink:href="#m5933e7b9cb" x="111.03343" y="132.484599" style="stroke: #000000"/>
     <use xlink:href="#m5933e7b9cb" x="93.751786" y="99.041365" style="stroke: #000000"/>
     <use xlink:href="#m5933e7b9cb" x="131.814779" y="175.578144" style="stroke: #000000"/>
     <use xlink:href="#m5933e7b9cb" x="191.326606" y="126.588413" style="stroke: #000000"/>
     <use xlink:href="#m5933e7b9cb" x="113.432019" y="129.96217" style="stroke: #000000"/>
     <use xlink:href="#m5933e7b9cb" x="166.422199" y="111.44274" style="stroke: #000000"/>
     <use xlink:href="#m5933e7b9cb" x="91.497948" y="81.329089" style="stroke: #000000"/>
     <use xlink:href="#m5933e7b9cb" x="130.735132" y="156.819752" style="stroke: #000000"/>
     <use xlink:href="#m5933e7b9cb" x="102.391548" y="137.007117" style="stroke: #000000"/>
     <use xlink:href="#m5933e7b9cb" x="101.504215" y="120.398228" style="stroke: #000000"/>
     <use xlink:href="#m5933e7b9cb" x="152.696244" y="102.312593" style="stroke: #000000"/>
     <use xlink:href="#m5933e7b9cb" x="138.253534" y="195.263782" style="stroke: #000000"/>
     <use xlink:href="#m5933e7b9cb" x="99.689363" y="35.416607" style="stroke: #000000"/>
     <use xlink:href="#m5933e7b9cb" x="80.408558" y="140.881592" style="stroke: #000000"/>
    </g>
   </g>
   <g id="PathCollection_11">
    <defs>
     <path id="m2c1070ffd0" d="M -3 -0 
L 3 3 
L 3 -3 
z
" style="stroke: #ff8c00"/>
    </defs>
    <g clip-path="url(#pd360c80e35)">
     <use xlink:href="#m2c1070ffd0" x="158.321521" y="139.025907" style="fill: #ff8c00; stroke: #ff8c00"/>
     <use xlink:href="#m2c1070ffd0" x="109.234095" y="154.404417" style="fill: #ff8c00; stroke: #ff8c00"/>
     <use xlink:href="#m2c1070ffd0" x="60.877665" y="135.06916" style="fill: #ff8c00; stroke: #ff8c00"/>
     <use xlink:href="#m2c1070ffd0" x="141.274668" y="184.040883" style="fill: #ff8c00; stroke: #ff8c00"/>
     <use xlink:href="#m2c1070ffd0" x="95.477718" y="127.854276" style="fill: #ff8c00; stroke: #ff8c00"/>
     <use xlink:href="#m2c1070ffd0" x="133.825851" y="190.205003" style="fill: #ff8c00; stroke: #ff8c00"/>
     <use xlink:href="#m2c1070ffd0" x="148.730674" y="173.371531" style="fill: #ff8c00; stroke: #ff8c00"/>
     <use xlink:href="#m2c1070ffd0" x="111.297143" y="110.91309" style="fill: #ff8c00; stroke: #ff8c00"/>
     <use xlink:href="#m2c1070ffd0" x="135.556512" y="152.620739" style="fill: #ff8c00; stroke: #ff8c00"/>
     <use xlink:href="#m2c1070ffd0" x="151.908283" y="133.071171" style="fill: #ff8c00; stroke: #ff8c00"/>
     <use xlink:href="#m2c1070ffd0" x="77.913244" y="140.817075" style="fill: #ff8c00; stroke: #ff8c00"/>
     <use xlink:href="#m2c1070ffd0" x="105.058429" y="100.08394" style="fill: #ff8c00; stroke: #ff8c00"/>
     <use xlink:href="#m2c1070ffd0" x="148.523742" y="177.522997" style="fill: #ff8c00; stroke: #ff8c00"/>
     <use xlink:href="#m2c1070ffd0" x="149.068763" y="120.388864" style="fill: #ff8c00; stroke: #ff8c00"/>
     <use xlink:href="#m2c1070ffd0" x="124.436042" y="184.008232" style="fill: #ff8c00; stroke: #ff8c00"/>
     <use xlink:href="#m2c1070ffd0" x="123.439675" y="76.620139" style="fill: #ff8c00; stroke: #ff8c00"/>
     <use xlink:href="#m2c1070ffd0" x="123.262785" y="143.922501" style="fill: #ff8c00; stroke: #ff8c00"/>
     <use xlink:href="#m2c1070ffd0" x="154.405505" y="137.480317" style="fill: #ff8c00; stroke: #ff8c00"/>
     <use xlink:href="#m2c1070ffd0" x="173.933467" y="92.696547" style="fill: #ff8c00; stroke: #ff8c00"/>
     <use xlink:href="#m2c1070ffd0" x="139.014731" y="107.994229" style="fill: #ff8c00; stroke: #ff8c00"/>
     <use xlink:href="#m2c1070ffd0" x="144.016021" y="183.974848" style="fill: #ff8c00; stroke: #ff8c00"/>
     <use xlink:href="#m2c1070ffd0" x="139.380946" y="78.048136" style="fill: #ff8c00; stroke: #ff8c00"/>
     <use xlink:href="#m2c1070ffd0" x="84.205846" y="166.506521" style="fill: #ff8c00; stroke: #ff8c00"/>
     <use xlink:href="#m2c1070ffd0" x="140.579056" y="91.631784" style="fill: #ff8c00; stroke: #ff8c00"/>
     <use xlink:href="#m2c1070ffd0" x="99.775616" y="131.860891" style="fill: #ff8c00; stroke: #ff8c00"/>
     <use xlink:href="#m2c1070ffd0" x="115.732397" y="177.833416" style="fill: #ff8c00; stroke: #ff8c00"/>
     <use xlink:href="#m2c1070ffd0" x="102.675079" y="162.802952" style="fill: #ff8c00; stroke: #ff8c00"/>
     <use xlink:href="#m2c1070ffd0" x="143.675234" y="102.530608" style="fill: #ff8c00; stroke: #ff8c00"/>
     <use xlink:href="#m2c1070ffd0" x="111.79995" y="225.311656" style="fill: #ff8c00; stroke: #ff8c00"/>
     <use xlink:href="#m2c1070ffd0" x="142.413369" y="83.213381" style="fill: #ff8c00; stroke: #ff8c00"/>
     <use xlink:href="#m2c1070ffd0" x="124.422581" y="158.873349" style="fill: #ff8c00; stroke: #ff8c00"/>
     <use xlink:href="#m2c1070ffd0" x="141.052648" y="92.405201" style="fill: #ff8c00; stroke: #ff8c00"/>
     <use xlink:href="#m2c1070ffd0" x="181.573108" y="175.491753" style="fill: #ff8c00; stroke: #ff8c00"/>
     <use xlink:href="#m2c1070ffd0" x="128.629718" y="160.073762" style="fill: #ff8c00; stroke: #ff8c00"/>
     <use xlink:href="#m2c1070ffd0" x="114.577815" y="197.86022" style="fill: #ff8c00; stroke: #ff8c00"/>
     <use xlink:href="#m2c1070ffd0" x="134.743082" y="206.677525" style="fill: #ff8c00; stroke: #ff8c00"/>
     <use xlink:href="#m2c1070ffd0" x="150.071595" y="109.376742" style="fill: #ff8c00; stroke: #ff8c00"/>
     <use xlink:href="#m2c1070ffd0" x="96.655321" y="93.534666" style="fill: #ff8c00; stroke: #ff8c00"/>
     <use xlink:href="#m2c1070ffd0" x="85.249097" y="123.213925" style="fill: #ff8c00; stroke: #ff8c00"/>
     <use xlink:href="#m2c1070ffd0" x="106.279698" y="143.034187" style="fill: #ff8c00; stroke: #ff8c00"/>
     <use xlink:href="#m2c1070ffd0" x="138.451359" y="184.294822" style="fill: #ff8c00; stroke: #ff8c00"/>
     <use xlink:href="#m2c1070ffd0" x="117.109526" y="175.833109" style="fill: #ff8c00; stroke: #ff8c00"/>
     <use xlink:href="#m2c1070ffd0" x="140.647765" y="161.117296" style="fill: #ff8c00; stroke: #ff8c00"/>
     <use xlink:href="#m2c1070ffd0" x="98.791541" y="143.789836" style="fill: #ff8c00; stroke: #ff8c00"/>
     <use xlink:href="#m2c1070ffd0" x="133.915929" y="158.899467" style="fill: #ff8c00; stroke: #ff8c00"/>
     <use xlink:href="#m2c1070ffd0" x="166.957045" y="155.85943" style="fill: #ff8c00; stroke: #ff8c00"/>
     <use xlink:href="#m2c1070ffd0" x="113.864009" y="128.938829" style="fill: #ff8c00; stroke: #ff8c00"/>
     <use xlink:href="#m2c1070ffd0" x="202.070041" y="91.919513" style="fill: #ff8c00; stroke: #ff8c00"/>
     <use xlink:href="#m2c1070ffd0" x="130.866057" y="120.444828" style="fill: #ff8c00; stroke: #ff8c00"/>
     <use xlink:href="#m2c1070ffd0" x="126.165135" y="119.932717" style="fill: #ff8c00; stroke: #ff8c00"/>
     <use xlink:href="#m2c1070ffd0" x="137.595544" y="95.276988" style="fill: #ff8c00; stroke: #ff8c00"/>
     <use xlink:href="#m2c1070ffd0" x="148.48885" y="145.890155" style="fill: #ff8c00; stroke: #ff8c00"/>
     <use xlink:href="#m2c1070ffd0" x="140.772624" y="167.769051" style="fill: #ff8c00; stroke: #ff8c00"/>
     <use xlink:href="#m2c1070ffd0" x="154.380588" y="170.903851" style="fill: #ff8c00; stroke: #ff8c00"/>
     <use xlink:href="#m2c1070ffd0" x="107.54677" y="154.409191" style="fill: #ff8c00; stroke: #ff8c00"/>
     <use xlink:href="#m2c1070ffd0" x="136.567877" y="181.274893" style="fill: #ff8c00; stroke: #ff8c00"/>
     <use xlink:href="#m2c1070ffd0" x="107.172244" y="197.552782" style="fill: #ff8c00; stroke: #ff8c00"/>
     <use xlink:href="#m2c1070ffd0" x="143.282004" y="163.527138" style="fill: #ff8c00; stroke: #ff8c00"/>
     <use xlink:href="#m2c1070ffd0" x="152.972508" y="148.077026" style="fill: #ff8c00; stroke: #ff8c00"/>
     <use xlink:href="#m2c1070ffd0" x="124.804384" y="171.899527" style="fill: #ff8c00; stroke: #ff8c00"/>
     <use xlink:href="#m2c1070ffd0" x="110.80849" y="135.16833" style="fill: #ff8c00; stroke: #ff8c00"/>
     <use xlink:href="#m2c1070ffd0" x="167.53316" y="125.017658" style="fill: #ff8c00; stroke: #ff8c00"/>
     <use xlink:href="#m2c1070ffd0" x="159.438283" y="160.378965" style="fill: #ff8c00; stroke: #ff8c00"/>
     <use xlink:href="#m2c1070ffd0" x="120.111256" y="131.529931" style="fill: #ff8c00; stroke: #ff8c00"/>
    </g>
   </g>
   <g id="matplotlib.axis_1">
    <g id="xtick_1">
     <g id="line2d_1">
      <defs>
       <path id="m86148110f3" d="M 0 0 
L 0 3.5 
" style="stroke: #000000; stroke-width: 0.8"/>
      </defs>
      <g>
       <use xlink:href="#m86148110f3" x="87.940906" y="273.312" style="stroke: #000000; stroke-width: 0.8"/>
      </g>
     </g>
     <g id="text_1">
      <!-- −10 -->
      <g transform="translate(77.388562 287.910437) scale(0.1 -0.1)">
       <defs>
        <path id="DejaVuSans-2212" d="M 678 2272 
L 4684 2272 
L 4684 1741 
L 678 1741 
L 678 2272 
z
" transform="scale(0.015625)"/>
        <path id="DejaVuSans-31" d="M 794 531 
L 1825 531 
L 1825 4091 
L 703 3866 
L 703 4441 
L 1819 4666 
L 2450 4666 
L 2450 531 
L 3481 531 
L 3481 0 
L 794 0 
L 794 531 
z
" transform="scale(0.015625)"/>
        <path id="DejaVuSans-30" d="M 2034 4250 
Q 1547 4250 1301 3770 
Q 1056 3291 1056 2328 
Q 1056 1369 1301 889 
Q 1547 409 2034 409 
Q 2525 409 2770 889 
Q 3016 1369 3016 2328 
Q 3016 3291 2770 3770 
Q 2525 4250 2034 4250 
z
M 2034 4750 
Q 2819 4750 3233 4129 
Q 3647 3509 3647 2328 
Q 3647 1150 3233 529 
Q 2819 -91 2034 -91 
Q 1250 -91 836 529 
Q 422 1150 422 2328 
Q 422 3509 836 4129 
Q 1250 4750 2034 4750 
z
" transform="scale(0.015625)"/>
       </defs>
       <use xlink:href="#DejaVuSans-2212"/>
       <use xlink:href="#DejaVuSans-31" x="83.789062"/>
       <use xlink:href="#DejaVuSans-30" x="147.412109"/>
      </g>
     </g>
    </g>
    <g id="xtick_2">
     <g id="line2d_2">
      <g>
       <use xlink:href="#m86148110f3" x="143.998373" y="273.312" style="stroke: #000000; stroke-width: 0.8"/>
      </g>
     </g>
     <g id="text_2">
      <!-- 0 -->
      <g transform="translate(140.817123 287.910437) scale(0.1 -0.1)">
       <use xlink:href="#DejaVuSans-30"/>
      </g>
     </g>
    </g>
    <g id="xtick_3">
     <g id="line2d_3">
      <g>
       <use xlink:href="#m86148110f3" x="200.055839" y="273.312" style="stroke: #000000; stroke-width: 0.8"/>
      </g>
     </g>
     <g id="text_3">
      <!-- 10 -->
      <g transform="translate(193.693339 287.910437) scale(0.1 -0.1)">
       <use xlink:href="#DejaVuSans-31"/>
       <use xlink:href="#DejaVuSans-30" x="63.623047"/>
      </g>
     </g>
    </g>
    <g id="xtick_4">
     <g id="line2d_4">
      <g>
       <use xlink:href="#m86148110f3" x="256.113306" y="273.312" style="stroke: #000000; stroke-width: 0.8"/>
      </g>
     </g>
     <g id="text_4">
      <!-- 20 -->
      <g transform="translate(249.750806 287.910437) scale(0.1 -0.1)">
       <defs>
        <path id="DejaVuSans-32" d="M 1228 531 
L 3431 531 
L 3431 0 
L 469 0 
L 469 531 
Q 828 903 1448 1529 
Q 2069 2156 2228 2338 
Q 2531 2678 2651 2914 
Q 2772 3150 2772 3378 
Q 2772 3750 2511 3984 
Q 2250 4219 1831 4219 
Q 1534 4219 1204 4116 
Q 875 4013 500 3803 
L 500 4441 
Q 881 4594 1212 4672 
Q 1544 4750 1819 4750 
Q 2544 4750 2975 4387 
Q 3406 4025 3406 3419 
Q 3406 3131 3298 2873 
Q 3191 2616 2906 2266 
Q 2828 2175 2409 1742 
Q 1991 1309 1228 531 
z
" transform="scale(0.015625)"/>
       </defs>
       <use xlink:href="#DejaVuSans-32"/>
       <use xlink:href="#DejaVuSans-30" x="63.623047"/>
      </g>
     </g>
    </g>
    <g id="xtick_5">
     <g id="line2d_5">
      <g>
       <use xlink:href="#m86148110f3" x="312.170772" y="273.312" style="stroke: #000000; stroke-width: 0.8"/>
      </g>
     </g>
     <g id="text_5">
      <!-- 30 -->
      <g transform="translate(305.808272 287.910437) scale(0.1 -0.1)">
       <defs>
        <path id="DejaVuSans-33" d="M 2597 2516 
Q 3050 2419 3304 2112 
Q 3559 1806 3559 1356 
Q 3559 666 3084 287 
Q 2609 -91 1734 -91 
Q 1441 -91 1130 -33 
Q 819 25 488 141 
L 488 750 
Q 750 597 1062 519 
Q 1375 441 1716 441 
Q 2309 441 2620 675 
Q 2931 909 2931 1356 
Q 2931 1769 2642 2001 
Q 2353 2234 1838 2234 
L 1294 2234 
L 1294 2753 
L 1863 2753 
Q 2328 2753 2575 2939 
Q 2822 3125 2822 3475 
Q 2822 3834 2567 4026 
Q 2313 4219 1838 4219 
Q 1578 4219 1281 4162 
Q 984 4106 628 3988 
L 628 4550 
Q 988 4650 1302 4700 
Q 1616 4750 1894 4750 
Q 2613 4750 3031 4423 
Q 3450 4097 3450 3541 
Q 3450 3153 3228 2886 
Q 3006 2619 2597 2516 
z
" transform="scale(0.015625)"/>
       </defs>
       <use xlink:href="#DejaVuSans-33"/>
       <use xlink:href="#DejaVuSans-30" x="63.623047"/>
      </g>
     </g>
    </g>
    <g id="xtick_6">
     <g id="line2d_6">
      <g>
       <use xlink:href="#m86148110f3" x="368.228239" y="273.312" style="stroke: #000000; stroke-width: 0.8"/>
      </g>
     </g>
     <g id="text_6">
      <!-- 40 -->
      <g transform="translate(361.865739 287.910437) scale(0.1 -0.1)">
       <defs>
        <path id="DejaVuSans-34" d="M 2419 4116 
L 825 1625 
L 2419 1625 
L 2419 4116 
z
M 2253 4666 
L 3047 4666 
L 3047 1625 
L 3713 1625 
L 3713 1100 
L 3047 1100 
L 3047 0 
L 2419 0 
L 2419 1100 
L 313 1100 
L 313 1709 
L 2253 4666 
z
" transform="scale(0.015625)"/>
       </defs>
       <use xlink:href="#DejaVuSans-34"/>
       <use xlink:href="#DejaVuSans-30" x="63.623047"/>
      </g>
     </g>
    </g>
   </g>
   <g id="matplotlib.axis_2">
    <g id="ytick_1">
     <g id="line2d_7">
      <defs>
       <path id="mb1c22f3f78" d="M 0 0 
L -3.5 0 
" style="stroke: #000000; stroke-width: 0.8"/>
      </defs>
      <g>
       <use xlink:href="#mb1c22f3f78" x="35.304688" y="255.778455" style="stroke: #000000; stroke-width: 0.8"/>
      </g>
     </g>
     <g id="text_7">
      <!-- −20 -->
      <g transform="translate(7.2 259.577674) scale(0.1 -0.1)">
       <use xlink:href="#DejaVuSans-2212"/>
       <use xlink:href="#DejaVuSans-32" x="83.789062"/>
       <use xlink:href="#DejaVuSans-30" x="147.412109"/>
      </g>
     </g>
    </g>
    <g id="ytick_2">
     <g id="line2d_8">
      <g>
       <use xlink:href="#mb1c22f3f78" x="35.304688" y="204.306898" style="stroke: #000000; stroke-width: 0.8"/>
      </g>
     </g>
     <g id="text_8">
      <!-- −10 -->
      <g transform="translate(7.2 208.106116) scale(0.1 -0.1)">
       <use xlink:href="#DejaVuSans-2212"/>
       <use xlink:href="#DejaVuSans-31" x="83.789062"/>
       <use xlink:href="#DejaVuSans-30" x="147.412109"/>
      </g>
     </g>
    </g>
    <g id="ytick_3">
     <g id="line2d_9">
      <g>
       <use xlink:href="#mb1c22f3f78" x="35.304688" y="152.835341" style="stroke: #000000; stroke-width: 0.8"/>
      </g>
     </g>
     <g id="text_9">
      <!-- 0 -->
      <g transform="translate(21.942187 156.634559) scale(0.1 -0.1)">
       <use xlink:href="#DejaVuSans-30"/>
      </g>
     </g>
    </g>
    <g id="ytick_4">
     <g id="line2d_10">
      <g>
       <use xlink:href="#mb1c22f3f78" x="35.304688" y="101.363783" style="stroke: #000000; stroke-width: 0.8"/>
      </g>
     </g>
     <g id="text_10">
      <!-- 10 -->
      <g transform="translate(15.579687 105.163002) scale(0.1 -0.1)">
       <use xlink:href="#DejaVuSans-31"/>
       <use xlink:href="#DejaVuSans-30" x="63.623047"/>
      </g>
     </g>
    </g>
    <g id="ytick_5">
     <g id="line2d_11">
      <g>
       <use xlink:href="#mb1c22f3f78" x="35.304688" y="49.892226" style="stroke: #000000; stroke-width: 0.8"/>
      </g>
     </g>
     <g id="text_11">
      <!-- 20 -->
      <g transform="translate(15.579687 53.691445) scale(0.1 -0.1)">
       <use xlink:href="#DejaVuSans-32"/>
       <use xlink:href="#DejaVuSans-30" x="63.623047"/>
      </g>
     </g>
    </g>
   </g>
   <g id="patch_3">
    <path d="M 35.304688 273.312 
L 35.304688 7.2 
" style="fill: none; stroke: #000000; stroke-width: 0.8; stroke-linejoin: miter; stroke-linecap: square"/>
   </g>
   <g id="patch_4">
    <path d="M 392.424688 273.312 
L 392.424688 7.2 
" style="fill: none; stroke: #000000; stroke-width: 0.8; stroke-linejoin: miter; stroke-linecap: square"/>
   </g>
   <g id="patch_5">
    <path d="M 35.304688 273.312 
L 392.424688 273.312 
" style="fill: none; stroke: #000000; stroke-width: 0.8; stroke-linejoin: miter; stroke-linecap: square"/>
   </g>
   <g id="patch_6">
    <path d="M 35.304688 7.2 
L 392.424688 7.2 
" style="fill: none; stroke: #000000; stroke-width: 0.8; stroke-linejoin: miter; stroke-linecap: square"/>
   </g>
  </g>
 </g>
 <defs>
  <clipPath id="pd360c80e35">
   <rect x="35.304688" y="7.2" width="357.12" height="266.112"/>
  </clipPath>
 </defs>
</svg>
