<?xml version="1.0" encoding="utf-8" standalone="no"?>
<!DOCTYPE svg PUBLIC "-//W3C//DTD SVG 1.1//EN"
  "http://www.w3.org/Graphics/SVG/1.1/DTD/svg11.dtd">
<svg xmlns:xlink="http://www.w3.org/1999/xlink" width="399.624687pt" height="297.190125pt" viewBox="0 0 399.624687 297.190125" xmlns="http://www.w3.org/2000/svg" version="1.1">
 <metadata>
  <rdf:RDF xmlns:dc="http://purl.org/dc/elements/1.1/" xmlns:cc="http://creativecommons.org/ns#" xmlns:rdf="http://www.w3.org/1999/02/22-rdf-syntax-ns#">
   <cc:Work>
    <dc:type rdf:resource="http://purl.org/dc/dcmitype/StillImage"/>
    <dc:date>2023-11-12T02:09:20.074012</dc:date>
    <dc:format>image/svg+xml</dc:format>
    <dc:creator>
     <cc:Agent>
      <dc:title>Matplotlib v3.8.0, https://matplotlib.org/</dc:title>
     </cc:Agent>
    </dc:creator>
   </cc:Work>
  </rdf:RDF>
 </metadata>
 <defs>
  <style type="text/css">*{stroke-linejoin: round; stroke-linecap: butt}</style>
 </defs>
 <g id="figure_1">
  <g id="patch_1">
   <path d="M 0 297.190125 
L 399.624687 297.190125 
L 399.624687 0 
L 0 0 
z
" style="fill: #ffffff"/>
  </g>
  <g id="axes_1">
   <g id="patch_2">
    <path d="M 35.304688 273.312 
L 392.424688 273.312 
L 392.424688 7.2 
L 35.304688 7.2 
z
" style="fill: #ffffff"/>
   </g>
   <g id="PathCollection_1">
    <defs>
     <path id="m421e382a3a" d="M 0 1.5 
C 0.397805 1.5 0.77937 1.341951 1.06066 1.06066 
C 1.341951 0.77937 1.5 0.397805 1.5 0 
C 1.5 -0.397805 1.341951 -0.77937 1.06066 -1.06066 
C 0.77937 -1.341951 0.397805 -1.5 0 -1.5 
C -0.397805 -1.5 -0.77937 -1.341951 -1.06066 -1.06066 
C -1.341951 -0.77937 -1.5 -0.397805 -1.5 0 
C -1.5 0.397805 -1.341951 0.77937 -1.06066 1.06066 
C -0.77937 1.341951 -0.397805 1.5 0 1.5 
z
" style="stroke: #ff8c00"/>
    </defs>
    <g clip-path="url(#pa543574115)">
     <use xlink:href="#m421e382a3a" x="79.286191" y="153.716961" style="fill: #ff8c00; stroke: #ff8c00"/>
     <use xlink:href="#m421e382a3a" x="112.249901" y="135.51139" style="fill: #ff8c00; stroke: #ff8c00"/>
     <use xlink:href="#m421e382a3a" x="146.646517" y="165.594131" style="fill: #ff8c00; stroke: #ff8c00"/>
     <use xlink:href="#m421e382a3a" x="196.062466" y="105.705212" style="fill: #ff8c00; stroke: #ff8c00"/>
     <use xlink:href="#m421e382a3a" x="87.552213" y="162.833627" style="fill: #ff8c00; stroke: #ff8c00"/>
     <use xlink:href="#m421e382a3a" x="102.020311" y="157.176323" style="fill: #ff8c00; stroke: #ff8c00"/>
     <use xlink:href="#m421e382a3a" x="92.283047" y="104.3059" style="fill: #ff8c00; stroke: #ff8c00"/>
     <use xlink:href="#m421e382a3a" x="131.538673" y="109.13196" style="fill: #ff8c00; stroke: #ff8c00"/>
     <use xlink:href="#m421e382a3a" x="75.667498" y="129.532247" style="fill: #ff8c00; stroke: #ff8c00"/>
     <use xlink:href="#m421e382a3a" x="151.341827" y="133.943986" style="fill: #ff8c00; stroke: #ff8c00"/>
     <use xlink:href="#m421e382a3a" x="98.779756" y="132.113504" style="fill: #ff8c00; stroke: #ff8c00"/>
     <use xlink:href="#m421e382a3a" x="140.160888" y="134.035306" style="fill: #ff8c00; stroke: #ff8c00"/>
     <use xlink:href="#m421e382a3a" x="113.930667" y="158.570826" style="fill: #ff8c00; stroke: #ff8c00"/>
     <use xlink:href="#m421e382a3a" x="146.169743" y="139.793318" style="fill: #ff8c00; stroke: #ff8c00"/>
     <use xlink:href="#m421e382a3a" x="94.608563" y="154.807655" style="fill: #ff8c00; stroke: #ff8c00"/>
     <use xlink:href="#m421e382a3a" x="78.418709" y="123.699223" style="fill: #ff8c00; stroke: #ff8c00"/>
     <use xlink:href="#m421e382a3a" x="151.142045" y="160.353868" style="fill: #ff8c00; stroke: #ff8c00"/>
     <use xlink:href="#m421e382a3a" x="90.978289" y="194.006368" style="fill: #ff8c00; stroke: #ff8c00"/>
     <use xlink:href="#m421e382a3a" x="92.905581" y="158.971985" style="fill: #ff8c00; stroke: #ff8c00"/>
     <use xlink:href="#m421e382a3a" x="203.039919" y="116.400168" style="fill: #ff8c00; stroke: #ff8c00"/>
    </g>
   </g>
   <g id="PathCollection_2">
    <defs>
     <path id="mb9ee54c80e" d="M 0 1.5 
C 0.397805 1.5 0.77937 1.341951 1.06066 1.06066 
C 1.341951 0.77937 1.5 0.397805 1.5 0 
C 1.5 -0.397805 1.341951 -0.77937 1.06066 -1.06066 
C 0.77937 -1.341951 0.397805 -1.5 0 -1.5 
C -0.397805 -1.5 -0.77937 -1.341951 -1.06066 -1.06066 
C -1.341951 -0.77937 -1.5 -0.397805 -1.5 0 
C -1.5 0.397805 -1.341951 0.77937 -1.06066 1.06066 
C -0.77937 1.341951 -0.397805 1.5 0 1.5 
z
" style="stroke: #006400"/>
    </defs>
    <g clip-path="url(#pa543574115)">
     <use xlink:href="#mb9ee54c80e" x="175.958962" y="118.157761" style="fill: #006400; stroke: #006400"/>
     <use xlink:href="#mb9ee54c80e" x="95.503374" y="100.555205" style="fill: #006400; stroke: #006400"/>
     <use xlink:href="#mb9ee54c80e" x="92.579762" y="161.05632" style="fill: #006400; stroke: #006400"/>
     <use xlink:href="#mb9ee54c80e" x="103.62399" y="127.853683" style="fill: #006400; stroke: #006400"/>
     <use xlink:href="#mb9ee54c80e" x="135.392858" y="135.421818" style="fill: #006400; stroke: #006400"/>
     <use xlink:href="#mb9ee54c80e" x="117.361921" y="19.296" style="fill: #006400; stroke: #006400"/>
     <use xlink:href="#mb9ee54c80e" x="124.593353" y="178.919368" style="fill: #006400; stroke: #006400"/>
     <use xlink:href="#mb9ee54c80e" x="66.026335" y="101.120873" style="fill: #006400; stroke: #006400"/>
     <use xlink:href="#mb9ee54c80e" x="157.598159" y="74.916382" style="fill: #006400; stroke: #006400"/>
     <use xlink:href="#mb9ee54c80e" x="147.152881" y="51.753418" style="fill: #006400; stroke: #006400"/>
     <use xlink:href="#mb9ee54c80e" x="124.75171" y="42.698968" style="fill: #006400; stroke: #006400"/>
     <use xlink:href="#mb9ee54c80e" x="126.372946" y="115.684246" style="fill: #006400; stroke: #006400"/>
     <use xlink:href="#mb9ee54c80e" x="99.125142" y="112.97737" style="fill: #006400; stroke: #006400"/>
     <use xlink:href="#mb9ee54c80e" x="133.63048" y="174.859723" style="fill: #006400; stroke: #006400"/>
     <use xlink:href="#mb9ee54c80e" x="142.993285" y="72.073584" style="fill: #006400; stroke: #006400"/>
     <use xlink:href="#mb9ee54c80e" x="114.436905" y="89.366515" style="fill: #006400; stroke: #006400"/>
    </g>
   </g>
   <g id="PathCollection_3">
    <defs>
     <path id="m2dc5663fd6" d="M 0 1.5 
C 0.397805 1.5 0.77937 1.341951 1.06066 1.06066 
C 1.341951 0.77937 1.5 0.397805 1.5 0 
C 1.5 -0.397805 1.341951 -0.77937 1.06066 -1.06066 
C 0.77937 -1.341951 0.397805 -1.5 0 -1.5 
C -0.397805 -1.5 -0.77937 -1.341951 -1.06066 -1.06066 
C -1.341951 -0.77937 -1.5 -0.397805 -1.5 0 
C -1.5 0.397805 -1.341951 0.77937 -1.06066 1.06066 
C -0.77937 1.341951 -0.397805 1.5 0 1.5 
z
" style="stroke: #2f4f4f"/>
    </defs>
    <g clip-path="url(#pa543574115)">
     <use xlink:href="#m2dc5663fd6" x="51.537415" y="165.128469" style="fill: #2f4f4f; stroke: #2f4f4f"/>
     <use xlink:href="#m2dc5663fd6" x="150.33965" y="183.559791" style="fill: #2f4f4f; stroke: #2f4f4f"/>
     <use xlink:href="#m2dc5663fd6" x="137.055278" y="189.306198" style="fill: #2f4f4f; stroke: #2f4f4f"/>
     <use xlink:href="#m2dc5663fd6" x="142.027115" y="160.284613" style="fill: #2f4f4f; stroke: #2f4f4f"/>
     <use xlink:href="#m2dc5663fd6" x="150.597" y="209.055953" style="fill: #2f4f4f; stroke: #2f4f4f"/>
     <use xlink:href="#m2dc5663fd6" x="92.472676" y="184.931078" style="fill: #2f4f4f; stroke: #2f4f4f"/>
     <use xlink:href="#m2dc5663fd6" x="114.28577" y="182.21274" style="fill: #2f4f4f; stroke: #2f4f4f"/>
     <use xlink:href="#m2dc5663fd6" x="129.220263" y="212.732919" style="fill: #2f4f4f; stroke: #2f4f4f"/>
     <use xlink:href="#m2dc5663fd6" x="143.154334" y="228.582719" style="fill: #2f4f4f; stroke: #2f4f4f"/>
     <use xlink:href="#m2dc5663fd6" x="103.556289" y="180.736907" style="fill: #2f4f4f; stroke: #2f4f4f"/>
     <use xlink:href="#m2dc5663fd6" x="90.713633" y="185.953222" style="fill: #2f4f4f; stroke: #2f4f4f"/>
     <use xlink:href="#m2dc5663fd6" x="166.462773" y="221.675144" style="fill: #2f4f4f; stroke: #2f4f4f"/>
     <use xlink:href="#m2dc5663fd6" x="114.897538" y="217.329552" style="fill: #2f4f4f; stroke: #2f4f4f"/>
    </g>
   </g>
   <g id="PathCollection_4">
    <defs>
     <path id="m6f1fdcc12e" d="M 0 1.5 
C 0.397805 1.5 0.77937 1.341951 1.06066 1.06066 
C 1.341951 0.77937 1.5 0.397805 1.5 0 
C 1.5 -0.397805 1.341951 -0.77937 1.06066 -1.06066 
C 0.77937 -1.341951 0.397805 -1.5 0 -1.5 
C -0.397805 -1.5 -0.77937 -1.341951 -1.06066 -1.06066 
C -1.341951 -0.77937 -1.5 -0.397805 -1.5 0 
C -1.5 0.397805 -1.341951 0.77937 -1.06066 1.06066 
C -0.77937 1.341951 -0.397805 1.5 0 1.5 
z
" style="stroke: #00bfff"/>
    </defs>
    <g clip-path="url(#pa543574115)">
     <use xlink:href="#m6f1fdcc12e" x="98.908031" y="153.928097" style="fill: #00bfff; stroke: #00bfff"/>
     <use xlink:href="#m6f1fdcc12e" x="144.1261" y="211.422791" style="fill: #00bfff; stroke: #00bfff"/>
     <use xlink:href="#m6f1fdcc12e" x="166.30068" y="168.703045" style="fill: #00bfff; stroke: #00bfff"/>
     <use xlink:href="#m6f1fdcc12e" x="117.039811" y="214.428268" style="fill: #00bfff; stroke: #00bfff"/>
     <use xlink:href="#m6f1fdcc12e" x="150.026828" y="188.364599" style="fill: #00bfff; stroke: #00bfff"/>
     <use xlink:href="#m6f1fdcc12e" x="162.077504" y="189.493894" style="fill: #00bfff; stroke: #00bfff"/>
     <use xlink:href="#m6f1fdcc12e" x="108.454126" y="229.963145" style="fill: #00bfff; stroke: #00bfff"/>
     <use xlink:href="#m6f1fdcc12e" x="159.371506" y="173.362513" style="fill: #00bfff; stroke: #00bfff"/>
     <use xlink:href="#m6f1fdcc12e" x="139.580889" y="197.892614" style="fill: #00bfff; stroke: #00bfff"/>
     <use xlink:href="#m6f1fdcc12e" x="112.0746" y="184.875358" style="fill: #00bfff; stroke: #00bfff"/>
     <use xlink:href="#m6f1fdcc12e" x="162.551035" y="182.28118" style="fill: #00bfff; stroke: #00bfff"/>
     <use xlink:href="#m6f1fdcc12e" x="116.497334" y="183.545848" style="fill: #00bfff; stroke: #00bfff"/>
     <use xlink:href="#m6f1fdcc12e" x="123.75125" y="205.095626" style="fill: #00bfff; stroke: #00bfff"/>
     <use xlink:href="#m6f1fdcc12e" x="74.473831" y="196.527541" style="fill: #00bfff; stroke: #00bfff"/>
    </g>
   </g>
   <g id="PathCollection_5">
    <defs>
     <path id="m9c5930776e" d="M 0 1.5 
C 0.397805 1.5 0.77937 1.341951 1.06066 1.06066 
C 1.341951 0.77937 1.5 0.397805 1.5 0 
C 1.5 -0.397805 1.341951 -0.77937 1.06066 -1.06066 
C 0.77937 -1.341951 0.397805 -1.5 0 -1.5 
C -0.397805 -1.5 -0.77937 -1.341951 -1.06066 -1.06066 
C -1.341951 -0.77937 -1.5 -0.397805 -1.5 0 
C -1.5 0.397805 -1.341951 0.77937 -1.06066 1.06066 
C -0.77937 1.341951 -0.397805 1.5 0 1.5 
z
" style="stroke: #ffff00"/>
    </defs>
    <g clip-path="url(#pa543574115)">
     <use xlink:href="#m9c5930776e" x="110.790507" y="199.856042" style="fill: #ffff00; stroke: #ffff00"/>
     <use xlink:href="#m9c5930776e" x="212.552113" y="177.006351" style="fill: #ffff00; stroke: #ffff00"/>
     <use xlink:href="#m9c5930776e" x="192.585393" y="221.768564" style="fill: #ffff00; stroke: #ffff00"/>
     <use xlink:href="#m9c5930776e" x="134.141245" y="141.878766" style="fill: #ffff00; stroke: #ffff00"/>
     <use xlink:href="#m9c5930776e" x="102.499942" y="214.919722" style="fill: #ffff00; stroke: #ffff00"/>
     <use xlink:href="#m9c5930776e" x="100.561375" y="199.442947" style="fill: #ffff00; stroke: #ffff00"/>
     <use xlink:href="#m9c5930776e" x="104.040902" y="217.571082" style="fill: #ffff00; stroke: #ffff00"/>
     <use xlink:href="#m9c5930776e" x="136.517564" y="229.183262" style="fill: #ffff00; stroke: #ffff00"/>
     <use xlink:href="#m9c5930776e" x="156.276649" y="182.482533" style="fill: #ffff00; stroke: #ffff00"/>
     <use xlink:href="#m9c5930776e" x="219.672491" y="198.172052" style="fill: #ffff00; stroke: #ffff00"/>
     <use xlink:href="#m9c5930776e" x="147.73885" y="133.298171" style="fill: #ffff00; stroke: #ffff00"/>
     <use xlink:href="#m9c5930776e" x="136.384666" y="210.000829" style="fill: #ffff00; stroke: #ffff00"/>
     <use xlink:href="#m9c5930776e" x="133.099576" y="218.036512" style="fill: #ffff00; stroke: #ffff00"/>
     <use xlink:href="#m9c5930776e" x="113.561142" y="176.899454" style="fill: #ffff00; stroke: #ffff00"/>
    </g>
   </g>
   <g id="PathCollection_6">
    <defs>
     <path id="ma1b5e22c51" d="M 0 1.5 
C 0.397805 1.5 0.77937 1.341951 1.06066 1.06066 
C 1.341951 0.77937 1.5 0.397805 1.5 0 
C 1.5 -0.397805 1.341951 -0.77937 1.06066 -1.06066 
C 0.77937 -1.341951 0.397805 -1.5 0 -1.5 
C -0.397805 -1.5 -0.77937 -1.341951 -1.06066 -1.06066 
C -1.341951 -0.77937 -1.5 -0.397805 -1.5 0 
C -1.5 0.397805 -1.341951 0.77937 -1.06066 1.06066 
C -0.77937 1.341951 -0.397805 1.5 0 1.5 
z
" style="stroke: #00ffff"/>
    </defs>
    <g clip-path="url(#pa543574115)">
     <use xlink:href="#ma1b5e22c51" x="199.809697" y="233.392437" style="fill: #00ffff; stroke: #00ffff"/>
     <use xlink:href="#ma1b5e22c51" x="124.311326" y="203.982391" style="fill: #00ffff; stroke: #00ffff"/>
     <use xlink:href="#ma1b5e22c51" x="126.108787" y="215.200357" style="fill: #00ffff; stroke: #00ffff"/>
     <use xlink:href="#ma1b5e22c51" x="157.448455" y="182.294002" style="fill: #00ffff; stroke: #00ffff"/>
     <use xlink:href="#ma1b5e22c51" x="114.999408" y="192.782424" style="fill: #00ffff; stroke: #00ffff"/>
     <use xlink:href="#ma1b5e22c51" x="160.381749" y="165.874901" style="fill: #00ffff; stroke: #00ffff"/>
     <use xlink:href="#ma1b5e22c51" x="197.869822" y="198.889056" style="fill: #00ffff; stroke: #00ffff"/>
     <use xlink:href="#ma1b5e22c51" x="100.287357" y="254.413197" style="fill: #00ffff; stroke: #00ffff"/>
     <use xlink:href="#ma1b5e22c51" x="155.062565" y="211.86674" style="fill: #00ffff; stroke: #00ffff"/>
     <use xlink:href="#ma1b5e22c51" x="152.53072" y="233.316646" style="fill: #00ffff; stroke: #00ffff"/>
     <use xlink:href="#ma1b5e22c51" x="135.709795" y="187.142069" style="fill: #00ffff; stroke: #00ffff"/>
     <use xlink:href="#ma1b5e22c51" x="134.790772" y="228.785978" style="fill: #00ffff; stroke: #00ffff"/>
     <use xlink:href="#ma1b5e22c51" x="98.280668" y="216.354484" style="fill: #00ffff; stroke: #00ffff"/>
     <use xlink:href="#ma1b5e22c51" x="91.361371" y="205.654707" style="fill: #00ffff; stroke: #00ffff"/>
     <use xlink:href="#ma1b5e22c51" x="110.623044" y="261.216" style="fill: #00ffff; stroke: #00ffff"/>
     <use xlink:href="#ma1b5e22c51" x="154.891276" y="225.348206" style="fill: #00ffff; stroke: #00ffff"/>
    </g>
   </g>
   <g id="PathCollection_7">
    <defs>
     <path id="mfe22beffc6" d="M 0 1.5 
C 0.397805 1.5 0.77937 1.341951 1.06066 1.06066 
C 1.341951 0.77937 1.5 0.397805 1.5 0 
C 1.5 -0.397805 1.341951 -0.77937 1.06066 -1.06066 
C 0.77937 -1.341951 0.397805 -1.5 0 -1.5 
C -0.397805 -1.5 -0.77937 -1.341951 -1.06066 -1.06066 
C -1.341951 -0.77937 -1.5 -0.397805 -1.5 0 
C -1.5 0.397805 -1.341951 0.77937 -1.06066 1.06066 
C -0.77937 1.341951 -0.397805 1.5 0 1.5 
z
" style="stroke: #0000ff"/>
    </defs>
    <g clip-path="url(#pa543574115)">
     <use xlink:href="#mfe22beffc6" x="105.229773" y="210.570704" style="fill: #0000ff; stroke: #0000ff"/>
     <use xlink:href="#mfe22beffc6" x="156.094252" y="200.079881" style="fill: #0000ff; stroke: #0000ff"/>
     <use xlink:href="#mfe22beffc6" x="125.136081" y="178.327367" style="fill: #0000ff; stroke: #0000ff"/>
     <use xlink:href="#mfe22beffc6" x="98.391261" y="196.618656" style="fill: #0000ff; stroke: #0000ff"/>
     <use xlink:href="#mfe22beffc6" x="145.339949" y="167.34091" style="fill: #0000ff; stroke: #0000ff"/>
     <use xlink:href="#mfe22beffc6" x="156.070373" y="214.074713" style="fill: #0000ff; stroke: #0000ff"/>
     <use xlink:href="#mfe22beffc6" x="99.973134" y="201.524771" style="fill: #0000ff; stroke: #0000ff"/>
     <use xlink:href="#mfe22beffc6" x="131.785562" y="193.489233" style="fill: #0000ff; stroke: #0000ff"/>
     <use xlink:href="#mfe22beffc6" x="107.704917" y="196.334673" style="fill: #0000ff; stroke: #0000ff"/>
    </g>
   </g>
   <g id="PathCollection_8">
    <defs>
     <path id="md4438c5538" d="M 0 1.5 
C 0.397805 1.5 0.77937 1.341951 1.06066 1.06066 
C 1.341951 0.77937 1.5 0.397805 1.5 0 
C 1.5 -0.397805 1.341951 -0.77937 1.06066 -1.06066 
C 0.77937 -1.341951 0.397805 -1.5 0 -1.5 
C -0.397805 -1.5 -0.77937 -1.341951 -1.06066 -1.06066 
C -1.341951 -0.77937 -1.5 -0.397805 -1.5 0 
C -1.5 0.397805 -1.341951 0.77937 -1.06066 1.06066 
C -0.77937 1.341951 -0.397805 1.5 0 1.5 
z
" style="stroke: #dc143c"/>
    </defs>
    <g clip-path="url(#pa543574115)">
     <use xlink:href="#md4438c5538" x="78.45333" y="94.704186" style="fill: #dc143c; stroke: #dc143c"/>
     <use xlink:href="#md4438c5538" x="68.266096" y="141.689444" style="fill: #dc143c; stroke: #dc143c"/>
     <use xlink:href="#md4438c5538" x="95.115342" y="190.701088" style="fill: #dc143c; stroke: #dc143c"/>
     <use xlink:href="#md4438c5538" x="80.01732" y="101.013336" style="fill: #dc143c; stroke: #dc143c"/>
     <use xlink:href="#md4438c5538" x="112.833914" y="186.05377" style="fill: #dc143c; stroke: #dc143c"/>
     <use xlink:href="#md4438c5538" x="62.180076" y="147.866063" style="fill: #dc143c; stroke: #dc143c"/>
     <use xlink:href="#md4438c5538" x="79.629813" y="164.156682" style="fill: #dc143c; stroke: #dc143c"/>
     <use xlink:href="#md4438c5538" x="96.096711" y="129.24562" style="fill: #dc143c; stroke: #dc143c"/>
     <use xlink:href="#md4438c5538" x="107.391126" y="136.725675" style="fill: #dc143c; stroke: #dc143c"/>
     <use xlink:href="#md4438c5538" x="61.806029" y="139.870011" style="fill: #dc143c; stroke: #dc143c"/>
     <use xlink:href="#md4438c5538" x="67.992798" y="152.187986" style="fill: #dc143c; stroke: #dc143c"/>
     <use xlink:href="#md4438c5538" x="178.220244" y="111.520807" style="fill: #dc143c; stroke: #dc143c"/>
     <use xlink:href="#md4438c5538" x="80.353763" y="90.906016" style="fill: #dc143c; stroke: #dc143c"/>
    </g>
   </g>
   <g id="PathCollection_9">
    <defs>
     <path id="m25995251d3" d="M 0 1.5 
C 0.397805 1.5 0.77937 1.341951 1.06066 1.06066 
C 1.341951 0.77937 1.5 0.397805 1.5 0 
C 1.5 -0.397805 1.341951 -0.77937 1.06066 -1.06066 
C 0.77937 -1.341951 0.397805 -1.5 0 -1.5 
C -0.397805 -1.5 -0.77937 -1.341951 -1.06066 -1.06066 
C -1.341951 -0.77937 -1.5 -0.397805 -1.5 0 
C -1.5 0.397805 -1.341951 0.77937 -1.06066 1.06066 
C -0.77937 1.341951 -0.397805 1.5 0 1.5 
z
" style="stroke: #ffe4c4"/>
    </defs>
    <g clip-path="url(#pa543574115)">
     <use xlink:href="#m25995251d3" x="193.085286" y="119.541665" style="fill: #ffe4c4; stroke: #ffe4c4"/>
     <use xlink:href="#m25995251d3" x="186.259441" y="205.440194" style="fill: #ffe4c4; stroke: #ffe4c4"/>
     <use xlink:href="#m25995251d3" x="166.787132" y="127.1106" style="fill: #ffe4c4; stroke: #ffe4c4"/>
     <use xlink:href="#m25995251d3" x="182.670535" y="133.330485" style="fill: #ffe4c4; stroke: #ffe4c4"/>
     <use xlink:href="#m25995251d3" x="201.116448" y="106.720528" style="fill: #ffe4c4; stroke: #ffe4c4"/>
     <use xlink:href="#m25995251d3" x="148.984427" y="120.558203" style="fill: #ffe4c4; stroke: #ffe4c4"/>
     <use xlink:href="#m25995251d3" x="196.109528" y="136.538091" style="fill: #ffe4c4; stroke: #ffe4c4"/>
     <use xlink:href="#m25995251d3" x="243.782443" y="139.712886" style="fill: #ffe4c4; stroke: #ffe4c4"/>
     <use xlink:href="#m25995251d3" x="153.045703" y="108.247172" style="fill: #ffe4c4; stroke: #ffe4c4"/>
     <use xlink:href="#m25995251d3" x="145.079029" y="154.085733" style="fill: #ffe4c4; stroke: #ffe4c4"/>
     <use xlink:href="#m25995251d3" x="168.027929" y="104.770751" style="fill: #ffe4c4; stroke: #ffe4c4"/>
     <use xlink:href="#m25995251d3" x="132.575742" y="178.544341" style="fill: #ffe4c4; stroke: #ffe4c4"/>
     <use xlink:href="#m25995251d3" x="148.940089" y="181.402372" style="fill: #ffe4c4; stroke: #ffe4c4"/>
    </g>
   </g>
   <g id="PathCollection_10">
    <defs>
     <path id="m32ee0a4ffe" d="M -2.99994 2.99994 
L 3.00006 2.99994 
L 3.00006 -3.00006 
L -2.99994 -3.00006 
z
" style="stroke: #000000"/>
    </defs>
    <g clip-path="url(#pa543574115)">
     <use xlink:href="#m32ee0a4ffe" x="320.067404" y="154.829086" style="stroke: #000000"/>
     <use xlink:href="#m32ee0a4ffe" x="285.802788" y="209.450706" style="stroke: #000000"/>
     <use xlink:href="#m32ee0a4ffe" x="223.367503" y="171.695581" style="stroke: #000000"/>
     <use xlink:href="#m32ee0a4ffe" x="209.599029" y="161.306371" style="stroke: #000000"/>
     <use xlink:href="#m32ee0a4ffe" x="108.311261" y="207.98657" style="stroke: #000000"/>
     <use xlink:href="#m32ee0a4ffe" x="269.182897" y="141.912113" style="stroke: #000000"/>
     <use xlink:href="#m32ee0a4ffe" x="297.631535" y="169.920958" style="stroke: #000000"/>
     <use xlink:href="#m32ee0a4ffe" x="181.631899" y="183.184643" style="stroke: #000000"/>
     <use xlink:href="#m32ee0a4ffe" x="248.287354" y="158.160441" style="stroke: #000000"/>
     <use xlink:href="#m32ee0a4ffe" x="352.850459" y="146.866892" style="stroke: #000000"/>
     <use xlink:href="#m32ee0a4ffe" x="215.233331" y="169.396875" style="stroke: #000000"/>
     <use xlink:href="#m32ee0a4ffe" x="168.985494" y="153.015299" style="stroke: #000000"/>
     <use xlink:href="#m32ee0a4ffe" x="366.353045" y="156.696229" style="stroke: #000000"/>
     <use xlink:href="#m32ee0a4ffe" x="289.30122" y="126.261432" style="stroke: #000000"/>
     <use xlink:href="#m32ee0a4ffe" x="253.870457" y="219.365837" style="stroke: #000000"/>
     <use xlink:href="#m32ee0a4ffe" x="167.911168" y="189.28985" style="stroke: #000000"/>
     <use xlink:href="#m32ee0a4ffe" x="260.06737" y="173.288509" style="stroke: #000000"/>
     <use xlink:href="#m32ee0a4ffe" x="176.148766" y="204.800513" style="stroke: #000000"/>
     <use xlink:href="#m32ee0a4ffe" x="152.041049" y="205.702977" style="stroke: #000000"/>
     <use xlink:href="#m32ee0a4ffe" x="334.743982" y="148.261979" style="stroke: #000000"/>
     <use xlink:href="#m32ee0a4ffe" x="110.043193" y="175.288834" style="stroke: #000000"/>
     <use xlink:href="#m32ee0a4ffe" x="287.184222" y="184.765346" style="stroke: #000000"/>
     <use xlink:href="#m32ee0a4ffe" x="189.896939" y="226.516395" style="stroke: #000000"/>
     <use xlink:href="#m32ee0a4ffe" x="359.177516" y="146.979903" style="stroke: #000000"/>
     <use xlink:href="#m32ee0a4ffe" x="185.514426" y="227.759042" style="stroke: #000000"/>
     <use xlink:href="#m32ee0a4ffe" x="168.379438" y="154.726546" style="stroke: #000000"/>
     <use xlink:href="#m32ee0a4ffe" x="157.018672" y="207.319374" style="stroke: #000000"/>
     <use xlink:href="#m32ee0a4ffe" x="311.496577" y="199.010247" style="stroke: #000000"/>
     <use xlink:href="#m32ee0a4ffe" x="210.597908" y="138.56738" style="stroke: #000000"/>
     <use xlink:href="#m32ee0a4ffe" x="287.184222" y="184.765346" style="stroke: #000000"/>
     <use xlink:href="#m32ee0a4ffe" x="375.543697" y="172.082828" style="stroke: #000000"/>
     <use xlink:href="#m32ee0a4ffe" x="287.52154" y="157.924678" style="stroke: #000000"/>
     <use xlink:href="#m32ee0a4ffe" x="214.24379" y="153.33947" style="stroke: #000000"/>
     <use xlink:href="#m32ee0a4ffe" x="285.724577" y="178.362086" style="stroke: #000000"/>
     <use xlink:href="#m32ee0a4ffe" x="315.667558" y="185.566134" style="stroke: #000000"/>
     <use xlink:href="#m32ee0a4ffe" x="370.059826" y="144.138407" style="stroke: #000000"/>
     <use xlink:href="#m32ee0a4ffe" x="147.662504" y="215.067848" style="stroke: #000000"/>
     <use xlink:href="#m32ee0a4ffe" x="208.742742" y="158.141206" style="stroke: #000000"/>
     <use xlink:href="#m32ee0a4ffe" x="314.536348" y="143.031534" style="stroke: #000000"/>
     <use xlink:href="#m32ee0a4ffe" x="376.19196" y="141.757758" style="stroke: #000000"/>
     <use xlink:href="#m32ee0a4ffe" x="269.471293" y="158.097542" style="stroke: #000000"/>
     <use xlink:href="#m32ee0a4ffe" x="104.934412" y="206.770519" style="stroke: #000000"/>
     <use xlink:href="#m32ee0a4ffe" x="233.447973" y="142.812376" style="stroke: #000000"/>
     <use xlink:href="#m32ee0a4ffe" x="227.473923" y="170.597158" style="stroke: #000000"/>
     <use xlink:href="#m32ee0a4ffe" x="232.563782" y="183.3057" style="stroke: #000000"/>
     <use xlink:href="#m32ee0a4ffe" x="163.627958" y="198.102834" style="stroke: #000000"/>
     <use xlink:href="#m32ee0a4ffe" x="328.027692" y="172.144465" style="stroke: #000000"/>
     <use xlink:href="#m32ee0a4ffe" x="145.908924" y="248.287393" style="stroke: #000000"/>
     <use xlink:href="#m32ee0a4ffe" x="239.162175" y="173.61619" style="stroke: #000000"/>
     <use xlink:href="#m32ee0a4ffe" x="243.708563" y="160.29021" style="stroke: #000000"/>
     <use xlink:href="#m32ee0a4ffe" x="233.877765" y="176.517437" style="stroke: #000000"/>
     <use xlink:href="#m32ee0a4ffe" x="143.172787" y="156.092591" style="stroke: #000000"/>
     <use xlink:href="#m32ee0a4ffe" x="262.59656" y="183.989681" style="stroke: #000000"/>
     <use xlink:href="#m32ee0a4ffe" x="197.693425" y="179.34085" style="stroke: #000000"/>
     <use xlink:href="#m32ee0a4ffe" x="235.362068" y="177.709414" style="stroke: #000000"/>
     <use xlink:href="#m32ee0a4ffe" x="241.729306" y="141.905141" style="stroke: #000000"/>
     <use xlink:href="#m32ee0a4ffe" x="246.410044" y="165.530974" style="stroke: #000000"/>
     <use xlink:href="#m32ee0a4ffe" x="334.296672" y="117.499921" style="stroke: #000000"/>
     <use xlink:href="#m32ee0a4ffe" x="196.053373" y="184.398653" style="stroke: #000000"/>
     <use xlink:href="#m32ee0a4ffe" x="291.419518" y="177.571418" style="stroke: #000000"/>
     <use xlink:href="#m32ee0a4ffe" x="212.30539" y="232.187903" style="stroke: #000000"/>
     <use xlink:href="#m32ee0a4ffe" x="158.776221" y="184.560408" style="stroke: #000000"/>
     <use xlink:href="#m32ee0a4ffe" x="231.908658" y="160.610233" style="stroke: #000000"/>
     <use xlink:href="#m32ee0a4ffe" x="269.693298" y="168.484703" style="stroke: #000000"/>
    </g>
   </g>
   <g id="PathCollection_11">
    <defs>
     <path id="m6bfda4a8e0" d="M -3 -0 
L 3 3 
L 3 -3 
z
" style="stroke: #ff8c00"/>
    </defs>
    <g clip-path="url(#pa543574115)">
     <use xlink:href="#m6bfda4a8e0" x="185.682702" y="161.557391" style="fill: #ff8c00; stroke: #ff8c00"/>
     <use xlink:href="#m6bfda4a8e0" x="142.437408" y="177.017121" style="fill: #ff8c00; stroke: #ff8c00"/>
     <use xlink:href="#m6bfda4a8e0" x="206.760845" y="157.990636" style="fill: #ff8c00; stroke: #ff8c00"/>
     <use xlink:href="#m6bfda4a8e0" x="216.412345" y="175.312365" style="fill: #ff8c00; stroke: #ff8c00"/>
     <use xlink:href="#m6bfda4a8e0" x="200.032213" y="184.654026" style="fill: #ff8c00; stroke: #ff8c00"/>
     <use xlink:href="#m6bfda4a8e0" x="190.638448" y="162.578899" style="fill: #ff8c00; stroke: #ff8c00"/>
     <use xlink:href="#m6bfda4a8e0" x="187.12595" y="188.800941" style="fill: #ff8c00; stroke: #ff8c00"/>
     <use xlink:href="#m6bfda4a8e0" x="204.669796" y="213.930017" style="fill: #ff8c00; stroke: #ff8c00"/>
     <use xlink:href="#m6bfda4a8e0" x="165.562545" y="204.328203" style="fill: #ff8c00; stroke: #ff8c00"/>
     <use xlink:href="#m6bfda4a8e0" x="212.774902" y="154.338812" style="fill: #ff8c00; stroke: #ff8c00"/>
     <use xlink:href="#m6bfda4a8e0" x="200.349005" y="187.000948" style="fill: #ff8c00; stroke: #ff8c00"/>
     <use xlink:href="#m6bfda4a8e0" x="179.5957" y="240.925122" style="fill: #ff8c00; stroke: #ff8c00"/>
     <use xlink:href="#m6bfda4a8e0" x="271.158581" y="159.856307" style="fill: #ff8c00; stroke: #ff8c00"/>
     <use xlink:href="#m6bfda4a8e0" x="162.018108" y="196.347989" style="fill: #ff8c00; stroke: #ff8c00"/>
     <use xlink:href="#m6bfda4a8e0" x="201.752857" y="175.963674" style="fill: #ff8c00; stroke: #ff8c00"/>
     <use xlink:href="#m6bfda4a8e0" x="173.902232" y="190.935192" style="fill: #ff8c00; stroke: #ff8c00"/>
     <use xlink:href="#m6bfda4a8e0" x="179.83982" y="186.69526" style="fill: #ff8c00; stroke: #ff8c00"/>
     <use xlink:href="#m6bfda4a8e0" x="145.077923" y="201.889234" style="fill: #ff8c00; stroke: #ff8c00"/>
     <use xlink:href="#m6bfda4a8e0" x="265.981809" y="150.026152" style="fill: #ff8c00; stroke: #ff8c00"/>
     <use xlink:href="#m6bfda4a8e0" x="198.089992" y="202.685392" style="fill: #ff8c00; stroke: #ff8c00"/>
     <use xlink:href="#m6bfda4a8e0" x="207.939602" y="231.205353" style="fill: #ff8c00; stroke: #ff8c00"/>
     <use xlink:href="#m6bfda4a8e0" x="172.268545" y="196.04339" style="fill: #ff8c00; stroke: #ff8c00"/>
     <use xlink:href="#m6bfda4a8e0" x="229.808741" y="195.24568" style="fill: #ff8c00; stroke: #ff8c00"/>
     <use xlink:href="#m6bfda4a8e0" x="190.889112" y="201.213816" style="fill: #ff8c00; stroke: #ff8c00"/>
     <use xlink:href="#m6bfda4a8e0" x="141.55491" y="206.983276" style="fill: #ff8c00; stroke: #ff8c00"/>
     <use xlink:href="#m6bfda4a8e0" x="267.41707" y="189.092732" style="fill: #ff8c00; stroke: #ff8c00"/>
     <use xlink:href="#m6bfda4a8e0" x="135.991451" y="196.441703" style="fill: #ff8c00; stroke: #ff8c00"/>
     <use xlink:href="#m6bfda4a8e0" x="247.883312" y="172.241739" style="fill: #ff8c00; stroke: #ff8c00"/>
     <use xlink:href="#m6bfda4a8e0" x="185.279061" y="208.321955" style="fill: #ff8c00; stroke: #ff8c00"/>
     <use xlink:href="#m6bfda4a8e0" x="232.07045" y="126.184401" style="fill: #ff8c00; stroke: #ff8c00"/>
     <use xlink:href="#m6bfda4a8e0" x="147.516927" y="199.877662" style="fill: #ff8c00; stroke: #ff8c00"/>
     <use xlink:href="#m6bfda4a8e0" x="214.33592" y="220.159677" style="fill: #ff8c00; stroke: #ff8c00"/>
     <use xlink:href="#m6bfda4a8e0" x="162.294126" y="145.241701" style="fill: #ff8c00; stroke: #ff8c00"/>
     <use xlink:href="#m6bfda4a8e0" x="208.212692" y="193.06405" style="fill: #ff8c00; stroke: #ff8c00"/>
     <use xlink:href="#m6bfda4a8e0" x="247.65201" y="169.13467" style="fill: #ff8c00; stroke: #ff8c00"/>
     <use xlink:href="#m6bfda4a8e0" x="191.791605" y="189.091554" style="fill: #ff8c00; stroke: #ff8c00"/>
     <use xlink:href="#m6bfda4a8e0" x="255.993594" y="177.508964" style="fill: #ff8c00; stroke: #ff8c00"/>
     <use xlink:href="#m6bfda4a8e0" x="204.800865" y="202.270587" style="fill: #ff8c00; stroke: #ff8c00"/>
     <use xlink:href="#m6bfda4a8e0" x="164.174663" y="164.511449" style="fill: #ff8c00; stroke: #ff8c00"/>
     <use xlink:href="#m6bfda4a8e0" x="213.113627" y="187.987196" style="fill: #ff8c00; stroke: #ff8c00"/>
     <use xlink:href="#m6bfda4a8e0" x="187.29383" y="179.238194" style="fill: #ff8c00; stroke: #ff8c00"/>
     <use xlink:href="#m6bfda4a8e0" x="206.41633" y="171.784767" style="fill: #ff8c00; stroke: #ff8c00"/>
     <use xlink:href="#m6bfda4a8e0" x="161.97867" y="214.246933" style="fill: #ff8c00; stroke: #ff8c00"/>
     <use xlink:href="#m6bfda4a8e0" x="227.08812" y="174.358712" style="fill: #ff8c00; stroke: #ff8c00"/>
     <use xlink:href="#m6bfda4a8e0" x="245.729214" y="187.872753" style="fill: #ff8c00; stroke: #ff8c00"/>
     <use xlink:href="#m6bfda4a8e0" x="218.769347" y="155.342902" style="fill: #ff8c00; stroke: #ff8c00"/>
     <use xlink:href="#m6bfda4a8e0" x="263.64628" y="154.770713" style="fill: #ff8c00; stroke: #ff8c00"/>
     <use xlink:href="#m6bfda4a8e0" x="135.335049" y="172.969748" style="fill: #ff8c00; stroke: #ff8c00"/>
     <use xlink:href="#m6bfda4a8e0" x="193.145781" y="203.646915" style="fill: #ff8c00; stroke: #ff8c00"/>
     <use xlink:href="#m6bfda4a8e0" x="195.463202" y="160.114095" style="fill: #ff8c00; stroke: #ff8c00"/>
     <use xlink:href="#m6bfda4a8e0" x="204.171044" y="187.638787" style="fill: #ff8c00; stroke: #ff8c00"/>
     <use xlink:href="#m6bfda4a8e0" x="179.98376" y="199.434015" style="fill: #ff8c00; stroke: #ff8c00"/>
     <use xlink:href="#m6bfda4a8e0" x="173.71344" y="174.88903" style="fill: #ff8c00; stroke: #ff8c00"/>
     <use xlink:href="#m6bfda4a8e0" x="159.123332" y="192.158363" style="fill: #ff8c00; stroke: #ff8c00"/>
     <use xlink:href="#m6bfda4a8e0" x="187.287954" y="156.536343" style="fill: #ff8c00; stroke: #ff8c00"/>
     <use xlink:href="#m6bfda4a8e0" x="145.830554" y="158.920984" style="fill: #ff8c00; stroke: #ff8c00"/>
     <use xlink:href="#m6bfda4a8e0" x="153.119294" y="155.992392" style="fill: #ff8c00; stroke: #ff8c00"/>
     <use xlink:href="#m6bfda4a8e0" x="199.386812" y="171.292208" style="fill: #ff8c00; stroke: #ff8c00"/>
     <use xlink:href="#m6bfda4a8e0" x="198.927452" y="198.459887" style="fill: #ff8c00; stroke: #ff8c00"/>
     <use xlink:href="#m6bfda4a8e0" x="197.105449" y="191.165719" style="fill: #ff8c00; stroke: #ff8c00"/>
     <use xlink:href="#m6bfda4a8e0" x="211.530478" y="209.682695" style="fill: #ff8c00; stroke: #ff8c00"/>
     <use xlink:href="#m6bfda4a8e0" x="218.042704" y="171.50331" style="fill: #ff8c00; stroke: #ff8c00"/>
     <use xlink:href="#m6bfda4a8e0" x="149.112672" y="167.166709" style="fill: #ff8c00; stroke: #ff8c00"/>
     <use xlink:href="#m6bfda4a8e0" x="197.374352" y="196.630977" style="fill: #ff8c00; stroke: #ff8c00"/>
    </g>
   </g>
   <g id="matplotlib.axis_1">
    <g id="xtick_1">
     <g id="line2d_1">
      <defs>
       <path id="m6ceed9405c" d="M 0 0 
L 0 3.5 
" style="stroke: #000000; stroke-width: 0.8"/>
      </defs>
      <g>
       <use xlink:href="#m6ceed9405c" x="59.454484" y="273.312" style="stroke: #000000; stroke-width: 0.8"/>
      </g>
     </g>
     <g id="text_1">
      <!-- −20 -->
      <g transform="translate(48.90214 287.910437) scale(0.1 -0.1)">
       <defs>
        <path id="DejaVuSans-2212" d="M 678 2272 
L 4684 2272 
L 4684 1741 
L 678 1741 
L 678 2272 
z
" transform="scale(0.015625)"/>
        <path id="DejaVuSans-32" d="M 1228 531 
L 3431 531 
L 3431 0 
L 469 0 
L 469 531 
Q 828 903 1448 1529 
Q 2069 2156 2228 2338 
Q 2531 2678 2651 2914 
Q 2772 3150 2772 3378 
Q 2772 3750 2511 3984 
Q 2250 4219 1831 4219 
Q 1534 4219 1204 4116 
Q 875 4013 500 3803 
L 500 4441 
Q 881 4594 1212 4672 
Q 1544 4750 1819 4750 
Q 2544 4750 2975 4387 
Q 3406 4025 3406 3419 
Q 3406 3131 3298 2873 
Q 3191 2616 2906 2266 
Q 2828 2175 2409 1742 
Q 1991 1309 1228 531 
z
" transform="scale(0.015625)"/>
        <path id="DejaVuSans-30" d="M 2034 4250 
Q 1547 4250 1301 3770 
Q 1056 3291 1056 2328 
Q 1056 1369 1301 889 
Q 1547 409 2034 409 
Q 2525 409 2770 889 
Q 3016 1369 3016 2328 
Q 3016 3291 2770 3770 
Q 2525 4250 2034 4250 
z
M 2034 4750 
Q 2819 4750 3233 4129 
Q 3647 3509 3647 2328 
Q 3647 1150 3233 529 
Q 2819 -91 2034 -91 
Q 1250 -91 836 529 
Q 422 1150 422 2328 
Q 422 3509 836 4129 
Q 1250 4750 2034 4750 
z
" transform="scale(0.015625)"/>
       </defs>
       <use xlink:href="#DejaVuSans-2212"/>
       <use xlink:href="#DejaVuSans-32" x="83.789062"/>
       <use xlink:href="#DejaVuSans-30" x="147.412109"/>
      </g>
     </g>
    </g>
    <g id="xtick_2">
     <g id="line2d_2">
      <g>
       <use xlink:href="#m6ceed9405c" x="116.732515" y="273.312" style="stroke: #000000; stroke-width: 0.8"/>
      </g>
     </g>
     <g id="text_2">
      <!-- −10 -->
      <g transform="translate(106.180171 287.910437) scale(0.1 -0.1)">
       <defs>
        <path id="DejaVuSans-31" d="M 794 531 
L 1825 531 
L 1825 4091 
L 703 3866 
L 703 4441 
L 1819 4666 
L 2450 4666 
L 2450 531 
L 3481 531 
L 3481 0 
L 794 0 
L 794 531 
z
" transform="scale(0.015625)"/>
       </defs>
       <use xlink:href="#DejaVuSans-2212"/>
       <use xlink:href="#DejaVuSans-31" x="83.789062"/>
       <use xlink:href="#DejaVuSans-30" x="147.412109"/>
      </g>
     </g>
    </g>
    <g id="xtick_3">
     <g id="line2d_3">
      <g>
       <use xlink:href="#m6ceed9405c" x="174.010545" y="273.312" style="stroke: #000000; stroke-width: 0.8"/>
      </g>
     </g>
     <g id="text_3">
      <!-- 0 -->
      <g transform="translate(170.829295 287.910437) scale(0.1 -0.1)">
       <use xlink:href="#DejaVuSans-30"/>
      </g>
     </g>
    </g>
    <g id="xtick_4">
     <g id="line2d_4">
      <g>
       <use xlink:href="#m6ceed9405c" x="231.288576" y="273.312" style="stroke: #000000; stroke-width: 0.8"/>
      </g>
     </g>
     <g id="text_4">
      <!-- 10 -->
      <g transform="translate(224.926076 287.910437) scale(0.1 -0.1)">
       <use xlink:href="#DejaVuSans-31"/>
       <use xlink:href="#DejaVuSans-30" x="63.623047"/>
      </g>
     </g>
    </g>
    <g id="xtick_5">
     <g id="line2d_5">
      <g>
       <use xlink:href="#m6ceed9405c" x="288.566607" y="273.312" style="stroke: #000000; stroke-width: 0.8"/>
      </g>
     </g>
     <g id="text_5">
      <!-- 20 -->
      <g transform="translate(282.204107 287.910437) scale(0.1 -0.1)">
       <use xlink:href="#DejaVuSans-32"/>
       <use xlink:href="#DejaVuSans-30" x="63.623047"/>
      </g>
     </g>
    </g>
    <g id="xtick_6">
     <g id="line2d_6">
      <g>
       <use xlink:href="#m6ceed9405c" x="345.844637" y="273.312" style="stroke: #000000; stroke-width: 0.8"/>
      </g>
     </g>
     <g id="text_6">
      <!-- 30 -->
      <g transform="translate(339.482137 287.910437) scale(0.1 -0.1)">
       <defs>
        <path id="DejaVuSans-33" d="M 2597 2516 
Q 3050 2419 3304 2112 
Q 3559 1806 3559 1356 
Q 3559 666 3084 287 
Q 2609 -91 1734 -91 
Q 1441 -91 1130 -33 
Q 819 25 488 141 
L 488 750 
Q 750 597 1062 519 
Q 1375 441 1716 441 
Q 2309 441 2620 675 
Q 2931 909 2931 1356 
Q 2931 1769 2642 2001 
Q 2353 2234 1838 2234 
L 1294 2234 
L 1294 2753 
L 1863 2753 
Q 2328 2753 2575 2939 
Q 2822 3125 2822 3475 
Q 2822 3834 2567 4026 
Q 2313 4219 1838 4219 
Q 1578 4219 1281 4162 
Q 984 4106 628 3988 
L 628 4550 
Q 988 4650 1302 4700 
Q 1616 4750 1894 4750 
Q 2613 4750 3031 4423 
Q 3450 4097 3450 3541 
Q 3450 3153 3228 2886 
Q 3006 2619 2597 2516 
z
" transform="scale(0.015625)"/>
       </defs>
       <use xlink:href="#DejaVuSans-33"/>
       <use xlink:href="#DejaVuSans-30" x="63.623047"/>
      </g>
     </g>
    </g>
   </g>
   <g id="matplotlib.axis_2">
    <g id="ytick_1">
     <g id="line2d_7">
      <defs>
       <path id="mcbdbff4424" d="M 0 0 
L -3.5 0 
" style="stroke: #000000; stroke-width: 0.8"/>
      </defs>
      <g>
       <use xlink:href="#mcbdbff4424" x="35.304688" y="261.723945" style="stroke: #000000; stroke-width: 0.8"/>
      </g>
     </g>
     <g id="text_7">
      <!-- −20 -->
      <g transform="translate(7.2 265.523164) scale(0.1 -0.1)">
       <use xlink:href="#DejaVuSans-2212"/>
       <use xlink:href="#DejaVuSans-32" x="83.789062"/>
       <use xlink:href="#DejaVuSans-30" x="147.412109"/>
      </g>
     </g>
    </g>
    <g id="ytick_2">
     <g id="line2d_8">
      <g>
       <use xlink:href="#mcbdbff4424" x="35.304688" y="217.041118" style="stroke: #000000; stroke-width: 0.8"/>
      </g>
     </g>
     <g id="text_8">
      <!-- −10 -->
      <g transform="translate(7.2 220.840337) scale(0.1 -0.1)">
       <use xlink:href="#DejaVuSans-2212"/>
       <use xlink:href="#DejaVuSans-31" x="83.789062"/>
       <use xlink:href="#DejaVuSans-30" x="147.412109"/>
      </g>
     </g>
    </g>
    <g id="ytick_3">
     <g id="line2d_9">
      <g>
       <use xlink:href="#mcbdbff4424" x="35.304688" y="172.358291" style="stroke: #000000; stroke-width: 0.8"/>
      </g>
     </g>
     <g id="text_9">
      <!-- 0 -->
      <g transform="translate(21.942187 176.15751) scale(0.1 -0.1)">
       <use xlink:href="#DejaVuSans-30"/>
      </g>
     </g>
    </g>
    <g id="ytick_4">
     <g id="line2d_10">
      <g>
       <use xlink:href="#mcbdbff4424" x="35.304688" y="127.675464" style="stroke: #000000; stroke-width: 0.8"/>
      </g>
     </g>
     <g id="text_10">
      <!-- 10 -->
      <g transform="translate(15.579687 131.474682) scale(0.1 -0.1)">
       <use xlink:href="#DejaVuSans-31"/>
       <use xlink:href="#DejaVuSans-30" x="63.623047"/>
      </g>
     </g>
    </g>
    <g id="ytick_5">
     <g id="line2d_11">
      <g>
       <use xlink:href="#mcbdbff4424" x="35.304688" y="82.992636" style="stroke: #000000; stroke-width: 0.8"/>
      </g>
     </g>
     <g id="text_11">
      <!-- 20 -->
      <g transform="translate(15.579687 86.791855) scale(0.1 -0.1)">
       <use xlink:href="#DejaVuSans-32"/>
       <use xlink:href="#DejaVuSans-30" x="63.623047"/>
      </g>
     </g>
    </g>
    <g id="ytick_6">
     <g id="line2d_12">
      <g>
       <use xlink:href="#mcbdbff4424" x="35.304688" y="38.309809" style="stroke: #000000; stroke-width: 0.8"/>
      </g>
     </g>
     <g id="text_12">
      <!-- 30 -->
      <g transform="translate(15.579687 42.109028) scale(0.1 -0.1)">
       <use xlink:href="#DejaVuSans-33"/>
       <use xlink:href="#DejaVuSans-30" x="63.623047"/>
      </g>
     </g>
    </g>
   </g>
   <g id="patch_3">
    <path d="M 35.304688 273.312 
L 35.304688 7.2 
" style="fill: none; stroke: #000000; stroke-width: 0.8; stroke-linejoin: miter; stroke-linecap: square"/>
   </g>
   <g id="patch_4">
    <path d="M 392.424688 273.312 
L 392.424688 7.2 
" style="fill: none; stroke: #000000; stroke-width: 0.8; stroke-linejoin: miter; stroke-linecap: square"/>
   </g>
   <g id="patch_5">
    <path d="M 35.304688 273.312 
L 392.424688 273.312 
" style="fill: none; stroke: #000000; stroke-width: 0.8; stroke-linejoin: miter; stroke-linecap: square"/>
   </g>
   <g id="patch_6">
    <path d="M 35.304688 7.2 
L 392.424688 7.2 
" style="fill: none; stroke: #000000; stroke-width: 0.8; stroke-linejoin: miter; stroke-linecap: square"/>
   </g>
  </g>
 </g>
 <defs>
  <clipPath id="pa543574115">
   <rect x="35.304688" y="7.2" width="357.12" height="266.112"/>
  </clipPath>
 </defs>
</svg>
