<?xml version="1.0" encoding="utf-8" standalone="no"?>
<!DOCTYPE svg PUBLIC "-//W3C//DTD SVG 1.1//EN"
  "http://www.w3.org/Graphics/SVG/1.1/DTD/svg11.dtd">
<svg xmlns:xlink="http://www.w3.org/1999/xlink" width="352.353437pt" height="351.99625pt" viewBox="0 0 352.353437 351.99625" xmlns="http://www.w3.org/2000/svg" version="1.1">
 <metadata>
  <rdf:RDF xmlns:dc="http://purl.org/dc/elements/1.1/" xmlns:cc="http://creativecommons.org/ns#" xmlns:rdf="http://www.w3.org/1999/02/22-rdf-syntax-ns#">
   <cc:Work>
    <dc:type rdf:resource="http://purl.org/dc/dcmitype/StillImage"/>
    <dc:date>2023-11-16T00:20:41.741959</dc:date>
    <dc:format>image/svg+xml</dc:format>
    <dc:creator>
     <cc:Agent>
      <dc:title>Matplotlib v3.8.0, https://matplotlib.org/</dc:title>
     </cc:Agent>
    </dc:creator>
   </cc:Work>
  </rdf:RDF>
 </metadata>
 <defs>
  <style type="text/css">*{stroke-linejoin: round; stroke-linecap: butt}</style>
 </defs>
 <g id="figure_1">
  <g id="patch_1">
   <path d="M 0 351.99625 
L 352.353437 351.99625 
L 352.353437 0 
L 0 0 
z
" style="fill: #ffffff"/>
  </g>
  <g id="axes_1">
   <g id="patch_2">
    <path d="M 58.523438 314.44 
L 345.153437 314.44 
L 345.153437 7.2 
L 58.523438 7.2 
z
" style="fill: #ffffff"/>
   </g>
   <g id="matplotlib.axis_1">
    <g id="xtick_1">
     <g id="line2d_1">
      <defs>
       <path id="m7c98e49f13" d="M 0 0 
L 0 3.5 
" style="stroke: #000000; stroke-width: 0.8"/>
      </defs>
      <g>
       <use xlink:href="#m7c98e49f13" x="71.552074" y="314.44" style="stroke: #000000; stroke-width: 0.8"/>
      </g>
     </g>
     <g id="text_1">
      <!-- 0 -->
      <g transform="translate(68.370824 329.038438) scale(0.1 -0.1)">
       <defs>
        <path id="DejaVuSans-30" d="M 2034 4250 
Q 1547 4250 1301 3770 
Q 1056 3291 1056 2328 
Q 1056 1369 1301 889 
Q 1547 409 2034 409 
Q 2525 409 2770 889 
Q 3016 1369 3016 2328 
Q 3016 3291 2770 3770 
Q 2525 4250 2034 4250 
z
M 2034 4750 
Q 2819 4750 3233 4129 
Q 3647 3509 3647 2328 
Q 3647 1150 3233 529 
Q 2819 -91 2034 -91 
Q 1250 -91 836 529 
Q 422 1150 422 2328 
Q 422 3509 836 4129 
Q 1250 4750 2034 4750 
z
" transform="scale(0.015625)"/>
       </defs>
       <use xlink:href="#DejaVuSans-30"/>
      </g>
     </g>
    </g>
    <g id="xtick_2">
     <g id="line2d_2">
      <g>
       <use xlink:href="#m7c98e49f13" x="121.662214" y="314.44" style="stroke: #000000; stroke-width: 0.8"/>
      </g>
     </g>
     <g id="text_2">
      <!-- 10 -->
      <g transform="translate(115.299714 329.038438) scale(0.1 -0.1)">
       <defs>
        <path id="DejaVuSans-31" d="M 794 531 
L 1825 531 
L 1825 4091 
L 703 3866 
L 703 4441 
L 1819 4666 
L 2450 4666 
L 2450 531 
L 3481 531 
L 3481 0 
L 794 0 
L 794 531 
z
" transform="scale(0.015625)"/>
       </defs>
       <use xlink:href="#DejaVuSans-31"/>
       <use xlink:href="#DejaVuSans-30" x="63.623047"/>
      </g>
     </g>
    </g>
    <g id="xtick_3">
     <g id="line2d_3">
      <g>
       <use xlink:href="#m7c98e49f13" x="171.772354" y="314.44" style="stroke: #000000; stroke-width: 0.8"/>
      </g>
     </g>
     <g id="text_3">
      <!-- 20 -->
      <g transform="translate(165.409854 329.038438) scale(0.1 -0.1)">
       <defs>
        <path id="DejaVuSans-32" d="M 1228 531 
L 3431 531 
L 3431 0 
L 469 0 
L 469 531 
Q 828 903 1448 1529 
Q 2069 2156 2228 2338 
Q 2531 2678 2651 2914 
Q 2772 3150 2772 3378 
Q 2772 3750 2511 3984 
Q 2250 4219 1831 4219 
Q 1534 4219 1204 4116 
Q 875 4013 500 3803 
L 500 4441 
Q 881 4594 1212 4672 
Q 1544 4750 1819 4750 
Q 2544 4750 2975 4387 
Q 3406 4025 3406 3419 
Q 3406 3131 3298 2873 
Q 3191 2616 2906 2266 
Q 2828 2175 2409 1742 
Q 1991 1309 1228 531 
z
" transform="scale(0.015625)"/>
       </defs>
       <use xlink:href="#DejaVuSans-32"/>
       <use xlink:href="#DejaVuSans-30" x="63.623047"/>
      </g>
     </g>
    </g>
    <g id="xtick_4">
     <g id="line2d_4">
      <g>
       <use xlink:href="#m7c98e49f13" x="221.882493" y="314.44" style="stroke: #000000; stroke-width: 0.8"/>
      </g>
     </g>
     <g id="text_4">
      <!-- 30 -->
      <g transform="translate(215.519993 329.038438) scale(0.1 -0.1)">
       <defs>
        <path id="DejaVuSans-33" d="M 2597 2516 
Q 3050 2419 3304 2112 
Q 3559 1806 3559 1356 
Q 3559 666 3084 287 
Q 2609 -91 1734 -91 
Q 1441 -91 1130 -33 
Q 819 25 488 141 
L 488 750 
Q 750 597 1062 519 
Q 1375 441 1716 441 
Q 2309 441 2620 675 
Q 2931 909 2931 1356 
Q 2931 1769 2642 2001 
Q 2353 2234 1838 2234 
L 1294 2234 
L 1294 2753 
L 1863 2753 
Q 2328 2753 2575 2939 
Q 2822 3125 2822 3475 
Q 2822 3834 2567 4026 
Q 2313 4219 1838 4219 
Q 1578 4219 1281 4162 
Q 984 4106 628 3988 
L 628 4550 
Q 988 4650 1302 4700 
Q 1616 4750 1894 4750 
Q 2613 4750 3031 4423 
Q 3450 4097 3450 3541 
Q 3450 3153 3228 2886 
Q 3006 2619 2597 2516 
z
" transform="scale(0.015625)"/>
       </defs>
       <use xlink:href="#DejaVuSans-33"/>
       <use xlink:href="#DejaVuSans-30" x="63.623047"/>
      </g>
     </g>
    </g>
    <g id="xtick_5">
     <g id="line2d_5">
      <g>
       <use xlink:href="#m7c98e49f13" x="271.992633" y="314.44" style="stroke: #000000; stroke-width: 0.8"/>
      </g>
     </g>
     <g id="text_5">
      <!-- 40 -->
      <g transform="translate(265.630133 329.038438) scale(0.1 -0.1)">
       <defs>
        <path id="DejaVuSans-34" d="M 2419 4116 
L 825 1625 
L 2419 1625 
L 2419 4116 
z
M 2253 4666 
L 3047 4666 
L 3047 1625 
L 3713 1625 
L 3713 1100 
L 3047 1100 
L 3047 0 
L 2419 0 
L 2419 1100 
L 313 1100 
L 313 1709 
L 2253 4666 
z
" transform="scale(0.015625)"/>
       </defs>
       <use xlink:href="#DejaVuSans-34"/>
       <use xlink:href="#DejaVuSans-30" x="63.623047"/>
      </g>
     </g>
    </g>
    <g id="xtick_6">
     <g id="line2d_6">
      <g>
       <use xlink:href="#m7c98e49f13" x="322.102773" y="314.44" style="stroke: #000000; stroke-width: 0.8"/>
      </g>
     </g>
     <g id="text_6">
      <!-- 50 -->
      <g transform="translate(315.740273 329.038438) scale(0.1 -0.1)">
       <defs>
        <path id="DejaVuSans-35" d="M 691 4666 
L 3169 4666 
L 3169 4134 
L 1269 4134 
L 1269 2991 
Q 1406 3038 1543 3061 
Q 1681 3084 1819 3084 
Q 2600 3084 3056 2656 
Q 3513 2228 3513 1497 
Q 3513 744 3044 326 
Q 2575 -91 1722 -91 
Q 1428 -91 1123 -41 
Q 819 9 494 109 
L 494 744 
Q 775 591 1075 516 
Q 1375 441 1709 441 
Q 2250 441 2565 725 
Q 2881 1009 2881 1497 
Q 2881 1984 2565 2268 
Q 2250 2553 1709 2553 
Q 1456 2553 1204 2497 
Q 953 2441 691 2322 
L 691 4666 
z
" transform="scale(0.015625)"/>
       </defs>
       <use xlink:href="#DejaVuSans-35"/>
       <use xlink:href="#DejaVuSans-30" x="63.623047"/>
      </g>
     </g>
    </g>
    <g id="text_7">
     <!-- Epochs -->
     <g transform="translate(183.922812 342.716563) scale(0.1 -0.1)">
      <defs>
       <path id="DejaVuSans-45" d="M 628 4666 
L 3578 4666 
L 3578 4134 
L 1259 4134 
L 1259 2753 
L 3481 2753 
L 3481 2222 
L 1259 2222 
L 1259 531 
L 3634 531 
L 3634 0 
L 628 0 
L 628 4666 
z
" transform="scale(0.015625)"/>
       <path id="DejaVuSans-70" d="M 1159 525 
L 1159 -1331 
L 581 -1331 
L 581 3500 
L 1159 3500 
L 1159 2969 
Q 1341 3281 1617 3432 
Q 1894 3584 2278 3584 
Q 2916 3584 3314 3078 
Q 3713 2572 3713 1747 
Q 3713 922 3314 415 
Q 2916 -91 2278 -91 
Q 1894 -91 1617 61 
Q 1341 213 1159 525 
z
M 3116 1747 
Q 3116 2381 2855 2742 
Q 2594 3103 2138 3103 
Q 1681 3103 1420 2742 
Q 1159 2381 1159 1747 
Q 1159 1113 1420 752 
Q 1681 391 2138 391 
Q 2594 391 2855 752 
Q 3116 1113 3116 1747 
z
" transform="scale(0.015625)"/>
       <path id="DejaVuSans-6f" d="M 1959 3097 
Q 1497 3097 1228 2736 
Q 959 2375 959 1747 
Q 959 1119 1226 758 
Q 1494 397 1959 397 
Q 2419 397 2687 759 
Q 2956 1122 2956 1747 
Q 2956 2369 2687 2733 
Q 2419 3097 1959 3097 
z
M 1959 3584 
Q 2709 3584 3137 3096 
Q 3566 2609 3566 1747 
Q 3566 888 3137 398 
Q 2709 -91 1959 -91 
Q 1206 -91 779 398 
Q 353 888 353 1747 
Q 353 2609 779 3096 
Q 1206 3584 1959 3584 
z
" transform="scale(0.015625)"/>
       <path id="DejaVuSans-63" d="M 3122 3366 
L 3122 2828 
Q 2878 2963 2633 3030 
Q 2388 3097 2138 3097 
Q 1578 3097 1268 2742 
Q 959 2388 959 1747 
Q 959 1106 1268 751 
Q 1578 397 2138 397 
Q 2388 397 2633 464 
Q 2878 531 3122 666 
L 3122 134 
Q 2881 22 2623 -34 
Q 2366 -91 2075 -91 
Q 1284 -91 818 406 
Q 353 903 353 1747 
Q 353 2603 823 3093 
Q 1294 3584 2113 3584 
Q 2378 3584 2631 3529 
Q 2884 3475 3122 3366 
z
" transform="scale(0.015625)"/>
       <path id="DejaVuSans-68" d="M 3513 2113 
L 3513 0 
L 2938 0 
L 2938 2094 
Q 2938 2591 2744 2837 
Q 2550 3084 2163 3084 
Q 1697 3084 1428 2787 
Q 1159 2491 1159 1978 
L 1159 0 
L 581 0 
L 581 4863 
L 1159 4863 
L 1159 2956 
Q 1366 3272 1645 3428 
Q 1925 3584 2291 3584 
Q 2894 3584 3203 3211 
Q 3513 2838 3513 2113 
z
" transform="scale(0.015625)"/>
       <path id="DejaVuSans-73" d="M 2834 3397 
L 2834 2853 
Q 2591 2978 2328 3040 
Q 2066 3103 1784 3103 
Q 1356 3103 1142 2972 
Q 928 2841 928 2578 
Q 928 2378 1081 2264 
Q 1234 2150 1697 2047 
L 1894 2003 
Q 2506 1872 2764 1633 
Q 3022 1394 3022 966 
Q 3022 478 2636 193 
Q 2250 -91 1575 -91 
Q 1294 -91 989 -36 
Q 684 19 347 128 
L 347 722 
Q 666 556 975 473 
Q 1284 391 1588 391 
Q 1994 391 2212 530 
Q 2431 669 2431 922 
Q 2431 1156 2273 1281 
Q 2116 1406 1581 1522 
L 1381 1569 
Q 847 1681 609 1914 
Q 372 2147 372 2553 
Q 372 3047 722 3315 
Q 1072 3584 1716 3584 
Q 2034 3584 2315 3537 
Q 2597 3491 2834 3397 
z
" transform="scale(0.015625)"/>
      </defs>
      <use xlink:href="#DejaVuSans-45"/>
      <use xlink:href="#DejaVuSans-70" x="63.183594"/>
      <use xlink:href="#DejaVuSans-6f" x="126.660156"/>
      <use xlink:href="#DejaVuSans-63" x="187.841797"/>
      <use xlink:href="#DejaVuSans-68" x="242.822266"/>
      <use xlink:href="#DejaVuSans-73" x="306.201172"/>
     </g>
    </g>
   </g>
   <g id="matplotlib.axis_2">
    <g id="ytick_1">
     <g id="line2d_7">
      <defs>
       <path id="m063ee3bdae" d="M 0 0 
L -3.5 0 
" style="stroke: #000000; stroke-width: 0.8"/>
      </defs>
      <g>
       <use xlink:href="#m063ee3bdae" x="58.523438" y="294.340981" style="stroke: #000000; stroke-width: 0.8"/>
      </g>
     </g>
     <g id="text_8">
      <!-- −66.7 -->
      <g transform="translate(20.878125 298.140199) scale(0.1 -0.1)">
       <defs>
        <path id="DejaVuSans-2212" d="M 678 2272 
L 4684 2272 
L 4684 1741 
L 678 1741 
L 678 2272 
z
" transform="scale(0.015625)"/>
        <path id="DejaVuSans-36" d="M 2113 2584 
Q 1688 2584 1439 2293 
Q 1191 2003 1191 1497 
Q 1191 994 1439 701 
Q 1688 409 2113 409 
Q 2538 409 2786 701 
Q 3034 994 3034 1497 
Q 3034 2003 2786 2293 
Q 2538 2584 2113 2584 
z
M 3366 4563 
L 3366 3988 
Q 3128 4100 2886 4159 
Q 2644 4219 2406 4219 
Q 1781 4219 1451 3797 
Q 1122 3375 1075 2522 
Q 1259 2794 1537 2939 
Q 1816 3084 2150 3084 
Q 2853 3084 3261 2657 
Q 3669 2231 3669 1497 
Q 3669 778 3244 343 
Q 2819 -91 2113 -91 
Q 1303 -91 875 529 
Q 447 1150 447 2328 
Q 447 3434 972 4092 
Q 1497 4750 2381 4750 
Q 2619 4750 2861 4703 
Q 3103 4656 3366 4563 
z
" transform="scale(0.015625)"/>
        <path id="DejaVuSans-2e" d="M 684 794 
L 1344 794 
L 1344 0 
L 684 0 
L 684 794 
z
" transform="scale(0.015625)"/>
        <path id="DejaVuSans-37" d="M 525 4666 
L 3525 4666 
L 3525 4397 
L 1831 0 
L 1172 0 
L 2766 4134 
L 525 4134 
L 525 4666 
z
" transform="scale(0.015625)"/>
       </defs>
       <use xlink:href="#DejaVuSans-2212"/>
       <use xlink:href="#DejaVuSans-36" x="83.789062"/>
       <use xlink:href="#DejaVuSans-36" x="147.412109"/>
       <use xlink:href="#DejaVuSans-2e" x="211.035156"/>
       <use xlink:href="#DejaVuSans-37" x="242.822266"/>
      </g>
     </g>
    </g>
    <g id="ytick_2">
     <g id="line2d_8">
      <g>
       <use xlink:href="#m063ee3bdae" x="58.523438" y="242.560831" style="stroke: #000000; stroke-width: 0.8"/>
      </g>
     </g>
     <g id="text_9">
      <!-- −66.6 -->
      <g transform="translate(20.878125 246.36005) scale(0.1 -0.1)">
       <use xlink:href="#DejaVuSans-2212"/>
       <use xlink:href="#DejaVuSans-36" x="83.789062"/>
       <use xlink:href="#DejaVuSans-36" x="147.412109"/>
       <use xlink:href="#DejaVuSans-2e" x="211.035156"/>
       <use xlink:href="#DejaVuSans-36" x="242.822266"/>
      </g>
     </g>
    </g>
    <g id="ytick_3">
     <g id="line2d_9">
      <g>
       <use xlink:href="#m063ee3bdae" x="58.523438" y="190.780682" style="stroke: #000000; stroke-width: 0.8"/>
      </g>
     </g>
     <g id="text_10">
      <!-- −66.5 -->
      <g transform="translate(20.878125 194.579901) scale(0.1 -0.1)">
       <use xlink:href="#DejaVuSans-2212"/>
       <use xlink:href="#DejaVuSans-36" x="83.789062"/>
       <use xlink:href="#DejaVuSans-36" x="147.412109"/>
       <use xlink:href="#DejaVuSans-2e" x="211.035156"/>
       <use xlink:href="#DejaVuSans-35" x="242.822266"/>
      </g>
     </g>
    </g>
    <g id="ytick_4">
     <g id="line2d_10">
      <g>
       <use xlink:href="#m063ee3bdae" x="58.523438" y="139.000533" style="stroke: #000000; stroke-width: 0.8"/>
      </g>
     </g>
     <g id="text_11">
      <!-- −66.4 -->
      <g transform="translate(20.878125 142.799752) scale(0.1 -0.1)">
       <use xlink:href="#DejaVuSans-2212"/>
       <use xlink:href="#DejaVuSans-36" x="83.789062"/>
       <use xlink:href="#DejaVuSans-36" x="147.412109"/>
       <use xlink:href="#DejaVuSans-2e" x="211.035156"/>
       <use xlink:href="#DejaVuSans-34" x="242.822266"/>
      </g>
     </g>
    </g>
    <g id="ytick_5">
     <g id="line2d_11">
      <g>
       <use xlink:href="#m063ee3bdae" x="58.523438" y="87.220383" style="stroke: #000000; stroke-width: 0.8"/>
      </g>
     </g>
     <g id="text_12">
      <!-- −66.3 -->
      <g transform="translate(20.878125 91.019602) scale(0.1 -0.1)">
       <use xlink:href="#DejaVuSans-2212"/>
       <use xlink:href="#DejaVuSans-36" x="83.789062"/>
       <use xlink:href="#DejaVuSans-36" x="147.412109"/>
       <use xlink:href="#DejaVuSans-2e" x="211.035156"/>
       <use xlink:href="#DejaVuSans-33" x="242.822266"/>
      </g>
     </g>
    </g>
    <g id="ytick_6">
     <g id="line2d_12">
      <g>
       <use xlink:href="#m063ee3bdae" x="58.523438" y="35.440234" style="stroke: #000000; stroke-width: 0.8"/>
      </g>
     </g>
     <g id="text_13">
      <!-- −66.2 -->
      <g transform="translate(20.878125 39.239453) scale(0.1 -0.1)">
       <use xlink:href="#DejaVuSans-2212"/>
       <use xlink:href="#DejaVuSans-36" x="83.789062"/>
       <use xlink:href="#DejaVuSans-36" x="147.412109"/>
       <use xlink:href="#DejaVuSans-2e" x="211.035156"/>
       <use xlink:href="#DejaVuSans-32" x="242.822266"/>
      </g>
     </g>
    </g>
    <g id="text_14">
     <!-- CE+SNNL Loss -->
     <g transform="translate(14.798438 197.658281) rotate(-90) scale(0.1 -0.1)">
      <defs>
       <path id="DejaVuSans-43" d="M 4122 4306 
L 4122 3641 
Q 3803 3938 3442 4084 
Q 3081 4231 2675 4231 
Q 1875 4231 1450 3742 
Q 1025 3253 1025 2328 
Q 1025 1406 1450 917 
Q 1875 428 2675 428 
Q 3081 428 3442 575 
Q 3803 722 4122 1019 
L 4122 359 
Q 3791 134 3420 21 
Q 3050 -91 2638 -91 
Q 1578 -91 968 557 
Q 359 1206 359 2328 
Q 359 3453 968 4101 
Q 1578 4750 2638 4750 
Q 3056 4750 3426 4639 
Q 3797 4528 4122 4306 
z
" transform="scale(0.015625)"/>
       <path id="DejaVuSans-2b" d="M 2944 4013 
L 2944 2272 
L 4684 2272 
L 4684 1741 
L 2944 1741 
L 2944 0 
L 2419 0 
L 2419 1741 
L 678 1741 
L 678 2272 
L 2419 2272 
L 2419 4013 
L 2944 4013 
z
" transform="scale(0.015625)"/>
       <path id="DejaVuSans-53" d="M 3425 4513 
L 3425 3897 
Q 3066 4069 2747 4153 
Q 2428 4238 2131 4238 
Q 1616 4238 1336 4038 
Q 1056 3838 1056 3469 
Q 1056 3159 1242 3001 
Q 1428 2844 1947 2747 
L 2328 2669 
Q 3034 2534 3370 2195 
Q 3706 1856 3706 1288 
Q 3706 609 3251 259 
Q 2797 -91 1919 -91 
Q 1588 -91 1214 -16 
Q 841 59 441 206 
L 441 856 
Q 825 641 1194 531 
Q 1563 422 1919 422 
Q 2459 422 2753 634 
Q 3047 847 3047 1241 
Q 3047 1584 2836 1778 
Q 2625 1972 2144 2069 
L 1759 2144 
Q 1053 2284 737 2584 
Q 422 2884 422 3419 
Q 422 4038 858 4394 
Q 1294 4750 2059 4750 
Q 2388 4750 2728 4690 
Q 3069 4631 3425 4513 
z
" transform="scale(0.015625)"/>
       <path id="DejaVuSans-4e" d="M 628 4666 
L 1478 4666 
L 3547 763 
L 3547 4666 
L 4159 4666 
L 4159 0 
L 3309 0 
L 1241 3903 
L 1241 0 
L 628 0 
L 628 4666 
z
" transform="scale(0.015625)"/>
       <path id="DejaVuSans-4c" d="M 628 4666 
L 1259 4666 
L 1259 531 
L 3531 531 
L 3531 0 
L 628 0 
L 628 4666 
z
" transform="scale(0.015625)"/>
       <path id="DejaVuSans-20" transform="scale(0.015625)"/>
      </defs>
      <use xlink:href="#DejaVuSans-43"/>
      <use xlink:href="#DejaVuSans-45" x="69.824219"/>
      <use xlink:href="#DejaVuSans-2b" x="133.007812"/>
      <use xlink:href="#DejaVuSans-53" x="216.796875"/>
      <use xlink:href="#DejaVuSans-4e" x="280.273438"/>
      <use xlink:href="#DejaVuSans-4e" x="355.078125"/>
      <use xlink:href="#DejaVuSans-4c" x="429.882812"/>
      <use xlink:href="#DejaVuSans-20" x="485.595703"/>
      <use xlink:href="#DejaVuSans-4c" x="517.382812"/>
      <use xlink:href="#DejaVuSans-6f" x="571.345703"/>
      <use xlink:href="#DejaVuSans-73" x="632.527344"/>
      <use xlink:href="#DejaVuSans-73" x="684.626953"/>
     </g>
    </g>
   </g>
   <g id="line2d_13">
    <path d="M 71.552074 21.165455 
L 76.563088 237.566594 
L 81.574102 250.966731 
L 86.585116 260.305741 
L 91.59613 265.228078 
L 96.607144 269.344512 
L 101.618158 272.25999 
L 106.629172 274.685604 
L 111.640186 275.81545 
L 116.6512 278.82179 
L 121.662214 279.623744 
L 126.673228 281.267157 
L 131.684242 282.120467 
L 136.695256 283.210809 
L 141.70627 283.937703 
L 146.717284 285.130757 
L 151.728298 286.268505 
L 156.739312 286.663556 
L 161.750326 287.745996 
L 166.76134 288.216107 
L 171.772354 289.464469 
L 176.783368 289.255092 
L 181.794382 290.463948 
L 186.805396 290.495552 
L 191.81641 291.218496 
L 196.827424 291.803172 
L 201.838437 292.044153 
L 206.849451 292.537967 
L 211.860465 293.134494 
L 216.871479 293.509793 
L 221.882493 294.193232 
L 226.893507 294.386807 
L 231.904521 294.7226 
L 236.915535 295.299375 
L 241.926549 295.670723 
L 246.937563 296.057873 
L 251.948577 296.160586 
L 256.959591 296.405518 
L 261.970605 296.792668 
L 266.981619 297.26673 
L 271.992633 297.677583 
L 277.003647 297.993624 
L 282.014661 298.155595 
L 287.025675 298.266209 
L 292.036689 298.831133 
L 297.047703 298.81533 
L 302.058717 299.27754 
L 307.069731 299.486917 
L 312.080745 299.937276 
L 317.091759 300.107148 
L 322.102773 300.237515 
L 327.113787 300.423189 
L 332.124801 300.474545 
" clip-path="url(#pc958191c83)" style="fill: none; stroke-dasharray: 5.55,2.4; stroke-dashoffset: 0; stroke: #9467bd; stroke-width: 1.5"/>
    <defs>
     <path id="mecf2aa2c93" d="M 0 3 
C 0.795609 3 1.55874 2.683901 2.12132 2.12132 
C 2.683901 1.55874 3 0.795609 3 0 
C 3 -0.795609 2.683901 -1.55874 2.12132 -2.12132 
C 1.55874 -2.683901 0.795609 -3 0 -3 
C -0.795609 -3 -1.55874 -2.683901 -2.12132 -2.12132 
C -2.683901 -1.55874 -3 -0.795609 -3 0 
C -3 0.795609 -2.683901 1.55874 -2.12132 2.12132 
C -1.55874 2.683901 -0.795609 3 0 3 
z
" style="stroke: #9467bd"/>
    </defs>
    <g clip-path="url(#pc958191c83)">
     <use xlink:href="#mecf2aa2c93" x="71.552074" y="21.165455" style="fill: #9467bd; stroke: #9467bd"/>
     <use xlink:href="#mecf2aa2c93" x="76.563088" y="237.566594" style="fill: #9467bd; stroke: #9467bd"/>
     <use xlink:href="#mecf2aa2c93" x="81.574102" y="250.966731" style="fill: #9467bd; stroke: #9467bd"/>
     <use xlink:href="#mecf2aa2c93" x="86.585116" y="260.305741" style="fill: #9467bd; stroke: #9467bd"/>
     <use xlink:href="#mecf2aa2c93" x="91.59613" y="265.228078" style="fill: #9467bd; stroke: #9467bd"/>
     <use xlink:href="#mecf2aa2c93" x="96.607144" y="269.344512" style="fill: #9467bd; stroke: #9467bd"/>
     <use xlink:href="#mecf2aa2c93" x="101.618158" y="272.25999" style="fill: #9467bd; stroke: #9467bd"/>
     <use xlink:href="#mecf2aa2c93" x="106.629172" y="274.685604" style="fill: #9467bd; stroke: #9467bd"/>
     <use xlink:href="#mecf2aa2c93" x="111.640186" y="275.81545" style="fill: #9467bd; stroke: #9467bd"/>
     <use xlink:href="#mecf2aa2c93" x="116.6512" y="278.82179" style="fill: #9467bd; stroke: #9467bd"/>
     <use xlink:href="#mecf2aa2c93" x="121.662214" y="279.623744" style="fill: #9467bd; stroke: #9467bd"/>
     <use xlink:href="#mecf2aa2c93" x="126.673228" y="281.267157" style="fill: #9467bd; stroke: #9467bd"/>
     <use xlink:href="#mecf2aa2c93" x="131.684242" y="282.120467" style="fill: #9467bd; stroke: #9467bd"/>
     <use xlink:href="#mecf2aa2c93" x="136.695256" y="283.210809" style="fill: #9467bd; stroke: #9467bd"/>
     <use xlink:href="#mecf2aa2c93" x="141.70627" y="283.937703" style="fill: #9467bd; stroke: #9467bd"/>
     <use xlink:href="#mecf2aa2c93" x="146.717284" y="285.130757" style="fill: #9467bd; stroke: #9467bd"/>
     <use xlink:href="#mecf2aa2c93" x="151.728298" y="286.268505" style="fill: #9467bd; stroke: #9467bd"/>
     <use xlink:href="#mecf2aa2c93" x="156.739312" y="286.663556" style="fill: #9467bd; stroke: #9467bd"/>
     <use xlink:href="#mecf2aa2c93" x="161.750326" y="287.745996" style="fill: #9467bd; stroke: #9467bd"/>
     <use xlink:href="#mecf2aa2c93" x="166.76134" y="288.216107" style="fill: #9467bd; stroke: #9467bd"/>
     <use xlink:href="#mecf2aa2c93" x="171.772354" y="289.464469" style="fill: #9467bd; stroke: #9467bd"/>
     <use xlink:href="#mecf2aa2c93" x="176.783368" y="289.255092" style="fill: #9467bd; stroke: #9467bd"/>
     <use xlink:href="#mecf2aa2c93" x="181.794382" y="290.463948" style="fill: #9467bd; stroke: #9467bd"/>
     <use xlink:href="#mecf2aa2c93" x="186.805396" y="290.495552" style="fill: #9467bd; stroke: #9467bd"/>
     <use xlink:href="#mecf2aa2c93" x="191.81641" y="291.218496" style="fill: #9467bd; stroke: #9467bd"/>
     <use xlink:href="#mecf2aa2c93" x="196.827424" y="291.803172" style="fill: #9467bd; stroke: #9467bd"/>
     <use xlink:href="#mecf2aa2c93" x="201.838437" y="292.044153" style="fill: #9467bd; stroke: #9467bd"/>
     <use xlink:href="#mecf2aa2c93" x="206.849451" y="292.537967" style="fill: #9467bd; stroke: #9467bd"/>
     <use xlink:href="#mecf2aa2c93" x="211.860465" y="293.134494" style="fill: #9467bd; stroke: #9467bd"/>
     <use xlink:href="#mecf2aa2c93" x="216.871479" y="293.509793" style="fill: #9467bd; stroke: #9467bd"/>
     <use xlink:href="#mecf2aa2c93" x="221.882493" y="294.193232" style="fill: #9467bd; stroke: #9467bd"/>
     <use xlink:href="#mecf2aa2c93" x="226.893507" y="294.386807" style="fill: #9467bd; stroke: #9467bd"/>
     <use xlink:href="#mecf2aa2c93" x="231.904521" y="294.7226" style="fill: #9467bd; stroke: #9467bd"/>
     <use xlink:href="#mecf2aa2c93" x="236.915535" y="295.299375" style="fill: #9467bd; stroke: #9467bd"/>
     <use xlink:href="#mecf2aa2c93" x="241.926549" y="295.670723" style="fill: #9467bd; stroke: #9467bd"/>
     <use xlink:href="#mecf2aa2c93" x="246.937563" y="296.057873" style="fill: #9467bd; stroke: #9467bd"/>
     <use xlink:href="#mecf2aa2c93" x="251.948577" y="296.160586" style="fill: #9467bd; stroke: #9467bd"/>
     <use xlink:href="#mecf2aa2c93" x="256.959591" y="296.405518" style="fill: #9467bd; stroke: #9467bd"/>
     <use xlink:href="#mecf2aa2c93" x="261.970605" y="296.792668" style="fill: #9467bd; stroke: #9467bd"/>
     <use xlink:href="#mecf2aa2c93" x="266.981619" y="297.26673" style="fill: #9467bd; stroke: #9467bd"/>
     <use xlink:href="#mecf2aa2c93" x="271.992633" y="297.677583" style="fill: #9467bd; stroke: #9467bd"/>
     <use xlink:href="#mecf2aa2c93" x="277.003647" y="297.993624" style="fill: #9467bd; stroke: #9467bd"/>
     <use xlink:href="#mecf2aa2c93" x="282.014661" y="298.155595" style="fill: #9467bd; stroke: #9467bd"/>
     <use xlink:href="#mecf2aa2c93" x="287.025675" y="298.266209" style="fill: #9467bd; stroke: #9467bd"/>
     <use xlink:href="#mecf2aa2c93" x="292.036689" y="298.831133" style="fill: #9467bd; stroke: #9467bd"/>
     <use xlink:href="#mecf2aa2c93" x="297.047703" y="298.81533" style="fill: #9467bd; stroke: #9467bd"/>
     <use xlink:href="#mecf2aa2c93" x="302.058717" y="299.27754" style="fill: #9467bd; stroke: #9467bd"/>
     <use xlink:href="#mecf2aa2c93" x="307.069731" y="299.486917" style="fill: #9467bd; stroke: #9467bd"/>
     <use xlink:href="#mecf2aa2c93" x="312.080745" y="299.937276" style="fill: #9467bd; stroke: #9467bd"/>
     <use xlink:href="#mecf2aa2c93" x="317.091759" y="300.107148" style="fill: #9467bd; stroke: #9467bd"/>
     <use xlink:href="#mecf2aa2c93" x="322.102773" y="300.237515" style="fill: #9467bd; stroke: #9467bd"/>
     <use xlink:href="#mecf2aa2c93" x="327.113787" y="300.423189" style="fill: #9467bd; stroke: #9467bd"/>
     <use xlink:href="#mecf2aa2c93" x="332.124801" y="300.474545" style="fill: #9467bd; stroke: #9467bd"/>
    </g>
   </g>
   <g id="patch_3">
    <path d="M 58.523438 314.44 
L 58.523438 7.2 
" style="fill: none; stroke: #000000; stroke-width: 0.8; stroke-linejoin: miter; stroke-linecap: square"/>
   </g>
   <g id="patch_4">
    <path d="M 345.153437 314.44 
L 345.153437 7.2 
" style="fill: none; stroke: #000000; stroke-width: 0.8; stroke-linejoin: miter; stroke-linecap: square"/>
   </g>
   <g id="patch_5">
    <path d="M 58.523438 314.44 
L 345.153437 314.44 
" style="fill: none; stroke: #000000; stroke-width: 0.8; stroke-linejoin: miter; stroke-linecap: square"/>
   </g>
   <g id="patch_6">
    <path d="M 58.523438 7.2 
L 345.153437 7.2 
" style="fill: none; stroke: #000000; stroke-width: 0.8; stroke-linejoin: miter; stroke-linecap: square"/>
   </g>
   <g id="legend_1">
    <g id="patch_7">
     <path d="M 150.297187 29.878125 
L 338.153437 29.878125 
Q 340.153437 29.878125 340.153437 27.878125 
L 340.153437 14.2 
Q 340.153437 12.2 338.153437 12.2 
L 150.297187 12.2 
Q 148.297187 12.2 148.297187 14.2 
L 148.297187 27.878125 
Q 148.297187 29.878125 150.297187 29.878125 
z
" style="fill: #ffffff; opacity: 0.8; stroke: #cccccc; stroke-linejoin: miter"/>
    </g>
    <g id="line2d_14">
     <path d="M 152.297187 20.298438 
L 162.297187 20.298438 
L 172.297187 20.298438 
" style="fill: none; stroke-dasharray: 5.55,2.4; stroke-dashoffset: 0; stroke: #9467bd; stroke-width: 1.5"/>
     <g>
      <use xlink:href="#mecf2aa2c93" x="162.297187" y="20.298438" style="fill: #9467bd; stroke: #9467bd"/>
     </g>
    </g>
    <g id="text_15">
     <!-- Watermark data combined loss -->
     <g transform="translate(180.297187 23.798438) scale(0.1 -0.1)">
      <defs>
       <path id="DejaVuSans-57" d="M 213 4666 
L 850 4666 
L 1831 722 
L 2809 4666 
L 3519 4666 
L 4500 722 
L 5478 4666 
L 6119 4666 
L 4947 0 
L 4153 0 
L 3169 4050 
L 2175 0 
L 1381 0 
L 213 4666 
z
" transform="scale(0.015625)"/>
       <path id="DejaVuSans-61" d="M 2194 1759 
Q 1497 1759 1228 1600 
Q 959 1441 959 1056 
Q 959 750 1161 570 
Q 1363 391 1709 391 
Q 2188 391 2477 730 
Q 2766 1069 2766 1631 
L 2766 1759 
L 2194 1759 
z
M 3341 1997 
L 3341 0 
L 2766 0 
L 2766 531 
Q 2569 213 2275 61 
Q 1981 -91 1556 -91 
Q 1019 -91 701 211 
Q 384 513 384 1019 
Q 384 1609 779 1909 
Q 1175 2209 1959 2209 
L 2766 2209 
L 2766 2266 
Q 2766 2663 2505 2880 
Q 2244 3097 1772 3097 
Q 1472 3097 1187 3025 
Q 903 2953 641 2809 
L 641 3341 
Q 956 3463 1253 3523 
Q 1550 3584 1831 3584 
Q 2591 3584 2966 3190 
Q 3341 2797 3341 1997 
z
" transform="scale(0.015625)"/>
       <path id="DejaVuSans-74" d="M 1172 4494 
L 1172 3500 
L 2356 3500 
L 2356 3053 
L 1172 3053 
L 1172 1153 
Q 1172 725 1289 603 
Q 1406 481 1766 481 
L 2356 481 
L 2356 0 
L 1766 0 
Q 1100 0 847 248 
Q 594 497 594 1153 
L 594 3053 
L 172 3053 
L 172 3500 
L 594 3500 
L 594 4494 
L 1172 4494 
z
" transform="scale(0.015625)"/>
       <path id="DejaVuSans-65" d="M 3597 1894 
L 3597 1613 
L 953 1613 
Q 991 1019 1311 708 
Q 1631 397 2203 397 
Q 2534 397 2845 478 
Q 3156 559 3463 722 
L 3463 178 
Q 3153 47 2828 -22 
Q 2503 -91 2169 -91 
Q 1331 -91 842 396 
Q 353 884 353 1716 
Q 353 2575 817 3079 
Q 1281 3584 2069 3584 
Q 2775 3584 3186 3129 
Q 3597 2675 3597 1894 
z
M 3022 2063 
Q 3016 2534 2758 2815 
Q 2500 3097 2075 3097 
Q 1594 3097 1305 2825 
Q 1016 2553 972 2059 
L 3022 2063 
z
" transform="scale(0.015625)"/>
       <path id="DejaVuSans-72" d="M 2631 2963 
Q 2534 3019 2420 3045 
Q 2306 3072 2169 3072 
Q 1681 3072 1420 2755 
Q 1159 2438 1159 1844 
L 1159 0 
L 581 0 
L 581 3500 
L 1159 3500 
L 1159 2956 
Q 1341 3275 1631 3429 
Q 1922 3584 2338 3584 
Q 2397 3584 2469 3576 
Q 2541 3569 2628 3553 
L 2631 2963 
z
" transform="scale(0.015625)"/>
       <path id="DejaVuSans-6d" d="M 3328 2828 
Q 3544 3216 3844 3400 
Q 4144 3584 4550 3584 
Q 5097 3584 5394 3201 
Q 5691 2819 5691 2113 
L 5691 0 
L 5113 0 
L 5113 2094 
Q 5113 2597 4934 2840 
Q 4756 3084 4391 3084 
Q 3944 3084 3684 2787 
Q 3425 2491 3425 1978 
L 3425 0 
L 2847 0 
L 2847 2094 
Q 2847 2600 2669 2842 
Q 2491 3084 2119 3084 
Q 1678 3084 1418 2786 
Q 1159 2488 1159 1978 
L 1159 0 
L 581 0 
L 581 3500 
L 1159 3500 
L 1159 2956 
Q 1356 3278 1631 3431 
Q 1906 3584 2284 3584 
Q 2666 3584 2933 3390 
Q 3200 3197 3328 2828 
z
" transform="scale(0.015625)"/>
       <path id="DejaVuSans-6b" d="M 581 4863 
L 1159 4863 
L 1159 1991 
L 2875 3500 
L 3609 3500 
L 1753 1863 
L 3688 0 
L 2938 0 
L 1159 1709 
L 1159 0 
L 581 0 
L 581 4863 
z
" transform="scale(0.015625)"/>
       <path id="DejaVuSans-64" d="M 2906 2969 
L 2906 4863 
L 3481 4863 
L 3481 0 
L 2906 0 
L 2906 525 
Q 2725 213 2448 61 
Q 2172 -91 1784 -91 
Q 1150 -91 751 415 
Q 353 922 353 1747 
Q 353 2572 751 3078 
Q 1150 3584 1784 3584 
Q 2172 3584 2448 3432 
Q 2725 3281 2906 2969 
z
M 947 1747 
Q 947 1113 1208 752 
Q 1469 391 1925 391 
Q 2381 391 2643 752 
Q 2906 1113 2906 1747 
Q 2906 2381 2643 2742 
Q 2381 3103 1925 3103 
Q 1469 3103 1208 2742 
Q 947 2381 947 1747 
z
" transform="scale(0.015625)"/>
       <path id="DejaVuSans-62" d="M 3116 1747 
Q 3116 2381 2855 2742 
Q 2594 3103 2138 3103 
Q 1681 3103 1420 2742 
Q 1159 2381 1159 1747 
Q 1159 1113 1420 752 
Q 1681 391 2138 391 
Q 2594 391 2855 752 
Q 3116 1113 3116 1747 
z
M 1159 2969 
Q 1341 3281 1617 3432 
Q 1894 3584 2278 3584 
Q 2916 3584 3314 3078 
Q 3713 2572 3713 1747 
Q 3713 922 3314 415 
Q 2916 -91 2278 -91 
Q 1894 -91 1617 61 
Q 1341 213 1159 525 
L 1159 0 
L 581 0 
L 581 4863 
L 1159 4863 
L 1159 2969 
z
" transform="scale(0.015625)"/>
       <path id="DejaVuSans-69" d="M 603 3500 
L 1178 3500 
L 1178 0 
L 603 0 
L 603 3500 
z
M 603 4863 
L 1178 4863 
L 1178 4134 
L 603 4134 
L 603 4863 
z
" transform="scale(0.015625)"/>
       <path id="DejaVuSans-6e" d="M 3513 2113 
L 3513 0 
L 2938 0 
L 2938 2094 
Q 2938 2591 2744 2837 
Q 2550 3084 2163 3084 
Q 1697 3084 1428 2787 
Q 1159 2491 1159 1978 
L 1159 0 
L 581 0 
L 581 3500 
L 1159 3500 
L 1159 2956 
Q 1366 3272 1645 3428 
Q 1925 3584 2291 3584 
Q 2894 3584 3203 3211 
Q 3513 2838 3513 2113 
z
" transform="scale(0.015625)"/>
       <path id="DejaVuSans-6c" d="M 603 4863 
L 1178 4863 
L 1178 0 
L 603 0 
L 603 4863 
z
" transform="scale(0.015625)"/>
      </defs>
      <use xlink:href="#DejaVuSans-57"/>
      <use xlink:href="#DejaVuSans-61" x="92.501953"/>
      <use xlink:href="#DejaVuSans-74" x="153.78125"/>
      <use xlink:href="#DejaVuSans-65" x="192.990234"/>
      <use xlink:href="#DejaVuSans-72" x="254.513672"/>
      <use xlink:href="#DejaVuSans-6d" x="293.876953"/>
      <use xlink:href="#DejaVuSans-61" x="391.289062"/>
      <use xlink:href="#DejaVuSans-72" x="452.568359"/>
      <use xlink:href="#DejaVuSans-6b" x="493.681641"/>
      <use xlink:href="#DejaVuSans-20" x="551.591797"/>
      <use xlink:href="#DejaVuSans-64" x="583.378906"/>
      <use xlink:href="#DejaVuSans-61" x="646.855469"/>
      <use xlink:href="#DejaVuSans-74" x="708.134766"/>
      <use xlink:href="#DejaVuSans-61" x="747.34375"/>
      <use xlink:href="#DejaVuSans-20" x="808.623047"/>
      <use xlink:href="#DejaVuSans-63" x="840.410156"/>
      <use xlink:href="#DejaVuSans-6f" x="895.390625"/>
      <use xlink:href="#DejaVuSans-6d" x="956.572266"/>
      <use xlink:href="#DejaVuSans-62" x="1053.984375"/>
      <use xlink:href="#DejaVuSans-69" x="1117.460938"/>
      <use xlink:href="#DejaVuSans-6e" x="1145.244141"/>
      <use xlink:href="#DejaVuSans-65" x="1208.623047"/>
      <use xlink:href="#DejaVuSans-64" x="1270.146484"/>
      <use xlink:href="#DejaVuSans-20" x="1333.623047"/>
      <use xlink:href="#DejaVuSans-6c" x="1365.410156"/>
      <use xlink:href="#DejaVuSans-6f" x="1393.193359"/>
      <use xlink:href="#DejaVuSans-73" x="1454.375"/>
      <use xlink:href="#DejaVuSans-73" x="1506.474609"/>
     </g>
    </g>
   </g>
  </g>
 </g>
 <defs>
  <clipPath id="pc958191c83">
   <rect x="58.523438" y="7.2" width="286.63" height="307.24"/>
  </clipPath>
 </defs>
</svg>
