<?xml version="1.0" encoding="utf-8" standalone="no"?>
<!DOCTYPE svg PUBLIC "-//W3C//DTD SVG 1.1//EN"
  "http://www.w3.org/Graphics/SVG/1.1/DTD/svg11.dtd">
<svg xmlns:xlink="http://www.w3.org/1999/xlink" width="399.624687pt" height="297.190125pt" viewBox="0 0 399.624687 297.190125" xmlns="http://www.w3.org/2000/svg" version="1.1">
 <metadata>
  <rdf:RDF xmlns:dc="http://purl.org/dc/elements/1.1/" xmlns:cc="http://creativecommons.org/ns#" xmlns:rdf="http://www.w3.org/1999/02/22-rdf-syntax-ns#">
   <cc:Work>
    <dc:type rdf:resource="http://purl.org/dc/dcmitype/StillImage"/>
    <dc:date>2023-11-11T08:14:05.513566</dc:date>
    <dc:format>image/svg+xml</dc:format>
    <dc:creator>
     <cc:Agent>
      <dc:title>Matplotlib v3.8.0, https://matplotlib.org/</dc:title>
     </cc:Agent>
    </dc:creator>
   </cc:Work>
  </rdf:RDF>
 </metadata>
 <defs>
  <style type="text/css">*{stroke-linejoin: round; stroke-linecap: butt}</style>
 </defs>
 <g id="figure_1">
  <g id="patch_1">
   <path d="M 0 297.190125 
L 399.624687 297.190125 
L 399.624687 0 
L 0 0 
z
" style="fill: #ffffff"/>
  </g>
  <g id="axes_1">
   <g id="patch_2">
    <path d="M 35.304688 273.312 
L 392.424688 273.312 
L 392.424688 7.2 
L 35.304688 7.2 
z
" style="fill: #ffffff"/>
   </g>
   <g id="PathCollection_1">
    <defs>
     <path id="mda7c3c161d" d="M 0 1.5 
C 0.397805 1.5 0.77937 1.341951 1.06066 1.06066 
C 1.341951 0.77937 1.5 0.397805 1.5 0 
C 1.5 -0.397805 1.341951 -0.77937 1.06066 -1.06066 
C 0.77937 -1.341951 0.397805 -1.5 0 -1.5 
C -0.397805 -1.5 -0.77937 -1.341951 -1.06066 -1.06066 
C -1.341951 -0.77937 -1.5 -0.397805 -1.5 0 
C -1.5 0.397805 -1.341951 0.77937 -1.06066 1.06066 
C -0.77937 1.341951 -0.397805 1.5 0 1.5 
z
" style="stroke: #ff8c00"/>
    </defs>
    <g clip-path="url(#p352badcd7f)">
     <use xlink:href="#mda7c3c161d" x="186.849308" y="180.084175" style="fill: #ff8c00; stroke: #ff8c00"/>
     <use xlink:href="#mda7c3c161d" x="123.861192" y="212.810539" style="fill: #ff8c00; stroke: #ff8c00"/>
     <use xlink:href="#mda7c3c161d" x="154.199884" y="218.57575" style="fill: #ff8c00; stroke: #ff8c00"/>
     <use xlink:href="#mda7c3c161d" x="177.556728" y="229.710587" style="fill: #ff8c00; stroke: #ff8c00"/>
     <use xlink:href="#mda7c3c161d" x="190.501732" y="196.854093" style="fill: #ff8c00; stroke: #ff8c00"/>
     <use xlink:href="#mda7c3c161d" x="182.87759" y="247.903849" style="fill: #ff8c00; stroke: #ff8c00"/>
     <use xlink:href="#mda7c3c161d" x="186.726606" y="200.647678" style="fill: #ff8c00; stroke: #ff8c00"/>
     <use xlink:href="#mda7c3c161d" x="171.164113" y="234.291698" style="fill: #ff8c00; stroke: #ff8c00"/>
     <use xlink:href="#mda7c3c161d" x="144.03289" y="219.910119" style="fill: #ff8c00; stroke: #ff8c00"/>
     <use xlink:href="#mda7c3c161d" x="196.025141" y="247.39558" style="fill: #ff8c00; stroke: #ff8c00"/>
     <use xlink:href="#mda7c3c161d" x="139.057657" y="188.95765" style="fill: #ff8c00; stroke: #ff8c00"/>
     <use xlink:href="#mda7c3c161d" x="148.823935" y="222.265593" style="fill: #ff8c00; stroke: #ff8c00"/>
     <use xlink:href="#mda7c3c161d" x="153.115548" y="204.464042" style="fill: #ff8c00; stroke: #ff8c00"/>
     <use xlink:href="#mda7c3c161d" x="187.434451" y="232.669531" style="fill: #ff8c00; stroke: #ff8c00"/>
    </g>
   </g>
   <g id="PathCollection_2">
    <defs>
     <path id="m9235538122" d="M 0 1.5 
C 0.397805 1.5 0.77937 1.341951 1.06066 1.06066 
C 1.341951 0.77937 1.5 0.397805 1.5 0 
C 1.5 -0.397805 1.341951 -0.77937 1.06066 -1.06066 
C 0.77937 -1.341951 0.397805 -1.5 0 -1.5 
C -0.397805 -1.5 -0.77937 -1.341951 -1.06066 -1.06066 
C -1.341951 -0.77937 -1.5 -0.397805 -1.5 0 
C -1.5 0.397805 -1.341951 0.77937 -1.06066 1.06066 
C -0.77937 1.341951 -0.397805 1.5 0 1.5 
z
" style="stroke: #006400"/>
    </defs>
    <g clip-path="url(#p352badcd7f)">
     <use xlink:href="#m9235538122" x="247.213256" y="184.632303" style="fill: #006400; stroke: #006400"/>
     <use xlink:href="#m9235538122" x="182.565841" y="211.960253" style="fill: #006400; stroke: #006400"/>
     <use xlink:href="#m9235538122" x="360.527177" y="19.296" style="fill: #006400; stroke: #006400"/>
     <use xlink:href="#m9235538122" x="242.531795" y="134.598253" style="fill: #006400; stroke: #006400"/>
     <use xlink:href="#m9235538122" x="163.806613" y="222.385385" style="fill: #006400; stroke: #006400"/>
     <use xlink:href="#m9235538122" x="213.767379" y="165.881464" style="fill: #006400; stroke: #006400"/>
     <use xlink:href="#m9235538122" x="245.961305" y="186.151991" style="fill: #006400; stroke: #006400"/>
     <use xlink:href="#m9235538122" x="184.541225" y="223.865763" style="fill: #006400; stroke: #006400"/>
     <use xlink:href="#m9235538122" x="228.900581" y="212.791497" style="fill: #006400; stroke: #006400"/>
     <use xlink:href="#m9235538122" x="189.699469" y="187.838922" style="fill: #006400; stroke: #006400"/>
     <use xlink:href="#m9235538122" x="218.010322" y="221.890371" style="fill: #006400; stroke: #006400"/>
     <use xlink:href="#m9235538122" x="376.19196" y="121.307722" style="fill: #006400; stroke: #006400"/>
     <use xlink:href="#m9235538122" x="231.913903" y="160.571036" style="fill: #006400; stroke: #006400"/>
     <use xlink:href="#m9235538122" x="218.203627" y="159.220143" style="fill: #006400; stroke: #006400"/>
     <use xlink:href="#m9235538122" x="323.272798" y="110.141629" style="fill: #006400; stroke: #006400"/>
     <use xlink:href="#m9235538122" x="176.727352" y="207.648425" style="fill: #006400; stroke: #006400"/>
     <use xlink:href="#m9235538122" x="152.034141" y="219.920617" style="fill: #006400; stroke: #006400"/>
     <use xlink:href="#m9235538122" x="203.108632" y="185.914439" style="fill: #006400; stroke: #006400"/>
     <use xlink:href="#m9235538122" x="343.285111" y="138.343366" style="fill: #006400; stroke: #006400"/>
     <use xlink:href="#m9235538122" x="282.469224" y="149.144213" style="fill: #006400; stroke: #006400"/>
     <use xlink:href="#m9235538122" x="186.760617" y="180.427776" style="fill: #006400; stroke: #006400"/>
     <use xlink:href="#m9235538122" x="145.94681" y="231.832296" style="fill: #006400; stroke: #006400"/>
    </g>
   </g>
   <g id="PathCollection_3">
    <defs>
     <path id="m6ac1a0b5b5" d="M 0 1.5 
C 0.397805 1.5 0.77937 1.341951 1.06066 1.06066 
C 1.341951 0.77937 1.5 0.397805 1.5 0 
C 1.5 -0.397805 1.341951 -0.77937 1.06066 -1.06066 
C 0.77937 -1.341951 0.397805 -1.5 0 -1.5 
C -0.397805 -1.5 -0.77937 -1.341951 -1.06066 -1.06066 
C -1.341951 -0.77937 -1.5 -0.397805 -1.5 0 
C -1.5 0.397805 -1.341951 0.77937 -1.06066 1.06066 
C -0.77937 1.341951 -0.397805 1.5 0 1.5 
z
" style="stroke: #2f4f4f"/>
    </defs>
    <g clip-path="url(#p352badcd7f)">
     <use xlink:href="#m6ac1a0b5b5" x="139.355481" y="154.337199" style="fill: #2f4f4f; stroke: #2f4f4f"/>
     <use xlink:href="#m6ac1a0b5b5" x="114.175912" y="183.481383" style="fill: #2f4f4f; stroke: #2f4f4f"/>
     <use xlink:href="#m6ac1a0b5b5" x="102.689606" y="181.5786" style="fill: #2f4f4f; stroke: #2f4f4f"/>
     <use xlink:href="#m6ac1a0b5b5" x="186.177852" y="218.743463" style="fill: #2f4f4f; stroke: #2f4f4f"/>
     <use xlink:href="#m6ac1a0b5b5" x="137.280257" y="225.169645" style="fill: #2f4f4f; stroke: #2f4f4f"/>
     <use xlink:href="#m6ac1a0b5b5" x="188.876153" y="197.632164" style="fill: #2f4f4f; stroke: #2f4f4f"/>
     <use xlink:href="#m6ac1a0b5b5" x="135.701146" y="220.731505" style="fill: #2f4f4f; stroke: #2f4f4f"/>
     <use xlink:href="#m6ac1a0b5b5" x="149.061947" y="208.925627" style="fill: #2f4f4f; stroke: #2f4f4f"/>
     <use xlink:href="#m6ac1a0b5b5" x="134.984191" y="224.696825" style="fill: #2f4f4f; stroke: #2f4f4f"/>
     <use xlink:href="#m6ac1a0b5b5" x="229.139763" y="180.455982" style="fill: #2f4f4f; stroke: #2f4f4f"/>
     <use xlink:href="#m6ac1a0b5b5" x="153.869419" y="214.108902" style="fill: #2f4f4f; stroke: #2f4f4f"/>
     <use xlink:href="#m6ac1a0b5b5" x="160.476541" y="208.011843" style="fill: #2f4f4f; stroke: #2f4f4f"/>
     <use xlink:href="#m6ac1a0b5b5" x="149.591936" y="209.267777" style="fill: #2f4f4f; stroke: #2f4f4f"/>
     <use xlink:href="#m6ac1a0b5b5" x="127.956065" y="193.823104" style="fill: #2f4f4f; stroke: #2f4f4f"/>
     <use xlink:href="#m6ac1a0b5b5" x="129.867635" y="195.324335" style="fill: #2f4f4f; stroke: #2f4f4f"/>
     <use xlink:href="#m6ac1a0b5b5" x="184.404883" y="205.335718" style="fill: #2f4f4f; stroke: #2f4f4f"/>
     <use xlink:href="#m6ac1a0b5b5" x="141.987286" y="195.578555" style="fill: #2f4f4f; stroke: #2f4f4f"/>
     <use xlink:href="#m6ac1a0b5b5" x="175.503623" y="216.094039" style="fill: #2f4f4f; stroke: #2f4f4f"/>
     <use xlink:href="#m6ac1a0b5b5" x="106.985476" y="181.222509" style="fill: #2f4f4f; stroke: #2f4f4f"/>
    </g>
   </g>
   <g id="PathCollection_4">
    <defs>
     <path id="me649b84298" d="M 0 1.5 
C 0.397805 1.5 0.77937 1.341951 1.06066 1.06066 
C 1.341951 0.77937 1.5 0.397805 1.5 0 
C 1.5 -0.397805 1.341951 -0.77937 1.06066 -1.06066 
C 0.77937 -1.341951 0.397805 -1.5 0 -1.5 
C -0.397805 -1.5 -0.77937 -1.341951 -1.06066 -1.06066 
C -1.341951 -0.77937 -1.5 -0.397805 -1.5 0 
C -1.5 0.397805 -1.341951 0.77937 -1.06066 1.06066 
C -0.77937 1.341951 -0.397805 1.5 0 1.5 
z
" style="stroke: #00bfff"/>
    </defs>
    <g clip-path="url(#p352badcd7f)">
     <use xlink:href="#me649b84298" x="139.070529" y="178.21586" style="fill: #00bfff; stroke: #00bfff"/>
     <use xlink:href="#me649b84298" x="75.508217" y="133.6875" style="fill: #00bfff; stroke: #00bfff"/>
     <use xlink:href="#me649b84298" x="139.364265" y="208.155823" style="fill: #00bfff; stroke: #00bfff"/>
     <use xlink:href="#me649b84298" x="145.159598" y="163.993316" style="fill: #00bfff; stroke: #00bfff"/>
     <use xlink:href="#me649b84298" x="125.121018" y="143.088555" style="fill: #00bfff; stroke: #00bfff"/>
     <use xlink:href="#me649b84298" x="189.613331" y="178.452935" style="fill: #00bfff; stroke: #00bfff"/>
     <use xlink:href="#me649b84298" x="148.026447" y="189.506386" style="fill: #00bfff; stroke: #00bfff"/>
     <use xlink:href="#me649b84298" x="129.064531" y="199.719391" style="fill: #00bfff; stroke: #00bfff"/>
     <use xlink:href="#me649b84298" x="101.475554" y="157.123" style="fill: #00bfff; stroke: #00bfff"/>
     <use xlink:href="#me649b84298" x="122.960128" y="172.573019" style="fill: #00bfff; stroke: #00bfff"/>
     <use xlink:href="#me649b84298" x="120.804642" y="157.601207" style="fill: #00bfff; stroke: #00bfff"/>
     <use xlink:href="#me649b84298" x="100.061002" y="167.459418" style="fill: #00bfff; stroke: #00bfff"/>
    </g>
   </g>
   <g id="PathCollection_5">
    <defs>
     <path id="m94c62f8d95" d="M 0 1.5 
C 0.397805 1.5 0.77937 1.341951 1.06066 1.06066 
C 1.341951 0.77937 1.5 0.397805 1.5 0 
C 1.5 -0.397805 1.341951 -0.77937 1.06066 -1.06066 
C 0.77937 -1.341951 0.397805 -1.5 0 -1.5 
C -0.397805 -1.5 -0.77937 -1.341951 -1.06066 -1.06066 
C -1.341951 -0.77937 -1.5 -0.397805 -1.5 0 
C -1.5 0.397805 -1.341951 0.77937 -1.06066 1.06066 
C -0.77937 1.341951 -0.397805 1.5 0 1.5 
z
" style="stroke: #ffff00"/>
    </defs>
    <g clip-path="url(#p352badcd7f)">
     <use xlink:href="#m94c62f8d95" x="149.409424" y="148.743768" style="fill: #ffff00; stroke: #ffff00"/>
     <use xlink:href="#m94c62f8d95" x="100.360985" y="183.852092" style="fill: #ffff00; stroke: #ffff00"/>
     <use xlink:href="#m94c62f8d95" x="143.375624" y="148.661402" style="fill: #ffff00; stroke: #ffff00"/>
     <use xlink:href="#m94c62f8d95" x="123.378788" y="155.525129" style="fill: #ffff00; stroke: #ffff00"/>
     <use xlink:href="#m94c62f8d95" x="83.542935" y="130.531713" style="fill: #ffff00; stroke: #ffff00"/>
     <use xlink:href="#m94c62f8d95" x="104.137496" y="188.451544" style="fill: #ffff00; stroke: #ffff00"/>
     <use xlink:href="#m94c62f8d95" x="138.744206" y="186.952937" style="fill: #ffff00; stroke: #ffff00"/>
     <use xlink:href="#m94c62f8d95" x="153.363123" y="161.166205" style="fill: #ffff00; stroke: #ffff00"/>
     <use xlink:href="#m94c62f8d95" x="69.111552" y="155.546129" style="fill: #ffff00; stroke: #ffff00"/>
     <use xlink:href="#m94c62f8d95" x="110.887104" y="163.886365" style="fill: #ffff00; stroke: #ffff00"/>
     <use xlink:href="#m94c62f8d95" x="91.722615" y="160.922568" style="fill: #ffff00; stroke: #ffff00"/>
     <use xlink:href="#m94c62f8d95" x="88.039816" y="140.314874" style="fill: #ffff00; stroke: #ffff00"/>
     <use xlink:href="#m94c62f8d95" x="67.944734" y="143.892613" style="fill: #ffff00; stroke: #ffff00"/>
     <use xlink:href="#m94c62f8d95" x="51.537415" y="122.22583" style="fill: #ffff00; stroke: #ffff00"/>
     <use xlink:href="#m94c62f8d95" x="120.058894" y="182.641725" style="fill: #ffff00; stroke: #ffff00"/>
    </g>
   </g>
   <g id="PathCollection_6">
    <defs>
     <path id="m921c5c98b7" d="M 0 1.5 
C 0.397805 1.5 0.77937 1.341951 1.06066 1.06066 
C 1.341951 0.77937 1.5 0.397805 1.5 0 
C 1.5 -0.397805 1.341951 -0.77937 1.06066 -1.06066 
C 0.77937 -1.341951 0.397805 -1.5 0 -1.5 
C -0.397805 -1.5 -0.77937 -1.341951 -1.06066 -1.06066 
C -1.341951 -0.77937 -1.5 -0.397805 -1.5 0 
C -1.5 0.397805 -1.341951 0.77937 -1.06066 1.06066 
C -0.77937 1.341951 -0.397805 1.5 0 1.5 
z
" style="stroke: #00ffff"/>
    </defs>
    <g clip-path="url(#p352badcd7f)">
     <use xlink:href="#m921c5c98b7" x="131.79683" y="157.697436" style="fill: #00ffff; stroke: #00ffff"/>
     <use xlink:href="#m921c5c98b7" x="123.823981" y="190.457892" style="fill: #00ffff; stroke: #00ffff"/>
     <use xlink:href="#m921c5c98b7" x="132.252402" y="173.368474" style="fill: #00ffff; stroke: #00ffff"/>
     <use xlink:href="#m921c5c98b7" x="217.192678" y="215.781691" style="fill: #00ffff; stroke: #00ffff"/>
     <use xlink:href="#m921c5c98b7" x="175.993359" y="209.896377" style="fill: #00ffff; stroke: #00ffff"/>
     <use xlink:href="#m921c5c98b7" x="170.181252" y="225.87415" style="fill: #00ffff; stroke: #00ffff"/>
     <use xlink:href="#m921c5c98b7" x="152.679498" y="212.781449" style="fill: #00ffff; stroke: #00ffff"/>
     <use xlink:href="#m921c5c98b7" x="139.244622" y="201.527292" style="fill: #00ffff; stroke: #00ffff"/>
     <use xlink:href="#m921c5c98b7" x="168.78218" y="202.617221" style="fill: #00ffff; stroke: #00ffff"/>
     <use xlink:href="#m921c5c98b7" x="138.838967" y="179.745742" style="fill: #00ffff; stroke: #00ffff"/>
     <use xlink:href="#m921c5c98b7" x="153.614477" y="220.555252" style="fill: #00ffff; stroke: #00ffff"/>
    </g>
   </g>
   <g id="PathCollection_7">
    <defs>
     <path id="m1917e82763" d="M 0 1.5 
C 0.397805 1.5 0.77937 1.341951 1.06066 1.06066 
C 1.341951 0.77937 1.5 0.397805 1.5 0 
C 1.5 -0.397805 1.341951 -0.77937 1.06066 -1.06066 
C 0.77937 -1.341951 0.397805 -1.5 0 -1.5 
C -0.397805 -1.5 -0.77937 -1.341951 -1.06066 -1.06066 
C -1.341951 -0.77937 -1.5 -0.397805 -1.5 0 
C -1.5 0.397805 -1.341951 0.77937 -1.06066 1.06066 
C -0.77937 1.341951 -0.397805 1.5 0 1.5 
z
" style="stroke: #0000ff"/>
    </defs>
    <g clip-path="url(#p352badcd7f)">
     <use xlink:href="#m1917e82763" x="139.045001" y="168.34207" style="fill: #0000ff; stroke: #0000ff"/>
     <use xlink:href="#m1917e82763" x="157.814219" y="166.700729" style="fill: #0000ff; stroke: #0000ff"/>
     <use xlink:href="#m1917e82763" x="197.787312" y="209.116159" style="fill: #0000ff; stroke: #0000ff"/>
     <use xlink:href="#m1917e82763" x="177.222591" y="136.93542" style="fill: #0000ff; stroke: #0000ff"/>
     <use xlink:href="#m1917e82763" x="146.964179" y="198.358193" style="fill: #0000ff; stroke: #0000ff"/>
     <use xlink:href="#m1917e82763" x="134.533954" y="115.88615" style="fill: #0000ff; stroke: #0000ff"/>
     <use xlink:href="#m1917e82763" x="190.061121" y="191.587393" style="fill: #0000ff; stroke: #0000ff"/>
     <use xlink:href="#m1917e82763" x="175.579279" y="188.196341" style="fill: #0000ff; stroke: #0000ff"/>
     <use xlink:href="#m1917e82763" x="279.363638" y="173.402772" style="fill: #0000ff; stroke: #0000ff"/>
     <use xlink:href="#m1917e82763" x="198.157217" y="166.586996" style="fill: #0000ff; stroke: #0000ff"/>
     <use xlink:href="#m1917e82763" x="124.11544" y="161.542391" style="fill: #0000ff; stroke: #0000ff"/>
     <use xlink:href="#m1917e82763" x="186.534328" y="219.078713" style="fill: #0000ff; stroke: #0000ff"/>
     <use xlink:href="#m1917e82763" x="206.205574" y="197.779528" style="fill: #0000ff; stroke: #0000ff"/>
    </g>
   </g>
   <g id="PathCollection_8">
    <defs>
     <path id="m0b16821e73" d="M 0 1.5 
C 0.397805 1.5 0.77937 1.341951 1.06066 1.06066 
C 1.341951 0.77937 1.5 0.397805 1.5 0 
C 1.5 -0.397805 1.341951 -0.77937 1.06066 -1.06066 
C 0.77937 -1.341951 0.397805 -1.5 0 -1.5 
C -0.397805 -1.5 -0.77937 -1.341951 -1.06066 -1.06066 
C -1.341951 -0.77937 -1.5 -0.397805 -1.5 0 
C -1.5 0.397805 -1.341951 0.77937 -1.06066 1.06066 
C -0.77937 1.341951 -0.397805 1.5 0 1.5 
z
" style="stroke: #dc143c"/>
    </defs>
    <g clip-path="url(#p352badcd7f)">
     <use xlink:href="#m0b16821e73" x="162.859701" y="229.430867" style="fill: #dc143c; stroke: #dc143c"/>
     <use xlink:href="#m0b16821e73" x="139.185361" y="208.941619" style="fill: #dc143c; stroke: #dc143c"/>
     <use xlink:href="#m0b16821e73" x="182.202787" y="246.514772" style="fill: #dc143c; stroke: #dc143c"/>
     <use xlink:href="#m0b16821e73" x="181.142694" y="236.962729" style="fill: #dc143c; stroke: #dc143c"/>
     <use xlink:href="#m0b16821e73" x="126.443977" y="185.362295" style="fill: #dc143c; stroke: #dc143c"/>
     <use xlink:href="#m0b16821e73" x="205.978237" y="233.420067" style="fill: #dc143c; stroke: #dc143c"/>
     <use xlink:href="#m0b16821e73" x="148.706527" y="230.714394" style="fill: #dc143c; stroke: #dc143c"/>
     <use xlink:href="#m0b16821e73" x="175.740066" y="239.742576" style="fill: #dc143c; stroke: #dc143c"/>
     <use xlink:href="#m0b16821e73" x="126.804845" y="203.919956" style="fill: #dc143c; stroke: #dc143c"/>
    </g>
   </g>
   <g id="PathCollection_9">
    <defs>
     <path id="mb554c352f9" d="M 0 1.5 
C 0.397805 1.5 0.77937 1.341951 1.06066 1.06066 
C 1.341951 0.77937 1.5 0.397805 1.5 0 
C 1.5 -0.397805 1.341951 -0.77937 1.06066 -1.06066 
C 0.77937 -1.341951 0.397805 -1.5 0 -1.5 
C -0.397805 -1.5 -0.77937 -1.341951 -1.06066 -1.06066 
C -1.341951 -0.77937 -1.5 -0.397805 -1.5 0 
C -1.5 0.397805 -1.341951 0.77937 -1.06066 1.06066 
C -0.77937 1.341951 -0.397805 1.5 0 1.5 
z
" style="stroke: #ffe4c4"/>
    </defs>
    <g clip-path="url(#p352badcd7f)">
     <use xlink:href="#mb554c352f9" x="156.540271" y="225.760951" style="fill: #ffe4c4; stroke: #ffe4c4"/>
     <use xlink:href="#mb554c352f9" x="168.672041" y="206.162083" style="fill: #ffe4c4; stroke: #ffe4c4"/>
     <use xlink:href="#mb554c352f9" x="228.253144" y="194.30135" style="fill: #ffe4c4; stroke: #ffe4c4"/>
     <use xlink:href="#mb554c352f9" x="196.670807" y="243.147553" style="fill: #ffe4c4; stroke: #ffe4c4"/>
     <use xlink:href="#mb554c352f9" x="138.565913" y="205.079055" style="fill: #ffe4c4; stroke: #ffe4c4"/>
     <use xlink:href="#mb554c352f9" x="178.701665" y="187.085529" style="fill: #ffe4c4; stroke: #ffe4c4"/>
     <use xlink:href="#mb554c352f9" x="180.170769" y="192.11219" style="fill: #ffe4c4; stroke: #ffe4c4"/>
     <use xlink:href="#mb554c352f9" x="184.545959" y="199.601863" style="fill: #ffe4c4; stroke: #ffe4c4"/>
     <use xlink:href="#mb554c352f9" x="208.462805" y="204.014839" style="fill: #ffe4c4; stroke: #ffe4c4"/>
     <use xlink:href="#mb554c352f9" x="184.80775" y="203.249007" style="fill: #ffe4c4; stroke: #ffe4c4"/>
     <use xlink:href="#mb554c352f9" x="171.734908" y="218.500118" style="fill: #ffe4c4; stroke: #ffe4c4"/>
     <use xlink:href="#mb554c352f9" x="168.100954" y="170.904886" style="fill: #ffe4c4; stroke: #ffe4c4"/>
     <use xlink:href="#mb554c352f9" x="162.14035" y="168.93666" style="fill: #ffe4c4; stroke: #ffe4c4"/>
    </g>
   </g>
   <g id="PathCollection_10">
    <defs>
     <path id="mc460e67d59" d="M -2.99994 2.99994 
L 3.00006 2.99994 
L 3.00006 -3.00006 
L -2.99994 -3.00006 
z
" style="stroke: #000000"/>
    </defs>
    <g clip-path="url(#p352badcd7f)">
     <use xlink:href="#mc460e67d59" x="198.179774" y="210.939343" style="stroke: #000000"/>
     <use xlink:href="#mc460e67d59" x="208.65027" y="182.264256" style="stroke: #000000"/>
     <use xlink:href="#mc460e67d59" x="157.011032" y="196.281068" style="stroke: #000000"/>
     <use xlink:href="#mc460e67d59" x="191.570851" y="195.516395" style="stroke: #000000"/>
     <use xlink:href="#mc460e67d59" x="161.974166" y="204.146556" style="stroke: #000000"/>
     <use xlink:href="#mc460e67d59" x="169.741189" y="197.124269" style="stroke: #000000"/>
     <use xlink:href="#mc460e67d59" x="121.59809" y="179.62862" style="stroke: #000000"/>
     <use xlink:href="#mc460e67d59" x="146.135392" y="218.171724" style="stroke: #000000"/>
     <use xlink:href="#mc460e67d59" x="162.069382" y="196.257858" style="stroke: #000000"/>
     <use xlink:href="#mc460e67d59" x="150.320776" y="193.780207" style="stroke: #000000"/>
     <use xlink:href="#mc460e67d59" x="203.961015" y="202.643883" style="stroke: #000000"/>
     <use xlink:href="#mc460e67d59" x="231.956571" y="201.478519" style="stroke: #000000"/>
     <use xlink:href="#mc460e67d59" x="223.94677" y="223.647424" style="stroke: #000000"/>
     <use xlink:href="#mc460e67d59" x="169.064404" y="226.230019" style="stroke: #000000"/>
     <use xlink:href="#mc460e67d59" x="164.3232" y="195.433948" style="stroke: #000000"/>
     <use xlink:href="#mc460e67d59" x="137.991356" y="200.314337" style="stroke: #000000"/>
     <use xlink:href="#mc460e67d59" x="173.104687" y="209.330051" style="stroke: #000000"/>
     <use xlink:href="#mc460e67d59" x="122.163088" y="165.30157" style="stroke: #000000"/>
     <use xlink:href="#mc460e67d59" x="188.003064" y="207.698707" style="stroke: #000000"/>
     <use xlink:href="#mc460e67d59" x="189.029128" y="226.530608" style="stroke: #000000"/>
     <use xlink:href="#mc460e67d59" x="191.015778" y="184.992643" style="stroke: #000000"/>
     <use xlink:href="#mc460e67d59" x="157.320224" y="186.591165" style="stroke: #000000"/>
     <use xlink:href="#mc460e67d59" x="165.468393" y="190.228394" style="stroke: #000000"/>
     <use xlink:href="#mc460e67d59" x="155.586185" y="213.774193" style="stroke: #000000"/>
     <use xlink:href="#mc460e67d59" x="233.671247" y="201.323909" style="stroke: #000000"/>
     <use xlink:href="#mc460e67d59" x="192.454951" y="225.139992" style="stroke: #000000"/>
     <use xlink:href="#mc460e67d59" x="214.969306" y="213.529092" style="stroke: #000000"/>
     <use xlink:href="#mc460e67d59" x="160.305015" y="218.736295" style="stroke: #000000"/>
     <use xlink:href="#mc460e67d59" x="197.610924" y="201.841443" style="stroke: #000000"/>
     <use xlink:href="#mc460e67d59" x="206.864571" y="199.997149" style="stroke: #000000"/>
     <use xlink:href="#mc460e67d59" x="177.635783" y="197.97025" style="stroke: #000000"/>
     <use xlink:href="#mc460e67d59" x="161.72281" y="197.808155" style="stroke: #000000"/>
     <use xlink:href="#mc460e67d59" x="137.365883" y="202.045011" style="stroke: #000000"/>
     <use xlink:href="#mc460e67d59" x="165.014932" y="159.21199" style="stroke: #000000"/>
     <use xlink:href="#mc460e67d59" x="122.163088" y="165.30157" style="stroke: #000000"/>
     <use xlink:href="#mc460e67d59" x="135.47535" y="194.895087" style="stroke: #000000"/>
     <use xlink:href="#mc460e67d59" x="178.626459" y="212.178269" style="stroke: #000000"/>
     <use xlink:href="#mc460e67d59" x="170.174068" y="218.48677" style="stroke: #000000"/>
     <use xlink:href="#mc460e67d59" x="230.088253" y="219.403299" style="stroke: #000000"/>
     <use xlink:href="#mc460e67d59" x="270.964704" y="204.300574" style="stroke: #000000"/>
     <use xlink:href="#mc460e67d59" x="174.342657" y="220.499113" style="stroke: #000000"/>
     <use xlink:href="#mc460e67d59" x="202.478845" y="197.712021" style="stroke: #000000"/>
     <use xlink:href="#mc460e67d59" x="218.619338" y="226.324102" style="stroke: #000000"/>
     <use xlink:href="#mc460e67d59" x="172.304961" y="200.333243" style="stroke: #000000"/>
     <use xlink:href="#mc460e67d59" x="179.390149" y="191.792954" style="stroke: #000000"/>
     <use xlink:href="#mc460e67d59" x="147.40653" y="203.938354" style="stroke: #000000"/>
     <use xlink:href="#mc460e67d59" x="182.120368" y="190.095084" style="stroke: #000000"/>
     <use xlink:href="#mc460e67d59" x="173.796392" y="196.513965" style="stroke: #000000"/>
     <use xlink:href="#mc460e67d59" x="158.448682" y="186.193291" style="stroke: #000000"/>
     <use xlink:href="#mc460e67d59" x="246.171175" y="210.767302" style="stroke: #000000"/>
     <use xlink:href="#mc460e67d59" x="203.390217" y="195.171179" style="stroke: #000000"/>
     <use xlink:href="#mc460e67d59" x="195.159339" y="202.557449" style="stroke: #000000"/>
     <use xlink:href="#mc460e67d59" x="188.115281" y="223.494876" style="stroke: #000000"/>
     <use xlink:href="#mc460e67d59" x="160.305015" y="218.736295" style="stroke: #000000"/>
     <use xlink:href="#mc460e67d59" x="191.336904" y="162.45007" style="stroke: #000000"/>
     <use xlink:href="#mc460e67d59" x="123.252966" y="174.559889" style="stroke: #000000"/>
     <use xlink:href="#mc460e67d59" x="139.969674" y="197.050551" style="stroke: #000000"/>
     <use xlink:href="#mc460e67d59" x="239.114111" y="191.491774" style="stroke: #000000"/>
     <use xlink:href="#mc460e67d59" x="175.194778" y="207.705453" style="stroke: #000000"/>
     <use xlink:href="#mc460e67d59" x="169.66531" y="207.917064" style="stroke: #000000"/>
     <use xlink:href="#mc460e67d59" x="175.572673" y="183.284006" style="stroke: #000000"/>
     <use xlink:href="#mc460e67d59" x="212.904507" y="181.997154" style="stroke: #000000"/>
     <use xlink:href="#mc460e67d59" x="160.981879" y="204.637119" style="stroke: #000000"/>
     <use xlink:href="#mc460e67d59" x="152.375405" y="200.206752" style="stroke: #000000"/>
    </g>
   </g>
   <g id="PathCollection_11">
    <defs>
     <path id="m2265b01b92" d="M -3 -0 
L 3 3 
L 3 -3 
z
" style="stroke: #ff8c00"/>
    </defs>
    <g clip-path="url(#p352badcd7f)">
     <use xlink:href="#m2265b01b92" x="181.276627" y="122.566892" style="fill: #ff8c00; stroke: #ff8c00"/>
     <use xlink:href="#m2265b01b92" x="168.63988" y="233.040025" style="fill: #ff8c00; stroke: #ff8c00"/>
     <use xlink:href="#m2265b01b92" x="243.644762" y="246.370811" style="fill: #ff8c00; stroke: #ff8c00"/>
     <use xlink:href="#m2265b01b92" x="217.088656" y="211.792742" style="fill: #ff8c00; stroke: #ff8c00"/>
     <use xlink:href="#m2265b01b92" x="198.968277" y="191.187293" style="fill: #ff8c00; stroke: #ff8c00"/>
     <use xlink:href="#m2265b01b92" x="197.531689" y="194.442833" style="fill: #ff8c00; stroke: #ff8c00"/>
     <use xlink:href="#m2265b01b92" x="202.681259" y="215.965026" style="fill: #ff8c00; stroke: #ff8c00"/>
     <use xlink:href="#m2265b01b92" x="271.873958" y="221.675234" style="fill: #ff8c00; stroke: #ff8c00"/>
     <use xlink:href="#m2265b01b92" x="219.076228" y="180.525282" style="fill: #ff8c00; stroke: #ff8c00"/>
     <use xlink:href="#m2265b01b92" x="140.065851" y="167.053075" style="fill: #ff8c00; stroke: #ff8c00"/>
     <use xlink:href="#m2265b01b92" x="242.01508" y="181.208597" style="fill: #ff8c00; stroke: #ff8c00"/>
     <use xlink:href="#m2265b01b92" x="193.522082" y="198.153299" style="fill: #ff8c00; stroke: #ff8c00"/>
     <use xlink:href="#m2265b01b92" x="135.72117" y="215.327848" style="fill: #ff8c00; stroke: #ff8c00"/>
     <use xlink:href="#m2265b01b92" x="163.591238" y="216.663821" style="fill: #ff8c00; stroke: #ff8c00"/>
     <use xlink:href="#m2265b01b92" x="135.869405" y="180.351501" style="fill: #ff8c00; stroke: #ff8c00"/>
     <use xlink:href="#m2265b01b92" x="213.884852" y="195.669812" style="fill: #ff8c00; stroke: #ff8c00"/>
     <use xlink:href="#m2265b01b92" x="277.053152" y="186.256472" style="fill: #ff8c00; stroke: #ff8c00"/>
     <use xlink:href="#m2265b01b92" x="225.087564" y="176.40114" style="fill: #ff8c00; stroke: #ff8c00"/>
     <use xlink:href="#m2265b01b92" x="139.672511" y="203.903547" style="fill: #ff8c00; stroke: #ff8c00"/>
     <use xlink:href="#m2265b01b92" x="156.139297" y="163.970488" style="fill: #ff8c00; stroke: #ff8c00"/>
     <use xlink:href="#m2265b01b92" x="206.963852" y="187.692812" style="fill: #ff8c00; stroke: #ff8c00"/>
     <use xlink:href="#m2265b01b92" x="212.315526" y="207.905751" style="fill: #ff8c00; stroke: #ff8c00"/>
     <use xlink:href="#m2265b01b92" x="166.303604" y="173.205111" style="fill: #ff8c00; stroke: #ff8c00"/>
     <use xlink:href="#m2265b01b92" x="142.502726" y="183.430223" style="fill: #ff8c00; stroke: #ff8c00"/>
     <use xlink:href="#m2265b01b92" x="182.289797" y="171.683217" style="fill: #ff8c00; stroke: #ff8c00"/>
     <use xlink:href="#m2265b01b92" x="111.996155" y="169.078301" style="fill: #ff8c00; stroke: #ff8c00"/>
     <use xlink:href="#m2265b01b92" x="178.00877" y="168.645984" style="fill: #ff8c00; stroke: #ff8c00"/>
     <use xlink:href="#m2265b01b92" x="199.73112" y="219.192229" style="fill: #ff8c00; stroke: #ff8c00"/>
     <use xlink:href="#m2265b01b92" x="131.261736" y="213.126419" style="fill: #ff8c00; stroke: #ff8c00"/>
     <use xlink:href="#m2265b01b92" x="164.655211" y="219.584032" style="fill: #ff8c00; stroke: #ff8c00"/>
     <use xlink:href="#m2265b01b92" x="169.028111" y="179.349811" style="fill: #ff8c00; stroke: #ff8c00"/>
     <use xlink:href="#m2265b01b92" x="197.082885" y="242.426028" style="fill: #ff8c00; stroke: #ff8c00"/>
     <use xlink:href="#m2265b01b92" x="251.242359" y="180.898305" style="fill: #ff8c00; stroke: #ff8c00"/>
     <use xlink:href="#m2265b01b92" x="221.159646" y="204.261055" style="fill: #ff8c00; stroke: #ff8c00"/>
     <use xlink:href="#m2265b01b92" x="193.682503" y="203.534688" style="fill: #ff8c00; stroke: #ff8c00"/>
     <use xlink:href="#m2265b01b92" x="222.939762" y="208.910514" style="fill: #ff8c00; stroke: #ff8c00"/>
     <use xlink:href="#m2265b01b92" x="201.825578" y="261.216" style="fill: #ff8c00; stroke: #ff8c00"/>
     <use xlink:href="#m2265b01b92" x="180.720721" y="164.703754" style="fill: #ff8c00; stroke: #ff8c00"/>
     <use xlink:href="#m2265b01b92" x="160.035912" y="178.797855" style="fill: #ff8c00; stroke: #ff8c00"/>
     <use xlink:href="#m2265b01b92" x="206.598149" y="175.074012" style="fill: #ff8c00; stroke: #ff8c00"/>
     <use xlink:href="#m2265b01b92" x="194.723621" y="200.443269" style="fill: #ff8c00; stroke: #ff8c00"/>
     <use xlink:href="#m2265b01b92" x="212.439577" y="209.43007" style="fill: #ff8c00; stroke: #ff8c00"/>
     <use xlink:href="#m2265b01b92" x="255.675568" y="161.103468" style="fill: #ff8c00; stroke: #ff8c00"/>
     <use xlink:href="#m2265b01b92" x="241.732477" y="185.531042" style="fill: #ff8c00; stroke: #ff8c00"/>
     <use xlink:href="#m2265b01b92" x="215.449109" y="167.675437" style="fill: #ff8c00; stroke: #ff8c00"/>
     <use xlink:href="#m2265b01b92" x="200.253491" y="246.245342" style="fill: #ff8c00; stroke: #ff8c00"/>
     <use xlink:href="#m2265b01b92" x="145.848424" y="179.731378" style="fill: #ff8c00; stroke: #ff8c00"/>
     <use xlink:href="#m2265b01b92" x="205.865984" y="185.056158" style="fill: #ff8c00; stroke: #ff8c00"/>
     <use xlink:href="#m2265b01b92" x="182.128011" y="209.416858" style="fill: #ff8c00; stroke: #ff8c00"/>
     <use xlink:href="#m2265b01b92" x="161.019092" y="214.704729" style="fill: #ff8c00; stroke: #ff8c00"/>
     <use xlink:href="#m2265b01b92" x="178.289508" y="220.036067" style="fill: #ff8c00; stroke: #ff8c00"/>
     <use xlink:href="#m2265b01b92" x="180.910477" y="202.869571" style="fill: #ff8c00; stroke: #ff8c00"/>
     <use xlink:href="#m2265b01b92" x="233.365699" y="216.778675" style="fill: #ff8c00; stroke: #ff8c00"/>
     <use xlink:href="#m2265b01b92" x="201.796734" y="229.333689" style="fill: #ff8c00; stroke: #ff8c00"/>
     <use xlink:href="#m2265b01b92" x="163.263354" y="212.435426" style="fill: #ff8c00; stroke: #ff8c00"/>
     <use xlink:href="#m2265b01b92" x="163.168401" y="158.892799" style="fill: #ff8c00; stroke: #ff8c00"/>
     <use xlink:href="#m2265b01b92" x="154.22544" y="197.666415" style="fill: #ff8c00; stroke: #ff8c00"/>
     <use xlink:href="#m2265b01b92" x="145.539952" y="205.201721" style="fill: #ff8c00; stroke: #ff8c00"/>
     <use xlink:href="#m2265b01b92" x="242.925993" y="205.667681" style="fill: #ff8c00; stroke: #ff8c00"/>
     <use xlink:href="#m2265b01b92" x="227.031833" y="166.195981" style="fill: #ff8c00; stroke: #ff8c00"/>
     <use xlink:href="#m2265b01b92" x="232.840387" y="193.149906" style="fill: #ff8c00; stroke: #ff8c00"/>
     <use xlink:href="#m2265b01b92" x="139.896679" y="174.803316" style="fill: #ff8c00; stroke: #ff8c00"/>
     <use xlink:href="#m2265b01b92" x="215.860806" y="200.581427" style="fill: #ff8c00; stroke: #ff8c00"/>
     <use xlink:href="#m2265b01b92" x="133.204758" y="178.359226" style="fill: #ff8c00; stroke: #ff8c00"/>
    </g>
   </g>
   <g id="matplotlib.axis_1">
    <g id="xtick_1">
     <g id="line2d_1">
      <defs>
       <path id="m752a9b438b" d="M 0 0 
L 0 3.5 
" style="stroke: #000000; stroke-width: 0.8"/>
      </defs>
      <g>
       <use xlink:href="#m752a9b438b" x="100.140431" y="273.312" style="stroke: #000000; stroke-width: 0.8"/>
      </g>
     </g>
     <g id="text_1">
      <!-- −10 -->
      <g transform="translate(89.588087 287.910437) scale(0.1 -0.1)">
       <defs>
        <path id="DejaVuSans-2212" d="M 678 2272 
L 4684 2272 
L 4684 1741 
L 678 1741 
L 678 2272 
z
" transform="scale(0.015625)"/>
        <path id="DejaVuSans-31" d="M 794 531 
L 1825 531 
L 1825 4091 
L 703 3866 
L 703 4441 
L 1819 4666 
L 2450 4666 
L 2450 531 
L 3481 531 
L 3481 0 
L 794 0 
L 794 531 
z
" transform="scale(0.015625)"/>
        <path id="DejaVuSans-30" d="M 2034 4250 
Q 1547 4250 1301 3770 
Q 1056 3291 1056 2328 
Q 1056 1369 1301 889 
Q 1547 409 2034 409 
Q 2525 409 2770 889 
Q 3016 1369 3016 2328 
Q 3016 3291 2770 3770 
Q 2525 4250 2034 4250 
z
M 2034 4750 
Q 2819 4750 3233 4129 
Q 3647 3509 3647 2328 
Q 3647 1150 3233 529 
Q 2819 -91 2034 -91 
Q 1250 -91 836 529 
Q 422 1150 422 2328 
Q 422 3509 836 4129 
Q 1250 4750 2034 4750 
z
" transform="scale(0.015625)"/>
       </defs>
       <use xlink:href="#DejaVuSans-2212"/>
       <use xlink:href="#DejaVuSans-31" x="83.789062"/>
       <use xlink:href="#DejaVuSans-30" x="147.412109"/>
      </g>
     </g>
    </g>
    <g id="xtick_2">
     <g id="line2d_2">
      <g>
       <use xlink:href="#m752a9b438b" x="175.479387" y="273.312" style="stroke: #000000; stroke-width: 0.8"/>
      </g>
     </g>
     <g id="text_2">
      <!-- 0 -->
      <g transform="translate(172.298137 287.910437) scale(0.1 -0.1)">
       <use xlink:href="#DejaVuSans-30"/>
      </g>
     </g>
    </g>
    <g id="xtick_3">
     <g id="line2d_3">
      <g>
       <use xlink:href="#m752a9b438b" x="250.818343" y="273.312" style="stroke: #000000; stroke-width: 0.8"/>
      </g>
     </g>
     <g id="text_3">
      <!-- 10 -->
      <g transform="translate(244.455843 287.910437) scale(0.1 -0.1)">
       <use xlink:href="#DejaVuSans-31"/>
       <use xlink:href="#DejaVuSans-30" x="63.623047"/>
      </g>
     </g>
    </g>
    <g id="xtick_4">
     <g id="line2d_4">
      <g>
       <use xlink:href="#m752a9b438b" x="326.157299" y="273.312" style="stroke: #000000; stroke-width: 0.8"/>
      </g>
     </g>
     <g id="text_4">
      <!-- 20 -->
      <g transform="translate(319.794799 287.910437) scale(0.1 -0.1)">
       <defs>
        <path id="DejaVuSans-32" d="M 1228 531 
L 3431 531 
L 3431 0 
L 469 0 
L 469 531 
Q 828 903 1448 1529 
Q 2069 2156 2228 2338 
Q 2531 2678 2651 2914 
Q 2772 3150 2772 3378 
Q 2772 3750 2511 3984 
Q 2250 4219 1831 4219 
Q 1534 4219 1204 4116 
Q 875 4013 500 3803 
L 500 4441 
Q 881 4594 1212 4672 
Q 1544 4750 1819 4750 
Q 2544 4750 2975 4387 
Q 3406 4025 3406 3419 
Q 3406 3131 3298 2873 
Q 3191 2616 2906 2266 
Q 2828 2175 2409 1742 
Q 1991 1309 1228 531 
z
" transform="scale(0.015625)"/>
       </defs>
       <use xlink:href="#DejaVuSans-32"/>
       <use xlink:href="#DejaVuSans-30" x="63.623047"/>
      </g>
     </g>
    </g>
   </g>
   <g id="matplotlib.axis_2">
    <g id="ytick_1">
     <g id="line2d_5">
      <defs>
       <path id="mecfe88053d" d="M 0 0 
L -3.5 0 
" style="stroke: #000000; stroke-width: 0.8"/>
      </defs>
      <g>
       <use xlink:href="#mecfe88053d" x="35.304688" y="246.489168" style="stroke: #000000; stroke-width: 0.8"/>
      </g>
     </g>
     <g id="text_5">
      <!-- −10 -->
      <g transform="translate(7.2 250.288387) scale(0.1 -0.1)">
       <use xlink:href="#DejaVuSans-2212"/>
       <use xlink:href="#DejaVuSans-31" x="83.789062"/>
       <use xlink:href="#DejaVuSans-30" x="147.412109"/>
      </g>
     </g>
    </g>
    <g id="ytick_2">
     <g id="line2d_6">
      <g>
       <use xlink:href="#mecfe88053d" x="35.304688" y="193.671297" style="stroke: #000000; stroke-width: 0.8"/>
      </g>
     </g>
     <g id="text_6">
      <!-- 0 -->
      <g transform="translate(21.942187 197.470516) scale(0.1 -0.1)">
       <use xlink:href="#DejaVuSans-30"/>
      </g>
     </g>
    </g>
    <g id="ytick_3">
     <g id="line2d_7">
      <g>
       <use xlink:href="#mecfe88053d" x="35.304688" y="140.853426" style="stroke: #000000; stroke-width: 0.8"/>
      </g>
     </g>
     <g id="text_7">
      <!-- 10 -->
      <g transform="translate(15.579687 144.652645) scale(0.1 -0.1)">
       <use xlink:href="#DejaVuSans-31"/>
       <use xlink:href="#DejaVuSans-30" x="63.623047"/>
      </g>
     </g>
    </g>
    <g id="ytick_4">
     <g id="line2d_8">
      <g>
       <use xlink:href="#mecfe88053d" x="35.304688" y="88.035555" style="stroke: #000000; stroke-width: 0.8"/>
      </g>
     </g>
     <g id="text_8">
      <!-- 20 -->
      <g transform="translate(15.579687 91.834773) scale(0.1 -0.1)">
       <use xlink:href="#DejaVuSans-32"/>
       <use xlink:href="#DejaVuSans-30" x="63.623047"/>
      </g>
     </g>
    </g>
    <g id="ytick_5">
     <g id="line2d_9">
      <g>
       <use xlink:href="#mecfe88053d" x="35.304688" y="35.217684" style="stroke: #000000; stroke-width: 0.8"/>
      </g>
     </g>
     <g id="text_9">
      <!-- 30 -->
      <g transform="translate(15.579687 39.016902) scale(0.1 -0.1)">
       <defs>
        <path id="DejaVuSans-33" d="M 2597 2516 
Q 3050 2419 3304 2112 
Q 3559 1806 3559 1356 
Q 3559 666 3084 287 
Q 2609 -91 1734 -91 
Q 1441 -91 1130 -33 
Q 819 25 488 141 
L 488 750 
Q 750 597 1062 519 
Q 1375 441 1716 441 
Q 2309 441 2620 675 
Q 2931 909 2931 1356 
Q 2931 1769 2642 2001 
Q 2353 2234 1838 2234 
L 1294 2234 
L 1294 2753 
L 1863 2753 
Q 2328 2753 2575 2939 
Q 2822 3125 2822 3475 
Q 2822 3834 2567 4026 
Q 2313 4219 1838 4219 
Q 1578 4219 1281 4162 
Q 984 4106 628 3988 
L 628 4550 
Q 988 4650 1302 4700 
Q 1616 4750 1894 4750 
Q 2613 4750 3031 4423 
Q 3450 4097 3450 3541 
Q 3450 3153 3228 2886 
Q 3006 2619 2597 2516 
z
" transform="scale(0.015625)"/>
       </defs>
       <use xlink:href="#DejaVuSans-33"/>
       <use xlink:href="#DejaVuSans-30" x="63.623047"/>
      </g>
     </g>
    </g>
   </g>
   <g id="patch_3">
    <path d="M 35.304688 273.312 
L 35.304688 7.2 
" style="fill: none; stroke: #000000; stroke-width: 0.8; stroke-linejoin: miter; stroke-linecap: square"/>
   </g>
   <g id="patch_4">
    <path d="M 392.424688 273.312 
L 392.424688 7.2 
" style="fill: none; stroke: #000000; stroke-width: 0.8; stroke-linejoin: miter; stroke-linecap: square"/>
   </g>
   <g id="patch_5">
    <path d="M 35.304688 273.312 
L 392.424688 273.312 
" style="fill: none; stroke: #000000; stroke-width: 0.8; stroke-linejoin: miter; stroke-linecap: square"/>
   </g>
   <g id="patch_6">
    <path d="M 35.304688 7.2 
L 392.424688 7.2 
" style="fill: none; stroke: #000000; stroke-width: 0.8; stroke-linejoin: miter; stroke-linecap: square"/>
   </g>
  </g>
 </g>
 <defs>
  <clipPath id="p352badcd7f">
   <rect x="35.304688" y="7.2" width="357.12" height="266.112"/>
  </clipPath>
 </defs>
</svg>
