<?xml version="1.0" encoding="utf-8" standalone="no"?>
<!DOCTYPE svg PUBLIC "-//W3C//DTD SVG 1.1//EN"
  "http://www.w3.org/Graphics/SVG/1.1/DTD/svg11.dtd">
<svg xmlns:xlink="http://www.w3.org/1999/xlink" width="401.633509pt" height="297.190125pt" viewBox="0 0 401.633509 297.190125" xmlns="http://www.w3.org/2000/svg" version="1.1">
 <metadata>
  <rdf:RDF xmlns:dc="http://purl.org/dc/elements/1.1/" xmlns:cc="http://creativecommons.org/ns#" xmlns:rdf="http://www.w3.org/1999/02/22-rdf-syntax-ns#">
   <cc:Work>
    <dc:type rdf:resource="http://purl.org/dc/dcmitype/StillImage"/>
    <dc:date>2023-11-12T16:22:57.342297</dc:date>
    <dc:format>image/svg+xml</dc:format>
    <dc:creator>
     <cc:Agent>
      <dc:title>Matplotlib v3.8.0, https://matplotlib.org/</dc:title>
     </cc:Agent>
    </dc:creator>
   </cc:Work>
  </rdf:RDF>
 </metadata>
 <defs>
  <style type="text/css">*{stroke-linejoin: round; stroke-linecap: butt}</style>
 </defs>
 <g id="figure_1">
  <g id="patch_1">
   <path d="M 0 297.190125 
L 401.633509 297.190125 
L 401.633509 0 
L 0 0 
z
" style="fill: #ffffff"/>
  </g>
  <g id="axes_1">
   <g id="patch_2">
    <path d="M 35.304688 273.312 
L 392.424688 273.312 
L 392.424688 7.2 
L 35.304688 7.2 
z
" style="fill: #ffffff"/>
   </g>
   <g id="PathCollection_1">
    <defs>
     <path id="m7e42ba7a51" d="M 0 1.5 
C 0.397805 1.5 0.77937 1.341951 1.06066 1.06066 
C 1.341951 0.77937 1.5 0.397805 1.5 0 
C 1.5 -0.397805 1.341951 -0.77937 1.06066 -1.06066 
C 0.77937 -1.341951 0.397805 -1.5 0 -1.5 
C -0.397805 -1.5 -0.77937 -1.341951 -1.06066 -1.06066 
C -1.341951 -0.77937 -1.5 -0.397805 -1.5 0 
C -1.5 0.397805 -1.341951 0.77937 -1.06066 1.06066 
C -0.77937 1.341951 -0.397805 1.5 0 1.5 
z
" style="stroke: #ff8c00"/>
    </defs>
    <g clip-path="url(#p3d900d05d6)">
     <use xlink:href="#m7e42ba7a51" x="148.624456" y="211.051853" style="fill: #ff8c00; stroke: #ff8c00"/>
     <use xlink:href="#m7e42ba7a51" x="163.980249" y="237.94586" style="fill: #ff8c00; stroke: #ff8c00"/>
     <use xlink:href="#m7e42ba7a51" x="142.811375" y="215.599916" style="fill: #ff8c00; stroke: #ff8c00"/>
     <use xlink:href="#m7e42ba7a51" x="147.13786" y="217.95676" style="fill: #ff8c00; stroke: #ff8c00"/>
     <use xlink:href="#m7e42ba7a51" x="131.974055" y="185.044139" style="fill: #ff8c00; stroke: #ff8c00"/>
     <use xlink:href="#m7e42ba7a51" x="124.523519" y="197.587879" style="fill: #ff8c00; stroke: #ff8c00"/>
     <use xlink:href="#m7e42ba7a51" x="139.727821" y="226.480628" style="fill: #ff8c00; stroke: #ff8c00"/>
     <use xlink:href="#m7e42ba7a51" x="145.165435" y="231.235863" style="fill: #ff8c00; stroke: #ff8c00"/>
     <use xlink:href="#m7e42ba7a51" x="136.62086" y="180.493708" style="fill: #ff8c00; stroke: #ff8c00"/>
     <use xlink:href="#m7e42ba7a51" x="135.665079" y="234.698793" style="fill: #ff8c00; stroke: #ff8c00"/>
     <use xlink:href="#m7e42ba7a51" x="161.021306" y="228.646128" style="fill: #ff8c00; stroke: #ff8c00"/>
     <use xlink:href="#m7e42ba7a51" x="160.017244" y="203.72" style="fill: #ff8c00; stroke: #ff8c00"/>
     <use xlink:href="#m7e42ba7a51" x="145.036424" y="195.173315" style="fill: #ff8c00; stroke: #ff8c00"/>
     <use xlink:href="#m7e42ba7a51" x="159.298595" y="207.724934" style="fill: #ff8c00; stroke: #ff8c00"/>
     <use xlink:href="#m7e42ba7a51" x="151.952287" y="199.830989" style="fill: #ff8c00; stroke: #ff8c00"/>
     <use xlink:href="#m7e42ba7a51" x="169.878712" y="203.727664" style="fill: #ff8c00; stroke: #ff8c00"/>
     <use xlink:href="#m7e42ba7a51" x="126.975812" y="174.728747" style="fill: #ff8c00; stroke: #ff8c00"/>
    </g>
   </g>
   <g id="PathCollection_2">
    <defs>
     <path id="m395e6a5b57" d="M 0 1.5 
C 0.397805 1.5 0.77937 1.341951 1.06066 1.06066 
C 1.341951 0.77937 1.5 0.397805 1.5 0 
C 1.5 -0.397805 1.341951 -0.77937 1.06066 -1.06066 
C 0.77937 -1.341951 0.397805 -1.5 0 -1.5 
C -0.397805 -1.5 -0.77937 -1.341951 -1.06066 -1.06066 
C -1.341951 -0.77937 -1.5 -0.397805 -1.5 0 
C -1.5 0.397805 -1.341951 0.77937 -1.06066 1.06066 
C -0.77937 1.341951 -0.397805 1.5 0 1.5 
z
" style="stroke: #006400"/>
    </defs>
    <g clip-path="url(#p3d900d05d6)">
     <use xlink:href="#m395e6a5b57" x="98.358875" y="75.786202" style="fill: #006400; stroke: #006400"/>
     <use xlink:href="#m395e6a5b57" x="51.537415" y="79.993019" style="fill: #006400; stroke: #006400"/>
     <use xlink:href="#m395e6a5b57" x="120.84456" y="166.743523" style="fill: #006400; stroke: #006400"/>
     <use xlink:href="#m395e6a5b57" x="102.210845" y="109.814148" style="fill: #006400; stroke: #006400"/>
     <use xlink:href="#m395e6a5b57" x="130.870646" y="161.125427" style="fill: #006400; stroke: #006400"/>
     <use xlink:href="#m395e6a5b57" x="126.719067" y="122.058309" style="fill: #006400; stroke: #006400"/>
     <use xlink:href="#m395e6a5b57" x="129.162004" y="134.64572" style="fill: #006400; stroke: #006400"/>
     <use xlink:href="#m395e6a5b57" x="126.856212" y="124.276004" style="fill: #006400; stroke: #006400"/>
     <use xlink:href="#m395e6a5b57" x="132.4377" y="79.933208" style="fill: #006400; stroke: #006400"/>
     <use xlink:href="#m395e6a5b57" x="72.586383" y="41.360947" style="fill: #006400; stroke: #006400"/>
     <use xlink:href="#m395e6a5b57" x="106.41758" y="131.02443" style="fill: #006400; stroke: #006400"/>
     <use xlink:href="#m395e6a5b57" x="74.077483" y="27.738252" style="fill: #006400; stroke: #006400"/>
     <use xlink:href="#m395e6a5b57" x="132.397544" y="175.299603" style="fill: #006400; stroke: #006400"/>
     <use xlink:href="#m395e6a5b57" x="172.318977" y="140.038928" style="fill: #006400; stroke: #006400"/>
     <use xlink:href="#m395e6a5b57" x="69.477568" y="19.296" style="fill: #006400; stroke: #006400"/>
     <use xlink:href="#m395e6a5b57" x="145.906368" y="168.724958" style="fill: #006400; stroke: #006400"/>
     <use xlink:href="#m395e6a5b57" x="139.52227" y="125.859558" style="fill: #006400; stroke: #006400"/>
     <use xlink:href="#m395e6a5b57" x="85.201035" y="100.681239" style="fill: #006400; stroke: #006400"/>
     <use xlink:href="#m395e6a5b57" x="110.909645" y="109.409991" style="fill: #006400; stroke: #006400"/>
     <use xlink:href="#m395e6a5b57" x="110.971299" y="131.130476" style="fill: #006400; stroke: #006400"/>
     <use xlink:href="#m395e6a5b57" x="115.797863" y="92.223779" style="fill: #006400; stroke: #006400"/>
     <use xlink:href="#m395e6a5b57" x="160.702178" y="222.034908" style="fill: #006400; stroke: #006400"/>
     <use xlink:href="#m395e6a5b57" x="114.282725" y="134.955573" style="fill: #006400; stroke: #006400"/>
     <use xlink:href="#m395e6a5b57" x="154.851702" y="60.739529" style="fill: #006400; stroke: #006400"/>
    </g>
   </g>
   <g id="PathCollection_3">
    <defs>
     <path id="me022557762" d="M 0 1.5 
C 0.397805 1.5 0.77937 1.341951 1.06066 1.06066 
C 1.341951 0.77937 1.5 0.397805 1.5 0 
C 1.5 -0.397805 1.341951 -0.77937 1.06066 -1.06066 
C 0.77937 -1.341951 0.397805 -1.5 0 -1.5 
C -0.397805 -1.5 -0.77937 -1.341951 -1.06066 -1.06066 
C -1.341951 -0.77937 -1.5 -0.397805 -1.5 0 
C -1.5 0.397805 -1.341951 0.77937 -1.06066 1.06066 
C -0.77937 1.341951 -0.397805 1.5 0 1.5 
z
" style="stroke: #2f4f4f"/>
    </defs>
    <g clip-path="url(#p3d900d05d6)">
     <use xlink:href="#me022557762" x="151.21488" y="207.51017" style="fill: #2f4f4f; stroke: #2f4f4f"/>
     <use xlink:href="#me022557762" x="158.875342" y="220.067644" style="fill: #2f4f4f; stroke: #2f4f4f"/>
     <use xlink:href="#me022557762" x="160.18188" y="226.409384" style="fill: #2f4f4f; stroke: #2f4f4f"/>
     <use xlink:href="#me022557762" x="126.9836" y="236.327185" style="fill: #2f4f4f; stroke: #2f4f4f"/>
     <use xlink:href="#me022557762" x="181.112077" y="194.762693" style="fill: #2f4f4f; stroke: #2f4f4f"/>
     <use xlink:href="#me022557762" x="177.887837" y="199.084363" style="fill: #2f4f4f; stroke: #2f4f4f"/>
     <use xlink:href="#me022557762" x="139.043421" y="244.11751" style="fill: #2f4f4f; stroke: #2f4f4f"/>
     <use xlink:href="#me022557762" x="150.016332" y="218.853127" style="fill: #2f4f4f; stroke: #2f4f4f"/>
     <use xlink:href="#me022557762" x="166.430535" y="216.397482" style="fill: #2f4f4f; stroke: #2f4f4f"/>
     <use xlink:href="#me022557762" x="163.353006" y="202.503858" style="fill: #2f4f4f; stroke: #2f4f4f"/>
     <use xlink:href="#me022557762" x="215.238131" y="199.179813" style="fill: #2f4f4f; stroke: #2f4f4f"/>
     <use xlink:href="#me022557762" x="165.596301" y="218.502409" style="fill: #2f4f4f; stroke: #2f4f4f"/>
     <use xlink:href="#me022557762" x="191.651721" y="201.877046" style="fill: #2f4f4f; stroke: #2f4f4f"/>
     <use xlink:href="#me022557762" x="199.785384" y="212.242669" style="fill: #2f4f4f; stroke: #2f4f4f"/>
     <use xlink:href="#me022557762" x="173.945969" y="214.49378" style="fill: #2f4f4f; stroke: #2f4f4f"/>
    </g>
   </g>
   <g id="PathCollection_4">
    <defs>
     <path id="meca94fb922" d="M 0 1.5 
C 0.397805 1.5 0.77937 1.341951 1.06066 1.06066 
C 1.341951 0.77937 1.5 0.397805 1.5 0 
C 1.5 -0.397805 1.341951 -0.77937 1.06066 -1.06066 
C 0.77937 -1.341951 0.397805 -1.5 0 -1.5 
C -0.397805 -1.5 -0.77937 -1.341951 -1.06066 -1.06066 
C -1.341951 -0.77937 -1.5 -0.397805 -1.5 0 
C -1.5 0.397805 -1.341951 0.77937 -1.06066 1.06066 
C -0.77937 1.341951 -0.397805 1.5 0 1.5 
z
" style="stroke: #00bfff"/>
    </defs>
    <g clip-path="url(#p3d900d05d6)">
     <use xlink:href="#meca94fb922" x="223.795748" y="196.674762" style="fill: #00bfff; stroke: #00bfff"/>
     <use xlink:href="#meca94fb922" x="248.265523" y="183.659647" style="fill: #00bfff; stroke: #00bfff"/>
     <use xlink:href="#meca94fb922" x="147.23752" y="210.796477" style="fill: #00bfff; stroke: #00bfff"/>
     <use xlink:href="#meca94fb922" x="163.693929" y="185.064512" style="fill: #00bfff; stroke: #00bfff"/>
     <use xlink:href="#meca94fb922" x="171.285286" y="228.052481" style="fill: #00bfff; stroke: #00bfff"/>
     <use xlink:href="#meca94fb922" x="190.980813" y="177.469762" style="fill: #00bfff; stroke: #00bfff"/>
     <use xlink:href="#meca94fb922" x="168.214218" y="202.777151" style="fill: #00bfff; stroke: #00bfff"/>
     <use xlink:href="#meca94fb922" x="194.694385" y="212.165192" style="fill: #00bfff; stroke: #00bfff"/>
     <use xlink:href="#meca94fb922" x="193.605746" y="217.915636" style="fill: #00bfff; stroke: #00bfff"/>
     <use xlink:href="#meca94fb922" x="223.435202" y="176.654406" style="fill: #00bfff; stroke: #00bfff"/>
     <use xlink:href="#meca94fb922" x="162.014666" y="232.663265" style="fill: #00bfff; stroke: #00bfff"/>
     <use xlink:href="#meca94fb922" x="158.969409" y="219.482171" style="fill: #00bfff; stroke: #00bfff"/>
    </g>
   </g>
   <g id="PathCollection_5">
    <defs>
     <path id="m0cd9632527" d="M 0 1.5 
C 0.397805 1.5 0.77937 1.341951 1.06066 1.06066 
C 1.341951 0.77937 1.5 0.397805 1.5 0 
C 1.5 -0.397805 1.341951 -0.77937 1.06066 -1.06066 
C 0.77937 -1.341951 0.397805 -1.5 0 -1.5 
C -0.397805 -1.5 -0.77937 -1.341951 -1.06066 -1.06066 
C -1.341951 -0.77937 -1.5 -0.397805 -1.5 0 
C -1.5 0.397805 -1.341951 0.77937 -1.06066 1.06066 
C -0.77937 1.341951 -0.397805 1.5 0 1.5 
z
" style="stroke: #ffff00"/>
    </defs>
    <g clip-path="url(#p3d900d05d6)">
     <use xlink:href="#m0cd9632527" x="222.039727" y="190.935429" style="fill: #ffff00; stroke: #ffff00"/>
     <use xlink:href="#m0cd9632527" x="199.716286" y="222.727447" style="fill: #ffff00; stroke: #ffff00"/>
     <use xlink:href="#m0cd9632527" x="170.466999" y="186.339175" style="fill: #ffff00; stroke: #ffff00"/>
     <use xlink:href="#m0cd9632527" x="194.782228" y="212.695616" style="fill: #ffff00; stroke: #ffff00"/>
     <use xlink:href="#m0cd9632527" x="209.826904" y="204.475078" style="fill: #ffff00; stroke: #ffff00"/>
     <use xlink:href="#m0cd9632527" x="154.380709" y="248.891556" style="fill: #ffff00; stroke: #ffff00"/>
     <use xlink:href="#m0cd9632527" x="245.176157" y="167.224004" style="fill: #ffff00; stroke: #ffff00"/>
     <use xlink:href="#m0cd9632527" x="136.75162" y="251.663469" style="fill: #ffff00; stroke: #ffff00"/>
     <use xlink:href="#m0cd9632527" x="172.084369" y="194.707153" style="fill: #ffff00; stroke: #ffff00"/>
     <use xlink:href="#m0cd9632527" x="170.952601" y="203.893982" style="fill: #ffff00; stroke: #ffff00"/>
     <use xlink:href="#m0cd9632527" x="158.712787" y="211.539836" style="fill: #ffff00; stroke: #ffff00"/>
     <use xlink:href="#m0cd9632527" x="216.780407" y="185.920629" style="fill: #ffff00; stroke: #ffff00"/>
     <use xlink:href="#m0cd9632527" x="150.361772" y="223.343993" style="fill: #ffff00; stroke: #ffff00"/>
     <use xlink:href="#m0cd9632527" x="199.084451" y="224.736667" style="fill: #ffff00; stroke: #ffff00"/>
     <use xlink:href="#m0cd9632527" x="138.868269" y="193.706335" style="fill: #ffff00; stroke: #ffff00"/>
     <use xlink:href="#m0cd9632527" x="193.663718" y="215.518606" style="fill: #ffff00; stroke: #ffff00"/>
     <use xlink:href="#m0cd9632527" x="226.415774" y="197.734316" style="fill: #ffff00; stroke: #ffff00"/>
    </g>
   </g>
   <g id="PathCollection_6">
    <defs>
     <path id="md959cf3f85" d="M 0 1.5 
C 0.397805 1.5 0.77937 1.341951 1.06066 1.06066 
C 1.341951 0.77937 1.5 0.397805 1.5 0 
C 1.5 -0.397805 1.341951 -0.77937 1.06066 -1.06066 
C 0.77937 -1.341951 0.397805 -1.5 0 -1.5 
C -0.397805 -1.5 -0.77937 -1.341951 -1.06066 -1.06066 
C -1.341951 -0.77937 -1.5 -0.397805 -1.5 0 
C -1.5 0.397805 -1.341951 0.77937 -1.06066 1.06066 
C -0.77937 1.341951 -0.397805 1.5 0 1.5 
z
" style="stroke: #00ffff"/>
    </defs>
    <g clip-path="url(#p3d900d05d6)">
     <use xlink:href="#md959cf3f85" x="181.647868" y="224.046426" style="fill: #00ffff; stroke: #00ffff"/>
     <use xlink:href="#md959cf3f85" x="167.496601" y="234.297549" style="fill: #00ffff; stroke: #00ffff"/>
     <use xlink:href="#md959cf3f85" x="184.808343" y="223.300555" style="fill: #00ffff; stroke: #00ffff"/>
     <use xlink:href="#md959cf3f85" x="154.166729" y="239.643543" style="fill: #00ffff; stroke: #00ffff"/>
     <use xlink:href="#md959cf3f85" x="157.632635" y="217.468313" style="fill: #00ffff; stroke: #00ffff"/>
     <use xlink:href="#md959cf3f85" x="182.003353" y="196.255976" style="fill: #00ffff; stroke: #00ffff"/>
     <use xlink:href="#md959cf3f85" x="152.832745" y="192.335654" style="fill: #00ffff; stroke: #00ffff"/>
     <use xlink:href="#md959cf3f85" x="155.211819" y="208.978426" style="fill: #00ffff; stroke: #00ffff"/>
     <use xlink:href="#md959cf3f85" x="173.713043" y="222.95863" style="fill: #00ffff; stroke: #00ffff"/>
     <use xlink:href="#md959cf3f85" x="179.521936" y="180.071442" style="fill: #00ffff; stroke: #00ffff"/>
     <use xlink:href="#md959cf3f85" x="151.203969" y="226.850956" style="fill: #00ffff; stroke: #00ffff"/>
    </g>
   </g>
   <g id="PathCollection_7">
    <defs>
     <path id="mfc7201f6f5" d="M 0 1.5 
C 0.397805 1.5 0.77937 1.341951 1.06066 1.06066 
C 1.341951 0.77937 1.5 0.397805 1.5 0 
C 1.5 -0.397805 1.341951 -0.77937 1.06066 -1.06066 
C 0.77937 -1.341951 0.397805 -1.5 0 -1.5 
C -0.397805 -1.5 -0.77937 -1.341951 -1.06066 -1.06066 
C -1.341951 -0.77937 -1.5 -0.397805 -1.5 0 
C -1.5 0.397805 -1.341951 0.77937 -1.06066 1.06066 
C -0.77937 1.341951 -0.397805 1.5 0 1.5 
z
" style="stroke: #0000ff"/>
    </defs>
    <g clip-path="url(#p3d900d05d6)">
     <use xlink:href="#mfc7201f6f5" x="162.381166" y="221.164097" style="fill: #0000ff; stroke: #0000ff"/>
     <use xlink:href="#mfc7201f6f5" x="161.510048" y="218.160216" style="fill: #0000ff; stroke: #0000ff"/>
     <use xlink:href="#mfc7201f6f5" x="139.271828" y="231.613779" style="fill: #0000ff; stroke: #0000ff"/>
     <use xlink:href="#mfc7201f6f5" x="159.79687" y="246.781488" style="fill: #0000ff; stroke: #0000ff"/>
     <use xlink:href="#mfc7201f6f5" x="178.704688" y="208.207394" style="fill: #0000ff; stroke: #0000ff"/>
     <use xlink:href="#mfc7201f6f5" x="162.047565" y="216.631888" style="fill: #0000ff; stroke: #0000ff"/>
     <use xlink:href="#mfc7201f6f5" x="160.737542" y="208.349669" style="fill: #0000ff; stroke: #0000ff"/>
     <use xlink:href="#mfc7201f6f5" x="181.849969" y="225.227705" style="fill: #0000ff; stroke: #0000ff"/>
     <use xlink:href="#mfc7201f6f5" x="106.383744" y="261.216" style="fill: #0000ff; stroke: #0000ff"/>
     <use xlink:href="#mfc7201f6f5" x="147.391442" y="237.543271" style="fill: #0000ff; stroke: #0000ff"/>
     <use xlink:href="#mfc7201f6f5" x="188.176273" y="206.246846" style="fill: #0000ff; stroke: #0000ff"/>
     <use xlink:href="#mfc7201f6f5" x="144.680637" y="247.858994" style="fill: #0000ff; stroke: #0000ff"/>
     <use xlink:href="#mfc7201f6f5" x="173.378449" y="204.727304" style="fill: #0000ff; stroke: #0000ff"/>
    </g>
   </g>
   <g id="PathCollection_8">
    <defs>
     <path id="m2227ef1661" d="M 0 1.5 
C 0.397805 1.5 0.77937 1.341951 1.06066 1.06066 
C 1.341951 0.77937 1.5 0.397805 1.5 0 
C 1.5 -0.397805 1.341951 -0.77937 1.06066 -1.06066 
C 0.77937 -1.341951 0.397805 -1.5 0 -1.5 
C -0.397805 -1.5 -0.77937 -1.341951 -1.06066 -1.06066 
C -1.341951 -0.77937 -1.5 -0.397805 -1.5 0 
C -1.5 0.397805 -1.341951 0.77937 -1.06066 1.06066 
C -0.77937 1.341951 -0.397805 1.5 0 1.5 
z
" style="stroke: #dc143c"/>
    </defs>
    <g clip-path="url(#p3d900d05d6)">
     <use xlink:href="#m2227ef1661" x="161.561264" y="201.484972" style="fill: #dc143c; stroke: #dc143c"/>
     <use xlink:href="#m2227ef1661" x="125.414901" y="173.485826" style="fill: #dc143c; stroke: #dc143c"/>
     <use xlink:href="#m2227ef1661" x="143.345503" y="194.264172" style="fill: #dc143c; stroke: #dc143c"/>
     <use xlink:href="#m2227ef1661" x="183.913888" y="179.852356" style="fill: #dc143c; stroke: #dc143c"/>
     <use xlink:href="#m2227ef1661" x="141.506973" y="189.315184" style="fill: #dc143c; stroke: #dc143c"/>
     <use xlink:href="#m2227ef1661" x="133.993816" y="206.470642" style="fill: #dc143c; stroke: #dc143c"/>
     <use xlink:href="#m2227ef1661" x="147.793187" y="192.248607" style="fill: #dc143c; stroke: #dc143c"/>
     <use xlink:href="#m2227ef1661" x="153.254939" y="200.575386" style="fill: #dc143c; stroke: #dc143c"/>
     <use xlink:href="#m2227ef1661" x="136.311027" y="190.297156" style="fill: #dc143c; stroke: #dc143c"/>
     <use xlink:href="#m2227ef1661" x="128.165898" y="172.865282" style="fill: #dc143c; stroke: #dc143c"/>
    </g>
   </g>
   <g id="PathCollection_9">
    <defs>
     <path id="m7f581529ae" d="M 0 1.5 
C 0.397805 1.5 0.77937 1.341951 1.06066 1.06066 
C 1.341951 0.77937 1.5 0.397805 1.5 0 
C 1.5 -0.397805 1.341951 -0.77937 1.06066 -1.06066 
C 0.77937 -1.341951 0.397805 -1.5 0 -1.5 
C -0.397805 -1.5 -0.77937 -1.341951 -1.06066 -1.06066 
C -1.341951 -0.77937 -1.5 -0.397805 -1.5 0 
C -1.5 0.397805 -1.341951 0.77937 -1.06066 1.06066 
C -0.77937 1.341951 -0.397805 1.5 0 1.5 
z
" style="stroke: #ffe4c4"/>
    </defs>
    <g clip-path="url(#p3d900d05d6)">
     <use xlink:href="#m7f581529ae" x="88.174755" y="83.358175" style="fill: #ffe4c4; stroke: #ffe4c4"/>
     <use xlink:href="#m7f581529ae" x="127.333875" y="146.889216" style="fill: #ffe4c4; stroke: #ffe4c4"/>
     <use xlink:href="#m7f581529ae" x="115.988523" y="56.611056" style="fill: #ffe4c4; stroke: #ffe4c4"/>
     <use xlink:href="#m7f581529ae" x="133.389827" y="146.184079" style="fill: #ffe4c4; stroke: #ffe4c4"/>
     <use xlink:href="#m7f581529ae" x="182.315802" y="128.495578" style="fill: #ffe4c4; stroke: #ffe4c4"/>
     <use xlink:href="#m7f581529ae" x="137.190145" y="128.933333" style="fill: #ffe4c4; stroke: #ffe4c4"/>
     <use xlink:href="#m7f581529ae" x="142.385846" y="115.959759" style="fill: #ffe4c4; stroke: #ffe4c4"/>
     <use xlink:href="#m7f581529ae" x="164.115414" y="196.966781" style="fill: #ffe4c4; stroke: #ffe4c4"/>
     <use xlink:href="#m7f581529ae" x="143.809657" y="128.13637" style="fill: #ffe4c4; stroke: #ffe4c4"/>
    </g>
   </g>
   <g id="PathCollection_10">
    <defs>
     <path id="m788e54c394" d="M -2.99994 2.99994 
L 3.00006 2.99994 
L 3.00006 -3.00006 
L -2.99994 -3.00006 
z
" style="stroke: #000000"/>
    </defs>
    <g clip-path="url(#p3d900d05d6)">
     <use xlink:href="#m788e54c394" x="250.614279" y="151.936718" style="stroke: #000000"/>
     <use xlink:href="#m788e54c394" x="277.099376" y="163.867772" style="stroke: #000000"/>
     <use xlink:href="#m788e54c394" x="234.00826" y="179.029304" style="stroke: #000000"/>
     <use xlink:href="#m788e54c394" x="225.991538" y="167.817222" style="stroke: #000000"/>
     <use xlink:href="#m788e54c394" x="199.555852" y="163.081164" style="stroke: #000000"/>
     <use xlink:href="#m788e54c394" x="217.341836" y="196.900832" style="stroke: #000000"/>
     <use xlink:href="#m788e54c394" x="265.609173" y="177.439699" style="stroke: #000000"/>
     <use xlink:href="#m788e54c394" x="229.878474" y="174.963312" style="stroke: #000000"/>
     <use xlink:href="#m788e54c394" x="186.811209" y="197.759347" style="stroke: #000000"/>
     <use xlink:href="#m788e54c394" x="185.355626" y="208.769523" style="stroke: #000000"/>
     <use xlink:href="#m788e54c394" x="309.031361" y="138.2984" style="stroke: #000000"/>
     <use xlink:href="#m788e54c394" x="275.294154" y="154.219487" style="stroke: #000000"/>
     <use xlink:href="#m788e54c394" x="250.926466" y="174.000284" style="stroke: #000000"/>
     <use xlink:href="#m788e54c394" x="242.586779" y="178.403804" style="stroke: #000000"/>
     <use xlink:href="#m788e54c394" x="250.807302" y="179.692401" style="stroke: #000000"/>
     <use xlink:href="#m788e54c394" x="212.584184" y="197.653267" style="stroke: #000000"/>
     <use xlink:href="#m788e54c394" x="292.120275" y="157.891941" style="stroke: #000000"/>
     <use xlink:href="#m788e54c394" x="303.101833" y="155.151581" style="stroke: #000000"/>
     <use xlink:href="#m788e54c394" x="203.63822" y="160.522334" style="stroke: #000000"/>
     <use xlink:href="#m788e54c394" x="279.357387" y="131.248966" style="stroke: #000000"/>
     <use xlink:href="#m788e54c394" x="242.586779" y="178.403804" style="stroke: #000000"/>
     <use xlink:href="#m788e54c394" x="248.763144" y="184.638208" style="stroke: #000000"/>
     <use xlink:href="#m788e54c394" x="253.990831" y="164.020127" style="stroke: #000000"/>
     <use xlink:href="#m788e54c394" x="231.389027" y="156.864001" style="stroke: #000000"/>
     <use xlink:href="#m788e54c394" x="249.472237" y="175.014449" style="stroke: #000000"/>
     <use xlink:href="#m788e54c394" x="261.472957" y="180.790317" style="stroke: #000000"/>
     <use xlink:href="#m788e54c394" x="179.397179" y="209.606272" style="stroke: #000000"/>
     <use xlink:href="#m788e54c394" x="195.950018" y="182.047455" style="stroke: #000000"/>
     <use xlink:href="#m788e54c394" x="319.155035" y="155.911199" style="stroke: #000000"/>
     <use xlink:href="#m788e54c394" x="245.675173" y="167.314969" style="stroke: #000000"/>
     <use xlink:href="#m788e54c394" x="234.323459" y="194.375902" style="stroke: #000000"/>
     <use xlink:href="#m788e54c394" x="251.326244" y="184.453031" style="stroke: #000000"/>
     <use xlink:href="#m788e54c394" x="293.598706" y="156.452155" style="stroke: #000000"/>
     <use xlink:href="#m788e54c394" x="264.296818" y="161.328861" style="stroke: #000000"/>
     <use xlink:href="#m788e54c394" x="376.19196" y="137.96988" style="stroke: #000000"/>
     <use xlink:href="#m788e54c394" x="287.304417" y="164.981977" style="stroke: #000000"/>
     <use xlink:href="#m788e54c394" x="273.35989" y="180.032119" style="stroke: #000000"/>
     <use xlink:href="#m788e54c394" x="258.196134" y="159.74364" style="stroke: #000000"/>
     <use xlink:href="#m788e54c394" x="120.499229" y="187.780583" style="stroke: #000000"/>
     <use xlink:href="#m788e54c394" x="228.660387" y="190.668632" style="stroke: #000000"/>
     <use xlink:href="#m788e54c394" x="219.975623" y="185.407571" style="stroke: #000000"/>
     <use xlink:href="#m788e54c394" x="174.948261" y="198.444527" style="stroke: #000000"/>
     <use xlink:href="#m788e54c394" x="197.858322" y="184.254616" style="stroke: #000000"/>
     <use xlink:href="#m788e54c394" x="265.786123" y="193.061691" style="stroke: #000000"/>
     <use xlink:href="#m788e54c394" x="209.510012" y="188.391521" style="stroke: #000000"/>
     <use xlink:href="#m788e54c394" x="184.840693" y="210.916343" style="stroke: #000000"/>
     <use xlink:href="#m788e54c394" x="229.346257" y="170.116141" style="stroke: #000000"/>
     <use xlink:href="#m788e54c394" x="315.547763" y="149.969079" style="stroke: #000000"/>
     <use xlink:href="#m788e54c394" x="321.424852" y="160.885276" style="stroke: #000000"/>
     <use xlink:href="#m788e54c394" x="204.110108" y="194.08255" style="stroke: #000000"/>
     <use xlink:href="#m788e54c394" x="164.419115" y="193.544055" style="stroke: #000000"/>
     <use xlink:href="#m788e54c394" x="244.44887" y="120.371729" style="stroke: #000000"/>
     <use xlink:href="#m788e54c394" x="213.099489" y="207.778518" style="stroke: #000000"/>
     <use xlink:href="#m788e54c394" x="300.470291" y="167.324112" style="stroke: #000000"/>
     <use xlink:href="#m788e54c394" x="239.414628" y="165.371395" style="stroke: #000000"/>
     <use xlink:href="#m788e54c394" x="258.193512" y="164.658286" style="stroke: #000000"/>
     <use xlink:href="#m788e54c394" x="174.592588" y="146.326809" style="stroke: #000000"/>
     <use xlink:href="#m788e54c394" x="258.193512" y="164.658286" style="stroke: #000000"/>
     <use xlink:href="#m788e54c394" x="303.507582" y="155.281502" style="stroke: #000000"/>
     <use xlink:href="#m788e54c394" x="227.941747" y="198.651057" style="stroke: #000000"/>
     <use xlink:href="#m788e54c394" x="252.796605" y="161.835374" style="stroke: #000000"/>
     <use xlink:href="#m788e54c394" x="290.852371" y="145.548814" style="stroke: #000000"/>
     <use xlink:href="#m788e54c394" x="300.949054" y="148.42446" style="stroke: #000000"/>
     <use xlink:href="#m788e54c394" x="247.336566" y="191.114171" style="stroke: #000000"/>
    </g>
   </g>
   <g id="PathCollection_11">
    <defs>
     <path id="m1b17792403" d="M -3 -0 
L 3 3 
L 3 -3 
z
" style="stroke: #ff8c00"/>
    </defs>
    <g clip-path="url(#p3d900d05d6)">
     <use xlink:href="#m1b17792403" x="222.094163" y="162.3065" style="fill: #ff8c00; stroke: #ff8c00"/>
     <use xlink:href="#m1b17792403" x="283.012935" y="172.706285" style="fill: #ff8c00; stroke: #ff8c00"/>
     <use xlink:href="#m1b17792403" x="239.476537" y="173.721666" style="fill: #ff8c00; stroke: #ff8c00"/>
     <use xlink:href="#m1b17792403" x="285.281925" y="162.043885" style="fill: #ff8c00; stroke: #ff8c00"/>
     <use xlink:href="#m1b17792403" x="198.172638" y="153.427157" style="fill: #ff8c00; stroke: #ff8c00"/>
     <use xlink:href="#m1b17792403" x="267.365578" y="162.242432" style="fill: #ff8c00; stroke: #ff8c00"/>
     <use xlink:href="#m1b17792403" x="234.3544" y="157.707186" style="fill: #ff8c00; stroke: #ff8c00"/>
     <use xlink:href="#m1b17792403" x="248.108808" y="193.439827" style="fill: #ff8c00; stroke: #ff8c00"/>
     <use xlink:href="#m1b17792403" x="257.208731" y="156.292621" style="fill: #ff8c00; stroke: #ff8c00"/>
     <use xlink:href="#m1b17792403" x="234.337073" y="196.845157" style="fill: #ff8c00; stroke: #ff8c00"/>
     <use xlink:href="#m1b17792403" x="197.856165" y="208.775725" style="fill: #ff8c00; stroke: #ff8c00"/>
     <use xlink:href="#m1b17792403" x="231.45742" y="158.558767" style="fill: #ff8c00; stroke: #ff8c00"/>
     <use xlink:href="#m1b17792403" x="260.689624" y="170.530002" style="fill: #ff8c00; stroke: #ff8c00"/>
     <use xlink:href="#m1b17792403" x="195.493065" y="186.80551" style="fill: #ff8c00; stroke: #ff8c00"/>
     <use xlink:href="#m1b17792403" x="248.58294" y="170.464721" style="fill: #ff8c00; stroke: #ff8c00"/>
     <use xlink:href="#m1b17792403" x="244.803434" y="183.362457" style="fill: #ff8c00; stroke: #ff8c00"/>
     <use xlink:href="#m1b17792403" x="247.948611" y="168.93105" style="fill: #ff8c00; stroke: #ff8c00"/>
     <use xlink:href="#m1b17792403" x="208.48861" y="191.72398" style="fill: #ff8c00; stroke: #ff8c00"/>
     <use xlink:href="#m1b17792403" x="299.353995" y="162.502685" style="fill: #ff8c00; stroke: #ff8c00"/>
     <use xlink:href="#m1b17792403" x="211.29202" y="179.194552" style="fill: #ff8c00; stroke: #ff8c00"/>
     <use xlink:href="#m1b17792403" x="215.192441" y="195.6917" style="fill: #ff8c00; stroke: #ff8c00"/>
     <use xlink:href="#m1b17792403" x="202.602812" y="206.605355" style="fill: #ff8c00; stroke: #ff8c00"/>
     <use xlink:href="#m1b17792403" x="245.445288" y="174.450972" style="fill: #ff8c00; stroke: #ff8c00"/>
     <use xlink:href="#m1b17792403" x="216.719205" y="197.862412" style="fill: #ff8c00; stroke: #ff8c00"/>
     <use xlink:href="#m1b17792403" x="239.029123" y="182.097703" style="fill: #ff8c00; stroke: #ff8c00"/>
     <use xlink:href="#m1b17792403" x="295.473897" y="181.546749" style="fill: #ff8c00; stroke: #ff8c00"/>
     <use xlink:href="#m1b17792403" x="258.490622" y="169.905036" style="fill: #ff8c00; stroke: #ff8c00"/>
     <use xlink:href="#m1b17792403" x="266.204964" y="147.534605" style="fill: #ff8c00; stroke: #ff8c00"/>
     <use xlink:href="#m1b17792403" x="236.881792" y="158.356392" style="fill: #ff8c00; stroke: #ff8c00"/>
     <use xlink:href="#m1b17792403" x="261.33858" y="124.773788" style="fill: #ff8c00; stroke: #ff8c00"/>
     <use xlink:href="#m1b17792403" x="258.403839" y="162.040656" style="fill: #ff8c00; stroke: #ff8c00"/>
     <use xlink:href="#m1b17792403" x="277.036513" y="175.670983" style="fill: #ff8c00; stroke: #ff8c00"/>
     <use xlink:href="#m1b17792403" x="215.628186" y="168.874945" style="fill: #ff8c00; stroke: #ff8c00"/>
     <use xlink:href="#m1b17792403" x="233.842969" y="169.416179" style="fill: #ff8c00; stroke: #ff8c00"/>
     <use xlink:href="#m1b17792403" x="236.86801" y="168.006252" style="fill: #ff8c00; stroke: #ff8c00"/>
     <use xlink:href="#m1b17792403" x="223.85459" y="169.645127" style="fill: #ff8c00; stroke: #ff8c00"/>
     <use xlink:href="#m1b17792403" x="195.83041" y="187.81376" style="fill: #ff8c00; stroke: #ff8c00"/>
     <use xlink:href="#m1b17792403" x="212.783378" y="173.946087" style="fill: #ff8c00; stroke: #ff8c00"/>
     <use xlink:href="#m1b17792403" x="218.824229" y="184.625233" style="fill: #ff8c00; stroke: #ff8c00"/>
     <use xlink:href="#m1b17792403" x="193.984602" y="153.339985" style="fill: #ff8c00; stroke: #ff8c00"/>
     <use xlink:href="#m1b17792403" x="294.028338" y="159.472366" style="fill: #ff8c00; stroke: #ff8c00"/>
     <use xlink:href="#m1b17792403" x="267.839565" y="160.230088" style="fill: #ff8c00; stroke: #ff8c00"/>
     <use xlink:href="#m1b17792403" x="180.131788" y="140.558674" style="fill: #ff8c00; stroke: #ff8c00"/>
     <use xlink:href="#m1b17792403" x="191.311799" y="210.584744" style="fill: #ff8c00; stroke: #ff8c00"/>
     <use xlink:href="#m1b17792403" x="218.149476" y="207.795786" style="fill: #ff8c00; stroke: #ff8c00"/>
     <use xlink:href="#m1b17792403" x="234.294661" y="194.68881" style="fill: #ff8c00; stroke: #ff8c00"/>
     <use xlink:href="#m1b17792403" x="197.798315" y="212.328238" style="fill: #ff8c00; stroke: #ff8c00"/>
     <use xlink:href="#m1b17792403" x="231.072394" y="196.966762" style="fill: #ff8c00; stroke: #ff8c00"/>
     <use xlink:href="#m1b17792403" x="225.832409" y="174.363052" style="fill: #ff8c00; stroke: #ff8c00"/>
     <use xlink:href="#m1b17792403" x="274.478721" y="171.009209" style="fill: #ff8c00; stroke: #ff8c00"/>
     <use xlink:href="#m1b17792403" x="294.312324" y="137.748781" style="fill: #ff8c00; stroke: #ff8c00"/>
     <use xlink:href="#m1b17792403" x="219.493284" y="150.534988" style="fill: #ff8c00; stroke: #ff8c00"/>
     <use xlink:href="#m1b17792403" x="228.527155" y="192.603304" style="fill: #ff8c00; stroke: #ff8c00"/>
     <use xlink:href="#m1b17792403" x="232.212128" y="172.624389" style="fill: #ff8c00; stroke: #ff8c00"/>
     <use xlink:href="#m1b17792403" x="207.412129" y="178.338472" style="fill: #ff8c00; stroke: #ff8c00"/>
     <use xlink:href="#m1b17792403" x="259.033638" y="177.393912" style="fill: #ff8c00; stroke: #ff8c00"/>
     <use xlink:href="#m1b17792403" x="187.998245" y="174.564585" style="fill: #ff8c00; stroke: #ff8c00"/>
     <use xlink:href="#m1b17792403" x="230.978845" y="183.7196" style="fill: #ff8c00; stroke: #ff8c00"/>
     <use xlink:href="#m1b17792403" x="265.295932" y="196.98553" style="fill: #ff8c00; stroke: #ff8c00"/>
     <use xlink:href="#m1b17792403" x="242.430545" y="160.514573" style="fill: #ff8c00; stroke: #ff8c00"/>
     <use xlink:href="#m1b17792403" x="224.014218" y="208.105132" style="fill: #ff8c00; stroke: #ff8c00"/>
     <use xlink:href="#m1b17792403" x="211.907" y="178.020463" style="fill: #ff8c00; stroke: #ff8c00"/>
     <use xlink:href="#m1b17792403" x="189.801892" y="192.280077" style="fill: #ff8c00; stroke: #ff8c00"/>
     <use xlink:href="#m1b17792403" x="220.644882" y="220.986151" style="fill: #ff8c00; stroke: #ff8c00"/>
    </g>
   </g>
   <g id="matplotlib.axis_1">
    <g id="xtick_1">
     <g id="line2d_1">
      <defs>
       <path id="ma5368f6971" d="M 0 0 
L 0 3.5 
" style="stroke: #000000; stroke-width: 0.8"/>
      </defs>
      <g>
       <use xlink:href="#ma5368f6971" x="54.534955" y="273.312" style="stroke: #000000; stroke-width: 0.8"/>
      </g>
     </g>
     <g id="text_1">
      <!-- −30 -->
      <g transform="translate(43.982611 287.910437) scale(0.1 -0.1)">
       <defs>
        <path id="DejaVuSans-2212" d="M 678 2272 
L 4684 2272 
L 4684 1741 
L 678 1741 
L 678 2272 
z
" transform="scale(0.015625)"/>
        <path id="DejaVuSans-33" d="M 2597 2516 
Q 3050 2419 3304 2112 
Q 3559 1806 3559 1356 
Q 3559 666 3084 287 
Q 2609 -91 1734 -91 
Q 1441 -91 1130 -33 
Q 819 25 488 141 
L 488 750 
Q 750 597 1062 519 
Q 1375 441 1716 441 
Q 2309 441 2620 675 
Q 2931 909 2931 1356 
Q 2931 1769 2642 2001 
Q 2353 2234 1838 2234 
L 1294 2234 
L 1294 2753 
L 1863 2753 
Q 2328 2753 2575 2939 
Q 2822 3125 2822 3475 
Q 2822 3834 2567 4026 
Q 2313 4219 1838 4219 
Q 1578 4219 1281 4162 
Q 984 4106 628 3988 
L 628 4550 
Q 988 4650 1302 4700 
Q 1616 4750 1894 4750 
Q 2613 4750 3031 4423 
Q 3450 4097 3450 3541 
Q 3450 3153 3228 2886 
Q 3006 2619 2597 2516 
z
" transform="scale(0.015625)"/>
        <path id="DejaVuSans-30" d="M 2034 4250 
Q 1547 4250 1301 3770 
Q 1056 3291 1056 2328 
Q 1056 1369 1301 889 
Q 1547 409 2034 409 
Q 2525 409 2770 889 
Q 3016 1369 3016 2328 
Q 3016 3291 2770 3770 
Q 2525 4250 2034 4250 
z
M 2034 4750 
Q 2819 4750 3233 4129 
Q 3647 3509 3647 2328 
Q 3647 1150 3233 529 
Q 2819 -91 2034 -91 
Q 1250 -91 836 529 
Q 422 1150 422 2328 
Q 422 3509 836 4129 
Q 1250 4750 2034 4750 
z
" transform="scale(0.015625)"/>
       </defs>
       <use xlink:href="#DejaVuSans-2212"/>
       <use xlink:href="#DejaVuSans-33" x="83.789062"/>
       <use xlink:href="#DejaVuSans-30" x="147.412109"/>
      </g>
     </g>
    </g>
    <g id="xtick_2">
     <g id="line2d_2">
      <g>
       <use xlink:href="#ma5368f6971" x="102.182962" y="273.312" style="stroke: #000000; stroke-width: 0.8"/>
      </g>
     </g>
     <g id="text_2">
      <!-- −20 -->
      <g transform="translate(91.630619 287.910437) scale(0.1 -0.1)">
       <defs>
        <path id="DejaVuSans-32" d="M 1228 531 
L 3431 531 
L 3431 0 
L 469 0 
L 469 531 
Q 828 903 1448 1529 
Q 2069 2156 2228 2338 
Q 2531 2678 2651 2914 
Q 2772 3150 2772 3378 
Q 2772 3750 2511 3984 
Q 2250 4219 1831 4219 
Q 1534 4219 1204 4116 
Q 875 4013 500 3803 
L 500 4441 
Q 881 4594 1212 4672 
Q 1544 4750 1819 4750 
Q 2544 4750 2975 4387 
Q 3406 4025 3406 3419 
Q 3406 3131 3298 2873 
Q 3191 2616 2906 2266 
Q 2828 2175 2409 1742 
Q 1991 1309 1228 531 
z
" transform="scale(0.015625)"/>
       </defs>
       <use xlink:href="#DejaVuSans-2212"/>
       <use xlink:href="#DejaVuSans-32" x="83.789062"/>
       <use xlink:href="#DejaVuSans-30" x="147.412109"/>
      </g>
     </g>
    </g>
    <g id="xtick_3">
     <g id="line2d_3">
      <g>
       <use xlink:href="#ma5368f6971" x="149.83097" y="273.312" style="stroke: #000000; stroke-width: 0.8"/>
      </g>
     </g>
     <g id="text_3">
      <!-- −10 -->
      <g transform="translate(139.278626 287.910437) scale(0.1 -0.1)">
       <defs>
        <path id="DejaVuSans-31" d="M 794 531 
L 1825 531 
L 1825 4091 
L 703 3866 
L 703 4441 
L 1819 4666 
L 2450 4666 
L 2450 531 
L 3481 531 
L 3481 0 
L 794 0 
L 794 531 
z
" transform="scale(0.015625)"/>
       </defs>
       <use xlink:href="#DejaVuSans-2212"/>
       <use xlink:href="#DejaVuSans-31" x="83.789062"/>
       <use xlink:href="#DejaVuSans-30" x="147.412109"/>
      </g>
     </g>
    </g>
    <g id="xtick_4">
     <g id="line2d_4">
      <g>
       <use xlink:href="#ma5368f6971" x="197.478978" y="273.312" style="stroke: #000000; stroke-width: 0.8"/>
      </g>
     </g>
     <g id="text_4">
      <!-- 0 -->
      <g transform="translate(194.297728 287.910437) scale(0.1 -0.1)">
       <use xlink:href="#DejaVuSans-30"/>
      </g>
     </g>
    </g>
    <g id="xtick_5">
     <g id="line2d_5">
      <g>
       <use xlink:href="#ma5368f6971" x="245.126986" y="273.312" style="stroke: #000000; stroke-width: 0.8"/>
      </g>
     </g>
     <g id="text_5">
      <!-- 10 -->
      <g transform="translate(238.764486 287.910437) scale(0.1 -0.1)">
       <use xlink:href="#DejaVuSans-31"/>
       <use xlink:href="#DejaVuSans-30" x="63.623047"/>
      </g>
     </g>
    </g>
    <g id="xtick_6">
     <g id="line2d_6">
      <g>
       <use xlink:href="#ma5368f6971" x="292.774993" y="273.312" style="stroke: #000000; stroke-width: 0.8"/>
      </g>
     </g>
     <g id="text_6">
      <!-- 20 -->
      <g transform="translate(286.412493 287.910437) scale(0.1 -0.1)">
       <use xlink:href="#DejaVuSans-32"/>
       <use xlink:href="#DejaVuSans-30" x="63.623047"/>
      </g>
     </g>
    </g>
    <g id="xtick_7">
     <g id="line2d_7">
      <g>
       <use xlink:href="#ma5368f6971" x="340.423001" y="273.312" style="stroke: #000000; stroke-width: 0.8"/>
      </g>
     </g>
     <g id="text_7">
      <!-- 30 -->
      <g transform="translate(334.060501 287.910437) scale(0.1 -0.1)">
       <use xlink:href="#DejaVuSans-33"/>
       <use xlink:href="#DejaVuSans-30" x="63.623047"/>
      </g>
     </g>
    </g>
    <g id="xtick_8">
     <g id="line2d_8">
      <g>
       <use xlink:href="#ma5368f6971" x="388.071009" y="273.312" style="stroke: #000000; stroke-width: 0.8"/>
      </g>
     </g>
     <g id="text_8">
      <!-- 40 -->
      <g transform="translate(381.708509 287.910437) scale(0.1 -0.1)">
       <defs>
        <path id="DejaVuSans-34" d="M 2419 4116 
L 825 1625 
L 2419 1625 
L 2419 4116 
z
M 2253 4666 
L 3047 4666 
L 3047 1625 
L 3713 1625 
L 3713 1100 
L 3047 1100 
L 3047 0 
L 2419 0 
L 2419 1100 
L 313 1100 
L 313 1709 
L 2253 4666 
z
" transform="scale(0.015625)"/>
       </defs>
       <use xlink:href="#DejaVuSans-34"/>
       <use xlink:href="#DejaVuSans-30" x="63.623047"/>
      </g>
     </g>
    </g>
   </g>
   <g id="matplotlib.axis_2">
    <g id="ytick_1">
     <g id="line2d_9">
      <defs>
       <path id="mcf83c7a2ff" d="M 0 0 
L -3.5 0 
" style="stroke: #000000; stroke-width: 0.8"/>
      </defs>
      <g>
       <use xlink:href="#mcf83c7a2ff" x="35.304688" y="266.740336" style="stroke: #000000; stroke-width: 0.8"/>
      </g>
     </g>
     <g id="text_9">
      <!-- −20 -->
      <g transform="translate(7.2 270.539555) scale(0.1 -0.1)">
       <use xlink:href="#DejaVuSans-2212"/>
       <use xlink:href="#DejaVuSans-32" x="83.789062"/>
       <use xlink:href="#DejaVuSans-30" x="147.412109"/>
      </g>
     </g>
    </g>
    <g id="ytick_2">
     <g id="line2d_10">
      <g>
       <use xlink:href="#mcf83c7a2ff" x="35.304688" y="223.476206" style="stroke: #000000; stroke-width: 0.8"/>
      </g>
     </g>
     <g id="text_10">
      <!-- −10 -->
      <g transform="translate(7.2 227.275425) scale(0.1 -0.1)">
       <use xlink:href="#DejaVuSans-2212"/>
       <use xlink:href="#DejaVuSans-31" x="83.789062"/>
       <use xlink:href="#DejaVuSans-30" x="147.412109"/>
      </g>
     </g>
    </g>
    <g id="ytick_3">
     <g id="line2d_11">
      <g>
       <use xlink:href="#mcf83c7a2ff" x="35.304688" y="180.212077" style="stroke: #000000; stroke-width: 0.8"/>
      </g>
     </g>
     <g id="text_11">
      <!-- 0 -->
      <g transform="translate(21.942187 184.011296) scale(0.1 -0.1)">
       <use xlink:href="#DejaVuSans-30"/>
      </g>
     </g>
    </g>
    <g id="ytick_4">
     <g id="line2d_12">
      <g>
       <use xlink:href="#mcf83c7a2ff" x="35.304688" y="136.947947" style="stroke: #000000; stroke-width: 0.8"/>
      </g>
     </g>
     <g id="text_12">
      <!-- 10 -->
      <g transform="translate(15.579687 140.747166) scale(0.1 -0.1)">
       <use xlink:href="#DejaVuSans-31"/>
       <use xlink:href="#DejaVuSans-30" x="63.623047"/>
      </g>
     </g>
    </g>
    <g id="ytick_5">
     <g id="line2d_13">
      <g>
       <use xlink:href="#mcf83c7a2ff" x="35.304688" y="93.683817" style="stroke: #000000; stroke-width: 0.8"/>
      </g>
     </g>
     <g id="text_13">
      <!-- 20 -->
      <g transform="translate(15.579687 97.483036) scale(0.1 -0.1)">
       <use xlink:href="#DejaVuSans-32"/>
       <use xlink:href="#DejaVuSans-30" x="63.623047"/>
      </g>
     </g>
    </g>
    <g id="ytick_6">
     <g id="line2d_14">
      <g>
       <use xlink:href="#mcf83c7a2ff" x="35.304688" y="50.419688" style="stroke: #000000; stroke-width: 0.8"/>
      </g>
     </g>
     <g id="text_14">
      <!-- 30 -->
      <g transform="translate(15.579687 54.218907) scale(0.1 -0.1)">
       <use xlink:href="#DejaVuSans-33"/>
       <use xlink:href="#DejaVuSans-30" x="63.623047"/>
      </g>
     </g>
    </g>
   </g>
   <g id="patch_3">
    <path d="M 35.304688 273.312 
L 35.304688 7.2 
" style="fill: none; stroke: #000000; stroke-width: 0.8; stroke-linejoin: miter; stroke-linecap: square"/>
   </g>
   <g id="patch_4">
    <path d="M 392.424688 273.312 
L 392.424688 7.2 
" style="fill: none; stroke: #000000; stroke-width: 0.8; stroke-linejoin: miter; stroke-linecap: square"/>
   </g>
   <g id="patch_5">
    <path d="M 35.304688 273.312 
L 392.424688 273.312 
" style="fill: none; stroke: #000000; stroke-width: 0.8; stroke-linejoin: miter; stroke-linecap: square"/>
   </g>
   <g id="patch_6">
    <path d="M 35.304688 7.2 
L 392.424688 7.2 
" style="fill: none; stroke: #000000; stroke-width: 0.8; stroke-linejoin: miter; stroke-linecap: square"/>
   </g>
  </g>
 </g>
 <defs>
  <clipPath id="p3d900d05d6">
   <rect x="35.304688" y="7.2" width="357.12" height="266.112"/>
  </clipPath>
 </defs>
</svg>
