<?xml version="1.0" encoding="utf-8" standalone="no"?>
<!DOCTYPE svg PUBLIC "-//W3C//DTD SVG 1.1//EN"
  "http://www.w3.org/Graphics/SVG/1.1/DTD/svg11.dtd">
<svg xmlns:xlink="http://www.w3.org/1999/xlink" width="399.624687pt" height="297.190125pt" viewBox="0 0 399.624687 297.190125" xmlns="http://www.w3.org/2000/svg" version="1.1">
 <metadata>
  <rdf:RDF xmlns:dc="http://purl.org/dc/elements/1.1/" xmlns:cc="http://creativecommons.org/ns#" xmlns:rdf="http://www.w3.org/1999/02/22-rdf-syntax-ns#">
   <cc:Work>
    <dc:type rdf:resource="http://purl.org/dc/dcmitype/StillImage"/>
    <dc:date>2023-11-13T10:34:19.264919</dc:date>
    <dc:format>image/svg+xml</dc:format>
    <dc:creator>
     <cc:Agent>
      <dc:title>Matplotlib v3.8.0, https://matplotlib.org/</dc:title>
     </cc:Agent>
    </dc:creator>
   </cc:Work>
  </rdf:RDF>
 </metadata>
 <defs>
  <style type="text/css">*{stroke-linejoin: round; stroke-linecap: butt}</style>
 </defs>
 <g id="figure_1">
  <g id="patch_1">
   <path d="M 0 297.190125 
L 399.624687 297.190125 
L 399.624687 0 
L 0 0 
z
" style="fill: #ffffff"/>
  </g>
  <g id="axes_1">
   <g id="patch_2">
    <path d="M 35.304688 273.312 
L 392.424688 273.312 
L 392.424688 7.2 
L 35.304688 7.2 
z
" style="fill: #ffffff"/>
   </g>
   <g id="PathCollection_1">
    <defs>
     <path id="m0a4b9d4c6f" d="M 0 1.5 
C 0.397805 1.5 0.77937 1.341951 1.06066 1.06066 
C 1.341951 0.77937 1.5 0.397805 1.5 0 
C 1.5 -0.397805 1.341951 -0.77937 1.06066 -1.06066 
C 0.77937 -1.341951 0.397805 -1.5 0 -1.5 
C -0.397805 -1.5 -0.77937 -1.341951 -1.06066 -1.06066 
C -1.341951 -0.77937 -1.5 -0.397805 -1.5 0 
C -1.5 0.397805 -1.341951 0.77937 -1.06066 1.06066 
C -0.77937 1.341951 -0.397805 1.5 0 1.5 
z
" style="stroke: #ff8c00"/>
    </defs>
    <g clip-path="url(#p3d17aa596b)">
     <use xlink:href="#m0a4b9d4c6f" x="300.58965" y="193.294806" style="fill: #ff8c00; stroke: #ff8c00"/>
     <use xlink:href="#m0a4b9d4c6f" x="253.218312" y="245.964349" style="fill: #ff8c00; stroke: #ff8c00"/>
     <use xlink:href="#m0a4b9d4c6f" x="240.824103" y="201.806708" style="fill: #ff8c00; stroke: #ff8c00"/>
     <use xlink:href="#m0a4b9d4c6f" x="228.468199" y="210.353081" style="fill: #ff8c00; stroke: #ff8c00"/>
     <use xlink:href="#m0a4b9d4c6f" x="265.675685" y="258.251236" style="fill: #ff8c00; stroke: #ff8c00"/>
     <use xlink:href="#m0a4b9d4c6f" x="240.398683" y="197.721831" style="fill: #ff8c00; stroke: #ff8c00"/>
     <use xlink:href="#m0a4b9d4c6f" x="208.620056" y="246.936483" style="fill: #ff8c00; stroke: #ff8c00"/>
     <use xlink:href="#m0a4b9d4c6f" x="270.475694" y="243.90729" style="fill: #ff8c00; stroke: #ff8c00"/>
     <use xlink:href="#m0a4b9d4c6f" x="222.582449" y="208.415988" style="fill: #ff8c00; stroke: #ff8c00"/>
     <use xlink:href="#m0a4b9d4c6f" x="223.682864" y="251.001165" style="fill: #ff8c00; stroke: #ff8c00"/>
     <use xlink:href="#m0a4b9d4c6f" x="264.825724" y="214.588334" style="fill: #ff8c00; stroke: #ff8c00"/>
     <use xlink:href="#m0a4b9d4c6f" x="250.756441" y="244.62796" style="fill: #ff8c00; stroke: #ff8c00"/>
     <use xlink:href="#m0a4b9d4c6f" x="239.363877" y="219.962426" style="fill: #ff8c00; stroke: #ff8c00"/>
     <use xlink:href="#m0a4b9d4c6f" x="226.862983" y="237.475803" style="fill: #ff8c00; stroke: #ff8c00"/>
     <use xlink:href="#m0a4b9d4c6f" x="223.791807" y="243.961567" style="fill: #ff8c00; stroke: #ff8c00"/>
     <use xlink:href="#m0a4b9d4c6f" x="240.298152" y="164.615664" style="fill: #ff8c00; stroke: #ff8c00"/>
     <use xlink:href="#m0a4b9d4c6f" x="224.862399" y="258.105519" style="fill: #ff8c00; stroke: #ff8c00"/>
     <use xlink:href="#m0a4b9d4c6f" x="214.556531" y="260.38555" style="fill: #ff8c00; stroke: #ff8c00"/>
    </g>
   </g>
   <g id="PathCollection_2">
    <defs>
     <path id="m23829203ac" d="M 0 1.5 
C 0.397805 1.5 0.77937 1.341951 1.06066 1.06066 
C 1.341951 0.77937 1.5 0.397805 1.5 0 
C 1.5 -0.397805 1.341951 -0.77937 1.06066 -1.06066 
C 0.77937 -1.341951 0.397805 -1.5 0 -1.5 
C -0.397805 -1.5 -0.77937 -1.341951 -1.06066 -1.06066 
C -1.341951 -0.77937 -1.5 -0.397805 -1.5 0 
C -1.5 0.397805 -1.341951 0.77937 -1.06066 1.06066 
C -0.77937 1.341951 -0.397805 1.5 0 1.5 
z
" style="stroke: #006400"/>
    </defs>
    <g clip-path="url(#p3d17aa596b)">
     <use xlink:href="#m23829203ac" x="275.78358" y="172.772981" style="fill: #006400; stroke: #006400"/>
     <use xlink:href="#m23829203ac" x="330.461765" y="127.630053" style="fill: #006400; stroke: #006400"/>
     <use xlink:href="#m23829203ac" x="271.193891" y="33.694502" style="fill: #006400; stroke: #006400"/>
     <use xlink:href="#m23829203ac" x="313.439159" y="88.607922" style="fill: #006400; stroke: #006400"/>
     <use xlink:href="#m23829203ac" x="277.061307" y="156.280666" style="fill: #006400; stroke: #006400"/>
     <use xlink:href="#m23829203ac" x="258.483969" y="94.295348" style="fill: #006400; stroke: #006400"/>
     <use xlink:href="#m23829203ac" x="320.060385" y="142.603235" style="fill: #006400; stroke: #006400"/>
     <use xlink:href="#m23829203ac" x="376.19196" y="19.296" style="fill: #006400; stroke: #006400"/>
     <use xlink:href="#m23829203ac" x="269.550762" y="153.286442" style="fill: #006400; stroke: #006400"/>
     <use xlink:href="#m23829203ac" x="237.486922" y="159.568876" style="fill: #006400; stroke: #006400"/>
     <use xlink:href="#m23829203ac" x="292.814806" y="42.084977" style="fill: #006400; stroke: #006400"/>
     <use xlink:href="#m23829203ac" x="265.746805" y="91.811465" style="fill: #006400; stroke: #006400"/>
     <use xlink:href="#m23829203ac" x="237.607878" y="166.318178" style="fill: #006400; stroke: #006400"/>
     <use xlink:href="#m23829203ac" x="297.758445" y="139.87038" style="fill: #006400; stroke: #006400"/>
     <use xlink:href="#m23829203ac" x="264.587567" y="140.031241" style="fill: #006400; stroke: #006400"/>
     <use xlink:href="#m23829203ac" x="261.605066" y="210.819287" style="fill: #006400; stroke: #006400"/>
     <use xlink:href="#m23829203ac" x="326.516551" y="61.311568" style="fill: #006400; stroke: #006400"/>
    </g>
   </g>
   <g id="PathCollection_3">
    <defs>
     <path id="m186914ada2" d="M 0 1.5 
C 0.397805 1.5 0.77937 1.341951 1.06066 1.06066 
C 1.341951 0.77937 1.5 0.397805 1.5 0 
C 1.5 -0.397805 1.341951 -0.77937 1.06066 -1.06066 
C 0.77937 -1.341951 0.397805 -1.5 0 -1.5 
C -0.397805 -1.5 -0.77937 -1.341951 -1.06066 -1.06066 
C -1.341951 -0.77937 -1.5 -0.397805 -1.5 0 
C -1.5 0.397805 -1.341951 0.77937 -1.06066 1.06066 
C -0.77937 1.341951 -0.397805 1.5 0 1.5 
z
" style="stroke: #2f4f4f"/>
    </defs>
    <g clip-path="url(#p3d17aa596b)">
     <use xlink:href="#m186914ada2" x="192.275772" y="193.072475" style="fill: #2f4f4f; stroke: #2f4f4f"/>
     <use xlink:href="#m186914ada2" x="202.714593" y="208.164008" style="fill: #2f4f4f; stroke: #2f4f4f"/>
     <use xlink:href="#m186914ada2" x="206.161139" y="159.748612" style="fill: #2f4f4f; stroke: #2f4f4f"/>
     <use xlink:href="#m186914ada2" x="219.424656" y="250.800456" style="fill: #2f4f4f; stroke: #2f4f4f"/>
     <use xlink:href="#m186914ada2" x="231.489905" y="261.216" style="fill: #2f4f4f; stroke: #2f4f4f"/>
     <use xlink:href="#m186914ada2" x="230.026365" y="205.717326" style="fill: #2f4f4f; stroke: #2f4f4f"/>
     <use xlink:href="#m186914ada2" x="185.812577" y="190.06467" style="fill: #2f4f4f; stroke: #2f4f4f"/>
     <use xlink:href="#m186914ada2" x="171.499311" y="209.78101" style="fill: #2f4f4f; stroke: #2f4f4f"/>
     <use xlink:href="#m186914ada2" x="214.328648" y="260.85264" style="fill: #2f4f4f; stroke: #2f4f4f"/>
    </g>
   </g>
   <g id="PathCollection_4">
    <defs>
     <path id="m64091aa0e5" d="M 0 1.5 
C 0.397805 1.5 0.77937 1.341951 1.06066 1.06066 
C 1.341951 0.77937 1.5 0.397805 1.5 0 
C 1.5 -0.397805 1.341951 -0.77937 1.06066 -1.06066 
C 0.77937 -1.341951 0.397805 -1.5 0 -1.5 
C -0.397805 -1.5 -0.77937 -1.341951 -1.06066 -1.06066 
C -1.341951 -0.77937 -1.5 -0.397805 -1.5 0 
C -1.5 0.397805 -1.341951 0.77937 -1.06066 1.06066 
C -0.77937 1.341951 -0.397805 1.5 0 1.5 
z
" style="stroke: #00bfff"/>
    </defs>
    <g clip-path="url(#p3d17aa596b)">
     <use xlink:href="#m64091aa0e5" x="141.919587" y="200.407233" style="fill: #00bfff; stroke: #00bfff"/>
     <use xlink:href="#m64091aa0e5" x="172.614032" y="189.133027" style="fill: #00bfff; stroke: #00bfff"/>
     <use xlink:href="#m64091aa0e5" x="174.132024" y="174.783119" style="fill: #00bfff; stroke: #00bfff"/>
     <use xlink:href="#m64091aa0e5" x="192.757927" y="160.169073" style="fill: #00bfff; stroke: #00bfff"/>
     <use xlink:href="#m64091aa0e5" x="166.248368" y="190.612182" style="fill: #00bfff; stroke: #00bfff"/>
     <use xlink:href="#m64091aa0e5" x="170.036505" y="194.309163" style="fill: #00bfff; stroke: #00bfff"/>
     <use xlink:href="#m64091aa0e5" x="209.36304" y="163.806811" style="fill: #00bfff; stroke: #00bfff"/>
     <use xlink:href="#m64091aa0e5" x="194.920114" y="189.21174" style="fill: #00bfff; stroke: #00bfff"/>
     <use xlink:href="#m64091aa0e5" x="193.666737" y="186.651804" style="fill: #00bfff; stroke: #00bfff"/>
     <use xlink:href="#m64091aa0e5" x="150.277707" y="208.886301" style="fill: #00bfff; stroke: #00bfff"/>
     <use xlink:href="#m64091aa0e5" x="207.924391" y="190.73709" style="fill: #00bfff; stroke: #00bfff"/>
     <use xlink:href="#m64091aa0e5" x="184.181465" y="226.85208" style="fill: #00bfff; stroke: #00bfff"/>
    </g>
   </g>
   <g id="PathCollection_5">
    <defs>
     <path id="m6a37ce2c2c" d="M 0 1.5 
C 0.397805 1.5 0.77937 1.341951 1.06066 1.06066 
C 1.341951 0.77937 1.5 0.397805 1.5 0 
C 1.5 -0.397805 1.341951 -0.77937 1.06066 -1.06066 
C 0.77937 -1.341951 0.397805 -1.5 0 -1.5 
C -0.397805 -1.5 -0.77937 -1.341951 -1.06066 -1.06066 
C -1.341951 -0.77937 -1.5 -0.397805 -1.5 0 
C -1.5 0.397805 -1.341951 0.77937 -1.06066 1.06066 
C -0.77937 1.341951 -0.397805 1.5 0 1.5 
z
" style="stroke: #ffff00"/>
    </defs>
    <g clip-path="url(#p3d17aa596b)">
     <use xlink:href="#m6a37ce2c2c" x="213.095791" y="229.433968" style="fill: #ffff00; stroke: #ffff00"/>
     <use xlink:href="#m6a37ce2c2c" x="215.902607" y="209.88723" style="fill: #ffff00; stroke: #ffff00"/>
     <use xlink:href="#m6a37ce2c2c" x="186.404034" y="226.905718" style="fill: #ffff00; stroke: #ffff00"/>
     <use xlink:href="#m6a37ce2c2c" x="169.833809" y="204.3696" style="fill: #ffff00; stroke: #ffff00"/>
     <use xlink:href="#m6a37ce2c2c" x="215.850961" y="199.253984" style="fill: #ffff00; stroke: #ffff00"/>
     <use xlink:href="#m6a37ce2c2c" x="190.747139" y="226.495246" style="fill: #ffff00; stroke: #ffff00"/>
     <use xlink:href="#m6a37ce2c2c" x="189.779914" y="214.49452" style="fill: #ffff00; stroke: #ffff00"/>
     <use xlink:href="#m6a37ce2c2c" x="174.248956" y="191.125055" style="fill: #ffff00; stroke: #ffff00"/>
     <use xlink:href="#m6a37ce2c2c" x="205.677445" y="205.878379" style="fill: #ffff00; stroke: #ffff00"/>
     <use xlink:href="#m6a37ce2c2c" x="186.586434" y="218.59479" style="fill: #ffff00; stroke: #ffff00"/>
     <use xlink:href="#m6a37ce2c2c" x="161.948879" y="197.965641" style="fill: #ffff00; stroke: #ffff00"/>
     <use xlink:href="#m6a37ce2c2c" x="170.413604" y="168.353361" style="fill: #ffff00; stroke: #ffff00"/>
     <use xlink:href="#m6a37ce2c2c" x="168.32569" y="186.543947" style="fill: #ffff00; stroke: #ffff00"/>
    </g>
   </g>
   <g id="PathCollection_6">
    <defs>
     <path id="m4d6ac76041" d="M 0 1.5 
C 0.397805 1.5 0.77937 1.341951 1.06066 1.06066 
C 1.341951 0.77937 1.5 0.397805 1.5 0 
C 1.5 -0.397805 1.341951 -0.77937 1.06066 -1.06066 
C 0.77937 -1.341951 0.397805 -1.5 0 -1.5 
C -0.397805 -1.5 -0.77937 -1.341951 -1.06066 -1.06066 
C -1.341951 -0.77937 -1.5 -0.397805 -1.5 0 
C -1.5 0.397805 -1.341951 0.77937 -1.06066 1.06066 
C -0.77937 1.341951 -0.397805 1.5 0 1.5 
z
" style="stroke: #00ffff"/>
    </defs>
    <g clip-path="url(#p3d17aa596b)">
     <use xlink:href="#m4d6ac76041" x="228.546463" y="187.493418" style="fill: #00ffff; stroke: #00ffff"/>
     <use xlink:href="#m4d6ac76041" x="190.811128" y="185.321101" style="fill: #00ffff; stroke: #00ffff"/>
     <use xlink:href="#m4d6ac76041" x="237.097349" y="205.157365" style="fill: #00ffff; stroke: #00ffff"/>
     <use xlink:href="#m4d6ac76041" x="219.759858" y="227.267977" style="fill: #00ffff; stroke: #00ffff"/>
     <use xlink:href="#m4d6ac76041" x="194.717118" y="210.555952" style="fill: #00ffff; stroke: #00ffff"/>
     <use xlink:href="#m4d6ac76041" x="217.759992" y="155.037463" style="fill: #00ffff; stroke: #00ffff"/>
     <use xlink:href="#m4d6ac76041" x="181.148036" y="158.774217" style="fill: #00ffff; stroke: #00ffff"/>
     <use xlink:href="#m4d6ac76041" x="217.772883" y="189.177104" style="fill: #00ffff; stroke: #00ffff"/>
     <use xlink:href="#m4d6ac76041" x="201.746352" y="157.055363" style="fill: #00ffff; stroke: #00ffff"/>
     <use xlink:href="#m4d6ac76041" x="192.954595" y="213.032709" style="fill: #00ffff; stroke: #00ffff"/>
     <use xlink:href="#m4d6ac76041" x="208.090488" y="204.944737" style="fill: #00ffff; stroke: #00ffff"/>
     <use xlink:href="#m4d6ac76041" x="184.330247" y="203.399865" style="fill: #00ffff; stroke: #00ffff"/>
     <use xlink:href="#m4d6ac76041" x="206.462198" y="238.254121" style="fill: #00ffff; stroke: #00ffff"/>
     <use xlink:href="#m4d6ac76041" x="241.316034" y="226.088674" style="fill: #00ffff; stroke: #00ffff"/>
     <use xlink:href="#m4d6ac76041" x="194.185513" y="212.357649" style="fill: #00ffff; stroke: #00ffff"/>
     <use xlink:href="#m4d6ac76041" x="213.494867" y="232.637679" style="fill: #00ffff; stroke: #00ffff"/>
     <use xlink:href="#m4d6ac76041" x="208.430575" y="201.200471" style="fill: #00ffff; stroke: #00ffff"/>
    </g>
   </g>
   <g id="PathCollection_7">
    <defs>
     <path id="mb2b969c265" d="M 0 1.5 
C 0.397805 1.5 0.77937 1.341951 1.06066 1.06066 
C 1.341951 0.77937 1.5 0.397805 1.5 0 
C 1.5 -0.397805 1.341951 -0.77937 1.06066 -1.06066 
C 0.77937 -1.341951 0.397805 -1.5 0 -1.5 
C -0.397805 -1.5 -0.77937 -1.341951 -1.06066 -1.06066 
C -1.341951 -0.77937 -1.5 -0.397805 -1.5 0 
C -1.5 0.397805 -1.341951 0.77937 -1.06066 1.06066 
C -0.77937 1.341951 -0.397805 1.5 0 1.5 
z
" style="stroke: #0000ff"/>
    </defs>
    <g clip-path="url(#p3d17aa596b)">
     <use xlink:href="#mb2b969c265" x="191.912687" y="204.885856" style="fill: #0000ff; stroke: #0000ff"/>
     <use xlink:href="#mb2b969c265" x="166.282628" y="193.539089" style="fill: #0000ff; stroke: #0000ff"/>
     <use xlink:href="#mb2b969c265" x="148.782419" y="175.555161" style="fill: #0000ff; stroke: #0000ff"/>
     <use xlink:href="#mb2b969c265" x="188.691575" y="194.628531" style="fill: #0000ff; stroke: #0000ff"/>
     <use xlink:href="#mb2b969c265" x="155.693446" y="191.092469" style="fill: #0000ff; stroke: #0000ff"/>
     <use xlink:href="#mb2b969c265" x="161.481614" y="189.953924" style="fill: #0000ff; stroke: #0000ff"/>
     <use xlink:href="#mb2b969c265" x="176.884876" y="208.891651" style="fill: #0000ff; stroke: #0000ff"/>
     <use xlink:href="#mb2b969c265" x="158.390501" y="211.973502" style="fill: #0000ff; stroke: #0000ff"/>
     <use xlink:href="#mb2b969c265" x="200.769082" y="149.162116" style="fill: #0000ff; stroke: #0000ff"/>
     <use xlink:href="#mb2b969c265" x="146.389174" y="168.376967" style="fill: #0000ff; stroke: #0000ff"/>
     <use xlink:href="#mb2b969c265" x="170.537084" y="208.373792" style="fill: #0000ff; stroke: #0000ff"/>
     <use xlink:href="#mb2b969c265" x="144.465407" y="189.405084" style="fill: #0000ff; stroke: #0000ff"/>
     <use xlink:href="#mb2b969c265" x="202.263292" y="187.564398" style="fill: #0000ff; stroke: #0000ff"/>
     <use xlink:href="#mb2b969c265" x="168.021795" y="161.831955" style="fill: #0000ff; stroke: #0000ff"/>
    </g>
   </g>
   <g id="PathCollection_8">
    <defs>
     <path id="m5707c0b3f9" d="M 0 1.5 
C 0.397805 1.5 0.77937 1.341951 1.06066 1.06066 
C 1.341951 0.77937 1.5 0.397805 1.5 0 
C 1.5 -0.397805 1.341951 -0.77937 1.06066 -1.06066 
C 0.77937 -1.341951 0.397805 -1.5 0 -1.5 
C -0.397805 -1.5 -0.77937 -1.341951 -1.06066 -1.06066 
C -1.341951 -0.77937 -1.5 -0.397805 -1.5 0 
C -1.5 0.397805 -1.341951 0.77937 -1.06066 1.06066 
C -0.77937 1.341951 -0.397805 1.5 0 1.5 
z
" style="stroke: #dc143c"/>
    </defs>
    <g clip-path="url(#p3d17aa596b)">
     <use xlink:href="#m5707c0b3f9" x="253.42378" y="198.992938" style="fill: #dc143c; stroke: #dc143c"/>
     <use xlink:href="#m5707c0b3f9" x="242.69225" y="178.121696" style="fill: #dc143c; stroke: #dc143c"/>
     <use xlink:href="#m5707c0b3f9" x="288.131593" y="224.085741" style="fill: #dc143c; stroke: #dc143c"/>
     <use xlink:href="#m5707c0b3f9" x="297.73164" y="196.597194" style="fill: #dc143c; stroke: #dc143c"/>
     <use xlink:href="#m5707c0b3f9" x="268.216202" y="220.889143" style="fill: #dc143c; stroke: #dc143c"/>
     <use xlink:href="#m5707c0b3f9" x="230.397776" y="222.310196" style="fill: #dc143c; stroke: #dc143c"/>
     <use xlink:href="#m5707c0b3f9" x="182.815629" y="210.144484" style="fill: #dc143c; stroke: #dc143c"/>
     <use xlink:href="#m5707c0b3f9" x="250.3515" y="230.229333" style="fill: #dc143c; stroke: #dc143c"/>
     <use xlink:href="#m5707c0b3f9" x="253.163642" y="196.064043" style="fill: #dc143c; stroke: #dc143c"/>
     <use xlink:href="#m5707c0b3f9" x="240.613067" y="250.445128" style="fill: #dc143c; stroke: #dc143c"/>
     <use xlink:href="#m5707c0b3f9" x="257.478289" y="226.597594" style="fill: #dc143c; stroke: #dc143c"/>
     <use xlink:href="#m5707c0b3f9" x="229.25323" y="174.165004" style="fill: #dc143c; stroke: #dc143c"/>
     <use xlink:href="#m5707c0b3f9" x="283.760294" y="181.79308" style="fill: #dc143c; stroke: #dc143c"/>
     <use xlink:href="#m5707c0b3f9" x="213.362202" y="179.7107" style="fill: #dc143c; stroke: #dc143c"/>
     <use xlink:href="#m5707c0b3f9" x="258.123303" y="228.931292" style="fill: #dc143c; stroke: #dc143c"/>
     <use xlink:href="#m5707c0b3f9" x="231.324589" y="220.640006" style="fill: #dc143c; stroke: #dc143c"/>
     <use xlink:href="#m5707c0b3f9" x="282.629379" y="225.291551" style="fill: #dc143c; stroke: #dc143c"/>
     <use xlink:href="#m5707c0b3f9" x="313.734788" y="160.12378" style="fill: #dc143c; stroke: #dc143c"/>
     <use xlink:href="#m5707c0b3f9" x="240.64246" y="234.489412" style="fill: #dc143c; stroke: #dc143c"/>
     <use xlink:href="#m5707c0b3f9" x="242.311421" y="186.204604" style="fill: #dc143c; stroke: #dc143c"/>
     <use xlink:href="#m5707c0b3f9" x="254.313064" y="250.184935" style="fill: #dc143c; stroke: #dc143c"/>
    </g>
   </g>
   <g id="PathCollection_9">
    <defs>
     <path id="m4136fefa3d" d="M 0 1.5 
C 0.397805 1.5 0.77937 1.341951 1.06066 1.06066 
C 1.341951 0.77937 1.5 0.397805 1.5 0 
C 1.5 -0.397805 1.341951 -0.77937 1.06066 -1.06066 
C 0.77937 -1.341951 0.397805 -1.5 0 -1.5 
C -0.397805 -1.5 -0.77937 -1.341951 -1.06066 -1.06066 
C -1.341951 -0.77937 -1.5 -0.397805 -1.5 0 
C -1.5 0.397805 -1.341951 0.77937 -1.06066 1.06066 
C -0.77937 1.341951 -0.397805 1.5 0 1.5 
z
" style="stroke: #ffe4c4"/>
    </defs>
    <g clip-path="url(#p3d17aa596b)">
     <use xlink:href="#m4136fefa3d" x="249.686039" y="150.651826" style="fill: #ffe4c4; stroke: #ffe4c4"/>
     <use xlink:href="#m4136fefa3d" x="219.706708" y="149.422425" style="fill: #ffe4c4; stroke: #ffe4c4"/>
     <use xlink:href="#m4136fefa3d" x="226.352498" y="159.79661" style="fill: #ffe4c4; stroke: #ffe4c4"/>
     <use xlink:href="#m4136fefa3d" x="257.739981" y="197.392495" style="fill: #ffe4c4; stroke: #ffe4c4"/>
     <use xlink:href="#m4136fefa3d" x="334.185271" y="136.570156" style="fill: #ffe4c4; stroke: #ffe4c4"/>
     <use xlink:href="#m4136fefa3d" x="299.820533" y="187.476324" style="fill: #ffe4c4; stroke: #ffe4c4"/>
     <use xlink:href="#m4136fefa3d" x="249.386976" y="130.174176" style="fill: #ffe4c4; stroke: #ffe4c4"/>
    </g>
   </g>
   <g id="PathCollection_10">
    <defs>
     <path id="m6965769e52" d="M -2.99994 2.99994 
L 3.00006 2.99994 
L 3.00006 -3.00006 
L -2.99994 -3.00006 
z
" style="stroke: #000000"/>
    </defs>
    <g clip-path="url(#p3d17aa596b)">
     <use xlink:href="#m6965769e52" x="148.407193" y="196.252224" style="stroke: #000000"/>
     <use xlink:href="#m6965769e52" x="163.291562" y="147.86035" style="stroke: #000000"/>
     <use xlink:href="#m6965769e52" x="159.4888" y="214.349567" style="stroke: #000000"/>
     <use xlink:href="#m6965769e52" x="158.297788" y="167.347219" style="stroke: #000000"/>
     <use xlink:href="#m6965769e52" x="168.820853" y="175.254659" style="stroke: #000000"/>
     <use xlink:href="#m6965769e52" x="132.254672" y="154.512095" style="stroke: #000000"/>
     <use xlink:href="#m6965769e52" x="198.503497" y="146.535308" style="stroke: #000000"/>
     <use xlink:href="#m6965769e52" x="193.689601" y="208.436502" style="stroke: #000000"/>
     <use xlink:href="#m6965769e52" x="190.655777" y="219.136561" style="stroke: #000000"/>
     <use xlink:href="#m6965769e52" x="167.215432" y="153.890027" style="stroke: #000000"/>
     <use xlink:href="#m6965769e52" x="114.494922" y="177.75737" style="stroke: #000000"/>
     <use xlink:href="#m6965769e52" x="151.258792" y="173.232357" style="stroke: #000000"/>
     <use xlink:href="#m6965769e52" x="134.160026" y="174.936004" style="stroke: #000000"/>
     <use xlink:href="#m6965769e52" x="125.75623" y="123.304725" style="stroke: #000000"/>
     <use xlink:href="#m6965769e52" x="206.284409" y="192.680508" style="stroke: #000000"/>
     <use xlink:href="#m6965769e52" x="170.835391" y="170.851292" style="stroke: #000000"/>
     <use xlink:href="#m6965769e52" x="195.689644" y="217.945732" style="stroke: #000000"/>
     <use xlink:href="#m6965769e52" x="142.810083" y="178.982309" style="stroke: #000000"/>
     <use xlink:href="#m6965769e52" x="187.043418" y="206.819962" style="stroke: #000000"/>
     <use xlink:href="#m6965769e52" x="107.500811" y="68.496" style="stroke: #000000"/>
     <use xlink:href="#m6965769e52" x="161.39385" y="201.497862" style="stroke: #000000"/>
     <use xlink:href="#m6965769e52" x="150.492862" y="146.346942" style="stroke: #000000"/>
     <use xlink:href="#m6965769e52" x="181.496018" y="221.591028" style="stroke: #000000"/>
     <use xlink:href="#m6965769e52" x="162.464509" y="198.343465" style="stroke: #000000"/>
     <use xlink:href="#m6965769e52" x="169.551738" y="163.780245" style="stroke: #000000"/>
     <use xlink:href="#m6965769e52" x="158.785262" y="159.844221" style="stroke: #000000"/>
     <use xlink:href="#m6965769e52" x="151.177674" y="104.478361" style="stroke: #000000"/>
     <use xlink:href="#m6965769e52" x="51.537415" y="60.589369" style="stroke: #000000"/>
     <use xlink:href="#m6965769e52" x="189.829416" y="185.432744" style="stroke: #000000"/>
     <use xlink:href="#m6965769e52" x="143.608069" y="238.812727" style="stroke: #000000"/>
     <use xlink:href="#m6965769e52" x="148.766421" y="190.397705" style="stroke: #000000"/>
     <use xlink:href="#m6965769e52" x="164.530512" y="173.039034" style="stroke: #000000"/>
     <use xlink:href="#m6965769e52" x="180.650041" y="210.356012" style="stroke: #000000"/>
     <use xlink:href="#m6965769e52" x="114.982212" y="70.148509" style="stroke: #000000"/>
     <use xlink:href="#m6965769e52" x="162.149711" y="106.813413" style="stroke: #000000"/>
     <use xlink:href="#m6965769e52" x="179.478509" y="143.517731" style="stroke: #000000"/>
     <use xlink:href="#m6965769e52" x="222.950936" y="211.934831" style="stroke: #000000"/>
     <use xlink:href="#m6965769e52" x="160.398009" y="176.975296" style="stroke: #000000"/>
     <use xlink:href="#m6965769e52" x="132.408142" y="117.319902" style="stroke: #000000"/>
     <use xlink:href="#m6965769e52" x="159.714396" y="132.354317" style="stroke: #000000"/>
     <use xlink:href="#m6965769e52" x="164.866404" y="233.857576" style="stroke: #000000"/>
     <use xlink:href="#m6965769e52" x="141.841323" y="142.9087" style="stroke: #000000"/>
     <use xlink:href="#m6965769e52" x="248.676842" y="149.694461" style="stroke: #000000"/>
     <use xlink:href="#m6965769e52" x="127.58574" y="175.941038" style="stroke: #000000"/>
     <use xlink:href="#m6965769e52" x="180.548016" y="156.911956" style="stroke: #000000"/>
     <use xlink:href="#m6965769e52" x="163.219035" y="187.026794" style="stroke: #000000"/>
     <use xlink:href="#m6965769e52" x="126.112847" y="183.654752" style="stroke: #000000"/>
     <use xlink:href="#m6965769e52" x="212.84011" y="186.771657" style="stroke: #000000"/>
     <use xlink:href="#m6965769e52" x="152.123521" y="177.655352" style="stroke: #000000"/>
     <use xlink:href="#m6965769e52" x="194.970557" y="189.621969" style="stroke: #000000"/>
     <use xlink:href="#m6965769e52" x="145.65935" y="223.049267" style="stroke: #000000"/>
     <use xlink:href="#m6965769e52" x="146.395463" y="127.781006" style="stroke: #000000"/>
     <use xlink:href="#m6965769e52" x="235.573302" y="150.815337" style="stroke: #000000"/>
     <use xlink:href="#m6965769e52" x="164.136573" y="151.638576" style="stroke: #000000"/>
     <use xlink:href="#m6965769e52" x="185.935387" y="168.245734" style="stroke: #000000"/>
     <use xlink:href="#m6965769e52" x="168.791801" y="163.366631" style="stroke: #000000"/>
     <use xlink:href="#m6965769e52" x="219.160742" y="182.441144" style="stroke: #000000"/>
     <use xlink:href="#m6965769e52" x="169.59863" y="216.58352" style="stroke: #000000"/>
     <use xlink:href="#m6965769e52" x="146.106134" y="145.191788" style="stroke: #000000"/>
     <use xlink:href="#m6965769e52" x="161.1461" y="130.728772" style="stroke: #000000"/>
     <use xlink:href="#m6965769e52" x="154.790456" y="108.764021" style="stroke: #000000"/>
     <use xlink:href="#m6965769e52" x="242.818627" y="197.794256" style="stroke: #000000"/>
     <use xlink:href="#m6965769e52" x="131.350533" y="152.242059" style="stroke: #000000"/>
     <use xlink:href="#m6965769e52" x="170.504697" y="189.227904" style="stroke: #000000"/>
    </g>
   </g>
   <g id="PathCollection_11">
    <defs>
     <path id="mf51f605339" d="M -3 -0 
L 3 3 
L 3 -3 
z
" style="stroke: #ff8c00"/>
    </defs>
    <g clip-path="url(#p3d17aa596b)">
     <use xlink:href="#mf51f605339" x="194.07642" y="238.683839" style="fill: #ff8c00; stroke: #ff8c00"/>
     <use xlink:href="#mf51f605339" x="197.174287" y="228.01838" style="fill: #ff8c00; stroke: #ff8c00"/>
     <use xlink:href="#mf51f605339" x="140.816244" y="158.189565" style="fill: #ff8c00; stroke: #ff8c00"/>
     <use xlink:href="#mf51f605339" x="179.209432" y="220.676881" style="fill: #ff8c00; stroke: #ff8c00"/>
     <use xlink:href="#mf51f605339" x="174.246808" y="191.312012" style="fill: #ff8c00; stroke: #ff8c00"/>
     <use xlink:href="#mf51f605339" x="169.223345" y="184.887513" style="fill: #ff8c00; stroke: #ff8c00"/>
     <use xlink:href="#mf51f605339" x="182.671374" y="234.711041" style="fill: #ff8c00; stroke: #ff8c00"/>
     <use xlink:href="#mf51f605339" x="176.409431" y="194.737632" style="fill: #ff8c00; stroke: #ff8c00"/>
     <use xlink:href="#mf51f605339" x="167.710795" y="184.962638" style="fill: #ff8c00; stroke: #ff8c00"/>
     <use xlink:href="#mf51f605339" x="182.497274" y="223.708431" style="fill: #ff8c00; stroke: #ff8c00"/>
     <use xlink:href="#mf51f605339" x="153.27282" y="186.636962" style="fill: #ff8c00; stroke: #ff8c00"/>
     <use xlink:href="#mf51f605339" x="181.137081" y="181.473451" style="fill: #ff8c00; stroke: #ff8c00"/>
     <use xlink:href="#mf51f605339" x="169.141834" y="194.001011" style="fill: #ff8c00; stroke: #ff8c00"/>
     <use xlink:href="#mf51f605339" x="182.399556" y="210.172229" style="fill: #ff8c00; stroke: #ff8c00"/>
     <use xlink:href="#mf51f605339" x="167.275442" y="173.726233" style="fill: #ff8c00; stroke: #ff8c00"/>
     <use xlink:href="#mf51f605339" x="169.323904" y="195.541407" style="fill: #ff8c00; stroke: #ff8c00"/>
     <use xlink:href="#mf51f605339" x="170.503445" y="204.275941" style="fill: #ff8c00; stroke: #ff8c00"/>
     <use xlink:href="#mf51f605339" x="177.462028" y="197.923483" style="fill: #ff8c00; stroke: #ff8c00"/>
     <use xlink:href="#mf51f605339" x="182.465388" y="193.766861" style="fill: #ff8c00; stroke: #ff8c00"/>
     <use xlink:href="#mf51f605339" x="173.86429" y="187.888563" style="fill: #ff8c00; stroke: #ff8c00"/>
     <use xlink:href="#mf51f605339" x="161.575815" y="171.067486" style="fill: #ff8c00; stroke: #ff8c00"/>
     <use xlink:href="#mf51f605339" x="165.591648" y="177.886969" style="fill: #ff8c00; stroke: #ff8c00"/>
     <use xlink:href="#mf51f605339" x="193.703435" y="212.88649" style="fill: #ff8c00; stroke: #ff8c00"/>
     <use xlink:href="#mf51f605339" x="162.883714" y="187.751066" style="fill: #ff8c00; stroke: #ff8c00"/>
     <use xlink:href="#mf51f605339" x="157.99697" y="163.727898" style="fill: #ff8c00; stroke: #ff8c00"/>
     <use xlink:href="#mf51f605339" x="119.849632" y="169.302865" style="fill: #ff8c00; stroke: #ff8c00"/>
     <use xlink:href="#mf51f605339" x="171.592646" y="201.443622" style="fill: #ff8c00; stroke: #ff8c00"/>
     <use xlink:href="#mf51f605339" x="165.937183" y="156.458348" style="fill: #ff8c00; stroke: #ff8c00"/>
     <use xlink:href="#mf51f605339" x="155.585462" y="169.955318" style="fill: #ff8c00; stroke: #ff8c00"/>
     <use xlink:href="#mf51f605339" x="181.4533" y="189.625168" style="fill: #ff8c00; stroke: #ff8c00"/>
     <use xlink:href="#mf51f605339" x="171.407939" y="190.052084" style="fill: #ff8c00; stroke: #ff8c00"/>
     <use xlink:href="#mf51f605339" x="159.757733" y="185.692784" style="fill: #ff8c00; stroke: #ff8c00"/>
     <use xlink:href="#mf51f605339" x="192.777882" y="241.50291" style="fill: #ff8c00; stroke: #ff8c00"/>
     <use xlink:href="#mf51f605339" x="186.756693" y="194.94332" style="fill: #ff8c00; stroke: #ff8c00"/>
     <use xlink:href="#mf51f605339" x="168.757436" y="202.718523" style="fill: #ff8c00; stroke: #ff8c00"/>
     <use xlink:href="#mf51f605339" x="154.280583" y="201.356249" style="fill: #ff8c00; stroke: #ff8c00"/>
     <use xlink:href="#mf51f605339" x="160.467067" y="180.711916" style="fill: #ff8c00; stroke: #ff8c00"/>
     <use xlink:href="#mf51f605339" x="190.660974" y="191.726766" style="fill: #ff8c00; stroke: #ff8c00"/>
     <use xlink:href="#mf51f605339" x="147.754358" y="176.806282" style="fill: #ff8c00; stroke: #ff8c00"/>
     <use xlink:href="#mf51f605339" x="171.823427" y="164.148564" style="fill: #ff8c00; stroke: #ff8c00"/>
     <use xlink:href="#mf51f605339" x="192.053967" y="243.123893" style="fill: #ff8c00; stroke: #ff8c00"/>
     <use xlink:href="#mf51f605339" x="168.608529" y="164.264969" style="fill: #ff8c00; stroke: #ff8c00"/>
     <use xlink:href="#mf51f605339" x="173.809845" y="194.438409" style="fill: #ff8c00; stroke: #ff8c00"/>
     <use xlink:href="#mf51f605339" x="187.439719" y="187.086576" style="fill: #ff8c00; stroke: #ff8c00"/>
     <use xlink:href="#mf51f605339" x="181.263361" y="220.647357" style="fill: #ff8c00; stroke: #ff8c00"/>
     <use xlink:href="#mf51f605339" x="163.995226" y="189.936093" style="fill: #ff8c00; stroke: #ff8c00"/>
     <use xlink:href="#mf51f605339" x="159.595886" y="198.096873" style="fill: #ff8c00; stroke: #ff8c00"/>
     <use xlink:href="#mf51f605339" x="168.354529" y="193.779107" style="fill: #ff8c00; stroke: #ff8c00"/>
     <use xlink:href="#mf51f605339" x="181.344353" y="189.537211" style="fill: #ff8c00; stroke: #ff8c00"/>
     <use xlink:href="#mf51f605339" x="166.728011" y="193.989131" style="fill: #ff8c00; stroke: #ff8c00"/>
     <use xlink:href="#mf51f605339" x="169.068079" y="180.673791" style="fill: #ff8c00; stroke: #ff8c00"/>
     <use xlink:href="#mf51f605339" x="165.622456" y="201.972848" style="fill: #ff8c00; stroke: #ff8c00"/>
     <use xlink:href="#mf51f605339" x="149.146939" y="195.020508" style="fill: #ff8c00; stroke: #ff8c00"/>
     <use xlink:href="#mf51f605339" x="191.832774" y="222.878675" style="fill: #ff8c00; stroke: #ff8c00"/>
     <use xlink:href="#mf51f605339" x="168.446902" y="190.396387" style="fill: #ff8c00; stroke: #ff8c00"/>
     <use xlink:href="#mf51f605339" x="150.842582" y="159.71149" style="fill: #ff8c00; stroke: #ff8c00"/>
     <use xlink:href="#mf51f605339" x="178.628803" y="202.923141" style="fill: #ff8c00; stroke: #ff8c00"/>
     <use xlink:href="#mf51f605339" x="183.132974" y="205.43481" style="fill: #ff8c00; stroke: #ff8c00"/>
     <use xlink:href="#mf51f605339" x="182.357548" y="224.262987" style="fill: #ff8c00; stroke: #ff8c00"/>
     <use xlink:href="#mf51f605339" x="164.559113" y="174.360643" style="fill: #ff8c00; stroke: #ff8c00"/>
     <use xlink:href="#mf51f605339" x="153.111468" y="182.316556" style="fill: #ff8c00; stroke: #ff8c00"/>
     <use xlink:href="#mf51f605339" x="153.755037" y="208.055859" style="fill: #ff8c00; stroke: #ff8c00"/>
     <use xlink:href="#mf51f605339" x="174.252269" y="178.852375" style="fill: #ff8c00; stroke: #ff8c00"/>
     <use xlink:href="#mf51f605339" x="165.323496" y="194.244697" style="fill: #ff8c00; stroke: #ff8c00"/>
    </g>
   </g>
   <g id="matplotlib.axis_1">
    <g id="xtick_1">
     <g id="line2d_1">
      <defs>
       <path id="m2e47784c8f" d="M 0 0 
L 0 3.5 
" style="stroke: #000000; stroke-width: 0.8"/>
      </defs>
      <g>
       <use xlink:href="#m2e47784c8f" x="73.153993" y="273.312" style="stroke: #000000; stroke-width: 0.8"/>
      </g>
     </g>
     <g id="text_1">
      <!-- −20 -->
      <g transform="translate(62.601649 287.910437) scale(0.1 -0.1)">
       <defs>
        <path id="DejaVuSans-2212" d="M 678 2272 
L 4684 2272 
L 4684 1741 
L 678 1741 
L 678 2272 
z
" transform="scale(0.015625)"/>
        <path id="DejaVuSans-32" d="M 1228 531 
L 3431 531 
L 3431 0 
L 469 0 
L 469 531 
Q 828 903 1448 1529 
Q 2069 2156 2228 2338 
Q 2531 2678 2651 2914 
Q 2772 3150 2772 3378 
Q 2772 3750 2511 3984 
Q 2250 4219 1831 4219 
Q 1534 4219 1204 4116 
Q 875 4013 500 3803 
L 500 4441 
Q 881 4594 1212 4672 
Q 1544 4750 1819 4750 
Q 2544 4750 2975 4387 
Q 3406 4025 3406 3419 
Q 3406 3131 3298 2873 
Q 3191 2616 2906 2266 
Q 2828 2175 2409 1742 
Q 1991 1309 1228 531 
z
" transform="scale(0.015625)"/>
        <path id="DejaVuSans-30" d="M 2034 4250 
Q 1547 4250 1301 3770 
Q 1056 3291 1056 2328 
Q 1056 1369 1301 889 
Q 1547 409 2034 409 
Q 2525 409 2770 889 
Q 3016 1369 3016 2328 
Q 3016 3291 2770 3770 
Q 2525 4250 2034 4250 
z
M 2034 4750 
Q 2819 4750 3233 4129 
Q 3647 3509 3647 2328 
Q 3647 1150 3233 529 
Q 2819 -91 2034 -91 
Q 1250 -91 836 529 
Q 422 1150 422 2328 
Q 422 3509 836 4129 
Q 1250 4750 2034 4750 
z
" transform="scale(0.015625)"/>
       </defs>
       <use xlink:href="#DejaVuSans-2212"/>
       <use xlink:href="#DejaVuSans-32" x="83.789062"/>
       <use xlink:href="#DejaVuSans-30" x="147.412109"/>
      </g>
     </g>
    </g>
    <g id="xtick_2">
     <g id="line2d_2">
      <g>
       <use xlink:href="#m2e47784c8f" x="134.603709" y="273.312" style="stroke: #000000; stroke-width: 0.8"/>
      </g>
     </g>
     <g id="text_2">
      <!-- −10 -->
      <g transform="translate(124.051366 287.910437) scale(0.1 -0.1)">
       <defs>
        <path id="DejaVuSans-31" d="M 794 531 
L 1825 531 
L 1825 4091 
L 703 3866 
L 703 4441 
L 1819 4666 
L 2450 4666 
L 2450 531 
L 3481 531 
L 3481 0 
L 794 0 
L 794 531 
z
" transform="scale(0.015625)"/>
       </defs>
       <use xlink:href="#DejaVuSans-2212"/>
       <use xlink:href="#DejaVuSans-31" x="83.789062"/>
       <use xlink:href="#DejaVuSans-30" x="147.412109"/>
      </g>
     </g>
    </g>
    <g id="xtick_3">
     <g id="line2d_3">
      <g>
       <use xlink:href="#m2e47784c8f" x="196.053426" y="273.312" style="stroke: #000000; stroke-width: 0.8"/>
      </g>
     </g>
     <g id="text_3">
      <!-- 0 -->
      <g transform="translate(192.872176 287.910437) scale(0.1 -0.1)">
       <use xlink:href="#DejaVuSans-30"/>
      </g>
     </g>
    </g>
    <g id="xtick_4">
     <g id="line2d_4">
      <g>
       <use xlink:href="#m2e47784c8f" x="257.503142" y="273.312" style="stroke: #000000; stroke-width: 0.8"/>
      </g>
     </g>
     <g id="text_4">
      <!-- 10 -->
      <g transform="translate(251.140642 287.910437) scale(0.1 -0.1)">
       <use xlink:href="#DejaVuSans-31"/>
       <use xlink:href="#DejaVuSans-30" x="63.623047"/>
      </g>
     </g>
    </g>
    <g id="xtick_5">
     <g id="line2d_5">
      <g>
       <use xlink:href="#m2e47784c8f" x="318.952859" y="273.312" style="stroke: #000000; stroke-width: 0.8"/>
      </g>
     </g>
     <g id="text_5">
      <!-- 20 -->
      <g transform="translate(312.590359 287.910437) scale(0.1 -0.1)">
       <use xlink:href="#DejaVuSans-32"/>
       <use xlink:href="#DejaVuSans-30" x="63.623047"/>
      </g>
     </g>
    </g>
    <g id="xtick_6">
     <g id="line2d_6">
      <g>
       <use xlink:href="#m2e47784c8f" x="380.402575" y="273.312" style="stroke: #000000; stroke-width: 0.8"/>
      </g>
     </g>
     <g id="text_6">
      <!-- 30 -->
      <g transform="translate(374.040075 287.910437) scale(0.1 -0.1)">
       <defs>
        <path id="DejaVuSans-33" d="M 2597 2516 
Q 3050 2419 3304 2112 
Q 3559 1806 3559 1356 
Q 3559 666 3084 287 
Q 2609 -91 1734 -91 
Q 1441 -91 1130 -33 
Q 819 25 488 141 
L 488 750 
Q 750 597 1062 519 
Q 1375 441 1716 441 
Q 2309 441 2620 675 
Q 2931 909 2931 1356 
Q 2931 1769 2642 2001 
Q 2353 2234 1838 2234 
L 1294 2234 
L 1294 2753 
L 1863 2753 
Q 2328 2753 2575 2939 
Q 2822 3125 2822 3475 
Q 2822 3834 2567 4026 
Q 2313 4219 1838 4219 
Q 1578 4219 1281 4162 
Q 984 4106 628 3988 
L 628 4550 
Q 988 4650 1302 4700 
Q 1616 4750 1894 4750 
Q 2613 4750 3031 4423 
Q 3450 4097 3450 3541 
Q 3450 3153 3228 2886 
Q 3006 2619 2597 2516 
z
" transform="scale(0.015625)"/>
       </defs>
       <use xlink:href="#DejaVuSans-33"/>
       <use xlink:href="#DejaVuSans-30" x="63.623047"/>
      </g>
     </g>
    </g>
   </g>
   <g id="matplotlib.axis_2">
    <g id="ytick_1">
     <g id="line2d_7">
      <defs>
       <path id="m3b07738a1f" d="M 0 0 
L -3.5 0 
" style="stroke: #000000; stroke-width: 0.8"/>
      </defs>
      <g>
       <use xlink:href="#m3b07738a1f" x="35.304688" y="247.386727" style="stroke: #000000; stroke-width: 0.8"/>
      </g>
     </g>
     <g id="text_7">
      <!-- −10 -->
      <g transform="translate(7.2 251.185946) scale(0.1 -0.1)">
       <use xlink:href="#DejaVuSans-2212"/>
       <use xlink:href="#DejaVuSans-31" x="83.789062"/>
       <use xlink:href="#DejaVuSans-30" x="147.412109"/>
      </g>
     </g>
    </g>
    <g id="ytick_2">
     <g id="line2d_8">
      <g>
       <use xlink:href="#m3b07738a1f" x="35.304688" y="216.919059" style="stroke: #000000; stroke-width: 0.8"/>
      </g>
     </g>
     <g id="text_8">
      <!-- −5 -->
      <g transform="translate(13.5625 220.718278) scale(0.1 -0.1)">
       <defs>
        <path id="DejaVuSans-35" d="M 691 4666 
L 3169 4666 
L 3169 4134 
L 1269 4134 
L 1269 2991 
Q 1406 3038 1543 3061 
Q 1681 3084 1819 3084 
Q 2600 3084 3056 2656 
Q 3513 2228 3513 1497 
Q 3513 744 3044 326 
Q 2575 -91 1722 -91 
Q 1428 -91 1123 -41 
Q 819 9 494 109 
L 494 744 
Q 775 591 1075 516 
Q 1375 441 1709 441 
Q 2250 441 2565 725 
Q 2881 1009 2881 1497 
Q 2881 1984 2565 2268 
Q 2250 2553 1709 2553 
Q 1456 2553 1204 2497 
Q 953 2441 691 2322 
L 691 4666 
z
" transform="scale(0.015625)"/>
       </defs>
       <use xlink:href="#DejaVuSans-2212"/>
       <use xlink:href="#DejaVuSans-35" x="83.789062"/>
      </g>
     </g>
    </g>
    <g id="ytick_3">
     <g id="line2d_9">
      <g>
       <use xlink:href="#m3b07738a1f" x="35.304688" y="186.451391" style="stroke: #000000; stroke-width: 0.8"/>
      </g>
     </g>
     <g id="text_9">
      <!-- 0 -->
      <g transform="translate(21.942187 190.25061) scale(0.1 -0.1)">
       <use xlink:href="#DejaVuSans-30"/>
      </g>
     </g>
    </g>
    <g id="ytick_4">
     <g id="line2d_10">
      <g>
       <use xlink:href="#m3b07738a1f" x="35.304688" y="155.983723" style="stroke: #000000; stroke-width: 0.8"/>
      </g>
     </g>
     <g id="text_10">
      <!-- 5 -->
      <g transform="translate(21.942187 159.782942) scale(0.1 -0.1)">
       <use xlink:href="#DejaVuSans-35"/>
      </g>
     </g>
    </g>
    <g id="ytick_5">
     <g id="line2d_11">
      <g>
       <use xlink:href="#m3b07738a1f" x="35.304688" y="125.516055" style="stroke: #000000; stroke-width: 0.8"/>
      </g>
     </g>
     <g id="text_11">
      <!-- 10 -->
      <g transform="translate(15.579687 129.315274) scale(0.1 -0.1)">
       <use xlink:href="#DejaVuSans-31"/>
       <use xlink:href="#DejaVuSans-30" x="63.623047"/>
      </g>
     </g>
    </g>
    <g id="ytick_6">
     <g id="line2d_12">
      <g>
       <use xlink:href="#m3b07738a1f" x="35.304688" y="95.048387" style="stroke: #000000; stroke-width: 0.8"/>
      </g>
     </g>
     <g id="text_12">
      <!-- 15 -->
      <g transform="translate(15.579687 98.847606) scale(0.1 -0.1)">
       <use xlink:href="#DejaVuSans-31"/>
       <use xlink:href="#DejaVuSans-35" x="63.623047"/>
      </g>
     </g>
    </g>
    <g id="ytick_7">
     <g id="line2d_13">
      <g>
       <use xlink:href="#m3b07738a1f" x="35.304688" y="64.580719" style="stroke: #000000; stroke-width: 0.8"/>
      </g>
     </g>
     <g id="text_13">
      <!-- 20 -->
      <g transform="translate(15.579687 68.379938) scale(0.1 -0.1)">
       <use xlink:href="#DejaVuSans-32"/>
       <use xlink:href="#DejaVuSans-30" x="63.623047"/>
      </g>
     </g>
    </g>
    <g id="ytick_8">
     <g id="line2d_14">
      <g>
       <use xlink:href="#m3b07738a1f" x="35.304688" y="34.113051" style="stroke: #000000; stroke-width: 0.8"/>
      </g>
     </g>
     <g id="text_14">
      <!-- 25 -->
      <g transform="translate(15.579687 37.91227) scale(0.1 -0.1)">
       <use xlink:href="#DejaVuSans-32"/>
       <use xlink:href="#DejaVuSans-35" x="63.623047"/>
      </g>
     </g>
    </g>
   </g>
   <g id="patch_3">
    <path d="M 35.304688 273.312 
L 35.304688 7.2 
" style="fill: none; stroke: #000000; stroke-width: 0.8; stroke-linejoin: miter; stroke-linecap: square"/>
   </g>
   <g id="patch_4">
    <path d="M 392.424688 273.312 
L 392.424688 7.2 
" style="fill: none; stroke: #000000; stroke-width: 0.8; stroke-linejoin: miter; stroke-linecap: square"/>
   </g>
   <g id="patch_5">
    <path d="M 35.304688 273.312 
L 392.424688 273.312 
" style="fill: none; stroke: #000000; stroke-width: 0.8; stroke-linejoin: miter; stroke-linecap: square"/>
   </g>
   <g id="patch_6">
    <path d="M 35.304688 7.2 
L 392.424688 7.2 
" style="fill: none; stroke: #000000; stroke-width: 0.8; stroke-linejoin: miter; stroke-linecap: square"/>
   </g>
  </g>
 </g>
 <defs>
  <clipPath id="p3d17aa596b">
   <rect x="35.304688" y="7.2" width="357.12" height="266.112"/>
  </clipPath>
 </defs>
</svg>
