<?xml version="1.0" encoding="utf-8" standalone="no"?>
<!DOCTYPE svg PUBLIC "-//W3C//DTD SVG 1.1//EN"
  "http://www.w3.org/Graphics/SVG/1.1/DTD/svg11.dtd">
<svg xmlns:xlink="http://www.w3.org/1999/xlink" width="399.624687pt" height="297.190125pt" viewBox="0 0 399.624687 297.190125" xmlns="http://www.w3.org/2000/svg" version="1.1">
 <metadata>
  <rdf:RDF xmlns:dc="http://purl.org/dc/elements/1.1/" xmlns:cc="http://creativecommons.org/ns#" xmlns:rdf="http://www.w3.org/1999/02/22-rdf-syntax-ns#">
   <cc:Work>
    <dc:type rdf:resource="http://purl.org/dc/dcmitype/StillImage"/>
    <dc:date>2023-11-11T17:00:30.205510</dc:date>
    <dc:format>image/svg+xml</dc:format>
    <dc:creator>
     <cc:Agent>
      <dc:title>Matplotlib v3.8.0, https://matplotlib.org/</dc:title>
     </cc:Agent>
    </dc:creator>
   </cc:Work>
  </rdf:RDF>
 </metadata>
 <defs>
  <style type="text/css">*{stroke-linejoin: round; stroke-linecap: butt}</style>
 </defs>
 <g id="figure_1">
  <g id="patch_1">
   <path d="M 0 297.190125 
L 399.624687 297.190125 
L 399.624687 0 
L 0 0 
z
" style="fill: #ffffff"/>
  </g>
  <g id="axes_1">
   <g id="patch_2">
    <path d="M 35.304688 273.312 
L 392.424688 273.312 
L 392.424688 7.2 
L 35.304688 7.2 
z
" style="fill: #ffffff"/>
   </g>
   <g id="PathCollection_1">
    <defs>
     <path id="mbed94aef84" d="M 0 1.5 
C 0.397805 1.5 0.77937 1.341951 1.06066 1.06066 
C 1.341951 0.77937 1.5 0.397805 1.5 0 
C 1.5 -0.397805 1.341951 -0.77937 1.06066 -1.06066 
C 0.77937 -1.341951 0.397805 -1.5 0 -1.5 
C -0.397805 -1.5 -0.77937 -1.341951 -1.06066 -1.06066 
C -1.341951 -0.77937 -1.5 -0.397805 -1.5 0 
C -1.5 0.397805 -1.341951 0.77937 -1.06066 1.06066 
C -0.77937 1.341951 -0.397805 1.5 0 1.5 
z
" style="stroke: #ff8c00"/>
    </defs>
    <g clip-path="url(#pbf272c0869)">
     <use xlink:href="#mbed94aef84" x="293.754657" y="194.014291" style="fill: #ff8c00; stroke: #ff8c00"/>
     <use xlink:href="#mbed94aef84" x="337.993304" y="227.887701" style="fill: #ff8c00; stroke: #ff8c00"/>
     <use xlink:href="#mbed94aef84" x="314.396536" y="170.712008" style="fill: #ff8c00; stroke: #ff8c00"/>
     <use xlink:href="#mbed94aef84" x="278.617427" y="111.676597" style="fill: #ff8c00; stroke: #ff8c00"/>
     <use xlink:href="#mbed94aef84" x="376.19196" y="202.31765" style="fill: #ff8c00; stroke: #ff8c00"/>
     <use xlink:href="#mbed94aef84" x="299.084577" y="162.126627" style="fill: #ff8c00; stroke: #ff8c00"/>
     <use xlink:href="#mbed94aef84" x="322.644628" y="186.015846" style="fill: #ff8c00; stroke: #ff8c00"/>
     <use xlink:href="#mbed94aef84" x="207.646421" y="179.743055" style="fill: #ff8c00; stroke: #ff8c00"/>
     <use xlink:href="#mbed94aef84" x="249.477941" y="226.563413" style="fill: #ff8c00; stroke: #ff8c00"/>
     <use xlink:href="#mbed94aef84" x="322.866647" y="194.759148" style="fill: #ff8c00; stroke: #ff8c00"/>
     <use xlink:href="#mbed94aef84" x="372.900365" y="201.298052" style="fill: #ff8c00; stroke: #ff8c00"/>
     <use xlink:href="#mbed94aef84" x="281.264836" y="135.772697" style="fill: #ff8c00; stroke: #ff8c00"/>
     <use xlink:href="#mbed94aef84" x="351.271215" y="224.075816" style="fill: #ff8c00; stroke: #ff8c00"/>
     <use xlink:href="#mbed94aef84" x="282.641565" y="120.384323" style="fill: #ff8c00; stroke: #ff8c00"/>
     <use xlink:href="#mbed94aef84" x="294.131952" y="225.857938" style="fill: #ff8c00; stroke: #ff8c00"/>
     <use xlink:href="#mbed94aef84" x="263.107549" y="137.79612" style="fill: #ff8c00; stroke: #ff8c00"/>
     <use xlink:href="#mbed94aef84" x="300.118354" y="194.695458" style="fill: #ff8c00; stroke: #ff8c00"/>
     <use xlink:href="#mbed94aef84" x="301.489925" y="139.590772" style="fill: #ff8c00; stroke: #ff8c00"/>
     <use xlink:href="#mbed94aef84" x="310.033324" y="125.10159" style="fill: #ff8c00; stroke: #ff8c00"/>
     <use xlink:href="#mbed94aef84" x="330.424761" y="208.462435" style="fill: #ff8c00; stroke: #ff8c00"/>
    </g>
   </g>
   <g id="PathCollection_2">
    <defs>
     <path id="m26d3c0f8f6" d="M 0 1.5 
C 0.397805 1.5 0.77937 1.341951 1.06066 1.06066 
C 1.341951 0.77937 1.5 0.397805 1.5 0 
C 1.5 -0.397805 1.341951 -0.77937 1.06066 -1.06066 
C 0.77937 -1.341951 0.397805 -1.5 0 -1.5 
C -0.397805 -1.5 -0.77937 -1.341951 -1.06066 -1.06066 
C -1.341951 -0.77937 -1.5 -0.397805 -1.5 0 
C -1.5 0.397805 -1.341951 0.77937 -1.06066 1.06066 
C -0.77937 1.341951 -0.397805 1.5 0 1.5 
z
" style="stroke: #006400"/>
    </defs>
    <g clip-path="url(#pbf272c0869)">
     <use xlink:href="#m26d3c0f8f6" x="193.400963" y="175.044819" style="fill: #006400; stroke: #006400"/>
     <use xlink:href="#m26d3c0f8f6" x="239.952582" y="148.424367" style="fill: #006400; stroke: #006400"/>
     <use xlink:href="#m26d3c0f8f6" x="196.749442" y="210.305896" style="fill: #006400; stroke: #006400"/>
     <use xlink:href="#m26d3c0f8f6" x="258.882029" y="198.97703" style="fill: #006400; stroke: #006400"/>
     <use xlink:href="#m26d3c0f8f6" x="112.133168" y="133.680562" style="fill: #006400; stroke: #006400"/>
     <use xlink:href="#m26d3c0f8f6" x="143.753933" y="125.651753" style="fill: #006400; stroke: #006400"/>
     <use xlink:href="#m26d3c0f8f6" x="73.184514" y="96.684896" style="fill: #006400; stroke: #006400"/>
     <use xlink:href="#m26d3c0f8f6" x="181.570634" y="178.571247" style="fill: #006400; stroke: #006400"/>
     <use xlink:href="#m26d3c0f8f6" x="118.611185" y="144.171256" style="fill: #006400; stroke: #006400"/>
     <use xlink:href="#m26d3c0f8f6" x="224.720854" y="134.597951" style="fill: #006400; stroke: #006400"/>
     <use xlink:href="#m26d3c0f8f6" x="118.971794" y="144.396957" style="fill: #006400; stroke: #006400"/>
     <use xlink:href="#m26d3c0f8f6" x="130.17586" y="142.753626" style="fill: #006400; stroke: #006400"/>
     <use xlink:href="#m26d3c0f8f6" x="171.699623" y="107.197743" style="fill: #006400; stroke: #006400"/>
     <use xlink:href="#m26d3c0f8f6" x="172.823568" y="148.25122" style="fill: #006400; stroke: #006400"/>
     <use xlink:href="#m26d3c0f8f6" x="72.276333" y="178.378556" style="fill: #006400; stroke: #006400"/>
     <use xlink:href="#m26d3c0f8f6" x="147.544529" y="164.952919" style="fill: #006400; stroke: #006400"/>
     <use xlink:href="#m26d3c0f8f6" x="308.503178" y="166.641341" style="fill: #006400; stroke: #006400"/>
     <use xlink:href="#m26d3c0f8f6" x="94.936387" y="162.37247" style="fill: #006400; stroke: #006400"/>
     <use xlink:href="#m26d3c0f8f6" x="230.957147" y="104.99727" style="fill: #006400; stroke: #006400"/>
     <use xlink:href="#m26d3c0f8f6" x="159.364275" y="161.578091" style="fill: #006400; stroke: #006400"/>
     <use xlink:href="#m26d3c0f8f6" x="158.590395" y="163.122908" style="fill: #006400; stroke: #006400"/>
    </g>
   </g>
   <g id="PathCollection_3">
    <defs>
     <path id="m809dcc75c0" d="M 0 1.5 
C 0.397805 1.5 0.77937 1.341951 1.06066 1.06066 
C 1.341951 0.77937 1.5 0.397805 1.5 0 
C 1.5 -0.397805 1.341951 -0.77937 1.06066 -1.06066 
C 0.77937 -1.341951 0.397805 -1.5 0 -1.5 
C -0.397805 -1.5 -0.77937 -1.341951 -1.06066 -1.06066 
C -1.341951 -0.77937 -1.5 -0.397805 -1.5 0 
C -1.5 0.397805 -1.341951 0.77937 -1.06066 1.06066 
C -0.77937 1.341951 -0.397805 1.5 0 1.5 
z
" style="stroke: #2f4f4f"/>
    </defs>
    <g clip-path="url(#pbf272c0869)">
     <use xlink:href="#m809dcc75c0" x="266.847027" y="121.049766" style="fill: #2f4f4f; stroke: #2f4f4f"/>
     <use xlink:href="#m809dcc75c0" x="187.803154" y="102.629413" style="fill: #2f4f4f; stroke: #2f4f4f"/>
     <use xlink:href="#m809dcc75c0" x="182.723776" y="138.452633" style="fill: #2f4f4f; stroke: #2f4f4f"/>
     <use xlink:href="#m809dcc75c0" x="186.635195" y="62.071463" style="fill: #2f4f4f; stroke: #2f4f4f"/>
     <use xlink:href="#m809dcc75c0" x="176.421615" y="114.58924" style="fill: #2f4f4f; stroke: #2f4f4f"/>
     <use xlink:href="#m809dcc75c0" x="304.836275" y="142.582259" style="fill: #2f4f4f; stroke: #2f4f4f"/>
     <use xlink:href="#m809dcc75c0" x="365.423643" y="214.19433" style="fill: #2f4f4f; stroke: #2f4f4f"/>
     <use xlink:href="#m809dcc75c0" x="290.493482" y="178.175993" style="fill: #2f4f4f; stroke: #2f4f4f"/>
     <use xlink:href="#m809dcc75c0" x="332.847991" y="101.681025" style="fill: #2f4f4f; stroke: #2f4f4f"/>
     <use xlink:href="#m809dcc75c0" x="85.795324" y="168.631552" style="fill: #2f4f4f; stroke: #2f4f4f"/>
    </g>
   </g>
   <g id="PathCollection_4">
    <defs>
     <path id="m68d55d43f1" d="M 0 1.5 
C 0.397805 1.5 0.77937 1.341951 1.06066 1.06066 
C 1.341951 0.77937 1.5 0.397805 1.5 0 
C 1.5 -0.397805 1.341951 -0.77937 1.06066 -1.06066 
C 0.77937 -1.341951 0.397805 -1.5 0 -1.5 
C -0.397805 -1.5 -0.77937 -1.341951 -1.06066 -1.06066 
C -1.341951 -0.77937 -1.5 -0.397805 -1.5 0 
C -1.5 0.397805 -1.341951 0.77937 -1.06066 1.06066 
C -0.77937 1.341951 -0.397805 1.5 0 1.5 
z
" style="stroke: #00bfff"/>
    </defs>
    <g clip-path="url(#pbf272c0869)">
     <use xlink:href="#m68d55d43f1" x="259.73652" y="152.781456" style="fill: #00bfff; stroke: #00bfff"/>
     <use xlink:href="#m68d55d43f1" x="270.208643" y="205.044484" style="fill: #00bfff; stroke: #00bfff"/>
     <use xlink:href="#m68d55d43f1" x="108.279381" y="185.711332" style="fill: #00bfff; stroke: #00bfff"/>
     <use xlink:href="#m68d55d43f1" x="194.071648" y="118.646731" style="fill: #00bfff; stroke: #00bfff"/>
     <use xlink:href="#m68d55d43f1" x="143.478881" y="178.587668" style="fill: #00bfff; stroke: #00bfff"/>
     <use xlink:href="#m68d55d43f1" x="259.73652" y="152.781456" style="fill: #00bfff; stroke: #00bfff"/>
     <use xlink:href="#m68d55d43f1" x="140.082731" y="147.065295" style="fill: #00bfff; stroke: #00bfff"/>
     <use xlink:href="#m68d55d43f1" x="167.519062" y="119.602611" style="fill: #00bfff; stroke: #00bfff"/>
    </g>
   </g>
   <g id="PathCollection_5">
    <defs>
     <path id="m827c976630" d="M 0 1.5 
C 0.397805 1.5 0.77937 1.341951 1.06066 1.06066 
C 1.341951 0.77937 1.5 0.397805 1.5 0 
C 1.5 -0.397805 1.341951 -0.77937 1.06066 -1.06066 
C 0.77937 -1.341951 0.397805 -1.5 0 -1.5 
C -0.397805 -1.5 -0.77937 -1.341951 -1.06066 -1.06066 
C -1.341951 -0.77937 -1.5 -0.397805 -1.5 0 
C -1.5 0.397805 -1.341951 0.77937 -1.06066 1.06066 
C -0.77937 1.341951 -0.397805 1.5 0 1.5 
z
" style="stroke: #ffff00"/>
    </defs>
    <g clip-path="url(#pbf272c0869)">
     <use xlink:href="#m827c976630" x="307.683966" y="128.022057" style="fill: #ffff00; stroke: #ffff00"/>
     <use xlink:href="#m827c976630" x="282.217372" y="80.676444" style="fill: #ffff00; stroke: #ffff00"/>
     <use xlink:href="#m827c976630" x="228.172268" y="64.506361" style="fill: #ffff00; stroke: #ffff00"/>
     <use xlink:href="#m827c976630" x="149.142564" y="76.231232" style="fill: #ffff00; stroke: #ffff00"/>
     <use xlink:href="#m827c976630" x="260.013087" y="66.259867" style="fill: #ffff00; stroke: #ffff00"/>
     <use xlink:href="#m827c976630" x="318.533148" y="134.738374" style="fill: #ffff00; stroke: #ffff00"/>
     <use xlink:href="#m827c976630" x="223.460492" y="131.385485" style="fill: #ffff00; stroke: #ffff00"/>
     <use xlink:href="#m827c976630" x="306.429001" y="154.463334" style="fill: #ffff00; stroke: #ffff00"/>
     <use xlink:href="#m827c976630" x="199.76837" y="74.418811" style="fill: #ffff00; stroke: #ffff00"/>
     <use xlink:href="#m827c976630" x="216.828487" y="102.007299" style="fill: #ffff00; stroke: #ffff00"/>
     <use xlink:href="#m827c976630" x="235.445306" y="117.805032" style="fill: #ffff00; stroke: #ffff00"/>
     <use xlink:href="#m827c976630" x="155.707474" y="30.570946" style="fill: #ffff00; stroke: #ffff00"/>
     <use xlink:href="#m827c976630" x="204.778719" y="75.768599" style="fill: #ffff00; stroke: #ffff00"/>
     <use xlink:href="#m827c976630" x="119.237355" y="108.735046" style="fill: #ffff00; stroke: #ffff00"/>
     <use xlink:href="#m827c976630" x="173.404478" y="74.979307" style="fill: #ffff00; stroke: #ffff00"/>
     <use xlink:href="#m827c976630" x="287.806931" y="101.320805" style="fill: #ffff00; stroke: #ffff00"/>
    </g>
   </g>
   <g id="PathCollection_6">
    <defs>
     <path id="m7b45e5fede" d="M 0 1.5 
C 0.397805 1.5 0.77937 1.341951 1.06066 1.06066 
C 1.341951 0.77937 1.5 0.397805 1.5 0 
C 1.5 -0.397805 1.341951 -0.77937 1.06066 -1.06066 
C 0.77937 -1.341951 0.397805 -1.5 0 -1.5 
C -0.397805 -1.5 -0.77937 -1.341951 -1.06066 -1.06066 
C -1.341951 -0.77937 -1.5 -0.397805 -1.5 0 
C -1.5 0.397805 -1.341951 0.77937 -1.06066 1.06066 
C -0.77937 1.341951 -0.397805 1.5 0 1.5 
z
" style="stroke: #00ffff"/>
    </defs>
    <g clip-path="url(#pbf272c0869)">
     <use xlink:href="#m7b45e5fede" x="208.041949" y="50.535158" style="fill: #00ffff; stroke: #00ffff"/>
     <use xlink:href="#m7b45e5fede" x="120.325876" y="146.390045" style="fill: #00ffff; stroke: #00ffff"/>
     <use xlink:href="#m7b45e5fede" x="267.296919" y="64.05619" style="fill: #00ffff; stroke: #00ffff"/>
     <use xlink:href="#m7b45e5fede" x="214.81891" y="115.519828" style="fill: #00ffff; stroke: #00ffff"/>
     <use xlink:href="#m7b45e5fede" x="220.145806" y="101.095543" style="fill: #00ffff; stroke: #00ffff"/>
     <use xlink:href="#m7b45e5fede" x="156.921003" y="87.921114" style="fill: #00ffff; stroke: #00ffff"/>
     <use xlink:href="#m7b45e5fede" x="219.007124" y="74.051294" style="fill: #00ffff; stroke: #00ffff"/>
     <use xlink:href="#m7b45e5fede" x="161.836307" y="75.131023" style="fill: #00ffff; stroke: #00ffff"/>
     <use xlink:href="#m7b45e5fede" x="232.632502" y="47.595883" style="fill: #00ffff; stroke: #00ffff"/>
     <use xlink:href="#m7b45e5fede" x="106.961808" y="147.085794" style="fill: #00ffff; stroke: #00ffff"/>
     <use xlink:href="#m7b45e5fede" x="147.800555" y="135.784274" style="fill: #00ffff; stroke: #00ffff"/>
     <use xlink:href="#m7b45e5fede" x="170.483114" y="78.018567" style="fill: #00ffff; stroke: #00ffff"/>
     <use xlink:href="#m7b45e5fede" x="204.789416" y="70.062321" style="fill: #00ffff; stroke: #00ffff"/>
     <use xlink:href="#m7b45e5fede" x="136.512436" y="97.601595" style="fill: #00ffff; stroke: #00ffff"/>
     <use xlink:href="#m7b45e5fede" x="289.736031" y="107.64798" style="fill: #00ffff; stroke: #00ffff"/>
     <use xlink:href="#m7b45e5fede" x="236.813796" y="39.18886" style="fill: #00ffff; stroke: #00ffff"/>
     <use xlink:href="#m7b45e5fede" x="154.556497" y="91.094679" style="fill: #00ffff; stroke: #00ffff"/>
     <use xlink:href="#m7b45e5fede" x="141.961548" y="60.606146" style="fill: #00ffff; stroke: #00ffff"/>
    </g>
   </g>
   <g id="PathCollection_7">
    <defs>
     <path id="mc1cfa8af24" d="M 0 1.5 
C 0.397805 1.5 0.77937 1.341951 1.06066 1.06066 
C 1.341951 0.77937 1.5 0.397805 1.5 0 
C 1.5 -0.397805 1.341951 -0.77937 1.06066 -1.06066 
C 0.77937 -1.341951 0.397805 -1.5 0 -1.5 
C -0.397805 -1.5 -0.77937 -1.341951 -1.06066 -1.06066 
C -1.341951 -0.77937 -1.5 -0.397805 -1.5 0 
C -1.5 0.397805 -1.341951 0.77937 -1.06066 1.06066 
C -0.77937 1.341951 -0.397805 1.5 0 1.5 
z
" style="stroke: #0000ff"/>
    </defs>
    <g clip-path="url(#pbf272c0869)">
     <use xlink:href="#mc1cfa8af24" x="168.896706" y="152.734736" style="fill: #0000ff; stroke: #0000ff"/>
     <use xlink:href="#mc1cfa8af24" x="204.56143" y="19.296" style="fill: #0000ff; stroke: #0000ff"/>
     <use xlink:href="#mc1cfa8af24" x="273.344429" y="63.868777" style="fill: #0000ff; stroke: #0000ff"/>
     <use xlink:href="#mc1cfa8af24" x="248.822508" y="64.976102" style="fill: #0000ff; stroke: #0000ff"/>
     <use xlink:href="#mc1cfa8af24" x="186.870991" y="75.26033" style="fill: #0000ff; stroke: #0000ff"/>
     <use xlink:href="#mc1cfa8af24" x="255.443055" y="124.888064" style="fill: #0000ff; stroke: #0000ff"/>
     <use xlink:href="#mc1cfa8af24" x="193.103454" y="80.586447" style="fill: #0000ff; stroke: #0000ff"/>
     <use xlink:href="#mc1cfa8af24" x="241.125168" y="105.639952" style="fill: #0000ff; stroke: #0000ff"/>
     <use xlink:href="#mc1cfa8af24" x="115.045021" y="154.648847" style="fill: #0000ff; stroke: #0000ff"/>
     <use xlink:href="#mc1cfa8af24" x="127.52941" y="110.980798" style="fill: #0000ff; stroke: #0000ff"/>
     <use xlink:href="#mc1cfa8af24" x="149.698033" y="73.763172" style="fill: #0000ff; stroke: #0000ff"/>
     <use xlink:href="#mc1cfa8af24" x="204.808113" y="112.513632" style="fill: #0000ff; stroke: #0000ff"/>
     <use xlink:href="#mc1cfa8af24" x="233.026994" y="177.177891" style="fill: #0000ff; stroke: #0000ff"/>
     <use xlink:href="#mc1cfa8af24" x="198.534404" y="56.564169" style="fill: #0000ff; stroke: #0000ff"/>
    </g>
   </g>
   <g id="PathCollection_8">
    <defs>
     <path id="mf5b1b80c46" d="M 0 1.5 
C 0.397805 1.5 0.77937 1.341951 1.06066 1.06066 
C 1.341951 0.77937 1.5 0.397805 1.5 0 
C 1.5 -0.397805 1.341951 -0.77937 1.06066 -1.06066 
C 0.77937 -1.341951 0.397805 -1.5 0 -1.5 
C -0.397805 -1.5 -0.77937 -1.341951 -1.06066 -1.06066 
C -1.341951 -0.77937 -1.5 -0.397805 -1.5 0 
C -1.5 0.397805 -1.341951 0.77937 -1.06066 1.06066 
C -0.77937 1.341951 -0.397805 1.5 0 1.5 
z
" style="stroke: #dc143c"/>
    </defs>
    <g clip-path="url(#pbf272c0869)">
     <use xlink:href="#mf5b1b80c46" x="265.977578" y="148.471299" style="fill: #dc143c; stroke: #dc143c"/>
     <use xlink:href="#mf5b1b80c46" x="282.085883" y="185.401934" style="fill: #dc143c; stroke: #dc143c"/>
     <use xlink:href="#mf5b1b80c46" x="321.475904" y="218.728692" style="fill: #dc143c; stroke: #dc143c"/>
     <use xlink:href="#mf5b1b80c46" x="277.598506" y="173.46982" style="fill: #dc143c; stroke: #dc143c"/>
     <use xlink:href="#mf5b1b80c46" x="289.693578" y="183.289345" style="fill: #dc143c; stroke: #dc143c"/>
     <use xlink:href="#mf5b1b80c46" x="322.316274" y="178.098485" style="fill: #dc143c; stroke: #dc143c"/>
     <use xlink:href="#mf5b1b80c46" x="240.693814" y="154.550228" style="fill: #dc143c; stroke: #dc143c"/>
     <use xlink:href="#mf5b1b80c46" x="231.372721" y="228.019349" style="fill: #dc143c; stroke: #dc143c"/>
     <use xlink:href="#mf5b1b80c46" x="311.377977" y="194.925925" style="fill: #dc143c; stroke: #dc143c"/>
     <use xlink:href="#mf5b1b80c46" x="250.347401" y="201.527811" style="fill: #dc143c; stroke: #dc143c"/>
    </g>
   </g>
   <g id="PathCollection_9">
    <defs>
     <path id="m2d743f5aeb" d="M 0 1.5 
C 0.397805 1.5 0.77937 1.341951 1.06066 1.06066 
C 1.341951 0.77937 1.5 0.397805 1.5 0 
C 1.5 -0.397805 1.341951 -0.77937 1.06066 -1.06066 
C 0.77937 -1.341951 0.397805 -1.5 0 -1.5 
C -0.397805 -1.5 -0.77937 -1.341951 -1.06066 -1.06066 
C -1.341951 -0.77937 -1.5 -0.397805 -1.5 0 
C -1.5 0.397805 -1.341951 0.77937 -1.06066 1.06066 
C -0.77937 1.341951 -0.397805 1.5 0 1.5 
z
" style="stroke: #ffe4c4"/>
    </defs>
    <g clip-path="url(#pbf272c0869)">
     <use xlink:href="#m2d743f5aeb" x="236.2425" y="84.253" style="fill: #ffe4c4; stroke: #ffe4c4"/>
     <use xlink:href="#m2d743f5aeb" x="165.312388" y="97.773606" style="fill: #ffe4c4; stroke: #ffe4c4"/>
     <use xlink:href="#m2d743f5aeb" x="260.880061" y="154.858152" style="fill: #ffe4c4; stroke: #ffe4c4"/>
     <use xlink:href="#m2d743f5aeb" x="156.990508" y="56.778993" style="fill: #ffe4c4; stroke: #ffe4c4"/>
     <use xlink:href="#m2d743f5aeb" x="202.994883" y="129.489854" style="fill: #ffe4c4; stroke: #ffe4c4"/>
     <use xlink:href="#m2d743f5aeb" x="240.978159" y="68.533642" style="fill: #ffe4c4; stroke: #ffe4c4"/>
     <use xlink:href="#m2d743f5aeb" x="198.329335" y="145.522567" style="fill: #ffe4c4; stroke: #ffe4c4"/>
     <use xlink:href="#m2d743f5aeb" x="209.502934" y="85.836428" style="fill: #ffe4c4; stroke: #ffe4c4"/>
     <use xlink:href="#m2d743f5aeb" x="178.821113" y="109.43501" style="fill: #ffe4c4; stroke: #ffe4c4"/>
     <use xlink:href="#m2d743f5aeb" x="99.3951" y="134.393569" style="fill: #ffe4c4; stroke: #ffe4c4"/>
     <use xlink:href="#m2d743f5aeb" x="264.829059" y="73.198045" style="fill: #ffe4c4; stroke: #ffe4c4"/>
    </g>
   </g>
   <g id="PathCollection_10">
    <defs>
     <path id="m6e034ebe2e" d="M -2.99994 2.99994 
L 3.00006 2.99994 
L 3.00006 -3.00006 
L -2.99994 -3.00006 
z
" style="stroke: #000000"/>
    </defs>
    <g clip-path="url(#pbf272c0869)">
     <use xlink:href="#m6e034ebe2e" x="110.5259" y="192.29006" style="stroke: #000000"/>
     <use xlink:href="#m6e034ebe2e" x="186.435614" y="44.979299" style="stroke: #000000"/>
     <use xlink:href="#m6e034ebe2e" x="205.187214" y="193.486309" style="stroke: #000000"/>
     <use xlink:href="#m6e034ebe2e" x="143.272195" y="59.333631" style="stroke: #000000"/>
     <use xlink:href="#m6e034ebe2e" x="180.966723" y="131.144615" style="stroke: #000000"/>
     <use xlink:href="#m6e034ebe2e" x="204.886911" y="90.595379" style="stroke: #000000"/>
     <use xlink:href="#m6e034ebe2e" x="184.776746" y="113.983939" style="stroke: #000000"/>
     <use xlink:href="#m6e034ebe2e" x="144.022031" y="188.756104" style="stroke: #000000"/>
     <use xlink:href="#m6e034ebe2e" x="118.982441" y="210.483798" style="stroke: #000000"/>
     <use xlink:href="#m6e034ebe2e" x="131.178498" y="181.189458" style="stroke: #000000"/>
     <use xlink:href="#m6e034ebe2e" x="279.302499" y="197.371904" style="stroke: #000000"/>
     <use xlink:href="#m6e034ebe2e" x="105.109655" y="210.5371" style="stroke: #000000"/>
     <use xlink:href="#m6e034ebe2e" x="288.517771" y="114.573048" style="stroke: #000000"/>
     <use xlink:href="#m6e034ebe2e" x="162.886327" y="111.89972" style="stroke: #000000"/>
     <use xlink:href="#m6e034ebe2e" x="164.06219" y="144.996741" style="stroke: #000000"/>
     <use xlink:href="#m6e034ebe2e" x="161.55756" y="122.398977" style="stroke: #000000"/>
     <use xlink:href="#m6e034ebe2e" x="171.405764" y="240.402723" style="stroke: #000000"/>
     <use xlink:href="#m6e034ebe2e" x="115.403683" y="217.51537" style="stroke: #000000"/>
     <use xlink:href="#m6e034ebe2e" x="105.771301" y="256.506822" style="stroke: #000000"/>
     <use xlink:href="#m6e034ebe2e" x="287.491447" y="163.507743" style="stroke: #000000"/>
     <use xlink:href="#m6e034ebe2e" x="210.395312" y="192.726083" style="stroke: #000000"/>
     <use xlink:href="#m6e034ebe2e" x="246.924294" y="174.864467" style="stroke: #000000"/>
     <use xlink:href="#m6e034ebe2e" x="169.296978" y="118.091708" style="stroke: #000000"/>
     <use xlink:href="#m6e034ebe2e" x="191.799063" y="175.314296" style="stroke: #000000"/>
     <use xlink:href="#m6e034ebe2e" x="144.151264" y="166.101954" style="stroke: #000000"/>
     <use xlink:href="#m6e034ebe2e" x="119.014567" y="116.677174" style="stroke: #000000"/>
     <use xlink:href="#m6e034ebe2e" x="239.889366" y="152.813722" style="stroke: #000000"/>
     <use xlink:href="#m6e034ebe2e" x="111.210513" y="214.315755" style="stroke: #000000"/>
     <use xlink:href="#m6e034ebe2e" x="257.172136" y="90.289467" style="stroke: #000000"/>
     <use xlink:href="#m6e034ebe2e" x="148.50691" y="185.826185" style="stroke: #000000"/>
     <use xlink:href="#m6e034ebe2e" x="123.474992" y="116.612346" style="stroke: #000000"/>
     <use xlink:href="#m6e034ebe2e" x="227.010315" y="107.866653" style="stroke: #000000"/>
     <use xlink:href="#m6e034ebe2e" x="67.527812" y="184.073145" style="stroke: #000000"/>
     <use xlink:href="#m6e034ebe2e" x="111.585933" y="165.338137" style="stroke: #000000"/>
     <use xlink:href="#m6e034ebe2e" x="138.630441" y="139.278002" style="stroke: #000000"/>
     <use xlink:href="#m6e034ebe2e" x="161.55756" y="122.398977" style="stroke: #000000"/>
     <use xlink:href="#m6e034ebe2e" x="200.370066" y="121.98783" style="stroke: #000000"/>
     <use xlink:href="#m6e034ebe2e" x="191.038762" y="163.341983" style="stroke: #000000"/>
     <use xlink:href="#m6e034ebe2e" x="212.962277" y="123.630445" style="stroke: #000000"/>
     <use xlink:href="#m6e034ebe2e" x="220.016146" y="98.084621" style="stroke: #000000"/>
     <use xlink:href="#m6e034ebe2e" x="184.94343" y="131.083351" style="stroke: #000000"/>
     <use xlink:href="#m6e034ebe2e" x="135.688499" y="232.812149" style="stroke: #000000"/>
     <use xlink:href="#m6e034ebe2e" x="194.685586" y="87.500759" style="stroke: #000000"/>
     <use xlink:href="#m6e034ebe2e" x="305.405034" y="135.908398" style="stroke: #000000"/>
     <use xlink:href="#m6e034ebe2e" x="237.594096" y="98.099792" style="stroke: #000000"/>
     <use xlink:href="#m6e034ebe2e" x="154.506386" y="199.364017" style="stroke: #000000"/>
     <use xlink:href="#m6e034ebe2e" x="146.248379" y="154.906948" style="stroke: #000000"/>
     <use xlink:href="#m6e034ebe2e" x="86.398622" y="192.59828" style="stroke: #000000"/>
     <use xlink:href="#m6e034ebe2e" x="116.659765" y="185.437173" style="stroke: #000000"/>
     <use xlink:href="#m6e034ebe2e" x="214.270815" y="173.547364" style="stroke: #000000"/>
     <use xlink:href="#m6e034ebe2e" x="115.102623" y="203.123968" style="stroke: #000000"/>
     <use xlink:href="#m6e034ebe2e" x="324.322069" y="110.010283" style="stroke: #000000"/>
     <use xlink:href="#m6e034ebe2e" x="257.364898" y="144.045247" style="stroke: #000000"/>
     <use xlink:href="#m6e034ebe2e" x="86.347717" y="145.839031" style="stroke: #000000"/>
     <use xlink:href="#m6e034ebe2e" x="212.989635" y="136.202473" style="stroke: #000000"/>
     <use xlink:href="#m6e034ebe2e" x="166.429365" y="127.467685" style="stroke: #000000"/>
     <use xlink:href="#m6e034ebe2e" x="196.867326" y="86.087206" style="stroke: #000000"/>
     <use xlink:href="#m6e034ebe2e" x="276.32892" y="126.052062" style="stroke: #000000"/>
     <use xlink:href="#m6e034ebe2e" x="169.412404" y="154.70129" style="stroke: #000000"/>
     <use xlink:href="#m6e034ebe2e" x="258.377976" y="148.888304" style="stroke: #000000"/>
     <use xlink:href="#m6e034ebe2e" x="181.819444" y="196.768696" style="stroke: #000000"/>
     <use xlink:href="#m6e034ebe2e" x="192.888941" y="180.953674" style="stroke: #000000"/>
     <use xlink:href="#m6e034ebe2e" x="101.759567" y="261.216" style="stroke: #000000"/>
     <use xlink:href="#m6e034ebe2e" x="174.575102" y="235.624138" style="stroke: #000000"/>
    </g>
   </g>
   <g id="PathCollection_11">
    <defs>
     <path id="md4d422aae2" d="M -3 -0 
L 3 3 
L 3 -3 
z
" style="stroke: #ff8c00"/>
    </defs>
    <g clip-path="url(#pbf272c0869)">
     <use xlink:href="#md4d422aae2" x="199.194472" y="138.860699" style="fill: #ff8c00; stroke: #ff8c00"/>
     <use xlink:href="#md4d422aae2" x="218.811571" y="174.621846" style="fill: #ff8c00; stroke: #ff8c00"/>
     <use xlink:href="#md4d422aae2" x="69.573579" y="196.374391" style="fill: #ff8c00; stroke: #ff8c00"/>
     <use xlink:href="#md4d422aae2" x="152.01158" y="130.880284" style="fill: #ff8c00; stroke: #ff8c00"/>
     <use xlink:href="#md4d422aae2" x="99.86646" y="154.396105" style="fill: #ff8c00; stroke: #ff8c00"/>
     <use xlink:href="#md4d422aae2" x="67.012361" y="157.697554" style="fill: #ff8c00; stroke: #ff8c00"/>
     <use xlink:href="#md4d422aae2" x="161.671345" y="166.213381" style="fill: #ff8c00; stroke: #ff8c00"/>
     <use xlink:href="#md4d422aae2" x="191.883467" y="120.8147" style="fill: #ff8c00; stroke: #ff8c00"/>
     <use xlink:href="#md4d422aae2" x="181.230087" y="155.161821" style="fill: #ff8c00; stroke: #ff8c00"/>
     <use xlink:href="#md4d422aae2" x="210.140622" y="164.793031" style="fill: #ff8c00; stroke: #ff8c00"/>
     <use xlink:href="#md4d422aae2" x="200.730265" y="127.822796" style="fill: #ff8c00; stroke: #ff8c00"/>
     <use xlink:href="#md4d422aae2" x="65.628308" y="165.364182" style="fill: #ff8c00; stroke: #ff8c00"/>
     <use xlink:href="#md4d422aae2" x="175.840279" y="174.410399" style="fill: #ff8c00; stroke: #ff8c00"/>
     <use xlink:href="#md4d422aae2" x="180.239105" y="204.091119" style="fill: #ff8c00; stroke: #ff8c00"/>
     <use xlink:href="#md4d422aae2" x="228.285466" y="143.747401" style="fill: #ff8c00; stroke: #ff8c00"/>
     <use xlink:href="#md4d422aae2" x="177.164767" y="108.577318" style="fill: #ff8c00; stroke: #ff8c00"/>
     <use xlink:href="#md4d422aae2" x="109.114082" y="153.201915" style="fill: #ff8c00; stroke: #ff8c00"/>
     <use xlink:href="#md4d422aae2" x="91.847336" y="179.740588" style="fill: #ff8c00; stroke: #ff8c00"/>
     <use xlink:href="#md4d422aae2" x="140.716326" y="124.9836" style="fill: #ff8c00; stroke: #ff8c00"/>
     <use xlink:href="#md4d422aae2" x="167.005779" y="150.35336" style="fill: #ff8c00; stroke: #ff8c00"/>
     <use xlink:href="#md4d422aae2" x="210.395999" y="126.843136" style="fill: #ff8c00; stroke: #ff8c00"/>
     <use xlink:href="#md4d422aae2" x="169.025521" y="125.472071" style="fill: #ff8c00; stroke: #ff8c00"/>
     <use xlink:href="#md4d422aae2" x="155.96158" y="136.216763" style="fill: #ff8c00; stroke: #ff8c00"/>
     <use xlink:href="#md4d422aae2" x="304.357462" y="180.843774" style="fill: #ff8c00; stroke: #ff8c00"/>
     <use xlink:href="#md4d422aae2" x="189.054081" y="160.301565" style="fill: #ff8c00; stroke: #ff8c00"/>
     <use xlink:href="#md4d422aae2" x="116.199344" y="136.597509" style="fill: #ff8c00; stroke: #ff8c00"/>
     <use xlink:href="#md4d422aae2" x="241.335768" y="171.475196" style="fill: #ff8c00; stroke: #ff8c00"/>
     <use xlink:href="#md4d422aae2" x="266.256261" y="182.336329" style="fill: #ff8c00; stroke: #ff8c00"/>
     <use xlink:href="#md4d422aae2" x="218.153014" y="152.572061" style="fill: #ff8c00; stroke: #ff8c00"/>
     <use xlink:href="#md4d422aae2" x="208.138921" y="157.224705" style="fill: #ff8c00; stroke: #ff8c00"/>
     <use xlink:href="#md4d422aae2" x="141.632785" y="106.258934" style="fill: #ff8c00; stroke: #ff8c00"/>
     <use xlink:href="#md4d422aae2" x="147.399356" y="129.47867" style="fill: #ff8c00; stroke: #ff8c00"/>
     <use xlink:href="#md4d422aae2" x="241.105942" y="125.777675" style="fill: #ff8c00; stroke: #ff8c00"/>
     <use xlink:href="#md4d422aae2" x="180.121304" y="155.627747" style="fill: #ff8c00; stroke: #ff8c00"/>
     <use xlink:href="#md4d422aae2" x="51.537415" y="172.945065" style="fill: #ff8c00; stroke: #ff8c00"/>
     <use xlink:href="#md4d422aae2" x="105.29631" y="151.006599" style="fill: #ff8c00; stroke: #ff8c00"/>
     <use xlink:href="#md4d422aae2" x="116.101916" y="151.278699" style="fill: #ff8c00; stroke: #ff8c00"/>
     <use xlink:href="#md4d422aae2" x="126.168144" y="178.790326" style="fill: #ff8c00; stroke: #ff8c00"/>
     <use xlink:href="#md4d422aae2" x="131.825002" y="166.394819" style="fill: #ff8c00; stroke: #ff8c00"/>
     <use xlink:href="#md4d422aae2" x="237.568739" y="174.851951" style="fill: #ff8c00; stroke: #ff8c00"/>
     <use xlink:href="#md4d422aae2" x="126.790132" y="148.771349" style="fill: #ff8c00; stroke: #ff8c00"/>
     <use xlink:href="#md4d422aae2" x="183.482037" y="165.385418" style="fill: #ff8c00; stroke: #ff8c00"/>
     <use xlink:href="#md4d422aae2" x="201.692056" y="152.271838" style="fill: #ff8c00; stroke: #ff8c00"/>
     <use xlink:href="#md4d422aae2" x="196.791064" y="144.561035" style="fill: #ff8c00; stroke: #ff8c00"/>
     <use xlink:href="#md4d422aae2" x="147.188607" y="125.7431" style="fill: #ff8c00; stroke: #ff8c00"/>
     <use xlink:href="#md4d422aae2" x="137.748252" y="167.708311" style="fill: #ff8c00; stroke: #ff8c00"/>
     <use xlink:href="#md4d422aae2" x="157.694907" y="164.767988" style="fill: #ff8c00; stroke: #ff8c00"/>
     <use xlink:href="#md4d422aae2" x="149.06954" y="150.486587" style="fill: #ff8c00; stroke: #ff8c00"/>
     <use xlink:href="#md4d422aae2" x="264.1722" y="122.300432" style="fill: #ff8c00; stroke: #ff8c00"/>
     <use xlink:href="#md4d422aae2" x="215.539277" y="176.784378" style="fill: #ff8c00; stroke: #ff8c00"/>
     <use xlink:href="#md4d422aae2" x="131.896225" y="156.530168" style="fill: #ff8c00; stroke: #ff8c00"/>
     <use xlink:href="#md4d422aae2" x="139.280054" y="152.533563" style="fill: #ff8c00; stroke: #ff8c00"/>
     <use xlink:href="#md4d422aae2" x="126.929468" y="201.870313" style="fill: #ff8c00; stroke: #ff8c00"/>
     <use xlink:href="#md4d422aae2" x="253.681511" y="138.110861" style="fill: #ff8c00; stroke: #ff8c00"/>
     <use xlink:href="#md4d422aae2" x="340.794569" y="176.865825" style="fill: #ff8c00; stroke: #ff8c00"/>
     <use xlink:href="#md4d422aae2" x="158.358669" y="174.978799" style="fill: #ff8c00; stroke: #ff8c00"/>
     <use xlink:href="#md4d422aae2" x="117.945773" y="132.34218" style="fill: #ff8c00; stroke: #ff8c00"/>
     <use xlink:href="#md4d422aae2" x="263.981914" y="147.566719" style="fill: #ff8c00; stroke: #ff8c00"/>
     <use xlink:href="#md4d422aae2" x="100.139845" y="187.493821" style="fill: #ff8c00; stroke: #ff8c00"/>
     <use xlink:href="#md4d422aae2" x="116.23729" y="128.677332" style="fill: #ff8c00; stroke: #ff8c00"/>
     <use xlink:href="#md4d422aae2" x="226.040596" y="124.391045" style="fill: #ff8c00; stroke: #ff8c00"/>
     <use xlink:href="#md4d422aae2" x="203.686136" y="210.545668" style="fill: #ff8c00; stroke: #ff8c00"/>
     <use xlink:href="#md4d422aae2" x="169.304532" y="172.612218" style="fill: #ff8c00; stroke: #ff8c00"/>
     <use xlink:href="#md4d422aae2" x="245.76991" y="162.935297" style="fill: #ff8c00; stroke: #ff8c00"/>
    </g>
   </g>
   <g id="matplotlib.axis_1">
    <g id="xtick_1">
     <g id="line2d_1">
      <defs>
       <path id="me0bf1cf06a" d="M 0 0 
L 0 3.5 
" style="stroke: #000000; stroke-width: 0.8"/>
      </defs>
      <g>
       <use xlink:href="#me0bf1cf06a" x="80.907478" y="273.312" style="stroke: #000000; stroke-width: 0.8"/>
      </g>
     </g>
     <g id="text_1">
      <!-- −10 -->
      <g transform="translate(70.355135 287.910437) scale(0.1 -0.1)">
       <defs>
        <path id="DejaVuSans-2212" d="M 678 2272 
L 4684 2272 
L 4684 1741 
L 678 1741 
L 678 2272 
z
" transform="scale(0.015625)"/>
        <path id="DejaVuSans-31" d="M 794 531 
L 1825 531 
L 1825 4091 
L 703 3866 
L 703 4441 
L 1819 4666 
L 2450 4666 
L 2450 531 
L 3481 531 
L 3481 0 
L 794 0 
L 794 531 
z
" transform="scale(0.015625)"/>
        <path id="DejaVuSans-30" d="M 2034 4250 
Q 1547 4250 1301 3770 
Q 1056 3291 1056 2328 
Q 1056 1369 1301 889 
Q 1547 409 2034 409 
Q 2525 409 2770 889 
Q 3016 1369 3016 2328 
Q 3016 3291 2770 3770 
Q 2525 4250 2034 4250 
z
M 2034 4750 
Q 2819 4750 3233 4129 
Q 3647 3509 3647 2328 
Q 3647 1150 3233 529 
Q 2819 -91 2034 -91 
Q 1250 -91 836 529 
Q 422 1150 422 2328 
Q 422 3509 836 4129 
Q 1250 4750 2034 4750 
z
" transform="scale(0.015625)"/>
       </defs>
       <use xlink:href="#DejaVuSans-2212"/>
       <use xlink:href="#DejaVuSans-31" x="83.789062"/>
       <use xlink:href="#DejaVuSans-30" x="147.412109"/>
      </g>
     </g>
    </g>
    <g id="xtick_2">
     <g id="line2d_2">
      <g>
       <use xlink:href="#me0bf1cf06a" x="139.758778" y="273.312" style="stroke: #000000; stroke-width: 0.8"/>
      </g>
     </g>
     <g id="text_2">
      <!-- −5 -->
      <g transform="translate(132.387684 287.910437) scale(0.1 -0.1)">
       <defs>
        <path id="DejaVuSans-35" d="M 691 4666 
L 3169 4666 
L 3169 4134 
L 1269 4134 
L 1269 2991 
Q 1406 3038 1543 3061 
Q 1681 3084 1819 3084 
Q 2600 3084 3056 2656 
Q 3513 2228 3513 1497 
Q 3513 744 3044 326 
Q 2575 -91 1722 -91 
Q 1428 -91 1123 -41 
Q 819 9 494 109 
L 494 744 
Q 775 591 1075 516 
Q 1375 441 1709 441 
Q 2250 441 2565 725 
Q 2881 1009 2881 1497 
Q 2881 1984 2565 2268 
Q 2250 2553 1709 2553 
Q 1456 2553 1204 2497 
Q 953 2441 691 2322 
L 691 4666 
z
" transform="scale(0.015625)"/>
       </defs>
       <use xlink:href="#DejaVuSans-2212"/>
       <use xlink:href="#DejaVuSans-35" x="83.789062"/>
      </g>
     </g>
    </g>
    <g id="xtick_3">
     <g id="line2d_3">
      <g>
       <use xlink:href="#me0bf1cf06a" x="198.610077" y="273.312" style="stroke: #000000; stroke-width: 0.8"/>
      </g>
     </g>
     <g id="text_3">
      <!-- 0 -->
      <g transform="translate(195.428827 287.910437) scale(0.1 -0.1)">
       <use xlink:href="#DejaVuSans-30"/>
      </g>
     </g>
    </g>
    <g id="xtick_4">
     <g id="line2d_4">
      <g>
       <use xlink:href="#me0bf1cf06a" x="257.461376" y="273.312" style="stroke: #000000; stroke-width: 0.8"/>
      </g>
     </g>
     <g id="text_4">
      <!-- 5 -->
      <g transform="translate(254.280126 287.910437) scale(0.1 -0.1)">
       <use xlink:href="#DejaVuSans-35"/>
      </g>
     </g>
    </g>
    <g id="xtick_5">
     <g id="line2d_5">
      <g>
       <use xlink:href="#me0bf1cf06a" x="316.312676" y="273.312" style="stroke: #000000; stroke-width: 0.8"/>
      </g>
     </g>
     <g id="text_5">
      <!-- 10 -->
      <g transform="translate(309.950176 287.910437) scale(0.1 -0.1)">
       <use xlink:href="#DejaVuSans-31"/>
       <use xlink:href="#DejaVuSans-30" x="63.623047"/>
      </g>
     </g>
    </g>
    <g id="xtick_6">
     <g id="line2d_6">
      <g>
       <use xlink:href="#me0bf1cf06a" x="375.163975" y="273.312" style="stroke: #000000; stroke-width: 0.8"/>
      </g>
     </g>
     <g id="text_6">
      <!-- 15 -->
      <g transform="translate(368.801475 287.910437) scale(0.1 -0.1)">
       <use xlink:href="#DejaVuSans-31"/>
       <use xlink:href="#DejaVuSans-35" x="63.623047"/>
      </g>
     </g>
    </g>
   </g>
   <g id="matplotlib.axis_2">
    <g id="ytick_1">
     <g id="line2d_7">
      <defs>
       <path id="m6732157bfb" d="M 0 0 
L -3.5 0 
" style="stroke: #000000; stroke-width: 0.8"/>
      </defs>
      <g>
       <use xlink:href="#m6732157bfb" x="35.304688" y="231.814383" style="stroke: #000000; stroke-width: 0.8"/>
      </g>
     </g>
     <g id="text_7">
      <!-- −10 -->
      <g transform="translate(7.2 235.613602) scale(0.1 -0.1)">
       <use xlink:href="#DejaVuSans-2212"/>
       <use xlink:href="#DejaVuSans-31" x="83.789062"/>
       <use xlink:href="#DejaVuSans-30" x="147.412109"/>
      </g>
     </g>
    </g>
    <g id="ytick_2">
     <g id="line2d_8">
      <g>
       <use xlink:href="#m6732157bfb" x="35.304688" y="187.663196" style="stroke: #000000; stroke-width: 0.8"/>
      </g>
     </g>
     <g id="text_8">
      <!-- −5 -->
      <g transform="translate(13.5625 191.462414) scale(0.1 -0.1)">
       <use xlink:href="#DejaVuSans-2212"/>
       <use xlink:href="#DejaVuSans-35" x="83.789062"/>
      </g>
     </g>
    </g>
    <g id="ytick_3">
     <g id="line2d_9">
      <g>
       <use xlink:href="#m6732157bfb" x="35.304688" y="143.512008" style="stroke: #000000; stroke-width: 0.8"/>
      </g>
     </g>
     <g id="text_9">
      <!-- 0 -->
      <g transform="translate(21.942187 147.311227) scale(0.1 -0.1)">
       <use xlink:href="#DejaVuSans-30"/>
      </g>
     </g>
    </g>
    <g id="ytick_4">
     <g id="line2d_10">
      <g>
       <use xlink:href="#m6732157bfb" x="35.304688" y="99.36082" style="stroke: #000000; stroke-width: 0.8"/>
      </g>
     </g>
     <g id="text_10">
      <!-- 5 -->
      <g transform="translate(21.942187 103.160039) scale(0.1 -0.1)">
       <use xlink:href="#DejaVuSans-35"/>
      </g>
     </g>
    </g>
    <g id="ytick_5">
     <g id="line2d_11">
      <g>
       <use xlink:href="#m6732157bfb" x="35.304688" y="55.209632" style="stroke: #000000; stroke-width: 0.8"/>
      </g>
     </g>
     <g id="text_11">
      <!-- 10 -->
      <g transform="translate(15.579687 59.008851) scale(0.1 -0.1)">
       <use xlink:href="#DejaVuSans-31"/>
       <use xlink:href="#DejaVuSans-30" x="63.623047"/>
      </g>
     </g>
    </g>
    <g id="ytick_6">
     <g id="line2d_12">
      <g>
       <use xlink:href="#m6732157bfb" x="35.304688" y="11.058444" style="stroke: #000000; stroke-width: 0.8"/>
      </g>
     </g>
     <g id="text_12">
      <!-- 15 -->
      <g transform="translate(15.579687 14.857663) scale(0.1 -0.1)">
       <use xlink:href="#DejaVuSans-31"/>
       <use xlink:href="#DejaVuSans-35" x="63.623047"/>
      </g>
     </g>
    </g>
   </g>
   <g id="patch_3">
    <path d="M 35.304688 273.312 
L 35.304688 7.2 
" style="fill: none; stroke: #000000; stroke-width: 0.8; stroke-linejoin: miter; stroke-linecap: square"/>
   </g>
   <g id="patch_4">
    <path d="M 392.424688 273.312 
L 392.424688 7.2 
" style="fill: none; stroke: #000000; stroke-width: 0.8; stroke-linejoin: miter; stroke-linecap: square"/>
   </g>
   <g id="patch_5">
    <path d="M 35.304688 273.312 
L 392.424688 273.312 
" style="fill: none; stroke: #000000; stroke-width: 0.8; stroke-linejoin: miter; stroke-linecap: square"/>
   </g>
   <g id="patch_6">
    <path d="M 35.304688 7.2 
L 392.424688 7.2 
" style="fill: none; stroke: #000000; stroke-width: 0.8; stroke-linejoin: miter; stroke-linecap: square"/>
   </g>
  </g>
 </g>
 <defs>
  <clipPath id="pbf272c0869">
   <rect x="35.304688" y="7.2" width="357.12" height="266.112"/>
  </clipPath>
 </defs>
</svg>
