<?xml version="1.0" encoding="utf-8" standalone="no"?>
<!DOCTYPE svg PUBLIC "-//W3C//DTD SVG 1.1//EN"
  "http://www.w3.org/Graphics/SVG/1.1/DTD/svg11.dtd">
<svg xmlns:xlink="http://www.w3.org/1999/xlink" width="399.624687pt" height="297.282491pt" viewBox="0 0 399.624687 297.282491" xmlns="http://www.w3.org/2000/svg" version="1.1">
 <metadata>
  <rdf:RDF xmlns:dc="http://purl.org/dc/elements/1.1/" xmlns:cc="http://creativecommons.org/ns#" xmlns:rdf="http://www.w3.org/1999/02/22-rdf-syntax-ns#">
   <cc:Work>
    <dc:type rdf:resource="http://purl.org/dc/dcmitype/StillImage"/>
    <dc:date>2023-11-11T11:03:28.762220</dc:date>
    <dc:format>image/svg+xml</dc:format>
    <dc:creator>
     <cc:Agent>
      <dc:title>Matplotlib v3.8.0, https://matplotlib.org/</dc:title>
     </cc:Agent>
    </dc:creator>
   </cc:Work>
  </rdf:RDF>
 </metadata>
 <defs>
  <style type="text/css">*{stroke-linejoin: round; stroke-linecap: butt}</style>
 </defs>
 <g id="figure_1">
  <g id="patch_1">
   <path d="M 0 297.282491 
L 399.624687 297.282491 
L 399.624687 0 
L 0 0 
z
" style="fill: #ffffff"/>
  </g>
  <g id="axes_1">
   <g id="patch_2">
    <path d="M 35.304688 273.404366 
L 392.424688 273.404366 
L 392.424688 7.292366 
L 35.304688 7.292366 
z
" style="fill: #ffffff"/>
   </g>
   <g id="PathCollection_1">
    <defs>
     <path id="m820ac449c9" d="M 0 1.5 
C 0.397805 1.5 0.77937 1.341951 1.06066 1.06066 
C 1.341951 0.77937 1.5 0.397805 1.5 0 
C 1.5 -0.397805 1.341951 -0.77937 1.06066 -1.06066 
C 0.77937 -1.341951 0.397805 -1.5 0 -1.5 
C -0.397805 -1.5 -0.77937 -1.341951 -1.06066 -1.06066 
C -1.341951 -0.77937 -1.5 -0.397805 -1.5 0 
C -1.5 0.397805 -1.341951 0.77937 -1.06066 1.06066 
C -0.77937 1.341951 -0.397805 1.5 0 1.5 
z
" style="stroke: #ff8c00"/>
    </defs>
    <g clip-path="url(#p8c18047697)">
     <use xlink:href="#m820ac449c9" x="159.645229" y="128.008944" style="fill: #ff8c00; stroke: #ff8c00"/>
     <use xlink:href="#m820ac449c9" x="198.986936" y="148.473169" style="fill: #ff8c00; stroke: #ff8c00"/>
     <use xlink:href="#m820ac449c9" x="168.021111" y="139.453462" style="fill: #ff8c00; stroke: #ff8c00"/>
     <use xlink:href="#m820ac449c9" x="111.123655" y="224.548871" style="fill: #ff8c00; stroke: #ff8c00"/>
     <use xlink:href="#m820ac449c9" x="189.439997" y="209.294885" style="fill: #ff8c00; stroke: #ff8c00"/>
     <use xlink:href="#m820ac449c9" x="159.134006" y="152.239944" style="fill: #ff8c00; stroke: #ff8c00"/>
     <use xlink:href="#m820ac449c9" x="157.745859" y="204.806105" style="fill: #ff8c00; stroke: #ff8c00"/>
     <use xlink:href="#m820ac449c9" x="137.992241" y="101.966109" style="fill: #ff8c00; stroke: #ff8c00"/>
    </g>
   </g>
   <g id="PathCollection_2">
    <defs>
     <path id="m4f1e0e5710" d="M 0 1.5 
C 0.397805 1.5 0.77937 1.341951 1.06066 1.06066 
C 1.341951 0.77937 1.5 0.397805 1.5 0 
C 1.5 -0.397805 1.341951 -0.77937 1.06066 -1.06066 
C 0.77937 -1.341951 0.397805 -1.5 0 -1.5 
C -0.397805 -1.5 -0.77937 -1.341951 -1.06066 -1.06066 
C -1.341951 -0.77937 -1.5 -0.397805 -1.5 0 
C -1.5 0.397805 -1.341951 0.77937 -1.06066 1.06066 
C -0.77937 1.341951 -0.397805 1.5 0 1.5 
z
" style="stroke: #006400"/>
    </defs>
    <g clip-path="url(#p8c18047697)">
     <use xlink:href="#m4f1e0e5710" x="95.936737" y="102.187913" style="fill: #006400; stroke: #006400"/>
     <use xlink:href="#m4f1e0e5710" x="139.696802" y="142.592297" style="fill: #006400; stroke: #006400"/>
     <use xlink:href="#m4f1e0e5710" x="154.173427" y="102.181712" style="fill: #006400; stroke: #006400"/>
     <use xlink:href="#m4f1e0e5710" x="114.386879" y="188.004031" style="fill: #006400; stroke: #006400"/>
     <use xlink:href="#m4f1e0e5710" x="66.209339" y="138.768772" style="fill: #006400; stroke: #006400"/>
     <use xlink:href="#m4f1e0e5710" x="151.068168" y="148.562589" style="fill: #006400; stroke: #006400"/>
     <use xlink:href="#m4f1e0e5710" x="159.979587" y="140.143159" style="fill: #006400; stroke: #006400"/>
     <use xlink:href="#m4f1e0e5710" x="98.030455" y="141.910517" style="fill: #006400; stroke: #006400"/>
     <use xlink:href="#m4f1e0e5710" x="182.331414" y="145.692106" style="fill: #006400; stroke: #006400"/>
     <use xlink:href="#m4f1e0e5710" x="78.682184" y="216.355807" style="fill: #006400; stroke: #006400"/>
     <use xlink:href="#m4f1e0e5710" x="238.844001" y="174.230928" style="fill: #006400; stroke: #006400"/>
     <use xlink:href="#m4f1e0e5710" x="230.316657" y="146.282035" style="fill: #006400; stroke: #006400"/>
     <use xlink:href="#m4f1e0e5710" x="171.007788" y="191.046501" style="fill: #006400; stroke: #006400"/>
     <use xlink:href="#m4f1e0e5710" x="187.124828" y="261.308366" style="fill: #006400; stroke: #006400"/>
     <use xlink:href="#m4f1e0e5710" x="242.220529" y="161.455507" style="fill: #006400; stroke: #006400"/>
     <use xlink:href="#m4f1e0e5710" x="176.257288" y="90.465897" style="fill: #006400; stroke: #006400"/>
     <use xlink:href="#m4f1e0e5710" x="51.537415" y="141.014643" style="fill: #006400; stroke: #006400"/>
     <use xlink:href="#m4f1e0e5710" x="230.834177" y="153.683971" style="fill: #006400; stroke: #006400"/>
    </g>
   </g>
   <g id="PathCollection_3">
    <defs>
     <path id="m5b3ba68d37" d="M 0 1.5 
C 0.397805 1.5 0.77937 1.341951 1.06066 1.06066 
C 1.341951 0.77937 1.5 0.397805 1.5 0 
C 1.5 -0.397805 1.341951 -0.77937 1.06066 -1.06066 
C 0.77937 -1.341951 0.397805 -1.5 0 -1.5 
C -0.397805 -1.5 -0.77937 -1.341951 -1.06066 -1.06066 
C -1.341951 -0.77937 -1.5 -0.397805 -1.5 0 
C -1.5 0.397805 -1.341951 0.77937 -1.06066 1.06066 
C -0.77937 1.341951 -0.397805 1.5 0 1.5 
z
" style="stroke: #2f4f4f"/>
    </defs>
    <g clip-path="url(#p8c18047697)">
     <use xlink:href="#m5b3ba68d37" x="284.056063" y="171.936096" style="fill: #2f4f4f; stroke: #2f4f4f"/>
     <use xlink:href="#m5b3ba68d37" x="297.667823" y="125.467937" style="fill: #2f4f4f; stroke: #2f4f4f"/>
     <use xlink:href="#m5b3ba68d37" x="266.513914" y="170.14372" style="fill: #2f4f4f; stroke: #2f4f4f"/>
     <use xlink:href="#m5b3ba68d37" x="299.406984" y="134.787641" style="fill: #2f4f4f; stroke: #2f4f4f"/>
     <use xlink:href="#m5b3ba68d37" x="300.200847" y="182.015519" style="fill: #2f4f4f; stroke: #2f4f4f"/>
     <use xlink:href="#m5b3ba68d37" x="337.770696" y="197.47776" style="fill: #2f4f4f; stroke: #2f4f4f"/>
     <use xlink:href="#m5b3ba68d37" x="340.198754" y="195.188126" style="fill: #2f4f4f; stroke: #2f4f4f"/>
     <use xlink:href="#m5b3ba68d37" x="182.935404" y="209.554284" style="fill: #2f4f4f; stroke: #2f4f4f"/>
     <use xlink:href="#m5b3ba68d37" x="209.192114" y="199.519417" style="fill: #2f4f4f; stroke: #2f4f4f"/>
     <use xlink:href="#m5b3ba68d37" x="254.409398" y="225.783146" style="fill: #2f4f4f; stroke: #2f4f4f"/>
     <use xlink:href="#m5b3ba68d37" x="321.426057" y="170.094324" style="fill: #2f4f4f; stroke: #2f4f4f"/>
     <use xlink:href="#m5b3ba68d37" x="237.543409" y="198.879826" style="fill: #2f4f4f; stroke: #2f4f4f"/>
     <use xlink:href="#m5b3ba68d37" x="285.589486" y="195.849035" style="fill: #2f4f4f; stroke: #2f4f4f"/>
     <use xlink:href="#m5b3ba68d37" x="260.377149" y="107.019017" style="fill: #2f4f4f; stroke: #2f4f4f"/>
    </g>
   </g>
   <g id="PathCollection_4">
    <defs>
     <path id="m316b95644e" d="M 0 1.5 
C 0.397805 1.5 0.77937 1.341951 1.06066 1.06066 
C 1.341951 0.77937 1.5 0.397805 1.5 0 
C 1.5 -0.397805 1.341951 -0.77937 1.06066 -1.06066 
C 0.77937 -1.341951 0.397805 -1.5 0 -1.5 
C -0.397805 -1.5 -0.77937 -1.341951 -1.06066 -1.06066 
C -1.341951 -0.77937 -1.5 -0.397805 -1.5 0 
C -1.5 0.397805 -1.341951 0.77937 -1.06066 1.06066 
C -0.77937 1.341951 -0.397805 1.5 0 1.5 
z
" style="stroke: #00bfff"/>
    </defs>
    <g clip-path="url(#p8c18047697)">
     <use xlink:href="#m316b95644e" x="256.656808" y="176.093941" style="fill: #00bfff; stroke: #00bfff"/>
     <use xlink:href="#m316b95644e" x="230.351616" y="209.203085" style="fill: #00bfff; stroke: #00bfff"/>
     <use xlink:href="#m316b95644e" x="166.067682" y="209.290329" style="fill: #00bfff; stroke: #00bfff"/>
     <use xlink:href="#m316b95644e" x="223.687164" y="207.467252" style="fill: #00bfff; stroke: #00bfff"/>
     <use xlink:href="#m316b95644e" x="320.318012" y="208.375865" style="fill: #00bfff; stroke: #00bfff"/>
     <use xlink:href="#m316b95644e" x="219.944064" y="167.517068" style="fill: #00bfff; stroke: #00bfff"/>
     <use xlink:href="#m316b95644e" x="311.58359" y="177.114715" style="fill: #00bfff; stroke: #00bfff"/>
     <use xlink:href="#m316b95644e" x="254.783449" y="183.75839" style="fill: #00bfff; stroke: #00bfff"/>
     <use xlink:href="#m316b95644e" x="293.577596" y="201.168203" style="fill: #00bfff; stroke: #00bfff"/>
    </g>
   </g>
   <g id="PathCollection_5">
    <defs>
     <path id="m842157cc25" d="M 0 1.5 
C 0.397805 1.5 0.77937 1.341951 1.06066 1.06066 
C 1.341951 0.77937 1.5 0.397805 1.5 0 
C 1.5 -0.397805 1.341951 -0.77937 1.06066 -1.06066 
C 0.77937 -1.341951 0.397805 -1.5 0 -1.5 
C -0.397805 -1.5 -0.77937 -1.341951 -1.06066 -1.06066 
C -1.341951 -0.77937 -1.5 -0.397805 -1.5 0 
C -1.5 0.397805 -1.341951 0.77937 -1.06066 1.06066 
C -0.77937 1.341951 -0.397805 1.5 0 1.5 
z
" style="stroke: #ffff00"/>
    </defs>
    <g clip-path="url(#p8c18047697)">
     <use xlink:href="#m842157cc25" x="279.749134" y="218.191314" style="fill: #ffff00; stroke: #ffff00"/>
     <use xlink:href="#m842157cc25" x="149.73775" y="202.106892" style="fill: #ffff00; stroke: #ffff00"/>
     <use xlink:href="#m842157cc25" x="318.964842" y="185.489989" style="fill: #ffff00; stroke: #ffff00"/>
     <use xlink:href="#m842157cc25" x="273.187757" y="151.364705" style="fill: #ffff00; stroke: #ffff00"/>
     <use xlink:href="#m842157cc25" x="323.305748" y="202.917503" style="fill: #ffff00; stroke: #ffff00"/>
     <use xlink:href="#m842157cc25" x="281.634768" y="145.386411" style="fill: #ffff00; stroke: #ffff00"/>
     <use xlink:href="#m842157cc25" x="196.171854" y="226.95668" style="fill: #ffff00; stroke: #ffff00"/>
     <use xlink:href="#m842157cc25" x="225.590305" y="201.281563" style="fill: #ffff00; stroke: #ffff00"/>
     <use xlink:href="#m842157cc25" x="121.646285" y="162.666288" style="fill: #ffff00; stroke: #ffff00"/>
     <use xlink:href="#m842157cc25" x="194.183703" y="214.983177" style="fill: #ffff00; stroke: #ffff00"/>
     <use xlink:href="#m842157cc25" x="234.770571" y="205.16105" style="fill: #ffff00; stroke: #ffff00"/>
     <use xlink:href="#m842157cc25" x="198.700915" y="229.644491" style="fill: #ffff00; stroke: #ffff00"/>
     <use xlink:href="#m842157cc25" x="249.881978" y="184.755185" style="fill: #ffff00; stroke: #ffff00"/>
     <use xlink:href="#m842157cc25" x="255.73876" y="244.237277" style="fill: #ffff00; stroke: #ffff00"/>
     <use xlink:href="#m842157cc25" x="156.492855" y="203.12477" style="fill: #ffff00; stroke: #ffff00"/>
     <use xlink:href="#m842157cc25" x="281.161132" y="216.067961" style="fill: #ffff00; stroke: #ffff00"/>
     <use xlink:href="#m842157cc25" x="254.29601" y="164.971829" style="fill: #ffff00; stroke: #ffff00"/>
     <use xlink:href="#m842157cc25" x="242.796211" y="183.507065" style="fill: #ffff00; stroke: #ffff00"/>
     <use xlink:href="#m842157cc25" x="232.591499" y="183.228847" style="fill: #ffff00; stroke: #ffff00"/>
    </g>
   </g>
   <g id="PathCollection_6">
    <defs>
     <path id="m9da5a5ed75" d="M 0 1.5 
C 0.397805 1.5 0.77937 1.341951 1.06066 1.06066 
C 1.341951 0.77937 1.5 0.397805 1.5 0 
C 1.5 -0.397805 1.341951 -0.77937 1.06066 -1.06066 
C 0.77937 -1.341951 0.397805 -1.5 0 -1.5 
C -0.397805 -1.5 -0.77937 -1.341951 -1.06066 -1.06066 
C -1.341951 -0.77937 -1.5 -0.397805 -1.5 0 
C -1.5 0.397805 -1.341951 0.77937 -1.06066 1.06066 
C -0.77937 1.341951 -0.397805 1.5 0 1.5 
z
" style="stroke: #00ffff"/>
    </defs>
    <g clip-path="url(#p8c18047697)">
     <use xlink:href="#m9da5a5ed75" x="319.615194" y="166.953642" style="fill: #00ffff; stroke: #00ffff"/>
     <use xlink:href="#m9da5a5ed75" x="220.954225" y="211.67124" style="fill: #00ffff; stroke: #00ffff"/>
     <use xlink:href="#m9da5a5ed75" x="306.304544" y="143.532964" style="fill: #00ffff; stroke: #00ffff"/>
     <use xlink:href="#m9da5a5ed75" x="301.72081" y="181.941605" style="fill: #00ffff; stroke: #00ffff"/>
     <use xlink:href="#m9da5a5ed75" x="279.27439" y="171.886929" style="fill: #00ffff; stroke: #00ffff"/>
     <use xlink:href="#m9da5a5ed75" x="257.311098" y="71.119467" style="fill: #00ffff; stroke: #00ffff"/>
     <use xlink:href="#m9da5a5ed75" x="259.390195" y="205.574257" style="fill: #00ffff; stroke: #00ffff"/>
     <use xlink:href="#m9da5a5ed75" x="301.468" y="183.582587" style="fill: #00ffff; stroke: #00ffff"/>
     <use xlink:href="#m9da5a5ed75" x="236.778643" y="183.244191" style="fill: #00ffff; stroke: #00ffff"/>
     <use xlink:href="#m9da5a5ed75" x="229.756039" y="204.910731" style="fill: #00ffff; stroke: #00ffff"/>
     <use xlink:href="#m9da5a5ed75" x="308.472466" y="207.425462" style="fill: #00ffff; stroke: #00ffff"/>
     <use xlink:href="#m9da5a5ed75" x="266.455631" y="185.501463" style="fill: #00ffff; stroke: #00ffff"/>
     <use xlink:href="#m9da5a5ed75" x="248.877918" y="158.125776" style="fill: #00ffff; stroke: #00ffff"/>
     <use xlink:href="#m9da5a5ed75" x="262.785504" y="195.827659" style="fill: #00ffff; stroke: #00ffff"/>
     <use xlink:href="#m9da5a5ed75" x="192.56499" y="257.810177" style="fill: #00ffff; stroke: #00ffff"/>
    </g>
   </g>
   <g id="PathCollection_7">
    <defs>
     <path id="mb5d53f8c5e" d="M 0 1.5 
C 0.397805 1.5 0.77937 1.341951 1.06066 1.06066 
C 1.341951 0.77937 1.5 0.397805 1.5 0 
C 1.5 -0.397805 1.341951 -0.77937 1.06066 -1.06066 
C 0.77937 -1.341951 0.397805 -1.5 0 -1.5 
C -0.397805 -1.5 -0.77937 -1.341951 -1.06066 -1.06066 
C -1.341951 -0.77937 -1.5 -0.397805 -1.5 0 
C -1.5 0.397805 -1.341951 0.77937 -1.06066 1.06066 
C -0.77937 1.341951 -0.397805 1.5 0 1.5 
z
" style="stroke: #0000ff"/>
    </defs>
    <g clip-path="url(#p8c18047697)">
     <use xlink:href="#mb5d53f8c5e" x="289.480714" y="193.616993" style="fill: #0000ff; stroke: #0000ff"/>
     <use xlink:href="#mb5d53f8c5e" x="137.258121" y="244.083255" style="fill: #0000ff; stroke: #0000ff"/>
     <use xlink:href="#mb5d53f8c5e" x="293.934464" y="178.524916" style="fill: #0000ff; stroke: #0000ff"/>
     <use xlink:href="#mb5d53f8c5e" x="275.247516" y="192.662227" style="fill: #0000ff; stroke: #0000ff"/>
     <use xlink:href="#mb5d53f8c5e" x="205.29861" y="224.297636" style="fill: #0000ff; stroke: #0000ff"/>
     <use xlink:href="#mb5d53f8c5e" x="316.071203" y="185.620917" style="fill: #0000ff; stroke: #0000ff"/>
     <use xlink:href="#mb5d53f8c5e" x="312.237378" y="124.749335" style="fill: #0000ff; stroke: #0000ff"/>
     <use xlink:href="#mb5d53f8c5e" x="230.277991" y="184.454509" style="fill: #0000ff; stroke: #0000ff"/>
     <use xlink:href="#mb5d53f8c5e" x="283.428088" y="201.431743" style="fill: #0000ff; stroke: #0000ff"/>
     <use xlink:href="#mb5d53f8c5e" x="300.127853" y="190.073691" style="fill: #0000ff; stroke: #0000ff"/>
     <use xlink:href="#mb5d53f8c5e" x="169.2563" y="210.258288" style="fill: #0000ff; stroke: #0000ff"/>
     <use xlink:href="#mb5d53f8c5e" x="262.90514" y="171.222584" style="fill: #0000ff; stroke: #0000ff"/>
     <use xlink:href="#mb5d53f8c5e" x="282.242291" y="181.867152" style="fill: #0000ff; stroke: #0000ff"/>
     <use xlink:href="#mb5d53f8c5e" x="312.296104" y="145.38776" style="fill: #0000ff; stroke: #0000ff"/>
     <use xlink:href="#mb5d53f8c5e" x="301.642549" y="161.457782" style="fill: #0000ff; stroke: #0000ff"/>
     <use xlink:href="#mb5d53f8c5e" x="376.19196" y="179.322998" style="fill: #0000ff; stroke: #0000ff"/>
     <use xlink:href="#mb5d53f8c5e" x="238.07298" y="183.558542" style="fill: #0000ff; stroke: #0000ff"/>
     <use xlink:href="#mb5d53f8c5e" x="211.859154" y="223.780374" style="fill: #0000ff; stroke: #0000ff"/>
     <use xlink:href="#mb5d53f8c5e" x="272.294876" y="181.55245" style="fill: #0000ff; stroke: #0000ff"/>
    </g>
   </g>
   <g id="PathCollection_8">
    <defs>
     <path id="m9b5b3149b7" d="M 0 1.5 
C 0.397805 1.5 0.77937 1.341951 1.06066 1.06066 
C 1.341951 0.77937 1.5 0.397805 1.5 0 
C 1.5 -0.397805 1.341951 -0.77937 1.06066 -1.06066 
C 0.77937 -1.341951 0.397805 -1.5 0 -1.5 
C -0.397805 -1.5 -0.77937 -1.341951 -1.06066 -1.06066 
C -1.341951 -0.77937 -1.5 -0.397805 -1.5 0 
C -1.5 0.397805 -1.341951 0.77937 -1.06066 1.06066 
C -0.77937 1.341951 -0.397805 1.5 0 1.5 
z
" style="stroke: #dc143c"/>
    </defs>
    <g clip-path="url(#p8c18047697)">
     <use xlink:href="#m9b5b3149b7" x="265.182338" y="175.928556" style="fill: #dc143c; stroke: #dc143c"/>
     <use xlink:href="#m9b5b3149b7" x="215.00903" y="189.751367" style="fill: #dc143c; stroke: #dc143c"/>
     <use xlink:href="#m9b5b3149b7" x="154.821293" y="188.570534" style="fill: #dc143c; stroke: #dc143c"/>
     <use xlink:href="#m9b5b3149b7" x="205.564372" y="65.960394" style="fill: #dc143c; stroke: #dc143c"/>
     <use xlink:href="#m9b5b3149b7" x="241.001514" y="131.770592" style="fill: #dc143c; stroke: #dc143c"/>
     <use xlink:href="#m9b5b3149b7" x="283.616074" y="170.983642" style="fill: #dc143c; stroke: #dc143c"/>
     <use xlink:href="#m9b5b3149b7" x="166.903179" y="203.470426" style="fill: #dc143c; stroke: #dc143c"/>
     <use xlink:href="#m9b5b3149b7" x="152.586308" y="96.855566" style="fill: #dc143c; stroke: #dc143c"/>
     <use xlink:href="#m9b5b3149b7" x="219.599819" y="63.009191" style="fill: #dc143c; stroke: #dc143c"/>
     <use xlink:href="#m9b5b3149b7" x="214.98421" y="118.587472" style="fill: #dc143c; stroke: #dc143c"/>
     <use xlink:href="#m9b5b3149b7" x="258.847066" y="173.547929" style="fill: #dc143c; stroke: #dc143c"/>
     <use xlink:href="#m9b5b3149b7" x="231.292114" y="98.88921" style="fill: #dc143c; stroke: #dc143c"/>
     <use xlink:href="#m9b5b3149b7" x="125.809381" y="217.033838" style="fill: #dc143c; stroke: #dc143c"/>
    </g>
   </g>
   <g id="PathCollection_9">
    <defs>
     <path id="m18950e04fa" d="M 0 1.5 
C 0.397805 1.5 0.77937 1.341951 1.06066 1.06066 
C 1.341951 0.77937 1.5 0.397805 1.5 0 
C 1.5 -0.397805 1.341951 -0.77937 1.06066 -1.06066 
C 0.77937 -1.341951 0.397805 -1.5 0 -1.5 
C -0.397805 -1.5 -0.77937 -1.341951 -1.06066 -1.06066 
C -1.341951 -0.77937 -1.5 -0.397805 -1.5 0 
C -1.5 0.397805 -1.341951 0.77937 -1.06066 1.06066 
C -0.77937 1.341951 -0.397805 1.5 0 1.5 
z
" style="stroke: #ffe4c4"/>
    </defs>
    <g clip-path="url(#p8c18047697)">
     <use xlink:href="#m18950e04fa" x="108.256261" y="185.852613" style="fill: #ffe4c4; stroke: #ffe4c4"/>
     <use xlink:href="#m18950e04fa" x="124.070567" y="198.547038" style="fill: #ffe4c4; stroke: #ffe4c4"/>
     <use xlink:href="#m18950e04fa" x="225.775496" y="166.763491" style="fill: #ffe4c4; stroke: #ffe4c4"/>
     <use xlink:href="#m18950e04fa" x="169.011671" y="186.889886" style="fill: #ffe4c4; stroke: #ffe4c4"/>
     <use xlink:href="#m18950e04fa" x="162.009001" y="211.492828" style="fill: #ffe4c4; stroke: #ffe4c4"/>
     <use xlink:href="#m18950e04fa" x="203.327265" y="137.385669" style="fill: #ffe4c4; stroke: #ffe4c4"/>
     <use xlink:href="#m18950e04fa" x="142.244505" y="202.728213" style="fill: #ffe4c4; stroke: #ffe4c4"/>
     <use xlink:href="#m18950e04fa" x="130.802118" y="212.34607" style="fill: #ffe4c4; stroke: #ffe4c4"/>
     <use xlink:href="#m18950e04fa" x="248.994753" y="121.804327" style="fill: #ffe4c4; stroke: #ffe4c4"/>
     <use xlink:href="#m18950e04fa" x="189.277094" y="169.019724" style="fill: #ffe4c4; stroke: #ffe4c4"/>
     <use xlink:href="#m18950e04fa" x="185.502588" y="224.742349" style="fill: #ffe4c4; stroke: #ffe4c4"/>
     <use xlink:href="#m18950e04fa" x="212.085048" y="168.368016" style="fill: #ffe4c4; stroke: #ffe4c4"/>
     <use xlink:href="#m18950e04fa" x="180.076235" y="211.84848" style="fill: #ffe4c4; stroke: #ffe4c4"/>
    </g>
   </g>
   <g id="PathCollection_10">
    <defs>
     <path id="m2e530aa74b" d="M -2.99994 2.99994 
L 3.00006 2.99994 
L 3.00006 -3.00006 
L -2.99994 -3.00006 
z
" style="stroke: #000000"/>
    </defs>
    <g clip-path="url(#p8c18047697)">
     <use xlink:href="#m2e530aa74b" x="104.531011" y="177.944951" style="stroke: #000000"/>
     <use xlink:href="#m2e530aa74b" x="86.382189" y="144.318563" style="stroke: #000000"/>
     <use xlink:href="#m2e530aa74b" x="130.938105" y="147.463807" style="stroke: #000000"/>
     <use xlink:href="#m2e530aa74b" x="207.853208" y="178.437366" style="stroke: #000000"/>
     <use xlink:href="#m2e530aa74b" x="138.943967" y="158.27726" style="stroke: #000000"/>
     <use xlink:href="#m2e530aa74b" x="121.711098" y="194.050601" style="stroke: #000000"/>
     <use xlink:href="#m2e530aa74b" x="94.283821" y="192.902205" style="stroke: #000000"/>
     <use xlink:href="#m2e530aa74b" x="179.385549" y="187.586272" style="stroke: #000000"/>
     <use xlink:href="#m2e530aa74b" x="69.288336" y="199.819285" style="stroke: #000000"/>
     <use xlink:href="#m2e530aa74b" x="122.066134" y="200.441609" style="stroke: #000000"/>
     <use xlink:href="#m2e530aa74b" x="189.777737" y="147.417733" style="stroke: #000000"/>
     <use xlink:href="#m2e530aa74b" x="141.731301" y="46.262107" style="stroke: #000000"/>
     <use xlink:href="#m2e530aa74b" x="158.613183" y="195.648806" style="stroke: #000000"/>
     <use xlink:href="#m2e530aa74b" x="123.527832" y="194.990581" style="stroke: #000000"/>
     <use xlink:href="#m2e530aa74b" x="200.20471" y="70.281525" style="stroke: #000000"/>
     <use xlink:href="#m2e530aa74b" x="127.784223" y="192.283191" style="stroke: #000000"/>
     <use xlink:href="#m2e530aa74b" x="113.275458" y="152.890566" style="stroke: #000000"/>
     <use xlink:href="#m2e530aa74b" x="114.946258" y="147.040262" style="stroke: #000000"/>
     <use xlink:href="#m2e530aa74b" x="109.528393" y="216.314843" style="stroke: #000000"/>
     <use xlink:href="#m2e530aa74b" x="161.278308" y="161.292706" style="stroke: #000000"/>
     <use xlink:href="#m2e530aa74b" x="206.155764" y="209.225546" style="stroke: #000000"/>
     <use xlink:href="#m2e530aa74b" x="140.124291" y="118.472968" style="stroke: #000000"/>
     <use xlink:href="#m2e530aa74b" x="70.593075" y="231.493662" style="stroke: #000000"/>
     <use xlink:href="#m2e530aa74b" x="175.304072" y="19.388366" style="stroke: #000000"/>
     <use xlink:href="#m2e530aa74b" x="54.091698" y="181.763866" style="stroke: #000000"/>
     <use xlink:href="#m2e530aa74b" x="135.202654" y="194.660799" style="stroke: #000000"/>
     <use xlink:href="#m2e530aa74b" x="132.17699" y="156.475283" style="stroke: #000000"/>
     <use xlink:href="#m2e530aa74b" x="205.964398" y="115.452607" style="stroke: #000000"/>
     <use xlink:href="#m2e530aa74b" x="152.53791" y="174.433802" style="stroke: #000000"/>
     <use xlink:href="#m2e530aa74b" x="154.11679" y="239.731736" style="stroke: #000000"/>
     <use xlink:href="#m2e530aa74b" x="240.316909" y="161.059075" style="stroke: #000000"/>
     <use xlink:href="#m2e530aa74b" x="100.885855" y="135.333235" style="stroke: #000000"/>
     <use xlink:href="#m2e530aa74b" x="191.090886" y="112.323812" style="stroke: #000000"/>
     <use xlink:href="#m2e530aa74b" x="152.384841" y="226.750905" style="stroke: #000000"/>
     <use xlink:href="#m2e530aa74b" x="171.596444" y="110.076454" style="stroke: #000000"/>
     <use xlink:href="#m2e530aa74b" x="198.536055" y="188.248216" style="stroke: #000000"/>
     <use xlink:href="#m2e530aa74b" x="141.731301" y="46.262107" style="stroke: #000000"/>
     <use xlink:href="#m2e530aa74b" x="144.934626" y="109.230316" style="stroke: #000000"/>
     <use xlink:href="#m2e530aa74b" x="58.640431" y="195.852857" style="stroke: #000000"/>
     <use xlink:href="#m2e530aa74b" x="163.516114" y="70.50417" style="stroke: #000000"/>
     <use xlink:href="#m2e530aa74b" x="158.772477" y="172.772165" style="stroke: #000000"/>
     <use xlink:href="#m2e530aa74b" x="146.364406" y="176.430751" style="stroke: #000000"/>
     <use xlink:href="#m2e530aa74b" x="122.57048" y="136.041517" style="stroke: #000000"/>
     <use xlink:href="#m2e530aa74b" x="89.035622" y="181.079839" style="stroke: #000000"/>
     <use xlink:href="#m2e530aa74b" x="131.873486" y="202.288548" style="stroke: #000000"/>
     <use xlink:href="#m2e530aa74b" x="54.671331" y="170.784088" style="stroke: #000000"/>
     <use xlink:href="#m2e530aa74b" x="140.834013" y="136.66404" style="stroke: #000000"/>
     <use xlink:href="#m2e530aa74b" x="181.546271" y="125.879564" style="stroke: #000000"/>
     <use xlink:href="#m2e530aa74b" x="59.65263" y="155.45292" style="stroke: #000000"/>
     <use xlink:href="#m2e530aa74b" x="161.773841" y="199.690201" style="stroke: #000000"/>
     <use xlink:href="#m2e530aa74b" x="193.133394" y="231.527273" style="stroke: #000000"/>
     <use xlink:href="#m2e530aa74b" x="102.753438" y="201.909634" style="stroke: #000000"/>
     <use xlink:href="#m2e530aa74b" x="124.044286" y="161.948712" style="stroke: #000000"/>
     <use xlink:href="#m2e530aa74b" x="67.573486" y="144.954694" style="stroke: #000000"/>
     <use xlink:href="#m2e530aa74b" x="130.311316" y="142.818104" style="stroke: #000000"/>
     <use xlink:href="#m2e530aa74b" x="139.897932" y="200.217157" style="stroke: #000000"/>
     <use xlink:href="#m2e530aa74b" x="74.391564" y="164.228093" style="stroke: #000000"/>
     <use xlink:href="#m2e530aa74b" x="199.448279" y="138.911535" style="stroke: #000000"/>
     <use xlink:href="#m2e530aa74b" x="58.270408" y="180.93325" style="stroke: #000000"/>
     <use xlink:href="#m2e530aa74b" x="159.61891" y="167.81528" style="stroke: #000000"/>
     <use xlink:href="#m2e530aa74b" x="124.34469" y="177.161436" style="stroke: #000000"/>
     <use xlink:href="#m2e530aa74b" x="117.742279" y="190.086811" style="stroke: #000000"/>
     <use xlink:href="#m2e530aa74b" x="84.34685" y="192.218236" style="stroke: #000000"/>
     <use xlink:href="#m2e530aa74b" x="108.765569" y="185.45262" style="stroke: #000000"/>
    </g>
   </g>
   <g id="PathCollection_11">
    <defs>
     <path id="m835ee1545f" d="M -3 -0 
L 3 3 
L 3 -3 
z
" style="stroke: #ff8c00"/>
    </defs>
    <g clip-path="url(#p8c18047697)">
     <use xlink:href="#m835ee1545f" x="164.707501" y="138.154911" style="fill: #ff8c00; stroke: #ff8c00"/>
     <use xlink:href="#m835ee1545f" x="200.49203" y="233.634207" style="fill: #ff8c00; stroke: #ff8c00"/>
     <use xlink:href="#m835ee1545f" x="74.25678" y="181.622464" style="fill: #ff8c00; stroke: #ff8c00"/>
     <use xlink:href="#m835ee1545f" x="207.42647" y="213.704351" style="fill: #ff8c00; stroke: #ff8c00"/>
     <use xlink:href="#m835ee1545f" x="245.437188" y="207.350632" style="fill: #ff8c00; stroke: #ff8c00"/>
     <use xlink:href="#m835ee1545f" x="239.793078" y="221.266998" style="fill: #ff8c00; stroke: #ff8c00"/>
     <use xlink:href="#m835ee1545f" x="64.248418" y="207.028724" style="fill: #ff8c00; stroke: #ff8c00"/>
     <use xlink:href="#m835ee1545f" x="102.273445" y="154.530734" style="fill: #ff8c00; stroke: #ff8c00"/>
     <use xlink:href="#m835ee1545f" x="152.026603" y="214.802964" style="fill: #ff8c00; stroke: #ff8c00"/>
     <use xlink:href="#m835ee1545f" x="210.613814" y="194.176709" style="fill: #ff8c00; stroke: #ff8c00"/>
     <use xlink:href="#m835ee1545f" x="169.912542" y="210.268864" style="fill: #ff8c00; stroke: #ff8c00"/>
     <use xlink:href="#m835ee1545f" x="170.683128" y="258.358479" style="fill: #ff8c00; stroke: #ff8c00"/>
     <use xlink:href="#m835ee1545f" x="142.3823" y="199.163941" style="fill: #ff8c00; stroke: #ff8c00"/>
     <use xlink:href="#m835ee1545f" x="178.216397" y="134.646279" style="fill: #ff8c00; stroke: #ff8c00"/>
     <use xlink:href="#m835ee1545f" x="160.682162" y="127.312553" style="fill: #ff8c00; stroke: #ff8c00"/>
     <use xlink:href="#m835ee1545f" x="210.613814" y="194.176709" style="fill: #ff8c00; stroke: #ff8c00"/>
     <use xlink:href="#m835ee1545f" x="264.921591" y="179.499502" style="fill: #ff8c00; stroke: #ff8c00"/>
     <use xlink:href="#m835ee1545f" x="188.867532" y="234.428038" style="fill: #ff8c00; stroke: #ff8c00"/>
     <use xlink:href="#m835ee1545f" x="190.128786" y="150.667446" style="fill: #ff8c00; stroke: #ff8c00"/>
     <use xlink:href="#m835ee1545f" x="245.228967" y="48.042444" style="fill: #ff8c00; stroke: #ff8c00"/>
     <use xlink:href="#m835ee1545f" x="223.749885" y="191.446" style="fill: #ff8c00; stroke: #ff8c00"/>
     <use xlink:href="#m835ee1545f" x="108.453141" y="133.553923" style="fill: #ff8c00; stroke: #ff8c00"/>
     <use xlink:href="#m835ee1545f" x="219.329362" y="209.522755" style="fill: #ff8c00; stroke: #ff8c00"/>
     <use xlink:href="#m835ee1545f" x="111.971276" y="162.283502" style="fill: #ff8c00; stroke: #ff8c00"/>
     <use xlink:href="#m835ee1545f" x="132.437144" y="202.799229" style="fill: #ff8c00; stroke: #ff8c00"/>
     <use xlink:href="#m835ee1545f" x="144.787968" y="70.351051" style="fill: #ff8c00; stroke: #ff8c00"/>
     <use xlink:href="#m835ee1545f" x="220.885412" y="209.007581" style="fill: #ff8c00; stroke: #ff8c00"/>
     <use xlink:href="#m835ee1545f" x="152.255042" y="207.254532" style="fill: #ff8c00; stroke: #ff8c00"/>
     <use xlink:href="#m835ee1545f" x="169.15532" y="201.458127" style="fill: #ff8c00; stroke: #ff8c00"/>
     <use xlink:href="#m835ee1545f" x="75.659985" y="168.614178" style="fill: #ff8c00; stroke: #ff8c00"/>
     <use xlink:href="#m835ee1545f" x="259.060015" y="152.895891" style="fill: #ff8c00; stroke: #ff8c00"/>
     <use xlink:href="#m835ee1545f" x="160.944247" y="171.191921" style="fill: #ff8c00; stroke: #ff8c00"/>
     <use xlink:href="#m835ee1545f" x="184.656285" y="193.400356" style="fill: #ff8c00; stroke: #ff8c00"/>
     <use xlink:href="#m835ee1545f" x="221.647377" y="78.669382" style="fill: #ff8c00; stroke: #ff8c00"/>
     <use xlink:href="#m835ee1545f" x="195.416572" y="214.829663" style="fill: #ff8c00; stroke: #ff8c00"/>
     <use xlink:href="#m835ee1545f" x="164.998793" y="183.564154" style="fill: #ff8c00; stroke: #ff8c00"/>
     <use xlink:href="#m835ee1545f" x="231.201853" y="230.10682" style="fill: #ff8c00; stroke: #ff8c00"/>
     <use xlink:href="#m835ee1545f" x="186.428884" y="118.750998" style="fill: #ff8c00; stroke: #ff8c00"/>
     <use xlink:href="#m835ee1545f" x="128.047986" y="195.532021" style="fill: #ff8c00; stroke: #ff8c00"/>
     <use xlink:href="#m835ee1545f" x="150.235536" y="236.808765" style="fill: #ff8c00; stroke: #ff8c00"/>
     <use xlink:href="#m835ee1545f" x="201.633723" y="207.265622" style="fill: #ff8c00; stroke: #ff8c00"/>
     <use xlink:href="#m835ee1545f" x="214.986248" y="200.567585" style="fill: #ff8c00; stroke: #ff8c00"/>
     <use xlink:href="#m835ee1545f" x="88.041761" y="201.364308" style="fill: #ff8c00; stroke: #ff8c00"/>
     <use xlink:href="#m835ee1545f" x="190.30463" y="192.684689" style="fill: #ff8c00; stroke: #ff8c00"/>
     <use xlink:href="#m835ee1545f" x="184.528442" y="219.585367" style="fill: #ff8c00; stroke: #ff8c00"/>
     <use xlink:href="#m835ee1545f" x="135.442381" y="200.475124" style="fill: #ff8c00; stroke: #ff8c00"/>
     <use xlink:href="#m835ee1545f" x="258.327439" y="88.980954" style="fill: #ff8c00; stroke: #ff8c00"/>
     <use xlink:href="#m835ee1545f" x="258.327439" y="88.980954" style="fill: #ff8c00; stroke: #ff8c00"/>
     <use xlink:href="#m835ee1545f" x="205.191739" y="198.713925" style="fill: #ff8c00; stroke: #ff8c00"/>
     <use xlink:href="#m835ee1545f" x="176.26467" y="169.629436" style="fill: #ff8c00; stroke: #ff8c00"/>
     <use xlink:href="#m835ee1545f" x="104.132751" y="218.669912" style="fill: #ff8c00; stroke: #ff8c00"/>
     <use xlink:href="#m835ee1545f" x="278.345222" y="198.640241" style="fill: #ff8c00; stroke: #ff8c00"/>
     <use xlink:href="#m835ee1545f" x="121.928902" y="210.986886" style="fill: #ff8c00; stroke: #ff8c00"/>
     <use xlink:href="#m835ee1545f" x="120.394473" y="204.477756" style="fill: #ff8c00; stroke: #ff8c00"/>
     <use xlink:href="#m835ee1545f" x="263.068725" y="170.20113" style="fill: #ff8c00; stroke: #ff8c00"/>
     <use xlink:href="#m835ee1545f" x="118.879411" y="207.809555" style="fill: #ff8c00; stroke: #ff8c00"/>
     <use xlink:href="#m835ee1545f" x="124.920552" y="188.906544" style="fill: #ff8c00; stroke: #ff8c00"/>
     <use xlink:href="#m835ee1545f" x="251.240146" y="152.101996" style="fill: #ff8c00; stroke: #ff8c00"/>
     <use xlink:href="#m835ee1545f" x="181.819911" y="227.82607" style="fill: #ff8c00; stroke: #ff8c00"/>
     <use xlink:href="#m835ee1545f" x="103.65365" y="157.71746" style="fill: #ff8c00; stroke: #ff8c00"/>
     <use xlink:href="#m835ee1545f" x="209.936932" y="211.031646" style="fill: #ff8c00; stroke: #ff8c00"/>
     <use xlink:href="#m835ee1545f" x="172.148813" y="101.474265" style="fill: #ff8c00; stroke: #ff8c00"/>
     <use xlink:href="#m835ee1545f" x="105.036854" y="182.535878" style="fill: #ff8c00; stroke: #ff8c00"/>
     <use xlink:href="#m835ee1545f" x="213.26399" y="140.518346" style="fill: #ff8c00; stroke: #ff8c00"/>
    </g>
   </g>
   <g id="matplotlib.axis_1">
    <g id="xtick_1">
     <g id="line2d_1">
      <defs>
       <path id="macb65db3ae" d="M 0 0 
L 0 3.5 
" style="stroke: #000000; stroke-width: 0.8"/>
      </defs>
      <g>
       <use xlink:href="#macb65db3ae" x="64.631225" y="273.404366" style="stroke: #000000; stroke-width: 0.8"/>
      </g>
     </g>
     <g id="text_1">
      <!-- −20 -->
      <g transform="translate(54.078881 288.002804) scale(0.1 -0.1)">
       <defs>
        <path id="DejaVuSans-2212" d="M 678 2272 
L 4684 2272 
L 4684 1741 
L 678 1741 
L 678 2272 
z
" transform="scale(0.015625)"/>
        <path id="DejaVuSans-32" d="M 1228 531 
L 3431 531 
L 3431 0 
L 469 0 
L 469 531 
Q 828 903 1448 1529 
Q 2069 2156 2228 2338 
Q 2531 2678 2651 2914 
Q 2772 3150 2772 3378 
Q 2772 3750 2511 3984 
Q 2250 4219 1831 4219 
Q 1534 4219 1204 4116 
Q 875 4013 500 3803 
L 500 4441 
Q 881 4594 1212 4672 
Q 1544 4750 1819 4750 
Q 2544 4750 2975 4387 
Q 3406 4025 3406 3419 
Q 3406 3131 3298 2873 
Q 3191 2616 2906 2266 
Q 2828 2175 2409 1742 
Q 1991 1309 1228 531 
z
" transform="scale(0.015625)"/>
        <path id="DejaVuSans-30" d="M 2034 4250 
Q 1547 4250 1301 3770 
Q 1056 3291 1056 2328 
Q 1056 1369 1301 889 
Q 1547 409 2034 409 
Q 2525 409 2770 889 
Q 3016 1369 3016 2328 
Q 3016 3291 2770 3770 
Q 2525 4250 2034 4250 
z
M 2034 4750 
Q 2819 4750 3233 4129 
Q 3647 3509 3647 2328 
Q 3647 1150 3233 529 
Q 2819 -91 2034 -91 
Q 1250 -91 836 529 
Q 422 1150 422 2328 
Q 422 3509 836 4129 
Q 1250 4750 2034 4750 
z
" transform="scale(0.015625)"/>
       </defs>
       <use xlink:href="#DejaVuSans-2212"/>
       <use xlink:href="#DejaVuSans-32" x="83.789062"/>
       <use xlink:href="#DejaVuSans-30" x="147.412109"/>
      </g>
     </g>
    </g>
    <g id="xtick_2">
     <g id="line2d_2">
      <g>
       <use xlink:href="#macb65db3ae" x="127.389506" y="273.404366" style="stroke: #000000; stroke-width: 0.8"/>
      </g>
     </g>
     <g id="text_2">
      <!-- −10 -->
      <g transform="translate(116.837162 288.002804) scale(0.1 -0.1)">
       <defs>
        <path id="DejaVuSans-31" d="M 794 531 
L 1825 531 
L 1825 4091 
L 703 3866 
L 703 4441 
L 1819 4666 
L 2450 4666 
L 2450 531 
L 3481 531 
L 3481 0 
L 794 0 
L 794 531 
z
" transform="scale(0.015625)"/>
       </defs>
       <use xlink:href="#DejaVuSans-2212"/>
       <use xlink:href="#DejaVuSans-31" x="83.789062"/>
       <use xlink:href="#DejaVuSans-30" x="147.412109"/>
      </g>
     </g>
    </g>
    <g id="xtick_3">
     <g id="line2d_3">
      <g>
       <use xlink:href="#macb65db3ae" x="190.147787" y="273.404366" style="stroke: #000000; stroke-width: 0.8"/>
      </g>
     </g>
     <g id="text_3">
      <!-- 0 -->
      <g transform="translate(186.966537 288.002804) scale(0.1 -0.1)">
       <use xlink:href="#DejaVuSans-30"/>
      </g>
     </g>
    </g>
    <g id="xtick_4">
     <g id="line2d_4">
      <g>
       <use xlink:href="#macb65db3ae" x="252.906068" y="273.404366" style="stroke: #000000; stroke-width: 0.8"/>
      </g>
     </g>
     <g id="text_4">
      <!-- 10 -->
      <g transform="translate(246.543568 288.002804) scale(0.1 -0.1)">
       <use xlink:href="#DejaVuSans-31"/>
       <use xlink:href="#DejaVuSans-30" x="63.623047"/>
      </g>
     </g>
    </g>
    <g id="xtick_5">
     <g id="line2d_5">
      <g>
       <use xlink:href="#macb65db3ae" x="315.664349" y="273.404366" style="stroke: #000000; stroke-width: 0.8"/>
      </g>
     </g>
     <g id="text_5">
      <!-- 20 -->
      <g transform="translate(309.301849 288.002804) scale(0.1 -0.1)">
       <use xlink:href="#DejaVuSans-32"/>
       <use xlink:href="#DejaVuSans-30" x="63.623047"/>
      </g>
     </g>
    </g>
    <g id="xtick_6">
     <g id="line2d_6">
      <g>
       <use xlink:href="#macb65db3ae" x="378.422629" y="273.404366" style="stroke: #000000; stroke-width: 0.8"/>
      </g>
     </g>
     <g id="text_6">
      <!-- 30 -->
      <g transform="translate(372.060129 288.002804) scale(0.1 -0.1)">
       <defs>
        <path id="DejaVuSans-33" d="M 2597 2516 
Q 3050 2419 3304 2112 
Q 3559 1806 3559 1356 
Q 3559 666 3084 287 
Q 2609 -91 1734 -91 
Q 1441 -91 1130 -33 
Q 819 25 488 141 
L 488 750 
Q 750 597 1062 519 
Q 1375 441 1716 441 
Q 2309 441 2620 675 
Q 2931 909 2931 1356 
Q 2931 1769 2642 2001 
Q 2353 2234 1838 2234 
L 1294 2234 
L 1294 2753 
L 1863 2753 
Q 2328 2753 2575 2939 
Q 2822 3125 2822 3475 
Q 2822 3834 2567 4026 
Q 2313 4219 1838 4219 
Q 1578 4219 1281 4162 
Q 984 4106 628 3988 
L 628 4550 
Q 988 4650 1302 4700 
Q 1616 4750 1894 4750 
Q 2613 4750 3031 4423 
Q 3450 4097 3450 3541 
Q 3450 3153 3228 2886 
Q 3006 2619 2597 2516 
z
" transform="scale(0.015625)"/>
       </defs>
       <use xlink:href="#DejaVuSans-33"/>
       <use xlink:href="#DejaVuSans-30" x="63.623047"/>
      </g>
     </g>
    </g>
   </g>
   <g id="matplotlib.axis_2">
    <g id="ytick_1">
     <g id="line2d_7">
      <defs>
       <path id="md6451ccde9" d="M 0 0 
L -3.5 0 
" style="stroke: #000000; stroke-width: 0.8"/>
      </defs>
      <g>
       <use xlink:href="#md6451ccde9" x="35.304688" y="272.396107" style="stroke: #000000; stroke-width: 0.8"/>
      </g>
     </g>
     <g id="text_7">
      <!-- −15 -->
      <g transform="translate(7.2 276.195326) scale(0.1 -0.1)">
       <defs>
        <path id="DejaVuSans-35" d="M 691 4666 
L 3169 4666 
L 3169 4134 
L 1269 4134 
L 1269 2991 
Q 1406 3038 1543 3061 
Q 1681 3084 1819 3084 
Q 2600 3084 3056 2656 
Q 3513 2228 3513 1497 
Q 3513 744 3044 326 
Q 2575 -91 1722 -91 
Q 1428 -91 1123 -41 
Q 819 9 494 109 
L 494 744 
Q 775 591 1075 516 
Q 1375 441 1709 441 
Q 2250 441 2565 725 
Q 2881 1009 2881 1497 
Q 2881 1984 2565 2268 
Q 2250 2553 1709 2553 
Q 1456 2553 1204 2497 
Q 953 2441 691 2322 
L 691 4666 
z
" transform="scale(0.015625)"/>
       </defs>
       <use xlink:href="#DejaVuSans-2212"/>
       <use xlink:href="#DejaVuSans-31" x="83.789062"/>
       <use xlink:href="#DejaVuSans-35" x="147.412109"/>
      </g>
     </g>
    </g>
    <g id="ytick_2">
     <g id="line2d_8">
      <g>
       <use xlink:href="#md6451ccde9" x="35.304688" y="239.721496" style="stroke: #000000; stroke-width: 0.8"/>
      </g>
     </g>
     <g id="text_8">
      <!-- −10 -->
      <g transform="translate(7.2 243.520715) scale(0.1 -0.1)">
       <use xlink:href="#DejaVuSans-2212"/>
       <use xlink:href="#DejaVuSans-31" x="83.789062"/>
       <use xlink:href="#DejaVuSans-30" x="147.412109"/>
      </g>
     </g>
    </g>
    <g id="ytick_3">
     <g id="line2d_9">
      <g>
       <use xlink:href="#md6451ccde9" x="35.304688" y="207.046885" style="stroke: #000000; stroke-width: 0.8"/>
      </g>
     </g>
     <g id="text_9">
      <!-- −5 -->
      <g transform="translate(13.5625 210.846104) scale(0.1 -0.1)">
       <use xlink:href="#DejaVuSans-2212"/>
       <use xlink:href="#DejaVuSans-35" x="83.789062"/>
      </g>
     </g>
    </g>
    <g id="ytick_4">
     <g id="line2d_10">
      <g>
       <use xlink:href="#md6451ccde9" x="35.304688" y="174.372274" style="stroke: #000000; stroke-width: 0.8"/>
      </g>
     </g>
     <g id="text_10">
      <!-- 0 -->
      <g transform="translate(21.942187 178.171493) scale(0.1 -0.1)">
       <use xlink:href="#DejaVuSans-30"/>
      </g>
     </g>
    </g>
    <g id="ytick_5">
     <g id="line2d_11">
      <g>
       <use xlink:href="#md6451ccde9" x="35.304688" y="141.697663" style="stroke: #000000; stroke-width: 0.8"/>
      </g>
     </g>
     <g id="text_11">
      <!-- 5 -->
      <g transform="translate(21.942187 145.496882) scale(0.1 -0.1)">
       <use xlink:href="#DejaVuSans-35"/>
      </g>
     </g>
    </g>
    <g id="ytick_6">
     <g id="line2d_12">
      <g>
       <use xlink:href="#md6451ccde9" x="35.304688" y="109.023052" style="stroke: #000000; stroke-width: 0.8"/>
      </g>
     </g>
     <g id="text_12">
      <!-- 10 -->
      <g transform="translate(15.579687 112.822271) scale(0.1 -0.1)">
       <use xlink:href="#DejaVuSans-31"/>
       <use xlink:href="#DejaVuSans-30" x="63.623047"/>
      </g>
     </g>
    </g>
    <g id="ytick_7">
     <g id="line2d_13">
      <g>
       <use xlink:href="#md6451ccde9" x="35.304688" y="76.348441" style="stroke: #000000; stroke-width: 0.8"/>
      </g>
     </g>
     <g id="text_13">
      <!-- 15 -->
      <g transform="translate(15.579687 80.14766) scale(0.1 -0.1)">
       <use xlink:href="#DejaVuSans-31"/>
       <use xlink:href="#DejaVuSans-35" x="63.623047"/>
      </g>
     </g>
    </g>
    <g id="ytick_8">
     <g id="line2d_14">
      <g>
       <use xlink:href="#md6451ccde9" x="35.304688" y="43.67383" style="stroke: #000000; stroke-width: 0.8"/>
      </g>
     </g>
     <g id="text_14">
      <!-- 20 -->
      <g transform="translate(15.579687 47.473049) scale(0.1 -0.1)">
       <use xlink:href="#DejaVuSans-32"/>
       <use xlink:href="#DejaVuSans-30" x="63.623047"/>
      </g>
     </g>
    </g>
    <g id="ytick_9">
     <g id="line2d_15">
      <g>
       <use xlink:href="#md6451ccde9" x="35.304688" y="10.999219" style="stroke: #000000; stroke-width: 0.8"/>
      </g>
     </g>
     <g id="text_15">
      <!-- 25 -->
      <g transform="translate(15.579687 14.798437) scale(0.1 -0.1)">
       <use xlink:href="#DejaVuSans-32"/>
       <use xlink:href="#DejaVuSans-35" x="63.623047"/>
      </g>
     </g>
    </g>
   </g>
   <g id="patch_3">
    <path d="M 35.304688 273.404366 
L 35.304688 7.292366 
" style="fill: none; stroke: #000000; stroke-width: 0.8; stroke-linejoin: miter; stroke-linecap: square"/>
   </g>
   <g id="patch_4">
    <path d="M 392.424688 273.404366 
L 392.424688 7.292366 
" style="fill: none; stroke: #000000; stroke-width: 0.8; stroke-linejoin: miter; stroke-linecap: square"/>
   </g>
   <g id="patch_5">
    <path d="M 35.304688 273.404366 
L 392.424688 273.404366 
" style="fill: none; stroke: #000000; stroke-width: 0.8; stroke-linejoin: miter; stroke-linecap: square"/>
   </g>
   <g id="patch_6">
    <path d="M 35.304688 7.292366 
L 392.424688 7.292366 
" style="fill: none; stroke: #000000; stroke-width: 0.8; stroke-linejoin: miter; stroke-linecap: square"/>
   </g>
  </g>
 </g>
 <defs>
  <clipPath id="p8c18047697">
   <rect x="35.304688" y="7.292366" width="357.12" height="266.112"/>
  </clipPath>
 </defs>
</svg>
