<?xml version="1.0" encoding="utf-8" standalone="no"?>
<!DOCTYPE svg PUBLIC "-//W3C//DTD SVG 1.1//EN"
  "http://www.w3.org/Graphics/SVG/1.1/DTD/svg11.dtd">
<svg xmlns:xlink="http://www.w3.org/1999/xlink" width="399.624687pt" height="297.190125pt" viewBox="0 0 399.624687 297.190125" xmlns="http://www.w3.org/2000/svg" version="1.1">
 <metadata>
  <rdf:RDF xmlns:dc="http://purl.org/dc/elements/1.1/" xmlns:cc="http://creativecommons.org/ns#" xmlns:rdf="http://www.w3.org/1999/02/22-rdf-syntax-ns#">
   <cc:Work>
    <dc:type rdf:resource="http://purl.org/dc/dcmitype/StillImage"/>
    <dc:date>2023-11-12T15:44:54.046126</dc:date>
    <dc:format>image/svg+xml</dc:format>
    <dc:creator>
     <cc:Agent>
      <dc:title>Matplotlib v3.8.0, https://matplotlib.org/</dc:title>
     </cc:Agent>
    </dc:creator>
   </cc:Work>
  </rdf:RDF>
 </metadata>
 <defs>
  <style type="text/css">*{stroke-linejoin: round; stroke-linecap: butt}</style>
 </defs>
 <g id="figure_1">
  <g id="patch_1">
   <path d="M 0 297.190125 
L 399.624687 297.190125 
L 399.624687 0 
L 0 0 
z
" style="fill: #ffffff"/>
  </g>
  <g id="axes_1">
   <g id="patch_2">
    <path d="M 35.304688 273.312 
L 392.424688 273.312 
L 392.424688 7.2 
L 35.304688 7.2 
z
" style="fill: #ffffff"/>
   </g>
   <g id="PathCollection_1">
    <defs>
     <path id="mcfde706226" d="M 0 1.5 
C 0.397805 1.5 0.77937 1.341951 1.06066 1.06066 
C 1.341951 0.77937 1.5 0.397805 1.5 0 
C 1.5 -0.397805 1.341951 -0.77937 1.06066 -1.06066 
C 0.77937 -1.341951 0.397805 -1.5 0 -1.5 
C -0.397805 -1.5 -0.77937 -1.341951 -1.06066 -1.06066 
C -1.341951 -0.77937 -1.5 -0.397805 -1.5 0 
C -1.5 0.397805 -1.341951 0.77937 -1.06066 1.06066 
C -0.77937 1.341951 -0.397805 1.5 0 1.5 
z
" style="stroke: #ff8c00"/>
    </defs>
    <g clip-path="url(#pbde945ea46)">
     <use xlink:href="#mcfde706226" x="187.310044" y="140.888895" style="fill: #ff8c00; stroke: #ff8c00"/>
     <use xlink:href="#mcfde706226" x="207.638775" y="122.371997" style="fill: #ff8c00; stroke: #ff8c00"/>
     <use xlink:href="#mcfde706226" x="162.618152" y="194.967236" style="fill: #ff8c00; stroke: #ff8c00"/>
     <use xlink:href="#mcfde706226" x="176.836955" y="148.44254" style="fill: #ff8c00; stroke: #ff8c00"/>
     <use xlink:href="#mcfde706226" x="228.267701" y="77.580831" style="fill: #ff8c00; stroke: #ff8c00"/>
     <use xlink:href="#mcfde706226" x="154.076516" y="124.100813" style="fill: #ff8c00; stroke: #ff8c00"/>
     <use xlink:href="#mcfde706226" x="175.772859" y="175.198165" style="fill: #ff8c00; stroke: #ff8c00"/>
     <use xlink:href="#mcfde706226" x="211.291269" y="151.964892" style="fill: #ff8c00; stroke: #ff8c00"/>
     <use xlink:href="#mcfde706226" x="223.1644" y="139.190243" style="fill: #ff8c00; stroke: #ff8c00"/>
     <use xlink:href="#mcfde706226" x="169.565883" y="159.58574" style="fill: #ff8c00; stroke: #ff8c00"/>
     <use xlink:href="#mcfde706226" x="106.75838" y="148.374649" style="fill: #ff8c00; stroke: #ff8c00"/>
     <use xlink:href="#mcfde706226" x="193.573436" y="184.815992" style="fill: #ff8c00; stroke: #ff8c00"/>
     <use xlink:href="#mcfde706226" x="190.655622" y="171.094025" style="fill: #ff8c00; stroke: #ff8c00"/>
     <use xlink:href="#mcfde706226" x="222.391576" y="176.458189" style="fill: #ff8c00; stroke: #ff8c00"/>
    </g>
   </g>
   <g id="PathCollection_2">
    <defs>
     <path id="m4d063ba646" d="M 0 1.5 
C 0.397805 1.5 0.77937 1.341951 1.06066 1.06066 
C 1.341951 0.77937 1.5 0.397805 1.5 0 
C 1.5 -0.397805 1.341951 -0.77937 1.06066 -1.06066 
C 0.77937 -1.341951 0.397805 -1.5 0 -1.5 
C -0.397805 -1.5 -0.77937 -1.341951 -1.06066 -1.06066 
C -1.341951 -0.77937 -1.5 -0.397805 -1.5 0 
C -1.5 0.397805 -1.341951 0.77937 -1.06066 1.06066 
C -0.77937 1.341951 -0.397805 1.5 0 1.5 
z
" style="stroke: #006400"/>
    </defs>
    <g clip-path="url(#pbde945ea46)">
     <use xlink:href="#m4d063ba646" x="369.113314" y="131.516832" style="fill: #006400; stroke: #006400"/>
     <use xlink:href="#m4d063ba646" x="325.967166" y="58.536055" style="fill: #006400; stroke: #006400"/>
     <use xlink:href="#m4d063ba646" x="291.278966" y="91.714664" style="fill: #006400; stroke: #006400"/>
     <use xlink:href="#m4d063ba646" x="230.083064" y="108.027668" style="fill: #006400; stroke: #006400"/>
     <use xlink:href="#m4d063ba646" x="267.696229" y="173.973738" style="fill: #006400; stroke: #006400"/>
     <use xlink:href="#m4d063ba646" x="235.829471" y="179.507591" style="fill: #006400; stroke: #006400"/>
     <use xlink:href="#m4d063ba646" x="203.127293" y="134.913937" style="fill: #006400; stroke: #006400"/>
     <use xlink:href="#m4d063ba646" x="236.336302" y="122.679616" style="fill: #006400; stroke: #006400"/>
     <use xlink:href="#m4d063ba646" x="334.023898" y="151.063336" style="fill: #006400; stroke: #006400"/>
     <use xlink:href="#m4d063ba646" x="244.629168" y="158.053588" style="fill: #006400; stroke: #006400"/>
     <use xlink:href="#m4d063ba646" x="305.990135" y="19.296" style="fill: #006400; stroke: #006400"/>
     <use xlink:href="#m4d063ba646" x="302.343763" y="215.617107" style="fill: #006400; stroke: #006400"/>
    </g>
   </g>
   <g id="PathCollection_3">
    <defs>
     <path id="m2d318c418c" d="M 0 1.5 
C 0.397805 1.5 0.77937 1.341951 1.06066 1.06066 
C 1.341951 0.77937 1.5 0.397805 1.5 0 
C 1.5 -0.397805 1.341951 -0.77937 1.06066 -1.06066 
C 0.77937 -1.341951 0.397805 -1.5 0 -1.5 
C -0.397805 -1.5 -0.77937 -1.341951 -1.06066 -1.06066 
C -1.341951 -0.77937 -1.5 -0.397805 -1.5 0 
C -1.5 0.397805 -1.341951 0.77937 -1.06066 1.06066 
C -0.77937 1.341951 -0.397805 1.5 0 1.5 
z
" style="stroke: #2f4f4f"/>
    </defs>
    <g clip-path="url(#pbde945ea46)">
     <use xlink:href="#m2d318c418c" x="130.688877" y="231.632124" style="fill: #2f4f4f; stroke: #2f4f4f"/>
     <use xlink:href="#m2d318c418c" x="104.309133" y="196.367948" style="fill: #2f4f4f; stroke: #2f4f4f"/>
     <use xlink:href="#m2d318c418c" x="117.906471" y="198.59921" style="fill: #2f4f4f; stroke: #2f4f4f"/>
     <use xlink:href="#m2d318c418c" x="134.09002" y="211.597574" style="fill: #2f4f4f; stroke: #2f4f4f"/>
     <use xlink:href="#m2d318c418c" x="120.658838" y="190.006697" style="fill: #2f4f4f; stroke: #2f4f4f"/>
     <use xlink:href="#m2d318c418c" x="115.501231" y="183.716823" style="fill: #2f4f4f; stroke: #2f4f4f"/>
     <use xlink:href="#m2d318c418c" x="101.063968" y="182.719302" style="fill: #2f4f4f; stroke: #2f4f4f"/>
     <use xlink:href="#m2d318c418c" x="154.871181" y="226.914725" style="fill: #2f4f4f; stroke: #2f4f4f"/>
     <use xlink:href="#m2d318c418c" x="104.382022" y="234.062402" style="fill: #2f4f4f; stroke: #2f4f4f"/>
     <use xlink:href="#m2d318c418c" x="153.155169" y="234.666885" style="fill: #2f4f4f; stroke: #2f4f4f"/>
     <use xlink:href="#m2d318c418c" x="127.334782" y="205.28982" style="fill: #2f4f4f; stroke: #2f4f4f"/>
     <use xlink:href="#m2d318c418c" x="118.6343" y="236.160455" style="fill: #2f4f4f; stroke: #2f4f4f"/>
    </g>
   </g>
   <g id="PathCollection_4">
    <defs>
     <path id="mcff798e30f" d="M 0 1.5 
C 0.397805 1.5 0.77937 1.341951 1.06066 1.06066 
C 1.341951 0.77937 1.5 0.397805 1.5 0 
C 1.5 -0.397805 1.341951 -0.77937 1.06066 -1.06066 
C 0.77937 -1.341951 0.397805 -1.5 0 -1.5 
C -0.397805 -1.5 -0.77937 -1.341951 -1.06066 -1.06066 
C -1.341951 -0.77937 -1.5 -0.397805 -1.5 0 
C -1.5 0.397805 -1.341951 0.77937 -1.06066 1.06066 
C -0.77937 1.341951 -0.397805 1.5 0 1.5 
z
" style="stroke: #00bfff"/>
    </defs>
    <g clip-path="url(#pbde945ea46)">
     <use xlink:href="#mcff798e30f" x="132.551412" y="173.130743" style="fill: #00bfff; stroke: #00bfff"/>
     <use xlink:href="#mcff798e30f" x="102.254985" y="185.371" style="fill: #00bfff; stroke: #00bfff"/>
     <use xlink:href="#mcff798e30f" x="132.253613" y="202.288394" style="fill: #00bfff; stroke: #00bfff"/>
     <use xlink:href="#mcff798e30f" x="101.280856" y="113.331678" style="fill: #00bfff; stroke: #00bfff"/>
     <use xlink:href="#mcff798e30f" x="146.245577" y="179.100716" style="fill: #00bfff; stroke: #00bfff"/>
     <use xlink:href="#mcff798e30f" x="181.022325" y="203.688003" style="fill: #00bfff; stroke: #00bfff"/>
     <use xlink:href="#mcff798e30f" x="108.420388" y="155.070428" style="fill: #00bfff; stroke: #00bfff"/>
     <use xlink:href="#mcff798e30f" x="111.731267" y="171.13334" style="fill: #00bfff; stroke: #00bfff"/>
     <use xlink:href="#mcff798e30f" x="128.802778" y="158.71672" style="fill: #00bfff; stroke: #00bfff"/>
     <use xlink:href="#mcff798e30f" x="182.888728" y="155.127827" style="fill: #00bfff; stroke: #00bfff"/>
     <use xlink:href="#mcff798e30f" x="101.513261" y="169.018257" style="fill: #00bfff; stroke: #00bfff"/>
     <use xlink:href="#mcff798e30f" x="159.62496" y="169.939151" style="fill: #00bfff; stroke: #00bfff"/>
     <use xlink:href="#mcff798e30f" x="141.196129" y="179.617707" style="fill: #00bfff; stroke: #00bfff"/>
     <use xlink:href="#mcff798e30f" x="69.792309" y="170.009163" style="fill: #00bfff; stroke: #00bfff"/>
     <use xlink:href="#mcff798e30f" x="96.808917" y="173.789756" style="fill: #00bfff; stroke: #00bfff"/>
     <use xlink:href="#mcff798e30f" x="111.861628" y="141.776169" style="fill: #00bfff; stroke: #00bfff"/>
     <use xlink:href="#mcff798e30f" x="95.988832" y="155.094335" style="fill: #00bfff; stroke: #00bfff"/>
    </g>
   </g>
   <g id="PathCollection_5">
    <defs>
     <path id="m267575f201" d="M 0 1.5 
C 0.397805 1.5 0.77937 1.341951 1.06066 1.06066 
C 1.341951 0.77937 1.5 0.397805 1.5 0 
C 1.5 -0.397805 1.341951 -0.77937 1.06066 -1.06066 
C 0.77937 -1.341951 0.397805 -1.5 0 -1.5 
C -0.397805 -1.5 -0.77937 -1.341951 -1.06066 -1.06066 
C -1.341951 -0.77937 -1.5 -0.397805 -1.5 0 
C -1.5 0.397805 -1.341951 0.77937 -1.06066 1.06066 
C -0.77937 1.341951 -0.397805 1.5 0 1.5 
z
" style="stroke: #ffff00"/>
    </defs>
    <g clip-path="url(#pbde945ea46)">
     <use xlink:href="#m267575f201" x="104.685094" y="174.49738" style="fill: #ffff00; stroke: #ffff00"/>
     <use xlink:href="#m267575f201" x="214.169203" y="216.42223" style="fill: #ffff00; stroke: #ffff00"/>
     <use xlink:href="#m267575f201" x="116.64573" y="194.930769" style="fill: #ffff00; stroke: #ffff00"/>
     <use xlink:href="#m267575f201" x="138.101683" y="184.849459" style="fill: #ffff00; stroke: #ffff00"/>
     <use xlink:href="#m267575f201" x="91.971443" y="189.775554" style="fill: #ffff00; stroke: #ffff00"/>
     <use xlink:href="#m267575f201" x="146.487146" y="234.78398" style="fill: #ffff00; stroke: #ffff00"/>
     <use xlink:href="#m267575f201" x="104.011821" y="174.944902" style="fill: #ffff00; stroke: #ffff00"/>
     <use xlink:href="#m267575f201" x="157.87019" y="173.222348" style="fill: #ffff00; stroke: #ffff00"/>
     <use xlink:href="#m267575f201" x="113.976756" y="178.144715" style="fill: #ffff00; stroke: #ffff00"/>
     <use xlink:href="#m267575f201" x="118.953704" y="182.656978" style="fill: #ffff00; stroke: #ffff00"/>
     <use xlink:href="#m267575f201" x="102.107727" y="167.393938" style="fill: #ffff00; stroke: #ffff00"/>
     <use xlink:href="#m267575f201" x="148.711812" y="169.423298" style="fill: #ffff00; stroke: #ffff00"/>
     <use xlink:href="#m267575f201" x="124.466278" y="210.71451" style="fill: #ffff00; stroke: #ffff00"/>
     <use xlink:href="#m267575f201" x="96.518285" y="180.297113" style="fill: #ffff00; stroke: #ffff00"/>
     <use xlink:href="#m267575f201" x="137.977969" y="189.350928" style="fill: #ffff00; stroke: #ffff00"/>
    </g>
   </g>
   <g id="PathCollection_6">
    <defs>
     <path id="m0b14347430" d="M 0 1.5 
C 0.397805 1.5 0.77937 1.341951 1.06066 1.06066 
C 1.341951 0.77937 1.5 0.397805 1.5 0 
C 1.5 -0.397805 1.341951 -0.77937 1.06066 -1.06066 
C 0.77937 -1.341951 0.397805 -1.5 0 -1.5 
C -0.397805 -1.5 -0.77937 -1.341951 -1.06066 -1.06066 
C -1.341951 -0.77937 -1.5 -0.397805 -1.5 0 
C -1.5 0.397805 -1.341951 0.77937 -1.06066 1.06066 
C -0.77937 1.341951 -0.397805 1.5 0 1.5 
z
" style="stroke: #00ffff"/>
    </defs>
    <g clip-path="url(#pbde945ea46)">
     <use xlink:href="#m0b14347430" x="89.461598" y="162.02792" style="fill: #00ffff; stroke: #00ffff"/>
     <use xlink:href="#m0b14347430" x="143.854973" y="184.678091" style="fill: #00ffff; stroke: #00ffff"/>
     <use xlink:href="#m0b14347430" x="134.069396" y="148.467915" style="fill: #00ffff; stroke: #00ffff"/>
     <use xlink:href="#m0b14347430" x="117.864512" y="161.14939" style="fill: #00ffff; stroke: #00ffff"/>
     <use xlink:href="#m0b14347430" x="139.63008" y="183.886925" style="fill: #00ffff; stroke: #00ffff"/>
     <use xlink:href="#m0b14347430" x="134.744198" y="196.860689" style="fill: #00ffff; stroke: #00ffff"/>
     <use xlink:href="#m0b14347430" x="158.35967" y="185.571697" style="fill: #00ffff; stroke: #00ffff"/>
     <use xlink:href="#m0b14347430" x="100.686442" y="169.478123" style="fill: #00ffff; stroke: #00ffff"/>
     <use xlink:href="#m0b14347430" x="130.581305" y="170.422749" style="fill: #00ffff; stroke: #00ffff"/>
     <use xlink:href="#m0b14347430" x="136.96526" y="195.570326" style="fill: #00ffff; stroke: #00ffff"/>
     <use xlink:href="#m0b14347430" x="119.412079" y="162.029796" style="fill: #00ffff; stroke: #00ffff"/>
     <use xlink:href="#m0b14347430" x="165.895321" y="238.906326" style="fill: #00ffff; stroke: #00ffff"/>
     <use xlink:href="#m0b14347430" x="136.771575" y="194.405862" style="fill: #00ffff; stroke: #00ffff"/>
     <use xlink:href="#m0b14347430" x="87.77875" y="160.39747" style="fill: #00ffff; stroke: #00ffff"/>
     <use xlink:href="#m0b14347430" x="109.832078" y="184.472548" style="fill: #00ffff; stroke: #00ffff"/>
    </g>
   </g>
   <g id="PathCollection_7">
    <defs>
     <path id="m6ded7910c5" d="M 0 1.5 
C 0.397805 1.5 0.77937 1.341951 1.06066 1.06066 
C 1.341951 0.77937 1.5 0.397805 1.5 0 
C 1.5 -0.397805 1.341951 -0.77937 1.06066 -1.06066 
C 0.77937 -1.341951 0.397805 -1.5 0 -1.5 
C -0.397805 -1.5 -0.77937 -1.341951 -1.06066 -1.06066 
C -1.341951 -0.77937 -1.5 -0.397805 -1.5 0 
C -1.5 0.397805 -1.341951 0.77937 -1.06066 1.06066 
C -0.77937 1.341951 -0.397805 1.5 0 1.5 
z
" style="stroke: #0000ff"/>
    </defs>
    <g clip-path="url(#pbde945ea46)">
     <use xlink:href="#m6ded7910c5" x="164.052125" y="209.308479" style="fill: #0000ff; stroke: #0000ff"/>
     <use xlink:href="#m6ded7910c5" x="178.576842" y="204.903023" style="fill: #0000ff; stroke: #0000ff"/>
     <use xlink:href="#m6ded7910c5" x="179.311606" y="245.888281" style="fill: #0000ff; stroke: #0000ff"/>
     <use xlink:href="#m6ded7910c5" x="173.191221" y="203.826032" style="fill: #0000ff; stroke: #0000ff"/>
     <use xlink:href="#m6ded7910c5" x="145.412261" y="246.755198" style="fill: #0000ff; stroke: #0000ff"/>
     <use xlink:href="#m6ded7910c5" x="70.378032" y="170.005053" style="fill: #0000ff; stroke: #0000ff"/>
     <use xlink:href="#m6ded7910c5" x="106.954427" y="170.746485" style="fill: #0000ff; stroke: #0000ff"/>
     <use xlink:href="#m6ded7910c5" x="147.927763" y="159.423791" style="fill: #0000ff; stroke: #0000ff"/>
     <use xlink:href="#m6ded7910c5" x="144.485855" y="187.107786" style="fill: #0000ff; stroke: #0000ff"/>
     <use xlink:href="#m6ded7910c5" x="91.546011" y="227.330791" style="fill: #0000ff; stroke: #0000ff"/>
     <use xlink:href="#m6ded7910c5" x="158.81971" y="154.590934" style="fill: #0000ff; stroke: #0000ff"/>
     <use xlink:href="#m6ded7910c5" x="135.19628" y="172.418266" style="fill: #0000ff; stroke: #0000ff"/>
    </g>
   </g>
   <g id="PathCollection_8">
    <defs>
     <path id="mcf87e6e2c5" d="M 0 1.5 
C 0.397805 1.5 0.77937 1.341951 1.06066 1.06066 
C 1.341951 0.77937 1.5 0.397805 1.5 0 
C 1.5 -0.397805 1.341951 -0.77937 1.06066 -1.06066 
C 0.77937 -1.341951 0.397805 -1.5 0 -1.5 
C -0.397805 -1.5 -0.77937 -1.341951 -1.06066 -1.06066 
C -1.341951 -0.77937 -1.5 -0.397805 -1.5 0 
C -1.5 0.397805 -1.341951 0.77937 -1.06066 1.06066 
C -0.77937 1.341951 -0.397805 1.5 0 1.5 
z
" style="stroke: #dc143c"/>
    </defs>
    <g clip-path="url(#pbde945ea46)">
     <use xlink:href="#mcf87e6e2c5" x="232.658303" y="190.899771" style="fill: #dc143c; stroke: #dc143c"/>
     <use xlink:href="#mcf87e6e2c5" x="160.614749" y="171.795501" style="fill: #dc143c; stroke: #dc143c"/>
     <use xlink:href="#mcf87e6e2c5" x="121.356024" y="186.900866" style="fill: #dc143c; stroke: #dc143c"/>
     <use xlink:href="#mcf87e6e2c5" x="193.032904" y="167.842387" style="fill: #dc143c; stroke: #dc143c"/>
     <use xlink:href="#mcf87e6e2c5" x="180.160977" y="152.189982" style="fill: #dc143c; stroke: #dc143c"/>
     <use xlink:href="#mcf87e6e2c5" x="194.401147" y="88.555376" style="fill: #dc143c; stroke: #dc143c"/>
     <use xlink:href="#mcf87e6e2c5" x="236.079445" y="261.216" style="fill: #dc143c; stroke: #dc143c"/>
     <use xlink:href="#mcf87e6e2c5" x="160.977124" y="161.275624" style="fill: #dc143c; stroke: #dc143c"/>
     <use xlink:href="#mcf87e6e2c5" x="244.442731" y="156.827182" style="fill: #dc143c; stroke: #dc143c"/>
     <use xlink:href="#mcf87e6e2c5" x="177.219615" y="166.173321" style="fill: #dc143c; stroke: #dc143c"/>
    </g>
   </g>
   <g id="PathCollection_9">
    <defs>
     <path id="m46f87eb4b4" d="M 0 1.5 
C 0.397805 1.5 0.77937 1.341951 1.06066 1.06066 
C 1.341951 0.77937 1.5 0.397805 1.5 0 
C 1.5 -0.397805 1.341951 -0.77937 1.06066 -1.06066 
C 0.77937 -1.341951 0.397805 -1.5 0 -1.5 
C -0.397805 -1.5 -0.77937 -1.341951 -1.06066 -1.06066 
C -1.341951 -0.77937 -1.5 -0.397805 -1.5 0 
C -1.5 0.397805 -1.341951 0.77937 -1.06066 1.06066 
C -0.77937 1.341951 -0.397805 1.5 0 1.5 
z
" style="stroke: #ffe4c4"/>
    </defs>
    <g clip-path="url(#pbde945ea46)">
     <use xlink:href="#m46f87eb4b4" x="193.453752" y="233.281278" style="fill: #ffe4c4; stroke: #ffe4c4"/>
     <use xlink:href="#m46f87eb4b4" x="376.19196" y="204.961553" style="fill: #ffe4c4; stroke: #ffe4c4"/>
     <use xlink:href="#m46f87eb4b4" x="335.969383" y="218.426705" style="fill: #ffe4c4; stroke: #ffe4c4"/>
     <use xlink:href="#m46f87eb4b4" x="276.358481" y="166.722795" style="fill: #ffe4c4; stroke: #ffe4c4"/>
     <use xlink:href="#m46f87eb4b4" x="300.808639" y="206.952636" style="fill: #ffe4c4; stroke: #ffe4c4"/>
     <use xlink:href="#m46f87eb4b4" x="299.737676" y="78.342" style="fill: #ffe4c4; stroke: #ffe4c4"/>
     <use xlink:href="#m46f87eb4b4" x="306.273973" y="178.320006" style="fill: #ffe4c4; stroke: #ffe4c4"/>
     <use xlink:href="#m46f87eb4b4" x="256.542714" y="228.992936" style="fill: #ffe4c4; stroke: #ffe4c4"/>
     <use xlink:href="#m46f87eb4b4" x="274.307349" y="75.40387" style="fill: #ffe4c4; stroke: #ffe4c4"/>
     <use xlink:href="#m46f87eb4b4" x="211.686193" y="233.362452" style="fill: #ffe4c4; stroke: #ffe4c4"/>
     <use xlink:href="#m46f87eb4b4" x="254.996985" y="139.70479" style="fill: #ffe4c4; stroke: #ffe4c4"/>
     <use xlink:href="#m46f87eb4b4" x="205.225318" y="211.596516" style="fill: #ffe4c4; stroke: #ffe4c4"/>
     <use xlink:href="#m46f87eb4b4" x="337.944039" y="209.584552" style="fill: #ffe4c4; stroke: #ffe4c4"/>
     <use xlink:href="#m46f87eb4b4" x="260.875242" y="246.052011" style="fill: #ffe4c4; stroke: #ffe4c4"/>
     <use xlink:href="#m46f87eb4b4" x="277.503035" y="215.097539" style="fill: #ffe4c4; stroke: #ffe4c4"/>
     <use xlink:href="#m46f87eb4b4" x="275.19083" y="240.135903" style="fill: #ffe4c4; stroke: #ffe4c4"/>
     <use xlink:href="#m46f87eb4b4" x="290.148884" y="107.248855" style="fill: #ffe4c4; stroke: #ffe4c4"/>
     <use xlink:href="#m46f87eb4b4" x="351.967333" y="235.646313" style="fill: #ffe4c4; stroke: #ffe4c4"/>
     <use xlink:href="#m46f87eb4b4" x="189.366823" y="108.737824" style="fill: #ffe4c4; stroke: #ffe4c4"/>
     <use xlink:href="#m46f87eb4b4" x="288.932978" y="180.516765" style="fill: #ffe4c4; stroke: #ffe4c4"/>
     <use xlink:href="#m46f87eb4b4" x="209.687475" y="214.499107" style="fill: #ffe4c4; stroke: #ffe4c4"/>
    </g>
   </g>
   <g id="PathCollection_10">
    <defs>
     <path id="mbc433bc77d" d="M -2.99994 2.99994 
L 3.00006 2.99994 
L 3.00006 -3.00006 
L -2.99994 -3.00006 
z
" style="stroke: #000000"/>
    </defs>
    <g clip-path="url(#pbde945ea46)">
     <use xlink:href="#mbc433bc77d" x="171.676497" y="213.765936" style="stroke: #000000"/>
     <use xlink:href="#mbc433bc77d" x="94.795119" y="169.756682" style="stroke: #000000"/>
     <use xlink:href="#mbc433bc77d" x="85.110897" y="145.582146" style="stroke: #000000"/>
     <use xlink:href="#mbc433bc77d" x="145.353372" y="160.454155" style="stroke: #000000"/>
     <use xlink:href="#mbc433bc77d" x="168.223144" y="211.536278" style="stroke: #000000"/>
     <use xlink:href="#mbc433bc77d" x="173.576285" y="168.08037" style="stroke: #000000"/>
     <use xlink:href="#mbc433bc77d" x="131.590922" y="170.154854" style="stroke: #000000"/>
     <use xlink:href="#mbc433bc77d" x="174.405043" y="195.575763" style="stroke: #000000"/>
     <use xlink:href="#mbc433bc77d" x="109.3316" y="107.559088" style="stroke: #000000"/>
     <use xlink:href="#mbc433bc77d" x="180.820179" y="244.309776" style="stroke: #000000"/>
     <use xlink:href="#mbc433bc77d" x="166.125575" y="165.224857" style="stroke: #000000"/>
     <use xlink:href="#mbc433bc77d" x="102.657214" y="188.893962" style="stroke: #000000"/>
     <use xlink:href="#mbc433bc77d" x="105.782362" y="201.605731" style="stroke: #000000"/>
     <use xlink:href="#mbc433bc77d" x="103.693676" y="106.776759" style="stroke: #000000"/>
     <use xlink:href="#mbc433bc77d" x="171.288595" y="126.370016" style="stroke: #000000"/>
     <use xlink:href="#mbc433bc77d" x="185.997944" y="234.030546" style="stroke: #000000"/>
     <use xlink:href="#mbc433bc77d" x="140.600443" y="196.227165" style="stroke: #000000"/>
     <use xlink:href="#mbc433bc77d" x="77.669739" y="166.275314" style="stroke: #000000"/>
     <use xlink:href="#mbc433bc77d" x="106.071972" y="147.264655" style="stroke: #000000"/>
     <use xlink:href="#mbc433bc77d" x="119.110896" y="157.590341" style="stroke: #000000"/>
     <use xlink:href="#mbc433bc77d" x="109.565245" y="143.303639" style="stroke: #000000"/>
     <use xlink:href="#mbc433bc77d" x="119.210034" y="197.105104" style="stroke: #000000"/>
     <use xlink:href="#mbc433bc77d" x="140.986361" y="129.123022" style="stroke: #000000"/>
     <use xlink:href="#mbc433bc77d" x="78.231724" y="137.438407" style="stroke: #000000"/>
     <use xlink:href="#mbc433bc77d" x="74.541085" y="161.835481" style="stroke: #000000"/>
     <use xlink:href="#mbc433bc77d" x="130.341526" y="149.921412" style="stroke: #000000"/>
     <use xlink:href="#mbc433bc77d" x="199.158585" y="187.277182" style="stroke: #000000"/>
     <use xlink:href="#mbc433bc77d" x="106.39901" y="149.953037" style="stroke: #000000"/>
     <use xlink:href="#mbc433bc77d" x="95.528444" y="175.486153" style="stroke: #000000"/>
     <use xlink:href="#mbc433bc77d" x="170.226872" y="171.732599" style="stroke: #000000"/>
     <use xlink:href="#mbc433bc77d" x="129.721197" y="187.743226" style="stroke: #000000"/>
     <use xlink:href="#mbc433bc77d" x="122.911488" y="145.625807" style="stroke: #000000"/>
     <use xlink:href="#mbc433bc77d" x="170.852023" y="203.375379" style="stroke: #000000"/>
     <use xlink:href="#mbc433bc77d" x="118.16283" y="168.688794" style="stroke: #000000"/>
     <use xlink:href="#mbc433bc77d" x="114.573067" y="166.070083" style="stroke: #000000"/>
     <use xlink:href="#mbc433bc77d" x="115.82218" y="192.209614" style="stroke: #000000"/>
     <use xlink:href="#mbc433bc77d" x="124.10039" y="188.132563" style="stroke: #000000"/>
     <use xlink:href="#mbc433bc77d" x="125.426643" y="202.184442" style="stroke: #000000"/>
     <use xlink:href="#mbc433bc77d" x="162.253673" y="191.766607" style="stroke: #000000"/>
     <use xlink:href="#mbc433bc77d" x="230.029644" y="187.402737" style="stroke: #000000"/>
     <use xlink:href="#mbc433bc77d" x="115.531496" y="196.563927" style="stroke: #000000"/>
     <use xlink:href="#mbc433bc77d" x="116.017689" y="166.898096" style="stroke: #000000"/>
     <use xlink:href="#mbc433bc77d" x="51.537415" y="152.052365" style="stroke: #000000"/>
     <use xlink:href="#mbc433bc77d" x="98.570613" y="164.367415" style="stroke: #000000"/>
     <use xlink:href="#mbc433bc77d" x="122.622741" y="194.831815" style="stroke: #000000"/>
     <use xlink:href="#mbc433bc77d" x="127.210535" y="127.765726" style="stroke: #000000"/>
     <use xlink:href="#mbc433bc77d" x="69.955056" y="162.021882" style="stroke: #000000"/>
     <use xlink:href="#mbc433bc77d" x="64.162785" y="154.126791" style="stroke: #000000"/>
     <use xlink:href="#mbc433bc77d" x="135.412691" y="191.546868" style="stroke: #000000"/>
     <use xlink:href="#mbc433bc77d" x="151.26482" y="136.437722" style="stroke: #000000"/>
     <use xlink:href="#mbc433bc77d" x="153.534256" y="171.897741" style="stroke: #000000"/>
     <use xlink:href="#mbc433bc77d" x="106.694433" y="164.736474" style="stroke: #000000"/>
     <use xlink:href="#mbc433bc77d" x="169.006803" y="162.959245" style="stroke: #000000"/>
     <use xlink:href="#mbc433bc77d" x="87.650905" y="159.774807" style="stroke: #000000"/>
     <use xlink:href="#mbc433bc77d" x="106.79166" y="187.529323" style="stroke: #000000"/>
     <use xlink:href="#mbc433bc77d" x="175.138782" y="169.652456" style="stroke: #000000"/>
     <use xlink:href="#mbc433bc77d" x="121.364119" y="171.265767" style="stroke: #000000"/>
     <use xlink:href="#mbc433bc77d" x="199.518644" y="187.184027" style="stroke: #000000"/>
     <use xlink:href="#mbc433bc77d" x="130.157427" y="155.128851" style="stroke: #000000"/>
     <use xlink:href="#mbc433bc77d" x="82.494229" y="148.366304" style="stroke: #000000"/>
     <use xlink:href="#mbc433bc77d" x="62.457131" y="162.733044" style="stroke: #000000"/>
     <use xlink:href="#mbc433bc77d" x="127.40016" y="137.51731" style="stroke: #000000"/>
     <use xlink:href="#mbc433bc77d" x="129.230407" y="184.297016" style="stroke: #000000"/>
     <use xlink:href="#mbc433bc77d" x="94.291913" y="163.747231" style="stroke: #000000"/>
    </g>
   </g>
   <g id="PathCollection_11">
    <defs>
     <path id="m489ba695d9" d="M -3 -0 
L 3 3 
L 3 -3 
z
" style="stroke: #ff8c00"/>
    </defs>
    <g clip-path="url(#pbde945ea46)">
     <use xlink:href="#m489ba695d9" x="123.074315" y="188.386437" style="fill: #ff8c00; stroke: #ff8c00"/>
     <use xlink:href="#m489ba695d9" x="119.009209" y="176.443744" style="fill: #ff8c00; stroke: #ff8c00"/>
     <use xlink:href="#m489ba695d9" x="122.047016" y="185.566843" style="fill: #ff8c00; stroke: #ff8c00"/>
     <use xlink:href="#m489ba695d9" x="139.506068" y="127.972783" style="fill: #ff8c00; stroke: #ff8c00"/>
     <use xlink:href="#m489ba695d9" x="162.88493" y="204.029005" style="fill: #ff8c00; stroke: #ff8c00"/>
     <use xlink:href="#m489ba695d9" x="88.875482" y="162.729045" style="fill: #ff8c00; stroke: #ff8c00"/>
     <use xlink:href="#m489ba695d9" x="104.09454" y="171.015743" style="fill: #ff8c00; stroke: #ff8c00"/>
     <use xlink:href="#m489ba695d9" x="110.119301" y="173.603243" style="fill: #ff8c00; stroke: #ff8c00"/>
     <use xlink:href="#m489ba695d9" x="131.935319" y="202.675109" style="fill: #ff8c00; stroke: #ff8c00"/>
     <use xlink:href="#m489ba695d9" x="77.807685" y="162.618694" style="fill: #ff8c00; stroke: #ff8c00"/>
     <use xlink:href="#m489ba695d9" x="97.225582" y="141.773746" style="fill: #ff8c00; stroke: #ff8c00"/>
     <use xlink:href="#m489ba695d9" x="110.627801" y="156.92397" style="fill: #ff8c00; stroke: #ff8c00"/>
     <use xlink:href="#m489ba695d9" x="102.547376" y="172.828647" style="fill: #ff8c00; stroke: #ff8c00"/>
     <use xlink:href="#m489ba695d9" x="125.210076" y="173.493954" style="fill: #ff8c00; stroke: #ff8c00"/>
     <use xlink:href="#m489ba695d9" x="98.961172" y="181.424029" style="fill: #ff8c00; stroke: #ff8c00"/>
     <use xlink:href="#m489ba695d9" x="178.276171" y="236.994944" style="fill: #ff8c00; stroke: #ff8c00"/>
     <use xlink:href="#m489ba695d9" x="101.63931" y="165.219497" style="fill: #ff8c00; stroke: #ff8c00"/>
     <use xlink:href="#m489ba695d9" x="86.255632" y="157.520645" style="fill: #ff8c00; stroke: #ff8c00"/>
     <use xlink:href="#m489ba695d9" x="148.413082" y="174.865694" style="fill: #ff8c00; stroke: #ff8c00"/>
     <use xlink:href="#m489ba695d9" x="99.880877" y="151.385592" style="fill: #ff8c00; stroke: #ff8c00"/>
     <use xlink:href="#m489ba695d9" x="115.158344" y="178.79577" style="fill: #ff8c00; stroke: #ff8c00"/>
     <use xlink:href="#m489ba695d9" x="115.657528" y="162.907074" style="fill: #ff8c00; stroke: #ff8c00"/>
     <use xlink:href="#m489ba695d9" x="94.121505" y="165.925818" style="fill: #ff8c00; stroke: #ff8c00"/>
     <use xlink:href="#m489ba695d9" x="100.142853" y="159.663002" style="fill: #ff8c00; stroke: #ff8c00"/>
     <use xlink:href="#m489ba695d9" x="122.769005" y="156.843524" style="fill: #ff8c00; stroke: #ff8c00"/>
     <use xlink:href="#m489ba695d9" x="117.224446" y="162.323068" style="fill: #ff8c00; stroke: #ff8c00"/>
     <use xlink:href="#m489ba695d9" x="106.727235" y="146.128332" style="fill: #ff8c00; stroke: #ff8c00"/>
     <use xlink:href="#m489ba695d9" x="112.815242" y="200.045214" style="fill: #ff8c00; stroke: #ff8c00"/>
     <use xlink:href="#m489ba695d9" x="103.014663" y="157.077363" style="fill: #ff8c00; stroke: #ff8c00"/>
     <use xlink:href="#m489ba695d9" x="166.846948" y="174.970516" style="fill: #ff8c00; stroke: #ff8c00"/>
     <use xlink:href="#m489ba695d9" x="122.854404" y="194.609327" style="fill: #ff8c00; stroke: #ff8c00"/>
     <use xlink:href="#m489ba695d9" x="160.382176" y="212.011077" style="fill: #ff8c00; stroke: #ff8c00"/>
     <use xlink:href="#m489ba695d9" x="104.306741" y="162.88807" style="fill: #ff8c00; stroke: #ff8c00"/>
     <use xlink:href="#m489ba695d9" x="134.855273" y="176.982875" style="fill: #ff8c00; stroke: #ff8c00"/>
     <use xlink:href="#m489ba695d9" x="118.775821" y="178.485078" style="fill: #ff8c00; stroke: #ff8c00"/>
     <use xlink:href="#m489ba695d9" x="131.606192" y="138.33131" style="fill: #ff8c00; stroke: #ff8c00"/>
     <use xlink:href="#m489ba695d9" x="153.121294" y="160.561041" style="fill: #ff8c00; stroke: #ff8c00"/>
     <use xlink:href="#m489ba695d9" x="157.921322" y="201.617523" style="fill: #ff8c00; stroke: #ff8c00"/>
     <use xlink:href="#m489ba695d9" x="130.226637" y="184.568962" style="fill: #ff8c00; stroke: #ff8c00"/>
     <use xlink:href="#m489ba695d9" x="115.467241" y="147.0215" style="fill: #ff8c00; stroke: #ff8c00"/>
     <use xlink:href="#m489ba695d9" x="160.081092" y="236.693753" style="fill: #ff8c00; stroke: #ff8c00"/>
     <use xlink:href="#m489ba695d9" x="131.713588" y="163.379632" style="fill: #ff8c00; stroke: #ff8c00"/>
     <use xlink:href="#m489ba695d9" x="92.015896" y="170.359914" style="fill: #ff8c00; stroke: #ff8c00"/>
     <use xlink:href="#m489ba695d9" x="154.178035" y="216.779603" style="fill: #ff8c00; stroke: #ff8c00"/>
     <use xlink:href="#m489ba695d9" x="105.439502" y="179.03597" style="fill: #ff8c00; stroke: #ff8c00"/>
     <use xlink:href="#m489ba695d9" x="103.145556" y="179.905862" style="fill: #ff8c00; stroke: #ff8c00"/>
     <use xlink:href="#m489ba695d9" x="107.913732" y="152.616197" style="fill: #ff8c00; stroke: #ff8c00"/>
     <use xlink:href="#m489ba695d9" x="95.416612" y="161.968189" style="fill: #ff8c00; stroke: #ff8c00"/>
     <use xlink:href="#m489ba695d9" x="138.858654" y="181.283515" style="fill: #ff8c00; stroke: #ff8c00"/>
     <use xlink:href="#m489ba695d9" x="96.460286" y="169.681651" style="fill: #ff8c00; stroke: #ff8c00"/>
     <use xlink:href="#m489ba695d9" x="99.955294" y="166.06953" style="fill: #ff8c00; stroke: #ff8c00"/>
     <use xlink:href="#m489ba695d9" x="196.293797" y="209.582306" style="fill: #ff8c00; stroke: #ff8c00"/>
     <use xlink:href="#m489ba695d9" x="134.080722" y="194.885922" style="fill: #ff8c00; stroke: #ff8c00"/>
     <use xlink:href="#m489ba695d9" x="129.118321" y="200.710659" style="fill: #ff8c00; stroke: #ff8c00"/>
     <use xlink:href="#m489ba695d9" x="108.304834" y="150.577321" style="fill: #ff8c00; stroke: #ff8c00"/>
     <use xlink:href="#m489ba695d9" x="64.495689" y="158.069159" style="fill: #ff8c00; stroke: #ff8c00"/>
     <use xlink:href="#m489ba695d9" x="134.309828" y="157.094413" style="fill: #ff8c00; stroke: #ff8c00"/>
     <use xlink:href="#m489ba695d9" x="57.135239" y="133.921292" style="fill: #ff8c00; stroke: #ff8c00"/>
     <use xlink:href="#m489ba695d9" x="128.614483" y="187.31625" style="fill: #ff8c00; stroke: #ff8c00"/>
     <use xlink:href="#m489ba695d9" x="96.669767" y="170.827657" style="fill: #ff8c00; stroke: #ff8c00"/>
     <use xlink:href="#m489ba695d9" x="126.657329" y="145.128353" style="fill: #ff8c00; stroke: #ff8c00"/>
     <use xlink:href="#m489ba695d9" x="113.068466" y="195.78531" style="fill: #ff8c00; stroke: #ff8c00"/>
     <use xlink:href="#m489ba695d9" x="116.829106" y="172.233452" style="fill: #ff8c00; stroke: #ff8c00"/>
     <use xlink:href="#m489ba695d9" x="154.936974" y="222.278632" style="fill: #ff8c00; stroke: #ff8c00"/>
    </g>
   </g>
   <g id="matplotlib.axis_1">
    <g id="xtick_1">
     <g id="line2d_1">
      <defs>
       <path id="m2865efb989" d="M 0 0 
L 0 3.5 
" style="stroke: #000000; stroke-width: 0.8"/>
      </defs>
      <g>
       <use xlink:href="#m2865efb989" x="65.549805" y="273.312" style="stroke: #000000; stroke-width: 0.8"/>
      </g>
     </g>
     <g id="text_1">
      <!-- −10 -->
      <g transform="translate(54.997461 287.910437) scale(0.1 -0.1)">
       <defs>
        <path id="DejaVuSans-2212" d="M 678 2272 
L 4684 2272 
L 4684 1741 
L 678 1741 
L 678 2272 
z
" transform="scale(0.015625)"/>
        <path id="DejaVuSans-31" d="M 794 531 
L 1825 531 
L 1825 4091 
L 703 3866 
L 703 4441 
L 1819 4666 
L 2450 4666 
L 2450 531 
L 3481 531 
L 3481 0 
L 794 0 
L 794 531 
z
" transform="scale(0.015625)"/>
        <path id="DejaVuSans-30" d="M 2034 4250 
Q 1547 4250 1301 3770 
Q 1056 3291 1056 2328 
Q 1056 1369 1301 889 
Q 1547 409 2034 409 
Q 2525 409 2770 889 
Q 3016 1369 3016 2328 
Q 3016 3291 2770 3770 
Q 2525 4250 2034 4250 
z
M 2034 4750 
Q 2819 4750 3233 4129 
Q 3647 3509 3647 2328 
Q 3647 1150 3233 529 
Q 2819 -91 2034 -91 
Q 1250 -91 836 529 
Q 422 1150 422 2328 
Q 422 3509 836 4129 
Q 1250 4750 2034 4750 
z
" transform="scale(0.015625)"/>
       </defs>
       <use xlink:href="#DejaVuSans-2212"/>
       <use xlink:href="#DejaVuSans-31" x="83.789062"/>
       <use xlink:href="#DejaVuSans-30" x="147.412109"/>
      </g>
     </g>
    </g>
    <g id="xtick_2">
     <g id="line2d_2">
      <g>
       <use xlink:href="#m2865efb989" x="108.055602" y="273.312" style="stroke: #000000; stroke-width: 0.8"/>
      </g>
     </g>
     <g id="text_2">
      <!-- −5 -->
      <g transform="translate(100.684509 287.910437) scale(0.1 -0.1)">
       <defs>
        <path id="DejaVuSans-35" d="M 691 4666 
L 3169 4666 
L 3169 4134 
L 1269 4134 
L 1269 2991 
Q 1406 3038 1543 3061 
Q 1681 3084 1819 3084 
Q 2600 3084 3056 2656 
Q 3513 2228 3513 1497 
Q 3513 744 3044 326 
Q 2575 -91 1722 -91 
Q 1428 -91 1123 -41 
Q 819 9 494 109 
L 494 744 
Q 775 591 1075 516 
Q 1375 441 1709 441 
Q 2250 441 2565 725 
Q 2881 1009 2881 1497 
Q 2881 1984 2565 2268 
Q 2250 2553 1709 2553 
Q 1456 2553 1204 2497 
Q 953 2441 691 2322 
L 691 4666 
z
" transform="scale(0.015625)"/>
       </defs>
       <use xlink:href="#DejaVuSans-2212"/>
       <use xlink:href="#DejaVuSans-35" x="83.789062"/>
      </g>
     </g>
    </g>
    <g id="xtick_3">
     <g id="line2d_3">
      <g>
       <use xlink:href="#m2865efb989" x="150.5614" y="273.312" style="stroke: #000000; stroke-width: 0.8"/>
      </g>
     </g>
     <g id="text_3">
      <!-- 0 -->
      <g transform="translate(147.38015 287.910437) scale(0.1 -0.1)">
       <use xlink:href="#DejaVuSans-30"/>
      </g>
     </g>
    </g>
    <g id="xtick_4">
     <g id="line2d_4">
      <g>
       <use xlink:href="#m2865efb989" x="193.067198" y="273.312" style="stroke: #000000; stroke-width: 0.8"/>
      </g>
     </g>
     <g id="text_4">
      <!-- 5 -->
      <g transform="translate(189.885948 287.910437) scale(0.1 -0.1)">
       <use xlink:href="#DejaVuSans-35"/>
      </g>
     </g>
    </g>
    <g id="xtick_5">
     <g id="line2d_5">
      <g>
       <use xlink:href="#m2865efb989" x="235.572996" y="273.312" style="stroke: #000000; stroke-width: 0.8"/>
      </g>
     </g>
     <g id="text_5">
      <!-- 10 -->
      <g transform="translate(229.210496 287.910437) scale(0.1 -0.1)">
       <use xlink:href="#DejaVuSans-31"/>
       <use xlink:href="#DejaVuSans-30" x="63.623047"/>
      </g>
     </g>
    </g>
    <g id="xtick_6">
     <g id="line2d_6">
      <g>
       <use xlink:href="#m2865efb989" x="278.078794" y="273.312" style="stroke: #000000; stroke-width: 0.8"/>
      </g>
     </g>
     <g id="text_6">
      <!-- 15 -->
      <g transform="translate(271.716294 287.910437) scale(0.1 -0.1)">
       <use xlink:href="#DejaVuSans-31"/>
       <use xlink:href="#DejaVuSans-35" x="63.623047"/>
      </g>
     </g>
    </g>
    <g id="xtick_7">
     <g id="line2d_7">
      <g>
       <use xlink:href="#m2865efb989" x="320.584591" y="273.312" style="stroke: #000000; stroke-width: 0.8"/>
      </g>
     </g>
     <g id="text_7">
      <!-- 20 -->
      <g transform="translate(314.222091 287.910437) scale(0.1 -0.1)">
       <defs>
        <path id="DejaVuSans-32" d="M 1228 531 
L 3431 531 
L 3431 0 
L 469 0 
L 469 531 
Q 828 903 1448 1529 
Q 2069 2156 2228 2338 
Q 2531 2678 2651 2914 
Q 2772 3150 2772 3378 
Q 2772 3750 2511 3984 
Q 2250 4219 1831 4219 
Q 1534 4219 1204 4116 
Q 875 4013 500 3803 
L 500 4441 
Q 881 4594 1212 4672 
Q 1544 4750 1819 4750 
Q 2544 4750 2975 4387 
Q 3406 4025 3406 3419 
Q 3406 3131 3298 2873 
Q 3191 2616 2906 2266 
Q 2828 2175 2409 1742 
Q 1991 1309 1228 531 
z
" transform="scale(0.015625)"/>
       </defs>
       <use xlink:href="#DejaVuSans-32"/>
       <use xlink:href="#DejaVuSans-30" x="63.623047"/>
      </g>
     </g>
    </g>
    <g id="xtick_8">
     <g id="line2d_8">
      <g>
       <use xlink:href="#m2865efb989" x="363.090389" y="273.312" style="stroke: #000000; stroke-width: 0.8"/>
      </g>
     </g>
     <g id="text_8">
      <!-- 25 -->
      <g transform="translate(356.727889 287.910437) scale(0.1 -0.1)">
       <use xlink:href="#DejaVuSans-32"/>
       <use xlink:href="#DejaVuSans-35" x="63.623047"/>
      </g>
     </g>
    </g>
   </g>
   <g id="matplotlib.axis_2">
    <g id="ytick_1">
     <g id="line2d_9">
      <defs>
       <path id="mb4674ce21c" d="M 0 0 
L -3.5 0 
" style="stroke: #000000; stroke-width: 0.8"/>
      </defs>
      <g>
       <use xlink:href="#mb4674ce21c" x="35.304688" y="264.035391" style="stroke: #000000; stroke-width: 0.8"/>
      </g>
     </g>
     <g id="text_9">
      <!-- −15 -->
      <g transform="translate(7.2 267.83461) scale(0.1 -0.1)">
       <use xlink:href="#DejaVuSans-2212"/>
       <use xlink:href="#DejaVuSans-31" x="83.789062"/>
       <use xlink:href="#DejaVuSans-35" x="147.412109"/>
      </g>
     </g>
    </g>
    <g id="ytick_2">
     <g id="line2d_10">
      <g>
       <use xlink:href="#mb4674ce21c" x="35.304688" y="234.108746" style="stroke: #000000; stroke-width: 0.8"/>
      </g>
     </g>
     <g id="text_10">
      <!-- −10 -->
      <g transform="translate(7.2 237.907965) scale(0.1 -0.1)">
       <use xlink:href="#DejaVuSans-2212"/>
       <use xlink:href="#DejaVuSans-31" x="83.789062"/>
       <use xlink:href="#DejaVuSans-30" x="147.412109"/>
      </g>
     </g>
    </g>
    <g id="ytick_3">
     <g id="line2d_11">
      <g>
       <use xlink:href="#mb4674ce21c" x="35.304688" y="204.182101" style="stroke: #000000; stroke-width: 0.8"/>
      </g>
     </g>
     <g id="text_11">
      <!-- −5 -->
      <g transform="translate(13.5625 207.98132) scale(0.1 -0.1)">
       <use xlink:href="#DejaVuSans-2212"/>
       <use xlink:href="#DejaVuSans-35" x="83.789062"/>
      </g>
     </g>
    </g>
    <g id="ytick_4">
     <g id="line2d_12">
      <g>
       <use xlink:href="#mb4674ce21c" x="35.304688" y="174.255456" style="stroke: #000000; stroke-width: 0.8"/>
      </g>
     </g>
     <g id="text_12">
      <!-- 0 -->
      <g transform="translate(21.942187 178.054675) scale(0.1 -0.1)">
       <use xlink:href="#DejaVuSans-30"/>
      </g>
     </g>
    </g>
    <g id="ytick_5">
     <g id="line2d_13">
      <g>
       <use xlink:href="#mb4674ce21c" x="35.304688" y="144.328811" style="stroke: #000000; stroke-width: 0.8"/>
      </g>
     </g>
     <g id="text_13">
      <!-- 5 -->
      <g transform="translate(21.942187 148.12803) scale(0.1 -0.1)">
       <use xlink:href="#DejaVuSans-35"/>
      </g>
     </g>
    </g>
    <g id="ytick_6">
     <g id="line2d_14">
      <g>
       <use xlink:href="#mb4674ce21c" x="35.304688" y="114.402166" style="stroke: #000000; stroke-width: 0.8"/>
      </g>
     </g>
     <g id="text_14">
      <!-- 10 -->
      <g transform="translate(15.579687 118.201385) scale(0.1 -0.1)">
       <use xlink:href="#DejaVuSans-31"/>
       <use xlink:href="#DejaVuSans-30" x="63.623047"/>
      </g>
     </g>
    </g>
    <g id="ytick_7">
     <g id="line2d_15">
      <g>
       <use xlink:href="#mb4674ce21c" x="35.304688" y="84.475521" style="stroke: #000000; stroke-width: 0.8"/>
      </g>
     </g>
     <g id="text_15">
      <!-- 15 -->
      <g transform="translate(15.579687 88.27474) scale(0.1 -0.1)">
       <use xlink:href="#DejaVuSans-31"/>
       <use xlink:href="#DejaVuSans-35" x="63.623047"/>
      </g>
     </g>
    </g>
    <g id="ytick_8">
     <g id="line2d_16">
      <g>
       <use xlink:href="#mb4674ce21c" x="35.304688" y="54.548876" style="stroke: #000000; stroke-width: 0.8"/>
      </g>
     </g>
     <g id="text_16">
      <!-- 20 -->
      <g transform="translate(15.579687 58.348095) scale(0.1 -0.1)">
       <use xlink:href="#DejaVuSans-32"/>
       <use xlink:href="#DejaVuSans-30" x="63.623047"/>
      </g>
     </g>
    </g>
    <g id="ytick_9">
     <g id="line2d_17">
      <g>
       <use xlink:href="#mb4674ce21c" x="35.304688" y="24.622231" style="stroke: #000000; stroke-width: 0.8"/>
      </g>
     </g>
     <g id="text_17">
      <!-- 25 -->
      <g transform="translate(15.579687 28.42145) scale(0.1 -0.1)">
       <use xlink:href="#DejaVuSans-32"/>
       <use xlink:href="#DejaVuSans-35" x="63.623047"/>
      </g>
     </g>
    </g>
   </g>
   <g id="patch_3">
    <path d="M 35.304688 273.312 
L 35.304688 7.2 
" style="fill: none; stroke: #000000; stroke-width: 0.8; stroke-linejoin: miter; stroke-linecap: square"/>
   </g>
   <g id="patch_4">
    <path d="M 392.424688 273.312 
L 392.424688 7.2 
" style="fill: none; stroke: #000000; stroke-width: 0.8; stroke-linejoin: miter; stroke-linecap: square"/>
   </g>
   <g id="patch_5">
    <path d="M 35.304687 273.312 
L 392.424688 273.312 
" style="fill: none; stroke: #000000; stroke-width: 0.8; stroke-linejoin: miter; stroke-linecap: square"/>
   </g>
   <g id="patch_6">
    <path d="M 35.304687 7.2 
L 392.424688 7.2 
" style="fill: none; stroke: #000000; stroke-width: 0.8; stroke-linejoin: miter; stroke-linecap: square"/>
   </g>
  </g>
 </g>
 <defs>
  <clipPath id="pbde945ea46">
   <rect x="35.304688" y="7.2" width="357.12" height="266.112"/>
  </clipPath>
 </defs>
</svg>
