<?xml version="1.0" encoding="utf-8" standalone="no"?>
<!DOCTYPE svg PUBLIC "-//W3C//DTD SVG 1.1//EN"
  "http://www.w3.org/Graphics/SVG/1.1/DTD/svg11.dtd">
<svg xmlns:xlink="http://www.w3.org/1999/xlink" width="391.245pt" height="297.190125pt" viewBox="0 0 391.245 297.190125" xmlns="http://www.w3.org/2000/svg" version="1.1">
 <metadata>
  <rdf:RDF xmlns:dc="http://purl.org/dc/elements/1.1/" xmlns:cc="http://creativecommons.org/ns#" xmlns:rdf="http://www.w3.org/1999/02/22-rdf-syntax-ns#">
   <cc:Work>
    <dc:type rdf:resource="http://purl.org/dc/dcmitype/StillImage"/>
    <dc:date>2023-11-13T02:56:13.086262</dc:date>
    <dc:format>image/svg+xml</dc:format>
    <dc:creator>
     <cc:Agent>
      <dc:title>Matplotlib v3.8.0, https://matplotlib.org/</dc:title>
     </cc:Agent>
    </dc:creator>
   </cc:Work>
  </rdf:RDF>
 </metadata>
 <defs>
  <style type="text/css">*{stroke-linejoin: round; stroke-linecap: butt}</style>
 </defs>
 <g id="figure_1">
  <g id="patch_1">
   <path d="M 0 297.190125 
L 391.245 297.190125 
L 391.245 0 
L 0 0 
z
" style="fill: #ffffff"/>
  </g>
  <g id="axes_1">
   <g id="patch_2">
    <path d="M 26.925 273.312 
L 384.045 273.312 
L 384.045 7.2 
L 26.925 7.2 
z
" style="fill: #ffffff"/>
   </g>
   <g id="PathCollection_1">
    <defs>
     <path id="mc72298dc74" d="M 0 1.5 
C 0.397805 1.5 0.77937 1.341951 1.06066 1.06066 
C 1.341951 0.77937 1.5 0.397805 1.5 0 
C 1.5 -0.397805 1.341951 -0.77937 1.06066 -1.06066 
C 0.77937 -1.341951 0.397805 -1.5 0 -1.5 
C -0.397805 -1.5 -0.77937 -1.341951 -1.06066 -1.06066 
C -1.341951 -0.77937 -1.5 -0.397805 -1.5 0 
C -1.5 0.397805 -1.341951 0.77937 -1.06066 1.06066 
C -0.77937 1.341951 -0.397805 1.5 0 1.5 
z
" style="stroke: #ff8c00"/>
    </defs>
    <g clip-path="url(#p4712f12796)">
     <use xlink:href="#mc72298dc74" x="199.279469" y="243.041101" style="fill: #ff8c00; stroke: #ff8c00"/>
     <use xlink:href="#mc72298dc74" x="177.731597" y="246.911444" style="fill: #ff8c00; stroke: #ff8c00"/>
     <use xlink:href="#mc72298dc74" x="116.608759" y="250.619026" style="fill: #ff8c00; stroke: #ff8c00"/>
     <use xlink:href="#mc72298dc74" x="114.637106" y="249.090188" style="fill: #ff8c00; stroke: #ff8c00"/>
     <use xlink:href="#mc72298dc74" x="209.165624" y="240.003341" style="fill: #ff8c00; stroke: #ff8c00"/>
     <use xlink:href="#mc72298dc74" x="159.764712" y="238.56925" style="fill: #ff8c00; stroke: #ff8c00"/>
     <use xlink:href="#mc72298dc74" x="244.045496" y="234.975187" style="fill: #ff8c00; stroke: #ff8c00"/>
     <use xlink:href="#mc72298dc74" x="196.393678" y="252.74115" style="fill: #ff8c00; stroke: #ff8c00"/>
     <use xlink:href="#mc72298dc74" x="198.18611" y="234.672213" style="fill: #ff8c00; stroke: #ff8c00"/>
     <use xlink:href="#mc72298dc74" x="240.298544" y="215.344964" style="fill: #ff8c00; stroke: #ff8c00"/>
     <use xlink:href="#mc72298dc74" x="235.950652" y="249.457344" style="fill: #ff8c00; stroke: #ff8c00"/>
     <use xlink:href="#mc72298dc74" x="207.551187" y="254.056334" style="fill: #ff8c00; stroke: #ff8c00"/>
    </g>
   </g>
   <g id="PathCollection_2">
    <defs>
     <path id="m4bb82930ff" d="M 0 1.5 
C 0.397805 1.5 0.77937 1.341951 1.06066 1.06066 
C 1.341951 0.77937 1.5 0.397805 1.5 0 
C 1.5 -0.397805 1.341951 -0.77937 1.06066 -1.06066 
C 0.77937 -1.341951 0.397805 -1.5 0 -1.5 
C -0.397805 -1.5 -0.77937 -1.341951 -1.06066 -1.06066 
C -1.341951 -0.77937 -1.5 -0.397805 -1.5 0 
C -1.5 0.397805 -1.341951 0.77937 -1.06066 1.06066 
C -0.77937 1.341951 -0.397805 1.5 0 1.5 
z
" style="stroke: #006400"/>
    </defs>
    <g clip-path="url(#p4712f12796)">
     <use xlink:href="#m4bb82930ff" x="127.376017" y="199.408144" style="fill: #006400; stroke: #006400"/>
     <use xlink:href="#m4bb82930ff" x="137.353484" y="89.659294" style="fill: #006400; stroke: #006400"/>
     <use xlink:href="#m4bb82930ff" x="185.820262" y="183.439883" style="fill: #006400; stroke: #006400"/>
     <use xlink:href="#m4bb82930ff" x="160.818333" y="151.760602" style="fill: #006400; stroke: #006400"/>
     <use xlink:href="#m4bb82930ff" x="170.903054" y="205.115183" style="fill: #006400; stroke: #006400"/>
     <use xlink:href="#m4bb82930ff" x="158.509178" y="19.296" style="fill: #006400; stroke: #006400"/>
     <use xlink:href="#m4bb82930ff" x="156.213702" y="219.791632" style="fill: #006400; stroke: #006400"/>
     <use xlink:href="#m4bb82930ff" x="138.225948" y="214.607164" style="fill: #006400; stroke: #006400"/>
    </g>
   </g>
   <g id="PathCollection_3">
    <defs>
     <path id="m93398e5511" d="M 0 1.5 
C 0.397805 1.5 0.77937 1.341951 1.06066 1.06066 
C 1.341951 0.77937 1.5 0.397805 1.5 0 
C 1.5 -0.397805 1.341951 -0.77937 1.06066 -1.06066 
C 0.77937 -1.341951 0.397805 -1.5 0 -1.5 
C -0.397805 -1.5 -0.77937 -1.341951 -1.06066 -1.06066 
C -1.341951 -0.77937 -1.5 -0.397805 -1.5 0 
C -1.5 0.397805 -1.341951 0.77937 -1.06066 1.06066 
C -0.77937 1.341951 -0.397805 1.5 0 1.5 
z
" style="stroke: #2f4f4f"/>
    </defs>
    <g clip-path="url(#p4712f12796)">
     <use xlink:href="#m93398e5511" x="132.171866" y="247.571123" style="fill: #2f4f4f; stroke: #2f4f4f"/>
     <use xlink:href="#m93398e5511" x="207.020833" y="244.318384" style="fill: #2f4f4f; stroke: #2f4f4f"/>
     <use xlink:href="#m93398e5511" x="98.353873" y="245.78425" style="fill: #2f4f4f; stroke: #2f4f4f"/>
     <use xlink:href="#m93398e5511" x="78.004388" y="261.216" style="fill: #2f4f4f; stroke: #2f4f4f"/>
     <use xlink:href="#m93398e5511" x="187.000364" y="250.880389" style="fill: #2f4f4f; stroke: #2f4f4f"/>
     <use xlink:href="#m93398e5511" x="105.953231" y="256.629225" style="fill: #2f4f4f; stroke: #2f4f4f"/>
     <use xlink:href="#m93398e5511" x="148.742695" y="243.79534" style="fill: #2f4f4f; stroke: #2f4f4f"/>
     <use xlink:href="#m93398e5511" x="176.135741" y="238.830635" style="fill: #2f4f4f; stroke: #2f4f4f"/>
     <use xlink:href="#m93398e5511" x="146.180128" y="245.231715" style="fill: #2f4f4f; stroke: #2f4f4f"/>
     <use xlink:href="#m93398e5511" x="108.1041" y="248.063678" style="fill: #2f4f4f; stroke: #2f4f4f"/>
     <use xlink:href="#m93398e5511" x="83.415685" y="240.088593" style="fill: #2f4f4f; stroke: #2f4f4f"/>
     <use xlink:href="#m93398e5511" x="187.196851" y="245.923043" style="fill: #2f4f4f; stroke: #2f4f4f"/>
     <use xlink:href="#m93398e5511" x="146.149893" y="249.894685" style="fill: #2f4f4f; stroke: #2f4f4f"/>
     <use xlink:href="#m93398e5511" x="72.600533" y="236.90778" style="fill: #2f4f4f; stroke: #2f4f4f"/>
     <use xlink:href="#m93398e5511" x="132.974724" y="246.50464" style="fill: #2f4f4f; stroke: #2f4f4f"/>
     <use xlink:href="#m93398e5511" x="109.583887" y="232.185896" style="fill: #2f4f4f; stroke: #2f4f4f"/>
    </g>
   </g>
   <g id="PathCollection_4">
    <defs>
     <path id="m3e2dcb9433" d="M 0 1.5 
C 0.397805 1.5 0.77937 1.341951 1.06066 1.06066 
C 1.341951 0.77937 1.5 0.397805 1.5 0 
C 1.5 -0.397805 1.341951 -0.77937 1.06066 -1.06066 
C 0.77937 -1.341951 0.397805 -1.5 0 -1.5 
C -0.397805 -1.5 -0.77937 -1.341951 -1.06066 -1.06066 
C -1.341951 -0.77937 -1.5 -0.397805 -1.5 0 
C -1.5 0.397805 -1.341951 0.77937 -1.06066 1.06066 
C -0.77937 1.341951 -0.397805 1.5 0 1.5 
z
" style="stroke: #00bfff"/>
    </defs>
    <g clip-path="url(#p4712f12796)">
     <use xlink:href="#m3e2dcb9433" x="135.843343" y="240.049599" style="fill: #00bfff; stroke: #00bfff"/>
     <use xlink:href="#m3e2dcb9433" x="85.401605" y="224.756971" style="fill: #00bfff; stroke: #00bfff"/>
     <use xlink:href="#m3e2dcb9433" x="103.424964" y="243.838223" style="fill: #00bfff; stroke: #00bfff"/>
     <use xlink:href="#m3e2dcb9433" x="86.813098" y="247.419407" style="fill: #00bfff; stroke: #00bfff"/>
     <use xlink:href="#m3e2dcb9433" x="121.581864" y="241.935951" style="fill: #00bfff; stroke: #00bfff"/>
     <use xlink:href="#m3e2dcb9433" x="108.212396" y="222.954358" style="fill: #00bfff; stroke: #00bfff"/>
     <use xlink:href="#m3e2dcb9433" x="118.53486" y="244.417264" style="fill: #00bfff; stroke: #00bfff"/>
     <use xlink:href="#m3e2dcb9433" x="92.755723" y="230.382908" style="fill: #00bfff; stroke: #00bfff"/>
     <use xlink:href="#m3e2dcb9433" x="85.275916" y="256.431241" style="fill: #00bfff; stroke: #00bfff"/>
     <use xlink:href="#m3e2dcb9433" x="112.509794" y="242.367452" style="fill: #00bfff; stroke: #00bfff"/>
     <use xlink:href="#m3e2dcb9433" x="100.261102" y="235.523037" style="fill: #00bfff; stroke: #00bfff"/>
     <use xlink:href="#m3e2dcb9433" x="155.860694" y="230.857189" style="fill: #00bfff; stroke: #00bfff"/>
     <use xlink:href="#m3e2dcb9433" x="107.457676" y="237.894981" style="fill: #00bfff; stroke: #00bfff"/>
     <use xlink:href="#m3e2dcb9433" x="170.937102" y="246.634752" style="fill: #00bfff; stroke: #00bfff"/>
     <use xlink:href="#m3e2dcb9433" x="137.08242" y="236.404979" style="fill: #00bfff; stroke: #00bfff"/>
     <use xlink:href="#m3e2dcb9433" x="100.422923" y="237.181969" style="fill: #00bfff; stroke: #00bfff"/>
     <use xlink:href="#m3e2dcb9433" x="43.157727" y="248.80273" style="fill: #00bfff; stroke: #00bfff"/>
     <use xlink:href="#m3e2dcb9433" x="130.315821" y="249.967746" style="fill: #00bfff; stroke: #00bfff"/>
     <use xlink:href="#m3e2dcb9433" x="144.655111" y="248.562816" style="fill: #00bfff; stroke: #00bfff"/>
     <use xlink:href="#m3e2dcb9433" x="150.007303" y="225.776686" style="fill: #00bfff; stroke: #00bfff"/>
     <use xlink:href="#m3e2dcb9433" x="111.390668" y="233.223145" style="fill: #00bfff; stroke: #00bfff"/>
    </g>
   </g>
   <g id="PathCollection_5">
    <defs>
     <path id="mbb3e126305" d="M 0 1.5 
C 0.397805 1.5 0.77937 1.341951 1.06066 1.06066 
C 1.341951 0.77937 1.5 0.397805 1.5 0 
C 1.5 -0.397805 1.341951 -0.77937 1.06066 -1.06066 
C 0.77937 -1.341951 0.397805 -1.5 0 -1.5 
C -0.397805 -1.5 -0.77937 -1.341951 -1.06066 -1.06066 
C -1.341951 -0.77937 -1.5 -0.397805 -1.5 0 
C -1.5 0.397805 -1.341951 0.77937 -1.06066 1.06066 
C -0.77937 1.341951 -0.397805 1.5 0 1.5 
z
" style="stroke: #ffff00"/>
    </defs>
    <g clip-path="url(#p4712f12796)">
     <use xlink:href="#mbb3e126305" x="150.00351" y="244.023073" style="fill: #ffff00; stroke: #ffff00"/>
     <use xlink:href="#mbb3e126305" x="91.835944" y="246.062638" style="fill: #ffff00; stroke: #ffff00"/>
     <use xlink:href="#mbb3e126305" x="96.769011" y="236.455524" style="fill: #ffff00; stroke: #ffff00"/>
     <use xlink:href="#mbb3e126305" x="52.580479" y="231.386796" style="fill: #ffff00; stroke: #ffff00"/>
     <use xlink:href="#mbb3e126305" x="113.340755" y="244.107431" style="fill: #ffff00; stroke: #ffff00"/>
     <use xlink:href="#mbb3e126305" x="66.689848" y="248.89195" style="fill: #ffff00; stroke: #ffff00"/>
     <use xlink:href="#mbb3e126305" x="87.365846" y="254.171684" style="fill: #ffff00; stroke: #ffff00"/>
     <use xlink:href="#mbb3e126305" x="90.079598" y="240.137926" style="fill: #ffff00; stroke: #ffff00"/>
     <use xlink:href="#mbb3e126305" x="163.249705" y="224.342106" style="fill: #ffff00; stroke: #ffff00"/>
     <use xlink:href="#mbb3e126305" x="95.791466" y="247.102706" style="fill: #ffff00; stroke: #ffff00"/>
     <use xlink:href="#mbb3e126305" x="140.090766" y="235.214719" style="fill: #ffff00; stroke: #ffff00"/>
     <use xlink:href="#mbb3e126305" x="73.068513" y="254.779822" style="fill: #ffff00; stroke: #ffff00"/>
     <use xlink:href="#mbb3e126305" x="125.016433" y="240.474714" style="fill: #ffff00; stroke: #ffff00"/>
     <use xlink:href="#mbb3e126305" x="68.535757" y="242.586955" style="fill: #ffff00; stroke: #ffff00"/>
     <use xlink:href="#mbb3e126305" x="69.652176" y="247.600348" style="fill: #ffff00; stroke: #ffff00"/>
     <use xlink:href="#mbb3e126305" x="132.022788" y="229.27094" style="fill: #ffff00; stroke: #ffff00"/>
     <use xlink:href="#mbb3e126305" x="139.159168" y="241.824283" style="fill: #ffff00; stroke: #ffff00"/>
    </g>
   </g>
   <g id="PathCollection_6">
    <defs>
     <path id="mc54f607c24" d="M 0 1.5 
C 0.397805 1.5 0.77937 1.341951 1.06066 1.06066 
C 1.341951 0.77937 1.5 0.397805 1.5 0 
C 1.5 -0.397805 1.341951 -0.77937 1.06066 -1.06066 
C 0.77937 -1.341951 0.397805 -1.5 0 -1.5 
C -0.397805 -1.5 -0.77937 -1.341951 -1.06066 -1.06066 
C -1.341951 -0.77937 -1.5 -0.397805 -1.5 0 
C -1.5 0.397805 -1.341951 0.77937 -1.06066 1.06066 
C -0.77937 1.341951 -0.397805 1.5 0 1.5 
z
" style="stroke: #00ffff"/>
    </defs>
    <g clip-path="url(#p4712f12796)">
     <use xlink:href="#mc54f607c24" x="145.423397" y="235.7414" style="fill: #00ffff; stroke: #00ffff"/>
     <use xlink:href="#mc54f607c24" x="71.479181" y="228.859886" style="fill: #00ffff; stroke: #00ffff"/>
     <use xlink:href="#mc54f607c24" x="51.949456" y="230.880432" style="fill: #00ffff; stroke: #00ffff"/>
     <use xlink:href="#mc54f607c24" x="66.625902" y="235.436425" style="fill: #00ffff; stroke: #00ffff"/>
     <use xlink:href="#mc54f607c24" x="117.709156" y="240.454435" style="fill: #00ffff; stroke: #00ffff"/>
     <use xlink:href="#mc54f607c24" x="91.369224" y="228.692837" style="fill: #00ffff; stroke: #00ffff"/>
     <use xlink:href="#mc54f607c24" x="71.962121" y="256.124971" style="fill: #00ffff; stroke: #00ffff"/>
     <use xlink:href="#mc54f607c24" x="86.665367" y="222.772249" style="fill: #00ffff; stroke: #00ffff"/>
     <use xlink:href="#mc54f607c24" x="103.481004" y="237.402057" style="fill: #00ffff; stroke: #00ffff"/>
     <use xlink:href="#mc54f607c24" x="104.655755" y="242.770242" style="fill: #00ffff; stroke: #00ffff"/>
    </g>
   </g>
   <g id="PathCollection_7">
    <defs>
     <path id="mdd0b3c078f" d="M 0 1.5 
C 0.397805 1.5 0.77937 1.341951 1.06066 1.06066 
C 1.341951 0.77937 1.5 0.397805 1.5 0 
C 1.5 -0.397805 1.341951 -0.77937 1.06066 -1.06066 
C 0.77937 -1.341951 0.397805 -1.5 0 -1.5 
C -0.397805 -1.5 -0.77937 -1.341951 -1.06066 -1.06066 
C -1.341951 -0.77937 -1.5 -0.397805 -1.5 0 
C -1.5 0.397805 -1.341951 0.77937 -1.06066 1.06066 
C -0.77937 1.341951 -0.397805 1.5 0 1.5 
z
" style="stroke: #0000ff"/>
    </defs>
    <g clip-path="url(#p4712f12796)">
     <use xlink:href="#mdd0b3c078f" x="84.297344" y="228.715785" style="fill: #0000ff; stroke: #0000ff"/>
     <use xlink:href="#mdd0b3c078f" x="90.177219" y="234.610018" style="fill: #0000ff; stroke: #0000ff"/>
     <use xlink:href="#mdd0b3c078f" x="72.72422" y="236.382395" style="fill: #0000ff; stroke: #0000ff"/>
     <use xlink:href="#mdd0b3c078f" x="60.509031" y="239.745959" style="fill: #0000ff; stroke: #0000ff"/>
     <use xlink:href="#mdd0b3c078f" x="90.497384" y="232.957355" style="fill: #0000ff; stroke: #0000ff"/>
     <use xlink:href="#mdd0b3c078f" x="79.385936" y="226.117636" style="fill: #0000ff; stroke: #0000ff"/>
     <use xlink:href="#mdd0b3c078f" x="117.513829" y="221.609583" style="fill: #0000ff; stroke: #0000ff"/>
     <use xlink:href="#mdd0b3c078f" x="68.128589" y="242.427872" style="fill: #0000ff; stroke: #0000ff"/>
     <use xlink:href="#mdd0b3c078f" x="65.958565" y="248.842339" style="fill: #0000ff; stroke: #0000ff"/>
     <use xlink:href="#mdd0b3c078f" x="69.490784" y="219.096642" style="fill: #0000ff; stroke: #0000ff"/>
    </g>
   </g>
   <g id="PathCollection_8">
    <defs>
     <path id="mc83b7db274" d="M 0 1.5 
C 0.397805 1.5 0.77937 1.341951 1.06066 1.06066 
C 1.341951 0.77937 1.5 0.397805 1.5 0 
C 1.5 -0.397805 1.341951 -0.77937 1.06066 -1.06066 
C 0.77937 -1.341951 0.397805 -1.5 0 -1.5 
C -0.397805 -1.5 -0.77937 -1.341951 -1.06066 -1.06066 
C -1.341951 -0.77937 -1.5 -0.397805 -1.5 0 
C -1.5 0.397805 -1.341951 0.77937 -1.06066 1.06066 
C -0.77937 1.341951 -0.397805 1.5 0 1.5 
z
" style="stroke: #dc143c"/>
    </defs>
    <g clip-path="url(#p4712f12796)">
     <use xlink:href="#mc83b7db274" x="78.11721" y="241.430571" style="fill: #dc143c; stroke: #dc143c"/>
     <use xlink:href="#mc83b7db274" x="66.241551" y="240.050558" style="fill: #dc143c; stroke: #dc143c"/>
     <use xlink:href="#mc83b7db274" x="76.109507" y="239.235705" style="fill: #dc143c; stroke: #dc143c"/>
     <use xlink:href="#mc83b7db274" x="49.157774" y="234.903117" style="fill: #dc143c; stroke: #dc143c"/>
     <use xlink:href="#mc83b7db274" x="126.57005" y="237.661006" style="fill: #dc143c; stroke: #dc143c"/>
     <use xlink:href="#mc83b7db274" x="75.336705" y="244.932913" style="fill: #dc143c; stroke: #dc143c"/>
     <use xlink:href="#mc83b7db274" x="98.027009" y="210.642044" style="fill: #dc143c; stroke: #dc143c"/>
     <use xlink:href="#mc83b7db274" x="143.814379" y="241.505005" style="fill: #dc143c; stroke: #dc143c"/>
     <use xlink:href="#mc83b7db274" x="135.381876" y="222.339883" style="fill: #dc143c; stroke: #dc143c"/>
     <use xlink:href="#mc83b7db274" x="110.036021" y="232.207822" style="fill: #dc143c; stroke: #dc143c"/>
     <use xlink:href="#mc83b7db274" x="93.1352" y="246.145656" style="fill: #dc143c; stroke: #dc143c"/>
     <use xlink:href="#mc83b7db274" x="134.320055" y="227.007174" style="fill: #dc143c; stroke: #dc143c"/>
     <use xlink:href="#mc83b7db274" x="86.768076" y="253.61469" style="fill: #dc143c; stroke: #dc143c"/>
     <use xlink:href="#mc83b7db274" x="93.580085" y="217.898466" style="fill: #dc143c; stroke: #dc143c"/>
     <use xlink:href="#mc83b7db274" x="98.478099" y="212.31276" style="fill: #dc143c; stroke: #dc143c"/>
     <use xlink:href="#mc83b7db274" x="84.742599" y="241.740566" style="fill: #dc143c; stroke: #dc143c"/>
     <use xlink:href="#mc83b7db274" x="92.181335" y="244.508871" style="fill: #dc143c; stroke: #dc143c"/>
     <use xlink:href="#mc83b7db274" x="168.69626" y="241.505833" style="fill: #dc143c; stroke: #dc143c"/>
     <use xlink:href="#mc83b7db274" x="55.152654" y="241.212595" style="fill: #dc143c; stroke: #dc143c"/>
    </g>
   </g>
   <g id="PathCollection_9">
    <defs>
     <path id="m7c7da39222" d="M 0 1.5 
C 0.397805 1.5 0.77937 1.341951 1.06066 1.06066 
C 1.341951 0.77937 1.5 0.397805 1.5 0 
C 1.5 -0.397805 1.341951 -0.77937 1.06066 -1.06066 
C 0.77937 -1.341951 0.397805 -1.5 0 -1.5 
C -0.397805 -1.5 -0.77937 -1.341951 -1.06066 -1.06066 
C -1.341951 -0.77937 -1.5 -0.397805 -1.5 0 
C -1.5 0.397805 -1.341951 0.77937 -1.06066 1.06066 
C -0.77937 1.341951 -0.397805 1.5 0 1.5 
z
" style="stroke: #ffe4c4"/>
    </defs>
    <g clip-path="url(#p4712f12796)">
     <use xlink:href="#m7c7da39222" x="101.689524" y="223.708778" style="fill: #ffe4c4; stroke: #ffe4c4"/>
     <use xlink:href="#m7c7da39222" x="138.299158" y="209.91641" style="fill: #ffe4c4; stroke: #ffe4c4"/>
     <use xlink:href="#m7c7da39222" x="186.978467" y="128.469199" style="fill: #ffe4c4; stroke: #ffe4c4"/>
     <use xlink:href="#m7c7da39222" x="156.983967" y="218.237" style="fill: #ffe4c4; stroke: #ffe4c4"/>
     <use xlink:href="#m7c7da39222" x="137.169184" y="146.01802" style="fill: #ffe4c4; stroke: #ffe4c4"/>
     <use xlink:href="#m7c7da39222" x="205.349674" y="186.025436" style="fill: #ffe4c4; stroke: #ffe4c4"/>
     <use xlink:href="#m7c7da39222" x="119.973393" y="198.25328" style="fill: #ffe4c4; stroke: #ffe4c4"/>
     <use xlink:href="#m7c7da39222" x="144.724687" y="220.171946" style="fill: #ffe4c4; stroke: #ffe4c4"/>
     <use xlink:href="#m7c7da39222" x="127.750191" y="192.252179" style="fill: #ffe4c4; stroke: #ffe4c4"/>
     <use xlink:href="#m7c7da39222" x="132.167104" y="227.796838" style="fill: #ffe4c4; stroke: #ffe4c4"/>
     <use xlink:href="#m7c7da39222" x="167.216237" y="213.545968" style="fill: #ffe4c4; stroke: #ffe4c4"/>
     <use xlink:href="#m7c7da39222" x="131.2234" y="206.883622" style="fill: #ffe4c4; stroke: #ffe4c4"/>
     <use xlink:href="#m7c7da39222" x="191.194757" y="202.963641" style="fill: #ffe4c4; stroke: #ffe4c4"/>
     <use xlink:href="#m7c7da39222" x="173.36281" y="173.094801" style="fill: #ffe4c4; stroke: #ffe4c4"/>
     <use xlink:href="#m7c7da39222" x="129.784842" y="220.772055" style="fill: #ffe4c4; stroke: #ffe4c4"/>
    </g>
   </g>
   <g id="PathCollection_10">
    <defs>
     <path id="m377a2889e8" d="M -2.99994 2.99994 
L 3.00006 2.99994 
L 3.00006 -3.00006 
L -2.99994 -3.00006 
z
" style="stroke: #000000"/>
    </defs>
    <g clip-path="url(#p4712f12796)">
     <use xlink:href="#m377a2889e8" x="193.049202" y="243.497271" style="stroke: #000000"/>
     <use xlink:href="#m377a2889e8" x="171.506886" y="250.315633" style="stroke: #000000"/>
     <use xlink:href="#m377a2889e8" x="131.527061" y="244.175079" style="stroke: #000000"/>
     <use xlink:href="#m377a2889e8" x="185.999872" y="230.713109" style="stroke: #000000"/>
     <use xlink:href="#m377a2889e8" x="198.12979" y="241.337041" style="stroke: #000000"/>
     <use xlink:href="#m377a2889e8" x="278.235042" y="240.631683" style="stroke: #000000"/>
     <use xlink:href="#m377a2889e8" x="165.094706" y="244.557055" style="stroke: #000000"/>
     <use xlink:href="#m377a2889e8" x="197.754056" y="233.476794" style="stroke: #000000"/>
     <use xlink:href="#m377a2889e8" x="183.028282" y="236.637094" style="stroke: #000000"/>
     <use xlink:href="#m377a2889e8" x="219.716177" y="222.092342" style="stroke: #000000"/>
     <use xlink:href="#m377a2889e8" x="165.020395" y="237.038062" style="stroke: #000000"/>
     <use xlink:href="#m377a2889e8" x="313.780889" y="248.531948" style="stroke: #000000"/>
     <use xlink:href="#m377a2889e8" x="216.461947" y="244.157882" style="stroke: #000000"/>
     <use xlink:href="#m377a2889e8" x="300.166711" y="226.364117" style="stroke: #000000"/>
     <use xlink:href="#m377a2889e8" x="274.428395" y="239.547716" style="stroke: #000000"/>
     <use xlink:href="#m377a2889e8" x="216.500431" y="241.529697" style="stroke: #000000"/>
     <use xlink:href="#m377a2889e8" x="191.632399" y="245.536817" style="stroke: #000000"/>
     <use xlink:href="#m377a2889e8" x="249.680914" y="222.452484" style="stroke: #000000"/>
     <use xlink:href="#m377a2889e8" x="210.092711" y="234.464356" style="stroke: #000000"/>
     <use xlink:href="#m377a2889e8" x="209.170702" y="229.128627" style="stroke: #000000"/>
     <use xlink:href="#m377a2889e8" x="239.366859" y="245.982049" style="stroke: #000000"/>
     <use xlink:href="#m377a2889e8" x="250.723907" y="230.428453" style="stroke: #000000"/>
     <use xlink:href="#m377a2889e8" x="265.494101" y="236.43048" style="stroke: #000000"/>
     <use xlink:href="#m377a2889e8" x="148.252744" y="235.026441" style="stroke: #000000"/>
     <use xlink:href="#m377a2889e8" x="164.617115" y="230.936471" style="stroke: #000000"/>
     <use xlink:href="#m377a2889e8" x="264.507691" y="251.421787" style="stroke: #000000"/>
     <use xlink:href="#m377a2889e8" x="219.885211" y="242.489399" style="stroke: #000000"/>
     <use xlink:href="#m377a2889e8" x="244.325148" y="246.349869" style="stroke: #000000"/>
     <use xlink:href="#m377a2889e8" x="162.22709" y="241.359608" style="stroke: #000000"/>
     <use xlink:href="#m377a2889e8" x="199.24144" y="236.604753" style="stroke: #000000"/>
     <use xlink:href="#m377a2889e8" x="174.54462" y="235.902522" style="stroke: #000000"/>
     <use xlink:href="#m377a2889e8" x="218.738983" y="250.995203" style="stroke: #000000"/>
     <use xlink:href="#m377a2889e8" x="231.528371" y="246.545228" style="stroke: #000000"/>
     <use xlink:href="#m377a2889e8" x="197.633277" y="233.281251" style="stroke: #000000"/>
     <use xlink:href="#m377a2889e8" x="211.698199" y="231.94469" style="stroke: #000000"/>
     <use xlink:href="#m377a2889e8" x="277.480456" y="230.785296" style="stroke: #000000"/>
     <use xlink:href="#m377a2889e8" x="185.315919" y="240.942909" style="stroke: #000000"/>
     <use xlink:href="#m377a2889e8" x="269.695925" y="243.923397" style="stroke: #000000"/>
     <use xlink:href="#m377a2889e8" x="195.143596" y="244.739848" style="stroke: #000000"/>
     <use xlink:href="#m377a2889e8" x="251.573925" y="237.110806" style="stroke: #000000"/>
     <use xlink:href="#m377a2889e8" x="228.057914" y="249.674604" style="stroke: #000000"/>
     <use xlink:href="#m377a2889e8" x="233.236237" y="220.580113" style="stroke: #000000"/>
     <use xlink:href="#m377a2889e8" x="132.32215" y="242.309915" style="stroke: #000000"/>
     <use xlink:href="#m377a2889e8" x="219.124289" y="247.58882" style="stroke: #000000"/>
     <use xlink:href="#m377a2889e8" x="261.144252" y="243.765088" style="stroke: #000000"/>
     <use xlink:href="#m377a2889e8" x="208.868402" y="235.097077" style="stroke: #000000"/>
     <use xlink:href="#m377a2889e8" x="243.417046" y="246.001067" style="stroke: #000000"/>
     <use xlink:href="#m377a2889e8" x="233.131838" y="235.670089" style="stroke: #000000"/>
     <use xlink:href="#m377a2889e8" x="187.967827" y="253.059518" style="stroke: #000000"/>
     <use xlink:href="#m377a2889e8" x="233.541358" y="248.391426" style="stroke: #000000"/>
     <use xlink:href="#m377a2889e8" x="193.005639" y="239.199399" style="stroke: #000000"/>
     <use xlink:href="#m377a2889e8" x="227.904087" y="229.865759" style="stroke: #000000"/>
     <use xlink:href="#m377a2889e8" x="117.907717" y="221.178718" style="stroke: #000000"/>
     <use xlink:href="#m377a2889e8" x="210.443055" y="242.365549" style="stroke: #000000"/>
     <use xlink:href="#m377a2889e8" x="211.216091" y="241.870776" style="stroke: #000000"/>
     <use xlink:href="#m377a2889e8" x="206.60874" y="232.987261" style="stroke: #000000"/>
     <use xlink:href="#m377a2889e8" x="234.215187" y="247.074008" style="stroke: #000000"/>
     <use xlink:href="#m377a2889e8" x="226.736536" y="247.895905" style="stroke: #000000"/>
     <use xlink:href="#m377a2889e8" x="367.812273" y="227.849367" style="stroke: #000000"/>
     <use xlink:href="#m377a2889e8" x="198.389219" y="242.662217" style="stroke: #000000"/>
     <use xlink:href="#m377a2889e8" x="155.665601" y="240.600374" style="stroke: #000000"/>
     <use xlink:href="#m377a2889e8" x="185.317761" y="244.886659" style="stroke: #000000"/>
     <use xlink:href="#m377a2889e8" x="193.941366" y="244.29843" style="stroke: #000000"/>
     <use xlink:href="#m377a2889e8" x="208.120431" y="244.699155" style="stroke: #000000"/>
    </g>
   </g>
   <g id="PathCollection_11">
    <defs>
     <path id="m89ba65c6b8" d="M -3 -0 
L 3 3 
L 3 -3 
z
" style="stroke: #ff8c00"/>
    </defs>
    <g clip-path="url(#p4712f12796)">
     <use xlink:href="#m89ba65c6b8" x="195.14393" y="240.534758" style="fill: #ff8c00; stroke: #ff8c00"/>
     <use xlink:href="#m89ba65c6b8" x="190.001044" y="250.996738" style="fill: #ff8c00; stroke: #ff8c00"/>
     <use xlink:href="#m89ba65c6b8" x="137.377251" y="253.712999" style="fill: #ff8c00; stroke: #ff8c00"/>
     <use xlink:href="#m89ba65c6b8" x="181.643171" y="236.3324" style="fill: #ff8c00; stroke: #ff8c00"/>
     <use xlink:href="#m89ba65c6b8" x="215.204567" y="251.936369" style="fill: #ff8c00; stroke: #ff8c00"/>
     <use xlink:href="#m89ba65c6b8" x="153.496086" y="254.833678" style="fill: #ff8c00; stroke: #ff8c00"/>
     <use xlink:href="#m89ba65c6b8" x="96.680488" y="247.131386" style="fill: #ff8c00; stroke: #ff8c00"/>
     <use xlink:href="#m89ba65c6b8" x="169.27062" y="250.428158" style="fill: #ff8c00; stroke: #ff8c00"/>
     <use xlink:href="#m89ba65c6b8" x="189.329317" y="238.377119" style="fill: #ff8c00; stroke: #ff8c00"/>
     <use xlink:href="#m89ba65c6b8" x="163.791951" y="241.01807" style="fill: #ff8c00; stroke: #ff8c00"/>
     <use xlink:href="#m89ba65c6b8" x="107.630459" y="251.012497" style="fill: #ff8c00; stroke: #ff8c00"/>
     <use xlink:href="#m89ba65c6b8" x="185.658929" y="244.614771" style="fill: #ff8c00; stroke: #ff8c00"/>
     <use xlink:href="#m89ba65c6b8" x="117.315984" y="249.017253" style="fill: #ff8c00; stroke: #ff8c00"/>
     <use xlink:href="#m89ba65c6b8" x="147.799605" y="242.926294" style="fill: #ff8c00; stroke: #ff8c00"/>
     <use xlink:href="#m89ba65c6b8" x="186.940792" y="247.580044" style="fill: #ff8c00; stroke: #ff8c00"/>
     <use xlink:href="#m89ba65c6b8" x="121.99733" y="237.356175" style="fill: #ff8c00; stroke: #ff8c00"/>
     <use xlink:href="#m89ba65c6b8" x="73.443058" y="251.900965" style="fill: #ff8c00; stroke: #ff8c00"/>
     <use xlink:href="#m89ba65c6b8" x="189.614165" y="247.157571" style="fill: #ff8c00; stroke: #ff8c00"/>
     <use xlink:href="#m89ba65c6b8" x="227.095049" y="237.249667" style="fill: #ff8c00; stroke: #ff8c00"/>
     <use xlink:href="#m89ba65c6b8" x="238.363443" y="246.178443" style="fill: #ff8c00; stroke: #ff8c00"/>
     <use xlink:href="#m89ba65c6b8" x="157.854333" y="250.38338" style="fill: #ff8c00; stroke: #ff8c00"/>
     <use xlink:href="#m89ba65c6b8" x="159.782417" y="252.036915" style="fill: #ff8c00; stroke: #ff8c00"/>
     <use xlink:href="#m89ba65c6b8" x="163.831968" y="238.073907" style="fill: #ff8c00; stroke: #ff8c00"/>
     <use xlink:href="#m89ba65c6b8" x="177.083506" y="249.605078" style="fill: #ff8c00; stroke: #ff8c00"/>
     <use xlink:href="#m89ba65c6b8" x="174.596531" y="245.829114" style="fill: #ff8c00; stroke: #ff8c00"/>
     <use xlink:href="#m89ba65c6b8" x="258.68772" y="238.532818" style="fill: #ff8c00; stroke: #ff8c00"/>
     <use xlink:href="#m89ba65c6b8" x="133.631135" y="247.90996" style="fill: #ff8c00; stroke: #ff8c00"/>
     <use xlink:href="#m89ba65c6b8" x="139.154322" y="248.860596" style="fill: #ff8c00; stroke: #ff8c00"/>
     <use xlink:href="#m89ba65c6b8" x="139.011619" y="243.401299" style="fill: #ff8c00; stroke: #ff8c00"/>
     <use xlink:href="#m89ba65c6b8" x="132.345688" y="255.874629" style="fill: #ff8c00; stroke: #ff8c00"/>
     <use xlink:href="#m89ba65c6b8" x="188.065884" y="252.070273" style="fill: #ff8c00; stroke: #ff8c00"/>
     <use xlink:href="#m89ba65c6b8" x="178.338614" y="247.289242" style="fill: #ff8c00; stroke: #ff8c00"/>
     <use xlink:href="#m89ba65c6b8" x="231.202026" y="247.521229" style="fill: #ff8c00; stroke: #ff8c00"/>
     <use xlink:href="#m89ba65c6b8" x="150.142483" y="248.748531" style="fill: #ff8c00; stroke: #ff8c00"/>
     <use xlink:href="#m89ba65c6b8" x="237.862112" y="247.162452" style="fill: #ff8c00; stroke: #ff8c00"/>
     <use xlink:href="#m89ba65c6b8" x="191.389932" y="249.542574" style="fill: #ff8c00; stroke: #ff8c00"/>
     <use xlink:href="#m89ba65c6b8" x="286.025629" y="236.050984" style="fill: #ff8c00; stroke: #ff8c00"/>
     <use xlink:href="#m89ba65c6b8" x="142.580958" y="248.450189" style="fill: #ff8c00; stroke: #ff8c00"/>
     <use xlink:href="#m89ba65c6b8" x="204.089224" y="246.243464" style="fill: #ff8c00; stroke: #ff8c00"/>
     <use xlink:href="#m89ba65c6b8" x="120.067476" y="244.455748" style="fill: #ff8c00; stroke: #ff8c00"/>
     <use xlink:href="#m89ba65c6b8" x="102.692537" y="255.200244" style="fill: #ff8c00; stroke: #ff8c00"/>
     <use xlink:href="#m89ba65c6b8" x="191.190494" y="247.456181" style="fill: #ff8c00; stroke: #ff8c00"/>
     <use xlink:href="#m89ba65c6b8" x="156.7827" y="246.713551" style="fill: #ff8c00; stroke: #ff8c00"/>
     <use xlink:href="#m89ba65c6b8" x="142.08091" y="246.280608" style="fill: #ff8c00; stroke: #ff8c00"/>
     <use xlink:href="#m89ba65c6b8" x="185.09166" y="249.238359" style="fill: #ff8c00; stroke: #ff8c00"/>
     <use xlink:href="#m89ba65c6b8" x="197.524638" y="241.283223" style="fill: #ff8c00; stroke: #ff8c00"/>
     <use xlink:href="#m89ba65c6b8" x="168.716339" y="248.237579" style="fill: #ff8c00; stroke: #ff8c00"/>
     <use xlink:href="#m89ba65c6b8" x="138.18671" y="248.17587" style="fill: #ff8c00; stroke: #ff8c00"/>
     <use xlink:href="#m89ba65c6b8" x="104.977765" y="249.705694" style="fill: #ff8c00; stroke: #ff8c00"/>
     <use xlink:href="#m89ba65c6b8" x="117.426797" y="255.084855" style="fill: #ff8c00; stroke: #ff8c00"/>
     <use xlink:href="#m89ba65c6b8" x="170.990751" y="250.672906" style="fill: #ff8c00; stroke: #ff8c00"/>
     <use xlink:href="#m89ba65c6b8" x="224.801162" y="246.324955" style="fill: #ff8c00; stroke: #ff8c00"/>
     <use xlink:href="#m89ba65c6b8" x="158.453853" y="240.734524" style="fill: #ff8c00; stroke: #ff8c00"/>
     <use xlink:href="#m89ba65c6b8" x="176.317729" y="246.669828" style="fill: #ff8c00; stroke: #ff8c00"/>
     <use xlink:href="#m89ba65c6b8" x="264.37371" y="241.785881" style="fill: #ff8c00; stroke: #ff8c00"/>
     <use xlink:href="#m89ba65c6b8" x="134.328329" y="250.695204" style="fill: #ff8c00; stroke: #ff8c00"/>
     <use xlink:href="#m89ba65c6b8" x="168.139271" y="252.790679" style="fill: #ff8c00; stroke: #ff8c00"/>
     <use xlink:href="#m89ba65c6b8" x="154.95928" y="250.573122" style="fill: #ff8c00; stroke: #ff8c00"/>
     <use xlink:href="#m89ba65c6b8" x="118.569871" y="252.763622" style="fill: #ff8c00; stroke: #ff8c00"/>
     <use xlink:href="#m89ba65c6b8" x="196.479325" y="249.904806" style="fill: #ff8c00; stroke: #ff8c00"/>
     <use xlink:href="#m89ba65c6b8" x="109.742497" y="247.131824" style="fill: #ff8c00; stroke: #ff8c00"/>
     <use xlink:href="#m89ba65c6b8" x="163.118417" y="252.033595" style="fill: #ff8c00; stroke: #ff8c00"/>
     <use xlink:href="#m89ba65c6b8" x="100.489864" y="258.759343" style="fill: #ff8c00; stroke: #ff8c00"/>
     <use xlink:href="#m89ba65c6b8" x="207.861691" y="240.131435" style="fill: #ff8c00; stroke: #ff8c00"/>
    </g>
   </g>
   <g id="matplotlib.axis_1">
    <g id="xtick_1">
     <g id="line2d_1">
      <defs>
       <path id="m494cd6c594" d="M 0 0 
L 0 3.5 
" style="stroke: #000000; stroke-width: 0.8"/>
      </defs>
      <g>
       <use xlink:href="#m494cd6c594" x="88.495159" y="273.312" style="stroke: #000000; stroke-width: 0.8"/>
      </g>
     </g>
     <g id="text_1">
      <!-- −20 -->
      <g transform="translate(77.942815 287.910437) scale(0.1 -0.1)">
       <defs>
        <path id="DejaVuSans-2212" d="M 678 2272 
L 4684 2272 
L 4684 1741 
L 678 1741 
L 678 2272 
z
" transform="scale(0.015625)"/>
        <path id="DejaVuSans-32" d="M 1228 531 
L 3431 531 
L 3431 0 
L 469 0 
L 469 531 
Q 828 903 1448 1529 
Q 2069 2156 2228 2338 
Q 2531 2678 2651 2914 
Q 2772 3150 2772 3378 
Q 2772 3750 2511 3984 
Q 2250 4219 1831 4219 
Q 1534 4219 1204 4116 
Q 875 4013 500 3803 
L 500 4441 
Q 881 4594 1212 4672 
Q 1544 4750 1819 4750 
Q 2544 4750 2975 4387 
Q 3406 4025 3406 3419 
Q 3406 3131 3298 2873 
Q 3191 2616 2906 2266 
Q 2828 2175 2409 1742 
Q 1991 1309 1228 531 
z
" transform="scale(0.015625)"/>
        <path id="DejaVuSans-30" d="M 2034 4250 
Q 1547 4250 1301 3770 
Q 1056 3291 1056 2328 
Q 1056 1369 1301 889 
Q 1547 409 2034 409 
Q 2525 409 2770 889 
Q 3016 1369 3016 2328 
Q 3016 3291 2770 3770 
Q 2525 4250 2034 4250 
z
M 2034 4750 
Q 2819 4750 3233 4129 
Q 3647 3509 3647 2328 
Q 3647 1150 3233 529 
Q 2819 -91 2034 -91 
Q 1250 -91 836 529 
Q 422 1150 422 2328 
Q 422 3509 836 4129 
Q 1250 4750 2034 4750 
z
" transform="scale(0.015625)"/>
       </defs>
       <use xlink:href="#DejaVuSans-2212"/>
       <use xlink:href="#DejaVuSans-32" x="83.789062"/>
       <use xlink:href="#DejaVuSans-30" x="147.412109"/>
      </g>
     </g>
    </g>
    <g id="xtick_2">
     <g id="line2d_2">
      <g>
       <use xlink:href="#m494cd6c594" x="156.63747" y="273.312" style="stroke: #000000; stroke-width: 0.8"/>
      </g>
     </g>
     <g id="text_2">
      <!-- 0 -->
      <g transform="translate(153.45622 287.910437) scale(0.1 -0.1)">
       <use xlink:href="#DejaVuSans-30"/>
      </g>
     </g>
    </g>
    <g id="xtick_3">
     <g id="line2d_3">
      <g>
       <use xlink:href="#m494cd6c594" x="224.779782" y="273.312" style="stroke: #000000; stroke-width: 0.8"/>
      </g>
     </g>
     <g id="text_3">
      <!-- 20 -->
      <g transform="translate(218.417282 287.910437) scale(0.1 -0.1)">
       <use xlink:href="#DejaVuSans-32"/>
       <use xlink:href="#DejaVuSans-30" x="63.623047"/>
      </g>
     </g>
    </g>
    <g id="xtick_4">
     <g id="line2d_4">
      <g>
       <use xlink:href="#m494cd6c594" x="292.922093" y="273.312" style="stroke: #000000; stroke-width: 0.8"/>
      </g>
     </g>
     <g id="text_4">
      <!-- 40 -->
      <g transform="translate(286.559593 287.910437) scale(0.1 -0.1)">
       <defs>
        <path id="DejaVuSans-34" d="M 2419 4116 
L 825 1625 
L 2419 1625 
L 2419 4116 
z
M 2253 4666 
L 3047 4666 
L 3047 1625 
L 3713 1625 
L 3713 1100 
L 3047 1100 
L 3047 0 
L 2419 0 
L 2419 1100 
L 313 1100 
L 313 1709 
L 2253 4666 
z
" transform="scale(0.015625)"/>
       </defs>
       <use xlink:href="#DejaVuSans-34"/>
       <use xlink:href="#DejaVuSans-30" x="63.623047"/>
      </g>
     </g>
    </g>
    <g id="xtick_5">
     <g id="line2d_5">
      <g>
       <use xlink:href="#m494cd6c594" x="361.064405" y="273.312" style="stroke: #000000; stroke-width: 0.8"/>
      </g>
     </g>
     <g id="text_5">
      <!-- 60 -->
      <g transform="translate(354.701905 287.910437) scale(0.1 -0.1)">
       <defs>
        <path id="DejaVuSans-36" d="M 2113 2584 
Q 1688 2584 1439 2293 
Q 1191 2003 1191 1497 
Q 1191 994 1439 701 
Q 1688 409 2113 409 
Q 2538 409 2786 701 
Q 3034 994 3034 1497 
Q 3034 2003 2786 2293 
Q 2538 2584 2113 2584 
z
M 3366 4563 
L 3366 3988 
Q 3128 4100 2886 4159 
Q 2644 4219 2406 4219 
Q 1781 4219 1451 3797 
Q 1122 3375 1075 2522 
Q 1259 2794 1537 2939 
Q 1816 3084 2150 3084 
Q 2853 3084 3261 2657 
Q 3669 2231 3669 1497 
Q 3669 778 3244 343 
Q 2819 -91 2113 -91 
Q 1303 -91 875 529 
Q 447 1150 447 2328 
Q 447 3434 972 4092 
Q 1497 4750 2381 4750 
Q 2619 4750 2861 4703 
Q 3103 4656 3366 4563 
z
" transform="scale(0.015625)"/>
       </defs>
       <use xlink:href="#DejaVuSans-36"/>
       <use xlink:href="#DejaVuSans-30" x="63.623047"/>
      </g>
     </g>
    </g>
   </g>
   <g id="matplotlib.axis_2">
    <g id="ytick_1">
     <g id="line2d_6">
      <defs>
       <path id="m086ecc5477" d="M 0 0 
L -3.5 0 
" style="stroke: #000000; stroke-width: 0.8"/>
      </defs>
      <g>
       <use xlink:href="#m086ecc5477" x="26.925" y="236.462689" style="stroke: #000000; stroke-width: 0.8"/>
      </g>
     </g>
     <g id="text_6">
      <!-- 0 -->
      <g transform="translate(13.5625 240.261908) scale(0.1 -0.1)">
       <use xlink:href="#DejaVuSans-30"/>
      </g>
     </g>
    </g>
    <g id="ytick_2">
     <g id="line2d_7">
      <g>
       <use xlink:href="#m086ecc5477" x="26.925" y="185.348101" style="stroke: #000000; stroke-width: 0.8"/>
      </g>
     </g>
     <g id="text_7">
      <!-- 20 -->
      <g transform="translate(7.2 189.14732) scale(0.1 -0.1)">
       <use xlink:href="#DejaVuSans-32"/>
       <use xlink:href="#DejaVuSans-30" x="63.623047"/>
      </g>
     </g>
    </g>
    <g id="ytick_3">
     <g id="line2d_8">
      <g>
       <use xlink:href="#m086ecc5477" x="26.925" y="134.233512" style="stroke: #000000; stroke-width: 0.8"/>
      </g>
     </g>
     <g id="text_8">
      <!-- 40 -->
      <g transform="translate(7.2 138.032731) scale(0.1 -0.1)">
       <use xlink:href="#DejaVuSans-34"/>
       <use xlink:href="#DejaVuSans-30" x="63.623047"/>
      </g>
     </g>
    </g>
    <g id="ytick_4">
     <g id="line2d_9">
      <g>
       <use xlink:href="#m086ecc5477" x="26.925" y="83.118924" style="stroke: #000000; stroke-width: 0.8"/>
      </g>
     </g>
     <g id="text_9">
      <!-- 60 -->
      <g transform="translate(7.2 86.918142) scale(0.1 -0.1)">
       <use xlink:href="#DejaVuSans-36"/>
       <use xlink:href="#DejaVuSans-30" x="63.623047"/>
      </g>
     </g>
    </g>
    <g id="ytick_5">
     <g id="line2d_10">
      <g>
       <use xlink:href="#m086ecc5477" x="26.925" y="32.004335" style="stroke: #000000; stroke-width: 0.8"/>
      </g>
     </g>
     <g id="text_10">
      <!-- 80 -->
      <g transform="translate(7.2 35.803554) scale(0.1 -0.1)">
       <defs>
        <path id="DejaVuSans-38" d="M 2034 2216 
Q 1584 2216 1326 1975 
Q 1069 1734 1069 1313 
Q 1069 891 1326 650 
Q 1584 409 2034 409 
Q 2484 409 2743 651 
Q 3003 894 3003 1313 
Q 3003 1734 2745 1975 
Q 2488 2216 2034 2216 
z
M 1403 2484 
Q 997 2584 770 2862 
Q 544 3141 544 3541 
Q 544 4100 942 4425 
Q 1341 4750 2034 4750 
Q 2731 4750 3128 4425 
Q 3525 4100 3525 3541 
Q 3525 3141 3298 2862 
Q 3072 2584 2669 2484 
Q 3125 2378 3379 2068 
Q 3634 1759 3634 1313 
Q 3634 634 3220 271 
Q 2806 -91 2034 -91 
Q 1263 -91 848 271 
Q 434 634 434 1313 
Q 434 1759 690 2068 
Q 947 2378 1403 2484 
z
M 1172 3481 
Q 1172 3119 1398 2916 
Q 1625 2713 2034 2713 
Q 2441 2713 2670 2916 
Q 2900 3119 2900 3481 
Q 2900 3844 2670 4047 
Q 2441 4250 2034 4250 
Q 1625 4250 1398 4047 
Q 1172 3844 1172 3481 
z
" transform="scale(0.015625)"/>
       </defs>
       <use xlink:href="#DejaVuSans-38"/>
       <use xlink:href="#DejaVuSans-30" x="63.623047"/>
      </g>
     </g>
    </g>
   </g>
   <g id="patch_3">
    <path d="M 26.925 273.312 
L 26.925 7.2 
" style="fill: none; stroke: #000000; stroke-width: 0.8; stroke-linejoin: miter; stroke-linecap: square"/>
   </g>
   <g id="patch_4">
    <path d="M 384.045 273.312 
L 384.045 7.2 
" style="fill: none; stroke: #000000; stroke-width: 0.8; stroke-linejoin: miter; stroke-linecap: square"/>
   </g>
   <g id="patch_5">
    <path d="M 26.925 273.312 
L 384.045 273.312 
" style="fill: none; stroke: #000000; stroke-width: 0.8; stroke-linejoin: miter; stroke-linecap: square"/>
   </g>
   <g id="patch_6">
    <path d="M 26.925 7.2 
L 384.045 7.2 
" style="fill: none; stroke: #000000; stroke-width: 0.8; stroke-linejoin: miter; stroke-linecap: square"/>
   </g>
  </g>
 </g>
 <defs>
  <clipPath id="p4712f12796">
   <rect x="26.925" y="7.2" width="357.12" height="266.112"/>
  </clipPath>
 </defs>
</svg>
