<?xml version="1.0" encoding="utf-8" standalone="no"?>
<!DOCTYPE svg PUBLIC "-//W3C//DTD SVG 1.1//EN"
  "http://www.w3.org/Graphics/SVG/1.1/DTD/svg11.dtd">
<svg xmlns:xlink="http://www.w3.org/1999/xlink" width="399.624687pt" height="297.190125pt" viewBox="0 0 399.624687 297.190125" xmlns="http://www.w3.org/2000/svg" version="1.1">
 <metadata>
  <rdf:RDF xmlns:dc="http://purl.org/dc/elements/1.1/" xmlns:cc="http://creativecommons.org/ns#" xmlns:rdf="http://www.w3.org/1999/02/22-rdf-syntax-ns#">
   <cc:Work>
    <dc:type rdf:resource="http://purl.org/dc/dcmitype/StillImage"/>
    <dc:date>2023-11-13T20:17:08.200825</dc:date>
    <dc:format>image/svg+xml</dc:format>
    <dc:creator>
     <cc:Agent>
      <dc:title>Matplotlib v3.8.0, https://matplotlib.org/</dc:title>
     </cc:Agent>
    </dc:creator>
   </cc:Work>
  </rdf:RDF>
 </metadata>
 <defs>
  <style type="text/css">*{stroke-linejoin: round; stroke-linecap: butt}</style>
 </defs>
 <g id="figure_1">
  <g id="patch_1">
   <path d="M 0 297.190125 
L 399.624687 297.190125 
L 399.624687 0 
L 0 0 
z
" style="fill: #ffffff"/>
  </g>
  <g id="axes_1">
   <g id="patch_2">
    <path d="M 35.304688 273.312 
L 392.424688 273.312 
L 392.424688 7.2 
L 35.304688 7.2 
z
" style="fill: #ffffff"/>
   </g>
   <g id="PathCollection_1">
    <defs>
     <path id="m16ed13a5b0" d="M 0 1.5 
C 0.397805 1.5 0.77937 1.341951 1.06066 1.06066 
C 1.341951 0.77937 1.5 0.397805 1.5 0 
C 1.5 -0.397805 1.341951 -0.77937 1.06066 -1.06066 
C 0.77937 -1.341951 0.397805 -1.5 0 -1.5 
C -0.397805 -1.5 -0.77937 -1.341951 -1.06066 -1.06066 
C -1.341951 -0.77937 -1.5 -0.397805 -1.5 0 
C -1.5 0.397805 -1.341951 0.77937 -1.06066 1.06066 
C -0.77937 1.341951 -0.397805 1.5 0 1.5 
z
" style="stroke: #ff8c00"/>
    </defs>
    <g clip-path="url(#p69d8e80918)">
     <use xlink:href="#m16ed13a5b0" x="254.906909" y="183.905678" style="fill: #ff8c00; stroke: #ff8c00"/>
     <use xlink:href="#m16ed13a5b0" x="208.624393" y="244.587135" style="fill: #ff8c00; stroke: #ff8c00"/>
     <use xlink:href="#m16ed13a5b0" x="221.989593" y="200.864093" style="fill: #ff8c00; stroke: #ff8c00"/>
     <use xlink:href="#m16ed13a5b0" x="209.586508" y="220.803125" style="fill: #ff8c00; stroke: #ff8c00"/>
     <use xlink:href="#m16ed13a5b0" x="214.754058" y="195.641031" style="fill: #ff8c00; stroke: #ff8c00"/>
     <use xlink:href="#m16ed13a5b0" x="175.292318" y="171.761398" style="fill: #ff8c00; stroke: #ff8c00"/>
     <use xlink:href="#m16ed13a5b0" x="241.258328" y="236.180441" style="fill: #ff8c00; stroke: #ff8c00"/>
     <use xlink:href="#m16ed13a5b0" x="188.196324" y="159.348617" style="fill: #ff8c00; stroke: #ff8c00"/>
     <use xlink:href="#m16ed13a5b0" x="243.578485" y="189.671937" style="fill: #ff8c00; stroke: #ff8c00"/>
     <use xlink:href="#m16ed13a5b0" x="213.430903" y="193.032521" style="fill: #ff8c00; stroke: #ff8c00"/>
     <use xlink:href="#m16ed13a5b0" x="203.366888" y="203.481333" style="fill: #ff8c00; stroke: #ff8c00"/>
     <use xlink:href="#m16ed13a5b0" x="221.135472" y="212.99999" style="fill: #ff8c00; stroke: #ff8c00"/>
     <use xlink:href="#m16ed13a5b0" x="193.668186" y="208.255428" style="fill: #ff8c00; stroke: #ff8c00"/>
     <use xlink:href="#m16ed13a5b0" x="229.692852" y="168.538223" style="fill: #ff8c00; stroke: #ff8c00"/>
     <use xlink:href="#m16ed13a5b0" x="181.163086" y="222.205204" style="fill: #ff8c00; stroke: #ff8c00"/>
     <use xlink:href="#m16ed13a5b0" x="314.257392" y="144.164647" style="fill: #ff8c00; stroke: #ff8c00"/>
     <use xlink:href="#m16ed13a5b0" x="252.435898" y="214.203707" style="fill: #ff8c00; stroke: #ff8c00"/>
     <use xlink:href="#m16ed13a5b0" x="276.819266" y="192.569376" style="fill: #ff8c00; stroke: #ff8c00"/>
    </g>
   </g>
   <g id="PathCollection_2">
    <defs>
     <path id="m246033c515" d="M 0 1.5 
C 0.397805 1.5 0.77937 1.341951 1.06066 1.06066 
C 1.341951 0.77937 1.5 0.397805 1.5 0 
C 1.5 -0.397805 1.341951 -0.77937 1.06066 -1.06066 
C 0.77937 -1.341951 0.397805 -1.5 0 -1.5 
C -0.397805 -1.5 -0.77937 -1.341951 -1.06066 -1.06066 
C -1.341951 -0.77937 -1.5 -0.397805 -1.5 0 
C -1.5 0.397805 -1.341951 0.77937 -1.06066 1.06066 
C -0.77937 1.341951 -0.397805 1.5 0 1.5 
z
" style="stroke: #006400"/>
    </defs>
    <g clip-path="url(#p69d8e80918)">
     <use xlink:href="#m246033c515" x="196.091638" y="142.003046" style="fill: #006400; stroke: #006400"/>
     <use xlink:href="#m246033c515" x="216.237811" y="136.268361" style="fill: #006400; stroke: #006400"/>
     <use xlink:href="#m246033c515" x="252.674931" y="118.388081" style="fill: #006400; stroke: #006400"/>
     <use xlink:href="#m246033c515" x="250.488672" y="161.790342" style="fill: #006400; stroke: #006400"/>
     <use xlink:href="#m246033c515" x="254.035692" y="96.267234" style="fill: #006400; stroke: #006400"/>
     <use xlink:href="#m246033c515" x="289.082251" y="56.697894" style="fill: #006400; stroke: #006400"/>
     <use xlink:href="#m246033c515" x="232.047392" y="126.412589" style="fill: #006400; stroke: #006400"/>
     <use xlink:href="#m246033c515" x="185.058209" y="93.24194" style="fill: #006400; stroke: #006400"/>
     <use xlink:href="#m246033c515" x="253.430193" y="80.298569" style="fill: #006400; stroke: #006400"/>
     <use xlink:href="#m246033c515" x="319.010283" y="37.298912" style="fill: #006400; stroke: #006400"/>
     <use xlink:href="#m246033c515" x="376.19196" y="25.809013" style="fill: #006400; stroke: #006400"/>
     <use xlink:href="#m246033c515" x="256.766189" y="102.145681" style="fill: #006400; stroke: #006400"/>
     <use xlink:href="#m246033c515" x="271.862972" y="131.103768" style="fill: #006400; stroke: #006400"/>
    </g>
   </g>
   <g id="PathCollection_3">
    <defs>
     <path id="me2474e35d8" d="M 0 1.5 
C 0.397805 1.5 0.77937 1.341951 1.06066 1.06066 
C 1.341951 0.77937 1.5 0.397805 1.5 0 
C 1.5 -0.397805 1.341951 -0.77937 1.06066 -1.06066 
C 0.77937 -1.341951 0.397805 -1.5 0 -1.5 
C -0.397805 -1.5 -0.77937 -1.341951 -1.06066 -1.06066 
C -1.341951 -0.77937 -1.5 -0.397805 -1.5 0 
C -1.5 0.397805 -1.341951 0.77937 -1.06066 1.06066 
C -0.77937 1.341951 -0.397805 1.5 0 1.5 
z
" style="stroke: #2f4f4f"/>
    </defs>
    <g clip-path="url(#p69d8e80918)">
     <use xlink:href="#me2474e35d8" x="173.435766" y="252.526636" style="fill: #2f4f4f; stroke: #2f4f4f"/>
     <use xlink:href="#me2474e35d8" x="122.260768" y="98.380045" style="fill: #2f4f4f; stroke: #2f4f4f"/>
     <use xlink:href="#me2474e35d8" x="144.49029" y="151.402963" style="fill: #2f4f4f; stroke: #2f4f4f"/>
     <use xlink:href="#me2474e35d8" x="185.8552" y="202.138755" style="fill: #2f4f4f; stroke: #2f4f4f"/>
     <use xlink:href="#me2474e35d8" x="165.82166" y="204.832482" style="fill: #2f4f4f; stroke: #2f4f4f"/>
     <use xlink:href="#me2474e35d8" x="151.625826" y="218.715216" style="fill: #2f4f4f; stroke: #2f4f4f"/>
     <use xlink:href="#me2474e35d8" x="161.736131" y="223.012661" style="fill: #2f4f4f; stroke: #2f4f4f"/>
     <use xlink:href="#me2474e35d8" x="135.930077" y="183.965599" style="fill: #2f4f4f; stroke: #2f4f4f"/>
     <use xlink:href="#me2474e35d8" x="142.364245" y="164.230607" style="fill: #2f4f4f; stroke: #2f4f4f"/>
     <use xlink:href="#me2474e35d8" x="192.248759" y="228.462163" style="fill: #2f4f4f; stroke: #2f4f4f"/>
     <use xlink:href="#me2474e35d8" x="181.914755" y="135.223307" style="fill: #2f4f4f; stroke: #2f4f4f"/>
     <use xlink:href="#me2474e35d8" x="231.526382" y="236.136569" style="fill: #2f4f4f; stroke: #2f4f4f"/>
     <use xlink:href="#me2474e35d8" x="184.193477" y="149.427219" style="fill: #2f4f4f; stroke: #2f4f4f"/>
     <use xlink:href="#me2474e35d8" x="169.359325" y="183.798233" style="fill: #2f4f4f; stroke: #2f4f4f"/>
     <use xlink:href="#me2474e35d8" x="168.535039" y="239.575199" style="fill: #2f4f4f; stroke: #2f4f4f"/>
     <use xlink:href="#me2474e35d8" x="131.059629" y="173.931731" style="fill: #2f4f4f; stroke: #2f4f4f"/>
     <use xlink:href="#me2474e35d8" x="177.298996" y="219.664829" style="fill: #2f4f4f; stroke: #2f4f4f"/>
     <use xlink:href="#me2474e35d8" x="173.955774" y="224.67142" style="fill: #2f4f4f; stroke: #2f4f4f"/>
     <use xlink:href="#me2474e35d8" x="126.84591" y="216.283169" style="fill: #2f4f4f; stroke: #2f4f4f"/>
     <use xlink:href="#me2474e35d8" x="163.889399" y="244.790561" style="fill: #2f4f4f; stroke: #2f4f4f"/>
     <use xlink:href="#me2474e35d8" x="200.329532" y="230.083312" style="fill: #2f4f4f; stroke: #2f4f4f"/>
    </g>
   </g>
   <g id="PathCollection_4">
    <defs>
     <path id="mc523909d7c" d="M 0 1.5 
C 0.397805 1.5 0.77937 1.341951 1.06066 1.06066 
C 1.341951 0.77937 1.5 0.397805 1.5 0 
C 1.5 -0.397805 1.341951 -0.77937 1.06066 -1.06066 
C 0.77937 -1.341951 0.397805 -1.5 0 -1.5 
C -0.397805 -1.5 -0.77937 -1.341951 -1.06066 -1.06066 
C -1.341951 -0.77937 -1.5 -0.397805 -1.5 0 
C -1.5 0.397805 -1.341951 0.77937 -1.06066 1.06066 
C -0.77937 1.341951 -0.397805 1.5 0 1.5 
z
" style="stroke: #00bfff"/>
    </defs>
    <g clip-path="url(#p69d8e80918)">
     <use xlink:href="#mc523909d7c" x="164.736343" y="156.881474" style="fill: #00bfff; stroke: #00bfff"/>
     <use xlink:href="#mc523909d7c" x="180.647468" y="220.48726" style="fill: #00bfff; stroke: #00bfff"/>
     <use xlink:href="#mc523909d7c" x="186.874181" y="203.641958" style="fill: #00bfff; stroke: #00bfff"/>
     <use xlink:href="#mc523909d7c" x="150.560596" y="139.076185" style="fill: #00bfff; stroke: #00bfff"/>
     <use xlink:href="#mc523909d7c" x="187.120188" y="174.35418" style="fill: #00bfff; stroke: #00bfff"/>
     <use xlink:href="#mc523909d7c" x="163.57291" y="203.512257" style="fill: #00bfff; stroke: #00bfff"/>
     <use xlink:href="#mc523909d7c" x="245.673544" y="214.27669" style="fill: #00bfff; stroke: #00bfff"/>
     <use xlink:href="#mc523909d7c" x="142.956239" y="153.743493" style="fill: #00bfff; stroke: #00bfff"/>
     <use xlink:href="#mc523909d7c" x="130.596396" y="178.721774" style="fill: #00bfff; stroke: #00bfff"/>
     <use xlink:href="#mc523909d7c" x="185.586967" y="217.364547" style="fill: #00bfff; stroke: #00bfff"/>
     <use xlink:href="#mc523909d7c" x="145.277645" y="178.09407" style="fill: #00bfff; stroke: #00bfff"/>
     <use xlink:href="#mc523909d7c" x="189.32376" y="171.21052" style="fill: #00bfff; stroke: #00bfff"/>
     <use xlink:href="#mc523909d7c" x="143.754526" y="224.600123" style="fill: #00bfff; stroke: #00bfff"/>
     <use xlink:href="#mc523909d7c" x="130.578639" y="140.750576" style="fill: #00bfff; stroke: #00bfff"/>
     <use xlink:href="#mc523909d7c" x="174.631704" y="195.893433" style="fill: #00bfff; stroke: #00bfff"/>
    </g>
   </g>
   <g id="PathCollection_5">
    <defs>
     <path id="m8367b022de" d="M 0 1.5 
C 0.397805 1.5 0.77937 1.341951 1.06066 1.06066 
C 1.341951 0.77937 1.5 0.397805 1.5 0 
C 1.5 -0.397805 1.341951 -0.77937 1.06066 -1.06066 
C 0.77937 -1.341951 0.397805 -1.5 0 -1.5 
C -0.397805 -1.5 -0.77937 -1.341951 -1.06066 -1.06066 
C -1.341951 -0.77937 -1.5 -0.397805 -1.5 0 
C -1.5 0.397805 -1.341951 0.77937 -1.06066 1.06066 
C -0.77937 1.341951 -0.397805 1.5 0 1.5 
z
" style="stroke: #ffff00"/>
    </defs>
    <g clip-path="url(#p69d8e80918)">
     <use xlink:href="#m8367b022de" x="123.622851" y="204.692322" style="fill: #ffff00; stroke: #ffff00"/>
     <use xlink:href="#m8367b022de" x="164.546964" y="243.69208" style="fill: #ffff00; stroke: #ffff00"/>
     <use xlink:href="#m8367b022de" x="176.799179" y="261.216" style="fill: #ffff00; stroke: #ffff00"/>
     <use xlink:href="#m8367b022de" x="123.945557" y="138.933197" style="fill: #ffff00; stroke: #ffff00"/>
     <use xlink:href="#m8367b022de" x="130.809317" y="146.329822" style="fill: #ffff00; stroke: #ffff00"/>
     <use xlink:href="#m8367b022de" x="150.427285" y="188.714748" style="fill: #ffff00; stroke: #ffff00"/>
     <use xlink:href="#m8367b022de" x="195.433557" y="132.469754" style="fill: #ffff00; stroke: #ffff00"/>
     <use xlink:href="#m8367b022de" x="172.335115" y="216.852924" style="fill: #ffff00; stroke: #ffff00"/>
     <use xlink:href="#m8367b022de" x="187.642288" y="219.172937" style="fill: #ffff00; stroke: #ffff00"/>
     <use xlink:href="#m8367b022de" x="160.262333" y="165.709147" style="fill: #ffff00; stroke: #ffff00"/>
     <use xlink:href="#m8367b022de" x="166.889213" y="209.541265" style="fill: #ffff00; stroke: #ffff00"/>
     <use xlink:href="#m8367b022de" x="134.966996" y="198.504055" style="fill: #ffff00; stroke: #ffff00"/>
     <use xlink:href="#m8367b022de" x="163.2411" y="175.887314" style="fill: #ffff00; stroke: #ffff00"/>
     <use xlink:href="#m8367b022de" x="140.767328" y="136.631837" style="fill: #ffff00; stroke: #ffff00"/>
     <use xlink:href="#m8367b022de" x="207.535527" y="203.559945" style="fill: #ffff00; stroke: #ffff00"/>
     <use xlink:href="#m8367b022de" x="158.202371" y="222.298578" style="fill: #ffff00; stroke: #ffff00"/>
     <use xlink:href="#m8367b022de" x="195.012334" y="193.277497" style="fill: #ffff00; stroke: #ffff00"/>
     <use xlink:href="#m8367b022de" x="175.314307" y="242.824367" style="fill: #ffff00; stroke: #ffff00"/>
    </g>
   </g>
   <g id="PathCollection_6">
    <defs>
     <path id="m38545bde87" d="M 0 1.5 
C 0.397805 1.5 0.77937 1.341951 1.06066 1.06066 
C 1.341951 0.77937 1.5 0.397805 1.5 0 
C 1.5 -0.397805 1.341951 -0.77937 1.06066 -1.06066 
C 0.77937 -1.341951 0.397805 -1.5 0 -1.5 
C -0.397805 -1.5 -0.77937 -1.341951 -1.06066 -1.06066 
C -1.341951 -0.77937 -1.5 -0.397805 -1.5 0 
C -1.5 0.397805 -1.341951 0.77937 -1.06066 1.06066 
C -0.77937 1.341951 -0.397805 1.5 0 1.5 
z
" style="stroke: #00ffff"/>
    </defs>
    <g clip-path="url(#p69d8e80918)">
     <use xlink:href="#m38545bde87" x="160.526022" y="233.757431" style="fill: #00ffff; stroke: #00ffff"/>
     <use xlink:href="#m38545bde87" x="112.377322" y="104.165044" style="fill: #00ffff; stroke: #00ffff"/>
     <use xlink:href="#m38545bde87" x="154.283062" y="209.292932" style="fill: #00ffff; stroke: #00ffff"/>
     <use xlink:href="#m38545bde87" x="157.372596" y="202.594993" style="fill: #00ffff; stroke: #00ffff"/>
     <use xlink:href="#m38545bde87" x="152.635028" y="103.550485" style="fill: #00ffff; stroke: #00ffff"/>
     <use xlink:href="#m38545bde87" x="172.589925" y="222.429449" style="fill: #00ffff; stroke: #00ffff"/>
     <use xlink:href="#m38545bde87" x="113.497895" y="190.584556" style="fill: #00ffff; stroke: #00ffff"/>
     <use xlink:href="#m38545bde87" x="161.088532" y="124.253338" style="fill: #00ffff; stroke: #00ffff"/>
     <use xlink:href="#m38545bde87" x="153.467795" y="217.255164" style="fill: #00ffff; stroke: #00ffff"/>
     <use xlink:href="#m38545bde87" x="143.143537" y="181.975048" style="fill: #00ffff; stroke: #00ffff"/>
     <use xlink:href="#m38545bde87" x="162.38115" y="208.881574" style="fill: #00ffff; stroke: #00ffff"/>
     <use xlink:href="#m38545bde87" x="155.823203" y="217.259431" style="fill: #00ffff; stroke: #00ffff"/>
    </g>
   </g>
   <g id="PathCollection_7">
    <defs>
     <path id="m52d3d51451" d="M 0 1.5 
C 0.397805 1.5 0.77937 1.341951 1.06066 1.06066 
C 1.341951 0.77937 1.5 0.397805 1.5 0 
C 1.5 -0.397805 1.341951 -0.77937 1.06066 -1.06066 
C 0.77937 -1.341951 0.397805 -1.5 0 -1.5 
C -0.397805 -1.5 -0.77937 -1.341951 -1.06066 -1.06066 
C -1.341951 -0.77937 -1.5 -0.397805 -1.5 0 
C -1.5 0.397805 -1.341951 0.77937 -1.06066 1.06066 
C -0.77937 1.341951 -0.397805 1.5 0 1.5 
z
" style="stroke: #0000ff"/>
    </defs>
    <g clip-path="url(#p69d8e80918)">
     <use xlink:href="#m52d3d51451" x="170.610899" y="176.292105" style="fill: #0000ff; stroke: #0000ff"/>
     <use xlink:href="#m52d3d51451" x="193.329751" y="216.920766" style="fill: #0000ff; stroke: #0000ff"/>
     <use xlink:href="#m52d3d51451" x="180.468831" y="239.68019" style="fill: #0000ff; stroke: #0000ff"/>
     <use xlink:href="#m52d3d51451" x="153.682433" y="124.258737" style="fill: #0000ff; stroke: #0000ff"/>
     <use xlink:href="#m52d3d51451" x="203.561502" y="178.697816" style="fill: #0000ff; stroke: #0000ff"/>
     <use xlink:href="#m52d3d51451" x="162.821279" y="209.722233" style="fill: #0000ff; stroke: #0000ff"/>
     <use xlink:href="#m52d3d51451" x="138.421521" y="166.110283" style="fill: #0000ff; stroke: #0000ff"/>
    </g>
   </g>
   <g id="PathCollection_8">
    <defs>
     <path id="m7a2bb61031" d="M 0 1.5 
C 0.397805 1.5 0.77937 1.341951 1.06066 1.06066 
C 1.341951 0.77937 1.5 0.397805 1.5 0 
C 1.5 -0.397805 1.341951 -0.77937 1.06066 -1.06066 
C 0.77937 -1.341951 0.397805 -1.5 0 -1.5 
C -0.397805 -1.5 -0.77937 -1.341951 -1.06066 -1.06066 
C -1.341951 -0.77937 -1.5 -0.397805 -1.5 0 
C -1.5 0.397805 -1.341951 0.77937 -1.06066 1.06066 
C -0.77937 1.341951 -0.397805 1.5 0 1.5 
z
" style="stroke: #dc143c"/>
    </defs>
    <g clip-path="url(#p69d8e80918)">
     <use xlink:href="#m7a2bb61031" x="225.439569" y="183.305282" style="fill: #dc143c; stroke: #dc143c"/>
     <use xlink:href="#m7a2bb61031" x="222.385133" y="186.528394" style="fill: #dc143c; stroke: #dc143c"/>
     <use xlink:href="#m7a2bb61031" x="260.627311" y="134.239858" style="fill: #dc143c; stroke: #dc143c"/>
     <use xlink:href="#m7a2bb61031" x="275.007846" y="195.452861" style="fill: #dc143c; stroke: #dc143c"/>
     <use xlink:href="#m7a2bb61031" x="258.618469" y="217.754872" style="fill: #dc143c; stroke: #dc143c"/>
     <use xlink:href="#m7a2bb61031" x="215.77388" y="232.599309" style="fill: #dc143c; stroke: #dc143c"/>
     <use xlink:href="#m7a2bb61031" x="204.750202" y="221.090218" style="fill: #dc143c; stroke: #dc143c"/>
     <use xlink:href="#m7a2bb61031" x="206.016804" y="177.292665" style="fill: #dc143c; stroke: #dc143c"/>
     <use xlink:href="#m7a2bb61031" x="251.228359" y="197.52076" style="fill: #dc143c; stroke: #dc143c"/>
     <use xlink:href="#m7a2bb61031" x="245.997341" y="212.814551" style="fill: #dc143c; stroke: #dc143c"/>
     <use xlink:href="#m7a2bb61031" x="251.776277" y="159.013371" style="fill: #dc143c; stroke: #dc143c"/>
    </g>
   </g>
   <g id="PathCollection_9">
    <defs>
     <path id="mdd4f9fec7f" d="M 0 1.5 
C 0.397805 1.5 0.77937 1.341951 1.06066 1.06066 
C 1.341951 0.77937 1.5 0.397805 1.5 0 
C 1.5 -0.397805 1.341951 -0.77937 1.06066 -1.06066 
C 0.77937 -1.341951 0.397805 -1.5 0 -1.5 
C -0.397805 -1.5 -0.77937 -1.341951 -1.06066 -1.06066 
C -1.341951 -0.77937 -1.5 -0.397805 -1.5 0 
C -1.5 0.397805 -1.341951 0.77937 -1.06066 1.06066 
C -0.77937 1.341951 -0.397805 1.5 0 1.5 
z
" style="stroke: #ffe4c4"/>
    </defs>
    <g clip-path="url(#p69d8e80918)">
     <use xlink:href="#mdd4f9fec7f" x="216.528808" y="157.555604" style="fill: #ffe4c4; stroke: #ffe4c4"/>
     <use xlink:href="#mdd4f9fec7f" x="198.029919" y="182.391743" style="fill: #ffe4c4; stroke: #ffe4c4"/>
     <use xlink:href="#mdd4f9fec7f" x="218.326552" y="203.971488" style="fill: #ffe4c4; stroke: #ffe4c4"/>
     <use xlink:href="#mdd4f9fec7f" x="289.879444" y="47.759907" style="fill: #ffe4c4; stroke: #ffe4c4"/>
     <use xlink:href="#mdd4f9fec7f" x="200.473622" y="186.966889" style="fill: #ffe4c4; stroke: #ffe4c4"/>
     <use xlink:href="#mdd4f9fec7f" x="272.763257" y="131.428511" style="fill: #ffe4c4; stroke: #ffe4c4"/>
     <use xlink:href="#mdd4f9fec7f" x="177.286624" y="140.740288" style="fill: #ffe4c4; stroke: #ffe4c4"/>
     <use xlink:href="#mdd4f9fec7f" x="223.333769" y="165.790705" style="fill: #ffe4c4; stroke: #ffe4c4"/>
     <use xlink:href="#mdd4f9fec7f" x="142.612671" y="139.865743" style="fill: #ffe4c4; stroke: #ffe4c4"/>
     <use xlink:href="#mdd4f9fec7f" x="171.609595" y="176.534333" style="fill: #ffe4c4; stroke: #ffe4c4"/>
     <use xlink:href="#mdd4f9fec7f" x="209.195509" y="19.296" style="fill: #ffe4c4; stroke: #ffe4c4"/>
     <use xlink:href="#mdd4f9fec7f" x="263.792294" y="137.017171" style="fill: #ffe4c4; stroke: #ffe4c4"/>
     <use xlink:href="#mdd4f9fec7f" x="198.618035" y="148.806693" style="fill: #ffe4c4; stroke: #ffe4c4"/>
    </g>
   </g>
   <g id="PathCollection_10">
    <defs>
     <path id="mde80bd2f9f" d="M -2.99994 2.99994 
L 3.00006 2.99994 
L 3.00006 -3.00006 
L -2.99994 -3.00006 
z
" style="stroke: #000000"/>
    </defs>
    <g clip-path="url(#p69d8e80918)">
     <use xlink:href="#mde80bd2f9f" x="138.709189" y="184.893296" style="stroke: #000000"/>
     <use xlink:href="#mde80bd2f9f" x="151.440347" y="158.717279" style="stroke: #000000"/>
     <use xlink:href="#mde80bd2f9f" x="107.924507" y="184.193981" style="stroke: #000000"/>
     <use xlink:href="#mde80bd2f9f" x="111.437015" y="135.674381" style="stroke: #000000"/>
     <use xlink:href="#mde80bd2f9f" x="97.109902" y="137.374254" style="stroke: #000000"/>
     <use xlink:href="#mde80bd2f9f" x="193.18666" y="155.720269" style="stroke: #000000"/>
     <use xlink:href="#mde80bd2f9f" x="124.913649" y="171.147618" style="stroke: #000000"/>
     <use xlink:href="#mde80bd2f9f" x="72.519664" y="134.921688" style="stroke: #000000"/>
     <use xlink:href="#mde80bd2f9f" x="100.986526" y="184.424764" style="stroke: #000000"/>
     <use xlink:href="#mde80bd2f9f" x="142.417876" y="158.589846" style="stroke: #000000"/>
     <use xlink:href="#mde80bd2f9f" x="133.38488" y="87.252893" style="stroke: #000000"/>
     <use xlink:href="#mde80bd2f9f" x="183.24212" y="200.095687" style="stroke: #000000"/>
     <use xlink:href="#mde80bd2f9f" x="85.006548" y="142.398638" style="stroke: #000000"/>
     <use xlink:href="#mde80bd2f9f" x="93.77302" y="125.470908" style="stroke: #000000"/>
     <use xlink:href="#mde80bd2f9f" x="82.077971" y="140.850408" style="stroke: #000000"/>
     <use xlink:href="#mde80bd2f9f" x="77.038309" y="180.143677" style="stroke: #000000"/>
     <use xlink:href="#mde80bd2f9f" x="117.350022" y="192.879409" style="stroke: #000000"/>
     <use xlink:href="#mde80bd2f9f" x="135.544144" y="87.755351" style="stroke: #000000"/>
     <use xlink:href="#mde80bd2f9f" x="182.927896" y="160.84418" style="stroke: #000000"/>
     <use xlink:href="#mde80bd2f9f" x="109.379033" y="123.676373" style="stroke: #000000"/>
     <use xlink:href="#mde80bd2f9f" x="116.642632" y="198.16211" style="stroke: #000000"/>
     <use xlink:href="#mde80bd2f9f" x="163.058256" y="177.162681" style="stroke: #000000"/>
     <use xlink:href="#mde80bd2f9f" x="57.54957" y="89.149158" style="stroke: #000000"/>
     <use xlink:href="#mde80bd2f9f" x="126.370168" y="189.969803" style="stroke: #000000"/>
     <use xlink:href="#mde80bd2f9f" x="165.759022" y="237.145817" style="stroke: #000000"/>
     <use xlink:href="#mde80bd2f9f" x="205.685825" y="201.885723" style="stroke: #000000"/>
     <use xlink:href="#mde80bd2f9f" x="150.209257" y="168.032086" style="stroke: #000000"/>
     <use xlink:href="#mde80bd2f9f" x="117.58843" y="132.384812" style="stroke: #000000"/>
     <use xlink:href="#mde80bd2f9f" x="99.513938" y="137.648779" style="stroke: #000000"/>
     <use xlink:href="#mde80bd2f9f" x="98.186095" y="171.48543" style="stroke: #000000"/>
     <use xlink:href="#mde80bd2f9f" x="132.906815" y="193.104475" style="stroke: #000000"/>
     <use xlink:href="#mde80bd2f9f" x="106.346848" y="200.184034" style="stroke: #000000"/>
     <use xlink:href="#mde80bd2f9f" x="181.706404" y="225.096657" style="stroke: #000000"/>
     <use xlink:href="#mde80bd2f9f" x="104.238101" y="148.422901" style="stroke: #000000"/>
     <use xlink:href="#mde80bd2f9f" x="136.214094" y="208.484973" style="stroke: #000000"/>
     <use xlink:href="#mde80bd2f9f" x="72.900685" y="94.406029" style="stroke: #000000"/>
     <use xlink:href="#mde80bd2f9f" x="149.287468" y="154.278342" style="stroke: #000000"/>
     <use xlink:href="#mde80bd2f9f" x="112.858211" y="173.503416" style="stroke: #000000"/>
     <use xlink:href="#mde80bd2f9f" x="118.278245" y="167.320048" style="stroke: #000000"/>
     <use xlink:href="#mde80bd2f9f" x="156.450729" y="204.856729" style="stroke: #000000"/>
     <use xlink:href="#mde80bd2f9f" x="120.255119" y="192.399585" style="stroke: #000000"/>
     <use xlink:href="#mde80bd2f9f" x="164.029708" y="197.494791" style="stroke: #000000"/>
     <use xlink:href="#mde80bd2f9f" x="142.092089" y="175.227553" style="stroke: #000000"/>
     <use xlink:href="#mde80bd2f9f" x="99.144981" y="177.712932" style="stroke: #000000"/>
     <use xlink:href="#mde80bd2f9f" x="95.720154" y="138.63605" style="stroke: #000000"/>
     <use xlink:href="#mde80bd2f9f" x="131.259548" y="208.420306" style="stroke: #000000"/>
     <use xlink:href="#mde80bd2f9f" x="175.980087" y="193.661975" style="stroke: #000000"/>
     <use xlink:href="#mde80bd2f9f" x="216.398587" y="159.470266" style="stroke: #000000"/>
     <use xlink:href="#mde80bd2f9f" x="202.671341" y="215.966531" style="stroke: #000000"/>
     <use xlink:href="#mde80bd2f9f" x="180.809764" y="224.22309" style="stroke: #000000"/>
     <use xlink:href="#mde80bd2f9f" x="130.411496" y="181.268587" style="stroke: #000000"/>
     <use xlink:href="#mde80bd2f9f" x="67.618767" y="104.955501" style="stroke: #000000"/>
     <use xlink:href="#mde80bd2f9f" x="110.227907" y="179.14825" style="stroke: #000000"/>
     <use xlink:href="#mde80bd2f9f" x="95.560657" y="151.372213" style="stroke: #000000"/>
     <use xlink:href="#mde80bd2f9f" x="51.537415" y="140.134526" style="stroke: #000000"/>
     <use xlink:href="#mde80bd2f9f" x="85.907269" y="96.236323" style="stroke: #000000"/>
     <use xlink:href="#mde80bd2f9f" x="130.629686" y="167.404994" style="stroke: #000000"/>
     <use xlink:href="#mde80bd2f9f" x="123.730104" y="154.15316" style="stroke: #000000"/>
     <use xlink:href="#mde80bd2f9f" x="120.592816" y="109.912884" style="stroke: #000000"/>
     <use xlink:href="#mde80bd2f9f" x="80.64225" y="149.692104" style="stroke: #000000"/>
     <use xlink:href="#mde80bd2f9f" x="159.562234" y="219.315245" style="stroke: #000000"/>
     <use xlink:href="#mde80bd2f9f" x="86.260786" y="166.662552" style="stroke: #000000"/>
     <use xlink:href="#mde80bd2f9f" x="100.842427" y="149.733719" style="stroke: #000000"/>
     <use xlink:href="#mde80bd2f9f" x="146.952348" y="185.394876" style="stroke: #000000"/>
    </g>
   </g>
   <g id="PathCollection_11">
    <defs>
     <path id="m8c583800d0" d="M -3 -0 
L 3 3 
L 3 -3 
z
" style="stroke: #ff8c00"/>
    </defs>
    <g clip-path="url(#p69d8e80918)">
     <use xlink:href="#m8c583800d0" x="122.48331" y="174.324881" style="fill: #ff8c00; stroke: #ff8c00"/>
     <use xlink:href="#m8c583800d0" x="168.226469" y="219.14134" style="fill: #ff8c00; stroke: #ff8c00"/>
     <use xlink:href="#m8c583800d0" x="174.827495" y="244.573294" style="fill: #ff8c00; stroke: #ff8c00"/>
     <use xlink:href="#m8c583800d0" x="151.445456" y="212.442299" style="fill: #ff8c00; stroke: #ff8c00"/>
     <use xlink:href="#m8c583800d0" x="163.781159" y="237.296667" style="fill: #ff8c00; stroke: #ff8c00"/>
     <use xlink:href="#m8c583800d0" x="175.237768" y="200.921798" style="fill: #ff8c00; stroke: #ff8c00"/>
     <use xlink:href="#m8c583800d0" x="160.458653" y="245.941672" style="fill: #ff8c00; stroke: #ff8c00"/>
     <use xlink:href="#m8c583800d0" x="175.756723" y="234.641418" style="fill: #ff8c00; stroke: #ff8c00"/>
     <use xlink:href="#m8c583800d0" x="171.979132" y="185.459572" style="fill: #ff8c00; stroke: #ff8c00"/>
     <use xlink:href="#m8c583800d0" x="146.676227" y="161.666303" style="fill: #ff8c00; stroke: #ff8c00"/>
     <use xlink:href="#m8c583800d0" x="186.079602" y="217.584807" style="fill: #ff8c00; stroke: #ff8c00"/>
     <use xlink:href="#m8c583800d0" x="129.467205" y="186.681678" style="fill: #ff8c00; stroke: #ff8c00"/>
     <use xlink:href="#m8c583800d0" x="194.349923" y="247.119737" style="fill: #ff8c00; stroke: #ff8c00"/>
     <use xlink:href="#m8c583800d0" x="137.482333" y="215.159382" style="fill: #ff8c00; stroke: #ff8c00"/>
     <use xlink:href="#m8c583800d0" x="172.038457" y="216.716021" style="fill: #ff8c00; stroke: #ff8c00"/>
     <use xlink:href="#m8c583800d0" x="147.790298" y="207.089565" style="fill: #ff8c00; stroke: #ff8c00"/>
     <use xlink:href="#m8c583800d0" x="186.800269" y="193.081841" style="fill: #ff8c00; stroke: #ff8c00"/>
     <use xlink:href="#m8c583800d0" x="162.675621" y="242.327589" style="fill: #ff8c00; stroke: #ff8c00"/>
     <use xlink:href="#m8c583800d0" x="137.956442" y="169.608949" style="fill: #ff8c00; stroke: #ff8c00"/>
     <use xlink:href="#m8c583800d0" x="167.391925" y="239.583858" style="fill: #ff8c00; stroke: #ff8c00"/>
     <use xlink:href="#m8c583800d0" x="158.370014" y="189.071173" style="fill: #ff8c00; stroke: #ff8c00"/>
     <use xlink:href="#m8c583800d0" x="176.149191" y="227.460812" style="fill: #ff8c00; stroke: #ff8c00"/>
     <use xlink:href="#m8c583800d0" x="182.26343" y="233.457526" style="fill: #ff8c00; stroke: #ff8c00"/>
     <use xlink:href="#m8c583800d0" x="198.340598" y="250.999654" style="fill: #ff8c00; stroke: #ff8c00"/>
     <use xlink:href="#m8c583800d0" x="126.303652" y="175.008986" style="fill: #ff8c00; stroke: #ff8c00"/>
     <use xlink:href="#m8c583800d0" x="145.326913" y="176.326835" style="fill: #ff8c00; stroke: #ff8c00"/>
     <use xlink:href="#m8c583800d0" x="170.726185" y="231.445619" style="fill: #ff8c00; stroke: #ff8c00"/>
     <use xlink:href="#m8c583800d0" x="159.206975" y="175.562308" style="fill: #ff8c00; stroke: #ff8c00"/>
     <use xlink:href="#m8c583800d0" x="146.348914" y="173.031685" style="fill: #ff8c00; stroke: #ff8c00"/>
     <use xlink:href="#m8c583800d0" x="150.900697" y="176.436744" style="fill: #ff8c00; stroke: #ff8c00"/>
     <use xlink:href="#m8c583800d0" x="153.675061" y="217.02777" style="fill: #ff8c00; stroke: #ff8c00"/>
     <use xlink:href="#m8c583800d0" x="190.603463" y="250.150482" style="fill: #ff8c00; stroke: #ff8c00"/>
     <use xlink:href="#m8c583800d0" x="112.462075" y="163.340663" style="fill: #ff8c00; stroke: #ff8c00"/>
     <use xlink:href="#m8c583800d0" x="149.282918" y="174.542868" style="fill: #ff8c00; stroke: #ff8c00"/>
     <use xlink:href="#m8c583800d0" x="138.212767" y="193.436307" style="fill: #ff8c00; stroke: #ff8c00"/>
     <use xlink:href="#m8c583800d0" x="172.61327" y="240.348199" style="fill: #ff8c00; stroke: #ff8c00"/>
     <use xlink:href="#m8c583800d0" x="140.583923" y="205.493689" style="fill: #ff8c00; stroke: #ff8c00"/>
     <use xlink:href="#m8c583800d0" x="149.793828" y="197.640122" style="fill: #ff8c00; stroke: #ff8c00"/>
     <use xlink:href="#m8c583800d0" x="141.915412" y="214.566574" style="fill: #ff8c00; stroke: #ff8c00"/>
     <use xlink:href="#m8c583800d0" x="164.5" y="248.578391" style="fill: #ff8c00; stroke: #ff8c00"/>
     <use xlink:href="#m8c583800d0" x="166.692229" y="205.521558" style="fill: #ff8c00; stroke: #ff8c00"/>
     <use xlink:href="#m8c583800d0" x="171.26852" y="222.516721" style="fill: #ff8c00; stroke: #ff8c00"/>
     <use xlink:href="#m8c583800d0" x="176.864744" y="203.253258" style="fill: #ff8c00; stroke: #ff8c00"/>
     <use xlink:href="#m8c583800d0" x="171.892681" y="218.426672" style="fill: #ff8c00; stroke: #ff8c00"/>
     <use xlink:href="#m8c583800d0" x="170.433582" y="248.841353" style="fill: #ff8c00; stroke: #ff8c00"/>
     <use xlink:href="#m8c583800d0" x="155.523604" y="200.738651" style="fill: #ff8c00; stroke: #ff8c00"/>
     <use xlink:href="#m8c583800d0" x="146.698826" y="207.456266" style="fill: #ff8c00; stroke: #ff8c00"/>
     <use xlink:href="#m8c583800d0" x="178.823155" y="209.242309" style="fill: #ff8c00; stroke: #ff8c00"/>
     <use xlink:href="#m8c583800d0" x="151.663973" y="237.513365" style="fill: #ff8c00; stroke: #ff8c00"/>
     <use xlink:href="#m8c583800d0" x="166.474215" y="184.600192" style="fill: #ff8c00; stroke: #ff8c00"/>
     <use xlink:href="#m8c583800d0" x="103.701367" y="140.794571" style="fill: #ff8c00; stroke: #ff8c00"/>
     <use xlink:href="#m8c583800d0" x="181.788679" y="243.160282" style="fill: #ff8c00; stroke: #ff8c00"/>
     <use xlink:href="#m8c583800d0" x="152.695715" y="233.330952" style="fill: #ff8c00; stroke: #ff8c00"/>
     <use xlink:href="#m8c583800d0" x="144.058105" y="164.326737" style="fill: #ff8c00; stroke: #ff8c00"/>
     <use xlink:href="#m8c583800d0" x="133.70004" y="160.872378" style="fill: #ff8c00; stroke: #ff8c00"/>
     <use xlink:href="#m8c583800d0" x="150.848767" y="167.896618" style="fill: #ff8c00; stroke: #ff8c00"/>
     <use xlink:href="#m8c583800d0" x="151.621941" y="203.790151" style="fill: #ff8c00; stroke: #ff8c00"/>
     <use xlink:href="#m8c583800d0" x="158.230868" y="208.86117" style="fill: #ff8c00; stroke: #ff8c00"/>
     <use xlink:href="#m8c583800d0" x="182.182802" y="185.436342" style="fill: #ff8c00; stroke: #ff8c00"/>
     <use xlink:href="#m8c583800d0" x="121.150248" y="153.834415" style="fill: #ff8c00; stroke: #ff8c00"/>
     <use xlink:href="#m8c583800d0" x="173.458974" y="235.579617" style="fill: #ff8c00; stroke: #ff8c00"/>
     <use xlink:href="#m8c583800d0" x="157.414544" y="163.34162" style="fill: #ff8c00; stroke: #ff8c00"/>
     <use xlink:href="#m8c583800d0" x="117.864001" y="155.146575" style="fill: #ff8c00; stroke: #ff8c00"/>
     <use xlink:href="#m8c583800d0" x="151.055565" y="214.176513" style="fill: #ff8c00; stroke: #ff8c00"/>
    </g>
   </g>
   <g id="matplotlib.axis_1">
    <g id="xtick_1">
     <g id="line2d_1">
      <defs>
       <path id="m579f2bd944" d="M 0 0 
L 0 3.5 
" style="stroke: #000000; stroke-width: 0.8"/>
      </defs>
      <g>
       <use xlink:href="#m579f2bd944" x="38.414845" y="273.312" style="stroke: #000000; stroke-width: 0.8"/>
      </g>
     </g>
     <g id="text_1">
      <!-- −20 -->
      <g transform="translate(27.862501 287.910437) scale(0.1 -0.1)">
       <defs>
        <path id="DejaVuSans-2212" d="M 678 2272 
L 4684 2272 
L 4684 1741 
L 678 1741 
L 678 2272 
z
" transform="scale(0.015625)"/>
        <path id="DejaVuSans-32" d="M 1228 531 
L 3431 531 
L 3431 0 
L 469 0 
L 469 531 
Q 828 903 1448 1529 
Q 2069 2156 2228 2338 
Q 2531 2678 2651 2914 
Q 2772 3150 2772 3378 
Q 2772 3750 2511 3984 
Q 2250 4219 1831 4219 
Q 1534 4219 1204 4116 
Q 875 4013 500 3803 
L 500 4441 
Q 881 4594 1212 4672 
Q 1544 4750 1819 4750 
Q 2544 4750 2975 4387 
Q 3406 4025 3406 3419 
Q 3406 3131 3298 2873 
Q 3191 2616 2906 2266 
Q 2828 2175 2409 1742 
Q 1991 1309 1228 531 
z
" transform="scale(0.015625)"/>
        <path id="DejaVuSans-30" d="M 2034 4250 
Q 1547 4250 1301 3770 
Q 1056 3291 1056 2328 
Q 1056 1369 1301 889 
Q 1547 409 2034 409 
Q 2525 409 2770 889 
Q 3016 1369 3016 2328 
Q 3016 3291 2770 3770 
Q 2525 4250 2034 4250 
z
M 2034 4750 
Q 2819 4750 3233 4129 
Q 3647 3509 3647 2328 
Q 3647 1150 3233 529 
Q 2819 -91 2034 -91 
Q 1250 -91 836 529 
Q 422 1150 422 2328 
Q 422 3509 836 4129 
Q 1250 4750 2034 4750 
z
" transform="scale(0.015625)"/>
       </defs>
       <use xlink:href="#DejaVuSans-2212"/>
       <use xlink:href="#DejaVuSans-32" x="83.789062"/>
       <use xlink:href="#DejaVuSans-30" x="147.412109"/>
      </g>
     </g>
    </g>
    <g id="xtick_2">
     <g id="line2d_2">
      <g>
       <use xlink:href="#m579f2bd944" x="102.920624" y="273.312" style="stroke: #000000; stroke-width: 0.8"/>
      </g>
     </g>
     <g id="text_2">
      <!-- −10 -->
      <g transform="translate(92.36828 287.910437) scale(0.1 -0.1)">
       <defs>
        <path id="DejaVuSans-31" d="M 794 531 
L 1825 531 
L 1825 4091 
L 703 3866 
L 703 4441 
L 1819 4666 
L 2450 4666 
L 2450 531 
L 3481 531 
L 3481 0 
L 794 0 
L 794 531 
z
" transform="scale(0.015625)"/>
       </defs>
       <use xlink:href="#DejaVuSans-2212"/>
       <use xlink:href="#DejaVuSans-31" x="83.789062"/>
       <use xlink:href="#DejaVuSans-30" x="147.412109"/>
      </g>
     </g>
    </g>
    <g id="xtick_3">
     <g id="line2d_3">
      <g>
       <use xlink:href="#m579f2bd944" x="167.426403" y="273.312" style="stroke: #000000; stroke-width: 0.8"/>
      </g>
     </g>
     <g id="text_3">
      <!-- 0 -->
      <g transform="translate(164.245153 287.910437) scale(0.1 -0.1)">
       <use xlink:href="#DejaVuSans-30"/>
      </g>
     </g>
    </g>
    <g id="xtick_4">
     <g id="line2d_4">
      <g>
       <use xlink:href="#m579f2bd944" x="231.932182" y="273.312" style="stroke: #000000; stroke-width: 0.8"/>
      </g>
     </g>
     <g id="text_4">
      <!-- 10 -->
      <g transform="translate(225.569682 287.910437) scale(0.1 -0.1)">
       <use xlink:href="#DejaVuSans-31"/>
       <use xlink:href="#DejaVuSans-30" x="63.623047"/>
      </g>
     </g>
    </g>
    <g id="xtick_5">
     <g id="line2d_5">
      <g>
       <use xlink:href="#m579f2bd944" x="296.437961" y="273.312" style="stroke: #000000; stroke-width: 0.8"/>
      </g>
     </g>
     <g id="text_5">
      <!-- 20 -->
      <g transform="translate(290.075461 287.910437) scale(0.1 -0.1)">
       <use xlink:href="#DejaVuSans-32"/>
       <use xlink:href="#DejaVuSans-30" x="63.623047"/>
      </g>
     </g>
    </g>
    <g id="xtick_6">
     <g id="line2d_6">
      <g>
       <use xlink:href="#m579f2bd944" x="360.943739" y="273.312" style="stroke: #000000; stroke-width: 0.8"/>
      </g>
     </g>
     <g id="text_6">
      <!-- 30 -->
      <g transform="translate(354.581239 287.910437) scale(0.1 -0.1)">
       <defs>
        <path id="DejaVuSans-33" d="M 2597 2516 
Q 3050 2419 3304 2112 
Q 3559 1806 3559 1356 
Q 3559 666 3084 287 
Q 2609 -91 1734 -91 
Q 1441 -91 1130 -33 
Q 819 25 488 141 
L 488 750 
Q 750 597 1062 519 
Q 1375 441 1716 441 
Q 2309 441 2620 675 
Q 2931 909 2931 1356 
Q 2931 1769 2642 2001 
Q 2353 2234 1838 2234 
L 1294 2234 
L 1294 2753 
L 1863 2753 
Q 2328 2753 2575 2939 
Q 2822 3125 2822 3475 
Q 2822 3834 2567 4026 
Q 2313 4219 1838 4219 
Q 1578 4219 1281 4162 
Q 984 4106 628 3988 
L 628 4550 
Q 988 4650 1302 4700 
Q 1616 4750 1894 4750 
Q 2613 4750 3031 4423 
Q 3450 4097 3450 3541 
Q 3450 3153 3228 2886 
Q 3006 2619 2597 2516 
z
" transform="scale(0.015625)"/>
       </defs>
       <use xlink:href="#DejaVuSans-33"/>
       <use xlink:href="#DejaVuSans-30" x="63.623047"/>
      </g>
     </g>
    </g>
   </g>
   <g id="matplotlib.axis_2">
    <g id="ytick_1">
     <g id="line2d_7">
      <defs>
       <path id="m3f6eb1b3e8" d="M 0 0 
L -3.5 0 
" style="stroke: #000000; stroke-width: 0.8"/>
      </defs>
      <g>
       <use xlink:href="#m3f6eb1b3e8" x="35.304688" y="243.108315" style="stroke: #000000; stroke-width: 0.8"/>
      </g>
     </g>
     <g id="text_7">
      <!-- −10 -->
      <g transform="translate(7.2 246.907534) scale(0.1 -0.1)">
       <use xlink:href="#DejaVuSans-2212"/>
       <use xlink:href="#DejaVuSans-31" x="83.789062"/>
       <use xlink:href="#DejaVuSans-30" x="147.412109"/>
      </g>
     </g>
    </g>
    <g id="ytick_2">
     <g id="line2d_8">
      <g>
       <use xlink:href="#m3f6eb1b3e8" x="35.304688" y="212.374041" style="stroke: #000000; stroke-width: 0.8"/>
      </g>
     </g>
     <g id="text_8">
      <!-- −5 -->
      <g transform="translate(13.5625 216.17326) scale(0.1 -0.1)">
       <defs>
        <path id="DejaVuSans-35" d="M 691 4666 
L 3169 4666 
L 3169 4134 
L 1269 4134 
L 1269 2991 
Q 1406 3038 1543 3061 
Q 1681 3084 1819 3084 
Q 2600 3084 3056 2656 
Q 3513 2228 3513 1497 
Q 3513 744 3044 326 
Q 2575 -91 1722 -91 
Q 1428 -91 1123 -41 
Q 819 9 494 109 
L 494 744 
Q 775 591 1075 516 
Q 1375 441 1709 441 
Q 2250 441 2565 725 
Q 2881 1009 2881 1497 
Q 2881 1984 2565 2268 
Q 2250 2553 1709 2553 
Q 1456 2553 1204 2497 
Q 953 2441 691 2322 
L 691 4666 
z
" transform="scale(0.015625)"/>
       </defs>
       <use xlink:href="#DejaVuSans-2212"/>
       <use xlink:href="#DejaVuSans-35" x="83.789062"/>
      </g>
     </g>
    </g>
    <g id="ytick_3">
     <g id="line2d_9">
      <g>
       <use xlink:href="#m3f6eb1b3e8" x="35.304688" y="181.639767" style="stroke: #000000; stroke-width: 0.8"/>
      </g>
     </g>
     <g id="text_9">
      <!-- 0 -->
      <g transform="translate(21.942187 185.438986) scale(0.1 -0.1)">
       <use xlink:href="#DejaVuSans-30"/>
      </g>
     </g>
    </g>
    <g id="ytick_4">
     <g id="line2d_10">
      <g>
       <use xlink:href="#m3f6eb1b3e8" x="35.304688" y="150.905494" style="stroke: #000000; stroke-width: 0.8"/>
      </g>
     </g>
     <g id="text_10">
      <!-- 5 -->
      <g transform="translate(21.942187 154.704712) scale(0.1 -0.1)">
       <use xlink:href="#DejaVuSans-35"/>
      </g>
     </g>
    </g>
    <g id="ytick_5">
     <g id="line2d_11">
      <g>
       <use xlink:href="#m3f6eb1b3e8" x="35.304688" y="120.17122" style="stroke: #000000; stroke-width: 0.8"/>
      </g>
     </g>
     <g id="text_11">
      <!-- 10 -->
      <g transform="translate(15.579687 123.970439) scale(0.1 -0.1)">
       <use xlink:href="#DejaVuSans-31"/>
       <use xlink:href="#DejaVuSans-30" x="63.623047"/>
      </g>
     </g>
    </g>
    <g id="ytick_6">
     <g id="line2d_12">
      <g>
       <use xlink:href="#m3f6eb1b3e8" x="35.304688" y="89.436946" style="stroke: #000000; stroke-width: 0.8"/>
      </g>
     </g>
     <g id="text_12">
      <!-- 15 -->
      <g transform="translate(15.579687 93.236165) scale(0.1 -0.1)">
       <use xlink:href="#DejaVuSans-31"/>
       <use xlink:href="#DejaVuSans-35" x="63.623047"/>
      </g>
     </g>
    </g>
    <g id="ytick_7">
     <g id="line2d_13">
      <g>
       <use xlink:href="#m3f6eb1b3e8" x="35.304688" y="58.702673" style="stroke: #000000; stroke-width: 0.8"/>
      </g>
     </g>
     <g id="text_13">
      <!-- 20 -->
      <g transform="translate(15.579687 62.501891) scale(0.1 -0.1)">
       <use xlink:href="#DejaVuSans-32"/>
       <use xlink:href="#DejaVuSans-30" x="63.623047"/>
      </g>
     </g>
    </g>
    <g id="ytick_8">
     <g id="line2d_14">
      <g>
       <use xlink:href="#m3f6eb1b3e8" x="35.304688" y="27.968399" style="stroke: #000000; stroke-width: 0.8"/>
      </g>
     </g>
     <g id="text_14">
      <!-- 25 -->
      <g transform="translate(15.579687 31.767618) scale(0.1 -0.1)">
       <use xlink:href="#DejaVuSans-32"/>
       <use xlink:href="#DejaVuSans-35" x="63.623047"/>
      </g>
     </g>
    </g>
   </g>
   <g id="patch_3">
    <path d="M 35.304688 273.312 
L 35.304688 7.2 
" style="fill: none; stroke: #000000; stroke-width: 0.8; stroke-linejoin: miter; stroke-linecap: square"/>
   </g>
   <g id="patch_4">
    <path d="M 392.424688 273.312 
L 392.424688 7.2 
" style="fill: none; stroke: #000000; stroke-width: 0.8; stroke-linejoin: miter; stroke-linecap: square"/>
   </g>
   <g id="patch_5">
    <path d="M 35.304688 273.312 
L 392.424688 273.312 
" style="fill: none; stroke: #000000; stroke-width: 0.8; stroke-linejoin: miter; stroke-linecap: square"/>
   </g>
   <g id="patch_6">
    <path d="M 35.304688 7.2 
L 392.424688 7.2 
" style="fill: none; stroke: #000000; stroke-width: 0.8; stroke-linejoin: miter; stroke-linecap: square"/>
   </g>
  </g>
 </g>
 <defs>
  <clipPath id="p69d8e80918">
   <rect x="35.304688" y="7.2" width="357.12" height="266.112"/>
  </clipPath>
 </defs>
</svg>
