<?xml version="1.0" encoding="utf-8" standalone="no"?>
<!DOCTYPE svg PUBLIC "-//W3C//DTD SVG 1.1//EN"
  "http://www.w3.org/Graphics/SVG/1.1/DTD/svg11.dtd">
<svg xmlns:xlink="http://www.w3.org/1999/xlink" width="399.624687pt" height="297.190125pt" viewBox="0 0 399.624687 297.190125" xmlns="http://www.w3.org/2000/svg" version="1.1">
 <metadata>
  <rdf:RDF xmlns:dc="http://purl.org/dc/elements/1.1/" xmlns:cc="http://creativecommons.org/ns#" xmlns:rdf="http://www.w3.org/1999/02/22-rdf-syntax-ns#">
   <cc:Work>
    <dc:type rdf:resource="http://purl.org/dc/dcmitype/StillImage"/>
    <dc:date>2023-11-11T18:59:36.341848</dc:date>
    <dc:format>image/svg+xml</dc:format>
    <dc:creator>
     <cc:Agent>
      <dc:title>Matplotlib v3.8.0, https://matplotlib.org/</dc:title>
     </cc:Agent>
    </dc:creator>
   </cc:Work>
  </rdf:RDF>
 </metadata>
 <defs>
  <style type="text/css">*{stroke-linejoin: round; stroke-linecap: butt}</style>
 </defs>
 <g id="figure_1">
  <g id="patch_1">
   <path d="M 0 297.190125 
L 399.624687 297.190125 
L 399.624687 0 
L 0 0 
z
" style="fill: #ffffff"/>
  </g>
  <g id="axes_1">
   <g id="patch_2">
    <path d="M 35.304688 273.312 
L 392.424688 273.312 
L 392.424688 7.2 
L 35.304688 7.2 
z
" style="fill: #ffffff"/>
   </g>
   <g id="PathCollection_1">
    <defs>
     <path id="m025c269dd4" d="M 0 1.5 
C 0.397805 1.5 0.77937 1.341951 1.06066 1.06066 
C 1.341951 0.77937 1.5 0.397805 1.5 0 
C 1.5 -0.397805 1.341951 -0.77937 1.06066 -1.06066 
C 0.77937 -1.341951 0.397805 -1.5 0 -1.5 
C -0.397805 -1.5 -0.77937 -1.341951 -1.06066 -1.06066 
C -1.341951 -0.77937 -1.5 -0.397805 -1.5 0 
C -1.5 0.397805 -1.341951 0.77937 -1.06066 1.06066 
C -0.77937 1.341951 -0.397805 1.5 0 1.5 
z
" style="stroke: #ff8c00"/>
    </defs>
    <g clip-path="url(#p66bfd987b9)">
     <use xlink:href="#m025c269dd4" x="102.09614" y="109.74388" style="fill: #ff8c00; stroke: #ff8c00"/>
     <use xlink:href="#m025c269dd4" x="123.275898" y="129.870258" style="fill: #ff8c00; stroke: #ff8c00"/>
     <use xlink:href="#m025c269dd4" x="136.976118" y="104.34141" style="fill: #ff8c00; stroke: #ff8c00"/>
     <use xlink:href="#m025c269dd4" x="173.284073" y="144.565452" style="fill: #ff8c00; stroke: #ff8c00"/>
     <use xlink:href="#m025c269dd4" x="109.325063" y="115.719018" style="fill: #ff8c00; stroke: #ff8c00"/>
     <use xlink:href="#m025c269dd4" x="84.986513" y="103.336747" style="fill: #ff8c00; stroke: #ff8c00"/>
     <use xlink:href="#m025c269dd4" x="138.398944" y="178.866497" style="fill: #ff8c00; stroke: #ff8c00"/>
     <use xlink:href="#m025c269dd4" x="120.357948" y="93.243831" style="fill: #ff8c00; stroke: #ff8c00"/>
     <use xlink:href="#m025c269dd4" x="99.329891" y="160.683272" style="fill: #ff8c00; stroke: #ff8c00"/>
     <use xlink:href="#m025c269dd4" x="81.742042" y="116.549244" style="fill: #ff8c00; stroke: #ff8c00"/>
     <use xlink:href="#m025c269dd4" x="121.971868" y="148.974683" style="fill: #ff8c00; stroke: #ff8c00"/>
     <use xlink:href="#m025c269dd4" x="67.258874" y="103.464036" style="fill: #ff8c00; stroke: #ff8c00"/>
     <use xlink:href="#m025c269dd4" x="227.950646" y="131.408345" style="fill: #ff8c00; stroke: #ff8c00"/>
     <use xlink:href="#m025c269dd4" x="97.401207" y="110.971489" style="fill: #ff8c00; stroke: #ff8c00"/>
     <use xlink:href="#m025c269dd4" x="151.423496" y="145.494812" style="fill: #ff8c00; stroke: #ff8c00"/>
     <use xlink:href="#m025c269dd4" x="128.487186" y="155.515378" style="fill: #ff8c00; stroke: #ff8c00"/>
     <use xlink:href="#m025c269dd4" x="135.278502" y="150.793754" style="fill: #ff8c00; stroke: #ff8c00"/>
     <use xlink:href="#m025c269dd4" x="109.76392" y="98.148568" style="fill: #ff8c00; stroke: #ff8c00"/>
     <use xlink:href="#m025c269dd4" x="113.965897" y="111.109358" style="fill: #ff8c00; stroke: #ff8c00"/>
     <use xlink:href="#m025c269dd4" x="153.27563" y="114.602035" style="fill: #ff8c00; stroke: #ff8c00"/>
     <use xlink:href="#m025c269dd4" x="115.505605" y="148.511254" style="fill: #ff8c00; stroke: #ff8c00"/>
    </g>
   </g>
   <g id="PathCollection_2">
    <defs>
     <path id="m0f2dbda929" d="M 0 1.5 
C 0.397805 1.5 0.77937 1.341951 1.06066 1.06066 
C 1.341951 0.77937 1.5 0.397805 1.5 0 
C 1.5 -0.397805 1.341951 -0.77937 1.06066 -1.06066 
C 0.77937 -1.341951 0.397805 -1.5 0 -1.5 
C -0.397805 -1.5 -0.77937 -1.341951 -1.06066 -1.06066 
C -1.341951 -0.77937 -1.5 -0.397805 -1.5 0 
C -1.5 0.397805 -1.341951 0.77937 -1.06066 1.06066 
C -0.77937 1.341951 -0.397805 1.5 0 1.5 
z
" style="stroke: #006400"/>
    </defs>
    <g clip-path="url(#p66bfd987b9)">
     <use xlink:href="#m0f2dbda929" x="232.565792" y="45.629491" style="fill: #006400; stroke: #006400"/>
     <use xlink:href="#m0f2dbda929" x="320.364322" y="61.386697" style="fill: #006400; stroke: #006400"/>
     <use xlink:href="#m0f2dbda929" x="166.422755" y="88.661164" style="fill: #006400; stroke: #006400"/>
     <use xlink:href="#m0f2dbda929" x="187.507682" y="95.703995" style="fill: #006400; stroke: #006400"/>
     <use xlink:href="#m0f2dbda929" x="209.735023" y="180.073347" style="fill: #006400; stroke: #006400"/>
     <use xlink:href="#m0f2dbda929" x="210.327708" y="104.847473" style="fill: #006400; stroke: #006400"/>
     <use xlink:href="#m0f2dbda929" x="376.19196" y="32.63855" style="fill: #006400; stroke: #006400"/>
     <use xlink:href="#m0f2dbda929" x="247.887443" y="90.293168" style="fill: #006400; stroke: #006400"/>
     <use xlink:href="#m0f2dbda929" x="142.227589" y="176.240553" style="fill: #006400; stroke: #006400"/>
     <use xlink:href="#m0f2dbda929" x="275.485235" y="55.597433" style="fill: #006400; stroke: #006400"/>
     <use xlink:href="#m0f2dbda929" x="174.508406" y="128.936848" style="fill: #006400; stroke: #006400"/>
     <use xlink:href="#m0f2dbda929" x="287.331243" y="19.296" style="fill: #006400; stroke: #006400"/>
     <use xlink:href="#m0f2dbda929" x="300.392754" y="77.590469" style="fill: #006400; stroke: #006400"/>
     <use xlink:href="#m0f2dbda929" x="213.771341" y="136.278783" style="fill: #006400; stroke: #006400"/>
     <use xlink:href="#m0f2dbda929" x="254.454693" y="144.543815" style="fill: #006400; stroke: #006400"/>
    </g>
   </g>
   <g id="PathCollection_3">
    <defs>
     <path id="m1f88b5d722" d="M 0 1.5 
C 0.397805 1.5 0.77937 1.341951 1.06066 1.06066 
C 1.341951 0.77937 1.5 0.397805 1.5 0 
C 1.5 -0.397805 1.341951 -0.77937 1.06066 -1.06066 
C 0.77937 -1.341951 0.397805 -1.5 0 -1.5 
C -0.397805 -1.5 -0.77937 -1.341951 -1.06066 -1.06066 
C -1.341951 -0.77937 -1.5 -0.397805 -1.5 0 
C -1.5 0.397805 -1.341951 0.77937 -1.06066 1.06066 
C -0.77937 1.341951 -0.397805 1.5 0 1.5 
z
" style="stroke: #2f4f4f"/>
    </defs>
    <g clip-path="url(#p66bfd987b9)">
     <use xlink:href="#m1f88b5d722" x="115.217609" y="199.303819" style="fill: #2f4f4f; stroke: #2f4f4f"/>
     <use xlink:href="#m1f88b5d722" x="149.784051" y="198.583296" style="fill: #2f4f4f; stroke: #2f4f4f"/>
     <use xlink:href="#m1f88b5d722" x="156.067478" y="198.002266" style="fill: #2f4f4f; stroke: #2f4f4f"/>
     <use xlink:href="#m1f88b5d722" x="148.881523" y="213.87833" style="fill: #2f4f4f; stroke: #2f4f4f"/>
     <use xlink:href="#m1f88b5d722" x="113.588335" y="182.048261" style="fill: #2f4f4f; stroke: #2f4f4f"/>
     <use xlink:href="#m1f88b5d722" x="152.316161" y="174.704678" style="fill: #2f4f4f; stroke: #2f4f4f"/>
     <use xlink:href="#m1f88b5d722" x="139.019634" y="194.126547" style="fill: #2f4f4f; stroke: #2f4f4f"/>
     <use xlink:href="#m1f88b5d722" x="85.920999" y="171.16709" style="fill: #2f4f4f; stroke: #2f4f4f"/>
     <use xlink:href="#m1f88b5d722" x="194.385199" y="187.946985" style="fill: #2f4f4f; stroke: #2f4f4f"/>
     <use xlink:href="#m1f88b5d722" x="167.797836" y="208.648913" style="fill: #2f4f4f; stroke: #2f4f4f"/>
     <use xlink:href="#m1f88b5d722" x="100.98971" y="174.608907" style="fill: #2f4f4f; stroke: #2f4f4f"/>
     <use xlink:href="#m1f88b5d722" x="121.27891" y="161.512975" style="fill: #2f4f4f; stroke: #2f4f4f"/>
     <use xlink:href="#m1f88b5d722" x="130.09245" y="204.046512" style="fill: #2f4f4f; stroke: #2f4f4f"/>
     <use xlink:href="#m1f88b5d722" x="110.875422" y="155.075811" style="fill: #2f4f4f; stroke: #2f4f4f"/>
    </g>
   </g>
   <g id="PathCollection_4">
    <defs>
     <path id="mc4f70035a5" d="M 0 1.5 
C 0.397805 1.5 0.77937 1.341951 1.06066 1.06066 
C 1.341951 0.77937 1.5 0.397805 1.5 0 
C 1.5 -0.397805 1.341951 -0.77937 1.06066 -1.06066 
C 0.77937 -1.341951 0.397805 -1.5 0 -1.5 
C -0.397805 -1.5 -0.77937 -1.341951 -1.06066 -1.06066 
C -1.341951 -0.77937 -1.5 -0.397805 -1.5 0 
C -1.5 0.397805 -1.341951 0.77937 -1.06066 1.06066 
C -0.77937 1.341951 -0.397805 1.5 0 1.5 
z
" style="stroke: #00bfff"/>
    </defs>
    <g clip-path="url(#p66bfd987b9)">
     <use xlink:href="#mc4f70035a5" x="116.863554" y="162.017104" style="fill: #00bfff; stroke: #00bfff"/>
     <use xlink:href="#mc4f70035a5" x="147.279339" y="190.887895" style="fill: #00bfff; stroke: #00bfff"/>
     <use xlink:href="#mc4f70035a5" x="158.912146" y="198.855257" style="fill: #00bfff; stroke: #00bfff"/>
     <use xlink:href="#mc4f70035a5" x="160.850191" y="181.492834" style="fill: #00bfff; stroke: #00bfff"/>
     <use xlink:href="#mc4f70035a5" x="159.86682" y="221.355647" style="fill: #00bfff; stroke: #00bfff"/>
     <use xlink:href="#mc4f70035a5" x="169.424579" y="179.622971" style="fill: #00bfff; stroke: #00bfff"/>
     <use xlink:href="#mc4f70035a5" x="135.298153" y="164.771995" style="fill: #00bfff; stroke: #00bfff"/>
     <use xlink:href="#mc4f70035a5" x="152.945587" y="193.772276" style="fill: #00bfff; stroke: #00bfff"/>
     <use xlink:href="#mc4f70035a5" x="121.697958" y="171.974032" style="fill: #00bfff; stroke: #00bfff"/>
     <use xlink:href="#mc4f70035a5" x="177.515914" y="234.480348" style="fill: #00bfff; stroke: #00bfff"/>
     <use xlink:href="#mc4f70035a5" x="151.584138" y="209.232541" style="fill: #00bfff; stroke: #00bfff"/>
     <use xlink:href="#mc4f70035a5" x="154.354919" y="182.16526" style="fill: #00bfff; stroke: #00bfff"/>
     <use xlink:href="#mc4f70035a5" x="136.759794" y="205.164716" style="fill: #00bfff; stroke: #00bfff"/>
     <use xlink:href="#mc4f70035a5" x="199.693326" y="251.972526" style="fill: #00bfff; stroke: #00bfff"/>
    </g>
   </g>
   <g id="PathCollection_5">
    <defs>
     <path id="m9866f42b3e" d="M 0 1.5 
C 0.397805 1.5 0.77937 1.341951 1.06066 1.06066 
C 1.341951 0.77937 1.5 0.397805 1.5 0 
C 1.5 -0.397805 1.341951 -0.77937 1.06066 -1.06066 
C 0.77937 -1.341951 0.397805 -1.5 0 -1.5 
C -0.397805 -1.5 -0.77937 -1.341951 -1.06066 -1.06066 
C -1.341951 -0.77937 -1.5 -0.397805 -1.5 0 
C -1.5 0.397805 -1.341951 0.77937 -1.06066 1.06066 
C -0.77937 1.341951 -0.397805 1.5 0 1.5 
z
" style="stroke: #ffff00"/>
    </defs>
    <g clip-path="url(#p66bfd987b9)">
     <use xlink:href="#m9866f42b3e" x="141.980158" y="199.348621" style="fill: #ffff00; stroke: #ffff00"/>
     <use xlink:href="#m9866f42b3e" x="155.145721" y="197.916867" style="fill: #ffff00; stroke: #ffff00"/>
     <use xlink:href="#m9866f42b3e" x="104.944856" y="198.909417" style="fill: #ffff00; stroke: #ffff00"/>
     <use xlink:href="#m9866f42b3e" x="108.727883" y="152.291796" style="fill: #ffff00; stroke: #ffff00"/>
     <use xlink:href="#m9866f42b3e" x="121.287957" y="159.967242" style="fill: #ffff00; stroke: #ffff00"/>
     <use xlink:href="#m9866f42b3e" x="111.098027" y="185.13605" style="fill: #ffff00; stroke: #ffff00"/>
     <use xlink:href="#m9866f42b3e" x="162.546652" y="191.978201" style="fill: #ffff00; stroke: #ffff00"/>
     <use xlink:href="#m9866f42b3e" x="118.302824" y="165.491616" style="fill: #ffff00; stroke: #ffff00"/>
     <use xlink:href="#m9866f42b3e" x="106.965328" y="152.825664" style="fill: #ffff00; stroke: #ffff00"/>
     <use xlink:href="#m9866f42b3e" x="137.425298" y="168.465917" style="fill: #ffff00; stroke: #ffff00"/>
     <use xlink:href="#m9866f42b3e" x="134.968916" y="187.376225" style="fill: #ffff00; stroke: #ffff00"/>
     <use xlink:href="#m9866f42b3e" x="133.199505" y="187.984714" style="fill: #ffff00; stroke: #ffff00"/>
     <use xlink:href="#m9866f42b3e" x="96.182762" y="162.170998" style="fill: #ffff00; stroke: #ffff00"/>
     <use xlink:href="#m9866f42b3e" x="119.10829" y="161.614451" style="fill: #ffff00; stroke: #ffff00"/>
     <use xlink:href="#m9866f42b3e" x="149.391219" y="183.282669" style="fill: #ffff00; stroke: #ffff00"/>
    </g>
   </g>
   <g id="PathCollection_6">
    <defs>
     <path id="m5f7ebd9214" d="M 0 1.5 
C 0.397805 1.5 0.77937 1.341951 1.06066 1.06066 
C 1.341951 0.77937 1.5 0.397805 1.5 0 
C 1.5 -0.397805 1.341951 -0.77937 1.06066 -1.06066 
C 0.77937 -1.341951 0.397805 -1.5 0 -1.5 
C -0.397805 -1.5 -0.77937 -1.341951 -1.06066 -1.06066 
C -1.341951 -0.77937 -1.5 -0.397805 -1.5 0 
C -1.5 0.397805 -1.341951 0.77937 -1.06066 1.06066 
C -0.77937 1.341951 -0.397805 1.5 0 1.5 
z
" style="stroke: #00ffff"/>
    </defs>
    <g clip-path="url(#p66bfd987b9)">
     <use xlink:href="#m5f7ebd9214" x="182.331934" y="213.514072" style="fill: #00ffff; stroke: #00ffff"/>
     <use xlink:href="#m5f7ebd9214" x="165.785185" y="232.790419" style="fill: #00ffff; stroke: #00ffff"/>
     <use xlink:href="#m5f7ebd9214" x="189.252124" y="253.096395" style="fill: #00ffff; stroke: #00ffff"/>
     <use xlink:href="#m5f7ebd9214" x="200.231854" y="244.666284" style="fill: #00ffff; stroke: #00ffff"/>
     <use xlink:href="#m5f7ebd9214" x="144.232387" y="199.239609" style="fill: #00ffff; stroke: #00ffff"/>
     <use xlink:href="#m5f7ebd9214" x="149.07108" y="197.756799" style="fill: #00ffff; stroke: #00ffff"/>
     <use xlink:href="#m5f7ebd9214" x="198.791911" y="230.332272" style="fill: #00ffff; stroke: #00ffff"/>
     <use xlink:href="#m5f7ebd9214" x="150.322779" y="185.268178" style="fill: #00ffff; stroke: #00ffff"/>
     <use xlink:href="#m5f7ebd9214" x="165.92382" y="228.878" style="fill: #00ffff; stroke: #00ffff"/>
     <use xlink:href="#m5f7ebd9214" x="162.496497" y="222.072964" style="fill: #00ffff; stroke: #00ffff"/>
     <use xlink:href="#m5f7ebd9214" x="119.943319" y="197.093774" style="fill: #00ffff; stroke: #00ffff"/>
    </g>
   </g>
   <g id="PathCollection_7">
    <defs>
     <path id="m8cba7187e4" d="M 0 1.5 
C 0.397805 1.5 0.77937 1.341951 1.06066 1.06066 
C 1.341951 0.77937 1.5 0.397805 1.5 0 
C 1.5 -0.397805 1.341951 -0.77937 1.06066 -1.06066 
C 0.77937 -1.341951 0.397805 -1.5 0 -1.5 
C -0.397805 -1.5 -0.77937 -1.341951 -1.06066 -1.06066 
C -1.341951 -0.77937 -1.5 -0.397805 -1.5 0 
C -1.5 0.397805 -1.341951 0.77937 -1.06066 1.06066 
C -0.77937 1.341951 -0.397805 1.5 0 1.5 
z
" style="stroke: #0000ff"/>
    </defs>
    <g clip-path="url(#p66bfd987b9)">
     <use xlink:href="#m8cba7187e4" x="118.846723" y="153.376347" style="fill: #0000ff; stroke: #0000ff"/>
     <use xlink:href="#m8cba7187e4" x="138.879826" y="133.643935" style="fill: #0000ff; stroke: #0000ff"/>
     <use xlink:href="#m8cba7187e4" x="103.433864" y="162.406392" style="fill: #0000ff; stroke: #0000ff"/>
     <use xlink:href="#m8cba7187e4" x="133.853497" y="134.723691" style="fill: #0000ff; stroke: #0000ff"/>
     <use xlink:href="#m8cba7187e4" x="112.816933" y="151.102561" style="fill: #0000ff; stroke: #0000ff"/>
     <use xlink:href="#m8cba7187e4" x="99.27995" y="144.883935" style="fill: #0000ff; stroke: #0000ff"/>
     <use xlink:href="#m8cba7187e4" x="167.957981" y="201.384374" style="fill: #0000ff; stroke: #0000ff"/>
     <use xlink:href="#m8cba7187e4" x="177.799844" y="157.22232" style="fill: #0000ff; stroke: #0000ff"/>
     <use xlink:href="#m8cba7187e4" x="168.87282" y="197.889255" style="fill: #0000ff; stroke: #0000ff"/>
    </g>
   </g>
   <g id="PathCollection_8">
    <defs>
     <path id="mb07a4ed5ec" d="M 0 1.5 
C 0.397805 1.5 0.77937 1.341951 1.06066 1.06066 
C 1.341951 0.77937 1.5 0.397805 1.5 0 
C 1.5 -0.397805 1.341951 -0.77937 1.06066 -1.06066 
C 0.77937 -1.341951 0.397805 -1.5 0 -1.5 
C -0.397805 -1.5 -0.77937 -1.341951 -1.06066 -1.06066 
C -1.341951 -0.77937 -1.5 -0.397805 -1.5 0 
C -1.5 0.397805 -1.341951 0.77937 -1.06066 1.06066 
C -0.77937 1.341951 -0.397805 1.5 0 1.5 
z
" style="stroke: #dc143c"/>
    </defs>
    <g clip-path="url(#p66bfd987b9)">
     <use xlink:href="#mb07a4ed5ec" x="139.023897" y="198.436809" style="fill: #dc143c; stroke: #dc143c"/>
     <use xlink:href="#mb07a4ed5ec" x="307.27997" y="124.072045" style="fill: #dc143c; stroke: #dc143c"/>
     <use xlink:href="#mb07a4ed5ec" x="171.76125" y="185.779639" style="fill: #dc143c; stroke: #dc143c"/>
     <use xlink:href="#mb07a4ed5ec" x="167.077285" y="161.298344" style="fill: #dc143c; stroke: #dc143c"/>
     <use xlink:href="#mb07a4ed5ec" x="168.529969" y="207.709278" style="fill: #dc143c; stroke: #dc143c"/>
     <use xlink:href="#mb07a4ed5ec" x="188.041403" y="171.852267" style="fill: #dc143c; stroke: #dc143c"/>
     <use xlink:href="#mb07a4ed5ec" x="211.154619" y="177.507021" style="fill: #dc143c; stroke: #dc143c"/>
     <use xlink:href="#mb07a4ed5ec" x="193.388838" y="181.25358" style="fill: #dc143c; stroke: #dc143c"/>
     <use xlink:href="#mb07a4ed5ec" x="183.167457" y="197.798906" style="fill: #dc143c; stroke: #dc143c"/>
     <use xlink:href="#mb07a4ed5ec" x="162.042775" y="235.253612" style="fill: #dc143c; stroke: #dc143c"/>
     <use xlink:href="#mb07a4ed5ec" x="141.667503" y="183.879635" style="fill: #dc143c; stroke: #dc143c"/>
     <use xlink:href="#mb07a4ed5ec" x="153.95017" y="158.10745" style="fill: #dc143c; stroke: #dc143c"/>
     <use xlink:href="#mb07a4ed5ec" x="119.845958" y="154.386523" style="fill: #dc143c; stroke: #dc143c"/>
     <use xlink:href="#mb07a4ed5ec" x="193.480902" y="170.25114" style="fill: #dc143c; stroke: #dc143c"/>
     <use xlink:href="#mb07a4ed5ec" x="158.030841" y="139.01417" style="fill: #dc143c; stroke: #dc143c"/>
     <use xlink:href="#mb07a4ed5ec" x="173.492712" y="172.515752" style="fill: #dc143c; stroke: #dc143c"/>
     <use xlink:href="#mb07a4ed5ec" x="168.103772" y="261.216" style="fill: #dc143c; stroke: #dc143c"/>
    </g>
   </g>
   <g id="PathCollection_9">
    <defs>
     <path id="m4de8ee763a" d="M 0 1.5 
C 0.397805 1.5 0.77937 1.341951 1.06066 1.06066 
C 1.341951 0.77937 1.5 0.397805 1.5 0 
C 1.5 -0.397805 1.341951 -0.77937 1.06066 -1.06066 
C 0.77937 -1.341951 0.397805 -1.5 0 -1.5 
C -0.397805 -1.5 -0.77937 -1.341951 -1.06066 -1.06066 
C -1.341951 -0.77937 -1.5 -0.397805 -1.5 0 
C -1.5 0.397805 -1.341951 0.77937 -1.06066 1.06066 
C -0.77937 1.341951 -0.397805 1.5 0 1.5 
z
" style="stroke: #ffe4c4"/>
    </defs>
    <g clip-path="url(#p66bfd987b9)">
     <use xlink:href="#m4de8ee763a" x="165.985663" y="146.290045" style="fill: #ffe4c4; stroke: #ffe4c4"/>
     <use xlink:href="#m4de8ee763a" x="233.379176" y="125.651423" style="fill: #ffe4c4; stroke: #ffe4c4"/>
     <use xlink:href="#m4de8ee763a" x="213.996584" y="111.635633" style="fill: #ffe4c4; stroke: #ffe4c4"/>
     <use xlink:href="#m4de8ee763a" x="287.280039" y="123.606924" style="fill: #ffe4c4; stroke: #ffe4c4"/>
     <use xlink:href="#m4de8ee763a" x="240.429213" y="91.826698" style="fill: #ffe4c4; stroke: #ffe4c4"/>
     <use xlink:href="#m4de8ee763a" x="261.130499" y="100.730356" style="fill: #ffe4c4; stroke: #ffe4c4"/>
     <use xlink:href="#m4de8ee763a" x="176.734301" y="180.355309" style="fill: #ffe4c4; stroke: #ffe4c4"/>
     <use xlink:href="#m4de8ee763a" x="294.937006" y="27.761952" style="fill: #ffe4c4; stroke: #ffe4c4"/>
     <use xlink:href="#m4de8ee763a" x="284.272256" y="73.873039" style="fill: #ffe4c4; stroke: #ffe4c4"/>
     <use xlink:href="#m4de8ee763a" x="269.585555" y="94.573111" style="fill: #ffe4c4; stroke: #ffe4c4"/>
     <use xlink:href="#m4de8ee763a" x="187.814169" y="96.825537" style="fill: #ffe4c4; stroke: #ffe4c4"/>
     <use xlink:href="#m4de8ee763a" x="142.51626" y="138.919596" style="fill: #ffe4c4; stroke: #ffe4c4"/>
    </g>
   </g>
   <g id="PathCollection_10">
    <defs>
     <path id="mbb0fe69088" d="M -2.99994 2.99994 
L 3.00006 2.99994 
L 3.00006 -3.00006 
L -2.99994 -3.00006 
z
" style="stroke: #000000"/>
    </defs>
    <g clip-path="url(#p66bfd987b9)">
     <use xlink:href="#mbb0fe69088" x="59.939625" y="120.608058" style="stroke: #000000"/>
     <use xlink:href="#mbb0fe69088" x="144.96207" y="134.885531" style="stroke: #000000"/>
     <use xlink:href="#mbb0fe69088" x="99.697725" y="129.168366" style="stroke: #000000"/>
     <use xlink:href="#mbb0fe69088" x="129.580285" y="137.099054" style="stroke: #000000"/>
     <use xlink:href="#mbb0fe69088" x="91.595522" y="118.940982" style="stroke: #000000"/>
     <use xlink:href="#mbb0fe69088" x="79.161655" y="116.056087" style="stroke: #000000"/>
     <use xlink:href="#mbb0fe69088" x="129.15181" y="82.538964" style="stroke: #000000"/>
     <use xlink:href="#mbb0fe69088" x="90.481294" y="111.391741" style="stroke: #000000"/>
     <use xlink:href="#mbb0fe69088" x="104.793011" y="128.03053" style="stroke: #000000"/>
     <use xlink:href="#mbb0fe69088" x="110.154891" y="116.185575" style="stroke: #000000"/>
     <use xlink:href="#mbb0fe69088" x="117.365044" y="118.939217" style="stroke: #000000"/>
     <use xlink:href="#mbb0fe69088" x="165.350266" y="141.940799" style="stroke: #000000"/>
     <use xlink:href="#mbb0fe69088" x="109.446945" y="115.187672" style="stroke: #000000"/>
     <use xlink:href="#mbb0fe69088" x="119.149079" y="112.352376" style="stroke: #000000"/>
     <use xlink:href="#mbb0fe69088" x="98.570775" y="112.557946" style="stroke: #000000"/>
     <use xlink:href="#mbb0fe69088" x="119.75611" y="145.771743" style="stroke: #000000"/>
     <use xlink:href="#mbb0fe69088" x="175.386868" y="109.875425" style="stroke: #000000"/>
     <use xlink:href="#mbb0fe69088" x="196.489104" y="151.588819" style="stroke: #000000"/>
     <use xlink:href="#mbb0fe69088" x="147.390079" y="120.646137" style="stroke: #000000"/>
     <use xlink:href="#mbb0fe69088" x="90.443941" y="142.762272" style="stroke: #000000"/>
     <use xlink:href="#mbb0fe69088" x="120.156244" y="100.915631" style="stroke: #000000"/>
     <use xlink:href="#mbb0fe69088" x="153.814449" y="132.780688" style="stroke: #000000"/>
     <use xlink:href="#mbb0fe69088" x="174.213552" y="144.619399" style="stroke: #000000"/>
     <use xlink:href="#mbb0fe69088" x="150.522588" y="114.761448" style="stroke: #000000"/>
     <use xlink:href="#mbb0fe69088" x="89.543833" y="150.271229" style="stroke: #000000"/>
     <use xlink:href="#mbb0fe69088" x="131.933137" y="196.278193" style="stroke: #000000"/>
     <use xlink:href="#mbb0fe69088" x="163.937106" y="173.263686" style="stroke: #000000"/>
     <use xlink:href="#mbb0fe69088" x="57.362635" y="88.80471" style="stroke: #000000"/>
     <use xlink:href="#mbb0fe69088" x="139.388021" y="89.831813" style="stroke: #000000"/>
     <use xlink:href="#mbb0fe69088" x="155.256593" y="143.335293" style="stroke: #000000"/>
     <use xlink:href="#mbb0fe69088" x="113.747683" y="141.489055" style="stroke: #000000"/>
     <use xlink:href="#mbb0fe69088" x="138.046485" y="152.196333" style="stroke: #000000"/>
     <use xlink:href="#mbb0fe69088" x="77.511116" y="126.679164" style="stroke: #000000"/>
     <use xlink:href="#mbb0fe69088" x="119.396881" y="98.08683" style="stroke: #000000"/>
     <use xlink:href="#mbb0fe69088" x="100.51276" y="134.837358" style="stroke: #000000"/>
     <use xlink:href="#mbb0fe69088" x="159.757383" y="117.646517" style="stroke: #000000"/>
     <use xlink:href="#mbb0fe69088" x="120.468133" y="146.36296" style="stroke: #000000"/>
     <use xlink:href="#mbb0fe69088" x="75.829268" y="95.285992" style="stroke: #000000"/>
     <use xlink:href="#mbb0fe69088" x="115.122413" y="80.796697" style="stroke: #000000"/>
     <use xlink:href="#mbb0fe69088" x="153.997095" y="131.756255" style="stroke: #000000"/>
     <use xlink:href="#mbb0fe69088" x="147.086686" y="140.068874" style="stroke: #000000"/>
     <use xlink:href="#mbb0fe69088" x="58.557122" y="131.041787" style="stroke: #000000"/>
     <use xlink:href="#mbb0fe69088" x="99.546074" y="97.771688" style="stroke: #000000"/>
     <use xlink:href="#mbb0fe69088" x="96.838464" y="121.40252" style="stroke: #000000"/>
     <use xlink:href="#mbb0fe69088" x="97.705738" y="128.653869" style="stroke: #000000"/>
     <use xlink:href="#mbb0fe69088" x="81.40484" y="119.234499" style="stroke: #000000"/>
     <use xlink:href="#mbb0fe69088" x="51.537415" y="103.95307" style="stroke: #000000"/>
     <use xlink:href="#mbb0fe69088" x="57.673363" y="103.869701" style="stroke: #000000"/>
     <use xlink:href="#mbb0fe69088" x="132.204666" y="127.4842" style="stroke: #000000"/>
     <use xlink:href="#mbb0fe69088" x="113.392446" y="76.461584" style="stroke: #000000"/>
     <use xlink:href="#mbb0fe69088" x="85.772335" y="107.191752" style="stroke: #000000"/>
     <use xlink:href="#mbb0fe69088" x="148.209271" y="114.300808" style="stroke: #000000"/>
     <use xlink:href="#mbb0fe69088" x="121.465259" y="178.35478" style="stroke: #000000"/>
     <use xlink:href="#mbb0fe69088" x="113.392446" y="76.461584" style="stroke: #000000"/>
     <use xlink:href="#mbb0fe69088" x="192.991581" y="163.16273" style="stroke: #000000"/>
     <use xlink:href="#mbb0fe69088" x="112.150066" y="127.731805" style="stroke: #000000"/>
     <use xlink:href="#mbb0fe69088" x="88.564272" y="108.726379" style="stroke: #000000"/>
     <use xlink:href="#mbb0fe69088" x="87.465075" y="85.242422" style="stroke: #000000"/>
     <use xlink:href="#mbb0fe69088" x="118.470152" y="83.636448" style="stroke: #000000"/>
     <use xlink:href="#mbb0fe69088" x="83.886113" y="124.02422" style="stroke: #000000"/>
     <use xlink:href="#mbb0fe69088" x="60.757876" y="115.88781" style="stroke: #000000"/>
     <use xlink:href="#mbb0fe69088" x="118.123764" y="143.728866" style="stroke: #000000"/>
     <use xlink:href="#mbb0fe69088" x="110.321685" y="116.965599" style="stroke: #000000"/>
     <use xlink:href="#mbb0fe69088" x="198.094374" y="164.817124" style="stroke: #000000"/>
    </g>
   </g>
   <g id="PathCollection_11">
    <defs>
     <path id="m385b6beee6" d="M -3 -0 
L 3 3 
L 3 -3 
z
" style="stroke: #ff8c00"/>
    </defs>
    <g clip-path="url(#p66bfd987b9)">
     <use xlink:href="#m385b6beee6" x="102.555297" y="158.154077" style="fill: #ff8c00; stroke: #ff8c00"/>
     <use xlink:href="#m385b6beee6" x="100.11468" y="128.601539" style="fill: #ff8c00; stroke: #ff8c00"/>
     <use xlink:href="#m385b6beee6" x="115.072097" y="139.306576" style="fill: #ff8c00; stroke: #ff8c00"/>
     <use xlink:href="#m385b6beee6" x="129.658521" y="144.45255" style="fill: #ff8c00; stroke: #ff8c00"/>
     <use xlink:href="#m385b6beee6" x="90.705808" y="108.278641" style="fill: #ff8c00; stroke: #ff8c00"/>
     <use xlink:href="#m385b6beee6" x="85.953823" y="106.809796" style="fill: #ff8c00; stroke: #ff8c00"/>
     <use xlink:href="#m385b6beee6" x="156.779632" y="136.507487" style="fill: #ff8c00; stroke: #ff8c00"/>
     <use xlink:href="#m385b6beee6" x="115.478314" y="121.392707" style="fill: #ff8c00; stroke: #ff8c00"/>
     <use xlink:href="#m385b6beee6" x="93.238684" y="137.018395" style="fill: #ff8c00; stroke: #ff8c00"/>
     <use xlink:href="#m385b6beee6" x="117.354508" y="129.194876" style="fill: #ff8c00; stroke: #ff8c00"/>
     <use xlink:href="#m385b6beee6" x="87.334798" y="128.088097" style="fill: #ff8c00; stroke: #ff8c00"/>
     <use xlink:href="#m385b6beee6" x="135.430515" y="123.9738" style="fill: #ff8c00; stroke: #ff8c00"/>
     <use xlink:href="#m385b6beee6" x="132.41711" y="160.32414" style="fill: #ff8c00; stroke: #ff8c00"/>
     <use xlink:href="#m385b6beee6" x="83.864036" y="132.552071" style="fill: #ff8c00; stroke: #ff8c00"/>
     <use xlink:href="#m385b6beee6" x="89.51073" y="116.06135" style="fill: #ff8c00; stroke: #ff8c00"/>
     <use xlink:href="#m385b6beee6" x="120.160306" y="158.525159" style="fill: #ff8c00; stroke: #ff8c00"/>
     <use xlink:href="#m385b6beee6" x="87.827107" y="132.170745" style="fill: #ff8c00; stroke: #ff8c00"/>
     <use xlink:href="#m385b6beee6" x="160.641004" y="150.37559" style="fill: #ff8c00; stroke: #ff8c00"/>
     <use xlink:href="#m385b6beee6" x="132.223946" y="132.215651" style="fill: #ff8c00; stroke: #ff8c00"/>
     <use xlink:href="#m385b6beee6" x="90.421125" y="148.018036" style="fill: #ff8c00; stroke: #ff8c00"/>
     <use xlink:href="#m385b6beee6" x="88.315734" y="125.184126" style="fill: #ff8c00; stroke: #ff8c00"/>
     <use xlink:href="#m385b6beee6" x="109.703786" y="157.673555" style="fill: #ff8c00; stroke: #ff8c00"/>
     <use xlink:href="#m385b6beee6" x="143.133439" y="164.290783" style="fill: #ff8c00; stroke: #ff8c00"/>
     <use xlink:href="#m385b6beee6" x="155.483618" y="192.570475" style="fill: #ff8c00; stroke: #ff8c00"/>
     <use xlink:href="#m385b6beee6" x="93.787496" y="130.543984" style="fill: #ff8c00; stroke: #ff8c00"/>
     <use xlink:href="#m385b6beee6" x="101.073264" y="143.405568" style="fill: #ff8c00; stroke: #ff8c00"/>
     <use xlink:href="#m385b6beee6" x="89.598836" y="137.869125" style="fill: #ff8c00; stroke: #ff8c00"/>
     <use xlink:href="#m385b6beee6" x="107.662932" y="125.636771" style="fill: #ff8c00; stroke: #ff8c00"/>
     <use xlink:href="#m385b6beee6" x="67.459532" y="133.397896" style="fill: #ff8c00; stroke: #ff8c00"/>
     <use xlink:href="#m385b6beee6" x="83.397098" y="118.075493" style="fill: #ff8c00; stroke: #ff8c00"/>
     <use xlink:href="#m385b6beee6" x="82.04474" y="144.587783" style="fill: #ff8c00; stroke: #ff8c00"/>
     <use xlink:href="#m385b6beee6" x="71.203669" y="130.005056" style="fill: #ff8c00; stroke: #ff8c00"/>
     <use xlink:href="#m385b6beee6" x="119.914728" y="144.534337" style="fill: #ff8c00; stroke: #ff8c00"/>
     <use xlink:href="#m385b6beee6" x="110.848904" y="125.545436" style="fill: #ff8c00; stroke: #ff8c00"/>
     <use xlink:href="#m385b6beee6" x="91.160549" y="115.858306" style="fill: #ff8c00; stroke: #ff8c00"/>
     <use xlink:href="#m385b6beee6" x="142.231011" y="116.440861" style="fill: #ff8c00; stroke: #ff8c00"/>
     <use xlink:href="#m385b6beee6" x="107.786595" y="121.848227" style="fill: #ff8c00; stroke: #ff8c00"/>
     <use xlink:href="#m385b6beee6" x="119.550926" y="143.227703" style="fill: #ff8c00; stroke: #ff8c00"/>
     <use xlink:href="#m385b6beee6" x="106.756698" y="113.902764" style="fill: #ff8c00; stroke: #ff8c00"/>
     <use xlink:href="#m385b6beee6" x="115.68074" y="146.868168" style="fill: #ff8c00; stroke: #ff8c00"/>
     <use xlink:href="#m385b6beee6" x="116.97719" y="128.438321" style="fill: #ff8c00; stroke: #ff8c00"/>
     <use xlink:href="#m385b6beee6" x="191.522677" y="166.769054" style="fill: #ff8c00; stroke: #ff8c00"/>
     <use xlink:href="#m385b6beee6" x="83.468331" y="118.051285" style="fill: #ff8c00; stroke: #ff8c00"/>
     <use xlink:href="#m385b6beee6" x="123.573041" y="141.211349" style="fill: #ff8c00; stroke: #ff8c00"/>
     <use xlink:href="#m385b6beee6" x="141.822389" y="141.046772" style="fill: #ff8c00; stroke: #ff8c00"/>
     <use xlink:href="#m385b6beee6" x="88.147349" y="147.279929" style="fill: #ff8c00; stroke: #ff8c00"/>
     <use xlink:href="#m385b6beee6" x="129.844258" y="147.556152" style="fill: #ff8c00; stroke: #ff8c00"/>
     <use xlink:href="#m385b6beee6" x="117.313981" y="141.718963" style="fill: #ff8c00; stroke: #ff8c00"/>
     <use xlink:href="#m385b6beee6" x="133.254715" y="119.565017" style="fill: #ff8c00; stroke: #ff8c00"/>
     <use xlink:href="#m385b6beee6" x="115.508745" y="143.686214" style="fill: #ff8c00; stroke: #ff8c00"/>
     <use xlink:href="#m385b6beee6" x="164.878605" y="178.13798" style="fill: #ff8c00; stroke: #ff8c00"/>
     <use xlink:href="#m385b6beee6" x="103.465788" y="125.534279" style="fill: #ff8c00; stroke: #ff8c00"/>
     <use xlink:href="#m385b6beee6" x="174.371938" y="195.325717" style="fill: #ff8c00; stroke: #ff8c00"/>
     <use xlink:href="#m385b6beee6" x="104.481452" y="86.218745" style="fill: #ff8c00; stroke: #ff8c00"/>
     <use xlink:href="#m385b6beee6" x="87.108265" y="119.099998" style="fill: #ff8c00; stroke: #ff8c00"/>
     <use xlink:href="#m385b6beee6" x="109.942393" y="126.457607" style="fill: #ff8c00; stroke: #ff8c00"/>
     <use xlink:href="#m385b6beee6" x="93.402904" y="108.044556" style="fill: #ff8c00; stroke: #ff8c00"/>
     <use xlink:href="#m385b6beee6" x="83.49233" y="138.066292" style="fill: #ff8c00; stroke: #ff8c00"/>
     <use xlink:href="#m385b6beee6" x="129.627287" y="138.873295" style="fill: #ff8c00; stroke: #ff8c00"/>
     <use xlink:href="#m385b6beee6" x="95.592146" y="130.379425" style="fill: #ff8c00; stroke: #ff8c00"/>
     <use xlink:href="#m385b6beee6" x="178.646879" y="220.071752" style="fill: #ff8c00; stroke: #ff8c00"/>
     <use xlink:href="#m385b6beee6" x="128.824432" y="117.735113" style="fill: #ff8c00; stroke: #ff8c00"/>
     <use xlink:href="#m385b6beee6" x="129.619557" y="142.463041" style="fill: #ff8c00; stroke: #ff8c00"/>
     <use xlink:href="#m385b6beee6" x="115.140019" y="148.795078" style="fill: #ff8c00; stroke: #ff8c00"/>
    </g>
   </g>
   <g id="matplotlib.axis_1">
    <g id="xtick_1">
     <g id="line2d_1">
      <defs>
       <path id="meffecbf856" d="M 0 0 
L 0 3.5 
" style="stroke: #000000; stroke-width: 0.8"/>
      </defs>
      <g>
       <use xlink:href="#meffecbf856" x="72.615477" y="273.312" style="stroke: #000000; stroke-width: 0.8"/>
      </g>
     </g>
     <g id="text_1">
      <!-- −10 -->
      <g transform="translate(62.063133 287.910437) scale(0.1 -0.1)">
       <defs>
        <path id="DejaVuSans-2212" d="M 678 2272 
L 4684 2272 
L 4684 1741 
L 678 1741 
L 678 2272 
z
" transform="scale(0.015625)"/>
        <path id="DejaVuSans-31" d="M 794 531 
L 1825 531 
L 1825 4091 
L 703 3866 
L 703 4441 
L 1819 4666 
L 2450 4666 
L 2450 531 
L 3481 531 
L 3481 0 
L 794 0 
L 794 531 
z
" transform="scale(0.015625)"/>
        <path id="DejaVuSans-30" d="M 2034 4250 
Q 1547 4250 1301 3770 
Q 1056 3291 1056 2328 
Q 1056 1369 1301 889 
Q 1547 409 2034 409 
Q 2525 409 2770 889 
Q 3016 1369 3016 2328 
Q 3016 3291 2770 3770 
Q 2525 4250 2034 4250 
z
M 2034 4750 
Q 2819 4750 3233 4129 
Q 3647 3509 3647 2328 
Q 3647 1150 3233 529 
Q 2819 -91 2034 -91 
Q 1250 -91 836 529 
Q 422 1150 422 2328 
Q 422 3509 836 4129 
Q 1250 4750 2034 4750 
z
" transform="scale(0.015625)"/>
       </defs>
       <use xlink:href="#DejaVuSans-2212"/>
       <use xlink:href="#DejaVuSans-31" x="83.789062"/>
       <use xlink:href="#DejaVuSans-30" x="147.412109"/>
      </g>
     </g>
    </g>
    <g id="xtick_2">
     <g id="line2d_2">
      <g>
       <use xlink:href="#meffecbf856" x="139.33027" y="273.312" style="stroke: #000000; stroke-width: 0.8"/>
      </g>
     </g>
     <g id="text_2">
      <!-- 0 -->
      <g transform="translate(136.14902 287.910437) scale(0.1 -0.1)">
       <use xlink:href="#DejaVuSans-30"/>
      </g>
     </g>
    </g>
    <g id="xtick_3">
     <g id="line2d_3">
      <g>
       <use xlink:href="#meffecbf856" x="206.045062" y="273.312" style="stroke: #000000; stroke-width: 0.8"/>
      </g>
     </g>
     <g id="text_3">
      <!-- 10 -->
      <g transform="translate(199.682562 287.910437) scale(0.1 -0.1)">
       <use xlink:href="#DejaVuSans-31"/>
       <use xlink:href="#DejaVuSans-30" x="63.623047"/>
      </g>
     </g>
    </g>
    <g id="xtick_4">
     <g id="line2d_4">
      <g>
       <use xlink:href="#meffecbf856" x="272.759855" y="273.312" style="stroke: #000000; stroke-width: 0.8"/>
      </g>
     </g>
     <g id="text_4">
      <!-- 20 -->
      <g transform="translate(266.397355 287.910437) scale(0.1 -0.1)">
       <defs>
        <path id="DejaVuSans-32" d="M 1228 531 
L 3431 531 
L 3431 0 
L 469 0 
L 469 531 
Q 828 903 1448 1529 
Q 2069 2156 2228 2338 
Q 2531 2678 2651 2914 
Q 2772 3150 2772 3378 
Q 2772 3750 2511 3984 
Q 2250 4219 1831 4219 
Q 1534 4219 1204 4116 
Q 875 4013 500 3803 
L 500 4441 
Q 881 4594 1212 4672 
Q 1544 4750 1819 4750 
Q 2544 4750 2975 4387 
Q 3406 4025 3406 3419 
Q 3406 3131 3298 2873 
Q 3191 2616 2906 2266 
Q 2828 2175 2409 1742 
Q 1991 1309 1228 531 
z
" transform="scale(0.015625)"/>
       </defs>
       <use xlink:href="#DejaVuSans-32"/>
       <use xlink:href="#DejaVuSans-30" x="63.623047"/>
      </g>
     </g>
    </g>
    <g id="xtick_5">
     <g id="line2d_5">
      <g>
       <use xlink:href="#meffecbf856" x="339.474647" y="273.312" style="stroke: #000000; stroke-width: 0.8"/>
      </g>
     </g>
     <g id="text_5">
      <!-- 30 -->
      <g transform="translate(333.112147 287.910437) scale(0.1 -0.1)">
       <defs>
        <path id="DejaVuSans-33" d="M 2597 2516 
Q 3050 2419 3304 2112 
Q 3559 1806 3559 1356 
Q 3559 666 3084 287 
Q 2609 -91 1734 -91 
Q 1441 -91 1130 -33 
Q 819 25 488 141 
L 488 750 
Q 750 597 1062 519 
Q 1375 441 1716 441 
Q 2309 441 2620 675 
Q 2931 909 2931 1356 
Q 2931 1769 2642 2001 
Q 2353 2234 1838 2234 
L 1294 2234 
L 1294 2753 
L 1863 2753 
Q 2328 2753 2575 2939 
Q 2822 3125 2822 3475 
Q 2822 3834 2567 4026 
Q 2313 4219 1838 4219 
Q 1578 4219 1281 4162 
Q 984 4106 628 3988 
L 628 4550 
Q 988 4650 1302 4700 
Q 1616 4750 1894 4750 
Q 2613 4750 3031 4423 
Q 3450 4097 3450 3541 
Q 3450 3153 3228 2886 
Q 3006 2619 2597 2516 
z
" transform="scale(0.015625)"/>
       </defs>
       <use xlink:href="#DejaVuSans-33"/>
       <use xlink:href="#DejaVuSans-30" x="63.623047"/>
      </g>
     </g>
    </g>
   </g>
   <g id="matplotlib.axis_2">
    <g id="ytick_1">
     <g id="line2d_6">
      <defs>
       <path id="m7b579fe5a4" d="M 0 0 
L -3.5 0 
" style="stroke: #000000; stroke-width: 0.8"/>
      </defs>
      <g>
       <use xlink:href="#m7b579fe5a4" x="35.304688" y="270.874951" style="stroke: #000000; stroke-width: 0.8"/>
      </g>
     </g>
     <g id="text_6">
      <!-- −20 -->
      <g transform="translate(7.2 274.674169) scale(0.1 -0.1)">
       <use xlink:href="#DejaVuSans-2212"/>
       <use xlink:href="#DejaVuSans-32" x="83.789062"/>
       <use xlink:href="#DejaVuSans-30" x="147.412109"/>
      </g>
     </g>
    </g>
    <g id="ytick_2">
     <g id="line2d_7">
      <g>
       <use xlink:href="#m7b579fe5a4" x="35.304688" y="239.342001" style="stroke: #000000; stroke-width: 0.8"/>
      </g>
     </g>
     <g id="text_7">
      <!-- −15 -->
      <g transform="translate(7.2 243.14122) scale(0.1 -0.1)">
       <defs>
        <path id="DejaVuSans-35" d="M 691 4666 
L 3169 4666 
L 3169 4134 
L 1269 4134 
L 1269 2991 
Q 1406 3038 1543 3061 
Q 1681 3084 1819 3084 
Q 2600 3084 3056 2656 
Q 3513 2228 3513 1497 
Q 3513 744 3044 326 
Q 2575 -91 1722 -91 
Q 1428 -91 1123 -41 
Q 819 9 494 109 
L 494 744 
Q 775 591 1075 516 
Q 1375 441 1709 441 
Q 2250 441 2565 725 
Q 2881 1009 2881 1497 
Q 2881 1984 2565 2268 
Q 2250 2553 1709 2553 
Q 1456 2553 1204 2497 
Q 953 2441 691 2322 
L 691 4666 
z
" transform="scale(0.015625)"/>
       </defs>
       <use xlink:href="#DejaVuSans-2212"/>
       <use xlink:href="#DejaVuSans-31" x="83.789062"/>
       <use xlink:href="#DejaVuSans-35" x="147.412109"/>
      </g>
     </g>
    </g>
    <g id="ytick_3">
     <g id="line2d_8">
      <g>
       <use xlink:href="#m7b579fe5a4" x="35.304688" y="207.809051" style="stroke: #000000; stroke-width: 0.8"/>
      </g>
     </g>
     <g id="text_8">
      <!-- −10 -->
      <g transform="translate(7.2 211.60827) scale(0.1 -0.1)">
       <use xlink:href="#DejaVuSans-2212"/>
       <use xlink:href="#DejaVuSans-31" x="83.789062"/>
       <use xlink:href="#DejaVuSans-30" x="147.412109"/>
      </g>
     </g>
    </g>
    <g id="ytick_4">
     <g id="line2d_9">
      <g>
       <use xlink:href="#m7b579fe5a4" x="35.304688" y="176.276102" style="stroke: #000000; stroke-width: 0.8"/>
      </g>
     </g>
     <g id="text_9">
      <!-- −5 -->
      <g transform="translate(13.5625 180.07532) scale(0.1 -0.1)">
       <use xlink:href="#DejaVuSans-2212"/>
       <use xlink:href="#DejaVuSans-35" x="83.789062"/>
      </g>
     </g>
    </g>
    <g id="ytick_5">
     <g id="line2d_10">
      <g>
       <use xlink:href="#m7b579fe5a4" x="35.304688" y="144.743152" style="stroke: #000000; stroke-width: 0.8"/>
      </g>
     </g>
     <g id="text_10">
      <!-- 0 -->
      <g transform="translate(21.942187 148.542371) scale(0.1 -0.1)">
       <use xlink:href="#DejaVuSans-30"/>
      </g>
     </g>
    </g>
    <g id="ytick_6">
     <g id="line2d_11">
      <g>
       <use xlink:href="#m7b579fe5a4" x="35.304688" y="113.210202" style="stroke: #000000; stroke-width: 0.8"/>
      </g>
     </g>
     <g id="text_11">
      <!-- 5 -->
      <g transform="translate(21.942187 117.009421) scale(0.1 -0.1)">
       <use xlink:href="#DejaVuSans-35"/>
      </g>
     </g>
    </g>
    <g id="ytick_7">
     <g id="line2d_12">
      <g>
       <use xlink:href="#m7b579fe5a4" x="35.304688" y="81.677252" style="stroke: #000000; stroke-width: 0.8"/>
      </g>
     </g>
     <g id="text_12">
      <!-- 10 -->
      <g transform="translate(15.579687 85.476471) scale(0.1 -0.1)">
       <use xlink:href="#DejaVuSans-31"/>
       <use xlink:href="#DejaVuSans-30" x="63.623047"/>
      </g>
     </g>
    </g>
    <g id="ytick_8">
     <g id="line2d_13">
      <g>
       <use xlink:href="#m7b579fe5a4" x="35.304688" y="50.144303" style="stroke: #000000; stroke-width: 0.8"/>
      </g>
     </g>
     <g id="text_13">
      <!-- 15 -->
      <g transform="translate(15.579687 53.943521) scale(0.1 -0.1)">
       <use xlink:href="#DejaVuSans-31"/>
       <use xlink:href="#DejaVuSans-35" x="63.623047"/>
      </g>
     </g>
    </g>
    <g id="ytick_9">
     <g id="line2d_14">
      <g>
       <use xlink:href="#m7b579fe5a4" x="35.304688" y="18.611353" style="stroke: #000000; stroke-width: 0.8"/>
      </g>
     </g>
     <g id="text_14">
      <!-- 20 -->
      <g transform="translate(15.579687 22.410572) scale(0.1 -0.1)">
       <use xlink:href="#DejaVuSans-32"/>
       <use xlink:href="#DejaVuSans-30" x="63.623047"/>
      </g>
     </g>
    </g>
   </g>
   <g id="patch_3">
    <path d="M 35.304688 273.312 
L 35.304688 7.2 
" style="fill: none; stroke: #000000; stroke-width: 0.8; stroke-linejoin: miter; stroke-linecap: square"/>
   </g>
   <g id="patch_4">
    <path d="M 392.424688 273.312 
L 392.424688 7.2 
" style="fill: none; stroke: #000000; stroke-width: 0.8; stroke-linejoin: miter; stroke-linecap: square"/>
   </g>
   <g id="patch_5">
    <path d="M 35.304688 273.312 
L 392.424687 273.312 
" style="fill: none; stroke: #000000; stroke-width: 0.8; stroke-linejoin: miter; stroke-linecap: square"/>
   </g>
   <g id="patch_6">
    <path d="M 35.304688 7.2 
L 392.424687 7.2 
" style="fill: none; stroke: #000000; stroke-width: 0.8; stroke-linejoin: miter; stroke-linecap: square"/>
   </g>
  </g>
 </g>
 <defs>
  <clipPath id="p66bfd987b9">
   <rect x="35.304688" y="7.2" width="357.12" height="266.112"/>
  </clipPath>
 </defs>
</svg>
