<?xml version="1.0" encoding="utf-8" standalone="no"?>
<!DOCTYPE svg PUBLIC "-//W3C//DTD SVG 1.1//EN"
  "http://www.w3.org/Graphics/SVG/1.1/DTD/svg11.dtd">
<svg xmlns:xlink="http://www.w3.org/1999/xlink" width="399.624687pt" height="297.190125pt" viewBox="0 0 399.624687 297.190125" xmlns="http://www.w3.org/2000/svg" version="1.1">
 <metadata>
  <rdf:RDF xmlns:dc="http://purl.org/dc/elements/1.1/" xmlns:cc="http://creativecommons.org/ns#" xmlns:rdf="http://www.w3.org/1999/02/22-rdf-syntax-ns#">
   <cc:Work>
    <dc:type rdf:resource="http://purl.org/dc/dcmitype/StillImage"/>
    <dc:date>2023-11-13T01:13:18.298103</dc:date>
    <dc:format>image/svg+xml</dc:format>
    <dc:creator>
     <cc:Agent>
      <dc:title>Matplotlib v3.8.0, https://matplotlib.org/</dc:title>
     </cc:Agent>
    </dc:creator>
   </cc:Work>
  </rdf:RDF>
 </metadata>
 <defs>
  <style type="text/css">*{stroke-linejoin: round; stroke-linecap: butt}</style>
 </defs>
 <g id="figure_1">
  <g id="patch_1">
   <path d="M 0 297.190125 
L 399.624687 297.190125 
L 399.624687 0 
L 0 0 
z
" style="fill: #ffffff"/>
  </g>
  <g id="axes_1">
   <g id="patch_2">
    <path d="M 35.304688 273.312 
L 392.424688 273.312 
L 392.424688 7.2 
L 35.304688 7.2 
z
" style="fill: #ffffff"/>
   </g>
   <g id="PathCollection_1">
    <defs>
     <path id="mc09949c4a4" d="M 0 1.5 
C 0.397805 1.5 0.77937 1.341951 1.06066 1.06066 
C 1.341951 0.77937 1.5 0.397805 1.5 0 
C 1.5 -0.397805 1.341951 -0.77937 1.06066 -1.06066 
C 0.77937 -1.341951 0.397805 -1.5 0 -1.5 
C -0.397805 -1.5 -0.77937 -1.341951 -1.06066 -1.06066 
C -1.341951 -0.77937 -1.5 -0.397805 -1.5 0 
C -1.5 0.397805 -1.341951 0.77937 -1.06066 1.06066 
C -0.77937 1.341951 -0.397805 1.5 0 1.5 
z
" style="stroke: #ff8c00"/>
    </defs>
    <g clip-path="url(#p31a398d39b)">
     <use xlink:href="#mc09949c4a4" x="138.264712" y="62.374531" style="fill: #ff8c00; stroke: #ff8c00"/>
     <use xlink:href="#mc09949c4a4" x="175.844056" y="26.984692" style="fill: #ff8c00; stroke: #ff8c00"/>
     <use xlink:href="#mc09949c4a4" x="208.326186" y="78.765665" style="fill: #ff8c00; stroke: #ff8c00"/>
     <use xlink:href="#mc09949c4a4" x="153.814725" y="102.725371" style="fill: #ff8c00; stroke: #ff8c00"/>
     <use xlink:href="#mc09949c4a4" x="187.231395" y="82.952633" style="fill: #ff8c00; stroke: #ff8c00"/>
     <use xlink:href="#mc09949c4a4" x="137.307572" y="123.906617" style="fill: #ff8c00; stroke: #ff8c00"/>
     <use xlink:href="#mc09949c4a4" x="176.03505" y="84.582559" style="fill: #ff8c00; stroke: #ff8c00"/>
     <use xlink:href="#mc09949c4a4" x="130.75099" y="74.703047" style="fill: #ff8c00; stroke: #ff8c00"/>
     <use xlink:href="#mc09949c4a4" x="135.888375" y="19.296" style="fill: #ff8c00; stroke: #ff8c00"/>
     <use xlink:href="#mc09949c4a4" x="120.136785" y="59.896758" style="fill: #ff8c00; stroke: #ff8c00"/>
     <use xlink:href="#mc09949c4a4" x="238.911915" y="79.71075" style="fill: #ff8c00; stroke: #ff8c00"/>
     <use xlink:href="#mc09949c4a4" x="143.227604" y="59.063926" style="fill: #ff8c00; stroke: #ff8c00"/>
     <use xlink:href="#mc09949c4a4" x="149.243592" y="101.001667" style="fill: #ff8c00; stroke: #ff8c00"/>
     <use xlink:href="#mc09949c4a4" x="148.435087" y="111.884803" style="fill: #ff8c00; stroke: #ff8c00"/>
    </g>
   </g>
   <g id="PathCollection_2">
    <defs>
     <path id="mcc82473bc1" d="M 0 1.5 
C 0.397805 1.5 0.77937 1.341951 1.06066 1.06066 
C 1.341951 0.77937 1.5 0.397805 1.5 0 
C 1.5 -0.397805 1.341951 -0.77937 1.06066 -1.06066 
C 0.77937 -1.341951 0.397805 -1.5 0 -1.5 
C -0.397805 -1.5 -0.77937 -1.341951 -1.06066 -1.06066 
C -1.341951 -0.77937 -1.5 -0.397805 -1.5 0 
C -1.5 0.397805 -1.341951 0.77937 -1.06066 1.06066 
C -0.77937 1.341951 -0.397805 1.5 0 1.5 
z
" style="stroke: #006400"/>
    </defs>
    <g clip-path="url(#p31a398d39b)">
     <use xlink:href="#mcc82473bc1" x="255.874283" y="129.174894" style="fill: #006400; stroke: #006400"/>
     <use xlink:href="#mcc82473bc1" x="288.331097" y="169.534733" style="fill: #006400; stroke: #006400"/>
     <use xlink:href="#mcc82473bc1" x="335.696004" y="226.622803" style="fill: #006400; stroke: #006400"/>
     <use xlink:href="#mcc82473bc1" x="228.400972" y="160.656804" style="fill: #006400; stroke: #006400"/>
     <use xlink:href="#mcc82473bc1" x="233.736867" y="197.766708" style="fill: #006400; stroke: #006400"/>
     <use xlink:href="#mcc82473bc1" x="301.39499" y="210.398595" style="fill: #006400; stroke: #006400"/>
     <use xlink:href="#mcc82473bc1" x="369.363927" y="185.363351" style="fill: #006400; stroke: #006400"/>
     <use xlink:href="#mcc82473bc1" x="263.868783" y="173.68273" style="fill: #006400; stroke: #006400"/>
     <use xlink:href="#mcc82473bc1" x="376.19196" y="250.451579" style="fill: #006400; stroke: #006400"/>
     <use xlink:href="#mcc82473bc1" x="275.828644" y="247.997225" style="fill: #006400; stroke: #006400"/>
     <use xlink:href="#mcc82473bc1" x="183.411421" y="124.045497" style="fill: #006400; stroke: #006400"/>
    </g>
   </g>
   <g id="PathCollection_3">
    <defs>
     <path id="m20a37d965f" d="M 0 1.5 
C 0.397805 1.5 0.77937 1.341951 1.06066 1.06066 
C 1.341951 0.77937 1.5 0.397805 1.5 0 
C 1.5 -0.397805 1.341951 -0.77937 1.06066 -1.06066 
C 0.77937 -1.341951 0.397805 -1.5 0 -1.5 
C -0.397805 -1.5 -0.77937 -1.341951 -1.06066 -1.06066 
C -1.341951 -0.77937 -1.5 -0.397805 -1.5 0 
C -1.5 0.397805 -1.341951 0.77937 -1.06066 1.06066 
C -0.77937 1.341951 -0.397805 1.5 0 1.5 
z
" style="stroke: #2f4f4f"/>
    </defs>
    <g clip-path="url(#p31a398d39b)">
     <use xlink:href="#m20a37d965f" x="133.91633" y="171.71547" style="fill: #2f4f4f; stroke: #2f4f4f"/>
     <use xlink:href="#m20a37d965f" x="158.936931" y="153.766413" style="fill: #2f4f4f; stroke: #2f4f4f"/>
     <use xlink:href="#m20a37d965f" x="128.243034" y="185.064666" style="fill: #2f4f4f; stroke: #2f4f4f"/>
     <use xlink:href="#m20a37d965f" x="161.747425" y="139.602394" style="fill: #2f4f4f; stroke: #2f4f4f"/>
     <use xlink:href="#m20a37d965f" x="152.797389" y="119.355817" style="fill: #2f4f4f; stroke: #2f4f4f"/>
     <use xlink:href="#m20a37d965f" x="150.781178" y="191.704963" style="fill: #2f4f4f; stroke: #2f4f4f"/>
     <use xlink:href="#m20a37d965f" x="134.281392" y="138.198697" style="fill: #2f4f4f; stroke: #2f4f4f"/>
     <use xlink:href="#m20a37d965f" x="183.602227" y="185.74609" style="fill: #2f4f4f; stroke: #2f4f4f"/>
     <use xlink:href="#m20a37d965f" x="111.760148" y="129.940178" style="fill: #2f4f4f; stroke: #2f4f4f"/>
     <use xlink:href="#m20a37d965f" x="119.938504" y="174.137034" style="fill: #2f4f4f; stroke: #2f4f4f"/>
     <use xlink:href="#m20a37d965f" x="103.52577" y="205.078271" style="fill: #2f4f4f; stroke: #2f4f4f"/>
     <use xlink:href="#m20a37d965f" x="166.019865" y="193.303329" style="fill: #2f4f4f; stroke: #2f4f4f"/>
     <use xlink:href="#m20a37d965f" x="170.57647" y="201.959823" style="fill: #2f4f4f; stroke: #2f4f4f"/>
     <use xlink:href="#m20a37d965f" x="102.399812" y="182.495248" style="fill: #2f4f4f; stroke: #2f4f4f"/>
     <use xlink:href="#m20a37d965f" x="125.274912" y="181.025252" style="fill: #2f4f4f; stroke: #2f4f4f"/>
    </g>
   </g>
   <g id="PathCollection_4">
    <defs>
     <path id="m7941ae02c1" d="M 0 1.5 
C 0.397805 1.5 0.77937 1.341951 1.06066 1.06066 
C 1.341951 0.77937 1.5 0.397805 1.5 0 
C 1.5 -0.397805 1.341951 -0.77937 1.06066 -1.06066 
C 0.77937 -1.341951 0.397805 -1.5 0 -1.5 
C -0.397805 -1.5 -0.77937 -1.341951 -1.06066 -1.06066 
C -1.341951 -0.77937 -1.5 -0.397805 -1.5 0 
C -1.5 0.397805 -1.341951 0.77937 -1.06066 1.06066 
C -0.77937 1.341951 -0.397805 1.5 0 1.5 
z
" style="stroke: #00bfff"/>
    </defs>
    <g clip-path="url(#p31a398d39b)">
     <use xlink:href="#m7941ae02c1" x="73.209647" y="137.232015" style="fill: #00bfff; stroke: #00bfff"/>
     <use xlink:href="#m7941ae02c1" x="127.87906" y="179.77925" style="fill: #00bfff; stroke: #00bfff"/>
     <use xlink:href="#m7941ae02c1" x="143.975901" y="164.172355" style="fill: #00bfff; stroke: #00bfff"/>
     <use xlink:href="#m7941ae02c1" x="114.665857" y="186.405372" style="fill: #00bfff; stroke: #00bfff"/>
     <use xlink:href="#m7941ae02c1" x="107.330111" y="166.946023" style="fill: #00bfff; stroke: #00bfff"/>
     <use xlink:href="#m7941ae02c1" x="186.433771" y="178.713748" style="fill: #00bfff; stroke: #00bfff"/>
     <use xlink:href="#m7941ae02c1" x="122.531033" y="124.002322" style="fill: #00bfff; stroke: #00bfff"/>
     <use xlink:href="#m7941ae02c1" x="117.34288" y="147.400241" style="fill: #00bfff; stroke: #00bfff"/>
     <use xlink:href="#m7941ae02c1" x="146.285449" y="189.871797" style="fill: #00bfff; stroke: #00bfff"/>
     <use xlink:href="#m7941ae02c1" x="131.800534" y="191.935497" style="fill: #00bfff; stroke: #00bfff"/>
     <use xlink:href="#m7941ae02c1" x="158.691069" y="138.979085" style="fill: #00bfff; stroke: #00bfff"/>
     <use xlink:href="#m7941ae02c1" x="179.163741" y="104.50819" style="fill: #00bfff; stroke: #00bfff"/>
     <use xlink:href="#m7941ae02c1" x="97.073067" y="149.517627" style="fill: #00bfff; stroke: #00bfff"/>
     <use xlink:href="#m7941ae02c1" x="154.066264" y="100.483383" style="fill: #00bfff; stroke: #00bfff"/>
     <use xlink:href="#m7941ae02c1" x="102.946262" y="187.47094" style="fill: #00bfff; stroke: #00bfff"/>
    </g>
   </g>
   <g id="PathCollection_5">
    <defs>
     <path id="m6b8d89a19c" d="M 0 1.5 
C 0.397805 1.5 0.77937 1.341951 1.06066 1.06066 
C 1.341951 0.77937 1.5 0.397805 1.5 0 
C 1.5 -0.397805 1.341951 -0.77937 1.06066 -1.06066 
C 0.77937 -1.341951 0.397805 -1.5 0 -1.5 
C -0.397805 -1.5 -0.77937 -1.341951 -1.06066 -1.06066 
C -1.341951 -0.77937 -1.5 -0.397805 -1.5 0 
C -1.5 0.397805 -1.341951 0.77937 -1.06066 1.06066 
C -0.77937 1.341951 -0.397805 1.5 0 1.5 
z
" style="stroke: #ffff00"/>
    </defs>
    <g clip-path="url(#p31a398d39b)">
     <use xlink:href="#m6b8d89a19c" x="107.765946" y="220.834594" style="fill: #ffff00; stroke: #ffff00"/>
     <use xlink:href="#m6b8d89a19c" x="127.694726" y="219.703892" style="fill: #ffff00; stroke: #ffff00"/>
     <use xlink:href="#m6b8d89a19c" x="135.323936" y="197.967044" style="fill: #ffff00; stroke: #ffff00"/>
     <use xlink:href="#m6b8d89a19c" x="164.765287" y="208.678563" style="fill: #ffff00; stroke: #ffff00"/>
     <use xlink:href="#m6b8d89a19c" x="82.372108" y="183.871892" style="fill: #ffff00; stroke: #ffff00"/>
     <use xlink:href="#m6b8d89a19c" x="166.119848" y="208.938645" style="fill: #ffff00; stroke: #ffff00"/>
     <use xlink:href="#m6b8d89a19c" x="166.034564" y="224.628145" style="fill: #ffff00; stroke: #ffff00"/>
     <use xlink:href="#m6b8d89a19c" x="136.603173" y="204.792724" style="fill: #ffff00; stroke: #ffff00"/>
     <use xlink:href="#m6b8d89a19c" x="105.00526" y="201.851063" style="fill: #ffff00; stroke: #ffff00"/>
     <use xlink:href="#m6b8d89a19c" x="141.696675" y="208.46335" style="fill: #ffff00; stroke: #ffff00"/>
     <use xlink:href="#m6b8d89a19c" x="107.797223" y="203.984197" style="fill: #ffff00; stroke: #ffff00"/>
     <use xlink:href="#m6b8d89a19c" x="99.423058" y="185.135403" style="fill: #ffff00; stroke: #ffff00"/>
     <use xlink:href="#m6b8d89a19c" x="107.333902" y="187.866494" style="fill: #ffff00; stroke: #ffff00"/>
     <use xlink:href="#m6b8d89a19c" x="149.010753" y="156.968706" style="fill: #ffff00; stroke: #ffff00"/>
    </g>
   </g>
   <g id="PathCollection_6">
    <defs>
     <path id="m213437caf1" d="M 0 1.5 
C 0.397805 1.5 0.77937 1.341951 1.06066 1.06066 
C 1.341951 0.77937 1.5 0.397805 1.5 0 
C 1.5 -0.397805 1.341951 -0.77937 1.06066 -1.06066 
C 0.77937 -1.341951 0.397805 -1.5 0 -1.5 
C -0.397805 -1.5 -0.77937 -1.341951 -1.06066 -1.06066 
C -1.341951 -0.77937 -1.5 -0.397805 -1.5 0 
C -1.5 0.397805 -1.341951 0.77937 -1.06066 1.06066 
C -0.77937 1.341951 -0.397805 1.5 0 1.5 
z
" style="stroke: #00ffff"/>
    </defs>
    <g clip-path="url(#p31a398d39b)">
     <use xlink:href="#m213437caf1" x="100.619675" y="157.51881" style="fill: #00ffff; stroke: #00ffff"/>
     <use xlink:href="#m213437caf1" x="130.705387" y="195.754279" style="fill: #00ffff; stroke: #00ffff"/>
     <use xlink:href="#m213437caf1" x="169.204269" y="161.877027" style="fill: #00ffff; stroke: #00ffff"/>
     <use xlink:href="#m213437caf1" x="114.232954" y="175.559181" style="fill: #00ffff; stroke: #00ffff"/>
     <use xlink:href="#m213437caf1" x="150.486111" y="211.307353" style="fill: #00ffff; stroke: #00ffff"/>
     <use xlink:href="#m213437caf1" x="112.259621" y="159.876254" style="fill: #00ffff; stroke: #00ffff"/>
     <use xlink:href="#m213437caf1" x="112.515201" y="208.440204" style="fill: #00ffff; stroke: #00ffff"/>
     <use xlink:href="#m213437caf1" x="187.231345" y="176.622425" style="fill: #00ffff; stroke: #00ffff"/>
     <use xlink:href="#m213437caf1" x="140.778639" y="212.937892" style="fill: #00ffff; stroke: #00ffff"/>
     <use xlink:href="#m213437caf1" x="146.846035" y="183.846304" style="fill: #00ffff; stroke: #00ffff"/>
     <use xlink:href="#m213437caf1" x="122.108897" y="219.428305" style="fill: #00ffff; stroke: #00ffff"/>
     <use xlink:href="#m213437caf1" x="109.920101" y="154.343588" style="fill: #00ffff; stroke: #00ffff"/>
     <use xlink:href="#m213437caf1" x="151.510723" y="243.264506" style="fill: #00ffff; stroke: #00ffff"/>
     <use xlink:href="#m213437caf1" x="155.526131" y="103.256887" style="fill: #00ffff; stroke: #00ffff"/>
    </g>
   </g>
   <g id="PathCollection_7">
    <defs>
     <path id="mfc0ef7b6da" d="M 0 1.5 
C 0.397805 1.5 0.77937 1.341951 1.06066 1.06066 
C 1.341951 0.77937 1.5 0.397805 1.5 0 
C 1.5 -0.397805 1.341951 -0.77937 1.06066 -1.06066 
C 0.77937 -1.341951 0.397805 -1.5 0 -1.5 
C -0.397805 -1.5 -0.77937 -1.341951 -1.06066 -1.06066 
C -1.341951 -0.77937 -1.5 -0.397805 -1.5 0 
C -1.5 0.397805 -1.341951 0.77937 -1.06066 1.06066 
C -0.77937 1.341951 -0.397805 1.5 0 1.5 
z
" style="stroke: #0000ff"/>
    </defs>
    <g clip-path="url(#p31a398d39b)">
     <use xlink:href="#mfc0ef7b6da" x="160.756245" y="187.049605" style="fill: #0000ff; stroke: #0000ff"/>
     <use xlink:href="#mfc0ef7b6da" x="122.142262" y="193.947665" style="fill: #0000ff; stroke: #0000ff"/>
     <use xlink:href="#mfc0ef7b6da" x="156.560763" y="226.139083" style="fill: #0000ff; stroke: #0000ff"/>
     <use xlink:href="#mfc0ef7b6da" x="155.260574" y="200.275462" style="fill: #0000ff; stroke: #0000ff"/>
     <use xlink:href="#mfc0ef7b6da" x="99.979847" y="200.679636" style="fill: #0000ff; stroke: #0000ff"/>
     <use xlink:href="#mfc0ef7b6da" x="129.523068" y="188.093697" style="fill: #0000ff; stroke: #0000ff"/>
     <use xlink:href="#mfc0ef7b6da" x="142.472844" y="178.242137" style="fill: #0000ff; stroke: #0000ff"/>
     <use xlink:href="#mfc0ef7b6da" x="161.726429" y="204.88405" style="fill: #0000ff; stroke: #0000ff"/>
     <use xlink:href="#mfc0ef7b6da" x="100.739161" y="197.775818" style="fill: #0000ff; stroke: #0000ff"/>
     <use xlink:href="#mfc0ef7b6da" x="134.316413" y="232.927842" style="fill: #0000ff; stroke: #0000ff"/>
     <use xlink:href="#mfc0ef7b6da" x="140.463733" y="171.827519" style="fill: #0000ff; stroke: #0000ff"/>
     <use xlink:href="#mfc0ef7b6da" x="176.437243" y="235.214133" style="fill: #0000ff; stroke: #0000ff"/>
     <use xlink:href="#mfc0ef7b6da" x="156.385468" y="174.126752" style="fill: #0000ff; stroke: #0000ff"/>
     <use xlink:href="#mfc0ef7b6da" x="136.538478" y="146.464231" style="fill: #0000ff; stroke: #0000ff"/>
     <use xlink:href="#mfc0ef7b6da" x="160.839743" y="109.46285" style="fill: #0000ff; stroke: #0000ff"/>
    </g>
   </g>
   <g id="PathCollection_8">
    <defs>
     <path id="mb18d96dc69" d="M 0 1.5 
C 0.397805 1.5 0.77937 1.341951 1.06066 1.06066 
C 1.341951 0.77937 1.5 0.397805 1.5 0 
C 1.5 -0.397805 1.341951 -0.77937 1.06066 -1.06066 
C 0.77937 -1.341951 0.397805 -1.5 0 -1.5 
C -0.397805 -1.5 -0.77937 -1.341951 -1.06066 -1.06066 
C -1.341951 -0.77937 -1.5 -0.397805 -1.5 0 
C -1.5 0.397805 -1.341951 0.77937 -1.06066 1.06066 
C -0.77937 1.341951 -0.397805 1.5 0 1.5 
z
" style="stroke: #dc143c"/>
    </defs>
    <g clip-path="url(#p31a398d39b)">
     <use xlink:href="#mb18d96dc69" x="158.540871" y="155.915982" style="fill: #dc143c; stroke: #dc143c"/>
     <use xlink:href="#mb18d96dc69" x="219.959857" y="147.844208" style="fill: #dc143c; stroke: #dc143c"/>
     <use xlink:href="#mb18d96dc69" x="194.757272" y="96.899435" style="fill: #dc143c; stroke: #dc143c"/>
     <use xlink:href="#mb18d96dc69" x="211.455972" y="82.877428" style="fill: #dc143c; stroke: #dc143c"/>
     <use xlink:href="#mb18d96dc69" x="166.206673" y="78.714762" style="fill: #dc143c; stroke: #dc143c"/>
     <use xlink:href="#mb18d96dc69" x="156.771561" y="151.132671" style="fill: #dc143c; stroke: #dc143c"/>
     <use xlink:href="#mb18d96dc69" x="187.188036" y="86.678786" style="fill: #dc143c; stroke: #dc143c"/>
     <use xlink:href="#mb18d96dc69" x="258.044452" y="92.172434" style="fill: #dc143c; stroke: #dc143c"/>
     <use xlink:href="#mb18d96dc69" x="199.18721" y="105.784247" style="fill: #dc143c; stroke: #dc143c"/>
     <use xlink:href="#mb18d96dc69" x="173.128106" y="162.342803" style="fill: #dc143c; stroke: #dc143c"/>
     <use xlink:href="#mb18d96dc69" x="165.274697" y="117.087633" style="fill: #dc143c; stroke: #dc143c"/>
     <use xlink:href="#mb18d96dc69" x="130.538261" y="237.400131" style="fill: #dc143c; stroke: #dc143c"/>
    </g>
   </g>
   <g id="PathCollection_9">
    <defs>
     <path id="mdc0475e0b0" d="M 0 1.5 
C 0.397805 1.5 0.77937 1.341951 1.06066 1.06066 
C 1.341951 0.77937 1.5 0.397805 1.5 0 
C 1.5 -0.397805 1.341951 -0.77937 1.06066 -1.06066 
C 0.77937 -1.341951 0.397805 -1.5 0 -1.5 
C -0.397805 -1.5 -0.77937 -1.341951 -1.06066 -1.06066 
C -1.341951 -0.77937 -1.5 -0.397805 -1.5 0 
C -1.5 0.397805 -1.341951 0.77937 -1.06066 1.06066 
C -0.77937 1.341951 -0.397805 1.5 0 1.5 
z
" style="stroke: #ffe4c4"/>
    </defs>
    <g clip-path="url(#p31a398d39b)">
     <use xlink:href="#mdc0475e0b0" x="273.225186" y="197.655224" style="fill: #ffe4c4; stroke: #ffe4c4"/>
     <use xlink:href="#mdc0475e0b0" x="258.154593" y="183.69047" style="fill: #ffe4c4; stroke: #ffe4c4"/>
     <use xlink:href="#mdc0475e0b0" x="168.217261" y="168.42053" style="fill: #ffe4c4; stroke: #ffe4c4"/>
     <use xlink:href="#mdc0475e0b0" x="257.123598" y="212.483994" style="fill: #ffe4c4; stroke: #ffe4c4"/>
     <use xlink:href="#mdc0475e0b0" x="245.599043" y="151.159373" style="fill: #ffe4c4; stroke: #ffe4c4"/>
     <use xlink:href="#mdc0475e0b0" x="209.914781" y="120.189214" style="fill: #ffe4c4; stroke: #ffe4c4"/>
     <use xlink:href="#mdc0475e0b0" x="221.310847" y="111.497483" style="fill: #ffe4c4; stroke: #ffe4c4"/>
     <use xlink:href="#mdc0475e0b0" x="236.490931" y="213.778832" style="fill: #ffe4c4; stroke: #ffe4c4"/>
     <use xlink:href="#mdc0475e0b0" x="246.906052" y="196.512699" style="fill: #ffe4c4; stroke: #ffe4c4"/>
     <use xlink:href="#mdc0475e0b0" x="208.232431" y="163.273913" style="fill: #ffe4c4; stroke: #ffe4c4"/>
     <use xlink:href="#mdc0475e0b0" x="291.511262" y="141.240015" style="fill: #ffe4c4; stroke: #ffe4c4"/>
     <use xlink:href="#mdc0475e0b0" x="214.975852" y="169.903108" style="fill: #ffe4c4; stroke: #ffe4c4"/>
     <use xlink:href="#mdc0475e0b0" x="279.17724" y="180.804333" style="fill: #ffe4c4; stroke: #ffe4c4"/>
     <use xlink:href="#mdc0475e0b0" x="291.385127" y="121.816284" style="fill: #ffe4c4; stroke: #ffe4c4"/>
     <use xlink:href="#mdc0475e0b0" x="290.773466" y="155.328391" style="fill: #ffe4c4; stroke: #ffe4c4"/>
     <use xlink:href="#mdc0475e0b0" x="266.34561" y="170.910612" style="fill: #ffe4c4; stroke: #ffe4c4"/>
     <use xlink:href="#mdc0475e0b0" x="302.051019" y="178.176302" style="fill: #ffe4c4; stroke: #ffe4c4"/>
     <use xlink:href="#mdc0475e0b0" x="228.356313" y="185.492888" style="fill: #ffe4c4; stroke: #ffe4c4"/>
    </g>
   </g>
   <g id="PathCollection_10">
    <defs>
     <path id="me49aa3b429" d="M -2.99994 2.99994 
L 3.00006 2.99994 
L 3.00006 -3.00006 
L -2.99994 -3.00006 
z
" style="stroke: #000000"/>
    </defs>
    <g clip-path="url(#p31a398d39b)">
     <use xlink:href="#me49aa3b429" x="114.235839" y="134.030103" style="stroke: #000000"/>
     <use xlink:href="#me49aa3b429" x="126.689685" y="130.564291" style="stroke: #000000"/>
     <use xlink:href="#me49aa3b429" x="81.626259" y="131.866398" style="stroke: #000000"/>
     <use xlink:href="#me49aa3b429" x="105.682653" y="180.509119" style="stroke: #000000"/>
     <use xlink:href="#me49aa3b429" x="75.138211" y="205.01943" style="stroke: #000000"/>
     <use xlink:href="#me49aa3b429" x="107.444247" y="200.623896" style="stroke: #000000"/>
     <use xlink:href="#me49aa3b429" x="72.094492" y="166.786683" style="stroke: #000000"/>
     <use xlink:href="#me49aa3b429" x="117.282816" y="202.108128" style="stroke: #000000"/>
     <use xlink:href="#me49aa3b429" x="152.009943" y="122.094362" style="stroke: #000000"/>
     <use xlink:href="#me49aa3b429" x="96.030164" y="179.187931" style="stroke: #000000"/>
     <use xlink:href="#me49aa3b429" x="81.957051" y="216.5526" style="stroke: #000000"/>
     <use xlink:href="#me49aa3b429" x="110.155052" y="208.284256" style="stroke: #000000"/>
     <use xlink:href="#me49aa3b429" x="73.054571" y="201.041048" style="stroke: #000000"/>
     <use xlink:href="#me49aa3b429" x="132.058346" y="203.61464" style="stroke: #000000"/>
     <use xlink:href="#me49aa3b429" x="58.671703" y="135.668439" style="stroke: #000000"/>
     <use xlink:href="#me49aa3b429" x="118.875907" y="87.78474" style="stroke: #000000"/>
     <use xlink:href="#me49aa3b429" x="107.830391" y="159.552238" style="stroke: #000000"/>
     <use xlink:href="#me49aa3b429" x="147.96126" y="164.792441" style="stroke: #000000"/>
     <use xlink:href="#me49aa3b429" x="59.558116" y="194.562019" style="stroke: #000000"/>
     <use xlink:href="#me49aa3b429" x="91.765322" y="223.737594" style="stroke: #000000"/>
     <use xlink:href="#me49aa3b429" x="72.109654" y="79.609311" style="stroke: #000000"/>
     <use xlink:href="#me49aa3b429" x="158.0643" y="111.724321" style="stroke: #000000"/>
     <use xlink:href="#me49aa3b429" x="73.240098" y="106.246277" style="stroke: #000000"/>
     <use xlink:href="#me49aa3b429" x="137.482295" y="170.385422" style="stroke: #000000"/>
     <use xlink:href="#me49aa3b429" x="51.537415" y="215.942665" style="stroke: #000000"/>
     <use xlink:href="#me49aa3b429" x="86.427768" y="142.875111" style="stroke: #000000"/>
     <use xlink:href="#me49aa3b429" x="78.756267" y="184.261103" style="stroke: #000000"/>
     <use xlink:href="#me49aa3b429" x="85.48225" y="138.888536" style="stroke: #000000"/>
     <use xlink:href="#me49aa3b429" x="142.734738" y="89.149601" style="stroke: #000000"/>
     <use xlink:href="#me49aa3b429" x="71.451118" y="149.388153" style="stroke: #000000"/>
     <use xlink:href="#me49aa3b429" x="120.63927" y="177.331456" style="stroke: #000000"/>
     <use xlink:href="#me49aa3b429" x="118.19689" y="207.391282" style="stroke: #000000"/>
     <use xlink:href="#me49aa3b429" x="104.497376" y="192.724175" style="stroke: #000000"/>
     <use xlink:href="#me49aa3b429" x="87.465013" y="186.590252" style="stroke: #000000"/>
     <use xlink:href="#me49aa3b429" x="72.392276" y="193.868782" style="stroke: #000000"/>
     <use xlink:href="#me49aa3b429" x="120.454278" y="150.34794" style="stroke: #000000"/>
     <use xlink:href="#me49aa3b429" x="61.162838" y="190.572173" style="stroke: #000000"/>
     <use xlink:href="#me49aa3b429" x="71.516291" y="205.014051" style="stroke: #000000"/>
     <use xlink:href="#me49aa3b429" x="88.325148" y="160.653488" style="stroke: #000000"/>
     <use xlink:href="#me49aa3b429" x="52.07067" y="250.763851" style="stroke: #000000"/>
     <use xlink:href="#me49aa3b429" x="105.832064" y="136.75594" style="stroke: #000000"/>
     <use xlink:href="#me49aa3b429" x="105.231268" y="106.143236" style="stroke: #000000"/>
     <use xlink:href="#me49aa3b429" x="72.51306" y="172.146851" style="stroke: #000000"/>
     <use xlink:href="#me49aa3b429" x="151.393683" y="162.183504" style="stroke: #000000"/>
     <use xlink:href="#me49aa3b429" x="126.43525" y="78.366899" style="stroke: #000000"/>
     <use xlink:href="#me49aa3b429" x="131.156946" y="112.028527" style="stroke: #000000"/>
     <use xlink:href="#me49aa3b429" x="123.103332" y="145.58751" style="stroke: #000000"/>
     <use xlink:href="#me49aa3b429" x="134.372399" y="93.580251" style="stroke: #000000"/>
     <use xlink:href="#me49aa3b429" x="133.574479" y="144.570539" style="stroke: #000000"/>
     <use xlink:href="#me49aa3b429" x="119.304755" y="192.380761" style="stroke: #000000"/>
     <use xlink:href="#me49aa3b429" x="86.552321" y="143.069229" style="stroke: #000000"/>
     <use xlink:href="#me49aa3b429" x="98.092918" y="104.355627" style="stroke: #000000"/>
     <use xlink:href="#me49aa3b429" x="137.063374" y="162.425991" style="stroke: #000000"/>
     <use xlink:href="#me49aa3b429" x="133.022277" y="236.41608" style="stroke: #000000"/>
     <use xlink:href="#me49aa3b429" x="138.911002" y="214.246349" style="stroke: #000000"/>
     <use xlink:href="#me49aa3b429" x="88.111805" y="100.53596" style="stroke: #000000"/>
     <use xlink:href="#me49aa3b429" x="160.881561" y="182.757298" style="stroke: #000000"/>
     <use xlink:href="#me49aa3b429" x="119.61247" y="261.216" style="stroke: #000000"/>
     <use xlink:href="#me49aa3b429" x="108.72484" y="161.543395" style="stroke: #000000"/>
     <use xlink:href="#me49aa3b429" x="127.271704" y="156.294402" style="stroke: #000000"/>
     <use xlink:href="#me49aa3b429" x="161.660548" y="135.556343" style="stroke: #000000"/>
     <use xlink:href="#me49aa3b429" x="96.323236" y="238.742417" style="stroke: #000000"/>
     <use xlink:href="#me49aa3b429" x="72.405074" y="195.308484" style="stroke: #000000"/>
     <use xlink:href="#me49aa3b429" x="149.718896" y="100.669808" style="stroke: #000000"/>
    </g>
   </g>
   <g id="PathCollection_11">
    <defs>
     <path id="m425eb54e40" d="M -3 -0 
L 3 3 
L 3 -3 
z
" style="stroke: #ff8c00"/>
    </defs>
    <g clip-path="url(#p31a398d39b)">
     <use xlink:href="#m425eb54e40" x="121.287287" y="187.667612" style="fill: #ff8c00; stroke: #ff8c00"/>
     <use xlink:href="#m425eb54e40" x="116.934685" y="131.333737" style="fill: #ff8c00; stroke: #ff8c00"/>
     <use xlink:href="#m425eb54e40" x="103.052493" y="146.429671" style="fill: #ff8c00; stroke: #ff8c00"/>
     <use xlink:href="#m425eb54e40" x="105.722926" y="156.014845" style="fill: #ff8c00; stroke: #ff8c00"/>
     <use xlink:href="#m425eb54e40" x="91.194296" y="161.676475" style="fill: #ff8c00; stroke: #ff8c00"/>
     <use xlink:href="#m425eb54e40" x="83.442454" y="163.012984" style="fill: #ff8c00; stroke: #ff8c00"/>
     <use xlink:href="#m425eb54e40" x="107.801671" y="146.547674" style="fill: #ff8c00; stroke: #ff8c00"/>
     <use xlink:href="#m425eb54e40" x="100.288789" y="133.113063" style="fill: #ff8c00; stroke: #ff8c00"/>
     <use xlink:href="#m425eb54e40" x="89.595158" y="154.238182" style="fill: #ff8c00; stroke: #ff8c00"/>
     <use xlink:href="#m425eb54e40" x="118.516791" y="197.105107" style="fill: #ff8c00; stroke: #ff8c00"/>
     <use xlink:href="#m425eb54e40" x="88.215508" y="133.27231" style="fill: #ff8c00; stroke: #ff8c00"/>
     <use xlink:href="#m425eb54e40" x="97.638115" y="130.609888" style="fill: #ff8c00; stroke: #ff8c00"/>
     <use xlink:href="#m425eb54e40" x="101.450563" y="174.833496" style="fill: #ff8c00; stroke: #ff8c00"/>
     <use xlink:href="#m425eb54e40" x="86.42219" y="210.594575" style="fill: #ff8c00; stroke: #ff8c00"/>
     <use xlink:href="#m425eb54e40" x="84.070028" y="175.926669" style="fill: #ff8c00; stroke: #ff8c00"/>
     <use xlink:href="#m425eb54e40" x="121.881901" y="89.82939" style="fill: #ff8c00; stroke: #ff8c00"/>
     <use xlink:href="#m425eb54e40" x="112.132954" y="148.691101" style="fill: #ff8c00; stroke: #ff8c00"/>
     <use xlink:href="#m425eb54e40" x="87.52166" y="131.521971" style="fill: #ff8c00; stroke: #ff8c00"/>
     <use xlink:href="#m425eb54e40" x="82.853721" y="164.460667" style="fill: #ff8c00; stroke: #ff8c00"/>
     <use xlink:href="#m425eb54e40" x="62.124388" y="169.489147" style="fill: #ff8c00; stroke: #ff8c00"/>
     <use xlink:href="#m425eb54e40" x="88.252501" y="235.694406" style="fill: #ff8c00; stroke: #ff8c00"/>
     <use xlink:href="#m425eb54e40" x="53.770453" y="208.520641" style="fill: #ff8c00; stroke: #ff8c00"/>
     <use xlink:href="#m425eb54e40" x="85.726022" y="137.934627" style="fill: #ff8c00; stroke: #ff8c00"/>
     <use xlink:href="#m425eb54e40" x="112.351643" y="114.79634" style="fill: #ff8c00; stroke: #ff8c00"/>
     <use xlink:href="#m425eb54e40" x="61.455744" y="181.227556" style="fill: #ff8c00; stroke: #ff8c00"/>
     <use xlink:href="#m425eb54e40" x="95.862296" y="126.666435" style="fill: #ff8c00; stroke: #ff8c00"/>
     <use xlink:href="#m425eb54e40" x="105.678098" y="134.992696" style="fill: #ff8c00; stroke: #ff8c00"/>
     <use xlink:href="#m425eb54e40" x="115.642222" y="137.960661" style="fill: #ff8c00; stroke: #ff8c00"/>
     <use xlink:href="#m425eb54e40" x="130.939515" y="137.372986" style="fill: #ff8c00; stroke: #ff8c00"/>
     <use xlink:href="#m425eb54e40" x="53.455694" y="141.218348" style="fill: #ff8c00; stroke: #ff8c00"/>
     <use xlink:href="#m425eb54e40" x="102.445364" y="171.820406" style="fill: #ff8c00; stroke: #ff8c00"/>
     <use xlink:href="#m425eb54e40" x="116.159058" y="104.628537" style="fill: #ff8c00; stroke: #ff8c00"/>
     <use xlink:href="#m425eb54e40" x="119.775682" y="103.276563" style="fill: #ff8c00; stroke: #ff8c00"/>
     <use xlink:href="#m425eb54e40" x="69.023294" y="162.113892" style="fill: #ff8c00; stroke: #ff8c00"/>
     <use xlink:href="#m425eb54e40" x="106.525443" y="154.789175" style="fill: #ff8c00; stroke: #ff8c00"/>
     <use xlink:href="#m425eb54e40" x="103.676522" y="122.370168" style="fill: #ff8c00; stroke: #ff8c00"/>
     <use xlink:href="#m425eb54e40" x="108.232182" y="133.465617" style="fill: #ff8c00; stroke: #ff8c00"/>
     <use xlink:href="#m425eb54e40" x="114.020435" y="145.016351" style="fill: #ff8c00; stroke: #ff8c00"/>
     <use xlink:href="#m425eb54e40" x="120.980871" y="100.125408" style="fill: #ff8c00; stroke: #ff8c00"/>
     <use xlink:href="#m425eb54e40" x="119.466677" y="157.762502" style="fill: #ff8c00; stroke: #ff8c00"/>
     <use xlink:href="#m425eb54e40" x="131.828031" y="131.615181" style="fill: #ff8c00; stroke: #ff8c00"/>
     <use xlink:href="#m425eb54e40" x="108.967553" y="141.066386" style="fill: #ff8c00; stroke: #ff8c00"/>
     <use xlink:href="#m425eb54e40" x="108.220225" y="165.566893" style="fill: #ff8c00; stroke: #ff8c00"/>
     <use xlink:href="#m425eb54e40" x="114.03833" y="125.974957" style="fill: #ff8c00; stroke: #ff8c00"/>
     <use xlink:href="#m425eb54e40" x="111.422373" y="166.35061" style="fill: #ff8c00; stroke: #ff8c00"/>
     <use xlink:href="#m425eb54e40" x="104.01347" y="132.966004" style="fill: #ff8c00; stroke: #ff8c00"/>
     <use xlink:href="#m425eb54e40" x="108.071506" y="132.157346" style="fill: #ff8c00; stroke: #ff8c00"/>
     <use xlink:href="#m425eb54e40" x="148.715683" y="143.397755" style="fill: #ff8c00; stroke: #ff8c00"/>
     <use xlink:href="#m425eb54e40" x="86.854641" y="171.291382" style="fill: #ff8c00; stroke: #ff8c00"/>
     <use xlink:href="#m425eb54e40" x="101.904792" y="188.990151" style="fill: #ff8c00; stroke: #ff8c00"/>
     <use xlink:href="#m425eb54e40" x="106.79322" y="133.669144" style="fill: #ff8c00; stroke: #ff8c00"/>
     <use xlink:href="#m425eb54e40" x="109.128378" y="120.879647" style="fill: #ff8c00; stroke: #ff8c00"/>
     <use xlink:href="#m425eb54e40" x="107.723786" y="126.352114" style="fill: #ff8c00; stroke: #ff8c00"/>
     <use xlink:href="#m425eb54e40" x="127.672843" y="170.630523" style="fill: #ff8c00; stroke: #ff8c00"/>
     <use xlink:href="#m425eb54e40" x="94.140335" y="136.627317" style="fill: #ff8c00; stroke: #ff8c00"/>
     <use xlink:href="#m425eb54e40" x="77.356125" y="160.109381" style="fill: #ff8c00; stroke: #ff8c00"/>
     <use xlink:href="#m425eb54e40" x="89.603282" y="129.910536" style="fill: #ff8c00; stroke: #ff8c00"/>
     <use xlink:href="#m425eb54e40" x="116.281096" y="160.260353" style="fill: #ff8c00; stroke: #ff8c00"/>
     <use xlink:href="#m425eb54e40" x="109.216864" y="174.566694" style="fill: #ff8c00; stroke: #ff8c00"/>
     <use xlink:href="#m425eb54e40" x="81.84233" y="160.858279" style="fill: #ff8c00; stroke: #ff8c00"/>
     <use xlink:href="#m425eb54e40" x="103.301715" y="142.568448" style="fill: #ff8c00; stroke: #ff8c00"/>
     <use xlink:href="#m425eb54e40" x="72.788489" y="191.47863" style="fill: #ff8c00; stroke: #ff8c00"/>
     <use xlink:href="#m425eb54e40" x="108.430511" y="173.980392" style="fill: #ff8c00; stroke: #ff8c00"/>
     <use xlink:href="#m425eb54e40" x="123.658556" y="150.616132" style="fill: #ff8c00; stroke: #ff8c00"/>
    </g>
   </g>
   <g id="matplotlib.axis_1">
    <g id="xtick_1">
     <g id="line2d_1">
      <defs>
       <path id="m7d0a53f04a" d="M 0 0 
L 0 3.5 
" style="stroke: #000000; stroke-width: 0.8"/>
      </defs>
      <g>
       <use xlink:href="#m7d0a53f04a" x="79.83126" y="273.312" style="stroke: #000000; stroke-width: 0.8"/>
      </g>
     </g>
     <g id="text_1">
      <!-- −10 -->
      <g transform="translate(69.278916 287.910437) scale(0.1 -0.1)">
       <defs>
        <path id="DejaVuSans-2212" d="M 678 2272 
L 4684 2272 
L 4684 1741 
L 678 1741 
L 678 2272 
z
" transform="scale(0.015625)"/>
        <path id="DejaVuSans-31" d="M 794 531 
L 1825 531 
L 1825 4091 
L 703 3866 
L 703 4441 
L 1819 4666 
L 2450 4666 
L 2450 531 
L 3481 531 
L 3481 0 
L 794 0 
L 794 531 
z
" transform="scale(0.015625)"/>
        <path id="DejaVuSans-30" d="M 2034 4250 
Q 1547 4250 1301 3770 
Q 1056 3291 1056 2328 
Q 1056 1369 1301 889 
Q 1547 409 2034 409 
Q 2525 409 2770 889 
Q 3016 1369 3016 2328 
Q 3016 3291 2770 3770 
Q 2525 4250 2034 4250 
z
M 2034 4750 
Q 2819 4750 3233 4129 
Q 3647 3509 3647 2328 
Q 3647 1150 3233 529 
Q 2819 -91 2034 -91 
Q 1250 -91 836 529 
Q 422 1150 422 2328 
Q 422 3509 836 4129 
Q 1250 4750 2034 4750 
z
" transform="scale(0.015625)"/>
       </defs>
       <use xlink:href="#DejaVuSans-2212"/>
       <use xlink:href="#DejaVuSans-31" x="83.789062"/>
       <use xlink:href="#DejaVuSans-30" x="147.412109"/>
      </g>
     </g>
    </g>
    <g id="xtick_2">
     <g id="line2d_2">
      <g>
       <use xlink:href="#m7d0a53f04a" x="137.623071" y="273.312" style="stroke: #000000; stroke-width: 0.8"/>
      </g>
     </g>
     <g id="text_2">
      <!-- 0 -->
      <g transform="translate(134.441821 287.910437) scale(0.1 -0.1)">
       <use xlink:href="#DejaVuSans-30"/>
      </g>
     </g>
    </g>
    <g id="xtick_3">
     <g id="line2d_3">
      <g>
       <use xlink:href="#m7d0a53f04a" x="195.414883" y="273.312" style="stroke: #000000; stroke-width: 0.8"/>
      </g>
     </g>
     <g id="text_3">
      <!-- 10 -->
      <g transform="translate(189.052383 287.910437) scale(0.1 -0.1)">
       <use xlink:href="#DejaVuSans-31"/>
       <use xlink:href="#DejaVuSans-30" x="63.623047"/>
      </g>
     </g>
    </g>
    <g id="xtick_4">
     <g id="line2d_4">
      <g>
       <use xlink:href="#m7d0a53f04a" x="253.206694" y="273.312" style="stroke: #000000; stroke-width: 0.8"/>
      </g>
     </g>
     <g id="text_4">
      <!-- 20 -->
      <g transform="translate(246.844194 287.910437) scale(0.1 -0.1)">
       <defs>
        <path id="DejaVuSans-32" d="M 1228 531 
L 3431 531 
L 3431 0 
L 469 0 
L 469 531 
Q 828 903 1448 1529 
Q 2069 2156 2228 2338 
Q 2531 2678 2651 2914 
Q 2772 3150 2772 3378 
Q 2772 3750 2511 3984 
Q 2250 4219 1831 4219 
Q 1534 4219 1204 4116 
Q 875 4013 500 3803 
L 500 4441 
Q 881 4594 1212 4672 
Q 1544 4750 1819 4750 
Q 2544 4750 2975 4387 
Q 3406 4025 3406 3419 
Q 3406 3131 3298 2873 
Q 3191 2616 2906 2266 
Q 2828 2175 2409 1742 
Q 1991 1309 1228 531 
z
" transform="scale(0.015625)"/>
       </defs>
       <use xlink:href="#DejaVuSans-32"/>
       <use xlink:href="#DejaVuSans-30" x="63.623047"/>
      </g>
     </g>
    </g>
    <g id="xtick_5">
     <g id="line2d_5">
      <g>
       <use xlink:href="#m7d0a53f04a" x="310.998505" y="273.312" style="stroke: #000000; stroke-width: 0.8"/>
      </g>
     </g>
     <g id="text_5">
      <!-- 30 -->
      <g transform="translate(304.636005 287.910437) scale(0.1 -0.1)">
       <defs>
        <path id="DejaVuSans-33" d="M 2597 2516 
Q 3050 2419 3304 2112 
Q 3559 1806 3559 1356 
Q 3559 666 3084 287 
Q 2609 -91 1734 -91 
Q 1441 -91 1130 -33 
Q 819 25 488 141 
L 488 750 
Q 750 597 1062 519 
Q 1375 441 1716 441 
Q 2309 441 2620 675 
Q 2931 909 2931 1356 
Q 2931 1769 2642 2001 
Q 2353 2234 1838 2234 
L 1294 2234 
L 1294 2753 
L 1863 2753 
Q 2328 2753 2575 2939 
Q 2822 3125 2822 3475 
Q 2822 3834 2567 4026 
Q 2313 4219 1838 4219 
Q 1578 4219 1281 4162 
Q 984 4106 628 3988 
L 628 4550 
Q 988 4650 1302 4700 
Q 1616 4750 1894 4750 
Q 2613 4750 3031 4423 
Q 3450 4097 3450 3541 
Q 3450 3153 3228 2886 
Q 3006 2619 2597 2516 
z
" transform="scale(0.015625)"/>
       </defs>
       <use xlink:href="#DejaVuSans-33"/>
       <use xlink:href="#DejaVuSans-30" x="63.623047"/>
      </g>
     </g>
    </g>
    <g id="xtick_6">
     <g id="line2d_6">
      <g>
       <use xlink:href="#m7d0a53f04a" x="368.790316" y="273.312" style="stroke: #000000; stroke-width: 0.8"/>
      </g>
     </g>
     <g id="text_6">
      <!-- 40 -->
      <g transform="translate(362.427816 287.910437) scale(0.1 -0.1)">
       <defs>
        <path id="DejaVuSans-34" d="M 2419 4116 
L 825 1625 
L 2419 1625 
L 2419 4116 
z
M 2253 4666 
L 3047 4666 
L 3047 1625 
L 3713 1625 
L 3713 1100 
L 3047 1100 
L 3047 0 
L 2419 0 
L 2419 1100 
L 313 1100 
L 313 1709 
L 2253 4666 
z
" transform="scale(0.015625)"/>
       </defs>
       <use xlink:href="#DejaVuSans-34"/>
       <use xlink:href="#DejaVuSans-30" x="63.623047"/>
      </g>
     </g>
    </g>
   </g>
   <g id="matplotlib.axis_2">
    <g id="ytick_1">
     <g id="line2d_7">
      <defs>
       <path id="m5bf469c410" d="M 0 0 
L -3.5 0 
" style="stroke: #000000; stroke-width: 0.8"/>
      </defs>
      <g>
       <use xlink:href="#m5bf469c410" x="35.304688" y="258.803678" style="stroke: #000000; stroke-width: 0.8"/>
      </g>
     </g>
     <g id="text_7">
      <!-- −20 -->
      <g transform="translate(7.2 262.602896) scale(0.1 -0.1)">
       <use xlink:href="#DejaVuSans-2212"/>
       <use xlink:href="#DejaVuSans-32" x="83.789062"/>
       <use xlink:href="#DejaVuSans-30" x="147.412109"/>
      </g>
     </g>
    </g>
    <g id="ytick_2">
     <g id="line2d_8">
      <g>
       <use xlink:href="#m5bf469c410" x="35.304688" y="209.372668" style="stroke: #000000; stroke-width: 0.8"/>
      </g>
     </g>
     <g id="text_8">
      <!-- −10 -->
      <g transform="translate(7.2 213.171887) scale(0.1 -0.1)">
       <use xlink:href="#DejaVuSans-2212"/>
       <use xlink:href="#DejaVuSans-31" x="83.789062"/>
       <use xlink:href="#DejaVuSans-30" x="147.412109"/>
      </g>
     </g>
    </g>
    <g id="ytick_3">
     <g id="line2d_9">
      <g>
       <use xlink:href="#m5bf469c410" x="35.304688" y="159.941659" style="stroke: #000000; stroke-width: 0.8"/>
      </g>
     </g>
     <g id="text_9">
      <!-- 0 -->
      <g transform="translate(21.942187 163.740878) scale(0.1 -0.1)">
       <use xlink:href="#DejaVuSans-30"/>
      </g>
     </g>
    </g>
    <g id="ytick_4">
     <g id="line2d_10">
      <g>
       <use xlink:href="#m5bf469c410" x="35.304688" y="110.51065" style="stroke: #000000; stroke-width: 0.8"/>
      </g>
     </g>
     <g id="text_10">
      <!-- 10 -->
      <g transform="translate(15.579687 114.309869) scale(0.1 -0.1)">
       <use xlink:href="#DejaVuSans-31"/>
       <use xlink:href="#DejaVuSans-30" x="63.623047"/>
      </g>
     </g>
    </g>
    <g id="ytick_5">
     <g id="line2d_11">
      <g>
       <use xlink:href="#m5bf469c410" x="35.304688" y="61.079641" style="stroke: #000000; stroke-width: 0.8"/>
      </g>
     </g>
     <g id="text_11">
      <!-- 20 -->
      <g transform="translate(15.579687 64.87886) scale(0.1 -0.1)">
       <use xlink:href="#DejaVuSans-32"/>
       <use xlink:href="#DejaVuSans-30" x="63.623047"/>
      </g>
     </g>
    </g>
    <g id="ytick_6">
     <g id="line2d_12">
      <g>
       <use xlink:href="#m5bf469c410" x="35.304688" y="11.648632" style="stroke: #000000; stroke-width: 0.8"/>
      </g>
     </g>
     <g id="text_12">
      <!-- 30 -->
      <g transform="translate(15.579687 15.447851) scale(0.1 -0.1)">
       <use xlink:href="#DejaVuSans-33"/>
       <use xlink:href="#DejaVuSans-30" x="63.623047"/>
      </g>
     </g>
    </g>
   </g>
   <g id="patch_3">
    <path d="M 35.304688 273.312 
L 35.304688 7.2 
" style="fill: none; stroke: #000000; stroke-width: 0.8; stroke-linejoin: miter; stroke-linecap: square"/>
   </g>
   <g id="patch_4">
    <path d="M 392.424688 273.312 
L 392.424688 7.2 
" style="fill: none; stroke: #000000; stroke-width: 0.8; stroke-linejoin: miter; stroke-linecap: square"/>
   </g>
   <g id="patch_5">
    <path d="M 35.304688 273.312 
L 392.424688 273.312 
" style="fill: none; stroke: #000000; stroke-width: 0.8; stroke-linejoin: miter; stroke-linecap: square"/>
   </g>
   <g id="patch_6">
    <path d="M 35.304688 7.2 
L 392.424688 7.2 
" style="fill: none; stroke: #000000; stroke-width: 0.8; stroke-linejoin: miter; stroke-linecap: square"/>
   </g>
  </g>
 </g>
 <defs>
  <clipPath id="p31a398d39b">
   <rect x="35.304688" y="7.2" width="357.12" height="266.112"/>
  </clipPath>
 </defs>
</svg>
