<?xml version="1.0" encoding="utf-8" standalone="no"?>
<!DOCTYPE svg PUBLIC "-//W3C//DTD SVG 1.1//EN"
  "http://www.w3.org/Graphics/SVG/1.1/DTD/svg11.dtd">
<svg xmlns:xlink="http://www.w3.org/1999/xlink" width="399.624687pt" height="300.97946pt" viewBox="0 0 399.624687 300.97946" xmlns="http://www.w3.org/2000/svg" version="1.1">
 <metadata>
  <rdf:RDF xmlns:dc="http://purl.org/dc/elements/1.1/" xmlns:cc="http://creativecommons.org/ns#" xmlns:rdf="http://www.w3.org/1999/02/22-rdf-syntax-ns#">
   <cc:Work>
    <dc:type rdf:resource="http://purl.org/dc/dcmitype/StillImage"/>
    <dc:date>2023-11-12T03:13:42.370584</dc:date>
    <dc:format>image/svg+xml</dc:format>
    <dc:creator>
     <cc:Agent>
      <dc:title>Matplotlib v3.8.0, https://matplotlib.org/</dc:title>
     </cc:Agent>
    </dc:creator>
   </cc:Work>
  </rdf:RDF>
 </metadata>
 <defs>
  <style type="text/css">*{stroke-linejoin: round; stroke-linecap: butt}</style>
 </defs>
 <g id="figure_1">
  <g id="patch_1">
   <path d="M 0 300.97946 
L 399.624687 300.97946 
L 399.624687 0 
L 0 0 
z
" style="fill: #ffffff"/>
  </g>
  <g id="axes_1">
   <g id="patch_2">
    <path d="M 35.304688 277.101335 
L 392.424688 277.101335 
L 392.424688 10.989335 
L 35.304688 10.989335 
z
" style="fill: #ffffff"/>
   </g>
   <g id="PathCollection_1">
    <defs>
     <path id="m8472188f6b" d="M 0 1.5 
C 0.397805 1.5 0.77937 1.341951 1.06066 1.06066 
C 1.341951 0.77937 1.5 0.397805 1.5 0 
C 1.5 -0.397805 1.341951 -0.77937 1.06066 -1.06066 
C 0.77937 -1.341951 0.397805 -1.5 0 -1.5 
C -0.397805 -1.5 -0.77937 -1.341951 -1.06066 -1.06066 
C -1.341951 -0.77937 -1.5 -0.397805 -1.5 0 
C -1.5 0.397805 -1.341951 0.77937 -1.06066 1.06066 
C -0.77937 1.341951 -0.397805 1.5 0 1.5 
z
" style="stroke: #ff8c00"/>
    </defs>
    <g clip-path="url(#p7041e8f623)">
     <use xlink:href="#m8472188f6b" x="92.812543" y="194.001998" style="fill: #ff8c00; stroke: #ff8c00"/>
     <use xlink:href="#m8472188f6b" x="106.994016" y="187.703766" style="fill: #ff8c00; stroke: #ff8c00"/>
     <use xlink:href="#m8472188f6b" x="111.179314" y="193.915631" style="fill: #ff8c00; stroke: #ff8c00"/>
     <use xlink:href="#m8472188f6b" x="81.503747" y="202.457801" style="fill: #ff8c00; stroke: #ff8c00"/>
     <use xlink:href="#m8472188f6b" x="123.584867" y="177.953772" style="fill: #ff8c00; stroke: #ff8c00"/>
     <use xlink:href="#m8472188f6b" x="87.247503" y="209.636797" style="fill: #ff8c00; stroke: #ff8c00"/>
     <use xlink:href="#m8472188f6b" x="104.260737" y="197.51102" style="fill: #ff8c00; stroke: #ff8c00"/>
     <use xlink:href="#m8472188f6b" x="107.966295" y="254.279768" style="fill: #ff8c00; stroke: #ff8c00"/>
     <use xlink:href="#m8472188f6b" x="98.23007" y="206.961484" style="fill: #ff8c00; stroke: #ff8c00"/>
     <use xlink:href="#m8472188f6b" x="95.592645" y="226.634659" style="fill: #ff8c00; stroke: #ff8c00"/>
     <use xlink:href="#m8472188f6b" x="118.12027" y="219.501895" style="fill: #ff8c00; stroke: #ff8c00"/>
     <use xlink:href="#m8472188f6b" x="113.044251" y="231.066222" style="fill: #ff8c00; stroke: #ff8c00"/>
     <use xlink:href="#m8472188f6b" x="128.052713" y="203.640756" style="fill: #ff8c00; stroke: #ff8c00"/>
     <use xlink:href="#m8472188f6b" x="135.848984" y="177.068826" style="fill: #ff8c00; stroke: #ff8c00"/>
    </g>
   </g>
   <g id="PathCollection_2">
    <defs>
     <path id="mee10febaf7" d="M 0 1.5 
C 0.397805 1.5 0.77937 1.341951 1.06066 1.06066 
C 1.341951 0.77937 1.5 0.397805 1.5 0 
C 1.5 -0.397805 1.341951 -0.77937 1.06066 -1.06066 
C 0.77937 -1.341951 0.397805 -1.5 0 -1.5 
C -0.397805 -1.5 -0.77937 -1.341951 -1.06066 -1.06066 
C -1.341951 -0.77937 -1.5 -0.397805 -1.5 0 
C -1.5 0.397805 -1.341951 0.77937 -1.06066 1.06066 
C -0.77937 1.341951 -0.397805 1.5 0 1.5 
z
" style="stroke: #006400"/>
    </defs>
    <g clip-path="url(#p7041e8f623)">
     <use xlink:href="#mee10febaf7" x="215.039026" y="234.902175" style="fill: #006400; stroke: #006400"/>
     <use xlink:href="#mee10febaf7" x="267.241567" y="207.477957" style="fill: #006400; stroke: #006400"/>
     <use xlink:href="#mee10febaf7" x="182.532064" y="231.829145" style="fill: #006400; stroke: #006400"/>
     <use xlink:href="#mee10febaf7" x="307.027121" y="154.031134" style="fill: #006400; stroke: #006400"/>
     <use xlink:href="#mee10febaf7" x="231.851594" y="178.834819" style="fill: #006400; stroke: #006400"/>
     <use xlink:href="#mee10febaf7" x="210.395224" y="204.293305" style="fill: #006400; stroke: #006400"/>
     <use xlink:href="#mee10febaf7" x="234.572325" y="245.065726" style="fill: #006400; stroke: #006400"/>
     <use xlink:href="#mee10febaf7" x="191.119227" y="183.257306" style="fill: #006400; stroke: #006400"/>
     <use xlink:href="#mee10febaf7" x="328.102693" y="178.504166" style="fill: #006400; stroke: #006400"/>
     <use xlink:href="#mee10febaf7" x="162.461496" y="188.246671" style="fill: #006400; stroke: #006400"/>
     <use xlink:href="#mee10febaf7" x="293.394794" y="216.477952" style="fill: #006400; stroke: #006400"/>
     <use xlink:href="#mee10febaf7" x="237.504243" y="201.262639" style="fill: #006400; stroke: #006400"/>
     <use xlink:href="#mee10febaf7" x="259.323452" y="180.698711" style="fill: #006400; stroke: #006400"/>
     <use xlink:href="#mee10febaf7" x="141.490707" y="170.374545" style="fill: #006400; stroke: #006400"/>
     <use xlink:href="#mee10febaf7" x="376.19196" y="115.061186" style="fill: #006400; stroke: #006400"/>
     <use xlink:href="#mee10febaf7" x="322.487383" y="214.081393" style="fill: #006400; stroke: #006400"/>
     <use xlink:href="#mee10febaf7" x="215.290947" y="224.939961" style="fill: #006400; stroke: #006400"/>
    </g>
   </g>
   <g id="PathCollection_3">
    <defs>
     <path id="m5551eee9ba" d="M 0 1.5 
C 0.397805 1.5 0.77937 1.341951 1.06066 1.06066 
C 1.341951 0.77937 1.5 0.397805 1.5 0 
C 1.5 -0.397805 1.341951 -0.77937 1.06066 -1.06066 
C 0.77937 -1.341951 0.397805 -1.5 0 -1.5 
C -0.397805 -1.5 -0.77937 -1.341951 -1.06066 -1.06066 
C -1.341951 -0.77937 -1.5 -0.397805 -1.5 0 
C -1.5 0.397805 -1.341951 0.77937 -1.06066 1.06066 
C -0.77937 1.341951 -0.397805 1.5 0 1.5 
z
" style="stroke: #2f4f4f"/>
    </defs>
    <g clip-path="url(#p7041e8f623)">
     <use xlink:href="#m5551eee9ba" x="79.398463" y="222.96251" style="fill: #2f4f4f; stroke: #2f4f4f"/>
     <use xlink:href="#m5551eee9ba" x="62.086419" y="200.63251" style="fill: #2f4f4f; stroke: #2f4f4f"/>
     <use xlink:href="#m5551eee9ba" x="99.658583" y="200.511635" style="fill: #2f4f4f; stroke: #2f4f4f"/>
     <use xlink:href="#m5551eee9ba" x="111.649611" y="221.612809" style="fill: #2f4f4f; stroke: #2f4f4f"/>
     <use xlink:href="#m5551eee9ba" x="85.560903" y="237.235813" style="fill: #2f4f4f; stroke: #2f4f4f"/>
     <use xlink:href="#m5551eee9ba" x="136.848242" y="252.999193" style="fill: #2f4f4f; stroke: #2f4f4f"/>
     <use xlink:href="#m5551eee9ba" x="110.549048" y="245.756407" style="fill: #2f4f4f; stroke: #2f4f4f"/>
     <use xlink:href="#m5551eee9ba" x="178.51328" y="249.469511" style="fill: #2f4f4f; stroke: #2f4f4f"/>
     <use xlink:href="#m5551eee9ba" x="86.963029" y="197.130713" style="fill: #2f4f4f; stroke: #2f4f4f"/>
     <use xlink:href="#m5551eee9ba" x="103.320368" y="215.196927" style="fill: #2f4f4f; stroke: #2f4f4f"/>
     <use xlink:href="#m5551eee9ba" x="143.269473" y="166.794853" style="fill: #2f4f4f; stroke: #2f4f4f"/>
     <use xlink:href="#m5551eee9ba" x="65.451906" y="248.928735" style="fill: #2f4f4f; stroke: #2f4f4f"/>
     <use xlink:href="#m5551eee9ba" x="109.983672" y="258.976125" style="fill: #2f4f4f; stroke: #2f4f4f"/>
     <use xlink:href="#m5551eee9ba" x="145.539095" y="196.128391" style="fill: #2f4f4f; stroke: #2f4f4f"/>
     <use xlink:href="#m5551eee9ba" x="101.978276" y="265.005335" style="fill: #2f4f4f; stroke: #2f4f4f"/>
    </g>
   </g>
   <g id="PathCollection_4">
    <defs>
     <path id="mf941c17687" d="M 0 1.5 
C 0.397805 1.5 0.77937 1.341951 1.06066 1.06066 
C 1.341951 0.77937 1.5 0.397805 1.5 0 
C 1.5 -0.397805 1.341951 -0.77937 1.06066 -1.06066 
C 0.77937 -1.341951 0.397805 -1.5 0 -1.5 
C -0.397805 -1.5 -0.77937 -1.341951 -1.06066 -1.06066 
C -1.341951 -0.77937 -1.5 -0.397805 -1.5 0 
C -1.5 0.397805 -1.341951 0.77937 -1.06066 1.06066 
C -0.77937 1.341951 -0.397805 1.5 0 1.5 
z
" style="stroke: #00bfff"/>
    </defs>
    <g clip-path="url(#p7041e8f623)">
     <use xlink:href="#mf941c17687" x="122.013181" y="241.001007" style="fill: #00bfff; stroke: #00bfff"/>
     <use xlink:href="#mf941c17687" x="118.379322" y="193.372769" style="fill: #00bfff; stroke: #00bfff"/>
     <use xlink:href="#mf941c17687" x="109.785823" y="243.119241" style="fill: #00bfff; stroke: #00bfff"/>
     <use xlink:href="#mf941c17687" x="138.542905" y="235.01669" style="fill: #00bfff; stroke: #00bfff"/>
     <use xlink:href="#mf941c17687" x="69.974045" y="214.427775" style="fill: #00bfff; stroke: #00bfff"/>
     <use xlink:href="#mf941c17687" x="96.252862" y="205.157651" style="fill: #00bfff; stroke: #00bfff"/>
     <use xlink:href="#mf941c17687" x="102.089366" y="200.772607" style="fill: #00bfff; stroke: #00bfff"/>
     <use xlink:href="#mf941c17687" x="90.034758" y="237.312556" style="fill: #00bfff; stroke: #00bfff"/>
     <use xlink:href="#mf941c17687" x="112.97651" y="229.253217" style="fill: #00bfff; stroke: #00bfff"/>
     <use xlink:href="#mf941c17687" x="119.177694" y="207.794823" style="fill: #00bfff; stroke: #00bfff"/>
    </g>
   </g>
   <g id="PathCollection_5">
    <defs>
     <path id="m40cddf4a48" d="M 0 1.5 
C 0.397805 1.5 0.77937 1.341951 1.06066 1.06066 
C 1.341951 0.77937 1.5 0.397805 1.5 0 
C 1.5 -0.397805 1.341951 -0.77937 1.06066 -1.06066 
C 0.77937 -1.341951 0.397805 -1.5 0 -1.5 
C -0.397805 -1.5 -0.77937 -1.341951 -1.06066 -1.06066 
C -1.341951 -0.77937 -1.5 -0.397805 -1.5 0 
C -1.5 0.397805 -1.341951 0.77937 -1.06066 1.06066 
C -0.77937 1.341951 -0.397805 1.5 0 1.5 
z
" style="stroke: #ffff00"/>
    </defs>
    <g clip-path="url(#p7041e8f623)">
     <use xlink:href="#m40cddf4a48" x="72.610257" y="164.930037" style="fill: #ffff00; stroke: #ffff00"/>
     <use xlink:href="#m40cddf4a48" x="83.961444" y="180.982855" style="fill: #ffff00; stroke: #ffff00"/>
     <use xlink:href="#m40cddf4a48" x="103.973384" y="236.402476" style="fill: #ffff00; stroke: #ffff00"/>
     <use xlink:href="#m40cddf4a48" x="102.585707" y="210.643637" style="fill: #ffff00; stroke: #ffff00"/>
     <use xlink:href="#m40cddf4a48" x="59.740135" y="150.573864" style="fill: #ffff00; stroke: #ffff00"/>
     <use xlink:href="#m40cddf4a48" x="96.328198" y="192.832816" style="fill: #ffff00; stroke: #ffff00"/>
     <use xlink:href="#m40cddf4a48" x="137.804539" y="198.633189" style="fill: #ffff00; stroke: #ffff00"/>
     <use xlink:href="#m40cddf4a48" x="76.834618" y="219.24876" style="fill: #ffff00; stroke: #ffff00"/>
     <use xlink:href="#m40cddf4a48" x="88.366816" y="158.41039" style="fill: #ffff00; stroke: #ffff00"/>
     <use xlink:href="#m40cddf4a48" x="64.152905" y="196.48522" style="fill: #ffff00; stroke: #ffff00"/>
     <use xlink:href="#m40cddf4a48" x="108.40314" y="215.311693" style="fill: #ffff00; stroke: #ffff00"/>
     <use xlink:href="#m40cddf4a48" x="95.608462" y="153.980527" style="fill: #ffff00; stroke: #ffff00"/>
     <use xlink:href="#m40cddf4a48" x="107.900525" y="205.552967" style="fill: #ffff00; stroke: #ffff00"/>
     <use xlink:href="#m40cddf4a48" x="91.962088" y="198.013672" style="fill: #ffff00; stroke: #ffff00"/>
     <use xlink:href="#m40cddf4a48" x="81.49105" y="190.370084" style="fill: #ffff00; stroke: #ffff00"/>
     <use xlink:href="#m40cddf4a48" x="93.509739" y="239.887101" style="fill: #ffff00; stroke: #ffff00"/>
    </g>
   </g>
   <g id="PathCollection_6">
    <defs>
     <path id="mf2b9d959d1" d="M 0 1.5 
C 0.397805 1.5 0.77937 1.341951 1.06066 1.06066 
C 1.341951 0.77937 1.5 0.397805 1.5 0 
C 1.5 -0.397805 1.341951 -0.77937 1.06066 -1.06066 
C 0.77937 -1.341951 0.397805 -1.5 0 -1.5 
C -0.397805 -1.5 -0.77937 -1.341951 -1.06066 -1.06066 
C -1.341951 -0.77937 -1.5 -0.397805 -1.5 0 
C -1.5 0.397805 -1.341951 0.77937 -1.06066 1.06066 
C -0.77937 1.341951 -0.397805 1.5 0 1.5 
z
" style="stroke: #00ffff"/>
    </defs>
    <g clip-path="url(#p7041e8f623)">
     <use xlink:href="#mf2b9d959d1" x="139.222792" y="198.955549" style="fill: #00ffff; stroke: #00ffff"/>
     <use xlink:href="#mf2b9d959d1" x="142.620725" y="164.230538" style="fill: #00ffff; stroke: #00ffff"/>
     <use xlink:href="#mf2b9d959d1" x="103.182376" y="189.199249" style="fill: #00ffff; stroke: #00ffff"/>
     <use xlink:href="#mf2b9d959d1" x="90.888991" y="226.69705" style="fill: #00ffff; stroke: #00ffff"/>
     <use xlink:href="#mf2b9d959d1" x="129.466717" y="215.924458" style="fill: #00ffff; stroke: #00ffff"/>
     <use xlink:href="#mf2b9d959d1" x="89.940954" y="210.534364" style="fill: #00ffff; stroke: #00ffff"/>
     <use xlink:href="#mf2b9d959d1" x="95.103501" y="188.733213" style="fill: #00ffff; stroke: #00ffff"/>
     <use xlink:href="#mf2b9d959d1" x="188.985044" y="193.699512" style="fill: #00ffff; stroke: #00ffff"/>
     <use xlink:href="#mf2b9d959d1" x="112.638459" y="189.829875" style="fill: #00ffff; stroke: #00ffff"/>
     <use xlink:href="#mf2b9d959d1" x="108.066232" y="196.981658" style="fill: #00ffff; stroke: #00ffff"/>
     <use xlink:href="#mf2b9d959d1" x="104.201953" y="230.538136" style="fill: #00ffff; stroke: #00ffff"/>
     <use xlink:href="#mf2b9d959d1" x="82.116777" y="222.215355" style="fill: #00ffff; stroke: #00ffff"/>
    </g>
   </g>
   <g id="PathCollection_7">
    <defs>
     <path id="m1ad372981f" d="M 0 1.5 
C 0.397805 1.5 0.77937 1.341951 1.06066 1.06066 
C 1.341951 0.77937 1.5 0.397805 1.5 0 
C 1.5 -0.397805 1.341951 -0.77937 1.06066 -1.06066 
C 0.77937 -1.341951 0.397805 -1.5 0 -1.5 
C -0.397805 -1.5 -0.77937 -1.341951 -1.06066 -1.06066 
C -1.341951 -0.77937 -1.5 -0.397805 -1.5 0 
C -1.5 0.397805 -1.341951 0.77937 -1.06066 1.06066 
C -0.77937 1.341951 -0.397805 1.5 0 1.5 
z
" style="stroke: #0000ff"/>
    </defs>
    <g clip-path="url(#p7041e8f623)">
     <use xlink:href="#m1ad372981f" x="98.7203" y="220.971582" style="fill: #0000ff; stroke: #0000ff"/>
     <use xlink:href="#m1ad372981f" x="94.863134" y="192.813926" style="fill: #0000ff; stroke: #0000ff"/>
     <use xlink:href="#m1ad372981f" x="78.694317" y="188.21695" style="fill: #0000ff; stroke: #0000ff"/>
     <use xlink:href="#m1ad372981f" x="91.720437" y="183.281842" style="fill: #0000ff; stroke: #0000ff"/>
     <use xlink:href="#m1ad372981f" x="85.493257" y="222.923144" style="fill: #0000ff; stroke: #0000ff"/>
     <use xlink:href="#m1ad372981f" x="69.196025" y="170.174249" style="fill: #0000ff; stroke: #0000ff"/>
     <use xlink:href="#m1ad372981f" x="72.127431" y="224.523432" style="fill: #0000ff; stroke: #0000ff"/>
     <use xlink:href="#m1ad372981f" x="79.201061" y="210.195719" style="fill: #0000ff; stroke: #0000ff"/>
     <use xlink:href="#m1ad372981f" x="67.563767" y="204.175696" style="fill: #0000ff; stroke: #0000ff"/>
     <use xlink:href="#m1ad372981f" x="132.452194" y="232.949719" style="fill: #0000ff; stroke: #0000ff"/>
     <use xlink:href="#m1ad372981f" x="100.403084" y="223.856206" style="fill: #0000ff; stroke: #0000ff"/>
     <use xlink:href="#m1ad372981f" x="138.987433" y="212.005282" style="fill: #0000ff; stroke: #0000ff"/>
     <use xlink:href="#m1ad372981f" x="127.233261" y="210.166292" style="fill: #0000ff; stroke: #0000ff"/>
     <use xlink:href="#m1ad372981f" x="121.069331" y="211.935494" style="fill: #0000ff; stroke: #0000ff"/>
     <use xlink:href="#m1ad372981f" x="126.529189" y="217.969974" style="fill: #0000ff; stroke: #0000ff"/>
    </g>
   </g>
   <g id="PathCollection_8">
    <defs>
     <path id="m5dad313d5b" d="M 0 1.5 
C 0.397805 1.5 0.77937 1.341951 1.06066 1.06066 
C 1.341951 0.77937 1.5 0.397805 1.5 0 
C 1.5 -0.397805 1.341951 -0.77937 1.06066 -1.06066 
C 0.77937 -1.341951 0.397805 -1.5 0 -1.5 
C -0.397805 -1.5 -0.77937 -1.341951 -1.06066 -1.06066 
C -1.341951 -0.77937 -1.5 -0.397805 -1.5 0 
C -1.5 0.397805 -1.341951 0.77937 -1.06066 1.06066 
C -0.77937 1.341951 -0.397805 1.5 0 1.5 
z
" style="stroke: #dc143c"/>
    </defs>
    <g clip-path="url(#p7041e8f623)">
     <use xlink:href="#m5dad313d5b" x="118.230893" y="151.121606" style="fill: #dc143c; stroke: #dc143c"/>
     <use xlink:href="#m5dad313d5b" x="101.601587" y="219.96176" style="fill: #dc143c; stroke: #dc143c"/>
     <use xlink:href="#m5dad313d5b" x="134.488807" y="204.689405" style="fill: #dc143c; stroke: #dc143c"/>
     <use xlink:href="#m5dad313d5b" x="160.789479" y="201.038627" style="fill: #dc143c; stroke: #dc143c"/>
     <use xlink:href="#m5dad313d5b" x="77.67409" y="235.656824" style="fill: #dc143c; stroke: #dc143c"/>
     <use xlink:href="#m5dad313d5b" x="77.67409" y="235.656824" style="fill: #dc143c; stroke: #dc143c"/>
     <use xlink:href="#m5dad313d5b" x="173.138397" y="227.569882" style="fill: #dc143c; stroke: #dc143c"/>
     <use xlink:href="#m5dad313d5b" x="183.294398" y="196.783855" style="fill: #dc143c; stroke: #dc143c"/>
     <use xlink:href="#m5dad313d5b" x="208.980838" y="219.546435" style="fill: #dc143c; stroke: #dc143c"/>
     <use xlink:href="#m5dad313d5b" x="147.080146" y="139.149212" style="fill: #dc143c; stroke: #dc143c"/>
     <use xlink:href="#m5dad313d5b" x="163.132658" y="239.755793" style="fill: #dc143c; stroke: #dc143c"/>
     <use xlink:href="#m5dad313d5b" x="125.176911" y="231.873727" style="fill: #dc143c; stroke: #dc143c"/>
     <use xlink:href="#m5dad313d5b" x="105.374712" y="246.783636" style="fill: #dc143c; stroke: #dc143c"/>
    </g>
   </g>
   <g id="PathCollection_9">
    <defs>
     <path id="m0e176afd79" d="M 0 1.5 
C 0.397805 1.5 0.77937 1.341951 1.06066 1.06066 
C 1.341951 0.77937 1.5 0.397805 1.5 0 
C 1.5 -0.397805 1.341951 -0.77937 1.06066 -1.06066 
C 0.77937 -1.341951 0.397805 -1.5 0 -1.5 
C -0.397805 -1.5 -0.77937 -1.341951 -1.06066 -1.06066 
C -1.341951 -0.77937 -1.5 -0.397805 -1.5 0 
C -1.5 0.397805 -1.341951 0.77937 -1.06066 1.06066 
C -0.77937 1.341951 -0.397805 1.5 0 1.5 
z
" style="stroke: #ffe4c4"/>
    </defs>
    <g clip-path="url(#p7041e8f623)">
     <use xlink:href="#m0e176afd79" x="200.713508" y="219.970147" style="fill: #ffe4c4; stroke: #ffe4c4"/>
     <use xlink:href="#m0e176afd79" x="323.323492" y="207.855166" style="fill: #ffe4c4; stroke: #ffe4c4"/>
     <use xlink:href="#m0e176afd79" x="199.923756" y="243.635389" style="fill: #ffe4c4; stroke: #ffe4c4"/>
     <use xlink:href="#m0e176afd79" x="189.402843" y="173.863756" style="fill: #ffe4c4; stroke: #ffe4c4"/>
     <use xlink:href="#m0e176afd79" x="174.418355" y="217.016962" style="fill: #ffe4c4; stroke: #ffe4c4"/>
     <use xlink:href="#m0e176afd79" x="240.05923" y="217.086893" style="fill: #ffe4c4; stroke: #ffe4c4"/>
     <use xlink:href="#m0e176afd79" x="222.016192" y="195.002852" style="fill: #ffe4c4; stroke: #ffe4c4"/>
     <use xlink:href="#m0e176afd79" x="145.26889" y="229.593962" style="fill: #ffe4c4; stroke: #ffe4c4"/>
     <use xlink:href="#m0e176afd79" x="160.443613" y="167.919867" style="fill: #ffe4c4; stroke: #ffe4c4"/>
     <use xlink:href="#m0e176afd79" x="181.423838" y="233.077505" style="fill: #ffe4c4; stroke: #ffe4c4"/>
     <use xlink:href="#m0e176afd79" x="261.548002" y="224.952756" style="fill: #ffe4c4; stroke: #ffe4c4"/>
     <use xlink:href="#m0e176afd79" x="288.807948" y="215.117323" style="fill: #ffe4c4; stroke: #ffe4c4"/>
     <use xlink:href="#m0e176afd79" x="261.124352" y="197.594502" style="fill: #ffe4c4; stroke: #ffe4c4"/>
     <use xlink:href="#m0e176afd79" x="170.773293" y="225.748113" style="fill: #ffe4c4; stroke: #ffe4c4"/>
     <use xlink:href="#m0e176afd79" x="217.212592" y="247.285037" style="fill: #ffe4c4; stroke: #ffe4c4"/>
     <use xlink:href="#m0e176afd79" x="279.240749" y="229.303311" style="fill: #ffe4c4; stroke: #ffe4c4"/>
    </g>
   </g>
   <g id="PathCollection_10">
    <defs>
     <path id="m610a256fa3" d="M -2.99994 2.99994 
L 3.00006 2.99994 
L 3.00006 -3.00006 
L -2.99994 -3.00006 
z
" style="stroke: #000000"/>
    </defs>
    <g clip-path="url(#p7041e8f623)">
     <use xlink:href="#m610a256fa3" x="87.946697" y="129.432813" style="stroke: #000000"/>
     <use xlink:href="#m610a256fa3" x="120.623071" y="197.329813" style="stroke: #000000"/>
     <use xlink:href="#m610a256fa3" x="172.078915" y="47.06541" style="stroke: #000000"/>
     <use xlink:href="#m610a256fa3" x="127.920095" y="220.352115" style="stroke: #000000"/>
     <use xlink:href="#m610a256fa3" x="153.323828" y="255.93404" style="stroke: #000000"/>
     <use xlink:href="#m610a256fa3" x="115.886152" y="212.803598" style="stroke: #000000"/>
     <use xlink:href="#m610a256fa3" x="175.162292" y="79.816772" style="stroke: #000000"/>
     <use xlink:href="#m610a256fa3" x="68.694543" y="135.939661" style="stroke: #000000"/>
     <use xlink:href="#m610a256fa3" x="144.535824" y="213.21857" style="stroke: #000000"/>
     <use xlink:href="#m610a256fa3" x="95.08389" y="249.499103" style="stroke: #000000"/>
     <use xlink:href="#m610a256fa3" x="107.643865" y="158.452877" style="stroke: #000000"/>
     <use xlink:href="#m610a256fa3" x="117.009306" y="200.401773" style="stroke: #000000"/>
     <use xlink:href="#m610a256fa3" x="134.143638" y="163.606505" style="stroke: #000000"/>
     <use xlink:href="#m610a256fa3" x="78.655761" y="155.289228" style="stroke: #000000"/>
     <use xlink:href="#m610a256fa3" x="164.194151" y="180.720574" style="stroke: #000000"/>
     <use xlink:href="#m610a256fa3" x="84.215971" y="185.086054" style="stroke: #000000"/>
     <use xlink:href="#m610a256fa3" x="79.671441" y="143.963341" style="stroke: #000000"/>
     <use xlink:href="#m610a256fa3" x="113.690111" y="192.015561" style="stroke: #000000"/>
     <use xlink:href="#m610a256fa3" x="156.243687" y="195.438761" style="stroke: #000000"/>
     <use xlink:href="#m610a256fa3" x="88.387715" y="197.187785" style="stroke: #000000"/>
     <use xlink:href="#m610a256fa3" x="123.785913" y="231.460891" style="stroke: #000000"/>
     <use xlink:href="#m610a256fa3" x="109.6502" y="201.931477" style="stroke: #000000"/>
     <use xlink:href="#m610a256fa3" x="197.709227" y="164.104042" style="stroke: #000000"/>
     <use xlink:href="#m610a256fa3" x="82.561948" y="161.249492" style="stroke: #000000"/>
     <use xlink:href="#m610a256fa3" x="126.477865" y="216.816525" style="stroke: #000000"/>
     <use xlink:href="#m610a256fa3" x="140.665873" y="23.085335" style="stroke: #000000"/>
     <use xlink:href="#m610a256fa3" x="102.129324" y="139.631332" style="stroke: #000000"/>
     <use xlink:href="#m610a256fa3" x="149.71598" y="118.308483" style="stroke: #000000"/>
     <use xlink:href="#m610a256fa3" x="99.567052" y="216.284993" style="stroke: #000000"/>
     <use xlink:href="#m610a256fa3" x="96.79721" y="161.131873" style="stroke: #000000"/>
     <use xlink:href="#m610a256fa3" x="109.537351" y="167.211845" style="stroke: #000000"/>
     <use xlink:href="#m610a256fa3" x="103.244184" y="245.481908" style="stroke: #000000"/>
     <use xlink:href="#m610a256fa3" x="119.835203" y="101.185527" style="stroke: #000000"/>
     <use xlink:href="#m610a256fa3" x="132.983255" y="164.612586" style="stroke: #000000"/>
     <use xlink:href="#m610a256fa3" x="80.254163" y="134.974703" style="stroke: #000000"/>
     <use xlink:href="#m610a256fa3" x="73.22941" y="202.486116" style="stroke: #000000"/>
     <use xlink:href="#m610a256fa3" x="59.568534" y="172.339463" style="stroke: #000000"/>
     <use xlink:href="#m610a256fa3" x="116.460711" y="95.268914" style="stroke: #000000"/>
     <use xlink:href="#m610a256fa3" x="107.420538" y="210.398847" style="stroke: #000000"/>
     <use xlink:href="#m610a256fa3" x="149.310192" y="86.566021" style="stroke: #000000"/>
     <use xlink:href="#m610a256fa3" x="166.811797" y="70.295324" style="stroke: #000000"/>
     <use xlink:href="#m610a256fa3" x="99.385518" y="184.902427" style="stroke: #000000"/>
     <use xlink:href="#m610a256fa3" x="125.185308" y="214.550342" style="stroke: #000000"/>
     <use xlink:href="#m610a256fa3" x="102.154316" y="211.219825" style="stroke: #000000"/>
     <use xlink:href="#m610a256fa3" x="77.837695" y="211.860788" style="stroke: #000000"/>
     <use xlink:href="#m610a256fa3" x="144.212969" y="141.556123" style="stroke: #000000"/>
     <use xlink:href="#m610a256fa3" x="103.550813" y="156.250701" style="stroke: #000000"/>
     <use xlink:href="#m610a256fa3" x="84.813277" y="212.756458" style="stroke: #000000"/>
     <use xlink:href="#m610a256fa3" x="125.050297" y="162.899733" style="stroke: #000000"/>
     <use xlink:href="#m610a256fa3" x="118.418726" y="196.697717" style="stroke: #000000"/>
     <use xlink:href="#m610a256fa3" x="89.718698" y="202.316125" style="stroke: #000000"/>
     <use xlink:href="#m610a256fa3" x="140.986834" y="58.636442" style="stroke: #000000"/>
     <use xlink:href="#m610a256fa3" x="121.037382" y="168.505827" style="stroke: #000000"/>
     <use xlink:href="#m610a256fa3" x="98.780888" y="178.874664" style="stroke: #000000"/>
     <use xlink:href="#m610a256fa3" x="102.348772" y="178.950707" style="stroke: #000000"/>
     <use xlink:href="#m610a256fa3" x="120.701009" y="100.87569" style="stroke: #000000"/>
     <use xlink:href="#m610a256fa3" x="86.749866" y="134.360541" style="stroke: #000000"/>
     <use xlink:href="#m610a256fa3" x="100.957425" y="191.738058" style="stroke: #000000"/>
     <use xlink:href="#m610a256fa3" x="117.242871" y="93.894687" style="stroke: #000000"/>
     <use xlink:href="#m610a256fa3" x="138.60327" y="120.722221" style="stroke: #000000"/>
     <use xlink:href="#m610a256fa3" x="106.992589" y="151.672919" style="stroke: #000000"/>
     <use xlink:href="#m610a256fa3" x="109.422761" y="221.478879" style="stroke: #000000"/>
     <use xlink:href="#m610a256fa3" x="104.35884" y="191.656129" style="stroke: #000000"/>
     <use xlink:href="#m610a256fa3" x="127.726411" y="219.329464" style="stroke: #000000"/>
    </g>
   </g>
   <g id="PathCollection_11">
    <defs>
     <path id="me453916cff" d="M -3 -0 
L 3 3 
L 3 -3 
z
" style="stroke: #ff8c00"/>
    </defs>
    <g clip-path="url(#p7041e8f623)">
     <use xlink:href="#me453916cff" x="147.51247" y="192.451241" style="fill: #ff8c00; stroke: #ff8c00"/>
     <use xlink:href="#me453916cff" x="106.893981" y="175.481894" style="fill: #ff8c00; stroke: #ff8c00"/>
     <use xlink:href="#me453916cff" x="106.325754" y="183.450288" style="fill: #ff8c00; stroke: #ff8c00"/>
     <use xlink:href="#me453916cff" x="107.87347" y="198.59858" style="fill: #ff8c00; stroke: #ff8c00"/>
     <use xlink:href="#me453916cff" x="67.955473" y="211.708415" style="fill: #ff8c00; stroke: #ff8c00"/>
     <use xlink:href="#me453916cff" x="84.790254" y="170.526675" style="fill: #ff8c00; stroke: #ff8c00"/>
     <use xlink:href="#me453916cff" x="133.768464" y="141.369399" style="fill: #ff8c00; stroke: #ff8c00"/>
     <use xlink:href="#me453916cff" x="119.391051" y="186.109905" style="fill: #ff8c00; stroke: #ff8c00"/>
     <use xlink:href="#me453916cff" x="112.530484" y="130.83272" style="fill: #ff8c00; stroke: #ff8c00"/>
     <use xlink:href="#me453916cff" x="111.393908" y="179.347208" style="fill: #ff8c00; stroke: #ff8c00"/>
     <use xlink:href="#me453916cff" x="136.728398" y="113.291442" style="fill: #ff8c00; stroke: #ff8c00"/>
     <use xlink:href="#me453916cff" x="99.381769" y="196.9322" style="fill: #ff8c00; stroke: #ff8c00"/>
     <use xlink:href="#me453916cff" x="107.597477" y="139.051357" style="fill: #ff8c00; stroke: #ff8c00"/>
     <use xlink:href="#me453916cff" x="51.537415" y="169.342381" style="fill: #ff8c00; stroke: #ff8c00"/>
     <use xlink:href="#me453916cff" x="72.42769" y="166.466127" style="fill: #ff8c00; stroke: #ff8c00"/>
     <use xlink:href="#me453916cff" x="166.542868" y="192.353123" style="fill: #ff8c00; stroke: #ff8c00"/>
     <use xlink:href="#me453916cff" x="86.005082" y="197.661322" style="fill: #ff8c00; stroke: #ff8c00"/>
     <use xlink:href="#me453916cff" x="97.924141" y="176.07226" style="fill: #ff8c00; stroke: #ff8c00"/>
     <use xlink:href="#me453916cff" x="131.889029" y="150.805098" style="fill: #ff8c00; stroke: #ff8c00"/>
     <use xlink:href="#me453916cff" x="98.48304" y="210.96582" style="fill: #ff8c00; stroke: #ff8c00"/>
     <use xlink:href="#me453916cff" x="98.478955" y="161.229936" style="fill: #ff8c00; stroke: #ff8c00"/>
     <use xlink:href="#me453916cff" x="74.878591" y="204.990641" style="fill: #ff8c00; stroke: #ff8c00"/>
     <use xlink:href="#me453916cff" x="118.585655" y="177.724126" style="fill: #ff8c00; stroke: #ff8c00"/>
     <use xlink:href="#me453916cff" x="109.059979" y="170.539321" style="fill: #ff8c00; stroke: #ff8c00"/>
     <use xlink:href="#me453916cff" x="68.1477" y="204.922103" style="fill: #ff8c00; stroke: #ff8c00"/>
     <use xlink:href="#me453916cff" x="121.691802" y="90.273317" style="fill: #ff8c00; stroke: #ff8c00"/>
     <use xlink:href="#me453916cff" x="122.028655" y="162.374297" style="fill: #ff8c00; stroke: #ff8c00"/>
     <use xlink:href="#me453916cff" x="133.064072" y="123.529592" style="fill: #ff8c00; stroke: #ff8c00"/>
     <use xlink:href="#me453916cff" x="141.075412" y="204.025809" style="fill: #ff8c00; stroke: #ff8c00"/>
     <use xlink:href="#me453916cff" x="87.687677" y="216.45528" style="fill: #ff8c00; stroke: #ff8c00"/>
     <use xlink:href="#me453916cff" x="122.167139" y="178.785869" style="fill: #ff8c00; stroke: #ff8c00"/>
     <use xlink:href="#me453916cff" x="129.836476" y="168.479749" style="fill: #ff8c00; stroke: #ff8c00"/>
     <use xlink:href="#me453916cff" x="87.82423" y="190.673058" style="fill: #ff8c00; stroke: #ff8c00"/>
     <use xlink:href="#me453916cff" x="151.995323" y="160.383001" style="fill: #ff8c00; stroke: #ff8c00"/>
     <use xlink:href="#me453916cff" x="102.413381" y="181.113925" style="fill: #ff8c00; stroke: #ff8c00"/>
     <use xlink:href="#me453916cff" x="110.432439" y="204.19777" style="fill: #ff8c00; stroke: #ff8c00"/>
     <use xlink:href="#me453916cff" x="119.702365" y="188.499473" style="fill: #ff8c00; stroke: #ff8c00"/>
     <use xlink:href="#me453916cff" x="116.037196" y="206.187557" style="fill: #ff8c00; stroke: #ff8c00"/>
     <use xlink:href="#me453916cff" x="78.87529" y="171.605865" style="fill: #ff8c00; stroke: #ff8c00"/>
     <use xlink:href="#me453916cff" x="89.22718" y="180.909833" style="fill: #ff8c00; stroke: #ff8c00"/>
     <use xlink:href="#me453916cff" x="135.151925" y="165.579247" style="fill: #ff8c00; stroke: #ff8c00"/>
     <use xlink:href="#me453916cff" x="123.301694" y="199.853475" style="fill: #ff8c00; stroke: #ff8c00"/>
     <use xlink:href="#me453916cff" x="106.544733" y="169.130449" style="fill: #ff8c00; stroke: #ff8c00"/>
     <use xlink:href="#me453916cff" x="86.360612" y="196.473991" style="fill: #ff8c00; stroke: #ff8c00"/>
     <use xlink:href="#me453916cff" x="91.429308" y="171.366593" style="fill: #ff8c00; stroke: #ff8c00"/>
     <use xlink:href="#me453916cff" x="87.432263" y="196.224157" style="fill: #ff8c00; stroke: #ff8c00"/>
     <use xlink:href="#me453916cff" x="107.728862" y="193.49011" style="fill: #ff8c00; stroke: #ff8c00"/>
     <use xlink:href="#me453916cff" x="101.447935" y="177.011373" style="fill: #ff8c00; stroke: #ff8c00"/>
     <use xlink:href="#me453916cff" x="124.802675" y="173.428298" style="fill: #ff8c00; stroke: #ff8c00"/>
     <use xlink:href="#me453916cff" x="130.627492" y="156.585342" style="fill: #ff8c00; stroke: #ff8c00"/>
     <use xlink:href="#me453916cff" x="100.631731" y="171.278309" style="fill: #ff8c00; stroke: #ff8c00"/>
     <use xlink:href="#me453916cff" x="85.897777" y="221.496138" style="fill: #ff8c00; stroke: #ff8c00"/>
     <use xlink:href="#me453916cff" x="96.351713" y="163.96628" style="fill: #ff8c00; stroke: #ff8c00"/>
     <use xlink:href="#me453916cff" x="122.028655" y="162.374297" style="fill: #ff8c00; stroke: #ff8c00"/>
     <use xlink:href="#me453916cff" x="99.454855" y="188.521868" style="fill: #ff8c00; stroke: #ff8c00"/>
     <use xlink:href="#me453916cff" x="103.862856" y="214.218192" style="fill: #ff8c00; stroke: #ff8c00"/>
     <use xlink:href="#me453916cff" x="105.120724" y="193.851806" style="fill: #ff8c00; stroke: #ff8c00"/>
     <use xlink:href="#me453916cff" x="98.105136" y="198.081756" style="fill: #ff8c00; stroke: #ff8c00"/>
     <use xlink:href="#me453916cff" x="128.07559" y="163.606107" style="fill: #ff8c00; stroke: #ff8c00"/>
     <use xlink:href="#me453916cff" x="101.772364" y="180.858622" style="fill: #ff8c00; stroke: #ff8c00"/>
     <use xlink:href="#me453916cff" x="86.578795" y="150.768331" style="fill: #ff8c00; stroke: #ff8c00"/>
     <use xlink:href="#me453916cff" x="135.967904" y="146.679343" style="fill: #ff8c00; stroke: #ff8c00"/>
     <use xlink:href="#me453916cff" x="71.830784" y="174.139274" style="fill: #ff8c00; stroke: #ff8c00"/>
     <use xlink:href="#me453916cff" x="136.855713" y="149.761923" style="fill: #ff8c00; stroke: #ff8c00"/>
    </g>
   </g>
   <g id="matplotlib.axis_1">
    <g id="xtick_1">
     <g id="line2d_1">
      <defs>
       <path id="mf40c270cd4" d="M 0 0 
L 0 3.5 
" style="stroke: #000000; stroke-width: 0.8"/>
      </defs>
      <g>
       <use xlink:href="#mf40c270cd4" x="55.595179" y="277.101335" style="stroke: #000000; stroke-width: 0.8"/>
      </g>
     </g>
     <g id="text_1">
      <!-- −10 -->
      <g transform="translate(45.042835 291.699772) scale(0.1 -0.1)">
       <defs>
        <path id="DejaVuSans-2212" d="M 678 2272 
L 4684 2272 
L 4684 1741 
L 678 1741 
L 678 2272 
z
" transform="scale(0.015625)"/>
        <path id="DejaVuSans-31" d="M 794 531 
L 1825 531 
L 1825 4091 
L 703 3866 
L 703 4441 
L 1819 4666 
L 2450 4666 
L 2450 531 
L 3481 531 
L 3481 0 
L 794 0 
L 794 531 
z
" transform="scale(0.015625)"/>
        <path id="DejaVuSans-30" d="M 2034 4250 
Q 1547 4250 1301 3770 
Q 1056 3291 1056 2328 
Q 1056 1369 1301 889 
Q 1547 409 2034 409 
Q 2525 409 2770 889 
Q 3016 1369 3016 2328 
Q 3016 3291 2770 3770 
Q 2525 4250 2034 4250 
z
M 2034 4750 
Q 2819 4750 3233 4129 
Q 3647 3509 3647 2328 
Q 3647 1150 3233 529 
Q 2819 -91 2034 -91 
Q 1250 -91 836 529 
Q 422 1150 422 2328 
Q 422 3509 836 4129 
Q 1250 4750 2034 4750 
z
" transform="scale(0.015625)"/>
       </defs>
       <use xlink:href="#DejaVuSans-2212"/>
       <use xlink:href="#DejaVuSans-31" x="83.789062"/>
       <use xlink:href="#DejaVuSans-30" x="147.412109"/>
      </g>
     </g>
    </g>
    <g id="xtick_2">
     <g id="line2d_2">
      <g>
       <use xlink:href="#mf40c270cd4" x="126.114482" y="277.101335" style="stroke: #000000; stroke-width: 0.8"/>
      </g>
     </g>
     <g id="text_2">
      <!-- 0 -->
      <g transform="translate(122.933232 291.699772) scale(0.1 -0.1)">
       <use xlink:href="#DejaVuSans-30"/>
      </g>
     </g>
    </g>
    <g id="xtick_3">
     <g id="line2d_3">
      <g>
       <use xlink:href="#mf40c270cd4" x="196.633786" y="277.101335" style="stroke: #000000; stroke-width: 0.8"/>
      </g>
     </g>
     <g id="text_3">
      <!-- 10 -->
      <g transform="translate(190.271286 291.699772) scale(0.1 -0.1)">
       <use xlink:href="#DejaVuSans-31"/>
       <use xlink:href="#DejaVuSans-30" x="63.623047"/>
      </g>
     </g>
    </g>
    <g id="xtick_4">
     <g id="line2d_4">
      <g>
       <use xlink:href="#mf40c270cd4" x="267.15309" y="277.101335" style="stroke: #000000; stroke-width: 0.8"/>
      </g>
     </g>
     <g id="text_4">
      <!-- 20 -->
      <g transform="translate(260.79059 291.699772) scale(0.1 -0.1)">
       <defs>
        <path id="DejaVuSans-32" d="M 1228 531 
L 3431 531 
L 3431 0 
L 469 0 
L 469 531 
Q 828 903 1448 1529 
Q 2069 2156 2228 2338 
Q 2531 2678 2651 2914 
Q 2772 3150 2772 3378 
Q 2772 3750 2511 3984 
Q 2250 4219 1831 4219 
Q 1534 4219 1204 4116 
Q 875 4013 500 3803 
L 500 4441 
Q 881 4594 1212 4672 
Q 1544 4750 1819 4750 
Q 2544 4750 2975 4387 
Q 3406 4025 3406 3419 
Q 3406 3131 3298 2873 
Q 3191 2616 2906 2266 
Q 2828 2175 2409 1742 
Q 1991 1309 1228 531 
z
" transform="scale(0.015625)"/>
       </defs>
       <use xlink:href="#DejaVuSans-32"/>
       <use xlink:href="#DejaVuSans-30" x="63.623047"/>
      </g>
     </g>
    </g>
    <g id="xtick_5">
     <g id="line2d_5">
      <g>
       <use xlink:href="#mf40c270cd4" x="337.672394" y="277.101335" style="stroke: #000000; stroke-width: 0.8"/>
      </g>
     </g>
     <g id="text_5">
      <!-- 30 -->
      <g transform="translate(331.309894 291.699772) scale(0.1 -0.1)">
       <defs>
        <path id="DejaVuSans-33" d="M 2597 2516 
Q 3050 2419 3304 2112 
Q 3559 1806 3559 1356 
Q 3559 666 3084 287 
Q 2609 -91 1734 -91 
Q 1441 -91 1130 -33 
Q 819 25 488 141 
L 488 750 
Q 750 597 1062 519 
Q 1375 441 1716 441 
Q 2309 441 2620 675 
Q 2931 909 2931 1356 
Q 2931 1769 2642 2001 
Q 2353 2234 1838 2234 
L 1294 2234 
L 1294 2753 
L 1863 2753 
Q 2328 2753 2575 2939 
Q 2822 3125 2822 3475 
Q 2822 3834 2567 4026 
Q 2313 4219 1838 4219 
Q 1578 4219 1281 4162 
Q 984 4106 628 3988 
L 628 4550 
Q 988 4650 1302 4700 
Q 1616 4750 1894 4750 
Q 2613 4750 3031 4423 
Q 3450 4097 3450 3541 
Q 3450 3153 3228 2886 
Q 3006 2619 2597 2516 
z
" transform="scale(0.015625)"/>
       </defs>
       <use xlink:href="#DejaVuSans-33"/>
       <use xlink:href="#DejaVuSans-30" x="63.623047"/>
      </g>
     </g>
    </g>
   </g>
   <g id="matplotlib.axis_2">
    <g id="ytick_1">
     <g id="line2d_6">
      <defs>
       <path id="m9f911589ca" d="M 0 0 
L -3.5 0 
" style="stroke: #000000; stroke-width: 0.8"/>
      </defs>
      <g>
       <use xlink:href="#m9f911589ca" x="35.304688" y="249.830259" style="stroke: #000000; stroke-width: 0.8"/>
      </g>
     </g>
     <g id="text_6">
      <!-- −10 -->
      <g transform="translate(7.2 253.629478) scale(0.1 -0.1)">
       <use xlink:href="#DejaVuSans-2212"/>
       <use xlink:href="#DejaVuSans-31" x="83.789062"/>
       <use xlink:href="#DejaVuSans-30" x="147.412109"/>
      </g>
     </g>
    </g>
    <g id="ytick_2">
     <g id="line2d_7">
      <g>
       <use xlink:href="#m9f911589ca" x="35.304688" y="219.976379" style="stroke: #000000; stroke-width: 0.8"/>
      </g>
     </g>
     <g id="text_7">
      <!-- −5 -->
      <g transform="translate(13.5625 223.775598) scale(0.1 -0.1)">
       <defs>
        <path id="DejaVuSans-35" d="M 691 4666 
L 3169 4666 
L 3169 4134 
L 1269 4134 
L 1269 2991 
Q 1406 3038 1543 3061 
Q 1681 3084 1819 3084 
Q 2600 3084 3056 2656 
Q 3513 2228 3513 1497 
Q 3513 744 3044 326 
Q 2575 -91 1722 -91 
Q 1428 -91 1123 -41 
Q 819 9 494 109 
L 494 744 
Q 775 591 1075 516 
Q 1375 441 1709 441 
Q 2250 441 2565 725 
Q 2881 1009 2881 1497 
Q 2881 1984 2565 2268 
Q 2250 2553 1709 2553 
Q 1456 2553 1204 2497 
Q 953 2441 691 2322 
L 691 4666 
z
" transform="scale(0.015625)"/>
       </defs>
       <use xlink:href="#DejaVuSans-2212"/>
       <use xlink:href="#DejaVuSans-35" x="83.789062"/>
      </g>
     </g>
    </g>
    <g id="ytick_3">
     <g id="line2d_8">
      <g>
       <use xlink:href="#m9f911589ca" x="35.304688" y="190.122499" style="stroke: #000000; stroke-width: 0.8"/>
      </g>
     </g>
     <g id="text_8">
      <!-- 0 -->
      <g transform="translate(21.942187 193.921718) scale(0.1 -0.1)">
       <use xlink:href="#DejaVuSans-30"/>
      </g>
     </g>
    </g>
    <g id="ytick_4">
     <g id="line2d_9">
      <g>
       <use xlink:href="#m9f911589ca" x="35.304688" y="160.268619" style="stroke: #000000; stroke-width: 0.8"/>
      </g>
     </g>
     <g id="text_9">
      <!-- 5 -->
      <g transform="translate(21.942187 164.067838) scale(0.1 -0.1)">
       <use xlink:href="#DejaVuSans-35"/>
      </g>
     </g>
    </g>
    <g id="ytick_5">
     <g id="line2d_10">
      <g>
       <use xlink:href="#m9f911589ca" x="35.304688" y="130.414739" style="stroke: #000000; stroke-width: 0.8"/>
      </g>
     </g>
     <g id="text_10">
      <!-- 10 -->
      <g transform="translate(15.579687 134.213958) scale(0.1 -0.1)">
       <use xlink:href="#DejaVuSans-31"/>
       <use xlink:href="#DejaVuSans-30" x="63.623047"/>
      </g>
     </g>
    </g>
    <g id="ytick_6">
     <g id="line2d_11">
      <g>
       <use xlink:href="#m9f911589ca" x="35.304688" y="100.560859" style="stroke: #000000; stroke-width: 0.8"/>
      </g>
     </g>
     <g id="text_11">
      <!-- 15 -->
      <g transform="translate(15.579687 104.360078) scale(0.1 -0.1)">
       <use xlink:href="#DejaVuSans-31"/>
       <use xlink:href="#DejaVuSans-35" x="63.623047"/>
      </g>
     </g>
    </g>
    <g id="ytick_7">
     <g id="line2d_12">
      <g>
       <use xlink:href="#m9f911589ca" x="35.304688" y="70.706979" style="stroke: #000000; stroke-width: 0.8"/>
      </g>
     </g>
     <g id="text_12">
      <!-- 20 -->
      <g transform="translate(15.579687 74.506198) scale(0.1 -0.1)">
       <use xlink:href="#DejaVuSans-32"/>
       <use xlink:href="#DejaVuSans-30" x="63.623047"/>
      </g>
     </g>
    </g>
    <g id="ytick_8">
     <g id="line2d_13">
      <g>
       <use xlink:href="#m9f911589ca" x="35.304688" y="40.853099" style="stroke: #000000; stroke-width: 0.8"/>
      </g>
     </g>
     <g id="text_13">
      <!-- 25 -->
      <g transform="translate(15.579687 44.652318) scale(0.1 -0.1)">
       <use xlink:href="#DejaVuSans-32"/>
       <use xlink:href="#DejaVuSans-35" x="63.623047"/>
      </g>
     </g>
    </g>
    <g id="ytick_9">
     <g id="line2d_14">
      <g>
       <use xlink:href="#m9f911589ca" x="35.304688" y="10.999219" style="stroke: #000000; stroke-width: 0.8"/>
      </g>
     </g>
     <g id="text_14">
      <!-- 30 -->
      <g transform="translate(15.579687 14.798437) scale(0.1 -0.1)">
       <use xlink:href="#DejaVuSans-33"/>
       <use xlink:href="#DejaVuSans-30" x="63.623047"/>
      </g>
     </g>
    </g>
   </g>
   <g id="patch_3">
    <path d="M 35.304688 277.101335 
L 35.304688 10.989335 
" style="fill: none; stroke: #000000; stroke-width: 0.8; stroke-linejoin: miter; stroke-linecap: square"/>
   </g>
   <g id="patch_4">
    <path d="M 392.424688 277.101335 
L 392.424688 10.989335 
" style="fill: none; stroke: #000000; stroke-width: 0.8; stroke-linejoin: miter; stroke-linecap: square"/>
   </g>
   <g id="patch_5">
    <path d="M 35.304688 277.101335 
L 392.424688 277.101335 
" style="fill: none; stroke: #000000; stroke-width: 0.8; stroke-linejoin: miter; stroke-linecap: square"/>
   </g>
   <g id="patch_6">
    <path d="M 35.304688 10.989335 
L 392.424688 10.989335 
" style="fill: none; stroke: #000000; stroke-width: 0.8; stroke-linejoin: miter; stroke-linecap: square"/>
   </g>
  </g>
 </g>
 <defs>
  <clipPath id="p7041e8f623">
   <rect x="35.304688" y="10.989335" width="357.12" height="266.112"/>
  </clipPath>
 </defs>
</svg>
