<?xml version="1.0" encoding="utf-8" standalone="no"?>
<!DOCTYPE svg PUBLIC "-//W3C//DTD SVG 1.1//EN"
  "http://www.w3.org/Graphics/SVG/1.1/DTD/svg11.dtd">
<svg xmlns:xlink="http://www.w3.org/1999/xlink" width="399.624687pt" height="297.190125pt" viewBox="0 0 399.624687 297.190125" xmlns="http://www.w3.org/2000/svg" version="1.1">
 <metadata>
  <rdf:RDF xmlns:dc="http://purl.org/dc/elements/1.1/" xmlns:cc="http://creativecommons.org/ns#" xmlns:rdf="http://www.w3.org/1999/02/22-rdf-syntax-ns#">
   <cc:Work>
    <dc:type rdf:resource="http://purl.org/dc/dcmitype/StillImage"/>
    <dc:date>2023-11-12T03:17:37.842411</dc:date>
    <dc:format>image/svg+xml</dc:format>
    <dc:creator>
     <cc:Agent>
      <dc:title>Matplotlib v3.8.0, https://matplotlib.org/</dc:title>
     </cc:Agent>
    </dc:creator>
   </cc:Work>
  </rdf:RDF>
 </metadata>
 <defs>
  <style type="text/css">*{stroke-linejoin: round; stroke-linecap: butt}</style>
 </defs>
 <g id="figure_1">
  <g id="patch_1">
   <path d="M 0 297.190125 
L 399.624687 297.190125 
L 399.624687 0 
L 0 0 
z
" style="fill: #ffffff"/>
  </g>
  <g id="axes_1">
   <g id="patch_2">
    <path d="M 35.304688 273.312 
L 392.424688 273.312 
L 392.424688 7.2 
L 35.304688 7.2 
z
" style="fill: #ffffff"/>
   </g>
   <g id="PathCollection_1">
    <defs>
     <path id="m5a48456bff" d="M 0 1.5 
C 0.397805 1.5 0.77937 1.341951 1.06066 1.06066 
C 1.341951 0.77937 1.5 0.397805 1.5 0 
C 1.5 -0.397805 1.341951 -0.77937 1.06066 -1.06066 
C 0.77937 -1.341951 0.397805 -1.5 0 -1.5 
C -0.397805 -1.5 -0.77937 -1.341951 -1.06066 -1.06066 
C -1.341951 -0.77937 -1.5 -0.397805 -1.5 0 
C -1.5 0.397805 -1.341951 0.77937 -1.06066 1.06066 
C -0.77937 1.341951 -0.397805 1.5 0 1.5 
z
" style="stroke: #ff8c00"/>
    </defs>
    <g clip-path="url(#pc0041b567f)">
     <use xlink:href="#m5a48456bff" x="134.171786" y="213.867895" style="fill: #ff8c00; stroke: #ff8c00"/>
     <use xlink:href="#m5a48456bff" x="155.074351" y="200.026706" style="fill: #ff8c00; stroke: #ff8c00"/>
     <use xlink:href="#m5a48456bff" x="169.051181" y="184.798697" style="fill: #ff8c00; stroke: #ff8c00"/>
     <use xlink:href="#m5a48456bff" x="136.024607" y="227.24793" style="fill: #ff8c00; stroke: #ff8c00"/>
     <use xlink:href="#m5a48456bff" x="135.479007" y="188.044863" style="fill: #ff8c00; stroke: #ff8c00"/>
     <use xlink:href="#m5a48456bff" x="122.091215" y="215.325876" style="fill: #ff8c00; stroke: #ff8c00"/>
     <use xlink:href="#m5a48456bff" x="142.804771" y="210.529416" style="fill: #ff8c00; stroke: #ff8c00"/>
     <use xlink:href="#m5a48456bff" x="179.94727" y="251.668734" style="fill: #ff8c00; stroke: #ff8c00"/>
     <use xlink:href="#m5a48456bff" x="146.572172" y="231.862687" style="fill: #ff8c00; stroke: #ff8c00"/>
     <use xlink:href="#m5a48456bff" x="137.108728" y="229.18026" style="fill: #ff8c00; stroke: #ff8c00"/>
     <use xlink:href="#m5a48456bff" x="168.20919" y="227.722468" style="fill: #ff8c00; stroke: #ff8c00"/>
     <use xlink:href="#m5a48456bff" x="169.110774" y="202.881261" style="fill: #ff8c00; stroke: #ff8c00"/>
     <use xlink:href="#m5a48456bff" x="158.518865" y="193.812468" style="fill: #ff8c00; stroke: #ff8c00"/>
     <use xlink:href="#m5a48456bff" x="164.780446" y="194.001586" style="fill: #ff8c00; stroke: #ff8c00"/>
    </g>
   </g>
   <g id="PathCollection_2">
    <defs>
     <path id="mb52b37b6c6" d="M 0 1.5 
C 0.397805 1.5 0.77937 1.341951 1.06066 1.06066 
C 1.341951 0.77937 1.5 0.397805 1.5 0 
C 1.5 -0.397805 1.341951 -0.77937 1.06066 -1.06066 
C 0.77937 -1.341951 0.397805 -1.5 0 -1.5 
C -0.397805 -1.5 -0.77937 -1.341951 -1.06066 -1.06066 
C -1.341951 -0.77937 -1.5 -0.397805 -1.5 0 
C -1.5 0.397805 -1.341951 0.77937 -1.06066 1.06066 
C -0.77937 1.341951 -0.397805 1.5 0 1.5 
z
" style="stroke: #006400"/>
    </defs>
    <g clip-path="url(#pc0041b567f)">
     <use xlink:href="#mb52b37b6c6" x="268.519568" y="185.448846" style="fill: #006400; stroke: #006400"/>
     <use xlink:href="#mb52b37b6c6" x="296.651358" y="153.433916" style="fill: #006400; stroke: #006400"/>
     <use xlink:href="#mb52b37b6c6" x="258.657312" y="215.137119" style="fill: #006400; stroke: #006400"/>
     <use xlink:href="#mb52b37b6c6" x="306.257948" y="127.500527" style="fill: #006400; stroke: #006400"/>
     <use xlink:href="#mb52b37b6c6" x="291.086573" y="172.606484" style="fill: #006400; stroke: #006400"/>
     <use xlink:href="#mb52b37b6c6" x="258.770139" y="189.204428" style="fill: #006400; stroke: #006400"/>
     <use xlink:href="#mb52b37b6c6" x="283.346542" y="187.708318" style="fill: #006400; stroke: #006400"/>
     <use xlink:href="#mb52b37b6c6" x="202.940172" y="185.327976" style="fill: #006400; stroke: #006400"/>
     <use xlink:href="#mb52b37b6c6" x="302.982659" y="110.018242" style="fill: #006400; stroke: #006400"/>
     <use xlink:href="#mb52b37b6c6" x="196.021386" y="187.930348" style="fill: #006400; stroke: #006400"/>
     <use xlink:href="#mb52b37b6c6" x="359.37079" y="120.827356" style="fill: #006400; stroke: #006400"/>
     <use xlink:href="#mb52b37b6c6" x="274.678147" y="201.29006" style="fill: #006400; stroke: #006400"/>
     <use xlink:href="#mb52b37b6c6" x="278.805792" y="128.920528" style="fill: #006400; stroke: #006400"/>
     <use xlink:href="#mb52b37b6c6" x="176.164963" y="186.369523" style="fill: #006400; stroke: #006400"/>
     <use xlink:href="#mb52b37b6c6" x="349.300538" y="19.296" style="fill: #006400; stroke: #006400"/>
     <use xlink:href="#mb52b37b6c6" x="304.96478" y="144.216799" style="fill: #006400; stroke: #006400"/>
     <use xlink:href="#mb52b37b6c6" x="271.067354" y="196.83249" style="fill: #006400; stroke: #006400"/>
    </g>
   </g>
   <g id="PathCollection_3">
    <defs>
     <path id="m5dc7d4699e" d="M 0 1.5 
C 0.397805 1.5 0.77937 1.341951 1.06066 1.06066 
C 1.341951 0.77937 1.5 0.397805 1.5 0 
C 1.5 -0.397805 1.341951 -0.77937 1.06066 -1.06066 
C 0.77937 -1.341951 0.397805 -1.5 0 -1.5 
C -0.397805 -1.5 -0.77937 -1.341951 -1.06066 -1.06066 
C -1.341951 -0.77937 -1.5 -0.397805 -1.5 0 
C -1.5 0.397805 -1.341951 0.77937 -1.06066 1.06066 
C -0.77937 1.341951 -0.397805 1.5 0 1.5 
z
" style="stroke: #2f4f4f"/>
    </defs>
    <g clip-path="url(#pc0041b567f)">
     <use xlink:href="#m5dc7d4699e" x="148.888159" y="238.831472" style="fill: #2f4f4f; stroke: #2f4f4f"/>
     <use xlink:href="#m5dc7d4699e" x="127.437404" y="247.852834" style="fill: #2f4f4f; stroke: #2f4f4f"/>
     <use xlink:href="#m5dc7d4699e" x="132.344116" y="222.584581" style="fill: #2f4f4f; stroke: #2f4f4f"/>
     <use xlink:href="#m5dc7d4699e" x="177.459442" y="235.813943" style="fill: #2f4f4f; stroke: #2f4f4f"/>
     <use xlink:href="#m5dc7d4699e" x="150.406244" y="236.089536" style="fill: #2f4f4f; stroke: #2f4f4f"/>
     <use xlink:href="#m5dc7d4699e" x="211.656132" y="228.51325" style="fill: #2f4f4f; stroke: #2f4f4f"/>
     <use xlink:href="#m5dc7d4699e" x="184.548667" y="242.430785" style="fill: #2f4f4f; stroke: #2f4f4f"/>
     <use xlink:href="#m5dc7d4699e" x="227.466135" y="216.685654" style="fill: #2f4f4f; stroke: #2f4f4f"/>
     <use xlink:href="#m5dc7d4699e" x="135.373255" y="235.171364" style="fill: #2f4f4f; stroke: #2f4f4f"/>
     <use xlink:href="#m5dc7d4699e" x="157.001844" y="225.032444" style="fill: #2f4f4f; stroke: #2f4f4f"/>
     <use xlink:href="#m5dc7d4699e" x="165.433836" y="164.419854" style="fill: #2f4f4f; stroke: #2f4f4f"/>
     <use xlink:href="#m5dc7d4699e" x="141.771874" y="261.216" style="fill: #2f4f4f; stroke: #2f4f4f"/>
     <use xlink:href="#m5dc7d4699e" x="173.59041" y="252.694462" style="fill: #2f4f4f; stroke: #2f4f4f"/>
     <use xlink:href="#m5dc7d4699e" x="193.878548" y="212.153967" style="fill: #2f4f4f; stroke: #2f4f4f"/>
     <use xlink:href="#m5dc7d4699e" x="182.586711" y="252.339265" style="fill: #2f4f4f; stroke: #2f4f4f"/>
    </g>
   </g>
   <g id="PathCollection_4">
    <defs>
     <path id="mdf304c5f3b" d="M 0 1.5 
C 0.397805 1.5 0.77937 1.341951 1.06066 1.06066 
C 1.341951 0.77937 1.5 0.397805 1.5 0 
C 1.5 -0.397805 1.341951 -0.77937 1.06066 -1.06066 
C 0.77937 -1.341951 0.397805 -1.5 0 -1.5 
C -0.397805 -1.5 -0.77937 -1.341951 -1.06066 -1.06066 
C -1.341951 -0.77937 -1.5 -0.397805 -1.5 0 
C -1.5 0.397805 -1.341951 0.77937 -1.06066 1.06066 
C -0.77937 1.341951 -0.397805 1.5 0 1.5 
z
" style="stroke: #00bfff"/>
    </defs>
    <g clip-path="url(#pc0041b567f)">
     <use xlink:href="#mdf304c5f3b" x="211.430118" y="243.8114" style="fill: #00bfff; stroke: #00bfff"/>
     <use xlink:href="#mdf304c5f3b" x="156.200326" y="235.059111" style="fill: #00bfff; stroke: #00bfff"/>
     <use xlink:href="#mdf304c5f3b" x="162.860381" y="248.200327" style="fill: #00bfff; stroke: #00bfff"/>
     <use xlink:href="#mdf304c5f3b" x="206.960888" y="212.643554" style="fill: #00bfff; stroke: #00bfff"/>
     <use xlink:href="#mdf304c5f3b" x="148.176917" y="252.881757" style="fill: #00bfff; stroke: #00bfff"/>
     <use xlink:href="#mdf304c5f3b" x="158.777307" y="224.136163" style="fill: #00bfff; stroke: #00bfff"/>
     <use xlink:href="#mdf304c5f3b" x="154.781485" y="226.225188" style="fill: #00bfff; stroke: #00bfff"/>
     <use xlink:href="#mdf304c5f3b" x="185.009886" y="244.740263" style="fill: #00bfff; stroke: #00bfff"/>
     <use xlink:href="#mdf304c5f3b" x="204.984278" y="247.48078" style="fill: #00bfff; stroke: #00bfff"/>
     <use xlink:href="#mdf304c5f3b" x="179.686622" y="221.936729" style="fill: #00bfff; stroke: #00bfff"/>
    </g>
   </g>
   <g id="PathCollection_5">
    <defs>
     <path id="m7e4b4b3b91" d="M 0 1.5 
C 0.397805 1.5 0.77937 1.341951 1.06066 1.06066 
C 1.341951 0.77937 1.5 0.397805 1.5 0 
C 1.5 -0.397805 1.341951 -0.77937 1.06066 -1.06066 
C 0.77937 -1.341951 0.397805 -1.5 0 -1.5 
C -0.397805 -1.5 -0.77937 -1.341951 -1.06066 -1.06066 
C -1.341951 -0.77937 -1.5 -0.397805 -1.5 0 
C -1.5 0.397805 -1.341951 0.77937 -1.06066 1.06066 
C -0.77937 1.341951 -0.397805 1.5 0 1.5 
z
" style="stroke: #ffff00"/>
    </defs>
    <g clip-path="url(#pc0041b567f)">
     <use xlink:href="#m7e4b4b3b91" x="111.966865" y="207.061229" style="fill: #ffff00; stroke: #ffff00"/>
     <use xlink:href="#m7e4b4b3b91" x="118.663723" y="223.19783" style="fill: #ffff00; stroke: #ffff00"/>
     <use xlink:href="#m7e4b4b3b91" x="150.514573" y="238.775956" style="fill: #ffff00; stroke: #ffff00"/>
     <use xlink:href="#m7e4b4b3b91" x="153.613329" y="230.11246" style="fill: #ffff00; stroke: #ffff00"/>
     <use xlink:href="#m7e4b4b3b91" x="97.940658" y="197.354964" style="fill: #ffff00; stroke: #ffff00"/>
     <use xlink:href="#m7e4b4b3b91" x="133.18514" y="197.795585" style="fill: #ffff00; stroke: #ffff00"/>
     <use xlink:href="#m7e4b4b3b91" x="182.729309" y="200.526401" style="fill: #ffff00; stroke: #ffff00"/>
     <use xlink:href="#m7e4b4b3b91" x="132.646943" y="219.367098" style="fill: #ffff00; stroke: #ffff00"/>
     <use xlink:href="#m7e4b4b3b91" x="128.524752" y="194.527782" style="fill: #ffff00; stroke: #ffff00"/>
     <use xlink:href="#m7e4b4b3b91" x="123.524912" y="235.185623" style="fill: #ffff00; stroke: #ffff00"/>
     <use xlink:href="#m7e4b4b3b91" x="143.842288" y="216.18013" style="fill: #ffff00; stroke: #ffff00"/>
     <use xlink:href="#m7e4b4b3b91" x="116.162312" y="197.732559" style="fill: #ffff00; stroke: #ffff00"/>
     <use xlink:href="#m7e4b4b3b91" x="150.735638" y="228.170742" style="fill: #ffff00; stroke: #ffff00"/>
     <use xlink:href="#m7e4b4b3b91" x="145.825938" y="233.253189" style="fill: #ffff00; stroke: #ffff00"/>
     <use xlink:href="#m7e4b4b3b91" x="118.24306" y="225.000171" style="fill: #ffff00; stroke: #ffff00"/>
     <use xlink:href="#m7e4b4b3b91" x="156.579889" y="241.135943" style="fill: #ffff00; stroke: #ffff00"/>
    </g>
   </g>
   <g id="PathCollection_6">
    <defs>
     <path id="m52faa39e27" d="M 0 1.5 
C 0.397805 1.5 0.77937 1.341951 1.06066 1.06066 
C 1.341951 0.77937 1.5 0.397805 1.5 0 
C 1.5 -0.397805 1.341951 -0.77937 1.06066 -1.06066 
C 0.77937 -1.341951 0.397805 -1.5 0 -1.5 
C -0.397805 -1.5 -0.77937 -1.341951 -1.06066 -1.06066 
C -1.341951 -0.77937 -1.5 -0.397805 -1.5 0 
C -1.5 0.397805 -1.341951 0.77937 -1.06066 1.06066 
C -0.77937 1.341951 -0.397805 1.5 0 1.5 
z
" style="stroke: #00ffff"/>
    </defs>
    <g clip-path="url(#pc0041b567f)">
     <use xlink:href="#m52faa39e27" x="189.71587" y="218.766408" style="fill: #00ffff; stroke: #00ffff"/>
     <use xlink:href="#m52faa39e27" x="167.323127" y="178.23091" style="fill: #00ffff; stroke: #00ffff"/>
     <use xlink:href="#m52faa39e27" x="150.010042" y="217.793442" style="fill: #00ffff; stroke: #00ffff"/>
     <use xlink:href="#m52faa39e27" x="138.376473" y="232.869784" style="fill: #00ffff; stroke: #00ffff"/>
     <use xlink:href="#m52faa39e27" x="177.786216" y="199.497113" style="fill: #00ffff; stroke: #00ffff"/>
     <use xlink:href="#m52faa39e27" x="144.980824" y="255.619223" style="fill: #00ffff; stroke: #00ffff"/>
     <use xlink:href="#m52faa39e27" x="149.089048" y="228.411774" style="fill: #00ffff; stroke: #00ffff"/>
     <use xlink:href="#m52faa39e27" x="212.150367" y="197.020484" style="fill: #00ffff; stroke: #00ffff"/>
     <use xlink:href="#m52faa39e27" x="154.747612" y="209.018146" style="fill: #00ffff; stroke: #00ffff"/>
     <use xlink:href="#m52faa39e27" x="156.383309" y="189.417889" style="fill: #00ffff; stroke: #00ffff"/>
     <use xlink:href="#m52faa39e27" x="175.577423" y="235.755634" style="fill: #00ffff; stroke: #00ffff"/>
     <use xlink:href="#m52faa39e27" x="160.688915" y="244.121734" style="fill: #00ffff; stroke: #00ffff"/>
    </g>
   </g>
   <g id="PathCollection_7">
    <defs>
     <path id="m55b8874769" d="M 0 1.5 
C 0.397805 1.5 0.77937 1.341951 1.06066 1.06066 
C 1.341951 0.77937 1.5 0.397805 1.5 0 
C 1.5 -0.397805 1.341951 -0.77937 1.06066 -1.06066 
C 0.77937 -1.341951 0.397805 -1.5 0 -1.5 
C -0.397805 -1.5 -0.77937 -1.341951 -1.06066 -1.06066 
C -1.341951 -0.77937 -1.5 -0.397805 -1.5 0 
C -1.5 0.397805 -1.341951 0.77937 -1.06066 1.06066 
C -0.77937 1.341951 -0.397805 1.5 0 1.5 
z
" style="stroke: #0000ff"/>
    </defs>
    <g clip-path="url(#pc0041b567f)">
     <use xlink:href="#m55b8874769" x="161.659911" y="255.484297" style="fill: #0000ff; stroke: #0000ff"/>
     <use xlink:href="#m55b8874769" x="154.555659" y="233.115999" style="fill: #0000ff; stroke: #0000ff"/>
     <use xlink:href="#m55b8874769" x="122.513213" y="227.188074" style="fill: #0000ff; stroke: #0000ff"/>
     <use xlink:href="#m55b8874769" x="137.343705" y="207.33815" style="fill: #0000ff; stroke: #0000ff"/>
     <use xlink:href="#m55b8874769" x="158.634966" y="238.705546" style="fill: #0000ff; stroke: #0000ff"/>
     <use xlink:href="#m55b8874769" x="120.439478" y="219.89489" style="fill: #0000ff; stroke: #0000ff"/>
     <use xlink:href="#m55b8874769" x="147.551266" y="246.713871" style="fill: #0000ff; stroke: #0000ff"/>
     <use xlink:href="#m55b8874769" x="146.909878" y="239.030127" style="fill: #0000ff; stroke: #0000ff"/>
     <use xlink:href="#m55b8874769" x="127.090806" y="230.976056" style="fill: #0000ff; stroke: #0000ff"/>
     <use xlink:href="#m55b8874769" x="199.991892" y="223.363713" style="fill: #0000ff; stroke: #0000ff"/>
     <use xlink:href="#m55b8874769" x="167.935583" y="238.92526" style="fill: #0000ff; stroke: #0000ff"/>
     <use xlink:href="#m55b8874769" x="209.453849" y="226.411477" style="fill: #0000ff; stroke: #0000ff"/>
     <use xlink:href="#m55b8874769" x="190.041579" y="225.290126" style="fill: #0000ff; stroke: #0000ff"/>
     <use xlink:href="#m55b8874769" x="166.874626" y="211.699257" style="fill: #0000ff; stroke: #0000ff"/>
     <use xlink:href="#m55b8874769" x="189.869992" y="239.236255" style="fill: #0000ff; stroke: #0000ff"/>
    </g>
   </g>
   <g id="PathCollection_8">
    <defs>
     <path id="m3aa2a53963" d="M 0 1.5 
C 0.397805 1.5 0.77937 1.341951 1.06066 1.06066 
C 1.341951 0.77937 1.5 0.397805 1.5 0 
C 1.5 -0.397805 1.341951 -0.77937 1.06066 -1.06066 
C 0.77937 -1.341951 0.397805 -1.5 0 -1.5 
C -0.397805 -1.5 -0.77937 -1.341951 -1.06066 -1.06066 
C -1.341951 -0.77937 -1.5 -0.397805 -1.5 0 
C -1.5 0.397805 -1.341951 0.77937 -1.06066 1.06066 
C -0.77937 1.341951 -0.397805 1.5 0 1.5 
z
" style="stroke: #dc143c"/>
    </defs>
    <g clip-path="url(#pc0041b567f)">
     <use xlink:href="#m3aa2a53963" x="143.540312" y="204.33406" style="fill: #dc143c; stroke: #dc143c"/>
     <use xlink:href="#m3aa2a53963" x="160.314645" y="241.663967" style="fill: #dc143c; stroke: #dc143c"/>
     <use xlink:href="#m3aa2a53963" x="190.181149" y="199.35597" style="fill: #dc143c; stroke: #dc143c"/>
     <use xlink:href="#m3aa2a53963" x="208.950826" y="214.766772" style="fill: #dc143c; stroke: #dc143c"/>
     <use xlink:href="#m3aa2a53963" x="155.896111" y="251.84604" style="fill: #dc143c; stroke: #dc143c"/>
     <use xlink:href="#m3aa2a53963" x="155.896111" y="251.84604" style="fill: #dc143c; stroke: #dc143c"/>
     <use xlink:href="#m3aa2a53963" x="224.302739" y="219.400053" style="fill: #dc143c; stroke: #dc143c"/>
     <use xlink:href="#m3aa2a53963" x="235.357828" y="180.932454" style="fill: #dc143c; stroke: #dc143c"/>
     <use xlink:href="#m3aa2a53963" x="257.556367" y="193.925098" style="fill: #dc143c; stroke: #dc143c"/>
     <use xlink:href="#m3aa2a53963" x="178.412985" y="160.420773" style="fill: #dc143c; stroke: #dc143c"/>
     <use xlink:href="#m3aa2a53963" x="232.051749" y="221.765268" style="fill: #dc143c; stroke: #dc143c"/>
     <use xlink:href="#m3aa2a53963" x="199.566676" y="240.738701" style="fill: #dc143c; stroke: #dc143c"/>
     <use xlink:href="#m3aa2a53963" x="185.678423" y="256.555109" style="fill: #dc143c; stroke: #dc143c"/>
    </g>
   </g>
   <g id="PathCollection_9">
    <defs>
     <path id="m015d66cd80" d="M 0 1.5 
C 0.397805 1.5 0.77937 1.341951 1.06066 1.06066 
C 1.341951 0.77937 1.5 0.397805 1.5 0 
C 1.5 -0.397805 1.341951 -0.77937 1.06066 -1.06066 
C 0.77937 -1.341951 0.397805 -1.5 0 -1.5 
C -0.397805 -1.5 -0.77937 -1.341951 -1.06066 -1.06066 
C -1.341951 -0.77937 -1.5 -0.397805 -1.5 0 
C -1.5 0.397805 -1.341951 0.77937 -1.06066 1.06066 
C -0.77937 1.341951 -0.397805 1.5 0 1.5 
z
" style="stroke: #ffe4c4"/>
    </defs>
    <g clip-path="url(#pc0041b567f)">
     <use xlink:href="#m015d66cd80" x="281.716478" y="183.282483" style="fill: #ffe4c4; stroke: #ffe4c4"/>
     <use xlink:href="#m015d66cd80" x="376.19196" y="99.446337" style="fill: #ffe4c4; stroke: #ffe4c4"/>
     <use xlink:href="#m015d66cd80" x="265.201459" y="195.222744" style="fill: #ffe4c4; stroke: #ffe4c4"/>
     <use xlink:href="#m015d66cd80" x="212.243607" y="153.938958" style="fill: #ffe4c4; stroke: #ffe4c4"/>
     <use xlink:href="#m015d66cd80" x="222.958524" y="195.537068" style="fill: #ffe4c4; stroke: #ffe4c4"/>
     <use xlink:href="#m015d66cd80" x="297.330841" y="179.184701" style="fill: #ffe4c4; stroke: #ffe4c4"/>
     <use xlink:href="#m015d66cd80" x="240.618547" y="181.794325" style="fill: #ffe4c4; stroke: #ffe4c4"/>
     <use xlink:href="#m015d66cd80" x="225.082422" y="212.514709" style="fill: #ffe4c4; stroke: #ffe4c4"/>
     <use xlink:href="#m015d66cd80" x="206.224776" y="195.15461" style="fill: #ffe4c4; stroke: #ffe4c4"/>
     <use xlink:href="#m015d66cd80" x="239.881869" y="199.976625" style="fill: #ffe4c4; stroke: #ffe4c4"/>
     <use xlink:href="#m015d66cd80" x="289.981799" y="155.618318" style="fill: #ffe4c4; stroke: #ffe4c4"/>
     <use xlink:href="#m015d66cd80" x="323.898054" y="115.531382" style="fill: #ffe4c4; stroke: #ffe4c4"/>
     <use xlink:href="#m015d66cd80" x="289.217859" y="151.338139" style="fill: #ffe4c4; stroke: #ffe4c4"/>
     <use xlink:href="#m015d66cd80" x="241.33388" y="177.771203" style="fill: #ffe4c4; stroke: #ffe4c4"/>
     <use xlink:href="#m015d66cd80" x="266.39572" y="202.939969" style="fill: #ffe4c4; stroke: #ffe4c4"/>
     <use xlink:href="#m015d66cd80" x="293.62014" y="136.507866" style="fill: #ffe4c4; stroke: #ffe4c4"/>
    </g>
   </g>
   <g id="PathCollection_10">
    <defs>
     <path id="m76b4130186" d="M -2.99994 2.99994 
L 3.00006 2.99994 
L 3.00006 -3.00006 
L -2.99994 -3.00006 
z
" style="stroke: #000000"/>
    </defs>
    <g clip-path="url(#pc0041b567f)">
     <use xlink:href="#m76b4130186" x="96.375775" y="91.767319" style="stroke: #000000"/>
     <use xlink:href="#m76b4130186" x="148.590519" y="243.15559" style="stroke: #000000"/>
     <use xlink:href="#m76b4130186" x="125.432475" y="190.58249" style="stroke: #000000"/>
     <use xlink:href="#m76b4130186" x="131.36459" y="205.843917" style="stroke: #000000"/>
     <use xlink:href="#m76b4130186" x="99.782601" y="119.87943" style="stroke: #000000"/>
     <use xlink:href="#m76b4130186" x="92.372656" y="140.014962" style="stroke: #000000"/>
     <use xlink:href="#m76b4130186" x="137.930981" y="229.18985" style="stroke: #000000"/>
     <use xlink:href="#m76b4130186" x="101.891378" y="176.140999" style="stroke: #000000"/>
     <use xlink:href="#m76b4130186" x="106.742959" y="186.710208" style="stroke: #000000"/>
     <use xlink:href="#m76b4130186" x="133.960825" y="214.431484" style="stroke: #000000"/>
     <use xlink:href="#m76b4130186" x="69.988599" y="95.77605" style="stroke: #000000"/>
     <use xlink:href="#m76b4130186" x="167.955255" y="248.65601" style="stroke: #000000"/>
     <use xlink:href="#m76b4130186" x="104.570338" y="133.570389" style="stroke: #000000"/>
     <use xlink:href="#m76b4130186" x="134.501695" y="207.862297" style="stroke: #000000"/>
     <use xlink:href="#m76b4130186" x="141.681715" y="163.262071" style="stroke: #000000"/>
     <use xlink:href="#m76b4130186" x="124.934708" y="186.267342" style="stroke: #000000"/>
     <use xlink:href="#m76b4130186" x="126.234798" y="145.817356" style="stroke: #000000"/>
     <use xlink:href="#m76b4130186" x="92.641334" y="185.780801" style="stroke: #000000"/>
     <use xlink:href="#m76b4130186" x="137.519931" y="180.653948" style="stroke: #000000"/>
     <use xlink:href="#m76b4130186" x="91.87059" y="136.140988" style="stroke: #000000"/>
     <use xlink:href="#m76b4130186" x="108.601797" y="163.041528" style="stroke: #000000"/>
     <use xlink:href="#m76b4130186" x="86.405153" y="158.435626" style="stroke: #000000"/>
     <use xlink:href="#m76b4130186" x="129.632199" y="192.947894" style="stroke: #000000"/>
     <use xlink:href="#m76b4130186" x="120.281056" y="166.765125" style="stroke: #000000"/>
     <use xlink:href="#m76b4130186" x="121.502582" y="179.33959" style="stroke: #000000"/>
     <use xlink:href="#m76b4130186" x="134.619128" y="90.338999" style="stroke: #000000"/>
     <use xlink:href="#m76b4130186" x="121.078388" y="184.43138" style="stroke: #000000"/>
     <use xlink:href="#m76b4130186" x="127.460463" y="189.38502" style="stroke: #000000"/>
     <use xlink:href="#m76b4130186" x="99.585934" y="89.479132" style="stroke: #000000"/>
     <use xlink:href="#m76b4130186" x="94.247879" y="177.347053" style="stroke: #000000"/>
     <use xlink:href="#m76b4130186" x="95.926174" y="129.260444" style="stroke: #000000"/>
     <use xlink:href="#m76b4130186" x="59.566291" y="129.244473" style="stroke: #000000"/>
     <use xlink:href="#m76b4130186" x="81.372247" y="133.426785" style="stroke: #000000"/>
     <use xlink:href="#m76b4130186" x="73.855909" y="150.414031" style="stroke: #000000"/>
     <use xlink:href="#m76b4130186" x="123.65141" y="162.977505" style="stroke: #000000"/>
     <use xlink:href="#m76b4130186" x="116.514114" y="182.134982" style="stroke: #000000"/>
     <use xlink:href="#m76b4130186" x="109.372667" y="131.443043" style="stroke: #000000"/>
     <use xlink:href="#m76b4130186" x="163.44739" y="164.583724" style="stroke: #000000"/>
     <use xlink:href="#m76b4130186" x="178.248106" y="258.427432" style="stroke: #000000"/>
     <use xlink:href="#m76b4130186" x="86.471371" y="131.126554" style="stroke: #000000"/>
     <use xlink:href="#m76b4130186" x="147.171214" y="184.514281" style="stroke: #000000"/>
     <use xlink:href="#m76b4130186" x="131.084791" y="203.969919" style="stroke: #000000"/>
     <use xlink:href="#m76b4130186" x="150.220814" y="155.746727" style="stroke: #000000"/>
     <use xlink:href="#m76b4130186" x="183.480863" y="203.675556" style="stroke: #000000"/>
     <use xlink:href="#m76b4130186" x="79.844231" y="97.533318" style="stroke: #000000"/>
     <use xlink:href="#m76b4130186" x="51.537415" y="98.286756" style="stroke: #000000"/>
     <use xlink:href="#m76b4130186" x="113.762345" y="184.112754" style="stroke: #000000"/>
     <use xlink:href="#m76b4130186" x="90.950057" y="138.943654" style="stroke: #000000"/>
     <use xlink:href="#m76b4130186" x="128.062907" y="211.656405" style="stroke: #000000"/>
     <use xlink:href="#m76b4130186" x="94.790976" y="191.251229" style="stroke: #000000"/>
     <use xlink:href="#m76b4130186" x="128.777579" y="205.900053" style="stroke: #000000"/>
     <use xlink:href="#m76b4130186" x="72.78673" y="150.998503" style="stroke: #000000"/>
     <use xlink:href="#m76b4130186" x="98.63131" y="168.57845" style="stroke: #000000"/>
     <use xlink:href="#m76b4130186" x="88.174138" y="159.339849" style="stroke: #000000"/>
     <use xlink:href="#m76b4130186" x="144.922799" y="207.995942" style="stroke: #000000"/>
     <use xlink:href="#m76b4130186" x="165.028526" y="164.934824" style="stroke: #000000"/>
     <use xlink:href="#m76b4130186" x="92.6826" y="125.56988" style="stroke: #000000"/>
     <use xlink:href="#m76b4130186" x="140.264106" y="204.444368" style="stroke: #000000"/>
     <use xlink:href="#m76b4130186" x="189.784962" y="232.07492" style="stroke: #000000"/>
     <use xlink:href="#m76b4130186" x="86.266307" y="122.224462" style="stroke: #000000"/>
     <use xlink:href="#m76b4130186" x="88.041545" y="163.983911" style="stroke: #000000"/>
     <use xlink:href="#m76b4130186" x="131.946451" y="220.396764" style="stroke: #000000"/>
     <use xlink:href="#m76b4130186" x="77.942268" y="68.711415" style="stroke: #000000"/>
     <use xlink:href="#m76b4130186" x="136.926401" y="192.91368" style="stroke: #000000"/>
    </g>
   </g>
   <g id="PathCollection_11">
    <defs>
     <path id="m139d364f57" d="M -3 -0 
L 3 3 
L 3 -3 
z
" style="stroke: #ff8c00"/>
    </defs>
    <g clip-path="url(#pc0041b567f)">
     <use xlink:href="#m139d364f57" x="139.969518" y="163.899459" style="fill: #ff8c00; stroke: #ff8c00"/>
     <use xlink:href="#m139d364f57" x="107.244128" y="166.672212" style="fill: #ff8c00; stroke: #ff8c00"/>
     <use xlink:href="#m139d364f57" x="128.967416" y="209.87482" style="fill: #ff8c00; stroke: #ff8c00"/>
     <use xlink:href="#m139d364f57" x="156.429205" y="205.436625" style="fill: #ff8c00; stroke: #ff8c00"/>
     <use xlink:href="#m139d364f57" x="122.36008" y="203.608324" style="fill: #ff8c00; stroke: #ff8c00"/>
     <use xlink:href="#m139d364f57" x="172.321151" y="181.264023" style="fill: #ff8c00; stroke: #ff8c00"/>
     <use xlink:href="#m139d364f57" x="151.456476" y="197.352262" style="fill: #ff8c00; stroke: #ff8c00"/>
     <use xlink:href="#m139d364f57" x="149.363016" y="173.850799" style="fill: #ff8c00; stroke: #ff8c00"/>
     <use xlink:href="#m139d364f57" x="160.672171" y="191.539901" style="fill: #ff8c00; stroke: #ff8c00"/>
     <use xlink:href="#m139d364f57" x="127.755528" y="193.393682" style="fill: #ff8c00; stroke: #ff8c00"/>
     <use xlink:href="#m139d364f57" x="147.65222" y="225.625027" style="fill: #ff8c00; stroke: #ff8c00"/>
     <use xlink:href="#m139d364f57" x="109.960863" y="126.397535" style="fill: #ff8c00; stroke: #ff8c00"/>
     <use xlink:href="#m139d364f57" x="107.211515" y="172.781317" style="fill: #ff8c00; stroke: #ff8c00"/>
     <use xlink:href="#m139d364f57" x="140.56523" y="208.039443" style="fill: #ff8c00; stroke: #ff8c00"/>
     <use xlink:href="#m139d364f57" x="142.515517" y="222.931946" style="fill: #ff8c00; stroke: #ff8c00"/>
     <use xlink:href="#m139d364f57" x="113.011192" y="198.974004" style="fill: #ff8c00; stroke: #ff8c00"/>
     <use xlink:href="#m139d364f57" x="131.15809" y="171.388185" style="fill: #ff8c00; stroke: #ff8c00"/>
     <use xlink:href="#m139d364f57" x="138.624477" y="196.567043" style="fill: #ff8c00; stroke: #ff8c00"/>
     <use xlink:href="#m139d364f57" x="117.061207" y="180.323315" style="fill: #ff8c00; stroke: #ff8c00"/>
     <use xlink:href="#m139d364f57" x="158.535206" y="182.683682" style="fill: #ff8c00; stroke: #ff8c00"/>
     <use xlink:href="#m139d364f57" x="162.610151" y="221.202796" style="fill: #ff8c00; stroke: #ff8c00"/>
     <use xlink:href="#m139d364f57" x="118.397245" y="164.62531" style="fill: #ff8c00; stroke: #ff8c00"/>
     <use xlink:href="#m139d364f57" x="144.831447" y="202.440242" style="fill: #ff8c00; stroke: #ff8c00"/>
     <use xlink:href="#m139d364f57" x="145.229777" y="205.734485" style="fill: #ff8c00; stroke: #ff8c00"/>
     <use xlink:href="#m139d364f57" x="160.894657" y="208.04365" style="fill: #ff8c00; stroke: #ff8c00"/>
     <use xlink:href="#m139d364f57" x="144.537433" y="211.860894" style="fill: #ff8c00; stroke: #ff8c00"/>
     <use xlink:href="#m139d364f57" x="134.630808" y="192.488944" style="fill: #ff8c00; stroke: #ff8c00"/>
     <use xlink:href="#m139d364f57" x="222.754166" y="184.892016" style="fill: #ff8c00; stroke: #ff8c00"/>
     <use xlink:href="#m139d364f57" x="109.557849" y="175.192749" style="fill: #ff8c00; stroke: #ff8c00"/>
     <use xlink:href="#m139d364f57" x="155.118649" y="212.692234" style="fill: #ff8c00; stroke: #ff8c00"/>
     <use xlink:href="#m139d364f57" x="139.392151" y="214.989268" style="fill: #ff8c00; stroke: #ff8c00"/>
     <use xlink:href="#m139d364f57" x="155.943344" y="239.37057" style="fill: #ff8c00; stroke: #ff8c00"/>
     <use xlink:href="#m139d364f57" x="141.155021" y="230.099542" style="fill: #ff8c00; stroke: #ff8c00"/>
     <use xlink:href="#m139d364f57" x="159.896433" y="215.587601" style="fill: #ff8c00; stroke: #ff8c00"/>
     <use xlink:href="#m139d364f57" x="123.784293" y="175.800754" style="fill: #ff8c00; stroke: #ff8c00"/>
     <use xlink:href="#m139d364f57" x="143.338959" y="240.428176" style="fill: #ff8c00; stroke: #ff8c00"/>
     <use xlink:href="#m139d364f57" x="119.834438" y="199.071129" style="fill: #ff8c00; stroke: #ff8c00"/>
     <use xlink:href="#m139d364f57" x="160.385188" y="208.605183" style="fill: #ff8c00; stroke: #ff8c00"/>
     <use xlink:href="#m139d364f57" x="103.185353" y="159.039236" style="fill: #ff8c00; stroke: #ff8c00"/>
     <use xlink:href="#m139d364f57" x="130.133433" y="203.220177" style="fill: #ff8c00; stroke: #ff8c00"/>
     <use xlink:href="#m139d364f57" x="125.896362" y="219.305351" style="fill: #ff8c00; stroke: #ff8c00"/>
     <use xlink:href="#m139d364f57" x="87.139636" y="158.322205" style="fill: #ff8c00; stroke: #ff8c00"/>
     <use xlink:href="#m139d364f57" x="146.319399" y="239.014577" style="fill: #ff8c00; stroke: #ff8c00"/>
     <use xlink:href="#m139d364f57" x="142.260924" y="229.292118" style="fill: #ff8c00; stroke: #ff8c00"/>
     <use xlink:href="#m139d364f57" x="126.297875" y="190.648426" style="fill: #ff8c00; stroke: #ff8c00"/>
     <use xlink:href="#m139d364f57" x="150.313904" y="190.114839" style="fill: #ff8c00; stroke: #ff8c00"/>
     <use xlink:href="#m139d364f57" x="139.393232" y="173.520436" style="fill: #ff8c00; stroke: #ff8c00"/>
     <use xlink:href="#m139d364f57" x="112.855551" y="183.511299" style="fill: #ff8c00; stroke: #ff8c00"/>
     <use xlink:href="#m139d364f57" x="125.176822" y="114.26509" style="fill: #ff8c00; stroke: #ff8c00"/>
     <use xlink:href="#m139d364f57" x="104.015546" y="151.567059" style="fill: #ff8c00; stroke: #ff8c00"/>
     <use xlink:href="#m139d364f57" x="153.290303" y="137.684787" style="fill: #ff8c00; stroke: #ff8c00"/>
     <use xlink:href="#m139d364f57" x="140.003137" y="202.465844" style="fill: #ff8c00; stroke: #ff8c00"/>
     <use xlink:href="#m139d364f57" x="143.186076" y="166.194357" style="fill: #ff8c00; stroke: #ff8c00"/>
     <use xlink:href="#m139d364f57" x="150.708029" y="226.09501" style="fill: #ff8c00; stroke: #ff8c00"/>
     <use xlink:href="#m139d364f57" x="153.138805" y="156.013581" style="fill: #ff8c00; stroke: #ff8c00"/>
     <use xlink:href="#m139d364f57" x="138.648714" y="220.847346" style="fill: #ff8c00; stroke: #ff8c00"/>
     <use xlink:href="#m139d364f57" x="98.895122" y="192.018172" style="fill: #ff8c00; stroke: #ff8c00"/>
     <use xlink:href="#m139d364f57" x="111.481052" y="155.49765" style="fill: #ff8c00; stroke: #ff8c00"/>
     <use xlink:href="#m139d364f57" x="125.409269" y="224.787557" style="fill: #ff8c00; stroke: #ff8c00"/>
     <use xlink:href="#m139d364f57" x="121.366772" y="207.648111" style="fill: #ff8c00; stroke: #ff8c00"/>
     <use xlink:href="#m139d364f57" x="133.618312" y="182.473485" style="fill: #ff8c00; stroke: #ff8c00"/>
     <use xlink:href="#m139d364f57" x="178.281237" y="153.376676" style="fill: #ff8c00; stroke: #ff8c00"/>
     <use xlink:href="#m139d364f57" x="119.323949" y="195.145061" style="fill: #ff8c00; stroke: #ff8c00"/>
     <use xlink:href="#m139d364f57" x="127.638265" y="216.487023" style="fill: #ff8c00; stroke: #ff8c00"/>
    </g>
   </g>
   <g id="matplotlib.axis_1">
    <g id="xtick_1">
     <g id="line2d_1">
      <defs>
       <path id="mac7192901c" d="M 0 0 
L 0 3.5 
" style="stroke: #000000; stroke-width: 0.8"/>
      </defs>
      <g>
       <use xlink:href="#mac7192901c" x="53.452065" y="273.312" style="stroke: #000000; stroke-width: 0.8"/>
      </g>
     </g>
     <g id="text_1">
      <!-- −20 -->
      <g transform="translate(42.899721 287.910437) scale(0.1 -0.1)">
       <defs>
        <path id="DejaVuSans-2212" d="M 678 2272 
L 4684 2272 
L 4684 1741 
L 678 1741 
L 678 2272 
z
" transform="scale(0.015625)"/>
        <path id="DejaVuSans-32" d="M 1228 531 
L 3431 531 
L 3431 0 
L 469 0 
L 469 531 
Q 828 903 1448 1529 
Q 2069 2156 2228 2338 
Q 2531 2678 2651 2914 
Q 2772 3150 2772 3378 
Q 2772 3750 2511 3984 
Q 2250 4219 1831 4219 
Q 1534 4219 1204 4116 
Q 875 4013 500 3803 
L 500 4441 
Q 881 4594 1212 4672 
Q 1544 4750 1819 4750 
Q 2544 4750 2975 4387 
Q 3406 4025 3406 3419 
Q 3406 3131 3298 2873 
Q 3191 2616 2906 2266 
Q 2828 2175 2409 1742 
Q 1991 1309 1228 531 
z
" transform="scale(0.015625)"/>
        <path id="DejaVuSans-30" d="M 2034 4250 
Q 1547 4250 1301 3770 
Q 1056 3291 1056 2328 
Q 1056 1369 1301 889 
Q 1547 409 2034 409 
Q 2525 409 2770 889 
Q 3016 1369 3016 2328 
Q 3016 3291 2770 3770 
Q 2525 4250 2034 4250 
z
M 2034 4750 
Q 2819 4750 3233 4129 
Q 3647 3509 3647 2328 
Q 3647 1150 3233 529 
Q 2819 -91 2034 -91 
Q 1250 -91 836 529 
Q 422 1150 422 2328 
Q 422 3509 836 4129 
Q 1250 4750 2034 4750 
z
" transform="scale(0.015625)"/>
       </defs>
       <use xlink:href="#DejaVuSans-2212"/>
       <use xlink:href="#DejaVuSans-32" x="83.789062"/>
       <use xlink:href="#DejaVuSans-30" x="147.412109"/>
      </g>
     </g>
    </g>
    <g id="xtick_2">
     <g id="line2d_2">
      <g>
       <use xlink:href="#mac7192901c" x="105.990904" y="273.312" style="stroke: #000000; stroke-width: 0.8"/>
      </g>
     </g>
     <g id="text_2">
      <!-- −10 -->
      <g transform="translate(95.43856 287.910437) scale(0.1 -0.1)">
       <defs>
        <path id="DejaVuSans-31" d="M 794 531 
L 1825 531 
L 1825 4091 
L 703 3866 
L 703 4441 
L 1819 4666 
L 2450 4666 
L 2450 531 
L 3481 531 
L 3481 0 
L 794 0 
L 794 531 
z
" transform="scale(0.015625)"/>
       </defs>
       <use xlink:href="#DejaVuSans-2212"/>
       <use xlink:href="#DejaVuSans-31" x="83.789062"/>
       <use xlink:href="#DejaVuSans-30" x="147.412109"/>
      </g>
     </g>
    </g>
    <g id="xtick_3">
     <g id="line2d_3">
      <g>
       <use xlink:href="#mac7192901c" x="158.529742" y="273.312" style="stroke: #000000; stroke-width: 0.8"/>
      </g>
     </g>
     <g id="text_3">
      <!-- 0 -->
      <g transform="translate(155.348492 287.910437) scale(0.1 -0.1)">
       <use xlink:href="#DejaVuSans-30"/>
      </g>
     </g>
    </g>
    <g id="xtick_4">
     <g id="line2d_4">
      <g>
       <use xlink:href="#mac7192901c" x="211.068581" y="273.312" style="stroke: #000000; stroke-width: 0.8"/>
      </g>
     </g>
     <g id="text_4">
      <!-- 10 -->
      <g transform="translate(204.706081 287.910437) scale(0.1 -0.1)">
       <use xlink:href="#DejaVuSans-31"/>
       <use xlink:href="#DejaVuSans-30" x="63.623047"/>
      </g>
     </g>
    </g>
    <g id="xtick_5">
     <g id="line2d_5">
      <g>
       <use xlink:href="#mac7192901c" x="263.60742" y="273.312" style="stroke: #000000; stroke-width: 0.8"/>
      </g>
     </g>
     <g id="text_5">
      <!-- 20 -->
      <g transform="translate(257.24492 287.910437) scale(0.1 -0.1)">
       <use xlink:href="#DejaVuSans-32"/>
       <use xlink:href="#DejaVuSans-30" x="63.623047"/>
      </g>
     </g>
    </g>
    <g id="xtick_6">
     <g id="line2d_6">
      <g>
       <use xlink:href="#mac7192901c" x="316.146259" y="273.312" style="stroke: #000000; stroke-width: 0.8"/>
      </g>
     </g>
     <g id="text_6">
      <!-- 30 -->
      <g transform="translate(309.783759 287.910437) scale(0.1 -0.1)">
       <defs>
        <path id="DejaVuSans-33" d="M 2597 2516 
Q 3050 2419 3304 2112 
Q 3559 1806 3559 1356 
Q 3559 666 3084 287 
Q 2609 -91 1734 -91 
Q 1441 -91 1130 -33 
Q 819 25 488 141 
L 488 750 
Q 750 597 1062 519 
Q 1375 441 1716 441 
Q 2309 441 2620 675 
Q 2931 909 2931 1356 
Q 2931 1769 2642 2001 
Q 2353 2234 1838 2234 
L 1294 2234 
L 1294 2753 
L 1863 2753 
Q 2328 2753 2575 2939 
Q 2822 3125 2822 3475 
Q 2822 3834 2567 4026 
Q 2313 4219 1838 4219 
Q 1578 4219 1281 4162 
Q 984 4106 628 3988 
L 628 4550 
Q 988 4650 1302 4700 
Q 1616 4750 1894 4750 
Q 2613 4750 3031 4423 
Q 3450 4097 3450 3541 
Q 3450 3153 3228 2886 
Q 3006 2619 2597 2516 
z
" transform="scale(0.015625)"/>
       </defs>
       <use xlink:href="#DejaVuSans-33"/>
       <use xlink:href="#DejaVuSans-30" x="63.623047"/>
      </g>
     </g>
    </g>
    <g id="xtick_7">
     <g id="line2d_7">
      <g>
       <use xlink:href="#mac7192901c" x="368.685098" y="273.312" style="stroke: #000000; stroke-width: 0.8"/>
      </g>
     </g>
     <g id="text_7">
      <!-- 40 -->
      <g transform="translate(362.322598 287.910437) scale(0.1 -0.1)">
       <defs>
        <path id="DejaVuSans-34" d="M 2419 4116 
L 825 1625 
L 2419 1625 
L 2419 4116 
z
M 2253 4666 
L 3047 4666 
L 3047 1625 
L 3713 1625 
L 3713 1100 
L 3047 1100 
L 3047 0 
L 2419 0 
L 2419 1100 
L 313 1100 
L 313 1709 
L 2253 4666 
z
" transform="scale(0.015625)"/>
       </defs>
       <use xlink:href="#DejaVuSans-34"/>
       <use xlink:href="#DejaVuSans-30" x="63.623047"/>
      </g>
     </g>
    </g>
   </g>
   <g id="matplotlib.axis_2">
    <g id="ytick_1">
     <g id="line2d_8">
      <defs>
       <path id="mc3dd4f6427" d="M 0 0 
L -3.5 0 
" style="stroke: #000000; stroke-width: 0.8"/>
      </defs>
      <g>
       <use xlink:href="#mc3dd4f6427" x="35.304688" y="237.267142" style="stroke: #000000; stroke-width: 0.8"/>
      </g>
     </g>
     <g id="text_8">
      <!-- −10 -->
      <g transform="translate(7.2 241.06636) scale(0.1 -0.1)">
       <use xlink:href="#DejaVuSans-2212"/>
       <use xlink:href="#DejaVuSans-31" x="83.789062"/>
       <use xlink:href="#DejaVuSans-30" x="147.412109"/>
      </g>
     </g>
    </g>
    <g id="ytick_2">
     <g id="line2d_9">
      <g>
       <use xlink:href="#mc3dd4f6427" x="35.304688" y="194.01821" style="stroke: #000000; stroke-width: 0.8"/>
      </g>
     </g>
     <g id="text_9">
      <!-- 0 -->
      <g transform="translate(21.942187 197.817429) scale(0.1 -0.1)">
       <use xlink:href="#DejaVuSans-30"/>
      </g>
     </g>
    </g>
    <g id="ytick_3">
     <g id="line2d_10">
      <g>
       <use xlink:href="#mc3dd4f6427" x="35.304688" y="150.769278" style="stroke: #000000; stroke-width: 0.8"/>
      </g>
     </g>
     <g id="text_10">
      <!-- 10 -->
      <g transform="translate(15.579687 154.568497) scale(0.1 -0.1)">
       <use xlink:href="#DejaVuSans-31"/>
       <use xlink:href="#DejaVuSans-30" x="63.623047"/>
      </g>
     </g>
    </g>
    <g id="ytick_4">
     <g id="line2d_11">
      <g>
       <use xlink:href="#mc3dd4f6427" x="35.304688" y="107.520346" style="stroke: #000000; stroke-width: 0.8"/>
      </g>
     </g>
     <g id="text_11">
      <!-- 20 -->
      <g transform="translate(15.579687 111.319565) scale(0.1 -0.1)">
       <use xlink:href="#DejaVuSans-32"/>
       <use xlink:href="#DejaVuSans-30" x="63.623047"/>
      </g>
     </g>
    </g>
    <g id="ytick_5">
     <g id="line2d_12">
      <g>
       <use xlink:href="#mc3dd4f6427" x="35.304688" y="64.271415" style="stroke: #000000; stroke-width: 0.8"/>
      </g>
     </g>
     <g id="text_12">
      <!-- 30 -->
      <g transform="translate(15.579687 68.070633) scale(0.1 -0.1)">
       <use xlink:href="#DejaVuSans-33"/>
       <use xlink:href="#DejaVuSans-30" x="63.623047"/>
      </g>
     </g>
    </g>
    <g id="ytick_6">
     <g id="line2d_13">
      <g>
       <use xlink:href="#mc3dd4f6427" x="35.304688" y="21.022483" style="stroke: #000000; stroke-width: 0.8"/>
      </g>
     </g>
     <g id="text_13">
      <!-- 40 -->
      <g transform="translate(15.579687 24.821702) scale(0.1 -0.1)">
       <use xlink:href="#DejaVuSans-34"/>
       <use xlink:href="#DejaVuSans-30" x="63.623047"/>
      </g>
     </g>
    </g>
   </g>
   <g id="patch_3">
    <path d="M 35.304688 273.312 
L 35.304688 7.2 
" style="fill: none; stroke: #000000; stroke-width: 0.8; stroke-linejoin: miter; stroke-linecap: square"/>
   </g>
   <g id="patch_4">
    <path d="M 392.424688 273.312 
L 392.424688 7.2 
" style="fill: none; stroke: #000000; stroke-width: 0.8; stroke-linejoin: miter; stroke-linecap: square"/>
   </g>
   <g id="patch_5">
    <path d="M 35.304687 273.312 
L 392.424688 273.312 
" style="fill: none; stroke: #000000; stroke-width: 0.8; stroke-linejoin: miter; stroke-linecap: square"/>
   </g>
   <g id="patch_6">
    <path d="M 35.304687 7.2 
L 392.424688 7.2 
" style="fill: none; stroke: #000000; stroke-width: 0.8; stroke-linejoin: miter; stroke-linecap: square"/>
   </g>
  </g>
 </g>
 <defs>
  <clipPath id="pc0041b567f">
   <rect x="35.304688" y="7.2" width="357.12" height="266.112"/>
  </clipPath>
 </defs>
</svg>
