<?xml version="1.0" encoding="utf-8" standalone="no"?>
<!DOCTYPE svg PUBLIC "-//W3C//DTD SVG 1.1//EN"
  "http://www.w3.org/Graphics/SVG/1.1/DTD/svg11.dtd">
<svg xmlns:xlink="http://www.w3.org/1999/xlink" width="399.624687pt" height="297.190125pt" viewBox="0 0 399.624687 297.190125" xmlns="http://www.w3.org/2000/svg" version="1.1">
 <metadata>
  <rdf:RDF xmlns:dc="http://purl.org/dc/elements/1.1/" xmlns:cc="http://creativecommons.org/ns#" xmlns:rdf="http://www.w3.org/1999/02/22-rdf-syntax-ns#">
   <cc:Work>
    <dc:type rdf:resource="http://purl.org/dc/dcmitype/StillImage"/>
    <dc:date>2023-11-13T15:42:39.923607</dc:date>
    <dc:format>image/svg+xml</dc:format>
    <dc:creator>
     <cc:Agent>
      <dc:title>Matplotlib v3.8.0, https://matplotlib.org/</dc:title>
     </cc:Agent>
    </dc:creator>
   </cc:Work>
  </rdf:RDF>
 </metadata>
 <defs>
  <style type="text/css">*{stroke-linejoin: round; stroke-linecap: butt}</style>
 </defs>
 <g id="figure_1">
  <g id="patch_1">
   <path d="M 0 297.190125 
L 399.624687 297.190125 
L 399.624687 0 
L 0 0 
z
" style="fill: #ffffff"/>
  </g>
  <g id="axes_1">
   <g id="patch_2">
    <path d="M 35.304688 273.312 
L 392.424688 273.312 
L 392.424688 7.2 
L 35.304688 7.2 
z
" style="fill: #ffffff"/>
   </g>
   <g id="PathCollection_1">
    <defs>
     <path id="mbb5cdf37f7" d="M 0 1.5 
C 0.397805 1.5 0.77937 1.341951 1.06066 1.06066 
C 1.341951 0.77937 1.5 0.397805 1.5 0 
C 1.5 -0.397805 1.341951 -0.77937 1.06066 -1.06066 
C 0.77937 -1.341951 0.397805 -1.5 0 -1.5 
C -0.397805 -1.5 -0.77937 -1.341951 -1.06066 -1.06066 
C -1.341951 -0.77937 -1.5 -0.397805 -1.5 0 
C -1.5 0.397805 -1.341951 0.77937 -1.06066 1.06066 
C -0.77937 1.341951 -0.397805 1.5 0 1.5 
z
" style="stroke: #ff8c00"/>
    </defs>
    <g clip-path="url(#p51a007f8b9)">
     <use xlink:href="#mbb5cdf37f7" x="161.784692" y="166.040242" style="fill: #ff8c00; stroke: #ff8c00"/>
     <use xlink:href="#mbb5cdf37f7" x="115.433875" y="238.643159" style="fill: #ff8c00; stroke: #ff8c00"/>
     <use xlink:href="#mbb5cdf37f7" x="178.984532" y="62.800274" style="fill: #ff8c00; stroke: #ff8c00"/>
     <use xlink:href="#mbb5cdf37f7" x="180.4173" y="89.931555" style="fill: #ff8c00; stroke: #ff8c00"/>
     <use xlink:href="#mbb5cdf37f7" x="183.751395" y="88.60705" style="fill: #ff8c00; stroke: #ff8c00"/>
     <use xlink:href="#mbb5cdf37f7" x="224.233004" y="138.582898" style="fill: #ff8c00; stroke: #ff8c00"/>
     <use xlink:href="#mbb5cdf37f7" x="181.047279" y="104.857445" style="fill: #ff8c00; stroke: #ff8c00"/>
     <use xlink:href="#mbb5cdf37f7" x="173.779983" y="57.519298" style="fill: #ff8c00; stroke: #ff8c00"/>
    </g>
   </g>
   <g id="PathCollection_2">
    <defs>
     <path id="m8f533d3a34" d="M 0 1.5 
C 0.397805 1.5 0.77937 1.341951 1.06066 1.06066 
C 1.341951 0.77937 1.5 0.397805 1.5 0 
C 1.5 -0.397805 1.341951 -0.77937 1.06066 -1.06066 
C 0.77937 -1.341951 0.397805 -1.5 0 -1.5 
C -0.397805 -1.5 -0.77937 -1.341951 -1.06066 -1.06066 
C -1.341951 -0.77937 -1.5 -0.397805 -1.5 0 
C -1.5 0.397805 -1.341951 0.77937 -1.06066 1.06066 
C -0.77937 1.341951 -0.397805 1.5 0 1.5 
z
" style="stroke: #006400"/>
    </defs>
    <g clip-path="url(#p51a007f8b9)">
     <use xlink:href="#m8f533d3a34" x="179.002703" y="180.6172" style="fill: #006400; stroke: #006400"/>
     <use xlink:href="#m8f533d3a34" x="199.149003" y="179.099681" style="fill: #006400; stroke: #006400"/>
     <use xlink:href="#m8f533d3a34" x="243.183405" y="202.20306" style="fill: #006400; stroke: #006400"/>
     <use xlink:href="#m8f533d3a34" x="223.181932" y="225.540373" style="fill: #006400; stroke: #006400"/>
     <use xlink:href="#m8f533d3a34" x="376.19196" y="222.326449" style="fill: #006400; stroke: #006400"/>
     <use xlink:href="#m8f533d3a34" x="218.750805" y="171.187388" style="fill: #006400; stroke: #006400"/>
     <use xlink:href="#m8f533d3a34" x="192.102678" y="169.137285" style="fill: #006400; stroke: #006400"/>
     <use xlink:href="#m8f533d3a34" x="238.020914" y="261.216" style="fill: #006400; stroke: #006400"/>
     <use xlink:href="#m8f533d3a34" x="210.546643" y="170.556526" style="fill: #006400; stroke: #006400"/>
     <use xlink:href="#m8f533d3a34" x="365.501842" y="210.851923" style="fill: #006400; stroke: #006400"/>
     <use xlink:href="#m8f533d3a34" x="267.270221" y="195.921739" style="fill: #006400; stroke: #006400"/>
     <use xlink:href="#m8f533d3a34" x="284.045031" y="206.897671" style="fill: #006400; stroke: #006400"/>
     <use xlink:href="#m8f533d3a34" x="258.525135" y="166.833906" style="fill: #006400; stroke: #006400"/>
     <use xlink:href="#m8f533d3a34" x="327.251402" y="249.961407" style="fill: #006400; stroke: #006400"/>
     <use xlink:href="#m8f533d3a34" x="274.21798" y="193.75481" style="fill: #006400; stroke: #006400"/>
     <use xlink:href="#m8f533d3a34" x="178.148934" y="184.743959" style="fill: #006400; stroke: #006400"/>
    </g>
   </g>
   <g id="PathCollection_3">
    <defs>
     <path id="md04d7b8c6b" d="M 0 1.5 
C 0.397805 1.5 0.77937 1.341951 1.06066 1.06066 
C 1.341951 0.77937 1.5 0.397805 1.5 0 
C 1.5 -0.397805 1.341951 -0.77937 1.06066 -1.06066 
C 0.77937 -1.341951 0.397805 -1.5 0 -1.5 
C -0.397805 -1.5 -0.77937 -1.341951 -1.06066 -1.06066 
C -1.341951 -0.77937 -1.5 -0.397805 -1.5 0 
C -1.5 0.397805 -1.341951 0.77937 -1.06066 1.06066 
C -0.77937 1.341951 -0.397805 1.5 0 1.5 
z
" style="stroke: #2f4f4f"/>
    </defs>
    <g clip-path="url(#p51a007f8b9)">
     <use xlink:href="#md04d7b8c6b" x="211.198972" y="102.483461" style="fill: #2f4f4f; stroke: #2f4f4f"/>
     <use xlink:href="#md04d7b8c6b" x="83.845669" y="156.942861" style="fill: #2f4f4f; stroke: #2f4f4f"/>
     <use xlink:href="#md04d7b8c6b" x="89.61771" y="132.49877" style="fill: #2f4f4f; stroke: #2f4f4f"/>
     <use xlink:href="#md04d7b8c6b" x="165.742967" y="123.205219" style="fill: #2f4f4f; stroke: #2f4f4f"/>
     <use xlink:href="#md04d7b8c6b" x="177.117057" y="102.88871" style="fill: #2f4f4f; stroke: #2f4f4f"/>
     <use xlink:href="#md04d7b8c6b" x="102.684588" y="203.947438" style="fill: #2f4f4f; stroke: #2f4f4f"/>
     <use xlink:href="#md04d7b8c6b" x="112.242723" y="105.383475" style="fill: #2f4f4f; stroke: #2f4f4f"/>
     <use xlink:href="#md04d7b8c6b" x="124.453446" y="116.116839" style="fill: #2f4f4f; stroke: #2f4f4f"/>
     <use xlink:href="#md04d7b8c6b" x="157.70956" y="84.887169" style="fill: #2f4f4f; stroke: #2f4f4f"/>
     <use xlink:href="#md04d7b8c6b" x="157.813891" y="192.23529" style="fill: #2f4f4f; stroke: #2f4f4f"/>
     <use xlink:href="#md04d7b8c6b" x="111.35036" y="175.006691" style="fill: #2f4f4f; stroke: #2f4f4f"/>
     <use xlink:href="#md04d7b8c6b" x="150.713152" y="121.638845" style="fill: #2f4f4f; stroke: #2f4f4f"/>
     <use xlink:href="#md04d7b8c6b" x="150.55502" y="132.501802" style="fill: #2f4f4f; stroke: #2f4f4f"/>
     <use xlink:href="#md04d7b8c6b" x="120.755779" y="139.712315" style="fill: #2f4f4f; stroke: #2f4f4f"/>
     <use xlink:href="#md04d7b8c6b" x="155.398888" y="178.130686" style="fill: #2f4f4f; stroke: #2f4f4f"/>
     <use xlink:href="#md04d7b8c6b" x="159.080755" y="158.957523" style="fill: #2f4f4f; stroke: #2f4f4f"/>
     <use xlink:href="#md04d7b8c6b" x="90.310834" y="152.282145" style="fill: #2f4f4f; stroke: #2f4f4f"/>
     <use xlink:href="#md04d7b8c6b" x="154.336168" y="150.865985" style="fill: #2f4f4f; stroke: #2f4f4f"/>
     <use xlink:href="#md04d7b8c6b" x="89.950868" y="117.740207" style="fill: #2f4f4f; stroke: #2f4f4f"/>
     <use xlink:href="#md04d7b8c6b" x="144.61563" y="106.367292" style="fill: #2f4f4f; stroke: #2f4f4f"/>
     <use xlink:href="#md04d7b8c6b" x="179.275288" y="61.214999" style="fill: #2f4f4f; stroke: #2f4f4f"/>
    </g>
   </g>
   <g id="PathCollection_4">
    <defs>
     <path id="ma6c126fe53" d="M 0 1.5 
C 0.397805 1.5 0.77937 1.341951 1.06066 1.06066 
C 1.341951 0.77937 1.5 0.397805 1.5 0 
C 1.5 -0.397805 1.341951 -0.77937 1.06066 -1.06066 
C 0.77937 -1.341951 0.397805 -1.5 0 -1.5 
C -0.397805 -1.5 -0.77937 -1.341951 -1.06066 -1.06066 
C -1.341951 -0.77937 -1.5 -0.397805 -1.5 0 
C -1.5 0.397805 -1.341951 0.77937 -1.06066 1.06066 
C -0.77937 1.341951 -0.397805 1.5 0 1.5 
z
" style="stroke: #00bfff"/>
    </defs>
    <g clip-path="url(#p51a007f8b9)">
     <use xlink:href="#ma6c126fe53" x="116.794078" y="152.382704" style="fill: #00bfff; stroke: #00bfff"/>
     <use xlink:href="#ma6c126fe53" x="73.801781" y="217.001324" style="fill: #00bfff; stroke: #00bfff"/>
     <use xlink:href="#ma6c126fe53" x="112.114247" y="190.075916" style="fill: #00bfff; stroke: #00bfff"/>
     <use xlink:href="#ma6c126fe53" x="128.417369" y="131.860939" style="fill: #00bfff; stroke: #00bfff"/>
     <use xlink:href="#ma6c126fe53" x="174.176512" y="141.438839" style="fill: #00bfff; stroke: #00bfff"/>
     <use xlink:href="#ma6c126fe53" x="83.66388" y="142.711998" style="fill: #00bfff; stroke: #00bfff"/>
     <use xlink:href="#ma6c126fe53" x="88.308337" y="182.970858" style="fill: #00bfff; stroke: #00bfff"/>
     <use xlink:href="#ma6c126fe53" x="105.574125" y="137.494551" style="fill: #00bfff; stroke: #00bfff"/>
     <use xlink:href="#ma6c126fe53" x="86.89787" y="192.253939" style="fill: #00bfff; stroke: #00bfff"/>
     <use xlink:href="#ma6c126fe53" x="110.735332" y="187.013374" style="fill: #00bfff; stroke: #00bfff"/>
     <use xlink:href="#ma6c126fe53" x="112.042128" y="191.601521" style="fill: #00bfff; stroke: #00bfff"/>
     <use xlink:href="#ma6c126fe53" x="124.07595" y="173.658399" style="fill: #00bfff; stroke: #00bfff"/>
     <use xlink:href="#ma6c126fe53" x="90.939102" y="212.909396" style="fill: #00bfff; stroke: #00bfff"/>
     <use xlink:href="#ma6c126fe53" x="93.231158" y="198.484886" style="fill: #00bfff; stroke: #00bfff"/>
     <use xlink:href="#ma6c126fe53" x="79.512502" y="181.580646" style="fill: #00bfff; stroke: #00bfff"/>
     <use xlink:href="#ma6c126fe53" x="112.347567" y="193.471722" style="fill: #00bfff; stroke: #00bfff"/>
     <use xlink:href="#ma6c126fe53" x="105.63897" y="205.95162" style="fill: #00bfff; stroke: #00bfff"/>
    </g>
   </g>
   <g id="PathCollection_5">
    <defs>
     <path id="ma6f1b2c310" d="M 0 1.5 
C 0.397805 1.5 0.77937 1.341951 1.06066 1.06066 
C 1.341951 0.77937 1.5 0.397805 1.5 0 
C 1.5 -0.397805 1.341951 -0.77937 1.06066 -1.06066 
C 0.77937 -1.341951 0.397805 -1.5 0 -1.5 
C -0.397805 -1.5 -0.77937 -1.341951 -1.06066 -1.06066 
C -1.341951 -0.77937 -1.5 -0.397805 -1.5 0 
C -1.5 0.397805 -1.341951 0.77937 -1.06066 1.06066 
C -0.77937 1.341951 -0.397805 1.5 0 1.5 
z
" style="stroke: #ffff00"/>
    </defs>
    <g clip-path="url(#p51a007f8b9)">
     <use xlink:href="#ma6f1b2c310" x="136.398078" y="137.759416" style="fill: #ffff00; stroke: #ffff00"/>
     <use xlink:href="#ma6f1b2c310" x="111.022756" y="104.065227" style="fill: #ffff00; stroke: #ffff00"/>
     <use xlink:href="#ma6f1b2c310" x="134.190932" y="97.21462" style="fill: #ffff00; stroke: #ffff00"/>
     <use xlink:href="#ma6f1b2c310" x="153.520059" y="112.788998" style="fill: #ffff00; stroke: #ffff00"/>
     <use xlink:href="#ma6f1b2c310" x="133.112829" y="158.650787" style="fill: #ffff00; stroke: #ffff00"/>
     <use xlink:href="#ma6f1b2c310" x="96.651502" y="151.989641" style="fill: #ffff00; stroke: #ffff00"/>
     <use xlink:href="#ma6f1b2c310" x="136.415726" y="135.231495" style="fill: #ffff00; stroke: #ffff00"/>
     <use xlink:href="#ma6f1b2c310" x="123.855111" y="124.938452" style="fill: #ffff00; stroke: #ffff00"/>
     <use xlink:href="#ma6f1b2c310" x="145.389973" y="110.520456" style="fill: #ffff00; stroke: #ffff00"/>
     <use xlink:href="#ma6f1b2c310" x="134.663244" y="170.844354" style="fill: #ffff00; stroke: #ffff00"/>
     <use xlink:href="#ma6f1b2c310" x="135.725333" y="163.753063" style="fill: #ffff00; stroke: #ffff00"/>
     <use xlink:href="#ma6f1b2c310" x="130.274103" y="185.270658" style="fill: #ffff00; stroke: #ffff00"/>
     <use xlink:href="#ma6f1b2c310" x="69.543314" y="172.959787" style="fill: #ffff00; stroke: #ffff00"/>
     <use xlink:href="#ma6f1b2c310" x="51.537415" y="182.71428" style="fill: #ffff00; stroke: #ffff00"/>
     <use xlink:href="#ma6f1b2c310" x="115.983144" y="191.414871" style="fill: #ffff00; stroke: #ffff00"/>
     <use xlink:href="#ma6f1b2c310" x="109.573416" y="111.46902" style="fill: #ffff00; stroke: #ffff00"/>
     <use xlink:href="#ma6f1b2c310" x="84.729596" y="171.305258" style="fill: #ffff00; stroke: #ffff00"/>
     <use xlink:href="#ma6f1b2c310" x="132.562809" y="115.186408" style="fill: #ffff00; stroke: #ffff00"/>
    </g>
   </g>
   <g id="PathCollection_6">
    <defs>
     <path id="mf4ac0244e7" d="M 0 1.5 
C 0.397805 1.5 0.77937 1.341951 1.06066 1.06066 
C 1.341951 0.77937 1.5 0.397805 1.5 0 
C 1.5 -0.397805 1.341951 -0.77937 1.06066 -1.06066 
C 0.77937 -1.341951 0.397805 -1.5 0 -1.5 
C -0.397805 -1.5 -0.77937 -1.341951 -1.06066 -1.06066 
C -1.341951 -0.77937 -1.5 -0.397805 -1.5 0 
C -1.5 0.397805 -1.341951 0.77937 -1.06066 1.06066 
C -0.77937 1.341951 -0.397805 1.5 0 1.5 
z
" style="stroke: #00ffff"/>
    </defs>
    <g clip-path="url(#p51a007f8b9)">
     <use xlink:href="#mf4ac0244e7" x="91.319587" y="192.52296" style="fill: #00ffff; stroke: #00ffff"/>
     <use xlink:href="#mf4ac0244e7" x="147.730968" y="138.149901" style="fill: #00ffff; stroke: #00ffff"/>
     <use xlink:href="#mf4ac0244e7" x="161.457074" y="124.847825" style="fill: #00ffff; stroke: #00ffff"/>
     <use xlink:href="#mf4ac0244e7" x="97.413735" y="203.499606" style="fill: #00ffff; stroke: #00ffff"/>
     <use xlink:href="#mf4ac0244e7" x="124.025573" y="209.054939" style="fill: #00ffff; stroke: #00ffff"/>
     <use xlink:href="#mf4ac0244e7" x="193.513491" y="101.660862" style="fill: #00ffff; stroke: #00ffff"/>
     <use xlink:href="#mf4ac0244e7" x="149.004249" y="175.292189" style="fill: #00ffff; stroke: #00ffff"/>
     <use xlink:href="#mf4ac0244e7" x="125.172643" y="167.1924" style="fill: #00ffff; stroke: #00ffff"/>
     <use xlink:href="#mf4ac0244e7" x="122.372817" y="240.154131" style="fill: #00ffff; stroke: #00ffff"/>
     <use xlink:href="#mf4ac0244e7" x="98.345451" y="188.734142" style="fill: #00ffff; stroke: #00ffff"/>
     <use xlink:href="#mf4ac0244e7" x="124.278027" y="153.830357" style="fill: #00ffff; stroke: #00ffff"/>
     <use xlink:href="#mf4ac0244e7" x="153.091665" y="219.631012" style="fill: #00ffff; stroke: #00ffff"/>
    </g>
   </g>
   <g id="PathCollection_7">
    <defs>
     <path id="m285125d81c" d="M 0 1.5 
C 0.397805 1.5 0.77937 1.341951 1.06066 1.06066 
C 1.341951 0.77937 1.5 0.397805 1.5 0 
C 1.5 -0.397805 1.341951 -0.77937 1.06066 -1.06066 
C 0.77937 -1.341951 0.397805 -1.5 0 -1.5 
C -0.397805 -1.5 -0.77937 -1.341951 -1.06066 -1.06066 
C -1.341951 -0.77937 -1.5 -0.397805 -1.5 0 
C -1.5 0.397805 -1.341951 0.77937 -1.06066 1.06066 
C -0.77937 1.341951 -0.397805 1.5 0 1.5 
z
" style="stroke: #0000ff"/>
    </defs>
    <g clip-path="url(#p51a007f8b9)">
     <use xlink:href="#m285125d81c" x="161.63452" y="189.368753" style="fill: #0000ff; stroke: #0000ff"/>
     <use xlink:href="#m285125d81c" x="197.358531" y="132.675591" style="fill: #0000ff; stroke: #0000ff"/>
     <use xlink:href="#m285125d81c" x="160.186598" y="153.460939" style="fill: #0000ff; stroke: #0000ff"/>
     <use xlink:href="#m285125d81c" x="152.375278" y="190.936363" style="fill: #0000ff; stroke: #0000ff"/>
     <use xlink:href="#m285125d81c" x="175.771548" y="182.207703" style="fill: #0000ff; stroke: #0000ff"/>
     <use xlink:href="#m285125d81c" x="180.535774" y="115.07149" style="fill: #0000ff; stroke: #0000ff"/>
     <use xlink:href="#m285125d81c" x="126.599942" y="209.768838" style="fill: #0000ff; stroke: #0000ff"/>
     <use xlink:href="#m285125d81c" x="177.092773" y="178.710718" style="fill: #0000ff; stroke: #0000ff"/>
     <use xlink:href="#m285125d81c" x="125.74064" y="160.966273" style="fill: #0000ff; stroke: #0000ff"/>
     <use xlink:href="#m285125d81c" x="143.948107" y="162.256374" style="fill: #0000ff; stroke: #0000ff"/>
     <use xlink:href="#m285125d81c" x="126.171604" y="213.577076" style="fill: #0000ff; stroke: #0000ff"/>
     <use xlink:href="#m285125d81c" x="107.924739" y="217.134718" style="fill: #0000ff; stroke: #0000ff"/>
     <use xlink:href="#m285125d81c" x="121.498336" y="184.388365" style="fill: #0000ff; stroke: #0000ff"/>
     <use xlink:href="#m285125d81c" x="141.766229" y="124.86599" style="fill: #0000ff; stroke: #0000ff"/>
    </g>
   </g>
   <g id="PathCollection_8">
    <defs>
     <path id="meda5bf76a5" d="M 0 1.5 
C 0.397805 1.5 0.77937 1.341951 1.06066 1.06066 
C 1.341951 0.77937 1.5 0.397805 1.5 0 
C 1.5 -0.397805 1.341951 -0.77937 1.06066 -1.06066 
C 0.77937 -1.341951 0.397805 -1.5 0 -1.5 
C -0.397805 -1.5 -0.77937 -1.341951 -1.06066 -1.06066 
C -1.341951 -0.77937 -1.5 -0.397805 -1.5 0 
C -1.5 0.397805 -1.341951 0.77937 -1.06066 1.06066 
C -0.77937 1.341951 -0.397805 1.5 0 1.5 
z
" style="stroke: #dc143c"/>
    </defs>
    <g clip-path="url(#p51a007f8b9)">
     <use xlink:href="#meda5bf76a5" x="121.793951" y="164.606975" style="fill: #dc143c; stroke: #dc143c"/>
     <use xlink:href="#meda5bf76a5" x="128.638786" y="204.228645" style="fill: #dc143c; stroke: #dc143c"/>
     <use xlink:href="#meda5bf76a5" x="174.206635" y="169.419398" style="fill: #dc143c; stroke: #dc143c"/>
     <use xlink:href="#meda5bf76a5" x="150.395756" y="117.655497" style="fill: #dc143c; stroke: #dc143c"/>
     <use xlink:href="#meda5bf76a5" x="196.614162" y="178.185635" style="fill: #dc143c; stroke: #dc143c"/>
     <use xlink:href="#meda5bf76a5" x="144.00956" y="155.971619" style="fill: #dc143c; stroke: #dc143c"/>
     <use xlink:href="#meda5bf76a5" x="181.04159" y="120.765267" style="fill: #dc143c; stroke: #dc143c"/>
     <use xlink:href="#meda5bf76a5" x="179.943249" y="153.209814" style="fill: #dc143c; stroke: #dc143c"/>
     <use xlink:href="#meda5bf76a5" x="208.67997" y="139.674742" style="fill: #dc143c; stroke: #dc143c"/>
     <use xlink:href="#meda5bf76a5" x="173.295317" y="116.134412" style="fill: #dc143c; stroke: #dc143c"/>
     <use xlink:href="#meda5bf76a5" x="166.865763" y="144.452083" style="fill: #dc143c; stroke: #dc143c"/>
    </g>
   </g>
   <g id="PathCollection_9">
    <defs>
     <path id="m69207ba154" d="M 0 1.5 
C 0.397805 1.5 0.77937 1.341951 1.06066 1.06066 
C 1.341951 0.77937 1.5 0.397805 1.5 0 
C 1.5 -0.397805 1.341951 -0.77937 1.06066 -1.06066 
C 0.77937 -1.341951 0.397805 -1.5 0 -1.5 
C -0.397805 -1.5 -0.77937 -1.341951 -1.06066 -1.06066 
C -1.341951 -0.77937 -1.5 -0.397805 -1.5 0 
C -1.5 0.397805 -1.341951 0.77937 -1.06066 1.06066 
C -0.77937 1.341951 -0.397805 1.5 0 1.5 
z
" style="stroke: #ffe4c4"/>
    </defs>
    <g clip-path="url(#p51a007f8b9)">
     <use xlink:href="#m69207ba154" x="274.52283" y="150.661167" style="fill: #ffe4c4; stroke: #ffe4c4"/>
     <use xlink:href="#m69207ba154" x="208.006141" y="173.619934" style="fill: #ffe4c4; stroke: #ffe4c4"/>
     <use xlink:href="#m69207ba154" x="248.059384" y="209.757603" style="fill: #ffe4c4; stroke: #ffe4c4"/>
     <use xlink:href="#m69207ba154" x="213.353647" y="132.056679" style="fill: #ffe4c4; stroke: #ffe4c4"/>
     <use xlink:href="#m69207ba154" x="350.120251" y="172.439854" style="fill: #ffe4c4; stroke: #ffe4c4"/>
     <use xlink:href="#m69207ba154" x="191.264261" y="110.739354" style="fill: #ffe4c4; stroke: #ffe4c4"/>
     <use xlink:href="#m69207ba154" x="196.708163" y="105.406425" style="fill: #ffe4c4; stroke: #ffe4c4"/>
     <use xlink:href="#m69207ba154" x="235.266176" y="197.769059" style="fill: #ffe4c4; stroke: #ffe4c4"/>
     <use xlink:href="#m69207ba154" x="279.219565" y="161.194579" style="fill: #ffe4c4; stroke: #ffe4c4"/>
     <use xlink:href="#m69207ba154" x="284.222684" y="169.738827" style="fill: #ffe4c4; stroke: #ffe4c4"/>
     <use xlink:href="#m69207ba154" x="174.942709" y="203.833983" style="fill: #ffe4c4; stroke: #ffe4c4"/>
    </g>
   </g>
   <g id="PathCollection_10">
    <defs>
     <path id="mb7c61256ff" d="M -2.99994 2.99994 
L 3.00006 2.99994 
L 3.00006 -3.00006 
L -2.99994 -3.00006 
z
" style="stroke: #000000"/>
    </defs>
    <g clip-path="url(#p51a007f8b9)">
     <use xlink:href="#mb7c61256ff" x="145.648924" y="128.209863" style="stroke: #000000"/>
     <use xlink:href="#mb7c61256ff" x="152.460906" y="117.487301" style="stroke: #000000"/>
     <use xlink:href="#mb7c61256ff" x="99.235586" y="140.80162" style="stroke: #000000"/>
     <use xlink:href="#mb7c61256ff" x="136.362942" y="169.550423" style="stroke: #000000"/>
     <use xlink:href="#mb7c61256ff" x="147.932516" y="77.922238" style="stroke: #000000"/>
     <use xlink:href="#mb7c61256ff" x="190.786733" y="102.810982" style="stroke: #000000"/>
     <use xlink:href="#mb7c61256ff" x="145.192272" y="188.773654" style="stroke: #000000"/>
     <use xlink:href="#mb7c61256ff" x="113.138429" y="151.499915" style="stroke: #000000"/>
     <use xlink:href="#mb7c61256ff" x="143.875809" y="131.269746" style="stroke: #000000"/>
     <use xlink:href="#mb7c61256ff" x="89.297598" y="178.280779" style="stroke: #000000"/>
     <use xlink:href="#mb7c61256ff" x="128.646312" y="106.44029" style="stroke: #000000"/>
     <use xlink:href="#mb7c61256ff" x="56.616925" y="197.022279" style="stroke: #000000"/>
     <use xlink:href="#mb7c61256ff" x="110.580296" y="167.963535" style="stroke: #000000"/>
     <use xlink:href="#mb7c61256ff" x="172.615002" y="19.296" style="stroke: #000000"/>
     <use xlink:href="#mb7c61256ff" x="155.894575" y="151.839971" style="stroke: #000000"/>
     <use xlink:href="#mb7c61256ff" x="100.692511" y="144.439349" style="stroke: #000000"/>
     <use xlink:href="#mb7c61256ff" x="129.340582" y="179.97944" style="stroke: #000000"/>
     <use xlink:href="#mb7c61256ff" x="97.0528" y="119.762606" style="stroke: #000000"/>
     <use xlink:href="#mb7c61256ff" x="123.870976" y="145.685774" style="stroke: #000000"/>
     <use xlink:href="#mb7c61256ff" x="162.426938" y="81.581607" style="stroke: #000000"/>
     <use xlink:href="#mb7c61256ff" x="160.123651" y="133.462071" style="stroke: #000000"/>
     <use xlink:href="#mb7c61256ff" x="139.675442" y="148.844602" style="stroke: #000000"/>
     <use xlink:href="#mb7c61256ff" x="152.919234" y="51.277269" style="stroke: #000000"/>
     <use xlink:href="#mb7c61256ff" x="114.424445" y="165.319233" style="stroke: #000000"/>
     <use xlink:href="#mb7c61256ff" x="135.320667" y="128.154509" style="stroke: #000000"/>
     <use xlink:href="#mb7c61256ff" x="145.776224" y="200.605513" style="stroke: #000000"/>
     <use xlink:href="#mb7c61256ff" x="153.253086" y="125.547083" style="stroke: #000000"/>
     <use xlink:href="#mb7c61256ff" x="68.104758" y="174.336931" style="stroke: #000000"/>
     <use xlink:href="#mb7c61256ff" x="105.478972" y="166.949301" style="stroke: #000000"/>
     <use xlink:href="#mb7c61256ff" x="107.1195" y="147.348458" style="stroke: #000000"/>
     <use xlink:href="#mb7c61256ff" x="110.677702" y="121.22868" style="stroke: #000000"/>
     <use xlink:href="#mb7c61256ff" x="131.76865" y="162.024091" style="stroke: #000000"/>
     <use xlink:href="#mb7c61256ff" x="125.126799" y="108.366162" style="stroke: #000000"/>
     <use xlink:href="#mb7c61256ff" x="114.17882" y="194.173333" style="stroke: #000000"/>
     <use xlink:href="#mb7c61256ff" x="151.262495" y="148.426536" style="stroke: #000000"/>
     <use xlink:href="#mb7c61256ff" x="196.257738" y="100.24486" style="stroke: #000000"/>
     <use xlink:href="#mb7c61256ff" x="92.040529" y="224.409703" style="stroke: #000000"/>
     <use xlink:href="#mb7c61256ff" x="131.006721" y="124.061513" style="stroke: #000000"/>
     <use xlink:href="#mb7c61256ff" x="152.919234" y="51.277269" style="stroke: #000000"/>
     <use xlink:href="#mb7c61256ff" x="96.779138" y="172.339022" style="stroke: #000000"/>
     <use xlink:href="#mb7c61256ff" x="171.123003" y="132.478219" style="stroke: #000000"/>
     <use xlink:href="#mb7c61256ff" x="134.690449" y="113.595111" style="stroke: #000000"/>
     <use xlink:href="#mb7c61256ff" x="72.074445" y="194.31753" style="stroke: #000000"/>
     <use xlink:href="#mb7c61256ff" x="115.197206" y="152.839328" style="stroke: #000000"/>
     <use xlink:href="#mb7c61256ff" x="170.977771" y="21.150383" style="stroke: #000000"/>
     <use xlink:href="#mb7c61256ff" x="86.19485" y="175.810806" style="stroke: #000000"/>
     <use xlink:href="#mb7c61256ff" x="160.026148" y="42.445364" style="stroke: #000000"/>
     <use xlink:href="#mb7c61256ff" x="147.887926" y="148.476814" style="stroke: #000000"/>
     <use xlink:href="#mb7c61256ff" x="63.248629" y="177.276346" style="stroke: #000000"/>
     <use xlink:href="#mb7c61256ff" x="73.85175" y="204.909936" style="stroke: #000000"/>
     <use xlink:href="#mb7c61256ff" x="165.845442" y="40.692642" style="stroke: #000000"/>
     <use xlink:href="#mb7c61256ff" x="78.774104" y="176.694614" style="stroke: #000000"/>
     <use xlink:href="#mb7c61256ff" x="173.49744" y="103.851583" style="stroke: #000000"/>
     <use xlink:href="#mb7c61256ff" x="123.808586" y="195.67047" style="stroke: #000000"/>
     <use xlink:href="#mb7c61256ff" x="138.676643" y="133.122143" style="stroke: #000000"/>
     <use xlink:href="#mb7c61256ff" x="138.068645" y="174.807959" style="stroke: #000000"/>
     <use xlink:href="#mb7c61256ff" x="141.071446" y="71.53801" style="stroke: #000000"/>
     <use xlink:href="#mb7c61256ff" x="159.809222" y="59.791323" style="stroke: #000000"/>
     <use xlink:href="#mb7c61256ff" x="155.80262" y="119.4609" style="stroke: #000000"/>
     <use xlink:href="#mb7c61256ff" x="99.436469" y="173.420825" style="stroke: #000000"/>
     <use xlink:href="#mb7c61256ff" x="75.168832" y="170.93013" style="stroke: #000000"/>
     <use xlink:href="#mb7c61256ff" x="184.078462" y="50.457833" style="stroke: #000000"/>
     <use xlink:href="#mb7c61256ff" x="97.842396" y="171.852137" style="stroke: #000000"/>
     <use xlink:href="#mb7c61256ff" x="149.711723" y="94.819057" style="stroke: #000000"/>
    </g>
   </g>
   <g id="PathCollection_11">
    <defs>
     <path id="m069a3a27a3" d="M -3 -0 
L 3 3 
L 3 -3 
z
" style="stroke: #ff8c00"/>
    </defs>
    <g clip-path="url(#p51a007f8b9)">
     <use xlink:href="#m069a3a27a3" x="112.887534" y="153.643375" style="fill: #ff8c00; stroke: #ff8c00"/>
     <use xlink:href="#m069a3a27a3" x="142.208189" y="163.925285" style="fill: #ff8c00; stroke: #ff8c00"/>
     <use xlink:href="#m069a3a27a3" x="80.524457" y="177.981034" style="fill: #ff8c00; stroke: #ff8c00"/>
     <use xlink:href="#m069a3a27a3" x="129.002726" y="127.085449" style="fill: #ff8c00; stroke: #ff8c00"/>
     <use xlink:href="#m069a3a27a3" x="94.70642" y="146.842139" style="fill: #ff8c00; stroke: #ff8c00"/>
     <use xlink:href="#m069a3a27a3" x="84.72356" y="191.631163" style="fill: #ff8c00; stroke: #ff8c00"/>
     <use xlink:href="#m069a3a27a3" x="137.426287" y="29.353087" style="fill: #ff8c00; stroke: #ff8c00"/>
     <use xlink:href="#m069a3a27a3" x="111.421702" y="108.427347" style="fill: #ff8c00; stroke: #ff8c00"/>
     <use xlink:href="#m069a3a27a3" x="128.510081" y="134.452624" style="fill: #ff8c00; stroke: #ff8c00"/>
     <use xlink:href="#m069a3a27a3" x="97.082115" y="121.62842" style="fill: #ff8c00; stroke: #ff8c00"/>
     <use xlink:href="#m069a3a27a3" x="131.398207" y="152.723116" style="fill: #ff8c00; stroke: #ff8c00"/>
     <use xlink:href="#m069a3a27a3" x="95.532544" y="145.174352" style="fill: #ff8c00; stroke: #ff8c00"/>
     <use xlink:href="#m069a3a27a3" x="154.595225" y="115.435245" style="fill: #ff8c00; stroke: #ff8c00"/>
     <use xlink:href="#m069a3a27a3" x="136.653185" y="125.998436" style="fill: #ff8c00; stroke: #ff8c00"/>
     <use xlink:href="#m069a3a27a3" x="143.995068" y="184.514938" style="fill: #ff8c00; stroke: #ff8c00"/>
     <use xlink:href="#m069a3a27a3" x="137.816693" y="163.968129" style="fill: #ff8c00; stroke: #ff8c00"/>
     <use xlink:href="#m069a3a27a3" x="108.413187" y="85.179174" style="fill: #ff8c00; stroke: #ff8c00"/>
     <use xlink:href="#m069a3a27a3" x="113.231655" y="168.295232" style="fill: #ff8c00; stroke: #ff8c00"/>
     <use xlink:href="#m069a3a27a3" x="102.999469" y="113.244388" style="fill: #ff8c00; stroke: #ff8c00"/>
     <use xlink:href="#m069a3a27a3" x="129.025198" y="55.145821" style="fill: #ff8c00; stroke: #ff8c00"/>
     <use xlink:href="#m069a3a27a3" x="102.454037" y="197.957512" style="fill: #ff8c00; stroke: #ff8c00"/>
     <use xlink:href="#m069a3a27a3" x="129.25414" y="162.140407" style="fill: #ff8c00; stroke: #ff8c00"/>
     <use xlink:href="#m069a3a27a3" x="150.284435" y="139.171236" style="fill: #ff8c00; stroke: #ff8c00"/>
     <use xlink:href="#m069a3a27a3" x="144.097923" y="159.828773" style="fill: #ff8c00; stroke: #ff8c00"/>
     <use xlink:href="#m069a3a27a3" x="105.763005" y="141.546657" style="fill: #ff8c00; stroke: #ff8c00"/>
     <use xlink:href="#m069a3a27a3" x="107.165206" y="138.604194" style="fill: #ff8c00; stroke: #ff8c00"/>
     <use xlink:href="#m069a3a27a3" x="115.705823" y="188.98943" style="fill: #ff8c00; stroke: #ff8c00"/>
     <use xlink:href="#m069a3a27a3" x="176.062847" y="43.468014" style="fill: #ff8c00; stroke: #ff8c00"/>
     <use xlink:href="#m069a3a27a3" x="131.12928" y="133.521008" style="fill: #ff8c00; stroke: #ff8c00"/>
     <use xlink:href="#m069a3a27a3" x="101.04523" y="108.543186" style="fill: #ff8c00; stroke: #ff8c00"/>
     <use xlink:href="#m069a3a27a3" x="97.491209" y="120.039132" style="fill: #ff8c00; stroke: #ff8c00"/>
     <use xlink:href="#m069a3a27a3" x="123.402364" y="112.990339" style="fill: #ff8c00; stroke: #ff8c00"/>
     <use xlink:href="#m069a3a27a3" x="105.713382" y="85.106928" style="fill: #ff8c00; stroke: #ff8c00"/>
     <use xlink:href="#m069a3a27a3" x="129.631744" y="152.894977" style="fill: #ff8c00; stroke: #ff8c00"/>
     <use xlink:href="#m069a3a27a3" x="156.684468" y="112.344364" style="fill: #ff8c00; stroke: #ff8c00"/>
     <use xlink:href="#m069a3a27a3" x="153.127652" y="166.750003" style="fill: #ff8c00; stroke: #ff8c00"/>
     <use xlink:href="#m069a3a27a3" x="153.164175" y="88.067214" style="fill: #ff8c00; stroke: #ff8c00"/>
     <use xlink:href="#m069a3a27a3" x="83.067337" y="165.024653" style="fill: #ff8c00; stroke: #ff8c00"/>
     <use xlink:href="#m069a3a27a3" x="148.343878" y="188.714398" style="fill: #ff8c00; stroke: #ff8c00"/>
     <use xlink:href="#m069a3a27a3" x="75.840099" y="178.629916" style="fill: #ff8c00; stroke: #ff8c00"/>
     <use xlink:href="#m069a3a27a3" x="164.66253" y="134.669575" style="fill: #ff8c00; stroke: #ff8c00"/>
     <use xlink:href="#m069a3a27a3" x="142.996333" y="198.087018" style="fill: #ff8c00; stroke: #ff8c00"/>
     <use xlink:href="#m069a3a27a3" x="139.034536" y="178.31144" style="fill: #ff8c00; stroke: #ff8c00"/>
     <use xlink:href="#m069a3a27a3" x="78.538226" y="183.022648" style="fill: #ff8c00; stroke: #ff8c00"/>
     <use xlink:href="#m069a3a27a3" x="114.64155" y="108.806187" style="fill: #ff8c00; stroke: #ff8c00"/>
     <use xlink:href="#m069a3a27a3" x="107.468584" y="145.360108" style="fill: #ff8c00; stroke: #ff8c00"/>
     <use xlink:href="#m069a3a27a3" x="137.3319" y="174.468438" style="fill: #ff8c00; stroke: #ff8c00"/>
     <use xlink:href="#m069a3a27a3" x="127.345919" y="175.543938" style="fill: #ff8c00; stroke: #ff8c00"/>
     <use xlink:href="#m069a3a27a3" x="122.751843" y="153.957623" style="fill: #ff8c00; stroke: #ff8c00"/>
     <use xlink:href="#m069a3a27a3" x="105.943349" y="97.312167" style="fill: #ff8c00; stroke: #ff8c00"/>
     <use xlink:href="#m069a3a27a3" x="119.589371" y="157.401245" style="fill: #ff8c00; stroke: #ff8c00"/>
     <use xlink:href="#m069a3a27a3" x="124.386673" y="116.792546" style="fill: #ff8c00; stroke: #ff8c00"/>
     <use xlink:href="#m069a3a27a3" x="73.020436" y="181.443159" style="fill: #ff8c00; stroke: #ff8c00"/>
     <use xlink:href="#m069a3a27a3" x="154.781072" y="189.737409" style="fill: #ff8c00; stroke: #ff8c00"/>
     <use xlink:href="#m069a3a27a3" x="133.852316" y="38.401992" style="fill: #ff8c00; stroke: #ff8c00"/>
     <use xlink:href="#m069a3a27a3" x="91.890753" y="116.041178" style="fill: #ff8c00; stroke: #ff8c00"/>
     <use xlink:href="#m069a3a27a3" x="127.75225" y="147.615866" style="fill: #ff8c00; stroke: #ff8c00"/>
     <use xlink:href="#m069a3a27a3" x="122.889862" y="113.288903" style="fill: #ff8c00; stroke: #ff8c00"/>
     <use xlink:href="#m069a3a27a3" x="118.851946" y="57.050202" style="fill: #ff8c00; stroke: #ff8c00"/>
     <use xlink:href="#m069a3a27a3" x="147.001524" y="179.898839" style="fill: #ff8c00; stroke: #ff8c00"/>
     <use xlink:href="#m069a3a27a3" x="135.649156" y="140.954301" style="fill: #ff8c00; stroke: #ff8c00"/>
     <use xlink:href="#m069a3a27a3" x="116.724859" y="54.01815" style="fill: #ff8c00; stroke: #ff8c00"/>
     <use xlink:href="#m069a3a27a3" x="122.891616" y="163.431919" style="fill: #ff8c00; stroke: #ff8c00"/>
     <use xlink:href="#m069a3a27a3" x="142.570629" y="126.782703" style="fill: #ff8c00; stroke: #ff8c00"/>
    </g>
   </g>
   <g id="matplotlib.axis_1">
    <g id="xtick_1">
     <g id="line2d_1">
      <defs>
       <path id="m69e7ad8318" d="M 0 0 
L 0 3.5 
" style="stroke: #000000; stroke-width: 0.8"/>
      </defs>
      <g>
       <use xlink:href="#m69e7ad8318" x="82.155961" y="273.312" style="stroke: #000000; stroke-width: 0.8"/>
      </g>
     </g>
     <g id="text_1">
      <!-- −10 -->
      <g transform="translate(71.603617 287.910437) scale(0.1 -0.1)">
       <defs>
        <path id="DejaVuSans-2212" d="M 678 2272 
L 4684 2272 
L 4684 1741 
L 678 1741 
L 678 2272 
z
" transform="scale(0.015625)"/>
        <path id="DejaVuSans-31" d="M 794 531 
L 1825 531 
L 1825 4091 
L 703 3866 
L 703 4441 
L 1819 4666 
L 2450 4666 
L 2450 531 
L 3481 531 
L 3481 0 
L 794 0 
L 794 531 
z
" transform="scale(0.015625)"/>
        <path id="DejaVuSans-30" d="M 2034 4250 
Q 1547 4250 1301 3770 
Q 1056 3291 1056 2328 
Q 1056 1369 1301 889 
Q 1547 409 2034 409 
Q 2525 409 2770 889 
Q 3016 1369 3016 2328 
Q 3016 3291 2770 3770 
Q 2525 4250 2034 4250 
z
M 2034 4750 
Q 2819 4750 3233 4129 
Q 3647 3509 3647 2328 
Q 3647 1150 3233 529 
Q 2819 -91 2034 -91 
Q 1250 -91 836 529 
Q 422 1150 422 2328 
Q 422 3509 836 4129 
Q 1250 4750 2034 4750 
z
" transform="scale(0.015625)"/>
       </defs>
       <use xlink:href="#DejaVuSans-2212"/>
       <use xlink:href="#DejaVuSans-31" x="83.789062"/>
       <use xlink:href="#DejaVuSans-30" x="147.412109"/>
      </g>
     </g>
    </g>
    <g id="xtick_2">
     <g id="line2d_2">
      <g>
       <use xlink:href="#m69e7ad8318" x="142.660588" y="273.312" style="stroke: #000000; stroke-width: 0.8"/>
      </g>
     </g>
     <g id="text_2">
      <!-- 0 -->
      <g transform="translate(139.479338 287.910437) scale(0.1 -0.1)">
       <use xlink:href="#DejaVuSans-30"/>
      </g>
     </g>
    </g>
    <g id="xtick_3">
     <g id="line2d_3">
      <g>
       <use xlink:href="#m69e7ad8318" x="203.165215" y="273.312" style="stroke: #000000; stroke-width: 0.8"/>
      </g>
     </g>
     <g id="text_3">
      <!-- 10 -->
      <g transform="translate(196.802715 287.910437) scale(0.1 -0.1)">
       <use xlink:href="#DejaVuSans-31"/>
       <use xlink:href="#DejaVuSans-30" x="63.623047"/>
      </g>
     </g>
    </g>
    <g id="xtick_4">
     <g id="line2d_4">
      <g>
       <use xlink:href="#m69e7ad8318" x="263.669843" y="273.312" style="stroke: #000000; stroke-width: 0.8"/>
      </g>
     </g>
     <g id="text_4">
      <!-- 20 -->
      <g transform="translate(257.307343 287.910437) scale(0.1 -0.1)">
       <defs>
        <path id="DejaVuSans-32" d="M 1228 531 
L 3431 531 
L 3431 0 
L 469 0 
L 469 531 
Q 828 903 1448 1529 
Q 2069 2156 2228 2338 
Q 2531 2678 2651 2914 
Q 2772 3150 2772 3378 
Q 2772 3750 2511 3984 
Q 2250 4219 1831 4219 
Q 1534 4219 1204 4116 
Q 875 4013 500 3803 
L 500 4441 
Q 881 4594 1212 4672 
Q 1544 4750 1819 4750 
Q 2544 4750 2975 4387 
Q 3406 4025 3406 3419 
Q 3406 3131 3298 2873 
Q 3191 2616 2906 2266 
Q 2828 2175 2409 1742 
Q 1991 1309 1228 531 
z
" transform="scale(0.015625)"/>
       </defs>
       <use xlink:href="#DejaVuSans-32"/>
       <use xlink:href="#DejaVuSans-30" x="63.623047"/>
      </g>
     </g>
    </g>
    <g id="xtick_5">
     <g id="line2d_5">
      <g>
       <use xlink:href="#m69e7ad8318" x="324.17447" y="273.312" style="stroke: #000000; stroke-width: 0.8"/>
      </g>
     </g>
     <g id="text_5">
      <!-- 30 -->
      <g transform="translate(317.81197 287.910437) scale(0.1 -0.1)">
       <defs>
        <path id="DejaVuSans-33" d="M 2597 2516 
Q 3050 2419 3304 2112 
Q 3559 1806 3559 1356 
Q 3559 666 3084 287 
Q 2609 -91 1734 -91 
Q 1441 -91 1130 -33 
Q 819 25 488 141 
L 488 750 
Q 750 597 1062 519 
Q 1375 441 1716 441 
Q 2309 441 2620 675 
Q 2931 909 2931 1356 
Q 2931 1769 2642 2001 
Q 2353 2234 1838 2234 
L 1294 2234 
L 1294 2753 
L 1863 2753 
Q 2328 2753 2575 2939 
Q 2822 3125 2822 3475 
Q 2822 3834 2567 4026 
Q 2313 4219 1838 4219 
Q 1578 4219 1281 4162 
Q 984 4106 628 3988 
L 628 4550 
Q 988 4650 1302 4700 
Q 1616 4750 1894 4750 
Q 2613 4750 3031 4423 
Q 3450 4097 3450 3541 
Q 3450 3153 3228 2886 
Q 3006 2619 2597 2516 
z
" transform="scale(0.015625)"/>
       </defs>
       <use xlink:href="#DejaVuSans-33"/>
       <use xlink:href="#DejaVuSans-30" x="63.623047"/>
      </g>
     </g>
    </g>
    <g id="xtick_6">
     <g id="line2d_6">
      <g>
       <use xlink:href="#m69e7ad8318" x="384.679097" y="273.312" style="stroke: #000000; stroke-width: 0.8"/>
      </g>
     </g>
     <g id="text_6">
      <!-- 40 -->
      <g transform="translate(378.316597 287.910437) scale(0.1 -0.1)">
       <defs>
        <path id="DejaVuSans-34" d="M 2419 4116 
L 825 1625 
L 2419 1625 
L 2419 4116 
z
M 2253 4666 
L 3047 4666 
L 3047 1625 
L 3713 1625 
L 3713 1100 
L 3047 1100 
L 3047 0 
L 2419 0 
L 2419 1100 
L 313 1100 
L 313 1709 
L 2253 4666 
z
" transform="scale(0.015625)"/>
       </defs>
       <use xlink:href="#DejaVuSans-34"/>
       <use xlink:href="#DejaVuSans-30" x="63.623047"/>
      </g>
     </g>
    </g>
   </g>
   <g id="matplotlib.axis_2">
    <g id="ytick_1">
     <g id="line2d_7">
      <defs>
       <path id="m0bdf77f962" d="M 0 0 
L -3.5 0 
" style="stroke: #000000; stroke-width: 0.8"/>
      </defs>
      <g>
       <use xlink:href="#m0bdf77f962" x="35.304688" y="242.769477" style="stroke: #000000; stroke-width: 0.8"/>
      </g>
     </g>
     <g id="text_7">
      <!-- −15 -->
      <g transform="translate(7.2 246.568695) scale(0.1 -0.1)">
       <defs>
        <path id="DejaVuSans-35" d="M 691 4666 
L 3169 4666 
L 3169 4134 
L 1269 4134 
L 1269 2991 
Q 1406 3038 1543 3061 
Q 1681 3084 1819 3084 
Q 2600 3084 3056 2656 
Q 3513 2228 3513 1497 
Q 3513 744 3044 326 
Q 2575 -91 1722 -91 
Q 1428 -91 1123 -41 
Q 819 9 494 109 
L 494 744 
Q 775 591 1075 516 
Q 1375 441 1709 441 
Q 2250 441 2565 725 
Q 2881 1009 2881 1497 
Q 2881 1984 2565 2268 
Q 2250 2553 1709 2553 
Q 1456 2553 1204 2497 
Q 953 2441 691 2322 
L 691 4666 
z
" transform="scale(0.015625)"/>
       </defs>
       <use xlink:href="#DejaVuSans-2212"/>
       <use xlink:href="#DejaVuSans-31" x="83.789062"/>
       <use xlink:href="#DejaVuSans-35" x="147.412109"/>
      </g>
     </g>
    </g>
    <g id="ytick_2">
     <g id="line2d_8">
      <g>
       <use xlink:href="#m0bdf77f962" x="35.304688" y="211.320354" style="stroke: #000000; stroke-width: 0.8"/>
      </g>
     </g>
     <g id="text_8">
      <!-- −10 -->
      <g transform="translate(7.2 215.119572) scale(0.1 -0.1)">
       <use xlink:href="#DejaVuSans-2212"/>
       <use xlink:href="#DejaVuSans-31" x="83.789062"/>
       <use xlink:href="#DejaVuSans-30" x="147.412109"/>
      </g>
     </g>
    </g>
    <g id="ytick_3">
     <g id="line2d_9">
      <g>
       <use xlink:href="#m0bdf77f962" x="35.304688" y="179.871231" style="stroke: #000000; stroke-width: 0.8"/>
      </g>
     </g>
     <g id="text_9">
      <!-- −5 -->
      <g transform="translate(13.5625 183.67045) scale(0.1 -0.1)">
       <use xlink:href="#DejaVuSans-2212"/>
       <use xlink:href="#DejaVuSans-35" x="83.789062"/>
      </g>
     </g>
    </g>
    <g id="ytick_4">
     <g id="line2d_10">
      <g>
       <use xlink:href="#m0bdf77f962" x="35.304688" y="148.422108" style="stroke: #000000; stroke-width: 0.8"/>
      </g>
     </g>
     <g id="text_10">
      <!-- 0 -->
      <g transform="translate(21.942187 152.221327) scale(0.1 -0.1)">
       <use xlink:href="#DejaVuSans-30"/>
      </g>
     </g>
    </g>
    <g id="ytick_5">
     <g id="line2d_11">
      <g>
       <use xlink:href="#m0bdf77f962" x="35.304688" y="116.972985" style="stroke: #000000; stroke-width: 0.8"/>
      </g>
     </g>
     <g id="text_11">
      <!-- 5 -->
      <g transform="translate(21.942187 120.772204) scale(0.1 -0.1)">
       <use xlink:href="#DejaVuSans-35"/>
      </g>
     </g>
    </g>
    <g id="ytick_6">
     <g id="line2d_12">
      <g>
       <use xlink:href="#m0bdf77f962" x="35.304688" y="85.523862" style="stroke: #000000; stroke-width: 0.8"/>
      </g>
     </g>
     <g id="text_12">
      <!-- 10 -->
      <g transform="translate(15.579687 89.323081) scale(0.1 -0.1)">
       <use xlink:href="#DejaVuSans-31"/>
       <use xlink:href="#DejaVuSans-30" x="63.623047"/>
      </g>
     </g>
    </g>
    <g id="ytick_7">
     <g id="line2d_13">
      <g>
       <use xlink:href="#m0bdf77f962" x="35.304688" y="54.074739" style="stroke: #000000; stroke-width: 0.8"/>
      </g>
     </g>
     <g id="text_13">
      <!-- 15 -->
      <g transform="translate(15.579687 57.873958) scale(0.1 -0.1)">
       <use xlink:href="#DejaVuSans-31"/>
       <use xlink:href="#DejaVuSans-35" x="63.623047"/>
      </g>
     </g>
    </g>
    <g id="ytick_8">
     <g id="line2d_14">
      <g>
       <use xlink:href="#m0bdf77f962" x="35.304688" y="22.625616" style="stroke: #000000; stroke-width: 0.8"/>
      </g>
     </g>
     <g id="text_14">
      <!-- 20 -->
      <g transform="translate(15.579687 26.424835) scale(0.1 -0.1)">
       <use xlink:href="#DejaVuSans-32"/>
       <use xlink:href="#DejaVuSans-30" x="63.623047"/>
      </g>
     </g>
    </g>
   </g>
   <g id="patch_3">
    <path d="M 35.304688 273.312 
L 35.304688 7.2 
" style="fill: none; stroke: #000000; stroke-width: 0.8; stroke-linejoin: miter; stroke-linecap: square"/>
   </g>
   <g id="patch_4">
    <path d="M 392.424688 273.312 
L 392.424688 7.2 
" style="fill: none; stroke: #000000; stroke-width: 0.8; stroke-linejoin: miter; stroke-linecap: square"/>
   </g>
   <g id="patch_5">
    <path d="M 35.304687 273.312 
L 392.424688 273.312 
" style="fill: none; stroke: #000000; stroke-width: 0.8; stroke-linejoin: miter; stroke-linecap: square"/>
   </g>
   <g id="patch_6">
    <path d="M 35.304687 7.2 
L 392.424688 7.2 
" style="fill: none; stroke: #000000; stroke-width: 0.8; stroke-linejoin: miter; stroke-linecap: square"/>
   </g>
  </g>
 </g>
 <defs>
  <clipPath id="p51a007f8b9">
   <rect x="35.304688" y="7.2" width="357.12" height="266.112"/>
  </clipPath>
 </defs>
</svg>
