<?xml version="1.0" encoding="utf-8" standalone="no"?>
<!DOCTYPE svg PUBLIC "-//W3C//DTD SVG 1.1//EN"
  "http://www.w3.org/Graphics/SVG/1.1/DTD/svg11.dtd">
<svg xmlns:xlink="http://www.w3.org/1999/xlink" width="399.624687pt" height="297.190125pt" viewBox="0 0 399.624687 297.190125" xmlns="http://www.w3.org/2000/svg" version="1.1">
 <metadata>
  <rdf:RDF xmlns:dc="http://purl.org/dc/elements/1.1/" xmlns:cc="http://creativecommons.org/ns#" xmlns:rdf="http://www.w3.org/1999/02/22-rdf-syntax-ns#">
   <cc:Work>
    <dc:type rdf:resource="http://purl.org/dc/dcmitype/StillImage"/>
    <dc:date>2023-11-13T16:16:45.368930</dc:date>
    <dc:format>image/svg+xml</dc:format>
    <dc:creator>
     <cc:Agent>
      <dc:title>Matplotlib v3.8.0, https://matplotlib.org/</dc:title>
     </cc:Agent>
    </dc:creator>
   </cc:Work>
  </rdf:RDF>
 </metadata>
 <defs>
  <style type="text/css">*{stroke-linejoin: round; stroke-linecap: butt}</style>
 </defs>
 <g id="figure_1">
  <g id="patch_1">
   <path d="M 0 297.190125 
L 399.624687 297.190125 
L 399.624687 0 
L 0 0 
z
" style="fill: #ffffff"/>
  </g>
  <g id="axes_1">
   <g id="patch_2">
    <path d="M 35.304688 273.312 
L 392.424688 273.312 
L 392.424688 7.2 
L 35.304688 7.2 
z
" style="fill: #ffffff"/>
   </g>
   <g id="PathCollection_1">
    <defs>
     <path id="m4e1bea1031" d="M 0 1.5 
C 0.397805 1.5 0.77937 1.341951 1.06066 1.06066 
C 1.341951 0.77937 1.5 0.397805 1.5 0 
C 1.5 -0.397805 1.341951 -0.77937 1.06066 -1.06066 
C 0.77937 -1.341951 0.397805 -1.5 0 -1.5 
C -0.397805 -1.5 -0.77937 -1.341951 -1.06066 -1.06066 
C -1.341951 -0.77937 -1.5 -0.397805 -1.5 0 
C -1.5 0.397805 -1.341951 0.77937 -1.06066 1.06066 
C -0.77937 1.341951 -0.397805 1.5 0 1.5 
z
" style="stroke: #ff8c00"/>
    </defs>
    <g clip-path="url(#pb10f3e6787)">
     <use xlink:href="#m4e1bea1031" x="72.198321" y="229.742466" style="fill: #ff8c00; stroke: #ff8c00"/>
     <use xlink:href="#m4e1bea1031" x="88.124233" y="160.837482" style="fill: #ff8c00; stroke: #ff8c00"/>
     <use xlink:href="#m4e1bea1031" x="171.647935" y="174.107642" style="fill: #ff8c00; stroke: #ff8c00"/>
     <use xlink:href="#m4e1bea1031" x="173.431399" y="246.050871" style="fill: #ff8c00; stroke: #ff8c00"/>
     <use xlink:href="#m4e1bea1031" x="132.144747" y="139.428018" style="fill: #ff8c00; stroke: #ff8c00"/>
     <use xlink:href="#m4e1bea1031" x="172.38932" y="149.92207" style="fill: #ff8c00; stroke: #ff8c00"/>
     <use xlink:href="#m4e1bea1031" x="90.256098" y="193.758626" style="fill: #ff8c00; stroke: #ff8c00"/>
     <use xlink:href="#m4e1bea1031" x="127.111837" y="234.303897" style="fill: #ff8c00; stroke: #ff8c00"/>
     <use xlink:href="#m4e1bea1031" x="95.743178" y="188.416975" style="fill: #ff8c00; stroke: #ff8c00"/>
     <use xlink:href="#m4e1bea1031" x="183.686131" y="150.019004" style="fill: #ff8c00; stroke: #ff8c00"/>
     <use xlink:href="#m4e1bea1031" x="76.072188" y="213.992417" style="fill: #ff8c00; stroke: #ff8c00"/>
     <use xlink:href="#m4e1bea1031" x="167.041682" y="191.847709" style="fill: #ff8c00; stroke: #ff8c00"/>
     <use xlink:href="#m4e1bea1031" x="101.677186" y="183.261549" style="fill: #ff8c00; stroke: #ff8c00"/>
     <use xlink:href="#m4e1bea1031" x="75.464653" y="146.743123" style="fill: #ff8c00; stroke: #ff8c00"/>
     <use xlink:href="#m4e1bea1031" x="107.923535" y="177.697271" style="fill: #ff8c00; stroke: #ff8c00"/>
     <use xlink:href="#m4e1bea1031" x="107.221238" y="210.176249" style="fill: #ff8c00; stroke: #ff8c00"/>
     <use xlink:href="#m4e1bea1031" x="211.875744" y="149.195844" style="fill: #ff8c00; stroke: #ff8c00"/>
     <use xlink:href="#m4e1bea1031" x="64.11369" y="183.071644" style="fill: #ff8c00; stroke: #ff8c00"/>
     <use xlink:href="#m4e1bea1031" x="69.765912" y="210.96049" style="fill: #ff8c00; stroke: #ff8c00"/>
     <use xlink:href="#m4e1bea1031" x="58.50333" y="154.338842" style="fill: #ff8c00; stroke: #ff8c00"/>
     <use xlink:href="#m4e1bea1031" x="110.310266" y="226.299529" style="fill: #ff8c00; stroke: #ff8c00"/>
     <use xlink:href="#m4e1bea1031" x="121.571276" y="123.949035" style="fill: #ff8c00; stroke: #ff8c00"/>
     <use xlink:href="#m4e1bea1031" x="126.012636" y="197.555536" style="fill: #ff8c00; stroke: #ff8c00"/>
    </g>
   </g>
   <g id="PathCollection_2">
    <defs>
     <path id="m9c513431a0" d="M 0 1.5 
C 0.397805 1.5 0.77937 1.341951 1.06066 1.06066 
C 1.341951 0.77937 1.5 0.397805 1.5 0 
C 1.5 -0.397805 1.341951 -0.77937 1.06066 -1.06066 
C 0.77937 -1.341951 0.397805 -1.5 0 -1.5 
C -0.397805 -1.5 -0.77937 -1.341951 -1.06066 -1.06066 
C -1.341951 -0.77937 -1.5 -0.397805 -1.5 0 
C -1.5 0.397805 -1.341951 0.77937 -1.06066 1.06066 
C -0.77937 1.341951 -0.397805 1.5 0 1.5 
z
" style="stroke: #006400"/>
    </defs>
    <g clip-path="url(#pb10f3e6787)">
     <use xlink:href="#m9c513431a0" x="129.525365" y="181.661731" style="fill: #006400; stroke: #006400"/>
     <use xlink:href="#m9c513431a0" x="168.322427" y="126.073033" style="fill: #006400; stroke: #006400"/>
     <use xlink:href="#m9c513431a0" x="104.123408" y="173.851355" style="fill: #006400; stroke: #006400"/>
     <use xlink:href="#m9c513431a0" x="168.40152" y="138.474098" style="fill: #006400; stroke: #006400"/>
     <use xlink:href="#m9c513431a0" x="110.01121" y="203.76525" style="fill: #006400; stroke: #006400"/>
     <use xlink:href="#m9c513431a0" x="160.741624" y="192.979653" style="fill: #006400; stroke: #006400"/>
     <use xlink:href="#m9c513431a0" x="145.442135" y="192.869289" style="fill: #006400; stroke: #006400"/>
     <use xlink:href="#m9c513431a0" x="125.680421" y="179.402997" style="fill: #006400; stroke: #006400"/>
     <use xlink:href="#m9c513431a0" x="238.689047" y="229.583713" style="fill: #006400; stroke: #006400"/>
     <use xlink:href="#m9c513431a0" x="149.284377" y="100.900706" style="fill: #006400; stroke: #006400"/>
     <use xlink:href="#m9c513431a0" x="135.962574" y="167.294151" style="fill: #006400; stroke: #006400"/>
     <use xlink:href="#m9c513431a0" x="54.81395" y="230.592093" style="fill: #006400; stroke: #006400"/>
     <use xlink:href="#m9c513431a0" x="173.723348" y="163.409098" style="fill: #006400; stroke: #006400"/>
    </g>
   </g>
   <g id="PathCollection_3">
    <defs>
     <path id="m25ce23031c" d="M 0 1.5 
C 0.397805 1.5 0.77937 1.341951 1.06066 1.06066 
C 1.341951 0.77937 1.5 0.397805 1.5 0 
C 1.5 -0.397805 1.341951 -0.77937 1.06066 -1.06066 
C 0.77937 -1.341951 0.397805 -1.5 0 -1.5 
C -0.397805 -1.5 -0.77937 -1.341951 -1.06066 -1.06066 
C -1.341951 -0.77937 -1.5 -0.397805 -1.5 0 
C -1.5 0.397805 -1.341951 0.77937 -1.06066 1.06066 
C -0.77937 1.341951 -0.397805 1.5 0 1.5 
z
" style="stroke: #2f4f4f"/>
    </defs>
    <g clip-path="url(#pb10f3e6787)">
     <use xlink:href="#m25ce23031c" x="168.475439" y="143.420638" style="fill: #2f4f4f; stroke: #2f4f4f"/>
     <use xlink:href="#m25ce23031c" x="170.321163" y="110.152167" style="fill: #2f4f4f; stroke: #2f4f4f"/>
     <use xlink:href="#m25ce23031c" x="251.04023" y="157.214519" style="fill: #2f4f4f; stroke: #2f4f4f"/>
     <use xlink:href="#m25ce23031c" x="213.021906" y="130.110433" style="fill: #2f4f4f; stroke: #2f4f4f"/>
     <use xlink:href="#m25ce23031c" x="212.859804" y="116.659838" style="fill: #2f4f4f; stroke: #2f4f4f"/>
     <use xlink:href="#m25ce23031c" x="215.728278" y="181.692728" style="fill: #2f4f4f; stroke: #2f4f4f"/>
     <use xlink:href="#m25ce23031c" x="177.335864" y="168.150154" style="fill: #2f4f4f; stroke: #2f4f4f"/>
     <use xlink:href="#m25ce23031c" x="159.701362" y="87.779564" style="fill: #2f4f4f; stroke: #2f4f4f"/>
     <use xlink:href="#m25ce23031c" x="239.194992" y="122.867324" style="fill: #2f4f4f; stroke: #2f4f4f"/>
     <use xlink:href="#m25ce23031c" x="166.908044" y="168.012701" style="fill: #2f4f4f; stroke: #2f4f4f"/>
     <use xlink:href="#m25ce23031c" x="192.987171" y="220.161981" style="fill: #2f4f4f; stroke: #2f4f4f"/>
     <use xlink:href="#m25ce23031c" x="211.264712" y="166.158531" style="fill: #2f4f4f; stroke: #2f4f4f"/>
     <use xlink:href="#m25ce23031c" x="213.210857" y="170.159117" style="fill: #2f4f4f; stroke: #2f4f4f"/>
     <use xlink:href="#m25ce23031c" x="160.120022" y="129.57117" style="fill: #2f4f4f; stroke: #2f4f4f"/>
    </g>
   </g>
   <g id="PathCollection_4">
    <defs>
     <path id="m7af3ae2d1a" d="M 0 1.5 
C 0.397805 1.5 0.77937 1.341951 1.06066 1.06066 
C 1.341951 0.77937 1.5 0.397805 1.5 0 
C 1.5 -0.397805 1.341951 -0.77937 1.06066 -1.06066 
C 0.77937 -1.341951 0.397805 -1.5 0 -1.5 
C -0.397805 -1.5 -0.77937 -1.341951 -1.06066 -1.06066 
C -1.341951 -0.77937 -1.5 -0.397805 -1.5 0 
C -1.5 0.397805 -1.341951 0.77937 -1.06066 1.06066 
C -0.77937 1.341951 -0.397805 1.5 0 1.5 
z
" style="stroke: #00bfff"/>
    </defs>
    <g clip-path="url(#pb10f3e6787)">
     <use xlink:href="#m7af3ae2d1a" x="206.50813" y="134.223758" style="fill: #00bfff; stroke: #00bfff"/>
     <use xlink:href="#m7af3ae2d1a" x="180.8866" y="161.508643" style="fill: #00bfff; stroke: #00bfff"/>
     <use xlink:href="#m7af3ae2d1a" x="161.106656" y="198.520846" style="fill: #00bfff; stroke: #00bfff"/>
     <use xlink:href="#m7af3ae2d1a" x="223.350442" y="117.739297" style="fill: #00bfff; stroke: #00bfff"/>
     <use xlink:href="#m7af3ae2d1a" x="145.887413" y="155.142638" style="fill: #00bfff; stroke: #00bfff"/>
     <use xlink:href="#m7af3ae2d1a" x="188.179436" y="224.996928" style="fill: #00bfff; stroke: #00bfff"/>
     <use xlink:href="#m7af3ae2d1a" x="173.485429" y="96.262196" style="fill: #00bfff; stroke: #00bfff"/>
     <use xlink:href="#m7af3ae2d1a" x="226.668037" y="176.050562" style="fill: #00bfff; stroke: #00bfff"/>
     <use xlink:href="#m7af3ae2d1a" x="213.016549" y="123.146717" style="fill: #00bfff; stroke: #00bfff"/>
     <use xlink:href="#m7af3ae2d1a" x="253.805066" y="212.322292" style="fill: #00bfff; stroke: #00bfff"/>
     <use xlink:href="#m7af3ae2d1a" x="194.806174" y="73.388904" style="fill: #00bfff; stroke: #00bfff"/>
    </g>
   </g>
   <g id="PathCollection_5">
    <defs>
     <path id="mde8efc0799" d="M 0 1.5 
C 0.397805 1.5 0.77937 1.341951 1.06066 1.06066 
C 1.341951 0.77937 1.5 0.397805 1.5 0 
C 1.5 -0.397805 1.341951 -0.77937 1.06066 -1.06066 
C 0.77937 -1.341951 0.397805 -1.5 0 -1.5 
C -0.397805 -1.5 -0.77937 -1.341951 -1.06066 -1.06066 
C -1.341951 -0.77937 -1.5 -0.397805 -1.5 0 
C -1.5 0.397805 -1.341951 0.77937 -1.06066 1.06066 
C -0.77937 1.341951 -0.397805 1.5 0 1.5 
z
" style="stroke: #ffff00"/>
    </defs>
    <g clip-path="url(#pb10f3e6787)">
     <use xlink:href="#mde8efc0799" x="239.261894" y="135.752281" style="fill: #ffff00; stroke: #ffff00"/>
     <use xlink:href="#mde8efc0799" x="242.960744" y="126.60194" style="fill: #ffff00; stroke: #ffff00"/>
     <use xlink:href="#mde8efc0799" x="226.041909" y="161.74844" style="fill: #ffff00; stroke: #ffff00"/>
     <use xlink:href="#mde8efc0799" x="203.561837" y="91.540107" style="fill: #ffff00; stroke: #ffff00"/>
     <use xlink:href="#mde8efc0799" x="207.790423" y="149.144004" style="fill: #ffff00; stroke: #ffff00"/>
     <use xlink:href="#mde8efc0799" x="244.473047" y="129.742817" style="fill: #ffff00; stroke: #ffff00"/>
     <use xlink:href="#mde8efc0799" x="236.163705" y="128.383227" style="fill: #ffff00; stroke: #ffff00"/>
     <use xlink:href="#mde8efc0799" x="256.886715" y="108.418858" style="fill: #ffff00; stroke: #ffff00"/>
     <use xlink:href="#mde8efc0799" x="178.502595" y="182.59706" style="fill: #ffff00; stroke: #ffff00"/>
     <use xlink:href="#mde8efc0799" x="214.728645" y="121.993435" style="fill: #ffff00; stroke: #ffff00"/>
     <use xlink:href="#mde8efc0799" x="246.70766" y="130.210446" style="fill: #ffff00; stroke: #ffff00"/>
     <use xlink:href="#mde8efc0799" x="268.75234" y="235.041543" style="fill: #ffff00; stroke: #ffff00"/>
     <use xlink:href="#mde8efc0799" x="317.927275" y="225.576171" style="fill: #ffff00; stroke: #ffff00"/>
    </g>
   </g>
   <g id="PathCollection_6">
    <defs>
     <path id="mb6b6e7a535" d="M 0 1.5 
C 0.397805 1.5 0.77937 1.341951 1.06066 1.06066 
C 1.341951 0.77937 1.5 0.397805 1.5 0 
C 1.5 -0.397805 1.341951 -0.77937 1.06066 -1.06066 
C 0.77937 -1.341951 0.397805 -1.5 0 -1.5 
C -0.397805 -1.5 -0.77937 -1.341951 -1.06066 -1.06066 
C -1.341951 -0.77937 -1.5 -0.397805 -1.5 0 
C -1.5 0.397805 -1.341951 0.77937 -1.06066 1.06066 
C -0.77937 1.341951 -0.397805 1.5 0 1.5 
z
" style="stroke: #00ffff"/>
    </defs>
    <g clip-path="url(#pb10f3e6787)">
     <use xlink:href="#mb6b6e7a535" x="217.78241" y="112.778448" style="fill: #00ffff; stroke: #00ffff"/>
     <use xlink:href="#mb6b6e7a535" x="240.781361" y="69.004825" style="fill: #00ffff; stroke: #00ffff"/>
     <use xlink:href="#mb6b6e7a535" x="193.267594" y="165.833945" style="fill: #00ffff; stroke: #00ffff"/>
     <use xlink:href="#mb6b6e7a535" x="233.842245" y="79.913508" style="fill: #00ffff; stroke: #00ffff"/>
     <use xlink:href="#mb6b6e7a535" x="201.235044" y="115.748945" style="fill: #00ffff; stroke: #00ffff"/>
     <use xlink:href="#mb6b6e7a535" x="234.880964" y="98.767199" style="fill: #00ffff; stroke: #00ffff"/>
     <use xlink:href="#mb6b6e7a535" x="215.286" y="145.246691" style="fill: #00ffff; stroke: #00ffff"/>
     <use xlink:href="#mb6b6e7a535" x="225.078639" y="122.707202" style="fill: #00ffff; stroke: #00ffff"/>
     <use xlink:href="#mb6b6e7a535" x="214.712478" y="168.463305" style="fill: #00ffff; stroke: #00ffff"/>
     <use xlink:href="#mb6b6e7a535" x="172.916176" y="103.247986" style="fill: #00ffff; stroke: #00ffff"/>
     <use xlink:href="#mb6b6e7a535" x="200.447549" y="112.427477" style="fill: #00ffff; stroke: #00ffff"/>
     <use xlink:href="#mb6b6e7a535" x="163.639269" y="169.90755" style="fill: #00ffff; stroke: #00ffff"/>
     <use xlink:href="#mb6b6e7a535" x="180.946514" y="143.556415" style="fill: #00ffff; stroke: #00ffff"/>
    </g>
   </g>
   <g id="PathCollection_7">
    <defs>
     <path id="m15433c648f" d="M 0 1.5 
C 0.397805 1.5 0.77937 1.341951 1.06066 1.06066 
C 1.341951 0.77937 1.5 0.397805 1.5 0 
C 1.5 -0.397805 1.341951 -0.77937 1.06066 -1.06066 
C 0.77937 -1.341951 0.397805 -1.5 0 -1.5 
C -0.397805 -1.5 -0.77937 -1.341951 -1.06066 -1.06066 
C -1.341951 -0.77937 -1.5 -0.397805 -1.5 0 
C -1.5 0.397805 -1.341951 0.77937 -1.06066 1.06066 
C -0.77937 1.341951 -0.397805 1.5 0 1.5 
z
" style="stroke: #0000ff"/>
    </defs>
    <g clip-path="url(#pb10f3e6787)">
     <use xlink:href="#m15433c648f" x="194.249904" y="104.128119" style="fill: #0000ff; stroke: #0000ff"/>
     <use xlink:href="#m15433c648f" x="216.855035" y="183.541324" style="fill: #0000ff; stroke: #0000ff"/>
     <use xlink:href="#m15433c648f" x="231.964156" y="110.790107" style="fill: #0000ff; stroke: #0000ff"/>
     <use xlink:href="#m15433c648f" x="210.581848" y="122.276595" style="fill: #0000ff; stroke: #0000ff"/>
     <use xlink:href="#m15433c648f" x="187.629083" y="110.320607" style="fill: #0000ff; stroke: #0000ff"/>
     <use xlink:href="#m15433c648f" x="204.998105" y="132.279686" style="fill: #0000ff; stroke: #0000ff"/>
     <use xlink:href="#m15433c648f" x="173.419561" y="133.028106" style="fill: #0000ff; stroke: #0000ff"/>
     <use xlink:href="#m15433c648f" x="202.039056" y="96.53145" style="fill: #0000ff; stroke: #0000ff"/>
     <use xlink:href="#m15433c648f" x="159.545837" y="179.265282" style="fill: #0000ff; stroke: #0000ff"/>
     <use xlink:href="#m15433c648f" x="154.290909" y="123.988933" style="fill: #0000ff; stroke: #0000ff"/>
     <use xlink:href="#m15433c648f" x="153.523152" y="142.799928" style="fill: #0000ff; stroke: #0000ff"/>
     <use xlink:href="#m15433c648f" x="267.622317" y="122.0418" style="fill: #0000ff; stroke: #0000ff"/>
    </g>
   </g>
   <g id="PathCollection_8">
    <defs>
     <path id="mcc0b55089a" d="M 0 1.5 
C 0.397805 1.5 0.77937 1.341951 1.06066 1.06066 
C 1.341951 0.77937 1.5 0.397805 1.5 0 
C 1.5 -0.397805 1.341951 -0.77937 1.06066 -1.06066 
C 0.77937 -1.341951 0.397805 -1.5 0 -1.5 
C -0.397805 -1.5 -0.77937 -1.341951 -1.06066 -1.06066 
C -1.341951 -0.77937 -1.5 -0.397805 -1.5 0 
C -1.5 0.397805 -1.341951 0.77937 -1.06066 1.06066 
C -0.77937 1.341951 -0.397805 1.5 0 1.5 
z
" style="stroke: #dc143c"/>
    </defs>
    <g clip-path="url(#pb10f3e6787)">
     <use xlink:href="#mcc0b55089a" x="113.273861" y="202.891739" style="fill: #dc143c; stroke: #dc143c"/>
     <use xlink:href="#mcc0b55089a" x="177.212241" y="146.842941" style="fill: #dc143c; stroke: #dc143c"/>
     <use xlink:href="#mcc0b55089a" x="140.400509" y="172.421645" style="fill: #dc143c; stroke: #dc143c"/>
     <use xlink:href="#mcc0b55089a" x="119.083766" y="134.42557" style="fill: #dc143c; stroke: #dc143c"/>
     <use xlink:href="#mcc0b55089a" x="95.385375" y="138.954054" style="fill: #dc143c; stroke: #dc143c"/>
     <use xlink:href="#mcc0b55089a" x="186.135953" y="171.169377" style="fill: #dc143c; stroke: #dc143c"/>
     <use xlink:href="#mcc0b55089a" x="197.110436" y="146.25869" style="fill: #dc143c; stroke: #dc143c"/>
     <use xlink:href="#mcc0b55089a" x="165.349701" y="174.562064" style="fill: #dc143c; stroke: #dc143c"/>
     <use xlink:href="#mcc0b55089a" x="178.738279" y="214.8989" style="fill: #dc143c; stroke: #dc143c"/>
     <use xlink:href="#mcc0b55089a" x="108.080259" y="72.109024" style="fill: #dc143c; stroke: #dc143c"/>
     <use xlink:href="#mcc0b55089a" x="202.82968" y="171.116222" style="fill: #dc143c; stroke: #dc143c"/>
     <use xlink:href="#mcc0b55089a" x="110.565674" y="167.607451" style="fill: #dc143c; stroke: #dc143c"/>
     <use xlink:href="#mcc0b55089a" x="51.537415" y="206.660507" style="fill: #dc143c; stroke: #dc143c"/>
     <use xlink:href="#mcc0b55089a" x="137.705997" y="197.724148" style="fill: #dc143c; stroke: #dc143c"/>
     <use xlink:href="#mcc0b55089a" x="139.750884" y="163.168589" style="fill: #dc143c; stroke: #dc143c"/>
     <use xlink:href="#mcc0b55089a" x="135.027751" y="91.941541" style="fill: #dc143c; stroke: #dc143c"/>
     <use xlink:href="#mcc0b55089a" x="128.310823" y="179.068593" style="fill: #dc143c; stroke: #dc143c"/>
    </g>
   </g>
   <g id="PathCollection_9">
    <defs>
     <path id="m8a84e044bf" d="M 0 1.5 
C 0.397805 1.5 0.77937 1.341951 1.06066 1.06066 
C 1.341951 0.77937 1.5 0.397805 1.5 0 
C 1.5 -0.397805 1.341951 -0.77937 1.06066 -1.06066 
C 0.77937 -1.341951 0.397805 -1.5 0 -1.5 
C -0.397805 -1.5 -0.77937 -1.341951 -1.06066 -1.06066 
C -1.341951 -0.77937 -1.5 -0.397805 -1.5 0 
C -1.5 0.397805 -1.341951 0.77937 -1.06066 1.06066 
C -0.77937 1.341951 -0.397805 1.5 0 1.5 
z
" style="stroke: #ffe4c4"/>
    </defs>
    <g clip-path="url(#pb10f3e6787)">
     <use xlink:href="#m8a84e044bf" x="196.1531" y="194.70731" style="fill: #ffe4c4; stroke: #ffe4c4"/>
     <use xlink:href="#m8a84e044bf" x="134.084981" y="248.756225" style="fill: #ffe4c4; stroke: #ffe4c4"/>
     <use xlink:href="#m8a84e044bf" x="170.952238" y="134.354629" style="fill: #ffe4c4; stroke: #ffe4c4"/>
     <use xlink:href="#m8a84e044bf" x="150.948208" y="225.286104" style="fill: #ffe4c4; stroke: #ffe4c4"/>
     <use xlink:href="#m8a84e044bf" x="204.995404" y="163.63105" style="fill: #ffe4c4; stroke: #ffe4c4"/>
     <use xlink:href="#m8a84e044bf" x="108.147925" y="228.235895" style="fill: #ffe4c4; stroke: #ffe4c4"/>
     <use xlink:href="#m8a84e044bf" x="129.280487" y="200.203122" style="fill: #ffe4c4; stroke: #ffe4c4"/>
     <use xlink:href="#m8a84e044bf" x="111.584859" y="174.314779" style="fill: #ffe4c4; stroke: #ffe4c4"/>
     <use xlink:href="#m8a84e044bf" x="141.336506" y="233.618471" style="fill: #ffe4c4; stroke: #ffe4c4"/>
     <use xlink:href="#m8a84e044bf" x="130.008503" y="180.632643" style="fill: #ffe4c4; stroke: #ffe4c4"/>
     <use xlink:href="#m8a84e044bf" x="230.183259" y="239.984566" style="fill: #ffe4c4; stroke: #ffe4c4"/>
     <use xlink:href="#m8a84e044bf" x="145.097009" y="209.570915" style="fill: #ffe4c4; stroke: #ffe4c4"/>
    </g>
   </g>
   <g id="PathCollection_10">
    <defs>
     <path id="mfb1bed426e" d="M -2.99994 2.99994 
L 3.00006 2.99994 
L 3.00006 -3.00006 
L -2.99994 -3.00006 
z
" style="stroke: #000000"/>
    </defs>
    <g clip-path="url(#pb10f3e6787)">
     <use xlink:href="#mfb1bed426e" x="327.333743" y="207.601251" style="stroke: #000000"/>
     <use xlink:href="#mfb1bed426e" x="345.116317" y="209.512611" style="stroke: #000000"/>
     <use xlink:href="#mfb1bed426e" x="267.993208" y="201.593909" style="stroke: #000000"/>
     <use xlink:href="#mfb1bed426e" x="180.395008" y="176.65107" style="stroke: #000000"/>
     <use xlink:href="#mfb1bed426e" x="191.455486" y="144.189391" style="stroke: #000000"/>
     <use xlink:href="#mfb1bed426e" x="279.307151" y="130.095485" style="stroke: #000000"/>
     <use xlink:href="#mfb1bed426e" x="251.578818" y="222.879262" style="stroke: #000000"/>
     <use xlink:href="#mfb1bed426e" x="257.631718" y="157.450813" style="stroke: #000000"/>
     <use xlink:href="#mfb1bed426e" x="226.571627" y="131.136442" style="stroke: #000000"/>
     <use xlink:href="#mfb1bed426e" x="250.851731" y="232.909882" style="stroke: #000000"/>
     <use xlink:href="#mfb1bed426e" x="242.835832" y="118.047773" style="stroke: #000000"/>
     <use xlink:href="#mfb1bed426e" x="190.292982" y="76.309745" style="stroke: #000000"/>
     <use xlink:href="#mfb1bed426e" x="238.587764" y="166.748047" style="stroke: #000000"/>
     <use xlink:href="#mfb1bed426e" x="238.947968" y="154.352449" style="stroke: #000000"/>
     <use xlink:href="#mfb1bed426e" x="213.945523" y="154.140937" style="stroke: #000000"/>
     <use xlink:href="#mfb1bed426e" x="218.317342" y="19.296" style="stroke: #000000"/>
     <use xlink:href="#mfb1bed426e" x="216.302373" y="176.145115" style="stroke: #000000"/>
     <use xlink:href="#mfb1bed426e" x="313.0176" y="261.216" style="stroke: #000000"/>
     <use xlink:href="#mfb1bed426e" x="308.531586" y="201.136986" style="stroke: #000000"/>
     <use xlink:href="#mfb1bed426e" x="211.817442" y="113.288681" style="stroke: #000000"/>
     <use xlink:href="#mfb1bed426e" x="230.303972" y="182.222123" style="stroke: #000000"/>
     <use xlink:href="#mfb1bed426e" x="226.085791" y="183.800016" style="stroke: #000000"/>
     <use xlink:href="#mfb1bed426e" x="297.839167" y="203.329815" style="stroke: #000000"/>
     <use xlink:href="#mfb1bed426e" x="225.525521" y="138.311507" style="stroke: #000000"/>
     <use xlink:href="#mfb1bed426e" x="206.995431" y="171.770961" style="stroke: #000000"/>
     <use xlink:href="#mfb1bed426e" x="258.815614" y="147.480476" style="stroke: #000000"/>
     <use xlink:href="#mfb1bed426e" x="281.64076" y="207.957214" style="stroke: #000000"/>
     <use xlink:href="#mfb1bed426e" x="204.616958" y="44.027703" style="stroke: #000000"/>
     <use xlink:href="#mfb1bed426e" x="256.541537" y="171.604491" style="stroke: #000000"/>
     <use xlink:href="#mfb1bed426e" x="263.036916" y="165.753915" style="stroke: #000000"/>
     <use xlink:href="#mfb1bed426e" x="220.795618" y="144.180961" style="stroke: #000000"/>
     <use xlink:href="#mfb1bed426e" x="180.103246" y="161.372585" style="stroke: #000000"/>
     <use xlink:href="#mfb1bed426e" x="165.615545" y="235.136055" style="stroke: #000000"/>
     <use xlink:href="#mfb1bed426e" x="376.19196" y="217.834463" style="stroke: #000000"/>
     <use xlink:href="#mfb1bed426e" x="252.691273" y="211.615719" style="stroke: #000000"/>
     <use xlink:href="#mfb1bed426e" x="255.276353" y="165.601308" style="stroke: #000000"/>
     <use xlink:href="#mfb1bed426e" x="259.365283" y="170.572398" style="stroke: #000000"/>
     <use xlink:href="#mfb1bed426e" x="222.169685" y="179.422161" style="stroke: #000000"/>
     <use xlink:href="#mfb1bed426e" x="201.758128" y="218.792985" style="stroke: #000000"/>
     <use xlink:href="#mfb1bed426e" x="203.353343" y="82.012017" style="stroke: #000000"/>
     <use xlink:href="#mfb1bed426e" x="203.156304" y="137.666182" style="stroke: #000000"/>
     <use xlink:href="#mfb1bed426e" x="242.204317" y="164.204276" style="stroke: #000000"/>
     <use xlink:href="#mfb1bed426e" x="267.276721" y="209.415367" style="stroke: #000000"/>
     <use xlink:href="#mfb1bed426e" x="265.000488" y="222.251461" style="stroke: #000000"/>
     <use xlink:href="#mfb1bed426e" x="267.641512" y="187.823429" style="stroke: #000000"/>
     <use xlink:href="#mfb1bed426e" x="259.175638" y="245.830318" style="stroke: #000000"/>
     <use xlink:href="#mfb1bed426e" x="338.831624" y="182.603429" style="stroke: #000000"/>
     <use xlink:href="#mfb1bed426e" x="224.387995" y="130.876938" style="stroke: #000000"/>
     <use xlink:href="#mfb1bed426e" x="177.0256" y="163.399282" style="stroke: #000000"/>
     <use xlink:href="#mfb1bed426e" x="234.819014" y="142.247775" style="stroke: #000000"/>
     <use xlink:href="#mfb1bed426e" x="295.202404" y="183.686602" style="stroke: #000000"/>
     <use xlink:href="#mfb1bed426e" x="310.836149" y="209.778248" style="stroke: #000000"/>
     <use xlink:href="#mfb1bed426e" x="310.34415" y="231.597497" style="stroke: #000000"/>
     <use xlink:href="#mfb1bed426e" x="239.943802" y="81.534655" style="stroke: #000000"/>
     <use xlink:href="#mfb1bed426e" x="238.999156" y="227.959256" style="stroke: #000000"/>
     <use xlink:href="#mfb1bed426e" x="313.037604" y="215.378199" style="stroke: #000000"/>
     <use xlink:href="#mfb1bed426e" x="262.974437" y="140.278353" style="stroke: #000000"/>
     <use xlink:href="#mfb1bed426e" x="236.646335" y="165.839873" style="stroke: #000000"/>
     <use xlink:href="#mfb1bed426e" x="308.706945" y="188.015087" style="stroke: #000000"/>
     <use xlink:href="#mfb1bed426e" x="197.683965" y="184.221676" style="stroke: #000000"/>
     <use xlink:href="#mfb1bed426e" x="198.218935" y="182.643345" style="stroke: #000000"/>
     <use xlink:href="#mfb1bed426e" x="286.29983" y="106.458279" style="stroke: #000000"/>
     <use xlink:href="#mfb1bed426e" x="191.767986" y="125.436844" style="stroke: #000000"/>
     <use xlink:href="#mfb1bed426e" x="189.199141" y="171.07625" style="stroke: #000000"/>
    </g>
   </g>
   <g id="PathCollection_11">
    <defs>
     <path id="m884fd3eb50" d="M -3 -0 
L 3 3 
L 3 -3 
z
" style="stroke: #ff8c00"/>
    </defs>
    <g clip-path="url(#pb10f3e6787)">
     <use xlink:href="#m884fd3eb50" x="225.042126" y="146.520676" style="fill: #ff8c00; stroke: #ff8c00"/>
     <use xlink:href="#m884fd3eb50" x="233.418162" y="149.161974" style="fill: #ff8c00; stroke: #ff8c00"/>
     <use xlink:href="#m884fd3eb50" x="244.294983" y="133.285814" style="fill: #ff8c00; stroke: #ff8c00"/>
     <use xlink:href="#m884fd3eb50" x="179.926442" y="170.53347" style="fill: #ff8c00; stroke: #ff8c00"/>
     <use xlink:href="#m884fd3eb50" x="223.620643" y="173.409424" style="fill: #ff8c00; stroke: #ff8c00"/>
     <use xlink:href="#m884fd3eb50" x="247.705102" y="145.039711" style="fill: #ff8c00; stroke: #ff8c00"/>
     <use xlink:href="#m884fd3eb50" x="216.628617" y="160.490939" style="fill: #ff8c00; stroke: #ff8c00"/>
     <use xlink:href="#m884fd3eb50" x="222.826056" y="171.2256" style="fill: #ff8c00; stroke: #ff8c00"/>
     <use xlink:href="#m884fd3eb50" x="240.396504" y="193.913474" style="fill: #ff8c00; stroke: #ff8c00"/>
     <use xlink:href="#m884fd3eb50" x="189.09721" y="148.91899" style="fill: #ff8c00; stroke: #ff8c00"/>
     <use xlink:href="#m884fd3eb50" x="233.701198" y="150.326203" style="fill: #ff8c00; stroke: #ff8c00"/>
     <use xlink:href="#m884fd3eb50" x="229.552475" y="184.128948" style="fill: #ff8c00; stroke: #ff8c00"/>
     <use xlink:href="#m884fd3eb50" x="195.107176" y="181.824591" style="fill: #ff8c00; stroke: #ff8c00"/>
     <use xlink:href="#m884fd3eb50" x="249.216556" y="164.723926" style="fill: #ff8c00; stroke: #ff8c00"/>
     <use xlink:href="#m884fd3eb50" x="222.214392" y="166.027535" style="fill: #ff8c00; stroke: #ff8c00"/>
     <use xlink:href="#m884fd3eb50" x="243.564997" y="150.11421" style="fill: #ff8c00; stroke: #ff8c00"/>
     <use xlink:href="#m884fd3eb50" x="233.53528" y="192.743428" style="fill: #ff8c00; stroke: #ff8c00"/>
     <use xlink:href="#m884fd3eb50" x="260.066026" y="230.330436" style="fill: #ff8c00; stroke: #ff8c00"/>
     <use xlink:href="#m884fd3eb50" x="210.072791" y="167.596841" style="fill: #ff8c00; stroke: #ff8c00"/>
     <use xlink:href="#m884fd3eb50" x="254.13453" y="136.079169" style="fill: #ff8c00; stroke: #ff8c00"/>
     <use xlink:href="#m884fd3eb50" x="220.424331" y="159.558177" style="fill: #ff8c00; stroke: #ff8c00"/>
     <use xlink:href="#m884fd3eb50" x="238.468473" y="134.232315" style="fill: #ff8c00; stroke: #ff8c00"/>
     <use xlink:href="#m884fd3eb50" x="222.261503" y="155.78885" style="fill: #ff8c00; stroke: #ff8c00"/>
     <use xlink:href="#m884fd3eb50" x="268.256863" y="192.126916" style="fill: #ff8c00; stroke: #ff8c00"/>
     <use xlink:href="#m884fd3eb50" x="258.272345" y="159.120667" style="fill: #ff8c00; stroke: #ff8c00"/>
     <use xlink:href="#m884fd3eb50" x="226.099598" y="170.675763" style="fill: #ff8c00; stroke: #ff8c00"/>
     <use xlink:href="#m884fd3eb50" x="233.173618" y="165.589325" style="fill: #ff8c00; stroke: #ff8c00"/>
     <use xlink:href="#m884fd3eb50" x="259.344078" y="204.780373" style="fill: #ff8c00; stroke: #ff8c00"/>
     <use xlink:href="#m884fd3eb50" x="200.038354" y="181.384798" style="fill: #ff8c00; stroke: #ff8c00"/>
     <use xlink:href="#m884fd3eb50" x="214.481887" y="166.044165" style="fill: #ff8c00; stroke: #ff8c00"/>
     <use xlink:href="#m884fd3eb50" x="262.210399" y="160.01566" style="fill: #ff8c00; stroke: #ff8c00"/>
     <use xlink:href="#m884fd3eb50" x="205.407269" y="179.893086" style="fill: #ff8c00; stroke: #ff8c00"/>
     <use xlink:href="#m884fd3eb50" x="197.917759" y="214.513143" style="fill: #ff8c00; stroke: #ff8c00"/>
     <use xlink:href="#m884fd3eb50" x="187.452945" y="156.093034" style="fill: #ff8c00; stroke: #ff8c00"/>
     <use xlink:href="#m884fd3eb50" x="253.267738" y="196.331175" style="fill: #ff8c00; stroke: #ff8c00"/>
     <use xlink:href="#m884fd3eb50" x="230.089336" y="157.197388" style="fill: #ff8c00; stroke: #ff8c00"/>
     <use xlink:href="#m884fd3eb50" x="241.329209" y="145.542978" style="fill: #ff8c00; stroke: #ff8c00"/>
     <use xlink:href="#m884fd3eb50" x="247.580761" y="188.280761" style="fill: #ff8c00; stroke: #ff8c00"/>
     <use xlink:href="#m884fd3eb50" x="251.298297" y="131.39276" style="fill: #ff8c00; stroke: #ff8c00"/>
     <use xlink:href="#m884fd3eb50" x="231.23914" y="168.744214" style="fill: #ff8c00; stroke: #ff8c00"/>
     <use xlink:href="#m884fd3eb50" x="258.319641" y="156.102862" style="fill: #ff8c00; stroke: #ff8c00"/>
     <use xlink:href="#m884fd3eb50" x="232.244452" y="146.073858" style="fill: #ff8c00; stroke: #ff8c00"/>
     <use xlink:href="#m884fd3eb50" x="228.944013" y="171.637376" style="fill: #ff8c00; stroke: #ff8c00"/>
     <use xlink:href="#m884fd3eb50" x="225.739069" y="143.315394" style="fill: #ff8c00; stroke: #ff8c00"/>
     <use xlink:href="#m884fd3eb50" x="222.991753" y="200.857558" style="fill: #ff8c00; stroke: #ff8c00"/>
     <use xlink:href="#m884fd3eb50" x="231.36649" y="176.121198" style="fill: #ff8c00; stroke: #ff8c00"/>
     <use xlink:href="#m884fd3eb50" x="222.137028" y="176.964357" style="fill: #ff8c00; stroke: #ff8c00"/>
     <use xlink:href="#m884fd3eb50" x="235.869555" y="183.29519" style="fill: #ff8c00; stroke: #ff8c00"/>
     <use xlink:href="#m884fd3eb50" x="213.915849" y="181.640922" style="fill: #ff8c00; stroke: #ff8c00"/>
     <use xlink:href="#m884fd3eb50" x="254.472483" y="186.845203" style="fill: #ff8c00; stroke: #ff8c00"/>
     <use xlink:href="#m884fd3eb50" x="232.910635" y="154.842903" style="fill: #ff8c00; stroke: #ff8c00"/>
     <use xlink:href="#m884fd3eb50" x="236.873195" y="143.778933" style="fill: #ff8c00; stroke: #ff8c00"/>
     <use xlink:href="#m884fd3eb50" x="221.243492" y="150.550983" style="fill: #ff8c00; stroke: #ff8c00"/>
     <use xlink:href="#m884fd3eb50" x="207.791947" y="131.951931" style="fill: #ff8c00; stroke: #ff8c00"/>
     <use xlink:href="#m884fd3eb50" x="196.287128" y="143.260955" style="fill: #ff8c00; stroke: #ff8c00"/>
     <use xlink:href="#m884fd3eb50" x="223.906874" y="170.736409" style="fill: #ff8c00; stroke: #ff8c00"/>
     <use xlink:href="#m884fd3eb50" x="201.583844" y="180.570792" style="fill: #ff8c00; stroke: #ff8c00"/>
     <use xlink:href="#m884fd3eb50" x="206.130494" y="149.458441" style="fill: #ff8c00; stroke: #ff8c00"/>
     <use xlink:href="#m884fd3eb50" x="207.14124" y="189.239005" style="fill: #ff8c00; stroke: #ff8c00"/>
     <use xlink:href="#m884fd3eb50" x="281.04756" y="163.824153" style="fill: #ff8c00; stroke: #ff8c00"/>
     <use xlink:href="#m884fd3eb50" x="214.89803" y="164.52189" style="fill: #ff8c00; stroke: #ff8c00"/>
     <use xlink:href="#m884fd3eb50" x="242.464739" y="163.621292" style="fill: #ff8c00; stroke: #ff8c00"/>
     <use xlink:href="#m884fd3eb50" x="238.856576" y="152.833309" style="fill: #ff8c00; stroke: #ff8c00"/>
     <use xlink:href="#m884fd3eb50" x="231.419307" y="177.476634" style="fill: #ff8c00; stroke: #ff8c00"/>
    </g>
   </g>
   <g id="matplotlib.axis_1">
    <g id="xtick_1">
     <g id="line2d_1">
      <defs>
       <path id="m6f54e6cf72" d="M 0 0 
L 0 3.5 
" style="stroke: #000000; stroke-width: 0.8"/>
      </defs>
      <g>
       <use xlink:href="#m6f54e6cf72" x="67.677943" y="273.312" style="stroke: #000000; stroke-width: 0.8"/>
      </g>
     </g>
     <g id="text_1">
      <!-- −20 -->
      <g transform="translate(57.125599 287.910437) scale(0.1 -0.1)">
       <defs>
        <path id="DejaVuSans-2212" d="M 678 2272 
L 4684 2272 
L 4684 1741 
L 678 1741 
L 678 2272 
z
" transform="scale(0.015625)"/>
        <path id="DejaVuSans-32" d="M 1228 531 
L 3431 531 
L 3431 0 
L 469 0 
L 469 531 
Q 828 903 1448 1529 
Q 2069 2156 2228 2338 
Q 2531 2678 2651 2914 
Q 2772 3150 2772 3378 
Q 2772 3750 2511 3984 
Q 2250 4219 1831 4219 
Q 1534 4219 1204 4116 
Q 875 4013 500 3803 
L 500 4441 
Q 881 4594 1212 4672 
Q 1544 4750 1819 4750 
Q 2544 4750 2975 4387 
Q 3406 4025 3406 3419 
Q 3406 3131 3298 2873 
Q 3191 2616 2906 2266 
Q 2828 2175 2409 1742 
Q 1991 1309 1228 531 
z
" transform="scale(0.015625)"/>
        <path id="DejaVuSans-30" d="M 2034 4250 
Q 1547 4250 1301 3770 
Q 1056 3291 1056 2328 
Q 1056 1369 1301 889 
Q 1547 409 2034 409 
Q 2525 409 2770 889 
Q 3016 1369 3016 2328 
Q 3016 3291 2770 3770 
Q 2525 4250 2034 4250 
z
M 2034 4750 
Q 2819 4750 3233 4129 
Q 3647 3509 3647 2328 
Q 3647 1150 3233 529 
Q 2819 -91 2034 -91 
Q 1250 -91 836 529 
Q 422 1150 422 2328 
Q 422 3509 836 4129 
Q 1250 4750 2034 4750 
z
" transform="scale(0.015625)"/>
       </defs>
       <use xlink:href="#DejaVuSans-2212"/>
       <use xlink:href="#DejaVuSans-32" x="83.789062"/>
       <use xlink:href="#DejaVuSans-30" x="147.412109"/>
      </g>
     </g>
    </g>
    <g id="xtick_2">
     <g id="line2d_2">
      <g>
       <use xlink:href="#m6f54e6cf72" x="136.092222" y="273.312" style="stroke: #000000; stroke-width: 0.8"/>
      </g>
     </g>
     <g id="text_2">
      <!-- −10 -->
      <g transform="translate(125.539878 287.910437) scale(0.1 -0.1)">
       <defs>
        <path id="DejaVuSans-31" d="M 794 531 
L 1825 531 
L 1825 4091 
L 703 3866 
L 703 4441 
L 1819 4666 
L 2450 4666 
L 2450 531 
L 3481 531 
L 3481 0 
L 794 0 
L 794 531 
z
" transform="scale(0.015625)"/>
       </defs>
       <use xlink:href="#DejaVuSans-2212"/>
       <use xlink:href="#DejaVuSans-31" x="83.789062"/>
       <use xlink:href="#DejaVuSans-30" x="147.412109"/>
      </g>
     </g>
    </g>
    <g id="xtick_3">
     <g id="line2d_3">
      <g>
       <use xlink:href="#m6f54e6cf72" x="204.506501" y="273.312" style="stroke: #000000; stroke-width: 0.8"/>
      </g>
     </g>
     <g id="text_3">
      <!-- 0 -->
      <g transform="translate(201.325251 287.910437) scale(0.1 -0.1)">
       <use xlink:href="#DejaVuSans-30"/>
      </g>
     </g>
    </g>
    <g id="xtick_4">
     <g id="line2d_4">
      <g>
       <use xlink:href="#m6f54e6cf72" x="272.92078" y="273.312" style="stroke: #000000; stroke-width: 0.8"/>
      </g>
     </g>
     <g id="text_4">
      <!-- 10 -->
      <g transform="translate(266.55828 287.910437) scale(0.1 -0.1)">
       <use xlink:href="#DejaVuSans-31"/>
       <use xlink:href="#DejaVuSans-30" x="63.623047"/>
      </g>
     </g>
    </g>
    <g id="xtick_5">
     <g id="line2d_5">
      <g>
       <use xlink:href="#m6f54e6cf72" x="341.335059" y="273.312" style="stroke: #000000; stroke-width: 0.8"/>
      </g>
     </g>
     <g id="text_5">
      <!-- 20 -->
      <g transform="translate(334.972559 287.910437) scale(0.1 -0.1)">
       <use xlink:href="#DejaVuSans-32"/>
       <use xlink:href="#DejaVuSans-30" x="63.623047"/>
      </g>
     </g>
    </g>
   </g>
   <g id="matplotlib.axis_2">
    <g id="ytick_1">
     <g id="line2d_6">
      <defs>
       <path id="m5a47f755a3" d="M 0 0 
L -3.5 0 
" style="stroke: #000000; stroke-width: 0.8"/>
      </defs>
      <g>
       <use xlink:href="#m5a47f755a3" x="35.304688" y="219.939025" style="stroke: #000000; stroke-width: 0.8"/>
      </g>
     </g>
     <g id="text_6">
      <!-- −10 -->
      <g transform="translate(7.2 223.738244) scale(0.1 -0.1)">
       <use xlink:href="#DejaVuSans-2212"/>
       <use xlink:href="#DejaVuSans-31" x="83.789062"/>
       <use xlink:href="#DejaVuSans-30" x="147.412109"/>
      </g>
     </g>
    </g>
    <g id="ytick_2">
     <g id="line2d_7">
      <g>
       <use xlink:href="#m5a47f755a3" x="35.304688" y="164.30998" style="stroke: #000000; stroke-width: 0.8"/>
      </g>
     </g>
     <g id="text_7">
      <!-- 0 -->
      <g transform="translate(21.942187 168.109199) scale(0.1 -0.1)">
       <use xlink:href="#DejaVuSans-30"/>
      </g>
     </g>
    </g>
    <g id="ytick_3">
     <g id="line2d_8">
      <g>
       <use xlink:href="#m5a47f755a3" x="35.304688" y="108.680935" style="stroke: #000000; stroke-width: 0.8"/>
      </g>
     </g>
     <g id="text_8">
      <!-- 10 -->
      <g transform="translate(15.579687 112.480153) scale(0.1 -0.1)">
       <use xlink:href="#DejaVuSans-31"/>
       <use xlink:href="#DejaVuSans-30" x="63.623047"/>
      </g>
     </g>
    </g>
    <g id="ytick_4">
     <g id="line2d_9">
      <g>
       <use xlink:href="#m5a47f755a3" x="35.304688" y="53.051889" style="stroke: #000000; stroke-width: 0.8"/>
      </g>
     </g>
     <g id="text_9">
      <!-- 20 -->
      <g transform="translate(15.579687 56.851108) scale(0.1 -0.1)">
       <use xlink:href="#DejaVuSans-32"/>
       <use xlink:href="#DejaVuSans-30" x="63.623047"/>
      </g>
     </g>
    </g>
   </g>
   <g id="patch_3">
    <path d="M 35.304688 273.312 
L 35.304688 7.2 
" style="fill: none; stroke: #000000; stroke-width: 0.8; stroke-linejoin: miter; stroke-linecap: square"/>
   </g>
   <g id="patch_4">
    <path d="M 392.424688 273.312 
L 392.424688 7.2 
" style="fill: none; stroke: #000000; stroke-width: 0.8; stroke-linejoin: miter; stroke-linecap: square"/>
   </g>
   <g id="patch_5">
    <path d="M 35.304688 273.312 
L 392.424688 273.312 
" style="fill: none; stroke: #000000; stroke-width: 0.8; stroke-linejoin: miter; stroke-linecap: square"/>
   </g>
   <g id="patch_6">
    <path d="M 35.304688 7.2 
L 392.424688 7.2 
" style="fill: none; stroke: #000000; stroke-width: 0.8; stroke-linejoin: miter; stroke-linecap: square"/>
   </g>
  </g>
 </g>
 <defs>
  <clipPath id="pb10f3e6787">
   <rect x="35.304688" y="7.2" width="357.12" height="266.112"/>
  </clipPath>
 </defs>
</svg>
