<?xml version="1.0" encoding="utf-8" standalone="no"?>
<!DOCTYPE svg PUBLIC "-//W3C//DTD SVG 1.1//EN"
  "http://www.w3.org/Graphics/SVG/1.1/DTD/svg11.dtd">
<svg xmlns:xlink="http://www.w3.org/1999/xlink" width="404.962402pt" height="297.190125pt" viewBox="0 0 404.962402 297.190125" xmlns="http://www.w3.org/2000/svg" version="1.1">
 <metadata>
  <rdf:RDF xmlns:dc="http://purl.org/dc/elements/1.1/" xmlns:cc="http://creativecommons.org/ns#" xmlns:rdf="http://www.w3.org/1999/02/22-rdf-syntax-ns#">
   <cc:Work>
    <dc:type rdf:resource="http://purl.org/dc/dcmitype/StillImage"/>
    <dc:date>2023-11-11T03:42:41.562911</dc:date>
    <dc:format>image/svg+xml</dc:format>
    <dc:creator>
     <cc:Agent>
      <dc:title>Matplotlib v3.8.0, https://matplotlib.org/</dc:title>
     </cc:Agent>
    </dc:creator>
   </cc:Work>
  </rdf:RDF>
 </metadata>
 <defs>
  <style type="text/css">*{stroke-linejoin: round; stroke-linecap: butt}</style>
 </defs>
 <g id="figure_1">
  <g id="patch_1">
   <path d="M 0 297.190125 
L 404.962402 297.190125 
L 404.962402 0 
L 0 0 
z
" style="fill: #ffffff"/>
  </g>
  <g id="axes_1">
   <g id="patch_2">
    <path d="M 35.304688 273.312 
L 392.424688 273.312 
L 392.424688 7.2 
L 35.304688 7.2 
z
" style="fill: #ffffff"/>
   </g>
   <g id="PathCollection_1">
    <defs>
     <path id="m2220de1809" d="M 0 1.5 
C 0.397805 1.5 0.77937 1.341951 1.06066 1.06066 
C 1.341951 0.77937 1.5 0.397805 1.5 0 
C 1.5 -0.397805 1.341951 -0.77937 1.06066 -1.06066 
C 0.77937 -1.341951 0.397805 -1.5 0 -1.5 
C -0.397805 -1.5 -0.77937 -1.341951 -1.06066 -1.06066 
C -1.341951 -0.77937 -1.5 -0.397805 -1.5 0 
C -1.5 0.397805 -1.341951 0.77937 -1.06066 1.06066 
C -0.77937 1.341951 -0.397805 1.5 0 1.5 
z
" style="stroke: #ff8c00"/>
    </defs>
    <g clip-path="url(#pf77deddc71)">
     <use xlink:href="#m2220de1809" x="92.962237" y="191.931939" style="fill: #ff8c00; stroke: #ff8c00"/>
     <use xlink:href="#m2220de1809" x="143.001773" y="225.970899" style="fill: #ff8c00; stroke: #ff8c00"/>
     <use xlink:href="#m2220de1809" x="111.878063" y="214.845068" style="fill: #ff8c00; stroke: #ff8c00"/>
     <use xlink:href="#m2220de1809" x="194.447918" y="225.66088" style="fill: #ff8c00; stroke: #ff8c00"/>
     <use xlink:href="#m2220de1809" x="51.537415" y="199.693405" style="fill: #ff8c00; stroke: #ff8c00"/>
     <use xlink:href="#m2220de1809" x="130.054281" y="218.394517" style="fill: #ff8c00; stroke: #ff8c00"/>
     <use xlink:href="#m2220de1809" x="113.024314" y="166.364703" style="fill: #ff8c00; stroke: #ff8c00"/>
     <use xlink:href="#m2220de1809" x="159.756715" y="163.06739" style="fill: #ff8c00; stroke: #ff8c00"/>
     <use xlink:href="#m2220de1809" x="154.329805" y="233.062883" style="fill: #ff8c00; stroke: #ff8c00"/>
     <use xlink:href="#m2220de1809" x="145.457921" y="203.145808" style="fill: #ff8c00; stroke: #ff8c00"/>
     <use xlink:href="#m2220de1809" x="105.242212" y="170.511592" style="fill: #ff8c00; stroke: #ff8c00"/>
     <use xlink:href="#m2220de1809" x="63.237786" y="205.772207" style="fill: #ff8c00; stroke: #ff8c00"/>
    </g>
   </g>
   <g id="PathCollection_2">
    <defs>
     <path id="m7cae4868ee" d="M 0 1.5 
C 0.397805 1.5 0.77937 1.341951 1.06066 1.06066 
C 1.341951 0.77937 1.5 0.397805 1.5 0 
C 1.5 -0.397805 1.341951 -0.77937 1.06066 -1.06066 
C 0.77937 -1.341951 0.397805 -1.5 0 -1.5 
C -0.397805 -1.5 -0.77937 -1.341951 -1.06066 -1.06066 
C -1.341951 -0.77937 -1.5 -0.397805 -1.5 0 
C -1.5 0.397805 -1.341951 0.77937 -1.06066 1.06066 
C -0.77937 1.341951 -0.397805 1.5 0 1.5 
z
" style="stroke: #006400"/>
    </defs>
    <g clip-path="url(#pf77deddc71)">
     <use xlink:href="#m7cae4868ee" x="254.900806" y="169.928842" style="fill: #006400; stroke: #006400"/>
     <use xlink:href="#m7cae4868ee" x="145.195711" y="149.059181" style="fill: #006400; stroke: #006400"/>
     <use xlink:href="#m7cae4868ee" x="290.326383" y="178.345176" style="fill: #006400; stroke: #006400"/>
     <use xlink:href="#m7cae4868ee" x="322.672304" y="242.82845" style="fill: #006400; stroke: #006400"/>
     <use xlink:href="#m7cae4868ee" x="254.059683" y="261.216" style="fill: #006400; stroke: #006400"/>
     <use xlink:href="#m7cae4868ee" x="216.327872" y="171.317576" style="fill: #006400; stroke: #006400"/>
     <use xlink:href="#m7cae4868ee" x="241.191282" y="165.985977" style="fill: #006400; stroke: #006400"/>
     <use xlink:href="#m7cae4868ee" x="219.962077" y="130.550773" style="fill: #006400; stroke: #006400"/>
     <use xlink:href="#m7cae4868ee" x="271.3261" y="194.989898" style="fill: #006400; stroke: #006400"/>
     <use xlink:href="#m7cae4868ee" x="247.834251" y="172.242322" style="fill: #006400; stroke: #006400"/>
     <use xlink:href="#m7cae4868ee" x="212.498639" y="115.449474" style="fill: #006400; stroke: #006400"/>
     <use xlink:href="#m7cae4868ee" x="256.766049" y="203.195407" style="fill: #006400; stroke: #006400"/>
     <use xlink:href="#m7cae4868ee" x="219.813273" y="138.914475" style="fill: #006400; stroke: #006400"/>
     <use xlink:href="#m7cae4868ee" x="162.030163" y="173.2119" style="fill: #006400; stroke: #006400"/>
     <use xlink:href="#m7cae4868ee" x="202.227681" y="171.268906" style="fill: #006400; stroke: #006400"/>
     <use xlink:href="#m7cae4868ee" x="188.11399" y="202.95563" style="fill: #006400; stroke: #006400"/>
     <use xlink:href="#m7cae4868ee" x="349.021055" y="242.598166" style="fill: #006400; stroke: #006400"/>
     <use xlink:href="#m7cae4868ee" x="214.058347" y="139.067691" style="fill: #006400; stroke: #006400"/>
     <use xlink:href="#m7cae4868ee" x="227.83565" y="143.321043" style="fill: #006400; stroke: #006400"/>
    </g>
   </g>
   <g id="PathCollection_3">
    <defs>
     <path id="m5cd7d840dd" d="M 0 1.5 
C 0.397805 1.5 0.77937 1.341951 1.06066 1.06066 
C 1.341951 0.77937 1.5 0.397805 1.5 0 
C 1.5 -0.397805 1.341951 -0.77937 1.06066 -1.06066 
C 0.77937 -1.341951 0.397805 -1.5 0 -1.5 
C -0.397805 -1.5 -0.77937 -1.341951 -1.06066 -1.06066 
C -1.341951 -0.77937 -1.5 -0.397805 -1.5 0 
C -1.5 0.397805 -1.341951 0.77937 -1.06066 1.06066 
C -0.77937 1.341951 -0.397805 1.5 0 1.5 
z
" style="stroke: #2f4f4f"/>
    </defs>
    <g clip-path="url(#pf77deddc71)">
     <use xlink:href="#m5cd7d840dd" x="167.655406" y="111.734786" style="fill: #2f4f4f; stroke: #2f4f4f"/>
     <use xlink:href="#m5cd7d840dd" x="82.977997" y="159.910819" style="fill: #2f4f4f; stroke: #2f4f4f"/>
     <use xlink:href="#m5cd7d840dd" x="109.767764" y="114.337869" style="fill: #2f4f4f; stroke: #2f4f4f"/>
     <use xlink:href="#m5cd7d840dd" x="112.73661" y="156.979776" style="fill: #2f4f4f; stroke: #2f4f4f"/>
     <use xlink:href="#m5cd7d840dd" x="167.165246" y="140.269967" style="fill: #2f4f4f; stroke: #2f4f4f"/>
     <use xlink:href="#m5cd7d840dd" x="113.535117" y="149.1679" style="fill: #2f4f4f; stroke: #2f4f4f"/>
     <use xlink:href="#m5cd7d840dd" x="153.212251" y="184.393721" style="fill: #2f4f4f; stroke: #2f4f4f"/>
     <use xlink:href="#m5cd7d840dd" x="112.538955" y="166.697005" style="fill: #2f4f4f; stroke: #2f4f4f"/>
     <use xlink:href="#m5cd7d840dd" x="90.638192" y="169.634165" style="fill: #2f4f4f; stroke: #2f4f4f"/>
     <use xlink:href="#m5cd7d840dd" x="175.63844" y="133.149984" style="fill: #2f4f4f; stroke: #2f4f4f"/>
     <use xlink:href="#m5cd7d840dd" x="113.78159" y="141.825934" style="fill: #2f4f4f; stroke: #2f4f4f"/>
    </g>
   </g>
   <g id="PathCollection_4">
    <defs>
     <path id="m5afa358360" d="M 0 1.5 
C 0.397805 1.5 0.77937 1.341951 1.06066 1.06066 
C 1.341951 0.77937 1.5 0.397805 1.5 0 
C 1.5 -0.397805 1.341951 -0.77937 1.06066 -1.06066 
C 0.77937 -1.341951 0.397805 -1.5 0 -1.5 
C -0.397805 -1.5 -0.77937 -1.341951 -1.06066 -1.06066 
C -1.341951 -0.77937 -1.5 -0.397805 -1.5 0 
C -1.5 0.397805 -1.341951 0.77937 -1.06066 1.06066 
C -0.77937 1.341951 -0.397805 1.5 0 1.5 
z
" style="stroke: #00bfff"/>
    </defs>
    <g clip-path="url(#pf77deddc71)">
     <use xlink:href="#m5afa358360" x="109.350663" y="169.697595" style="fill: #00bfff; stroke: #00bfff"/>
     <use xlink:href="#m5afa358360" x="101.789619" y="116.376178" style="fill: #00bfff; stroke: #00bfff"/>
     <use xlink:href="#m5afa358360" x="140.808677" y="97.18717" style="fill: #00bfff; stroke: #00bfff"/>
     <use xlink:href="#m5afa358360" x="196.390297" y="115.830808" style="fill: #00bfff; stroke: #00bfff"/>
     <use xlink:href="#m5afa358360" x="165.194422" y="128.60414" style="fill: #00bfff; stroke: #00bfff"/>
     <use xlink:href="#m5afa358360" x="96.576395" y="132.375751" style="fill: #00bfff; stroke: #00bfff"/>
     <use xlink:href="#m5afa358360" x="133.541719" y="107.24646" style="fill: #00bfff; stroke: #00bfff"/>
     <use xlink:href="#m5afa358360" x="157.982224" y="129.186274" style="fill: #00bfff; stroke: #00bfff"/>
     <use xlink:href="#m5afa358360" x="113.835134" y="120.609734" style="fill: #00bfff; stroke: #00bfff"/>
     <use xlink:href="#m5afa358360" x="135.632097" y="112.739958" style="fill: #00bfff; stroke: #00bfff"/>
     <use xlink:href="#m5afa358360" x="177.134846" y="133.684176" style="fill: #00bfff; stroke: #00bfff"/>
     <use xlink:href="#m5afa358360" x="127.339748" y="111.032249" style="fill: #00bfff; stroke: #00bfff"/>
     <use xlink:href="#m5afa358360" x="110.125621" y="128.980273" style="fill: #00bfff; stroke: #00bfff"/>
     <use xlink:href="#m5afa358360" x="193.44127" y="133.952523" style="fill: #00bfff; stroke: #00bfff"/>
     <use xlink:href="#m5afa358360" x="148.154795" y="115.255929" style="fill: #00bfff; stroke: #00bfff"/>
     <use xlink:href="#m5afa358360" x="142.764565" y="92.49069" style="fill: #00bfff; stroke: #00bfff"/>
     <use xlink:href="#m5afa358360" x="163.977749" y="130.006503" style="fill: #00bfff; stroke: #00bfff"/>
     <use xlink:href="#m5afa358360" x="120.097316" y="132.60168" style="fill: #00bfff; stroke: #00bfff"/>
     <use xlink:href="#m5afa358360" x="132.587591" y="131.918713" style="fill: #00bfff; stroke: #00bfff"/>
    </g>
   </g>
   <g id="PathCollection_5">
    <defs>
     <path id="m31c10c3401" d="M 0 1.5 
C 0.397805 1.5 0.77937 1.341951 1.06066 1.06066 
C 1.341951 0.77937 1.5 0.397805 1.5 0 
C 1.5 -0.397805 1.341951 -0.77937 1.06066 -1.06066 
C 0.77937 -1.341951 0.397805 -1.5 0 -1.5 
C -0.397805 -1.5 -0.77937 -1.341951 -1.06066 -1.06066 
C -1.341951 -0.77937 -1.5 -0.397805 -1.5 0 
C -1.5 0.397805 -1.341951 0.77937 -1.06066 1.06066 
C -0.77937 1.341951 -0.397805 1.5 0 1.5 
z
" style="stroke: #ffff00"/>
    </defs>
    <g clip-path="url(#pf77deddc71)">
     <use xlink:href="#m31c10c3401" x="113.700896" y="147.312208" style="fill: #ffff00; stroke: #ffff00"/>
     <use xlink:href="#m31c10c3401" x="91.165836" y="129.3837" style="fill: #ffff00; stroke: #ffff00"/>
     <use xlink:href="#m31c10c3401" x="103.539237" y="142.442904" style="fill: #ffff00; stroke: #ffff00"/>
     <use xlink:href="#m31c10c3401" x="104.508407" y="177.014771" style="fill: #ffff00; stroke: #ffff00"/>
     <use xlink:href="#m31c10c3401" x="103.827588" y="132.465781" style="fill: #ffff00; stroke: #ffff00"/>
     <use xlink:href="#m31c10c3401" x="113.210585" y="142.536707" style="fill: #ffff00; stroke: #ffff00"/>
     <use xlink:href="#m31c10c3401" x="81.548732" y="183.366554" style="fill: #ffff00; stroke: #ffff00"/>
     <use xlink:href="#m31c10c3401" x="102.997439" y="199.958951" style="fill: #ffff00; stroke: #ffff00"/>
     <use xlink:href="#m31c10c3401" x="144.811442" y="116.181041" style="fill: #ffff00; stroke: #ffff00"/>
     <use xlink:href="#m31c10c3401" x="64.700805" y="185.362003" style="fill: #ffff00; stroke: #ffff00"/>
    </g>
   </g>
   <g id="PathCollection_6">
    <defs>
     <path id="m2b9e4a55ec" d="M 0 1.5 
C 0.397805 1.5 0.77937 1.341951 1.06066 1.06066 
C 1.341951 0.77937 1.5 0.397805 1.5 0 
C 1.5 -0.397805 1.341951 -0.77937 1.06066 -1.06066 
C 0.77937 -1.341951 0.397805 -1.5 0 -1.5 
C -0.397805 -1.5 -0.77937 -1.341951 -1.06066 -1.06066 
C -1.341951 -0.77937 -1.5 -0.397805 -1.5 0 
C -1.5 0.397805 -1.341951 0.77937 -1.06066 1.06066 
C -0.77937 1.341951 -0.397805 1.5 0 1.5 
z
" style="stroke: #00ffff"/>
    </defs>
    <g clip-path="url(#pf77deddc71)">
     <use xlink:href="#m2b9e4a55ec" x="133.747933" y="139.996605" style="fill: #00ffff; stroke: #00ffff"/>
     <use xlink:href="#m2b9e4a55ec" x="92.206346" y="141.383723" style="fill: #00ffff; stroke: #00ffff"/>
     <use xlink:href="#m2b9e4a55ec" x="218.702309" y="118.760526" style="fill: #00ffff; stroke: #00ffff"/>
     <use xlink:href="#m2b9e4a55ec" x="145.257146" y="86.555648" style="fill: #00ffff; stroke: #00ffff"/>
     <use xlink:href="#m2b9e4a55ec" x="182.654408" y="123.674713" style="fill: #00ffff; stroke: #00ffff"/>
     <use xlink:href="#m2b9e4a55ec" x="179.976069" y="145.934353" style="fill: #00ffff; stroke: #00ffff"/>
     <use xlink:href="#m2b9e4a55ec" x="128.143387" y="75.427096" style="fill: #00ffff; stroke: #00ffff"/>
     <use xlink:href="#m2b9e4a55ec" x="147.012273" y="64.111303" style="fill: #00ffff; stroke: #00ffff"/>
     <use xlink:href="#m2b9e4a55ec" x="130.54338" y="101.390384" style="fill: #00ffff; stroke: #00ffff"/>
     <use xlink:href="#m2b9e4a55ec" x="161.854514" y="85.473455" style="fill: #00ffff; stroke: #00ffff"/>
     <use xlink:href="#m2b9e4a55ec" x="171.949319" y="19.296" style="fill: #00ffff; stroke: #00ffff"/>
     <use xlink:href="#m2b9e4a55ec" x="117.673013" y="106.641661" style="fill: #00ffff; stroke: #00ffff"/>
     <use xlink:href="#m2b9e4a55ec" x="151.093174" y="164.249194" style="fill: #00ffff; stroke: #00ffff"/>
     <use xlink:href="#m2b9e4a55ec" x="150.899646" y="84.584075" style="fill: #00ffff; stroke: #00ffff"/>
     <use xlink:href="#m2b9e4a55ec" x="146.578908" y="49.833841" style="fill: #00ffff; stroke: #00ffff"/>
    </g>
   </g>
   <g id="PathCollection_7">
    <defs>
     <path id="md0b8465194" d="M 0 1.5 
C 0.397805 1.5 0.77937 1.341951 1.06066 1.06066 
C 1.341951 0.77937 1.5 0.397805 1.5 0 
C 1.5 -0.397805 1.341951 -0.77937 1.06066 -1.06066 
C 0.77937 -1.341951 0.397805 -1.5 0 -1.5 
C -0.397805 -1.5 -0.77937 -1.341951 -1.06066 -1.06066 
C -1.341951 -0.77937 -1.5 -0.397805 -1.5 0 
C -1.5 0.397805 -1.341951 0.77937 -1.06066 1.06066 
C -0.77937 1.341951 -0.397805 1.5 0 1.5 
z
" style="stroke: #0000ff"/>
    </defs>
    <g clip-path="url(#pf77deddc71)">
     <use xlink:href="#md0b8465194" x="118.991875" y="125.068924" style="fill: #0000ff; stroke: #0000ff"/>
     <use xlink:href="#md0b8465194" x="111.396226" y="161.409965" style="fill: #0000ff; stroke: #0000ff"/>
     <use xlink:href="#md0b8465194" x="100.125033" y="172.004514" style="fill: #0000ff; stroke: #0000ff"/>
     <use xlink:href="#md0b8465194" x="117.700821" y="141.029007" style="fill: #0000ff; stroke: #0000ff"/>
     <use xlink:href="#md0b8465194" x="124.220569" y="158.278818" style="fill: #0000ff; stroke: #0000ff"/>
     <use xlink:href="#md0b8465194" x="131.076035" y="111.376764" style="fill: #0000ff; stroke: #0000ff"/>
     <use xlink:href="#md0b8465194" x="112.528824" y="152.631723" style="fill: #0000ff; stroke: #0000ff"/>
     <use xlink:href="#md0b8465194" x="95.772236" y="179.777677" style="fill: #0000ff; stroke: #0000ff"/>
     <use xlink:href="#md0b8465194" x="131.523629" y="151.713377" style="fill: #0000ff; stroke: #0000ff"/>
     <use xlink:href="#md0b8465194" x="182.372847" y="107.326658" style="fill: #0000ff; stroke: #0000ff"/>
     <use xlink:href="#md0b8465194" x="103.317021" y="154.626927" style="fill: #0000ff; stroke: #0000ff"/>
     <use xlink:href="#md0b8465194" x="182.372847" y="107.326658" style="fill: #0000ff; stroke: #0000ff"/>
     <use xlink:href="#md0b8465194" x="119.132571" y="174.983499" style="fill: #0000ff; stroke: #0000ff"/>
     <use xlink:href="#md0b8465194" x="146.494653" y="119.42811" style="fill: #0000ff; stroke: #0000ff"/>
    </g>
   </g>
   <g id="PathCollection_8">
    <defs>
     <path id="mf3241a3832" d="M 0 1.5 
C 0.397805 1.5 0.77937 1.341951 1.06066 1.06066 
C 1.341951 0.77937 1.5 0.397805 1.5 0 
C 1.5 -0.397805 1.341951 -0.77937 1.06066 -1.06066 
C 0.77937 -1.341951 0.397805 -1.5 0 -1.5 
C -0.397805 -1.5 -0.77937 -1.341951 -1.06066 -1.06066 
C -1.341951 -0.77937 -1.5 -0.397805 -1.5 0 
C -1.5 0.397805 -1.341951 0.77937 -1.06066 1.06066 
C -0.77937 1.341951 -0.397805 1.5 0 1.5 
z
" style="stroke: #dc143c"/>
    </defs>
    <g clip-path="url(#pf77deddc71)">
     <use xlink:href="#mf3241a3832" x="164.701106" y="145.234067" style="fill: #dc143c; stroke: #dc143c"/>
     <use xlink:href="#mf3241a3832" x="198.031664" y="150.578821" style="fill: #dc143c; stroke: #dc143c"/>
     <use xlink:href="#mf3241a3832" x="156.886163" y="124.393802" style="fill: #dc143c; stroke: #dc143c"/>
     <use xlink:href="#mf3241a3832" x="248.872214" y="169.263109" style="fill: #dc143c; stroke: #dc143c"/>
     <use xlink:href="#mf3241a3832" x="112.589199" y="130.893986" style="fill: #dc143c; stroke: #dc143c"/>
     <use xlink:href="#mf3241a3832" x="195.439777" y="179.598878" style="fill: #dc143c; stroke: #dc143c"/>
     <use xlink:href="#mf3241a3832" x="161.049605" y="137.082554" style="fill: #dc143c; stroke: #dc143c"/>
     <use xlink:href="#mf3241a3832" x="184.624258" y="178.344566" style="fill: #dc143c; stroke: #dc143c"/>
     <use xlink:href="#mf3241a3832" x="134.173489" y="131.494621" style="fill: #dc143c; stroke: #dc143c"/>
     <use xlink:href="#mf3241a3832" x="226.618745" y="187.967614" style="fill: #dc143c; stroke: #dc143c"/>
     <use xlink:href="#mf3241a3832" x="197.470952" y="134.487057" style="fill: #dc143c; stroke: #dc143c"/>
     <use xlink:href="#mf3241a3832" x="158.096827" y="129.604558" style="fill: #dc143c; stroke: #dc143c"/>
     <use xlink:href="#mf3241a3832" x="247.139305" y="146.491279" style="fill: #dc143c; stroke: #dc143c"/>
     <use xlink:href="#mf3241a3832" x="233.629017" y="169.834508" style="fill: #dc143c; stroke: #dc143c"/>
    </g>
   </g>
   <g id="PathCollection_9">
    <defs>
     <path id="md82764b811" d="M 0 1.5 
C 0.397805 1.5 0.77937 1.341951 1.06066 1.06066 
C 1.341951 0.77937 1.5 0.397805 1.5 0 
C 1.5 -0.397805 1.341951 -0.77937 1.06066 -1.06066 
C 0.77937 -1.341951 0.397805 -1.5 0 -1.5 
C -0.397805 -1.5 -0.77937 -1.341951 -1.06066 -1.06066 
C -1.341951 -0.77937 -1.5 -0.397805 -1.5 0 
C -1.5 0.397805 -1.341951 0.77937 -1.06066 1.06066 
C -0.77937 1.341951 -0.397805 1.5 0 1.5 
z
" style="stroke: #ffe4c4"/>
    </defs>
    <g clip-path="url(#pf77deddc71)">
     <use xlink:href="#md82764b811" x="295.533939" y="247.087949" style="fill: #ffe4c4; stroke: #ffe4c4"/>
     <use xlink:href="#md82764b811" x="204.493247" y="108.540091" style="fill: #ffe4c4; stroke: #ffe4c4"/>
     <use xlink:href="#md82764b811" x="261.082066" y="171.928592" style="fill: #ffe4c4; stroke: #ffe4c4"/>
     <use xlink:href="#md82764b811" x="204.827555" y="131.152067" style="fill: #ffe4c4; stroke: #ffe4c4"/>
     <use xlink:href="#md82764b811" x="194.75727" y="225.856542" style="fill: #ffe4c4; stroke: #ffe4c4"/>
     <use xlink:href="#md82764b811" x="221.364518" y="155.617971" style="fill: #ffe4c4; stroke: #ffe4c4"/>
     <use xlink:href="#md82764b811" x="376.19196" y="223.485407" style="fill: #ffe4c4; stroke: #ffe4c4"/>
     <use xlink:href="#md82764b811" x="175.112433" y="165.768665" style="fill: #ffe4c4; stroke: #ffe4c4"/>
     <use xlink:href="#md82764b811" x="148.812964" y="134.387324" style="fill: #ffe4c4; stroke: #ffe4c4"/>
     <use xlink:href="#md82764b811" x="177.417641" y="144.855759" style="fill: #ffe4c4; stroke: #ffe4c4"/>
     <use xlink:href="#md82764b811" x="244.365679" y="139.818719" style="fill: #ffe4c4; stroke: #ffe4c4"/>
     <use xlink:href="#md82764b811" x="311.486675" y="229.605929" style="fill: #ffe4c4; stroke: #ffe4c4"/>
     <use xlink:href="#md82764b811" x="210.530657" y="207.434025" style="fill: #ffe4c4; stroke: #ffe4c4"/>
     <use xlink:href="#md82764b811" x="152.591019" y="206.601582" style="fill: #ffe4c4; stroke: #ffe4c4"/>
    </g>
   </g>
   <g id="PathCollection_10">
    <defs>
     <path id="m6407da2b71" d="M -2.99994 2.99994 
L 3.00006 2.99994 
L 3.00006 -3.00006 
L -2.99994 -3.00006 
z
" style="stroke: #000000"/>
    </defs>
    <g clip-path="url(#pf77deddc71)">
     <use xlink:href="#m6407da2b71" x="98.013364" y="175.431452" style="stroke: #000000"/>
     <use xlink:href="#m6407da2b71" x="77.795138" y="185.779021" style="stroke: #000000"/>
     <use xlink:href="#m6407da2b71" x="121.414923" y="166.044827" style="stroke: #000000"/>
     <use xlink:href="#m6407da2b71" x="146.074566" y="191.093972" style="stroke: #000000"/>
     <use xlink:href="#m6407da2b71" x="107.804615" y="172.25138" style="stroke: #000000"/>
     <use xlink:href="#m6407da2b71" x="103.172792" y="183.756563" style="stroke: #000000"/>
     <use xlink:href="#m6407da2b71" x="72.223401" y="165.132228" style="stroke: #000000"/>
     <use xlink:href="#m6407da2b71" x="65.670574" y="188.869553" style="stroke: #000000"/>
     <use xlink:href="#m6407da2b71" x="89.462478" y="171.885189" style="stroke: #000000"/>
     <use xlink:href="#m6407da2b71" x="121.551777" y="173.55267" style="stroke: #000000"/>
     <use xlink:href="#m6407da2b71" x="156.594531" y="167.082333" style="stroke: #000000"/>
     <use xlink:href="#m6407da2b71" x="87.503289" y="177.208773" style="stroke: #000000"/>
     <use xlink:href="#m6407da2b71" x="74.101249" y="187.838355" style="stroke: #000000"/>
     <use xlink:href="#m6407da2b71" x="189.733366" y="116.623917" style="stroke: #000000"/>
     <use xlink:href="#m6407da2b71" x="104.813328" y="137.25225" style="stroke: #000000"/>
     <use xlink:href="#m6407da2b71" x="157.952193" y="109.467078" style="stroke: #000000"/>
     <use xlink:href="#m6407da2b71" x="94.806854" y="204.042135" style="stroke: #000000"/>
     <use xlink:href="#m6407da2b71" x="174.356059" y="171.927346" style="stroke: #000000"/>
     <use xlink:href="#m6407da2b71" x="129.140674" y="178.83502" style="stroke: #000000"/>
     <use xlink:href="#m6407da2b71" x="72.105572" y="194.2987" style="stroke: #000000"/>
     <use xlink:href="#m6407da2b71" x="55.011375" y="194.520712" style="stroke: #000000"/>
     <use xlink:href="#m6407da2b71" x="100.264117" y="145.93656" style="stroke: #000000"/>
     <use xlink:href="#m6407da2b71" x="82.684361" y="142.066495" style="stroke: #000000"/>
     <use xlink:href="#m6407da2b71" x="76.462661" y="181.597049" style="stroke: #000000"/>
     <use xlink:href="#m6407da2b71" x="91.286921" y="192.883776" style="stroke: #000000"/>
     <use xlink:href="#m6407da2b71" x="157.553536" y="133.618791" style="stroke: #000000"/>
     <use xlink:href="#m6407da2b71" x="94.772905" y="166.632509" style="stroke: #000000"/>
     <use xlink:href="#m6407da2b71" x="143.940706" y="111.802705" style="stroke: #000000"/>
     <use xlink:href="#m6407da2b71" x="136.458623" y="194.08666" style="stroke: #000000"/>
     <use xlink:href="#m6407da2b71" x="151.307339" y="148.245417" style="stroke: #000000"/>
     <use xlink:href="#m6407da2b71" x="165.823263" y="146.319697" style="stroke: #000000"/>
     <use xlink:href="#m6407da2b71" x="146.684653" y="196.100718" style="stroke: #000000"/>
     <use xlink:href="#m6407da2b71" x="117.096826" y="159.410566" style="stroke: #000000"/>
     <use xlink:href="#m6407da2b71" x="134.568529" y="173.321461" style="stroke: #000000"/>
     <use xlink:href="#m6407da2b71" x="86.254215" y="179.535584" style="stroke: #000000"/>
     <use xlink:href="#m6407da2b71" x="64.488764" y="204.627591" style="stroke: #000000"/>
     <use xlink:href="#m6407da2b71" x="58.229521" y="175.005045" style="stroke: #000000"/>
     <use xlink:href="#m6407da2b71" x="140.150873" y="101.841426" style="stroke: #000000"/>
     <use xlink:href="#m6407da2b71" x="86.994263" y="193.672138" style="stroke: #000000"/>
     <use xlink:href="#m6407da2b71" x="83.752458" y="179.700637" style="stroke: #000000"/>
     <use xlink:href="#m6407da2b71" x="151.529056" y="186.084241" style="stroke: #000000"/>
     <use xlink:href="#m6407da2b71" x="138.870249" y="168.234031" style="stroke: #000000"/>
     <use xlink:href="#m6407da2b71" x="58.646985" y="186.453563" style="stroke: #000000"/>
     <use xlink:href="#m6407da2b71" x="141.513661" y="180.711369" style="stroke: #000000"/>
     <use xlink:href="#m6407da2b71" x="87.456434" y="174.045274" style="stroke: #000000"/>
     <use xlink:href="#m6407da2b71" x="127.897919" y="182.769314" style="stroke: #000000"/>
     <use xlink:href="#m6407da2b71" x="166.362189" y="174.113337" style="stroke: #000000"/>
     <use xlink:href="#m6407da2b71" x="71.593049" y="186.936684" style="stroke: #000000"/>
     <use xlink:href="#m6407da2b71" x="179.601572" y="184.768681" style="stroke: #000000"/>
     <use xlink:href="#m6407da2b71" x="104.396582" y="187.861664" style="stroke: #000000"/>
     <use xlink:href="#m6407da2b71" x="97.894538" y="157.851964" style="stroke: #000000"/>
     <use xlink:href="#m6407da2b71" x="68.780863" y="184.497078" style="stroke: #000000"/>
     <use xlink:href="#m6407da2b71" x="93.303961" y="175.414867" style="stroke: #000000"/>
     <use xlink:href="#m6407da2b71" x="102.499761" y="153.862694" style="stroke: #000000"/>
     <use xlink:href="#m6407da2b71" x="213.446485" y="183.76764" style="stroke: #000000"/>
     <use xlink:href="#m6407da2b71" x="174.192968" y="155.275265" style="stroke: #000000"/>
     <use xlink:href="#m6407da2b71" x="91.2582" y="155.485333" style="stroke: #000000"/>
     <use xlink:href="#m6407da2b71" x="111.414828" y="151.621374" style="stroke: #000000"/>
     <use xlink:href="#m6407da2b71" x="83.616599" y="215.490272" style="stroke: #000000"/>
     <use xlink:href="#m6407da2b71" x="134.86032" y="159.928447" style="stroke: #000000"/>
     <use xlink:href="#m6407da2b71" x="104.376436" y="164.566278" style="stroke: #000000"/>
     <use xlink:href="#m6407da2b71" x="80.246224" y="194.361609" style="stroke: #000000"/>
     <use xlink:href="#m6407da2b71" x="86.485337" y="173.515141" style="stroke: #000000"/>
     <use xlink:href="#m6407da2b71" x="122.148434" y="155.097144" style="stroke: #000000"/>
    </g>
   </g>
   <g id="PathCollection_11">
    <defs>
     <path id="m4867832d96" d="M -3 -0 
L 3 3 
L 3 -3 
z
" style="stroke: #ff8c00"/>
    </defs>
    <g clip-path="url(#pf77deddc71)">
     <use xlink:href="#m4867832d96" x="150.730857" y="217.493328" style="fill: #ff8c00; stroke: #ff8c00"/>
     <use xlink:href="#m4867832d96" x="107.16083" y="191.389689" style="fill: #ff8c00; stroke: #ff8c00"/>
     <use xlink:href="#m4867832d96" x="142.645066" y="132.450322" style="fill: #ff8c00; stroke: #ff8c00"/>
     <use xlink:href="#m4867832d96" x="131.474827" y="174.791465" style="fill: #ff8c00; stroke: #ff8c00"/>
     <use xlink:href="#m4867832d96" x="79.854443" y="168.190059" style="fill: #ff8c00; stroke: #ff8c00"/>
     <use xlink:href="#m4867832d96" x="82.949169" y="149.188061" style="fill: #ff8c00; stroke: #ff8c00"/>
     <use xlink:href="#m4867832d96" x="134.469569" y="116.95152" style="fill: #ff8c00; stroke: #ff8c00"/>
     <use xlink:href="#m4867832d96" x="149.346391" y="107.423434" style="fill: #ff8c00; stroke: #ff8c00"/>
     <use xlink:href="#m4867832d96" x="88.628752" y="167.354576" style="fill: #ff8c00; stroke: #ff8c00"/>
     <use xlink:href="#m4867832d96" x="195.593479" y="200.459282" style="fill: #ff8c00; stroke: #ff8c00"/>
     <use xlink:href="#m4867832d96" x="184.682386" y="117.319656" style="fill: #ff8c00; stroke: #ff8c00"/>
     <use xlink:href="#m4867832d96" x="87.490987" y="202.086542" style="fill: #ff8c00; stroke: #ff8c00"/>
     <use xlink:href="#m4867832d96" x="99.539852" y="181.422113" style="fill: #ff8c00; stroke: #ff8c00"/>
     <use xlink:href="#m4867832d96" x="124.604727" y="138.800668" style="fill: #ff8c00; stroke: #ff8c00"/>
     <use xlink:href="#m4867832d96" x="102.792399" y="172.058976" style="fill: #ff8c00; stroke: #ff8c00"/>
     <use xlink:href="#m4867832d96" x="65.882447" y="183.823212" style="fill: #ff8c00; stroke: #ff8c00"/>
     <use xlink:href="#m4867832d96" x="88.4761" y="153.907995" style="fill: #ff8c00; stroke: #ff8c00"/>
     <use xlink:href="#m4867832d96" x="180.16772" y="188.778505" style="fill: #ff8c00; stroke: #ff8c00"/>
     <use xlink:href="#m4867832d96" x="119.272424" y="166.998329" style="fill: #ff8c00; stroke: #ff8c00"/>
     <use xlink:href="#m4867832d96" x="114.097678" y="140.15321" style="fill: #ff8c00; stroke: #ff8c00"/>
     <use xlink:href="#m4867832d96" x="67.323097" y="169.211904" style="fill: #ff8c00; stroke: #ff8c00"/>
     <use xlink:href="#m4867832d96" x="173.126656" y="111.470559" style="fill: #ff8c00; stroke: #ff8c00"/>
     <use xlink:href="#m4867832d96" x="164.23119" y="92.851281" style="fill: #ff8c00; stroke: #ff8c00"/>
     <use xlink:href="#m4867832d96" x="126.726663" y="155.342634" style="fill: #ff8c00; stroke: #ff8c00"/>
     <use xlink:href="#m4867832d96" x="116.730919" y="128.272208" style="fill: #ff8c00; stroke: #ff8c00"/>
     <use xlink:href="#m4867832d96" x="155.673619" y="113.352906" style="fill: #ff8c00; stroke: #ff8c00"/>
     <use xlink:href="#m4867832d96" x="115.064966" y="171.694127" style="fill: #ff8c00; stroke: #ff8c00"/>
     <use xlink:href="#m4867832d96" x="115.570874" y="205.120922" style="fill: #ff8c00; stroke: #ff8c00"/>
     <use xlink:href="#m4867832d96" x="81.471456" y="164.620405" style="fill: #ff8c00; stroke: #ff8c00"/>
     <use xlink:href="#m4867832d96" x="128.749843" y="121.57216" style="fill: #ff8c00; stroke: #ff8c00"/>
     <use xlink:href="#m4867832d96" x="87.103896" y="173.069102" style="fill: #ff8c00; stroke: #ff8c00"/>
     <use xlink:href="#m4867832d96" x="111.004358" y="163.450093" style="fill: #ff8c00; stroke: #ff8c00"/>
     <use xlink:href="#m4867832d96" x="95.928528" y="169.829553" style="fill: #ff8c00; stroke: #ff8c00"/>
     <use xlink:href="#m4867832d96" x="103.755765" y="184.97245" style="fill: #ff8c00; stroke: #ff8c00"/>
     <use xlink:href="#m4867832d96" x="85.926003" y="168.880185" style="fill: #ff8c00; stroke: #ff8c00"/>
     <use xlink:href="#m4867832d96" x="175.278106" y="148.168409" style="fill: #ff8c00; stroke: #ff8c00"/>
     <use xlink:href="#m4867832d96" x="203.397619" y="92.63498" style="fill: #ff8c00; stroke: #ff8c00"/>
     <use xlink:href="#m4867832d96" x="102.206955" y="161.875902" style="fill: #ff8c00; stroke: #ff8c00"/>
     <use xlink:href="#m4867832d96" x="178.878597" y="117.32986" style="fill: #ff8c00; stroke: #ff8c00"/>
     <use xlink:href="#m4867832d96" x="108.897144" y="190.53504" style="fill: #ff8c00; stroke: #ff8c00"/>
     <use xlink:href="#m4867832d96" x="128.061415" y="201.53732" style="fill: #ff8c00; stroke: #ff8c00"/>
     <use xlink:href="#m4867832d96" x="132.347042" y="151.120123" style="fill: #ff8c00; stroke: #ff8c00"/>
     <use xlink:href="#m4867832d96" x="215.038861" y="111.953421" style="fill: #ff8c00; stroke: #ff8c00"/>
     <use xlink:href="#m4867832d96" x="76.739823" y="196.287172" style="fill: #ff8c00; stroke: #ff8c00"/>
     <use xlink:href="#m4867832d96" x="106.222814" y="175.389225" style="fill: #ff8c00; stroke: #ff8c00"/>
     <use xlink:href="#m4867832d96" x="120.47888" y="167.441977" style="fill: #ff8c00; stroke: #ff8c00"/>
     <use xlink:href="#m4867832d96" x="93.444043" y="204.454644" style="fill: #ff8c00; stroke: #ff8c00"/>
     <use xlink:href="#m4867832d96" x="100.322177" y="180.837625" style="fill: #ff8c00; stroke: #ff8c00"/>
     <use xlink:href="#m4867832d96" x="141.083531" y="200.962373" style="fill: #ff8c00; stroke: #ff8c00"/>
     <use xlink:href="#m4867832d96" x="85.41415" y="183.306014" style="fill: #ff8c00; stroke: #ff8c00"/>
     <use xlink:href="#m4867832d96" x="119.731013" y="162.218678" style="fill: #ff8c00; stroke: #ff8c00"/>
     <use xlink:href="#m4867832d96" x="93.297938" y="175.781371" style="fill: #ff8c00; stroke: #ff8c00"/>
     <use xlink:href="#m4867832d96" x="97.617201" y="166.778117" style="fill: #ff8c00; stroke: #ff8c00"/>
     <use xlink:href="#m4867832d96" x="183.00604" y="156.457256" style="fill: #ff8c00; stroke: #ff8c00"/>
     <use xlink:href="#m4867832d96" x="107.461649" y="135.194243" style="fill: #ff8c00; stroke: #ff8c00"/>
     <use xlink:href="#m4867832d96" x="146.953161" y="157.306841" style="fill: #ff8c00; stroke: #ff8c00"/>
     <use xlink:href="#m4867832d96" x="107.992263" y="156.332761" style="fill: #ff8c00; stroke: #ff8c00"/>
     <use xlink:href="#m4867832d96" x="108.948334" y="145.518165" style="fill: #ff8c00; stroke: #ff8c00"/>
     <use xlink:href="#m4867832d96" x="125.483408" y="140.89383" style="fill: #ff8c00; stroke: #ff8c00"/>
     <use xlink:href="#m4867832d96" x="89.752018" y="197.155652" style="fill: #ff8c00; stroke: #ff8c00"/>
     <use xlink:href="#m4867832d96" x="125.172539" y="180.738852" style="fill: #ff8c00; stroke: #ff8c00"/>
     <use xlink:href="#m4867832d96" x="100.276831" y="146.955838" style="fill: #ff8c00; stroke: #ff8c00"/>
     <use xlink:href="#m4867832d96" x="106.900607" y="171.335995" style="fill: #ff8c00; stroke: #ff8c00"/>
     <use xlink:href="#m4867832d96" x="173.151047" y="172.996328" style="fill: #ff8c00; stroke: #ff8c00"/>
    </g>
   </g>
   <g id="matplotlib.axis_1">
    <g id="xtick_1">
     <g id="line2d_1">
      <defs>
       <path id="ma6879dc049" d="M 0 0 
L 0 3.5 
" style="stroke: #000000; stroke-width: 0.8"/>
      </defs>
      <g>
       <use xlink:href="#ma6879dc049" x="56.548761" y="273.312" style="stroke: #000000; stroke-width: 0.8"/>
      </g>
     </g>
     <g id="text_1">
      <!-- −10 -->
      <g transform="translate(45.996417 287.910437) scale(0.1 -0.1)">
       <defs>
        <path id="DejaVuSans-2212" d="M 678 2272 
L 4684 2272 
L 4684 1741 
L 678 1741 
L 678 2272 
z
" transform="scale(0.015625)"/>
        <path id="DejaVuSans-31" d="M 794 531 
L 1825 531 
L 1825 4091 
L 703 3866 
L 703 4441 
L 1819 4666 
L 2450 4666 
L 2450 531 
L 3481 531 
L 3481 0 
L 794 0 
L 794 531 
z
" transform="scale(0.015625)"/>
        <path id="DejaVuSans-30" d="M 2034 4250 
Q 1547 4250 1301 3770 
Q 1056 3291 1056 2328 
Q 1056 1369 1301 889 
Q 1547 409 2034 409 
Q 2525 409 2770 889 
Q 3016 1369 3016 2328 
Q 3016 3291 2770 3770 
Q 2525 4250 2034 4250 
z
M 2034 4750 
Q 2819 4750 3233 4129 
Q 3647 3509 3647 2328 
Q 3647 1150 3233 529 
Q 2819 -91 2034 -91 
Q 1250 -91 836 529 
Q 422 1150 422 2328 
Q 422 3509 836 4129 
Q 1250 4750 2034 4750 
z
" transform="scale(0.015625)"/>
       </defs>
       <use xlink:href="#DejaVuSans-2212"/>
       <use xlink:href="#DejaVuSans-31" x="83.789062"/>
       <use xlink:href="#DejaVuSans-30" x="147.412109"/>
      </g>
     </g>
    </g>
    <g id="xtick_2">
     <g id="line2d_2">
      <g>
       <use xlink:href="#ma6879dc049" x="98.405153" y="273.312" style="stroke: #000000; stroke-width: 0.8"/>
      </g>
     </g>
     <g id="text_2">
      <!-- −5 -->
      <g transform="translate(91.03406 287.910437) scale(0.1 -0.1)">
       <defs>
        <path id="DejaVuSans-35" d="M 691 4666 
L 3169 4666 
L 3169 4134 
L 1269 4134 
L 1269 2991 
Q 1406 3038 1543 3061 
Q 1681 3084 1819 3084 
Q 2600 3084 3056 2656 
Q 3513 2228 3513 1497 
Q 3513 744 3044 326 
Q 2575 -91 1722 -91 
Q 1428 -91 1123 -41 
Q 819 9 494 109 
L 494 744 
Q 775 591 1075 516 
Q 1375 441 1709 441 
Q 2250 441 2565 725 
Q 2881 1009 2881 1497 
Q 2881 1984 2565 2268 
Q 2250 2553 1709 2553 
Q 1456 2553 1204 2497 
Q 953 2441 691 2322 
L 691 4666 
z
" transform="scale(0.015625)"/>
       </defs>
       <use xlink:href="#DejaVuSans-2212"/>
       <use xlink:href="#DejaVuSans-35" x="83.789062"/>
      </g>
     </g>
    </g>
    <g id="xtick_3">
     <g id="line2d_3">
      <g>
       <use xlink:href="#ma6879dc049" x="140.261546" y="273.312" style="stroke: #000000; stroke-width: 0.8"/>
      </g>
     </g>
     <g id="text_3">
      <!-- 0 -->
      <g transform="translate(137.080296 287.910437) scale(0.1 -0.1)">
       <use xlink:href="#DejaVuSans-30"/>
      </g>
     </g>
    </g>
    <g id="xtick_4">
     <g id="line2d_4">
      <g>
       <use xlink:href="#ma6879dc049" x="182.117939" y="273.312" style="stroke: #000000; stroke-width: 0.8"/>
      </g>
     </g>
     <g id="text_4">
      <!-- 5 -->
      <g transform="translate(178.936689 287.910437) scale(0.1 -0.1)">
       <use xlink:href="#DejaVuSans-35"/>
      </g>
     </g>
    </g>
    <g id="xtick_5">
     <g id="line2d_5">
      <g>
       <use xlink:href="#ma6879dc049" x="223.974331" y="273.312" style="stroke: #000000; stroke-width: 0.8"/>
      </g>
     </g>
     <g id="text_5">
      <!-- 10 -->
      <g transform="translate(217.611831 287.910437) scale(0.1 -0.1)">
       <use xlink:href="#DejaVuSans-31"/>
       <use xlink:href="#DejaVuSans-30" x="63.623047"/>
      </g>
     </g>
    </g>
    <g id="xtick_6">
     <g id="line2d_6">
      <g>
       <use xlink:href="#ma6879dc049" x="265.830724" y="273.312" style="stroke: #000000; stroke-width: 0.8"/>
      </g>
     </g>
     <g id="text_6">
      <!-- 15 -->
      <g transform="translate(259.468224 287.910437) scale(0.1 -0.1)">
       <use xlink:href="#DejaVuSans-31"/>
       <use xlink:href="#DejaVuSans-35" x="63.623047"/>
      </g>
     </g>
    </g>
    <g id="xtick_7">
     <g id="line2d_7">
      <g>
       <use xlink:href="#ma6879dc049" x="307.687117" y="273.312" style="stroke: #000000; stroke-width: 0.8"/>
      </g>
     </g>
     <g id="text_7">
      <!-- 20 -->
      <g transform="translate(301.324617 287.910437) scale(0.1 -0.1)">
       <defs>
        <path id="DejaVuSans-32" d="M 1228 531 
L 3431 531 
L 3431 0 
L 469 0 
L 469 531 
Q 828 903 1448 1529 
Q 2069 2156 2228 2338 
Q 2531 2678 2651 2914 
Q 2772 3150 2772 3378 
Q 2772 3750 2511 3984 
Q 2250 4219 1831 4219 
Q 1534 4219 1204 4116 
Q 875 4013 500 3803 
L 500 4441 
Q 881 4594 1212 4672 
Q 1544 4750 1819 4750 
Q 2544 4750 2975 4387 
Q 3406 4025 3406 3419 
Q 3406 3131 3298 2873 
Q 3191 2616 2906 2266 
Q 2828 2175 2409 1742 
Q 1991 1309 1228 531 
z
" transform="scale(0.015625)"/>
       </defs>
       <use xlink:href="#DejaVuSans-32"/>
       <use xlink:href="#DejaVuSans-30" x="63.623047"/>
      </g>
     </g>
    </g>
    <g id="xtick_8">
     <g id="line2d_8">
      <g>
       <use xlink:href="#ma6879dc049" x="349.543509" y="273.312" style="stroke: #000000; stroke-width: 0.8"/>
      </g>
     </g>
     <g id="text_8">
      <!-- 25 -->
      <g transform="translate(343.181009 287.910437) scale(0.1 -0.1)">
       <use xlink:href="#DejaVuSans-32"/>
       <use xlink:href="#DejaVuSans-35" x="63.623047"/>
      </g>
     </g>
    </g>
    <g id="xtick_9">
     <g id="line2d_9">
      <g>
       <use xlink:href="#ma6879dc049" x="391.399902" y="273.312" style="stroke: #000000; stroke-width: 0.8"/>
      </g>
     </g>
     <g id="text_9">
      <!-- 30 -->
      <g transform="translate(385.037402 287.910437) scale(0.1 -0.1)">
       <defs>
        <path id="DejaVuSans-33" d="M 2597 2516 
Q 3050 2419 3304 2112 
Q 3559 1806 3559 1356 
Q 3559 666 3084 287 
Q 2609 -91 1734 -91 
Q 1441 -91 1130 -33 
Q 819 25 488 141 
L 488 750 
Q 750 597 1062 519 
Q 1375 441 1716 441 
Q 2309 441 2620 675 
Q 2931 909 2931 1356 
Q 2931 1769 2642 2001 
Q 2353 2234 1838 2234 
L 1294 2234 
L 1294 2753 
L 1863 2753 
Q 2328 2753 2575 2939 
Q 2822 3125 2822 3475 
Q 2822 3834 2567 4026 
Q 2313 4219 1838 4219 
Q 1578 4219 1281 4162 
Q 984 4106 628 3988 
L 628 4550 
Q 988 4650 1302 4700 
Q 1616 4750 1894 4750 
Q 2613 4750 3031 4423 
Q 3450 4097 3450 3541 
Q 3450 3153 3228 2886 
Q 3006 2619 2597 2516 
z
" transform="scale(0.015625)"/>
       </defs>
       <use xlink:href="#DejaVuSans-33"/>
       <use xlink:href="#DejaVuSans-30" x="63.623047"/>
      </g>
     </g>
    </g>
   </g>
   <g id="matplotlib.axis_2">
    <g id="ytick_1">
     <g id="line2d_10">
      <defs>
       <path id="m522abed094" d="M 0 0 
L -3.5 0 
" style="stroke: #000000; stroke-width: 0.8"/>
      </defs>
      <g>
       <use xlink:href="#m522abed094" x="35.304688" y="260.095738" style="stroke: #000000; stroke-width: 0.8"/>
      </g>
     </g>
     <g id="text_10">
      <!-- −15 -->
      <g transform="translate(7.2 263.894957) scale(0.1 -0.1)">
       <use xlink:href="#DejaVuSans-2212"/>
       <use xlink:href="#DejaVuSans-31" x="83.789062"/>
       <use xlink:href="#DejaVuSans-35" x="147.412109"/>
      </g>
     </g>
    </g>
    <g id="ytick_2">
     <g id="line2d_11">
      <g>
       <use xlink:href="#m522abed094" x="35.304688" y="226.374679" style="stroke: #000000; stroke-width: 0.8"/>
      </g>
     </g>
     <g id="text_11">
      <!-- −10 -->
      <g transform="translate(7.2 230.173898) scale(0.1 -0.1)">
       <use xlink:href="#DejaVuSans-2212"/>
       <use xlink:href="#DejaVuSans-31" x="83.789062"/>
       <use xlink:href="#DejaVuSans-30" x="147.412109"/>
      </g>
     </g>
    </g>
    <g id="ytick_3">
     <g id="line2d_12">
      <g>
       <use xlink:href="#m522abed094" x="35.304688" y="192.653621" style="stroke: #000000; stroke-width: 0.8"/>
      </g>
     </g>
     <g id="text_12">
      <!-- −5 -->
      <g transform="translate(13.5625 196.45284) scale(0.1 -0.1)">
       <use xlink:href="#DejaVuSans-2212"/>
       <use xlink:href="#DejaVuSans-35" x="83.789062"/>
      </g>
     </g>
    </g>
    <g id="ytick_4">
     <g id="line2d_13">
      <g>
       <use xlink:href="#m522abed094" x="35.304688" y="158.932562" style="stroke: #000000; stroke-width: 0.8"/>
      </g>
     </g>
     <g id="text_13">
      <!-- 0 -->
      <g transform="translate(21.942187 162.731781) scale(0.1 -0.1)">
       <use xlink:href="#DejaVuSans-30"/>
      </g>
     </g>
    </g>
    <g id="ytick_5">
     <g id="line2d_14">
      <g>
       <use xlink:href="#m522abed094" x="35.304688" y="125.211503" style="stroke: #000000; stroke-width: 0.8"/>
      </g>
     </g>
     <g id="text_14">
      <!-- 5 -->
      <g transform="translate(21.942187 129.010722) scale(0.1 -0.1)">
       <use xlink:href="#DejaVuSans-35"/>
      </g>
     </g>
    </g>
    <g id="ytick_6">
     <g id="line2d_15">
      <g>
       <use xlink:href="#m522abed094" x="35.304688" y="91.490445" style="stroke: #000000; stroke-width: 0.8"/>
      </g>
     </g>
     <g id="text_15">
      <!-- 10 -->
      <g transform="translate(15.579687 95.289664) scale(0.1 -0.1)">
       <use xlink:href="#DejaVuSans-31"/>
       <use xlink:href="#DejaVuSans-30" x="63.623047"/>
      </g>
     </g>
    </g>
    <g id="ytick_7">
     <g id="line2d_16">
      <g>
       <use xlink:href="#m522abed094" x="35.304688" y="57.769386" style="stroke: #000000; stroke-width: 0.8"/>
      </g>
     </g>
     <g id="text_16">
      <!-- 15 -->
      <g transform="translate(15.579687 61.568605) scale(0.1 -0.1)">
       <use xlink:href="#DejaVuSans-31"/>
       <use xlink:href="#DejaVuSans-35" x="63.623047"/>
      </g>
     </g>
    </g>
    <g id="ytick_8">
     <g id="line2d_17">
      <g>
       <use xlink:href="#m522abed094" x="35.304688" y="24.048328" style="stroke: #000000; stroke-width: 0.8"/>
      </g>
     </g>
     <g id="text_17">
      <!-- 20 -->
      <g transform="translate(15.579687 27.847546) scale(0.1 -0.1)">
       <use xlink:href="#DejaVuSans-32"/>
       <use xlink:href="#DejaVuSans-30" x="63.623047"/>
      </g>
     </g>
    </g>
   </g>
   <g id="patch_3">
    <path d="M 35.304688 273.312 
L 35.304688 7.2 
" style="fill: none; stroke: #000000; stroke-width: 0.8; stroke-linejoin: miter; stroke-linecap: square"/>
   </g>
   <g id="patch_4">
    <path d="M 392.424688 273.312 
L 392.424688 7.2 
" style="fill: none; stroke: #000000; stroke-width: 0.8; stroke-linejoin: miter; stroke-linecap: square"/>
   </g>
   <g id="patch_5">
    <path d="M 35.304688 273.312 
L 392.424688 273.312 
" style="fill: none; stroke: #000000; stroke-width: 0.8; stroke-linejoin: miter; stroke-linecap: square"/>
   </g>
   <g id="patch_6">
    <path d="M 35.304688 7.2 
L 392.424688 7.2 
" style="fill: none; stroke: #000000; stroke-width: 0.8; stroke-linejoin: miter; stroke-linecap: square"/>
   </g>
  </g>
 </g>
 <defs>
  <clipPath id="pf77deddc71">
   <rect x="35.304688" y="7.2" width="357.12" height="266.112"/>
  </clipPath>
 </defs>
</svg>
