<?xml version="1.0" encoding="utf-8" standalone="no"?>
<!DOCTYPE svg PUBLIC "-//W3C//DTD SVG 1.1//EN"
  "http://www.w3.org/Graphics/SVG/1.1/DTD/svg11.dtd">
<svg xmlns:xlink="http://www.w3.org/1999/xlink" width="401.914537pt" height="297.190125pt" viewBox="0 0 401.914537 297.190125" xmlns="http://www.w3.org/2000/svg" version="1.1">
 <metadata>
  <rdf:RDF xmlns:dc="http://purl.org/dc/elements/1.1/" xmlns:cc="http://creativecommons.org/ns#" xmlns:rdf="http://www.w3.org/1999/02/22-rdf-syntax-ns#">
   <cc:Work>
    <dc:type rdf:resource="http://purl.org/dc/dcmitype/StillImage"/>
    <dc:date>2023-11-13T01:26:24.677961</dc:date>
    <dc:format>image/svg+xml</dc:format>
    <dc:creator>
     <cc:Agent>
      <dc:title>Matplotlib v3.8.0, https://matplotlib.org/</dc:title>
     </cc:Agent>
    </dc:creator>
   </cc:Work>
  </rdf:RDF>
 </metadata>
 <defs>
  <style type="text/css">*{stroke-linejoin: round; stroke-linecap: butt}</style>
 </defs>
 <g id="figure_1">
  <g id="patch_1">
   <path d="M 0 297.190125 
L 401.914537 297.190125 
L 401.914537 0 
L 0 0 
z
" style="fill: #ffffff"/>
  </g>
  <g id="axes_1">
   <g id="patch_2">
    <path d="M 35.304688 273.312 
L 392.424688 273.312 
L 392.424688 7.2 
L 35.304688 7.2 
z
" style="fill: #ffffff"/>
   </g>
   <g id="PathCollection_1">
    <defs>
     <path id="m6587f234a0" d="M 0 1.5 
C 0.397805 1.5 0.77937 1.341951 1.06066 1.06066 
C 1.341951 0.77937 1.5 0.397805 1.5 0 
C 1.5 -0.397805 1.341951 -0.77937 1.06066 -1.06066 
C 0.77937 -1.341951 0.397805 -1.5 0 -1.5 
C -0.397805 -1.5 -0.77937 -1.341951 -1.06066 -1.06066 
C -1.341951 -0.77937 -1.5 -0.397805 -1.5 0 
C -1.5 0.397805 -1.341951 0.77937 -1.06066 1.06066 
C -0.77937 1.341951 -0.397805 1.5 0 1.5 
z
" style="stroke: #ff8c00"/>
    </defs>
    <g clip-path="url(#p9979931bce)">
     <use xlink:href="#m6587f234a0" x="254.616522" y="243.234383" style="fill: #ff8c00; stroke: #ff8c00"/>
     <use xlink:href="#m6587f234a0" x="263.425031" y="216.979737" style="fill: #ff8c00; stroke: #ff8c00"/>
     <use xlink:href="#m6587f234a0" x="237.771215" y="249.137596" style="fill: #ff8c00; stroke: #ff8c00"/>
     <use xlink:href="#m6587f234a0" x="245.379938" y="229.251313" style="fill: #ff8c00; stroke: #ff8c00"/>
     <use xlink:href="#m6587f234a0" x="283.517862" y="234.611717" style="fill: #ff8c00; stroke: #ff8c00"/>
     <use xlink:href="#m6587f234a0" x="250.487444" y="212.207253" style="fill: #ff8c00; stroke: #ff8c00"/>
     <use xlink:href="#m6587f234a0" x="264.134231" y="245.366377" style="fill: #ff8c00; stroke: #ff8c00"/>
     <use xlink:href="#m6587f234a0" x="210.605658" y="252.840162" style="fill: #ff8c00; stroke: #ff8c00"/>
     <use xlink:href="#m6587f234a0" x="197.306403" y="214.362051" style="fill: #ff8c00; stroke: #ff8c00"/>
     <use xlink:href="#m6587f234a0" x="280.506171" y="233.714427" style="fill: #ff8c00; stroke: #ff8c00"/>
     <use xlink:href="#m6587f234a0" x="263.32521" y="238.068027" style="fill: #ff8c00; stroke: #ff8c00"/>
     <use xlink:href="#m6587f234a0" x="268.018779" y="228.490074" style="fill: #ff8c00; stroke: #ff8c00"/>
     <use xlink:href="#m6587f234a0" x="274.349224" y="230.165998" style="fill: #ff8c00; stroke: #ff8c00"/>
    </g>
   </g>
   <g id="PathCollection_2">
    <defs>
     <path id="m8951a21fda" d="M 0 1.5 
C 0.397805 1.5 0.77937 1.341951 1.06066 1.06066 
C 1.341951 0.77937 1.5 0.397805 1.5 0 
C 1.5 -0.397805 1.341951 -0.77937 1.06066 -1.06066 
C 0.77937 -1.341951 0.397805 -1.5 0 -1.5 
C -0.397805 -1.5 -0.77937 -1.341951 -1.06066 -1.06066 
C -1.341951 -0.77937 -1.5 -0.397805 -1.5 0 
C -1.5 0.397805 -1.341951 0.77937 -1.06066 1.06066 
C -0.77937 1.341951 -0.397805 1.5 0 1.5 
z
" style="stroke: #006400"/>
    </defs>
    <g clip-path="url(#p9979931bce)">
     <use xlink:href="#m8951a21fda" x="193.0658" y="234.150073" style="fill: #006400; stroke: #006400"/>
     <use xlink:href="#m8951a21fda" x="331.432885" y="221.11139" style="fill: #006400; stroke: #006400"/>
     <use xlink:href="#m8951a21fda" x="291.488608" y="245.394303" style="fill: #006400; stroke: #006400"/>
     <use xlink:href="#m8951a21fda" x="375.415387" y="261.216" style="fill: #006400; stroke: #006400"/>
     <use xlink:href="#m8951a21fda" x="265.236656" y="238.912467" style="fill: #006400; stroke: #006400"/>
     <use xlink:href="#m8951a21fda" x="317.596523" y="232.095522" style="fill: #006400; stroke: #006400"/>
     <use xlink:href="#m8951a21fda" x="262.583099" y="227.651754" style="fill: #006400; stroke: #006400"/>
     <use xlink:href="#m8951a21fda" x="278.422795" y="224.265597" style="fill: #006400; stroke: #006400"/>
     <use xlink:href="#m8951a21fda" x="349.734562" y="217.580212" style="fill: #006400; stroke: #006400"/>
     <use xlink:href="#m8951a21fda" x="305.481673" y="229.036826" style="fill: #006400; stroke: #006400"/>
     <use xlink:href="#m8951a21fda" x="233.104226" y="209.901281" style="fill: #006400; stroke: #006400"/>
     <use xlink:href="#m8951a21fda" x="262.366475" y="210.038989" style="fill: #006400; stroke: #006400"/>
     <use xlink:href="#m8951a21fda" x="253.767641" y="230.527888" style="fill: #006400; stroke: #006400"/>
     <use xlink:href="#m8951a21fda" x="344.191528" y="204.991042" style="fill: #006400; stroke: #006400"/>
     <use xlink:href="#m8951a21fda" x="249.124957" y="234.363789" style="fill: #006400; stroke: #006400"/>
     <use xlink:href="#m8951a21fda" x="339.533113" y="242.794" style="fill: #006400; stroke: #006400"/>
     <use xlink:href="#m8951a21fda" x="225.678466" y="206.304129" style="fill: #006400; stroke: #006400"/>
     <use xlink:href="#m8951a21fda" x="376.19196" y="251.001769" style="fill: #006400; stroke: #006400"/>
    </g>
   </g>
   <g id="PathCollection_3">
    <defs>
     <path id="m4368b7edc0" d="M 0 1.5 
C 0.397805 1.5 0.77937 1.341951 1.06066 1.06066 
C 1.341951 0.77937 1.5 0.397805 1.5 0 
C 1.5 -0.397805 1.341951 -0.77937 1.06066 -1.06066 
C 0.77937 -1.341951 0.397805 -1.5 0 -1.5 
C -0.397805 -1.5 -0.77937 -1.341951 -1.06066 -1.06066 
C -1.341951 -0.77937 -1.5 -0.397805 -1.5 0 
C -1.5 0.397805 -1.341951 0.77937 -1.06066 1.06066 
C -0.77937 1.341951 -0.397805 1.5 0 1.5 
z
" style="stroke: #2f4f4f"/>
    </defs>
    <g clip-path="url(#p9979931bce)">
     <use xlink:href="#m4368b7edc0" x="240.472106" y="178.174907" style="fill: #2f4f4f; stroke: #2f4f4f"/>
     <use xlink:href="#m4368b7edc0" x="215.036033" y="161.605688" style="fill: #2f4f4f; stroke: #2f4f4f"/>
     <use xlink:href="#m4368b7edc0" x="229.01466" y="233.360509" style="fill: #2f4f4f; stroke: #2f4f4f"/>
     <use xlink:href="#m4368b7edc0" x="191.723071" y="232.720425" style="fill: #2f4f4f; stroke: #2f4f4f"/>
     <use xlink:href="#m4368b7edc0" x="199.11325" y="218.642345" style="fill: #2f4f4f; stroke: #2f4f4f"/>
     <use xlink:href="#m4368b7edc0" x="204.037532" y="228.596274" style="fill: #2f4f4f; stroke: #2f4f4f"/>
     <use xlink:href="#m4368b7edc0" x="215.3681" y="221.328369" style="fill: #2f4f4f; stroke: #2f4f4f"/>
     <use xlink:href="#m4368b7edc0" x="191.125213" y="218.843678" style="fill: #2f4f4f; stroke: #2f4f4f"/>
     <use xlink:href="#m4368b7edc0" x="136.404521" y="224.576752" style="fill: #2f4f4f; stroke: #2f4f4f"/>
     <use xlink:href="#m4368b7edc0" x="232.675926" y="216.439355" style="fill: #2f4f4f; stroke: #2f4f4f"/>
     <use xlink:href="#m4368b7edc0" x="146.540126" y="225.736556" style="fill: #2f4f4f; stroke: #2f4f4f"/>
     <use xlink:href="#m4368b7edc0" x="228.250297" y="214.443115" style="fill: #2f4f4f; stroke: #2f4f4f"/>
     <use xlink:href="#m4368b7edc0" x="152.132359" y="213.882571" style="fill: #2f4f4f; stroke: #2f4f4f"/>
     <use xlink:href="#m4368b7edc0" x="163.856901" y="180.752219" style="fill: #2f4f4f; stroke: #2f4f4f"/>
    </g>
   </g>
   <g id="PathCollection_4">
    <defs>
     <path id="m025c1152b6" d="M 0 1.5 
C 0.397805 1.5 0.77937 1.341951 1.06066 1.06066 
C 1.341951 0.77937 1.5 0.397805 1.5 0 
C 1.5 -0.397805 1.341951 -0.77937 1.06066 -1.06066 
C 0.77937 -1.341951 0.397805 -1.5 0 -1.5 
C -0.397805 -1.5 -0.77937 -1.341951 -1.06066 -1.06066 
C -1.341951 -0.77937 -1.5 -0.397805 -1.5 0 
C -1.5 0.397805 -1.341951 0.77937 -1.06066 1.06066 
C -0.77937 1.341951 -0.397805 1.5 0 1.5 
z
" style="stroke: #00bfff"/>
    </defs>
    <g clip-path="url(#p9979931bce)">
     <use xlink:href="#m025c1152b6" x="158.698709" y="212.073104" style="fill: #00bfff; stroke: #00bfff"/>
     <use xlink:href="#m025c1152b6" x="183.781224" y="222.083616" style="fill: #00bfff; stroke: #00bfff"/>
     <use xlink:href="#m025c1152b6" x="192.589136" y="224.098984" style="fill: #00bfff; stroke: #00bfff"/>
     <use xlink:href="#m025c1152b6" x="175.859119" y="205.999791" style="fill: #00bfff; stroke: #00bfff"/>
     <use xlink:href="#m025c1152b6" x="163.575779" y="208.125383" style="fill: #00bfff; stroke: #00bfff"/>
     <use xlink:href="#m025c1152b6" x="192.772676" y="219.933815" style="fill: #00bfff; stroke: #00bfff"/>
     <use xlink:href="#m025c1152b6" x="202.532095" y="219.749752" style="fill: #00bfff; stroke: #00bfff"/>
     <use xlink:href="#m025c1152b6" x="161.72191" y="231.578299" style="fill: #00bfff; stroke: #00bfff"/>
     <use xlink:href="#m025c1152b6" x="244.111301" y="203.498038" style="fill: #00bfff; stroke: #00bfff"/>
     <use xlink:href="#m025c1152b6" x="186.574401" y="214.722759" style="fill: #00bfff; stroke: #00bfff"/>
     <use xlink:href="#m025c1152b6" x="180.286662" y="220.035359" style="fill: #00bfff; stroke: #00bfff"/>
     <use xlink:href="#m025c1152b6" x="151.637629" y="170.98204" style="fill: #00bfff; stroke: #00bfff"/>
     <use xlink:href="#m025c1152b6" x="145.805677" y="212.080356" style="fill: #00bfff; stroke: #00bfff"/>
     <use xlink:href="#m025c1152b6" x="209.66812" y="216.200131" style="fill: #00bfff; stroke: #00bfff"/>
    </g>
   </g>
   <g id="PathCollection_5">
    <defs>
     <path id="m36cc402b31" d="M 0 1.5 
C 0.397805 1.5 0.77937 1.341951 1.06066 1.06066 
C 1.341951 0.77937 1.5 0.397805 1.5 0 
C 1.5 -0.397805 1.341951 -0.77937 1.06066 -1.06066 
C 0.77937 -1.341951 0.397805 -1.5 0 -1.5 
C -0.397805 -1.5 -0.77937 -1.341951 -1.06066 -1.06066 
C -1.341951 -0.77937 -1.5 -0.397805 -1.5 0 
C -1.5 0.397805 -1.341951 0.77937 -1.06066 1.06066 
C -0.77937 1.341951 -0.397805 1.5 0 1.5 
z
" style="stroke: #ffff00"/>
    </defs>
    <g clip-path="url(#p9979931bce)">
     <use xlink:href="#m36cc402b31" x="202.7283" y="217.867195" style="fill: #ffff00; stroke: #ffff00"/>
     <use xlink:href="#m36cc402b31" x="207.016796" y="171.403877" style="fill: #ffff00; stroke: #ffff00"/>
     <use xlink:href="#m36cc402b31" x="168.071601" y="231.055848" style="fill: #ffff00; stroke: #ffff00"/>
     <use xlink:href="#m36cc402b31" x="113.010008" y="214.12763" style="fill: #ffff00; stroke: #ffff00"/>
     <use xlink:href="#m36cc402b31" x="170.283252" y="207.717623" style="fill: #ffff00; stroke: #ffff00"/>
     <use xlink:href="#m36cc402b31" x="169.301165" y="164.500172" style="fill: #ffff00; stroke: #ffff00"/>
     <use xlink:href="#m36cc402b31" x="139.637733" y="158.617599" style="fill: #ffff00; stroke: #ffff00"/>
     <use xlink:href="#m36cc402b31" x="159.689223" y="182.032114" style="fill: #ffff00; stroke: #ffff00"/>
     <use xlink:href="#m36cc402b31" x="174.122148" y="208.203955" style="fill: #ffff00; stroke: #ffff00"/>
     <use xlink:href="#m36cc402b31" x="210.347694" y="141.403266" style="fill: #ffff00; stroke: #ffff00"/>
     <use xlink:href="#m36cc402b31" x="198.898217" y="210.175376" style="fill: #ffff00; stroke: #ffff00"/>
     <use xlink:href="#m36cc402b31" x="185.951886" y="219.956773" style="fill: #ffff00; stroke: #ffff00"/>
     <use xlink:href="#m36cc402b31" x="205.270984" y="155.547789" style="fill: #ffff00; stroke: #ffff00"/>
     <use xlink:href="#m36cc402b31" x="149.015035" y="197.655564" style="fill: #ffff00; stroke: #ffff00"/>
     <use xlink:href="#m36cc402b31" x="164.02589" y="194.711576" style="fill: #ffff00; stroke: #ffff00"/>
     <use xlink:href="#m36cc402b31" x="201.913221" y="231.88043" style="fill: #ffff00; stroke: #ffff00"/>
     <use xlink:href="#m36cc402b31" x="190.359148" y="225.69979" style="fill: #ffff00; stroke: #ffff00"/>
    </g>
   </g>
   <g id="PathCollection_6">
    <defs>
     <path id="m124fb839d1" d="M 0 1.5 
C 0.397805 1.5 0.77937 1.341951 1.06066 1.06066 
C 1.341951 0.77937 1.5 0.397805 1.5 0 
C 1.5 -0.397805 1.341951 -0.77937 1.06066 -1.06066 
C 0.77937 -1.341951 0.397805 -1.5 0 -1.5 
C -0.397805 -1.5 -0.77937 -1.341951 -1.06066 -1.06066 
C -1.341951 -0.77937 -1.5 -0.397805 -1.5 0 
C -1.5 0.397805 -1.341951 0.77937 -1.06066 1.06066 
C -0.77937 1.341951 -0.397805 1.5 0 1.5 
z
" style="stroke: #00ffff"/>
    </defs>
    <g clip-path="url(#p9979931bce)">
     <use xlink:href="#m124fb839d1" x="153.03484" y="219.969113" style="fill: #00ffff; stroke: #00ffff"/>
     <use xlink:href="#m124fb839d1" x="153.03484" y="219.969113" style="fill: #00ffff; stroke: #00ffff"/>
     <use xlink:href="#m124fb839d1" x="173.590093" y="203.020024" style="fill: #00ffff; stroke: #00ffff"/>
     <use xlink:href="#m124fb839d1" x="176.141422" y="222.632689" style="fill: #00ffff; stroke: #00ffff"/>
     <use xlink:href="#m124fb839d1" x="148.957735" y="216.75134" style="fill: #00ffff; stroke: #00ffff"/>
     <use xlink:href="#m124fb839d1" x="153.03484" y="219.969113" style="fill: #00ffff; stroke: #00ffff"/>
     <use xlink:href="#m124fb839d1" x="209.186372" y="210.819332" style="fill: #00ffff; stroke: #00ffff"/>
     <use xlink:href="#m124fb839d1" x="176.118103" y="174.523501" style="fill: #00ffff; stroke: #00ffff"/>
     <use xlink:href="#m124fb839d1" x="174.053812" y="210.879834" style="fill: #00ffff; stroke: #00ffff"/>
     <use xlink:href="#m124fb839d1" x="201.54456" y="222.47912" style="fill: #00ffff; stroke: #00ffff"/>
     <use xlink:href="#m124fb839d1" x="189.121523" y="188.14096" style="fill: #00ffff; stroke: #00ffff"/>
     <use xlink:href="#m124fb839d1" x="165.443863" y="220.952139" style="fill: #00ffff; stroke: #00ffff"/>
    </g>
   </g>
   <g id="PathCollection_7">
    <defs>
     <path id="mdf86709b9c" d="M 0 1.5 
C 0.397805 1.5 0.77937 1.341951 1.06066 1.06066 
C 1.341951 0.77937 1.5 0.397805 1.5 0 
C 1.5 -0.397805 1.341951 -0.77937 1.06066 -1.06066 
C 0.77937 -1.341951 0.397805 -1.5 0 -1.5 
C -0.397805 -1.5 -0.77937 -1.341951 -1.06066 -1.06066 
C -1.341951 -0.77937 -1.5 -0.397805 -1.5 0 
C -1.5 0.397805 -1.341951 0.77937 -1.06066 1.06066 
C -0.77937 1.341951 -0.397805 1.5 0 1.5 
z
" style="stroke: #0000ff"/>
    </defs>
    <g clip-path="url(#p9979931bce)">
     <use xlink:href="#mdf86709b9c" x="166.737126" y="148.96345" style="fill: #0000ff; stroke: #0000ff"/>
     <use xlink:href="#mdf86709b9c" x="229.550234" y="170.237173" style="fill: #0000ff; stroke: #0000ff"/>
     <use xlink:href="#mdf86709b9c" x="173.113428" y="183.391661" style="fill: #0000ff; stroke: #0000ff"/>
     <use xlink:href="#mdf86709b9c" x="222.298275" y="19.296" style="fill: #0000ff; stroke: #0000ff"/>
     <use xlink:href="#mdf86709b9c" x="197.563251" y="208.846761" style="fill: #0000ff; stroke: #0000ff"/>
     <use xlink:href="#mdf86709b9c" x="167.867539" y="166.388193" style="fill: #0000ff; stroke: #0000ff"/>
     <use xlink:href="#mdf86709b9c" x="190.842414" y="91.612378" style="fill: #0000ff; stroke: #0000ff"/>
     <use xlink:href="#mdf86709b9c" x="168.151977" y="100.142313" style="fill: #0000ff; stroke: #0000ff"/>
     <use xlink:href="#mdf86709b9c" x="256.893761" y="33.849883" style="fill: #0000ff; stroke: #0000ff"/>
     <use xlink:href="#mdf86709b9c" x="187.270306" y="216.422644" style="fill: #0000ff; stroke: #0000ff"/>
     <use xlink:href="#mdf86709b9c" x="158.53458" y="195.124515" style="fill: #0000ff; stroke: #0000ff"/>
     <use xlink:href="#mdf86709b9c" x="189.29771" y="213.601505" style="fill: #0000ff; stroke: #0000ff"/>
    </g>
   </g>
   <g id="PathCollection_8">
    <defs>
     <path id="m4b06f908ce" d="M 0 1.5 
C 0.397805 1.5 0.77937 1.341951 1.06066 1.06066 
C 1.341951 0.77937 1.5 0.397805 1.5 0 
C 1.5 -0.397805 1.341951 -0.77937 1.06066 -1.06066 
C 0.77937 -1.341951 0.397805 -1.5 0 -1.5 
C -0.397805 -1.5 -0.77937 -1.341951 -1.06066 -1.06066 
C -1.341951 -0.77937 -1.5 -0.397805 -1.5 0 
C -1.5 0.397805 -1.341951 0.77937 -1.06066 1.06066 
C -0.77937 1.341951 -0.397805 1.5 0 1.5 
z
" style="stroke: #dc143c"/>
    </defs>
    <g clip-path="url(#p9979931bce)">
     <use xlink:href="#m4b06f908ce" x="225.710833" y="245.541648" style="fill: #dc143c; stroke: #dc143c"/>
     <use xlink:href="#m4b06f908ce" x="260.78301" y="257.276015" style="fill: #dc143c; stroke: #dc143c"/>
     <use xlink:href="#m4b06f908ce" x="259.825505" y="260.491285" style="fill: #dc143c; stroke: #dc143c"/>
     <use xlink:href="#m4b06f908ce" x="305.660104" y="255.598052" style="fill: #dc143c; stroke: #dc143c"/>
     <use xlink:href="#m4b06f908ce" x="287.030959" y="251.65488" style="fill: #dc143c; stroke: #dc143c"/>
     <use xlink:href="#m4b06f908ce" x="214.766175" y="247.582977" style="fill: #dc143c; stroke: #dc143c"/>
     <use xlink:href="#m4b06f908ce" x="293.954858" y="255.042392" style="fill: #dc143c; stroke: #dc143c"/>
     <use xlink:href="#m4b06f908ce" x="200.664037" y="238.378678" style="fill: #dc143c; stroke: #dc143c"/>
     <use xlink:href="#m4b06f908ce" x="255.410548" y="214.971909" style="fill: #dc143c; stroke: #dc143c"/>
     <use xlink:href="#m4b06f908ce" x="289.215777" y="254.177788" style="fill: #dc143c; stroke: #dc143c"/>
     <use xlink:href="#m4b06f908ce" x="259.023333" y="243.976996" style="fill: #dc143c; stroke: #dc143c"/>
     <use xlink:href="#m4b06f908ce" x="200.520163" y="260.779132" style="fill: #dc143c; stroke: #dc143c"/>
     <use xlink:href="#m4b06f908ce" x="291.710936" y="249.075841" style="fill: #dc143c; stroke: #dc143c"/>
     <use xlink:href="#m4b06f908ce" x="261.503399" y="231.589867" style="fill: #dc143c; stroke: #dc143c"/>
     <use xlink:href="#m4b06f908ce" x="271.860088" y="243.944408" style="fill: #dc143c; stroke: #dc143c"/>
     <use xlink:href="#m4b06f908ce" x="217.779768" y="244.653144" style="fill: #dc143c; stroke: #dc143c"/>
    </g>
   </g>
   <g id="PathCollection_9">
    <defs>
     <path id="m3d4225dfee" d="M 0 1.5 
C 0.397805 1.5 0.77937 1.341951 1.06066 1.06066 
C 1.341951 0.77937 1.5 0.397805 1.5 0 
C 1.5 -0.397805 1.341951 -0.77937 1.06066 -1.06066 
C 0.77937 -1.341951 0.397805 -1.5 0 -1.5 
C -0.397805 -1.5 -0.77937 -1.341951 -1.06066 -1.06066 
C -1.341951 -0.77937 -1.5 -0.397805 -1.5 0 
C -1.5 0.397805 -1.341951 0.77937 -1.06066 1.06066 
C -0.77937 1.341951 -0.397805 1.5 0 1.5 
z
" style="stroke: #ffe4c4"/>
    </defs>
    <g clip-path="url(#p9979931bce)">
     <use xlink:href="#m3d4225dfee" x="249.932654" y="219.579219" style="fill: #ffe4c4; stroke: #ffe4c4"/>
     <use xlink:href="#m3d4225dfee" x="328.201871" y="211.237469" style="fill: #ffe4c4; stroke: #ffe4c4"/>
     <use xlink:href="#m3d4225dfee" x="312.276083" y="232.845687" style="fill: #ffe4c4; stroke: #ffe4c4"/>
     <use xlink:href="#m3d4225dfee" x="199.696" y="240.234961" style="fill: #ffe4c4; stroke: #ffe4c4"/>
     <use xlink:href="#m3d4225dfee" x="212.733358" y="200.368199" style="fill: #ffe4c4; stroke: #ffe4c4"/>
     <use xlink:href="#m3d4225dfee" x="309.932534" y="234.313455" style="fill: #ffe4c4; stroke: #ffe4c4"/>
     <use xlink:href="#m3d4225dfee" x="320.189515" y="231.680701" style="fill: #ffe4c4; stroke: #ffe4c4"/>
     <use xlink:href="#m3d4225dfee" x="244.475551" y="222.751544" style="fill: #ffe4c4; stroke: #ffe4c4"/>
     <use xlink:href="#m3d4225dfee" x="225.561108" y="228.279833" style="fill: #ffe4c4; stroke: #ffe4c4"/>
     <use xlink:href="#m3d4225dfee" x="257.614203" y="249.322112" style="fill: #ffe4c4; stroke: #ffe4c4"/>
     <use xlink:href="#m3d4225dfee" x="275.45286" y="222.672515" style="fill: #ffe4c4; stroke: #ffe4c4"/>
     <use xlink:href="#m3d4225dfee" x="269.005506" y="241.944454" style="fill: #ffe4c4; stroke: #ffe4c4"/>
    </g>
   </g>
   <g id="PathCollection_10">
    <defs>
     <path id="m67b1065846" d="M -2.99994 2.99994 
L 3.00006 2.99994 
L 3.00006 -3.00006 
L -2.99994 -3.00006 
z
" style="stroke: #000000"/>
    </defs>
    <g clip-path="url(#p9979931bce)">
     <use xlink:href="#m67b1065846" x="168.937352" y="215.312346" style="stroke: #000000"/>
     <use xlink:href="#m67b1065846" x="145.939115" y="239.216446" style="stroke: #000000"/>
     <use xlink:href="#m67b1065846" x="51.537415" y="232.101514" style="stroke: #000000"/>
     <use xlink:href="#m67b1065846" x="128.247434" y="219.823935" style="stroke: #000000"/>
     <use xlink:href="#m67b1065846" x="145.527012" y="233.074227" style="stroke: #000000"/>
     <use xlink:href="#m67b1065846" x="94.982128" y="237.547832" style="stroke: #000000"/>
     <use xlink:href="#m67b1065846" x="92.912623" y="240.661827" style="stroke: #000000"/>
     <use xlink:href="#m67b1065846" x="86.758688" y="226.943791" style="stroke: #000000"/>
     <use xlink:href="#m67b1065846" x="102.520273" y="219.116573" style="stroke: #000000"/>
     <use xlink:href="#m67b1065846" x="139.09901" y="209.565827" style="stroke: #000000"/>
     <use xlink:href="#m67b1065846" x="107.855081" y="231.738827" style="stroke: #000000"/>
     <use xlink:href="#m67b1065846" x="197.791479" y="240.654641" style="stroke: #000000"/>
     <use xlink:href="#m67b1065846" x="160.550255" y="228.603515" style="stroke: #000000"/>
     <use xlink:href="#m67b1065846" x="152.508451" y="232.208817" style="stroke: #000000"/>
     <use xlink:href="#m67b1065846" x="146.802165" y="235.606288" style="stroke: #000000"/>
     <use xlink:href="#m67b1065846" x="125.65022" y="238.753799" style="stroke: #000000"/>
     <use xlink:href="#m67b1065846" x="75.791743" y="240.316179" style="stroke: #000000"/>
     <use xlink:href="#m67b1065846" x="194.180859" y="231.500564" style="stroke: #000000"/>
     <use xlink:href="#m67b1065846" x="107.973532" y="242.809696" style="stroke: #000000"/>
     <use xlink:href="#m67b1065846" x="157.449273" y="242.350103" style="stroke: #000000"/>
     <use xlink:href="#m67b1065846" x="115.66316" y="209.88789" style="stroke: #000000"/>
     <use xlink:href="#m67b1065846" x="119.366737" y="229.061465" style="stroke: #000000"/>
     <use xlink:href="#m67b1065846" x="129.501337" y="229.800615" style="stroke: #000000"/>
     <use xlink:href="#m67b1065846" x="144.440364" y="227.768463" style="stroke: #000000"/>
     <use xlink:href="#m67b1065846" x="122.777373" y="223.368838" style="stroke: #000000"/>
     <use xlink:href="#m67b1065846" x="108.964315" y="222.297106" style="stroke: #000000"/>
     <use xlink:href="#m67b1065846" x="152.595564" y="231.927983" style="stroke: #000000"/>
     <use xlink:href="#m67b1065846" x="129.512487" y="240.905586" style="stroke: #000000"/>
     <use xlink:href="#m67b1065846" x="247.042666" y="190.285841" style="stroke: #000000"/>
     <use xlink:href="#m67b1065846" x="163.54989" y="215.85913" style="stroke: #000000"/>
     <use xlink:href="#m67b1065846" x="182.907957" y="216.800936" style="stroke: #000000"/>
     <use xlink:href="#m67b1065846" x="80.0261" y="209.54252" style="stroke: #000000"/>
     <use xlink:href="#m67b1065846" x="112.648617" y="240.602698" style="stroke: #000000"/>
     <use xlink:href="#m67b1065846" x="165.826722" y="200.377092" style="stroke: #000000"/>
     <use xlink:href="#m67b1065846" x="132.637647" y="232.068368" style="stroke: #000000"/>
     <use xlink:href="#m67b1065846" x="92.912623" y="240.661827" style="stroke: #000000"/>
     <use xlink:href="#m67b1065846" x="203.167094" y="235.339794" style="stroke: #000000"/>
     <use xlink:href="#m67b1065846" x="193.128273" y="220.112101" style="stroke: #000000"/>
     <use xlink:href="#m67b1065846" x="100.414896" y="238.739118" style="stroke: #000000"/>
     <use xlink:href="#m67b1065846" x="117.892347" y="222.656496" style="stroke: #000000"/>
     <use xlink:href="#m67b1065846" x="58.200375" y="230.420789" style="stroke: #000000"/>
     <use xlink:href="#m67b1065846" x="98.892328" y="224.175664" style="stroke: #000000"/>
     <use xlink:href="#m67b1065846" x="87.06976" y="216.642253" style="stroke: #000000"/>
     <use xlink:href="#m67b1065846" x="95.840105" y="237.11753" style="stroke: #000000"/>
     <use xlink:href="#m67b1065846" x="218.148297" y="178.728819" style="stroke: #000000"/>
     <use xlink:href="#m67b1065846" x="139.40081" y="228.665022" style="stroke: #000000"/>
     <use xlink:href="#m67b1065846" x="161.461099" y="231.893547" style="stroke: #000000"/>
     <use xlink:href="#m67b1065846" x="68.330261" y="239.026743" style="stroke: #000000"/>
     <use xlink:href="#m67b1065846" x="122.064138" y="227.814802" style="stroke: #000000"/>
     <use xlink:href="#m67b1065846" x="176.602621" y="223.597117" style="stroke: #000000"/>
     <use xlink:href="#m67b1065846" x="142.87898" y="240.844929" style="stroke: #000000"/>
     <use xlink:href="#m67b1065846" x="194.363218" y="210.460376" style="stroke: #000000"/>
     <use xlink:href="#m67b1065846" x="100.959693" y="188.315429" style="stroke: #000000"/>
     <use xlink:href="#m67b1065846" x="166.48373" y="224.964179" style="stroke: #000000"/>
     <use xlink:href="#m67b1065846" x="125.099206" y="233.266989" style="stroke: #000000"/>
     <use xlink:href="#m67b1065846" x="118.154922" y="223.304596" style="stroke: #000000"/>
     <use xlink:href="#m67b1065846" x="131.736256" y="232.503755" style="stroke: #000000"/>
     <use xlink:href="#m67b1065846" x="116.040296" y="211.089585" style="stroke: #000000"/>
     <use xlink:href="#m67b1065846" x="84.664056" y="207.124985" style="stroke: #000000"/>
     <use xlink:href="#m67b1065846" x="152.01616" y="230.1305" style="stroke: #000000"/>
     <use xlink:href="#m67b1065846" x="84.579275" y="231.564624" style="stroke: #000000"/>
     <use xlink:href="#m67b1065846" x="168.500218" y="234.219161" style="stroke: #000000"/>
     <use xlink:href="#m67b1065846" x="79.435193" y="232.461459" style="stroke: #000000"/>
     <use xlink:href="#m67b1065846" x="168.167585" y="232.738817" style="stroke: #000000"/>
    </g>
   </g>
   <g id="PathCollection_11">
    <defs>
     <path id="mfca4c164ec" d="M -3 -0 
L 3 3 
L 3 -3 
z
" style="stroke: #ff8c00"/>
    </defs>
    <g clip-path="url(#p9979931bce)">
     <use xlink:href="#mfca4c164ec" x="154.911645" y="210.884387" style="fill: #ff8c00; stroke: #ff8c00"/>
     <use xlink:href="#mfca4c164ec" x="113.081258" y="236.835508" style="fill: #ff8c00; stroke: #ff8c00"/>
     <use xlink:href="#mfca4c164ec" x="147.738892" y="205.268554" style="fill: #ff8c00; stroke: #ff8c00"/>
     <use xlink:href="#mfca4c164ec" x="204.681428" y="228.701752" style="fill: #ff8c00; stroke: #ff8c00"/>
     <use xlink:href="#mfca4c164ec" x="71.555597" y="231.205804" style="fill: #ff8c00; stroke: #ff8c00"/>
     <use xlink:href="#mfca4c164ec" x="146.76763" y="222.60638" style="fill: #ff8c00; stroke: #ff8c00"/>
     <use xlink:href="#mfca4c164ec" x="95.469717" y="229.969877" style="fill: #ff8c00; stroke: #ff8c00"/>
     <use xlink:href="#mfca4c164ec" x="168.193593" y="226.55787" style="fill: #ff8c00; stroke: #ff8c00"/>
     <use xlink:href="#mfca4c164ec" x="149.685182" y="239.821317" style="fill: #ff8c00; stroke: #ff8c00"/>
     <use xlink:href="#mfca4c164ec" x="126.321487" y="225.279802" style="fill: #ff8c00; stroke: #ff8c00"/>
     <use xlink:href="#mfca4c164ec" x="140.809614" y="237.266543" style="fill: #ff8c00; stroke: #ff8c00"/>
     <use xlink:href="#mfca4c164ec" x="132.23044" y="229.473597" style="fill: #ff8c00; stroke: #ff8c00"/>
     <use xlink:href="#mfca4c164ec" x="147.273816" y="229.563578" style="fill: #ff8c00; stroke: #ff8c00"/>
     <use xlink:href="#mfca4c164ec" x="167.245257" y="226.940119" style="fill: #ff8c00; stroke: #ff8c00"/>
     <use xlink:href="#mfca4c164ec" x="150.967665" y="235.819892" style="fill: #ff8c00; stroke: #ff8c00"/>
     <use xlink:href="#mfca4c164ec" x="115.672914" y="222.408734" style="fill: #ff8c00; stroke: #ff8c00"/>
     <use xlink:href="#mfca4c164ec" x="149.123101" y="226.292172" style="fill: #ff8c00; stroke: #ff8c00"/>
     <use xlink:href="#mfca4c164ec" x="129.528362" y="236.08837" style="fill: #ff8c00; stroke: #ff8c00"/>
     <use xlink:href="#mfca4c164ec" x="147.813493" y="224.247718" style="fill: #ff8c00; stroke: #ff8c00"/>
     <use xlink:href="#mfca4c164ec" x="170.198427" y="225.839647" style="fill: #ff8c00; stroke: #ff8c00"/>
     <use xlink:href="#mfca4c164ec" x="117.582093" y="237.842032" style="fill: #ff8c00; stroke: #ff8c00"/>
     <use xlink:href="#mfca4c164ec" x="140.027977" y="229.675184" style="fill: #ff8c00; stroke: #ff8c00"/>
     <use xlink:href="#mfca4c164ec" x="126.659411" y="235.138912" style="fill: #ff8c00; stroke: #ff8c00"/>
     <use xlink:href="#mfca4c164ec" x="143.005057" y="226.89507" style="fill: #ff8c00; stroke: #ff8c00"/>
     <use xlink:href="#mfca4c164ec" x="184.122353" y="230.727946" style="fill: #ff8c00; stroke: #ff8c00"/>
     <use xlink:href="#mfca4c164ec" x="162.300503" y="234.235856" style="fill: #ff8c00; stroke: #ff8c00"/>
     <use xlink:href="#mfca4c164ec" x="119.398066" y="206.905949" style="fill: #ff8c00; stroke: #ff8c00"/>
     <use xlink:href="#mfca4c164ec" x="133.605102" y="227.938253" style="fill: #ff8c00; stroke: #ff8c00"/>
     <use xlink:href="#mfca4c164ec" x="89.166134" y="237.388701" style="fill: #ff8c00; stroke: #ff8c00"/>
     <use xlink:href="#mfca4c164ec" x="109.911109" y="208.414771" style="fill: #ff8c00; stroke: #ff8c00"/>
     <use xlink:href="#mfca4c164ec" x="126.688168" y="229.516062" style="fill: #ff8c00; stroke: #ff8c00"/>
     <use xlink:href="#mfca4c164ec" x="129.763114" y="240.170905" style="fill: #ff8c00; stroke: #ff8c00"/>
     <use xlink:href="#mfca4c164ec" x="139.833246" y="233.35957" style="fill: #ff8c00; stroke: #ff8c00"/>
     <use xlink:href="#mfca4c164ec" x="140.028902" y="238.383441" style="fill: #ff8c00; stroke: #ff8c00"/>
     <use xlink:href="#mfca4c164ec" x="140.23358" y="227.471326" style="fill: #ff8c00; stroke: #ff8c00"/>
     <use xlink:href="#mfca4c164ec" x="119.749451" y="243.318718" style="fill: #ff8c00; stroke: #ff8c00"/>
     <use xlink:href="#mfca4c164ec" x="132.281119" y="219.083997" style="fill: #ff8c00; stroke: #ff8c00"/>
     <use xlink:href="#mfca4c164ec" x="160.705469" y="229.003266" style="fill: #ff8c00; stroke: #ff8c00"/>
     <use xlink:href="#mfca4c164ec" x="166.238017" y="229.656335" style="fill: #ff8c00; stroke: #ff8c00"/>
     <use xlink:href="#mfca4c164ec" x="171.831978" y="234.216522" style="fill: #ff8c00; stroke: #ff8c00"/>
     <use xlink:href="#mfca4c164ec" x="153.652068" y="219.603278" style="fill: #ff8c00; stroke: #ff8c00"/>
     <use xlink:href="#mfca4c164ec" x="103.040847" y="211.147849" style="fill: #ff8c00; stroke: #ff8c00"/>
     <use xlink:href="#mfca4c164ec" x="256.513666" y="211.707819" style="fill: #ff8c00; stroke: #ff8c00"/>
     <use xlink:href="#mfca4c164ec" x="121.130177" y="235.793901" style="fill: #ff8c00; stroke: #ff8c00"/>
     <use xlink:href="#mfca4c164ec" x="160.935109" y="238.462956" style="fill: #ff8c00; stroke: #ff8c00"/>
     <use xlink:href="#mfca4c164ec" x="124.489489" y="213.74579" style="fill: #ff8c00; stroke: #ff8c00"/>
     <use xlink:href="#mfca4c164ec" x="167.108773" y="232.394232" style="fill: #ff8c00; stroke: #ff8c00"/>
     <use xlink:href="#mfca4c164ec" x="139.148701" y="248.562978" style="fill: #ff8c00; stroke: #ff8c00"/>
     <use xlink:href="#mfca4c164ec" x="108.608709" y="233.144153" style="fill: #ff8c00; stroke: #ff8c00"/>
     <use xlink:href="#mfca4c164ec" x="148.103019" y="233.119253" style="fill: #ff8c00; stroke: #ff8c00"/>
     <use xlink:href="#mfca4c164ec" x="163.045112" y="224.561037" style="fill: #ff8c00; stroke: #ff8c00"/>
     <use xlink:href="#mfca4c164ec" x="92.897071" y="230.690601" style="fill: #ff8c00; stroke: #ff8c00"/>
     <use xlink:href="#mfca4c164ec" x="94.50569" y="213.463937" style="fill: #ff8c00; stroke: #ff8c00"/>
     <use xlink:href="#mfca4c164ec" x="139.595076" y="221.087251" style="fill: #ff8c00; stroke: #ff8c00"/>
     <use xlink:href="#mfca4c164ec" x="162.166015" y="233.178085" style="fill: #ff8c00; stroke: #ff8c00"/>
     <use xlink:href="#mfca4c164ec" x="106.086953" y="230.192687" style="fill: #ff8c00; stroke: #ff8c00"/>
     <use xlink:href="#mfca4c164ec" x="166.057658" y="221.262165" style="fill: #ff8c00; stroke: #ff8c00"/>
     <use xlink:href="#mfca4c164ec" x="116.663578" y="229.378908" style="fill: #ff8c00; stroke: #ff8c00"/>
     <use xlink:href="#mfca4c164ec" x="108.612046" y="214.163449" style="fill: #ff8c00; stroke: #ff8c00"/>
     <use xlink:href="#mfca4c164ec" x="106.104646" y="233.31074" style="fill: #ff8c00; stroke: #ff8c00"/>
     <use xlink:href="#mfca4c164ec" x="133.660936" y="242.921071" style="fill: #ff8c00; stroke: #ff8c00"/>
     <use xlink:href="#mfca4c164ec" x="126.829521" y="225.811866" style="fill: #ff8c00; stroke: #ff8c00"/>
     <use xlink:href="#mfca4c164ec" x="169.469381" y="214.463453" style="fill: #ff8c00; stroke: #ff8c00"/>
     <use xlink:href="#mfca4c164ec" x="130.893911" y="240.123448" style="fill: #ff8c00; stroke: #ff8c00"/>
    </g>
   </g>
   <g id="matplotlib.axis_1">
    <g id="xtick_1">
     <g id="line2d_1">
      <defs>
       <path id="m948a8f2dab" d="M 0 0 
L 0 3.5 
" style="stroke: #000000; stroke-width: 0.8"/>
      </defs>
      <g>
       <use xlink:href="#m948a8f2dab" x="39.754481" y="273.312" style="stroke: #000000; stroke-width: 0.8"/>
      </g>
     </g>
     <g id="text_1">
      <!-- −20 -->
      <g transform="translate(29.202137 287.910437) scale(0.1 -0.1)">
       <defs>
        <path id="DejaVuSans-2212" d="M 678 2272 
L 4684 2272 
L 4684 1741 
L 678 1741 
L 678 2272 
z
" transform="scale(0.015625)"/>
        <path id="DejaVuSans-32" d="M 1228 531 
L 3431 531 
L 3431 0 
L 469 0 
L 469 531 
Q 828 903 1448 1529 
Q 2069 2156 2228 2338 
Q 2531 2678 2651 2914 
Q 2772 3150 2772 3378 
Q 2772 3750 2511 3984 
Q 2250 4219 1831 4219 
Q 1534 4219 1204 4116 
Q 875 4013 500 3803 
L 500 4441 
Q 881 4594 1212 4672 
Q 1544 4750 1819 4750 
Q 2544 4750 2975 4387 
Q 3406 4025 3406 3419 
Q 3406 3131 3298 2873 
Q 3191 2616 2906 2266 
Q 2828 2175 2409 1742 
Q 1991 1309 1228 531 
z
" transform="scale(0.015625)"/>
        <path id="DejaVuSans-30" d="M 2034 4250 
Q 1547 4250 1301 3770 
Q 1056 3291 1056 2328 
Q 1056 1369 1301 889 
Q 1547 409 2034 409 
Q 2525 409 2770 889 
Q 3016 1369 3016 2328 
Q 3016 3291 2770 3770 
Q 2525 4250 2034 4250 
z
M 2034 4750 
Q 2819 4750 3233 4129 
Q 3647 3509 3647 2328 
Q 3647 1150 3233 529 
Q 2819 -91 2034 -91 
Q 1250 -91 836 529 
Q 422 1150 422 2328 
Q 422 3509 836 4129 
Q 1250 4750 2034 4750 
z
" transform="scale(0.015625)"/>
       </defs>
       <use xlink:href="#DejaVuSans-2212"/>
       <use xlink:href="#DejaVuSans-32" x="83.789062"/>
       <use xlink:href="#DejaVuSans-30" x="147.412109"/>
      </g>
     </g>
    </g>
    <g id="xtick_2">
     <g id="line2d_2">
      <g>
       <use xlink:href="#m948a8f2dab" x="109.473992" y="273.312" style="stroke: #000000; stroke-width: 0.8"/>
      </g>
     </g>
     <g id="text_2">
      <!-- −10 -->
      <g transform="translate(98.921649 287.910437) scale(0.1 -0.1)">
       <defs>
        <path id="DejaVuSans-31" d="M 794 531 
L 1825 531 
L 1825 4091 
L 703 3866 
L 703 4441 
L 1819 4666 
L 2450 4666 
L 2450 531 
L 3481 531 
L 3481 0 
L 794 0 
L 794 531 
z
" transform="scale(0.015625)"/>
       </defs>
       <use xlink:href="#DejaVuSans-2212"/>
       <use xlink:href="#DejaVuSans-31" x="83.789062"/>
       <use xlink:href="#DejaVuSans-30" x="147.412109"/>
      </g>
     </g>
    </g>
    <g id="xtick_3">
     <g id="line2d_3">
      <g>
       <use xlink:href="#m948a8f2dab" x="179.193503" y="273.312" style="stroke: #000000; stroke-width: 0.8"/>
      </g>
     </g>
     <g id="text_3">
      <!-- 0 -->
      <g transform="translate(176.012253 287.910437) scale(0.1 -0.1)">
       <use xlink:href="#DejaVuSans-30"/>
      </g>
     </g>
    </g>
    <g id="xtick_4">
     <g id="line2d_4">
      <g>
       <use xlink:href="#m948a8f2dab" x="248.913015" y="273.312" style="stroke: #000000; stroke-width: 0.8"/>
      </g>
     </g>
     <g id="text_4">
      <!-- 10 -->
      <g transform="translate(242.550515 287.910437) scale(0.1 -0.1)">
       <use xlink:href="#DejaVuSans-31"/>
       <use xlink:href="#DejaVuSans-30" x="63.623047"/>
      </g>
     </g>
    </g>
    <g id="xtick_5">
     <g id="line2d_5">
      <g>
       <use xlink:href="#m948a8f2dab" x="318.632526" y="273.312" style="stroke: #000000; stroke-width: 0.8"/>
      </g>
     </g>
     <g id="text_5">
      <!-- 20 -->
      <g transform="translate(312.270026 287.910437) scale(0.1 -0.1)">
       <use xlink:href="#DejaVuSans-32"/>
       <use xlink:href="#DejaVuSans-30" x="63.623047"/>
      </g>
     </g>
    </g>
    <g id="xtick_6">
     <g id="line2d_6">
      <g>
       <use xlink:href="#m948a8f2dab" x="388.352037" y="273.312" style="stroke: #000000; stroke-width: 0.8"/>
      </g>
     </g>
     <g id="text_6">
      <!-- 30 -->
      <g transform="translate(381.989537 287.910437) scale(0.1 -0.1)">
       <defs>
        <path id="DejaVuSans-33" d="M 2597 2516 
Q 3050 2419 3304 2112 
Q 3559 1806 3559 1356 
Q 3559 666 3084 287 
Q 2609 -91 1734 -91 
Q 1441 -91 1130 -33 
Q 819 25 488 141 
L 488 750 
Q 750 597 1062 519 
Q 1375 441 1716 441 
Q 2309 441 2620 675 
Q 2931 909 2931 1356 
Q 2931 1769 2642 2001 
Q 2353 2234 1838 2234 
L 1294 2234 
L 1294 2753 
L 1863 2753 
Q 2328 2753 2575 2939 
Q 2822 3125 2822 3475 
Q 2822 3834 2567 4026 
Q 2313 4219 1838 4219 
Q 1578 4219 1281 4162 
Q 984 4106 628 3988 
L 628 4550 
Q 988 4650 1302 4700 
Q 1616 4750 1894 4750 
Q 2613 4750 3031 4423 
Q 3450 4097 3450 3541 
Q 3450 3153 3228 2886 
Q 3006 2619 2597 2516 
z
" transform="scale(0.015625)"/>
       </defs>
       <use xlink:href="#DejaVuSans-33"/>
       <use xlink:href="#DejaVuSans-30" x="63.623047"/>
      </g>
     </g>
    </g>
   </g>
   <g id="matplotlib.axis_2">
    <g id="ytick_1">
     <g id="line2d_7">
      <defs>
       <path id="md1aa47469e" d="M 0 0 
L -3.5 0 
" style="stroke: #000000; stroke-width: 0.8"/>
      </defs>
      <g>
       <use xlink:href="#md1aa47469e" x="35.304688" y="263.587997" style="stroke: #000000; stroke-width: 0.8"/>
      </g>
     </g>
     <g id="text_7">
      <!-- −10 -->
      <g transform="translate(7.2 267.387216) scale(0.1 -0.1)">
       <use xlink:href="#DejaVuSans-2212"/>
       <use xlink:href="#DejaVuSans-31" x="83.789062"/>
       <use xlink:href="#DejaVuSans-30" x="147.412109"/>
      </g>
     </g>
    </g>
    <g id="ytick_2">
     <g id="line2d_8">
      <g>
       <use xlink:href="#md1aa47469e" x="35.304688" y="220.665165" style="stroke: #000000; stroke-width: 0.8"/>
      </g>
     </g>
     <g id="text_8">
      <!-- 0 -->
      <g transform="translate(21.942187 224.464384) scale(0.1 -0.1)">
       <use xlink:href="#DejaVuSans-30"/>
      </g>
     </g>
    </g>
    <g id="ytick_3">
     <g id="line2d_9">
      <g>
       <use xlink:href="#md1aa47469e" x="35.304688" y="177.742332" style="stroke: #000000; stroke-width: 0.8"/>
      </g>
     </g>
     <g id="text_9">
      <!-- 10 -->
      <g transform="translate(15.579687 181.541551) scale(0.1 -0.1)">
       <use xlink:href="#DejaVuSans-31"/>
       <use xlink:href="#DejaVuSans-30" x="63.623047"/>
      </g>
     </g>
    </g>
    <g id="ytick_4">
     <g id="line2d_10">
      <g>
       <use xlink:href="#md1aa47469e" x="35.304688" y="134.8195" style="stroke: #000000; stroke-width: 0.8"/>
      </g>
     </g>
     <g id="text_10">
      <!-- 20 -->
      <g transform="translate(15.579687 138.618719) scale(0.1 -0.1)">
       <use xlink:href="#DejaVuSans-32"/>
       <use xlink:href="#DejaVuSans-30" x="63.623047"/>
      </g>
     </g>
    </g>
    <g id="ytick_5">
     <g id="line2d_11">
      <g>
       <use xlink:href="#md1aa47469e" x="35.304688" y="91.896667" style="stroke: #000000; stroke-width: 0.8"/>
      </g>
     </g>
     <g id="text_11">
      <!-- 30 -->
      <g transform="translate(15.579687 95.695886) scale(0.1 -0.1)">
       <use xlink:href="#DejaVuSans-33"/>
       <use xlink:href="#DejaVuSans-30" x="63.623047"/>
      </g>
     </g>
    </g>
    <g id="ytick_6">
     <g id="line2d_12">
      <g>
       <use xlink:href="#md1aa47469e" x="35.304688" y="48.973835" style="stroke: #000000; stroke-width: 0.8"/>
      </g>
     </g>
     <g id="text_12">
      <!-- 40 -->
      <g transform="translate(15.579687 52.773054) scale(0.1 -0.1)">
       <defs>
        <path id="DejaVuSans-34" d="M 2419 4116 
L 825 1625 
L 2419 1625 
L 2419 4116 
z
M 2253 4666 
L 3047 4666 
L 3047 1625 
L 3713 1625 
L 3713 1100 
L 3047 1100 
L 3047 0 
L 2419 0 
L 2419 1100 
L 313 1100 
L 313 1709 
L 2253 4666 
z
" transform="scale(0.015625)"/>
       </defs>
       <use xlink:href="#DejaVuSans-34"/>
       <use xlink:href="#DejaVuSans-30" x="63.623047"/>
      </g>
     </g>
    </g>
   </g>
   <g id="patch_3">
    <path d="M 35.304688 273.312 
L 35.304688 7.2 
" style="fill: none; stroke: #000000; stroke-width: 0.8; stroke-linejoin: miter; stroke-linecap: square"/>
   </g>
   <g id="patch_4">
    <path d="M 392.424688 273.312 
L 392.424688 7.2 
" style="fill: none; stroke: #000000; stroke-width: 0.8; stroke-linejoin: miter; stroke-linecap: square"/>
   </g>
   <g id="patch_5">
    <path d="M 35.304688 273.312 
L 392.424687 273.312 
" style="fill: none; stroke: #000000; stroke-width: 0.8; stroke-linejoin: miter; stroke-linecap: square"/>
   </g>
   <g id="patch_6">
    <path d="M 35.304688 7.2 
L 392.424687 7.2 
" style="fill: none; stroke: #000000; stroke-width: 0.8; stroke-linejoin: miter; stroke-linecap: square"/>
   </g>
  </g>
 </g>
 <defs>
  <clipPath id="p9979931bce">
   <rect x="35.304688" y="7.2" width="357.12" height="266.112"/>
  </clipPath>
 </defs>
</svg>
