<?xml version="1.0" encoding="utf-8" standalone="no"?>
<!DOCTYPE svg PUBLIC "-//W3C//DTD SVG 1.1//EN"
  "http://www.w3.org/Graphics/SVG/1.1/DTD/svg11.dtd">
<svg xmlns:xlink="http://www.w3.org/1999/xlink" width="399.624687pt" height="297.190125pt" viewBox="0 0 399.624687 297.190125" xmlns="http://www.w3.org/2000/svg" version="1.1">
 <metadata>
  <rdf:RDF xmlns:dc="http://purl.org/dc/elements/1.1/" xmlns:cc="http://creativecommons.org/ns#" xmlns:rdf="http://www.w3.org/1999/02/22-rdf-syntax-ns#">
   <cc:Work>
    <dc:type rdf:resource="http://purl.org/dc/dcmitype/StillImage"/>
    <dc:date>2023-11-11T04:50:29.193304</dc:date>
    <dc:format>image/svg+xml</dc:format>
    <dc:creator>
     <cc:Agent>
      <dc:title>Matplotlib v3.8.0, https://matplotlib.org/</dc:title>
     </cc:Agent>
    </dc:creator>
   </cc:Work>
  </rdf:RDF>
 </metadata>
 <defs>
  <style type="text/css">*{stroke-linejoin: round; stroke-linecap: butt}</style>
 </defs>
 <g id="figure_1">
  <g id="patch_1">
   <path d="M 0 297.190125 
L 399.624687 297.190125 
L 399.624687 0 
L 0 0 
z
" style="fill: #ffffff"/>
  </g>
  <g id="axes_1">
   <g id="patch_2">
    <path d="M 35.304688 273.312 
L 392.424688 273.312 
L 392.424688 7.2 
L 35.304688 7.2 
z
" style="fill: #ffffff"/>
   </g>
   <g id="PathCollection_1">
    <defs>
     <path id="m4b99a0a2a3" d="M 0 1.5 
C 0.397805 1.5 0.77937 1.341951 1.06066 1.06066 
C 1.341951 0.77937 1.5 0.397805 1.5 0 
C 1.5 -0.397805 1.341951 -0.77937 1.06066 -1.06066 
C 0.77937 -1.341951 0.397805 -1.5 0 -1.5 
C -0.397805 -1.5 -0.77937 -1.341951 -1.06066 -1.06066 
C -1.341951 -0.77937 -1.5 -0.397805 -1.5 0 
C -1.5 0.397805 -1.341951 0.77937 -1.06066 1.06066 
C -0.77937 1.341951 -0.397805 1.5 0 1.5 
z
" style="stroke: #ff8c00"/>
    </defs>
    <g clip-path="url(#pe91533da14)">
     <use xlink:href="#m4b99a0a2a3" x="147.410222" y="113.638059" style="fill: #ff8c00; stroke: #ff8c00"/>
     <use xlink:href="#m4b99a0a2a3" x="125.418318" y="95.368292" style="fill: #ff8c00; stroke: #ff8c00"/>
     <use xlink:href="#m4b99a0a2a3" x="162.271542" y="120.170497" style="fill: #ff8c00; stroke: #ff8c00"/>
     <use xlink:href="#m4b99a0a2a3" x="160.710301" y="109.419903" style="fill: #ff8c00; stroke: #ff8c00"/>
     <use xlink:href="#m4b99a0a2a3" x="220.666363" y="109.614984" style="fill: #ff8c00; stroke: #ff8c00"/>
     <use xlink:href="#m4b99a0a2a3" x="217.686591" y="177.639387" style="fill: #ff8c00; stroke: #ff8c00"/>
     <use xlink:href="#m4b99a0a2a3" x="141.260231" y="144.531466" style="fill: #ff8c00; stroke: #ff8c00"/>
     <use xlink:href="#m4b99a0a2a3" x="201.559632" y="72.1418" style="fill: #ff8c00; stroke: #ff8c00"/>
    </g>
   </g>
   <g id="PathCollection_2">
    <defs>
     <path id="m9dcb3c81b8" d="M 0 1.5 
C 0.397805 1.5 0.77937 1.341951 1.06066 1.06066 
C 1.341951 0.77937 1.5 0.397805 1.5 0 
C 1.5 -0.397805 1.341951 -0.77937 1.06066 -1.06066 
C 0.77937 -1.341951 0.397805 -1.5 0 -1.5 
C -0.397805 -1.5 -0.77937 -1.341951 -1.06066 -1.06066 
C -1.341951 -0.77937 -1.5 -0.397805 -1.5 0 
C -1.5 0.397805 -1.341951 0.77937 -1.06066 1.06066 
C -0.77937 1.341951 -0.397805 1.5 0 1.5 
z
" style="stroke: #006400"/>
    </defs>
    <g clip-path="url(#pe91533da14)">
     <use xlink:href="#m9dcb3c81b8" x="276.592117" y="258.494276" style="fill: #006400; stroke: #006400"/>
     <use xlink:href="#m9dcb3c81b8" x="336.786762" y="185.462112" style="fill: #006400; stroke: #006400"/>
     <use xlink:href="#m9dcb3c81b8" x="221.841925" y="170.898768" style="fill: #006400; stroke: #006400"/>
     <use xlink:href="#m9dcb3c81b8" x="337.019458" y="171.599418" style="fill: #006400; stroke: #006400"/>
     <use xlink:href="#m9dcb3c81b8" x="276.514178" y="212.180745" style="fill: #006400; stroke: #006400"/>
     <use xlink:href="#m9dcb3c81b8" x="339.123193" y="257.468286" style="fill: #006400; stroke: #006400"/>
     <use xlink:href="#m9dcb3c81b8" x="281.143812" y="145.56098" style="fill: #006400; stroke: #006400"/>
     <use xlink:href="#m9dcb3c81b8" x="226.549449" y="195.24859" style="fill: #006400; stroke: #006400"/>
     <use xlink:href="#m9dcb3c81b8" x="376.19196" y="202.16386" style="fill: #006400; stroke: #006400"/>
     <use xlink:href="#m9dcb3c81b8" x="303.597267" y="139.556597" style="fill: #006400; stroke: #006400"/>
     <use xlink:href="#m9dcb3c81b8" x="260.129792" y="169.04846" style="fill: #006400; stroke: #006400"/>
     <use xlink:href="#m9dcb3c81b8" x="227.629017" y="193.579834" style="fill: #006400; stroke: #006400"/>
     <use xlink:href="#m9dcb3c81b8" x="223.08097" y="142.960135" style="fill: #006400; stroke: #006400"/>
     <use xlink:href="#m9dcb3c81b8" x="269.001444" y="209.380684" style="fill: #006400; stroke: #006400"/>
     <use xlink:href="#m9dcb3c81b8" x="235.138322" y="170.496238" style="fill: #006400; stroke: #006400"/>
     <use xlink:href="#m9dcb3c81b8" x="235.069431" y="147.822042" style="fill: #006400; stroke: #006400"/>
     <use xlink:href="#m9dcb3c81b8" x="221.943163" y="113.527146" style="fill: #006400; stroke: #006400"/>
     <use xlink:href="#m9dcb3c81b8" x="298.343974" y="167.600776" style="fill: #006400; stroke: #006400"/>
     <use xlink:href="#m9dcb3c81b8" x="234.877804" y="196.0042" style="fill: #006400; stroke: #006400"/>
    </g>
   </g>
   <g id="PathCollection_3">
    <defs>
     <path id="m26f463ba3e" d="M 0 1.5 
C 0.397805 1.5 0.77937 1.341951 1.06066 1.06066 
C 1.341951 0.77937 1.5 0.397805 1.5 0 
C 1.5 -0.397805 1.341951 -0.77937 1.06066 -1.06066 
C 0.77937 -1.341951 0.397805 -1.5 0 -1.5 
C -0.397805 -1.5 -0.77937 -1.341951 -1.06066 -1.06066 
C -1.341951 -0.77937 -1.5 -0.397805 -1.5 0 
C -1.5 0.397805 -1.341951 0.77937 -1.06066 1.06066 
C -0.77937 1.341951 -0.397805 1.5 0 1.5 
z
" style="stroke: #2f4f4f"/>
    </defs>
    <g clip-path="url(#pe91533da14)">
     <use xlink:href="#m26f463ba3e" x="130.401557" y="148.674428" style="fill: #2f4f4f; stroke: #2f4f4f"/>
     <use xlink:href="#m26f463ba3e" x="109.960457" y="100.596342" style="fill: #2f4f4f; stroke: #2f4f4f"/>
     <use xlink:href="#m26f463ba3e" x="128.043745" y="101.114808" style="fill: #2f4f4f; stroke: #2f4f4f"/>
     <use xlink:href="#m26f463ba3e" x="92.547341" y="166.507992" style="fill: #2f4f4f; stroke: #2f4f4f"/>
     <use xlink:href="#m26f463ba3e" x="121.82836" y="122.723828" style="fill: #2f4f4f; stroke: #2f4f4f"/>
     <use xlink:href="#m26f463ba3e" x="141.425521" y="129.302485" style="fill: #2f4f4f; stroke: #2f4f4f"/>
     <use xlink:href="#m26f463ba3e" x="169.972259" y="105.007693" style="fill: #2f4f4f; stroke: #2f4f4f"/>
     <use xlink:href="#m26f463ba3e" x="123.734638" y="121.035782" style="fill: #2f4f4f; stroke: #2f4f4f"/>
     <use xlink:href="#m26f463ba3e" x="75.923216" y="107.810382" style="fill: #2f4f4f; stroke: #2f4f4f"/>
     <use xlink:href="#m26f463ba3e" x="133.60714" y="67.104158" style="fill: #2f4f4f; stroke: #2f4f4f"/>
     <use xlink:href="#m26f463ba3e" x="185.287372" y="115.492303" style="fill: #2f4f4f; stroke: #2f4f4f"/>
    </g>
   </g>
   <g id="PathCollection_4">
    <defs>
     <path id="mb589084887" d="M 0 1.5 
C 0.397805 1.5 0.77937 1.341951 1.06066 1.06066 
C 1.341951 0.77937 1.5 0.397805 1.5 0 
C 1.5 -0.397805 1.341951 -0.77937 1.06066 -1.06066 
C 0.77937 -1.341951 0.397805 -1.5 0 -1.5 
C -0.397805 -1.5 -0.77937 -1.341951 -1.06066 -1.06066 
C -1.341951 -0.77937 -1.5 -0.397805 -1.5 0 
C -1.5 0.397805 -1.341951 0.77937 -1.06066 1.06066 
C -0.77937 1.341951 -0.397805 1.5 0 1.5 
z
" style="stroke: #00bfff"/>
    </defs>
    <g clip-path="url(#pe91533da14)">
     <use xlink:href="#mb589084887" x="156.179888" y="53.639623" style="fill: #00bfff; stroke: #00bfff"/>
     <use xlink:href="#mb589084887" x="107.525185" y="144.366426" style="fill: #00bfff; stroke: #00bfff"/>
     <use xlink:href="#mb589084887" x="85.561577" y="99.886367" style="fill: #00bfff; stroke: #00bfff"/>
     <use xlink:href="#mb589084887" x="158.889523" y="129.109058" style="fill: #00bfff; stroke: #00bfff"/>
     <use xlink:href="#mb589084887" x="154.52362" y="48.865827" style="fill: #00bfff; stroke: #00bfff"/>
     <use xlink:href="#mb589084887" x="116.813428" y="67.135285" style="fill: #00bfff; stroke: #00bfff"/>
     <use xlink:href="#mb589084887" x="137.283553" y="70.249016" style="fill: #00bfff; stroke: #00bfff"/>
     <use xlink:href="#mb589084887" x="115.47807" y="65.657949" style="fill: #00bfff; stroke: #00bfff"/>
     <use xlink:href="#mb589084887" x="265.501445" y="117.299707" style="fill: #00bfff; stroke: #00bfff"/>
     <use xlink:href="#mb589084887" x="122.939035" y="82.281268" style="fill: #00bfff; stroke: #00bfff"/>
     <use xlink:href="#mb589084887" x="109.075965" y="110.778874" style="fill: #00bfff; stroke: #00bfff"/>
    </g>
   </g>
   <g id="PathCollection_5">
    <defs>
     <path id="m40c5ee2101" d="M 0 1.5 
C 0.397805 1.5 0.77937 1.341951 1.06066 1.06066 
C 1.341951 0.77937 1.5 0.397805 1.5 0 
C 1.5 -0.397805 1.341951 -0.77937 1.06066 -1.06066 
C 0.77937 -1.341951 0.397805 -1.5 0 -1.5 
C -0.397805 -1.5 -0.77937 -1.341951 -1.06066 -1.06066 
C -1.341951 -0.77937 -1.5 -0.397805 -1.5 0 
C -1.5 0.397805 -1.341951 0.77937 -1.06066 1.06066 
C -0.77937 1.341951 -0.397805 1.5 0 1.5 
z
" style="stroke: #ffff00"/>
    </defs>
    <g clip-path="url(#pe91533da14)">
     <use xlink:href="#m40c5ee2101" x="114.969234" y="174.580299" style="fill: #ffff00; stroke: #ffff00"/>
     <use xlink:href="#m40c5ee2101" x="133.561709" y="141.939347" style="fill: #ffff00; stroke: #ffff00"/>
     <use xlink:href="#m40c5ee2101" x="53.658452" y="190.030743" style="fill: #ffff00; stroke: #ffff00"/>
     <use xlink:href="#m40c5ee2101" x="57.278089" y="171.709913" style="fill: #ffff00; stroke: #ffff00"/>
     <use xlink:href="#m40c5ee2101" x="89.721263" y="115.824725" style="fill: #ffff00; stroke: #ffff00"/>
     <use xlink:href="#m40c5ee2101" x="113.087022" y="172.950841" style="fill: #ffff00; stroke: #ffff00"/>
     <use xlink:href="#m40c5ee2101" x="119.680276" y="183.128769" style="fill: #ffff00; stroke: #ffff00"/>
     <use xlink:href="#m40c5ee2101" x="110.104544" y="89.619794" style="fill: #ffff00; stroke: #ffff00"/>
     <use xlink:href="#m40c5ee2101" x="145.525977" y="133.801962" style="fill: #ffff00; stroke: #ffff00"/>
     <use xlink:href="#m40c5ee2101" x="75.804962" y="102.378299" style="fill: #ffff00; stroke: #ffff00"/>
     <use xlink:href="#m40c5ee2101" x="109.809476" y="179.381032" style="fill: #ffff00; stroke: #ffff00"/>
    </g>
   </g>
   <g id="PathCollection_6">
    <defs>
     <path id="m3742c73d67" d="M 0 1.5 
C 0.397805 1.5 0.77937 1.341951 1.06066 1.06066 
C 1.341951 0.77937 1.5 0.397805 1.5 0 
C 1.5 -0.397805 1.341951 -0.77937 1.06066 -1.06066 
C 0.77937 -1.341951 0.397805 -1.5 0 -1.5 
C -0.397805 -1.5 -0.77937 -1.341951 -1.06066 -1.06066 
C -1.341951 -0.77937 -1.5 -0.397805 -1.5 0 
C -1.5 0.397805 -1.341951 0.77937 -1.06066 1.06066 
C -0.77937 1.341951 -0.397805 1.5 0 1.5 
z
" style="stroke: #00ffff"/>
    </defs>
    <g clip-path="url(#pe91533da14)">
     <use xlink:href="#m3742c73d67" x="163.705302" y="39.0535" style="fill: #00ffff; stroke: #00ffff"/>
     <use xlink:href="#m3742c73d67" x="112.74368" y="94.129835" style="fill: #00ffff; stroke: #00ffff"/>
     <use xlink:href="#m3742c73d67" x="168.554988" y="115.525947" style="fill: #00ffff; stroke: #00ffff"/>
     <use xlink:href="#m3742c73d67" x="149.638103" y="50.421432" style="fill: #00ffff; stroke: #00ffff"/>
     <use xlink:href="#m3742c73d67" x="89.656393" y="69.160012" style="fill: #00ffff; stroke: #00ffff"/>
     <use xlink:href="#m3742c73d67" x="117.105169" y="59.754834" style="fill: #00ffff; stroke: #00ffff"/>
     <use xlink:href="#m3742c73d67" x="154.990089" y="134.882548" style="fill: #00ffff; stroke: #00ffff"/>
     <use xlink:href="#m3742c73d67" x="106.338925" y="76.291173" style="fill: #00ffff; stroke: #00ffff"/>
     <use xlink:href="#m3742c73d67" x="104.576928" y="64.605821" style="fill: #00ffff; stroke: #00ffff"/>
     <use xlink:href="#m3742c73d67" x="97.781495" y="82.337128" style="fill: #00ffff; stroke: #00ffff"/>
     <use xlink:href="#m3742c73d67" x="172.321368" y="19.296" style="fill: #00ffff; stroke: #00ffff"/>
     <use xlink:href="#m3742c73d67" x="102.647171" y="77.45632" style="fill: #00ffff; stroke: #00ffff"/>
     <use xlink:href="#m3742c73d67" x="127.530589" y="78.701703" style="fill: #00ffff; stroke: #00ffff"/>
     <use xlink:href="#m3742c73d67" x="116.122712" y="48.16678" style="fill: #00ffff; stroke: #00ffff"/>
     <use xlink:href="#m3742c73d67" x="126.751124" y="64.994152" style="fill: #00ffff; stroke: #00ffff"/>
     <use xlink:href="#m3742c73d67" x="161.676971" y="79.768959" style="fill: #00ffff; stroke: #00ffff"/>
     <use xlink:href="#m3742c73d67" x="131.074291" y="69.309336" style="fill: #00ffff; stroke: #00ffff"/>
     <use xlink:href="#m3742c73d67" x="118.417693" y="67.423705" style="fill: #00ffff; stroke: #00ffff"/>
     <use xlink:href="#m3742c73d67" x="132.346073" y="64.146768" style="fill: #00ffff; stroke: #00ffff"/>
     <use xlink:href="#m3742c73d67" x="159.788165" y="72.047075" style="fill: #00ffff; stroke: #00ffff"/>
    </g>
   </g>
   <g id="PathCollection_7">
    <defs>
     <path id="m1ff1a9576f" d="M 0 1.5 
C 0.397805 1.5 0.77937 1.341951 1.06066 1.06066 
C 1.341951 0.77937 1.5 0.397805 1.5 0 
C 1.5 -0.397805 1.341951 -0.77937 1.06066 -1.06066 
C 0.77937 -1.341951 0.397805 -1.5 0 -1.5 
C -0.397805 -1.5 -0.77937 -1.341951 -1.06066 -1.06066 
C -1.341951 -0.77937 -1.5 -0.397805 -1.5 0 
C -1.5 0.397805 -1.341951 0.77937 -1.06066 1.06066 
C -0.77937 1.341951 -0.397805 1.5 0 1.5 
z
" style="stroke: #0000ff"/>
    </defs>
    <g clip-path="url(#pe91533da14)">
     <use xlink:href="#m1ff1a9576f" x="89.540172" y="179.237365" style="fill: #0000ff; stroke: #0000ff"/>
     <use xlink:href="#m1ff1a9576f" x="100.498813" y="101.551865" style="fill: #0000ff; stroke: #0000ff"/>
     <use xlink:href="#m1ff1a9576f" x="211.977937" y="112.097488" style="fill: #0000ff; stroke: #0000ff"/>
     <use xlink:href="#m1ff1a9576f" x="191.845083" y="165.31961" style="fill: #0000ff; stroke: #0000ff"/>
     <use xlink:href="#m1ff1a9576f" x="125.64548" y="99.609953" style="fill: #0000ff; stroke: #0000ff"/>
     <use xlink:href="#m1ff1a9576f" x="101.704255" y="117.96996" style="fill: #0000ff; stroke: #0000ff"/>
     <use xlink:href="#m1ff1a9576f" x="85.44828" y="78.756227" style="fill: #0000ff; stroke: #0000ff"/>
     <use xlink:href="#m1ff1a9576f" x="110.587938" y="97.056302" style="fill: #0000ff; stroke: #0000ff"/>
     <use xlink:href="#m1ff1a9576f" x="109.777575" y="113.029215" style="fill: #0000ff; stroke: #0000ff"/>
     <use xlink:href="#m1ff1a9576f" x="176.291596" y="161.327495" style="fill: #0000ff; stroke: #0000ff"/>
     <use xlink:href="#m1ff1a9576f" x="136.903864" y="133.147058" style="fill: #0000ff; stroke: #0000ff"/>
     <use xlink:href="#m1ff1a9576f" x="120.933153" y="61.539255" style="fill: #0000ff; stroke: #0000ff"/>
    </g>
   </g>
   <g id="PathCollection_8">
    <defs>
     <path id="mbe8817d66b" d="M 0 1.5 
C 0.397805 1.5 0.77937 1.341951 1.06066 1.06066 
C 1.341951 0.77937 1.5 0.397805 1.5 0 
C 1.5 -0.397805 1.341951 -0.77937 1.06066 -1.06066 
C 0.77937 -1.341951 0.397805 -1.5 0 -1.5 
C -0.397805 -1.5 -0.77937 -1.341951 -1.06066 -1.06066 
C -1.341951 -0.77937 -1.5 -0.397805 -1.5 0 
C -1.5 0.397805 -1.341951 0.77937 -1.06066 1.06066 
C -0.77937 1.341951 -0.397805 1.5 0 1.5 
z
" style="stroke: #dc143c"/>
    </defs>
    <g clip-path="url(#pe91533da14)">
     <use xlink:href="#mbe8817d66b" x="185.27425" y="94.376568" style="fill: #dc143c; stroke: #dc143c"/>
     <use xlink:href="#mbe8817d66b" x="310.079239" y="139.849572" style="fill: #dc143c; stroke: #dc143c"/>
     <use xlink:href="#mbe8817d66b" x="207.356516" y="109.151815" style="fill: #dc143c; stroke: #dc143c"/>
     <use xlink:href="#mbe8817d66b" x="167.467233" y="121.223317" style="fill: #dc143c; stroke: #dc143c"/>
     <use xlink:href="#mbe8817d66b" x="166.870691" y="93.312218" style="fill: #dc143c; stroke: #dc143c"/>
     <use xlink:href="#mbe8817d66b" x="187.621856" y="96.151232" style="fill: #dc143c; stroke: #dc143c"/>
     <use xlink:href="#mbe8817d66b" x="178.602867" y="148.996721" style="fill: #dc143c; stroke: #dc143c"/>
     <use xlink:href="#mbe8817d66b" x="151.202182" y="107.638474" style="fill: #dc143c; stroke: #dc143c"/>
     <use xlink:href="#mbe8817d66b" x="193.92176" y="98.677916" style="fill: #dc143c; stroke: #dc143c"/>
     <use xlink:href="#mbe8817d66b" x="116.53312" y="99.075516" style="fill: #dc143c; stroke: #dc143c"/>
     <use xlink:href="#mbe8817d66b" x="223.175589" y="128.264488" style="fill: #dc143c; stroke: #dc143c"/>
     <use xlink:href="#mbe8817d66b" x="259.261601" y="115.535075" style="fill: #dc143c; stroke: #dc143c"/>
     <use xlink:href="#mbe8817d66b" x="217.076709" y="95.405065" style="fill: #dc143c; stroke: #dc143c"/>
     <use xlink:href="#mbe8817d66b" x="206.058283" y="172.700767" style="fill: #dc143c; stroke: #dc143c"/>
     <use xlink:href="#mbe8817d66b" x="130.945621" y="72.041927" style="fill: #dc143c; stroke: #dc143c"/>
    </g>
   </g>
   <g id="PathCollection_9">
    <defs>
     <path id="m2b243ac778" d="M 0 1.5 
C 0.397805 1.5 0.77937 1.341951 1.06066 1.06066 
C 1.341951 0.77937 1.5 0.397805 1.5 0 
C 1.5 -0.397805 1.341951 -0.77937 1.06066 -1.06066 
C 0.77937 -1.341951 0.397805 -1.5 0 -1.5 
C -0.397805 -1.5 -0.77937 -1.341951 -1.06066 -1.06066 
C -1.341951 -0.77937 -1.5 -0.397805 -1.5 0 
C -1.5 0.397805 -1.341951 0.77937 -1.06066 1.06066 
C -0.77937 1.341951 -0.397805 1.5 0 1.5 
z
" style="stroke: #ffe4c4"/>
    </defs>
    <g clip-path="url(#pe91533da14)">
     <use xlink:href="#m2b243ac778" x="129.13348" y="67.68055" style="fill: #ffe4c4; stroke: #ffe4c4"/>
     <use xlink:href="#m2b243ac778" x="230.16025" y="164.960993" style="fill: #ffe4c4; stroke: #ffe4c4"/>
     <use xlink:href="#m2b243ac778" x="235.88691" y="154.661431" style="fill: #ffe4c4; stroke: #ffe4c4"/>
     <use xlink:href="#m2b243ac778" x="264.641917" y="146.019529" style="fill: #ffe4c4; stroke: #ffe4c4"/>
     <use xlink:href="#m2b243ac778" x="238.034331" y="165.632993" style="fill: #ffe4c4; stroke: #ffe4c4"/>
     <use xlink:href="#m2b243ac778" x="363.990273" y="217.703533" style="fill: #ffe4c4; stroke: #ffe4c4"/>
     <use xlink:href="#m2b243ac778" x="182.986471" y="105.177213" style="fill: #ffe4c4; stroke: #ffe4c4"/>
     <use xlink:href="#m2b243ac778" x="197.733846" y="154.055563" style="fill: #ffe4c4; stroke: #ffe4c4"/>
     <use xlink:href="#m2b243ac778" x="177.394713" y="65.903889" style="fill: #ffe4c4; stroke: #ffe4c4"/>
     <use xlink:href="#m2b243ac778" x="235.254163" y="115.928855" style="fill: #ffe4c4; stroke: #ffe4c4"/>
     <use xlink:href="#m2b243ac778" x="212.494066" y="171.740776" style="fill: #ffe4c4; stroke: #ffe4c4"/>
     <use xlink:href="#m2b243ac778" x="163.096357" y="129.396112" style="fill: #ffe4c4; stroke: #ffe4c4"/>
     <use xlink:href="#m2b243ac778" x="175.214014" y="143.532024" style="fill: #ffe4c4; stroke: #ffe4c4"/>
     <use xlink:href="#m2b243ac778" x="186.827824" y="109.48344" style="fill: #ffe4c4; stroke: #ffe4c4"/>
     <use xlink:href="#m2b243ac778" x="257.253344" y="154.480636" style="fill: #ffe4c4; stroke: #ffe4c4"/>
     <use xlink:href="#m2b243ac778" x="232.701782" y="181.077737" style="fill: #ffe4c4; stroke: #ffe4c4"/>
     <use xlink:href="#m2b243ac778" x="259.817619" y="209.529515" style="fill: #ffe4c4; stroke: #ffe4c4"/>
     <use xlink:href="#m2b243ac778" x="299.760912" y="166.759508" style="fill: #ffe4c4; stroke: #ffe4c4"/>
     <use xlink:href="#m2b243ac778" x="198.49156" y="214.016014" style="fill: #ffe4c4; stroke: #ffe4c4"/>
     <use xlink:href="#m2b243ac778" x="187.296095" y="131.288278" style="fill: #ffe4c4; stroke: #ffe4c4"/>
     <use xlink:href="#m2b243ac778" x="213.017664" y="186.745282" style="fill: #ffe4c4; stroke: #ffe4c4"/>
    </g>
   </g>
   <g id="PathCollection_10">
    <defs>
     <path id="m12c84eb3e7" d="M -2.99994 2.99994 
L 3.00006 2.99994 
L 3.00006 -3.00006 
L -2.99994 -3.00006 
z
" style="stroke: #000000"/>
    </defs>
    <g clip-path="url(#pe91533da14)">
     <use xlink:href="#m12c84eb3e7" x="135.057043" y="196.446504" style="stroke: #000000"/>
     <use xlink:href="#m12c84eb3e7" x="131.565829" y="139.069035" style="stroke: #000000"/>
     <use xlink:href="#m12c84eb3e7" x="85.591985" y="180.529765" style="stroke: #000000"/>
     <use xlink:href="#m12c84eb3e7" x="108.835813" y="209.777839" style="stroke: #000000"/>
     <use xlink:href="#m12c84eb3e7" x="87.950696" y="163.707885" style="stroke: #000000"/>
     <use xlink:href="#m12c84eb3e7" x="82.38272" y="196.669955" style="stroke: #000000"/>
     <use xlink:href="#m12c84eb3e7" x="89.59268" y="189.039722" style="stroke: #000000"/>
     <use xlink:href="#m12c84eb3e7" x="154.02803" y="97.331304" style="stroke: #000000"/>
     <use xlink:href="#m12c84eb3e7" x="133.533748" y="116.925775" style="stroke: #000000"/>
     <use xlink:href="#m12c84eb3e7" x="70.61872" y="176.184447" style="stroke: #000000"/>
     <use xlink:href="#m12c84eb3e7" x="142.339581" y="148.649049" style="stroke: #000000"/>
     <use xlink:href="#m12c84eb3e7" x="100.566685" y="174.427897" style="stroke: #000000"/>
     <use xlink:href="#m12c84eb3e7" x="131.708036" y="131.469699" style="stroke: #000000"/>
     <use xlink:href="#m12c84eb3e7" x="71.084071" y="155.366176" style="stroke: #000000"/>
     <use xlink:href="#m12c84eb3e7" x="150.275474" y="160.399941" style="stroke: #000000"/>
     <use xlink:href="#m12c84eb3e7" x="127.986804" y="94.734274" style="stroke: #000000"/>
     <use xlink:href="#m12c84eb3e7" x="59.59833" y="200.301173" style="stroke: #000000"/>
     <use xlink:href="#m12c84eb3e7" x="180.533537" y="179.321671" style="stroke: #000000"/>
     <use xlink:href="#m12c84eb3e7" x="90.299587" y="153.548292" style="stroke: #000000"/>
     <use xlink:href="#m12c84eb3e7" x="141.297659" y="186.933065" style="stroke: #000000"/>
     <use xlink:href="#m12c84eb3e7" x="92.718186" y="152.399533" style="stroke: #000000"/>
     <use xlink:href="#m12c84eb3e7" x="130.055453" y="214.700109" style="stroke: #000000"/>
     <use xlink:href="#m12c84eb3e7" x="88.986169" y="117.456536" style="stroke: #000000"/>
     <use xlink:href="#m12c84eb3e7" x="59.115202" y="193.544268" style="stroke: #000000"/>
     <use xlink:href="#m12c84eb3e7" x="171.549954" y="122.542411" style="stroke: #000000"/>
     <use xlink:href="#m12c84eb3e7" x="75.099696" y="166.045433" style="stroke: #000000"/>
     <use xlink:href="#m12c84eb3e7" x="94.392002" y="126.037303" style="stroke: #000000"/>
     <use xlink:href="#m12c84eb3e7" x="127.494133" y="142.202755" style="stroke: #000000"/>
     <use xlink:href="#m12c84eb3e7" x="117.603022" y="146.447097" style="stroke: #000000"/>
     <use xlink:href="#m12c84eb3e7" x="102.239883" y="174.682804" style="stroke: #000000"/>
     <use xlink:href="#m12c84eb3e7" x="63.43493" y="172.177743" style="stroke: #000000"/>
     <use xlink:href="#m12c84eb3e7" x="105.452572" y="186.589282" style="stroke: #000000"/>
     <use xlink:href="#m12c84eb3e7" x="129.211478" y="186.440501" style="stroke: #000000"/>
     <use xlink:href="#m12c84eb3e7" x="118.306478" y="161.024588" style="stroke: #000000"/>
     <use xlink:href="#m12c84eb3e7" x="146.516884" y="155.726803" style="stroke: #000000"/>
     <use xlink:href="#m12c84eb3e7" x="99.388755" y="155.738265" style="stroke: #000000"/>
     <use xlink:href="#m12c84eb3e7" x="102.227142" y="113.632466" style="stroke: #000000"/>
     <use xlink:href="#m12c84eb3e7" x="113.9537" y="202.241537" style="stroke: #000000"/>
     <use xlink:href="#m12c84eb3e7" x="145.749641" y="217.590378" style="stroke: #000000"/>
     <use xlink:href="#m12c84eb3e7" x="103.943318" y="206.461305" style="stroke: #000000"/>
     <use xlink:href="#m12c84eb3e7" x="64.746834" y="187.105718" style="stroke: #000000"/>
     <use xlink:href="#m12c84eb3e7" x="135.197306" y="158.048492" style="stroke: #000000"/>
     <use xlink:href="#m12c84eb3e7" x="105.595692" y="103.360416" style="stroke: #000000"/>
     <use xlink:href="#m12c84eb3e7" x="181.082111" y="160.036723" style="stroke: #000000"/>
     <use xlink:href="#m12c84eb3e7" x="95.236342" y="219.474111" style="stroke: #000000"/>
     <use xlink:href="#m12c84eb3e7" x="183.630475" y="108.428297" style="stroke: #000000"/>
     <use xlink:href="#m12c84eb3e7" x="142.047233" y="180.345505" style="stroke: #000000"/>
     <use xlink:href="#m12c84eb3e7" x="97.410489" y="118.645822" style="stroke: #000000"/>
     <use xlink:href="#m12c84eb3e7" x="93.323363" y="174.654559" style="stroke: #000000"/>
     <use xlink:href="#m12c84eb3e7" x="105.655453" y="220.365668" style="stroke: #000000"/>
     <use xlink:href="#m12c84eb3e7" x="112.312941" y="140.737154" style="stroke: #000000"/>
     <use xlink:href="#m12c84eb3e7" x="88.7228" y="187.834707" style="stroke: #000000"/>
     <use xlink:href="#m12c84eb3e7" x="75.958885" y="191.418631" style="stroke: #000000"/>
     <use xlink:href="#m12c84eb3e7" x="52.385195" y="169.106725" style="stroke: #000000"/>
     <use xlink:href="#m12c84eb3e7" x="203.930586" y="132.141275" style="stroke: #000000"/>
     <use xlink:href="#m12c84eb3e7" x="145.583174" y="141.39963" style="stroke: #000000"/>
     <use xlink:href="#m12c84eb3e7" x="100.021269" y="178.361603" style="stroke: #000000"/>
     <use xlink:href="#m12c84eb3e7" x="92.812253" y="142.540681" style="stroke: #000000"/>
     <use xlink:href="#m12c84eb3e7" x="75.449791" y="190.182471" style="stroke: #000000"/>
     <use xlink:href="#m12c84eb3e7" x="119.322393" y="139.676493" style="stroke: #000000"/>
     <use xlink:href="#m12c84eb3e7" x="71.781806" y="173.281372" style="stroke: #000000"/>
     <use xlink:href="#m12c84eb3e7" x="114.127005" y="182.065915" style="stroke: #000000"/>
     <use xlink:href="#m12c84eb3e7" x="101.147431" y="129.808222" style="stroke: #000000"/>
     <use xlink:href="#m12c84eb3e7" x="64.360305" y="244.995069" style="stroke: #000000"/>
    </g>
   </g>
   <g id="PathCollection_11">
    <defs>
     <path id="mdf4133a42e" d="M -3 -0 
L 3 3 
L 3 -3 
z
" style="stroke: #ff8c00"/>
    </defs>
    <g clip-path="url(#pe91533da14)">
     <use xlink:href="#mdf4133a42e" x="160.347462" y="70.897868" style="fill: #ff8c00; stroke: #ff8c00"/>
     <use xlink:href="#mdf4133a42e" x="109.136283" y="152.952083" style="fill: #ff8c00; stroke: #ff8c00"/>
     <use xlink:href="#mdf4133a42e" x="154.999692" y="146.923089" style="fill: #ff8c00; stroke: #ff8c00"/>
     <use xlink:href="#mdf4133a42e" x="119.915711" y="121.056665" style="fill: #ff8c00; stroke: #ff8c00"/>
     <use xlink:href="#mdf4133a42e" x="89.574556" y="198.168109" style="fill: #ff8c00; stroke: #ff8c00"/>
     <use xlink:href="#mdf4133a42e" x="88.504907" y="145.826187" style="fill: #ff8c00; stroke: #ff8c00"/>
     <use xlink:href="#mdf4133a42e" x="104.198069" y="139.850387" style="fill: #ff8c00; stroke: #ff8c00"/>
     <use xlink:href="#mdf4133a42e" x="131.977368" y="143.068185" style="fill: #ff8c00; stroke: #ff8c00"/>
     <use xlink:href="#mdf4133a42e" x="74.444235" y="163.72566" style="fill: #ff8c00; stroke: #ff8c00"/>
     <use xlink:href="#mdf4133a42e" x="121.42691" y="113.323226" style="fill: #ff8c00; stroke: #ff8c00"/>
     <use xlink:href="#mdf4133a42e" x="132.679242" y="164.112077" style="fill: #ff8c00; stroke: #ff8c00"/>
     <use xlink:href="#mdf4133a42e" x="110.69763" y="121.835219" style="fill: #ff8c00; stroke: #ff8c00"/>
     <use xlink:href="#mdf4133a42e" x="122.105279" y="162.967454" style="fill: #ff8c00; stroke: #ff8c00"/>
     <use xlink:href="#mdf4133a42e" x="61.034688" y="184.353402" style="fill: #ff8c00; stroke: #ff8c00"/>
     <use xlink:href="#mdf4133a42e" x="98.666739" y="127.406322" style="fill: #ff8c00; stroke: #ff8c00"/>
     <use xlink:href="#mdf4133a42e" x="51.537415" y="214.624695" style="fill: #ff8c00; stroke: #ff8c00"/>
     <use xlink:href="#mdf4133a42e" x="82.136006" y="200.015392" style="fill: #ff8c00; stroke: #ff8c00"/>
     <use xlink:href="#mdf4133a42e" x="139.886941" y="168.920681" style="fill: #ff8c00; stroke: #ff8c00"/>
     <use xlink:href="#mdf4133a42e" x="84.124498" y="173.01172" style="fill: #ff8c00; stroke: #ff8c00"/>
     <use xlink:href="#mdf4133a42e" x="123.090481" y="138.650901" style="fill: #ff8c00; stroke: #ff8c00"/>
     <use xlink:href="#mdf4133a42e" x="100.851636" y="151.678483" style="fill: #ff8c00; stroke: #ff8c00"/>
     <use xlink:href="#mdf4133a42e" x="124.719394" y="157.262602" style="fill: #ff8c00; stroke: #ff8c00"/>
     <use xlink:href="#mdf4133a42e" x="109.299926" y="196.176207" style="fill: #ff8c00; stroke: #ff8c00"/>
     <use xlink:href="#mdf4133a42e" x="101.421796" y="173.223674" style="fill: #ff8c00; stroke: #ff8c00"/>
     <use xlink:href="#mdf4133a42e" x="104.049951" y="99.004233" style="fill: #ff8c00; stroke: #ff8c00"/>
     <use xlink:href="#mdf4133a42e" x="173.545796" y="147.206011" style="fill: #ff8c00; stroke: #ff8c00"/>
     <use xlink:href="#mdf4133a42e" x="126.18576" y="200.040239" style="fill: #ff8c00; stroke: #ff8c00"/>
     <use xlink:href="#mdf4133a42e" x="109.906527" y="122.409595" style="fill: #ff8c00; stroke: #ff8c00"/>
     <use xlink:href="#mdf4133a42e" x="134.514537" y="196.742233" style="fill: #ff8c00; stroke: #ff8c00"/>
     <use xlink:href="#mdf4133a42e" x="125.804041" y="136.275534" style="fill: #ff8c00; stroke: #ff8c00"/>
     <use xlink:href="#mdf4133a42e" x="105.356774" y="204.248722" style="fill: #ff8c00; stroke: #ff8c00"/>
     <use xlink:href="#mdf4133a42e" x="176.958605" y="151.70527" style="fill: #ff8c00; stroke: #ff8c00"/>
     <use xlink:href="#mdf4133a42e" x="93.10563" y="154.667737" style="fill: #ff8c00; stroke: #ff8c00"/>
     <use xlink:href="#mdf4133a42e" x="139.20453" y="139.495788" style="fill: #ff8c00; stroke: #ff8c00"/>
     <use xlink:href="#mdf4133a42e" x="104.58814" y="226.083373" style="fill: #ff8c00; stroke: #ff8c00"/>
     <use xlink:href="#mdf4133a42e" x="79.561349" y="223.328867" style="fill: #ff8c00; stroke: #ff8c00"/>
     <use xlink:href="#mdf4133a42e" x="164.391711" y="96.254048" style="fill: #ff8c00; stroke: #ff8c00"/>
     <use xlink:href="#mdf4133a42e" x="136.676878" y="183.101341" style="fill: #ff8c00; stroke: #ff8c00"/>
     <use xlink:href="#mdf4133a42e" x="86.079714" y="180.476673" style="fill: #ff8c00; stroke: #ff8c00"/>
     <use xlink:href="#mdf4133a42e" x="69.274576" y="165.425876" style="fill: #ff8c00; stroke: #ff8c00"/>
     <use xlink:href="#mdf4133a42e" x="68.69655" y="216.870523" style="fill: #ff8c00; stroke: #ff8c00"/>
     <use xlink:href="#mdf4133a42e" x="59.538683" y="190.72471" style="fill: #ff8c00; stroke: #ff8c00"/>
     <use xlink:href="#mdf4133a42e" x="81.665023" y="179.453618" style="fill: #ff8c00; stroke: #ff8c00"/>
     <use xlink:href="#mdf4133a42e" x="126.866412" y="142.764271" style="fill: #ff8c00; stroke: #ff8c00"/>
     <use xlink:href="#mdf4133a42e" x="60.192029" y="203.446267" style="fill: #ff8c00; stroke: #ff8c00"/>
     <use xlink:href="#mdf4133a42e" x="148.572246" y="196.22071" style="fill: #ff8c00; stroke: #ff8c00"/>
     <use xlink:href="#mdf4133a42e" x="145.143225" y="83.061413" style="fill: #ff8c00; stroke: #ff8c00"/>
     <use xlink:href="#mdf4133a42e" x="61.914832" y="189.871398" style="fill: #ff8c00; stroke: #ff8c00"/>
     <use xlink:href="#mdf4133a42e" x="127.380915" y="145.964894" style="fill: #ff8c00; stroke: #ff8c00"/>
     <use xlink:href="#mdf4133a42e" x="114.982694" y="177.771834" style="fill: #ff8c00; stroke: #ff8c00"/>
     <use xlink:href="#mdf4133a42e" x="104.529459" y="206.812431" style="fill: #ff8c00; stroke: #ff8c00"/>
     <use xlink:href="#mdf4133a42e" x="65.102733" y="191.329077" style="fill: #ff8c00; stroke: #ff8c00"/>
     <use xlink:href="#mdf4133a42e" x="95.914619" y="208.811118" style="fill: #ff8c00; stroke: #ff8c00"/>
     <use xlink:href="#mdf4133a42e" x="122.79458" y="174.474187" style="fill: #ff8c00; stroke: #ff8c00"/>
     <use xlink:href="#mdf4133a42e" x="107.357738" y="171.239464" style="fill: #ff8c00; stroke: #ff8c00"/>
     <use xlink:href="#mdf4133a42e" x="107.419491" y="176.174025" style="fill: #ff8c00; stroke: #ff8c00"/>
     <use xlink:href="#mdf4133a42e" x="107.054699" y="131.067636" style="fill: #ff8c00; stroke: #ff8c00"/>
     <use xlink:href="#mdf4133a42e" x="55.216329" y="261.216" style="fill: #ff8c00; stroke: #ff8c00"/>
     <use xlink:href="#mdf4133a42e" x="82.603169" y="142.35175" style="fill: #ff8c00; stroke: #ff8c00"/>
     <use xlink:href="#mdf4133a42e" x="126.420602" y="115.540497" style="fill: #ff8c00; stroke: #ff8c00"/>
     <use xlink:href="#mdf4133a42e" x="144.333917" y="138.466629" style="fill: #ff8c00; stroke: #ff8c00"/>
     <use xlink:href="#mdf4133a42e" x="97.472705" y="134.063521" style="fill: #ff8c00; stroke: #ff8c00"/>
     <use xlink:href="#mdf4133a42e" x="62.350004" y="185.172082" style="fill: #ff8c00; stroke: #ff8c00"/>
     <use xlink:href="#mdf4133a42e" x="75.410237" y="185.75428" style="fill: #ff8c00; stroke: #ff8c00"/>
    </g>
   </g>
   <g id="matplotlib.axis_1">
    <g id="xtick_1">
     <g id="line2d_1">
      <defs>
       <path id="m78db1f450f" d="M 0 0 
L 0 3.5 
" style="stroke: #000000; stroke-width: 0.8"/>
      </defs>
      <g>
       <use xlink:href="#m78db1f450f" x="56.014027" y="273.312" style="stroke: #000000; stroke-width: 0.8"/>
      </g>
     </g>
     <g id="text_1">
      <!-- −10 -->
      <g transform="translate(45.461683 287.910437) scale(0.1 -0.1)">
       <defs>
        <path id="DejaVuSans-2212" d="M 678 2272 
L 4684 2272 
L 4684 1741 
L 678 1741 
L 678 2272 
z
" transform="scale(0.015625)"/>
        <path id="DejaVuSans-31" d="M 794 531 
L 1825 531 
L 1825 4091 
L 703 3866 
L 703 4441 
L 1819 4666 
L 2450 4666 
L 2450 531 
L 3481 531 
L 3481 0 
L 794 0 
L 794 531 
z
" transform="scale(0.015625)"/>
        <path id="DejaVuSans-30" d="M 2034 4250 
Q 1547 4250 1301 3770 
Q 1056 3291 1056 2328 
Q 1056 1369 1301 889 
Q 1547 409 2034 409 
Q 2525 409 2770 889 
Q 3016 1369 3016 2328 
Q 3016 3291 2770 3770 
Q 2525 4250 2034 4250 
z
M 2034 4750 
Q 2819 4750 3233 4129 
Q 3647 3509 3647 2328 
Q 3647 1150 3233 529 
Q 2819 -91 2034 -91 
Q 1250 -91 836 529 
Q 422 1150 422 2328 
Q 422 3509 836 4129 
Q 1250 4750 2034 4750 
z
" transform="scale(0.015625)"/>
       </defs>
       <use xlink:href="#DejaVuSans-2212"/>
       <use xlink:href="#DejaVuSans-31" x="83.789062"/>
       <use xlink:href="#DejaVuSans-30" x="147.412109"/>
      </g>
     </g>
    </g>
    <g id="xtick_2">
     <g id="line2d_2">
      <g>
       <use xlink:href="#m78db1f450f" x="98.905178" y="273.312" style="stroke: #000000; stroke-width: 0.8"/>
      </g>
     </g>
     <g id="text_2">
      <!-- −5 -->
      <g transform="translate(91.534084 287.910437) scale(0.1 -0.1)">
       <defs>
        <path id="DejaVuSans-35" d="M 691 4666 
L 3169 4666 
L 3169 4134 
L 1269 4134 
L 1269 2991 
Q 1406 3038 1543 3061 
Q 1681 3084 1819 3084 
Q 2600 3084 3056 2656 
Q 3513 2228 3513 1497 
Q 3513 744 3044 326 
Q 2575 -91 1722 -91 
Q 1428 -91 1123 -41 
Q 819 9 494 109 
L 494 744 
Q 775 591 1075 516 
Q 1375 441 1709 441 
Q 2250 441 2565 725 
Q 2881 1009 2881 1497 
Q 2881 1984 2565 2268 
Q 2250 2553 1709 2553 
Q 1456 2553 1204 2497 
Q 953 2441 691 2322 
L 691 4666 
z
" transform="scale(0.015625)"/>
       </defs>
       <use xlink:href="#DejaVuSans-2212"/>
       <use xlink:href="#DejaVuSans-35" x="83.789062"/>
      </g>
     </g>
    </g>
    <g id="xtick_3">
     <g id="line2d_3">
      <g>
       <use xlink:href="#m78db1f450f" x="141.796329" y="273.312" style="stroke: #000000; stroke-width: 0.8"/>
      </g>
     </g>
     <g id="text_3">
      <!-- 0 -->
      <g transform="translate(138.615079 287.910437) scale(0.1 -0.1)">
       <use xlink:href="#DejaVuSans-30"/>
      </g>
     </g>
    </g>
    <g id="xtick_4">
     <g id="line2d_4">
      <g>
       <use xlink:href="#m78db1f450f" x="184.68748" y="273.312" style="stroke: #000000; stroke-width: 0.8"/>
      </g>
     </g>
     <g id="text_4">
      <!-- 5 -->
      <g transform="translate(181.50623 287.910437) scale(0.1 -0.1)">
       <use xlink:href="#DejaVuSans-35"/>
      </g>
     </g>
    </g>
    <g id="xtick_5">
     <g id="line2d_5">
      <g>
       <use xlink:href="#m78db1f450f" x="227.578631" y="273.312" style="stroke: #000000; stroke-width: 0.8"/>
      </g>
     </g>
     <g id="text_5">
      <!-- 10 -->
      <g transform="translate(221.216131 287.910437) scale(0.1 -0.1)">
       <use xlink:href="#DejaVuSans-31"/>
       <use xlink:href="#DejaVuSans-30" x="63.623047"/>
      </g>
     </g>
    </g>
    <g id="xtick_6">
     <g id="line2d_6">
      <g>
       <use xlink:href="#m78db1f450f" x="270.469782" y="273.312" style="stroke: #000000; stroke-width: 0.8"/>
      </g>
     </g>
     <g id="text_6">
      <!-- 15 -->
      <g transform="translate(264.107282 287.910437) scale(0.1 -0.1)">
       <use xlink:href="#DejaVuSans-31"/>
       <use xlink:href="#DejaVuSans-35" x="63.623047"/>
      </g>
     </g>
    </g>
    <g id="xtick_7">
     <g id="line2d_7">
      <g>
       <use xlink:href="#m78db1f450f" x="313.360933" y="273.312" style="stroke: #000000; stroke-width: 0.8"/>
      </g>
     </g>
     <g id="text_7">
      <!-- 20 -->
      <g transform="translate(306.998433 287.910437) scale(0.1 -0.1)">
       <defs>
        <path id="DejaVuSans-32" d="M 1228 531 
L 3431 531 
L 3431 0 
L 469 0 
L 469 531 
Q 828 903 1448 1529 
Q 2069 2156 2228 2338 
Q 2531 2678 2651 2914 
Q 2772 3150 2772 3378 
Q 2772 3750 2511 3984 
Q 2250 4219 1831 4219 
Q 1534 4219 1204 4116 
Q 875 4013 500 3803 
L 500 4441 
Q 881 4594 1212 4672 
Q 1544 4750 1819 4750 
Q 2544 4750 2975 4387 
Q 3406 4025 3406 3419 
Q 3406 3131 3298 2873 
Q 3191 2616 2906 2266 
Q 2828 2175 2409 1742 
Q 1991 1309 1228 531 
z
" transform="scale(0.015625)"/>
       </defs>
       <use xlink:href="#DejaVuSans-32"/>
       <use xlink:href="#DejaVuSans-30" x="63.623047"/>
      </g>
     </g>
    </g>
    <g id="xtick_8">
     <g id="line2d_8">
      <g>
       <use xlink:href="#m78db1f450f" x="356.252084" y="273.312" style="stroke: #000000; stroke-width: 0.8"/>
      </g>
     </g>
     <g id="text_8">
      <!-- 25 -->
      <g transform="translate(349.889584 287.910437) scale(0.1 -0.1)">
       <use xlink:href="#DejaVuSans-32"/>
       <use xlink:href="#DejaVuSans-35" x="63.623047"/>
      </g>
     </g>
    </g>
   </g>
   <g id="matplotlib.axis_2">
    <g id="ytick_1">
     <g id="line2d_9">
      <defs>
       <path id="mde623dec4d" d="M 0 0 
L -3.5 0 
" style="stroke: #000000; stroke-width: 0.8"/>
      </defs>
      <g>
       <use xlink:href="#mde623dec4d" x="35.304688" y="264.211625" style="stroke: #000000; stroke-width: 0.8"/>
      </g>
     </g>
     <g id="text_9">
      <!-- −15 -->
      <g transform="translate(7.2 268.010843) scale(0.1 -0.1)">
       <use xlink:href="#DejaVuSans-2212"/>
       <use xlink:href="#DejaVuSans-31" x="83.789062"/>
       <use xlink:href="#DejaVuSans-35" x="147.412109"/>
      </g>
     </g>
    </g>
    <g id="ytick_2">
     <g id="line2d_10">
      <g>
       <use xlink:href="#mde623dec4d" x="35.304688" y="224.398249" style="stroke: #000000; stroke-width: 0.8"/>
      </g>
     </g>
     <g id="text_10">
      <!-- −10 -->
      <g transform="translate(7.2 228.197467) scale(0.1 -0.1)">
       <use xlink:href="#DejaVuSans-2212"/>
       <use xlink:href="#DejaVuSans-31" x="83.789062"/>
       <use xlink:href="#DejaVuSans-30" x="147.412109"/>
      </g>
     </g>
    </g>
    <g id="ytick_3">
     <g id="line2d_11">
      <g>
       <use xlink:href="#mde623dec4d" x="35.304688" y="184.584873" style="stroke: #000000; stroke-width: 0.8"/>
      </g>
     </g>
     <g id="text_11">
      <!-- −5 -->
      <g transform="translate(13.5625 188.384091) scale(0.1 -0.1)">
       <use xlink:href="#DejaVuSans-2212"/>
       <use xlink:href="#DejaVuSans-35" x="83.789062"/>
      </g>
     </g>
    </g>
    <g id="ytick_4">
     <g id="line2d_12">
      <g>
       <use xlink:href="#mde623dec4d" x="35.304688" y="144.771497" style="stroke: #000000; stroke-width: 0.8"/>
      </g>
     </g>
     <g id="text_12">
      <!-- 0 -->
      <g transform="translate(21.942187 148.570716) scale(0.1 -0.1)">
       <use xlink:href="#DejaVuSans-30"/>
      </g>
     </g>
    </g>
    <g id="ytick_5">
     <g id="line2d_13">
      <g>
       <use xlink:href="#mde623dec4d" x="35.304688" y="104.958121" style="stroke: #000000; stroke-width: 0.8"/>
      </g>
     </g>
     <g id="text_13">
      <!-- 5 -->
      <g transform="translate(21.942187 108.75734) scale(0.1 -0.1)">
       <use xlink:href="#DejaVuSans-35"/>
      </g>
     </g>
    </g>
    <g id="ytick_6">
     <g id="line2d_14">
      <g>
       <use xlink:href="#mde623dec4d" x="35.304688" y="65.144745" style="stroke: #000000; stroke-width: 0.8"/>
      </g>
     </g>
     <g id="text_14">
      <!-- 10 -->
      <g transform="translate(15.579687 68.943964) scale(0.1 -0.1)">
       <use xlink:href="#DejaVuSans-31"/>
       <use xlink:href="#DejaVuSans-30" x="63.623047"/>
      </g>
     </g>
    </g>
    <g id="ytick_7">
     <g id="line2d_15">
      <g>
       <use xlink:href="#mde623dec4d" x="35.304688" y="25.331369" style="stroke: #000000; stroke-width: 0.8"/>
      </g>
     </g>
     <g id="text_15">
      <!-- 15 -->
      <g transform="translate(15.579687 29.130588) scale(0.1 -0.1)">
       <use xlink:href="#DejaVuSans-31"/>
       <use xlink:href="#DejaVuSans-35" x="63.623047"/>
      </g>
     </g>
    </g>
   </g>
   <g id="patch_3">
    <path d="M 35.304688 273.312 
L 35.304688 7.2 
" style="fill: none; stroke: #000000; stroke-width: 0.8; stroke-linejoin: miter; stroke-linecap: square"/>
   </g>
   <g id="patch_4">
    <path d="M 392.424688 273.312 
L 392.424688 7.2 
" style="fill: none; stroke: #000000; stroke-width: 0.8; stroke-linejoin: miter; stroke-linecap: square"/>
   </g>
   <g id="patch_5">
    <path d="M 35.304688 273.312 
L 392.424688 273.312 
" style="fill: none; stroke: #000000; stroke-width: 0.8; stroke-linejoin: miter; stroke-linecap: square"/>
   </g>
   <g id="patch_6">
    <path d="M 35.304688 7.2 
L 392.424688 7.2 
" style="fill: none; stroke: #000000; stroke-width: 0.8; stroke-linejoin: miter; stroke-linecap: square"/>
   </g>
  </g>
 </g>
 <defs>
  <clipPath id="pe91533da14">
   <rect x="35.304688" y="7.2" width="357.12" height="266.112"/>
  </clipPath>
 </defs>
</svg>
