<?xml version="1.0" encoding="utf-8" standalone="no"?>
<!DOCTYPE svg PUBLIC "-//W3C//DTD SVG 1.1//EN"
  "http://www.w3.org/Graphics/SVG/1.1/DTD/svg11.dtd">
<svg xmlns:xlink="http://www.w3.org/1999/xlink" width="399.624687pt" height="297.190125pt" viewBox="0 0 399.624687 297.190125" xmlns="http://www.w3.org/2000/svg" version="1.1">
 <metadata>
  <rdf:RDF xmlns:dc="http://purl.org/dc/elements/1.1/" xmlns:cc="http://creativecommons.org/ns#" xmlns:rdf="http://www.w3.org/1999/02/22-rdf-syntax-ns#">
   <cc:Work>
    <dc:type rdf:resource="http://purl.org/dc/dcmitype/StillImage"/>
    <dc:date>2023-11-13T01:43:24.585307</dc:date>
    <dc:format>image/svg+xml</dc:format>
    <dc:creator>
     <cc:Agent>
      <dc:title>Matplotlib v3.8.0, https://matplotlib.org/</dc:title>
     </cc:Agent>
    </dc:creator>
   </cc:Work>
  </rdf:RDF>
 </metadata>
 <defs>
  <style type="text/css">*{stroke-linejoin: round; stroke-linecap: butt}</style>
 </defs>
 <g id="figure_1">
  <g id="patch_1">
   <path d="M 0 297.190125 
L 399.624687 297.190125 
L 399.624687 0 
L 0 0 
z
" style="fill: #ffffff"/>
  </g>
  <g id="axes_1">
   <g id="patch_2">
    <path d="M 35.304688 273.312 
L 392.424688 273.312 
L 392.424688 7.2 
L 35.304688 7.2 
z
" style="fill: #ffffff"/>
   </g>
   <g id="PathCollection_1">
    <defs>
     <path id="mf7282c864e" d="M 0 1.5 
C 0.397805 1.5 0.77937 1.341951 1.06066 1.06066 
C 1.341951 0.77937 1.5 0.397805 1.5 0 
C 1.5 -0.397805 1.341951 -0.77937 1.06066 -1.06066 
C 0.77937 -1.341951 0.397805 -1.5 0 -1.5 
C -0.397805 -1.5 -0.77937 -1.341951 -1.06066 -1.06066 
C -1.341951 -0.77937 -1.5 -0.397805 -1.5 0 
C -1.5 0.397805 -1.341951 0.77937 -1.06066 1.06066 
C -0.77937 1.341951 -0.397805 1.5 0 1.5 
z
" style="stroke: #ff8c00"/>
    </defs>
    <g clip-path="url(#pf141212ae0)">
     <use xlink:href="#mf7282c864e" x="265.503076" y="179.746877" style="fill: #ff8c00; stroke: #ff8c00"/>
     <use xlink:href="#mf7282c864e" x="276.593338" y="224.164115" style="fill: #ff8c00; stroke: #ff8c00"/>
     <use xlink:href="#mf7282c864e" x="343.363591" y="208.182781" style="fill: #ff8c00; stroke: #ff8c00"/>
     <use xlink:href="#mf7282c864e" x="244.000506" y="229.203648" style="fill: #ff8c00; stroke: #ff8c00"/>
     <use xlink:href="#mf7282c864e" x="326.909361" y="261.216" style="fill: #ff8c00; stroke: #ff8c00"/>
     <use xlink:href="#mf7282c864e" x="285.757654" y="177.12988" style="fill: #ff8c00; stroke: #ff8c00"/>
     <use xlink:href="#mf7282c864e" x="209.075883" y="156.795812" style="fill: #ff8c00; stroke: #ff8c00"/>
     <use xlink:href="#mf7282c864e" x="214.461615" y="192.391746" style="fill: #ff8c00; stroke: #ff8c00"/>
     <use xlink:href="#mf7282c864e" x="290.914439" y="134.506768" style="fill: #ff8c00; stroke: #ff8c00"/>
     <use xlink:href="#mf7282c864e" x="327.633405" y="216.068936" style="fill: #ff8c00; stroke: #ff8c00"/>
     <use xlink:href="#mf7282c864e" x="228.738426" y="171.958479" style="fill: #ff8c00; stroke: #ff8c00"/>
     <use xlink:href="#mf7282c864e" x="205.626558" y="154.989044" style="fill: #ff8c00; stroke: #ff8c00"/>
     <use xlink:href="#mf7282c864e" x="281.310113" y="180.280712" style="fill: #ff8c00; stroke: #ff8c00"/>
    </g>
   </g>
   <g id="PathCollection_2">
    <defs>
     <path id="mff0c0f6d06" d="M 0 1.5 
C 0.397805 1.5 0.77937 1.341951 1.06066 1.06066 
C 1.341951 0.77937 1.5 0.397805 1.5 0 
C 1.5 -0.397805 1.341951 -0.77937 1.06066 -1.06066 
C 0.77937 -1.341951 0.397805 -1.5 0 -1.5 
C -0.397805 -1.5 -0.77937 -1.341951 -1.06066 -1.06066 
C -1.341951 -0.77937 -1.5 -0.397805 -1.5 0 
C -1.5 0.397805 -1.341951 0.77937 -1.06066 1.06066 
C -0.77937 1.341951 -0.397805 1.5 0 1.5 
z
" style="stroke: #006400"/>
    </defs>
    <g clip-path="url(#pf141212ae0)">
     <use xlink:href="#mff0c0f6d06" x="233.965487" y="137.2556" style="fill: #006400; stroke: #006400"/>
     <use xlink:href="#mff0c0f6d06" x="277.465685" y="183.568248" style="fill: #006400; stroke: #006400"/>
     <use xlink:href="#mff0c0f6d06" x="197.369049" y="120.862559" style="fill: #006400; stroke: #006400"/>
     <use xlink:href="#mff0c0f6d06" x="285.016474" y="146.928782" style="fill: #006400; stroke: #006400"/>
     <use xlink:href="#mff0c0f6d06" x="247.101675" y="174.349873" style="fill: #006400; stroke: #006400"/>
     <use xlink:href="#mff0c0f6d06" x="227.267804" y="184.923836" style="fill: #006400; stroke: #006400"/>
     <use xlink:href="#mff0c0f6d06" x="283.979841" y="86.053704" style="fill: #006400; stroke: #006400"/>
     <use xlink:href="#mff0c0f6d06" x="279.647599" y="74.242841" style="fill: #006400; stroke: #006400"/>
     <use xlink:href="#mff0c0f6d06" x="274.944673" y="175.619772" style="fill: #006400; stroke: #006400"/>
     <use xlink:href="#mff0c0f6d06" x="248.342898" y="139.295636" style="fill: #006400; stroke: #006400"/>
     <use xlink:href="#mff0c0f6d06" x="298.421483" y="182.899091" style="fill: #006400; stroke: #006400"/>
     <use xlink:href="#mff0c0f6d06" x="274.322975" y="103.624069" style="fill: #006400; stroke: #006400"/>
     <use xlink:href="#mff0c0f6d06" x="327.121094" y="55.221692" style="fill: #006400; stroke: #006400"/>
     <use xlink:href="#mff0c0f6d06" x="227.320406" y="106.168628" style="fill: #006400; stroke: #006400"/>
    </g>
   </g>
   <g id="PathCollection_3">
    <defs>
     <path id="m585c3a5307" d="M 0 1.5 
C 0.397805 1.5 0.77937 1.341951 1.06066 1.06066 
C 1.341951 0.77937 1.5 0.397805 1.5 0 
C 1.5 -0.397805 1.341951 -0.77937 1.06066 -1.06066 
C 0.77937 -1.341951 0.397805 -1.5 0 -1.5 
C -0.397805 -1.5 -0.77937 -1.341951 -1.06066 -1.06066 
C -1.341951 -0.77937 -1.5 -0.397805 -1.5 0 
C -1.5 0.397805 -1.341951 0.77937 -1.06066 1.06066 
C -0.77937 1.341951 -0.397805 1.5 0 1.5 
z
" style="stroke: #2f4f4f"/>
    </defs>
    <g clip-path="url(#pf141212ae0)">
     <use xlink:href="#m585c3a5307" x="212.064623" y="150.119519" style="fill: #2f4f4f; stroke: #2f4f4f"/>
     <use xlink:href="#m585c3a5307" x="191.043452" y="170.205495" style="fill: #2f4f4f; stroke: #2f4f4f"/>
     <use xlink:href="#m585c3a5307" x="153.507982" y="143.012233" style="fill: #2f4f4f; stroke: #2f4f4f"/>
     <use xlink:href="#m585c3a5307" x="165.601357" y="118.49495" style="fill: #2f4f4f; stroke: #2f4f4f"/>
     <use xlink:href="#m585c3a5307" x="167.486096" y="177.261909" style="fill: #2f4f4f; stroke: #2f4f4f"/>
     <use xlink:href="#m585c3a5307" x="160.355236" y="174.30423" style="fill: #2f4f4f; stroke: #2f4f4f"/>
     <use xlink:href="#m585c3a5307" x="171.627674" y="88.225971" style="fill: #2f4f4f; stroke: #2f4f4f"/>
    </g>
   </g>
   <g id="PathCollection_4">
    <defs>
     <path id="m53bf197426" d="M 0 1.5 
C 0.397805 1.5 0.77937 1.341951 1.06066 1.06066 
C 1.341951 0.77937 1.5 0.397805 1.5 0 
C 1.5 -0.397805 1.341951 -0.77937 1.06066 -1.06066 
C 0.77937 -1.341951 0.397805 -1.5 0 -1.5 
C -0.397805 -1.5 -0.77937 -1.341951 -1.06066 -1.06066 
C -1.341951 -0.77937 -1.5 -0.397805 -1.5 0 
C -1.5 0.397805 -1.341951 0.77937 -1.06066 1.06066 
C -0.77937 1.341951 -0.397805 1.5 0 1.5 
z
" style="stroke: #00bfff"/>
    </defs>
    <g clip-path="url(#pf141212ae0)">
     <use xlink:href="#m53bf197426" x="126.489869" y="97.133402" style="fill: #00bfff; stroke: #00bfff"/>
     <use xlink:href="#m53bf197426" x="134.423128" y="102.099218" style="fill: #00bfff; stroke: #00bfff"/>
     <use xlink:href="#m53bf197426" x="126.489869" y="97.133402" style="fill: #00bfff; stroke: #00bfff"/>
     <use xlink:href="#m53bf197426" x="244.475942" y="50.599115" style="fill: #00bfff; stroke: #00bfff"/>
     <use xlink:href="#m53bf197426" x="133.820038" y="107.509487" style="fill: #00bfff; stroke: #00bfff"/>
     <use xlink:href="#m53bf197426" x="143.313338" y="135.896511" style="fill: #00bfff; stroke: #00bfff"/>
     <use xlink:href="#m53bf197426" x="115.116477" y="148.583789" style="fill: #00bfff; stroke: #00bfff"/>
     <use xlink:href="#m53bf197426" x="191.683227" y="85.327864" style="fill: #00bfff; stroke: #00bfff"/>
     <use xlink:href="#m53bf197426" x="92.584502" y="148.231508" style="fill: #00bfff; stroke: #00bfff"/>
     <use xlink:href="#m53bf197426" x="152.623145" y="164.931816" style="fill: #00bfff; stroke: #00bfff"/>
     <use xlink:href="#m53bf197426" x="176.154343" y="103.743268" style="fill: #00bfff; stroke: #00bfff"/>
     <use xlink:href="#m53bf197426" x="141.476527" y="101.230255" style="fill: #00bfff; stroke: #00bfff"/>
     <use xlink:href="#m53bf197426" x="153.312465" y="123.696635" style="fill: #00bfff; stroke: #00bfff"/>
     <use xlink:href="#m53bf197426" x="206.83445" y="135.574046" style="fill: #00bfff; stroke: #00bfff"/>
     <use xlink:href="#m53bf197426" x="157.730256" y="102.355586" style="fill: #00bfff; stroke: #00bfff"/>
     <use xlink:href="#m53bf197426" x="223.523368" y="141.805369" style="fill: #00bfff; stroke: #00bfff"/>
     <use xlink:href="#m53bf197426" x="152.243854" y="162.331855" style="fill: #00bfff; stroke: #00bfff"/>
    </g>
   </g>
   <g id="PathCollection_5">
    <defs>
     <path id="m99af15717c" d="M 0 1.5 
C 0.397805 1.5 0.77937 1.341951 1.06066 1.06066 
C 1.341951 0.77937 1.5 0.397805 1.5 0 
C 1.5 -0.397805 1.341951 -0.77937 1.06066 -1.06066 
C 0.77937 -1.341951 0.397805 -1.5 0 -1.5 
C -0.397805 -1.5 -0.77937 -1.341951 -1.06066 -1.06066 
C -1.341951 -0.77937 -1.5 -0.397805 -1.5 0 
C -1.5 0.397805 -1.341951 0.77937 -1.06066 1.06066 
C -0.77937 1.341951 -0.397805 1.5 0 1.5 
z
" style="stroke: #ffff00"/>
    </defs>
    <g clip-path="url(#pf141212ae0)">
     <use xlink:href="#m99af15717c" x="167.912164" y="160.508717" style="fill: #ffff00; stroke: #ffff00"/>
     <use xlink:href="#m99af15717c" x="172.031004" y="144.547097" style="fill: #ffff00; stroke: #ffff00"/>
     <use xlink:href="#m99af15717c" x="139.04005" y="108.897125" style="fill: #ffff00; stroke: #ffff00"/>
     <use xlink:href="#m99af15717c" x="236.713591" y="160.767639" style="fill: #ffff00; stroke: #ffff00"/>
     <use xlink:href="#m99af15717c" x="191.206134" y="133.991498" style="fill: #ffff00; stroke: #ffff00"/>
     <use xlink:href="#m99af15717c" x="169.915778" y="134.667544" style="fill: #ffff00; stroke: #ffff00"/>
     <use xlink:href="#m99af15717c" x="215.375133" y="149.85823" style="fill: #ffff00; stroke: #ffff00"/>
     <use xlink:href="#m99af15717c" x="138.780767" y="118.88878" style="fill: #ffff00; stroke: #ffff00"/>
     <use xlink:href="#m99af15717c" x="178.349355" y="205.977776" style="fill: #ffff00; stroke: #ffff00"/>
     <use xlink:href="#m99af15717c" x="231.321153" y="151.509032" style="fill: #ffff00; stroke: #ffff00"/>
     <use xlink:href="#m99af15717c" x="236.904027" y="167.054507" style="fill: #ffff00; stroke: #ffff00"/>
     <use xlink:href="#m99af15717c" x="146.482623" y="138.945635" style="fill: #ffff00; stroke: #ffff00"/>
     <use xlink:href="#m99af15717c" x="167.328273" y="146.075947" style="fill: #ffff00; stroke: #ffff00"/>
     <use xlink:href="#m99af15717c" x="134.430099" y="164.778137" style="fill: #ffff00; stroke: #ffff00"/>
     <use xlink:href="#m99af15717c" x="293.128235" y="85.333841" style="fill: #ffff00; stroke: #ffff00"/>
     <use xlink:href="#m99af15717c" x="134.84165" y="141.742501" style="fill: #ffff00; stroke: #ffff00"/>
     <use xlink:href="#m99af15717c" x="172.003767" y="154.572715" style="fill: #ffff00; stroke: #ffff00"/>
     <use xlink:href="#m99af15717c" x="131.360727" y="145.925698" style="fill: #ffff00; stroke: #ffff00"/>
     <use xlink:href="#m99af15717c" x="82.664462" y="141.801006" style="fill: #ffff00; stroke: #ffff00"/>
     <use xlink:href="#m99af15717c" x="110.457347" y="176.253574" style="fill: #ffff00; stroke: #ffff00"/>
     <use xlink:href="#m99af15717c" x="175.961172" y="144.252318" style="fill: #ffff00; stroke: #ffff00"/>
    </g>
   </g>
   <g id="PathCollection_6">
    <defs>
     <path id="m5f51d57773" d="M 0 1.5 
C 0.397805 1.5 0.77937 1.341951 1.06066 1.06066 
C 1.341951 0.77937 1.5 0.397805 1.5 0 
C 1.5 -0.397805 1.341951 -0.77937 1.06066 -1.06066 
C 0.77937 -1.341951 0.397805 -1.5 0 -1.5 
C -0.397805 -1.5 -0.77937 -1.341951 -1.06066 -1.06066 
C -1.341951 -0.77937 -1.5 -0.397805 -1.5 0 
C -1.5 0.397805 -1.341951 0.77937 -1.06066 1.06066 
C -0.77937 1.341951 -0.397805 1.5 0 1.5 
z
" style="stroke: #00ffff"/>
    </defs>
    <g clip-path="url(#pf141212ae0)">
     <use xlink:href="#m5f51d57773" x="129.800655" y="63.817968" style="fill: #00ffff; stroke: #00ffff"/>
     <use xlink:href="#m5f51d57773" x="138.26208" y="105.130414" style="fill: #00ffff; stroke: #00ffff"/>
     <use xlink:href="#m5f51d57773" x="125.854298" y="83.873347" style="fill: #00ffff; stroke: #00ffff"/>
     <use xlink:href="#m5f51d57773" x="189.170028" y="115.2536" style="fill: #00ffff; stroke: #00ffff"/>
     <use xlink:href="#m5f51d57773" x="176.556753" y="111.359988" style="fill: #00ffff; stroke: #00ffff"/>
     <use xlink:href="#m5f51d57773" x="228.571342" y="136.728148" style="fill: #00ffff; stroke: #00ffff"/>
     <use xlink:href="#m5f51d57773" x="205.902853" y="85.828829" style="fill: #00ffff; stroke: #00ffff"/>
     <use xlink:href="#m5f51d57773" x="163.290931" y="98.568224" style="fill: #00ffff; stroke: #00ffff"/>
     <use xlink:href="#m5f51d57773" x="159.328498" y="87.801594" style="fill: #00ffff; stroke: #00ffff"/>
     <use xlink:href="#m5f51d57773" x="179.253688" y="73.50492" style="fill: #00ffff; stroke: #00ffff"/>
     <use xlink:href="#m5f51d57773" x="164.445846" y="118.13877" style="fill: #00ffff; stroke: #00ffff"/>
     <use xlink:href="#m5f51d57773" x="161.435256" y="94.983572" style="fill: #00ffff; stroke: #00ffff"/>
     <use xlink:href="#m5f51d57773" x="185.48024" y="116.204326" style="fill: #00ffff; stroke: #00ffff"/>
     <use xlink:href="#m5f51d57773" x="185.679302" y="90.337215" style="fill: #00ffff; stroke: #00ffff"/>
     <use xlink:href="#m5f51d57773" x="180.35469" y="103.110863" style="fill: #00ffff; stroke: #00ffff"/>
     <use xlink:href="#m5f51d57773" x="131.825842" y="112.424868" style="fill: #00ffff; stroke: #00ffff"/>
     <use xlink:href="#m5f51d57773" x="209.644294" y="126.186159" style="fill: #00ffff; stroke: #00ffff"/>
    </g>
   </g>
   <g id="PathCollection_7">
    <defs>
     <path id="m74eaaf7039" d="M 0 1.5 
C 0.397805 1.5 0.77937 1.341951 1.06066 1.06066 
C 1.341951 0.77937 1.5 0.397805 1.5 0 
C 1.5 -0.397805 1.341951 -0.77937 1.06066 -1.06066 
C 0.77937 -1.341951 0.397805 -1.5 0 -1.5 
C -0.397805 -1.5 -0.77937 -1.341951 -1.06066 -1.06066 
C -1.341951 -0.77937 -1.5 -0.397805 -1.5 0 
C -1.5 0.397805 -1.341951 0.77937 -1.06066 1.06066 
C -0.77937 1.341951 -0.397805 1.5 0 1.5 
z
" style="stroke: #0000ff"/>
    </defs>
    <g clip-path="url(#pf141212ae0)">
     <use xlink:href="#m74eaaf7039" x="248.72042" y="103.756062" style="fill: #0000ff; stroke: #0000ff"/>
     <use xlink:href="#m74eaaf7039" x="171.172991" y="135.982793" style="fill: #0000ff; stroke: #0000ff"/>
     <use xlink:href="#m74eaaf7039" x="205.157377" y="157.39712" style="fill: #0000ff; stroke: #0000ff"/>
     <use xlink:href="#m74eaaf7039" x="142.774735" y="116.578039" style="fill: #0000ff; stroke: #0000ff"/>
     <use xlink:href="#m74eaaf7039" x="243.534659" y="41.359558" style="fill: #0000ff; stroke: #0000ff"/>
     <use xlink:href="#m74eaaf7039" x="265.135937" y="189.444804" style="fill: #0000ff; stroke: #0000ff"/>
     <use xlink:href="#m74eaaf7039" x="162.842837" y="107.922652" style="fill: #0000ff; stroke: #0000ff"/>
     <use xlink:href="#m74eaaf7039" x="156.926419" y="94.121741" style="fill: #0000ff; stroke: #0000ff"/>
    </g>
   </g>
   <g id="PathCollection_8">
    <defs>
     <path id="m78d642d87f" d="M 0 1.5 
C 0.397805 1.5 0.77937 1.341951 1.06066 1.06066 
C 1.341951 0.77937 1.5 0.397805 1.5 0 
C 1.5 -0.397805 1.341951 -0.77937 1.06066 -1.06066 
C 0.77937 -1.341951 0.397805 -1.5 0 -1.5 
C -0.397805 -1.5 -0.77937 -1.341951 -1.06066 -1.06066 
C -1.341951 -0.77937 -1.5 -0.397805 -1.5 0 
C -1.5 0.397805 -1.341951 0.77937 -1.06066 1.06066 
C -0.77937 1.341951 -0.397805 1.5 0 1.5 
z
" style="stroke: #dc143c"/>
    </defs>
    <g clip-path="url(#pf141212ae0)">
     <use xlink:href="#m78d642d87f" x="303.63288" y="234.890107" style="fill: #dc143c; stroke: #dc143c"/>
     <use xlink:href="#m78d642d87f" x="376.19196" y="236.7021" style="fill: #dc143c; stroke: #dc143c"/>
     <use xlink:href="#m78d642d87f" x="237.039603" y="156.919257" style="fill: #dc143c; stroke: #dc143c"/>
     <use xlink:href="#m78d642d87f" x="301.52347" y="235.269169" style="fill: #dc143c; stroke: #dc143c"/>
     <use xlink:href="#m78d642d87f" x="247.451537" y="165.03572" style="fill: #dc143c; stroke: #dc143c"/>
     <use xlink:href="#m78d642d87f" x="335.913309" y="161.24519" style="fill: #dc143c; stroke: #dc143c"/>
     <use xlink:href="#m78d642d87f" x="210.852942" y="173.726326" style="fill: #dc143c; stroke: #dc143c"/>
     <use xlink:href="#m78d642d87f" x="245.66711" y="177.383868" style="fill: #dc143c; stroke: #dc143c"/>
     <use xlink:href="#m78d642d87f" x="283.224281" y="182.478777" style="fill: #dc143c; stroke: #dc143c"/>
     <use xlink:href="#m78d642d87f" x="236.166715" y="173.974918" style="fill: #dc143c; stroke: #dc143c"/>
     <use xlink:href="#m78d642d87f" x="275.984827" y="229.139429" style="fill: #dc143c; stroke: #dc143c"/>
     <use xlink:href="#m78d642d87f" x="302.606482" y="256.811785" style="fill: #dc143c; stroke: #dc143c"/>
     <use xlink:href="#m78d642d87f" x="217.64104" y="154.083158" style="fill: #dc143c; stroke: #dc143c"/>
     <use xlink:href="#m78d642d87f" x="294.563968" y="199.571554" style="fill: #dc143c; stroke: #dc143c"/>
     <use xlink:href="#m78d642d87f" x="281.429564" y="207.526053" style="fill: #dc143c; stroke: #dc143c"/>
     <use xlink:href="#m78d642d87f" x="270.555078" y="199.145695" style="fill: #dc143c; stroke: #dc143c"/>
     <use xlink:href="#m78d642d87f" x="193.817604" y="205.870049" style="fill: #dc143c; stroke: #dc143c"/>
    </g>
   </g>
   <g id="PathCollection_9">
    <defs>
     <path id="mf08c599534" d="M 0 1.5 
C 0.397805 1.5 0.77937 1.341951 1.06066 1.06066 
C 1.341951 0.77937 1.5 0.397805 1.5 0 
C 1.5 -0.397805 1.341951 -0.77937 1.06066 -1.06066 
C 0.77937 -1.341951 0.397805 -1.5 0 -1.5 
C -0.397805 -1.5 -0.77937 -1.341951 -1.06066 -1.06066 
C -1.341951 -0.77937 -1.5 -0.397805 -1.5 0 
C -1.5 0.397805 -1.341951 0.77937 -1.06066 1.06066 
C -0.77937 1.341951 -0.397805 1.5 0 1.5 
z
" style="stroke: #ffe4c4"/>
    </defs>
    <g clip-path="url(#pf141212ae0)">
     <use xlink:href="#mf08c599534" x="308.052262" y="19.296" style="fill: #ffe4c4; stroke: #ffe4c4"/>
     <use xlink:href="#mf08c599534" x="323.485562" y="148.842359" style="fill: #ffe4c4; stroke: #ffe4c4"/>
     <use xlink:href="#mf08c599534" x="241.373099" y="129.697865" style="fill: #ffe4c4; stroke: #ffe4c4"/>
     <use xlink:href="#mf08c599534" x="263.710969" y="159.185788" style="fill: #ffe4c4; stroke: #ffe4c4"/>
     <use xlink:href="#mf08c599534" x="343.382239" y="166.769212" style="fill: #ffe4c4; stroke: #ffe4c4"/>
     <use xlink:href="#mf08c599534" x="292.163537" y="141.779423" style="fill: #ffe4c4; stroke: #ffe4c4"/>
     <use xlink:href="#mf08c599534" x="204.278698" y="73.003684" style="fill: #ffe4c4; stroke: #ffe4c4"/>
     <use xlink:href="#mf08c599534" x="237.969233" y="185.257754" style="fill: #ffe4c4; stroke: #ffe4c4"/>
     <use xlink:href="#mf08c599534" x="294.526634" y="143.425165" style="fill: #ffe4c4; stroke: #ffe4c4"/>
     <use xlink:href="#mf08c599534" x="268.952853" y="148.422621" style="fill: #ffe4c4; stroke: #ffe4c4"/>
     <use xlink:href="#mf08c599534" x="223.564052" y="149.115237" style="fill: #ffe4c4; stroke: #ffe4c4"/>
     <use xlink:href="#mf08c599534" x="309.825916" y="130.644925" style="fill: #ffe4c4; stroke: #ffe4c4"/>
     <use xlink:href="#mf08c599534" x="267.362461" y="160.315541" style="fill: #ffe4c4; stroke: #ffe4c4"/>
     <use xlink:href="#mf08c599534" x="231.697289" y="106.807198" style="fill: #ffe4c4; stroke: #ffe4c4"/>
    </g>
   </g>
   <g id="PathCollection_10">
    <defs>
     <path id="m7518d93edd" d="M -2.99994 2.99994 
L 3.00006 2.99994 
L 3.00006 -3.00006 
L -2.99994 -3.00006 
z
" style="stroke: #000000"/>
    </defs>
    <g clip-path="url(#pf141212ae0)">
     <use xlink:href="#m7518d93edd" x="83.730766" y="189.226392" style="stroke: #000000"/>
     <use xlink:href="#m7518d93edd" x="85.961909" y="170.480158" style="stroke: #000000"/>
     <use xlink:href="#m7518d93edd" x="59.101929" y="176.244224" style="stroke: #000000"/>
     <use xlink:href="#m7518d93edd" x="122.663212" y="140.566554" style="stroke: #000000"/>
     <use xlink:href="#m7518d93edd" x="103.781596" y="124.544575" style="stroke: #000000"/>
     <use xlink:href="#m7518d93edd" x="159.94482" y="145.511126" style="stroke: #000000"/>
     <use xlink:href="#m7518d93edd" x="117.915256" y="178.494188" style="stroke: #000000"/>
     <use xlink:href="#m7518d93edd" x="113.55156" y="148.043986" style="stroke: #000000"/>
     <use xlink:href="#m7518d93edd" x="83.679168" y="183.968947" style="stroke: #000000"/>
     <use xlink:href="#m7518d93edd" x="66.911445" y="136.632488" style="stroke: #000000"/>
     <use xlink:href="#m7518d93edd" x="137.500348" y="176.694242" style="stroke: #000000"/>
     <use xlink:href="#m7518d93edd" x="134.79371" y="157.472697" style="stroke: #000000"/>
     <use xlink:href="#m7518d93edd" x="126.146133" y="174.248665" style="stroke: #000000"/>
     <use xlink:href="#m7518d93edd" x="129.603372" y="174.736927" style="stroke: #000000"/>
     <use xlink:href="#m7518d93edd" x="103.730154" y="176.160546" style="stroke: #000000"/>
     <use xlink:href="#m7518d93edd" x="209.891278" y="77.054707" style="stroke: #000000"/>
     <use xlink:href="#m7518d93edd" x="98.318265" y="201.072735" style="stroke: #000000"/>
     <use xlink:href="#m7518d93edd" x="97.051485" y="158.520256" style="stroke: #000000"/>
     <use xlink:href="#m7518d93edd" x="113.296791" y="182.784276" style="stroke: #000000"/>
     <use xlink:href="#m7518d93edd" x="131.745552" y="139.661283" style="stroke: #000000"/>
     <use xlink:href="#m7518d93edd" x="168.598058" y="106.844787" style="stroke: #000000"/>
     <use xlink:href="#m7518d93edd" x="113.134264" y="175.801482" style="stroke: #000000"/>
     <use xlink:href="#m7518d93edd" x="107.202883" y="167.643747" style="stroke: #000000"/>
     <use xlink:href="#m7518d93edd" x="107.849059" y="189.567628" style="stroke: #000000"/>
     <use xlink:href="#m7518d93edd" x="176.960612" y="119.58988" style="stroke: #000000"/>
     <use xlink:href="#m7518d93edd" x="91.161458" y="156.687306" style="stroke: #000000"/>
     <use xlink:href="#m7518d93edd" x="99.074378" y="169.99014" style="stroke: #000000"/>
     <use xlink:href="#m7518d93edd" x="80.261048" y="179.720398" style="stroke: #000000"/>
     <use xlink:href="#m7518d93edd" x="114.550473" y="183.449817" style="stroke: #000000"/>
     <use xlink:href="#m7518d93edd" x="140.324388" y="161.676436" style="stroke: #000000"/>
     <use xlink:href="#m7518d93edd" x="166.491103" y="137.943888" style="stroke: #000000"/>
     <use xlink:href="#m7518d93edd" x="56.379709" y="192.105386" style="stroke: #000000"/>
     <use xlink:href="#m7518d93edd" x="119.54384" y="132.499575" style="stroke: #000000"/>
     <use xlink:href="#m7518d93edd" x="118.964091" y="143.727502" style="stroke: #000000"/>
     <use xlink:href="#m7518d93edd" x="180.380766" y="117.917795" style="stroke: #000000"/>
     <use xlink:href="#m7518d93edd" x="148.147342" y="154.40459" style="stroke: #000000"/>
     <use xlink:href="#m7518d93edd" x="141.265412" y="196.192278" style="stroke: #000000"/>
     <use xlink:href="#m7518d93edd" x="90.059276" y="182.391267" style="stroke: #000000"/>
     <use xlink:href="#m7518d93edd" x="181.886941" y="138.341383" style="stroke: #000000"/>
     <use xlink:href="#m7518d93edd" x="51.537415" y="183.297595" style="stroke: #000000"/>
     <use xlink:href="#m7518d93edd" x="62.543146" y="196.807342" style="stroke: #000000"/>
     <use xlink:href="#m7518d93edd" x="109.359987" y="173.439225" style="stroke: #000000"/>
     <use xlink:href="#m7518d93edd" x="134.814375" y="168.913296" style="stroke: #000000"/>
     <use xlink:href="#m7518d93edd" x="153.137505" y="139.342038" style="stroke: #000000"/>
     <use xlink:href="#m7518d93edd" x="102.290861" y="182.629926" style="stroke: #000000"/>
     <use xlink:href="#m7518d93edd" x="127.414058" y="126.409709" style="stroke: #000000"/>
     <use xlink:href="#m7518d93edd" x="151.863782" y="122.578585" style="stroke: #000000"/>
     <use xlink:href="#m7518d93edd" x="245.509802" y="140.636961" style="stroke: #000000"/>
     <use xlink:href="#m7518d93edd" x="125.952702" y="148.551909" style="stroke: #000000"/>
     <use xlink:href="#m7518d93edd" x="152.843202" y="126.446278" style="stroke: #000000"/>
     <use xlink:href="#m7518d93edd" x="54.540226" y="173.731023" style="stroke: #000000"/>
     <use xlink:href="#m7518d93edd" x="84.073213" y="185.237134" style="stroke: #000000"/>
     <use xlink:href="#m7518d93edd" x="139.574374" y="114.947668" style="stroke: #000000"/>
     <use xlink:href="#m7518d93edd" x="107.249728" y="179.33758" style="stroke: #000000"/>
     <use xlink:href="#m7518d93edd" x="197.719696" y="161.084567" style="stroke: #000000"/>
     <use xlink:href="#m7518d93edd" x="177.189576" y="154.498623" style="stroke: #000000"/>
     <use xlink:href="#m7518d93edd" x="124.398955" y="181.190517" style="stroke: #000000"/>
     <use xlink:href="#m7518d93edd" x="82.428855" y="178.594315" style="stroke: #000000"/>
     <use xlink:href="#m7518d93edd" x="196.022968" y="127.406661" style="stroke: #000000"/>
     <use xlink:href="#m7518d93edd" x="100.75896" y="171.536316" style="stroke: #000000"/>
     <use xlink:href="#m7518d93edd" x="90.292406" y="203.407444" style="stroke: #000000"/>
     <use xlink:href="#m7518d93edd" x="150.927623" y="189.227888" style="stroke: #000000"/>
     <use xlink:href="#m7518d93edd" x="99.00108" y="153.452252" style="stroke: #000000"/>
     <use xlink:href="#m7518d93edd" x="153.621725" y="190.217173" style="stroke: #000000"/>
    </g>
   </g>
   <g id="PathCollection_11">
    <defs>
     <path id="mb07505000d" d="M -3 -0 
L 3 3 
L 3 -3 
z
" style="stroke: #ff8c00"/>
    </defs>
    <g clip-path="url(#pf141212ae0)">
     <use xlink:href="#mb07505000d" x="117.428599" y="145.971502" style="fill: #ff8c00; stroke: #ff8c00"/>
     <use xlink:href="#mb07505000d" x="174.593165" y="129.388555" style="fill: #ff8c00; stroke: #ff8c00"/>
     <use xlink:href="#mb07505000d" x="113.992127" y="98.513482" style="fill: #ff8c00; stroke: #ff8c00"/>
     <use xlink:href="#mb07505000d" x="141.752608" y="171.205194" style="fill: #ff8c00; stroke: #ff8c00"/>
     <use xlink:href="#mb07505000d" x="99.013768" y="194.042674" style="fill: #ff8c00; stroke: #ff8c00"/>
     <use xlink:href="#mb07505000d" x="168.003083" y="128.77394" style="fill: #ff8c00; stroke: #ff8c00"/>
     <use xlink:href="#mb07505000d" x="133.964151" y="202.9621" style="fill: #ff8c00; stroke: #ff8c00"/>
     <use xlink:href="#mb07505000d" x="96.588902" y="168.5467" style="fill: #ff8c00; stroke: #ff8c00"/>
     <use xlink:href="#mb07505000d" x="164.261118" y="117.070702" style="fill: #ff8c00; stroke: #ff8c00"/>
     <use xlink:href="#mb07505000d" x="150.014748" y="131.669611" style="fill: #ff8c00; stroke: #ff8c00"/>
     <use xlink:href="#mb07505000d" x="164.090399" y="157.892476" style="fill: #ff8c00; stroke: #ff8c00"/>
     <use xlink:href="#mb07505000d" x="168.175765" y="138.157916" style="fill: #ff8c00; stroke: #ff8c00"/>
     <use xlink:href="#mb07505000d" x="151.429036" y="196.895949" style="fill: #ff8c00; stroke: #ff8c00"/>
     <use xlink:href="#mb07505000d" x="166.227824" y="175.80943" style="fill: #ff8c00; stroke: #ff8c00"/>
     <use xlink:href="#mb07505000d" x="160.026413" y="169.27671" style="fill: #ff8c00; stroke: #ff8c00"/>
     <use xlink:href="#mb07505000d" x="168.804349" y="173.635533" style="fill: #ff8c00; stroke: #ff8c00"/>
     <use xlink:href="#mb07505000d" x="152.768414" y="157.240849" style="fill: #ff8c00; stroke: #ff8c00"/>
     <use xlink:href="#mb07505000d" x="113.227344" y="159.274436" style="fill: #ff8c00; stroke: #ff8c00"/>
     <use xlink:href="#mb07505000d" x="94.977533" y="166.360085" style="fill: #ff8c00; stroke: #ff8c00"/>
     <use xlink:href="#mb07505000d" x="141.739155" y="122.183957" style="fill: #ff8c00; stroke: #ff8c00"/>
     <use xlink:href="#mb07505000d" x="127.229145" y="123.669875" style="fill: #ff8c00; stroke: #ff8c00"/>
     <use xlink:href="#mb07505000d" x="134.185815" y="201.480564" style="fill: #ff8c00; stroke: #ff8c00"/>
     <use xlink:href="#mb07505000d" x="126.648746" y="142.931144" style="fill: #ff8c00; stroke: #ff8c00"/>
     <use xlink:href="#mb07505000d" x="143.701779" y="185.588866" style="fill: #ff8c00; stroke: #ff8c00"/>
     <use xlink:href="#mb07505000d" x="171.876973" y="151.319189" style="fill: #ff8c00; stroke: #ff8c00"/>
     <use xlink:href="#mb07505000d" x="80.498174" y="169.544367" style="fill: #ff8c00; stroke: #ff8c00"/>
     <use xlink:href="#mb07505000d" x="128.442038" y="180.267218" style="fill: #ff8c00; stroke: #ff8c00"/>
     <use xlink:href="#mb07505000d" x="112.470503" y="148.713278" style="fill: #ff8c00; stroke: #ff8c00"/>
     <use xlink:href="#mb07505000d" x="162.504315" y="169.582855" style="fill: #ff8c00; stroke: #ff8c00"/>
     <use xlink:href="#mb07505000d" x="131.075112" y="183.391981" style="fill: #ff8c00; stroke: #ff8c00"/>
     <use xlink:href="#mb07505000d" x="152.108548" y="202.389297" style="fill: #ff8c00; stroke: #ff8c00"/>
     <use xlink:href="#mb07505000d" x="113.603644" y="114.560439" style="fill: #ff8c00; stroke: #ff8c00"/>
     <use xlink:href="#mb07505000d" x="76.791758" y="170.735505" style="fill: #ff8c00; stroke: #ff8c00"/>
     <use xlink:href="#mb07505000d" x="116.722144" y="193.643277" style="fill: #ff8c00; stroke: #ff8c00"/>
     <use xlink:href="#mb07505000d" x="106.145712" y="152.949036" style="fill: #ff8c00; stroke: #ff8c00"/>
     <use xlink:href="#mb07505000d" x="110.147694" y="171.241146" style="fill: #ff8c00; stroke: #ff8c00"/>
     <use xlink:href="#mb07505000d" x="180.871018" y="151.413842" style="fill: #ff8c00; stroke: #ff8c00"/>
     <use xlink:href="#mb07505000d" x="122.688341" y="170.994611" style="fill: #ff8c00; stroke: #ff8c00"/>
     <use xlink:href="#mb07505000d" x="52.356746" y="163.161824" style="fill: #ff8c00; stroke: #ff8c00"/>
     <use xlink:href="#mb07505000d" x="126.255656" y="159.742693" style="fill: #ff8c00; stroke: #ff8c00"/>
     <use xlink:href="#mb07505000d" x="178.90989" y="114.095153" style="fill: #ff8c00; stroke: #ff8c00"/>
     <use xlink:href="#mb07505000d" x="120.808875" y="174.11698" style="fill: #ff8c00; stroke: #ff8c00"/>
     <use xlink:href="#mb07505000d" x="181.234943" y="157.162723" style="fill: #ff8c00; stroke: #ff8c00"/>
     <use xlink:href="#mb07505000d" x="148.773429" y="167.173004" style="fill: #ff8c00; stroke: #ff8c00"/>
     <use xlink:href="#mb07505000d" x="121.563067" y="179.504284" style="fill: #ff8c00; stroke: #ff8c00"/>
     <use xlink:href="#mb07505000d" x="77.226487" y="122.565941" style="fill: #ff8c00; stroke: #ff8c00"/>
     <use xlink:href="#mb07505000d" x="127.585286" y="130.447515" style="fill: #ff8c00; stroke: #ff8c00"/>
     <use xlink:href="#mb07505000d" x="163.973267" y="142.885757" style="fill: #ff8c00; stroke: #ff8c00"/>
     <use xlink:href="#mb07505000d" x="117.487803" y="192.877655" style="fill: #ff8c00; stroke: #ff8c00"/>
     <use xlink:href="#mb07505000d" x="78.30093" y="138.217708" style="fill: #ff8c00; stroke: #ff8c00"/>
     <use xlink:href="#mb07505000d" x="108.099532" y="180.876253" style="fill: #ff8c00; stroke: #ff8c00"/>
     <use xlink:href="#mb07505000d" x="97.087402" y="141.729638" style="fill: #ff8c00; stroke: #ff8c00"/>
     <use xlink:href="#mb07505000d" x="87.234298" y="164.538772" style="fill: #ff8c00; stroke: #ff8c00"/>
     <use xlink:href="#mb07505000d" x="132.500282" y="190.829696" style="fill: #ff8c00; stroke: #ff8c00"/>
     <use xlink:href="#mb07505000d" x="123.761873" y="151.060843" style="fill: #ff8c00; stroke: #ff8c00"/>
     <use xlink:href="#mb07505000d" x="149.015219" y="200.223316" style="fill: #ff8c00; stroke: #ff8c00"/>
     <use xlink:href="#mb07505000d" x="111.296799" y="194.011698" style="fill: #ff8c00; stroke: #ff8c00"/>
     <use xlink:href="#mb07505000d" x="128.406642" y="122.890501" style="fill: #ff8c00; stroke: #ff8c00"/>
     <use xlink:href="#mb07505000d" x="139.707562" y="188.877336" style="fill: #ff8c00; stroke: #ff8c00"/>
     <use xlink:href="#mb07505000d" x="166.683542" y="173.255316" style="fill: #ff8c00; stroke: #ff8c00"/>
     <use xlink:href="#mb07505000d" x="116.294091" y="156.698909" style="fill: #ff8c00; stroke: #ff8c00"/>
     <use xlink:href="#mb07505000d" x="181.397149" y="184.714097" style="fill: #ff8c00; stroke: #ff8c00"/>
     <use xlink:href="#mb07505000d" x="85.167223" y="151.86453" style="fill: #ff8c00; stroke: #ff8c00"/>
     <use xlink:href="#mb07505000d" x="160.569608" y="205.440375" style="fill: #ff8c00; stroke: #ff8c00"/>
    </g>
   </g>
   <g id="matplotlib.axis_1">
    <g id="xtick_1">
     <g id="line2d_1">
      <defs>
       <path id="m15129e77f8" d="M 0 0 
L 0 3.5 
" style="stroke: #000000; stroke-width: 0.8"/>
      </defs>
      <g>
       <use xlink:href="#m15129e77f8" x="49.026537" y="273.312" style="stroke: #000000; stroke-width: 0.8"/>
      </g>
     </g>
     <g id="text_1">
      <!-- −15 -->
      <g transform="translate(38.474194 287.910437) scale(0.1 -0.1)">
       <defs>
        <path id="DejaVuSans-2212" d="M 678 2272 
L 4684 2272 
L 4684 1741 
L 678 1741 
L 678 2272 
z
" transform="scale(0.015625)"/>
        <path id="DejaVuSans-31" d="M 794 531 
L 1825 531 
L 1825 4091 
L 703 3866 
L 703 4441 
L 1819 4666 
L 2450 4666 
L 2450 531 
L 3481 531 
L 3481 0 
L 794 0 
L 794 531 
z
" transform="scale(0.015625)"/>
        <path id="DejaVuSans-35" d="M 691 4666 
L 3169 4666 
L 3169 4134 
L 1269 4134 
L 1269 2991 
Q 1406 3038 1543 3061 
Q 1681 3084 1819 3084 
Q 2600 3084 3056 2656 
Q 3513 2228 3513 1497 
Q 3513 744 3044 326 
Q 2575 -91 1722 -91 
Q 1428 -91 1123 -41 
Q 819 9 494 109 
L 494 744 
Q 775 591 1075 516 
Q 1375 441 1709 441 
Q 2250 441 2565 725 
Q 2881 1009 2881 1497 
Q 2881 1984 2565 2268 
Q 2250 2553 1709 2553 
Q 1456 2553 1204 2497 
Q 953 2441 691 2322 
L 691 4666 
z
" transform="scale(0.015625)"/>
       </defs>
       <use xlink:href="#DejaVuSans-2212"/>
       <use xlink:href="#DejaVuSans-31" x="83.789062"/>
       <use xlink:href="#DejaVuSans-35" x="147.412109"/>
      </g>
     </g>
    </g>
    <g id="xtick_2">
     <g id="line2d_2">
      <g>
       <use xlink:href="#m15129e77f8" x="89.865607" y="273.312" style="stroke: #000000; stroke-width: 0.8"/>
      </g>
     </g>
     <g id="text_2">
      <!-- −10 -->
      <g transform="translate(79.313264 287.910437) scale(0.1 -0.1)">
       <defs>
        <path id="DejaVuSans-30" d="M 2034 4250 
Q 1547 4250 1301 3770 
Q 1056 3291 1056 2328 
Q 1056 1369 1301 889 
Q 1547 409 2034 409 
Q 2525 409 2770 889 
Q 3016 1369 3016 2328 
Q 3016 3291 2770 3770 
Q 2525 4250 2034 4250 
z
M 2034 4750 
Q 2819 4750 3233 4129 
Q 3647 3509 3647 2328 
Q 3647 1150 3233 529 
Q 2819 -91 2034 -91 
Q 1250 -91 836 529 
Q 422 1150 422 2328 
Q 422 3509 836 4129 
Q 1250 4750 2034 4750 
z
" transform="scale(0.015625)"/>
       </defs>
       <use xlink:href="#DejaVuSans-2212"/>
       <use xlink:href="#DejaVuSans-31" x="83.789062"/>
       <use xlink:href="#DejaVuSans-30" x="147.412109"/>
      </g>
     </g>
    </g>
    <g id="xtick_3">
     <g id="line2d_3">
      <g>
       <use xlink:href="#m15129e77f8" x="130.704678" y="273.312" style="stroke: #000000; stroke-width: 0.8"/>
      </g>
     </g>
     <g id="text_3">
      <!-- −5 -->
      <g transform="translate(123.333584 287.910437) scale(0.1 -0.1)">
       <use xlink:href="#DejaVuSans-2212"/>
       <use xlink:href="#DejaVuSans-35" x="83.789062"/>
      </g>
     </g>
    </g>
    <g id="xtick_4">
     <g id="line2d_4">
      <g>
       <use xlink:href="#m15129e77f8" x="171.543748" y="273.312" style="stroke: #000000; stroke-width: 0.8"/>
      </g>
     </g>
     <g id="text_4">
      <!-- 0 -->
      <g transform="translate(168.362498 287.910437) scale(0.1 -0.1)">
       <use xlink:href="#DejaVuSans-30"/>
      </g>
     </g>
    </g>
    <g id="xtick_5">
     <g id="line2d_5">
      <g>
       <use xlink:href="#m15129e77f8" x="212.382818" y="273.312" style="stroke: #000000; stroke-width: 0.8"/>
      </g>
     </g>
     <g id="text_5">
      <!-- 5 -->
      <g transform="translate(209.201568 287.910437) scale(0.1 -0.1)">
       <use xlink:href="#DejaVuSans-35"/>
      </g>
     </g>
    </g>
    <g id="xtick_6">
     <g id="line2d_6">
      <g>
       <use xlink:href="#m15129e77f8" x="253.221888" y="273.312" style="stroke: #000000; stroke-width: 0.8"/>
      </g>
     </g>
     <g id="text_6">
      <!-- 10 -->
      <g transform="translate(246.859388 287.910437) scale(0.1 -0.1)">
       <use xlink:href="#DejaVuSans-31"/>
       <use xlink:href="#DejaVuSans-30" x="63.623047"/>
      </g>
     </g>
    </g>
    <g id="xtick_7">
     <g id="line2d_7">
      <g>
       <use xlink:href="#m15129e77f8" x="294.060958" y="273.312" style="stroke: #000000; stroke-width: 0.8"/>
      </g>
     </g>
     <g id="text_7">
      <!-- 15 -->
      <g transform="translate(287.698458 287.910437) scale(0.1 -0.1)">
       <use xlink:href="#DejaVuSans-31"/>
       <use xlink:href="#DejaVuSans-35" x="63.623047"/>
      </g>
     </g>
    </g>
    <g id="xtick_8">
     <g id="line2d_8">
      <g>
       <use xlink:href="#m15129e77f8" x="334.900028" y="273.312" style="stroke: #000000; stroke-width: 0.8"/>
      </g>
     </g>
     <g id="text_8">
      <!-- 20 -->
      <g transform="translate(328.537528 287.910437) scale(0.1 -0.1)">
       <defs>
        <path id="DejaVuSans-32" d="M 1228 531 
L 3431 531 
L 3431 0 
L 469 0 
L 469 531 
Q 828 903 1448 1529 
Q 2069 2156 2228 2338 
Q 2531 2678 2651 2914 
Q 2772 3150 2772 3378 
Q 2772 3750 2511 3984 
Q 2250 4219 1831 4219 
Q 1534 4219 1204 4116 
Q 875 4013 500 3803 
L 500 4441 
Q 881 4594 1212 4672 
Q 1544 4750 1819 4750 
Q 2544 4750 2975 4387 
Q 3406 4025 3406 3419 
Q 3406 3131 3298 2873 
Q 3191 2616 2906 2266 
Q 2828 2175 2409 1742 
Q 1991 1309 1228 531 
z
" transform="scale(0.015625)"/>
       </defs>
       <use xlink:href="#DejaVuSans-32"/>
       <use xlink:href="#DejaVuSans-30" x="63.623047"/>
      </g>
     </g>
    </g>
    <g id="xtick_9">
     <g id="line2d_9">
      <g>
       <use xlink:href="#m15129e77f8" x="375.739098" y="273.312" style="stroke: #000000; stroke-width: 0.8"/>
      </g>
     </g>
     <g id="text_9">
      <!-- 25 -->
      <g transform="translate(369.376598 287.910437) scale(0.1 -0.1)">
       <use xlink:href="#DejaVuSans-32"/>
       <use xlink:href="#DejaVuSans-35" x="63.623047"/>
      </g>
     </g>
    </g>
   </g>
   <g id="matplotlib.axis_2">
    <g id="ytick_1">
     <g id="line2d_10">
      <defs>
       <path id="m9773457e77" d="M 0 0 
L -3.5 0 
" style="stroke: #000000; stroke-width: 0.8"/>
      </defs>
      <g>
       <use xlink:href="#m9773457e77" x="35.304688" y="268.200272" style="stroke: #000000; stroke-width: 0.8"/>
      </g>
     </g>
     <g id="text_10">
      <!-- −20 -->
      <g transform="translate(7.2 271.999491) scale(0.1 -0.1)">
       <use xlink:href="#DejaVuSans-2212"/>
       <use xlink:href="#DejaVuSans-32" x="83.789062"/>
       <use xlink:href="#DejaVuSans-30" x="147.412109"/>
      </g>
     </g>
    </g>
    <g id="ytick_2">
     <g id="line2d_11">
      <g>
       <use xlink:href="#m9773457e77" x="35.304688" y="210.224636" style="stroke: #000000; stroke-width: 0.8"/>
      </g>
     </g>
     <g id="text_11">
      <!-- −10 -->
      <g transform="translate(7.2 214.023854) scale(0.1 -0.1)">
       <use xlink:href="#DejaVuSans-2212"/>
       <use xlink:href="#DejaVuSans-31" x="83.789062"/>
       <use xlink:href="#DejaVuSans-30" x="147.412109"/>
      </g>
     </g>
    </g>
    <g id="ytick_3">
     <g id="line2d_12">
      <g>
       <use xlink:href="#m9773457e77" x="35.304688" y="152.248999" style="stroke: #000000; stroke-width: 0.8"/>
      </g>
     </g>
     <g id="text_12">
      <!-- 0 -->
      <g transform="translate(21.942187 156.048218) scale(0.1 -0.1)">
       <use xlink:href="#DejaVuSans-30"/>
      </g>
     </g>
    </g>
    <g id="ytick_4">
     <g id="line2d_13">
      <g>
       <use xlink:href="#m9773457e77" x="35.304688" y="94.273362" style="stroke: #000000; stroke-width: 0.8"/>
      </g>
     </g>
     <g id="text_13">
      <!-- 10 -->
      <g transform="translate(15.579687 98.072581) scale(0.1 -0.1)">
       <use xlink:href="#DejaVuSans-31"/>
       <use xlink:href="#DejaVuSans-30" x="63.623047"/>
      </g>
     </g>
    </g>
    <g id="ytick_5">
     <g id="line2d_14">
      <g>
       <use xlink:href="#m9773457e77" x="35.304688" y="36.297725" style="stroke: #000000; stroke-width: 0.8"/>
      </g>
     </g>
     <g id="text_14">
      <!-- 20 -->
      <g transform="translate(15.579687 40.096944) scale(0.1 -0.1)">
       <use xlink:href="#DejaVuSans-32"/>
       <use xlink:href="#DejaVuSans-30" x="63.623047"/>
      </g>
     </g>
    </g>
   </g>
   <g id="patch_3">
    <path d="M 35.304688 273.312 
L 35.304688 7.2 
" style="fill: none; stroke: #000000; stroke-width: 0.8; stroke-linejoin: miter; stroke-linecap: square"/>
   </g>
   <g id="patch_4">
    <path d="M 392.424688 273.312 
L 392.424688 7.2 
" style="fill: none; stroke: #000000; stroke-width: 0.8; stroke-linejoin: miter; stroke-linecap: square"/>
   </g>
   <g id="patch_5">
    <path d="M 35.304688 273.312 
L 392.424688 273.312 
" style="fill: none; stroke: #000000; stroke-width: 0.8; stroke-linejoin: miter; stroke-linecap: square"/>
   </g>
   <g id="patch_6">
    <path d="M 35.304688 7.2 
L 392.424688 7.2 
" style="fill: none; stroke: #000000; stroke-width: 0.8; stroke-linejoin: miter; stroke-linecap: square"/>
   </g>
  </g>
 </g>
 <defs>
  <clipPath id="pf141212ae0">
   <rect x="35.304688" y="7.2" width="357.12" height="266.112"/>
  </clipPath>
 </defs>
</svg>
