<?xml version="1.0" encoding="utf-8" standalone="no"?>
<!DOCTYPE svg PUBLIC "-//W3C//DTD SVG 1.1//EN"
  "http://www.w3.org/Graphics/SVG/1.1/DTD/svg11.dtd">
<svg xmlns:xlink="http://www.w3.org/1999/xlink" width="399.624687pt" height="297.190125pt" viewBox="0 0 399.624687 297.190125" xmlns="http://www.w3.org/2000/svg" version="1.1">
 <metadata>
  <rdf:RDF xmlns:dc="http://purl.org/dc/elements/1.1/" xmlns:cc="http://creativecommons.org/ns#" xmlns:rdf="http://www.w3.org/1999/02/22-rdf-syntax-ns#">
   <cc:Work>
    <dc:type rdf:resource="http://purl.org/dc/dcmitype/StillImage"/>
    <dc:date>2023-11-12T22:05:13.741684</dc:date>
    <dc:format>image/svg+xml</dc:format>
    <dc:creator>
     <cc:Agent>
      <dc:title>Matplotlib v3.8.0, https://matplotlib.org/</dc:title>
     </cc:Agent>
    </dc:creator>
   </cc:Work>
  </rdf:RDF>
 </metadata>
 <defs>
  <style type="text/css">*{stroke-linejoin: round; stroke-linecap: butt}</style>
 </defs>
 <g id="figure_1">
  <g id="patch_1">
   <path d="M 0 297.190125 
L 399.624687 297.190125 
L 399.624687 0 
L 0 0 
z
" style="fill: #ffffff"/>
  </g>
  <g id="axes_1">
   <g id="patch_2">
    <path d="M 35.304688 273.312 
L 392.424688 273.312 
L 392.424688 7.2 
L 35.304688 7.2 
z
" style="fill: #ffffff"/>
   </g>
   <g id="PathCollection_1">
    <defs>
     <path id="ma558a643be" d="M 0 1.5 
C 0.397805 1.5 0.77937 1.341951 1.06066 1.06066 
C 1.341951 0.77937 1.5 0.397805 1.5 0 
C 1.5 -0.397805 1.341951 -0.77937 1.06066 -1.06066 
C 0.77937 -1.341951 0.397805 -1.5 0 -1.5 
C -0.397805 -1.5 -0.77937 -1.341951 -1.06066 -1.06066 
C -1.341951 -0.77937 -1.5 -0.397805 -1.5 0 
C -1.5 0.397805 -1.341951 0.77937 -1.06066 1.06066 
C -0.77937 1.341951 -0.397805 1.5 0 1.5 
z
" style="stroke: #ff8c00"/>
    </defs>
    <g clip-path="url(#p380112e9ab)">
     <use xlink:href="#ma558a643be" x="224.829951" y="193.115312" style="fill: #ff8c00; stroke: #ff8c00"/>
     <use xlink:href="#ma558a643be" x="339.543019" y="206.751964" style="fill: #ff8c00; stroke: #ff8c00"/>
     <use xlink:href="#ma558a643be" x="321.111152" y="178.194479" style="fill: #ff8c00; stroke: #ff8c00"/>
     <use xlink:href="#ma558a643be" x="376.19196" y="227.013532" style="fill: #ff8c00; stroke: #ff8c00"/>
     <use xlink:href="#ma558a643be" x="269.526667" y="179.715387" style="fill: #ff8c00; stroke: #ff8c00"/>
     <use xlink:href="#ma558a643be" x="231.391166" y="255.869013" style="fill: #ff8c00; stroke: #ff8c00"/>
     <use xlink:href="#ma558a643be" x="260.369585" y="182.061215" style="fill: #ff8c00; stroke: #ff8c00"/>
     <use xlink:href="#ma558a643be" x="291.62374" y="189.155101" style="fill: #ff8c00; stroke: #ff8c00"/>
     <use xlink:href="#ma558a643be" x="237.456363" y="196.731744" style="fill: #ff8c00; stroke: #ff8c00"/>
     <use xlink:href="#ma558a643be" x="242.556185" y="208.054175" style="fill: #ff8c00; stroke: #ff8c00"/>
    </g>
   </g>
   <g id="PathCollection_2">
    <defs>
     <path id="mc8f0821c16" d="M 0 1.5 
C 0.397805 1.5 0.77937 1.341951 1.06066 1.06066 
C 1.341951 0.77937 1.5 0.397805 1.5 0 
C 1.5 -0.397805 1.341951 -0.77937 1.06066 -1.06066 
C 0.77937 -1.341951 0.397805 -1.5 0 -1.5 
C -0.397805 -1.5 -0.77937 -1.341951 -1.06066 -1.06066 
C -1.341951 -0.77937 -1.5 -0.397805 -1.5 0 
C -1.5 0.397805 -1.341951 0.77937 -1.06066 1.06066 
C -0.77937 1.341951 -0.397805 1.5 0 1.5 
z
" style="stroke: #006400"/>
    </defs>
    <g clip-path="url(#p380112e9ab)">
     <use xlink:href="#mc8f0821c16" x="111.024537" y="110.515279" style="fill: #006400; stroke: #006400"/>
     <use xlink:href="#mc8f0821c16" x="61.544003" y="139.932256" style="fill: #006400; stroke: #006400"/>
     <use xlink:href="#mc8f0821c16" x="127.586291" y="99.178078" style="fill: #006400; stroke: #006400"/>
     <use xlink:href="#mc8f0821c16" x="115.949377" y="112.582155" style="fill: #006400; stroke: #006400"/>
     <use xlink:href="#mc8f0821c16" x="127.938105" y="72.248907" style="fill: #006400; stroke: #006400"/>
     <use xlink:href="#mc8f0821c16" x="103.836092" y="112.763756" style="fill: #006400; stroke: #006400"/>
     <use xlink:href="#mc8f0821c16" x="145.215823" y="70.695685" style="fill: #006400; stroke: #006400"/>
     <use xlink:href="#mc8f0821c16" x="127.276989" y="166.92406" style="fill: #006400; stroke: #006400"/>
     <use xlink:href="#mc8f0821c16" x="82.112335" y="110.376181" style="fill: #006400; stroke: #006400"/>
     <use xlink:href="#mc8f0821c16" x="121.048787" y="140.418324" style="fill: #006400; stroke: #006400"/>
     <use xlink:href="#mc8f0821c16" x="106.850258" y="133.784104" style="fill: #006400; stroke: #006400"/>
     <use xlink:href="#mc8f0821c16" x="159.315246" y="143.473002" style="fill: #006400; stroke: #006400"/>
     <use xlink:href="#mc8f0821c16" x="78.640391" y="157.133435" style="fill: #006400; stroke: #006400"/>
     <use xlink:href="#mc8f0821c16" x="101.24496" y="110.741262" style="fill: #006400; stroke: #006400"/>
     <use xlink:href="#mc8f0821c16" x="127.396472" y="24.814307" style="fill: #006400; stroke: #006400"/>
     <use xlink:href="#mc8f0821c16" x="115.197318" y="66.20882" style="fill: #006400; stroke: #006400"/>
     <use xlink:href="#mc8f0821c16" x="54.112767" y="161.251674" style="fill: #006400; stroke: #006400"/>
     <use xlink:href="#mc8f0821c16" x="88.079006" y="126.993269" style="fill: #006400; stroke: #006400"/>
    </g>
   </g>
   <g id="PathCollection_3">
    <defs>
     <path id="m0aaf939158" d="M 0 1.5 
C 0.397805 1.5 0.77937 1.341951 1.06066 1.06066 
C 1.341951 0.77937 1.5 0.397805 1.5 0 
C 1.5 -0.397805 1.341951 -0.77937 1.06066 -1.06066 
C 0.77937 -1.341951 0.397805 -1.5 0 -1.5 
C -0.397805 -1.5 -0.77937 -1.341951 -1.06066 -1.06066 
C -1.341951 -0.77937 -1.5 -0.397805 -1.5 0 
C -1.5 0.397805 -1.341951 0.77937 -1.06066 1.06066 
C -0.77937 1.341951 -0.397805 1.5 0 1.5 
z
" style="stroke: #2f4f4f"/>
    </defs>
    <g clip-path="url(#p380112e9ab)">
     <use xlink:href="#m0aaf939158" x="124.495927" y="79.15402" style="fill: #2f4f4f; stroke: #2f4f4f"/>
     <use xlink:href="#m0aaf939158" x="99.777449" y="91.008901" style="fill: #2f4f4f; stroke: #2f4f4f"/>
     <use xlink:href="#m0aaf939158" x="142.084261" y="85.492889" style="fill: #2f4f4f; stroke: #2f4f4f"/>
     <use xlink:href="#m0aaf939158" x="165.56989" y="61.371114" style="fill: #2f4f4f; stroke: #2f4f4f"/>
     <use xlink:href="#m0aaf939158" x="173.264144" y="31.925764" style="fill: #2f4f4f; stroke: #2f4f4f"/>
     <use xlink:href="#m0aaf939158" x="176.700827" y="59.343451" style="fill: #2f4f4f; stroke: #2f4f4f"/>
     <use xlink:href="#m0aaf939158" x="141.568223" y="64.470896" style="fill: #2f4f4f; stroke: #2f4f4f"/>
     <use xlink:href="#m0aaf939158" x="165.846365" y="72.744648" style="fill: #2f4f4f; stroke: #2f4f4f"/>
     <use xlink:href="#m0aaf939158" x="146.768895" y="61.115686" style="fill: #2f4f4f; stroke: #2f4f4f"/>
     <use xlink:href="#m0aaf939158" x="160.054227" y="87.393701" style="fill: #2f4f4f; stroke: #2f4f4f"/>
     <use xlink:href="#m0aaf939158" x="133.900804" y="84.047623" style="fill: #2f4f4f; stroke: #2f4f4f"/>
     <use xlink:href="#m0aaf939158" x="135.429276" y="146.950878" style="fill: #2f4f4f; stroke: #2f4f4f"/>
     <use xlink:href="#m0aaf939158" x="105.899287" y="133.395136" style="fill: #2f4f4f; stroke: #2f4f4f"/>
     <use xlink:href="#m0aaf939158" x="121.040227" y="60.372097" style="fill: #2f4f4f; stroke: #2f4f4f"/>
     <use xlink:href="#m0aaf939158" x="126.688897" y="135.736677" style="fill: #2f4f4f; stroke: #2f4f4f"/>
     <use xlink:href="#m0aaf939158" x="136.166893" y="144.400799" style="fill: #2f4f4f; stroke: #2f4f4f"/>
    </g>
   </g>
   <g id="PathCollection_4">
    <defs>
     <path id="m59e11d8ee9" d="M 0 1.5 
C 0.397805 1.5 0.77937 1.341951 1.06066 1.06066 
C 1.341951 0.77937 1.5 0.397805 1.5 0 
C 1.5 -0.397805 1.341951 -0.77937 1.06066 -1.06066 
C 0.77937 -1.341951 0.397805 -1.5 0 -1.5 
C -0.397805 -1.5 -0.77937 -1.341951 -1.06066 -1.06066 
C -1.341951 -0.77937 -1.5 -0.397805 -1.5 0 
C -1.5 0.397805 -1.341951 0.77937 -1.06066 1.06066 
C -0.77937 1.341951 -0.397805 1.5 0 1.5 
z
" style="stroke: #00bfff"/>
    </defs>
    <g clip-path="url(#p380112e9ab)">
     <use xlink:href="#m59e11d8ee9" x="122.725405" y="119.490047" style="fill: #00bfff; stroke: #00bfff"/>
     <use xlink:href="#m59e11d8ee9" x="144.188302" y="150.883558" style="fill: #00bfff; stroke: #00bfff"/>
     <use xlink:href="#m59e11d8ee9" x="82.649821" y="122.319947" style="fill: #00bfff; stroke: #00bfff"/>
     <use xlink:href="#m59e11d8ee9" x="113.313345" y="116.744295" style="fill: #00bfff; stroke: #00bfff"/>
     <use xlink:href="#m59e11d8ee9" x="147.658529" y="172.890523" style="fill: #00bfff; stroke: #00bfff"/>
     <use xlink:href="#m59e11d8ee9" x="114.514955" y="103.771893" style="fill: #00bfff; stroke: #00bfff"/>
     <use xlink:href="#m59e11d8ee9" x="104.197577" y="108.476024" style="fill: #00bfff; stroke: #00bfff"/>
     <use xlink:href="#m59e11d8ee9" x="105.667242" y="91.596643" style="fill: #00bfff; stroke: #00bfff"/>
     <use xlink:href="#m59e11d8ee9" x="131.907639" y="114.301599" style="fill: #00bfff; stroke: #00bfff"/>
     <use xlink:href="#m59e11d8ee9" x="120.968244" y="152.807504" style="fill: #00bfff; stroke: #00bfff"/>
     <use xlink:href="#m59e11d8ee9" x="129.489318" y="156.480695" style="fill: #00bfff; stroke: #00bfff"/>
    </g>
   </g>
   <g id="PathCollection_5">
    <defs>
     <path id="md2af0866a9" d="M 0 1.5 
C 0.397805 1.5 0.77937 1.341951 1.06066 1.06066 
C 1.341951 0.77937 1.5 0.397805 1.5 0 
C 1.5 -0.397805 1.341951 -0.77937 1.06066 -1.06066 
C 0.77937 -1.341951 0.397805 -1.5 0 -1.5 
C -0.397805 -1.5 -0.77937 -1.341951 -1.06066 -1.06066 
C -1.341951 -0.77937 -1.5 -0.397805 -1.5 0 
C -1.5 0.397805 -1.341951 0.77937 -1.06066 1.06066 
C -0.77937 1.341951 -0.397805 1.5 0 1.5 
z
" style="stroke: #ffff00"/>
    </defs>
    <g clip-path="url(#p380112e9ab)">
     <use xlink:href="#md2af0866a9" x="141.153805" y="57.182932" style="fill: #ffff00; stroke: #ffff00"/>
     <use xlink:href="#md2af0866a9" x="154.222213" y="85.497466" style="fill: #ffff00; stroke: #ffff00"/>
     <use xlink:href="#md2af0866a9" x="128.83599" y="66.259382" style="fill: #ffff00; stroke: #ffff00"/>
     <use xlink:href="#md2af0866a9" x="111.102322" y="53.843221" style="fill: #ffff00; stroke: #ffff00"/>
     <use xlink:href="#md2af0866a9" x="134.660581" y="65.526395" style="fill: #ffff00; stroke: #ffff00"/>
     <use xlink:href="#md2af0866a9" x="144.851757" y="79.209784" style="fill: #ffff00; stroke: #ffff00"/>
     <use xlink:href="#md2af0866a9" x="190.347234" y="27.626571" style="fill: #ffff00; stroke: #ffff00"/>
     <use xlink:href="#md2af0866a9" x="128.678841" y="85.307592" style="fill: #ffff00; stroke: #ffff00"/>
     <use xlink:href="#md2af0866a9" x="98.131561" y="117.196863" style="fill: #ffff00; stroke: #ffff00"/>
     <use xlink:href="#md2af0866a9" x="126.524204" y="84.399719" style="fill: #ffff00; stroke: #ffff00"/>
     <use xlink:href="#md2af0866a9" x="152.318284" y="98.749509" style="fill: #ffff00; stroke: #ffff00"/>
     <use xlink:href="#md2af0866a9" x="140.416768" y="112.562375" style="fill: #ffff00; stroke: #ffff00"/>
     <use xlink:href="#md2af0866a9" x="112.935382" y="109.9172" style="fill: #ffff00; stroke: #ffff00"/>
     <use xlink:href="#md2af0866a9" x="121.818848" y="118.137046" style="fill: #ffff00; stroke: #ffff00"/>
     <use xlink:href="#md2af0866a9" x="118.209253" y="106.491561" style="fill: #ffff00; stroke: #ffff00"/>
     <use xlink:href="#md2af0866a9" x="123.604658" y="19.296" style="fill: #ffff00; stroke: #ffff00"/>
     <use xlink:href="#md2af0866a9" x="149.424522" y="105.763734" style="fill: #ffff00; stroke: #ffff00"/>
    </g>
   </g>
   <g id="PathCollection_6">
    <defs>
     <path id="me3ed9d5045" d="M 0 1.5 
C 0.397805 1.5 0.77937 1.341951 1.06066 1.06066 
C 1.341951 0.77937 1.5 0.397805 1.5 0 
C 1.5 -0.397805 1.341951 -0.77937 1.06066 -1.06066 
C 0.77937 -1.341951 0.397805 -1.5 0 -1.5 
C -0.397805 -1.5 -0.77937 -1.341951 -1.06066 -1.06066 
C -1.341951 -0.77937 -1.5 -0.397805 -1.5 0 
C -1.5 0.397805 -1.341951 0.77937 -1.06066 1.06066 
C -0.77937 1.341951 -0.397805 1.5 0 1.5 
z
" style="stroke: #00ffff"/>
    </defs>
    <g clip-path="url(#p380112e9ab)">
     <use xlink:href="#me3ed9d5045" x="130.671966" y="134.18666" style="fill: #00ffff; stroke: #00ffff"/>
     <use xlink:href="#me3ed9d5045" x="147.432965" y="152.181894" style="fill: #00ffff; stroke: #00ffff"/>
     <use xlink:href="#me3ed9d5045" x="129.106165" y="119.416569" style="fill: #00ffff; stroke: #00ffff"/>
     <use xlink:href="#me3ed9d5045" x="114.615761" y="92.564895" style="fill: #00ffff; stroke: #00ffff"/>
     <use xlink:href="#me3ed9d5045" x="123.588635" y="120.914023" style="fill: #00ffff; stroke: #00ffff"/>
    </g>
   </g>
   <g id="PathCollection_7">
    <defs>
     <path id="m0acf1911fe" d="M 0 1.5 
C 0.397805 1.5 0.77937 1.341951 1.06066 1.06066 
C 1.341951 0.77937 1.5 0.397805 1.5 0 
C 1.5 -0.397805 1.341951 -0.77937 1.06066 -1.06066 
C 0.77937 -1.341951 0.397805 -1.5 0 -1.5 
C -0.397805 -1.5 -0.77937 -1.341951 -1.06066 -1.06066 
C -1.341951 -0.77937 -1.5 -0.397805 -1.5 0 
C -1.5 0.397805 -1.341951 0.77937 -1.06066 1.06066 
C -0.77937 1.341951 -0.397805 1.5 0 1.5 
z
" style="stroke: #0000ff"/>
    </defs>
    <g clip-path="url(#p380112e9ab)">
     <use xlink:href="#m0acf1911fe" x="104.196809" y="92.853979" style="fill: #0000ff; stroke: #0000ff"/>
     <use xlink:href="#m0acf1911fe" x="104.128009" y="125.36249" style="fill: #0000ff; stroke: #0000ff"/>
     <use xlink:href="#m0acf1911fe" x="143.951938" y="111.257053" style="fill: #0000ff; stroke: #0000ff"/>
     <use xlink:href="#m0acf1911fe" x="175.740485" y="89.378452" style="fill: #0000ff; stroke: #0000ff"/>
     <use xlink:href="#m0acf1911fe" x="166.663366" y="99.357941" style="fill: #0000ff; stroke: #0000ff"/>
     <use xlink:href="#m0acf1911fe" x="129.329752" y="122.639642" style="fill: #0000ff; stroke: #0000ff"/>
     <use xlink:href="#m0acf1911fe" x="137.409323" y="106.600082" style="fill: #0000ff; stroke: #0000ff"/>
     <use xlink:href="#m0acf1911fe" x="137.770464" y="127.726597" style="fill: #0000ff; stroke: #0000ff"/>
     <use xlink:href="#m0acf1911fe" x="164.341605" y="60.473737" style="fill: #0000ff; stroke: #0000ff"/>
     <use xlink:href="#m0acf1911fe" x="115.116218" y="95.100218" style="fill: #0000ff; stroke: #0000ff"/>
     <use xlink:href="#m0acf1911fe" x="159.906095" y="116.816132" style="fill: #0000ff; stroke: #0000ff"/>
     <use xlink:href="#m0acf1911fe" x="138.891796" y="89.584424" style="fill: #0000ff; stroke: #0000ff"/>
    </g>
   </g>
   <g id="PathCollection_8">
    <defs>
     <path id="m7558b9303e" d="M 0 1.5 
C 0.397805 1.5 0.77937 1.341951 1.06066 1.06066 
C 1.341951 0.77937 1.5 0.397805 1.5 0 
C 1.5 -0.397805 1.341951 -0.77937 1.06066 -1.06066 
C 0.77937 -1.341951 0.397805 -1.5 0 -1.5 
C -0.397805 -1.5 -0.77937 -1.341951 -1.06066 -1.06066 
C -1.341951 -0.77937 -1.5 -0.397805 -1.5 0 
C -1.5 0.397805 -1.341951 0.77937 -1.06066 1.06066 
C -0.77937 1.341951 -0.397805 1.5 0 1.5 
z
" style="stroke: #dc143c"/>
    </defs>
    <g clip-path="url(#p380112e9ab)">
     <use xlink:href="#m7558b9303e" x="153.357016" y="145.643658" style="fill: #dc143c; stroke: #dc143c"/>
     <use xlink:href="#m7558b9303e" x="114.225712" y="148.758521" style="fill: #dc143c; stroke: #dc143c"/>
     <use xlink:href="#m7558b9303e" x="106.637952" y="159.38616" style="fill: #dc143c; stroke: #dc143c"/>
     <use xlink:href="#m7558b9303e" x="114.78326" y="180.302234" style="fill: #dc143c; stroke: #dc143c"/>
     <use xlink:href="#m7558b9303e" x="122.798869" y="105.886317" style="fill: #dc143c; stroke: #dc143c"/>
     <use xlink:href="#m7558b9303e" x="121.144121" y="185.091939" style="fill: #dc143c; stroke: #dc143c"/>
     <use xlink:href="#m7558b9303e" x="85.581491" y="132.388666" style="fill: #dc143c; stroke: #dc143c"/>
     <use xlink:href="#m7558b9303e" x="134.968814" y="134.468126" style="fill: #dc143c; stroke: #dc143c"/>
     <use xlink:href="#m7558b9303e" x="182.942356" y="151.578068" style="fill: #dc143c; stroke: #dc143c"/>
     <use xlink:href="#m7558b9303e" x="89.630795" y="191.897489" style="fill: #dc143c; stroke: #dc143c"/>
     <use xlink:href="#m7558b9303e" x="92.245664" y="151.386872" style="fill: #dc143c; stroke: #dc143c"/>
     <use xlink:href="#m7558b9303e" x="167.764534" y="135.064917" style="fill: #dc143c; stroke: #dc143c"/>
     <use xlink:href="#m7558b9303e" x="134.120842" y="175.731053" style="fill: #dc143c; stroke: #dc143c"/>
     <use xlink:href="#m7558b9303e" x="91.633161" y="137.101805" style="fill: #dc143c; stroke: #dc143c"/>
     <use xlink:href="#m7558b9303e" x="93.403242" y="170.700081" style="fill: #dc143c; stroke: #dc143c"/>
     <use xlink:href="#m7558b9303e" x="147.154202" y="156.672908" style="fill: #dc143c; stroke: #dc143c"/>
     <use xlink:href="#m7558b9303e" x="117.020194" y="138.126889" style="fill: #dc143c; stroke: #dc143c"/>
     <use xlink:href="#m7558b9303e" x="129.677524" y="135.003905" style="fill: #dc143c; stroke: #dc143c"/>
     <use xlink:href="#m7558b9303e" x="108.203634" y="164.114073" style="fill: #dc143c; stroke: #dc143c"/>
     <use xlink:href="#m7558b9303e" x="121.134508" y="146.974343" style="fill: #dc143c; stroke: #dc143c"/>
     <use xlink:href="#m7558b9303e" x="111.093748" y="112.956548" style="fill: #dc143c; stroke: #dc143c"/>
    </g>
   </g>
   <g id="PathCollection_9">
    <defs>
     <path id="m10c60f8673" d="M 0 1.5 
C 0.397805 1.5 0.77937 1.341951 1.06066 1.06066 
C 1.341951 0.77937 1.5 0.397805 1.5 0 
C 1.5 -0.397805 1.341951 -0.77937 1.06066 -1.06066 
C 0.77937 -1.341951 0.397805 -1.5 0 -1.5 
C -0.397805 -1.5 -0.77937 -1.341951 -1.06066 -1.06066 
C -1.341951 -0.77937 -1.5 -0.397805 -1.5 0 
C -1.5 0.397805 -1.341951 0.77937 -1.06066 1.06066 
C -0.77937 1.341951 -0.397805 1.5 0 1.5 
z
" style="stroke: #ffe4c4"/>
    </defs>
    <g clip-path="url(#p380112e9ab)">
     <use xlink:href="#m10c60f8673" x="326.886553" y="164.557657" style="fill: #ffe4c4; stroke: #ffe4c4"/>
     <use xlink:href="#m10c60f8673" x="169.33989" y="210.917111" style="fill: #ffe4c4; stroke: #ffe4c4"/>
     <use xlink:href="#m10c60f8673" x="179.551344" y="95.092587" style="fill: #ffe4c4; stroke: #ffe4c4"/>
     <use xlink:href="#m10c60f8673" x="181.025107" y="177.323094" style="fill: #ffe4c4; stroke: #ffe4c4"/>
     <use xlink:href="#m10c60f8673" x="80.990807" y="176.799953" style="fill: #ffe4c4; stroke: #ffe4c4"/>
     <use xlink:href="#m10c60f8673" x="128.959725" y="231.085502" style="fill: #ffe4c4; stroke: #ffe4c4"/>
     <use xlink:href="#m10c60f8673" x="254.278354" y="197.589209" style="fill: #ffe4c4; stroke: #ffe4c4"/>
     <use xlink:href="#m10c60f8673" x="329.689337" y="171.870956" style="fill: #ffe4c4; stroke: #ffe4c4"/>
     <use xlink:href="#m10c60f8673" x="152.763035" y="174.097413" style="fill: #ffe4c4; stroke: #ffe4c4"/>
     <use xlink:href="#m10c60f8673" x="196.640061" y="198.247821" style="fill: #ffe4c4; stroke: #ffe4c4"/>
     <use xlink:href="#m10c60f8673" x="240.980758" y="172.945657" style="fill: #ffe4c4; stroke: #ffe4c4"/>
     <use xlink:href="#m10c60f8673" x="173.99243" y="172.661589" style="fill: #ffe4c4; stroke: #ffe4c4"/>
     <use xlink:href="#m10c60f8673" x="164.368263" y="154.915703" style="fill: #ffe4c4; stroke: #ffe4c4"/>
     <use xlink:href="#m10c60f8673" x="236.176133" y="187.644575" style="fill: #ffe4c4; stroke: #ffe4c4"/>
     <use xlink:href="#m10c60f8673" x="155.45551" y="78.955421" style="fill: #ffe4c4; stroke: #ffe4c4"/>
     <use xlink:href="#m10c60f8673" x="207.121748" y="149.849084" style="fill: #ffe4c4; stroke: #ffe4c4"/>
     <use xlink:href="#m10c60f8673" x="111.641241" y="152.407771" style="fill: #ffe4c4; stroke: #ffe4c4"/>
     <use xlink:href="#m10c60f8673" x="219.851967" y="176.816456" style="fill: #ffe4c4; stroke: #ffe4c4"/>
    </g>
   </g>
   <g id="PathCollection_10">
    <defs>
     <path id="m9a2a9bfec1" d="M -2.99994 2.99994 
L 3.00006 2.99994 
L 3.00006 -3.00006 
L -2.99994 -3.00006 
z
" style="stroke: #000000"/>
    </defs>
    <g clip-path="url(#p380112e9ab)">
     <use xlink:href="#m9a2a9bfec1" x="127.009709" y="229.549563" style="stroke: #000000"/>
     <use xlink:href="#m9a2a9bfec1" x="116.313172" y="197.489319" style="stroke: #000000"/>
     <use xlink:href="#m9a2a9bfec1" x="222.232974" y="180.029316" style="stroke: #000000"/>
     <use xlink:href="#m9a2a9bfec1" x="130.725114" y="149.052116" style="stroke: #000000"/>
     <use xlink:href="#m9a2a9bfec1" x="96.086796" y="189.727877" style="stroke: #000000"/>
     <use xlink:href="#m9a2a9bfec1" x="76.736662" y="227.511528" style="stroke: #000000"/>
     <use xlink:href="#m9a2a9bfec1" x="51.712458" y="155.624095" style="stroke: #000000"/>
     <use xlink:href="#m9a2a9bfec1" x="99.445388" y="229.979704" style="stroke: #000000"/>
     <use xlink:href="#m9a2a9bfec1" x="92.849368" y="152.732596" style="stroke: #000000"/>
     <use xlink:href="#m9a2a9bfec1" x="123.999207" y="167.326226" style="stroke: #000000"/>
     <use xlink:href="#m9a2a9bfec1" x="183.514099" y="133.358834" style="stroke: #000000"/>
     <use xlink:href="#m9a2a9bfec1" x="121.48019" y="163.44538" style="stroke: #000000"/>
     <use xlink:href="#m9a2a9bfec1" x="146.430834" y="223.139184" style="stroke: #000000"/>
     <use xlink:href="#m9a2a9bfec1" x="84.681325" y="228.25177" style="stroke: #000000"/>
     <use xlink:href="#m9a2a9bfec1" x="67.083861" y="184.305657" style="stroke: #000000"/>
     <use xlink:href="#m9a2a9bfec1" x="132.777529" y="215.175637" style="stroke: #000000"/>
     <use xlink:href="#m9a2a9bfec1" x="141.211603" y="170.061413" style="stroke: #000000"/>
     <use xlink:href="#m9a2a9bfec1" x="122.792058" y="103.241183" style="stroke: #000000"/>
     <use xlink:href="#m9a2a9bfec1" x="111.025515" y="102.161816" style="stroke: #000000"/>
     <use xlink:href="#m9a2a9bfec1" x="163.321064" y="116.962196" style="stroke: #000000"/>
     <use xlink:href="#m9a2a9bfec1" x="106.829365" y="152.194144" style="stroke: #000000"/>
     <use xlink:href="#m9a2a9bfec1" x="140.520939" y="183.173541" style="stroke: #000000"/>
     <use xlink:href="#m9a2a9bfec1" x="76.238334" y="195.082256" style="stroke: #000000"/>
     <use xlink:href="#m9a2a9bfec1" x="101.107578" y="204.482279" style="stroke: #000000"/>
     <use xlink:href="#m9a2a9bfec1" x="118.243102" y="148.949208" style="stroke: #000000"/>
     <use xlink:href="#m9a2a9bfec1" x="133.339692" y="109.548951" style="stroke: #000000"/>
     <use xlink:href="#m9a2a9bfec1" x="70.724371" y="191.632174" style="stroke: #000000"/>
     <use xlink:href="#m9a2a9bfec1" x="154.368382" y="260.89812" style="stroke: #000000"/>
     <use xlink:href="#m9a2a9bfec1" x="64.206898" y="200.862224" style="stroke: #000000"/>
     <use xlink:href="#m9a2a9bfec1" x="85.728867" y="167.143066" style="stroke: #000000"/>
     <use xlink:href="#m9a2a9bfec1" x="79.609557" y="144.527842" style="stroke: #000000"/>
     <use xlink:href="#m9a2a9bfec1" x="63.734799" y="193.697741" style="stroke: #000000"/>
     <use xlink:href="#m9a2a9bfec1" x="111.175938" y="181.077725" style="stroke: #000000"/>
     <use xlink:href="#m9a2a9bfec1" x="163.292633" y="189.685617" style="stroke: #000000"/>
     <use xlink:href="#m9a2a9bfec1" x="120.439764" y="187.043389" style="stroke: #000000"/>
     <use xlink:href="#m9a2a9bfec1" x="100.907721" y="173.735317" style="stroke: #000000"/>
     <use xlink:href="#m9a2a9bfec1" x="102.59463" y="119.793259" style="stroke: #000000"/>
     <use xlink:href="#m9a2a9bfec1" x="154.973417" y="123.856161" style="stroke: #000000"/>
     <use xlink:href="#m9a2a9bfec1" x="89.564254" y="212.358152" style="stroke: #000000"/>
     <use xlink:href="#m9a2a9bfec1" x="85.117555" y="203.966562" style="stroke: #000000"/>
     <use xlink:href="#m9a2a9bfec1" x="167.574864" y="217.884006" style="stroke: #000000"/>
     <use xlink:href="#m9a2a9bfec1" x="93.189157" y="119.500724" style="stroke: #000000"/>
     <use xlink:href="#m9a2a9bfec1" x="195.885266" y="157.299838" style="stroke: #000000"/>
     <use xlink:href="#m9a2a9bfec1" x="75.196612" y="202.364126" style="stroke: #000000"/>
     <use xlink:href="#m9a2a9bfec1" x="51.537415" y="157.260688" style="stroke: #000000"/>
     <use xlink:href="#m9a2a9bfec1" x="147.536521" y="227.195676" style="stroke: #000000"/>
     <use xlink:href="#m9a2a9bfec1" x="110.375141" y="236.963412" style="stroke: #000000"/>
     <use xlink:href="#m9a2a9bfec1" x="126.03016" y="215.202064" style="stroke: #000000"/>
     <use xlink:href="#m9a2a9bfec1" x="72.172221" y="135.470891" style="stroke: #000000"/>
     <use xlink:href="#m9a2a9bfec1" x="102.255384" y="176.523138" style="stroke: #000000"/>
     <use xlink:href="#m9a2a9bfec1" x="81.660257" y="173.712881" style="stroke: #000000"/>
     <use xlink:href="#m9a2a9bfec1" x="106.089119" y="198.622798" style="stroke: #000000"/>
     <use xlink:href="#m9a2a9bfec1" x="68.371916" y="217.391905" style="stroke: #000000"/>
     <use xlink:href="#m9a2a9bfec1" x="140.87702" y="130.466419" style="stroke: #000000"/>
     <use xlink:href="#m9a2a9bfec1" x="75.982886" y="199.418347" style="stroke: #000000"/>
     <use xlink:href="#m9a2a9bfec1" x="133.622875" y="146.081938" style="stroke: #000000"/>
     <use xlink:href="#m9a2a9bfec1" x="144.79153" y="195.750849" style="stroke: #000000"/>
     <use xlink:href="#m9a2a9bfec1" x="90.169383" y="222.227077" style="stroke: #000000"/>
     <use xlink:href="#m9a2a9bfec1" x="161.362818" y="174.62581" style="stroke: #000000"/>
     <use xlink:href="#m9a2a9bfec1" x="129.820614" y="206.397687" style="stroke: #000000"/>
     <use xlink:href="#m9a2a9bfec1" x="157.334112" y="261.216" style="stroke: #000000"/>
     <use xlink:href="#m9a2a9bfec1" x="129.940855" y="82.846437" style="stroke: #000000"/>
     <use xlink:href="#m9a2a9bfec1" x="120.539578" y="225.744872" style="stroke: #000000"/>
     <use xlink:href="#m9a2a9bfec1" x="113.67548" y="202.109064" style="stroke: #000000"/>
    </g>
   </g>
   <g id="PathCollection_11">
    <defs>
     <path id="m7de17df3be" d="M -3 -0 
L 3 3 
L 3 -3 
z
" style="stroke: #ff8c00"/>
    </defs>
    <g clip-path="url(#p380112e9ab)">
     <use xlink:href="#m7de17df3be" x="131.493435" y="208.049257" style="fill: #ff8c00; stroke: #ff8c00"/>
     <use xlink:href="#m7de17df3be" x="103.161412" y="180.37213" style="fill: #ff8c00; stroke: #ff8c00"/>
     <use xlink:href="#m7de17df3be" x="81.478281" y="200.848996" style="fill: #ff8c00; stroke: #ff8c00"/>
     <use xlink:href="#m7de17df3be" x="67.592516" y="165.083036" style="fill: #ff8c00; stroke: #ff8c00"/>
     <use xlink:href="#m7de17df3be" x="61.008622" y="166.306226" style="fill: #ff8c00; stroke: #ff8c00"/>
     <use xlink:href="#m7de17df3be" x="106.985121" y="165.157039" style="fill: #ff8c00; stroke: #ff8c00"/>
     <use xlink:href="#m7de17df3be" x="93.846705" y="164.761073" style="fill: #ff8c00; stroke: #ff8c00"/>
     <use xlink:href="#m7de17df3be" x="89.606632" y="163.241683" style="fill: #ff8c00; stroke: #ff8c00"/>
     <use xlink:href="#m7de17df3be" x="131.640164" y="209.55216" style="fill: #ff8c00; stroke: #ff8c00"/>
     <use xlink:href="#m7de17df3be" x="124.080394" y="211.26402" style="fill: #ff8c00; stroke: #ff8c00"/>
     <use xlink:href="#m7de17df3be" x="71.359863" y="169.40663" style="fill: #ff8c00; stroke: #ff8c00"/>
     <use xlink:href="#m7de17df3be" x="81.36166" y="143.906153" style="fill: #ff8c00; stroke: #ff8c00"/>
     <use xlink:href="#m7de17df3be" x="94.930261" y="191.250903" style="fill: #ff8c00; stroke: #ff8c00"/>
     <use xlink:href="#m7de17df3be" x="104.020026" y="170.270596" style="fill: #ff8c00; stroke: #ff8c00"/>
     <use xlink:href="#m7de17df3be" x="104.713479" y="168.469812" style="fill: #ff8c00; stroke: #ff8c00"/>
     <use xlink:href="#m7de17df3be" x="117.061468" y="174.384948" style="fill: #ff8c00; stroke: #ff8c00"/>
     <use xlink:href="#m7de17df3be" x="172.831358" y="182.936487" style="fill: #ff8c00; stroke: #ff8c00"/>
     <use xlink:href="#m7de17df3be" x="86.189664" y="161.627099" style="fill: #ff8c00; stroke: #ff8c00"/>
     <use xlink:href="#m7de17df3be" x="93.736824" y="178.543833" style="fill: #ff8c00; stroke: #ff8c00"/>
     <use xlink:href="#m7de17df3be" x="73.93893" y="203.042387" style="fill: #ff8c00; stroke: #ff8c00"/>
     <use xlink:href="#m7de17df3be" x="70.666017" y="168.066371" style="fill: #ff8c00; stroke: #ff8c00"/>
     <use xlink:href="#m7de17df3be" x="99.606716" y="169.936504" style="fill: #ff8c00; stroke: #ff8c00"/>
     <use xlink:href="#m7de17df3be" x="89.371225" y="162.935451" style="fill: #ff8c00; stroke: #ff8c00"/>
     <use xlink:href="#m7de17df3be" x="86.167894" y="191.880406" style="fill: #ff8c00; stroke: #ff8c00"/>
     <use xlink:href="#m7de17df3be" x="116.639317" y="162.053113" style="fill: #ff8c00; stroke: #ff8c00"/>
     <use xlink:href="#m7de17df3be" x="81.55359" y="188.552331" style="fill: #ff8c00; stroke: #ff8c00"/>
     <use xlink:href="#m7de17df3be" x="107.234863" y="144.136735" style="fill: #ff8c00; stroke: #ff8c00"/>
     <use xlink:href="#m7de17df3be" x="143.148446" y="194.744078" style="fill: #ff8c00; stroke: #ff8c00"/>
     <use xlink:href="#m7de17df3be" x="77.274849" y="168.20941" style="fill: #ff8c00; stroke: #ff8c00"/>
     <use xlink:href="#m7de17df3be" x="73.502048" y="175.952439" style="fill: #ff8c00; stroke: #ff8c00"/>
     <use xlink:href="#m7de17df3be" x="148.00388" y="178.42029" style="fill: #ff8c00; stroke: #ff8c00"/>
     <use xlink:href="#m7de17df3be" x="125.018023" y="196.847173" style="fill: #ff8c00; stroke: #ff8c00"/>
     <use xlink:href="#m7de17df3be" x="114.651891" y="180.679579" style="fill: #ff8c00; stroke: #ff8c00"/>
     <use xlink:href="#m7de17df3be" x="93.589709" y="200.332576" style="fill: #ff8c00; stroke: #ff8c00"/>
     <use xlink:href="#m7de17df3be" x="107.022336" y="195.183272" style="fill: #ff8c00; stroke: #ff8c00"/>
     <use xlink:href="#m7de17df3be" x="159.702159" y="161.764002" style="fill: #ff8c00; stroke: #ff8c00"/>
     <use xlink:href="#m7de17df3be" x="93.945174" y="149.331321" style="fill: #ff8c00; stroke: #ff8c00"/>
     <use xlink:href="#m7de17df3be" x="111.214429" y="156.521782" style="fill: #ff8c00; stroke: #ff8c00"/>
     <use xlink:href="#m7de17df3be" x="153.015043" y="162.547243" style="fill: #ff8c00; stroke: #ff8c00"/>
     <use xlink:href="#m7de17df3be" x="112.504888" y="215.852421" style="fill: #ff8c00; stroke: #ff8c00"/>
     <use xlink:href="#m7de17df3be" x="67.264937" y="175.228232" style="fill: #ff8c00; stroke: #ff8c00"/>
     <use xlink:href="#m7de17df3be" x="145.192686" y="156.466505" style="fill: #ff8c00; stroke: #ff8c00"/>
     <use xlink:href="#m7de17df3be" x="102.704231" y="124.642706" style="fill: #ff8c00; stroke: #ff8c00"/>
     <use xlink:href="#m7de17df3be" x="99.011779" y="141.317398" style="fill: #ff8c00; stroke: #ff8c00"/>
     <use xlink:href="#m7de17df3be" x="78.271789" y="168.632509" style="fill: #ff8c00; stroke: #ff8c00"/>
     <use xlink:href="#m7de17df3be" x="127.67827" y="153.132051" style="fill: #ff8c00; stroke: #ff8c00"/>
     <use xlink:href="#m7de17df3be" x="127.465116" y="158.208419" style="fill: #ff8c00; stroke: #ff8c00"/>
     <use xlink:href="#m7de17df3be" x="98.262186" y="166.952028" style="fill: #ff8c00; stroke: #ff8c00"/>
     <use xlink:href="#m7de17df3be" x="115.653516" y="190.50159" style="fill: #ff8c00; stroke: #ff8c00"/>
     <use xlink:href="#m7de17df3be" x="64.301272" y="182.124964" style="fill: #ff8c00; stroke: #ff8c00"/>
     <use xlink:href="#m7de17df3be" x="88.40293" y="183.433469" style="fill: #ff8c00; stroke: #ff8c00"/>
     <use xlink:href="#m7de17df3be" x="74.321626" y="197.460151" style="fill: #ff8c00; stroke: #ff8c00"/>
     <use xlink:href="#m7de17df3be" x="119.204859" y="189.689197" style="fill: #ff8c00; stroke: #ff8c00"/>
     <use xlink:href="#m7de17df3be" x="75.172287" y="196.617372" style="fill: #ff8c00; stroke: #ff8c00"/>
     <use xlink:href="#m7de17df3be" x="60.095791" y="181.136842" style="fill: #ff8c00; stroke: #ff8c00"/>
     <use xlink:href="#m7de17df3be" x="105.706722" y="136.320173" style="fill: #ff8c00; stroke: #ff8c00"/>
     <use xlink:href="#m7de17df3be" x="79.555618" y="175.337907" style="fill: #ff8c00; stroke: #ff8c00"/>
     <use xlink:href="#m7de17df3be" x="108.12683" y="197.793109" style="fill: #ff8c00; stroke: #ff8c00"/>
     <use xlink:href="#m7de17df3be" x="101.26474" y="160.630392" style="fill: #ff8c00; stroke: #ff8c00"/>
     <use xlink:href="#m7de17df3be" x="124.419842" y="223.732826" style="fill: #ff8c00; stroke: #ff8c00"/>
     <use xlink:href="#m7de17df3be" x="121.68502" y="204.114153" style="fill: #ff8c00; stroke: #ff8c00"/>
     <use xlink:href="#m7de17df3be" x="60.009624" y="183.030244" style="fill: #ff8c00; stroke: #ff8c00"/>
     <use xlink:href="#m7de17df3be" x="102.023315" y="189.888994" style="fill: #ff8c00; stroke: #ff8c00"/>
     <use xlink:href="#m7de17df3be" x="119.721156" y="201.872764" style="fill: #ff8c00; stroke: #ff8c00"/>
    </g>
   </g>
   <g id="matplotlib.axis_1">
    <g id="xtick_1">
     <g id="line2d_1">
      <defs>
       <path id="m5a74c7f9c6" d="M 0 0 
L 0 3.5 
" style="stroke: #000000; stroke-width: 0.8"/>
      </defs>
      <g>
       <use xlink:href="#m5a74c7f9c6" x="77.559534" y="273.312" style="stroke: #000000; stroke-width: 0.8"/>
      </g>
     </g>
     <g id="text_1">
      <!-- −10 -->
      <g transform="translate(67.007191 287.910437) scale(0.1 -0.1)">
       <defs>
        <path id="DejaVuSans-2212" d="M 678 2272 
L 4684 2272 
L 4684 1741 
L 678 1741 
L 678 2272 
z
" transform="scale(0.015625)"/>
        <path id="DejaVuSans-31" d="M 794 531 
L 1825 531 
L 1825 4091 
L 703 3866 
L 703 4441 
L 1819 4666 
L 2450 4666 
L 2450 531 
L 3481 531 
L 3481 0 
L 794 0 
L 794 531 
z
" transform="scale(0.015625)"/>
        <path id="DejaVuSans-30" d="M 2034 4250 
Q 1547 4250 1301 3770 
Q 1056 3291 1056 2328 
Q 1056 1369 1301 889 
Q 1547 409 2034 409 
Q 2525 409 2770 889 
Q 3016 1369 3016 2328 
Q 3016 3291 2770 3770 
Q 2525 4250 2034 4250 
z
M 2034 4750 
Q 2819 4750 3233 4129 
Q 3647 3509 3647 2328 
Q 3647 1150 3233 529 
Q 2819 -91 2034 -91 
Q 1250 -91 836 529 
Q 422 1150 422 2328 
Q 422 3509 836 4129 
Q 1250 4750 2034 4750 
z
" transform="scale(0.015625)"/>
       </defs>
       <use xlink:href="#DejaVuSans-2212"/>
       <use xlink:href="#DejaVuSans-31" x="83.789062"/>
       <use xlink:href="#DejaVuSans-30" x="147.412109"/>
      </g>
     </g>
    </g>
    <g id="xtick_2">
     <g id="line2d_2">
      <g>
       <use xlink:href="#m5a74c7f9c6" x="128.208429" y="273.312" style="stroke: #000000; stroke-width: 0.8"/>
      </g>
     </g>
     <g id="text_2">
      <!-- 0 -->
      <g transform="translate(125.027179 287.910437) scale(0.1 -0.1)">
       <use xlink:href="#DejaVuSans-30"/>
      </g>
     </g>
    </g>
    <g id="xtick_3">
     <g id="line2d_3">
      <g>
       <use xlink:href="#m5a74c7f9c6" x="178.857323" y="273.312" style="stroke: #000000; stroke-width: 0.8"/>
      </g>
     </g>
     <g id="text_3">
      <!-- 10 -->
      <g transform="translate(172.494823 287.910437) scale(0.1 -0.1)">
       <use xlink:href="#DejaVuSans-31"/>
       <use xlink:href="#DejaVuSans-30" x="63.623047"/>
      </g>
     </g>
    </g>
    <g id="xtick_4">
     <g id="line2d_4">
      <g>
       <use xlink:href="#m5a74c7f9c6" x="229.506217" y="273.312" style="stroke: #000000; stroke-width: 0.8"/>
      </g>
     </g>
     <g id="text_4">
      <!-- 20 -->
      <g transform="translate(223.143717 287.910437) scale(0.1 -0.1)">
       <defs>
        <path id="DejaVuSans-32" d="M 1228 531 
L 3431 531 
L 3431 0 
L 469 0 
L 469 531 
Q 828 903 1448 1529 
Q 2069 2156 2228 2338 
Q 2531 2678 2651 2914 
Q 2772 3150 2772 3378 
Q 2772 3750 2511 3984 
Q 2250 4219 1831 4219 
Q 1534 4219 1204 4116 
Q 875 4013 500 3803 
L 500 4441 
Q 881 4594 1212 4672 
Q 1544 4750 1819 4750 
Q 2544 4750 2975 4387 
Q 3406 4025 3406 3419 
Q 3406 3131 3298 2873 
Q 3191 2616 2906 2266 
Q 2828 2175 2409 1742 
Q 1991 1309 1228 531 
z
" transform="scale(0.015625)"/>
       </defs>
       <use xlink:href="#DejaVuSans-32"/>
       <use xlink:href="#DejaVuSans-30" x="63.623047"/>
      </g>
     </g>
    </g>
    <g id="xtick_5">
     <g id="line2d_5">
      <g>
       <use xlink:href="#m5a74c7f9c6" x="280.155111" y="273.312" style="stroke: #000000; stroke-width: 0.8"/>
      </g>
     </g>
     <g id="text_5">
      <!-- 30 -->
      <g transform="translate(273.792611 287.910437) scale(0.1 -0.1)">
       <defs>
        <path id="DejaVuSans-33" d="M 2597 2516 
Q 3050 2419 3304 2112 
Q 3559 1806 3559 1356 
Q 3559 666 3084 287 
Q 2609 -91 1734 -91 
Q 1441 -91 1130 -33 
Q 819 25 488 141 
L 488 750 
Q 750 597 1062 519 
Q 1375 441 1716 441 
Q 2309 441 2620 675 
Q 2931 909 2931 1356 
Q 2931 1769 2642 2001 
Q 2353 2234 1838 2234 
L 1294 2234 
L 1294 2753 
L 1863 2753 
Q 2328 2753 2575 2939 
Q 2822 3125 2822 3475 
Q 2822 3834 2567 4026 
Q 2313 4219 1838 4219 
Q 1578 4219 1281 4162 
Q 984 4106 628 3988 
L 628 4550 
Q 988 4650 1302 4700 
Q 1616 4750 1894 4750 
Q 2613 4750 3031 4423 
Q 3450 4097 3450 3541 
Q 3450 3153 3228 2886 
Q 3006 2619 2597 2516 
z
" transform="scale(0.015625)"/>
       </defs>
       <use xlink:href="#DejaVuSans-33"/>
       <use xlink:href="#DejaVuSans-30" x="63.623047"/>
      </g>
     </g>
    </g>
    <g id="xtick_6">
     <g id="line2d_6">
      <g>
       <use xlink:href="#m5a74c7f9c6" x="330.804006" y="273.312" style="stroke: #000000; stroke-width: 0.8"/>
      </g>
     </g>
     <g id="text_6">
      <!-- 40 -->
      <g transform="translate(324.441506 287.910437) scale(0.1 -0.1)">
       <defs>
        <path id="DejaVuSans-34" d="M 2419 4116 
L 825 1625 
L 2419 1625 
L 2419 4116 
z
M 2253 4666 
L 3047 4666 
L 3047 1625 
L 3713 1625 
L 3713 1100 
L 3047 1100 
L 3047 0 
L 2419 0 
L 2419 1100 
L 313 1100 
L 313 1709 
L 2253 4666 
z
" transform="scale(0.015625)"/>
       </defs>
       <use xlink:href="#DejaVuSans-34"/>
       <use xlink:href="#DejaVuSans-30" x="63.623047"/>
      </g>
     </g>
    </g>
    <g id="xtick_7">
     <g id="line2d_7">
      <g>
       <use xlink:href="#m5a74c7f9c6" x="381.4529" y="273.312" style="stroke: #000000; stroke-width: 0.8"/>
      </g>
     </g>
     <g id="text_7">
      <!-- 50 -->
      <g transform="translate(375.0904 287.910437) scale(0.1 -0.1)">
       <defs>
        <path id="DejaVuSans-35" d="M 691 4666 
L 3169 4666 
L 3169 4134 
L 1269 4134 
L 1269 2991 
Q 1406 3038 1543 3061 
Q 1681 3084 1819 3084 
Q 2600 3084 3056 2656 
Q 3513 2228 3513 1497 
Q 3513 744 3044 326 
Q 2575 -91 1722 -91 
Q 1428 -91 1123 -41 
Q 819 9 494 109 
L 494 744 
Q 775 591 1075 516 
Q 1375 441 1709 441 
Q 2250 441 2565 725 
Q 2881 1009 2881 1497 
Q 2881 1984 2565 2268 
Q 2250 2553 1709 2553 
Q 1456 2553 1204 2497 
Q 953 2441 691 2322 
L 691 4666 
z
" transform="scale(0.015625)"/>
       </defs>
       <use xlink:href="#DejaVuSans-35"/>
       <use xlink:href="#DejaVuSans-30" x="63.623047"/>
      </g>
     </g>
    </g>
   </g>
   <g id="matplotlib.axis_2">
    <g id="ytick_1">
     <g id="line2d_8">
      <defs>
       <path id="m66b0e58410" d="M 0 0 
L -3.5 0 
" style="stroke: #000000; stroke-width: 0.8"/>
      </defs>
      <g>
       <use xlink:href="#m66b0e58410" x="35.304688" y="257.194874" style="stroke: #000000; stroke-width: 0.8"/>
      </g>
     </g>
     <g id="text_8">
      <!-- −20 -->
      <g transform="translate(7.2 260.994093) scale(0.1 -0.1)">
       <use xlink:href="#DejaVuSans-2212"/>
       <use xlink:href="#DejaVuSans-32" x="83.789062"/>
       <use xlink:href="#DejaVuSans-30" x="147.412109"/>
      </g>
     </g>
    </g>
    <g id="ytick_2">
     <g id="line2d_9">
      <g>
       <use xlink:href="#m66b0e58410" x="35.304688" y="205.205975" style="stroke: #000000; stroke-width: 0.8"/>
      </g>
     </g>
     <g id="text_9">
      <!-- −10 -->
      <g transform="translate(7.2 209.005194) scale(0.1 -0.1)">
       <use xlink:href="#DejaVuSans-2212"/>
       <use xlink:href="#DejaVuSans-31" x="83.789062"/>
       <use xlink:href="#DejaVuSans-30" x="147.412109"/>
      </g>
     </g>
    </g>
    <g id="ytick_3">
     <g id="line2d_10">
      <g>
       <use xlink:href="#m66b0e58410" x="35.304688" y="153.217076" style="stroke: #000000; stroke-width: 0.8"/>
      </g>
     </g>
     <g id="text_10">
      <!-- 0 -->
      <g transform="translate(21.942187 157.016294) scale(0.1 -0.1)">
       <use xlink:href="#DejaVuSans-30"/>
      </g>
     </g>
    </g>
    <g id="ytick_4">
     <g id="line2d_11">
      <g>
       <use xlink:href="#m66b0e58410" x="35.304688" y="101.228176" style="stroke: #000000; stroke-width: 0.8"/>
      </g>
     </g>
     <g id="text_11">
      <!-- 10 -->
      <g transform="translate(15.579687 105.027395) scale(0.1 -0.1)">
       <use xlink:href="#DejaVuSans-31"/>
       <use xlink:href="#DejaVuSans-30" x="63.623047"/>
      </g>
     </g>
    </g>
    <g id="ytick_5">
     <g id="line2d_12">
      <g>
       <use xlink:href="#m66b0e58410" x="35.304688" y="49.239277" style="stroke: #000000; stroke-width: 0.8"/>
      </g>
     </g>
     <g id="text_12">
      <!-- 20 -->
      <g transform="translate(15.579687 53.038496) scale(0.1 -0.1)">
       <use xlink:href="#DejaVuSans-32"/>
       <use xlink:href="#DejaVuSans-30" x="63.623047"/>
      </g>
     </g>
    </g>
   </g>
   <g id="patch_3">
    <path d="M 35.304688 273.312 
L 35.304688 7.2 
" style="fill: none; stroke: #000000; stroke-width: 0.8; stroke-linejoin: miter; stroke-linecap: square"/>
   </g>
   <g id="patch_4">
    <path d="M 392.424688 273.312 
L 392.424688 7.2 
" style="fill: none; stroke: #000000; stroke-width: 0.8; stroke-linejoin: miter; stroke-linecap: square"/>
   </g>
   <g id="patch_5">
    <path d="M 35.304687 273.312 
L 392.424688 273.312 
" style="fill: none; stroke: #000000; stroke-width: 0.8; stroke-linejoin: miter; stroke-linecap: square"/>
   </g>
   <g id="patch_6">
    <path d="M 35.304687 7.2 
L 392.424688 7.2 
" style="fill: none; stroke: #000000; stroke-width: 0.8; stroke-linejoin: miter; stroke-linecap: square"/>
   </g>
  </g>
 </g>
 <defs>
  <clipPath id="p380112e9ab">
   <rect x="35.304688" y="7.2" width="357.12" height="266.112"/>
  </clipPath>
 </defs>
</svg>
