<?xml version="1.0" encoding="utf-8" standalone="no"?>
<!DOCTYPE svg PUBLIC "-//W3C//DTD SVG 1.1//EN"
  "http://www.w3.org/Graphics/SVG/1.1/DTD/svg11.dtd">
<svg xmlns:xlink="http://www.w3.org/1999/xlink" width="399.624687pt" height="297.190125pt" viewBox="0 0 399.624687 297.190125" xmlns="http://www.w3.org/2000/svg" version="1.1">
 <metadata>
  <rdf:RDF xmlns:dc="http://purl.org/dc/elements/1.1/" xmlns:cc="http://creativecommons.org/ns#" xmlns:rdf="http://www.w3.org/1999/02/22-rdf-syntax-ns#">
   <cc:Work>
    <dc:type rdf:resource="http://purl.org/dc/dcmitype/StillImage"/>
    <dc:date>2023-11-11T21:54:08.035791</dc:date>
    <dc:format>image/svg+xml</dc:format>
    <dc:creator>
     <cc:Agent>
      <dc:title>Matplotlib v3.8.0, https://matplotlib.org/</dc:title>
     </cc:Agent>
    </dc:creator>
   </cc:Work>
  </rdf:RDF>
 </metadata>
 <defs>
  <style type="text/css">*{stroke-linejoin: round; stroke-linecap: butt}</style>
 </defs>
 <g id="figure_1">
  <g id="patch_1">
   <path d="M 0 297.190125 
L 399.624687 297.190125 
L 399.624687 0 
L 0 0 
z
" style="fill: #ffffff"/>
  </g>
  <g id="axes_1">
   <g id="patch_2">
    <path d="M 35.304688 273.312 
L 392.424688 273.312 
L 392.424688 7.2 
L 35.304688 7.2 
z
" style="fill: #ffffff"/>
   </g>
   <g id="PathCollection_1">
    <defs>
     <path id="mbecc105997" d="M 0 1.5 
C 0.397805 1.5 0.77937 1.341951 1.06066 1.06066 
C 1.341951 0.77937 1.5 0.397805 1.5 0 
C 1.5 -0.397805 1.341951 -0.77937 1.06066 -1.06066 
C 0.77937 -1.341951 0.397805 -1.5 0 -1.5 
C -0.397805 -1.5 -0.77937 -1.341951 -1.06066 -1.06066 
C -1.341951 -0.77937 -1.5 -0.397805 -1.5 0 
C -1.5 0.397805 -1.341951 0.77937 -1.06066 1.06066 
C -0.77937 1.341951 -0.397805 1.5 0 1.5 
z
" style="stroke: #ff8c00"/>
    </defs>
    <g clip-path="url(#p2d7de2cf7c)">
     <use xlink:href="#mbecc105997" x="95.472509" y="119.938978" style="fill: #ff8c00; stroke: #ff8c00"/>
     <use xlink:href="#mbecc105997" x="267.097569" y="105.806566" style="fill: #ff8c00; stroke: #ff8c00"/>
     <use xlink:href="#mbecc105997" x="244.75424" y="132.522416" style="fill: #ff8c00; stroke: #ff8c00"/>
     <use xlink:href="#mbecc105997" x="202.954638" y="109.792466" style="fill: #ff8c00; stroke: #ff8c00"/>
     <use xlink:href="#mbecc105997" x="192.79374" y="137.664901" style="fill: #ff8c00; stroke: #ff8c00"/>
     <use xlink:href="#mbecc105997" x="214.61586" y="128.780495" style="fill: #ff8c00; stroke: #ff8c00"/>
     <use xlink:href="#mbecc105997" x="196.88182" y="149.249436" style="fill: #ff8c00; stroke: #ff8c00"/>
     <use xlink:href="#mbecc105997" x="77.431406" y="123.41566" style="fill: #ff8c00; stroke: #ff8c00"/>
     <use xlink:href="#mbecc105997" x="205.828306" y="134.078179" style="fill: #ff8c00; stroke: #ff8c00"/>
     <use xlink:href="#mbecc105997" x="111.749959" y="131.542806" style="fill: #ff8c00; stroke: #ff8c00"/>
     <use xlink:href="#mbecc105997" x="198.616952" y="211.715209" style="fill: #ff8c00; stroke: #ff8c00"/>
     <use xlink:href="#mbecc105997" x="223.454313" y="114.503203" style="fill: #ff8c00; stroke: #ff8c00"/>
     <use xlink:href="#mbecc105997" x="196.88182" y="149.249436" style="fill: #ff8c00; stroke: #ff8c00"/>
    </g>
   </g>
   <g id="PathCollection_2">
    <defs>
     <path id="m792b4213ad" d="M 0 1.5 
C 0.397805 1.5 0.77937 1.341951 1.06066 1.06066 
C 1.341951 0.77937 1.5 0.397805 1.5 0 
C 1.5 -0.397805 1.341951 -0.77937 1.06066 -1.06066 
C 0.77937 -1.341951 0.397805 -1.5 0 -1.5 
C -0.397805 -1.5 -0.77937 -1.341951 -1.06066 -1.06066 
C -1.341951 -0.77937 -1.5 -0.397805 -1.5 0 
C -1.5 0.397805 -1.341951 0.77937 -1.06066 1.06066 
C -0.77937 1.341951 -0.397805 1.5 0 1.5 
z
" style="stroke: #006400"/>
    </defs>
    <g clip-path="url(#p2d7de2cf7c)">
     <use xlink:href="#m792b4213ad" x="98.799018" y="110.693192" style="fill: #006400; stroke: #006400"/>
     <use xlink:href="#m792b4213ad" x="252.024128" y="125.678877" style="fill: #006400; stroke: #006400"/>
     <use xlink:href="#m792b4213ad" x="84.053581" y="130.362878" style="fill: #006400; stroke: #006400"/>
     <use xlink:href="#m792b4213ad" x="113.396971" y="133.299849" style="fill: #006400; stroke: #006400"/>
     <use xlink:href="#m792b4213ad" x="81.335083" y="131.782462" style="fill: #006400; stroke: #006400"/>
     <use xlink:href="#m792b4213ad" x="148.417305" y="146.394367" style="fill: #006400; stroke: #006400"/>
     <use xlink:href="#m792b4213ad" x="270.549828" y="171.330363" style="fill: #006400; stroke: #006400"/>
     <use xlink:href="#m792b4213ad" x="103.502145" y="145.51925" style="fill: #006400; stroke: #006400"/>
     <use xlink:href="#m792b4213ad" x="91.61955" y="136.176005" style="fill: #006400; stroke: #006400"/>
     <use xlink:href="#m792b4213ad" x="149.451841" y="154.418861" style="fill: #006400; stroke: #006400"/>
     <use xlink:href="#m792b4213ad" x="249.614076" y="176.771645" style="fill: #006400; stroke: #006400"/>
     <use xlink:href="#m792b4213ad" x="147.738363" y="133.805597" style="fill: #006400; stroke: #006400"/>
     <use xlink:href="#m792b4213ad" x="215.017417" y="139.250341" style="fill: #006400; stroke: #006400"/>
     <use xlink:href="#m792b4213ad" x="77.665505" y="122.783105" style="fill: #006400; stroke: #006400"/>
     <use xlink:href="#m792b4213ad" x="83.908813" y="135.364037" style="fill: #006400; stroke: #006400"/>
    </g>
   </g>
   <g id="PathCollection_3">
    <defs>
     <path id="m27e0b56931" d="M 0 1.5 
C 0.397805 1.5 0.77937 1.341951 1.06066 1.06066 
C 1.341951 0.77937 1.5 0.397805 1.5 0 
C 1.5 -0.397805 1.341951 -0.77937 1.06066 -1.06066 
C 0.77937 -1.341951 0.397805 -1.5 0 -1.5 
C -0.397805 -1.5 -0.77937 -1.341951 -1.06066 -1.06066 
C -1.341951 -0.77937 -1.5 -0.397805 -1.5 0 
C -1.5 0.397805 -1.341951 0.77937 -1.06066 1.06066 
C -0.77937 1.341951 -0.397805 1.5 0 1.5 
z
" style="stroke: #2f4f4f"/>
    </defs>
    <g clip-path="url(#p2d7de2cf7c)">
     <use xlink:href="#m27e0b56931" x="275.684637" y="205.514273" style="fill: #2f4f4f; stroke: #2f4f4f"/>
     <use xlink:href="#m27e0b56931" x="88.719261" y="149.752522" style="fill: #2f4f4f; stroke: #2f4f4f"/>
     <use xlink:href="#m27e0b56931" x="85.003097" y="136.326425" style="fill: #2f4f4f; stroke: #2f4f4f"/>
     <use xlink:href="#m27e0b56931" x="75.800031" y="153.893115" style="fill: #2f4f4f; stroke: #2f4f4f"/>
     <use xlink:href="#m27e0b56931" x="145.82117" y="198.028069" style="fill: #2f4f4f; stroke: #2f4f4f"/>
     <use xlink:href="#m27e0b56931" x="72.626142" y="138.461499" style="fill: #2f4f4f; stroke: #2f4f4f"/>
     <use xlink:href="#m27e0b56931" x="83.521682" y="171.686374" style="fill: #2f4f4f; stroke: #2f4f4f"/>
     <use xlink:href="#m27e0b56931" x="91.346325" y="198.110528" style="fill: #2f4f4f; stroke: #2f4f4f"/>
     <use xlink:href="#m27e0b56931" x="263.414935" y="209.733946" style="fill: #2f4f4f; stroke: #2f4f4f"/>
     <use xlink:href="#m27e0b56931" x="269.071889" y="169.131165" style="fill: #2f4f4f; stroke: #2f4f4f"/>
     <use xlink:href="#m27e0b56931" x="225.881063" y="142.859958" style="fill: #2f4f4f; stroke: #2f4f4f"/>
     <use xlink:href="#m27e0b56931" x="246.533262" y="124.976861" style="fill: #2f4f4f; stroke: #2f4f4f"/>
     <use xlink:href="#m27e0b56931" x="77.881576" y="158.882113" style="fill: #2f4f4f; stroke: #2f4f4f"/>
     <use xlink:href="#m27e0b56931" x="64.85132" y="167.989494" style="fill: #2f4f4f; stroke: #2f4f4f"/>
     <use xlink:href="#m27e0b56931" x="120.322489" y="123.623449" style="fill: #2f4f4f; stroke: #2f4f4f"/>
     <use xlink:href="#m27e0b56931" x="204.824049" y="149.837026" style="fill: #2f4f4f; stroke: #2f4f4f"/>
     <use xlink:href="#m27e0b56931" x="135.758155" y="152.884152" style="fill: #2f4f4f; stroke: #2f4f4f"/>
     <use xlink:href="#m27e0b56931" x="154.29166" y="176.024322" style="fill: #2f4f4f; stroke: #2f4f4f"/>
     <use xlink:href="#m27e0b56931" x="123.530436" y="178.987492" style="fill: #2f4f4f; stroke: #2f4f4f"/>
    </g>
   </g>
   <g id="PathCollection_4">
    <defs>
     <path id="m78bfda7df2" d="M 0 1.5 
C 0.397805 1.5 0.77937 1.341951 1.06066 1.06066 
C 1.341951 0.77937 1.5 0.397805 1.5 0 
C 1.5 -0.397805 1.341951 -0.77937 1.06066 -1.06066 
C 0.77937 -1.341951 0.397805 -1.5 0 -1.5 
C -0.397805 -1.5 -0.77937 -1.341951 -1.06066 -1.06066 
C -1.341951 -0.77937 -1.5 -0.397805 -1.5 0 
C -1.5 0.397805 -1.341951 0.77937 -1.06066 1.06066 
C -0.77937 1.341951 -0.397805 1.5 0 1.5 
z
" style="stroke: #00bfff"/>
    </defs>
    <g clip-path="url(#p2d7de2cf7c)">
     <use xlink:href="#m78bfda7df2" x="224.26257" y="196.650527" style="fill: #00bfff; stroke: #00bfff"/>
     <use xlink:href="#m78bfda7df2" x="150.891757" y="176.683491" style="fill: #00bfff; stroke: #00bfff"/>
     <use xlink:href="#m78bfda7df2" x="252.732797" y="261.216" style="fill: #00bfff; stroke: #00bfff"/>
     <use xlink:href="#m78bfda7df2" x="190.630417" y="171.970002" style="fill: #00bfff; stroke: #00bfff"/>
     <use xlink:href="#m78bfda7df2" x="83.665653" y="142.367296" style="fill: #00bfff; stroke: #00bfff"/>
     <use xlink:href="#m78bfda7df2" x="60.435069" y="164.263859" style="fill: #00bfff; stroke: #00bfff"/>
     <use xlink:href="#m78bfda7df2" x="75.256076" y="133.94822" style="fill: #00bfff; stroke: #00bfff"/>
     <use xlink:href="#m78bfda7df2" x="227.911294" y="182.614964" style="fill: #00bfff; stroke: #00bfff"/>
     <use xlink:href="#m78bfda7df2" x="74.788455" y="143.006488" style="fill: #00bfff; stroke: #00bfff"/>
     <use xlink:href="#m78bfda7df2" x="157.483525" y="165.858625" style="fill: #00bfff; stroke: #00bfff"/>
     <use xlink:href="#m78bfda7df2" x="86.178773" y="159.893252" style="fill: #00bfff; stroke: #00bfff"/>
     <use xlink:href="#m78bfda7df2" x="62.650812" y="171.242853" style="fill: #00bfff; stroke: #00bfff"/>
     <use xlink:href="#m78bfda7df2" x="103.663577" y="163.939137" style="fill: #00bfff; stroke: #00bfff"/>
     <use xlink:href="#m78bfda7df2" x="67.655021" y="153.456805" style="fill: #00bfff; stroke: #00bfff"/>
     <use xlink:href="#m78bfda7df2" x="64.328983" y="176.843706" style="fill: #00bfff; stroke: #00bfff"/>
     <use xlink:href="#m78bfda7df2" x="80.499069" y="180.876846" style="fill: #00bfff; stroke: #00bfff"/>
     <use xlink:href="#m78bfda7df2" x="56.729608" y="139.0889" style="fill: #00bfff; stroke: #00bfff"/>
    </g>
   </g>
   <g id="PathCollection_5">
    <defs>
     <path id="m8adeec56c3" d="M 0 1.5 
C 0.397805 1.5 0.77937 1.341951 1.06066 1.06066 
C 1.341951 0.77937 1.5 0.397805 1.5 0 
C 1.5 -0.397805 1.341951 -0.77937 1.06066 -1.06066 
C 0.77937 -1.341951 0.397805 -1.5 0 -1.5 
C -0.397805 -1.5 -0.77937 -1.341951 -1.06066 -1.06066 
C -1.341951 -0.77937 -1.5 -0.397805 -1.5 0 
C -1.5 0.397805 -1.341951 0.77937 -1.06066 1.06066 
C -0.77937 1.341951 -0.397805 1.5 0 1.5 
z
" style="stroke: #ffff00"/>
    </defs>
    <g clip-path="url(#p2d7de2cf7c)">
     <use xlink:href="#m8adeec56c3" x="56.526477" y="161.768286" style="fill: #ffff00; stroke: #ffff00"/>
     <use xlink:href="#m8adeec56c3" x="160.701779" y="130.415896" style="fill: #ffff00; stroke: #ffff00"/>
     <use xlink:href="#m8adeec56c3" x="55.67447" y="161.910478" style="fill: #ffff00; stroke: #ffff00"/>
     <use xlink:href="#m8adeec56c3" x="116.833627" y="151.052985" style="fill: #ffff00; stroke: #ffff00"/>
     <use xlink:href="#m8adeec56c3" x="74.025175" y="126.635512" style="fill: #ffff00; stroke: #ffff00"/>
     <use xlink:href="#m8adeec56c3" x="73.050845" y="165.100949" style="fill: #ffff00; stroke: #ffff00"/>
     <use xlink:href="#m8adeec56c3" x="53.170969" y="157.354043" style="fill: #ffff00; stroke: #ffff00"/>
     <use xlink:href="#m8adeec56c3" x="158.728864" y="207.360057" style="fill: #ffff00; stroke: #ffff00"/>
     <use xlink:href="#m8adeec56c3" x="265.147209" y="185.95352" style="fill: #ffff00; stroke: #ffff00"/>
     <use xlink:href="#m8adeec56c3" x="267.448568" y="175.900158" style="fill: #ffff00; stroke: #ffff00"/>
     <use xlink:href="#m8adeec56c3" x="108.643203" y="155.959994" style="fill: #ffff00; stroke: #ffff00"/>
     <use xlink:href="#m8adeec56c3" x="54.938443" y="157.976332" style="fill: #ffff00; stroke: #ffff00"/>
     <use xlink:href="#m8adeec56c3" x="113.082819" y="149.269836" style="fill: #ffff00; stroke: #ffff00"/>
     <use xlink:href="#m8adeec56c3" x="74.997519" y="150.332562" style="fill: #ffff00; stroke: #ffff00"/>
    </g>
   </g>
   <g id="PathCollection_6">
    <defs>
     <path id="ma8c30ab40b" d="M 0 1.5 
C 0.397805 1.5 0.77937 1.341951 1.06066 1.06066 
C 1.341951 0.77937 1.5 0.397805 1.5 0 
C 1.5 -0.397805 1.341951 -0.77937 1.06066 -1.06066 
C 0.77937 -1.341951 0.397805 -1.5 0 -1.5 
C -0.397805 -1.5 -0.77937 -1.341951 -1.06066 -1.06066 
C -1.341951 -0.77937 -1.5 -0.397805 -1.5 0 
C -1.5 0.397805 -1.341951 0.77937 -1.06066 1.06066 
C -0.77937 1.341951 -0.397805 1.5 0 1.5 
z
" style="stroke: #00ffff"/>
    </defs>
    <g clip-path="url(#p2d7de2cf7c)">
     <use xlink:href="#ma8c30ab40b" x="76.265281" y="165.269532" style="fill: #00ffff; stroke: #00ffff"/>
     <use xlink:href="#ma8c30ab40b" x="70.833739" y="185.121323" style="fill: #00ffff; stroke: #00ffff"/>
     <use xlink:href="#ma8c30ab40b" x="62.789762" y="152.668664" style="fill: #00ffff; stroke: #00ffff"/>
     <use xlink:href="#ma8c30ab40b" x="108.510482" y="139.405853" style="fill: #00ffff; stroke: #00ffff"/>
     <use xlink:href="#ma8c30ab40b" x="147.337795" y="152.341726" style="fill: #00ffff; stroke: #00ffff"/>
     <use xlink:href="#ma8c30ab40b" x="65.296805" y="151.765376" style="fill: #00ffff; stroke: #00ffff"/>
     <use xlink:href="#ma8c30ab40b" x="144.226146" y="163.506046" style="fill: #00ffff; stroke: #00ffff"/>
     <use xlink:href="#ma8c30ab40b" x="127.279641" y="209.468156" style="fill: #00ffff; stroke: #00ffff"/>
     <use xlink:href="#ma8c30ab40b" x="81.318323" y="164.82876" style="fill: #00ffff; stroke: #00ffff"/>
     <use xlink:href="#ma8c30ab40b" x="112.059498" y="176.23459" style="fill: #00ffff; stroke: #00ffff"/>
     <use xlink:href="#ma8c30ab40b" x="87.61077" y="133.820389" style="fill: #00ffff; stroke: #00ffff"/>
     <use xlink:href="#ma8c30ab40b" x="102.525842" y="193.167468" style="fill: #00ffff; stroke: #00ffff"/>
     <use xlink:href="#ma8c30ab40b" x="77.770387" y="149.138574" style="fill: #00ffff; stroke: #00ffff"/>
     <use xlink:href="#ma8c30ab40b" x="55.092493" y="148.360561" style="fill: #00ffff; stroke: #00ffff"/>
    </g>
   </g>
   <g id="PathCollection_7">
    <defs>
     <path id="mb535ac451f" d="M 0 1.5 
C 0.397805 1.5 0.77937 1.341951 1.06066 1.06066 
C 1.341951 0.77937 1.5 0.397805 1.5 0 
C 1.5 -0.397805 1.341951 -0.77937 1.06066 -1.06066 
C 0.77937 -1.341951 0.397805 -1.5 0 -1.5 
C -0.397805 -1.5 -0.77937 -1.341951 -1.06066 -1.06066 
C -1.341951 -0.77937 -1.5 -0.397805 -1.5 0 
C -1.5 0.397805 -1.341951 0.77937 -1.06066 1.06066 
C -0.77937 1.341951 -0.397805 1.5 0 1.5 
z
" style="stroke: #0000ff"/>
    </defs>
    <g clip-path="url(#p2d7de2cf7c)">
     <use xlink:href="#mb535ac451f" x="170.139667" y="209.692345" style="fill: #0000ff; stroke: #0000ff"/>
     <use xlink:href="#mb535ac451f" x="90.346738" y="173.213604" style="fill: #0000ff; stroke: #0000ff"/>
     <use xlink:href="#mb535ac451f" x="127.906889" y="136.070527" style="fill: #0000ff; stroke: #0000ff"/>
     <use xlink:href="#mb535ac451f" x="51.537415" y="155.116717" style="fill: #0000ff; stroke: #0000ff"/>
     <use xlink:href="#mb535ac451f" x="63.105474" y="144.847051" style="fill: #0000ff; stroke: #0000ff"/>
     <use xlink:href="#mb535ac451f" x="97.701086" y="139.464568" style="fill: #0000ff; stroke: #0000ff"/>
     <use xlink:href="#mb535ac451f" x="53.086274" y="158.003987" style="fill: #0000ff; stroke: #0000ff"/>
     <use xlink:href="#mb535ac451f" x="133.084381" y="186.797163" style="fill: #0000ff; stroke: #0000ff"/>
     <use xlink:href="#mb535ac451f" x="86.379504" y="140.115251" style="fill: #0000ff; stroke: #0000ff"/>
     <use xlink:href="#mb535ac451f" x="76.549671" y="152.315036" style="fill: #0000ff; stroke: #0000ff"/>
     <use xlink:href="#mb535ac451f" x="58.606389" y="156.643289" style="fill: #0000ff; stroke: #0000ff"/>
     <use xlink:href="#mb535ac451f" x="103.544718" y="135.762221" style="fill: #0000ff; stroke: #0000ff"/>
    </g>
   </g>
   <g id="PathCollection_8">
    <defs>
     <path id="mc2c2438889" d="M 0 1.5 
C 0.397805 1.5 0.77937 1.341951 1.06066 1.06066 
C 1.341951 0.77937 1.5 0.397805 1.5 0 
C 1.5 -0.397805 1.341951 -0.77937 1.06066 -1.06066 
C 0.77937 -1.341951 0.397805 -1.5 0 -1.5 
C -0.397805 -1.5 -0.77937 -1.341951 -1.06066 -1.06066 
C -1.341951 -0.77937 -1.5 -0.397805 -1.5 0 
C -1.5 0.397805 -1.341951 0.77937 -1.06066 1.06066 
C -0.77937 1.341951 -0.397805 1.5 0 1.5 
z
" style="stroke: #dc143c"/>
    </defs>
    <g clip-path="url(#p2d7de2cf7c)">
     <use xlink:href="#mc2c2438889" x="66.809667" y="165.023828" style="fill: #dc143c; stroke: #dc143c"/>
     <use xlink:href="#mc2c2438889" x="254.256305" y="210.97919" style="fill: #dc143c; stroke: #dc143c"/>
     <use xlink:href="#mc2c2438889" x="73.243935" y="157.645291" style="fill: #dc143c; stroke: #dc143c"/>
     <use xlink:href="#mc2c2438889" x="229.616013" y="194.416704" style="fill: #dc143c; stroke: #dc143c"/>
     <use xlink:href="#mc2c2438889" x="105.500756" y="166.599783" style="fill: #dc143c; stroke: #dc143c"/>
     <use xlink:href="#mc2c2438889" x="233.880883" y="171.095574" style="fill: #dc143c; stroke: #dc143c"/>
     <use xlink:href="#mc2c2438889" x="257.366349" y="182.738922" style="fill: #dc143c; stroke: #dc143c"/>
     <use xlink:href="#mc2c2438889" x="238.671768" y="175.960939" style="fill: #dc143c; stroke: #dc143c"/>
     <use xlink:href="#mc2c2438889" x="70.051347" y="170.202968" style="fill: #dc143c; stroke: #dc143c"/>
     <use xlink:href="#mc2c2438889" x="204.028386" y="217.45599" style="fill: #dc143c; stroke: #dc143c"/>
     <use xlink:href="#mc2c2438889" x="170.348255" y="159.650459" style="fill: #dc143c; stroke: #dc143c"/>
     <use xlink:href="#mc2c2438889" x="252.032263" y="171.424874" style="fill: #dc143c; stroke: #dc143c"/>
     <use xlink:href="#mc2c2438889" x="73.979598" y="127.332302" style="fill: #dc143c; stroke: #dc143c"/>
    </g>
   </g>
   <g id="PathCollection_9">
    <defs>
     <path id="m64ceec2d0e" d="M 0 1.5 
C 0.397805 1.5 0.77937 1.341951 1.06066 1.06066 
C 1.341951 0.77937 1.5 0.397805 1.5 0 
C 1.5 -0.397805 1.341951 -0.77937 1.06066 -1.06066 
C 0.77937 -1.341951 0.397805 -1.5 0 -1.5 
C -0.397805 -1.5 -0.77937 -1.341951 -1.06066 -1.06066 
C -1.341951 -0.77937 -1.5 -0.397805 -1.5 0 
C -1.5 0.397805 -1.341951 0.77937 -1.06066 1.06066 
C -0.77937 1.341951 -0.397805 1.5 0 1.5 
z
" style="stroke: #ffe4c4"/>
    </defs>
    <g clip-path="url(#p2d7de2cf7c)">
     <use xlink:href="#m64ceec2d0e" x="270.65162" y="145.358658" style="fill: #ffe4c4; stroke: #ffe4c4"/>
     <use xlink:href="#m64ceec2d0e" x="225.121623" y="175.094471" style="fill: #ffe4c4; stroke: #ffe4c4"/>
     <use xlink:href="#m64ceec2d0e" x="215.65771" y="97.526648" style="fill: #ffe4c4; stroke: #ffe4c4"/>
     <use xlink:href="#m64ceec2d0e" x="303.216742" y="109.023287" style="fill: #ffe4c4; stroke: #ffe4c4"/>
     <use xlink:href="#m64ceec2d0e" x="232.831664" y="229.501495" style="fill: #ffe4c4; stroke: #ffe4c4"/>
     <use xlink:href="#m64ceec2d0e" x="205.806443" y="183.94213" style="fill: #ffe4c4; stroke: #ffe4c4"/>
     <use xlink:href="#m64ceec2d0e" x="161.727353" y="107.31228" style="fill: #ffe4c4; stroke: #ffe4c4"/>
     <use xlink:href="#m64ceec2d0e" x="236.82783" y="156.988896" style="fill: #ffe4c4; stroke: #ffe4c4"/>
     <use xlink:href="#m64ceec2d0e" x="198.05892" y="177.664166" style="fill: #ffe4c4; stroke: #ffe4c4"/>
     <use xlink:href="#m64ceec2d0e" x="228.229728" y="187.057708" style="fill: #ffe4c4; stroke: #ffe4c4"/>
     <use xlink:href="#m64ceec2d0e" x="230.169303" y="152.027301" style="fill: #ffe4c4; stroke: #ffe4c4"/>
    </g>
   </g>
   <g id="PathCollection_10">
    <defs>
     <path id="m74142ecb89" d="M -2.99994 2.99994 
L 3.00006 2.99994 
L 3.00006 -3.00006 
L -2.99994 -3.00006 
z
" style="stroke: #000000"/>
    </defs>
    <g clip-path="url(#p2d7de2cf7c)">
     <use xlink:href="#m74142ecb89" x="190.947352" y="107.362164" style="stroke: #000000"/>
     <use xlink:href="#m74142ecb89" x="171.899236" y="121.252834" style="stroke: #000000"/>
     <use xlink:href="#m74142ecb89" x="105.908799" y="131.47505" style="stroke: #000000"/>
     <use xlink:href="#m74142ecb89" x="165.07871" y="110.690611" style="stroke: #000000"/>
     <use xlink:href="#m74142ecb89" x="223.933904" y="126.458241" style="stroke: #000000"/>
     <use xlink:href="#m74142ecb89" x="253.663369" y="118.881111" style="stroke: #000000"/>
     <use xlink:href="#m74142ecb89" x="108.46958" y="105.222328" style="stroke: #000000"/>
     <use xlink:href="#m74142ecb89" x="246.531155" y="112.394177" style="stroke: #000000"/>
     <use xlink:href="#m74142ecb89" x="165.163709" y="114.687086" style="stroke: #000000"/>
     <use xlink:href="#m74142ecb89" x="169.922762" y="109.065076" style="stroke: #000000"/>
     <use xlink:href="#m74142ecb89" x="174.998122" y="100.814574" style="stroke: #000000"/>
     <use xlink:href="#m74142ecb89" x="241.928211" y="158.485258" style="stroke: #000000"/>
     <use xlink:href="#m74142ecb89" x="94.788995" y="111.254212" style="stroke: #000000"/>
     <use xlink:href="#m74142ecb89" x="106.041452" y="105.320251" style="stroke: #000000"/>
     <use xlink:href="#m74142ecb89" x="222.391966" y="113.712558" style="stroke: #000000"/>
     <use xlink:href="#m74142ecb89" x="189.615695" y="109.053318" style="stroke: #000000"/>
     <use xlink:href="#m74142ecb89" x="215.341955" y="120.96264" style="stroke: #000000"/>
     <use xlink:href="#m74142ecb89" x="194.49306" y="135.735822" style="stroke: #000000"/>
     <use xlink:href="#m74142ecb89" x="211.797352" y="104.479807" style="stroke: #000000"/>
     <use xlink:href="#m74142ecb89" x="211.648143" y="129.569279" style="stroke: #000000"/>
     <use xlink:href="#m74142ecb89" x="194.622577" y="91.626343" style="stroke: #000000"/>
     <use xlink:href="#m74142ecb89" x="121.612185" y="118.717429" style="stroke: #000000"/>
     <use xlink:href="#m74142ecb89" x="117.540064" y="123.023712" style="stroke: #000000"/>
     <use xlink:href="#m74142ecb89" x="234.981618" y="128.491424" style="stroke: #000000"/>
     <use xlink:href="#m74142ecb89" x="232.811284" y="152.758545" style="stroke: #000000"/>
     <use xlink:href="#m74142ecb89" x="263.11966" y="122.634102" style="stroke: #000000"/>
     <use xlink:href="#m74142ecb89" x="199.69656" y="122.874966" style="stroke: #000000"/>
     <use xlink:href="#m74142ecb89" x="192.19607" y="145.940932" style="stroke: #000000"/>
     <use xlink:href="#m74142ecb89" x="121.185697" y="117.810793" style="stroke: #000000"/>
     <use xlink:href="#m74142ecb89" x="270.573481" y="144.393262" style="stroke: #000000"/>
     <use xlink:href="#m74142ecb89" x="262.084614" y="133.957086" style="stroke: #000000"/>
     <use xlink:href="#m74142ecb89" x="219.748607" y="134.682917" style="stroke: #000000"/>
     <use xlink:href="#m74142ecb89" x="117.947887" y="135.971998" style="stroke: #000000"/>
     <use xlink:href="#m74142ecb89" x="192.660816" y="40.836282" style="stroke: #000000"/>
     <use xlink:href="#m74142ecb89" x="209.158004" y="143.384718" style="stroke: #000000"/>
     <use xlink:href="#m74142ecb89" x="219.132019" y="106.176352" style="stroke: #000000"/>
     <use xlink:href="#m74142ecb89" x="74.864482" y="114.0598" style="stroke: #000000"/>
     <use xlink:href="#m74142ecb89" x="235.125838" y="124.069152" style="stroke: #000000"/>
     <use xlink:href="#m74142ecb89" x="237.319493" y="250.70474" style="stroke: #000000"/>
     <use xlink:href="#m74142ecb89" x="211.215507" y="119.80159" style="stroke: #000000"/>
     <use xlink:href="#m74142ecb89" x="299.402214" y="164.220036" style="stroke: #000000"/>
     <use xlink:href="#m74142ecb89" x="192.470918" y="91.790108" style="stroke: #000000"/>
     <use xlink:href="#m74142ecb89" x="190.166252" y="124.850675" style="stroke: #000000"/>
     <use xlink:href="#m74142ecb89" x="266.440448" y="143.092207" style="stroke: #000000"/>
     <use xlink:href="#m74142ecb89" x="225.436701" y="107.791804" style="stroke: #000000"/>
     <use xlink:href="#m74142ecb89" x="186.01979" y="120.295331" style="stroke: #000000"/>
     <use xlink:href="#m74142ecb89" x="260.610169" y="120.543466" style="stroke: #000000"/>
     <use xlink:href="#m74142ecb89" x="190.613161" y="121.830638" style="stroke: #000000"/>
     <use xlink:href="#m74142ecb89" x="194.067801" y="143.849732" style="stroke: #000000"/>
     <use xlink:href="#m74142ecb89" x="185.109212" y="134.284692" style="stroke: #000000"/>
     <use xlink:href="#m74142ecb89" x="268.507008" y="189.897635" style="stroke: #000000"/>
     <use xlink:href="#m74142ecb89" x="102.997111" y="119.102116" style="stroke: #000000"/>
     <use xlink:href="#m74142ecb89" x="164.980246" y="147.827687" style="stroke: #000000"/>
     <use xlink:href="#m74142ecb89" x="183.147029" y="135.932339" style="stroke: #000000"/>
     <use xlink:href="#m74142ecb89" x="229.099819" y="156.451953" style="stroke: #000000"/>
     <use xlink:href="#m74142ecb89" x="247.677337" y="114.50516" style="stroke: #000000"/>
     <use xlink:href="#m74142ecb89" x="161.310057" y="116.420946" style="stroke: #000000"/>
     <use xlink:href="#m74142ecb89" x="209.882303" y="113.655847" style="stroke: #000000"/>
     <use xlink:href="#m74142ecb89" x="203.768343" y="141.479557" style="stroke: #000000"/>
     <use xlink:href="#m74142ecb89" x="209.658738" y="104.527085" style="stroke: #000000"/>
     <use xlink:href="#m74142ecb89" x="117.028987" y="114.288043" style="stroke: #000000"/>
     <use xlink:href="#m74142ecb89" x="220.422787" y="192.400791" style="stroke: #000000"/>
     <use xlink:href="#m74142ecb89" x="203.625611" y="147.422998" style="stroke: #000000"/>
     <use xlink:href="#m74142ecb89" x="235.17119" y="142.280358" style="stroke: #000000"/>
    </g>
   </g>
   <g id="PathCollection_11">
    <defs>
     <path id="ma10e11e43a" d="M -3 -0 
L 3 3 
L 3 -3 
z
" style="stroke: #ff8c00"/>
    </defs>
    <g clip-path="url(#p2d7de2cf7c)">
     <use xlink:href="#ma10e11e43a" x="203.605099" y="102.017952" style="fill: #ff8c00; stroke: #ff8c00"/>
     <use xlink:href="#ma10e11e43a" x="253.174457" y="186.761547" style="fill: #ff8c00; stroke: #ff8c00"/>
     <use xlink:href="#ma10e11e43a" x="233.180762" y="100.653839" style="fill: #ff8c00; stroke: #ff8c00"/>
     <use xlink:href="#ma10e11e43a" x="161.669999" y="142.58939" style="fill: #ff8c00; stroke: #ff8c00"/>
     <use xlink:href="#ma10e11e43a" x="277.731845" y="144.740525" style="fill: #ff8c00; stroke: #ff8c00"/>
     <use xlink:href="#ma10e11e43a" x="239.247458" y="113.733143" style="fill: #ff8c00; stroke: #ff8c00"/>
     <use xlink:href="#ma10e11e43a" x="190.946785" y="51.167821" style="fill: #ff8c00; stroke: #ff8c00"/>
     <use xlink:href="#ma10e11e43a" x="262.995964" y="157.532862" style="fill: #ff8c00; stroke: #ff8c00"/>
     <use xlink:href="#ma10e11e43a" x="117.201444" y="106.97569" style="fill: #ff8c00; stroke: #ff8c00"/>
     <use xlink:href="#ma10e11e43a" x="160.734642" y="113.831929" style="fill: #ff8c00; stroke: #ff8c00"/>
     <use xlink:href="#ma10e11e43a" x="239.690581" y="120.938056" style="fill: #ff8c00; stroke: #ff8c00"/>
     <use xlink:href="#ma10e11e43a" x="204.733501" y="244.97513" style="fill: #ff8c00; stroke: #ff8c00"/>
     <use xlink:href="#ma10e11e43a" x="199.889387" y="213.875436" style="fill: #ff8c00; stroke: #ff8c00"/>
     <use xlink:href="#ma10e11e43a" x="242.560038" y="110.401749" style="fill: #ff8c00; stroke: #ff8c00"/>
     <use xlink:href="#ma10e11e43a" x="239.839635" y="165.933388" style="fill: #ff8c00; stroke: #ff8c00"/>
     <use xlink:href="#ma10e11e43a" x="147.602345" y="73.982745" style="fill: #ff8c00; stroke: #ff8c00"/>
     <use xlink:href="#ma10e11e43a" x="120.031826" y="101.557877" style="fill: #ff8c00; stroke: #ff8c00"/>
     <use xlink:href="#ma10e11e43a" x="128.410728" y="88.316154" style="fill: #ff8c00; stroke: #ff8c00"/>
     <use xlink:href="#ma10e11e43a" x="228.767409" y="19.296" style="fill: #ff8c00; stroke: #ff8c00"/>
     <use xlink:href="#ma10e11e43a" x="301.354772" y="133.656751" style="fill: #ff8c00; stroke: #ff8c00"/>
     <use xlink:href="#ma10e11e43a" x="225.02371" y="192.064027" style="fill: #ff8c00; stroke: #ff8c00"/>
     <use xlink:href="#ma10e11e43a" x="172.451771" y="89.564853" style="fill: #ff8c00; stroke: #ff8c00"/>
     <use xlink:href="#ma10e11e43a" x="268.779388" y="159.718189" style="fill: #ff8c00; stroke: #ff8c00"/>
     <use xlink:href="#ma10e11e43a" x="255.959036" y="138.475165" style="fill: #ff8c00; stroke: #ff8c00"/>
     <use xlink:href="#ma10e11e43a" x="275.008231" y="93.760565" style="fill: #ff8c00; stroke: #ff8c00"/>
     <use xlink:href="#ma10e11e43a" x="92.924068" y="94.72427" style="fill: #ff8c00; stroke: #ff8c00"/>
     <use xlink:href="#ma10e11e43a" x="225.04861" y="111.280997" style="fill: #ff8c00; stroke: #ff8c00"/>
     <use xlink:href="#ma10e11e43a" x="290.869718" y="126.112223" style="fill: #ff8c00; stroke: #ff8c00"/>
     <use xlink:href="#ma10e11e43a" x="149.537781" y="100.847207" style="fill: #ff8c00; stroke: #ff8c00"/>
     <use xlink:href="#ma10e11e43a" x="178.39555" y="57.648493" style="fill: #ff8c00; stroke: #ff8c00"/>
     <use xlink:href="#ma10e11e43a" x="261.862428" y="174.841228" style="fill: #ff8c00; stroke: #ff8c00"/>
     <use xlink:href="#ma10e11e43a" x="179.401862" y="112.70492" style="fill: #ff8c00; stroke: #ff8c00"/>
     <use xlink:href="#ma10e11e43a" x="261.926091" y="90.794839" style="fill: #ff8c00; stroke: #ff8c00"/>
     <use xlink:href="#ma10e11e43a" x="301.378003" y="127.830824" style="fill: #ff8c00; stroke: #ff8c00"/>
     <use xlink:href="#ma10e11e43a" x="312.508371" y="131.287899" style="fill: #ff8c00; stroke: #ff8c00"/>
     <use xlink:href="#ma10e11e43a" x="376.19196" y="169.766784" style="fill: #ff8c00; stroke: #ff8c00"/>
     <use xlink:href="#ma10e11e43a" x="324.264922" y="232.968947" style="fill: #ff8c00; stroke: #ff8c00"/>
     <use xlink:href="#ma10e11e43a" x="137.034482" y="135.617083" style="fill: #ff8c00; stroke: #ff8c00"/>
     <use xlink:href="#ma10e11e43a" x="264.406967" y="159.80013" style="fill: #ff8c00; stroke: #ff8c00"/>
     <use xlink:href="#ma10e11e43a" x="285.323809" y="108.763217" style="fill: #ff8c00; stroke: #ff8c00"/>
     <use xlink:href="#ma10e11e43a" x="144.370176" y="116.746262" style="fill: #ff8c00; stroke: #ff8c00"/>
     <use xlink:href="#ma10e11e43a" x="158.939834" y="115.890824" style="fill: #ff8c00; stroke: #ff8c00"/>
     <use xlink:href="#ma10e11e43a" x="155.464437" y="49.365613" style="fill: #ff8c00; stroke: #ff8c00"/>
     <use xlink:href="#ma10e11e43a" x="266.15194" y="136.505341" style="fill: #ff8c00; stroke: #ff8c00"/>
     <use xlink:href="#ma10e11e43a" x="284.877594" y="151.878577" style="fill: #ff8c00; stroke: #ff8c00"/>
     <use xlink:href="#ma10e11e43a" x="208.817362" y="53.95051" style="fill: #ff8c00; stroke: #ff8c00"/>
     <use xlink:href="#ma10e11e43a" x="297.102563" y="157.437081" style="fill: #ff8c00; stroke: #ff8c00"/>
     <use xlink:href="#ma10e11e43a" x="217.405371" y="106.982882" style="fill: #ff8c00; stroke: #ff8c00"/>
     <use xlink:href="#ma10e11e43a" x="129.912575" y="117.904026" style="fill: #ff8c00; stroke: #ff8c00"/>
     <use xlink:href="#ma10e11e43a" x="125.145506" y="86.800197" style="fill: #ff8c00; stroke: #ff8c00"/>
     <use xlink:href="#ma10e11e43a" x="176.383663" y="126.981939" style="fill: #ff8c00; stroke: #ff8c00"/>
     <use xlink:href="#ma10e11e43a" x="239.978143" y="102.660284" style="fill: #ff8c00; stroke: #ff8c00"/>
     <use xlink:href="#ma10e11e43a" x="274.326862" y="142.04354" style="fill: #ff8c00; stroke: #ff8c00"/>
     <use xlink:href="#ma10e11e43a" x="291.436788" y="143.888279" style="fill: #ff8c00; stroke: #ff8c00"/>
     <use xlink:href="#ma10e11e43a" x="230.230508" y="121.004615" style="fill: #ff8c00; stroke: #ff8c00"/>
     <use xlink:href="#ma10e11e43a" x="279.01559" y="112.708565" style="fill: #ff8c00; stroke: #ff8c00"/>
     <use xlink:href="#ma10e11e43a" x="295.32214" y="81.541505" style="fill: #ff8c00; stroke: #ff8c00"/>
     <use xlink:href="#ma10e11e43a" x="166.6144" y="92.314106" style="fill: #ff8c00; stroke: #ff8c00"/>
     <use xlink:href="#ma10e11e43a" x="241.387203" y="90.683485" style="fill: #ff8c00; stroke: #ff8c00"/>
     <use xlink:href="#ma10e11e43a" x="289.211983" y="165.573586" style="fill: #ff8c00; stroke: #ff8c00"/>
     <use xlink:href="#ma10e11e43a" x="275.396878" y="121.490039" style="fill: #ff8c00; stroke: #ff8c00"/>
     <use xlink:href="#ma10e11e43a" x="121.174946" y="113.530119" style="fill: #ff8c00; stroke: #ff8c00"/>
     <use xlink:href="#ma10e11e43a" x="196.02098" y="109.097765" style="fill: #ff8c00; stroke: #ff8c00"/>
     <use xlink:href="#ma10e11e43a" x="186.2485" y="78.458482" style="fill: #ff8c00; stroke: #ff8c00"/>
    </g>
   </g>
   <g id="matplotlib.axis_1">
    <g id="xtick_1">
     <g id="line2d_1">
      <defs>
       <path id="m3883247339" d="M 0 0 
L 0 3.5 
" style="stroke: #000000; stroke-width: 0.8"/>
      </defs>
      <g>
       <use xlink:href="#m3883247339" x="75.14315" y="273.312" style="stroke: #000000; stroke-width: 0.8"/>
      </g>
     </g>
     <g id="text_1">
      <!-- −40 -->
      <g transform="translate(64.590806 287.910437) scale(0.1 -0.1)">
       <defs>
        <path id="DejaVuSans-2212" d="M 678 2272 
L 4684 2272 
L 4684 1741 
L 678 1741 
L 678 2272 
z
" transform="scale(0.015625)"/>
        <path id="DejaVuSans-34" d="M 2419 4116 
L 825 1625 
L 2419 1625 
L 2419 4116 
z
M 2253 4666 
L 3047 4666 
L 3047 1625 
L 3713 1625 
L 3713 1100 
L 3047 1100 
L 3047 0 
L 2419 0 
L 2419 1100 
L 313 1100 
L 313 1709 
L 2253 4666 
z
" transform="scale(0.015625)"/>
        <path id="DejaVuSans-30" d="M 2034 4250 
Q 1547 4250 1301 3770 
Q 1056 3291 1056 2328 
Q 1056 1369 1301 889 
Q 1547 409 2034 409 
Q 2525 409 2770 889 
Q 3016 1369 3016 2328 
Q 3016 3291 2770 3770 
Q 2525 4250 2034 4250 
z
M 2034 4750 
Q 2819 4750 3233 4129 
Q 3647 3509 3647 2328 
Q 3647 1150 3233 529 
Q 2819 -91 2034 -91 
Q 1250 -91 836 529 
Q 422 1150 422 2328 
Q 422 3509 836 4129 
Q 1250 4750 2034 4750 
z
" transform="scale(0.015625)"/>
       </defs>
       <use xlink:href="#DejaVuSans-2212"/>
       <use xlink:href="#DejaVuSans-34" x="83.789062"/>
       <use xlink:href="#DejaVuSans-30" x="147.412109"/>
      </g>
     </g>
    </g>
    <g id="xtick_2">
     <g id="line2d_2">
      <g>
       <use xlink:href="#m3883247339" x="125.471211" y="273.312" style="stroke: #000000; stroke-width: 0.8"/>
      </g>
     </g>
     <g id="text_2">
      <!-- −20 -->
      <g transform="translate(114.918867 287.910437) scale(0.1 -0.1)">
       <defs>
        <path id="DejaVuSans-32" d="M 1228 531 
L 3431 531 
L 3431 0 
L 469 0 
L 469 531 
Q 828 903 1448 1529 
Q 2069 2156 2228 2338 
Q 2531 2678 2651 2914 
Q 2772 3150 2772 3378 
Q 2772 3750 2511 3984 
Q 2250 4219 1831 4219 
Q 1534 4219 1204 4116 
Q 875 4013 500 3803 
L 500 4441 
Q 881 4594 1212 4672 
Q 1544 4750 1819 4750 
Q 2544 4750 2975 4387 
Q 3406 4025 3406 3419 
Q 3406 3131 3298 2873 
Q 3191 2616 2906 2266 
Q 2828 2175 2409 1742 
Q 1991 1309 1228 531 
z
" transform="scale(0.015625)"/>
       </defs>
       <use xlink:href="#DejaVuSans-2212"/>
       <use xlink:href="#DejaVuSans-32" x="83.789062"/>
       <use xlink:href="#DejaVuSans-30" x="147.412109"/>
      </g>
     </g>
    </g>
    <g id="xtick_3">
     <g id="line2d_3">
      <g>
       <use xlink:href="#m3883247339" x="175.799272" y="273.312" style="stroke: #000000; stroke-width: 0.8"/>
      </g>
     </g>
     <g id="text_3">
      <!-- 0 -->
      <g transform="translate(172.618022 287.910437) scale(0.1 -0.1)">
       <use xlink:href="#DejaVuSans-30"/>
      </g>
     </g>
    </g>
    <g id="xtick_4">
     <g id="line2d_4">
      <g>
       <use xlink:href="#m3883247339" x="226.127334" y="273.312" style="stroke: #000000; stroke-width: 0.8"/>
      </g>
     </g>
     <g id="text_4">
      <!-- 20 -->
      <g transform="translate(219.764834 287.910437) scale(0.1 -0.1)">
       <use xlink:href="#DejaVuSans-32"/>
       <use xlink:href="#DejaVuSans-30" x="63.623047"/>
      </g>
     </g>
    </g>
    <g id="xtick_5">
     <g id="line2d_5">
      <g>
       <use xlink:href="#m3883247339" x="276.455395" y="273.312" style="stroke: #000000; stroke-width: 0.8"/>
      </g>
     </g>
     <g id="text_5">
      <!-- 40 -->
      <g transform="translate(270.092895 287.910437) scale(0.1 -0.1)">
       <use xlink:href="#DejaVuSans-34"/>
       <use xlink:href="#DejaVuSans-30" x="63.623047"/>
      </g>
     </g>
    </g>
    <g id="xtick_6">
     <g id="line2d_6">
      <g>
       <use xlink:href="#m3883247339" x="326.783456" y="273.312" style="stroke: #000000; stroke-width: 0.8"/>
      </g>
     </g>
     <g id="text_6">
      <!-- 60 -->
      <g transform="translate(320.420956 287.910437) scale(0.1 -0.1)">
       <defs>
        <path id="DejaVuSans-36" d="M 2113 2584 
Q 1688 2584 1439 2293 
Q 1191 2003 1191 1497 
Q 1191 994 1439 701 
Q 1688 409 2113 409 
Q 2538 409 2786 701 
Q 3034 994 3034 1497 
Q 3034 2003 2786 2293 
Q 2538 2584 2113 2584 
z
M 3366 4563 
L 3366 3988 
Q 3128 4100 2886 4159 
Q 2644 4219 2406 4219 
Q 1781 4219 1451 3797 
Q 1122 3375 1075 2522 
Q 1259 2794 1537 2939 
Q 1816 3084 2150 3084 
Q 2853 3084 3261 2657 
Q 3669 2231 3669 1497 
Q 3669 778 3244 343 
Q 2819 -91 2113 -91 
Q 1303 -91 875 529 
Q 447 1150 447 2328 
Q 447 3434 972 4092 
Q 1497 4750 2381 4750 
Q 2619 4750 2861 4703 
Q 3103 4656 3366 4563 
z
" transform="scale(0.015625)"/>
       </defs>
       <use xlink:href="#DejaVuSans-36"/>
       <use xlink:href="#DejaVuSans-30" x="63.623047"/>
      </g>
     </g>
    </g>
    <g id="xtick_7">
     <g id="line2d_7">
      <g>
       <use xlink:href="#m3883247339" x="377.111517" y="273.312" style="stroke: #000000; stroke-width: 0.8"/>
      </g>
     </g>
     <g id="text_7">
      <!-- 80 -->
      <g transform="translate(370.749017 287.910437) scale(0.1 -0.1)">
       <defs>
        <path id="DejaVuSans-38" d="M 2034 2216 
Q 1584 2216 1326 1975 
Q 1069 1734 1069 1313 
Q 1069 891 1326 650 
Q 1584 409 2034 409 
Q 2484 409 2743 651 
Q 3003 894 3003 1313 
Q 3003 1734 2745 1975 
Q 2488 2216 2034 2216 
z
M 1403 2484 
Q 997 2584 770 2862 
Q 544 3141 544 3541 
Q 544 4100 942 4425 
Q 1341 4750 2034 4750 
Q 2731 4750 3128 4425 
Q 3525 4100 3525 3541 
Q 3525 3141 3298 2862 
Q 3072 2584 2669 2484 
Q 3125 2378 3379 2068 
Q 3634 1759 3634 1313 
Q 3634 634 3220 271 
Q 2806 -91 2034 -91 
Q 1263 -91 848 271 
Q 434 634 434 1313 
Q 434 1759 690 2068 
Q 947 2378 1403 2484 
z
M 1172 3481 
Q 1172 3119 1398 2916 
Q 1625 2713 2034 2713 
Q 2441 2713 2670 2916 
Q 2900 3119 2900 3481 
Q 2900 3844 2670 4047 
Q 2441 4250 2034 4250 
Q 1625 4250 1398 4047 
Q 1172 3844 1172 3481 
z
" transform="scale(0.015625)"/>
       </defs>
       <use xlink:href="#DejaVuSans-38"/>
       <use xlink:href="#DejaVuSans-30" x="63.623047"/>
      </g>
     </g>
    </g>
   </g>
   <g id="matplotlib.axis_2">
    <g id="ytick_1">
     <g id="line2d_8">
      <defs>
       <path id="m49ba723d53" d="M 0 0 
L -3.5 0 
" style="stroke: #000000; stroke-width: 0.8"/>
      </defs>
      <g>
       <use xlink:href="#m49ba723d53" x="35.304688" y="252.584552" style="stroke: #000000; stroke-width: 0.8"/>
      </g>
     </g>
     <g id="text_8">
      <!-- −30 -->
      <g transform="translate(7.2 256.383771) scale(0.1 -0.1)">
       <defs>
        <path id="DejaVuSans-33" d="M 2597 2516 
Q 3050 2419 3304 2112 
Q 3559 1806 3559 1356 
Q 3559 666 3084 287 
Q 2609 -91 1734 -91 
Q 1441 -91 1130 -33 
Q 819 25 488 141 
L 488 750 
Q 750 597 1062 519 
Q 1375 441 1716 441 
Q 2309 441 2620 675 
Q 2931 909 2931 1356 
Q 2931 1769 2642 2001 
Q 2353 2234 1838 2234 
L 1294 2234 
L 1294 2753 
L 1863 2753 
Q 2328 2753 2575 2939 
Q 2822 3125 2822 3475 
Q 2822 3834 2567 4026 
Q 2313 4219 1838 4219 
Q 1578 4219 1281 4162 
Q 984 4106 628 3988 
L 628 4550 
Q 988 4650 1302 4700 
Q 1616 4750 1894 4750 
Q 2613 4750 3031 4423 
Q 3450 4097 3450 3541 
Q 3450 3153 3228 2886 
Q 3006 2619 2597 2516 
z
" transform="scale(0.015625)"/>
       </defs>
       <use xlink:href="#DejaVuSans-2212"/>
       <use xlink:href="#DejaVuSans-33" x="83.789062"/>
       <use xlink:href="#DejaVuSans-30" x="147.412109"/>
      </g>
     </g>
    </g>
    <g id="ytick_2">
     <g id="line2d_9">
      <g>
       <use xlink:href="#m49ba723d53" x="35.304688" y="215.471931" style="stroke: #000000; stroke-width: 0.8"/>
      </g>
     </g>
     <g id="text_9">
      <!-- −20 -->
      <g transform="translate(7.2 219.27115) scale(0.1 -0.1)">
       <use xlink:href="#DejaVuSans-2212"/>
       <use xlink:href="#DejaVuSans-32" x="83.789062"/>
       <use xlink:href="#DejaVuSans-30" x="147.412109"/>
      </g>
     </g>
    </g>
    <g id="ytick_3">
     <g id="line2d_10">
      <g>
       <use xlink:href="#m49ba723d53" x="35.304688" y="178.35931" style="stroke: #000000; stroke-width: 0.8"/>
      </g>
     </g>
     <g id="text_10">
      <!-- −10 -->
      <g transform="translate(7.2 182.158528) scale(0.1 -0.1)">
       <defs>
        <path id="DejaVuSans-31" d="M 794 531 
L 1825 531 
L 1825 4091 
L 703 3866 
L 703 4441 
L 1819 4666 
L 2450 4666 
L 2450 531 
L 3481 531 
L 3481 0 
L 794 0 
L 794 531 
z
" transform="scale(0.015625)"/>
       </defs>
       <use xlink:href="#DejaVuSans-2212"/>
       <use xlink:href="#DejaVuSans-31" x="83.789062"/>
       <use xlink:href="#DejaVuSans-30" x="147.412109"/>
      </g>
     </g>
    </g>
    <g id="ytick_4">
     <g id="line2d_11">
      <g>
       <use xlink:href="#m49ba723d53" x="35.304688" y="141.246688" style="stroke: #000000; stroke-width: 0.8"/>
      </g>
     </g>
     <g id="text_11">
      <!-- 0 -->
      <g transform="translate(21.942187 145.045907) scale(0.1 -0.1)">
       <use xlink:href="#DejaVuSans-30"/>
      </g>
     </g>
    </g>
    <g id="ytick_5">
     <g id="line2d_12">
      <g>
       <use xlink:href="#m49ba723d53" x="35.304688" y="104.134067" style="stroke: #000000; stroke-width: 0.8"/>
      </g>
     </g>
     <g id="text_12">
      <!-- 10 -->
      <g transform="translate(15.579687 107.933286) scale(0.1 -0.1)">
       <use xlink:href="#DejaVuSans-31"/>
       <use xlink:href="#DejaVuSans-30" x="63.623047"/>
      </g>
     </g>
    </g>
    <g id="ytick_6">
     <g id="line2d_13">
      <g>
       <use xlink:href="#m49ba723d53" x="35.304688" y="67.021446" style="stroke: #000000; stroke-width: 0.8"/>
      </g>
     </g>
     <g id="text_13">
      <!-- 20 -->
      <g transform="translate(15.579687 70.820665) scale(0.1 -0.1)">
       <use xlink:href="#DejaVuSans-32"/>
       <use xlink:href="#DejaVuSans-30" x="63.623047"/>
      </g>
     </g>
    </g>
    <g id="ytick_7">
     <g id="line2d_14">
      <g>
       <use xlink:href="#m49ba723d53" x="35.304688" y="29.908825" style="stroke: #000000; stroke-width: 0.8"/>
      </g>
     </g>
     <g id="text_14">
      <!-- 30 -->
      <g transform="translate(15.579687 33.708043) scale(0.1 -0.1)">
       <use xlink:href="#DejaVuSans-33"/>
       <use xlink:href="#DejaVuSans-30" x="63.623047"/>
      </g>
     </g>
    </g>
   </g>
   <g id="patch_3">
    <path d="M 35.304688 273.312 
L 35.304688 7.2 
" style="fill: none; stroke: #000000; stroke-width: 0.8; stroke-linejoin: miter; stroke-linecap: square"/>
   </g>
   <g id="patch_4">
    <path d="M 392.424688 273.312 
L 392.424688 7.2 
" style="fill: none; stroke: #000000; stroke-width: 0.8; stroke-linejoin: miter; stroke-linecap: square"/>
   </g>
   <g id="patch_5">
    <path d="M 35.304688 273.312 
L 392.424688 273.312 
" style="fill: none; stroke: #000000; stroke-width: 0.8; stroke-linejoin: miter; stroke-linecap: square"/>
   </g>
   <g id="patch_6">
    <path d="M 35.304688 7.2 
L 392.424688 7.2 
" style="fill: none; stroke: #000000; stroke-width: 0.8; stroke-linejoin: miter; stroke-linecap: square"/>
   </g>
  </g>
 </g>
 <defs>
  <clipPath id="p2d7de2cf7c">
   <rect x="35.304688" y="7.2" width="357.12" height="266.112"/>
  </clipPath>
 </defs>
</svg>
