<?xml version="1.0" encoding="utf-8" standalone="no"?>
<!DOCTYPE svg PUBLIC "-//W3C//DTD SVG 1.1//EN"
  "http://www.w3.org/Graphics/SVG/1.1/DTD/svg11.dtd">
<svg xmlns:xlink="http://www.w3.org/1999/xlink" width="399.624687pt" height="297.190125pt" viewBox="0 0 399.624687 297.190125" xmlns="http://www.w3.org/2000/svg" version="1.1">
 <metadata>
  <rdf:RDF xmlns:dc="http://purl.org/dc/elements/1.1/" xmlns:cc="http://creativecommons.org/ns#" xmlns:rdf="http://www.w3.org/1999/02/22-rdf-syntax-ns#">
   <cc:Work>
    <dc:type rdf:resource="http://purl.org/dc/dcmitype/StillImage"/>
    <dc:date>2023-11-11T05:45:26.773241</dc:date>
    <dc:format>image/svg+xml</dc:format>
    <dc:creator>
     <cc:Agent>
      <dc:title>Matplotlib v3.8.0, https://matplotlib.org/</dc:title>
     </cc:Agent>
    </dc:creator>
   </cc:Work>
  </rdf:RDF>
 </metadata>
 <defs>
  <style type="text/css">*{stroke-linejoin: round; stroke-linecap: butt}</style>
 </defs>
 <g id="figure_1">
  <g id="patch_1">
   <path d="M 0 297.190125 
L 399.624687 297.190125 
L 399.624687 0 
L 0 0 
z
" style="fill: #ffffff"/>
  </g>
  <g id="axes_1">
   <g id="patch_2">
    <path d="M 35.304688 273.312 
L 392.424688 273.312 
L 392.424688 7.2 
L 35.304688 7.2 
z
" style="fill: #ffffff"/>
   </g>
   <g id="PathCollection_1">
    <defs>
     <path id="m48fcebf75c" d="M 0 1.5 
C 0.397805 1.5 0.77937 1.341951 1.06066 1.06066 
C 1.341951 0.77937 1.5 0.397805 1.5 0 
C 1.5 -0.397805 1.341951 -0.77937 1.06066 -1.06066 
C 0.77937 -1.341951 0.397805 -1.5 0 -1.5 
C -0.397805 -1.5 -0.77937 -1.341951 -1.06066 -1.06066 
C -1.341951 -0.77937 -1.5 -0.397805 -1.5 0 
C -1.5 0.397805 -1.341951 0.77937 -1.06066 1.06066 
C -0.77937 1.341951 -0.397805 1.5 0 1.5 
z
" style="stroke: #ff8c00"/>
    </defs>
    <g clip-path="url(#p8de11dbf62)">
     <use xlink:href="#m48fcebf75c" x="218.115797" y="181.417552" style="fill: #ff8c00; stroke: #ff8c00"/>
     <use xlink:href="#m48fcebf75c" x="212.723022" y="190.9891" style="fill: #ff8c00; stroke: #ff8c00"/>
     <use xlink:href="#m48fcebf75c" x="267.410677" y="230.317742" style="fill: #ff8c00; stroke: #ff8c00"/>
     <use xlink:href="#m48fcebf75c" x="282.310452" y="151.821693" style="fill: #ff8c00; stroke: #ff8c00"/>
     <use xlink:href="#m48fcebf75c" x="193.113745" y="211.148035" style="fill: #ff8c00; stroke: #ff8c00"/>
     <use xlink:href="#m48fcebf75c" x="202.549383" y="198.421946" style="fill: #ff8c00; stroke: #ff8c00"/>
     <use xlink:href="#m48fcebf75c" x="227.049245" y="217.10687" style="fill: #ff8c00; stroke: #ff8c00"/>
    </g>
   </g>
   <g id="PathCollection_2">
    <defs>
     <path id="m30c4b84317" d="M 0 1.5 
C 0.397805 1.5 0.77937 1.341951 1.06066 1.06066 
C 1.341951 0.77937 1.5 0.397805 1.5 0 
C 1.5 -0.397805 1.341951 -0.77937 1.06066 -1.06066 
C 0.77937 -1.341951 0.397805 -1.5 0 -1.5 
C -0.397805 -1.5 -0.77937 -1.341951 -1.06066 -1.06066 
C -1.341951 -0.77937 -1.5 -0.397805 -1.5 0 
C -1.5 0.397805 -1.341951 0.77937 -1.06066 1.06066 
C -0.77937 1.341951 -0.397805 1.5 0 1.5 
z
" style="stroke: #006400"/>
    </defs>
    <g clip-path="url(#p8de11dbf62)">
     <use xlink:href="#m30c4b84317" x="230.623153" y="72.883747" style="fill: #006400; stroke: #006400"/>
     <use xlink:href="#m30c4b84317" x="257.19465" y="119.289682" style="fill: #006400; stroke: #006400"/>
     <use xlink:href="#m30c4b84317" x="232.761367" y="149.0974" style="fill: #006400; stroke: #006400"/>
     <use xlink:href="#m30c4b84317" x="253.463667" y="106.899329" style="fill: #006400; stroke: #006400"/>
     <use xlink:href="#m30c4b84317" x="313.202004" y="19.296" style="fill: #006400; stroke: #006400"/>
     <use xlink:href="#m30c4b84317" x="230.028475" y="110.753744" style="fill: #006400; stroke: #006400"/>
     <use xlink:href="#m30c4b84317" x="266.926316" y="67.109279" style="fill: #006400; stroke: #006400"/>
     <use xlink:href="#m30c4b84317" x="290.118895" y="82.088177" style="fill: #006400; stroke: #006400"/>
     <use xlink:href="#m30c4b84317" x="255.856303" y="79.35087" style="fill: #006400; stroke: #006400"/>
     <use xlink:href="#m30c4b84317" x="366.369559" y="107.790869" style="fill: #006400; stroke: #006400"/>
     <use xlink:href="#m30c4b84317" x="361.665878" y="93.866579" style="fill: #006400; stroke: #006400"/>
     <use xlink:href="#m30c4b84317" x="285.29274" y="92.565845" style="fill: #006400; stroke: #006400"/>
    </g>
   </g>
   <g id="PathCollection_3">
    <defs>
     <path id="m10cf21ea5e" d="M 0 1.5 
C 0.397805 1.5 0.77937 1.341951 1.06066 1.06066 
C 1.341951 0.77937 1.5 0.397805 1.5 0 
C 1.5 -0.397805 1.341951 -0.77937 1.06066 -1.06066 
C 0.77937 -1.341951 0.397805 -1.5 0 -1.5 
C -0.397805 -1.5 -0.77937 -1.341951 -1.06066 -1.06066 
C -1.341951 -0.77937 -1.5 -0.397805 -1.5 0 
C -1.5 0.397805 -1.341951 0.77937 -1.06066 1.06066 
C -0.77937 1.341951 -0.397805 1.5 0 1.5 
z
" style="stroke: #2f4f4f"/>
    </defs>
    <g clip-path="url(#p8de11dbf62)">
     <use xlink:href="#m10cf21ea5e" x="169.81428" y="208.402995" style="fill: #2f4f4f; stroke: #2f4f4f"/>
     <use xlink:href="#m10cf21ea5e" x="206.052786" y="192.209138" style="fill: #2f4f4f; stroke: #2f4f4f"/>
     <use xlink:href="#m10cf21ea5e" x="164.412226" y="114.331499" style="fill: #2f4f4f; stroke: #2f4f4f"/>
     <use xlink:href="#m10cf21ea5e" x="167.091883" y="184.541464" style="fill: #2f4f4f; stroke: #2f4f4f"/>
     <use xlink:href="#m10cf21ea5e" x="131.459372" y="164.119351" style="fill: #2f4f4f; stroke: #2f4f4f"/>
     <use xlink:href="#m10cf21ea5e" x="132.007772" y="188.357236" style="fill: #2f4f4f; stroke: #2f4f4f"/>
     <use xlink:href="#m10cf21ea5e" x="179.922235" y="207.965863" style="fill: #2f4f4f; stroke: #2f4f4f"/>
     <use xlink:href="#m10cf21ea5e" x="216.214765" y="261.216" style="fill: #2f4f4f; stroke: #2f4f4f"/>
     <use xlink:href="#m10cf21ea5e" x="142.980762" y="145.790558" style="fill: #2f4f4f; stroke: #2f4f4f"/>
     <use xlink:href="#m10cf21ea5e" x="154.316018" y="196.871976" style="fill: #2f4f4f; stroke: #2f4f4f"/>
     <use xlink:href="#m10cf21ea5e" x="217.308627" y="191.913467" style="fill: #2f4f4f; stroke: #2f4f4f"/>
     <use xlink:href="#m10cf21ea5e" x="178.839776" y="193.504612" style="fill: #2f4f4f; stroke: #2f4f4f"/>
     <use xlink:href="#m10cf21ea5e" x="197.86719" y="191.605846" style="fill: #2f4f4f; stroke: #2f4f4f"/>
     <use xlink:href="#m10cf21ea5e" x="167.193084" y="174.989144" style="fill: #2f4f4f; stroke: #2f4f4f"/>
     <use xlink:href="#m10cf21ea5e" x="148.19717" y="169.289046" style="fill: #2f4f4f; stroke: #2f4f4f"/>
     <use xlink:href="#m10cf21ea5e" x="166.955287" y="154.263701" style="fill: #2f4f4f; stroke: #2f4f4f"/>
     <use xlink:href="#m10cf21ea5e" x="168.16124" y="222.678169" style="fill: #2f4f4f; stroke: #2f4f4f"/>
    </g>
   </g>
   <g id="PathCollection_4">
    <defs>
     <path id="m9916dcdad2" d="M 0 1.5 
C 0.397805 1.5 0.77937 1.341951 1.06066 1.06066 
C 1.341951 0.77937 1.5 0.397805 1.5 0 
C 1.5 -0.397805 1.341951 -0.77937 1.06066 -1.06066 
C 0.77937 -1.341951 0.397805 -1.5 0 -1.5 
C -0.397805 -1.5 -0.77937 -1.341951 -1.06066 -1.06066 
C -1.341951 -0.77937 -1.5 -0.397805 -1.5 0 
C -1.5 0.397805 -1.341951 0.77937 -1.06066 1.06066 
C -0.77937 1.341951 -0.397805 1.5 0 1.5 
z
" style="stroke: #00bfff"/>
    </defs>
    <g clip-path="url(#p8de11dbf62)">
     <use xlink:href="#m9916dcdad2" x="189.436467" y="175.64415" style="fill: #00bfff; stroke: #00bfff"/>
     <use xlink:href="#m9916dcdad2" x="197.650171" y="167.183074" style="fill: #00bfff; stroke: #00bfff"/>
     <use xlink:href="#m9916dcdad2" x="175.683011" y="119.52009" style="fill: #00bfff; stroke: #00bfff"/>
     <use xlink:href="#m9916dcdad2" x="132.402453" y="132.070197" style="fill: #00bfff; stroke: #00bfff"/>
     <use xlink:href="#m9916dcdad2" x="219.697851" y="145.34134" style="fill: #00bfff; stroke: #00bfff"/>
     <use xlink:href="#m9916dcdad2" x="227.343838" y="158.03732" style="fill: #00bfff; stroke: #00bfff"/>
     <use xlink:href="#m9916dcdad2" x="194.843859" y="154.026099" style="fill: #00bfff; stroke: #00bfff"/>
     <use xlink:href="#m9916dcdad2" x="150.156269" y="185.88286" style="fill: #00bfff; stroke: #00bfff"/>
     <use xlink:href="#m9916dcdad2" x="218.034933" y="128.935071" style="fill: #00bfff; stroke: #00bfff"/>
    </g>
   </g>
   <g id="PathCollection_5">
    <defs>
     <path id="mea27d87af7" d="M 0 1.5 
C 0.397805 1.5 0.77937 1.341951 1.06066 1.06066 
C 1.341951 0.77937 1.5 0.397805 1.5 0 
C 1.5 -0.397805 1.341951 -0.77937 1.06066 -1.06066 
C 0.77937 -1.341951 0.397805 -1.5 0 -1.5 
C -0.397805 -1.5 -0.77937 -1.341951 -1.06066 -1.06066 
C -1.341951 -0.77937 -1.5 -0.397805 -1.5 0 
C -1.5 0.397805 -1.341951 0.77937 -1.06066 1.06066 
C -0.77937 1.341951 -0.397805 1.5 0 1.5 
z
" style="stroke: #ffff00"/>
    </defs>
    <g clip-path="url(#p8de11dbf62)">
     <use xlink:href="#mea27d87af7" x="162.080338" y="200.387722" style="fill: #ffff00; stroke: #ffff00"/>
     <use xlink:href="#mea27d87af7" x="208.22569" y="150.813556" style="fill: #ffff00; stroke: #ffff00"/>
     <use xlink:href="#mea27d87af7" x="202.657068" y="185.320198" style="fill: #ffff00; stroke: #ffff00"/>
     <use xlink:href="#mea27d87af7" x="126.763674" y="143.067648" style="fill: #ffff00; stroke: #ffff00"/>
     <use xlink:href="#mea27d87af7" x="166.43454" y="186.002691" style="fill: #ffff00; stroke: #ffff00"/>
     <use xlink:href="#mea27d87af7" x="170.210877" y="177.133765" style="fill: #ffff00; stroke: #ffff00"/>
     <use xlink:href="#mea27d87af7" x="150.372943" y="159.862975" style="fill: #ffff00; stroke: #ffff00"/>
     <use xlink:href="#mea27d87af7" x="192.186071" y="153.972087" style="fill: #ffff00; stroke: #ffff00"/>
     <use xlink:href="#mea27d87af7" x="155.318712" y="162.292222" style="fill: #ffff00; stroke: #ffff00"/>
     <use xlink:href="#mea27d87af7" x="211.854191" y="203.806706" style="fill: #ffff00; stroke: #ffff00"/>
     <use xlink:href="#mea27d87af7" x="186.788948" y="193.943743" style="fill: #ffff00; stroke: #ffff00"/>
     <use xlink:href="#mea27d87af7" x="219.950051" y="220.346446" style="fill: #ffff00; stroke: #ffff00"/>
     <use xlink:href="#mea27d87af7" x="157.457296" y="162.945317" style="fill: #ffff00; stroke: #ffff00"/>
     <use xlink:href="#mea27d87af7" x="225.965661" y="190.1403" style="fill: #ffff00; stroke: #ffff00"/>
    </g>
   </g>
   <g id="PathCollection_6">
    <defs>
     <path id="mf841247ee6" d="M 0 1.5 
C 0.397805 1.5 0.77937 1.341951 1.06066 1.06066 
C 1.341951 0.77937 1.5 0.397805 1.5 0 
C 1.5 -0.397805 1.341951 -0.77937 1.06066 -1.06066 
C 0.77937 -1.341951 0.397805 -1.5 0 -1.5 
C -0.397805 -1.5 -0.77937 -1.341951 -1.06066 -1.06066 
C -1.341951 -0.77937 -1.5 -0.397805 -1.5 0 
C -1.5 0.397805 -1.341951 0.77937 -1.06066 1.06066 
C -0.77937 1.341951 -0.397805 1.5 0 1.5 
z
" style="stroke: #00ffff"/>
    </defs>
    <g clip-path="url(#p8de11dbf62)">
     <use xlink:href="#mf841247ee6" x="150.763459" y="153.25608" style="fill: #00ffff; stroke: #00ffff"/>
     <use xlink:href="#mf841247ee6" x="164.792749" y="155.733386" style="fill: #00ffff; stroke: #00ffff"/>
     <use xlink:href="#mf841247ee6" x="172.466516" y="140.099793" style="fill: #00ffff; stroke: #00ffff"/>
     <use xlink:href="#mf841247ee6" x="202.582316" y="132.890507" style="fill: #00ffff; stroke: #00ffff"/>
     <use xlink:href="#mf841247ee6" x="190.186282" y="146.370407" style="fill: #00ffff; stroke: #00ffff"/>
     <use xlink:href="#mf841247ee6" x="173.838054" y="155.460204" style="fill: #00ffff; stroke: #00ffff"/>
     <use xlink:href="#mf841247ee6" x="165.664138" y="153.980813" style="fill: #00ffff; stroke: #00ffff"/>
     <use xlink:href="#mf841247ee6" x="159.949451" y="188.319696" style="fill: #00ffff; stroke: #00ffff"/>
     <use xlink:href="#mf841247ee6" x="222.484411" y="226.760507" style="fill: #00ffff; stroke: #00ffff"/>
     <use xlink:href="#mf841247ee6" x="250.782621" y="201.306216" style="fill: #00ffff; stroke: #00ffff"/>
     <use xlink:href="#mf841247ee6" x="183.872573" y="119.747783" style="fill: #00ffff; stroke: #00ffff"/>
     <use xlink:href="#mf841247ee6" x="171.278996" y="171.797759" style="fill: #00ffff; stroke: #00ffff"/>
     <use xlink:href="#mf841247ee6" x="149.258805" y="113.502636" style="fill: #00ffff; stroke: #00ffff"/>
     <use xlink:href="#mf841247ee6" x="175.743235" y="127.561775" style="fill: #00ffff; stroke: #00ffff"/>
     <use xlink:href="#mf841247ee6" x="179.19238" y="163.914486" style="fill: #00ffff; stroke: #00ffff"/>
     <use xlink:href="#mf841247ee6" x="168.84846" y="170.396165" style="fill: #00ffff; stroke: #00ffff"/>
     <use xlink:href="#mf841247ee6" x="172.31928" y="91.634424" style="fill: #00ffff; stroke: #00ffff"/>
     <use xlink:href="#mf841247ee6" x="156.242086" y="130.109799" style="fill: #00ffff; stroke: #00ffff"/>
     <use xlink:href="#mf841247ee6" x="168.781818" y="166.050294" style="fill: #00ffff; stroke: #00ffff"/>
     <use xlink:href="#mf841247ee6" x="110.092209" y="101.11548" style="fill: #00ffff; stroke: #00ffff"/>
     <use xlink:href="#mf841247ee6" x="157.676823" y="161.459376" style="fill: #00ffff; stroke: #00ffff"/>
    </g>
   </g>
   <g id="PathCollection_7">
    <defs>
     <path id="m2ff88a1a74" d="M 0 1.5 
C 0.397805 1.5 0.77937 1.341951 1.06066 1.06066 
C 1.341951 0.77937 1.5 0.397805 1.5 0 
C 1.5 -0.397805 1.341951 -0.77937 1.06066 -1.06066 
C 0.77937 -1.341951 0.397805 -1.5 0 -1.5 
C -0.397805 -1.5 -0.77937 -1.341951 -1.06066 -1.06066 
C -1.341951 -0.77937 -1.5 -0.397805 -1.5 0 
C -1.5 0.397805 -1.341951 0.77937 -1.06066 1.06066 
C -0.77937 1.341951 -0.397805 1.5 0 1.5 
z
" style="stroke: #0000ff"/>
    </defs>
    <g clip-path="url(#p8de11dbf62)">
     <use xlink:href="#m2ff88a1a74" x="170.232114" y="182.764463" style="fill: #0000ff; stroke: #0000ff"/>
     <use xlink:href="#m2ff88a1a74" x="179.057649" y="128.244444" style="fill: #0000ff; stroke: #0000ff"/>
     <use xlink:href="#m2ff88a1a74" x="212.85406" y="186.672294" style="fill: #0000ff; stroke: #0000ff"/>
     <use xlink:href="#m2ff88a1a74" x="202.778086" y="197.312357" style="fill: #0000ff; stroke: #0000ff"/>
     <use xlink:href="#m2ff88a1a74" x="171.439166" y="153.366006" style="fill: #0000ff; stroke: #0000ff"/>
     <use xlink:href="#m2ff88a1a74" x="214.885067" y="224.503792" style="fill: #0000ff; stroke: #0000ff"/>
     <use xlink:href="#m2ff88a1a74" x="147.817319" y="162.791572" style="fill: #0000ff; stroke: #0000ff"/>
     <use xlink:href="#m2ff88a1a74" x="115.028345" y="164.897864" style="fill: #0000ff; stroke: #0000ff"/>
     <use xlink:href="#m2ff88a1a74" x="163.162572" y="170.77068" style="fill: #0000ff; stroke: #0000ff"/>
     <use xlink:href="#m2ff88a1a74" x="196.960048" y="114.860672" style="fill: #0000ff; stroke: #0000ff"/>
     <use xlink:href="#m2ff88a1a74" x="203.751904" y="192.722636" style="fill: #0000ff; stroke: #0000ff"/>
     <use xlink:href="#m2ff88a1a74" x="160.49068" y="154.616267" style="fill: #0000ff; stroke: #0000ff"/>
     <use xlink:href="#m2ff88a1a74" x="161.861403" y="150.617842" style="fill: #0000ff; stroke: #0000ff"/>
     <use xlink:href="#m2ff88a1a74" x="237.226279" y="257.606332" style="fill: #0000ff; stroke: #0000ff"/>
     <use xlink:href="#m2ff88a1a74" x="262.964444" y="191.028377" style="fill: #0000ff; stroke: #0000ff"/>
     <use xlink:href="#m2ff88a1a74" x="153.286795" y="149.899741" style="fill: #0000ff; stroke: #0000ff"/>
     <use xlink:href="#m2ff88a1a74" x="166.422874" y="189.88712" style="fill: #0000ff; stroke: #0000ff"/>
     <use xlink:href="#m2ff88a1a74" x="221.557873" y="228.010471" style="fill: #0000ff; stroke: #0000ff"/>
    </g>
   </g>
   <g id="PathCollection_8">
    <defs>
     <path id="m096108282e" d="M 0 1.5 
C 0.397805 1.5 0.77937 1.341951 1.06066 1.06066 
C 1.341951 0.77937 1.5 0.397805 1.5 0 
C 1.5 -0.397805 1.341951 -0.77937 1.06066 -1.06066 
C 0.77937 -1.341951 0.397805 -1.5 0 -1.5 
C -0.397805 -1.5 -0.77937 -1.341951 -1.06066 -1.06066 
C -1.341951 -0.77937 -1.5 -0.397805 -1.5 0 
C -1.5 0.397805 -1.341951 0.77937 -1.06066 1.06066 
C -0.77937 1.341951 -0.397805 1.5 0 1.5 
z
" style="stroke: #dc143c"/>
    </defs>
    <g clip-path="url(#p8de11dbf62)">
     <use xlink:href="#m096108282e" x="316.938565" y="151.14032" style="fill: #dc143c; stroke: #dc143c"/>
     <use xlink:href="#m096108282e" x="223.6041" y="187.463271" style="fill: #dc143c; stroke: #dc143c"/>
     <use xlink:href="#m096108282e" x="261.733367" y="209.70921" style="fill: #dc143c; stroke: #dc143c"/>
     <use xlink:href="#m096108282e" x="263.121217" y="158.530555" style="fill: #dc143c; stroke: #dc143c"/>
     <use xlink:href="#m096108282e" x="173.386408" y="117.229023" style="fill: #dc143c; stroke: #dc143c"/>
     <use xlink:href="#m096108282e" x="250.628604" y="192.20081" style="fill: #dc143c; stroke: #dc143c"/>
     <use xlink:href="#m096108282e" x="264.616468" y="165.501638" style="fill: #dc143c; stroke: #dc143c"/>
     <use xlink:href="#m096108282e" x="249.795675" y="185.450363" style="fill: #dc143c; stroke: #dc143c"/>
     <use xlink:href="#m096108282e" x="243.807593" y="173.767465" style="fill: #dc143c; stroke: #dc143c"/>
     <use xlink:href="#m096108282e" x="258.380913" y="176.407902" style="fill: #dc143c; stroke: #dc143c"/>
     <use xlink:href="#m096108282e" x="214.057079" y="120.976003" style="fill: #dc143c; stroke: #dc143c"/>
     <use xlink:href="#m096108282e" x="215.621847" y="134.97494" style="fill: #dc143c; stroke: #dc143c"/>
     <use xlink:href="#m096108282e" x="247.643388" y="178.917131" style="fill: #dc143c; stroke: #dc143c"/>
    </g>
   </g>
   <g id="PathCollection_9">
    <defs>
     <path id="m35790bafe7" d="M 0 1.5 
C 0.397805 1.5 0.77937 1.341951 1.06066 1.06066 
C 1.341951 0.77937 1.5 0.397805 1.5 0 
C 1.5 -0.397805 1.341951 -0.77937 1.06066 -1.06066 
C 0.77937 -1.341951 0.397805 -1.5 0 -1.5 
C -0.397805 -1.5 -0.77937 -1.341951 -1.06066 -1.06066 
C -1.341951 -0.77937 -1.5 -0.397805 -1.5 0 
C -1.5 0.397805 -1.341951 0.77937 -1.06066 1.06066 
C -0.77937 1.341951 -0.397805 1.5 0 1.5 
z
" style="stroke: #ffe4c4"/>
    </defs>
    <g clip-path="url(#p8de11dbf62)">
     <use xlink:href="#m35790bafe7" x="355.167155" y="128.363848" style="fill: #ffe4c4; stroke: #ffe4c4"/>
     <use xlink:href="#m35790bafe7" x="346.229549" y="111.290679" style="fill: #ffe4c4; stroke: #ffe4c4"/>
     <use xlink:href="#m35790bafe7" x="316.575113" y="123.926758" style="fill: #ffe4c4; stroke: #ffe4c4"/>
     <use xlink:href="#m35790bafe7" x="227.540063" y="124.573418" style="fill: #ffe4c4; stroke: #ffe4c4"/>
     <use xlink:href="#m35790bafe7" x="272.84957" y="118.666485" style="fill: #ffe4c4; stroke: #ffe4c4"/>
     <use xlink:href="#m35790bafe7" x="334.999846" y="121.799539" style="fill: #ffe4c4; stroke: #ffe4c4"/>
     <use xlink:href="#m35790bafe7" x="290.728385" y="124.675013" style="fill: #ffe4c4; stroke: #ffe4c4"/>
     <use xlink:href="#m35790bafe7" x="331.20289" y="155.142998" style="fill: #ffe4c4; stroke: #ffe4c4"/>
     <use xlink:href="#m35790bafe7" x="258.922901" y="114.529069" style="fill: #ffe4c4; stroke: #ffe4c4"/>
     <use xlink:href="#m35790bafe7" x="255.119745" y="129.489102" style="fill: #ffe4c4; stroke: #ffe4c4"/>
     <use xlink:href="#m35790bafe7" x="264.410454" y="163.35651" style="fill: #ffe4c4; stroke: #ffe4c4"/>
     <use xlink:href="#m35790bafe7" x="326.730952" y="106.21317" style="fill: #ffe4c4; stroke: #ffe4c4"/>
     <use xlink:href="#m35790bafe7" x="376.19196" y="74.279325" style="fill: #ffe4c4; stroke: #ffe4c4"/>
     <use xlink:href="#m35790bafe7" x="346.134671" y="123.353901" style="fill: #ffe4c4; stroke: #ffe4c4"/>
     <use xlink:href="#m35790bafe7" x="252.619145" y="142.694136" style="fill: #ffe4c4; stroke: #ffe4c4"/>
     <use xlink:href="#m35790bafe7" x="291.510917" y="187.181418" style="fill: #ffe4c4; stroke: #ffe4c4"/>
     <use xlink:href="#m35790bafe7" x="209.232968" y="148.093191" style="fill: #ffe4c4; stroke: #ffe4c4"/>
    </g>
   </g>
   <g id="PathCollection_10">
    <defs>
     <path id="m77d42a7745" d="M -2.99994 2.99994 
L 3.00006 2.99994 
L 3.00006 -3.00006 
L -2.99994 -3.00006 
z
" style="stroke: #000000"/>
    </defs>
    <g clip-path="url(#p8de11dbf62)">
     <use xlink:href="#m77d42a7745" x="172.953833" y="157.180058" style="stroke: #000000"/>
     <use xlink:href="#m77d42a7745" x="221.472744" y="172.125512" style="stroke: #000000"/>
     <use xlink:href="#m77d42a7745" x="219.171819" y="221.694021" style="stroke: #000000"/>
     <use xlink:href="#m77d42a7745" x="161.976496" y="122.016324" style="stroke: #000000"/>
     <use xlink:href="#m77d42a7745" x="130.769335" y="146.840653" style="stroke: #000000"/>
     <use xlink:href="#m77d42a7745" x="59.00148" y="107.701737" style="stroke: #000000"/>
     <use xlink:href="#m77d42a7745" x="165.250291" y="158.114596" style="stroke: #000000"/>
     <use xlink:href="#m77d42a7745" x="207.071634" y="230.040504" style="stroke: #000000"/>
     <use xlink:href="#m77d42a7745" x="209.732137" y="150.772171" style="stroke: #000000"/>
     <use xlink:href="#m77d42a7745" x="105.869736" y="127.687489" style="stroke: #000000"/>
     <use xlink:href="#m77d42a7745" x="135.405491" y="177.458561" style="stroke: #000000"/>
     <use xlink:href="#m77d42a7745" x="172.130909" y="162.977968" style="stroke: #000000"/>
     <use xlink:href="#m77d42a7745" x="199.253674" y="167.632611" style="stroke: #000000"/>
     <use xlink:href="#m77d42a7745" x="159.836792" y="167.808877" style="stroke: #000000"/>
     <use xlink:href="#m77d42a7745" x="85.217171" y="130.593978" style="stroke: #000000"/>
     <use xlink:href="#m77d42a7745" x="155.643366" y="163.969032" style="stroke: #000000"/>
     <use xlink:href="#m77d42a7745" x="67.171323" y="122.650081" style="stroke: #000000"/>
     <use xlink:href="#m77d42a7745" x="172.031219" y="163.334791" style="stroke: #000000"/>
     <use xlink:href="#m77d42a7745" x="153.529767" y="184.255322" style="stroke: #000000"/>
     <use xlink:href="#m77d42a7745" x="168.731349" y="180.930927" style="stroke: #000000"/>
     <use xlink:href="#m77d42a7745" x="155.1837" y="155.752625" style="stroke: #000000"/>
     <use xlink:href="#m77d42a7745" x="158.851911" y="164.684956" style="stroke: #000000"/>
     <use xlink:href="#m77d42a7745" x="137.237243" y="138.551549" style="stroke: #000000"/>
     <use xlink:href="#m77d42a7745" x="199.896485" y="187.312553" style="stroke: #000000"/>
     <use xlink:href="#m77d42a7745" x="149.707026" y="165.418943" style="stroke: #000000"/>
     <use xlink:href="#m77d42a7745" x="130.660315" y="141.777349" style="stroke: #000000"/>
     <use xlink:href="#m77d42a7745" x="180.848983" y="133.265262" style="stroke: #000000"/>
     <use xlink:href="#m77d42a7745" x="195.518645" y="179.557606" style="stroke: #000000"/>
     <use xlink:href="#m77d42a7745" x="174.022086" y="133.671026" style="stroke: #000000"/>
     <use xlink:href="#m77d42a7745" x="224.77252" y="173.555565" style="stroke: #000000"/>
     <use xlink:href="#m77d42a7745" x="161.304412" y="146.264147" style="stroke: #000000"/>
     <use xlink:href="#m77d42a7745" x="124.469141" y="142.053938" style="stroke: #000000"/>
     <use xlink:href="#m77d42a7745" x="144.357303" y="131.430395" style="stroke: #000000"/>
     <use xlink:href="#m77d42a7745" x="159.323066" y="143.95527" style="stroke: #000000"/>
     <use xlink:href="#m77d42a7745" x="152.775295" y="78.921546" style="stroke: #000000"/>
     <use xlink:href="#m77d42a7745" x="138.219448" y="149.990412" style="stroke: #000000"/>
     <use xlink:href="#m77d42a7745" x="152.327175" y="147.425115" style="stroke: #000000"/>
     <use xlink:href="#m77d42a7745" x="187.410364" y="167.446978" style="stroke: #000000"/>
     <use xlink:href="#m77d42a7745" x="219.097614" y="192.819187" style="stroke: #000000"/>
     <use xlink:href="#m77d42a7745" x="177.872131" y="177.099966" style="stroke: #000000"/>
     <use xlink:href="#m77d42a7745" x="167.642488" y="177.096965" style="stroke: #000000"/>
     <use xlink:href="#m77d42a7745" x="148.900039" y="133.441646" style="stroke: #000000"/>
     <use xlink:href="#m77d42a7745" x="51.537415" y="139.667907" style="stroke: #000000"/>
     <use xlink:href="#m77d42a7745" x="204.29465" y="210.249222" style="stroke: #000000"/>
     <use xlink:href="#m77d42a7745" x="121.902378" y="84.02015" style="stroke: #000000"/>
     <use xlink:href="#m77d42a7745" x="150.001342" y="136.22081" style="stroke: #000000"/>
     <use xlink:href="#m77d42a7745" x="217.738285" y="169.925568" style="stroke: #000000"/>
     <use xlink:href="#m77d42a7745" x="231.87794" y="194.994742" style="stroke: #000000"/>
     <use xlink:href="#m77d42a7745" x="149.612159" y="103.319301" style="stroke: #000000"/>
     <use xlink:href="#m77d42a7745" x="107.351817" y="168.914394" style="stroke: #000000"/>
     <use xlink:href="#m77d42a7745" x="231.030962" y="152.484405" style="stroke: #000000"/>
     <use xlink:href="#m77d42a7745" x="127.149487" y="145.02957" style="stroke: #000000"/>
     <use xlink:href="#m77d42a7745" x="127.432273" y="117.902432" style="stroke: #000000"/>
     <use xlink:href="#m77d42a7745" x="124.974654" y="88.724913" style="stroke: #000000"/>
     <use xlink:href="#m77d42a7745" x="179.68458" y="158.183728" style="stroke: #000000"/>
     <use xlink:href="#m77d42a7745" x="184.110442" y="137.488683" style="stroke: #000000"/>
     <use xlink:href="#m77d42a7745" x="116.591542" y="80.336262" style="stroke: #000000"/>
     <use xlink:href="#m77d42a7745" x="121.560608" y="168.832243" style="stroke: #000000"/>
     <use xlink:href="#m77d42a7745" x="119.138527" y="100.716259" style="stroke: #000000"/>
     <use xlink:href="#m77d42a7745" x="149.680408" y="149.095436" style="stroke: #000000"/>
     <use xlink:href="#m77d42a7745" x="176.641781" y="107.541998" style="stroke: #000000"/>
     <use xlink:href="#m77d42a7745" x="143.579913" y="229.163063" style="stroke: #000000"/>
     <use xlink:href="#m77d42a7745" x="80.45377" y="89.242845" style="stroke: #000000"/>
     <use xlink:href="#m77d42a7745" x="167.031356" y="199.607623" style="stroke: #000000"/>
    </g>
   </g>
   <g id="PathCollection_11">
    <defs>
     <path id="m304f25a466" d="M -3 -0 
L 3 3 
L 3 -3 
z
" style="stroke: #ff8c00"/>
    </defs>
    <g clip-path="url(#p8de11dbf62)">
     <use xlink:href="#m304f25a466" x="160.768345" y="140.896661" style="fill: #ff8c00; stroke: #ff8c00"/>
     <use xlink:href="#m304f25a466" x="222.059987" y="189.848919" style="fill: #ff8c00; stroke: #ff8c00"/>
     <use xlink:href="#m304f25a466" x="160.58618" y="185.466676" style="fill: #ff8c00; stroke: #ff8c00"/>
     <use xlink:href="#m304f25a466" x="184.581065" y="136.308016" style="fill: #ff8c00; stroke: #ff8c00"/>
     <use xlink:href="#m304f25a466" x="142.096607" y="151.557433" style="fill: #ff8c00; stroke: #ff8c00"/>
     <use xlink:href="#m304f25a466" x="158.125507" y="162.313417" style="fill: #ff8c00; stroke: #ff8c00"/>
     <use xlink:href="#m304f25a466" x="148.866501" y="149.782382" style="fill: #ff8c00; stroke: #ff8c00"/>
     <use xlink:href="#m304f25a466" x="212.018257" y="190.139299" style="fill: #ff8c00; stroke: #ff8c00"/>
     <use xlink:href="#m304f25a466" x="141.766418" y="118.813847" style="fill: #ff8c00; stroke: #ff8c00"/>
     <use xlink:href="#m304f25a466" x="161.578236" y="119.39221" style="fill: #ff8c00; stroke: #ff8c00"/>
     <use xlink:href="#m304f25a466" x="129.693586" y="154.315145" style="fill: #ff8c00; stroke: #ff8c00"/>
     <use xlink:href="#m304f25a466" x="153.327682" y="182.091639" style="fill: #ff8c00; stroke: #ff8c00"/>
     <use xlink:href="#m304f25a466" x="156.340085" y="112.113726" style="fill: #ff8c00; stroke: #ff8c00"/>
     <use xlink:href="#m304f25a466" x="177.701394" y="146.862369" style="fill: #ff8c00; stroke: #ff8c00"/>
     <use xlink:href="#m304f25a466" x="170.324114" y="132.27792" style="fill: #ff8c00; stroke: #ff8c00"/>
     <use xlink:href="#m304f25a466" x="125.943411" y="121.903125" style="fill: #ff8c00; stroke: #ff8c00"/>
     <use xlink:href="#m304f25a466" x="165.66912" y="138.752095" style="fill: #ff8c00; stroke: #ff8c00"/>
     <use xlink:href="#m304f25a466" x="149.229961" y="134.374306" style="fill: #ff8c00; stroke: #ff8c00"/>
     <use xlink:href="#m304f25a466" x="173.35607" y="167.224127" style="fill: #ff8c00; stroke: #ff8c00"/>
     <use xlink:href="#m304f25a466" x="189.142048" y="113.548145" style="fill: #ff8c00; stroke: #ff8c00"/>
     <use xlink:href="#m304f25a466" x="170.805422" y="175.512311" style="fill: #ff8c00; stroke: #ff8c00"/>
     <use xlink:href="#m304f25a466" x="162.961338" y="168.102889" style="fill: #ff8c00; stroke: #ff8c00"/>
     <use xlink:href="#m304f25a466" x="218.557508" y="182.826685" style="fill: #ff8c00; stroke: #ff8c00"/>
     <use xlink:href="#m304f25a466" x="150.098173" y="155.257016" style="fill: #ff8c00; stroke: #ff8c00"/>
     <use xlink:href="#m304f25a466" x="155.662275" y="154.060029" style="fill: #ff8c00; stroke: #ff8c00"/>
     <use xlink:href="#m304f25a466" x="148.839851" y="122.825105" style="fill: #ff8c00; stroke: #ff8c00"/>
     <use xlink:href="#m304f25a466" x="166.781776" y="171.789465" style="fill: #ff8c00; stroke: #ff8c00"/>
     <use xlink:href="#m304f25a466" x="195.10443" y="139.230008" style="fill: #ff8c00; stroke: #ff8c00"/>
     <use xlink:href="#m304f25a466" x="152.505762" y="156.825429" style="fill: #ff8c00; stroke: #ff8c00"/>
     <use xlink:href="#m304f25a466" x="131.495443" y="161.927167" style="fill: #ff8c00; stroke: #ff8c00"/>
     <use xlink:href="#m304f25a466" x="155.520278" y="110.71111" style="fill: #ff8c00; stroke: #ff8c00"/>
     <use xlink:href="#m304f25a466" x="214.698749" y="170.439307" style="fill: #ff8c00; stroke: #ff8c00"/>
     <use xlink:href="#m304f25a466" x="222.914126" y="236.723739" style="fill: #ff8c00; stroke: #ff8c00"/>
     <use xlink:href="#m304f25a466" x="186.767763" y="174.409138" style="fill: #ff8c00; stroke: #ff8c00"/>
     <use xlink:href="#m304f25a466" x="165.593485" y="172.085703" style="fill: #ff8c00; stroke: #ff8c00"/>
     <use xlink:href="#m304f25a466" x="174.82481" y="136.63302" style="fill: #ff8c00; stroke: #ff8c00"/>
     <use xlink:href="#m304f25a466" x="169.443245" y="141.130117" style="fill: #ff8c00; stroke: #ff8c00"/>
     <use xlink:href="#m304f25a466" x="180.246556" y="160.99861" style="fill: #ff8c00; stroke: #ff8c00"/>
     <use xlink:href="#m304f25a466" x="143.051088" y="145.672577" style="fill: #ff8c00; stroke: #ff8c00"/>
     <use xlink:href="#m304f25a466" x="204.832054" y="169.853921" style="fill: #ff8c00; stroke: #ff8c00"/>
     <use xlink:href="#m304f25a466" x="145.520098" y="157.948331" style="fill: #ff8c00; stroke: #ff8c00"/>
     <use xlink:href="#m304f25a466" x="185.714466" y="177.704008" style="fill: #ff8c00; stroke: #ff8c00"/>
     <use xlink:href="#m304f25a466" x="126.200367" y="131.211296" style="fill: #ff8c00; stroke: #ff8c00"/>
     <use xlink:href="#m304f25a466" x="174.012178" y="140.562195" style="fill: #ff8c00; stroke: #ff8c00"/>
     <use xlink:href="#m304f25a466" x="170.722019" y="136.139932" style="fill: #ff8c00; stroke: #ff8c00"/>
     <use xlink:href="#m304f25a466" x="168.953419" y="132.975919" style="fill: #ff8c00; stroke: #ff8c00"/>
     <use xlink:href="#m304f25a466" x="238.197477" y="233.516973" style="fill: #ff8c00; stroke: #ff8c00"/>
     <use xlink:href="#m304f25a466" x="203.34896" y="185.337383" style="fill: #ff8c00; stroke: #ff8c00"/>
     <use xlink:href="#m304f25a466" x="149.65141" y="157.367545" style="fill: #ff8c00; stroke: #ff8c00"/>
     <use xlink:href="#m304f25a466" x="164.258198" y="112.032611" style="fill: #ff8c00; stroke: #ff8c00"/>
     <use xlink:href="#m304f25a466" x="126.915356" y="143.049903" style="fill: #ff8c00; stroke: #ff8c00"/>
     <use xlink:href="#m304f25a466" x="132.000174" y="144.327512" style="fill: #ff8c00; stroke: #ff8c00"/>
     <use xlink:href="#m304f25a466" x="162.714328" y="175.488999" style="fill: #ff8c00; stroke: #ff8c00"/>
     <use xlink:href="#m304f25a466" x="196.896714" y="146.989503" style="fill: #ff8c00; stroke: #ff8c00"/>
     <use xlink:href="#m304f25a466" x="170.185023" y="175.222951" style="fill: #ff8c00; stroke: #ff8c00"/>
     <use xlink:href="#m304f25a466" x="140.867285" y="124.468511" style="fill: #ff8c00; stroke: #ff8c00"/>
     <use xlink:href="#m304f25a466" x="152.282904" y="154.641881" style="fill: #ff8c00; stroke: #ff8c00"/>
     <use xlink:href="#m304f25a466" x="158.323828" y="134.764202" style="fill: #ff8c00; stroke: #ff8c00"/>
     <use xlink:href="#m304f25a466" x="128.213685" y="164.447752" style="fill: #ff8c00; stroke: #ff8c00"/>
     <use xlink:href="#m304f25a466" x="133.812338" y="134.421429" style="fill: #ff8c00; stroke: #ff8c00"/>
     <use xlink:href="#m304f25a466" x="135.95187" y="164.314117" style="fill: #ff8c00; stroke: #ff8c00"/>
     <use xlink:href="#m304f25a466" x="181.418573" y="163.18961" style="fill: #ff8c00; stroke: #ff8c00"/>
     <use xlink:href="#m304f25a466" x="152.509633" y="125.674712" style="fill: #ff8c00; stroke: #ff8c00"/>
     <use xlink:href="#m304f25a466" x="172.009771" y="145.318399" style="fill: #ff8c00; stroke: #ff8c00"/>
    </g>
   </g>
   <g id="matplotlib.axis_1">
    <g id="xtick_1">
     <g id="line2d_1">
      <defs>
       <path id="mcc29ea02de" d="M 0 0 
L 0 3.5 
" style="stroke: #000000; stroke-width: 0.8"/>
      </defs>
      <g>
       <use xlink:href="#mcc29ea02de" x="63.186638" y="273.312" style="stroke: #000000; stroke-width: 0.8"/>
      </g>
     </g>
     <g id="text_1">
      <!-- −20 -->
      <g transform="translate(52.634294 287.910437) scale(0.1 -0.1)">
       <defs>
        <path id="DejaVuSans-2212" d="M 678 2272 
L 4684 2272 
L 4684 1741 
L 678 1741 
L 678 2272 
z
" transform="scale(0.015625)"/>
        <path id="DejaVuSans-32" d="M 1228 531 
L 3431 531 
L 3431 0 
L 469 0 
L 469 531 
Q 828 903 1448 1529 
Q 2069 2156 2228 2338 
Q 2531 2678 2651 2914 
Q 2772 3150 2772 3378 
Q 2772 3750 2511 3984 
Q 2250 4219 1831 4219 
Q 1534 4219 1204 4116 
Q 875 4013 500 3803 
L 500 4441 
Q 881 4594 1212 4672 
Q 1544 4750 1819 4750 
Q 2544 4750 2975 4387 
Q 3406 4025 3406 3419 
Q 3406 3131 3298 2873 
Q 3191 2616 2906 2266 
Q 2828 2175 2409 1742 
Q 1991 1309 1228 531 
z
" transform="scale(0.015625)"/>
        <path id="DejaVuSans-30" d="M 2034 4250 
Q 1547 4250 1301 3770 
Q 1056 3291 1056 2328 
Q 1056 1369 1301 889 
Q 1547 409 2034 409 
Q 2525 409 2770 889 
Q 3016 1369 3016 2328 
Q 3016 3291 2770 3770 
Q 2525 4250 2034 4250 
z
M 2034 4750 
Q 2819 4750 3233 4129 
Q 3647 3509 3647 2328 
Q 3647 1150 3233 529 
Q 2819 -91 2034 -91 
Q 1250 -91 836 529 
Q 422 1150 422 2328 
Q 422 3509 836 4129 
Q 1250 4750 2034 4750 
z
" transform="scale(0.015625)"/>
       </defs>
       <use xlink:href="#DejaVuSans-2212"/>
       <use xlink:href="#DejaVuSans-32" x="83.789062"/>
       <use xlink:href="#DejaVuSans-30" x="147.412109"/>
      </g>
     </g>
    </g>
    <g id="xtick_2">
     <g id="line2d_2">
      <g>
       <use xlink:href="#mcc29ea02de" x="125.334982" y="273.312" style="stroke: #000000; stroke-width: 0.8"/>
      </g>
     </g>
     <g id="text_2">
      <!-- −10 -->
      <g transform="translate(114.782638 287.910437) scale(0.1 -0.1)">
       <defs>
        <path id="DejaVuSans-31" d="M 794 531 
L 1825 531 
L 1825 4091 
L 703 3866 
L 703 4441 
L 1819 4666 
L 2450 4666 
L 2450 531 
L 3481 531 
L 3481 0 
L 794 0 
L 794 531 
z
" transform="scale(0.015625)"/>
       </defs>
       <use xlink:href="#DejaVuSans-2212"/>
       <use xlink:href="#DejaVuSans-31" x="83.789062"/>
       <use xlink:href="#DejaVuSans-30" x="147.412109"/>
      </g>
     </g>
    </g>
    <g id="xtick_3">
     <g id="line2d_3">
      <g>
       <use xlink:href="#mcc29ea02de" x="187.483326" y="273.312" style="stroke: #000000; stroke-width: 0.8"/>
      </g>
     </g>
     <g id="text_3">
      <!-- 0 -->
      <g transform="translate(184.302076 287.910437) scale(0.1 -0.1)">
       <use xlink:href="#DejaVuSans-30"/>
      </g>
     </g>
    </g>
    <g id="xtick_4">
     <g id="line2d_4">
      <g>
       <use xlink:href="#mcc29ea02de" x="249.631671" y="273.312" style="stroke: #000000; stroke-width: 0.8"/>
      </g>
     </g>
     <g id="text_4">
      <!-- 10 -->
      <g transform="translate(243.269171 287.910437) scale(0.1 -0.1)">
       <use xlink:href="#DejaVuSans-31"/>
       <use xlink:href="#DejaVuSans-30" x="63.623047"/>
      </g>
     </g>
    </g>
    <g id="xtick_5">
     <g id="line2d_5">
      <g>
       <use xlink:href="#mcc29ea02de" x="311.780015" y="273.312" style="stroke: #000000; stroke-width: 0.8"/>
      </g>
     </g>
     <g id="text_5">
      <!-- 20 -->
      <g transform="translate(305.417515 287.910437) scale(0.1 -0.1)">
       <use xlink:href="#DejaVuSans-32"/>
       <use xlink:href="#DejaVuSans-30" x="63.623047"/>
      </g>
     </g>
    </g>
    <g id="xtick_6">
     <g id="line2d_6">
      <g>
       <use xlink:href="#mcc29ea02de" x="373.92836" y="273.312" style="stroke: #000000; stroke-width: 0.8"/>
      </g>
     </g>
     <g id="text_6">
      <!-- 30 -->
      <g transform="translate(367.56586 287.910437) scale(0.1 -0.1)">
       <defs>
        <path id="DejaVuSans-33" d="M 2597 2516 
Q 3050 2419 3304 2112 
Q 3559 1806 3559 1356 
Q 3559 666 3084 287 
Q 2609 -91 1734 -91 
Q 1441 -91 1130 -33 
Q 819 25 488 141 
L 488 750 
Q 750 597 1062 519 
Q 1375 441 1716 441 
Q 2309 441 2620 675 
Q 2931 909 2931 1356 
Q 2931 1769 2642 2001 
Q 2353 2234 1838 2234 
L 1294 2234 
L 1294 2753 
L 1863 2753 
Q 2328 2753 2575 2939 
Q 2822 3125 2822 3475 
Q 2822 3834 2567 4026 
Q 2313 4219 1838 4219 
Q 1578 4219 1281 4162 
Q 984 4106 628 3988 
L 628 4550 
Q 988 4650 1302 4700 
Q 1616 4750 1894 4750 
Q 2613 4750 3031 4423 
Q 3450 4097 3450 3541 
Q 3450 3153 3228 2886 
Q 3006 2619 2597 2516 
z
" transform="scale(0.015625)"/>
       </defs>
       <use xlink:href="#DejaVuSans-33"/>
       <use xlink:href="#DejaVuSans-30" x="63.623047"/>
      </g>
     </g>
    </g>
   </g>
   <g id="matplotlib.axis_2">
    <g id="ytick_1">
     <g id="line2d_7">
      <defs>
       <path id="m81849e8041" d="M 0 0 
L -3.5 0 
" style="stroke: #000000; stroke-width: 0.8"/>
      </defs>
      <g>
       <use xlink:href="#m81849e8041" x="35.304688" y="243.163359" style="stroke: #000000; stroke-width: 0.8"/>
      </g>
     </g>
     <g id="text_7">
      <!-- −20 -->
      <g transform="translate(7.2 246.962578) scale(0.1 -0.1)">
       <use xlink:href="#DejaVuSans-2212"/>
       <use xlink:href="#DejaVuSans-32" x="83.789062"/>
       <use xlink:href="#DejaVuSans-30" x="147.412109"/>
      </g>
     </g>
    </g>
    <g id="ytick_2">
     <g id="line2d_8">
      <g>
       <use xlink:href="#m81849e8041" x="35.304688" y="199.214353" style="stroke: #000000; stroke-width: 0.8"/>
      </g>
     </g>
     <g id="text_8">
      <!-- −10 -->
      <g transform="translate(7.2 203.013572) scale(0.1 -0.1)">
       <use xlink:href="#DejaVuSans-2212"/>
       <use xlink:href="#DejaVuSans-31" x="83.789062"/>
       <use xlink:href="#DejaVuSans-30" x="147.412109"/>
      </g>
     </g>
    </g>
    <g id="ytick_3">
     <g id="line2d_9">
      <g>
       <use xlink:href="#m81849e8041" x="35.304688" y="155.265348" style="stroke: #000000; stroke-width: 0.8"/>
      </g>
     </g>
     <g id="text_9">
      <!-- 0 -->
      <g transform="translate(21.942187 159.064567) scale(0.1 -0.1)">
       <use xlink:href="#DejaVuSans-30"/>
      </g>
     </g>
    </g>
    <g id="ytick_4">
     <g id="line2d_10">
      <g>
       <use xlink:href="#m81849e8041" x="35.304688" y="111.316343" style="stroke: #000000; stroke-width: 0.8"/>
      </g>
     </g>
     <g id="text_10">
      <!-- 10 -->
      <g transform="translate(15.579687 115.115561) scale(0.1 -0.1)">
       <use xlink:href="#DejaVuSans-31"/>
       <use xlink:href="#DejaVuSans-30" x="63.623047"/>
      </g>
     </g>
    </g>
    <g id="ytick_5">
     <g id="line2d_11">
      <g>
       <use xlink:href="#m81849e8041" x="35.304688" y="67.367337" style="stroke: #000000; stroke-width: 0.8"/>
      </g>
     </g>
     <g id="text_11">
      <!-- 20 -->
      <g transform="translate(15.579687 71.166556) scale(0.1 -0.1)">
       <use xlink:href="#DejaVuSans-32"/>
       <use xlink:href="#DejaVuSans-30" x="63.623047"/>
      </g>
     </g>
    </g>
    <g id="ytick_6">
     <g id="line2d_12">
      <g>
       <use xlink:href="#m81849e8041" x="35.304688" y="23.418332" style="stroke: #000000; stroke-width: 0.8"/>
      </g>
     </g>
     <g id="text_12">
      <!-- 30 -->
      <g transform="translate(15.579687 27.21755) scale(0.1 -0.1)">
       <use xlink:href="#DejaVuSans-33"/>
       <use xlink:href="#DejaVuSans-30" x="63.623047"/>
      </g>
     </g>
    </g>
   </g>
   <g id="patch_3">
    <path d="M 35.304688 273.312 
L 35.304688 7.2 
" style="fill: none; stroke: #000000; stroke-width: 0.8; stroke-linejoin: miter; stroke-linecap: square"/>
   </g>
   <g id="patch_4">
    <path d="M 392.424688 273.312 
L 392.424688 7.2 
" style="fill: none; stroke: #000000; stroke-width: 0.8; stroke-linejoin: miter; stroke-linecap: square"/>
   </g>
   <g id="patch_5">
    <path d="M 35.304687 273.312 
L 392.424688 273.312 
" style="fill: none; stroke: #000000; stroke-width: 0.8; stroke-linejoin: miter; stroke-linecap: square"/>
   </g>
   <g id="patch_6">
    <path d="M 35.304687 7.2 
L 392.424688 7.2 
" style="fill: none; stroke: #000000; stroke-width: 0.8; stroke-linejoin: miter; stroke-linecap: square"/>
   </g>
  </g>
 </g>
 <defs>
  <clipPath id="p8de11dbf62">
   <rect x="35.304688" y="7.2" width="357.12" height="266.112"/>
  </clipPath>
 </defs>
</svg>
