<?xml version="1.0" encoding="utf-8" standalone="no"?>
<!DOCTYPE svg PUBLIC "-//W3C//DTD SVG 1.1//EN"
  "http://www.w3.org/Graphics/SVG/1.1/DTD/svg11.dtd">
<svg xmlns:xlink="http://www.w3.org/1999/xlink" width="399.624687pt" height="297.190125pt" viewBox="0 0 399.624687 297.190125" xmlns="http://www.w3.org/2000/svg" version="1.1">
 <metadata>
  <rdf:RDF xmlns:dc="http://purl.org/dc/elements/1.1/" xmlns:cc="http://creativecommons.org/ns#" xmlns:rdf="http://www.w3.org/1999/02/22-rdf-syntax-ns#">
   <cc:Work>
    <dc:type rdf:resource="http://purl.org/dc/dcmitype/StillImage"/>
    <dc:date>2023-11-12T00:40:08.729151</dc:date>
    <dc:format>image/svg+xml</dc:format>
    <dc:creator>
     <cc:Agent>
      <dc:title>Matplotlib v3.8.0, https://matplotlib.org/</dc:title>
     </cc:Agent>
    </dc:creator>
   </cc:Work>
  </rdf:RDF>
 </metadata>
 <defs>
  <style type="text/css">*{stroke-linejoin: round; stroke-linecap: butt}</style>
 </defs>
 <g id="figure_1">
  <g id="patch_1">
   <path d="M 0 297.190125 
L 399.624687 297.190125 
L 399.624687 0 
L 0 0 
z
" style="fill: #ffffff"/>
  </g>
  <g id="axes_1">
   <g id="patch_2">
    <path d="M 35.304688 273.312 
L 392.424688 273.312 
L 392.424688 7.2 
L 35.304688 7.2 
z
" style="fill: #ffffff"/>
   </g>
   <g id="PathCollection_1">
    <defs>
     <path id="mbd0d17fb4c" d="M 0 1.5 
C 0.397805 1.5 0.77937 1.341951 1.06066 1.06066 
C 1.341951 0.77937 1.5 0.397805 1.5 0 
C 1.5 -0.397805 1.341951 -0.77937 1.06066 -1.06066 
C 0.77937 -1.341951 0.397805 -1.5 0 -1.5 
C -0.397805 -1.5 -0.77937 -1.341951 -1.06066 -1.06066 
C -1.341951 -0.77937 -1.5 -0.397805 -1.5 0 
C -1.5 0.397805 -1.341951 0.77937 -1.06066 1.06066 
C -0.77937 1.341951 -0.397805 1.5 0 1.5 
z
" style="stroke: #ff8c00"/>
    </defs>
    <g clip-path="url(#pce077324e7)">
     <use xlink:href="#mbd0d17fb4c" x="142.057313" y="177.187455" style="fill: #ff8c00; stroke: #ff8c00"/>
     <use xlink:href="#mbd0d17fb4c" x="175.836606" y="235.334726" style="fill: #ff8c00; stroke: #ff8c00"/>
     <use xlink:href="#mbd0d17fb4c" x="113.958086" y="231.598664" style="fill: #ff8c00; stroke: #ff8c00"/>
     <use xlink:href="#mbd0d17fb4c" x="95.809467" y="239.230585" style="fill: #ff8c00; stroke: #ff8c00"/>
     <use xlink:href="#mbd0d17fb4c" x="82.939582" y="233.603831" style="fill: #ff8c00; stroke: #ff8c00"/>
     <use xlink:href="#mbd0d17fb4c" x="82.220167" y="249.257742" style="fill: #ff8c00; stroke: #ff8c00"/>
     <use xlink:href="#mbd0d17fb4c" x="221.456641" y="203.242216" style="fill: #ff8c00; stroke: #ff8c00"/>
     <use xlink:href="#mbd0d17fb4c" x="115.033946" y="248.972865" style="fill: #ff8c00; stroke: #ff8c00"/>
     <use xlink:href="#mbd0d17fb4c" x="103.877202" y="213.480941" style="fill: #ff8c00; stroke: #ff8c00"/>
     <use xlink:href="#mbd0d17fb4c" x="143.860097" y="203.271532" style="fill: #ff8c00; stroke: #ff8c00"/>
    </g>
   </g>
   <g id="PathCollection_2">
    <defs>
     <path id="mb3b61e5805" d="M 0 1.5 
C 0.397805 1.5 0.77937 1.341951 1.06066 1.06066 
C 1.341951 0.77937 1.5 0.397805 1.5 0 
C 1.5 -0.397805 1.341951 -0.77937 1.06066 -1.06066 
C 0.77937 -1.341951 0.397805 -1.5 0 -1.5 
C -0.397805 -1.5 -0.77937 -1.341951 -1.06066 -1.06066 
C -1.341951 -0.77937 -1.5 -0.397805 -1.5 0 
C -1.5 0.397805 -1.341951 0.77937 -1.06066 1.06066 
C -0.77937 1.341951 -0.397805 1.5 0 1.5 
z
" style="stroke: #006400"/>
    </defs>
    <g clip-path="url(#pce077324e7)">
     <use xlink:href="#mb3b61e5805" x="100.96544" y="116.9383" style="fill: #006400; stroke: #006400"/>
     <use xlink:href="#mb3b61e5805" x="105.728559" y="125.312888" style="fill: #006400; stroke: #006400"/>
     <use xlink:href="#mb3b61e5805" x="129.89508" y="19.296" style="fill: #006400; stroke: #006400"/>
     <use xlink:href="#mb3b61e5805" x="162.878703" y="140.338223" style="fill: #006400; stroke: #006400"/>
     <use xlink:href="#mb3b61e5805" x="144.71703" y="126.651401" style="fill: #006400; stroke: #006400"/>
     <use xlink:href="#mb3b61e5805" x="109.173101" y="147.430416" style="fill: #006400; stroke: #006400"/>
     <use xlink:href="#mb3b61e5805" x="96.591845" y="216.093824" style="fill: #006400; stroke: #006400"/>
     <use xlink:href="#mb3b61e5805" x="116.035307" y="118.812766" style="fill: #006400; stroke: #006400"/>
     <use xlink:href="#mb3b61e5805" x="89.925901" y="115.134345" style="fill: #006400; stroke: #006400"/>
     <use xlink:href="#mb3b61e5805" x="167.292777" y="129.796446" style="fill: #006400; stroke: #006400"/>
     <use xlink:href="#mb3b61e5805" x="92.199436" y="105.002229" style="fill: #006400; stroke: #006400"/>
     <use xlink:href="#mb3b61e5805" x="141.098881" y="58.164825" style="fill: #006400; stroke: #006400"/>
     <use xlink:href="#mb3b61e5805" x="133.942018" y="92.541476" style="fill: #006400; stroke: #006400"/>
     <use xlink:href="#mb3b61e5805" x="101.395365" y="118.613433" style="fill: #006400; stroke: #006400"/>
     <use xlink:href="#mb3b61e5805" x="99.10462" y="175.519626" style="fill: #006400; stroke: #006400"/>
     <use xlink:href="#mb3b61e5805" x="100.981999" y="75.92027" style="fill: #006400; stroke: #006400"/>
     <use xlink:href="#mb3b61e5805" x="133.68837" y="68.490641" style="fill: #006400; stroke: #006400"/>
     <use xlink:href="#mb3b61e5805" x="110.550224" y="132.527455" style="fill: #006400; stroke: #006400"/>
     <use xlink:href="#mb3b61e5805" x="136.947211" y="104.22142" style="fill: #006400; stroke: #006400"/>
     <use xlink:href="#mb3b61e5805" x="91.598789" y="71.5339" style="fill: #006400; stroke: #006400"/>
     <use xlink:href="#mb3b61e5805" x="51.537415" y="75.206698" style="fill: #006400; stroke: #006400"/>
     <use xlink:href="#mb3b61e5805" x="138.649904" y="115.925313" style="fill: #006400; stroke: #006400"/>
    </g>
   </g>
   <g id="PathCollection_3">
    <defs>
     <path id="mc9e7d53130" d="M 0 1.5 
C 0.397805 1.5 0.77937 1.341951 1.06066 1.06066 
C 1.341951 0.77937 1.5 0.397805 1.5 0 
C 1.5 -0.397805 1.341951 -0.77937 1.06066 -1.06066 
C 0.77937 -1.341951 0.397805 -1.5 0 -1.5 
C -0.397805 -1.5 -0.77937 -1.341951 -1.06066 -1.06066 
C -1.341951 -0.77937 -1.5 -0.397805 -1.5 0 
C -1.5 0.397805 -1.341951 0.77937 -1.06066 1.06066 
C -0.77937 1.341951 -0.397805 1.5 0 1.5 
z
" style="stroke: #2f4f4f"/>
    </defs>
    <g clip-path="url(#pce077324e7)">
     <use xlink:href="#mc9e7d53130" x="139.985729" y="214.054964" style="fill: #2f4f4f; stroke: #2f4f4f"/>
     <use xlink:href="#mc9e7d53130" x="138.948495" y="211.354772" style="fill: #2f4f4f; stroke: #2f4f4f"/>
     <use xlink:href="#mc9e7d53130" x="215.809351" y="235.402337" style="fill: #2f4f4f; stroke: #2f4f4f"/>
     <use xlink:href="#mc9e7d53130" x="159.833839" y="253.479978" style="fill: #2f4f4f; stroke: #2f4f4f"/>
     <use xlink:href="#mc9e7d53130" x="88.823249" y="261.216" style="fill: #2f4f4f; stroke: #2f4f4f"/>
     <use xlink:href="#mc9e7d53130" x="206.450801" y="211.498316" style="fill: #2f4f4f; stroke: #2f4f4f"/>
     <use xlink:href="#mc9e7d53130" x="85.4368" y="249.372628" style="fill: #2f4f4f; stroke: #2f4f4f"/>
     <use xlink:href="#mc9e7d53130" x="204.297579" y="232.529475" style="fill: #2f4f4f; stroke: #2f4f4f"/>
     <use xlink:href="#mc9e7d53130" x="217.02295" y="216.169869" style="fill: #2f4f4f; stroke: #2f4f4f"/>
     <use xlink:href="#mc9e7d53130" x="279.2326" y="210.636205" style="fill: #2f4f4f; stroke: #2f4f4f"/>
     <use xlink:href="#mc9e7d53130" x="106.257171" y="221.923412" style="fill: #2f4f4f; stroke: #2f4f4f"/>
     <use xlink:href="#mc9e7d53130" x="134.760079" y="247.246489" style="fill: #2f4f4f; stroke: #2f4f4f"/>
    </g>
   </g>
   <g id="PathCollection_4">
    <defs>
     <path id="m4f2802a92c" d="M 0 1.5 
C 0.397805 1.5 0.77937 1.341951 1.06066 1.06066 
C 1.341951 0.77937 1.5 0.397805 1.5 0 
C 1.5 -0.397805 1.341951 -0.77937 1.06066 -1.06066 
C 0.77937 -1.341951 0.397805 -1.5 0 -1.5 
C -0.397805 -1.5 -0.77937 -1.341951 -1.06066 -1.06066 
C -1.341951 -0.77937 -1.5 -0.397805 -1.5 0 
C -1.5 0.397805 -1.341951 0.77937 -1.06066 1.06066 
C -0.77937 1.341951 -0.397805 1.5 0 1.5 
z
" style="stroke: #00bfff"/>
    </defs>
    <g clip-path="url(#pce077324e7)">
     <use xlink:href="#m4f2802a92c" x="135.020007" y="255.608216" style="fill: #00bfff; stroke: #00bfff"/>
     <use xlink:href="#m4f2802a92c" x="140.242559" y="224.240927" style="fill: #00bfff; stroke: #00bfff"/>
     <use xlink:href="#m4f2802a92c" x="156.144609" y="164.7703" style="fill: #00bfff; stroke: #00bfff"/>
     <use xlink:href="#m4f2802a92c" x="101.852009" y="239.616924" style="fill: #00bfff; stroke: #00bfff"/>
     <use xlink:href="#m4f2802a92c" x="167.475532" y="232.901982" style="fill: #00bfff; stroke: #00bfff"/>
     <use xlink:href="#m4f2802a92c" x="108.873616" y="237.321435" style="fill: #00bfff; stroke: #00bfff"/>
     <use xlink:href="#m4f2802a92c" x="140.450468" y="216.175224" style="fill: #00bfff; stroke: #00bfff"/>
     <use xlink:href="#m4f2802a92c" x="187.50274" y="218.033826" style="fill: #00bfff; stroke: #00bfff"/>
     <use xlink:href="#m4f2802a92c" x="142.426911" y="223.17881" style="fill: #00bfff; stroke: #00bfff"/>
     <use xlink:href="#m4f2802a92c" x="92.058372" y="225.060364" style="fill: #00bfff; stroke: #00bfff"/>
    </g>
   </g>
   <g id="PathCollection_5">
    <defs>
     <path id="mb37849aed4" d="M 0 1.5 
C 0.397805 1.5 0.77937 1.341951 1.06066 1.06066 
C 1.341951 0.77937 1.5 0.397805 1.5 0 
C 1.5 -0.397805 1.341951 -0.77937 1.06066 -1.06066 
C 0.77937 -1.341951 0.397805 -1.5 0 -1.5 
C -0.397805 -1.5 -0.77937 -1.341951 -1.06066 -1.06066 
C -1.341951 -0.77937 -1.5 -0.397805 -1.5 0 
C -1.5 0.397805 -1.341951 0.77937 -1.06066 1.06066 
C -0.77937 1.341951 -0.397805 1.5 0 1.5 
z
" style="stroke: #ffff00"/>
    </defs>
    <g clip-path="url(#pce077324e7)">
     <use xlink:href="#mb37849aed4" x="239.451298" y="228.191179" style="fill: #ffff00; stroke: #ffff00"/>
     <use xlink:href="#mb37849aed4" x="131.524384" y="241.624655" style="fill: #ffff00; stroke: #ffff00"/>
     <use xlink:href="#mb37849aed4" x="183.331158" y="246.761977" style="fill: #ffff00; stroke: #ffff00"/>
     <use xlink:href="#mb37849aed4" x="187.059586" y="229.9025" style="fill: #ffff00; stroke: #ffff00"/>
     <use xlink:href="#mb37849aed4" x="103.544588" y="238.280336" style="fill: #ffff00; stroke: #ffff00"/>
     <use xlink:href="#mb37849aed4" x="193.322773" y="189.026192" style="fill: #ffff00; stroke: #ffff00"/>
     <use xlink:href="#mb37849aed4" x="208.93602" y="228.603148" style="fill: #ffff00; stroke: #ffff00"/>
     <use xlink:href="#mb37849aed4" x="130.269013" y="241.308175" style="fill: #ffff00; stroke: #ffff00"/>
     <use xlink:href="#mb37849aed4" x="204.948828" y="232.499805" style="fill: #ffff00; stroke: #ffff00"/>
     <use xlink:href="#mb37849aed4" x="211.601069" y="194.069519" style="fill: #ffff00; stroke: #ffff00"/>
     <use xlink:href="#mb37849aed4" x="279.930824" y="221.365993" style="fill: #ffff00; stroke: #ffff00"/>
     <use xlink:href="#mb37849aed4" x="179.852026" y="197.096875" style="fill: #ffff00; stroke: #ffff00"/>
     <use xlink:href="#mb37849aed4" x="160.228918" y="241.414015" style="fill: #ffff00; stroke: #ffff00"/>
     <use xlink:href="#mb37849aed4" x="192.077791" y="223.371833" style="fill: #ffff00; stroke: #ffff00"/>
     <use xlink:href="#mb37849aed4" x="215.165078" y="230.920026" style="fill: #ffff00; stroke: #ffff00"/>
     <use xlink:href="#mb37849aed4" x="103.205743" y="219.764604" style="fill: #ffff00; stroke: #ffff00"/>
    </g>
   </g>
   <g id="PathCollection_6">
    <defs>
     <path id="m15b967cfba" d="M 0 1.5 
C 0.397805 1.5 0.77937 1.341951 1.06066 1.06066 
C 1.341951 0.77937 1.5 0.397805 1.5 0 
C 1.5 -0.397805 1.341951 -0.77937 1.06066 -1.06066 
C 0.77937 -1.341951 0.397805 -1.5 0 -1.5 
C -0.397805 -1.5 -0.77937 -1.341951 -1.06066 -1.06066 
C -1.341951 -0.77937 -1.5 -0.397805 -1.5 0 
C -1.5 0.397805 -1.341951 0.77937 -1.06066 1.06066 
C -0.77937 1.341951 -0.397805 1.5 0 1.5 
z
" style="stroke: #00ffff"/>
    </defs>
    <g clip-path="url(#pce077324e7)">
     <use xlink:href="#m15b967cfba" x="153.587078" y="252.753842" style="fill: #00ffff; stroke: #00ffff"/>
     <use xlink:href="#m15b967cfba" x="108.095655" y="203.589621" style="fill: #00ffff; stroke: #00ffff"/>
     <use xlink:href="#m15b967cfba" x="191.825542" y="235.784522" style="fill: #00ffff; stroke: #00ffff"/>
     <use xlink:href="#m15b967cfba" x="118.737747" y="251.57248" style="fill: #00ffff; stroke: #00ffff"/>
     <use xlink:href="#m15b967cfba" x="110.875268" y="247.278439" style="fill: #00ffff; stroke: #00ffff"/>
     <use xlink:href="#m15b967cfba" x="126.181498" y="233.495206" style="fill: #00ffff; stroke: #00ffff"/>
     <use xlink:href="#m15b967cfba" x="170.578317" y="244.587888" style="fill: #00ffff; stroke: #00ffff"/>
     <use xlink:href="#m15b967cfba" x="138.962766" y="225.612599" style="fill: #00ffff; stroke: #00ffff"/>
     <use xlink:href="#m15b967cfba" x="148.724748" y="232.696943" style="fill: #00ffff; stroke: #00ffff"/>
     <use xlink:href="#m15b967cfba" x="274.000441" y="217.355419" style="fill: #00ffff; stroke: #00ffff"/>
     <use xlink:href="#m15b967cfba" x="98.433659" y="240.647619" style="fill: #00ffff; stroke: #00ffff"/>
     <use xlink:href="#m15b967cfba" x="155.529705" y="242.168693" style="fill: #00ffff; stroke: #00ffff"/>
     <use xlink:href="#m15b967cfba" x="123.729823" y="251.646556" style="fill: #00ffff; stroke: #00ffff"/>
     <use xlink:href="#m15b967cfba" x="150.465917" y="222.153659" style="fill: #00ffff; stroke: #00ffff"/>
     <use xlink:href="#m15b967cfba" x="128.700457" y="236.845586" style="fill: #00ffff; stroke: #00ffff"/>
     <use xlink:href="#m15b967cfba" x="140.589182" y="199.502431" style="fill: #00ffff; stroke: #00ffff"/>
     <use xlink:href="#m15b967cfba" x="92.76603" y="235.639997" style="fill: #00ffff; stroke: #00ffff"/>
     <use xlink:href="#m15b967cfba" x="151.266352" y="241.829568" style="fill: #00ffff; stroke: #00ffff"/>
    </g>
   </g>
   <g id="PathCollection_7">
    <defs>
     <path id="m9649700adc" d="M 0 1.5 
C 0.397805 1.5 0.77937 1.341951 1.06066 1.06066 
C 1.341951 0.77937 1.5 0.397805 1.5 0 
C 1.5 -0.397805 1.341951 -0.77937 1.06066 -1.06066 
C 0.77937 -1.341951 0.397805 -1.5 0 -1.5 
C -0.397805 -1.5 -0.77937 -1.341951 -1.06066 -1.06066 
C -1.341951 -0.77937 -1.5 -0.397805 -1.5 0 
C -1.5 0.397805 -1.341951 0.77937 -1.06066 1.06066 
C -0.77937 1.341951 -0.397805 1.5 0 1.5 
z
" style="stroke: #0000ff"/>
    </defs>
    <g clip-path="url(#pce077324e7)">
     <use xlink:href="#m9649700adc" x="115.47424" y="225.957314" style="fill: #0000ff; stroke: #0000ff"/>
     <use xlink:href="#m9649700adc" x="169.10672" y="243.179347" style="fill: #0000ff; stroke: #0000ff"/>
     <use xlink:href="#m9649700adc" x="144.7172" y="199.516987" style="fill: #0000ff; stroke: #0000ff"/>
     <use xlink:href="#m9649700adc" x="119.058656" y="251.040767" style="fill: #0000ff; stroke: #0000ff"/>
     <use xlink:href="#m9649700adc" x="119.539266" y="203.064148" style="fill: #0000ff; stroke: #0000ff"/>
     <use xlink:href="#m9649700adc" x="154.065004" y="222.711815" style="fill: #0000ff; stroke: #0000ff"/>
     <use xlink:href="#m9649700adc" x="110.798113" y="205.832934" style="fill: #0000ff; stroke: #0000ff"/>
     <use xlink:href="#m9649700adc" x="215.500722" y="201.822561" style="fill: #0000ff; stroke: #0000ff"/>
     <use xlink:href="#m9649700adc" x="204.589619" y="215.406203" style="fill: #0000ff; stroke: #0000ff"/>
    </g>
   </g>
   <g id="PathCollection_8">
    <defs>
     <path id="m80086e9728" d="M 0 1.5 
C 0.397805 1.5 0.77937 1.341951 1.06066 1.06066 
C 1.341951 0.77937 1.5 0.397805 1.5 0 
C 1.5 -0.397805 1.341951 -0.77937 1.06066 -1.06066 
C 0.77937 -1.341951 0.397805 -1.5 0 -1.5 
C -0.397805 -1.5 -0.77937 -1.341951 -1.06066 -1.06066 
C -1.341951 -0.77937 -1.5 -0.397805 -1.5 0 
C -1.5 0.397805 -1.341951 0.77937 -1.06066 1.06066 
C -0.77937 1.341951 -0.397805 1.5 0 1.5 
z
" style="stroke: #dc143c"/>
    </defs>
    <g clip-path="url(#pce077324e7)">
     <use xlink:href="#m80086e9728" x="98.149714" y="185.684224" style="fill: #dc143c; stroke: #dc143c"/>
     <use xlink:href="#m80086e9728" x="92.339616" y="176.178198" style="fill: #dc143c; stroke: #dc143c"/>
     <use xlink:href="#m80086e9728" x="111.52972" y="234.258897" style="fill: #dc143c; stroke: #dc143c"/>
     <use xlink:href="#m80086e9728" x="168.212751" y="153.273573" style="fill: #dc143c; stroke: #dc143c"/>
     <use xlink:href="#m80086e9728" x="95.687375" y="212.091384" style="fill: #dc143c; stroke: #dc143c"/>
     <use xlink:href="#m80086e9728" x="102.81072" y="204.756196" style="fill: #dc143c; stroke: #dc143c"/>
     <use xlink:href="#m80086e9728" x="76.50576" y="220.262781" style="fill: #dc143c; stroke: #dc143c"/>
     <use xlink:href="#m80086e9728" x="95.819502" y="249.781941" style="fill: #dc143c; stroke: #dc143c"/>
     <use xlink:href="#m80086e9728" x="143.792985" y="160.666278" style="fill: #dc143c; stroke: #dc143c"/>
     <use xlink:href="#m80086e9728" x="74.116323" y="237.031656" style="fill: #dc143c; stroke: #dc143c"/>
     <use xlink:href="#m80086e9728" x="62.430028" y="229.705708" style="fill: #dc143c; stroke: #dc143c"/>
     <use xlink:href="#m80086e9728" x="65.276777" y="250.364665" style="fill: #dc143c; stroke: #dc143c"/>
     <use xlink:href="#m80086e9728" x="105.052768" y="177.852797" style="fill: #dc143c; stroke: #dc143c"/>
     <use xlink:href="#m80086e9728" x="89.30506" y="200.232689" style="fill: #dc143c; stroke: #dc143c"/>
     <use xlink:href="#m80086e9728" x="104.420391" y="163.987331" style="fill: #dc143c; stroke: #dc143c"/>
     <use xlink:href="#m80086e9728" x="91.020671" y="198.605787" style="fill: #dc143c; stroke: #dc143c"/>
    </g>
   </g>
   <g id="PathCollection_9">
    <defs>
     <path id="m0907521706" d="M 0 1.5 
C 0.397805 1.5 0.77937 1.341951 1.06066 1.06066 
C 1.341951 0.77937 1.5 0.397805 1.5 0 
C 1.5 -0.397805 1.341951 -0.77937 1.06066 -1.06066 
C 0.77937 -1.341951 0.397805 -1.5 0 -1.5 
C -0.397805 -1.5 -0.77937 -1.341951 -1.06066 -1.06066 
C -1.341951 -0.77937 -1.5 -0.397805 -1.5 0 
C -1.5 0.397805 -1.341951 0.77937 -1.06066 1.06066 
C -0.77937 1.341951 -0.397805 1.5 0 1.5 
z
" style="stroke: #ffe4c4"/>
    </defs>
    <g clip-path="url(#pce077324e7)">
     <use xlink:href="#m0907521706" x="190.46927" y="182.26162" style="fill: #ffe4c4; stroke: #ffe4c4"/>
     <use xlink:href="#m0907521706" x="131.555956" y="166.252168" style="fill: #ffe4c4; stroke: #ffe4c4"/>
     <use xlink:href="#m0907521706" x="206.985935" y="104.313682" style="fill: #ffe4c4; stroke: #ffe4c4"/>
     <use xlink:href="#m0907521706" x="144.787018" y="183.202273" style="fill: #ffe4c4; stroke: #ffe4c4"/>
     <use xlink:href="#m0907521706" x="137.811257" y="142.30611" style="fill: #ffe4c4; stroke: #ffe4c4"/>
     <use xlink:href="#m0907521706" x="126.069611" y="192.191964" style="fill: #ffe4c4; stroke: #ffe4c4"/>
     <use xlink:href="#m0907521706" x="155.281976" y="40.810104" style="fill: #ffe4c4; stroke: #ffe4c4"/>
     <use xlink:href="#m0907521706" x="176.567395" y="130.822429" style="fill: #ffe4c4; stroke: #ffe4c4"/>
     <use xlink:href="#m0907521706" x="117.399263" y="190.570533" style="fill: #ffe4c4; stroke: #ffe4c4"/>
     <use xlink:href="#m0907521706" x="101.684617" y="121.262675" style="fill: #ffe4c4; stroke: #ffe4c4"/>
     <use xlink:href="#m0907521706" x="159.767636" y="118.726152" style="fill: #ffe4c4; stroke: #ffe4c4"/>
     <use xlink:href="#m0907521706" x="203.575326" y="131.118856" style="fill: #ffe4c4; stroke: #ffe4c4"/>
     <use xlink:href="#m0907521706" x="131.063629" y="116.176077" style="fill: #ffe4c4; stroke: #ffe4c4"/>
     <use xlink:href="#m0907521706" x="152.348877" y="172.10744" style="fill: #ffe4c4; stroke: #ffe4c4"/>
     <use xlink:href="#m0907521706" x="145.875037" y="147.501109" style="fill: #ffe4c4; stroke: #ffe4c4"/>
    </g>
   </g>
   <g id="PathCollection_10">
    <defs>
     <path id="mb78deebb14" d="M -2.99994 2.99994 
L 3.00006 2.99994 
L 3.00006 -3.00006 
L -2.99994 -3.00006 
z
" style="stroke: #000000"/>
    </defs>
    <g clip-path="url(#pce077324e7)">
     <use xlink:href="#mb78deebb14" x="266.796774" y="180.649216" style="stroke: #000000"/>
     <use xlink:href="#mb78deebb14" x="214.770194" y="219.449073" style="stroke: #000000"/>
     <use xlink:href="#mb78deebb14" x="235.343118" y="218.359258" style="stroke: #000000"/>
     <use xlink:href="#mb78deebb14" x="164.066331" y="196.301111" style="stroke: #000000"/>
     <use xlink:href="#mb78deebb14" x="101.73298" y="238.200025" style="stroke: #000000"/>
     <use xlink:href="#mb78deebb14" x="332.716976" y="158.552417" style="stroke: #000000"/>
     <use xlink:href="#mb78deebb14" x="326.111119" y="172.0235" style="stroke: #000000"/>
     <use xlink:href="#mb78deebb14" x="222.672933" y="214.316954" style="stroke: #000000"/>
     <use xlink:href="#mb78deebb14" x="231.563614" y="205.465744" style="stroke: #000000"/>
     <use xlink:href="#mb78deebb14" x="206.903397" y="170.465838" style="stroke: #000000"/>
     <use xlink:href="#mb78deebb14" x="331.462075" y="163.318348" style="stroke: #000000"/>
     <use xlink:href="#mb78deebb14" x="207.200787" y="171.97828" style="stroke: #000000"/>
     <use xlink:href="#mb78deebb14" x="285.958681" y="197.452491" style="stroke: #000000"/>
     <use xlink:href="#mb78deebb14" x="177.94878" y="215.680011" style="stroke: #000000"/>
     <use xlink:href="#mb78deebb14" x="183.736715" y="194.943125" style="stroke: #000000"/>
     <use xlink:href="#mb78deebb14" x="170.84716" y="176.85487" style="stroke: #000000"/>
     <use xlink:href="#mb78deebb14" x="166.619139" y="235.846665" style="stroke: #000000"/>
     <use xlink:href="#mb78deebb14" x="328.523254" y="212.798793" style="stroke: #000000"/>
     <use xlink:href="#mb78deebb14" x="214.770194" y="219.449073" style="stroke: #000000"/>
     <use xlink:href="#mb78deebb14" x="149.839647" y="216.192092" style="stroke: #000000"/>
     <use xlink:href="#mb78deebb14" x="189.663939" y="222.568667" style="stroke: #000000"/>
     <use xlink:href="#mb78deebb14" x="191.35614" y="214.942316" style="stroke: #000000"/>
     <use xlink:href="#mb78deebb14" x="376.19196" y="144.09166" style="stroke: #000000"/>
     <use xlink:href="#mb78deebb14" x="252.694397" y="199.601747" style="stroke: #000000"/>
     <use xlink:href="#mb78deebb14" x="265.839846" y="201.082476" style="stroke: #000000"/>
     <use xlink:href="#mb78deebb14" x="303.557117" y="217.293103" style="stroke: #000000"/>
     <use xlink:href="#mb78deebb14" x="178.124877" y="221.328532" style="stroke: #000000"/>
     <use xlink:href="#mb78deebb14" x="336.25402" y="200.270409" style="stroke: #000000"/>
     <use xlink:href="#mb78deebb14" x="261.676264" y="175.562005" style="stroke: #000000"/>
     <use xlink:href="#mb78deebb14" x="202.492698" y="193.051238" style="stroke: #000000"/>
     <use xlink:href="#mb78deebb14" x="229.726919" y="193.733164" style="stroke: #000000"/>
     <use xlink:href="#mb78deebb14" x="177.060095" y="220.201176" style="stroke: #000000"/>
     <use xlink:href="#mb78deebb14" x="319.154542" y="169.28446" style="stroke: #000000"/>
     <use xlink:href="#mb78deebb14" x="191.526571" y="167.811843" style="stroke: #000000"/>
     <use xlink:href="#mb78deebb14" x="310.942373" y="202.927098" style="stroke: #000000"/>
     <use xlink:href="#mb78deebb14" x="252.449244" y="234.27614" style="stroke: #000000"/>
     <use xlink:href="#mb78deebb14" x="180.179621" y="232.738857" style="stroke: #000000"/>
     <use xlink:href="#mb78deebb14" x="347.967419" y="198.167784" style="stroke: #000000"/>
     <use xlink:href="#mb78deebb14" x="287.905145" y="175.399461" style="stroke: #000000"/>
     <use xlink:href="#mb78deebb14" x="215.74376" y="228.974636" style="stroke: #000000"/>
     <use xlink:href="#mb78deebb14" x="222.416556" y="144.793172" style="stroke: #000000"/>
     <use xlink:href="#mb78deebb14" x="347.757157" y="184.541575" style="stroke: #000000"/>
     <use xlink:href="#mb78deebb14" x="221.72585" y="194.274821" style="stroke: #000000"/>
     <use xlink:href="#mb78deebb14" x="249.78178" y="194.160481" style="stroke: #000000"/>
     <use xlink:href="#mb78deebb14" x="210.699391" y="169.118104" style="stroke: #000000"/>
     <use xlink:href="#mb78deebb14" x="179.650739" y="222.81204" style="stroke: #000000"/>
     <use xlink:href="#mb78deebb14" x="276.966235" y="173.996881" style="stroke: #000000"/>
     <use xlink:href="#mb78deebb14" x="336.001862" y="214.907988" style="stroke: #000000"/>
     <use xlink:href="#mb78deebb14" x="235.685513" y="192.616844" style="stroke: #000000"/>
     <use xlink:href="#mb78deebb14" x="277.518926" y="222.519774" style="stroke: #000000"/>
     <use xlink:href="#mb78deebb14" x="215.064715" y="220.452928" style="stroke: #000000"/>
     <use xlink:href="#mb78deebb14" x="160.422381" y="159.828878" style="stroke: #000000"/>
     <use xlink:href="#mb78deebb14" x="149.449064" y="211.975641" style="stroke: #000000"/>
     <use xlink:href="#mb78deebb14" x="242.463876" y="165.80491" style="stroke: #000000"/>
     <use xlink:href="#mb78deebb14" x="177.880718" y="188.917206" style="stroke: #000000"/>
     <use xlink:href="#mb78deebb14" x="334.341218" y="176.384523" style="stroke: #000000"/>
     <use xlink:href="#mb78deebb14" x="233.474545" y="174.745368" style="stroke: #000000"/>
     <use xlink:href="#mb78deebb14" x="232.206307" y="211.625236" style="stroke: #000000"/>
     <use xlink:href="#mb78deebb14" x="252.114602" y="192.276807" style="stroke: #000000"/>
     <use xlink:href="#mb78deebb14" x="250.545599" y="198.734182" style="stroke: #000000"/>
     <use xlink:href="#mb78deebb14" x="216.76313" y="222.353738" style="stroke: #000000"/>
     <use xlink:href="#mb78deebb14" x="226.198653" y="160.947788" style="stroke: #000000"/>
     <use xlink:href="#mb78deebb14" x="279.199035" y="210.539615" style="stroke: #000000"/>
     <use xlink:href="#mb78deebb14" x="167.290935" y="194.494503" style="stroke: #000000"/>
    </g>
   </g>
   <g id="PathCollection_11">
    <defs>
     <path id="m04af371887" d="M -3 -0 
L 3 3 
L 3 -3 
z
" style="stroke: #ff8c00"/>
    </defs>
    <g clip-path="url(#pce077324e7)">
     <use xlink:href="#m04af371887" x="224.519371" y="210.504016" style="fill: #ff8c00; stroke: #ff8c00"/>
     <use xlink:href="#m04af371887" x="278.281772" y="208.520854" style="fill: #ff8c00; stroke: #ff8c00"/>
     <use xlink:href="#m04af371887" x="230.224743" y="217.576867" style="fill: #ff8c00; stroke: #ff8c00"/>
     <use xlink:href="#m04af371887" x="239.773005" y="207.895849" style="fill: #ff8c00; stroke: #ff8c00"/>
     <use xlink:href="#m04af371887" x="235.395185" y="194.531573" style="fill: #ff8c00; stroke: #ff8c00"/>
     <use xlink:href="#m04af371887" x="208.179373" y="202.185077" style="fill: #ff8c00; stroke: #ff8c00"/>
     <use xlink:href="#m04af371887" x="205.280047" y="212.262339" style="fill: #ff8c00; stroke: #ff8c00"/>
     <use xlink:href="#m04af371887" x="257.910638" y="205.713456" style="fill: #ff8c00; stroke: #ff8c00"/>
     <use xlink:href="#m04af371887" x="267.618873" y="151.764633" style="fill: #ff8c00; stroke: #ff8c00"/>
     <use xlink:href="#m04af371887" x="200.717501" y="191.07032" style="fill: #ff8c00; stroke: #ff8c00"/>
     <use xlink:href="#m04af371887" x="249.617905" y="194.381766" style="fill: #ff8c00; stroke: #ff8c00"/>
     <use xlink:href="#m04af371887" x="200.475142" y="175.2475" style="fill: #ff8c00; stroke: #ff8c00"/>
     <use xlink:href="#m04af371887" x="217.272506" y="226.351327" style="fill: #ff8c00; stroke: #ff8c00"/>
     <use xlink:href="#m04af371887" x="226.263992" y="185.235939" style="fill: #ff8c00; stroke: #ff8c00"/>
     <use xlink:href="#m04af371887" x="238.456925" y="198.836257" style="fill: #ff8c00; stroke: #ff8c00"/>
     <use xlink:href="#m04af371887" x="292.479353" y="162.985571" style="fill: #ff8c00; stroke: #ff8c00"/>
     <use xlink:href="#m04af371887" x="232.063952" y="195.019478" style="fill: #ff8c00; stroke: #ff8c00"/>
     <use xlink:href="#m04af371887" x="155.107043" y="239.096009" style="fill: #ff8c00; stroke: #ff8c00"/>
     <use xlink:href="#m04af371887" x="201.071355" y="190.544904" style="fill: #ff8c00; stroke: #ff8c00"/>
     <use xlink:href="#m04af371887" x="219.102805" y="226.979316" style="fill: #ff8c00; stroke: #ff8c00"/>
     <use xlink:href="#m04af371887" x="189.041912" y="196.558588" style="fill: #ff8c00; stroke: #ff8c00"/>
     <use xlink:href="#m04af371887" x="226.62902" y="191.55211" style="fill: #ff8c00; stroke: #ff8c00"/>
     <use xlink:href="#m04af371887" x="218.043323" y="147.55385" style="fill: #ff8c00; stroke: #ff8c00"/>
     <use xlink:href="#m04af371887" x="180.217528" y="207.546544" style="fill: #ff8c00; stroke: #ff8c00"/>
     <use xlink:href="#m04af371887" x="275.423357" y="214.435364" style="fill: #ff8c00; stroke: #ff8c00"/>
     <use xlink:href="#m04af371887" x="141.302404" y="198.727758" style="fill: #ff8c00; stroke: #ff8c00"/>
     <use xlink:href="#m04af371887" x="255.50194" y="170.160556" style="fill: #ff8c00; stroke: #ff8c00"/>
     <use xlink:href="#m04af371887" x="266.219007" y="197.040077" style="fill: #ff8c00; stroke: #ff8c00"/>
     <use xlink:href="#m04af371887" x="246.367842" y="198.573078" style="fill: #ff8c00; stroke: #ff8c00"/>
     <use xlink:href="#m04af371887" x="209.980565" y="178.783944" style="fill: #ff8c00; stroke: #ff8c00"/>
     <use xlink:href="#m04af371887" x="228.355204" y="174.675755" style="fill: #ff8c00; stroke: #ff8c00"/>
     <use xlink:href="#m04af371887" x="245.136545" y="208.653559" style="fill: #ff8c00; stroke: #ff8c00"/>
     <use xlink:href="#m04af371887" x="196.618356" y="215.004381" style="fill: #ff8c00; stroke: #ff8c00"/>
     <use xlink:href="#m04af371887" x="159.184418" y="241.069544" style="fill: #ff8c00; stroke: #ff8c00"/>
     <use xlink:href="#m04af371887" x="210.228881" y="206.877131" style="fill: #ff8c00; stroke: #ff8c00"/>
     <use xlink:href="#m04af371887" x="170.725416" y="223.848732" style="fill: #ff8c00; stroke: #ff8c00"/>
     <use xlink:href="#m04af371887" x="201.122706" y="214.736371" style="fill: #ff8c00; stroke: #ff8c00"/>
     <use xlink:href="#m04af371887" x="274.872121" y="178.787395" style="fill: #ff8c00; stroke: #ff8c00"/>
     <use xlink:href="#m04af371887" x="271.848409" y="205.996578" style="fill: #ff8c00; stroke: #ff8c00"/>
     <use xlink:href="#m04af371887" x="228.909158" y="156.419702" style="fill: #ff8c00; stroke: #ff8c00"/>
     <use xlink:href="#m04af371887" x="260.657341" y="222.44528" style="fill: #ff8c00; stroke: #ff8c00"/>
     <use xlink:href="#m04af371887" x="246.40139" y="191.385223" style="fill: #ff8c00; stroke: #ff8c00"/>
     <use xlink:href="#m04af371887" x="264.17133" y="197.780134" style="fill: #ff8c00; stroke: #ff8c00"/>
     <use xlink:href="#m04af371887" x="183.898432" y="205.040618" style="fill: #ff8c00; stroke: #ff8c00"/>
     <use xlink:href="#m04af371887" x="225.28918" y="211.090078" style="fill: #ff8c00; stroke: #ff8c00"/>
     <use xlink:href="#m04af371887" x="279.094504" y="209.513983" style="fill: #ff8c00; stroke: #ff8c00"/>
     <use xlink:href="#m04af371887" x="290.098489" y="213.344281" style="fill: #ff8c00; stroke: #ff8c00"/>
     <use xlink:href="#m04af371887" x="226.732342" y="212.478721" style="fill: #ff8c00; stroke: #ff8c00"/>
     <use xlink:href="#m04af371887" x="240.325991" y="221.06127" style="fill: #ff8c00; stroke: #ff8c00"/>
     <use xlink:href="#m04af371887" x="160.71353" y="222.498938" style="fill: #ff8c00; stroke: #ff8c00"/>
     <use xlink:href="#m04af371887" x="142.174925" y="251.879819" style="fill: #ff8c00; stroke: #ff8c00"/>
     <use xlink:href="#m04af371887" x="201.236659" y="174.467775" style="fill: #ff8c00; stroke: #ff8c00"/>
     <use xlink:href="#m04af371887" x="265.72438" y="188.982414" style="fill: #ff8c00; stroke: #ff8c00"/>
     <use xlink:href="#m04af371887" x="264.357722" y="208.198824" style="fill: #ff8c00; stroke: #ff8c00"/>
     <use xlink:href="#m04af371887" x="217.320425" y="158.641084" style="fill: #ff8c00; stroke: #ff8c00"/>
     <use xlink:href="#m04af371887" x="221.912002" y="175.249963" style="fill: #ff8c00; stroke: #ff8c00"/>
     <use xlink:href="#m04af371887" x="307.982508" y="189.063276" style="fill: #ff8c00; stroke: #ff8c00"/>
     <use xlink:href="#m04af371887" x="265.927382" y="150.324713" style="fill: #ff8c00; stroke: #ff8c00"/>
     <use xlink:href="#m04af371887" x="247.403799" y="204.206487" style="fill: #ff8c00; stroke: #ff8c00"/>
     <use xlink:href="#m04af371887" x="311.136224" y="220.933991" style="fill: #ff8c00; stroke: #ff8c00"/>
     <use xlink:href="#m04af371887" x="233.689606" y="191.82141" style="fill: #ff8c00; stroke: #ff8c00"/>
     <use xlink:href="#m04af371887" x="173.48235" y="195.763204" style="fill: #ff8c00; stroke: #ff8c00"/>
     <use xlink:href="#m04af371887" x="265.530632" y="188.968759" style="fill: #ff8c00; stroke: #ff8c00"/>
     <use xlink:href="#m04af371887" x="181.78027" y="216.092704" style="fill: #ff8c00; stroke: #ff8c00"/>
    </g>
   </g>
   <g id="matplotlib.axis_1">
    <g id="xtick_1">
     <g id="line2d_1">
      <defs>
       <path id="mff603b6d82" d="M 0 0 
L 0 3.5 
" style="stroke: #000000; stroke-width: 0.8"/>
      </defs>
      <g>
       <use xlink:href="#mff603b6d82" x="68.09888" y="273.312" style="stroke: #000000; stroke-width: 0.8"/>
      </g>
     </g>
     <g id="text_1">
      <!-- −20 -->
      <g transform="translate(57.546537 287.910437) scale(0.1 -0.1)">
       <defs>
        <path id="DejaVuSans-2212" d="M 678 2272 
L 4684 2272 
L 4684 1741 
L 678 1741 
L 678 2272 
z
" transform="scale(0.015625)"/>
        <path id="DejaVuSans-32" d="M 1228 531 
L 3431 531 
L 3431 0 
L 469 0 
L 469 531 
Q 828 903 1448 1529 
Q 2069 2156 2228 2338 
Q 2531 2678 2651 2914 
Q 2772 3150 2772 3378 
Q 2772 3750 2511 3984 
Q 2250 4219 1831 4219 
Q 1534 4219 1204 4116 
Q 875 4013 500 3803 
L 500 4441 
Q 881 4594 1212 4672 
Q 1544 4750 1819 4750 
Q 2544 4750 2975 4387 
Q 3406 4025 3406 3419 
Q 3406 3131 3298 2873 
Q 3191 2616 2906 2266 
Q 2828 2175 2409 1742 
Q 1991 1309 1228 531 
z
" transform="scale(0.015625)"/>
        <path id="DejaVuSans-30" d="M 2034 4250 
Q 1547 4250 1301 3770 
Q 1056 3291 1056 2328 
Q 1056 1369 1301 889 
Q 1547 409 2034 409 
Q 2525 409 2770 889 
Q 3016 1369 3016 2328 
Q 3016 3291 2770 3770 
Q 2525 4250 2034 4250 
z
M 2034 4750 
Q 2819 4750 3233 4129 
Q 3647 3509 3647 2328 
Q 3647 1150 3233 529 
Q 2819 -91 2034 -91 
Q 1250 -91 836 529 
Q 422 1150 422 2328 
Q 422 3509 836 4129 
Q 1250 4750 2034 4750 
z
" transform="scale(0.015625)"/>
       </defs>
       <use xlink:href="#DejaVuSans-2212"/>
       <use xlink:href="#DejaVuSans-32" x="83.789062"/>
       <use xlink:href="#DejaVuSans-30" x="147.412109"/>
      </g>
     </g>
    </g>
    <g id="xtick_2">
     <g id="line2d_2">
      <g>
       <use xlink:href="#mff603b6d82" x="127.481483" y="273.312" style="stroke: #000000; stroke-width: 0.8"/>
      </g>
     </g>
     <g id="text_2">
      <!-- −10 -->
      <g transform="translate(116.92914 287.910437) scale(0.1 -0.1)">
       <defs>
        <path id="DejaVuSans-31" d="M 794 531 
L 1825 531 
L 1825 4091 
L 703 3866 
L 703 4441 
L 1819 4666 
L 2450 4666 
L 2450 531 
L 3481 531 
L 3481 0 
L 794 0 
L 794 531 
z
" transform="scale(0.015625)"/>
       </defs>
       <use xlink:href="#DejaVuSans-2212"/>
       <use xlink:href="#DejaVuSans-31" x="83.789062"/>
       <use xlink:href="#DejaVuSans-30" x="147.412109"/>
      </g>
     </g>
    </g>
    <g id="xtick_3">
     <g id="line2d_3">
      <g>
       <use xlink:href="#mff603b6d82" x="186.864087" y="273.312" style="stroke: #000000; stroke-width: 0.8"/>
      </g>
     </g>
     <g id="text_3">
      <!-- 0 -->
      <g transform="translate(183.682837 287.910437) scale(0.1 -0.1)">
       <use xlink:href="#DejaVuSans-30"/>
      </g>
     </g>
    </g>
    <g id="xtick_4">
     <g id="line2d_4">
      <g>
       <use xlink:href="#mff603b6d82" x="246.24669" y="273.312" style="stroke: #000000; stroke-width: 0.8"/>
      </g>
     </g>
     <g id="text_4">
      <!-- 10 -->
      <g transform="translate(239.88419 287.910437) scale(0.1 -0.1)">
       <use xlink:href="#DejaVuSans-31"/>
       <use xlink:href="#DejaVuSans-30" x="63.623047"/>
      </g>
     </g>
    </g>
    <g id="xtick_5">
     <g id="line2d_5">
      <g>
       <use xlink:href="#mff603b6d82" x="305.629293" y="273.312" style="stroke: #000000; stroke-width: 0.8"/>
      </g>
     </g>
     <g id="text_5">
      <!-- 20 -->
      <g transform="translate(299.266793 287.910437) scale(0.1 -0.1)">
       <use xlink:href="#DejaVuSans-32"/>
       <use xlink:href="#DejaVuSans-30" x="63.623047"/>
      </g>
     </g>
    </g>
    <g id="xtick_6">
     <g id="line2d_6">
      <g>
       <use xlink:href="#mff603b6d82" x="365.011896" y="273.312" style="stroke: #000000; stroke-width: 0.8"/>
      </g>
     </g>
     <g id="text_6">
      <!-- 30 -->
      <g transform="translate(358.649396 287.910437) scale(0.1 -0.1)">
       <defs>
        <path id="DejaVuSans-33" d="M 2597 2516 
Q 3050 2419 3304 2112 
Q 3559 1806 3559 1356 
Q 3559 666 3084 287 
Q 2609 -91 1734 -91 
Q 1441 -91 1130 -33 
Q 819 25 488 141 
L 488 750 
Q 750 597 1062 519 
Q 1375 441 1716 441 
Q 2309 441 2620 675 
Q 2931 909 2931 1356 
Q 2931 1769 2642 2001 
Q 2353 2234 1838 2234 
L 1294 2234 
L 1294 2753 
L 1863 2753 
Q 2328 2753 2575 2939 
Q 2822 3125 2822 3475 
Q 2822 3834 2567 4026 
Q 2313 4219 1838 4219 
Q 1578 4219 1281 4162 
Q 984 4106 628 3988 
L 628 4550 
Q 988 4650 1302 4700 
Q 1616 4750 1894 4750 
Q 2613 4750 3031 4423 
Q 3450 4097 3450 3541 
Q 3450 3153 3228 2886 
Q 3006 2619 2597 2516 
z
" transform="scale(0.015625)"/>
       </defs>
       <use xlink:href="#DejaVuSans-33"/>
       <use xlink:href="#DejaVuSans-30" x="63.623047"/>
      </g>
     </g>
    </g>
   </g>
   <g id="matplotlib.axis_2">
    <g id="ytick_1">
     <g id="line2d_7">
      <defs>
       <path id="m5017f68530" d="M 0 0 
L -3.5 0 
" style="stroke: #000000; stroke-width: 0.8"/>
      </defs>
      <g>
       <use xlink:href="#m5017f68530" x="35.304688" y="250.610415" style="stroke: #000000; stroke-width: 0.8"/>
      </g>
     </g>
     <g id="text_7">
      <!-- −10 -->
      <g transform="translate(7.2 254.409633) scale(0.1 -0.1)">
       <use xlink:href="#DejaVuSans-2212"/>
       <use xlink:href="#DejaVuSans-31" x="83.789062"/>
       <use xlink:href="#DejaVuSans-30" x="147.412109"/>
      </g>
     </g>
    </g>
    <g id="ytick_2">
     <g id="line2d_8">
      <g>
       <use xlink:href="#m5017f68530" x="35.304688" y="196.125238" style="stroke: #000000; stroke-width: 0.8"/>
      </g>
     </g>
     <g id="text_8">
      <!-- 0 -->
      <g transform="translate(21.942187 199.924457) scale(0.1 -0.1)">
       <use xlink:href="#DejaVuSans-30"/>
      </g>
     </g>
    </g>
    <g id="ytick_3">
     <g id="line2d_9">
      <g>
       <use xlink:href="#m5017f68530" x="35.304688" y="141.640062" style="stroke: #000000; stroke-width: 0.8"/>
      </g>
     </g>
     <g id="text_9">
      <!-- 10 -->
      <g transform="translate(15.579687 145.439281) scale(0.1 -0.1)">
       <use xlink:href="#DejaVuSans-31"/>
       <use xlink:href="#DejaVuSans-30" x="63.623047"/>
      </g>
     </g>
    </g>
    <g id="ytick_4">
     <g id="line2d_10">
      <g>
       <use xlink:href="#m5017f68530" x="35.304688" y="87.154886" style="stroke: #000000; stroke-width: 0.8"/>
      </g>
     </g>
     <g id="text_10">
      <!-- 20 -->
      <g transform="translate(15.579687 90.954105) scale(0.1 -0.1)">
       <use xlink:href="#DejaVuSans-32"/>
       <use xlink:href="#DejaVuSans-30" x="63.623047"/>
      </g>
     </g>
    </g>
    <g id="ytick_5">
     <g id="line2d_11">
      <g>
       <use xlink:href="#m5017f68530" x="35.304688" y="32.66971" style="stroke: #000000; stroke-width: 0.8"/>
      </g>
     </g>
     <g id="text_11">
      <!-- 30 -->
      <g transform="translate(15.579687 36.468928) scale(0.1 -0.1)">
       <use xlink:href="#DejaVuSans-33"/>
       <use xlink:href="#DejaVuSans-30" x="63.623047"/>
      </g>
     </g>
    </g>
   </g>
   <g id="patch_3">
    <path d="M 35.304688 273.312 
L 35.304688 7.2 
" style="fill: none; stroke: #000000; stroke-width: 0.8; stroke-linejoin: miter; stroke-linecap: square"/>
   </g>
   <g id="patch_4">
    <path d="M 392.424688 273.312 
L 392.424688 7.2 
" style="fill: none; stroke: #000000; stroke-width: 0.8; stroke-linejoin: miter; stroke-linecap: square"/>
   </g>
   <g id="patch_5">
    <path d="M 35.304687 273.312 
L 392.424688 273.312 
" style="fill: none; stroke: #000000; stroke-width: 0.8; stroke-linejoin: miter; stroke-linecap: square"/>
   </g>
   <g id="patch_6">
    <path d="M 35.304687 7.2 
L 392.424688 7.2 
" style="fill: none; stroke: #000000; stroke-width: 0.8; stroke-linejoin: miter; stroke-linecap: square"/>
   </g>
  </g>
 </g>
 <defs>
  <clipPath id="pce077324e7">
   <rect x="35.304688" y="7.2" width="357.12" height="266.112"/>
  </clipPath>
 </defs>
</svg>
