<?xml version="1.0" encoding="utf-8" standalone="no"?>
<!DOCTYPE svg PUBLIC "-//W3C//DTD SVG 1.1//EN"
  "http://www.w3.org/Graphics/SVG/1.1/DTD/svg11.dtd">
<svg xmlns:xlink="http://www.w3.org/1999/xlink" width="399.624687pt" height="298.624432pt" viewBox="0 0 399.624687 298.624432" xmlns="http://www.w3.org/2000/svg" version="1.1">
 <metadata>
  <rdf:RDF xmlns:dc="http://purl.org/dc/elements/1.1/" xmlns:cc="http://creativecommons.org/ns#" xmlns:rdf="http://www.w3.org/1999/02/22-rdf-syntax-ns#">
   <cc:Work>
    <dc:type rdf:resource="http://purl.org/dc/dcmitype/StillImage"/>
    <dc:date>2023-11-13T10:03:48.712582</dc:date>
    <dc:format>image/svg+xml</dc:format>
    <dc:creator>
     <cc:Agent>
      <dc:title>Matplotlib v3.8.0, https://matplotlib.org/</dc:title>
     </cc:Agent>
    </dc:creator>
   </cc:Work>
  </rdf:RDF>
 </metadata>
 <defs>
  <style type="text/css">*{stroke-linejoin: round; stroke-linecap: butt}</style>
 </defs>
 <g id="figure_1">
  <g id="patch_1">
   <path d="M 0 298.624432 
L 399.624687 298.624432 
L 399.624687 0 
L 0 0 
z
" style="fill: #ffffff"/>
  </g>
  <g id="axes_1">
   <g id="patch_2">
    <path d="M 35.304688 274.746307 
L 392.424688 274.746307 
L 392.424688 8.634307 
L 35.304688 8.634307 
z
" style="fill: #ffffff"/>
   </g>
   <g id="PathCollection_1">
    <defs>
     <path id="m17a519024a" d="M 0 1.5 
C 0.397805 1.5 0.77937 1.341951 1.06066 1.06066 
C 1.341951 0.77937 1.5 0.397805 1.5 0 
C 1.5 -0.397805 1.341951 -0.77937 1.06066 -1.06066 
C 0.77937 -1.341951 0.397805 -1.5 0 -1.5 
C -0.397805 -1.5 -0.77937 -1.341951 -1.06066 -1.06066 
C -1.341951 -0.77937 -1.5 -0.397805 -1.5 0 
C -1.5 0.397805 -1.341951 0.77937 -1.06066 1.06066 
C -0.77937 1.341951 -0.397805 1.5 0 1.5 
z
" style="stroke: #ff8c00"/>
    </defs>
    <g clip-path="url(#pcc3483532d)">
     <use xlink:href="#m17a519024a" x="217.058676" y="164.018783" style="fill: #ff8c00; stroke: #ff8c00"/>
     <use xlink:href="#m17a519024a" x="216.501313" y="194.728661" style="fill: #ff8c00; stroke: #ff8c00"/>
     <use xlink:href="#m17a519024a" x="217.777093" y="247.059593" style="fill: #ff8c00; stroke: #ff8c00"/>
     <use xlink:href="#m17a519024a" x="151.198716" y="112.460393" style="fill: #ff8c00; stroke: #ff8c00"/>
     <use xlink:href="#m17a519024a" x="167.412434" y="219.317872" style="fill: #ff8c00; stroke: #ff8c00"/>
     <use xlink:href="#m17a519024a" x="200.890678" y="180.501155" style="fill: #ff8c00; stroke: #ff8c00"/>
     <use xlink:href="#m17a519024a" x="216.587871" y="240.838239" style="fill: #ff8c00; stroke: #ff8c00"/>
     <use xlink:href="#m17a519024a" x="232.638108" y="161.083548" style="fill: #ff8c00; stroke: #ff8c00"/>
     <use xlink:href="#m17a519024a" x="209.720757" y="192.509715" style="fill: #ff8c00; stroke: #ff8c00"/>
     <use xlink:href="#m17a519024a" x="169.296007" y="204.472453" style="fill: #ff8c00; stroke: #ff8c00"/>
     <use xlink:href="#m17a519024a" x="204.685711" y="199.627797" style="fill: #ff8c00; stroke: #ff8c00"/>
    </g>
   </g>
   <g id="PathCollection_2">
    <defs>
     <path id="mf6f6103b6b" d="M 0 1.5 
C 0.397805 1.5 0.77937 1.341951 1.06066 1.06066 
C 1.341951 0.77937 1.5 0.397805 1.5 0 
C 1.5 -0.397805 1.341951 -0.77937 1.06066 -1.06066 
C 0.77937 -1.341951 0.397805 -1.5 0 -1.5 
C -0.397805 -1.5 -0.77937 -1.341951 -1.06066 -1.06066 
C -1.341951 -0.77937 -1.5 -0.397805 -1.5 0 
C -1.5 0.397805 -1.341951 0.77937 -1.06066 1.06066 
C -0.77937 1.341951 -0.397805 1.5 0 1.5 
z
" style="stroke: #006400"/>
    </defs>
    <g clip-path="url(#pcc3483532d)">
     <use xlink:href="#mf6f6103b6b" x="225.787432" y="155.48674" style="fill: #006400; stroke: #006400"/>
     <use xlink:href="#mf6f6103b6b" x="286.751421" y="148.052543" style="fill: #006400; stroke: #006400"/>
     <use xlink:href="#mf6f6103b6b" x="323.671063" y="108.486295" style="fill: #006400; stroke: #006400"/>
     <use xlink:href="#mf6f6103b6b" x="313.48908" y="86.993934" style="fill: #006400; stroke: #006400"/>
     <use xlink:href="#mf6f6103b6b" x="212.336359" y="172.12083" style="fill: #006400; stroke: #006400"/>
     <use xlink:href="#mf6f6103b6b" x="300.506056" y="57.158183" style="fill: #006400; stroke: #006400"/>
     <use xlink:href="#mf6f6103b6b" x="339.245881" y="79.107269" style="fill: #006400; stroke: #006400"/>
     <use xlink:href="#mf6f6103b6b" x="231.213016" y="169.657322" style="fill: #006400; stroke: #006400"/>
     <use xlink:href="#mf6f6103b6b" x="200.058861" y="190.254443" style="fill: #006400; stroke: #006400"/>
     <use xlink:href="#mf6f6103b6b" x="262.405484" y="150.106521" style="fill: #006400; stroke: #006400"/>
     <use xlink:href="#mf6f6103b6b" x="233.510838" y="185.343441" style="fill: #006400; stroke: #006400"/>
     <use xlink:href="#mf6f6103b6b" x="339.087835" y="62.191783" style="fill: #006400; stroke: #006400"/>
     <use xlink:href="#mf6f6103b6b" x="270.638998" y="96.206756" style="fill: #006400; stroke: #006400"/>
     <use xlink:href="#mf6f6103b6b" x="323.481433" y="131.074592" style="fill: #006400; stroke: #006400"/>
     <use xlink:href="#mf6f6103b6b" x="324.05958" y="51.195727" style="fill: #006400; stroke: #006400"/>
     <use xlink:href="#mf6f6103b6b" x="238.379506" y="140.880035" style="fill: #006400; stroke: #006400"/>
     <use xlink:href="#mf6f6103b6b" x="280.460184" y="132.906934" style="fill: #006400; stroke: #006400"/>
     <use xlink:href="#mf6f6103b6b" x="365.370037" y="81.899025" style="fill: #006400; stroke: #006400"/>
     <use xlink:href="#mf6f6103b6b" x="211.056906" y="144.205842" style="fill: #006400; stroke: #006400"/>
     <use xlink:href="#mf6f6103b6b" x="255.033591" y="99.179146" style="fill: #006400; stroke: #006400"/>
    </g>
   </g>
   <g id="PathCollection_3">
    <defs>
     <path id="me62712c30b" d="M 0 1.5 
C 0.397805 1.5 0.77937 1.341951 1.06066 1.06066 
C 1.341951 0.77937 1.5 0.397805 1.5 0 
C 1.5 -0.397805 1.341951 -0.77937 1.06066 -1.06066 
C 0.77937 -1.341951 0.397805 -1.5 0 -1.5 
C -0.397805 -1.5 -0.77937 -1.341951 -1.06066 -1.06066 
C -1.341951 -0.77937 -1.5 -0.397805 -1.5 0 
C -1.5 0.397805 -1.341951 0.77937 -1.06066 1.06066 
C -0.77937 1.341951 -0.397805 1.5 0 1.5 
z
" style="stroke: #2f4f4f"/>
    </defs>
    <g clip-path="url(#pcc3483532d)">
     <use xlink:href="#me62712c30b" x="151.589613" y="100.253092" style="fill: #2f4f4f; stroke: #2f4f4f"/>
     <use xlink:href="#me62712c30b" x="113.139094" y="160.443181" style="fill: #2f4f4f; stroke: #2f4f4f"/>
     <use xlink:href="#me62712c30b" x="134.071641" y="217.465456" style="fill: #2f4f4f; stroke: #2f4f4f"/>
     <use xlink:href="#me62712c30b" x="124.376942" y="190.516707" style="fill: #2f4f4f; stroke: #2f4f4f"/>
     <use xlink:href="#me62712c30b" x="145.736207" y="195.560099" style="fill: #2f4f4f; stroke: #2f4f4f"/>
     <use xlink:href="#me62712c30b" x="162.315808" y="201.356205" style="fill: #2f4f4f; stroke: #2f4f4f"/>
     <use xlink:href="#me62712c30b" x="127.547411" y="165.153136" style="fill: #2f4f4f; stroke: #2f4f4f"/>
     <use xlink:href="#me62712c30b" x="167.741517" y="247.901739" style="fill: #2f4f4f; stroke: #2f4f4f"/>
     <use xlink:href="#me62712c30b" x="127.322447" y="200.292391" style="fill: #2f4f4f; stroke: #2f4f4f"/>
     <use xlink:href="#me62712c30b" x="146.896601" y="165.521803" style="fill: #2f4f4f; stroke: #2f4f4f"/>
    </g>
   </g>
   <g id="PathCollection_4">
    <defs>
     <path id="m0a8f72d028" d="M 0 1.5 
C 0.397805 1.5 0.77937 1.341951 1.06066 1.06066 
C 1.341951 0.77937 1.5 0.397805 1.5 0 
C 1.5 -0.397805 1.341951 -0.77937 1.06066 -1.06066 
C 0.77937 -1.341951 0.397805 -1.5 0 -1.5 
C -0.397805 -1.5 -0.77937 -1.341951 -1.06066 -1.06066 
C -1.341951 -0.77937 -1.5 -0.397805 -1.5 0 
C -1.5 0.397805 -1.341951 0.77937 -1.06066 1.06066 
C -0.77937 1.341951 -0.397805 1.5 0 1.5 
z
" style="stroke: #00bfff"/>
    </defs>
    <g clip-path="url(#pcc3483532d)">
     <use xlink:href="#m0a8f72d028" x="183.123653" y="173.393835" style="fill: #00bfff; stroke: #00bfff"/>
     <use xlink:href="#m0a8f72d028" x="184.709676" y="121.446362" style="fill: #00bfff; stroke: #00bfff"/>
     <use xlink:href="#m0a8f72d028" x="150.816707" y="208.85152" style="fill: #00bfff; stroke: #00bfff"/>
     <use xlink:href="#m0a8f72d028" x="132.505118" y="138.186763" style="fill: #00bfff; stroke: #00bfff"/>
     <use xlink:href="#m0a8f72d028" x="147.710224" y="151.639129" style="fill: #00bfff; stroke: #00bfff"/>
     <use xlink:href="#m0a8f72d028" x="150.980319" y="173.476049" style="fill: #00bfff; stroke: #00bfff"/>
    </g>
   </g>
   <g id="PathCollection_5">
    <defs>
     <path id="m5c860f13e9" d="M 0 1.5 
C 0.397805 1.5 0.77937 1.341951 1.06066 1.06066 
C 1.341951 0.77937 1.5 0.397805 1.5 0 
C 1.5 -0.397805 1.341951 -0.77937 1.06066 -1.06066 
C 0.77937 -1.341951 0.397805 -1.5 0 -1.5 
C -0.397805 -1.5 -0.77937 -1.341951 -1.06066 -1.06066 
C -1.341951 -0.77937 -1.5 -0.397805 -1.5 0 
C -1.5 0.397805 -1.341951 0.77937 -1.06066 1.06066 
C -0.77937 1.341951 -0.397805 1.5 0 1.5 
z
" style="stroke: #ffff00"/>
    </defs>
    <g clip-path="url(#pcc3483532d)">
     <use xlink:href="#m5c860f13e9" x="169.487292" y="175.715949" style="fill: #ffff00; stroke: #ffff00"/>
     <use xlink:href="#m5c860f13e9" x="137.175334" y="199.938493" style="fill: #ffff00; stroke: #ffff00"/>
     <use xlink:href="#m5c860f13e9" x="141.811058" y="262.650307" style="fill: #ffff00; stroke: #ffff00"/>
     <use xlink:href="#m5c860f13e9" x="129.421474" y="186.639364" style="fill: #ffff00; stroke: #ffff00"/>
     <use xlink:href="#m5c860f13e9" x="113.718804" y="225.59643" style="fill: #ffff00; stroke: #ffff00"/>
     <use xlink:href="#m5c860f13e9" x="107.914259" y="161.323114" style="fill: #ffff00; stroke: #ffff00"/>
     <use xlink:href="#m5c860f13e9" x="157.134664" y="209.863351" style="fill: #ffff00; stroke: #ffff00"/>
     <use xlink:href="#m5c860f13e9" x="107.03267" y="226.669508" style="fill: #ffff00; stroke: #ffff00"/>
     <use xlink:href="#m5c860f13e9" x="207.930882" y="164.914603" style="fill: #ffff00; stroke: #ffff00"/>
     <use xlink:href="#m5c860f13e9" x="127.334996" y="82.465569" style="fill: #ffff00; stroke: #ffff00"/>
     <use xlink:href="#m5c860f13e9" x="185.612461" y="196.105975" style="fill: #ffff00; stroke: #ffff00"/>
     <use xlink:href="#m5c860f13e9" x="132.94115" y="208.397599" style="fill: #ffff00; stroke: #ffff00"/>
     <use xlink:href="#m5c860f13e9" x="146.648949" y="158.149993" style="fill: #ffff00; stroke: #ffff00"/>
     <use xlink:href="#m5c860f13e9" x="168.059362" y="190.777535" style="fill: #ffff00; stroke: #ffff00"/>
     <use xlink:href="#m5c860f13e9" x="119.806839" y="131.838446" style="fill: #ffff00; stroke: #ffff00"/>
    </g>
   </g>
   <g id="PathCollection_6">
    <defs>
     <path id="mf212a7d945" d="M 0 1.5 
C 0.397805 1.5 0.77937 1.341951 1.06066 1.06066 
C 1.341951 0.77937 1.5 0.397805 1.5 0 
C 1.5 -0.397805 1.341951 -0.77937 1.06066 -1.06066 
C 0.77937 -1.341951 0.397805 -1.5 0 -1.5 
C -0.397805 -1.5 -0.77937 -1.341951 -1.06066 -1.06066 
C -1.341951 -0.77937 -1.5 -0.397805 -1.5 0 
C -1.5 0.397805 -1.341951 0.77937 -1.06066 1.06066 
C -0.77937 1.341951 -0.397805 1.5 0 1.5 
z
" style="stroke: #00ffff"/>
    </defs>
    <g clip-path="url(#pcc3483532d)">
     <use xlink:href="#mf212a7d945" x="175.42534" y="141.78017" style="fill: #00ffff; stroke: #00ffff"/>
     <use xlink:href="#mf212a7d945" x="196.213547" y="186.894569" style="fill: #00ffff; stroke: #00ffff"/>
     <use xlink:href="#mf212a7d945" x="162.284032" y="218.78945" style="fill: #00ffff; stroke: #00ffff"/>
     <use xlink:href="#mf212a7d945" x="160.206818" y="175.457193" style="fill: #00ffff; stroke: #00ffff"/>
     <use xlink:href="#mf212a7d945" x="148.191869" y="185.721284" style="fill: #00ffff; stroke: #00ffff"/>
     <use xlink:href="#mf212a7d945" x="123.174602" y="189.720726" style="fill: #00ffff; stroke: #00ffff"/>
     <use xlink:href="#mf212a7d945" x="148.556624" y="188.165267" style="fill: #00ffff; stroke: #00ffff"/>
     <use xlink:href="#mf212a7d945" x="159.064992" y="158.212648" style="fill: #00ffff; stroke: #00ffff"/>
     <use xlink:href="#mf212a7d945" x="164.371638" y="188.007442" style="fill: #00ffff; stroke: #00ffff"/>
     <use xlink:href="#mf212a7d945" x="131.89747" y="151.331898" style="fill: #00ffff; stroke: #00ffff"/>
     <use xlink:href="#mf212a7d945" x="201.088697" y="151.226443" style="fill: #00ffff; stroke: #00ffff"/>
     <use xlink:href="#mf212a7d945" x="123.239087" y="175.691016" style="fill: #00ffff; stroke: #00ffff"/>
     <use xlink:href="#mf212a7d945" x="187.096786" y="144.263667" style="fill: #00ffff; stroke: #00ffff"/>
     <use xlink:href="#mf212a7d945" x="195.64762" y="135.178947" style="fill: #00ffff; stroke: #00ffff"/>
     <use xlink:href="#mf212a7d945" x="172.037268" y="127.283405" style="fill: #00ffff; stroke: #00ffff"/>
     <use xlink:href="#mf212a7d945" x="141.881515" y="141.329201" style="fill: #00ffff; stroke: #00ffff"/>
     <use xlink:href="#mf212a7d945" x="149.083515" y="157.49776" style="fill: #00ffff; stroke: #00ffff"/>
    </g>
   </g>
   <g id="PathCollection_7">
    <defs>
     <path id="m668db974b6" d="M 0 1.5 
C 0.397805 1.5 0.77937 1.341951 1.06066 1.06066 
C 1.341951 0.77937 1.5 0.397805 1.5 0 
C 1.5 -0.397805 1.341951 -0.77937 1.06066 -1.06066 
C 0.77937 -1.341951 0.397805 -1.5 0 -1.5 
C -0.397805 -1.5 -0.77937 -1.341951 -1.06066 -1.06066 
C -1.341951 -0.77937 -1.5 -0.397805 -1.5 0 
C -1.5 0.397805 -1.341951 0.77937 -1.06066 1.06066 
C -0.77937 1.341951 -0.397805 1.5 0 1.5 
z
" style="stroke: #0000ff"/>
    </defs>
    <g clip-path="url(#pcc3483532d)">
     <use xlink:href="#m668db974b6" x="169.585221" y="187.916484" style="fill: #0000ff; stroke: #0000ff"/>
     <use xlink:href="#m668db974b6" x="190.184093" y="151.139686" style="fill: #0000ff; stroke: #0000ff"/>
     <use xlink:href="#m668db974b6" x="188.059628" y="168.792483" style="fill: #0000ff; stroke: #0000ff"/>
     <use xlink:href="#m668db974b6" x="156.416539" y="258.076231" style="fill: #0000ff; stroke: #0000ff"/>
     <use xlink:href="#m668db974b6" x="174.354839" y="197.031524" style="fill: #0000ff; stroke: #0000ff"/>
     <use xlink:href="#m668db974b6" x="164.366256" y="191.138582" style="fill: #0000ff; stroke: #0000ff"/>
     <use xlink:href="#m668db974b6" x="158.878502" y="216.720974" style="fill: #0000ff; stroke: #0000ff"/>
     <use xlink:href="#m668db974b6" x="159.109142" y="241.097744" style="fill: #0000ff; stroke: #0000ff"/>
     <use xlink:href="#m668db974b6" x="171.972115" y="177.8332" style="fill: #0000ff; stroke: #0000ff"/>
     <use xlink:href="#m668db974b6" x="149.024354" y="223.94149" style="fill: #0000ff; stroke: #0000ff"/>
     <use xlink:href="#m668db974b6" x="170.237207" y="212.919369" style="fill: #0000ff; stroke: #0000ff"/>
     <use xlink:href="#m668db974b6" x="192.05685" y="250.746051" style="fill: #0000ff; stroke: #0000ff"/>
     <use xlink:href="#m668db974b6" x="167.716944" y="212.409259" style="fill: #0000ff; stroke: #0000ff"/>
     <use xlink:href="#m668db974b6" x="164.848064" y="178.331498" style="fill: #0000ff; stroke: #0000ff"/>
     <use xlink:href="#m668db974b6" x="177.971699" y="244.411604" style="fill: #0000ff; stroke: #0000ff"/>
     <use xlink:href="#m668db974b6" x="176.799337" y="227.776818" style="fill: #0000ff; stroke: #0000ff"/>
     <use xlink:href="#m668db974b6" x="158.828338" y="237.854735" style="fill: #0000ff; stroke: #0000ff"/>
     <use xlink:href="#m668db974b6" x="198.395196" y="209.856397" style="fill: #0000ff; stroke: #0000ff"/>
     <use xlink:href="#m668db974b6" x="149.446166" y="176.624955" style="fill: #0000ff; stroke: #0000ff"/>
    </g>
   </g>
   <g id="PathCollection_8">
    <defs>
     <path id="m710aefb086" d="M 0 1.5 
C 0.397805 1.5 0.77937 1.341951 1.06066 1.06066 
C 1.341951 0.77937 1.5 0.397805 1.5 0 
C 1.5 -0.397805 1.341951 -0.77937 1.06066 -1.06066 
C 0.77937 -1.341951 0.397805 -1.5 0 -1.5 
C -0.397805 -1.5 -0.77937 -1.341951 -1.06066 -1.06066 
C -1.341951 -0.77937 -1.5 -0.397805 -1.5 0 
C -1.5 0.397805 -1.341951 0.77937 -1.06066 1.06066 
C -0.77937 1.341951 -0.397805 1.5 0 1.5 
z
" style="stroke: #dc143c"/>
    </defs>
    <g clip-path="url(#pcc3483532d)">
     <use xlink:href="#m710aefb086" x="255.339651" y="204.658377" style="fill: #dc143c; stroke: #dc143c"/>
     <use xlink:href="#m710aefb086" x="209.589516" y="223.592902" style="fill: #dc143c; stroke: #dc143c"/>
     <use xlink:href="#m710aefb086" x="250.100293" y="216.877496" style="fill: #dc143c; stroke: #dc143c"/>
     <use xlink:href="#m710aefb086" x="242.700809" y="199.491559" style="fill: #dc143c; stroke: #dc143c"/>
     <use xlink:href="#m710aefb086" x="217.106355" y="171.648885" style="fill: #dc143c; stroke: #dc143c"/>
     <use xlink:href="#m710aefb086" x="194.685032" y="174.421213" style="fill: #dc143c; stroke: #dc143c"/>
     <use xlink:href="#m710aefb086" x="225.629664" y="200.512126" style="fill: #dc143c; stroke: #dc143c"/>
     <use xlink:href="#m710aefb086" x="224.728352" y="221.591639" style="fill: #dc143c; stroke: #dc143c"/>
     <use xlink:href="#m710aefb086" x="139.71534" y="196.715742" style="fill: #dc143c; stroke: #dc143c"/>
     <use xlink:href="#m710aefb086" x="222.36459" y="227.387872" style="fill: #dc143c; stroke: #dc143c"/>
     <use xlink:href="#m710aefb086" x="230.593854" y="214.414938" style="fill: #dc143c; stroke: #dc143c"/>
     <use xlink:href="#m710aefb086" x="195.053074" y="240.838529" style="fill: #dc143c; stroke: #dc143c"/>
     <use xlink:href="#m710aefb086" x="186.843175" y="186.599676" style="fill: #dc143c; stroke: #dc143c"/>
    </g>
   </g>
   <g id="PathCollection_9">
    <defs>
     <path id="m5a0afde671" d="M 0 1.5 
C 0.397805 1.5 0.77937 1.341951 1.06066 1.06066 
C 1.341951 0.77937 1.5 0.397805 1.5 0 
C 1.5 -0.397805 1.341951 -0.77937 1.06066 -1.06066 
C 0.77937 -1.341951 0.397805 -1.5 0 -1.5 
C -0.397805 -1.5 -0.77937 -1.341951 -1.06066 -1.06066 
C -1.341951 -0.77937 -1.5 -0.397805 -1.5 0 
C -1.5 0.397805 -1.341951 0.77937 -1.06066 1.06066 
C -0.77937 1.341951 -0.397805 1.5 0 1.5 
z
" style="stroke: #ffe4c4"/>
    </defs>
    <g clip-path="url(#pcc3483532d)">
     <use xlink:href="#m5a0afde671" x="210.965152" y="169.430031" style="fill: #ffe4c4; stroke: #ffe4c4"/>
     <use xlink:href="#m5a0afde671" x="279.105481" y="71.20638" style="fill: #ffe4c4; stroke: #ffe4c4"/>
     <use xlink:href="#m5a0afde671" x="196.673594" y="151.849298" style="fill: #ffe4c4; stroke: #ffe4c4"/>
     <use xlink:href="#m5a0afde671" x="376.19196" y="23.737078" style="fill: #ffe4c4; stroke: #ffe4c4"/>
     <use xlink:href="#m5a0afde671" x="222.169117" y="158.441766" style="fill: #ffe4c4; stroke: #ffe4c4"/>
     <use xlink:href="#m5a0afde671" x="310.73283" y="49.38204" style="fill: #ffe4c4; stroke: #ffe4c4"/>
     <use xlink:href="#m5a0afde671" x="227.705791" y="136.368875" style="fill: #ffe4c4; stroke: #ffe4c4"/>
     <use xlink:href="#m5a0afde671" x="169.326714" y="144.80975" style="fill: #ffe4c4; stroke: #ffe4c4"/>
     <use xlink:href="#m5a0afde671" x="291.381417" y="109.582628" style="fill: #ffe4c4; stroke: #ffe4c4"/>
     <use xlink:href="#m5a0afde671" x="183.221489" y="138.72205" style="fill: #ffe4c4; stroke: #ffe4c4"/>
     <use xlink:href="#m5a0afde671" x="230.334876" y="159.487016" style="fill: #ffe4c4; stroke: #ffe4c4"/>
     <use xlink:href="#m5a0afde671" x="250.095665" y="134.352629" style="fill: #ffe4c4; stroke: #ffe4c4"/>
     <use xlink:href="#m5a0afde671" x="247.484949" y="158.015645" style="fill: #ffe4c4; stroke: #ffe4c4"/>
     <use xlink:href="#m5a0afde671" x="244.667145" y="151.262603" style="fill: #ffe4c4; stroke: #ffe4c4"/>
     <use xlink:href="#m5a0afde671" x="275.69202" y="89.01742" style="fill: #ffe4c4; stroke: #ffe4c4"/>
     <use xlink:href="#m5a0afde671" x="175.462789" y="170.354037" style="fill: #ffe4c4; stroke: #ffe4c4"/>
     <use xlink:href="#m5a0afde671" x="235.096824" y="128.323242" style="fill: #ffe4c4; stroke: #ffe4c4"/>
    </g>
   </g>
   <g id="PathCollection_10">
    <defs>
     <path id="m7a72ccd55e" d="M -2.99994 2.99994 
L 3.00006 2.99994 
L 3.00006 -3.00006 
L -2.99994 -3.00006 
z
" style="stroke: #000000"/>
    </defs>
    <g clip-path="url(#pcc3483532d)">
     <use xlink:href="#m7a72ccd55e" x="89.755203" y="113.245405" style="stroke: #000000"/>
     <use xlink:href="#m7a72ccd55e" x="113.95786" y="180.398906" style="stroke: #000000"/>
     <use xlink:href="#m7a72ccd55e" x="78.53234" y="67.097924" style="stroke: #000000"/>
     <use xlink:href="#m7a72ccd55e" x="63.97735" y="20.730307" style="stroke: #000000"/>
     <use xlink:href="#m7a72ccd55e" x="134.188049" y="174.806144" style="stroke: #000000"/>
     <use xlink:href="#m7a72ccd55e" x="171.346701" y="82.940537" style="stroke: #000000"/>
     <use xlink:href="#m7a72ccd55e" x="147.839318" y="178.257063" style="stroke: #000000"/>
     <use xlink:href="#m7a72ccd55e" x="84.238407" y="37.682587" style="stroke: #000000"/>
     <use xlink:href="#m7a72ccd55e" x="153.560155" y="123.355971" style="stroke: #000000"/>
     <use xlink:href="#m7a72ccd55e" x="153.888148" y="165.421996" style="stroke: #000000"/>
     <use xlink:href="#m7a72ccd55e" x="188.933187" y="170.10776" style="stroke: #000000"/>
     <use xlink:href="#m7a72ccd55e" x="148.336264" y="193.107165" style="stroke: #000000"/>
     <use xlink:href="#m7a72ccd55e" x="159.377274" y="155.223702" style="stroke: #000000"/>
     <use xlink:href="#m7a72ccd55e" x="115.724" y="63.188084" style="stroke: #000000"/>
     <use xlink:href="#m7a72ccd55e" x="129.785983" y="76.672599" style="stroke: #000000"/>
     <use xlink:href="#m7a72ccd55e" x="157.236416" y="61.645686" style="stroke: #000000"/>
     <use xlink:href="#m7a72ccd55e" x="116.528268" y="163.138463" style="stroke: #000000"/>
     <use xlink:href="#m7a72ccd55e" x="76.708712" y="29.645667" style="stroke: #000000"/>
     <use xlink:href="#m7a72ccd55e" x="143.516677" y="132.681128" style="stroke: #000000"/>
     <use xlink:href="#m7a72ccd55e" x="167.194497" y="184.126421" style="stroke: #000000"/>
     <use xlink:href="#m7a72ccd55e" x="156.856266" y="127.797911" style="stroke: #000000"/>
     <use xlink:href="#m7a72ccd55e" x="88.666604" y="59.578204" style="stroke: #000000"/>
     <use xlink:href="#m7a72ccd55e" x="144.510544" y="153.509629" style="stroke: #000000"/>
     <use xlink:href="#m7a72ccd55e" x="190.203266" y="114.186936" style="stroke: #000000"/>
     <use xlink:href="#m7a72ccd55e" x="111.429204" y="155.659463" style="stroke: #000000"/>
     <use xlink:href="#m7a72ccd55e" x="77.219403" y="61.036435" style="stroke: #000000"/>
     <use xlink:href="#m7a72ccd55e" x="131.7068" y="147.419885" style="stroke: #000000"/>
     <use xlink:href="#m7a72ccd55e" x="140.097616" y="206.499767" style="stroke: #000000"/>
     <use xlink:href="#m7a72ccd55e" x="118.902137" y="151.13986" style="stroke: #000000"/>
     <use xlink:href="#m7a72ccd55e" x="112.984771" y="131.103433" style="stroke: #000000"/>
     <use xlink:href="#m7a72ccd55e" x="135.283523" y="184.616942" style="stroke: #000000"/>
     <use xlink:href="#m7a72ccd55e" x="102.209755" y="122.259522" style="stroke: #000000"/>
     <use xlink:href="#m7a72ccd55e" x="105.425299" y="55.002856" style="stroke: #000000"/>
     <use xlink:href="#m7a72ccd55e" x="164.176729" y="133.433037" style="stroke: #000000"/>
     <use xlink:href="#m7a72ccd55e" x="113.017663" y="76.049027" style="stroke: #000000"/>
     <use xlink:href="#m7a72ccd55e" x="106.719777" y="107.284771" style="stroke: #000000"/>
     <use xlink:href="#m7a72ccd55e" x="111.308997" y="39.353994" style="stroke: #000000"/>
     <use xlink:href="#m7a72ccd55e" x="133.923088" y="194.5413" style="stroke: #000000"/>
     <use xlink:href="#m7a72ccd55e" x="140.633716" y="155.428927" style="stroke: #000000"/>
     <use xlink:href="#m7a72ccd55e" x="100.605285" y="132.74355" style="stroke: #000000"/>
     <use xlink:href="#m7a72ccd55e" x="169.722489" y="138.300579" style="stroke: #000000"/>
     <use xlink:href="#m7a72ccd55e" x="140.282991" y="197.269329" style="stroke: #000000"/>
     <use xlink:href="#m7a72ccd55e" x="117.583297" y="106.662817" style="stroke: #000000"/>
     <use xlink:href="#m7a72ccd55e" x="90.041474" y="124.298277" style="stroke: #000000"/>
     <use xlink:href="#m7a72ccd55e" x="125.492698" y="109.453806" style="stroke: #000000"/>
     <use xlink:href="#m7a72ccd55e" x="188.741726" y="175.633025" style="stroke: #000000"/>
     <use xlink:href="#m7a72ccd55e" x="119.150102" y="101.984792" style="stroke: #000000"/>
     <use xlink:href="#m7a72ccd55e" x="168.318695" y="215.642607" style="stroke: #000000"/>
     <use xlink:href="#m7a72ccd55e" x="137.459182" y="155.439213" style="stroke: #000000"/>
     <use xlink:href="#m7a72ccd55e" x="92.053284" y="106.333556" style="stroke: #000000"/>
     <use xlink:href="#m7a72ccd55e" x="51.537415" y="35.150745" style="stroke: #000000"/>
     <use xlink:href="#m7a72ccd55e" x="80.955859" y="123.542784" style="stroke: #000000"/>
     <use xlink:href="#m7a72ccd55e" x="167.83278" y="84.730509" style="stroke: #000000"/>
     <use xlink:href="#m7a72ccd55e" x="111.841331" y="97.675324" style="stroke: #000000"/>
     <use xlink:href="#m7a72ccd55e" x="71.873868" y="79.77448" style="stroke: #000000"/>
     <use xlink:href="#m7a72ccd55e" x="159.551929" y="137.196757" style="stroke: #000000"/>
     <use xlink:href="#m7a72ccd55e" x="111.332901" y="175.974481" style="stroke: #000000"/>
     <use xlink:href="#m7a72ccd55e" x="58.956259" y="59.362893" style="stroke: #000000"/>
     <use xlink:href="#m7a72ccd55e" x="131.324315" y="124.495818" style="stroke: #000000"/>
     <use xlink:href="#m7a72ccd55e" x="106.034104" y="69.505377" style="stroke: #000000"/>
     <use xlink:href="#m7a72ccd55e" x="67.93391" y="112.348342" style="stroke: #000000"/>
     <use xlink:href="#m7a72ccd55e" x="150.69561" y="109.544444" style="stroke: #000000"/>
     <use xlink:href="#m7a72ccd55e" x="111.663223" y="114.167248" style="stroke: #000000"/>
     <use xlink:href="#m7a72ccd55e" x="127.170009" y="183.163479" style="stroke: #000000"/>
    </g>
   </g>
   <g id="PathCollection_11">
    <defs>
     <path id="mb7a733fc04" d="M -3 -0 
L 3 3 
L 3 -3 
z
" style="stroke: #ff8c00"/>
    </defs>
    <g clip-path="url(#pcc3483532d)">
     <use xlink:href="#mb7a733fc04" x="133.590208" y="167.017016" style="fill: #ff8c00; stroke: #ff8c00"/>
     <use xlink:href="#mb7a733fc04" x="148.97777" y="249.738012" style="fill: #ff8c00; stroke: #ff8c00"/>
     <use xlink:href="#mb7a733fc04" x="137.123074" y="136.976291" style="fill: #ff8c00; stroke: #ff8c00"/>
     <use xlink:href="#mb7a733fc04" x="140.007002" y="224.489546" style="fill: #ff8c00; stroke: #ff8c00"/>
     <use xlink:href="#mb7a733fc04" x="116.303949" y="121.607019" style="fill: #ff8c00; stroke: #ff8c00"/>
     <use xlink:href="#mb7a733fc04" x="135.936299" y="126.037464" style="fill: #ff8c00; stroke: #ff8c00"/>
     <use xlink:href="#mb7a733fc04" x="112.963554" y="148.723206" style="fill: #ff8c00; stroke: #ff8c00"/>
     <use xlink:href="#mb7a733fc04" x="132.193516" y="162.295574" style="fill: #ff8c00; stroke: #ff8c00"/>
     <use xlink:href="#mb7a733fc04" x="151.778802" y="249.2265" style="fill: #ff8c00; stroke: #ff8c00"/>
     <use xlink:href="#mb7a733fc04" x="139.681448" y="235.952601" style="fill: #ff8c00; stroke: #ff8c00"/>
     <use xlink:href="#mb7a733fc04" x="166.101422" y="229.214808" style="fill: #ff8c00; stroke: #ff8c00"/>
     <use xlink:href="#mb7a733fc04" x="125.39886" y="149.51033" style="fill: #ff8c00; stroke: #ff8c00"/>
     <use xlink:href="#mb7a733fc04" x="130.195164" y="212.126799" style="fill: #ff8c00; stroke: #ff8c00"/>
     <use xlink:href="#mb7a733fc04" x="132.446204" y="224.191181" style="fill: #ff8c00; stroke: #ff8c00"/>
     <use xlink:href="#mb7a733fc04" x="138.119426" y="203.528734" style="fill: #ff8c00; stroke: #ff8c00"/>
     <use xlink:href="#mb7a733fc04" x="129.613108" y="185.536126" style="fill: #ff8c00; stroke: #ff8c00"/>
     <use xlink:href="#mb7a733fc04" x="149.379243" y="211.186795" style="fill: #ff8c00; stroke: #ff8c00"/>
     <use xlink:href="#mb7a733fc04" x="143.30917" y="119.108856" style="fill: #ff8c00; stroke: #ff8c00"/>
     <use xlink:href="#mb7a733fc04" x="104.006428" y="42.40664" style="fill: #ff8c00; stroke: #ff8c00"/>
     <use xlink:href="#mb7a733fc04" x="135.875939" y="178.738355" style="fill: #ff8c00; stroke: #ff8c00"/>
     <use xlink:href="#mb7a733fc04" x="131.730883" y="166.101619" style="fill: #ff8c00; stroke: #ff8c00"/>
     <use xlink:href="#mb7a733fc04" x="110.871417" y="120.502995" style="fill: #ff8c00; stroke: #ff8c00"/>
     <use xlink:href="#mb7a733fc04" x="161.508946" y="249.888994" style="fill: #ff8c00; stroke: #ff8c00"/>
     <use xlink:href="#mb7a733fc04" x="127.32816" y="134.769411" style="fill: #ff8c00; stroke: #ff8c00"/>
     <use xlink:href="#mb7a733fc04" x="137.295243" y="222.920952" style="fill: #ff8c00; stroke: #ff8c00"/>
     <use xlink:href="#mb7a733fc04" x="137.331263" y="199.433205" style="fill: #ff8c00; stroke: #ff8c00"/>
     <use xlink:href="#mb7a733fc04" x="114.274551" y="154.398329" style="fill: #ff8c00; stroke: #ff8c00"/>
     <use xlink:href="#mb7a733fc04" x="142.292005" y="140.522515" style="fill: #ff8c00; stroke: #ff8c00"/>
     <use xlink:href="#mb7a733fc04" x="136.328581" y="138.51757" style="fill: #ff8c00; stroke: #ff8c00"/>
     <use xlink:href="#mb7a733fc04" x="134.153379" y="207.428708" style="fill: #ff8c00; stroke: #ff8c00"/>
     <use xlink:href="#mb7a733fc04" x="126.990662" y="190.893588" style="fill: #ff8c00; stroke: #ff8c00"/>
     <use xlink:href="#mb7a733fc04" x="159.614348" y="255.167273" style="fill: #ff8c00; stroke: #ff8c00"/>
     <use xlink:href="#mb7a733fc04" x="129.302347" y="234.626404" style="fill: #ff8c00; stroke: #ff8c00"/>
     <use xlink:href="#mb7a733fc04" x="134.199632" y="200.657372" style="fill: #ff8c00; stroke: #ff8c00"/>
     <use xlink:href="#mb7a733fc04" x="110.179568" y="63.691848" style="fill: #ff8c00; stroke: #ff8c00"/>
     <use xlink:href="#mb7a733fc04" x="119.258295" y="93.572583" style="fill: #ff8c00; stroke: #ff8c00"/>
     <use xlink:href="#mb7a733fc04" x="133.851946" y="211.921916" style="fill: #ff8c00; stroke: #ff8c00"/>
     <use xlink:href="#mb7a733fc04" x="128.531728" y="206.989273" style="fill: #ff8c00; stroke: #ff8c00"/>
     <use xlink:href="#mb7a733fc04" x="152.167655" y="208.452811" style="fill: #ff8c00; stroke: #ff8c00"/>
     <use xlink:href="#mb7a733fc04" x="137.482541" y="207.947094" style="fill: #ff8c00; stroke: #ff8c00"/>
     <use xlink:href="#mb7a733fc04" x="139.911627" y="156.490907" style="fill: #ff8c00; stroke: #ff8c00"/>
     <use xlink:href="#mb7a733fc04" x="111.352813" y="127.1112" style="fill: #ff8c00; stroke: #ff8c00"/>
     <use xlink:href="#mb7a733fc04" x="107.996518" y="86.887477" style="fill: #ff8c00; stroke: #ff8c00"/>
     <use xlink:href="#mb7a733fc04" x="126.757956" y="133.4649" style="fill: #ff8c00; stroke: #ff8c00"/>
     <use xlink:href="#mb7a733fc04" x="156.436078" y="255.785254" style="fill: #ff8c00; stroke: #ff8c00"/>
     <use xlink:href="#mb7a733fc04" x="101.850293" y="128.693025" style="fill: #ff8c00; stroke: #ff8c00"/>
     <use xlink:href="#mb7a733fc04" x="120.455624" y="118.905035" style="fill: #ff8c00; stroke: #ff8c00"/>
     <use xlink:href="#mb7a733fc04" x="146.681542" y="251.867223" style="fill: #ff8c00; stroke: #ff8c00"/>
     <use xlink:href="#mb7a733fc04" x="152.19067" y="219.654954" style="fill: #ff8c00; stroke: #ff8c00"/>
     <use xlink:href="#mb7a733fc04" x="151.752401" y="182.748829" style="fill: #ff8c00; stroke: #ff8c00"/>
     <use xlink:href="#mb7a733fc04" x="149.701913" y="210.238821" style="fill: #ff8c00; stroke: #ff8c00"/>
     <use xlink:href="#mb7a733fc04" x="98.605754" y="76.930895" style="fill: #ff8c00; stroke: #ff8c00"/>
     <use xlink:href="#mb7a733fc04" x="139.162359" y="161.694451" style="fill: #ff8c00; stroke: #ff8c00"/>
     <use xlink:href="#mb7a733fc04" x="134.769792" y="159.634831" style="fill: #ff8c00; stroke: #ff8c00"/>
     <use xlink:href="#mb7a733fc04" x="143.075921" y="246.128949" style="fill: #ff8c00; stroke: #ff8c00"/>
     <use xlink:href="#mb7a733fc04" x="146.80151" y="186.156931" style="fill: #ff8c00; stroke: #ff8c00"/>
     <use xlink:href="#mb7a733fc04" x="115.864508" y="127.861419" style="fill: #ff8c00; stroke: #ff8c00"/>
     <use xlink:href="#mb7a733fc04" x="138.162911" y="216.370502" style="fill: #ff8c00; stroke: #ff8c00"/>
     <use xlink:href="#mb7a733fc04" x="136.724904" y="177.219164" style="fill: #ff8c00; stroke: #ff8c00"/>
     <use xlink:href="#mb7a733fc04" x="127.958048" y="106.363799" style="fill: #ff8c00; stroke: #ff8c00"/>
     <use xlink:href="#mb7a733fc04" x="145.745909" y="219.141438" style="fill: #ff8c00; stroke: #ff8c00"/>
     <use xlink:href="#mb7a733fc04" x="135.285981" y="236.067692" style="fill: #ff8c00; stroke: #ff8c00"/>
     <use xlink:href="#mb7a733fc04" x="131.574481" y="192.96978" style="fill: #ff8c00; stroke: #ff8c00"/>
     <use xlink:href="#mb7a733fc04" x="133.757295" y="168.175892" style="fill: #ff8c00; stroke: #ff8c00"/>
    </g>
   </g>
   <g id="matplotlib.axis_1">
    <g id="xtick_1">
     <g id="line2d_1">
      <defs>
       <path id="m36706a4a4a" d="M 0 0 
L 0 3.5 
" style="stroke: #000000; stroke-width: 0.8"/>
      </defs>
      <g>
       <use xlink:href="#m36706a4a4a" x="58.281878" y="274.746307" style="stroke: #000000; stroke-width: 0.8"/>
      </g>
     </g>
     <g id="text_1">
      <!-- −20 -->
      <g transform="translate(47.729535 289.344745) scale(0.1 -0.1)">
       <defs>
        <path id="DejaVuSans-2212" d="M 678 2272 
L 4684 2272 
L 4684 1741 
L 678 1741 
L 678 2272 
z
" transform="scale(0.015625)"/>
        <path id="DejaVuSans-32" d="M 1228 531 
L 3431 531 
L 3431 0 
L 469 0 
L 469 531 
Q 828 903 1448 1529 
Q 2069 2156 2228 2338 
Q 2531 2678 2651 2914 
Q 2772 3150 2772 3378 
Q 2772 3750 2511 3984 
Q 2250 4219 1831 4219 
Q 1534 4219 1204 4116 
Q 875 4013 500 3803 
L 500 4441 
Q 881 4594 1212 4672 
Q 1544 4750 1819 4750 
Q 2544 4750 2975 4387 
Q 3406 4025 3406 3419 
Q 3406 3131 3298 2873 
Q 3191 2616 2906 2266 
Q 2828 2175 2409 1742 
Q 1991 1309 1228 531 
z
" transform="scale(0.015625)"/>
        <path id="DejaVuSans-30" d="M 2034 4250 
Q 1547 4250 1301 3770 
Q 1056 3291 1056 2328 
Q 1056 1369 1301 889 
Q 1547 409 2034 409 
Q 2525 409 2770 889 
Q 3016 1369 3016 2328 
Q 3016 3291 2770 3770 
Q 2525 4250 2034 4250 
z
M 2034 4750 
Q 2819 4750 3233 4129 
Q 3647 3509 3647 2328 
Q 3647 1150 3233 529 
Q 2819 -91 2034 -91 
Q 1250 -91 836 529 
Q 422 1150 422 2328 
Q 422 3509 836 4129 
Q 1250 4750 2034 4750 
z
" transform="scale(0.015625)"/>
       </defs>
       <use xlink:href="#DejaVuSans-2212"/>
       <use xlink:href="#DejaVuSans-32" x="83.789062"/>
       <use xlink:href="#DejaVuSans-30" x="147.412109"/>
      </g>
     </g>
    </g>
    <g id="xtick_2">
     <g id="line2d_2">
      <g>
       <use xlink:href="#m36706a4a4a" x="110.468517" y="274.746307" style="stroke: #000000; stroke-width: 0.8"/>
      </g>
     </g>
     <g id="text_2">
      <!-- −10 -->
      <g transform="translate(99.916173 289.344745) scale(0.1 -0.1)">
       <defs>
        <path id="DejaVuSans-31" d="M 794 531 
L 1825 531 
L 1825 4091 
L 703 3866 
L 703 4441 
L 1819 4666 
L 2450 4666 
L 2450 531 
L 3481 531 
L 3481 0 
L 794 0 
L 794 531 
z
" transform="scale(0.015625)"/>
       </defs>
       <use xlink:href="#DejaVuSans-2212"/>
       <use xlink:href="#DejaVuSans-31" x="83.789062"/>
       <use xlink:href="#DejaVuSans-30" x="147.412109"/>
      </g>
     </g>
    </g>
    <g id="xtick_3">
     <g id="line2d_3">
      <g>
       <use xlink:href="#m36706a4a4a" x="162.655155" y="274.746307" style="stroke: #000000; stroke-width: 0.8"/>
      </g>
     </g>
     <g id="text_3">
      <!-- 0 -->
      <g transform="translate(159.473905 289.344745) scale(0.1 -0.1)">
       <use xlink:href="#DejaVuSans-30"/>
      </g>
     </g>
    </g>
    <g id="xtick_4">
     <g id="line2d_4">
      <g>
       <use xlink:href="#m36706a4a4a" x="214.841793" y="274.746307" style="stroke: #000000; stroke-width: 0.8"/>
      </g>
     </g>
     <g id="text_4">
      <!-- 10 -->
      <g transform="translate(208.479293 289.344745) scale(0.1 -0.1)">
       <use xlink:href="#DejaVuSans-31"/>
       <use xlink:href="#DejaVuSans-30" x="63.623047"/>
      </g>
     </g>
    </g>
    <g id="xtick_5">
     <g id="line2d_5">
      <g>
       <use xlink:href="#m36706a4a4a" x="267.028432" y="274.746307" style="stroke: #000000; stroke-width: 0.8"/>
      </g>
     </g>
     <g id="text_5">
      <!-- 20 -->
      <g transform="translate(260.665932 289.344745) scale(0.1 -0.1)">
       <use xlink:href="#DejaVuSans-32"/>
       <use xlink:href="#DejaVuSans-30" x="63.623047"/>
      </g>
     </g>
    </g>
    <g id="xtick_6">
     <g id="line2d_6">
      <g>
       <use xlink:href="#m36706a4a4a" x="319.21507" y="274.746307" style="stroke: #000000; stroke-width: 0.8"/>
      </g>
     </g>
     <g id="text_6">
      <!-- 30 -->
      <g transform="translate(312.85257 289.344745) scale(0.1 -0.1)">
       <defs>
        <path id="DejaVuSans-33" d="M 2597 2516 
Q 3050 2419 3304 2112 
Q 3559 1806 3559 1356 
Q 3559 666 3084 287 
Q 2609 -91 1734 -91 
Q 1441 -91 1130 -33 
Q 819 25 488 141 
L 488 750 
Q 750 597 1062 519 
Q 1375 441 1716 441 
Q 2309 441 2620 675 
Q 2931 909 2931 1356 
Q 2931 1769 2642 2001 
Q 2353 2234 1838 2234 
L 1294 2234 
L 1294 2753 
L 1863 2753 
Q 2328 2753 2575 2939 
Q 2822 3125 2822 3475 
Q 2822 3834 2567 4026 
Q 2313 4219 1838 4219 
Q 1578 4219 1281 4162 
Q 984 4106 628 3988 
L 628 4550 
Q 988 4650 1302 4700 
Q 1616 4750 1894 4750 
Q 2613 4750 3031 4423 
Q 3450 4097 3450 3541 
Q 3450 3153 3228 2886 
Q 3006 2619 2597 2516 
z
" transform="scale(0.015625)"/>
       </defs>
       <use xlink:href="#DejaVuSans-33"/>
       <use xlink:href="#DejaVuSans-30" x="63.623047"/>
      </g>
     </g>
    </g>
    <g id="xtick_7">
     <g id="line2d_7">
      <g>
       <use xlink:href="#m36706a4a4a" x="371.401708" y="274.746307" style="stroke: #000000; stroke-width: 0.8"/>
      </g>
     </g>
     <g id="text_7">
      <!-- 40 -->
      <g transform="translate(365.039208 289.344745) scale(0.1 -0.1)">
       <defs>
        <path id="DejaVuSans-34" d="M 2419 4116 
L 825 1625 
L 2419 1625 
L 2419 4116 
z
M 2253 4666 
L 3047 4666 
L 3047 1625 
L 3713 1625 
L 3713 1100 
L 3047 1100 
L 3047 0 
L 2419 0 
L 2419 1100 
L 313 1100 
L 313 1709 
L 2253 4666 
z
" transform="scale(0.015625)"/>
       </defs>
       <use xlink:href="#DejaVuSans-34"/>
       <use xlink:href="#DejaVuSans-30" x="63.623047"/>
      </g>
     </g>
    </g>
   </g>
   <g id="matplotlib.axis_2">
    <g id="ytick_1">
     <g id="line2d_8">
      <defs>
       <path id="mc6906fae83" d="M 0 0 
L -3.5 0 
" style="stroke: #000000; stroke-width: 0.8"/>
      </defs>
      <g>
       <use xlink:href="#mc6906fae83" x="35.304688" y="249.076966" style="stroke: #000000; stroke-width: 0.8"/>
      </g>
     </g>
     <g id="text_8">
      <!-- −15 -->
      <g transform="translate(7.2 252.876184) scale(0.1 -0.1)">
       <defs>
        <path id="DejaVuSans-35" d="M 691 4666 
L 3169 4666 
L 3169 4134 
L 1269 4134 
L 1269 2991 
Q 1406 3038 1543 3061 
Q 1681 3084 1819 3084 
Q 2600 3084 3056 2656 
Q 3513 2228 3513 1497 
Q 3513 744 3044 326 
Q 2575 -91 1722 -91 
Q 1428 -91 1123 -41 
Q 819 9 494 109 
L 494 744 
Q 775 591 1075 516 
Q 1375 441 1709 441 
Q 2250 441 2565 725 
Q 2881 1009 2881 1497 
Q 2881 1984 2565 2268 
Q 2250 2553 1709 2553 
Q 1456 2553 1204 2497 
Q 953 2441 691 2322 
L 691 4666 
z
" transform="scale(0.015625)"/>
       </defs>
       <use xlink:href="#DejaVuSans-2212"/>
       <use xlink:href="#DejaVuSans-31" x="83.789062"/>
       <use xlink:href="#DejaVuSans-35" x="147.412109"/>
      </g>
     </g>
    </g>
    <g id="ytick_2">
     <g id="line2d_9">
      <g>
       <use xlink:href="#mc6906fae83" x="35.304688" y="219.317247" style="stroke: #000000; stroke-width: 0.8"/>
      </g>
     </g>
     <g id="text_9">
      <!-- −10 -->
      <g transform="translate(7.2 223.116466) scale(0.1 -0.1)">
       <use xlink:href="#DejaVuSans-2212"/>
       <use xlink:href="#DejaVuSans-31" x="83.789062"/>
       <use xlink:href="#DejaVuSans-30" x="147.412109"/>
      </g>
     </g>
    </g>
    <g id="ytick_3">
     <g id="line2d_10">
      <g>
       <use xlink:href="#mc6906fae83" x="35.304688" y="189.557529" style="stroke: #000000; stroke-width: 0.8"/>
      </g>
     </g>
     <g id="text_10">
      <!-- −5 -->
      <g transform="translate(13.5625 193.356748) scale(0.1 -0.1)">
       <use xlink:href="#DejaVuSans-2212"/>
       <use xlink:href="#DejaVuSans-35" x="83.789062"/>
      </g>
     </g>
    </g>
    <g id="ytick_4">
     <g id="line2d_11">
      <g>
       <use xlink:href="#mc6906fae83" x="35.304688" y="159.797811" style="stroke: #000000; stroke-width: 0.8"/>
      </g>
     </g>
     <g id="text_11">
      <!-- 0 -->
      <g transform="translate(21.942187 163.597029) scale(0.1 -0.1)">
       <use xlink:href="#DejaVuSans-30"/>
      </g>
     </g>
    </g>
    <g id="ytick_5">
     <g id="line2d_12">
      <g>
       <use xlink:href="#mc6906fae83" x="35.304688" y="130.038092" style="stroke: #000000; stroke-width: 0.8"/>
      </g>
     </g>
     <g id="text_12">
      <!-- 5 -->
      <g transform="translate(21.942187 133.837311) scale(0.1 -0.1)">
       <use xlink:href="#DejaVuSans-35"/>
      </g>
     </g>
    </g>
    <g id="ytick_6">
     <g id="line2d_13">
      <g>
       <use xlink:href="#mc6906fae83" x="35.304688" y="100.278374" style="stroke: #000000; stroke-width: 0.8"/>
      </g>
     </g>
     <g id="text_13">
      <!-- 10 -->
      <g transform="translate(15.579687 104.077593) scale(0.1 -0.1)">
       <use xlink:href="#DejaVuSans-31"/>
       <use xlink:href="#DejaVuSans-30" x="63.623047"/>
      </g>
     </g>
    </g>
    <g id="ytick_7">
     <g id="line2d_14">
      <g>
       <use xlink:href="#mc6906fae83" x="35.304688" y="70.518655" style="stroke: #000000; stroke-width: 0.8"/>
      </g>
     </g>
     <g id="text_14">
      <!-- 15 -->
      <g transform="translate(15.579687 74.317874) scale(0.1 -0.1)">
       <use xlink:href="#DejaVuSans-31"/>
       <use xlink:href="#DejaVuSans-35" x="63.623047"/>
      </g>
     </g>
    </g>
    <g id="ytick_8">
     <g id="line2d_15">
      <g>
       <use xlink:href="#mc6906fae83" x="35.304688" y="40.758937" style="stroke: #000000; stroke-width: 0.8"/>
      </g>
     </g>
     <g id="text_15">
      <!-- 20 -->
      <g transform="translate(15.579687 44.558156) scale(0.1 -0.1)">
       <use xlink:href="#DejaVuSans-32"/>
       <use xlink:href="#DejaVuSans-30" x="63.623047"/>
      </g>
     </g>
    </g>
    <g id="ytick_9">
     <g id="line2d_16">
      <g>
       <use xlink:href="#mc6906fae83" x="35.304688" y="10.999219" style="stroke: #000000; stroke-width: 0.8"/>
      </g>
     </g>
     <g id="text_16">
      <!-- 25 -->
      <g transform="translate(15.579687 14.798437) scale(0.1 -0.1)">
       <use xlink:href="#DejaVuSans-32"/>
       <use xlink:href="#DejaVuSans-35" x="63.623047"/>
      </g>
     </g>
    </g>
   </g>
   <g id="patch_3">
    <path d="M 35.304688 274.746307 
L 35.304688 8.634307 
" style="fill: none; stroke: #000000; stroke-width: 0.8; stroke-linejoin: miter; stroke-linecap: square"/>
   </g>
   <g id="patch_4">
    <path d="M 392.424688 274.746307 
L 392.424688 8.634307 
" style="fill: none; stroke: #000000; stroke-width: 0.8; stroke-linejoin: miter; stroke-linecap: square"/>
   </g>
   <g id="patch_5">
    <path d="M 35.304687 274.746307 
L 392.424688 274.746307 
" style="fill: none; stroke: #000000; stroke-width: 0.8; stroke-linejoin: miter; stroke-linecap: square"/>
   </g>
   <g id="patch_6">
    <path d="M 35.304687 8.634307 
L 392.424688 8.634307 
" style="fill: none; stroke: #000000; stroke-width: 0.8; stroke-linejoin: miter; stroke-linecap: square"/>
   </g>
  </g>
 </g>
 <defs>
  <clipPath id="pcc3483532d">
   <rect x="35.304688" y="8.634307" width="357.12" height="266.112"/>
  </clipPath>
 </defs>
</svg>
