<?xml version="1.0" encoding="utf-8" standalone="no"?>
<!DOCTYPE svg PUBLIC "-//W3C//DTD SVG 1.1//EN"
  "http://www.w3.org/Graphics/SVG/1.1/DTD/svg11.dtd">
<svg xmlns:xlink="http://www.w3.org/1999/xlink" width="399.624687pt" height="297.190125pt" viewBox="0 0 399.624687 297.190125" xmlns="http://www.w3.org/2000/svg" version="1.1">
 <metadata>
  <rdf:RDF xmlns:dc="http://purl.org/dc/elements/1.1/" xmlns:cc="http://creativecommons.org/ns#" xmlns:rdf="http://www.w3.org/1999/02/22-rdf-syntax-ns#">
   <cc:Work>
    <dc:type rdf:resource="http://purl.org/dc/dcmitype/StillImage"/>
    <dc:date>2023-11-11T04:03:23.714476</dc:date>
    <dc:format>image/svg+xml</dc:format>
    <dc:creator>
     <cc:Agent>
      <dc:title>Matplotlib v3.8.0, https://matplotlib.org/</dc:title>
     </cc:Agent>
    </dc:creator>
   </cc:Work>
  </rdf:RDF>
 </metadata>
 <defs>
  <style type="text/css">*{stroke-linejoin: round; stroke-linecap: butt}</style>
 </defs>
 <g id="figure_1">
  <g id="patch_1">
   <path d="M 0 297.190125 
L 399.624687 297.190125 
L 399.624687 0 
L 0 0 
z
" style="fill: #ffffff"/>
  </g>
  <g id="axes_1">
   <g id="patch_2">
    <path d="M 35.304688 273.312 
L 392.424688 273.312 
L 392.424688 7.2 
L 35.304688 7.2 
z
" style="fill: #ffffff"/>
   </g>
   <g id="PathCollection_1">
    <defs>
     <path id="m548a863176" d="M 0 1.5 
C 0.397805 1.5 0.77937 1.341951 1.06066 1.06066 
C 1.341951 0.77937 1.5 0.397805 1.5 0 
C 1.5 -0.397805 1.341951 -0.77937 1.06066 -1.06066 
C 0.77937 -1.341951 0.397805 -1.5 0 -1.5 
C -0.397805 -1.5 -0.77937 -1.341951 -1.06066 -1.06066 
C -1.341951 -0.77937 -1.5 -0.397805 -1.5 0 
C -1.5 0.397805 -1.341951 0.77937 -1.06066 1.06066 
C -0.77937 1.341951 -0.397805 1.5 0 1.5 
z
" style="stroke: #ff8c00"/>
    </defs>
    <g clip-path="url(#pbdfaa6eb8b)">
     <use xlink:href="#m548a863176" x="110.53831" y="215.637175" style="fill: #ff8c00; stroke: #ff8c00"/>
     <use xlink:href="#m548a863176" x="146.650337" y="242.309363" style="fill: #ff8c00; stroke: #ff8c00"/>
     <use xlink:href="#m548a863176" x="180.17846" y="187.093361" style="fill: #ff8c00; stroke: #ff8c00"/>
     <use xlink:href="#m548a863176" x="138.734273" y="184.444464" style="fill: #ff8c00; stroke: #ff8c00"/>
     <use xlink:href="#m548a863176" x="182.646117" y="201.0896" style="fill: #ff8c00; stroke: #ff8c00"/>
     <use xlink:href="#m548a863176" x="274.82165" y="191.146723" style="fill: #ff8c00; stroke: #ff8c00"/>
     <use xlink:href="#m548a863176" x="147.352774" y="221.494999" style="fill: #ff8c00; stroke: #ff8c00"/>
     <use xlink:href="#m548a863176" x="217.778109" y="227.764582" style="fill: #ff8c00; stroke: #ff8c00"/>
     <use xlink:href="#m548a863176" x="149.757181" y="247.130689" style="fill: #ff8c00; stroke: #ff8c00"/>
     <use xlink:href="#m548a863176" x="168.352445" y="235.959261" style="fill: #ff8c00; stroke: #ff8c00"/>
     <use xlink:href="#m548a863176" x="163.886696" y="215.111697" style="fill: #ff8c00; stroke: #ff8c00"/>
     <use xlink:href="#m548a863176" x="172.623643" y="226.931337" style="fill: #ff8c00; stroke: #ff8c00"/>
     <use xlink:href="#m548a863176" x="173.378882" y="222.448065" style="fill: #ff8c00; stroke: #ff8c00"/>
    </g>
   </g>
   <g id="PathCollection_2">
    <defs>
     <path id="m269d0ecc26" d="M 0 1.5 
C 0.397805 1.5 0.77937 1.341951 1.06066 1.06066 
C 1.341951 0.77937 1.5 0.397805 1.5 0 
C 1.5 -0.397805 1.341951 -0.77937 1.06066 -1.06066 
C 0.77937 -1.341951 0.397805 -1.5 0 -1.5 
C -0.397805 -1.5 -0.77937 -1.341951 -1.06066 -1.06066 
C -1.341951 -0.77937 -1.5 -0.397805 -1.5 0 
C -1.5 0.397805 -1.341951 0.77937 -1.06066 1.06066 
C -0.77937 1.341951 -0.397805 1.5 0 1.5 
z
" style="stroke: #006400"/>
    </defs>
    <g clip-path="url(#pbdfaa6eb8b)">
     <use xlink:href="#m269d0ecc26" x="270.638728" y="169.879781" style="fill: #006400; stroke: #006400"/>
     <use xlink:href="#m269d0ecc26" x="163.341529" y="213.977794" style="fill: #006400; stroke: #006400"/>
     <use xlink:href="#m269d0ecc26" x="205.318772" y="204.88112" style="fill: #006400; stroke: #006400"/>
     <use xlink:href="#m269d0ecc26" x="287.010665" y="183.464505" style="fill: #006400; stroke: #006400"/>
     <use xlink:href="#m269d0ecc26" x="282.218211" y="140.920566" style="fill: #006400; stroke: #006400"/>
     <use xlink:href="#m269d0ecc26" x="258.790514" y="172.744639" style="fill: #006400; stroke: #006400"/>
     <use xlink:href="#m269d0ecc26" x="259.054016" y="153.221528" style="fill: #006400; stroke: #006400"/>
     <use xlink:href="#m269d0ecc26" x="264.730066" y="127.595061" style="fill: #006400; stroke: #006400"/>
     <use xlink:href="#m269d0ecc26" x="206.759209" y="156.110327" style="fill: #006400; stroke: #006400"/>
     <use xlink:href="#m269d0ecc26" x="185.256976" y="213.254305" style="fill: #006400; stroke: #006400"/>
     <use xlink:href="#m269d0ecc26" x="260.399707" y="210.27992" style="fill: #006400; stroke: #006400"/>
     <use xlink:href="#m269d0ecc26" x="318.753854" y="192.467172" style="fill: #006400; stroke: #006400"/>
     <use xlink:href="#m269d0ecc26" x="376.19196" y="19.296" style="fill: #006400; stroke: #006400"/>
     <use xlink:href="#m269d0ecc26" x="354.644984" y="109.782323" style="fill: #006400; stroke: #006400"/>
     <use xlink:href="#m269d0ecc26" x="304.435841" y="142.597169" style="fill: #006400; stroke: #006400"/>
     <use xlink:href="#m269d0ecc26" x="187.930324" y="193.149735" style="fill: #006400; stroke: #006400"/>
     <use xlink:href="#m269d0ecc26" x="247.051927" y="190.893759" style="fill: #006400; stroke: #006400"/>
     <use xlink:href="#m269d0ecc26" x="298.509323" y="184.152961" style="fill: #006400; stroke: #006400"/>
    </g>
   </g>
   <g id="PathCollection_3">
    <defs>
     <path id="m58fa4d5606" d="M 0 1.5 
C 0.397805 1.5 0.77937 1.341951 1.06066 1.06066 
C 1.341951 0.77937 1.5 0.397805 1.5 0 
C 1.5 -0.397805 1.341951 -0.77937 1.06066 -1.06066 
C 0.77937 -1.341951 0.397805 -1.5 0 -1.5 
C -0.397805 -1.5 -0.77937 -1.341951 -1.06066 -1.06066 
C -1.341951 -0.77937 -1.5 -0.397805 -1.5 0 
C -1.5 0.397805 -1.341951 0.77937 -1.06066 1.06066 
C -0.77937 1.341951 -0.397805 1.5 0 1.5 
z
" style="stroke: #2f4f4f"/>
    </defs>
    <g clip-path="url(#pbdfaa6eb8b)">
     <use xlink:href="#m58fa4d5606" x="123.414379" y="198.059375" style="fill: #2f4f4f; stroke: #2f4f4f"/>
     <use xlink:href="#m58fa4d5606" x="148.719315" y="222.100641" style="fill: #2f4f4f; stroke: #2f4f4f"/>
     <use xlink:href="#m58fa4d5606" x="157.14792" y="228.667125" style="fill: #2f4f4f; stroke: #2f4f4f"/>
     <use xlink:href="#m58fa4d5606" x="104.161653" y="203.975879" style="fill: #2f4f4f; stroke: #2f4f4f"/>
     <use xlink:href="#m58fa4d5606" x="126.613017" y="205.605783" style="fill: #2f4f4f; stroke: #2f4f4f"/>
     <use xlink:href="#m58fa4d5606" x="102.991774" y="167.619638" style="fill: #2f4f4f; stroke: #2f4f4f"/>
     <use xlink:href="#m58fa4d5606" x="149.839374" y="203.531946" style="fill: #2f4f4f; stroke: #2f4f4f"/>
     <use xlink:href="#m58fa4d5606" x="71.382439" y="197.872445" style="fill: #2f4f4f; stroke: #2f4f4f"/>
     <use xlink:href="#m58fa4d5606" x="104.867423" y="217.553047" style="fill: #2f4f4f; stroke: #2f4f4f"/>
     <use xlink:href="#m58fa4d5606" x="95.805908" y="221.067928" style="fill: #2f4f4f; stroke: #2f4f4f"/>
    </g>
   </g>
   <g id="PathCollection_4">
    <defs>
     <path id="m96abce26e8" d="M 0 1.5 
C 0.397805 1.5 0.77937 1.341951 1.06066 1.06066 
C 1.341951 0.77937 1.5 0.397805 1.5 0 
C 1.5 -0.397805 1.341951 -0.77937 1.06066 -1.06066 
C 0.77937 -1.341951 0.397805 -1.5 0 -1.5 
C -0.397805 -1.5 -0.77937 -1.341951 -1.06066 -1.06066 
C -1.341951 -0.77937 -1.5 -0.397805 -1.5 0 
C -1.5 0.397805 -1.341951 0.77937 -1.06066 1.06066 
C -0.77937 1.341951 -0.397805 1.5 0 1.5 
z
" style="stroke: #00bfff"/>
    </defs>
    <g clip-path="url(#pbdfaa6eb8b)">
     <use xlink:href="#m96abce26e8" x="133.679996" y="224.695482" style="fill: #00bfff; stroke: #00bfff"/>
     <use xlink:href="#m96abce26e8" x="118.586782" y="208.136785" style="fill: #00bfff; stroke: #00bfff"/>
     <use xlink:href="#m96abce26e8" x="134.128623" y="211.357809" style="fill: #00bfff; stroke: #00bfff"/>
     <use xlink:href="#m96abce26e8" x="154.623256" y="220.344637" style="fill: #00bfff; stroke: #00bfff"/>
     <use xlink:href="#m96abce26e8" x="115.382225" y="222.159243" style="fill: #00bfff; stroke: #00bfff"/>
     <use xlink:href="#m96abce26e8" x="127.118023" y="224.556082" style="fill: #00bfff; stroke: #00bfff"/>
     <use xlink:href="#m96abce26e8" x="104.78465" y="227.708681" style="fill: #00bfff; stroke: #00bfff"/>
     <use xlink:href="#m96abce26e8" x="164.219176" y="225.734912" style="fill: #00bfff; stroke: #00bfff"/>
     <use xlink:href="#m96abce26e8" x="163.341396" y="238.184442" style="fill: #00bfff; stroke: #00bfff"/>
     <use xlink:href="#m96abce26e8" x="82.965345" y="202.943188" style="fill: #00bfff; stroke: #00bfff"/>
     <use xlink:href="#m96abce26e8" x="170.403141" y="199.580689" style="fill: #00bfff; stroke: #00bfff"/>
     <use xlink:href="#m96abce26e8" x="147.439982" y="192.210727" style="fill: #00bfff; stroke: #00bfff"/>
     <use xlink:href="#m96abce26e8" x="156.265909" y="221.632122" style="fill: #00bfff; stroke: #00bfff"/>
     <use xlink:href="#m96abce26e8" x="152.904166" y="230.155634" style="fill: #00bfff; stroke: #00bfff"/>
     <use xlink:href="#m96abce26e8" x="147.234762" y="193.824285" style="fill: #00bfff; stroke: #00bfff"/>
     <use xlink:href="#m96abce26e8" x="131.922986" y="210.473552" style="fill: #00bfff; stroke: #00bfff"/>
     <use xlink:href="#m96abce26e8" x="150.696878" y="221.345978" style="fill: #00bfff; stroke: #00bfff"/>
     <use xlink:href="#m96abce26e8" x="118.829911" y="207.789677" style="fill: #00bfff; stroke: #00bfff"/>
    </g>
   </g>
   <g id="PathCollection_5">
    <defs>
     <path id="m037e3fa915" d="M 0 1.5 
C 0.397805 1.5 0.77937 1.341951 1.06066 1.06066 
C 1.341951 0.77937 1.5 0.397805 1.5 0 
C 1.5 -0.397805 1.341951 -0.77937 1.06066 -1.06066 
C 0.77937 -1.341951 0.397805 -1.5 0 -1.5 
C -0.397805 -1.5 -0.77937 -1.341951 -1.06066 -1.06066 
C -1.341951 -0.77937 -1.5 -0.397805 -1.5 0 
C -1.5 0.397805 -1.341951 0.77937 -1.06066 1.06066 
C -0.77937 1.341951 -0.397805 1.5 0 1.5 
z
" style="stroke: #ffff00"/>
    </defs>
    <g clip-path="url(#pbdfaa6eb8b)">
     <use xlink:href="#m037e3fa915" x="117.445" y="194.504633" style="fill: #ffff00; stroke: #ffff00"/>
     <use xlink:href="#m037e3fa915" x="123.628897" y="225.95331" style="fill: #ffff00; stroke: #ffff00"/>
     <use xlink:href="#m037e3fa915" x="95.686372" y="170.155566" style="fill: #ffff00; stroke: #ffff00"/>
     <use xlink:href="#m037e3fa915" x="128.894283" y="211.105594" style="fill: #ffff00; stroke: #ffff00"/>
     <use xlink:href="#m037e3fa915" x="120.139355" y="220.598718" style="fill: #ffff00; stroke: #ffff00"/>
     <use xlink:href="#m037e3fa915" x="137.188832" y="183.86133" style="fill: #ffff00; stroke: #ffff00"/>
     <use xlink:href="#m037e3fa915" x="132.630762" y="205.362297" style="fill: #ffff00; stroke: #ffff00"/>
     <use xlink:href="#m037e3fa915" x="132.615815" y="219.741735" style="fill: #ffff00; stroke: #ffff00"/>
     <use xlink:href="#m037e3fa915" x="104.960876" y="201.787231" style="fill: #ffff00; stroke: #ffff00"/>
     <use xlink:href="#m037e3fa915" x="152.166257" y="222.17733" style="fill: #ffff00; stroke: #ffff00"/>
     <use xlink:href="#m037e3fa915" x="163.074183" y="215.340024" style="fill: #ffff00; stroke: #ffff00"/>
     <use xlink:href="#m037e3fa915" x="85.924936" y="206.473124" style="fill: #ffff00; stroke: #ffff00"/>
     <use xlink:href="#m037e3fa915" x="152.423183" y="210.86911" style="fill: #ffff00; stroke: #ffff00"/>
     <use xlink:href="#m037e3fa915" x="174.79476" y="202.226096" style="fill: #ffff00; stroke: #ffff00"/>
    </g>
   </g>
   <g id="PathCollection_6">
    <defs>
     <path id="m8641c962ef" d="M 0 1.5 
C 0.397805 1.5 0.77937 1.341951 1.06066 1.06066 
C 1.341951 0.77937 1.5 0.397805 1.5 0 
C 1.5 -0.397805 1.341951 -0.77937 1.06066 -1.06066 
C 0.77937 -1.341951 0.397805 -1.5 0 -1.5 
C -0.397805 -1.5 -0.77937 -1.341951 -1.06066 -1.06066 
C -1.341951 -0.77937 -1.5 -0.397805 -1.5 0 
C -1.5 0.397805 -1.341951 0.77937 -1.06066 1.06066 
C -0.77937 1.341951 -0.397805 1.5 0 1.5 
z
" style="stroke: #00ffff"/>
    </defs>
    <g clip-path="url(#pbdfaa6eb8b)">
     <use xlink:href="#m8641c962ef" x="108.866979" y="227.526106" style="fill: #00ffff; stroke: #00ffff"/>
     <use xlink:href="#m8641c962ef" x="101.600604" y="199.101786" style="fill: #00ffff; stroke: #00ffff"/>
     <use xlink:href="#m8641c962ef" x="118.793984" y="193.369477" style="fill: #00ffff; stroke: #00ffff"/>
     <use xlink:href="#m8641c962ef" x="120.201787" y="202.401958" style="fill: #00ffff; stroke: #00ffff"/>
     <use xlink:href="#m8641c962ef" x="109.571768" y="188.312674" style="fill: #00ffff; stroke: #00ffff"/>
     <use xlink:href="#m8641c962ef" x="105.742493" y="209.368156" style="fill: #00ffff; stroke: #00ffff"/>
     <use xlink:href="#m8641c962ef" x="78.521738" y="181.456356" style="fill: #00ffff; stroke: #00ffff"/>
    </g>
   </g>
   <g id="PathCollection_7">
    <defs>
     <path id="m9a74dac0fe" d="M 0 1.5 
C 0.397805 1.5 0.77937 1.341951 1.06066 1.06066 
C 1.341951 0.77937 1.5 0.397805 1.5 0 
C 1.5 -0.397805 1.341951 -0.77937 1.06066 -1.06066 
C 0.77937 -1.341951 0.397805 -1.5 0 -1.5 
C -0.397805 -1.5 -0.77937 -1.341951 -1.06066 -1.06066 
C -1.341951 -0.77937 -1.5 -0.397805 -1.5 0 
C -1.5 0.397805 -1.341951 0.77937 -1.06066 1.06066 
C -0.77937 1.341951 -0.397805 1.5 0 1.5 
z
" style="stroke: #0000ff"/>
    </defs>
    <g clip-path="url(#pbdfaa6eb8b)">
     <use xlink:href="#m9a74dac0fe" x="157.440222" y="190.576483" style="fill: #0000ff; stroke: #0000ff"/>
     <use xlink:href="#m9a74dac0fe" x="114.207472" y="119.734113" style="fill: #0000ff; stroke: #0000ff"/>
     <use xlink:href="#m9a74dac0fe" x="100.994109" y="183.225681" style="fill: #0000ff; stroke: #0000ff"/>
     <use xlink:href="#m9a74dac0fe" x="154.892667" y="117.880184" style="fill: #0000ff; stroke: #0000ff"/>
     <use xlink:href="#m9a74dac0fe" x="99.009398" y="149.774287" style="fill: #0000ff; stroke: #0000ff"/>
     <use xlink:href="#m9a74dac0fe" x="116.095929" y="210.221488" style="fill: #0000ff; stroke: #0000ff"/>
     <use xlink:href="#m9a74dac0fe" x="122.729123" y="153.405341" style="fill: #0000ff; stroke: #0000ff"/>
     <use xlink:href="#m9a74dac0fe" x="139.13895" y="163.766847" style="fill: #0000ff; stroke: #0000ff"/>
     <use xlink:href="#m9a74dac0fe" x="89.010799" y="165.4744" style="fill: #0000ff; stroke: #0000ff"/>
     <use xlink:href="#m9a74dac0fe" x="143.431072" y="194.444369" style="fill: #0000ff; stroke: #0000ff"/>
     <use xlink:href="#m9a74dac0fe" x="107.727191" y="178.355747" style="fill: #0000ff; stroke: #0000ff"/>
     <use xlink:href="#m9a74dac0fe" x="187.483183" y="136.169411" style="fill: #0000ff; stroke: #0000ff"/>
     <use xlink:href="#m9a74dac0fe" x="78.046686" y="184.654147" style="fill: #0000ff; stroke: #0000ff"/>
     <use xlink:href="#m9a74dac0fe" x="87.390215" y="187.566959" style="fill: #0000ff; stroke: #0000ff"/>
     <use xlink:href="#m9a74dac0fe" x="121.200427" y="147.58827" style="fill: #0000ff; stroke: #0000ff"/>
    </g>
   </g>
   <g id="PathCollection_8">
    <defs>
     <path id="m28d007223e" d="M 0 1.5 
C 0.397805 1.5 0.77937 1.341951 1.06066 1.06066 
C 1.341951 0.77937 1.5 0.397805 1.5 0 
C 1.5 -0.397805 1.341951 -0.77937 1.06066 -1.06066 
C 0.77937 -1.341951 0.397805 -1.5 0 -1.5 
C -0.397805 -1.5 -0.77937 -1.341951 -1.06066 -1.06066 
C -1.341951 -0.77937 -1.5 -0.397805 -1.5 0 
C -1.5 0.397805 -1.341951 0.77937 -1.06066 1.06066 
C -0.77937 1.341951 -0.397805 1.5 0 1.5 
z
" style="stroke: #dc143c"/>
    </defs>
    <g clip-path="url(#pbdfaa6eb8b)">
     <use xlink:href="#m28d007223e" x="181.414452" y="248.978306" style="fill: #dc143c; stroke: #dc143c"/>
     <use xlink:href="#m28d007223e" x="157.615397" y="247.19733" style="fill: #dc143c; stroke: #dc143c"/>
     <use xlink:href="#m28d007223e" x="196.034377" y="235.599965" style="fill: #dc143c; stroke: #dc143c"/>
     <use xlink:href="#m28d007223e" x="169.957999" y="214.542497" style="fill: #dc143c; stroke: #dc143c"/>
     <use xlink:href="#m28d007223e" x="148.568115" y="237.954852" style="fill: #dc143c; stroke: #dc143c"/>
     <use xlink:href="#m28d007223e" x="163.929871" y="235.852514" style="fill: #dc143c; stroke: #dc143c"/>
     <use xlink:href="#m28d007223e" x="164.114889" y="229.499252" style="fill: #dc143c; stroke: #dc143c"/>
     <use xlink:href="#m28d007223e" x="148.69015" y="228.377927" style="fill: #dc143c; stroke: #dc143c"/>
     <use xlink:href="#m28d007223e" x="166.847823" y="220.04484" style="fill: #dc143c; stroke: #dc143c"/>
     <use xlink:href="#m28d007223e" x="187.422959" y="244.556791" style="fill: #dc143c; stroke: #dc143c"/>
     <use xlink:href="#m28d007223e" x="186.257264" y="220.973231" style="fill: #dc143c; stroke: #dc143c"/>
     <use xlink:href="#m28d007223e" x="122.789936" y="217.89165" style="fill: #dc143c; stroke: #dc143c"/>
     <use xlink:href="#m28d007223e" x="187.508417" y="261.216" style="fill: #dc143c; stroke: #dc143c"/>
    </g>
   </g>
   <g id="PathCollection_9">
    <defs>
     <path id="md0b5003ff3" d="M 0 1.5 
C 0.397805 1.5 0.77937 1.341951 1.06066 1.06066 
C 1.341951 0.77937 1.5 0.397805 1.5 0 
C 1.5 -0.397805 1.341951 -0.77937 1.06066 -1.06066 
C 0.77937 -1.341951 0.397805 -1.5 0 -1.5 
C -0.397805 -1.5 -0.77937 -1.341951 -1.06066 -1.06066 
C -1.341951 -0.77937 -1.5 -0.397805 -1.5 0 
C -1.5 0.397805 -1.341951 0.77937 -1.06066 1.06066 
C -0.77937 1.341951 -0.397805 1.5 0 1.5 
z
" style="stroke: #ffe4c4"/>
    </defs>
    <g clip-path="url(#pbdfaa6eb8b)">
     <use xlink:href="#md0b5003ff3" x="193.064226" y="213.597243" style="fill: #ffe4c4; stroke: #ffe4c4"/>
     <use xlink:href="#md0b5003ff3" x="209.08454" y="181.794967" style="fill: #ffe4c4; stroke: #ffe4c4"/>
     <use xlink:href="#md0b5003ff3" x="319.572727" y="162.013449" style="fill: #ffe4c4; stroke: #ffe4c4"/>
     <use xlink:href="#md0b5003ff3" x="191.975437" y="204.366643" style="fill: #ffe4c4; stroke: #ffe4c4"/>
     <use xlink:href="#md0b5003ff3" x="243.646291" y="207.360562" style="fill: #ffe4c4; stroke: #ffe4c4"/>
     <use xlink:href="#md0b5003ff3" x="202.976284" y="211.022951" style="fill: #ffe4c4; stroke: #ffe4c4"/>
     <use xlink:href="#md0b5003ff3" x="192.258731" y="204.211123" style="fill: #ffe4c4; stroke: #ffe4c4"/>
     <use xlink:href="#md0b5003ff3" x="170.309055" y="195.084797" style="fill: #ffe4c4; stroke: #ffe4c4"/>
     <use xlink:href="#md0b5003ff3" x="240.19238" y="187.271076" style="fill: #ffe4c4; stroke: #ffe4c4"/>
     <use xlink:href="#md0b5003ff3" x="251.652384" y="176.755533" style="fill: #ffe4c4; stroke: #ffe4c4"/>
     <use xlink:href="#md0b5003ff3" x="208.995648" y="148.029215" style="fill: #ffe4c4; stroke: #ffe4c4"/>
     <use xlink:href="#md0b5003ff3" x="301.629979" y="152.733231" style="fill: #ffe4c4; stroke: #ffe4c4"/>
     <use xlink:href="#md0b5003ff3" x="246.781735" y="189.369809" style="fill: #ffe4c4; stroke: #ffe4c4"/>
     <use xlink:href="#md0b5003ff3" x="250.723174" y="162.42952" style="fill: #ffe4c4; stroke: #ffe4c4"/>
     <use xlink:href="#md0b5003ff3" x="197.329084" y="192.635888" style="fill: #ffe4c4; stroke: #ffe4c4"/>
     <use xlink:href="#md0b5003ff3" x="314.943091" y="146.642429" style="fill: #ffe4c4; stroke: #ffe4c4"/>
     <use xlink:href="#md0b5003ff3" x="237.052219" y="207.985265" style="fill: #ffe4c4; stroke: #ffe4c4"/>
     <use xlink:href="#md0b5003ff3" x="243.653314" y="204.653324" style="fill: #ffe4c4; stroke: #ffe4c4"/>
     <use xlink:href="#md0b5003ff3" x="293.03292" y="157.990329" style="fill: #ffe4c4; stroke: #ffe4c4"/>
     <use xlink:href="#md0b5003ff3" x="165.383757" y="207.070589" style="fill: #ffe4c4; stroke: #ffe4c4"/>
    </g>
   </g>
   <g id="PathCollection_10">
    <defs>
     <path id="mbf53f94063" d="M -2.99994 2.99994 
L 3.00006 2.99994 
L 3.00006 -3.00006 
L -2.99994 -3.00006 
z
" style="stroke: #000000"/>
    </defs>
    <g clip-path="url(#pbdfaa6eb8b)">
     <use xlink:href="#mbf53f94063" x="78.709419" y="130.806971" style="stroke: #000000"/>
     <use xlink:href="#mbf53f94063" x="108.846264" y="186.695873" style="stroke: #000000"/>
     <use xlink:href="#mbf53f94063" x="107.440855" y="118.087756" style="stroke: #000000"/>
     <use xlink:href="#mbf53f94063" x="73.760883" y="147.800407" style="stroke: #000000"/>
     <use xlink:href="#mbf53f94063" x="119.322333" y="194.090527" style="stroke: #000000"/>
     <use xlink:href="#mbf53f94063" x="137.378526" y="206.976726" style="stroke: #000000"/>
     <use xlink:href="#mbf53f94063" x="66.012079" y="166.161795" style="stroke: #000000"/>
     <use xlink:href="#mbf53f94063" x="69.684072" y="178.786377" style="stroke: #000000"/>
     <use xlink:href="#mbf53f94063" x="85.492551" y="200.220576" style="stroke: #000000"/>
     <use xlink:href="#mbf53f94063" x="76.682942" y="188.422288" style="stroke: #000000"/>
     <use xlink:href="#mbf53f94063" x="136.216681" y="147.86037" style="stroke: #000000"/>
     <use xlink:href="#mbf53f94063" x="115.51963" y="149.171758" style="stroke: #000000"/>
     <use xlink:href="#mbf53f94063" x="131.682761" y="176.123168" style="stroke: #000000"/>
     <use xlink:href="#mbf53f94063" x="112.189859" y="210.303507" style="stroke: #000000"/>
     <use xlink:href="#mbf53f94063" x="65.245672" y="172.368522" style="stroke: #000000"/>
     <use xlink:href="#mbf53f94063" x="114.316859" y="175.140195" style="stroke: #000000"/>
     <use xlink:href="#mbf53f94063" x="69.434062" y="176.151143" style="stroke: #000000"/>
     <use xlink:href="#mbf53f94063" x="118.741492" y="160.540449" style="stroke: #000000"/>
     <use xlink:href="#mbf53f94063" x="158.521333" y="102.148486" style="stroke: #000000"/>
     <use xlink:href="#mbf53f94063" x="179.098299" y="202.75496" style="stroke: #000000"/>
     <use xlink:href="#mbf53f94063" x="97.782813" y="156.62383" style="stroke: #000000"/>
     <use xlink:href="#mbf53f94063" x="86.923293" y="137.075483" style="stroke: #000000"/>
     <use xlink:href="#mbf53f94063" x="160.450807" y="186.998829" style="stroke: #000000"/>
     <use xlink:href="#mbf53f94063" x="128.13237" y="164.849125" style="stroke: #000000"/>
     <use xlink:href="#mbf53f94063" x="176.148161" y="205.628451" style="stroke: #000000"/>
     <use xlink:href="#mbf53f94063" x="97.142622" y="196.019059" style="stroke: #000000"/>
     <use xlink:href="#mbf53f94063" x="86.560176" y="153.043768" style="stroke: #000000"/>
     <use xlink:href="#mbf53f94063" x="86.786376" y="175.363983" style="stroke: #000000"/>
     <use xlink:href="#mbf53f94063" x="107.440855" y="118.087756" style="stroke: #000000"/>
     <use xlink:href="#mbf53f94063" x="92.857815" y="137.276949" style="stroke: #000000"/>
     <use xlink:href="#mbf53f94063" x="109.590769" y="140.755626" style="stroke: #000000"/>
     <use xlink:href="#mbf53f94063" x="79.385213" y="190.698205" style="stroke: #000000"/>
     <use xlink:href="#mbf53f94063" x="98.005638" y="191.912183" style="stroke: #000000"/>
     <use xlink:href="#mbf53f94063" x="87.003643" y="175.198522" style="stroke: #000000"/>
     <use xlink:href="#mbf53f94063" x="140.610067" y="179.337165" style="stroke: #000000"/>
     <use xlink:href="#mbf53f94063" x="90.240225" y="189.85159" style="stroke: #000000"/>
     <use xlink:href="#mbf53f94063" x="107.19713" y="205.368547" style="stroke: #000000"/>
     <use xlink:href="#mbf53f94063" x="106.729413" y="177.879346" style="stroke: #000000"/>
     <use xlink:href="#mbf53f94063" x="123.782037" y="182.963356" style="stroke: #000000"/>
     <use xlink:href="#mbf53f94063" x="118.157984" y="199.279739" style="stroke: #000000"/>
     <use xlink:href="#mbf53f94063" x="143.442497" y="188.198076" style="stroke: #000000"/>
     <use xlink:href="#mbf53f94063" x="132.048046" y="207.907808" style="stroke: #000000"/>
     <use xlink:href="#mbf53f94063" x="72.659927" y="181.318935" style="stroke: #000000"/>
     <use xlink:href="#mbf53f94063" x="177.782316" y="125.997605" style="stroke: #000000"/>
     <use xlink:href="#mbf53f94063" x="74.278455" y="198.518308" style="stroke: #000000"/>
     <use xlink:href="#mbf53f94063" x="75.142389" y="183.49047" style="stroke: #000000"/>
     <use xlink:href="#mbf53f94063" x="156.764463" y="190.165552" style="stroke: #000000"/>
     <use xlink:href="#mbf53f94063" x="78.55628" y="209.289638" style="stroke: #000000"/>
     <use xlink:href="#mbf53f94063" x="143.737614" y="182.79728" style="stroke: #000000"/>
     <use xlink:href="#mbf53f94063" x="82.853056" y="156.053094" style="stroke: #000000"/>
     <use xlink:href="#mbf53f94063" x="99.804991" y="123.603915" style="stroke: #000000"/>
     <use xlink:href="#mbf53f94063" x="69.437031" y="163.565322" style="stroke: #000000"/>
     <use xlink:href="#mbf53f94063" x="93.730956" y="152.337438" style="stroke: #000000"/>
     <use xlink:href="#mbf53f94063" x="134.915723" y="177.28314" style="stroke: #000000"/>
     <use xlink:href="#mbf53f94063" x="98.315402" y="203.512431" style="stroke: #000000"/>
     <use xlink:href="#mbf53f94063" x="86.133886" y="173.056207" style="stroke: #000000"/>
     <use xlink:href="#mbf53f94063" x="107.50372" y="144.026091" style="stroke: #000000"/>
     <use xlink:href="#mbf53f94063" x="128.741061" y="202.08592" style="stroke: #000000"/>
     <use xlink:href="#mbf53f94063" x="100.610439" y="214.589126" style="stroke: #000000"/>
     <use xlink:href="#mbf53f94063" x="63.190308" y="185.972108" style="stroke: #000000"/>
     <use xlink:href="#mbf53f94063" x="87.844833" y="156.032281" style="stroke: #000000"/>
     <use xlink:href="#mbf53f94063" x="124.556355" y="215.701655" style="stroke: #000000"/>
     <use xlink:href="#mbf53f94063" x="82.848626" y="200.962618" style="stroke: #000000"/>
     <use xlink:href="#mbf53f94063" x="173.257193" y="208.160828" style="stroke: #000000"/>
    </g>
   </g>
   <g id="PathCollection_11">
    <defs>
     <path id="ma077fda69e" d="M -3 -0 
L 3 3 
L 3 -3 
z
" style="stroke: #ff8c00"/>
    </defs>
    <g clip-path="url(#pbdfaa6eb8b)">
     <use xlink:href="#ma077fda69e" x="61.420127" y="161.263152" style="fill: #ff8c00; stroke: #ff8c00"/>
     <use xlink:href="#ma077fda69e" x="141.38092" y="174.225531" style="fill: #ff8c00; stroke: #ff8c00"/>
     <use xlink:href="#ma077fda69e" x="93.029139" y="148.528168" style="fill: #ff8c00; stroke: #ff8c00"/>
     <use xlink:href="#ma077fda69e" x="77.381078" y="184.945026" style="fill: #ff8c00; stroke: #ff8c00"/>
     <use xlink:href="#ma077fda69e" x="167.6653" y="203.123479" style="fill: #ff8c00; stroke: #ff8c00"/>
     <use xlink:href="#ma077fda69e" x="140.915203" y="195.252937" style="fill: #ff8c00; stroke: #ff8c00"/>
     <use xlink:href="#ma077fda69e" x="87.103602" y="179.678638" style="fill: #ff8c00; stroke: #ff8c00"/>
     <use xlink:href="#ma077fda69e" x="105.49857" y="200.859539" style="fill: #ff8c00; stroke: #ff8c00"/>
     <use xlink:href="#ma077fda69e" x="82.611849" y="179.823269" style="fill: #ff8c00; stroke: #ff8c00"/>
     <use xlink:href="#ma077fda69e" x="135.074181" y="203.097477" style="fill: #ff8c00; stroke: #ff8c00"/>
     <use xlink:href="#ma077fda69e" x="171.055747" y="185.606694" style="fill: #ff8c00; stroke: #ff8c00"/>
     <use xlink:href="#ma077fda69e" x="112.138134" y="171.125208" style="fill: #ff8c00; stroke: #ff8c00"/>
     <use xlink:href="#ma077fda69e" x="82.898958" y="148.763101" style="fill: #ff8c00; stroke: #ff8c00"/>
     <use xlink:href="#ma077fda69e" x="116.909469" y="162.830227" style="fill: #ff8c00; stroke: #ff8c00"/>
     <use xlink:href="#ma077fda69e" x="104.365899" y="195.900455" style="fill: #ff8c00; stroke: #ff8c00"/>
     <use xlink:href="#ma077fda69e" x="103.021925" y="181.973502" style="fill: #ff8c00; stroke: #ff8c00"/>
     <use xlink:href="#ma077fda69e" x="127.825535" y="173.293039" style="fill: #ff8c00; stroke: #ff8c00"/>
     <use xlink:href="#ma077fda69e" x="72.038514" y="159.541533" style="fill: #ff8c00; stroke: #ff8c00"/>
     <use xlink:href="#ma077fda69e" x="121.436519" y="205.935026" style="fill: #ff8c00; stroke: #ff8c00"/>
     <use xlink:href="#ma077fda69e" x="78.331389" y="169.020602" style="fill: #ff8c00; stroke: #ff8c00"/>
     <use xlink:href="#ma077fda69e" x="61.64734" y="170.881857" style="fill: #ff8c00; stroke: #ff8c00"/>
     <use xlink:href="#ma077fda69e" x="145.953525" y="189.460697" style="fill: #ff8c00; stroke: #ff8c00"/>
     <use xlink:href="#ma077fda69e" x="102.604539" y="178.110123" style="fill: #ff8c00; stroke: #ff8c00"/>
     <use xlink:href="#ma077fda69e" x="73.217196" y="159.152122" style="fill: #ff8c00; stroke: #ff8c00"/>
     <use xlink:href="#ma077fda69e" x="79.470353" y="165.128737" style="fill: #ff8c00; stroke: #ff8c00"/>
     <use xlink:href="#ma077fda69e" x="79.935146" y="153.205978" style="fill: #ff8c00; stroke: #ff8c00"/>
     <use xlink:href="#ma077fda69e" x="67.066247" y="172.835158" style="fill: #ff8c00; stroke: #ff8c00"/>
     <use xlink:href="#ma077fda69e" x="108.205608" y="201.486711" style="fill: #ff8c00; stroke: #ff8c00"/>
     <use xlink:href="#ma077fda69e" x="107.500526" y="187.193039" style="fill: #ff8c00; stroke: #ff8c00"/>
     <use xlink:href="#ma077fda69e" x="71.955826" y="153.702354" style="fill: #ff8c00; stroke: #ff8c00"/>
     <use xlink:href="#ma077fda69e" x="97.307256" y="177.039654" style="fill: #ff8c00; stroke: #ff8c00"/>
     <use xlink:href="#ma077fda69e" x="51.537415" y="164.394558" style="fill: #ff8c00; stroke: #ff8c00"/>
     <use xlink:href="#ma077fda69e" x="156.258719" y="209.113306" style="fill: #ff8c00; stroke: #ff8c00"/>
     <use xlink:href="#ma077fda69e" x="108.267354" y="169.480316" style="fill: #ff8c00; stroke: #ff8c00"/>
     <use xlink:href="#ma077fda69e" x="60.393296" y="157.060087" style="fill: #ff8c00; stroke: #ff8c00"/>
     <use xlink:href="#ma077fda69e" x="131.235417" y="190.111944" style="fill: #ff8c00; stroke: #ff8c00"/>
     <use xlink:href="#ma077fda69e" x="65.544531" y="142.257984" style="fill: #ff8c00; stroke: #ff8c00"/>
     <use xlink:href="#ma077fda69e" x="118.887305" y="190.535124" style="fill: #ff8c00; stroke: #ff8c00"/>
     <use xlink:href="#ma077fda69e" x="97.934716" y="210.993688" style="fill: #ff8c00; stroke: #ff8c00"/>
     <use xlink:href="#ma077fda69e" x="72.604774" y="165.594941" style="fill: #ff8c00; stroke: #ff8c00"/>
     <use xlink:href="#ma077fda69e" x="101.739405" y="202.531032" style="fill: #ff8c00; stroke: #ff8c00"/>
     <use xlink:href="#ma077fda69e" x="80.371444" y="180.096152" style="fill: #ff8c00; stroke: #ff8c00"/>
     <use xlink:href="#ma077fda69e" x="130.969613" y="199.403793" style="fill: #ff8c00; stroke: #ff8c00"/>
     <use xlink:href="#ma077fda69e" x="110.16964" y="183.273715" style="fill: #ff8c00; stroke: #ff8c00"/>
     <use xlink:href="#ma077fda69e" x="66.235806" y="165.172502" style="fill: #ff8c00; stroke: #ff8c00"/>
     <use xlink:href="#ma077fda69e" x="87.719933" y="180.10691" style="fill: #ff8c00; stroke: #ff8c00"/>
     <use xlink:href="#ma077fda69e" x="90.794197" y="169.398605" style="fill: #ff8c00; stroke: #ff8c00"/>
     <use xlink:href="#ma077fda69e" x="145.16862" y="165.65685" style="fill: #ff8c00; stroke: #ff8c00"/>
     <use xlink:href="#ma077fda69e" x="70.1114" y="176.066769" style="fill: #ff8c00; stroke: #ff8c00"/>
     <use xlink:href="#ma077fda69e" x="82.028412" y="128.757447" style="fill: #ff8c00; stroke: #ff8c00"/>
     <use xlink:href="#ma077fda69e" x="94.721751" y="195.090324" style="fill: #ff8c00; stroke: #ff8c00"/>
     <use xlink:href="#ma077fda69e" x="125.261649" y="197.062057" style="fill: #ff8c00; stroke: #ff8c00"/>
     <use xlink:href="#ma077fda69e" x="97.435584" y="178.798356" style="fill: #ff8c00; stroke: #ff8c00"/>
     <use xlink:href="#ma077fda69e" x="83.227841" y="145.070361" style="fill: #ff8c00; stroke: #ff8c00"/>
     <use xlink:href="#ma077fda69e" x="105.799816" y="189.91209" style="fill: #ff8c00; stroke: #ff8c00"/>
     <use xlink:href="#ma077fda69e" x="51.82731" y="158.031584" style="fill: #ff8c00; stroke: #ff8c00"/>
     <use xlink:href="#ma077fda69e" x="122.266513" y="167.355594" style="fill: #ff8c00; stroke: #ff8c00"/>
     <use xlink:href="#ma077fda69e" x="99.392448" y="149.233252" style="fill: #ff8c00; stroke: #ff8c00"/>
     <use xlink:href="#ma077fda69e" x="99.030583" y="153.242348" style="fill: #ff8c00; stroke: #ff8c00"/>
     <use xlink:href="#ma077fda69e" x="112.053748" y="215.121472" style="fill: #ff8c00; stroke: #ff8c00"/>
     <use xlink:href="#ma077fda69e" x="157.487269" y="193.791145" style="fill: #ff8c00; stroke: #ff8c00"/>
     <use xlink:href="#ma077fda69e" x="119.701392" y="184.917635" style="fill: #ff8c00; stroke: #ff8c00"/>
     <use xlink:href="#ma077fda69e" x="85.718235" y="162.387434" style="fill: #ff8c00; stroke: #ff8c00"/>
     <use xlink:href="#ma077fda69e" x="79.991676" y="181.590814" style="fill: #ff8c00; stroke: #ff8c00"/>
    </g>
   </g>
   <g id="matplotlib.axis_1">
    <g id="xtick_1">
     <g id="line2d_1">
      <defs>
       <path id="mf2cd8652f1" d="M 0 0 
L 0 3.5 
" style="stroke: #000000; stroke-width: 0.8"/>
      </defs>
      <g>
       <use xlink:href="#mf2cd8652f1" x="82.741728" y="273.312" style="stroke: #000000; stroke-width: 0.8"/>
      </g>
     </g>
     <g id="text_1">
      <!-- −10 -->
      <g transform="translate(72.189384 287.910437) scale(0.1 -0.1)">
       <defs>
        <path id="DejaVuSans-2212" d="M 678 2272 
L 4684 2272 
L 4684 1741 
L 678 1741 
L 678 2272 
z
" transform="scale(0.015625)"/>
        <path id="DejaVuSans-31" d="M 794 531 
L 1825 531 
L 1825 4091 
L 703 3866 
L 703 4441 
L 1819 4666 
L 2450 4666 
L 2450 531 
L 3481 531 
L 3481 0 
L 794 0 
L 794 531 
z
" transform="scale(0.015625)"/>
        <path id="DejaVuSans-30" d="M 2034 4250 
Q 1547 4250 1301 3770 
Q 1056 3291 1056 2328 
Q 1056 1369 1301 889 
Q 1547 409 2034 409 
Q 2525 409 2770 889 
Q 3016 1369 3016 2328 
Q 3016 3291 2770 3770 
Q 2525 4250 2034 4250 
z
M 2034 4750 
Q 2819 4750 3233 4129 
Q 3647 3509 3647 2328 
Q 3647 1150 3233 529 
Q 2819 -91 2034 -91 
Q 1250 -91 836 529 
Q 422 1150 422 2328 
Q 422 3509 836 4129 
Q 1250 4750 2034 4750 
z
" transform="scale(0.015625)"/>
       </defs>
       <use xlink:href="#DejaVuSans-2212"/>
       <use xlink:href="#DejaVuSans-31" x="83.789062"/>
       <use xlink:href="#DejaVuSans-30" x="147.412109"/>
      </g>
     </g>
    </g>
    <g id="xtick_2">
     <g id="line2d_2">
      <g>
       <use xlink:href="#mf2cd8652f1" x="137.455142" y="273.312" style="stroke: #000000; stroke-width: 0.8"/>
      </g>
     </g>
     <g id="text_2">
      <!-- 0 -->
      <g transform="translate(134.273892 287.910437) scale(0.1 -0.1)">
       <use xlink:href="#DejaVuSans-30"/>
      </g>
     </g>
    </g>
    <g id="xtick_3">
     <g id="line2d_3">
      <g>
       <use xlink:href="#mf2cd8652f1" x="192.168556" y="273.312" style="stroke: #000000; stroke-width: 0.8"/>
      </g>
     </g>
     <g id="text_3">
      <!-- 10 -->
      <g transform="translate(185.806056 287.910437) scale(0.1 -0.1)">
       <use xlink:href="#DejaVuSans-31"/>
       <use xlink:href="#DejaVuSans-30" x="63.623047"/>
      </g>
     </g>
    </g>
    <g id="xtick_4">
     <g id="line2d_4">
      <g>
       <use xlink:href="#mf2cd8652f1" x="246.88197" y="273.312" style="stroke: #000000; stroke-width: 0.8"/>
      </g>
     </g>
     <g id="text_4">
      <!-- 20 -->
      <g transform="translate(240.51947 287.910437) scale(0.1 -0.1)">
       <defs>
        <path id="DejaVuSans-32" d="M 1228 531 
L 3431 531 
L 3431 0 
L 469 0 
L 469 531 
Q 828 903 1448 1529 
Q 2069 2156 2228 2338 
Q 2531 2678 2651 2914 
Q 2772 3150 2772 3378 
Q 2772 3750 2511 3984 
Q 2250 4219 1831 4219 
Q 1534 4219 1204 4116 
Q 875 4013 500 3803 
L 500 4441 
Q 881 4594 1212 4672 
Q 1544 4750 1819 4750 
Q 2544 4750 2975 4387 
Q 3406 4025 3406 3419 
Q 3406 3131 3298 2873 
Q 3191 2616 2906 2266 
Q 2828 2175 2409 1742 
Q 1991 1309 1228 531 
z
" transform="scale(0.015625)"/>
       </defs>
       <use xlink:href="#DejaVuSans-32"/>
       <use xlink:href="#DejaVuSans-30" x="63.623047"/>
      </g>
     </g>
    </g>
    <g id="xtick_5">
     <g id="line2d_5">
      <g>
       <use xlink:href="#mf2cd8652f1" x="301.595384" y="273.312" style="stroke: #000000; stroke-width: 0.8"/>
      </g>
     </g>
     <g id="text_5">
      <!-- 30 -->
      <g transform="translate(295.232884 287.910437) scale(0.1 -0.1)">
       <defs>
        <path id="DejaVuSans-33" d="M 2597 2516 
Q 3050 2419 3304 2112 
Q 3559 1806 3559 1356 
Q 3559 666 3084 287 
Q 2609 -91 1734 -91 
Q 1441 -91 1130 -33 
Q 819 25 488 141 
L 488 750 
Q 750 597 1062 519 
Q 1375 441 1716 441 
Q 2309 441 2620 675 
Q 2931 909 2931 1356 
Q 2931 1769 2642 2001 
Q 2353 2234 1838 2234 
L 1294 2234 
L 1294 2753 
L 1863 2753 
Q 2328 2753 2575 2939 
Q 2822 3125 2822 3475 
Q 2822 3834 2567 4026 
Q 2313 4219 1838 4219 
Q 1578 4219 1281 4162 
Q 984 4106 628 3988 
L 628 4550 
Q 988 4650 1302 4700 
Q 1616 4750 1894 4750 
Q 2613 4750 3031 4423 
Q 3450 4097 3450 3541 
Q 3450 3153 3228 2886 
Q 3006 2619 2597 2516 
z
" transform="scale(0.015625)"/>
       </defs>
       <use xlink:href="#DejaVuSans-33"/>
       <use xlink:href="#DejaVuSans-30" x="63.623047"/>
      </g>
     </g>
    </g>
    <g id="xtick_6">
     <g id="line2d_6">
      <g>
       <use xlink:href="#mf2cd8652f1" x="356.308799" y="273.312" style="stroke: #000000; stroke-width: 0.8"/>
      </g>
     </g>
     <g id="text_6">
      <!-- 40 -->
      <g transform="translate(349.946299 287.910437) scale(0.1 -0.1)">
       <defs>
        <path id="DejaVuSans-34" d="M 2419 4116 
L 825 1625 
L 2419 1625 
L 2419 4116 
z
M 2253 4666 
L 3047 4666 
L 3047 1625 
L 3713 1625 
L 3713 1100 
L 3047 1100 
L 3047 0 
L 2419 0 
L 2419 1100 
L 313 1100 
L 313 1709 
L 2253 4666 
z
" transform="scale(0.015625)"/>
       </defs>
       <use xlink:href="#DejaVuSans-34"/>
       <use xlink:href="#DejaVuSans-30" x="63.623047"/>
      </g>
     </g>
    </g>
   </g>
   <g id="matplotlib.axis_2">
    <g id="ytick_1">
     <g id="line2d_7">
      <defs>
       <path id="mb19e9a0119" d="M 0 0 
L -3.5 0 
" style="stroke: #000000; stroke-width: 0.8"/>
      </defs>
      <g>
       <use xlink:href="#mb19e9a0119" x="35.304688" y="262.590595" style="stroke: #000000; stroke-width: 0.8"/>
      </g>
     </g>
     <g id="text_7">
      <!-- −20 -->
      <g transform="translate(7.2 266.389814) scale(0.1 -0.1)">
       <use xlink:href="#DejaVuSans-2212"/>
       <use xlink:href="#DejaVuSans-32" x="83.789062"/>
       <use xlink:href="#DejaVuSans-30" x="147.412109"/>
      </g>
     </g>
    </g>
    <g id="ytick_2">
     <g id="line2d_8">
      <g>
       <use xlink:href="#mb19e9a0119" x="35.304688" y="224.635909" style="stroke: #000000; stroke-width: 0.8"/>
      </g>
     </g>
     <g id="text_8">
      <!-- −10 -->
      <g transform="translate(7.2 228.435128) scale(0.1 -0.1)">
       <use xlink:href="#DejaVuSans-2212"/>
       <use xlink:href="#DejaVuSans-31" x="83.789062"/>
       <use xlink:href="#DejaVuSans-30" x="147.412109"/>
      </g>
     </g>
    </g>
    <g id="ytick_3">
     <g id="line2d_9">
      <g>
       <use xlink:href="#mb19e9a0119" x="35.304688" y="186.681224" style="stroke: #000000; stroke-width: 0.8"/>
      </g>
     </g>
     <g id="text_9">
      <!-- 0 -->
      <g transform="translate(21.942187 190.480443) scale(0.1 -0.1)">
       <use xlink:href="#DejaVuSans-30"/>
      </g>
     </g>
    </g>
    <g id="ytick_4">
     <g id="line2d_10">
      <g>
       <use xlink:href="#mb19e9a0119" x="35.304688" y="148.726539" style="stroke: #000000; stroke-width: 0.8"/>
      </g>
     </g>
     <g id="text_10">
      <!-- 10 -->
      <g transform="translate(15.579687 152.525758) scale(0.1 -0.1)">
       <use xlink:href="#DejaVuSans-31"/>
       <use xlink:href="#DejaVuSans-30" x="63.623047"/>
      </g>
     </g>
    </g>
    <g id="ytick_5">
     <g id="line2d_11">
      <g>
       <use xlink:href="#mb19e9a0119" x="35.304688" y="110.771853" style="stroke: #000000; stroke-width: 0.8"/>
      </g>
     </g>
     <g id="text_11">
      <!-- 20 -->
      <g transform="translate(15.579687 114.571072) scale(0.1 -0.1)">
       <use xlink:href="#DejaVuSans-32"/>
       <use xlink:href="#DejaVuSans-30" x="63.623047"/>
      </g>
     </g>
    </g>
    <g id="ytick_6">
     <g id="line2d_12">
      <g>
       <use xlink:href="#mb19e9a0119" x="35.304688" y="72.817168" style="stroke: #000000; stroke-width: 0.8"/>
      </g>
     </g>
     <g id="text_12">
      <!-- 30 -->
      <g transform="translate(15.579687 76.616387) scale(0.1 -0.1)">
       <use xlink:href="#DejaVuSans-33"/>
       <use xlink:href="#DejaVuSans-30" x="63.623047"/>
      </g>
     </g>
    </g>
    <g id="ytick_7">
     <g id="line2d_13">
      <g>
       <use xlink:href="#mb19e9a0119" x="35.304688" y="34.862483" style="stroke: #000000; stroke-width: 0.8"/>
      </g>
     </g>
     <g id="text_13">
      <!-- 40 -->
      <g transform="translate(15.579687 38.661701) scale(0.1 -0.1)">
       <use xlink:href="#DejaVuSans-34"/>
       <use xlink:href="#DejaVuSans-30" x="63.623047"/>
      </g>
     </g>
    </g>
   </g>
   <g id="patch_3">
    <path d="M 35.304688 273.312 
L 35.304688 7.2 
" style="fill: none; stroke: #000000; stroke-width: 0.8; stroke-linejoin: miter; stroke-linecap: square"/>
   </g>
   <g id="patch_4">
    <path d="M 392.424688 273.312 
L 392.424688 7.2 
" style="fill: none; stroke: #000000; stroke-width: 0.8; stroke-linejoin: miter; stroke-linecap: square"/>
   </g>
   <g id="patch_5">
    <path d="M 35.304688 273.312 
L 392.424688 273.312 
" style="fill: none; stroke: #000000; stroke-width: 0.8; stroke-linejoin: miter; stroke-linecap: square"/>
   </g>
   <g id="patch_6">
    <path d="M 35.304688 7.2 
L 392.424688 7.2 
" style="fill: none; stroke: #000000; stroke-width: 0.8; stroke-linejoin: miter; stroke-linecap: square"/>
   </g>
  </g>
 </g>
 <defs>
  <clipPath id="pbdfaa6eb8b">
   <rect x="35.304688" y="7.2" width="357.12" height="266.112"/>
  </clipPath>
 </defs>
</svg>
