<?xml version="1.0" encoding="utf-8" standalone="no"?>
<!DOCTYPE svg PUBLIC "-//W3C//DTD SVG 1.1//EN"
  "http://www.w3.org/Graphics/SVG/1.1/DTD/svg11.dtd">
<svg xmlns:xlink="http://www.w3.org/1999/xlink" width="399.624687pt" height="297.190125pt" viewBox="0 0 399.624687 297.190125" xmlns="http://www.w3.org/2000/svg" version="1.1">
 <metadata>
  <rdf:RDF xmlns:dc="http://purl.org/dc/elements/1.1/" xmlns:cc="http://creativecommons.org/ns#" xmlns:rdf="http://www.w3.org/1999/02/22-rdf-syntax-ns#">
   <cc:Work>
    <dc:type rdf:resource="http://purl.org/dc/dcmitype/StillImage"/>
    <dc:date>2023-11-11T12:32:33.004316</dc:date>
    <dc:format>image/svg+xml</dc:format>
    <dc:creator>
     <cc:Agent>
      <dc:title>Matplotlib v3.8.0, https://matplotlib.org/</dc:title>
     </cc:Agent>
    </dc:creator>
   </cc:Work>
  </rdf:RDF>
 </metadata>
 <defs>
  <style type="text/css">*{stroke-linejoin: round; stroke-linecap: butt}</style>
 </defs>
 <g id="figure_1">
  <g id="patch_1">
   <path d="M 0 297.190125 
L 399.624687 297.190125 
L 399.624687 0 
L 0 0 
z
" style="fill: #ffffff"/>
  </g>
  <g id="axes_1">
   <g id="patch_2">
    <path d="M 35.304688 273.312 
L 392.424688 273.312 
L 392.424688 7.2 
L 35.304688 7.2 
z
" style="fill: #ffffff"/>
   </g>
   <g id="PathCollection_1">
    <defs>
     <path id="m6b7cfd4020" d="M 0 1.5 
C 0.397805 1.5 0.77937 1.341951 1.06066 1.06066 
C 1.341951 0.77937 1.5 0.397805 1.5 0 
C 1.5 -0.397805 1.341951 -0.77937 1.06066 -1.06066 
C 0.77937 -1.341951 0.397805 -1.5 0 -1.5 
C -0.397805 -1.5 -0.77937 -1.341951 -1.06066 -1.06066 
C -1.341951 -0.77937 -1.5 -0.397805 -1.5 0 
C -1.5 0.397805 -1.341951 0.77937 -1.06066 1.06066 
C -0.77937 1.341951 -0.397805 1.5 0 1.5 
z
" style="stroke: #ff8c00"/>
    </defs>
    <g clip-path="url(#p3655f78e2a)">
     <use xlink:href="#m6b7cfd4020" x="240.448955" y="196.578431" style="fill: #ff8c00; stroke: #ff8c00"/>
     <use xlink:href="#m6b7cfd4020" x="243.037288" y="230.395836" style="fill: #ff8c00; stroke: #ff8c00"/>
     <use xlink:href="#m6b7cfd4020" x="269.847915" y="204.257811" style="fill: #ff8c00; stroke: #ff8c00"/>
     <use xlink:href="#m6b7cfd4020" x="242.354231" y="197.973828" style="fill: #ff8c00; stroke: #ff8c00"/>
     <use xlink:href="#m6b7cfd4020" x="179.67368" y="170.056038" style="fill: #ff8c00; stroke: #ff8c00"/>
     <use xlink:href="#m6b7cfd4020" x="178.697949" y="179.936646" style="fill: #ff8c00; stroke: #ff8c00"/>
    </g>
   </g>
   <g id="PathCollection_2">
    <defs>
     <path id="m585554632f" d="M 0 1.5 
C 0.397805 1.5 0.77937 1.341951 1.06066 1.06066 
C 1.341951 0.77937 1.5 0.397805 1.5 0 
C 1.5 -0.397805 1.341951 -0.77937 1.06066 -1.06066 
C 0.77937 -1.341951 0.397805 -1.5 0 -1.5 
C -0.397805 -1.5 -0.77937 -1.341951 -1.06066 -1.06066 
C -1.341951 -0.77937 -1.5 -0.397805 -1.5 0 
C -1.5 0.397805 -1.341951 0.77937 -1.06066 1.06066 
C -0.77937 1.341951 -0.397805 1.5 0 1.5 
z
" style="stroke: #006400"/>
    </defs>
    <g clip-path="url(#p3655f78e2a)">
     <use xlink:href="#m585554632f" x="242.882687" y="209.809802" style="fill: #006400; stroke: #006400"/>
     <use xlink:href="#m585554632f" x="242.049895" y="230.561148" style="fill: #006400; stroke: #006400"/>
     <use xlink:href="#m585554632f" x="276.668446" y="162.566268" style="fill: #006400; stroke: #006400"/>
     <use xlink:href="#m585554632f" x="291.901879" y="235.420695" style="fill: #006400; stroke: #006400"/>
     <use xlink:href="#m585554632f" x="281.814066" y="213.490054" style="fill: #006400; stroke: #006400"/>
     <use xlink:href="#m585554632f" x="253.999732" y="217.634823" style="fill: #006400; stroke: #006400"/>
     <use xlink:href="#m585554632f" x="309.713616" y="194.945265" style="fill: #006400; stroke: #006400"/>
     <use xlink:href="#m585554632f" x="244.354493" y="233.535582" style="fill: #006400; stroke: #006400"/>
     <use xlink:href="#m585554632f" x="205.995253" y="185.195912" style="fill: #006400; stroke: #006400"/>
     <use xlink:href="#m585554632f" x="285.142917" y="211.00572" style="fill: #006400; stroke: #006400"/>
     <use xlink:href="#m585554632f" x="238.97144" y="210.075012" style="fill: #006400; stroke: #006400"/>
     <use xlink:href="#m585554632f" x="250.349949" y="201.167966" style="fill: #006400; stroke: #006400"/>
     <use xlink:href="#m585554632f" x="218.18858" y="208.70003" style="fill: #006400; stroke: #006400"/>
     <use xlink:href="#m585554632f" x="249.461423" y="221.392738" style="fill: #006400; stroke: #006400"/>
     <use xlink:href="#m585554632f" x="269.084405" y="217.742315" style="fill: #006400; stroke: #006400"/>
     <use xlink:href="#m585554632f" x="315.468081" y="198.711244" style="fill: #006400; stroke: #006400"/>
     <use xlink:href="#m585554632f" x="223.635348" y="171.016029" style="fill: #006400; stroke: #006400"/>
    </g>
   </g>
   <g id="PathCollection_3">
    <defs>
     <path id="m13bc1ad7e1" d="M 0 1.5 
C 0.397805 1.5 0.77937 1.341951 1.06066 1.06066 
C 1.341951 0.77937 1.5 0.397805 1.5 0 
C 1.5 -0.397805 1.341951 -0.77937 1.06066 -1.06066 
C 0.77937 -1.341951 0.397805 -1.5 0 -1.5 
C -0.397805 -1.5 -0.77937 -1.341951 -1.06066 -1.06066 
C -1.341951 -0.77937 -1.5 -0.397805 -1.5 0 
C -1.5 0.397805 -1.341951 0.77937 -1.06066 1.06066 
C -0.77937 1.341951 -0.397805 1.5 0 1.5 
z
" style="stroke: #2f4f4f"/>
    </defs>
    <g clip-path="url(#p3655f78e2a)">
     <use xlink:href="#m13bc1ad7e1" x="179.028013" y="181.256301" style="fill: #2f4f4f; stroke: #2f4f4f"/>
     <use xlink:href="#m13bc1ad7e1" x="265.607759" y="143.034704" style="fill: #2f4f4f; stroke: #2f4f4f"/>
     <use xlink:href="#m13bc1ad7e1" x="257.34096" y="181.82238" style="fill: #2f4f4f; stroke: #2f4f4f"/>
     <use xlink:href="#m13bc1ad7e1" x="245.090821" y="198.664507" style="fill: #2f4f4f; stroke: #2f4f4f"/>
     <use xlink:href="#m13bc1ad7e1" x="252.636934" y="227.580534" style="fill: #2f4f4f; stroke: #2f4f4f"/>
     <use xlink:href="#m13bc1ad7e1" x="205.2423" y="192.837252" style="fill: #2f4f4f; stroke: #2f4f4f"/>
     <use xlink:href="#m13bc1ad7e1" x="197.883587" y="209.674085" style="fill: #2f4f4f; stroke: #2f4f4f"/>
     <use xlink:href="#m13bc1ad7e1" x="235.775543" y="148.840282" style="fill: #2f4f4f; stroke: #2f4f4f"/>
     <use xlink:href="#m13bc1ad7e1" x="284.017392" y="185.224112" style="fill: #2f4f4f; stroke: #2f4f4f"/>
     <use xlink:href="#m13bc1ad7e1" x="273.765335" y="221.146067" style="fill: #2f4f4f; stroke: #2f4f4f"/>
     <use xlink:href="#m13bc1ad7e1" x="210.654518" y="177.715443" style="fill: #2f4f4f; stroke: #2f4f4f"/>
     <use xlink:href="#m13bc1ad7e1" x="246.455742" y="203.899319" style="fill: #2f4f4f; stroke: #2f4f4f"/>
     <use xlink:href="#m13bc1ad7e1" x="306.536317" y="228.213796" style="fill: #2f4f4f; stroke: #2f4f4f"/>
     <use xlink:href="#m13bc1ad7e1" x="305.411865" y="151.229914" style="fill: #2f4f4f; stroke: #2f4f4f"/>
     <use xlink:href="#m13bc1ad7e1" x="271.175568" y="235.048456" style="fill: #2f4f4f; stroke: #2f4f4f"/>
     <use xlink:href="#m13bc1ad7e1" x="255.845976" y="222.388519" style="fill: #2f4f4f; stroke: #2f4f4f"/>
    </g>
   </g>
   <g id="PathCollection_4">
    <defs>
     <path id="m64495105d4" d="M 0 1.5 
C 0.397805 1.5 0.77937 1.341951 1.06066 1.06066 
C 1.341951 0.77937 1.5 0.397805 1.5 0 
C 1.5 -0.397805 1.341951 -0.77937 1.06066 -1.06066 
C 0.77937 -1.341951 0.397805 -1.5 0 -1.5 
C -0.397805 -1.5 -0.77937 -1.341951 -1.06066 -1.06066 
C -1.341951 -0.77937 -1.5 -0.397805 -1.5 0 
C -1.5 0.397805 -1.341951 0.77937 -1.06066 1.06066 
C -0.77937 1.341951 -0.397805 1.5 0 1.5 
z
" style="stroke: #00bfff"/>
    </defs>
    <g clip-path="url(#p3655f78e2a)">
     <use xlink:href="#m64495105d4" x="263.501679" y="209.804911" style="fill: #00bfff; stroke: #00bfff"/>
     <use xlink:href="#m64495105d4" x="231.049092" y="228.694182" style="fill: #00bfff; stroke: #00bfff"/>
     <use xlink:href="#m64495105d4" x="244.908343" y="205.622175" style="fill: #00bfff; stroke: #00bfff"/>
     <use xlink:href="#m64495105d4" x="259.732589" y="190.398181" style="fill: #00bfff; stroke: #00bfff"/>
     <use xlink:href="#m64495105d4" x="266.191992" y="190.150973" style="fill: #00bfff; stroke: #00bfff"/>
     <use xlink:href="#m64495105d4" x="283.5289" y="186.993683" style="fill: #00bfff; stroke: #00bfff"/>
     <use xlink:href="#m64495105d4" x="265.315527" y="177.049913" style="fill: #00bfff; stroke: #00bfff"/>
     <use xlink:href="#m64495105d4" x="236.404017" y="210.814412" style="fill: #00bfff; stroke: #00bfff"/>
     <use xlink:href="#m64495105d4" x="263.709924" y="211.608457" style="fill: #00bfff; stroke: #00bfff"/>
     <use xlink:href="#m64495105d4" x="234.282293" y="200.54489" style="fill: #00bfff; stroke: #00bfff"/>
     <use xlink:href="#m64495105d4" x="228.947045" y="173.007207" style="fill: #00bfff; stroke: #00bfff"/>
     <use xlink:href="#m64495105d4" x="291.113043" y="217.318947" style="fill: #00bfff; stroke: #00bfff"/>
    </g>
   </g>
   <g id="PathCollection_5">
    <defs>
     <path id="m2428fba25b" d="M 0 1.5 
C 0.397805 1.5 0.77937 1.341951 1.06066 1.06066 
C 1.341951 0.77937 1.5 0.397805 1.5 0 
C 1.5 -0.397805 1.341951 -0.77937 1.06066 -1.06066 
C 0.77937 -1.341951 0.397805 -1.5 0 -1.5 
C -0.397805 -1.5 -0.77937 -1.341951 -1.06066 -1.06066 
C -1.341951 -0.77937 -1.5 -0.397805 -1.5 0 
C -1.5 0.397805 -1.341951 0.77937 -1.06066 1.06066 
C -0.77937 1.341951 -0.397805 1.5 0 1.5 
z
" style="stroke: #ffff00"/>
    </defs>
    <g clip-path="url(#p3655f78e2a)">
     <use xlink:href="#m2428fba25b" x="286.093398" y="186.096275" style="fill: #ffff00; stroke: #ffff00"/>
     <use xlink:href="#m2428fba25b" x="277.746645" y="169.736336" style="fill: #ffff00; stroke: #ffff00"/>
     <use xlink:href="#m2428fba25b" x="243.391092" y="211.994753" style="fill: #ffff00; stroke: #ffff00"/>
     <use xlink:href="#m2428fba25b" x="262.122133" y="206.556317" style="fill: #ffff00; stroke: #ffff00"/>
     <use xlink:href="#m2428fba25b" x="315.430423" y="202.045245" style="fill: #ffff00; stroke: #ffff00"/>
     <use xlink:href="#m2428fba25b" x="279.847772" y="205.717188" style="fill: #ffff00; stroke: #ffff00"/>
     <use xlink:href="#m2428fba25b" x="286.902549" y="195.766689" style="fill: #ffff00; stroke: #ffff00"/>
     <use xlink:href="#m2428fba25b" x="207.845091" y="243.100323" style="fill: #ffff00; stroke: #ffff00"/>
     <use xlink:href="#m2428fba25b" x="268.569648" y="216.731735" style="fill: #ffff00; stroke: #ffff00"/>
     <use xlink:href="#m2428fba25b" x="270.824276" y="172.396347" style="fill: #ffff00; stroke: #ffff00"/>
     <use xlink:href="#m2428fba25b" x="307.121906" y="180.725331" style="fill: #ffff00; stroke: #ffff00"/>
     <use xlink:href="#m2428fba25b" x="263.410564" y="202.270399" style="fill: #ffff00; stroke: #ffff00"/>
     <use xlink:href="#m2428fba25b" x="271.046512" y="199.532645" style="fill: #ffff00; stroke: #ffff00"/>
     <use xlink:href="#m2428fba25b" x="242.903681" y="217.38669" style="fill: #ffff00; stroke: #ffff00"/>
    </g>
   </g>
   <g id="PathCollection_6">
    <defs>
     <path id="md1b2e987a4" d="M 0 1.5 
C 0.397805 1.5 0.77937 1.341951 1.06066 1.06066 
C 1.341951 0.77937 1.5 0.397805 1.5 0 
C 1.5 -0.397805 1.341951 -0.77937 1.06066 -1.06066 
C 0.77937 -1.341951 0.397805 -1.5 0 -1.5 
C -0.397805 -1.5 -0.77937 -1.341951 -1.06066 -1.06066 
C -1.341951 -0.77937 -1.5 -0.397805 -1.5 0 
C -1.5 0.397805 -1.341951 0.77937 -1.06066 1.06066 
C -0.77937 1.341951 -0.397805 1.5 0 1.5 
z
" style="stroke: #00ffff"/>
    </defs>
    <g clip-path="url(#p3655f78e2a)">
     <use xlink:href="#md1b2e987a4" x="246.537787" y="195.153981" style="fill: #00ffff; stroke: #00ffff"/>
     <use xlink:href="#md1b2e987a4" x="182.903977" y="205.345798" style="fill: #00ffff; stroke: #00ffff"/>
     <use xlink:href="#md1b2e987a4" x="256.022758" y="247.082895" style="fill: #00ffff; stroke: #00ffff"/>
     <use xlink:href="#md1b2e987a4" x="228.946775" y="217.074921" style="fill: #00ffff; stroke: #00ffff"/>
     <use xlink:href="#md1b2e987a4" x="172.189027" y="205.755358" style="fill: #00ffff; stroke: #00ffff"/>
     <use xlink:href="#md1b2e987a4" x="227.663072" y="233.818999" style="fill: #00ffff; stroke: #00ffff"/>
     <use xlink:href="#md1b2e987a4" x="218.267051" y="210.405924" style="fill: #00ffff; stroke: #00ffff"/>
     <use xlink:href="#md1b2e987a4" x="213.65592" y="239.489727" style="fill: #00ffff; stroke: #00ffff"/>
     <use xlink:href="#md1b2e987a4" x="168.90418" y="200.941877" style="fill: #00ffff; stroke: #00ffff"/>
     <use xlink:href="#md1b2e987a4" x="197.385805" y="228.477078" style="fill: #00ffff; stroke: #00ffff"/>
     <use xlink:href="#md1b2e987a4" x="228.188411" y="217.395556" style="fill: #00ffff; stroke: #00ffff"/>
     <use xlink:href="#md1b2e987a4" x="178.411915" y="220.847054" style="fill: #00ffff; stroke: #00ffff"/>
     <use xlink:href="#md1b2e987a4" x="170.320532" y="217.076157" style="fill: #00ffff; stroke: #00ffff"/>
     <use xlink:href="#md1b2e987a4" x="214.857502" y="235.15758" style="fill: #00ffff; stroke: #00ffff"/>
     <use xlink:href="#md1b2e987a4" x="209.734634" y="219.025629" style="fill: #00ffff; stroke: #00ffff"/>
     <use xlink:href="#md1b2e987a4" x="206.033473" y="213.785801" style="fill: #00ffff; stroke: #00ffff"/>
    </g>
   </g>
   <g id="PathCollection_7">
    <defs>
     <path id="m0bdcd1a8b6" d="M 0 1.5 
C 0.397805 1.5 0.77937 1.341951 1.06066 1.06066 
C 1.341951 0.77937 1.5 0.397805 1.5 0 
C 1.5 -0.397805 1.341951 -0.77937 1.06066 -1.06066 
C 0.77937 -1.341951 0.397805 -1.5 0 -1.5 
C -0.397805 -1.5 -0.77937 -1.341951 -1.06066 -1.06066 
C -1.341951 -0.77937 -1.5 -0.397805 -1.5 0 
C -1.5 0.397805 -1.341951 0.77937 -1.06066 1.06066 
C -0.77937 1.341951 -0.397805 1.5 0 1.5 
z
" style="stroke: #0000ff"/>
    </defs>
    <g clip-path="url(#p3655f78e2a)">
     <use xlink:href="#m0bdcd1a8b6" x="286.373588" y="183.054008" style="fill: #0000ff; stroke: #0000ff"/>
     <use xlink:href="#m0bdcd1a8b6" x="333.452109" y="97.014333" style="fill: #0000ff; stroke: #0000ff"/>
     <use xlink:href="#m0bdcd1a8b6" x="323.629348" y="127.988451" style="fill: #0000ff; stroke: #0000ff"/>
     <use xlink:href="#m0bdcd1a8b6" x="333.114692" y="97.199531" style="fill: #0000ff; stroke: #0000ff"/>
     <use xlink:href="#m0bdcd1a8b6" x="296.64515" y="208.11068" style="fill: #0000ff; stroke: #0000ff"/>
     <use xlink:href="#m0bdcd1a8b6" x="239.971502" y="210.960257" style="fill: #0000ff; stroke: #0000ff"/>
     <use xlink:href="#m0bdcd1a8b6" x="338.201091" y="122.725266" style="fill: #0000ff; stroke: #0000ff"/>
     <use xlink:href="#m0bdcd1a8b6" x="249.796758" y="150.326715" style="fill: #0000ff; stroke: #0000ff"/>
     <use xlink:href="#m0bdcd1a8b6" x="238.260123" y="206.015972" style="fill: #0000ff; stroke: #0000ff"/>
     <use xlink:href="#m0bdcd1a8b6" x="256.886852" y="221.360923" style="fill: #0000ff; stroke: #0000ff"/>
     <use xlink:href="#m0bdcd1a8b6" x="248.674362" y="186.103218" style="fill: #0000ff; stroke: #0000ff"/>
     <use xlink:href="#m0bdcd1a8b6" x="262.95953" y="212.135626" style="fill: #0000ff; stroke: #0000ff"/>
     <use xlink:href="#m0bdcd1a8b6" x="376.19196" y="19.296" style="fill: #0000ff; stroke: #0000ff"/>
     <use xlink:href="#m0bdcd1a8b6" x="303.24908" y="134.661944" style="fill: #0000ff; stroke: #0000ff"/>
     <use xlink:href="#m0bdcd1a8b6" x="324.969905" y="120.708926" style="fill: #0000ff; stroke: #0000ff"/>
     <use xlink:href="#m0bdcd1a8b6" x="319.365494" y="125.930335" style="fill: #0000ff; stroke: #0000ff"/>
     <use xlink:href="#m0bdcd1a8b6" x="333.232735" y="96.194911" style="fill: #0000ff; stroke: #0000ff"/>
     <use xlink:href="#m0bdcd1a8b6" x="286.960638" y="207.404991" style="fill: #0000ff; stroke: #0000ff"/>
     <use xlink:href="#m0bdcd1a8b6" x="314.740421" y="175.413492" style="fill: #0000ff; stroke: #0000ff"/>
     <use xlink:href="#m0bdcd1a8b6" x="182.333302" y="206.555759" style="fill: #0000ff; stroke: #0000ff"/>
     <use xlink:href="#m0bdcd1a8b6" x="311.946835" y="91.513251" style="fill: #0000ff; stroke: #0000ff"/>
     <use xlink:href="#m0bdcd1a8b6" x="318.473706" y="136.300459" style="fill: #0000ff; stroke: #0000ff"/>
    </g>
   </g>
   <g id="PathCollection_8">
    <defs>
     <path id="m3be6a03876" d="M 0 1.5 
C 0.397805 1.5 0.77937 1.341951 1.06066 1.06066 
C 1.341951 0.77937 1.5 0.397805 1.5 0 
C 1.5 -0.397805 1.341951 -0.77937 1.06066 -1.06066 
C 0.77937 -1.341951 0.397805 -1.5 0 -1.5 
C -0.397805 -1.5 -0.77937 -1.341951 -1.06066 -1.06066 
C -1.341951 -0.77937 -1.5 -0.397805 -1.5 0 
C -1.5 0.397805 -1.341951 0.77937 -1.06066 1.06066 
C -0.77937 1.341951 -0.397805 1.5 0 1.5 
z
" style="stroke: #dc143c"/>
    </defs>
    <g clip-path="url(#p3655f78e2a)">
     <use xlink:href="#m3be6a03876" x="121.671361" y="173.732171" style="fill: #dc143c; stroke: #dc143c"/>
     <use xlink:href="#m3be6a03876" x="219.883888" y="190.116675" style="fill: #dc143c; stroke: #dc143c"/>
     <use xlink:href="#m3be6a03876" x="270.754556" y="193.948411" style="fill: #dc143c; stroke: #dc143c"/>
     <use xlink:href="#m3be6a03876" x="160.89247" y="169.136312" style="fill: #dc143c; stroke: #dc143c"/>
     <use xlink:href="#m3be6a03876" x="287.696339" y="187.836796" style="fill: #dc143c; stroke: #dc143c"/>
     <use xlink:href="#m3be6a03876" x="187.416118" y="184.897652" style="fill: #dc143c; stroke: #dc143c"/>
     <use xlink:href="#m3be6a03876" x="227.846952" y="183.247066" style="fill: #dc143c; stroke: #dc143c"/>
     <use xlink:href="#m3be6a03876" x="216.153649" y="232.016935" style="fill: #dc143c; stroke: #dc143c"/>
     <use xlink:href="#m3be6a03876" x="225.924515" y="217.013677" style="fill: #dc143c; stroke: #dc143c"/>
     <use xlink:href="#m3be6a03876" x="266.39536" y="189.562306" style="fill: #dc143c; stroke: #dc143c"/>
     <use xlink:href="#m3be6a03876" x="178.285742" y="232.70963" style="fill: #dc143c; stroke: #dc143c"/>
     <use xlink:href="#m3be6a03876" x="149.154078" y="224.329014" style="fill: #dc143c; stroke: #dc143c"/>
    </g>
   </g>
   <g id="PathCollection_9">
    <defs>
     <path id="m855fddc987" d="M 0 1.5 
C 0.397805 1.5 0.77937 1.341951 1.06066 1.06066 
C 1.341951 0.77937 1.5 0.397805 1.5 0 
C 1.5 -0.397805 1.341951 -0.77937 1.06066 -1.06066 
C 0.77937 -1.341951 0.397805 -1.5 0 -1.5 
C -0.397805 -1.5 -0.77937 -1.341951 -1.06066 -1.06066 
C -1.341951 -0.77937 -1.5 -0.397805 -1.5 0 
C -1.5 0.397805 -1.341951 0.77937 -1.06066 1.06066 
C -0.77937 1.341951 -0.397805 1.5 0 1.5 
z
" style="stroke: #ffe4c4"/>
    </defs>
    <g clip-path="url(#p3655f78e2a)">
     <use xlink:href="#m855fddc987" x="99.481696" y="116.344685" style="fill: #ffe4c4; stroke: #ffe4c4"/>
     <use xlink:href="#m855fddc987" x="215.619266" y="167.646419" style="fill: #ffe4c4; stroke: #ffe4c4"/>
     <use xlink:href="#m855fddc987" x="182.169431" y="130.747107" style="fill: #ffe4c4; stroke: #ffe4c4"/>
     <use xlink:href="#m855fddc987" x="239.778622" y="147.482884" style="fill: #ffe4c4; stroke: #ffe4c4"/>
     <use xlink:href="#m855fddc987" x="176.241735" y="132.368751" style="fill: #ffe4c4; stroke: #ffe4c4"/>
     <use xlink:href="#m855fddc987" x="145.588378" y="172.149536" style="fill: #ffe4c4; stroke: #ffe4c4"/>
     <use xlink:href="#m855fddc987" x="156.238208" y="171.54886" style="fill: #ffe4c4; stroke: #ffe4c4"/>
     <use xlink:href="#m855fddc987" x="151.536536" y="110.455188" style="fill: #ffe4c4; stroke: #ffe4c4"/>
     <use xlink:href="#m855fddc987" x="225.214125" y="203.683876" style="fill: #ffe4c4; stroke: #ffe4c4"/>
     <use xlink:href="#m855fddc987" x="180.588543" y="174.840355" style="fill: #ffe4c4; stroke: #ffe4c4"/>
     <use xlink:href="#m855fddc987" x="65.387982" y="42.04588" style="fill: #ffe4c4; stroke: #ffe4c4"/>
     <use xlink:href="#m855fddc987" x="108.114068" y="100.703918" style="fill: #ffe4c4; stroke: #ffe4c4"/>
     <use xlink:href="#m855fddc987" x="224.572693" y="206.427357" style="fill: #ffe4c4; stroke: #ffe4c4"/>
    </g>
   </g>
   <g id="PathCollection_10">
    <defs>
     <path id="m8fe4835f19" d="M -2.99994 2.99994 
L 3.00006 2.99994 
L 3.00006 -3.00006 
L -2.99994 -3.00006 
z
" style="stroke: #000000"/>
    </defs>
    <g clip-path="url(#p3655f78e2a)">
     <use xlink:href="#m8fe4835f19" x="177.669067" y="195.575963" style="stroke: #000000"/>
     <use xlink:href="#m8fe4835f19" x="168.076731" y="193.636671" style="stroke: #000000"/>
     <use xlink:href="#m8fe4835f19" x="72.357125" y="118.934801" style="stroke: #000000"/>
     <use xlink:href="#m8fe4835f19" x="167.174763" y="162.112073" style="stroke: #000000"/>
     <use xlink:href="#m8fe4835f19" x="92.106009" y="167.854294" style="stroke: #000000"/>
     <use xlink:href="#m8fe4835f19" x="162.939174" y="225.007384" style="stroke: #000000"/>
     <use xlink:href="#m8fe4835f19" x="68.60431" y="143.963645" style="stroke: #000000"/>
     <use xlink:href="#m8fe4835f19" x="131.707647" y="136.756451" style="stroke: #000000"/>
     <use xlink:href="#m8fe4835f19" x="166.029489" y="220.483059" style="stroke: #000000"/>
     <use xlink:href="#m8fe4835f19" x="140.724698" y="192.579542" style="stroke: #000000"/>
     <use xlink:href="#m8fe4835f19" x="121.87664" y="161.802635" style="stroke: #000000"/>
     <use xlink:href="#m8fe4835f19" x="146.281409" y="214.94871" style="stroke: #000000"/>
     <use xlink:href="#m8fe4835f19" x="159.163918" y="232.745742" style="stroke: #000000"/>
     <use xlink:href="#m8fe4835f19" x="172.385384" y="133.353003" style="stroke: #000000"/>
     <use xlink:href="#m8fe4835f19" x="96.288931" y="163.476344" style="stroke: #000000"/>
     <use xlink:href="#m8fe4835f19" x="139.655949" y="228.899375" style="stroke: #000000"/>
     <use xlink:href="#m8fe4835f19" x="144.651618" y="176.436087" style="stroke: #000000"/>
     <use xlink:href="#m8fe4835f19" x="155.471102" y="197.288912" style="stroke: #000000"/>
     <use xlink:href="#m8fe4835f19" x="85.448203" y="232.334995" style="stroke: #000000"/>
     <use xlink:href="#m8fe4835f19" x="217.169781" y="225.273452" style="stroke: #000000"/>
     <use xlink:href="#m8fe4835f19" x="148.303795" y="191.5894" style="stroke: #000000"/>
     <use xlink:href="#m8fe4835f19" x="230.87918" y="196.156325" style="stroke: #000000"/>
     <use xlink:href="#m8fe4835f19" x="156.08848" y="227.658293" style="stroke: #000000"/>
     <use xlink:href="#m8fe4835f19" x="160.597838" y="140.170538" style="stroke: #000000"/>
     <use xlink:href="#m8fe4835f19" x="201.405214" y="248.410807" style="stroke: #000000"/>
     <use xlink:href="#m8fe4835f19" x="151.576018" y="156.003344" style="stroke: #000000"/>
     <use xlink:href="#m8fe4835f19" x="118.302414" y="127.25754" style="stroke: #000000"/>
     <use xlink:href="#m8fe4835f19" x="120.347986" y="181.243285" style="stroke: #000000"/>
     <use xlink:href="#m8fe4835f19" x="225.355709" y="191.280458" style="stroke: #000000"/>
     <use xlink:href="#m8fe4835f19" x="51.537415" y="171.820202" style="stroke: #000000"/>
     <use xlink:href="#m8fe4835f19" x="173.89901" y="215.268898" style="stroke: #000000"/>
     <use xlink:href="#m8fe4835f19" x="217.70572" y="147.566287" style="stroke: #000000"/>
     <use xlink:href="#m8fe4835f19" x="92.865446" y="100.746102" style="stroke: #000000"/>
     <use xlink:href="#m8fe4835f19" x="132.389897" y="217.56497" style="stroke: #000000"/>
     <use xlink:href="#m8fe4835f19" x="170.392545" y="164.250547" style="stroke: #000000"/>
     <use xlink:href="#m8fe4835f19" x="95.72722" y="182.968921" style="stroke: #000000"/>
     <use xlink:href="#m8fe4835f19" x="173.118728" y="178.680765" style="stroke: #000000"/>
     <use xlink:href="#m8fe4835f19" x="100.749574" y="190.893549" style="stroke: #000000"/>
     <use xlink:href="#m8fe4835f19" x="150.419315" y="206.005791" style="stroke: #000000"/>
     <use xlink:href="#m8fe4835f19" x="125.066445" y="172.319029" style="stroke: #000000"/>
     <use xlink:href="#m8fe4835f19" x="162.435388" y="186.736568" style="stroke: #000000"/>
     <use xlink:href="#m8fe4835f19" x="82.547781" y="204.192498" style="stroke: #000000"/>
     <use xlink:href="#m8fe4835f19" x="268.933143" y="212.258709" style="stroke: #000000"/>
     <use xlink:href="#m8fe4835f19" x="249.504938" y="183.26167" style="stroke: #000000"/>
     <use xlink:href="#m8fe4835f19" x="103.236145" y="164.658557" style="stroke: #000000"/>
     <use xlink:href="#m8fe4835f19" x="163.96814" y="146.702236" style="stroke: #000000"/>
     <use xlink:href="#m8fe4835f19" x="100.266569" y="137.340438" style="stroke: #000000"/>
     <use xlink:href="#m8fe4835f19" x="135.839692" y="216.4431" style="stroke: #000000"/>
     <use xlink:href="#m8fe4835f19" x="205.157242" y="223.460048" style="stroke: #000000"/>
     <use xlink:href="#m8fe4835f19" x="54.328466" y="179.749627" style="stroke: #000000"/>
     <use xlink:href="#m8fe4835f19" x="171.673427" y="210.677437" style="stroke: #000000"/>
     <use xlink:href="#m8fe4835f19" x="121.986153" y="224.319331" style="stroke: #000000"/>
     <use xlink:href="#m8fe4835f19" x="157.272023" y="176.923362" style="stroke: #000000"/>
     <use xlink:href="#m8fe4835f19" x="106.999478" y="210.232661" style="stroke: #000000"/>
     <use xlink:href="#m8fe4835f19" x="134.275491" y="181.368967" style="stroke: #000000"/>
     <use xlink:href="#m8fe4835f19" x="126.147095" y="170.704287" style="stroke: #000000"/>
     <use xlink:href="#m8fe4835f19" x="183.757812" y="164.333996" style="stroke: #000000"/>
     <use xlink:href="#m8fe4835f19" x="132.994618" y="200.928022" style="stroke: #000000"/>
     <use xlink:href="#m8fe4835f19" x="189.147771" y="196.220263" style="stroke: #000000"/>
     <use xlink:href="#m8fe4835f19" x="154.202806" y="190.229274" style="stroke: #000000"/>
     <use xlink:href="#m8fe4835f19" x="63.945246" y="179.776048" style="stroke: #000000"/>
     <use xlink:href="#m8fe4835f19" x="169.418822" y="208.742911" style="stroke: #000000"/>
     <use xlink:href="#m8fe4835f19" x="141.587512" y="203.812662" style="stroke: #000000"/>
     <use xlink:href="#m8fe4835f19" x="183.849537" y="261.216" style="stroke: #000000"/>
    </g>
   </g>
   <g id="PathCollection_11">
    <defs>
     <path id="m6638acc02a" d="M -3 -0 
L 3 3 
L 3 -3 
z
" style="stroke: #ff8c00"/>
    </defs>
    <g clip-path="url(#p3655f78e2a)">
     <use xlink:href="#m6638acc02a" x="190.322761" y="202.372254" style="fill: #ff8c00; stroke: #ff8c00"/>
     <use xlink:href="#m6638acc02a" x="162.87299" y="201.088501" style="fill: #ff8c00; stroke: #ff8c00"/>
     <use xlink:href="#m6638acc02a" x="229.148069" y="178.775029" style="fill: #ff8c00; stroke: #ff8c00"/>
     <use xlink:href="#m6638acc02a" x="282.712209" y="156.605351" style="fill: #ff8c00; stroke: #ff8c00"/>
     <use xlink:href="#m6638acc02a" x="184.792026" y="211.882312" style="fill: #ff8c00; stroke: #ff8c00"/>
     <use xlink:href="#m6638acc02a" x="153.796236" y="217.808438" style="fill: #ff8c00; stroke: #ff8c00"/>
     <use xlink:href="#m6638acc02a" x="101.145935" y="203.0944" style="fill: #ff8c00; stroke: #ff8c00"/>
     <use xlink:href="#m6638acc02a" x="165.753661" y="207.830578" style="fill: #ff8c00; stroke: #ff8c00"/>
     <use xlink:href="#m6638acc02a" x="151.536156" y="189.014067" style="fill: #ff8c00; stroke: #ff8c00"/>
     <use xlink:href="#m6638acc02a" x="107.071262" y="208.536999" style="fill: #ff8c00; stroke: #ff8c00"/>
     <use xlink:href="#m6638acc02a" x="208.005869" y="224.484577" style="fill: #ff8c00; stroke: #ff8c00"/>
     <use xlink:href="#m6638acc02a" x="212.29401" y="187.462951" style="fill: #ff8c00; stroke: #ff8c00"/>
     <use xlink:href="#m6638acc02a" x="131.426235" y="233.022865" style="fill: #ff8c00; stroke: #ff8c00"/>
     <use xlink:href="#m6638acc02a" x="186.57555" y="216.136925" style="fill: #ff8c00; stroke: #ff8c00"/>
     <use xlink:href="#m6638acc02a" x="205.262143" y="191.965223" style="fill: #ff8c00; stroke: #ff8c00"/>
     <use xlink:href="#m6638acc02a" x="143.324654" y="176.289822" style="fill: #ff8c00; stroke: #ff8c00"/>
     <use xlink:href="#m6638acc02a" x="216.642532" y="208.240582" style="fill: #ff8c00; stroke: #ff8c00"/>
     <use xlink:href="#m6638acc02a" x="212.130284" y="215.468377" style="fill: #ff8c00; stroke: #ff8c00"/>
     <use xlink:href="#m6638acc02a" x="132.131617" y="197.171475" style="fill: #ff8c00; stroke: #ff8c00"/>
     <use xlink:href="#m6638acc02a" x="160.161028" y="214.253451" style="fill: #ff8c00; stroke: #ff8c00"/>
     <use xlink:href="#m6638acc02a" x="145.370085" y="196.475339" style="fill: #ff8c00; stroke: #ff8c00"/>
     <use xlink:href="#m6638acc02a" x="215.17318" y="197.870429" style="fill: #ff8c00; stroke: #ff8c00"/>
     <use xlink:href="#m6638acc02a" x="191.81155" y="214.344214" style="fill: #ff8c00; stroke: #ff8c00"/>
     <use xlink:href="#m6638acc02a" x="177.962554" y="213.818075" style="fill: #ff8c00; stroke: #ff8c00"/>
     <use xlink:href="#m6638acc02a" x="189.068277" y="195.628331" style="fill: #ff8c00; stroke: #ff8c00"/>
     <use xlink:href="#m6638acc02a" x="86.991099" y="184.179302" style="fill: #ff8c00; stroke: #ff8c00"/>
     <use xlink:href="#m6638acc02a" x="168.89933" y="199.694597" style="fill: #ff8c00; stroke: #ff8c00"/>
     <use xlink:href="#m6638acc02a" x="197.280072" y="206.257494" style="fill: #ff8c00; stroke: #ff8c00"/>
     <use xlink:href="#m6638acc02a" x="91.803137" y="201.879721" style="fill: #ff8c00; stroke: #ff8c00"/>
     <use xlink:href="#m6638acc02a" x="112.37809" y="209.335963" style="fill: #ff8c00; stroke: #ff8c00"/>
     <use xlink:href="#m6638acc02a" x="245.43165" y="202.961282" style="fill: #ff8c00; stroke: #ff8c00"/>
     <use xlink:href="#m6638acc02a" x="133.603475" y="195.025098" style="fill: #ff8c00; stroke: #ff8c00"/>
     <use xlink:href="#m6638acc02a" x="195.834164" y="190.938393" style="fill: #ff8c00; stroke: #ff8c00"/>
     <use xlink:href="#m6638acc02a" x="153.288545" y="196.648792" style="fill: #ff8c00; stroke: #ff8c00"/>
     <use xlink:href="#m6638acc02a" x="160.55715" y="175.213737" style="fill: #ff8c00; stroke: #ff8c00"/>
     <use xlink:href="#m6638acc02a" x="175.666249" y="200.145824" style="fill: #ff8c00; stroke: #ff8c00"/>
     <use xlink:href="#m6638acc02a" x="162.412658" y="209.378708" style="fill: #ff8c00; stroke: #ff8c00"/>
     <use xlink:href="#m6638acc02a" x="166.196734" y="172.506176" style="fill: #ff8c00; stroke: #ff8c00"/>
     <use xlink:href="#m6638acc02a" x="173.283847" y="207.618996" style="fill: #ff8c00; stroke: #ff8c00"/>
     <use xlink:href="#m6638acc02a" x="214.727804" y="226.398011" style="fill: #ff8c00; stroke: #ff8c00"/>
     <use xlink:href="#m6638acc02a" x="113.437427" y="186.393596" style="fill: #ff8c00; stroke: #ff8c00"/>
     <use xlink:href="#m6638acc02a" x="198.356235" y="230.364416" style="fill: #ff8c00; stroke: #ff8c00"/>
     <use xlink:href="#m6638acc02a" x="132.480195" y="184.03868" style="fill: #ff8c00; stroke: #ff8c00"/>
     <use xlink:href="#m6638acc02a" x="183.368621" y="139.726022" style="fill: #ff8c00; stroke: #ff8c00"/>
     <use xlink:href="#m6638acc02a" x="201.393395" y="204.485422" style="fill: #ff8c00; stroke: #ff8c00"/>
     <use xlink:href="#m6638acc02a" x="136.365392" y="166.930554" style="fill: #ff8c00; stroke: #ff8c00"/>
     <use xlink:href="#m6638acc02a" x="182.894807" y="206.900232" style="fill: #ff8c00; stroke: #ff8c00"/>
     <use xlink:href="#m6638acc02a" x="149.29038" y="229.406867" style="fill: #ff8c00; stroke: #ff8c00"/>
     <use xlink:href="#m6638acc02a" x="222.355205" y="184.120766" style="fill: #ff8c00; stroke: #ff8c00"/>
     <use xlink:href="#m6638acc02a" x="131.00579" y="215.195893" style="fill: #ff8c00; stroke: #ff8c00"/>
     <use xlink:href="#m6638acc02a" x="116.440371" y="204.355572" style="fill: #ff8c00; stroke: #ff8c00"/>
     <use xlink:href="#m6638acc02a" x="123.643798" y="176.739616" style="fill: #ff8c00; stroke: #ff8c00"/>
     <use xlink:href="#m6638acc02a" x="102.097561" y="128.706963" style="fill: #ff8c00; stroke: #ff8c00"/>
     <use xlink:href="#m6638acc02a" x="193.359509" y="186.961159" style="fill: #ff8c00; stroke: #ff8c00"/>
     <use xlink:href="#m6638acc02a" x="133.750936" y="188.193312" style="fill: #ff8c00; stroke: #ff8c00"/>
     <use xlink:href="#m6638acc02a" x="83.573011" y="183.70378" style="fill: #ff8c00; stroke: #ff8c00"/>
     <use xlink:href="#m6638acc02a" x="184.190954" y="207.527724" style="fill: #ff8c00; stroke: #ff8c00"/>
     <use xlink:href="#m6638acc02a" x="212.183099" y="212.288159" style="fill: #ff8c00; stroke: #ff8c00"/>
     <use xlink:href="#m6638acc02a" x="202.276718" y="209.286456" style="fill: #ff8c00; stroke: #ff8c00"/>
     <use xlink:href="#m6638acc02a" x="117.877266" y="166.574618" style="fill: #ff8c00; stroke: #ff8c00"/>
     <use xlink:href="#m6638acc02a" x="229.749197" y="207.837974" style="fill: #ff8c00; stroke: #ff8c00"/>
     <use xlink:href="#m6638acc02a" x="177.31247" y="214.753114" style="fill: #ff8c00; stroke: #ff8c00"/>
     <use xlink:href="#m6638acc02a" x="178.533359" y="195.762815" style="fill: #ff8c00; stroke: #ff8c00"/>
     <use xlink:href="#m6638acc02a" x="178.523744" y="204.535698" style="fill: #ff8c00; stroke: #ff8c00"/>
    </g>
   </g>
   <g id="matplotlib.axis_1">
    <g id="xtick_1">
     <g id="line2d_1">
      <defs>
       <path id="mefc9e512cc" d="M 0 0 
L 0 3.5 
" style="stroke: #000000; stroke-width: 0.8"/>
      </defs>
      <g>
       <use xlink:href="#mefc9e512cc" x="65.114611" y="273.312" style="stroke: #000000; stroke-width: 0.8"/>
      </g>
     </g>
     <g id="text_1">
      <!-- −20 -->
      <g transform="translate(54.562268 287.910437) scale(0.1 -0.1)">
       <defs>
        <path id="DejaVuSans-2212" d="M 678 2272 
L 4684 2272 
L 4684 1741 
L 678 1741 
L 678 2272 
z
" transform="scale(0.015625)"/>
        <path id="DejaVuSans-32" d="M 1228 531 
L 3431 531 
L 3431 0 
L 469 0 
L 469 531 
Q 828 903 1448 1529 
Q 2069 2156 2228 2338 
Q 2531 2678 2651 2914 
Q 2772 3150 2772 3378 
Q 2772 3750 2511 3984 
Q 2250 4219 1831 4219 
Q 1534 4219 1204 4116 
Q 875 4013 500 3803 
L 500 4441 
Q 881 4594 1212 4672 
Q 1544 4750 1819 4750 
Q 2544 4750 2975 4387 
Q 3406 4025 3406 3419 
Q 3406 3131 3298 2873 
Q 3191 2616 2906 2266 
Q 2828 2175 2409 1742 
Q 1991 1309 1228 531 
z
" transform="scale(0.015625)"/>
        <path id="DejaVuSans-30" d="M 2034 4250 
Q 1547 4250 1301 3770 
Q 1056 3291 1056 2328 
Q 1056 1369 1301 889 
Q 1547 409 2034 409 
Q 2525 409 2770 889 
Q 3016 1369 3016 2328 
Q 3016 3291 2770 3770 
Q 2525 4250 2034 4250 
z
M 2034 4750 
Q 2819 4750 3233 4129 
Q 3647 3509 3647 2328 
Q 3647 1150 3233 529 
Q 2819 -91 2034 -91 
Q 1250 -91 836 529 
Q 422 1150 422 2328 
Q 422 3509 836 4129 
Q 1250 4750 2034 4750 
z
" transform="scale(0.015625)"/>
       </defs>
       <use xlink:href="#DejaVuSans-2212"/>
       <use xlink:href="#DejaVuSans-32" x="83.789062"/>
       <use xlink:href="#DejaVuSans-30" x="147.412109"/>
      </g>
     </g>
    </g>
    <g id="xtick_2">
     <g id="line2d_2">
      <g>
       <use xlink:href="#mefc9e512cc" x="132.568049" y="273.312" style="stroke: #000000; stroke-width: 0.8"/>
      </g>
     </g>
     <g id="text_2">
      <!-- −10 -->
      <g transform="translate(122.015705 287.910437) scale(0.1 -0.1)">
       <defs>
        <path id="DejaVuSans-31" d="M 794 531 
L 1825 531 
L 1825 4091 
L 703 3866 
L 703 4441 
L 1819 4666 
L 2450 4666 
L 2450 531 
L 3481 531 
L 3481 0 
L 794 0 
L 794 531 
z
" transform="scale(0.015625)"/>
       </defs>
       <use xlink:href="#DejaVuSans-2212"/>
       <use xlink:href="#DejaVuSans-31" x="83.789062"/>
       <use xlink:href="#DejaVuSans-30" x="147.412109"/>
      </g>
     </g>
    </g>
    <g id="xtick_3">
     <g id="line2d_3">
      <g>
       <use xlink:href="#mefc9e512cc" x="200.021486" y="273.312" style="stroke: #000000; stroke-width: 0.8"/>
      </g>
     </g>
     <g id="text_3">
      <!-- 0 -->
      <g transform="translate(196.840236 287.910437) scale(0.1 -0.1)">
       <use xlink:href="#DejaVuSans-30"/>
      </g>
     </g>
    </g>
    <g id="xtick_4">
     <g id="line2d_4">
      <g>
       <use xlink:href="#mefc9e512cc" x="267.474923" y="273.312" style="stroke: #000000; stroke-width: 0.8"/>
      </g>
     </g>
     <g id="text_4">
      <!-- 10 -->
      <g transform="translate(261.112423 287.910437) scale(0.1 -0.1)">
       <use xlink:href="#DejaVuSans-31"/>
       <use xlink:href="#DejaVuSans-30" x="63.623047"/>
      </g>
     </g>
    </g>
    <g id="xtick_5">
     <g id="line2d_5">
      <g>
       <use xlink:href="#mefc9e512cc" x="334.92836" y="273.312" style="stroke: #000000; stroke-width: 0.8"/>
      </g>
     </g>
     <g id="text_5">
      <!-- 20 -->
      <g transform="translate(328.56586 287.910437) scale(0.1 -0.1)">
       <use xlink:href="#DejaVuSans-32"/>
       <use xlink:href="#DejaVuSans-30" x="63.623047"/>
      </g>
     </g>
    </g>
   </g>
   <g id="matplotlib.axis_2">
    <g id="ytick_1">
     <g id="line2d_6">
      <defs>
       <path id="m79fd3cecc7" d="M 0 0 
L -3.5 0 
" style="stroke: #000000; stroke-width: 0.8"/>
      </defs>
      <g>
       <use xlink:href="#m79fd3cecc7" x="35.304688" y="234.081835" style="stroke: #000000; stroke-width: 0.8"/>
      </g>
     </g>
     <g id="text_6">
      <!-- −10 -->
      <g transform="translate(7.2 237.881054) scale(0.1 -0.1)">
       <use xlink:href="#DejaVuSans-2212"/>
       <use xlink:href="#DejaVuSans-31" x="83.789062"/>
       <use xlink:href="#DejaVuSans-30" x="147.412109"/>
      </g>
     </g>
    </g>
    <g id="ytick_2">
     <g id="line2d_7">
      <g>
       <use xlink:href="#m79fd3cecc7" x="35.304688" y="190.468083" style="stroke: #000000; stroke-width: 0.8"/>
      </g>
     </g>
     <g id="text_7">
      <!-- 0 -->
      <g transform="translate(21.942187 194.267302) scale(0.1 -0.1)">
       <use xlink:href="#DejaVuSans-30"/>
      </g>
     </g>
    </g>
    <g id="ytick_3">
     <g id="line2d_8">
      <g>
       <use xlink:href="#m79fd3cecc7" x="35.304688" y="146.85433" style="stroke: #000000; stroke-width: 0.8"/>
      </g>
     </g>
     <g id="text_8">
      <!-- 10 -->
      <g transform="translate(15.579687 150.653549) scale(0.1 -0.1)">
       <use xlink:href="#DejaVuSans-31"/>
       <use xlink:href="#DejaVuSans-30" x="63.623047"/>
      </g>
     </g>
    </g>
    <g id="ytick_4">
     <g id="line2d_9">
      <g>
       <use xlink:href="#m79fd3cecc7" x="35.304688" y="103.240578" style="stroke: #000000; stroke-width: 0.8"/>
      </g>
     </g>
     <g id="text_9">
      <!-- 20 -->
      <g transform="translate(15.579687 107.039797) scale(0.1 -0.1)">
       <use xlink:href="#DejaVuSans-32"/>
       <use xlink:href="#DejaVuSans-30" x="63.623047"/>
      </g>
     </g>
    </g>
    <g id="ytick_5">
     <g id="line2d_10">
      <g>
       <use xlink:href="#m79fd3cecc7" x="35.304688" y="59.626825" style="stroke: #000000; stroke-width: 0.8"/>
      </g>
     </g>
     <g id="text_10">
      <!-- 30 -->
      <g transform="translate(15.579687 63.426044) scale(0.1 -0.1)">
       <defs>
        <path id="DejaVuSans-33" d="M 2597 2516 
Q 3050 2419 3304 2112 
Q 3559 1806 3559 1356 
Q 3559 666 3084 287 
Q 2609 -91 1734 -91 
Q 1441 -91 1130 -33 
Q 819 25 488 141 
L 488 750 
Q 750 597 1062 519 
Q 1375 441 1716 441 
Q 2309 441 2620 675 
Q 2931 909 2931 1356 
Q 2931 1769 2642 2001 
Q 2353 2234 1838 2234 
L 1294 2234 
L 1294 2753 
L 1863 2753 
Q 2328 2753 2575 2939 
Q 2822 3125 2822 3475 
Q 2822 3834 2567 4026 
Q 2313 4219 1838 4219 
Q 1578 4219 1281 4162 
Q 984 4106 628 3988 
L 628 4550 
Q 988 4650 1302 4700 
Q 1616 4750 1894 4750 
Q 2613 4750 3031 4423 
Q 3450 4097 3450 3541 
Q 3450 3153 3228 2886 
Q 3006 2619 2597 2516 
z
" transform="scale(0.015625)"/>
       </defs>
       <use xlink:href="#DejaVuSans-33"/>
       <use xlink:href="#DejaVuSans-30" x="63.623047"/>
      </g>
     </g>
    </g>
    <g id="ytick_6">
     <g id="line2d_11">
      <g>
       <use xlink:href="#m79fd3cecc7" x="35.304688" y="16.013073" style="stroke: #000000; stroke-width: 0.8"/>
      </g>
     </g>
     <g id="text_11">
      <!-- 40 -->
      <g transform="translate(15.579687 19.812292) scale(0.1 -0.1)">
       <defs>
        <path id="DejaVuSans-34" d="M 2419 4116 
L 825 1625 
L 2419 1625 
L 2419 4116 
z
M 2253 4666 
L 3047 4666 
L 3047 1625 
L 3713 1625 
L 3713 1100 
L 3047 1100 
L 3047 0 
L 2419 0 
L 2419 1100 
L 313 1100 
L 313 1709 
L 2253 4666 
z
" transform="scale(0.015625)"/>
       </defs>
       <use xlink:href="#DejaVuSans-34"/>
       <use xlink:href="#DejaVuSans-30" x="63.623047"/>
      </g>
     </g>
    </g>
   </g>
   <g id="patch_3">
    <path d="M 35.304688 273.312 
L 35.304688 7.2 
" style="fill: none; stroke: #000000; stroke-width: 0.8; stroke-linejoin: miter; stroke-linecap: square"/>
   </g>
   <g id="patch_4">
    <path d="M 392.424688 273.312 
L 392.424688 7.2 
" style="fill: none; stroke: #000000; stroke-width: 0.8; stroke-linejoin: miter; stroke-linecap: square"/>
   </g>
   <g id="patch_5">
    <path d="M 35.304688 273.312 
L 392.424688 273.312 
" style="fill: none; stroke: #000000; stroke-width: 0.8; stroke-linejoin: miter; stroke-linecap: square"/>
   </g>
   <g id="patch_6">
    <path d="M 35.304688 7.2 
L 392.424688 7.2 
" style="fill: none; stroke: #000000; stroke-width: 0.8; stroke-linejoin: miter; stroke-linecap: square"/>
   </g>
  </g>
 </g>
 <defs>
  <clipPath id="p3655f78e2a">
   <rect x="35.304688" y="7.2" width="357.12" height="266.112"/>
  </clipPath>
 </defs>
</svg>
