<?xml version="1.0" encoding="utf-8" standalone="no"?>
<!DOCTYPE svg PUBLIC "-//W3C//DTD SVG 1.1//EN"
  "http://www.w3.org/Graphics/SVG/1.1/DTD/svg11.dtd">
<svg xmlns:xlink="http://www.w3.org/1999/xlink" width="399.624687pt" height="297.190125pt" viewBox="0 0 399.624687 297.190125" xmlns="http://www.w3.org/2000/svg" version="1.1">
 <metadata>
  <rdf:RDF xmlns:dc="http://purl.org/dc/elements/1.1/" xmlns:cc="http://creativecommons.org/ns#" xmlns:rdf="http://www.w3.org/1999/02/22-rdf-syntax-ns#">
   <cc:Work>
    <dc:type rdf:resource="http://purl.org/dc/dcmitype/StillImage"/>
    <dc:date>2023-11-12T01:48:22.454499</dc:date>
    <dc:format>image/svg+xml</dc:format>
    <dc:creator>
     <cc:Agent>
      <dc:title>Matplotlib v3.8.0, https://matplotlib.org/</dc:title>
     </cc:Agent>
    </dc:creator>
   </cc:Work>
  </rdf:RDF>
 </metadata>
 <defs>
  <style type="text/css">*{stroke-linejoin: round; stroke-linecap: butt}</style>
 </defs>
 <g id="figure_1">
  <g id="patch_1">
   <path d="M 0 297.190125 
L 399.624687 297.190125 
L 399.624687 0 
L 0 0 
z
" style="fill: #ffffff"/>
  </g>
  <g id="axes_1">
   <g id="patch_2">
    <path d="M 35.304688 273.312 
L 392.424688 273.312 
L 392.424688 7.2 
L 35.304688 7.2 
z
" style="fill: #ffffff"/>
   </g>
   <g id="PathCollection_1">
    <defs>
     <path id="ma8b609e993" d="M 0 1.5 
C 0.397805 1.5 0.77937 1.341951 1.06066 1.06066 
C 1.341951 0.77937 1.5 0.397805 1.5 0 
C 1.5 -0.397805 1.341951 -0.77937 1.06066 -1.06066 
C 0.77937 -1.341951 0.397805 -1.5 0 -1.5 
C -0.397805 -1.5 -0.77937 -1.341951 -1.06066 -1.06066 
C -1.341951 -0.77937 -1.5 -0.397805 -1.5 0 
C -1.5 0.397805 -1.341951 0.77937 -1.06066 1.06066 
C -0.77937 1.341951 -0.397805 1.5 0 1.5 
z
" style="stroke: #ff8c00"/>
    </defs>
    <g clip-path="url(#pc009397687)">
     <use xlink:href="#ma8b609e993" x="103.572363" y="221.618582" style="fill: #ff8c00; stroke: #ff8c00"/>
     <use xlink:href="#ma8b609e993" x="122.09207" y="166.498534" style="fill: #ff8c00; stroke: #ff8c00"/>
     <use xlink:href="#ma8b609e993" x="125.464469" y="208.883784" style="fill: #ff8c00; stroke: #ff8c00"/>
     <use xlink:href="#ma8b609e993" x="138.498717" y="203.21564" style="fill: #ff8c00; stroke: #ff8c00"/>
     <use xlink:href="#ma8b609e993" x="116.238606" y="211.956752" style="fill: #ff8c00; stroke: #ff8c00"/>
     <use xlink:href="#ma8b609e993" x="143.909009" y="221.265107" style="fill: #ff8c00; stroke: #ff8c00"/>
     <use xlink:href="#ma8b609e993" x="118.764089" y="156.741786" style="fill: #ff8c00; stroke: #ff8c00"/>
     <use xlink:href="#ma8b609e993" x="119.320241" y="145.525522" style="fill: #ff8c00; stroke: #ff8c00"/>
     <use xlink:href="#ma8b609e993" x="194.4276" y="222.929978" style="fill: #ff8c00; stroke: #ff8c00"/>
     <use xlink:href="#ma8b609e993" x="128.217906" y="119.39681" style="fill: #ff8c00; stroke: #ff8c00"/>
     <use xlink:href="#ma8b609e993" x="155.768841" y="218.546844" style="fill: #ff8c00; stroke: #ff8c00"/>
     <use xlink:href="#ma8b609e993" x="129.704758" y="205.005677" style="fill: #ff8c00; stroke: #ff8c00"/>
     <use xlink:href="#ma8b609e993" x="131.877122" y="142.446216" style="fill: #ff8c00; stroke: #ff8c00"/>
     <use xlink:href="#ma8b609e993" x="135.360095" y="187.613745" style="fill: #ff8c00; stroke: #ff8c00"/>
    </g>
   </g>
   <g id="PathCollection_2">
    <defs>
     <path id="m62d21944e6" d="M 0 1.5 
C 0.397805 1.5 0.77937 1.341951 1.06066 1.06066 
C 1.341951 0.77937 1.5 0.397805 1.5 0 
C 1.5 -0.397805 1.341951 -0.77937 1.06066 -1.06066 
C 0.77937 -1.341951 0.397805 -1.5 0 -1.5 
C -0.397805 -1.5 -0.77937 -1.341951 -1.06066 -1.06066 
C -1.341951 -0.77937 -1.5 -0.397805 -1.5 0 
C -1.5 0.397805 -1.341951 0.77937 -1.06066 1.06066 
C -0.77937 1.341951 -0.397805 1.5 0 1.5 
z
" style="stroke: #006400"/>
    </defs>
    <g clip-path="url(#pc009397687)">
     <use xlink:href="#m62d21944e6" x="239.023109" y="158.383885" style="fill: #006400; stroke: #006400"/>
     <use xlink:href="#m62d21944e6" x="222.297659" y="229.702454" style="fill: #006400; stroke: #006400"/>
     <use xlink:href="#m62d21944e6" x="220.86012" y="188.919019" style="fill: #006400; stroke: #006400"/>
     <use xlink:href="#m62d21944e6" x="181.143117" y="202.0121" style="fill: #006400; stroke: #006400"/>
     <use xlink:href="#m62d21944e6" x="327.689472" y="175.580681" style="fill: #006400; stroke: #006400"/>
     <use xlink:href="#m62d21944e6" x="238.617715" y="131.666298" style="fill: #006400; stroke: #006400"/>
     <use xlink:href="#m62d21944e6" x="169.325059" y="232.702716" style="fill: #006400; stroke: #006400"/>
     <use xlink:href="#m62d21944e6" x="198.154476" y="200.598095" style="fill: #006400; stroke: #006400"/>
     <use xlink:href="#m62d21944e6" x="325.704089" y="173.804755" style="fill: #006400; stroke: #006400"/>
     <use xlink:href="#m62d21944e6" x="173.317144" y="53.817015" style="fill: #006400; stroke: #006400"/>
     <use xlink:href="#m62d21944e6" x="153.375886" y="172.954603" style="fill: #006400; stroke: #006400"/>
     <use xlink:href="#m62d21944e6" x="320.661678" y="204.278519" style="fill: #006400; stroke: #006400"/>
     <use xlink:href="#m62d21944e6" x="310.849301" y="202.928261" style="fill: #006400; stroke: #006400"/>
     <use xlink:href="#m62d21944e6" x="376.19196" y="188.01716" style="fill: #006400; stroke: #006400"/>
    </g>
   </g>
   <g id="PathCollection_3">
    <defs>
     <path id="ma17c924e64" d="M 0 1.5 
C 0.397805 1.5 0.77937 1.341951 1.06066 1.06066 
C 1.341951 0.77937 1.5 0.397805 1.5 0 
C 1.5 -0.397805 1.341951 -0.77937 1.06066 -1.06066 
C 0.77937 -1.341951 0.397805 -1.5 0 -1.5 
C -0.397805 -1.5 -0.77937 -1.341951 -1.06066 -1.06066 
C -1.341951 -0.77937 -1.5 -0.397805 -1.5 0 
C -1.5 0.397805 -1.341951 0.77937 -1.06066 1.06066 
C -0.77937 1.341951 -0.397805 1.5 0 1.5 
z
" style="stroke: #2f4f4f"/>
    </defs>
    <g clip-path="url(#pc009397687)">
     <use xlink:href="#ma17c924e64" x="92.860619" y="216.183409" style="fill: #2f4f4f; stroke: #2f4f4f"/>
     <use xlink:href="#ma17c924e64" x="165.815459" y="179.565479" style="fill: #2f4f4f; stroke: #2f4f4f"/>
     <use xlink:href="#ma17c924e64" x="114.240419" y="220.038559" style="fill: #2f4f4f; stroke: #2f4f4f"/>
     <use xlink:href="#ma17c924e64" x="115.196197" y="176.628335" style="fill: #2f4f4f; stroke: #2f4f4f"/>
     <use xlink:href="#ma17c924e64" x="94.844916" y="199.357277" style="fill: #2f4f4f; stroke: #2f4f4f"/>
     <use xlink:href="#ma17c924e64" x="110.459494" y="206.772575" style="fill: #2f4f4f; stroke: #2f4f4f"/>
     <use xlink:href="#ma17c924e64" x="100.968924" y="205.227838" style="fill: #2f4f4f; stroke: #2f4f4f"/>
     <use xlink:href="#ma17c924e64" x="154.938754" y="219.612228" style="fill: #2f4f4f; stroke: #2f4f4f"/>
     <use xlink:href="#ma17c924e64" x="65.346781" y="187.368652" style="fill: #2f4f4f; stroke: #2f4f4f"/>
     <use xlink:href="#ma17c924e64" x="99.714303" y="185.429411" style="fill: #2f4f4f; stroke: #2f4f4f"/>
     <use xlink:href="#ma17c924e64" x="127.244851" y="153.023626" style="fill: #2f4f4f; stroke: #2f4f4f"/>
     <use xlink:href="#ma17c924e64" x="121.856531" y="191.051159" style="fill: #2f4f4f; stroke: #2f4f4f"/>
     <use xlink:href="#ma17c924e64" x="170.870602" y="192.579635" style="fill: #2f4f4f; stroke: #2f4f4f"/>
     <use xlink:href="#ma17c924e64" x="170.256614" y="188.076066" style="fill: #2f4f4f; stroke: #2f4f4f"/>
     <use xlink:href="#ma17c924e64" x="115.365194" y="202.687997" style="fill: #2f4f4f; stroke: #2f4f4f"/>
     <use xlink:href="#ma17c924e64" x="128.879076" y="213.066064" style="fill: #2f4f4f; stroke: #2f4f4f"/>
     <use xlink:href="#ma17c924e64" x="85.986518" y="193.744736" style="fill: #2f4f4f; stroke: #2f4f4f"/>
     <use xlink:href="#ma17c924e64" x="104.278449" y="151.206364" style="fill: #2f4f4f; stroke: #2f4f4f"/>
     <use xlink:href="#ma17c924e64" x="140.824866" y="185.719332" style="fill: #2f4f4f; stroke: #2f4f4f"/>
     <use xlink:href="#ma17c924e64" x="123.487077" y="224.326106" style="fill: #2f4f4f; stroke: #2f4f4f"/>
    </g>
   </g>
   <g id="PathCollection_4">
    <defs>
     <path id="mcfd11300a7" d="M 0 1.5 
C 0.397805 1.5 0.77937 1.341951 1.06066 1.06066 
C 1.341951 0.77937 1.5 0.397805 1.5 0 
C 1.5 -0.397805 1.341951 -0.77937 1.06066 -1.06066 
C 0.77937 -1.341951 0.397805 -1.5 0 -1.5 
C -0.397805 -1.5 -0.77937 -1.341951 -1.06066 -1.06066 
C -1.341951 -0.77937 -1.5 -0.397805 -1.5 0 
C -1.5 0.397805 -1.341951 0.77937 -1.06066 1.06066 
C -0.77937 1.341951 -0.397805 1.5 0 1.5 
z
" style="stroke: #00bfff"/>
    </defs>
    <g clip-path="url(#pc009397687)">
     <use xlink:href="#mcfd11300a7" x="54.382136" y="182.445255" style="fill: #00bfff; stroke: #00bfff"/>
     <use xlink:href="#mcfd11300a7" x="71.817379" y="199.665734" style="fill: #00bfff; stroke: #00bfff"/>
     <use xlink:href="#mcfd11300a7" x="126.733394" y="177.451152" style="fill: #00bfff; stroke: #00bfff"/>
     <use xlink:href="#mcfd11300a7" x="101.202368" y="204.803078" style="fill: #00bfff; stroke: #00bfff"/>
     <use xlink:href="#mcfd11300a7" x="75.361622" y="214.974434" style="fill: #00bfff; stroke: #00bfff"/>
     <use xlink:href="#mcfd11300a7" x="70.908981" y="195.821439" style="fill: #00bfff; stroke: #00bfff"/>
     <use xlink:href="#mcfd11300a7" x="82.021437" y="160.461279" style="fill: #00bfff; stroke: #00bfff"/>
     <use xlink:href="#mcfd11300a7" x="126.304235" y="208.218159" style="fill: #00bfff; stroke: #00bfff"/>
     <use xlink:href="#mcfd11300a7" x="136.011735" y="110.460336" style="fill: #00bfff; stroke: #00bfff"/>
     <use xlink:href="#mcfd11300a7" x="136.506533" y="194.14822" style="fill: #00bfff; stroke: #00bfff"/>
     <use xlink:href="#mcfd11300a7" x="112.913021" y="177.021183" style="fill: #00bfff; stroke: #00bfff"/>
     <use xlink:href="#mcfd11300a7" x="132.220416" y="221.921124" style="fill: #00bfff; stroke: #00bfff"/>
     <use xlink:href="#mcfd11300a7" x="125.826532" y="177.524304" style="fill: #00bfff; stroke: #00bfff"/>
     <use xlink:href="#mcfd11300a7" x="87.613264" y="216.145249" style="fill: #00bfff; stroke: #00bfff"/>
    </g>
   </g>
   <g id="PathCollection_5">
    <defs>
     <path id="m70f8cec370" d="M 0 1.5 
C 0.397805 1.5 0.77937 1.341951 1.06066 1.06066 
C 1.341951 0.77937 1.5 0.397805 1.5 0 
C 1.5 -0.397805 1.341951 -0.77937 1.06066 -1.06066 
C 0.77937 -1.341951 0.397805 -1.5 0 -1.5 
C -0.397805 -1.5 -0.77937 -1.341951 -1.06066 -1.06066 
C -1.341951 -0.77937 -1.5 -0.397805 -1.5 0 
C -1.5 0.397805 -1.341951 0.77937 -1.06066 1.06066 
C -0.77937 1.341951 -0.397805 1.5 0 1.5 
z
" style="stroke: #ffff00"/>
    </defs>
    <g clip-path="url(#pc009397687)">
     <use xlink:href="#m70f8cec370" x="124.696244" y="211.964753" style="fill: #ffff00; stroke: #ffff00"/>
     <use xlink:href="#m70f8cec370" x="71.605799" y="222.947846" style="fill: #ffff00; stroke: #ffff00"/>
     <use xlink:href="#m70f8cec370" x="103.983668" y="197.233189" style="fill: #ffff00; stroke: #ffff00"/>
     <use xlink:href="#m70f8cec370" x="79.165392" y="112.717009" style="fill: #ffff00; stroke: #ffff00"/>
     <use xlink:href="#m70f8cec370" x="95.007552" y="138.071657" style="fill: #ffff00; stroke: #ffff00"/>
     <use xlink:href="#m70f8cec370" x="81.880971" y="158.87493" style="fill: #ffff00; stroke: #ffff00"/>
     <use xlink:href="#m70f8cec370" x="82.789521" y="76.593023" style="fill: #ffff00; stroke: #ffff00"/>
     <use xlink:href="#m70f8cec370" x="134.976115" y="198.956473" style="fill: #ffff00; stroke: #ffff00"/>
     <use xlink:href="#m70f8cec370" x="67.122202" y="207.156308" style="fill: #ffff00; stroke: #ffff00"/>
     <use xlink:href="#m70f8cec370" x="73.72937" y="203.201319" style="fill: #ffff00; stroke: #ffff00"/>
    </g>
   </g>
   <g id="PathCollection_6">
    <defs>
     <path id="mcfd5cc5d52" d="M 0 1.5 
C 0.397805 1.5 0.77937 1.341951 1.06066 1.06066 
C 1.341951 0.77937 1.5 0.397805 1.5 0 
C 1.5 -0.397805 1.341951 -0.77937 1.06066 -1.06066 
C 0.77937 -1.341951 0.397805 -1.5 0 -1.5 
C -0.397805 -1.5 -0.77937 -1.341951 -1.06066 -1.06066 
C -1.341951 -0.77937 -1.5 -0.397805 -1.5 0 
C -1.5 0.397805 -1.341951 0.77937 -1.06066 1.06066 
C -0.77937 1.341951 -0.397805 1.5 0 1.5 
z
" style="stroke: #00ffff"/>
    </defs>
    <g clip-path="url(#pc009397687)">
     <use xlink:href="#mcfd5cc5d52" x="129.082852" y="158.32949" style="fill: #00ffff; stroke: #00ffff"/>
     <use xlink:href="#mcfd5cc5d52" x="80.558545" y="198.385035" style="fill: #00ffff; stroke: #00ffff"/>
     <use xlink:href="#mcfd5cc5d52" x="95.652965" y="237.166909" style="fill: #00ffff; stroke: #00ffff"/>
     <use xlink:href="#mcfd5cc5d52" x="94.55405" y="218.650439" style="fill: #00ffff; stroke: #00ffff"/>
     <use xlink:href="#mcfd5cc5d52" x="125.945205" y="236.85919" style="fill: #00ffff; stroke: #00ffff"/>
     <use xlink:href="#mcfd5cc5d52" x="103.815087" y="173.320305" style="fill: #00ffff; stroke: #00ffff"/>
     <use xlink:href="#mcfd5cc5d52" x="97.68719" y="208.896177" style="fill: #00ffff; stroke: #00ffff"/>
     <use xlink:href="#mcfd5cc5d52" x="95.145515" y="215.108619" style="fill: #00ffff; stroke: #00ffff"/>
     <use xlink:href="#mcfd5cc5d52" x="108.19887" y="102.666283" style="fill: #00ffff; stroke: #00ffff"/>
     <use xlink:href="#mcfd5cc5d52" x="99.087531" y="226.093662" style="fill: #00ffff; stroke: #00ffff"/>
     <use xlink:href="#mcfd5cc5d52" x="131.616348" y="216.755928" style="fill: #00ffff; stroke: #00ffff"/>
     <use xlink:href="#mcfd5cc5d52" x="94.142633" y="216.487284" style="fill: #00ffff; stroke: #00ffff"/>
     <use xlink:href="#mcfd5cc5d52" x="122.790632" y="198.564976" style="fill: #00ffff; stroke: #00ffff"/>
     <use xlink:href="#mcfd5cc5d52" x="85.275045" y="196.48638" style="fill: #00ffff; stroke: #00ffff"/>
     <use xlink:href="#mcfd5cc5d52" x="88.089843" y="218.231513" style="fill: #00ffff; stroke: #00ffff"/>
     <use xlink:href="#mcfd5cc5d52" x="82.218947" y="211.489508" style="fill: #00ffff; stroke: #00ffff"/>
     <use xlink:href="#mcfd5cc5d52" x="131.720012" y="212.079333" style="fill: #00ffff; stroke: #00ffff"/>
    </g>
   </g>
   <g id="PathCollection_7">
    <defs>
     <path id="mee3332291f" d="M 0 1.5 
C 0.397805 1.5 0.77937 1.341951 1.06066 1.06066 
C 1.341951 0.77937 1.5 0.397805 1.5 0 
C 1.5 -0.397805 1.341951 -0.77937 1.06066 -1.06066 
C 0.77937 -1.341951 0.397805 -1.5 0 -1.5 
C -0.397805 -1.5 -0.77937 -1.341951 -1.06066 -1.06066 
C -1.341951 -0.77937 -1.5 -0.397805 -1.5 0 
C -1.5 0.397805 -1.341951 0.77937 -1.06066 1.06066 
C -0.77937 1.341951 -0.397805 1.5 0 1.5 
z
" style="stroke: #0000ff"/>
    </defs>
    <g clip-path="url(#pc009397687)">
     <use xlink:href="#mee3332291f" x="99.098428" y="153.898151" style="fill: #0000ff; stroke: #0000ff"/>
     <use xlink:href="#mee3332291f" x="97.899751" y="141.518088" style="fill: #0000ff; stroke: #0000ff"/>
     <use xlink:href="#mee3332291f" x="150.434304" y="39.013283" style="fill: #0000ff; stroke: #0000ff"/>
     <use xlink:href="#mee3332291f" x="123.787166" y="60.529603" style="fill: #0000ff; stroke: #0000ff"/>
     <use xlink:href="#mee3332291f" x="139.135701" y="78.448849" style="fill: #0000ff; stroke: #0000ff"/>
     <use xlink:href="#mee3332291f" x="101.961361" y="97.337814" style="fill: #0000ff; stroke: #0000ff"/>
     <use xlink:href="#mee3332291f" x="118.106719" y="53.409069" style="fill: #0000ff; stroke: #0000ff"/>
     <use xlink:href="#mee3332291f" x="139.025109" y="182.599494" style="fill: #0000ff; stroke: #0000ff"/>
     <use xlink:href="#mee3332291f" x="123.064246" y="19.296" style="fill: #0000ff; stroke: #0000ff"/>
     <use xlink:href="#mee3332291f" x="122.253169" y="51.05996" style="fill: #0000ff; stroke: #0000ff"/>
     <use xlink:href="#mee3332291f" x="121.763622" y="74.868425" style="fill: #0000ff; stroke: #0000ff"/>
     <use xlink:href="#mee3332291f" x="137.66929" y="116.104425" style="fill: #0000ff; stroke: #0000ff"/>
     <use xlink:href="#mee3332291f" x="109.916874" y="178.011925" style="fill: #0000ff; stroke: #0000ff"/>
    </g>
   </g>
   <g id="PathCollection_8">
    <defs>
     <path id="md22fbf01ed" d="M 0 1.5 
C 0.397805 1.5 0.77937 1.341951 1.06066 1.06066 
C 1.341951 0.77937 1.5 0.397805 1.5 0 
C 1.5 -0.397805 1.341951 -0.77937 1.06066 -1.06066 
C 0.77937 -1.341951 0.397805 -1.5 0 -1.5 
C -0.397805 -1.5 -0.77937 -1.341951 -1.06066 -1.06066 
C -1.341951 -0.77937 -1.5 -0.397805 -1.5 0 
C -1.5 0.397805 -1.341951 0.77937 -1.06066 1.06066 
C -0.77937 1.341951 -0.397805 1.5 0 1.5 
z
" style="stroke: #dc143c"/>
    </defs>
    <g clip-path="url(#pc009397687)">
     <use xlink:href="#md22fbf01ed" x="222.554056" y="222.622014" style="fill: #dc143c; stroke: #dc143c"/>
     <use xlink:href="#md22fbf01ed" x="183.431234" y="184.810576" style="fill: #dc143c; stroke: #dc143c"/>
     <use xlink:href="#md22fbf01ed" x="181.688971" y="238.341546" style="fill: #dc143c; stroke: #dc143c"/>
     <use xlink:href="#md22fbf01ed" x="121.006115" y="172.086334" style="fill: #dc143c; stroke: #dc143c"/>
     <use xlink:href="#md22fbf01ed" x="236.87568" y="245.840115" style="fill: #dc143c; stroke: #dc143c"/>
     <use xlink:href="#md22fbf01ed" x="151.165523" y="217.830341" style="fill: #dc143c; stroke: #dc143c"/>
     <use xlink:href="#md22fbf01ed" x="169.055654" y="233.896348" style="fill: #dc143c; stroke: #dc143c"/>
     <use xlink:href="#md22fbf01ed" x="214.04364" y="224.567425" style="fill: #dc143c; stroke: #dc143c"/>
     <use xlink:href="#md22fbf01ed" x="171.567672" y="226.602497" style="fill: #dc143c; stroke: #dc143c"/>
     <use xlink:href="#md22fbf01ed" x="184.068684" y="247.459686" style="fill: #dc143c; stroke: #dc143c"/>
     <use xlink:href="#md22fbf01ed" x="176.220338" y="213.324266" style="fill: #dc143c; stroke: #dc143c"/>
     <use xlink:href="#md22fbf01ed" x="146.763708" y="232.689305" style="fill: #dc143c; stroke: #dc143c"/>
     <use xlink:href="#md22fbf01ed" x="205.428117" y="225.774899" style="fill: #dc143c; stroke: #dc143c"/>
     <use xlink:href="#md22fbf01ed" x="134.881505" y="204.58588" style="fill: #dc143c; stroke: #dc143c"/>
    </g>
   </g>
   <g id="PathCollection_9">
    <defs>
     <path id="m4908899207" d="M 0 1.5 
C 0.397805 1.5 0.77937 1.341951 1.06066 1.06066 
C 1.341951 0.77937 1.5 0.397805 1.5 0 
C 1.5 -0.397805 1.341951 -0.77937 1.06066 -1.06066 
C 0.77937 -1.341951 0.397805 -1.5 0 -1.5 
C -0.397805 -1.5 -0.77937 -1.341951 -1.06066 -1.06066 
C -1.341951 -0.77937 -1.5 -0.397805 -1.5 0 
C -1.5 0.397805 -1.341951 0.77937 -1.06066 1.06066 
C -0.77937 1.341951 -0.397805 1.5 0 1.5 
z
" style="stroke: #ffe4c4"/>
    </defs>
    <g clip-path="url(#pc009397687)">
     <use xlink:href="#m4908899207" x="237.432797" y="240.410698" style="fill: #ffe4c4; stroke: #ffe4c4"/>
     <use xlink:href="#m4908899207" x="168.548067" y="138.955769" style="fill: #ffe4c4; stroke: #ffe4c4"/>
     <use xlink:href="#m4908899207" x="206.489023" y="170.119586" style="fill: #ffe4c4; stroke: #ffe4c4"/>
     <use xlink:href="#m4908899207" x="151.064098" y="186.161114" style="fill: #ffe4c4; stroke: #ffe4c4"/>
     <use xlink:href="#m4908899207" x="172.878324" y="191.731316" style="fill: #ffe4c4; stroke: #ffe4c4"/>
     <use xlink:href="#m4908899207" x="161.423396" y="207.957933" style="fill: #ffe4c4; stroke: #ffe4c4"/>
     <use xlink:href="#m4908899207" x="244.537571" y="210.809752" style="fill: #ffe4c4; stroke: #ffe4c4"/>
     <use xlink:href="#m4908899207" x="208.127325" y="210.674422" style="fill: #ffe4c4; stroke: #ffe4c4"/>
     <use xlink:href="#m4908899207" x="206.178915" y="184.164183" style="fill: #ffe4c4; stroke: #ffe4c4"/>
     <use xlink:href="#m4908899207" x="171.562841" y="186.462066" style="fill: #ffe4c4; stroke: #ffe4c4"/>
     <use xlink:href="#m4908899207" x="273.134008" y="213.004904" style="fill: #ffe4c4; stroke: #ffe4c4"/>
     <use xlink:href="#m4908899207" x="214.403096" y="203.929399" style="fill: #ffe4c4; stroke: #ffe4c4"/>
    </g>
   </g>
   <g id="PathCollection_10">
    <defs>
     <path id="m5663373554" d="M -2.99994 2.99994 
L 3.00006 2.99994 
L 3.00006 -3.00006 
L -2.99994 -3.00006 
z
" style="stroke: #000000"/>
    </defs>
    <g clip-path="url(#pc009397687)">
     <use xlink:href="#m5663373554" x="100.76489" y="160.123494" style="stroke: #000000"/>
     <use xlink:href="#m5663373554" x="130.917149" y="178.11748" style="stroke: #000000"/>
     <use xlink:href="#m5663373554" x="75.414734" y="162.357302" style="stroke: #000000"/>
     <use xlink:href="#m5663373554" x="82.970047" y="205.659003" style="stroke: #000000"/>
     <use xlink:href="#m5663373554" x="87.643113" y="213.154077" style="stroke: #000000"/>
     <use xlink:href="#m5663373554" x="51.537415" y="149.202198" style="stroke: #000000"/>
     <use xlink:href="#m5663373554" x="137.410672" y="190.976017" style="stroke: #000000"/>
     <use xlink:href="#m5663373554" x="95.023359" y="171.644173" style="stroke: #000000"/>
     <use xlink:href="#m5663373554" x="106.005765" y="197.577275" style="stroke: #000000"/>
     <use xlink:href="#m5663373554" x="81.299919" y="166.433982" style="stroke: #000000"/>
     <use xlink:href="#m5663373554" x="83.903581" y="145.825637" style="stroke: #000000"/>
     <use xlink:href="#m5663373554" x="83.448571" y="162.437363" style="stroke: #000000"/>
     <use xlink:href="#m5663373554" x="112.731703" y="213.252812" style="stroke: #000000"/>
     <use xlink:href="#m5663373554" x="73.901841" y="203.434509" style="stroke: #000000"/>
     <use xlink:href="#m5663373554" x="77.087286" y="186.983813" style="stroke: #000000"/>
     <use xlink:href="#m5663373554" x="91.206225" y="222.285197" style="stroke: #000000"/>
     <use xlink:href="#m5663373554" x="99.619015" y="164.278819" style="stroke: #000000"/>
     <use xlink:href="#m5663373554" x="100.734926" y="223.613529" style="stroke: #000000"/>
     <use xlink:href="#m5663373554" x="83.271141" y="180.742112" style="stroke: #000000"/>
     <use xlink:href="#m5663373554" x="77.044038" y="122.804136" style="stroke: #000000"/>
     <use xlink:href="#m5663373554" x="76.245773" y="186.834683" style="stroke: #000000"/>
     <use xlink:href="#m5663373554" x="103.417433" y="222.16561" style="stroke: #000000"/>
     <use xlink:href="#m5663373554" x="91.854924" y="196.681299" style="stroke: #000000"/>
     <use xlink:href="#m5663373554" x="89.461734" y="200.542729" style="stroke: #000000"/>
     <use xlink:href="#m5663373554" x="115.772547" y="206.154514" style="stroke: #000000"/>
     <use xlink:href="#m5663373554" x="84.861291" y="185.285502" style="stroke: #000000"/>
     <use xlink:href="#m5663373554" x="73.332536" y="175.507879" style="stroke: #000000"/>
     <use xlink:href="#m5663373554" x="136.161244" y="178.598654" style="stroke: #000000"/>
     <use xlink:href="#m5663373554" x="107.077829" y="215.386627" style="stroke: #000000"/>
     <use xlink:href="#m5663373554" x="70.308147" y="107.681171" style="stroke: #000000"/>
     <use xlink:href="#m5663373554" x="92.849777" y="196.02805" style="stroke: #000000"/>
     <use xlink:href="#m5663373554" x="106.692943" y="223.011821" style="stroke: #000000"/>
     <use xlink:href="#m5663373554" x="110.335567" y="174.328789" style="stroke: #000000"/>
     <use xlink:href="#m5663373554" x="62.308939" y="179.857064" style="stroke: #000000"/>
     <use xlink:href="#m5663373554" x="115.001589" y="229.005728" style="stroke: #000000"/>
     <use xlink:href="#m5663373554" x="98.244544" y="197.088983" style="stroke: #000000"/>
     <use xlink:href="#m5663373554" x="89.556356" y="228.224136" style="stroke: #000000"/>
     <use xlink:href="#m5663373554" x="93.597099" y="208.563892" style="stroke: #000000"/>
     <use xlink:href="#m5663373554" x="80.913824" y="185.46313" style="stroke: #000000"/>
     <use xlink:href="#m5663373554" x="81.026943" y="230.289096" style="stroke: #000000"/>
     <use xlink:href="#m5663373554" x="100.679437" y="212.535519" style="stroke: #000000"/>
     <use xlink:href="#m5663373554" x="88.378085" y="212.737186" style="stroke: #000000"/>
     <use xlink:href="#m5663373554" x="100.407685" y="184.146877" style="stroke: #000000"/>
     <use xlink:href="#m5663373554" x="93.534776" y="210.360673" style="stroke: #000000"/>
     <use xlink:href="#m5663373554" x="94.111575" y="221.742428" style="stroke: #000000"/>
     <use xlink:href="#m5663373554" x="94.835878" y="150.49331" style="stroke: #000000"/>
     <use xlink:href="#m5663373554" x="101.959442" y="195.77757" style="stroke: #000000"/>
     <use xlink:href="#m5663373554" x="59.783872" y="192.809708" style="stroke: #000000"/>
     <use xlink:href="#m5663373554" x="109.592594" y="261.216" style="stroke: #000000"/>
     <use xlink:href="#m5663373554" x="74.406445" y="175.601729" style="stroke: #000000"/>
     <use xlink:href="#m5663373554" x="100.425057" y="214.085398" style="stroke: #000000"/>
     <use xlink:href="#m5663373554" x="72.442268" y="199.98481" style="stroke: #000000"/>
     <use xlink:href="#m5663373554" x="80.473071" y="183.826218" style="stroke: #000000"/>
     <use xlink:href="#m5663373554" x="93.888763" y="201.015084" style="stroke: #000000"/>
     <use xlink:href="#m5663373554" x="80.63324" y="210.417514" style="stroke: #000000"/>
     <use xlink:href="#m5663373554" x="137.453545" y="160.538338" style="stroke: #000000"/>
     <use xlink:href="#m5663373554" x="86.710437" y="239.839787" style="stroke: #000000"/>
     <use xlink:href="#m5663373554" x="93.294431" y="90.654136" style="stroke: #000000"/>
     <use xlink:href="#m5663373554" x="81.963124" y="213.211857" style="stroke: #000000"/>
     <use xlink:href="#m5663373554" x="83.644969" y="229.99666" style="stroke: #000000"/>
     <use xlink:href="#m5663373554" x="133.369211" y="190.753271" style="stroke: #000000"/>
     <use xlink:href="#m5663373554" x="92.344495" y="219.065343" style="stroke: #000000"/>
     <use xlink:href="#m5663373554" x="89.103966" y="183.922863" style="stroke: #000000"/>
     <use xlink:href="#m5663373554" x="95.197287" y="201.549069" style="stroke: #000000"/>
    </g>
   </g>
   <g id="PathCollection_11">
    <defs>
     <path id="m2576b46e48" d="M -3 -0 
L 3 3 
L 3 -3 
z
" style="stroke: #ff8c00"/>
    </defs>
    <g clip-path="url(#pc009397687)">
     <use xlink:href="#m2576b46e48" x="87.705524" y="190.23595" style="fill: #ff8c00; stroke: #ff8c00"/>
     <use xlink:href="#m2576b46e48" x="96.822112" y="204.520163" style="fill: #ff8c00; stroke: #ff8c00"/>
     <use xlink:href="#m2576b46e48" x="67.411876" y="189.800657" style="fill: #ff8c00; stroke: #ff8c00"/>
     <use xlink:href="#m2576b46e48" x="78.276815" y="216.182221" style="fill: #ff8c00; stroke: #ff8c00"/>
     <use xlink:href="#m2576b46e48" x="73.59471" y="218.60338" style="fill: #ff8c00; stroke: #ff8c00"/>
     <use xlink:href="#m2576b46e48" x="145.173439" y="192.786486" style="fill: #ff8c00; stroke: #ff8c00"/>
     <use xlink:href="#m2576b46e48" x="103.098406" y="192.972841" style="fill: #ff8c00; stroke: #ff8c00"/>
     <use xlink:href="#m2576b46e48" x="101.310839" y="217.070056" style="fill: #ff8c00; stroke: #ff8c00"/>
     <use xlink:href="#m2576b46e48" x="75.121633" y="228.877632" style="fill: #ff8c00; stroke: #ff8c00"/>
     <use xlink:href="#m2576b46e48" x="92.466066" y="181.788751" style="fill: #ff8c00; stroke: #ff8c00"/>
     <use xlink:href="#m2576b46e48" x="95.127582" y="237.430255" style="fill: #ff8c00; stroke: #ff8c00"/>
     <use xlink:href="#m2576b46e48" x="100.652617" y="187.562272" style="fill: #ff8c00; stroke: #ff8c00"/>
     <use xlink:href="#m2576b46e48" x="104.062538" y="201.551605" style="fill: #ff8c00; stroke: #ff8c00"/>
     <use xlink:href="#m2576b46e48" x="110.361661" y="226.657161" style="fill: #ff8c00; stroke: #ff8c00"/>
     <use xlink:href="#m2576b46e48" x="87.881922" y="236.497008" style="fill: #ff8c00; stroke: #ff8c00"/>
     <use xlink:href="#m2576b46e48" x="65.53213" y="110.106583" style="fill: #ff8c00; stroke: #ff8c00"/>
     <use xlink:href="#m2576b46e48" x="132.152883" y="170.062858" style="fill: #ff8c00; stroke: #ff8c00"/>
     <use xlink:href="#m2576b46e48" x="91.764471" y="211.250962" style="fill: #ff8c00; stroke: #ff8c00"/>
     <use xlink:href="#m2576b46e48" x="66.330879" y="218.005653" style="fill: #ff8c00; stroke: #ff8c00"/>
     <use xlink:href="#m2576b46e48" x="143.774646" y="157.558882" style="fill: #ff8c00; stroke: #ff8c00"/>
     <use xlink:href="#m2576b46e48" x="113.535497" y="251.103437" style="fill: #ff8c00; stroke: #ff8c00"/>
     <use xlink:href="#m2576b46e48" x="73.460923" y="219.035778" style="fill: #ff8c00; stroke: #ff8c00"/>
     <use xlink:href="#m2576b46e48" x="106.536951" y="226.4804" style="fill: #ff8c00; stroke: #ff8c00"/>
     <use xlink:href="#m2576b46e48" x="115.372985" y="158.300747" style="fill: #ff8c00; stroke: #ff8c00"/>
     <use xlink:href="#m2576b46e48" x="77.143219" y="239.133074" style="fill: #ff8c00; stroke: #ff8c00"/>
     <use xlink:href="#m2576b46e48" x="84.135743" y="207.462849" style="fill: #ff8c00; stroke: #ff8c00"/>
     <use xlink:href="#m2576b46e48" x="108.64487" y="163.061491" style="fill: #ff8c00; stroke: #ff8c00"/>
     <use xlink:href="#m2576b46e48" x="85.326586" y="242.724611" style="fill: #ff8c00; stroke: #ff8c00"/>
     <use xlink:href="#m2576b46e48" x="76.027119" y="214.711816" style="fill: #ff8c00; stroke: #ff8c00"/>
     <use xlink:href="#m2576b46e48" x="96.482032" y="206.287186" style="fill: #ff8c00; stroke: #ff8c00"/>
     <use xlink:href="#m2576b46e48" x="77.913253" y="231.654408" style="fill: #ff8c00; stroke: #ff8c00"/>
     <use xlink:href="#m2576b46e48" x="74.913652" y="198.59614" style="fill: #ff8c00; stroke: #ff8c00"/>
     <use xlink:href="#m2576b46e48" x="89.6716" y="185.54738" style="fill: #ff8c00; stroke: #ff8c00"/>
     <use xlink:href="#m2576b46e48" x="67.562978" y="206.518597" style="fill: #ff8c00; stroke: #ff8c00"/>
     <use xlink:href="#m2576b46e48" x="91.162146" y="211.684237" style="fill: #ff8c00; stroke: #ff8c00"/>
     <use xlink:href="#m2576b46e48" x="100.23086" y="225.895366" style="fill: #ff8c00; stroke: #ff8c00"/>
     <use xlink:href="#m2576b46e48" x="92.363939" y="202.909981" style="fill: #ff8c00; stroke: #ff8c00"/>
     <use xlink:href="#m2576b46e48" x="81.07107" y="177.043756" style="fill: #ff8c00; stroke: #ff8c00"/>
     <use xlink:href="#m2576b46e48" x="132.865264" y="180.356789" style="fill: #ff8c00; stroke: #ff8c00"/>
     <use xlink:href="#m2576b46e48" x="69.114634" y="238.004674" style="fill: #ff8c00; stroke: #ff8c00"/>
     <use xlink:href="#m2576b46e48" x="85.312089" y="215.184392" style="fill: #ff8c00; stroke: #ff8c00"/>
     <use xlink:href="#m2576b46e48" x="91.57644" y="181.238258" style="fill: #ff8c00; stroke: #ff8c00"/>
     <use xlink:href="#m2576b46e48" x="134.678027" y="165.897711" style="fill: #ff8c00; stroke: #ff8c00"/>
     <use xlink:href="#m2576b46e48" x="97.869636" y="222.165704" style="fill: #ff8c00; stroke: #ff8c00"/>
     <use xlink:href="#m2576b46e48" x="107.174054" y="180.890606" style="fill: #ff8c00; stroke: #ff8c00"/>
     <use xlink:href="#m2576b46e48" x="102.157864" y="181.618642" style="fill: #ff8c00; stroke: #ff8c00"/>
     <use xlink:href="#m2576b46e48" x="106.270528" y="173.296657" style="fill: #ff8c00; stroke: #ff8c00"/>
     <use xlink:href="#m2576b46e48" x="82.118306" y="197.875004" style="fill: #ff8c00; stroke: #ff8c00"/>
     <use xlink:href="#m2576b46e48" x="89.968497" y="195.800964" style="fill: #ff8c00; stroke: #ff8c00"/>
     <use xlink:href="#m2576b46e48" x="141.265251" y="161.888097" style="fill: #ff8c00; stroke: #ff8c00"/>
     <use xlink:href="#m2576b46e48" x="93.774135" y="194.551199" style="fill: #ff8c00; stroke: #ff8c00"/>
     <use xlink:href="#m2576b46e48" x="82.463789" y="205.35012" style="fill: #ff8c00; stroke: #ff8c00"/>
     <use xlink:href="#m2576b46e48" x="106.424708" y="199.580821" style="fill: #ff8c00; stroke: #ff8c00"/>
     <use xlink:href="#m2576b46e48" x="69.666499" y="233.037144" style="fill: #ff8c00; stroke: #ff8c00"/>
     <use xlink:href="#m2576b46e48" x="80.199032" y="164.141433" style="fill: #ff8c00; stroke: #ff8c00"/>
     <use xlink:href="#m2576b46e48" x="100.951368" y="208.425535" style="fill: #ff8c00; stroke: #ff8c00"/>
     <use xlink:href="#m2576b46e48" x="115.411758" y="168.054206" style="fill: #ff8c00; stroke: #ff8c00"/>
     <use xlink:href="#m2576b46e48" x="96.206626" y="187.313421" style="fill: #ff8c00; stroke: #ff8c00"/>
     <use xlink:href="#m2576b46e48" x="93.015387" y="210.546582" style="fill: #ff8c00; stroke: #ff8c00"/>
     <use xlink:href="#m2576b46e48" x="115.750026" y="166.394667" style="fill: #ff8c00; stroke: #ff8c00"/>
     <use xlink:href="#m2576b46e48" x="104.525561" y="222.264977" style="fill: #ff8c00; stroke: #ff8c00"/>
     <use xlink:href="#m2576b46e48" x="98.654077" y="224.705075" style="fill: #ff8c00; stroke: #ff8c00"/>
     <use xlink:href="#m2576b46e48" x="78.196961" y="196.292004" style="fill: #ff8c00; stroke: #ff8c00"/>
     <use xlink:href="#m2576b46e48" x="83.170049" y="202.780799" style="fill: #ff8c00; stroke: #ff8c00"/>
    </g>
   </g>
   <g id="matplotlib.axis_1">
    <g id="xtick_1">
     <g id="line2d_1">
      <defs>
       <path id="m610861579e" d="M 0 0 
L 0 3.5 
" style="stroke: #000000; stroke-width: 0.8"/>
      </defs>
      <g>
       <use xlink:href="#m610861579e" x="58.87684" y="273.312" style="stroke: #000000; stroke-width: 0.8"/>
      </g>
     </g>
     <g id="text_1">
      <!-- −10 -->
      <g transform="translate(48.324496 287.910437) scale(0.1 -0.1)">
       <defs>
        <path id="DejaVuSans-2212" d="M 678 2272 
L 4684 2272 
L 4684 1741 
L 678 1741 
L 678 2272 
z
" transform="scale(0.015625)"/>
        <path id="DejaVuSans-31" d="M 794 531 
L 1825 531 
L 1825 4091 
L 703 3866 
L 703 4441 
L 1819 4666 
L 2450 4666 
L 2450 531 
L 3481 531 
L 3481 0 
L 794 0 
L 794 531 
z
" transform="scale(0.015625)"/>
        <path id="DejaVuSans-30" d="M 2034 4250 
Q 1547 4250 1301 3770 
Q 1056 3291 1056 2328 
Q 1056 1369 1301 889 
Q 1547 409 2034 409 
Q 2525 409 2770 889 
Q 3016 1369 3016 2328 
Q 3016 3291 2770 3770 
Q 2525 4250 2034 4250 
z
M 2034 4750 
Q 2819 4750 3233 4129 
Q 3647 3509 3647 2328 
Q 3647 1150 3233 529 
Q 2819 -91 2034 -91 
Q 1250 -91 836 529 
Q 422 1150 422 2328 
Q 422 3509 836 4129 
Q 1250 4750 2034 4750 
z
" transform="scale(0.015625)"/>
       </defs>
       <use xlink:href="#DejaVuSans-2212"/>
       <use xlink:href="#DejaVuSans-31" x="83.789062"/>
       <use xlink:href="#DejaVuSans-30" x="147.412109"/>
      </g>
     </g>
    </g>
    <g id="xtick_2">
     <g id="line2d_2">
      <g>
       <use xlink:href="#m610861579e" x="118.677412" y="273.312" style="stroke: #000000; stroke-width: 0.8"/>
      </g>
     </g>
     <g id="text_2">
      <!-- 0 -->
      <g transform="translate(115.496162 287.910437) scale(0.1 -0.1)">
       <use xlink:href="#DejaVuSans-30"/>
      </g>
     </g>
    </g>
    <g id="xtick_3">
     <g id="line2d_3">
      <g>
       <use xlink:href="#m610861579e" x="178.477984" y="273.312" style="stroke: #000000; stroke-width: 0.8"/>
      </g>
     </g>
     <g id="text_3">
      <!-- 10 -->
      <g transform="translate(172.115484 287.910437) scale(0.1 -0.1)">
       <use xlink:href="#DejaVuSans-31"/>
       <use xlink:href="#DejaVuSans-30" x="63.623047"/>
      </g>
     </g>
    </g>
    <g id="xtick_4">
     <g id="line2d_4">
      <g>
       <use xlink:href="#m610861579e" x="238.278556" y="273.312" style="stroke: #000000; stroke-width: 0.8"/>
      </g>
     </g>
     <g id="text_4">
      <!-- 20 -->
      <g transform="translate(231.916056 287.910437) scale(0.1 -0.1)">
       <defs>
        <path id="DejaVuSans-32" d="M 1228 531 
L 3431 531 
L 3431 0 
L 469 0 
L 469 531 
Q 828 903 1448 1529 
Q 2069 2156 2228 2338 
Q 2531 2678 2651 2914 
Q 2772 3150 2772 3378 
Q 2772 3750 2511 3984 
Q 2250 4219 1831 4219 
Q 1534 4219 1204 4116 
Q 875 4013 500 3803 
L 500 4441 
Q 881 4594 1212 4672 
Q 1544 4750 1819 4750 
Q 2544 4750 2975 4387 
Q 3406 4025 3406 3419 
Q 3406 3131 3298 2873 
Q 3191 2616 2906 2266 
Q 2828 2175 2409 1742 
Q 1991 1309 1228 531 
z
" transform="scale(0.015625)"/>
       </defs>
       <use xlink:href="#DejaVuSans-32"/>
       <use xlink:href="#DejaVuSans-30" x="63.623047"/>
      </g>
     </g>
    </g>
    <g id="xtick_5">
     <g id="line2d_5">
      <g>
       <use xlink:href="#m610861579e" x="298.079128" y="273.312" style="stroke: #000000; stroke-width: 0.8"/>
      </g>
     </g>
     <g id="text_5">
      <!-- 30 -->
      <g transform="translate(291.716628 287.910437) scale(0.1 -0.1)">
       <defs>
        <path id="DejaVuSans-33" d="M 2597 2516 
Q 3050 2419 3304 2112 
Q 3559 1806 3559 1356 
Q 3559 666 3084 287 
Q 2609 -91 1734 -91 
Q 1441 -91 1130 -33 
Q 819 25 488 141 
L 488 750 
Q 750 597 1062 519 
Q 1375 441 1716 441 
Q 2309 441 2620 675 
Q 2931 909 2931 1356 
Q 2931 1769 2642 2001 
Q 2353 2234 1838 2234 
L 1294 2234 
L 1294 2753 
L 1863 2753 
Q 2328 2753 2575 2939 
Q 2822 3125 2822 3475 
Q 2822 3834 2567 4026 
Q 2313 4219 1838 4219 
Q 1578 4219 1281 4162 
Q 984 4106 628 3988 
L 628 4550 
Q 988 4650 1302 4700 
Q 1616 4750 1894 4750 
Q 2613 4750 3031 4423 
Q 3450 4097 3450 3541 
Q 3450 3153 3228 2886 
Q 3006 2619 2597 2516 
z
" transform="scale(0.015625)"/>
       </defs>
       <use xlink:href="#DejaVuSans-33"/>
       <use xlink:href="#DejaVuSans-30" x="63.623047"/>
      </g>
     </g>
    </g>
    <g id="xtick_6">
     <g id="line2d_6">
      <g>
       <use xlink:href="#m610861579e" x="357.8797" y="273.312" style="stroke: #000000; stroke-width: 0.8"/>
      </g>
     </g>
     <g id="text_6">
      <!-- 40 -->
      <g transform="translate(351.5172 287.910437) scale(0.1 -0.1)">
       <defs>
        <path id="DejaVuSans-34" d="M 2419 4116 
L 825 1625 
L 2419 1625 
L 2419 4116 
z
M 2253 4666 
L 3047 4666 
L 3047 1625 
L 3713 1625 
L 3713 1100 
L 3047 1100 
L 3047 0 
L 2419 0 
L 2419 1100 
L 313 1100 
L 313 1709 
L 2253 4666 
z
" transform="scale(0.015625)"/>
       </defs>
       <use xlink:href="#DejaVuSans-34"/>
       <use xlink:href="#DejaVuSans-30" x="63.623047"/>
      </g>
     </g>
    </g>
   </g>
   <g id="matplotlib.axis_2">
    <g id="ytick_1">
     <g id="line2d_7">
      <defs>
       <path id="mc47b1e97b1" d="M 0 0 
L -3.5 0 
" style="stroke: #000000; stroke-width: 0.8"/>
      </defs>
      <g>
       <use xlink:href="#mc47b1e97b1" x="35.304688" y="247.785572" style="stroke: #000000; stroke-width: 0.8"/>
      </g>
     </g>
     <g id="text_7">
      <!-- −10 -->
      <g transform="translate(7.2 251.584791) scale(0.1 -0.1)">
       <use xlink:href="#DejaVuSans-2212"/>
       <use xlink:href="#DejaVuSans-31" x="83.789062"/>
       <use xlink:href="#DejaVuSans-30" x="147.412109"/>
      </g>
     </g>
    </g>
    <g id="ytick_2">
     <g id="line2d_8">
      <g>
       <use xlink:href="#mc47b1e97b1" x="35.304688" y="190.129452" style="stroke: #000000; stroke-width: 0.8"/>
      </g>
     </g>
     <g id="text_8">
      <!-- 0 -->
      <g transform="translate(21.942187 193.928671) scale(0.1 -0.1)">
       <use xlink:href="#DejaVuSans-30"/>
      </g>
     </g>
    </g>
    <g id="ytick_3">
     <g id="line2d_9">
      <g>
       <use xlink:href="#mc47b1e97b1" x="35.304688" y="132.473332" style="stroke: #000000; stroke-width: 0.8"/>
      </g>
     </g>
     <g id="text_9">
      <!-- 10 -->
      <g transform="translate(15.579687 136.27255) scale(0.1 -0.1)">
       <use xlink:href="#DejaVuSans-31"/>
       <use xlink:href="#DejaVuSans-30" x="63.623047"/>
      </g>
     </g>
    </g>
    <g id="ytick_4">
     <g id="line2d_10">
      <g>
       <use xlink:href="#mc47b1e97b1" x="35.304688" y="74.817211" style="stroke: #000000; stroke-width: 0.8"/>
      </g>
     </g>
     <g id="text_10">
      <!-- 20 -->
      <g transform="translate(15.579687 78.61643) scale(0.1 -0.1)">
       <use xlink:href="#DejaVuSans-32"/>
       <use xlink:href="#DejaVuSans-30" x="63.623047"/>
      </g>
     </g>
    </g>
    <g id="ytick_5">
     <g id="line2d_11">
      <g>
       <use xlink:href="#mc47b1e97b1" x="35.304688" y="17.161091" style="stroke: #000000; stroke-width: 0.8"/>
      </g>
     </g>
     <g id="text_11">
      <!-- 30 -->
      <g transform="translate(15.579687 20.96031) scale(0.1 -0.1)">
       <use xlink:href="#DejaVuSans-33"/>
       <use xlink:href="#DejaVuSans-30" x="63.623047"/>
      </g>
     </g>
    </g>
   </g>
   <g id="patch_3">
    <path d="M 35.304688 273.312 
L 35.304688 7.2 
" style="fill: none; stroke: #000000; stroke-width: 0.8; stroke-linejoin: miter; stroke-linecap: square"/>
   </g>
   <g id="patch_4">
    <path d="M 392.424688 273.312 
L 392.424688 7.2 
" style="fill: none; stroke: #000000; stroke-width: 0.8; stroke-linejoin: miter; stroke-linecap: square"/>
   </g>
   <g id="patch_5">
    <path d="M 35.304688 273.312 
L 392.424688 273.312 
" style="fill: none; stroke: #000000; stroke-width: 0.8; stroke-linejoin: miter; stroke-linecap: square"/>
   </g>
   <g id="patch_6">
    <path d="M 35.304688 7.2 
L 392.424688 7.2 
" style="fill: none; stroke: #000000; stroke-width: 0.8; stroke-linejoin: miter; stroke-linecap: square"/>
   </g>
  </g>
 </g>
 <defs>
  <clipPath id="pc009397687">
   <rect x="35.304688" y="7.2" width="357.12" height="266.112"/>
  </clipPath>
 </defs>
</svg>
