<?xml version="1.0" encoding="utf-8" standalone="no"?>
<!DOCTYPE svg PUBLIC "-//W3C//DTD SVG 1.1//EN"
  "http://www.w3.org/Graphics/SVG/1.1/DTD/svg11.dtd">
<svg xmlns:xlink="http://www.w3.org/1999/xlink" width="399.624687pt" height="297.190125pt" viewBox="0 0 399.624687 297.190125" xmlns="http://www.w3.org/2000/svg" version="1.1">
 <metadata>
  <rdf:RDF xmlns:dc="http://purl.org/dc/elements/1.1/" xmlns:cc="http://creativecommons.org/ns#" xmlns:rdf="http://www.w3.org/1999/02/22-rdf-syntax-ns#">
   <cc:Work>
    <dc:type rdf:resource="http://purl.org/dc/dcmitype/StillImage"/>
    <dc:date>2023-11-13T22:04:16.410681</dc:date>
    <dc:format>image/svg+xml</dc:format>
    <dc:creator>
     <cc:Agent>
      <dc:title>Matplotlib v3.8.0, https://matplotlib.org/</dc:title>
     </cc:Agent>
    </dc:creator>
   </cc:Work>
  </rdf:RDF>
 </metadata>
 <defs>
  <style type="text/css">*{stroke-linejoin: round; stroke-linecap: butt}</style>
 </defs>
 <g id="figure_1">
  <g id="patch_1">
   <path d="M 0 297.190125 
L 399.624687 297.190125 
L 399.624687 0 
L 0 0 
z
" style="fill: #ffffff"/>
  </g>
  <g id="axes_1">
   <g id="patch_2">
    <path d="M 35.304688 273.312 
L 392.424688 273.312 
L 392.424688 7.2 
L 35.304688 7.2 
z
" style="fill: #ffffff"/>
   </g>
   <g id="PathCollection_1">
    <defs>
     <path id="m55d79014e1" d="M 0 1.5 
C 0.397805 1.5 0.77937 1.341951 1.06066 1.06066 
C 1.341951 0.77937 1.5 0.397805 1.5 0 
C 1.5 -0.397805 1.341951 -0.77937 1.06066 -1.06066 
C 0.77937 -1.341951 0.397805 -1.5 0 -1.5 
C -0.397805 -1.5 -0.77937 -1.341951 -1.06066 -1.06066 
C -1.341951 -0.77937 -1.5 -0.397805 -1.5 0 
C -1.5 0.397805 -1.341951 0.77937 -1.06066 1.06066 
C -0.77937 1.341951 -0.397805 1.5 0 1.5 
z
" style="stroke: #ff8c00"/>
    </defs>
    <g clip-path="url(#pb8dba7adfd)">
     <use xlink:href="#m55d79014e1" x="195.700684" y="160.720304" style="fill: #ff8c00; stroke: #ff8c00"/>
     <use xlink:href="#m55d79014e1" x="197.840699" y="161.671136" style="fill: #ff8c00; stroke: #ff8c00"/>
     <use xlink:href="#m55d79014e1" x="120.333124" y="190.008174" style="fill: #ff8c00; stroke: #ff8c00"/>
     <use xlink:href="#m55d79014e1" x="156.251745" y="180.569196" style="fill: #ff8c00; stroke: #ff8c00"/>
     <use xlink:href="#m55d79014e1" x="124.55438" y="181.068273" style="fill: #ff8c00; stroke: #ff8c00"/>
     <use xlink:href="#m55d79014e1" x="204.956436" y="135.783166" style="fill: #ff8c00; stroke: #ff8c00"/>
     <use xlink:href="#m55d79014e1" x="167.113251" y="207.594246" style="fill: #ff8c00; stroke: #ff8c00"/>
     <use xlink:href="#m55d79014e1" x="189.067944" y="198.524844" style="fill: #ff8c00; stroke: #ff8c00"/>
     <use xlink:href="#m55d79014e1" x="140.120578" y="178.638398" style="fill: #ff8c00; stroke: #ff8c00"/>
     <use xlink:href="#m55d79014e1" x="237.63714" y="156.083768" style="fill: #ff8c00; stroke: #ff8c00"/>
     <use xlink:href="#m55d79014e1" x="116.709703" y="184.937358" style="fill: #ff8c00; stroke: #ff8c00"/>
     <use xlink:href="#m55d79014e1" x="184.161552" y="150.432936" style="fill: #ff8c00; stroke: #ff8c00"/>
     <use xlink:href="#m55d79014e1" x="168.664921" y="173.305822" style="fill: #ff8c00; stroke: #ff8c00"/>
     <use xlink:href="#m55d79014e1" x="139.756887" y="174.313298" style="fill: #ff8c00; stroke: #ff8c00"/>
     <use xlink:href="#m55d79014e1" x="156.567978" y="183.244104" style="fill: #ff8c00; stroke: #ff8c00"/>
    </g>
   </g>
   <g id="PathCollection_2">
    <defs>
     <path id="m00f77c2fa0" d="M 0 1.5 
C 0.397805 1.5 0.77937 1.341951 1.06066 1.06066 
C 1.341951 0.77937 1.5 0.397805 1.5 0 
C 1.5 -0.397805 1.341951 -0.77937 1.06066 -1.06066 
C 0.77937 -1.341951 0.397805 -1.5 0 -1.5 
C -0.397805 -1.5 -0.77937 -1.341951 -1.06066 -1.06066 
C -1.341951 -0.77937 -1.5 -0.397805 -1.5 0 
C -1.5 0.397805 -1.341951 0.77937 -1.06066 1.06066 
C -0.77937 1.341951 -0.397805 1.5 0 1.5 
z
" style="stroke: #006400"/>
    </defs>
    <g clip-path="url(#pb8dba7adfd)">
     <use xlink:href="#m00f77c2fa0" x="333.594225" y="19.296" style="fill: #006400; stroke: #006400"/>
     <use xlink:href="#m00f77c2fa0" x="188.985453" y="128.937717" style="fill: #006400; stroke: #006400"/>
     <use xlink:href="#m00f77c2fa0" x="376.19196" y="127.918447" style="fill: #006400; stroke: #006400"/>
     <use xlink:href="#m00f77c2fa0" x="296.662607" y="81.796757" style="fill: #006400; stroke: #006400"/>
     <use xlink:href="#m00f77c2fa0" x="282.531909" y="167.518943" style="fill: #006400; stroke: #006400"/>
     <use xlink:href="#m00f77c2fa0" x="284.937534" y="164.029074" style="fill: #006400; stroke: #006400"/>
     <use xlink:href="#m00f77c2fa0" x="280.521109" y="50.505223" style="fill: #006400; stroke: #006400"/>
     <use xlink:href="#m00f77c2fa0" x="138.33803" y="107.811385" style="fill: #006400; stroke: #006400"/>
     <use xlink:href="#m00f77c2fa0" x="304.166674" y="19.312411" style="fill: #006400; stroke: #006400"/>
     <use xlink:href="#m00f77c2fa0" x="207.752647" y="135.319151" style="fill: #006400; stroke: #006400"/>
     <use xlink:href="#m00f77c2fa0" x="311.040257" y="105.933138" style="fill: #006400; stroke: #006400"/>
     <use xlink:href="#m00f77c2fa0" x="332.517524" y="29.258591" style="fill: #006400; stroke: #006400"/>
     <use xlink:href="#m00f77c2fa0" x="207.75093" y="83.391056" style="fill: #006400; stroke: #006400"/>
     <use xlink:href="#m00f77c2fa0" x="276.621449" y="106.507636" style="fill: #006400; stroke: #006400"/>
     <use xlink:href="#m00f77c2fa0" x="311.012971" y="30.132057" style="fill: #006400; stroke: #006400"/>
     <use xlink:href="#m00f77c2fa0" x="305.739638" y="47.732719" style="fill: #006400; stroke: #006400"/>
     <use xlink:href="#m00f77c2fa0" x="254.970347" y="128.254094" style="fill: #006400; stroke: #006400"/>
    </g>
   </g>
   <g id="PathCollection_3">
    <defs>
     <path id="m509b1eb06a" d="M 0 1.5 
C 0.397805 1.5 0.77937 1.341951 1.06066 1.06066 
C 1.341951 0.77937 1.5 0.397805 1.5 0 
C 1.5 -0.397805 1.341951 -0.77937 1.06066 -1.06066 
C 0.77937 -1.341951 0.397805 -1.5 0 -1.5 
C -0.397805 -1.5 -0.77937 -1.341951 -1.06066 -1.06066 
C -1.341951 -0.77937 -1.5 -0.397805 -1.5 0 
C -1.5 0.397805 -1.341951 0.77937 -1.06066 1.06066 
C -0.77937 1.341951 -0.397805 1.5 0 1.5 
z
" style="stroke: #2f4f4f"/>
    </defs>
    <g clip-path="url(#pb8dba7adfd)">
     <use xlink:href="#m509b1eb06a" x="282.621156" y="210.594236" style="fill: #2f4f4f; stroke: #2f4f4f"/>
     <use xlink:href="#m509b1eb06a" x="290.45558" y="210.591485" style="fill: #2f4f4f; stroke: #2f4f4f"/>
     <use xlink:href="#m509b1eb06a" x="243.012369" y="221.3785" style="fill: #2f4f4f; stroke: #2f4f4f"/>
     <use xlink:href="#m509b1eb06a" x="216.794022" y="192.425045" style="fill: #2f4f4f; stroke: #2f4f4f"/>
     <use xlink:href="#m509b1eb06a" x="249.53562" y="194.914175" style="fill: #2f4f4f; stroke: #2f4f4f"/>
     <use xlink:href="#m509b1eb06a" x="211.072123" y="194.144455" style="fill: #2f4f4f; stroke: #2f4f4f"/>
     <use xlink:href="#m509b1eb06a" x="227.14019" y="164.359452" style="fill: #2f4f4f; stroke: #2f4f4f"/>
     <use xlink:href="#m509b1eb06a" x="321.465399" y="196.587387" style="fill: #2f4f4f; stroke: #2f4f4f"/>
    </g>
   </g>
   <g id="PathCollection_4">
    <defs>
     <path id="m2b067a6a67" d="M 0 1.5 
C 0.397805 1.5 0.77937 1.341951 1.06066 1.06066 
C 1.341951 0.77937 1.5 0.397805 1.5 0 
C 1.5 -0.397805 1.341951 -0.77937 1.06066 -1.06066 
C 0.77937 -1.341951 0.397805 -1.5 0 -1.5 
C -0.397805 -1.5 -0.77937 -1.341951 -1.06066 -1.06066 
C -1.341951 -0.77937 -1.5 -0.397805 -1.5 0 
C -1.5 0.397805 -1.341951 0.77937 -1.06066 1.06066 
C -0.77937 1.341951 -0.397805 1.5 0 1.5 
z
" style="stroke: #00bfff"/>
    </defs>
    <g clip-path="url(#pb8dba7adfd)">
     <use xlink:href="#m2b067a6a67" x="289.426526" y="194.008136" style="fill: #00bfff; stroke: #00bfff"/>
     <use xlink:href="#m2b067a6a67" x="284.401736" y="181.479518" style="fill: #00bfff; stroke: #00bfff"/>
     <use xlink:href="#m2b067a6a67" x="262.022948" y="167.479653" style="fill: #00bfff; stroke: #00bfff"/>
     <use xlink:href="#m2b067a6a67" x="291.037583" y="192.784365" style="fill: #00bfff; stroke: #00bfff"/>
     <use xlink:href="#m2b067a6a67" x="232.236471" y="190.267917" style="fill: #00bfff; stroke: #00bfff"/>
     <use xlink:href="#m2b067a6a67" x="230.867031" y="187.264023" style="fill: #00bfff; stroke: #00bfff"/>
     <use xlink:href="#m2b067a6a67" x="302.850723" y="159.494058" style="fill: #00bfff; stroke: #00bfff"/>
     <use xlink:href="#m2b067a6a67" x="279.596495" y="186.100642" style="fill: #00bfff; stroke: #00bfff"/>
     <use xlink:href="#m2b067a6a67" x="302.724782" y="186.446743" style="fill: #00bfff; stroke: #00bfff"/>
     <use xlink:href="#m2b067a6a67" x="309.0075" y="160.109254" style="fill: #00bfff; stroke: #00bfff"/>
     <use xlink:href="#m2b067a6a67" x="285.331211" y="158.405556" style="fill: #00bfff; stroke: #00bfff"/>
     <use xlink:href="#m2b067a6a67" x="299.727695" y="222.700123" style="fill: #00bfff; stroke: #00bfff"/>
     <use xlink:href="#m2b067a6a67" x="230.210821" y="206.152666" style="fill: #00bfff; stroke: #00bfff"/>
     <use xlink:href="#m2b067a6a67" x="285.208213" y="181.520672" style="fill: #00bfff; stroke: #00bfff"/>
     <use xlink:href="#m2b067a6a67" x="243.043568" y="175.239411" style="fill: #00bfff; stroke: #00bfff"/>
    </g>
   </g>
   <g id="PathCollection_5">
    <defs>
     <path id="m4a963e5720" d="M 0 1.5 
C 0.397805 1.5 0.77937 1.341951 1.06066 1.06066 
C 1.341951 0.77937 1.5 0.397805 1.5 0 
C 1.5 -0.397805 1.341951 -0.77937 1.06066 -1.06066 
C 0.77937 -1.341951 0.397805 -1.5 0 -1.5 
C -0.397805 -1.5 -0.77937 -1.341951 -1.06066 -1.06066 
C -1.341951 -0.77937 -1.5 -0.397805 -1.5 0 
C -1.5 0.397805 -1.341951 0.77937 -1.06066 1.06066 
C -0.77937 1.341951 -0.397805 1.5 0 1.5 
z
" style="stroke: #ffff00"/>
    </defs>
    <g clip-path="url(#pb8dba7adfd)">
     <use xlink:href="#m4a963e5720" x="275.418492" y="221.945281" style="fill: #ffff00; stroke: #ffff00"/>
     <use xlink:href="#m4a963e5720" x="196.589913" y="200.446606" style="fill: #ffff00; stroke: #ffff00"/>
     <use xlink:href="#m4a963e5720" x="253.003222" y="201.152096" style="fill: #ffff00; stroke: #ffff00"/>
     <use xlink:href="#m4a963e5720" x="260.461289" y="198.785482" style="fill: #ffff00; stroke: #ffff00"/>
     <use xlink:href="#m4a963e5720" x="272.842793" y="190.823254" style="fill: #ffff00; stroke: #ffff00"/>
     <use xlink:href="#m4a963e5720" x="295.465717" y="159.995072" style="fill: #ffff00; stroke: #ffff00"/>
     <use xlink:href="#m4a963e5720" x="230.957888" y="195.65953" style="fill: #ffff00; stroke: #ffff00"/>
     <use xlink:href="#m4a963e5720" x="294.419766" y="214.648359" style="fill: #ffff00; stroke: #ffff00"/>
     <use xlink:href="#m4a963e5720" x="299.123511" y="230.33089" style="fill: #ffff00; stroke: #ffff00"/>
     <use xlink:href="#m4a963e5720" x="286.836154" y="218.228348" style="fill: #ffff00; stroke: #ffff00"/>
     <use xlink:href="#m4a963e5720" x="271.852389" y="233.442675" style="fill: #ffff00; stroke: #ffff00"/>
     <use xlink:href="#m4a963e5720" x="254.702673" y="223.070723" style="fill: #ffff00; stroke: #ffff00"/>
     <use xlink:href="#m4a963e5720" x="287.071723" y="224.905208" style="fill: #ffff00; stroke: #ffff00"/>
    </g>
   </g>
   <g id="PathCollection_6">
    <defs>
     <path id="m1de5dbb3bd" d="M 0 1.5 
C 0.397805 1.5 0.77937 1.341951 1.06066 1.06066 
C 1.341951 0.77937 1.5 0.397805 1.5 0 
C 1.5 -0.397805 1.341951 -0.77937 1.06066 -1.06066 
C 0.77937 -1.341951 0.397805 -1.5 0 -1.5 
C -0.397805 -1.5 -0.77937 -1.341951 -1.06066 -1.06066 
C -1.341951 -0.77937 -1.5 -0.397805 -1.5 0 
C -1.5 0.397805 -1.341951 0.77937 -1.06066 1.06066 
C -0.77937 1.341951 -0.397805 1.5 0 1.5 
z
" style="stroke: #00ffff"/>
    </defs>
    <g clip-path="url(#pb8dba7adfd)">
     <use xlink:href="#m1de5dbb3bd" x="290.895885" y="201.427784" style="fill: #00ffff; stroke: #00ffff"/>
     <use xlink:href="#m1de5dbb3bd" x="269.430027" y="192.439492" style="fill: #00ffff; stroke: #00ffff"/>
     <use xlink:href="#m1de5dbb3bd" x="281.040375" y="209.975475" style="fill: #00ffff; stroke: #00ffff"/>
     <use xlink:href="#m1de5dbb3bd" x="227.616295" y="179.983609" style="fill: #00ffff; stroke: #00ffff"/>
     <use xlink:href="#m1de5dbb3bd" x="278.068991" y="187.88801" style="fill: #00ffff; stroke: #00ffff"/>
     <use xlink:href="#m1de5dbb3bd" x="257.492599" y="198.213172" style="fill: #00ffff; stroke: #00ffff"/>
     <use xlink:href="#m1de5dbb3bd" x="287.392268" y="214.017013" style="fill: #00ffff; stroke: #00ffff"/>
     <use xlink:href="#m1de5dbb3bd" x="324.243334" y="226.329065" style="fill: #00ffff; stroke: #00ffff"/>
     <use xlink:href="#m1de5dbb3bd" x="358.13327" y="176.664453" style="fill: #00ffff; stroke: #00ffff"/>
     <use xlink:href="#m1de5dbb3bd" x="292.117965" y="210.15894" style="fill: #00ffff; stroke: #00ffff"/>
     <use xlink:href="#m1de5dbb3bd" x="201.588549" y="196.109594" style="fill: #00ffff; stroke: #00ffff"/>
     <use xlink:href="#m1de5dbb3bd" x="215.797232" y="203.720597" style="fill: #00ffff; stroke: #00ffff"/>
     <use xlink:href="#m1de5dbb3bd" x="293.131499" y="234.869394" style="fill: #00ffff; stroke: #00ffff"/>
     <use xlink:href="#m1de5dbb3bd" x="261.955241" y="227.289187" style="fill: #00ffff; stroke: #00ffff"/>
    </g>
   </g>
   <g id="PathCollection_7">
    <defs>
     <path id="mbecdf9e191" d="M 0 1.5 
C 0.397805 1.5 0.77937 1.341951 1.06066 1.06066 
C 1.341951 0.77937 1.5 0.397805 1.5 0 
C 1.5 -0.397805 1.341951 -0.77937 1.06066 -1.06066 
C 0.77937 -1.341951 0.397805 -1.5 0 -1.5 
C -0.397805 -1.5 -0.77937 -1.341951 -1.06066 -1.06066 
C -1.341951 -0.77937 -1.5 -0.397805 -1.5 0 
C -1.5 0.397805 -1.341951 0.77937 -1.06066 1.06066 
C -0.77937 1.341951 -0.397805 1.5 0 1.5 
z
" style="stroke: #0000ff"/>
    </defs>
    <g clip-path="url(#pb8dba7adfd)">
     <use xlink:href="#mbecdf9e191" x="302.672838" y="163.660154" style="fill: #0000ff; stroke: #0000ff"/>
     <use xlink:href="#mbecdf9e191" x="299.177808" y="205.15797" style="fill: #0000ff; stroke: #0000ff"/>
     <use xlink:href="#mbecdf9e191" x="288.445588" y="192.736514" style="fill: #0000ff; stroke: #0000ff"/>
     <use xlink:href="#mbecdf9e191" x="275.413965" y="203.568668" style="fill: #0000ff; stroke: #0000ff"/>
     <use xlink:href="#mbecdf9e191" x="312.188013" y="207.328172" style="fill: #0000ff; stroke: #0000ff"/>
     <use xlink:href="#mbecdf9e191" x="302.348958" y="174.493223" style="fill: #0000ff; stroke: #0000ff"/>
     <use xlink:href="#mbecdf9e191" x="260.921047" y="198.89137" style="fill: #0000ff; stroke: #0000ff"/>
     <use xlink:href="#mbecdf9e191" x="294.104896" y="183.462469" style="fill: #0000ff; stroke: #0000ff"/>
     <use xlink:href="#mbecdf9e191" x="253.706164" y="189.553994" style="fill: #0000ff; stroke: #0000ff"/>
     <use xlink:href="#mbecdf9e191" x="281.824247" y="225.657104" style="fill: #0000ff; stroke: #0000ff"/>
     <use xlink:href="#mbecdf9e191" x="341.541001" y="207.142318" style="fill: #0000ff; stroke: #0000ff"/>
     <use xlink:href="#mbecdf9e191" x="302.703408" y="191.556977" style="fill: #0000ff; stroke: #0000ff"/>
     <use xlink:href="#mbecdf9e191" x="305.412732" y="197.630018" style="fill: #0000ff; stroke: #0000ff"/>
     <use xlink:href="#mbecdf9e191" x="274.585864" y="206.398345" style="fill: #0000ff; stroke: #0000ff"/>
     <use xlink:href="#mbecdf9e191" x="300.462663" y="223.910809" style="fill: #0000ff; stroke: #0000ff"/>
     <use xlink:href="#mbecdf9e191" x="252.470248" y="156.982824" style="fill: #0000ff; stroke: #0000ff"/>
     <use xlink:href="#mbecdf9e191" x="312.307573" y="187.795106" style="fill: #0000ff; stroke: #0000ff"/>
    </g>
   </g>
   <g id="PathCollection_8">
    <defs>
     <path id="mfcd0866d16" d="M 0 1.5 
C 0.397805 1.5 0.77937 1.341951 1.06066 1.06066 
C 1.341951 0.77937 1.5 0.397805 1.5 0 
C 1.5 -0.397805 1.341951 -0.77937 1.06066 -1.06066 
C 0.77937 -1.341951 0.397805 -1.5 0 -1.5 
C -0.397805 -1.5 -0.77937 -1.341951 -1.06066 -1.06066 
C -1.341951 -0.77937 -1.5 -0.397805 -1.5 0 
C -1.5 0.397805 -1.341951 0.77937 -1.06066 1.06066 
C -0.77937 1.341951 -0.397805 1.5 0 1.5 
z
" style="stroke: #dc143c"/>
    </defs>
    <g clip-path="url(#pb8dba7adfd)">
     <use xlink:href="#mfcd0866d16" x="366.189642" y="200.139828" style="fill: #dc143c; stroke: #dc143c"/>
     <use xlink:href="#mfcd0866d16" x="225.192764" y="190.830231" style="fill: #dc143c; stroke: #dc143c"/>
     <use xlink:href="#mfcd0866d16" x="362.184869" y="261.216" style="fill: #dc143c; stroke: #dc143c"/>
     <use xlink:href="#mfcd0866d16" x="263.868418" y="215.583495" style="fill: #dc143c; stroke: #dc143c"/>
     <use xlink:href="#mfcd0866d16" x="297.493594" y="213.148543" style="fill: #dc143c; stroke: #dc143c"/>
     <use xlink:href="#mfcd0866d16" x="259.574411" y="205.976975" style="fill: #dc143c; stroke: #dc143c"/>
     <use xlink:href="#mfcd0866d16" x="207.129489" y="218.244304" style="fill: #dc143c; stroke: #dc143c"/>
     <use xlink:href="#mfcd0866d16" x="227.568463" y="200.072197" style="fill: #dc143c; stroke: #dc143c"/>
     <use xlink:href="#mfcd0866d16" x="321.816707" y="194.074023" style="fill: #dc143c; stroke: #dc143c"/>
     <use xlink:href="#mfcd0866d16" x="306.042317" y="204.952586" style="fill: #dc143c; stroke: #dc143c"/>
     <use xlink:href="#mfcd0866d16" x="315.391573" y="221.679531" style="fill: #dc143c; stroke: #dc143c"/>
     <use xlink:href="#mfcd0866d16" x="294.53419" y="178.43703" style="fill: #dc143c; stroke: #dc143c"/>
    </g>
   </g>
   <g id="PathCollection_9">
    <defs>
     <path id="m060ac1854e" d="M 0 1.5 
C 0.397805 1.5 0.77937 1.341951 1.06066 1.06066 
C 1.341951 0.77937 1.5 0.397805 1.5 0 
C 1.5 -0.397805 1.341951 -0.77937 1.06066 -1.06066 
C 0.77937 -1.341951 0.397805 -1.5 0 -1.5 
C -0.397805 -1.5 -0.77937 -1.341951 -1.06066 -1.06066 
C -1.341951 -0.77937 -1.5 -0.397805 -1.5 0 
C -1.5 0.397805 -1.341951 0.77937 -1.06066 1.06066 
C -0.77937 1.341951 -0.397805 1.5 0 1.5 
z
" style="stroke: #ffe4c4"/>
    </defs>
    <g clip-path="url(#pb8dba7adfd)">
     <use xlink:href="#m060ac1854e" x="222.660524" y="89.615044" style="fill: #ffe4c4; stroke: #ffe4c4"/>
     <use xlink:href="#m060ac1854e" x="186.975363" y="123.349289" style="fill: #ffe4c4; stroke: #ffe4c4"/>
     <use xlink:href="#m060ac1854e" x="228.148741" y="136.980415" style="fill: #ffe4c4; stroke: #ffe4c4"/>
     <use xlink:href="#m060ac1854e" x="208.396119" y="113.233389" style="fill: #ffe4c4; stroke: #ffe4c4"/>
     <use xlink:href="#m060ac1854e" x="309.079721" y="100.207612" style="fill: #ffe4c4; stroke: #ffe4c4"/>
     <use xlink:href="#m060ac1854e" x="274.779332" y="117.02657" style="fill: #ffe4c4; stroke: #ffe4c4"/>
     <use xlink:href="#m060ac1854e" x="306.21792" y="77.763202" style="fill: #ffe4c4; stroke: #ffe4c4"/>
     <use xlink:href="#m060ac1854e" x="233.180975" y="137.546314" style="fill: #ffe4c4; stroke: #ffe4c4"/>
     <use xlink:href="#m060ac1854e" x="330.710799" y="188.997705" style="fill: #ffe4c4; stroke: #ffe4c4"/>
     <use xlink:href="#m060ac1854e" x="224.488282" y="87.502525" style="fill: #ffe4c4; stroke: #ffe4c4"/>
     <use xlink:href="#m060ac1854e" x="166.105959" y="160.603648" style="fill: #ffe4c4; stroke: #ffe4c4"/>
     <use xlink:href="#m060ac1854e" x="211.660133" y="142.53945" style="fill: #ffe4c4; stroke: #ffe4c4"/>
     <use xlink:href="#m060ac1854e" x="235.563103" y="98.478639" style="fill: #ffe4c4; stroke: #ffe4c4"/>
     <use xlink:href="#m060ac1854e" x="176.076528" y="124.82289" style="fill: #ffe4c4; stroke: #ffe4c4"/>
     <use xlink:href="#m060ac1854e" x="205.73672" y="143.464055" style="fill: #ffe4c4; stroke: #ffe4c4"/>
     <use xlink:href="#m060ac1854e" x="202.335444" y="111.706724" style="fill: #ffe4c4; stroke: #ffe4c4"/>
     <use xlink:href="#m060ac1854e" x="280.545241" y="145.570177" style="fill: #ffe4c4; stroke: #ffe4c4"/>
    </g>
   </g>
   <g id="PathCollection_10">
    <defs>
     <path id="m1fe5cd92be" d="M -2.99994 2.99994 
L 3.00006 2.99994 
L 3.00006 -3.00006 
L -2.99994 -3.00006 
z
" style="stroke: #000000"/>
    </defs>
    <g clip-path="url(#pb8dba7adfd)">
     <use xlink:href="#m1fe5cd92be" x="189.65304" y="169.362471" style="stroke: #000000"/>
     <use xlink:href="#m1fe5cd92be" x="102.949736" y="200.553876" style="stroke: #000000"/>
     <use xlink:href="#m1fe5cd92be" x="58.636056" y="169.67516" style="stroke: #000000"/>
     <use xlink:href="#m1fe5cd92be" x="135.819334" y="173.929825" style="stroke: #000000"/>
     <use xlink:href="#m1fe5cd92be" x="125.204962" y="186.133279" style="stroke: #000000"/>
     <use xlink:href="#m1fe5cd92be" x="52.809181" y="163.223723" style="stroke: #000000"/>
     <use xlink:href="#m1fe5cd92be" x="205.631607" y="121.823631" style="stroke: #000000"/>
     <use xlink:href="#m1fe5cd92be" x="163.291081" y="188.492028" style="stroke: #000000"/>
     <use xlink:href="#m1fe5cd92be" x="85.187473" y="187.68457" style="stroke: #000000"/>
     <use xlink:href="#m1fe5cd92be" x="197.854424" y="149.509369" style="stroke: #000000"/>
     <use xlink:href="#m1fe5cd92be" x="172.206864" y="152.766642" style="stroke: #000000"/>
     <use xlink:href="#m1fe5cd92be" x="110.785519" y="184.892806" style="stroke: #000000"/>
     <use xlink:href="#m1fe5cd92be" x="106.483608" y="176.163791" style="stroke: #000000"/>
     <use xlink:href="#m1fe5cd92be" x="173.78619" y="169.958482" style="stroke: #000000"/>
     <use xlink:href="#m1fe5cd92be" x="154.878858" y="162.535851" style="stroke: #000000"/>
     <use xlink:href="#m1fe5cd92be" x="179.643449" y="173.528018" style="stroke: #000000"/>
     <use xlink:href="#m1fe5cd92be" x="51.537415" y="190.880188" style="stroke: #000000"/>
     <use xlink:href="#m1fe5cd92be" x="129.06424" y="206.610425" style="stroke: #000000"/>
     <use xlink:href="#m1fe5cd92be" x="257.342564" y="158.131795" style="stroke: #000000"/>
     <use xlink:href="#m1fe5cd92be" x="136.385734" y="130.053338" style="stroke: #000000"/>
     <use xlink:href="#m1fe5cd92be" x="223.868938" y="151.4521" style="stroke: #000000"/>
     <use xlink:href="#m1fe5cd92be" x="276.830578" y="148.656772" style="stroke: #000000"/>
     <use xlink:href="#m1fe5cd92be" x="115.390135" y="208.71541" style="stroke: #000000"/>
     <use xlink:href="#m1fe5cd92be" x="160.877036" y="137.076673" style="stroke: #000000"/>
     <use xlink:href="#m1fe5cd92be" x="144.551784" y="136.530572" style="stroke: #000000"/>
     <use xlink:href="#m1fe5cd92be" x="74.954818" y="197.263659" style="stroke: #000000"/>
     <use xlink:href="#m1fe5cd92be" x="87.296113" y="200.208236" style="stroke: #000000"/>
     <use xlink:href="#m1fe5cd92be" x="114.228503" y="164.728151" style="stroke: #000000"/>
     <use xlink:href="#m1fe5cd92be" x="160.180259" y="155.191305" style="stroke: #000000"/>
     <use xlink:href="#m1fe5cd92be" x="295.73993" y="184.421538" style="stroke: #000000"/>
     <use xlink:href="#m1fe5cd92be" x="102.982365" y="156.179019" style="stroke: #000000"/>
     <use xlink:href="#m1fe5cd92be" x="172.723626" y="123.28233" style="stroke: #000000"/>
     <use xlink:href="#m1fe5cd92be" x="161.908411" y="140.550423" style="stroke: #000000"/>
     <use xlink:href="#m1fe5cd92be" x="121.040645" y="157.155539" style="stroke: #000000"/>
     <use xlink:href="#m1fe5cd92be" x="155.724165" y="120.563367" style="stroke: #000000"/>
     <use xlink:href="#m1fe5cd92be" x="145.212466" y="154.283794" style="stroke: #000000"/>
     <use xlink:href="#m1fe5cd92be" x="159.914553" y="173.905962" style="stroke: #000000"/>
     <use xlink:href="#m1fe5cd92be" x="160.135277" y="195.371261" style="stroke: #000000"/>
     <use xlink:href="#m1fe5cd92be" x="138.641953" y="210.468422" style="stroke: #000000"/>
     <use xlink:href="#m1fe5cd92be" x="144.723616" y="202.958225" style="stroke: #000000"/>
     <use xlink:href="#m1fe5cd92be" x="136.195029" y="201.588072" style="stroke: #000000"/>
     <use xlink:href="#m1fe5cd92be" x="100.817779" y="122.48626" style="stroke: #000000"/>
     <use xlink:href="#m1fe5cd92be" x="186.533119" y="135.789495" style="stroke: #000000"/>
     <use xlink:href="#m1fe5cd92be" x="110.917098" y="169.042493" style="stroke: #000000"/>
     <use xlink:href="#m1fe5cd92be" x="67.714774" y="163.372278" style="stroke: #000000"/>
     <use xlink:href="#m1fe5cd92be" x="134.35869" y="148.75026" style="stroke: #000000"/>
     <use xlink:href="#m1fe5cd92be" x="189.331983" y="143.407402" style="stroke: #000000"/>
     <use xlink:href="#m1fe5cd92be" x="184.151272" y="169.395889" style="stroke: #000000"/>
     <use xlink:href="#m1fe5cd92be" x="250.93427" y="177.791965" style="stroke: #000000"/>
     <use xlink:href="#m1fe5cd92be" x="207.296938" y="156.850006" style="stroke: #000000"/>
     <use xlink:href="#m1fe5cd92be" x="145.038588" y="162.422667" style="stroke: #000000"/>
     <use xlink:href="#m1fe5cd92be" x="84.063945" y="169.802246" style="stroke: #000000"/>
     <use xlink:href="#m1fe5cd92be" x="140.609504" y="153.273648" style="stroke: #000000"/>
     <use xlink:href="#m1fe5cd92be" x="138.229364" y="169.58799" style="stroke: #000000"/>
     <use xlink:href="#m1fe5cd92be" x="119.227905" y="167.143539" style="stroke: #000000"/>
     <use xlink:href="#m1fe5cd92be" x="150.684878" y="170.596467" style="stroke: #000000"/>
     <use xlink:href="#m1fe5cd92be" x="108.534809" y="178.346736" style="stroke: #000000"/>
     <use xlink:href="#m1fe5cd92be" x="117.266362" y="183.529794" style="stroke: #000000"/>
     <use xlink:href="#m1fe5cd92be" x="158.183042" y="159.059249" style="stroke: #000000"/>
     <use xlink:href="#m1fe5cd92be" x="197.024673" y="150.452204" style="stroke: #000000"/>
     <use xlink:href="#m1fe5cd92be" x="218.826361" y="174.861902" style="stroke: #000000"/>
     <use xlink:href="#m1fe5cd92be" x="86.817331" y="154.479619" style="stroke: #000000"/>
     <use xlink:href="#m1fe5cd92be" x="120.499678" y="169.199203" style="stroke: #000000"/>
     <use xlink:href="#m1fe5cd92be" x="128.523632" y="126.974625" style="stroke: #000000"/>
    </g>
   </g>
   <g id="PathCollection_11">
    <defs>
     <path id="m62ced2966e" d="M -3 -0 
L 3 3 
L 3 -3 
z
" style="stroke: #ff8c00"/>
    </defs>
    <g clip-path="url(#pb8dba7adfd)">
     <use xlink:href="#m62ced2966e" x="171.804482" y="180.298135" style="fill: #ff8c00; stroke: #ff8c00"/>
     <use xlink:href="#m62ced2966e" x="171.043276" y="157.518331" style="fill: #ff8c00; stroke: #ff8c00"/>
     <use xlink:href="#m62ced2966e" x="110.770154" y="178.092941" style="fill: #ff8c00; stroke: #ff8c00"/>
     <use xlink:href="#m62ced2966e" x="103.368096" y="191.71044" style="fill: #ff8c00; stroke: #ff8c00"/>
     <use xlink:href="#m62ced2966e" x="162.703537" y="181.892931" style="fill: #ff8c00; stroke: #ff8c00"/>
     <use xlink:href="#m62ced2966e" x="183.630974" y="162.106086" style="fill: #ff8c00; stroke: #ff8c00"/>
     <use xlink:href="#m62ced2966e" x="126.848833" y="174.151836" style="fill: #ff8c00; stroke: #ff8c00"/>
     <use xlink:href="#m62ced2966e" x="200.083753" y="168.759337" style="fill: #ff8c00; stroke: #ff8c00"/>
     <use xlink:href="#m62ced2966e" x="100.735233" y="187.96816" style="fill: #ff8c00; stroke: #ff8c00"/>
     <use xlink:href="#m62ced2966e" x="201.497582" y="209.266001" style="fill: #ff8c00; stroke: #ff8c00"/>
     <use xlink:href="#m62ced2966e" x="168.653151" y="174.858327" style="fill: #ff8c00; stroke: #ff8c00"/>
     <use xlink:href="#m62ced2966e" x="163.018272" y="204.769779" style="fill: #ff8c00; stroke: #ff8c00"/>
     <use xlink:href="#m62ced2966e" x="166.460165" y="151.757408" style="fill: #ff8c00; stroke: #ff8c00"/>
     <use xlink:href="#m62ced2966e" x="148.577655" y="177.467293" style="fill: #ff8c00; stroke: #ff8c00"/>
     <use xlink:href="#m62ced2966e" x="130.696645" y="189.545616" style="fill: #ff8c00; stroke: #ff8c00"/>
     <use xlink:href="#m62ced2966e" x="215.907507" y="164.469594" style="fill: #ff8c00; stroke: #ff8c00"/>
     <use xlink:href="#m62ced2966e" x="186.145934" y="172.545241" style="fill: #ff8c00; stroke: #ff8c00"/>
     <use xlink:href="#m62ced2966e" x="195.92434" y="163.886723" style="fill: #ff8c00; stroke: #ff8c00"/>
     <use xlink:href="#m62ced2966e" x="177.284278" y="183.550309" style="fill: #ff8c00; stroke: #ff8c00"/>
     <use xlink:href="#m62ced2966e" x="161.715112" y="154.509433" style="fill: #ff8c00; stroke: #ff8c00"/>
     <use xlink:href="#m62ced2966e" x="176.292515" y="172.83308" style="fill: #ff8c00; stroke: #ff8c00"/>
     <use xlink:href="#m62ced2966e" x="216.46798" y="163.875407" style="fill: #ff8c00; stroke: #ff8c00"/>
     <use xlink:href="#m62ced2966e" x="189.964212" y="173.074879" style="fill: #ff8c00; stroke: #ff8c00"/>
     <use xlink:href="#m62ced2966e" x="164.459982" y="180.34757" style="fill: #ff8c00; stroke: #ff8c00"/>
     <use xlink:href="#m62ced2966e" x="176.001485" y="188.334145" style="fill: #ff8c00; stroke: #ff8c00"/>
     <use xlink:href="#m62ced2966e" x="152.778705" y="177.742904" style="fill: #ff8c00; stroke: #ff8c00"/>
     <use xlink:href="#m62ced2966e" x="211.806357" y="178.923013" style="fill: #ff8c00; stroke: #ff8c00"/>
     <use xlink:href="#m62ced2966e" x="236.559009" y="202.705678" style="fill: #ff8c00; stroke: #ff8c00"/>
     <use xlink:href="#m62ced2966e" x="228.028604" y="164.995869" style="fill: #ff8c00; stroke: #ff8c00"/>
     <use xlink:href="#m62ced2966e" x="163.972149" y="173.849082" style="fill: #ff8c00; stroke: #ff8c00"/>
     <use xlink:href="#m62ced2966e" x="132.418136" y="181.114741" style="fill: #ff8c00; stroke: #ff8c00"/>
     <use xlink:href="#m62ced2966e" x="101.019295" y="191.182893" style="fill: #ff8c00; stroke: #ff8c00"/>
     <use xlink:href="#m62ced2966e" x="187.590754" y="166.800108" style="fill: #ff8c00; stroke: #ff8c00"/>
     <use xlink:href="#m62ced2966e" x="156.775699" y="182.119686" style="fill: #ff8c00; stroke: #ff8c00"/>
     <use xlink:href="#m62ced2966e" x="211.816557" y="167.474639" style="fill: #ff8c00; stroke: #ff8c00"/>
     <use xlink:href="#m62ced2966e" x="196.856621" y="184.776415" style="fill: #ff8c00; stroke: #ff8c00"/>
     <use xlink:href="#m62ced2966e" x="205.983887" y="200.938767" style="fill: #ff8c00; stroke: #ff8c00"/>
     <use xlink:href="#m62ced2966e" x="214.131107" y="173.43447" style="fill: #ff8c00; stroke: #ff8c00"/>
     <use xlink:href="#m62ced2966e" x="162.946298" y="168.558126" style="fill: #ff8c00; stroke: #ff8c00"/>
     <use xlink:href="#m62ced2966e" x="134.557815" y="184.025794" style="fill: #ff8c00; stroke: #ff8c00"/>
     <use xlink:href="#m62ced2966e" x="205.8214" y="171.464084" style="fill: #ff8c00; stroke: #ff8c00"/>
     <use xlink:href="#m62ced2966e" x="157.792658" y="186.296528" style="fill: #ff8c00; stroke: #ff8c00"/>
     <use xlink:href="#m62ced2966e" x="107.170685" y="191.870977" style="fill: #ff8c00; stroke: #ff8c00"/>
     <use xlink:href="#m62ced2966e" x="189.332918" y="142.634301" style="fill: #ff8c00; stroke: #ff8c00"/>
     <use xlink:href="#m62ced2966e" x="169.172423" y="191.802022" style="fill: #ff8c00; stroke: #ff8c00"/>
     <use xlink:href="#m62ced2966e" x="210.269162" y="176.925133" style="fill: #ff8c00; stroke: #ff8c00"/>
     <use xlink:href="#m62ced2966e" x="185.159335" y="197.584736" style="fill: #ff8c00; stroke: #ff8c00"/>
     <use xlink:href="#m62ced2966e" x="196.575371" y="161.768792" style="fill: #ff8c00; stroke: #ff8c00"/>
     <use xlink:href="#m62ced2966e" x="134.855223" y="173.426271" style="fill: #ff8c00; stroke: #ff8c00"/>
     <use xlink:href="#m62ced2966e" x="128.35509" y="191.53446" style="fill: #ff8c00; stroke: #ff8c00"/>
     <use xlink:href="#m62ced2966e" x="180.809317" y="170.877001" style="fill: #ff8c00; stroke: #ff8c00"/>
     <use xlink:href="#m62ced2966e" x="131.442688" y="187.131808" style="fill: #ff8c00; stroke: #ff8c00"/>
     <use xlink:href="#m62ced2966e" x="201.027505" y="149.456806" style="fill: #ff8c00; stroke: #ff8c00"/>
     <use xlink:href="#m62ced2966e" x="137.111243" y="163.792523" style="fill: #ff8c00; stroke: #ff8c00"/>
     <use xlink:href="#m62ced2966e" x="175.405099" y="159.139533" style="fill: #ff8c00; stroke: #ff8c00"/>
     <use xlink:href="#m62ced2966e" x="143.791768" y="174.188896" style="fill: #ff8c00; stroke: #ff8c00"/>
     <use xlink:href="#m62ced2966e" x="164.619514" y="191.768341" style="fill: #ff8c00; stroke: #ff8c00"/>
     <use xlink:href="#m62ced2966e" x="114.379429" y="181.023857" style="fill: #ff8c00; stroke: #ff8c00"/>
     <use xlink:href="#m62ced2966e" x="229.250583" y="152.160217" style="fill: #ff8c00; stroke: #ff8c00"/>
     <use xlink:href="#m62ced2966e" x="188.279976" y="199.752639" style="fill: #ff8c00; stroke: #ff8c00"/>
     <use xlink:href="#m62ced2966e" x="115.364721" y="176.131152" style="fill: #ff8c00; stroke: #ff8c00"/>
     <use xlink:href="#m62ced2966e" x="161.137993" y="173.83805" style="fill: #ff8c00; stroke: #ff8c00"/>
     <use xlink:href="#m62ced2966e" x="212.969057" y="147.657716" style="fill: #ff8c00; stroke: #ff8c00"/>
     <use xlink:href="#m62ced2966e" x="163.885437" y="166.461836" style="fill: #ff8c00; stroke: #ff8c00"/>
    </g>
   </g>
   <g id="matplotlib.axis_1">
    <g id="xtick_1">
     <g id="line2d_1">
      <defs>
       <path id="m461dae5d05" d="M 0 0 
L 0 3.5 
" style="stroke: #000000; stroke-width: 0.8"/>
      </defs>
      <g>
       <use xlink:href="#m461dae5d05" x="73.908873" y="273.312" style="stroke: #000000; stroke-width: 0.8"/>
      </g>
     </g>
     <g id="text_1">
      <!-- −20 -->
      <g transform="translate(63.356529 287.910437) scale(0.1 -0.1)">
       <defs>
        <path id="DejaVuSans-2212" d="M 678 2272 
L 4684 2272 
L 4684 1741 
L 678 1741 
L 678 2272 
z
" transform="scale(0.015625)"/>
        <path id="DejaVuSans-32" d="M 1228 531 
L 3431 531 
L 3431 0 
L 469 0 
L 469 531 
Q 828 903 1448 1529 
Q 2069 2156 2228 2338 
Q 2531 2678 2651 2914 
Q 2772 3150 2772 3378 
Q 2772 3750 2511 3984 
Q 2250 4219 1831 4219 
Q 1534 4219 1204 4116 
Q 875 4013 500 3803 
L 500 4441 
Q 881 4594 1212 4672 
Q 1544 4750 1819 4750 
Q 2544 4750 2975 4387 
Q 3406 4025 3406 3419 
Q 3406 3131 3298 2873 
Q 3191 2616 2906 2266 
Q 2828 2175 2409 1742 
Q 1991 1309 1228 531 
z
" transform="scale(0.015625)"/>
        <path id="DejaVuSans-30" d="M 2034 4250 
Q 1547 4250 1301 3770 
Q 1056 3291 1056 2328 
Q 1056 1369 1301 889 
Q 1547 409 2034 409 
Q 2525 409 2770 889 
Q 3016 1369 3016 2328 
Q 3016 3291 2770 3770 
Q 2525 4250 2034 4250 
z
M 2034 4750 
Q 2819 4750 3233 4129 
Q 3647 3509 3647 2328 
Q 3647 1150 3233 529 
Q 2819 -91 2034 -91 
Q 1250 -91 836 529 
Q 422 1150 422 2328 
Q 422 3509 836 4129 
Q 1250 4750 2034 4750 
z
" transform="scale(0.015625)"/>
       </defs>
       <use xlink:href="#DejaVuSans-2212"/>
       <use xlink:href="#DejaVuSans-32" x="83.789062"/>
       <use xlink:href="#DejaVuSans-30" x="147.412109"/>
      </g>
     </g>
    </g>
    <g id="xtick_2">
     <g id="line2d_2">
      <g>
       <use xlink:href="#m461dae5d05" x="141.152248" y="273.312" style="stroke: #000000; stroke-width: 0.8"/>
      </g>
     </g>
     <g id="text_2">
      <!-- −10 -->
      <g transform="translate(130.599904 287.910437) scale(0.1 -0.1)">
       <defs>
        <path id="DejaVuSans-31" d="M 794 531 
L 1825 531 
L 1825 4091 
L 703 3866 
L 703 4441 
L 1819 4666 
L 2450 4666 
L 2450 531 
L 3481 531 
L 3481 0 
L 794 0 
L 794 531 
z
" transform="scale(0.015625)"/>
       </defs>
       <use xlink:href="#DejaVuSans-2212"/>
       <use xlink:href="#DejaVuSans-31" x="83.789062"/>
       <use xlink:href="#DejaVuSans-30" x="147.412109"/>
      </g>
     </g>
    </g>
    <g id="xtick_3">
     <g id="line2d_3">
      <g>
       <use xlink:href="#m461dae5d05" x="208.395623" y="273.312" style="stroke: #000000; stroke-width: 0.8"/>
      </g>
     </g>
     <g id="text_3">
      <!-- 0 -->
      <g transform="translate(205.214373 287.910437) scale(0.1 -0.1)">
       <use xlink:href="#DejaVuSans-30"/>
      </g>
     </g>
    </g>
    <g id="xtick_4">
     <g id="line2d_4">
      <g>
       <use xlink:href="#m461dae5d05" x="275.638997" y="273.312" style="stroke: #000000; stroke-width: 0.8"/>
      </g>
     </g>
     <g id="text_4">
      <!-- 10 -->
      <g transform="translate(269.276497 287.910437) scale(0.1 -0.1)">
       <use xlink:href="#DejaVuSans-31"/>
       <use xlink:href="#DejaVuSans-30" x="63.623047"/>
      </g>
     </g>
    </g>
    <g id="xtick_5">
     <g id="line2d_5">
      <g>
       <use xlink:href="#m461dae5d05" x="342.882372" y="273.312" style="stroke: #000000; stroke-width: 0.8"/>
      </g>
     </g>
     <g id="text_5">
      <!-- 20 -->
      <g transform="translate(336.519872 287.910437) scale(0.1 -0.1)">
       <use xlink:href="#DejaVuSans-32"/>
       <use xlink:href="#DejaVuSans-30" x="63.623047"/>
      </g>
     </g>
    </g>
   </g>
   <g id="matplotlib.axis_2">
    <g id="ytick_1">
     <g id="line2d_6">
      <defs>
       <path id="me428bf898b" d="M 0 0 
L -3.5 0 
" style="stroke: #000000; stroke-width: 0.8"/>
      </defs>
      <g>
       <use xlink:href="#me428bf898b" x="35.304688" y="260.550046" style="stroke: #000000; stroke-width: 0.8"/>
      </g>
     </g>
     <g id="text_6">
      <!-- −20 -->
      <g transform="translate(7.2 264.349265) scale(0.1 -0.1)">
       <use xlink:href="#DejaVuSans-2212"/>
       <use xlink:href="#DejaVuSans-32" x="83.789062"/>
       <use xlink:href="#DejaVuSans-30" x="147.412109"/>
      </g>
     </g>
    </g>
    <g id="ytick_2">
     <g id="line2d_7">
      <g>
       <use xlink:href="#me428bf898b" x="35.304688" y="215.968771" style="stroke: #000000; stroke-width: 0.8"/>
      </g>
     </g>
     <g id="text_7">
      <!-- −10 -->
      <g transform="translate(7.2 219.767989) scale(0.1 -0.1)">
       <use xlink:href="#DejaVuSans-2212"/>
       <use xlink:href="#DejaVuSans-31" x="83.789062"/>
       <use xlink:href="#DejaVuSans-30" x="147.412109"/>
      </g>
     </g>
    </g>
    <g id="ytick_3">
     <g id="line2d_8">
      <g>
       <use xlink:href="#me428bf898b" x="35.304688" y="171.387495" style="stroke: #000000; stroke-width: 0.8"/>
      </g>
     </g>
     <g id="text_8">
      <!-- 0 -->
      <g transform="translate(21.942187 175.186714) scale(0.1 -0.1)">
       <use xlink:href="#DejaVuSans-30"/>
      </g>
     </g>
    </g>
    <g id="ytick_4">
     <g id="line2d_9">
      <g>
       <use xlink:href="#me428bf898b" x="35.304688" y="126.806219" style="stroke: #000000; stroke-width: 0.8"/>
      </g>
     </g>
     <g id="text_9">
      <!-- 10 -->
      <g transform="translate(15.579687 130.605438) scale(0.1 -0.1)">
       <use xlink:href="#DejaVuSans-31"/>
       <use xlink:href="#DejaVuSans-30" x="63.623047"/>
      </g>
     </g>
    </g>
    <g id="ytick_5">
     <g id="line2d_10">
      <g>
       <use xlink:href="#me428bf898b" x="35.304688" y="82.224944" style="stroke: #000000; stroke-width: 0.8"/>
      </g>
     </g>
     <g id="text_10">
      <!-- 20 -->
      <g transform="translate(15.579687 86.024163) scale(0.1 -0.1)">
       <use xlink:href="#DejaVuSans-32"/>
       <use xlink:href="#DejaVuSans-30" x="63.623047"/>
      </g>
     </g>
    </g>
    <g id="ytick_6">
     <g id="line2d_11">
      <g>
       <use xlink:href="#me428bf898b" x="35.304688" y="37.643668" style="stroke: #000000; stroke-width: 0.8"/>
      </g>
     </g>
     <g id="text_11">
      <!-- 30 -->
      <g transform="translate(15.579687 41.442887) scale(0.1 -0.1)">
       <defs>
        <path id="DejaVuSans-33" d="M 2597 2516 
Q 3050 2419 3304 2112 
Q 3559 1806 3559 1356 
Q 3559 666 3084 287 
Q 2609 -91 1734 -91 
Q 1441 -91 1130 -33 
Q 819 25 488 141 
L 488 750 
Q 750 597 1062 519 
Q 1375 441 1716 441 
Q 2309 441 2620 675 
Q 2931 909 2931 1356 
Q 2931 1769 2642 2001 
Q 2353 2234 1838 2234 
L 1294 2234 
L 1294 2753 
L 1863 2753 
Q 2328 2753 2575 2939 
Q 2822 3125 2822 3475 
Q 2822 3834 2567 4026 
Q 2313 4219 1838 4219 
Q 1578 4219 1281 4162 
Q 984 4106 628 3988 
L 628 4550 
Q 988 4650 1302 4700 
Q 1616 4750 1894 4750 
Q 2613 4750 3031 4423 
Q 3450 4097 3450 3541 
Q 3450 3153 3228 2886 
Q 3006 2619 2597 2516 
z
" transform="scale(0.015625)"/>
       </defs>
       <use xlink:href="#DejaVuSans-33"/>
       <use xlink:href="#DejaVuSans-30" x="63.623047"/>
      </g>
     </g>
    </g>
   </g>
   <g id="patch_3">
    <path d="M 35.304688 273.312 
L 35.304688 7.2 
" style="fill: none; stroke: #000000; stroke-width: 0.8; stroke-linejoin: miter; stroke-linecap: square"/>
   </g>
   <g id="patch_4">
    <path d="M 392.424688 273.312 
L 392.424688 7.2 
" style="fill: none; stroke: #000000; stroke-width: 0.8; stroke-linejoin: miter; stroke-linecap: square"/>
   </g>
   <g id="patch_5">
    <path d="M 35.304688 273.312 
L 392.424688 273.312 
" style="fill: none; stroke: #000000; stroke-width: 0.8; stroke-linejoin: miter; stroke-linecap: square"/>
   </g>
   <g id="patch_6">
    <path d="M 35.304688 7.2 
L 392.424688 7.2 
" style="fill: none; stroke: #000000; stroke-width: 0.8; stroke-linejoin: miter; stroke-linecap: square"/>
   </g>
  </g>
 </g>
 <defs>
  <clipPath id="pb8dba7adfd">
   <rect x="35.304688" y="7.2" width="357.12" height="266.112"/>
  </clipPath>
 </defs>
</svg>
